<?xml version="1.0" encoding="UTF-8"?>
<svg width="100%" height="100%" viewBox="500 0 1373 857" version="1.1" xmlns="http://www.w3.org/2000/svg" xmlns:xlink="http://www.w3.org/1999/xlink">
    <!-- Generator: Sketch 47.1 (45422) - http://www.bohemiancoding.com/sketch -->
    <title>Logos 2373x857</title>
    <desc>Created with Sketch.</desc>
    <defs></defs>
    <g id="Page-1" stroke="none" stroke-width="1" fill="none" fill-rule="evenodd">
        <g id="Logos-2373x857" fill-rule="nonzero">
            <g id="Dankort" transform="translate(681.000000, 124.000000)">
                <g id="color">
                    <path d="M304.664798,6.71944923 C140.049221,6.71944923 6.29906542,140.478485 6.29906542,304.895009 C6.29906542,469.311532 140.049221,603.280551 304.664798,603.280551 L706.335202,603.280551 C870.74081,603.280551 1004.70093,469.521515 1004.70093,304.895009 C1004.70093,140.478485 870.950779,6.50946644 706.335202,6.50946644 L304.664798,6.50946644 L304.664798,6.71944923 Z" id="Shape" fill="#FFFFFF"></path>
                    <path d="M706.335202,609.370052 L304.664798,609.370052 C136.899688,609.370052 0.209968847,472.881239 0.209968847,304.895009 C0.209968847,137.118761 136.68972,0.629948365 304.664798,0.629948365 L706.335202,0.629948365 C874.100312,0.629948365 1010.58006,137.118761 1010.58006,304.895009 C1010.58006,472.881239 874.100312,609.370052 706.335202,609.370052 L706.335202,609.370052 Z M304.664798,6.71944923 C140.049221,6.71944923 6.29906542,140.478485 6.29906542,304.895009 C6.29906542,469.311532 140.049221,603.280551 304.664798,603.280551 L706.335202,603.280551 C870.74081,603.280551 1004.70093,469.521515 1004.70093,304.895009 C1004.70093,140.478485 870.950779,6.50946644 706.335202,6.50946644 L304.664798,6.50946644 L304.664798,6.71944923 Z" id="Shape" fill="#FFFFFF"></path>
                    <path d="M776.464798,286.836489 L910.004984,445.79346 C937.720872,405.89673 953.888474,357.390706 953.888474,305.104991 C953.888474,250.089501 935.831153,199.063683 905.175701,157.907057 L776.464798,286.836489 Z" id="Shape" fill="#E31F28"></path>
                    <path d="M397.890966,144.258176 C497.626168,144.258176 572.795016,169.666093 580.563863,253.659208 L685.548287,144.258176 L894.677259,144.258176 C849.114019,90.9225473 781.714019,57.1153184 706.335202,57.1153184 L304.664798,57.1153184 C229.285981,57.1153184 161.676012,90.9225473 116.322741,144.258176 L397.890966,144.258176 Z" id="Shape" fill="#E31F28"></path>
                    <path d="M233.695327,250.299484 L198.000623,348.151463 L341.829283,348.151463 C384.242991,348.151463 397.261059,330.512909 406.709657,296.70568 C416.158255,263.108434 392.431776,250.299484 363.456075,250.299484 L233.695327,250.299484 Z" id="Shape" fill="#E31F28"></path>
                    <path d="M686.598131,459.022375 L575.524611,318.753873 C554.947664,414.506024 487.757632,459.022375 361.776324,459.022375 L110.653583,459.022375 C156.006854,516.137694 226.136449,552.674699 304.664798,552.674699 L706.335202,552.674699 C784.863551,552.674699 854.783178,515.927711 900.136449,459.022375 L686.598131,459.022375 Z" id="Shape" fill="#E31F28"></path>
                </g>
            </g>
        </g>
    </g>
</svg>