<?xml version="1.0" encoding="utf-8"?>
<!-- Generator: Adobe Illustrator 18.0.0, SVG Export Plug-In . SVG Version: 6.00 Build 0)  -->
<!DOCTYPE svg PUBLIC "-//W3C//DTD SVG 1.1//EN" "http://www.w3.org/Graphics/SVG/1.1/DTD/svg11.dtd">
<svg version="1.1" id="Layer_1" xmlns="http://www.w3.org/2000/svg" xmlns:xlink="http://www.w3.org/1999/xlink" x="0px" y="0px"
	 viewBox="0 0 751.2 221.1" enable-background="new 0 0 751.2 221.1" xml:space="preserve">
<g>
	<g>
		<path d="M304.5,176.6c-0.6-0.6-1.3-1.1-2.1-1.4c-0.8-0.3-1.7-0.5-2.7-0.5c-0.5,0-1,0-1.6,0.1c-0.6,0.1-1.1,0.2-1.6,0.5
			c-0.5,0.2-1,0.5-1.5,0.9c-0.5,0.4-0.9,0.9-1.2,1.5c-0.6-1-1.4-1.7-2.3-2.2c-1-0.6-2.1-0.8-3.4-0.8c-0.4,0-0.9,0-1.3,0.1
			c-0.4,0.1-0.9,0.2-1.4,0.4s-0.9,0.4-1.3,0.8c-0.4,0.3-0.8,0.7-1.1,1.2v-2.1h-3.6v17.2h3.7v-9.5c0-0.7,0.1-1.4,0.4-1.9
			c0.2-0.6,0.5-1,0.9-1.4c0.4-0.4,0.8-0.7,1.4-0.9c0.5-0.2,1.1-0.3,1.6-0.3c1.2,0,2.2,0.4,2.9,1.2s1,1.9,1,3.3v9.5h3.7v-9.5
			c0-0.7,0.1-1.4,0.4-1.9c0.2-0.6,0.5-1,0.9-1.4c0.4-0.4,0.8-0.7,1.4-0.9c0.5-0.2,1.1-0.3,1.6-0.3c1.2,0,2.2,0.4,2.9,1.2
			s1,1.9,1,3.3v9.5h3.7v-10.8c0-1-0.2-1.9-0.5-2.8C305.5,177.9,305.1,177.2,304.5,176.6z"/>
		<path d="M323.7,177.2c-0.6-0.8-1.3-1.4-2.2-1.8c-0.9-0.4-1.9-0.7-3.2-0.7c-1.2,0-2.3,0.2-3.4,0.7c-1,0.4-1.9,1.1-2.7,1.9
			c-0.8,0.8-1.4,1.8-1.8,2.9c-0.4,1.1-0.6,2.3-0.6,3.6c0,1.3,0.2,2.5,0.6,3.6c0.4,1.1,1,2,1.8,2.9c0.8,0.8,1.7,1.4,2.7,1.9
			c1,0.4,2.2,0.7,3.4,0.7c1.2,0,2.3-0.2,3.2-0.7c0.9-0.4,1.6-1,2.2-1.8v2h3.7v-17.2h-3.7V177.2z M323.5,185.9
			c-0.2,0.7-0.6,1.2-1,1.7c-0.4,0.5-1,0.9-1.6,1.2c-0.6,0.3-1.3,0.4-2.1,0.4c-0.8,0-1.5-0.2-2.2-0.4c-0.6-0.3-1.2-0.7-1.6-1.2
			s-0.8-1.1-1-1.7c-0.2-0.7-0.4-1.4-0.4-2.1c0-0.8,0.1-1.4,0.4-2.1s0.6-1.2,1-1.7s1-0.9,1.6-1.2c0.6-0.3,1.4-0.4,2.2-0.4
			c0.8,0,1.5,0.1,2.1,0.4c0.6,0.3,1.2,0.7,1.6,1.2c0.4,0.5,0.8,1.1,1,1.7c0.2,0.7,0.4,1.4,0.4,2.2
			C323.9,184.5,323.8,185.2,323.5,185.9z"/>
		<path d="M344.6,183.7c-1-0.8-2.5-1.4-4.4-1.6l-1.8-0.3c-0.4,0-0.8-0.1-1.1-0.2c-0.4-0.1-0.6-0.2-0.9-0.3s-0.4-0.3-0.6-0.5
			s-0.2-0.4-0.2-0.8c0-0.6,0.3-1.1,0.8-1.5c0.6-0.4,1.4-0.6,2.4-0.6c0.5,0,1.1,0,1.6,0.2c0.5,0.1,1,0.2,1.5,0.4
			c0.5,0.2,0.9,0.3,1.3,0.5c0.4,0.2,0.7,0.3,1,0.5l1.6-2.9c-0.9-0.6-1.9-1-3.1-1.3c-1.2-0.3-2.5-0.5-3.8-0.5c-1.1,0-2.1,0.1-3,0.4
			c-0.9,0.2-1.6,0.6-2.2,1.1c-0.6,0.5-1.1,1-1.4,1.7c-0.3,0.7-0.5,1.4-0.5,2.3c0,1.4,0.5,2.5,1.5,3.4c1,0.8,2.5,1.4,4.3,1.7l1.8,0.2
			c1,0.2,1.8,0.4,2.2,0.7c0.5,0.3,0.7,0.7,0.7,1.2c0,0.6-0.3,1.2-1,1.5c-0.6,0.4-1.6,0.6-2.9,0.6c-0.7,0-1.3,0-1.9-0.2
			c-0.6-0.1-1-0.2-1.5-0.4c-0.4-0.2-0.9-0.4-1.2-0.6c-0.4-0.2-0.7-0.4-1-0.7l-1.7,2.8c0.6,0.5,1.3,0.8,2,1.1c0.7,0.3,1.4,0.5,2,0.7
			c0.6,0.2,1.3,0.3,1.8,0.3c0.6,0,1.1,0.1,1.5,0.1c1.2,0,2.3-0.1,3.3-0.4c1-0.3,1.8-0.6,2.5-1.2c0.6-0.5,1.2-1.1,1.5-1.8
			s0.5-1.4,0.5-2.2C346.2,185.6,345.7,184.5,344.6,183.7z"/>
		<path d="M379.7,177.2c-0.7-0.8-1.6-1.4-2.6-1.8c-1-0.4-2.1-0.6-3.3-0.6c-1.3,0-2.4,0.2-3.5,0.6c-1,0.4-1.9,1-2.7,1.8
			c-0.8,0.8-1.3,1.7-1.8,2.9c-0.4,1.1-0.6,2.3-0.6,3.7c0,1.4,0.2,2.6,0.6,3.7c0.4,1.1,1,2,1.8,2.9c0.8,0.8,1.7,1.4,2.8,1.8
			c1.1,0.4,2.2,0.6,3.5,0.6c1.3,0,2.5-0.2,3.7-0.5c1.2-0.4,2.3-1,3.3-1.9l-1.8-2.7c-0.7,0.6-1.5,1-2.4,1.3c-0.9,0.3-1.7,0.5-2.6,0.5
			c-0.6,0-1.2-0.1-1.8-0.2c-0.6-0.2-1.1-0.4-1.5-0.8c-0.4-0.4-0.8-0.8-1.2-1.4c-0.3-0.6-0.6-1.2-0.6-2h12.7c0-0.2,0-0.4,0-0.7
			c0-0.2,0-0.5,0-0.7c0-1.3-0.2-2.6-0.6-3.7C380.9,178.9,380.4,178,379.7,177.2z M369.2,182.3c0.1-0.6,0.3-1.2,0.5-1.7
			c0.2-0.5,0.6-1,0.9-1.3c0.4-0.4,0.8-0.7,1.3-0.9c0.5-0.2,1.1-0.3,1.8-0.3c1.2,0,2.2,0.4,2.9,1.1c0.8,0.7,1.2,1.8,1.4,3.1H369.2z"
			/>
		<path d="M429.4,177.2c-0.6-0.8-1.3-1.4-2.2-1.8c-0.9-0.4-1.9-0.7-3.2-0.7c-1.2,0-2.3,0.2-3.4,0.7c-1,0.4-1.9,1.1-2.7,1.9
			c-0.8,0.8-1.4,1.8-1.8,2.9c-0.4,1.1-0.6,2.3-0.6,3.6c0,1.3,0.2,2.5,0.6,3.6c0.4,1.1,1,2,1.8,2.9c0.8,0.8,1.7,1.4,2.7,1.9
			c1,0.4,2.2,0.7,3.4,0.7c1.2,0,2.3-0.2,3.2-0.7c0.9-0.4,1.6-1,2.2-1.8v2h3.7v-17.2h-3.7V177.2z M429.2,185.9
			c-0.2,0.7-0.6,1.2-1,1.7s-1,0.9-1.6,1.2c-0.6,0.3-1.3,0.4-2.1,0.4s-1.5-0.2-2.2-0.4c-0.6-0.3-1.2-0.7-1.6-1.2
			c-0.4-0.5-0.8-1.1-1-1.7c-0.2-0.7-0.4-1.4-0.4-2.1c0-0.8,0.1-1.4,0.4-2.1s0.6-1.2,1-1.7c0.4-0.5,1-0.9,1.6-1.2s1.4-0.4,2.2-0.4
			c0.8,0,1.5,0.1,2.1,0.4c0.6,0.3,1.2,0.7,1.6,1.2c0.4,0.5,0.8,1.1,1,1.7c0.2,0.7,0.4,1.4,0.4,2.2
			C429.6,184.5,429.5,185.2,429.2,185.9z"/>
		<path d="M360.6,188.9c-0.6,0.2-1.2,0.3-1.8,0.3c-0.4,0-0.7,0-1.1-0.2c-0.3-0.1-0.6-0.3-0.8-0.6c-0.2-0.2-0.4-0.6-0.6-1
			c-0.1-0.4-0.2-0.9-0.2-1.5v-7.5h6v-3.4h-6v-5.2h-3.8v5.2H349v3.4h3.4v7.6c0,2.3,0.5,4,1.6,5c1.1,1.1,2.6,1.6,4.5,1.6
			c1.1,0,2-0.2,2.9-0.5c0.6-0.2,1.1-0.5,1.6-0.8l-1.3-3.1C361.5,188.5,361.1,188.7,360.6,188.9z"/>
		<path d="M394.4,174.7c-1,0-2,0.2-2.9,0.6c-0.8,0.4-1.6,1.3-2.1,2.1v-2.2H386v17.2h3.4v-9.4c0-0.7,0.1-1.4,0.3-2
			c0.2-0.6,0.5-1,0.8-1.4c0.4-0.4,0.8-0.7,1.3-0.9c0.5-0.2,1-0.3,1.6-0.3c0.4,0,0.9,0,1.5,0.2c0.3,0,0.5,0.1,0.8,0.2l1.1-3.6
			c-0.3-0.1-0.6-0.2-0.9-0.2C395.5,174.7,395,174.7,394.4,174.7z"/>
		<path d="M446.5,174.7c-1,0-2,0.2-2.9,0.6c-0.8,0.4-1.6,1.3-2.1,2.1v-2.2h-3.4v17.2h3.4v-9.4c0-0.7,0.1-1.4,0.3-2
			c0.2-0.6,0.5-1,0.8-1.4s0.8-0.7,1.3-0.9c0.5-0.2,1-0.3,1.6-0.3c0.4,0,0.9,0,1.5,0.2c0.3,0,0.5,0.1,0.8,0.2l1.1-3.6
			c-0.3-0.1-0.6-0.2-0.9-0.2C447.5,174.7,447,174.7,446.5,174.7z"/>
		<path d="M463.9,168.2v9c-0.6-0.8-1.3-1.4-2.2-1.8c-0.9-0.4-1.9-0.7-3.2-0.7c-1.2,0-2.3,0.2-3.4,0.7c-1,0.4-1.9,1.1-2.7,1.9
			c-0.8,0.8-1.4,1.8-1.8,2.9c-0.4,1.1-0.6,2.3-0.6,3.6c0,1.3,0.2,2.5,0.6,3.6s1,2,1.8,2.9c0.8,0.8,1.7,1.4,2.7,1.9
			c1,0.4,2.2,0.7,3.4,0.7c1.2,0,2.3-0.2,3.2-0.7c0.9-0.4,1.6-1,2.2-1.8v2h3.7v-24.1H463.9z M463.8,185.9c-0.2,0.7-0.6,1.2-1,1.7
			c-0.4,0.5-1,0.9-1.6,1.2c-0.6,0.3-1.3,0.4-2.1,0.4c-0.8,0-1.5-0.2-2.2-0.4c-0.6-0.3-1.2-0.7-1.6-1.2c-0.4-0.5-0.8-1.1-1-1.7
			c-0.2-0.7-0.4-1.4-0.4-2.1c0-0.8,0.1-1.4,0.4-2.1c0.2-0.7,0.6-1.2,1-1.7c0.4-0.5,1-0.9,1.6-1.2c0.6-0.3,1.4-0.4,2.2-0.4
			c0.8,0,1.5,0.1,2.1,0.4c0.6,0.3,1.2,0.7,1.6,1.2c0.4,0.5,0.8,1.1,1,1.7c0.2,0.7,0.4,1.4,0.4,2.2
			C464.2,184.5,464.1,185.2,463.8,185.9z"/>
		<path d="M403.4,179.7c0.5-0.5,1-0.8,1.7-1.1c0.6-0.3,1.4-0.4,2.1-0.4l0,0c0.8,0,1.6,0.1,2.3,0.4c0.7,0.2,1.3,0.6,1.8,1.1l1.8-3
			c-0.7-0.5-1.4-1-2.3-1.3c-1.1-0.4-2.4-0.7-3.7-0.7c-1.3,0-2.6,0.2-3.7,0.7c-1.1,0.4-2.1,1.1-2.9,1.9c-0.8,0.8-1.4,1.8-1.9,2.9
			c-0.5,1.1-0.7,2.3-0.7,3.6s0.2,2.5,0.7,3.6c0.5,1.1,1.1,2,1.9,2.9c0.8,0.8,1.8,1.4,2.9,1.9c1.1,0.4,2.4,0.7,3.7,0.7
			s2.6-0.2,3.7-0.7c0.8-0.4,1.6-0.8,2.3-1.3l-1.8-3c-0.5,0.4-1.1,0.8-1.8,1.1c-0.7,0.3-1.5,0.4-2.3,0.4l0,0c-0.8,0-1.5-0.1-2.1-0.4
			c-0.6-0.3-1.2-0.6-1.7-1.1s-0.8-1-1.1-1.7c-0.3-0.7-0.4-1.4-0.4-2.2c0-0.8,0.1-1.6,0.4-2.2C402.5,180.8,402.9,180.2,403.4,179.7z"
			/>
	</g>
	<g>
		<path d="M475.6,189.8c0.2,0,0.5,0,0.7,0.1s0.4,0.2,0.6,0.4c0.2,0.2,0.3,0.4,0.4,0.6c0.1,0.2,0.1,0.4,0.1,0.7c0,0.2,0,0.5-0.1,0.7
			c-0.1,0.2-0.2,0.4-0.4,0.6c-0.2,0.2-0.4,0.3-0.6,0.4s-0.4,0.1-0.7,0.1s-0.5,0-0.7-0.1c-0.2-0.1-0.4-0.2-0.6-0.4
			c-0.2-0.2-0.3-0.4-0.4-0.6c-0.1-0.2-0.1-0.4-0.1-0.7c0-0.2,0-0.5,0.1-0.7c0.1-0.2,0.2-0.4,0.4-0.6c0.2-0.2,0.4-0.3,0.6-0.4
			C475.1,189.8,475.3,189.8,475.6,189.8z M475.6,192.8c0.2,0,0.3,0,0.5-0.1c0.2-0.1,0.3-0.2,0.4-0.3c0.1-0.1,0.2-0.2,0.3-0.4
			c0.1-0.2,0.1-0.3,0.1-0.5c0-0.2,0-0.3-0.1-0.5c-0.1-0.2-0.2-0.3-0.3-0.4c-0.1-0.1-0.2-0.2-0.4-0.3c-0.2-0.1-0.3-0.1-0.5-0.1
			c-0.2,0-0.4,0-0.5,0.1c-0.2,0.1-0.3,0.2-0.4,0.3c-0.1,0.1-0.2,0.2-0.3,0.4c-0.1,0.2-0.1,0.3-0.1,0.5c0,0.2,0,0.4,0.1,0.5
			c0.1,0.2,0.2,0.3,0.3,0.4c0.1,0.1,0.2,0.2,0.4,0.3C475.2,192.8,475.4,192.8,475.6,192.8z M475.7,190.7c0.2,0,0.4,0,0.5,0.2
			c0.1,0.1,0.2,0.2,0.2,0.4c0,0.1,0,0.2-0.1,0.3c-0.1,0.1-0.2,0.1-0.4,0.2l0.5,0.6h-0.5l-0.4-0.5h0v0.5h-0.4v-1.6L475.7,190.7
			L475.7,190.7z M475.3,191.1v0.3h0.3c0.1,0,0.1,0,0.2,0s0,0,0-0.1c0,0,0-0.1,0-0.1s-0.1,0-0.2,0L475.3,191.1L475.3,191.1z"/>
	</g>
	<g>
		<path fill="#ED2026" d="M348.8,95c0-20.6,9.6-38.8,24.5-50.7c-11-8.7-24.9-13.9-40.1-13.9c-35.7,0-64.6,28.9-64.6,64.6
			s28.9,64.6,64.6,64.6c15.1,0,29.1-5.2,40.1-13.9C358.4,133.8,348.8,115.5,348.8,95z"/>
		<path fill="#F26A21" d="M348.8,95c0,20.6,9.6,38.8,24.5,50.7c14.9-11.9,24.5-30.1,24.5-50.7s-9.6-38.8-24.5-50.7
			C358.4,56.1,348.8,74.4,348.8,95z"/>
		<path fill="#F99F1D" d="M473.7,129.9V128h-0.8v-0.5h2.1v0.5h-0.8v1.9H473.7z M477.7,129.9v-1.7l-0.6,1.4h-0.6l-0.6-1.4v1.7h-0.6
			v-2.4h0.8l0.6,1.5l0.6-1.5h0.8v2.4H477.7z"/>
		<path fill="#F99F1D" d="M413.4,30.3c-15.1,0-29.1,5.2-40.1,13.9c14.9,11.9,24.5,30.1,24.5,50.7s-9.6,38.8-24.5,50.7
			c11,8.7,24.9,13.9,40.1,13.9c35.7,0,64.6-28.9,64.6-64.6S449.1,30.3,413.4,30.3z"/>
	</g>
</g>
</svg>
