<?xml version="1.0" encoding="UTF-8"?>
<svg width="56px" height="36px" viewBox="0 0 56 36" version="1.1" xmlns="http://www.w3.org/2000/svg" xmlns:xlink="http://www.w3.org/1999/xlink">
    <!-- Generator: Sketch 50.2 (55047) - http://www.bohemiancoding.com/sketch -->
    <title>cc/123s</title>
    <desc>Created with Sketch.</desc>
    <defs></defs>
    <g id="cc/123s" stroke="none" stroke-width="1" fill="none" fill-rule="evenodd">
        <path d="M0,3.75075247 C0,1.67926908 1.67596877,0 3.75035585,0 L52.2496442,0 C54.3209085,0 56,1.68806916 56,3.75075247 L56,32.2492475 C56,34.3207309 54.3240312,36 52.2496442,36 L3.75035585,36 C1.67909151,36 0,34.3119308 0,32.2492475 L0,3.75075247 Z" id="Rectangle-2" fill="#000000" fill-rule="nonzero"></path>
        <path d="M1.25,3.75075247 L1.25,32.2492475 C1.25,33.6250965 2.37296468,34.75 3.75035585,34.75 L52.2496442,34.75 C53.6324061,34.75 54.75,33.6316447 54.75,32.2492475 L54.75,3.75075247 C54.75,2.37490355 53.6270353,1.25 52.2496442,1.25 L3.75035585,1.25 C2.36759386,1.25 1.25,2.36835527 1.25,3.75075247 Z" id="Path" fill="#FFFFFF"></path>
        <g id="123S_LOGO" transform="translate(11.000000, 4.000000)" fill-rule="nonzero">
            <path d="M34.6165339,0.383005181 C34.4294929,0.177055608 34.16935,0.0600858487 33.897012,0.0594818653 L1.09043825,0.0594818653 C0.527049511,0.0762379155 0.0745425988,0.548306812 0.0599601594,1.13450777 L0.0599601594,26.906114 C0.0567020673,27.1911153 0.169698824,27.4642 0.370916335,27.6576166 C0.557957285,27.8635662 0.818100221,27.9805359 1.09043825,27.9811399 L33.897012,27.9811399 C34.1693842,27.9807071 34.4295893,27.8637094 34.6165339,27.6576166 C34.8151848,27.4641313 34.9256574,27.192078 34.9205179,26.9090155 L34.9205179,1.13450777 C34.926632,0.850406768 34.8160641,0.577063247 34.6165339,0.383005181 Z" id="logo" fill="#231F20"></path>
            <rect id="Rectangle-path" fill="#FFFFFF" x="25.9320717" y="3.69222798" width="2.03864542" height="10.9432124"></rect>
            <polygon id="Shape" fill="#FFFFFF" points="22.4822709 3.69222798 24.5348606 3.69222798 24.5348606 20.5023834 22.4683267 20.5023834"></polygon>
            <rect id="Rectangle-path" fill="#FFFFFF" x="29.3609562" y="3.69222798" width="2.05956175" height="10.9432124"></rect>
            <rect id="Rectangle-path" fill="#FFFFFF" x="14.7418327" y="3.71398964" width="2.08187251" height="10.9214508"></rect>
            <rect id="Rectangle-path" fill="#FFFFFF" x="11.3129482" y="3.71398964" width="2.05956175" height="16.7883938"></rect>
            <rect id="Rectangle-path" fill="#FFFFFF" x="3.56972112" y="3.69222798" width="2.07350598" height="16.8101554"></rect>
            <polygon id="Shape" fill="#2896C8" points="7.90219124 17.4586528 7.87848606 17.4586528 6.56354582 18.1970984 6.36553785 17.386114 8.01792829 16.4663212 8.89083665 16.4663212 8.89083665 24.333886 7.90219124 24.333886"></polygon>
            <path d="M15.5743028,24.333886 L15.5743028,23.6795855 L16.3747012,22.8700518 C18.3059761,20.9579275 19.1788845,19.9409326 19.1900398,18.7541969 C19.1900398,17.9548187 18.8177291,17.2163731 17.6896414,17.2163731 C17.0035857,17.2163731 16.4346614,17.5790674 16.0846614,17.8822798 L15.7583665,17.132228 C16.3590914,16.6118111 17.117104,16.3287201 17.8988048,16.3328497 C19.52749,16.3328497 20.2135458,17.4934715 20.2135458,18.6207254 C20.2135458,20.0715026 19.2011952,21.2480829 17.6073705,22.8453886 L17.0021912,23.4256995 L17.0021912,23.4503627 L20.399004,23.4503627 L20.399004,24.333886 L15.5743028,24.333886 Z" id="Shape" fill="#8BC557"></path>
            <path d="M27.0099602,23.1108808 C27.5172982,23.4235673 28.0937158,23.5944855 28.6832669,23.6070466 C29.9982072,23.6070466 30.4053785,22.7365803 30.3928287,22.0822798 C30.3816733,20.9811399 29.426494,20.5081865 28.4406375,20.5081865 L27.8703187,20.5081865 L27.8703187,19.7088083 L28.4406375,19.7088083 C29.185259,19.7088083 30.1278884,19.3098446 30.1278884,18.3769948 C30.1278884,17.7473575 29.7444223,17.1902591 28.8017928,17.1902591 C28.2593643,17.2061429 27.73333,17.387229 27.2888446,17.7110881 L27.0211155,16.9363731 C27.6092971,16.5381703 28.2966715,16.3278605 28.9984064,16.331399 C30.4876494,16.331399 31.1625498,17.2511917 31.1625498,18.2072539 C31.1625498,19.0182383 30.6968127,19.7073575 29.7681275,20.0598964 L29.7681275,20.0845596 C30.6996016,20.2789637 31.4553785,21.0043523 31.4553785,22.1054922 C31.4553785,23.3647668 30.512749,24.4659067 28.6986056,24.4659067 C28.0092114,24.4749274 27.3301543,24.2910367 26.7324701,23.9334715 L27.0099602,23.1108808 Z" id="Shape" fill="#FFFFFF"></path>
        </g>
    </g>
</svg>