<svg width="56" height="36" xmlns="http://www.w3.org/2000/svg"><g fill="none" fill-rule="evenodd"><path d="M0 3.75A3.749 3.749 0 013.75 0h48.5A3.756 3.756 0 0156 3.75v28.5A3.749 3.749 0 0152.25 36H3.75A3.756 3.756 0 010 32.25V3.75z" fill="#000" fill-rule="nonzero"/><path d="M1.25 3.75v28.5c0 1.375 1.123 2.5 2.5 2.5h48.5c1.382 0 2.5-1.118 2.5-2.5V3.75c0-1.375-1.123-2.5-2.5-2.5H3.75a2.499 2.499 0 00-2.5 2.5z" fill="#FFF"/><g fill-rule="nonzero"><path d="M21.676 25.506h-.209c-.015 0-.03 0-.05.015-.018.015-.03.015-.049.03l-.562.386c-.015.015-.03.03-.049.03h-.099l.452-.96h-.224l-.756 1.648h.224l.243-.544h.065c.03 0 .05 0 .05.015.015 0 .015.015.03.03l.209.465c0 .015 0 .03.015.03 0 0 .015.015.03.015h.21l-.244-.559c0-.015-.015-.03-.015-.049 0-.015-.015-.015-.03-.03.015 0 .03-.015.049-.03.015-.016.03-.016.05-.03l.66-.462zm-2.077.238c.05-.03.095-.064.144-.08a.628.628 0 01.179-.03c.049 0 .08 0 .113.016.035.015.05.015.065.03s.03.015.03.03c.016.015.03.015.05.015h.03c.015 0 .015-.015.03-.03l.095-.064c-.03-.05-.08-.08-.129-.114a.426.426 0 00-.209-.049.695.695 0 00-.258.05c-.095.03-.178.079-.258.128a.589.589 0 00-.194.193.814.814 0 00-.16.242c-.03.094-.064.177-.064.242 0 .064.015.128.03.192.031.05.08.08.13.114.064.03.129.049.209.049.08 0 .178-.015.273-.05.095-.03.179-.079.258-.128l-.03-.064c0-.015-.015-.015-.03-.015-.016 0-.03 0-.05.015-.015.015-.05.015-.08.049-.03.015-.064.015-.114.03-.049.015-.094.03-.144.03a.324.324 0 01-.129-.03.2.2 0 01-.08-.08c-.015-.03-.015-.078-.015-.143 0-.049.03-.113.065-.177.03-.065.064-.129.095-.178a.54.54 0 01.148-.193zm4.2-.223a.752.752 0 00-.258.129c-.065.049-.13.113-.21.193a.574.574 0 00-.144.241c-.03.095-.064.178-.064.242 0 .08.015.129.03.178.03.05.08.094.144.128.065.03.13.05.225.05a.774.774 0 00.273-.05c.08-.03.16-.064.224-.128.08-.05.144-.113.209-.178a.854.854 0 00.129-.242c.05-.094.065-.177.08-.241a.365.365 0 00-.05-.193.463.463 0 00-.129-.129.54.54 0 00-.224-.049.657.657 0 00-.235.05zm-.145.223c.05-.03.114-.064.145-.08a.628.628 0 01.178-.03c.13 0 .194.05.224.13.03.079.015.177-.05.32a.735.735 0 01-.242.303.513.513 0 01-.323.128.479.479 0 01-.16-.03c-.03-.015-.049-.05-.064-.094-.015-.03-.015-.08-.015-.129.015-.05.03-.113.064-.178.03-.064.065-.128.095-.192.05-.065.1-.099.148-.148zm-1.013-.223a.819.819 0 00-.244.129.834.834 0 00-.208.193.574.574 0 00-.145.241c-.03.095-.064.178-.064.242 0 .065.015.129.05.193.03.05.064.08.128.113.065.03.13.05.21.05.079 0 .178-.016.273-.05.094-.03.178-.079.258-.128l-.03-.064c0-.015-.016-.015-.05-.015-.015 0-.03 0-.05.015-.015.015-.049.015-.08.049-.03.015-.064.015-.094.03a.329.329 0 01-.273 0 .2.2 0 01-.08-.08c-.015-.03-.015-.079 0-.143 0-.05.015-.113.05-.178a.62.62 0 01.113-.177c.03-.05.08-.095.13-.129.049-.03.094-.064.143-.08a.628.628 0 01.179-.03c.05 0 .08 0 .114.016.034.015.064.015.08.03.015.015.03.015.049.03.015.015.015.015.03.015h.03c.016 0 .031-.015.05-.03l.08-.064c-.03-.05-.08-.08-.13-.113a.388.388 0 00-.208-.05c-.152-.045-.232-.045-.311-.015zm8.122.866c-.015 0-.05-.015-.064-.015-.03 0-.05 0-.065.015-.015 0-.03.015-.05.03-.018.015-.03.03-.064.05-.015.014-.015.03-.03.048-.015.02-.015.05-.015.065.015.015.015.03.03.049 0 .015 0 .03.015.03s.03.015.05.015h.015a.12.12 0 01-.065.064c-.015.015-.03.05-.064.05l-.05.049s-.03.03-.049.03c-.015.015-.03.015-.05.03-.015.015 0 .015.016.03l.015.03c.05-.03.095-.064.144-.094.05-.03.08-.064.13-.094.03-.03.049-.065.08-.095.03-.03.049-.064.064-.113.015-.015.015-.05.015-.065v-.049c.011-.045.011-.06-.008-.06zm-2.426-.88a.628.628 0 00-.437.018.893.893 0 00-.243.129c-.08.049-.144.113-.209.177-.064.064-.095.144-.129.223a.626.626 0 00-.08.272c0 .08.015.129.05.178.03.05.08.094.129.128.064.03.129.05.224.05.05 0 .095 0 .144-.016.05-.015.095-.015.144-.03.05-.015.095-.03.145-.049a.371.371 0 00.129-.08l-.03-.064c-.016-.015-.016-.015-.05-.015-.015 0-.03 0-.05.015-.015.016-.049.016-.094.05-.03.015-.08.015-.13.03-.049.015-.094.015-.144.015-.064 0-.095 0-.144-.015a.157.157 0 01-.095-.08c-.015-.03-.015-.079-.015-.128a.51.51 0 01.05-.193h.82c.015 0 .03 0 .049-.015a.189.189 0 00.05-.064c.03-.08.049-.159.064-.223 0-.064 0-.114-.03-.159-.008-.09-.054-.125-.118-.155zm-.13.143c.031.015.065.03.096.064.015.03.015.064 0 .113a.25.25 0 01-.05.129h-.676a.681.681 0 01.224-.242c.08-.064.179-.08.289-.08.053 0 .102 0 .118.016zm-1.788.015l.05-.129c0-.03-.016-.049-.05-.049h-.13l-.516 1.138h.21l.368-.832c.064-.049.144-.094.208-.128a.46.46 0 01.194-.05c.095 0 .144.016.16.065a.342.342 0 01-.016.208l-.338.722h.225l.338-.722a.45.45 0 00.049-.178c0-.049 0-.094-.015-.128a.44.44 0 00-.08-.095c-.05-.015-.095-.03-.179-.03a.681.681 0 00-.258.05c-.057.063-.136.094-.22.158zm-.611.08c0-.05 0-.095-.016-.13-.015-.03-.049-.064-.08-.094-.049-.015-.094-.03-.178-.03a.642.642 0 00-.258.05c-.08.03-.16.079-.243.143l.05-.129c0-.03-.016-.049-.05-.049h-.13l-.516 1.138h.21l.387-.832c.064-.049.144-.094.208-.128.065-.03.13-.05.21-.05.079 0 .144.016.159.065.015.049.015.113-.03.208l-.339.722h.224l.323-.722a.22.22 0 00.069-.163zm4.587-.61c-.015.016-.03.016-.03.031l-.21.351-.208.03-.03.08v.03s.015.015.03.015h.144l-.304.688c-.049.095-.049.16-.015.208.034.05.095.064.179.064.064 0 .114 0 .178-.015a.64.64 0 00.179-.079l-.016-.095c0-.015-.015-.015-.015-.015s-.03 0-.05.015c0 0-.014.016-.03.016-.015.015-.03.015-.049.03h-.08c-.049 0-.064-.015-.064-.05-.015-.014-.015-.048 0-.094l.304-.688h.368l.065-.143h-.369l.179-.4h-.114c-.012.007-.027.022-.042.022zm-1.337.61c.05-.031.095-.065.16-.08a.623.623 0 01.16-.03c.045 0 .079 0 .113.015s.05.015.065.03.03.015.03.03c.015.015.03.015.05.015h.015c.015 0 .015-.015.03-.03l.095-.064c-.03-.05-.08-.08-.13-.114a.426.426 0 00-.208-.049.718.718 0 00-.273.05.819.819 0 00-.243.128.589.589 0 00-.194.193.574.574 0 00-.144.242c-.03.094-.065.177-.065.242 0 .064.015.128.03.192.03.05.08.08.13.114.064.03.129.049.208.049a.774.774 0 00.274-.05c.095-.03.178-.079.258-.128l-.03-.064c0-.015-.016-.015-.03-.015-.016 0-.016 0-.05.015-.015.015-.05.015-.08.049-.03.015-.064.015-.095.03-.05.015-.095.03-.144.03a.324.324 0 01-.13-.03.2.2 0 01-.079-.08c-.015-.03-.015-.078-.015-.143 0-.049.015-.113.05-.177.033-.065.064-.129.113-.178.034-.094.084-.144.13-.193zm-10.697.899h.209l.516-1.138h-.209l-.516 1.138zm-.691-1.138h-.21l-.337.737a.45.45 0 00-.05.178c0 .049 0 .094.03.128.016.05.05.08.08.095.05.015.114.03.179.03.08 0 .16-.015.243-.05.08-.03.16-.078.243-.128l-.05.129c0 .03 0 .049.031.049h.13l.516-1.138h-.21l-.368.85c-.064.05-.144.08-.208.114-.065.03-.13.03-.21.05-.079 0-.144-.03-.159-.065-.03-.05-.015-.113.015-.193l.335-.786zm1.317-.257c0 .015.016.03.03.03.016 0 .05.015.065.015s.05 0 .065-.015c.015 0 .05-.015.064-.03.016-.015.05-.03.065-.049l.05-.05c0-.014.015-.048.015-.063 0-.016 0-.03-.03-.05 0-.015-.016-.03-.031-.03h-.114s-.03.015-.05.03l-.049.05c-.03.015-.05.03-.05.064-.014.015-.014.03 0 .049-.045.019-.045.034-.03.05zm-2.445-.242c-.114 0-.243.015-.353.05 0 0-.016 0-.05.014-.129.05-.243.095-.338.178a1.043 1.043 0 00-.288.257c-.095.095-.16.208-.224.337a.838.838 0 00-.08.336.347.347 0 00.064.257c.03.08.095.128.179.178.095.03.209.049.338.049.05 0 .114 0 .16-.015.049-.016.113-.016.159-.03l.178.302c0 .015.016.03.05.049h.258l-.243-.45c.064-.03.144-.08.209-.128.064-.05.129-.095.178-.144a.794.794 0 00.16-.193c.05-.064.095-.143.129-.208.05-.128.08-.242.095-.336a.583.583 0 00-.065-.257.546.546 0 00-.193-.178s-.016-.015-.05-.015a.605.605 0 00-.273-.053zm-.369.242a.964.964 0 01.289-.049c.095 0 .179.015.224.05.065.03.114.063.144.128.03.049.05.113.03.192 0 .08-.03.178-.079.273-.05.094-.095.192-.16.272-.064.079-.129.143-.208.208-.08.049-.16.094-.243.128a.964.964 0 01-.289.05.526.526 0 01-.243-.05c-.065-.03-.114-.064-.144-.128a.856.856 0 01-.03-.208c.014-.08.03-.16.079-.272.05-.095.095-.193.16-.273.064-.079.144-.143.208-.192a.568.568 0 01.262-.129zM27.756 9.927a9.354 9.354 0 00-.98-.05H23.38L16.492 22.8h3.38l2.769-5.204h.915c.641 0 1.222-.08 1.739-.223.064-.016.144-.05.209-.065.562-.208 1.029-.495 1.401-.88.368-.386.77-.975 1.223-1.81l.611-1.123c.304-.594.547-1.058.691-1.425.05-.144.095-.257.13-.367.113-.385.113-.722.015-.994-.095-.272-.369-.48-.79-.623a5.863 5.863 0 00-1.03-.16zm-1.417 2.37c.065.128-.015.415-.243.865l-.562 1.058c-.258.48-.482.802-.691.96a1.334 1.334 0 01-.77.223c-.065 0-.145 0-.244-.015l1.74-3.3c.144 0 .273.016.387.031.209.03.338.08.383.178zm7.208 13.447c.015-.015.05-.03.08-.049.03-.015.08-.03.114-.049.049-.015.094-.015.144-.015.08 0 .129.015.144.064.015.05 0 .114-.03.208l-.05.094c-.144 0-.258.016-.368.03-.095.016-.194.05-.273.08a.467.467 0 00-.179.113c-.05.05-.095.08-.114.129-.03.05-.03.094-.03.128 0 .03.015.065.03.095s.05.05.08.064c.03.015.08.015.144.015.05 0 .095 0 .13-.015.049-.015.094-.015.128-.03.05-.015.08-.03.13-.05.049-.014.08-.048.129-.079l-.015.114c-.016.015-.016.03.015.049 0 0 .015.015.05.015h.094l.338-.737a.45.45 0 00.05-.178c0-.049 0-.094-.016-.128a.169.169 0 00-.095-.08.507.507 0 00-.178-.03.925.925 0 00-.289.05c-.114.03-.194.079-.288.128v.064c0 .015.015.015.03.03 0 .016.015.016.03.016.02.003.034-.046.065-.046zm.372.386l-.095.242c-.03.015-.065.049-.114.064-.03.015-.064.03-.095.049-.03.015-.064.015-.095.03-.05.015-.08.015-.114.015s-.049 0-.064-.015a.087.087 0 01-.065-.03v-.05c0-.014 0-.048.015-.078.016-.03.03-.065.065-.08.03-.03.08-.049.13-.064l.208-.05c.03-.033.125-.033.224-.033zm-1.128-1.104h-.513l-.725 1.618h.224l.274-.609h.288a.868.868 0 00.304-.049.528.528 0 00.258-.113c.065-.05.13-.095.194-.159a.96.96 0 00.13-.208c.03-.08.064-.143.064-.208a.248.248 0 00-.05-.158.28.28 0 00-.178-.095c-.076-.004-.171-.019-.27-.019zm.114.639c-.05.049-.08.08-.13.113a.622.622 0 01-.178.065c-.064.015-.129.03-.193.03h-.289l.289-.658h.288c.145 0 .243.03.289.08.046.049.05.128-.015.241.004.05-.03.08-.06.129zm4.876-.673h-.224l-.74 1.648h.224l.74-1.648zm-.95.306c.031-.03.065-.064.096-.08.03-.014.064-.03.095-.048h.159c.015 0 .03 0 .05-.015.03 0 .049-.015.049-.03l.05-.095a.31.31 0 00-.13-.03.86.86 0 00-.194.03c-.049.015-.114.05-.178.08-.05.03-.095.079-.144.128a.314.314 0 00-.095.159l-.05.113h-.193l-.05.08c0 .014-.015.03-.015.03 0 .015.015.015.03.03l.145.015-.452.975h.209l.452-.975h.353l.064-.144h-.368l.05-.113.068-.11zm-1.207.208c-.015 0-.015 0-.05.015-.015 0-.015.015-.03.03l-.66.703c-.016.016-.03.05-.05.065l-.05.049c0-.015 0-.03.016-.05v-.048l-.015-.722v-.03s-.015-.016-.05-.016h-.193l.03 1.074-.433.45h.16c.015 0 .05 0 .064-.016.015 0 .015-.015.05-.03l1.352-1.474h-.14zm5.066 0h-.209l-.516 1.138h.224l.5-1.138zm.209-.465c0-.015 0-.03-.015-.03h-.13a.126.126 0 00-.064.03l-.05.05c-.015.015-.03.03-.049.064-.015.015-.015.03-.015.049 0 .015 0 .03.015.049 0 .015.015.03.03.03.016 0 .03.015.05.015.03 0 .05 0 .064-.015.016 0 .05-.015.05-.03a.18.18 0 00.064-.05l.05-.048c0-.015.015-.05.015-.065.019-.019.004-.034-.015-.049zm-2.153.56a.42.42 0 00-.13-.095.65.65 0 00-.193-.03.642.642 0 00-.258.049c-.08.034-.16.064-.243.129a.732.732 0 00-.194.177.644.644 0 00-.144.223.59.59 0 00-.065.272c0 .08.015.129.05.178.03.05.08.094.144.128.064.03.129.05.224.05.05 0 .095 0 .144-.016.05-.015.095-.015.144-.03.05-.015.095-.03.145-.049.049-.015.08-.049.129-.08l-.03-.064c0-.015-.016-.015-.031-.015s-.05 0-.065.015c-.015.016-.049.016-.08.05-.03.015-.064.015-.128.03-.05.015-.095.015-.145.015-.064 0-.114 0-.144-.015a.157.157 0 01-.095-.08.177.177 0 01-.015-.128c.015-.05.015-.113.05-.193h.82c.03 0 .049 0 .049-.015a.252.252 0 00.05-.064c.03-.08.049-.159.064-.223a.53.53 0 00-.053-.22zm-.259.049c.03.015.065.03.08.064.015.03.015.064.015.113a.25.25 0 01-.05.129h-.671a.804.804 0 01.209-.242c.08-.064.178-.08.288-.08.065 0 .095 0 .13.016zM40 25.506c-.015 0-.015.015-.03.015l-.434.367c-.015.015-.03.049-.049.064l-.129-.43c0-.016 0-.016-.015-.016 0 0 0-.015-.015-.015h-.21l.18.544-.707.594h.194c.015 0 .03 0 .049-.015.015 0 .015-.016.05-.016l.466-.385c.016-.015.05-.05.05-.064l.114.45v.015c0 .015.015.015.03.015h.209l-.179-.594.661-.544h-.209c-.011.015-.026.015-.026.015zm3.345.015a.893.893 0 00-.243.129.732.732 0 00-.193.177c-.065.065-.095.144-.13.223a.626.626 0 00-.08.273c0 .079.016.128.05.177.03.05.08.095.13.129.064.03.128.049.223.049.05 0 .095 0 .13-.015.049-.015.094-.015.144-.03.05-.016.095-.03.144-.05a.371.371 0 00.13-.08l-.031-.063c0-.015-.015-.015-.03-.015-.016 0-.031 0-.065.015-.015.015-.05.015-.08.049-.03.015-.08.015-.13.03-.048.015-.094.015-.143.015-.065 0-.114 0-.145-.015a.44.44 0 01-.095-.08c-.015-.03-.015-.079-.015-.128s.03-.113.065-.193h.82c.015 0 .03 0 .05-.015.015-.015.015-.03.049-.064.03-.08.05-.159.064-.223a.472.472 0 00-.03-.159.76.76 0 00-.13-.094.628.628 0 00-.178-.03c-.117-.042-.197-.042-.28-.012zm.323.129c.03.015.065.03.08.064.015.03.015.064.015.113a.25.25 0 01-.05.129h-.675a.681.681 0 01.224-.242c.08-.064.178-.08.288-.08.054 0 .088 0 .118.016zm-1.64.159c0-.065 0-.129-.016-.178-.015-.05-.049-.08-.095-.114a.35.35 0 00-.178-.049c-.08 0-.16.015-.243.05-.08.03-.16.079-.243.143l.304-.688h-.224l-.74 1.648h.143c.03 0 .065-.015.08-.049l.05-.113a.26.26 0 00.094.128c.05.03.095.05.179.05a.681.681 0 00.258-.05c.08-.03.145-.064.224-.113.065-.05.13-.114.194-.193.05-.064.095-.144.129-.223.053-.087.068-.185.084-.25zm-.855 0c.08-.05.144-.095.209-.129.065-.03.13-.05.209-.05.05 0 .095.016.129.031s.05.03.065.064c.015.03.015.08-.016.129a.51.51 0 01-.049.193.83.83 0 01-.243.32.521.521 0 01-.323.13.479.479 0 01-.16-.03c-.03-.016-.064-.05-.08-.114l.26-.544zm1.77-.817h-.21l-.755 1.648h.224l.74-1.648zm-8.203-13.289c-.516 0-1.014.065-1.48.178-.354.08-.692.193-1.015.336-.467.208-.87.45-1.207.703a5.417 5.417 0 00-.547.48c-.433.45-.87 1.074-1.303 1.89l-.387.703h3.042l.596-1.104c.304-.593.532-.96.66-1.088.05-.05.096-.095.16-.144a.797.797 0 01.353-.079c.194 0 .289.08.289.257 0 .159-.16.53-.452 1.088a1.84 1.84 0 01-.194.322c-.16.257-.288.43-.387.544-.095.094-.402.242-.934.43-.274.095-.596.209-.98.352-.08.015-.144.05-.224.065-1.207.385-1.994.721-2.396 1.009-.403.287-.82.831-1.238 1.632l-.467.866c-.562 1.073-.706 1.761-.403 2.083.304.32.74.464 1.303.464.433 0 .854-.094 1.272-.287.418-.193.82-.465 1.208-.85l-.498.945h3.152l2.833-5.318c.58-1.074 1.014-1.92 1.302-2.563.179-.4.304-.703.388-.91a1.66 1.66 0 00.095-.53 1.184 1.184 0 00-.338-.895c-.289-.322-.836-.514-1.626-.56-.208-.019-.383-.019-.577-.019zm-2.734 5.794c.03-.015.05-.03.08-.049l-1.158 2.177c-.289.53-.483.866-.612.994a.69.69 0 01-.497.193c-.21 0-.304-.08-.304-.242.015-.159.16-.514.452-1.073.258-.48.497-.85.706-1.089.205-.253.657-.555 1.333-.91zm13.899-4.29l.273-.415h2.575l.209-.159h-2.67l.387-.608h3.927l.368-.322h-7.029l-4.31 7.159 2.75-7.159H39.44l-.79 2.385v.015l-2.157 6.456a14.54 14.54 0 01-.388 1.103.63.63 0 01-.402.337c-.095.03-.224.049-.418.064-.16.015-.353.015-.58.015l-.9 1.682h1.962c.805 0 1.432-.05 1.914-.159h2.67l.289-.321h-2.108c.209-.094.387-.223.58-.351.08-.065.16-.129.244-.193h1.094l.193-.159h-1.112c.193-.178.368-.367.546-.593h1.994l.194-.16h-2.058c.129-.158.273-.366.451-.638h2.43l.26-.159h-2.576c.16-.241.338-.514.547-.816h3.51l.417-.321h-3.718c.065-.095.13-.193.209-.303h1.785l.209-.158h-1.9c.016-.015.031-.05.05-.065l.353-.529h2.078l.467-.321h-2.332l.387-.578h1.656l.243-.159H42.95l.145-.242h2.54l.433-.321h-2.75l.339-.514h1.754l.194-.159h-1.857l.273-.416h3.604l.209-.158h-3.699l.338-.53h2.267l.194-.158h-2.366l.323-.48h3.395l.433-.322h-3.62l.259-.385h1.466l.433-.321H45.58l.258-.4h3.41l.243-.16-3.588-.003z" fill="#5B5B5B"/><path d="M11.75 27.154a1.95 1.95 0 01-.274-.223l-1.272.015c2.286 2.003 5.005 3.009 8.142 3.043a.984.984 0 01.303-.05c.095 0 .194.016.289.05 1.77-.05 3.41-.416 4.906-1.089-4.663 1.247-8.7.673-12.095-1.746zm3.504-11.592c.323-.816-.432-1.202-2.251-1.153.964.114 1.351.431 1.158.96l-4.648 9.608c-1.74-2.211-2.51-4.947-2.317-8.198.596-3.764 2.575-6.63 5.92-8.583 4.732-2.355 9.156-2.192 13.273.48C24.152 6.9 21.532 6 18.52 6c-3.444 0-6.387 1.168-8.833 3.507-2.43 2.34-3.653 5.17-3.653 8.485 0 3.028 1.014 5.655 3.057 7.862l-.532 1.058h1.174l5.521-11.35zm-3.827-1.103l.998.064.771-1.92c2.56-.594 4.762-1.52 6.627-2.786H18.6c-1.785 1.618-3.892 2.483-6.323 2.593l-.85 2.049z" fill="#2EB53B"/></g></g></svg>