<?xml version="1.0" encoding="UTF-8"?>
<svg width="56px" height="36px" viewBox="0 0 56 36" version="1.1" xmlns="http://www.w3.org/2000/svg" xmlns:xlink="http://www.w3.org/1999/xlink">
    <!-- Generator: Sketch 48.2 (47327) - http://www.bohemiancoding.com/sketch -->
    <title>PM/24-Alfamart</title>
    <desc>Created with Sketch.</desc>
    <defs></defs>
    <g id="Page-1" stroke="none" stroke-width="1" fill="none" fill-rule="evenodd">
        <g id="PM/24-Alfamart">
            <g id="Group">
                <path d="M0,3.75075247 C0,1.67926908 1.67596877,0 3.75035585,0 L52.2496442,0 C54.3209085,0 56,1.68806916 56,3.75075247 L56,32.2492475 C56,34.3207309 54.3240312,36 52.2496442,36 L3.75035585,36 C1.67909151,36 0,34.3119308 0,32.2492475 L0,3.75075247 Z" id="Rectangle-2" fill="#000000" fill-rule="nonzero"></path>
                <path d="M1.25,3.75075247 L1.25,32.2492475 C1.25,33.6250965 2.37296468,34.75 3.75035585,34.75 L52.2496442,34.75 C53.6324061,34.75 54.75,33.6316447 54.75,32.2492475 L54.75,3.75075247 C54.75,2.37490355 53.6270353,1.25 52.2496442,1.25 L3.75035585,1.25 C2.36759386,1.25 1.25,2.36835527 1.25,3.75075247 Z" id="Path" fill="#FFFFFF"></path>
            </g>
            <g id="24-Alfamart" transform="translate(9.000000, 13.000000)" fill-rule="nonzero">
                <path d="M37.7448276,4.60869565 C37.7896552,4.60869565 37.9689655,5.47826087 36.4,5.47826087 C35.8172414,5.47826087 35.4137931,5.30434783 35.2793103,5.08695652 C34.9206897,4.47826087 35.5482759,3.60869565 35.7724138,3 C35.3689655,3 35.1896552,3 34.8758621,3.08695652 C34.7862069,3 34.8758621,2.91304348 34.8758621,2.82608696 C34.8758621,2.7826087 34.9206897,2.69565217 34.9206897,2.65217391 C34.9206897,2.56521739 35.0551724,2.47826087 35.1896552,2.47826087 C35.3689655,2.43478261 35.637931,2.43478261 35.862069,2.43478261 C35.862069,2.43478261 35.862069,2.43478261 35.9068966,2.43478261 C35.9517241,2.43478261 35.9965517,2.39130435 35.9965517,2.39130435 C36.1310345,2.13043478 36.2206897,1.82608696 36.2655172,1.52173913 C36.2655172,1.43478261 36.2655172,1.34782609 36.2655172,1.30434783 C36.2655172,1.26086957 36.1758621,1.2173913 36.2655172,1.2173913 C36.4,1.08695652 37.162069,1.08695652 37.4310345,1.13043478 C37.4758621,1.13043478 37.4758621,1.13043478 37.4758621,1.13043478 C37.6551724,1.26086957 37.6103448,1.39130435 37.5655172,1.52173913 C37.4310345,1.7826087 37.3413793,2.08695652 37.2517241,2.34782609 C37.2517241,2.39130435 37.2517241,2.43478261 37.2965517,2.43478261 C37.2965517,2.43478261 37.3413793,2.43478261 37.3862069,2.43478261 C37.7,2.43478261 37.9689655,2.43478261 38.2827586,2.43478261 C38.3724138,2.43478261 38.462069,2.39130435 38.5965517,2.39130435 C38.6413793,2.39130435 38.5517241,2.7826087 38.3275862,2.86956522 C38.1034483,2.95652174 37.7896552,3.04347826 37.4758621,3.04347826 C37.3413793,3.04347826 37.2517241,3.04347826 37.162069,3 C37.1172414,3 37.0275862,3.04347826 37.0275862,3.04347826 C36.7586207,3.52173913 36.3103448,4.43478261 36.5793103,4.69565217 C36.6689655,4.7826087 36.7586207,4.86956522 37.0275862,4.86956522 C37.2068966,4.82608696 37.6103448,4.60869565 37.7448276,4.60869565 Z" id="Shape" fill="#EC1C25"></path>
                <path d="M12.5965517,1.30434783 C12.5965517,1.43478261 12.5965517,1.56521739 12.5965517,1.73913043 C12.5965517,1.73913043 13.0448276,1.65217391 13.1793103,1.69565217 C13.762069,1.7826087 13.6275862,2.47826087 12.7758621,2.39130435 C12.7310345,2.39130435 12.5965517,2.34782609 12.5965517,2.34782609 C12.5517241,3.17391304 12.5965517,4.04347826 12.5965517,4.82608696 C12.5965517,5.04347826 12.1482759,5.17391304 11.7,5.17391304 C11.162069,5.17391304 10.8034483,4.95652174 10.8034483,4.73913043 C10.8034483,3.95652174 10.8482759,3.2173913 10.8034483,2.47826087 C10.8034483,2.43478261 10.7586207,2.43478261 10.7137931,2.43478261 C10.6689655,2.43478261 10.6689655,2.43478261 10.6241379,2.43478261 C9.77241379,2.52173913 9.59310345,1.69565217 10.5793103,1.73913043 C10.6241379,1.73913043 10.6689655,1.73913043 10.7586207,1.73913043 C10.7586207,1.73913043 10.8034483,1.73913043 10.8482759,1.73913043 L10.8482759,1.69565217 C10.8482759,1.43478261 10.7137931,1.04347826 11.0724138,0.869565217 C11.6551724,0.565217391 12.4172414,0.608695652 13.1793103,0.695652174 C13.4034483,0.695652174 13.5827586,0.782608696 13.6275862,0.869565217 C13.6724138,0.956521739 13.7172414,1.26086957 13.4482759,1.30434783 C13.0896552,1.26086957 12.8206897,1.26086957 12.5965517,1.30434783 Z" id="Shape" fill="#243E92"></path>
                <path d="M7.57586207,4.60869565 L7.57586207,1.13043478 C7.62068966,0.782608696 7.66551724,0.52173913 8.51724138,0.47826087 C9.27931034,0.52173913 9.4137931,0.782608696 9.4137931,1.04347826 L9.36896552,4.56521739 C9.36896552,4.82608696 9.18965517,5.13043478 8.51724138,5.13043478 C7.8,5.13043478 7.66551724,4.95652174 7.57586207,4.60869565 Z" id="Shape" fill="#243E92"></path>
                <path d="M33.9793103,3.17391304 C33.8896552,3.13043478 33.8,3 33.6655172,3 C33.4862069,3 33.3068966,3.08695652 33.2172414,3.17391304 C32.7241379,3.60869565 32.3655172,4.04347826 32.0068966,4.52173913 C31.9172414,4.65217391 31.6931034,5.04347826 31.7827586,5.17391304 C31.7827586,5.2173913 31.8275862,5.2173913 31.8275862,5.26086957 C31.8275862,5.39130435 31.2448276,5.39130435 31.0655172,5.39130435 C30.5724138,5.34782609 30.4827586,5.13043478 30.5724138,4.95652174 C30.9310345,4.13043478 31.3344828,3.34782609 31.5137931,2.52173913 C31.5586207,2.39130435 31.6034483,2.26086957 31.5586207,2.17391304 C31.5586207,2.13043478 31.5137931,2 31.6482759,2 C32.0068966,1.91304348 32.7689655,1.82608696 32.9034483,2.08695652 C32.9931034,2.30434783 32.7689655,2.73913043 32.6344828,3 C32.6344828,3.04347826 32.5896552,3.08695652 32.5896552,3.13043478 C32.6344828,3.08695652 32.6793103,3.04347826 32.7241379,3 C32.9931034,2.73913043 33.7103448,1.91304348 34.4275862,1.95652174 C34.6517241,1.95652174 34.7413793,2.04347826 34.7862069,2.13043478 C34.8310345,2.34782609 34.4275862,2.91304348 33.9793103,3.17391304 Z" id="Shape" fill="#EC1C25"></path>
                <path d="M25.3724138,4.52173913 C25.5517241,3.86956522 25.8206897,3.17391304 26.0896552,2.52173913 C26.1344828,2.39130435 26.3137931,1.82608696 25.7758621,1.73913043 C24.5655172,1.60869565 23.8931034,2.56521739 23.5344828,3 C23.5344828,3 23.5344828,3 23.4896552,3 C23.4448276,3 23.4448276,2.91304348 23.4448276,2.91304348 C23.5344828,2.69565217 23.9827586,1.7826087 23.2206897,1.73913043 C22.1448276,1.69565217 21.337931,2.7826087 21.1137931,2.73913043 C20.8896552,2.69565217 21.7413793,1.95652174 21.0241379,1.7826087 C20.7103448,1.69565217 20.3517241,1.7826087 20.0827586,1.86956522 C19.9482759,2.82608696 19.5448276,3.73913043 19.1413793,4.69565217 C19.0517241,4.86956522 18.9172414,5.34782609 19.5896552,5.34782609 C19.7689655,5.34782609 20.1724138,5.26086957 20.262069,5.2173913 C20.3068966,5.17391304 20.262069,5.17391304 20.262069,5.13043478 C20.262069,4.95652174 20.262069,4.7826087 20.3517241,4.60869565 C20.3965517,4.52173913 20.4413793,4.43478261 20.5310345,4.34782609 C20.6655172,4.17391304 21.9655172,2.47826087 22.2793103,2.52173913 C22.5931034,2.56521739 21.562069,4.65217391 21.5172414,4.86956522 C21.4275862,5.04347826 21.3827586,5.2173913 21.8310345,5.30434783 C22.0103448,5.34782609 22.4137931,5.34782609 22.5931034,5.30434783 C22.6827586,5.26086957 22.6827586,5.2173913 22.6827586,5.17391304 C22.6827586,5.08695652 22.637931,5 22.6827586,4.91304348 C23.0413793,4.13043478 23.7137931,3.34782609 24.6103448,2.65217391 C24.6103448,2.65217391 24.7,2.60869565 24.7448276,2.60869565 C24.8344828,2.60869565 24.8344828,2.69565217 24.7896552,2.73913043 C24.5655172,3.39130435 24.2068966,4.08695652 24.1172414,4.73913043 C24.1172414,4.86956522 24.0724138,5.30434783 24.4758621,5.39130435 C24.7448276,5.43478261 25.5068966,5.34782609 25.462069,5.17391304 C25.462069,4.91304348 25.3275862,4.73913043 25.3724138,4.52173913 Z" id="Shape" fill="#EC1C25"></path>
                <path d="M30.9758621,1.95652174 C30.9758621,1.86956522 30.662069,1.86956522 30.4827586,1.86956522 C30.2586207,1.86956522 30.0344828,1.86956522 29.9,1.91304348 C29.8103448,1.95652174 29.8103448,2 29.7206897,2 C29.6758621,2 29.1827586,1.82608696 28.9586207,1.82608696 C27.837931,1.73913043 27.1206897,2.43478261 26.8068966,2.82608696 C26.1793103,3.52173913 25.6862069,4.43478261 26.1344828,5.17391304 C26.2241379,5.34782609 26.4034483,5.43478261 26.762069,5.43478261 C27.7931034,5.43478261 28.3758621,4.65217391 28.6896552,4.26086957 C28.6896552,4.2173913 28.7344828,4.2173913 28.7344828,4.2173913 C28.6896552,4.47826087 28.6448276,4.73913043 28.6896552,5 C28.7344828,5.13043478 28.8241379,5.34782609 29.137931,5.39130435 C29.4517241,5.43478261 30.0344828,5.34782609 30.0344828,5.17391304 C30.0344828,5.17391304 30.0344828,5.17391304 30.0344828,5.13043478 C30.0344828,5.08695652 30.0344828,5.04347826 29.9896552,5 C29.9896552,4.95652174 29.9896552,4.91304348 29.9896552,4.86956522 C29.9896552,4.82608696 29.9896552,4.7826087 29.9896552,4.73913043 C29.9896552,4.69565217 29.9896552,4.65217391 29.9896552,4.60869565 C29.9896552,4.2173913 30.0793103,3.82608696 30.2586207,3.43478261 C30.5275862,2.91304348 30.9310345,2.43478261 30.9758621,1.95652174 Z M29.4965517,2.69565217 C29.0482759,3.34782609 28.5103448,3.91304348 27.7482759,4.52173913 C27.7034483,4.52173913 27.6586207,4.56521739 27.6137931,4.56521739 C27.5689655,4.56521739 27.5241379,4.52173913 27.5241379,4.47826087 C27.2551724,3.86956522 27.6586207,2.86956522 28.4206897,2.43478261 C28.5103448,2.39130435 28.8241379,2.26086957 29.0034483,2.34782609 C29.137931,2.43478261 29.362069,2.56521739 29.4965517,2.69565217 C29.5413793,2.65217391 29.4965517,2.69565217 29.4965517,2.69565217 Z" id="Shape" fill="#EC1C25"></path>
                <path d="M6.85862069,4.60869565 L4.93103448,0.913043478 C4.75172414,0.652173913 4.34827586,0.391304348 3.67586207,0.391304348 C2.9137931,0.391304348 2.33103448,0.652173913 2.15172414,0.956521739 L0.672413793,3.73913043 C0.448275862,4.13043478 -0.403448276,5.13043478 1.12068966,5.17391304 C2.55517241,5.2173913 2.37586207,3.95652174 2.64482759,3.95652174 C3.22758621,3.95652174 3.85517241,3.95652174 4.43793103,3.95652174 L4.48275862,3.95652174 C4.66206897,4.39130435 4.66206897,5.08695652 5.87241379,5.13043478 C6.67931034,5.2173913 6.99310345,4.86956522 6.85862069,4.60869565 Z M4.12413793,3.13043478 C3.72068966,3.13043478 3.36206897,3.13043478 3.00344828,3.13043478 C2.95862069,3 3.36206897,2.30434783 3.54137931,1.91304348 L3.5862069,1.86956522 C3.63103448,1.86956522 3.63103448,1.91304348 3.63103448,1.91304348 C3.81034483,2.34782609 3.98965517,2.73913043 4.12413793,3.13043478 Z" id="Shape" fill="#243E92"></path>
                <path d="M18.6034483,1.7826087 C18.6034483,1.47826087 17.437931,1.47826087 17.0793103,1.65217391 C17.0344828,1.65217391 16.9448276,1.73913043 16.9,1.73913043 C16.7206897,1.73913043 16.4965517,1.65217391 16.2724138,1.60869565 C15.7793103,1.52173913 15.2413793,1.52173913 14.837931,1.69565217 C13.3586207,2.26086957 12.9551724,4.73913043 15.1517241,5.08695652 C15.7344828,5.17391304 16.4068966,5.04347826 16.8551724,4.91304348 C16.9,4.91304348 16.9448276,4.95652174 16.9448276,4.95652174 C16.9896552,5 17.0344828,5.04347826 17.1241379,5.04347826 C17.3482759,5.13043478 17.662069,5.13043478 17.8862069,5.13043478 C18.2896552,5.13043478 18.5586207,4.91304348 18.5586207,4.73913043 C18.6482759,3.7826087 18.6482759,2.7826087 18.6034483,1.7826087 Z M16.5862069,4.26086957 C16.4965517,4.30434783 16.4068966,4.30434783 16.2724138,4.30434783 C15.6896552,4.30434783 15.6,4.04347826 15.5551724,3.73913043 C15.4655172,3.39130435 15.5103448,3.13043478 15.6,2.73913043 C15.6448276,2.60869565 15.8689655,2.34782609 16.2275862,2.30434783 C16.7206897,2.30434783 16.9,2.60869565 16.9448276,2.73913043 C17.0344828,3.08695652 17.1241379,4 16.5862069,4.26086957 Z" id="Shape" fill="#243E92"></path>
                <path d="M0.0896551724,8.73913043 L37.8793103,8.73913043 C38.5068966,8.30434783 38.5068966,7.56521739 38.462069,6 L4.07931034,6 C2.10689655,6.04347826 0.582758621,6.04347826 0.0896551724,8.73913043 Z" id="Shape" fill="#E22228"></path>
                <path d="M0.0896551724,9.13043478 L37.7896552,9.13043478 C37.3413793,9.47826087 36.9827586,9.69565217 36.2206897,9.69565217 L0.0896551724,9.69565217 L0.0896551724,9.13043478 Z" id="Shape" fill="#FAD701"></path>
            </g>
        </g>
    </g>
</svg>