<?xml version="1.0" encoding="UTF-8"?><svg width="56" height="36" viewBox="0 0 56 36" xmlns="http://www.w3.org/2000/svg"><defs><linearGradient x1="50.028%" y1="97.373%" x2="50.028%" y2="1.514%" id="a"><stop stop-color="#006EB7" offset="0%"/><stop stop-color="#00A9EB" offset="100%"/></linearGradient></defs><g fill="none" fill-rule="evenodd"><path d="M0 3.75A3.749 3.749 0 013.75 0h48.5A3.756 3.756 0 0156 3.75v28.5A3.749 3.749 0 0152.25 36H3.75A3.756 3.756 0 010 32.25V3.75z" fill="#000" fill-rule="nonzero"/><path d="M1.25 3.75v28.5c0 1.375 1.123 2.5 2.5 2.5h48.5c1.382 0 2.5-1.118 2.5-2.5V3.75c0-1.375-1.123-2.5-2.5-2.5H3.75a2.499 2.499 0 00-2.5 2.5z" fill="#FFF"/><path d="M27.115 13.89c-.392 0-.742-.14-1.023-.417a1.363 1.363 0 01-.42-.915v-1.912c-.07.013-.154.027-.224.027a5.483 5.483 0 01-.476.028 3.712 3.712 0 01-2.69-1.109 4.067 4.067 0 01-.545-.665v.637c0 .388-.14.735-.434 1.012-.28.277-.617.416-1.023.416-.392 0-.742-.139-1.022-.416l-.07-.07a3.838 3.838 0 01-1.275.209 3.712 3.712 0 01-2.689-1.11 3.917 3.917 0 01-.84-1.205 2.897 2.897 0 01-.21.416 4.193 4.193 0 01-.63.804 3.96 3.96 0 01-1.22.831c-.461.18-.951.278-1.47.278a3.712 3.712 0 01-2.689-1.11 3.695 3.695 0 01-.56-.692v.651c0 .388-.14.735-.434 1.012-.28.277-.616.416-1.009.416-.392 0-.742-.139-1.022-.416-.028-.028-.042-.041-.056-.07a3.815 3.815 0 01-1.26.209 3.712 3.712 0 01-2.69-1.11C.392 8.886.014 7.999.014 6.96c0-1.04.378-1.927 1.12-2.662.743-.735 1.64-1.095 2.69-1.095 1.036 0 1.946.374 2.689 1.095.182.18.336.374.476.568l-.07-3.451c.014-.388.154-.72.42-.984.28-.278.63-.416 1.022-.416.393 0 .743.138 1.023.416.252.25.406.568.42.915v1.982c.336-.097.7-.139 1.064-.139 1.037 0 1.947.374 2.69 1.095.364.374.644.776.826 1.22.182-.444.462-.86.84-1.22.742-.734 1.639-1.095 2.69-1.095 1.036 0 1.946.374 2.688 1.095.364.374.644.776.827 1.22.182-.444.462-.86.84-1.22.742-.734 1.639-1.095 2.689-1.095.168 0 .322.014.49.028.84.097 1.583.457 2.213 1.067.364.374.644.776.826 1.22.182-.444.463-.86.84-1.22.743-.734 1.64-1.095 2.69-1.095 1.036 0 1.947.374 2.689 1.095.364.374.644.776.826 1.22.182-.444.462-.86.84-1.22.743-.734 1.64-1.095 2.69-1.095 1.036 0 1.946.374 2.689 1.095.364.374.644.776.84 1.22v-1.04c0-.027-.014-.069-.014-.11v-.07l.014-.11c.042-.389.182-.68.392-.888.252-.263.588-.402.967-.402.378 0 .7.139.98.402l.042.042c.28-.083.574-.139.882-.153l.322-.014a3.641 3.641 0 012.62 1.11c.742.734 1.106 1.621 1.106 2.66 0 1.026-.378 1.927-1.106 2.662a3.662 3.662 0 01-2.564 1.095h-.014l-.504-.014h-.028a3.596 3.596 0 01-1.47-.471 3.836 3.836 0 01-.813-.624 3.947 3.947 0 01-.672-.873c-.014-.014-.014-.028-.014-.028-.042-.07-.07-.138-.098-.208a.672.672 0 01-.042-.097 2.2 2.2 0 01-.21.402 4.193 4.193 0 01-.63.804 3.96 3.96 0 01-1.219.832c-.462.18-.952.277-1.47.277a3.712 3.712 0 01-2.69-1.109 3.917 3.917 0 01-.84-1.206 2.897 2.897 0 01-.21.416 4.193 4.193 0 01-.63.804 3.96 3.96 0 01-1.219.832c-.462.18-.952.277-1.47.277a3.712 3.712 0 01-2.69-1.109 3.956 3.956 0 01-.616-.776l-.154 3.687a1.405 1.405 0 01-.42.97c-.252.291-.602.416-.994.416zm-.883-1.36a.778.778 0 00.267.555.85.85 0 00.616.25.883.883 0 00.63-.25.924.924 0 00.252-.596l.224-5.309v-.305c-.014-.86-.322-1.58-.952-2.204-.546-.526-1.163-.831-1.877-.915-.14-.013-.28-.027-.42-.027-.896 0-1.653.305-2.283.942-.63.624-.938 1.331-.952 2.204v.291c.042.79.364 1.47.952 2.038.644.638 1.387.943 2.283.943.14 0 .28 0 .42-.014.168-.014.336-.056.49-.097.084-.028.168 0 .238.041.07.056.112.139.112.222v2.232zM19.3 9.898h.014c.098 0 .196.055.238.139.028.055.07.097.112.152a.84.84 0 00.63.263.828.828 0 00.616-.249.804.804 0 00.266-.624v-2.37c0-.083-.014-.166-.014-.25V6.89c-.014-.86-.322-1.58-.952-2.204-.644-.624-1.386-.942-2.297-.942-.896 0-1.652.305-2.283.942-.63.624-.938 1.33-.952 2.204v.291c.042.79.364 1.47.952 2.038.645.637 1.387.942 2.283.942.448 0 .869-.083 1.26-.235.043-.014.085-.028.127-.028zm-14.104 0a.29.29 0 01.238.139c.028.055.07.097.126.152a.84.84 0 00.63.263.828.828 0 00.617-.249.804.804 0 00.266-.624V6.89c0-.139-.014-.277-.028-.416v-.041c-.098-.652-.406-1.234-.91-1.733-.645-.624-1.387-.943-2.297-.943-.897 0-1.653.305-2.283.943C.91 5.337.602 6.071.602 6.972c0 .887.308 1.636.953 2.26.644.637 1.386.942 2.283.942.448 0 .868-.083 1.26-.235.028-.042.07-.042.098-.042zm30.63-2.73c.042.79.364 1.469.953 2.037.644.638 1.386.943 2.283.943.448 0 .868-.084 1.26-.236a3.202 3.202 0 001.037-.707 3.16 3.16 0 00.952-2.024v-.305c-.014-.86-.322-1.58-.952-2.204-.645-.623-1.387-.942-2.297-.942-.897 0-1.653.305-2.283.942-.63.624-.939 1.331-.953 2.204v.291zm-7.044 0c.042.803.364 1.469.952 2.05.644.638 1.386.943 2.283.943.448 0 .868-.083 1.26-.235a3.202 3.202 0 001.037-.707 3.16 3.16 0 00.952-2.024V6.89c-.014-.86-.322-1.58-.952-2.204-.645-.624-1.387-.942-2.297-.942-.897 0-1.653.305-2.283.942-.63.624-.938 1.33-.952 2.204v.277zM7.633 6.874v.153c.014.845.336 1.566.952 2.176.645.638 1.387.943 2.283.943.449 0 .869-.084 1.26-.236a3.202 3.202 0 001.037-.707 3.16 3.16 0 00.952-2.024v-.305c-.013-.86-.321-1.58-.952-2.204-.644-.623-1.386-.942-2.297-.942a3.25 3.25 0 00-1.232.235c-.084.042-.182.028-.266-.027a.272.272 0 01-.126-.236V1.345A.832.832 0 008.978.79.85.85 0 008.36.54a.883.883 0 00-.63.25.858.858 0 00-.252.596l.098 4.935c0 .014 0 .041.014.07.028.152.042.318.042.484 0-.014 0-.014 0 0 0-.014 0-.014 0 0 0-.014 0-.014 0 0 0-.014 0-.014 0 0zm38.11 3.272l.49.013c.84-.027 1.554-.332 2.17-.942.63-.638.953-1.372.953-2.273 0-.888-.308-1.636-.953-2.26-.63-.624-1.344-.929-2.227-.942h-.308a2.97 2.97 0 00-.91.194.288.288 0 01-.336-.111.766.766 0 00-.672-.36.797.797 0 00-.575.235c-.126.11-.196.305-.224.554v1.456c.014.055.014.11.014.152.014.194.098.36.238.5.154.152.35.235.575.235.224 0 .42-.07.588-.236a.795.795 0 00.098-.11c.028-.056.056-.111.084-.153.07-.097.14-.194.224-.277a1.585 1.585 0 011.148-.472c.449 0 .827.153 1.149.458.308.305.476.68.476 1.109v.07c0 .027.014.055 0 .082-.014.25-.084.472-.21.68-.07.124-.168.235-.266.346a1.615 1.615 0 01-1.149.471c-.434 0-.826-.152-1.148-.471a1.72 1.72 0 01-.252-.305 1.223 1.223 0 01-.112-.236.795.795 0 00-.098-.11.766.766 0 00-.574-.236.797.797 0 00-.575.236c-.14.138-.224.346-.266.651.014.07.028.139.042.194.014.042.042.097.07.153.014.013.014.013.014.027a3.45 3.45 0 001.275 1.303c.392.194.812.32 1.246.375zm-.981-3.244c.042.042.098.083.14.125.07.069.126.138.196.235.014.028.028.042.028.07a.645.645 0 00.07.138c.056.083.112.153.168.208.21.208.462.305.742.305.155 0 .295-.028.407-.07a.925.925 0 00.336-.235c.07-.07.126-.152.182-.235.07-.125.112-.278.126-.444v-.097c0-.277-.112-.513-.308-.72a1 1 0 00-.743-.306 1.053 1.053 0 00-.91.5l-.014.013a.105.105 0 00-.028.056c0 .013-.014.027-.028.041a1.402 1.402 0 01-.182.222.621.621 0 01-.182.194zm-1.905-.028v.25c.028-.028.056-.07.084-.097.056-.056.112-.111.182-.153-.042-.041-.084-.07-.14-.11-.042-.042-.084-.098-.126-.14a.741.741 0 010 .25zm-3.795 1.677c-.435 0-.827-.152-1.149-.47a1.53 1.53 0 01-.476-1.137c0-.444.154-.818.476-1.137a1.63 1.63 0 011.149-.458c.448 0 .826.153 1.148.458.308.305.476.68.476 1.109v.07c0 .027.014.055 0 .082-.014.25-.084.472-.21.68-.07.124-.168.235-.266.346a1.615 1.615 0 01-.518.347 1.88 1.88 0 01-.63.11zm0-2.647c-.294 0-.533.097-.757.305a1.01 1.01 0 00-.308.748c0 .292.098.527.308.735.21.208.463.305.743.305.154 0 .294-.028.406-.07a.925.925 0 00.336-.235c.07-.07.126-.152.182-.236.07-.124.112-.277.126-.443v-.097c0-.277-.112-.513-.308-.721-.182-.194-.434-.291-.728-.291zm-7.045 2.647c-.434 0-.827-.152-1.149-.47a1.53 1.53 0 01-.476-1.137c0-.444.154-.818.476-1.137a1.63 1.63 0 011.149-.458c.448 0 .826.153 1.148.458.308.305.476.68.476 1.109v.07c0 .027.014.055 0 .082-.014.25-.084.472-.21.68-.07.124-.168.235-.266.346a1.615 1.615 0 01-.518.347 1.88 1.88 0 01-.63.11zm0-2.647c-.294 0-.532.097-.756.305a1.01 1.01 0 00-.309.748c0 .292.098.527.309.735.21.208.462.305.742.305.154 0 .294-.028.406-.07a.925.925 0 00.336-.235c.07-.07.126-.152.182-.236.07-.124.112-.277.126-.443v-.097c0-.277-.112-.513-.308-.721-.182-.194-.434-.291-.728-.291zm-7.045 2.647c-.434 0-.826-.152-1.148-.47a1.53 1.53 0 01-.477-1.137c0-.444.154-.818.477-1.137a1.63 1.63 0 011.148-.458c.196 0 .378.028.546.098.21.069.42.194.602.36.309.305.477.68.477 1.109v.07c0 .027.014.055 0 .082-.014.25-.084.472-.21.68-.07.124-.169.235-.267.346a1.615 1.615 0 01-.518.347l-.084.027h-.014c-.168.042-.35.083-.532.083zm0-2.647c-.294 0-.532.097-.756.305a1.01 1.01 0 00-.308.748c0 .292.098.527.308.735.21.208.462.305.742.305a.976.976 0 00.35-.055l.056-.028a1.06 1.06 0 00.336-.236c.07-.07.126-.152.182-.235.07-.125.112-.278.126-.444v-.097c0-.277-.112-.513-.308-.72a.876.876 0 00-.392-.236 1.238 1.238 0 00-.336-.042zm-7.045 2.647c-.434 0-.826-.152-1.148-.47a1.53 1.53 0 01-.476-1.137c0-.444.154-.818.476-1.137a1.63 1.63 0 011.148-.458c.448 0 .827.153 1.149.458.308.305.476.68.476 1.109v.07c0 .027.014.055 0 .082-.014.25-.084.472-.21.68-.07.124-.168.235-.266.346a1.615 1.615 0 01-.519.347 1.88 1.88 0 01-.63.11zm0-2.647c-.294 0-.532.097-.756.305a1.01 1.01 0 00-.308.748c0 .292.098.527.308.735.21.208.462.305.742.305.154 0 .294-.028.406-.07a.925.925 0 00.336-.235c.07-.07.127-.152.183-.236.07-.124.112-.277.126-.443v-.097c0-.277-.112-.513-.309-.721-.182-.194-.434-.291-.728-.291zm-7.045 2.647c-.434 0-.826-.152-1.148-.47a1.53 1.53 0 01-.476-1.137c0-.444.154-.818.476-1.137a1.63 1.63 0 011.148-.458c.449 0 .827.153 1.149.458.308.305.476.68.476 1.109v.07c0 .027.014.055 0 .082-.014.25-.084.472-.21.68-.07.124-.168.235-.266.346a1.615 1.615 0 01-.518.347 1.88 1.88 0 01-.63.11zm0-2.647c-.294 0-.532.097-.756.305a1.01 1.01 0 00-.308.748c0 .292.098.527.308.735.21.208.462.305.742.305.154 0 .294-.028.407-.07a.925.925 0 00.336-.235c.07-.07.126-.152.182-.236.07-.124.112-.277.126-.443v-.097c0-.277-.112-.513-.308-.721-.182-.194-.435-.291-.729-.291zM3.838 8.552c-.435 0-.827-.152-1.149-.47a1.53 1.53 0 01-.476-1.137c0-.444.154-.818.476-1.137a1.63 1.63 0 011.149-.458c.448 0 .826.153 1.148.458.308.305.476.68.476 1.109v.07c0 .027.014.055 0 .082-.014.25-.084.472-.21.68-.07.124-.168.235-.266.346a1.615 1.615 0 01-.518.347 1.88 1.88 0 01-.63.11zm0-2.647c-.295 0-.533.097-.757.305a1.01 1.01 0 00-.308.748c0 .292.098.527.308.735.21.208.462.305.743.305.154 0 .294-.028.406-.07a.925.925 0 00.336-.235c.07-.07.126-.152.182-.236.07-.124.112-.277.126-.443v-.097c0-.277-.112-.513-.308-.721-.182-.194-.434-.291-.728-.291z" transform="translate(3 11)" fill-rule="nonzero" fill="url(#a)"/></g></svg>