<svg width="56" height="36" viewBox="0 0 56 36" xmlns="http://www.w3.org/2000/svg"><g fill="none" fill-rule="evenodd"><path d="M0 3.75A3.749 3.749 0 013.75 0h48.5A3.756 3.756 0 0156 3.75v28.5A3.749 3.749 0 0152.25 36H3.75A3.756 3.756 0 010 32.25V3.75z" fill="#000" fill-rule="nonzero"/><path d="M1.25 3.75v28.5c0 1.375 1.123 2.5 2.5 2.5h48.5c1.382 0 2.5-1.118 2.5-2.5V3.75c0-1.375-1.123-2.5-2.5-2.5H3.75a2.499 2.499 0 00-2.5 2.5z" fill="#FFF"/><g fill="#E51E25"><path d="M22.605 24.295v-.107c0-4.006 0-8.012.002-12.018 0-.097-.028-.12-.122-.12-1.201.003-2.403.002-3.604.002-.035 0-.07.004-.117.006v1.846c-.17-.225-.326-.443-.494-.65-.582-.714-1.299-1.229-2.203-1.456-.78-.196-1.567-.193-2.353-.048-1.575.291-2.763 1.135-3.545 2.535-.513.918-.717 1.925-.794 2.962a9.591 9.591 0 00.076 2.107c.114.776.32 1.525.681 2.225.522 1.012 1.267 1.803 2.314 2.282.793.364 1.632.473 2.497.424a4.529 4.529 0 002.145-.664c.647-.397 1.167-.93 1.628-1.526.018-.024.04-.046.06-.069l.02.008v2.261h3.81zM22.821 8c.162.027.326.049.487.082a3.355 3.355 0 012.589 2.696c.034.204.054.414.054.62.003 4.384.003 8.767.002 13.15 0 1.598-1.051 2.94-2.595 3.306-.24.056-.49.088-.736.088-4.432.005-8.863.005-13.294.003-1.586 0-2.996-1.19-3.268-2.752-.022-.126-.04-.253-.06-.38V11.136c.013-.084.028-.168.04-.252A3.361 3.361 0 018.651 8.08c.16-.033.324-.054.486-.081H22.82zM30.417 19.88c0 .516-.002 1.032.003 1.547 0 .06.028.13.065.177.126.164.297.269.493.334.259.086.526.1.794.073.436-.043.732-.272.85-.7a4.24 4.24 0 00.13-.628c.06-.514.054-1.03 0-1.543a2.855 2.855 0 00-.23-.918c-.14-.3-.371-.488-.7-.538a1.991 1.991 0 00-.453-.016c-.362.029-.671.171-.887.475a.354.354 0 00-.062.19c-.005.516-.003 1.031-.003 1.547m-.165 2.935l-.16.92h-2.1V12.48c.036-.002.074-.005.112-.005.731 0 1.463.001 2.194-.003.096 0 .122.026.121.122-.003 1.313-.002 2.626-.002 3.94v.117l.021.012.077-.09c.342-.406.76-.694 1.295-.76.993-.121 2.086.154 2.738 1.228.312.514.492 1.072.583 1.662.11.714.116 1.43.036 2.146-.083.736-.295 1.43-.747 2.031-.429.571-1.01.879-1.709.977-.369.051-.738.058-1.104-.028-.542-.129-.95-.449-1.27-.893l-.085-.121M46.254 15.934l.097 1.095.084-.117c.406-.554.923-.95 1.61-1.074.775-.138 1.504-.033 2.122.504.38.33.576.767.693 1.245.1.41.136.828.137 1.249.002 1.6 0 3.202 0 4.803v.094h-2.435v-.129c0-1.564.002-3.129-.003-4.694 0-.183-.02-.37-.058-.55-.082-.39-.343-.608-.728-.674-.477-.082-.914-.002-1.282.34a.278.278 0 00-.096.224c.003 1.78.002 3.56.002 5.339v.144H43.98v-7.799h2.273zM40.85 19.846c-.012-.205-.016-.41-.036-.614-.036-.36-.12-.71-.3-1.029a.99.99 0 00-.698-.51 1.948 1.948 0 00-.473-.026c-.38.022-.686.19-.862.53a2.957 2.957 0 00-.247.676c-.124.533-.108 1.077-.058 1.618.03.334.11.658.271.957a.97.97 0 00.46.45 1.39 1.39 0 001.145.013c.322-.137.488-.414.602-.727.157-.433.192-.883.195-1.338m2.423-.006c.001.718-.095 1.418-.413 2.07-.538 1.104-1.414 1.755-2.634 1.93-.757.108-1.507.074-2.23-.19-1.06-.39-1.713-1.17-2.064-2.221-.222-.666-.247-1.355-.207-2.05.033-.569.154-1.119.41-1.632.538-1.084 1.403-1.73 2.607-1.906.764-.112 1.52-.08 2.25.19 1.04.384 1.686 1.15 2.044 2.179.17.488.237.996.237 1.63"/><path d="M13.454 17.921c.006-.516.08-1.043.313-1.537.374-.791 1.005-1.243 1.858-1.391a3.345 3.345 0 011.551.083c.83.249 1.365.807 1.62 1.62.324 1.04.22 2.051-.308 3.01-.374.68-.966 1.048-1.729 1.154-.517.071-1.034.078-1.532-.089-.783-.262-1.286-.82-1.577-1.579-.153-.4-.189-.822-.196-1.27"/></g></g></svg>