<?xml version="1.0" encoding="UTF-8"?>
<svg width="56px" height="36px" viewBox="0 0 56 36" version="1.1" xmlns="http://www.w3.org/2000/svg" xmlns:xlink="http://www.w3.org/1999/xlink">
    <!-- Generator: Sketch 46.2 (44496) - http://www.bohemiancoding.com/sketch -->
    <title>PM/Adyen</title>
    <desc>Created with Sketch.</desc>
    <defs></defs>
    <g id="Page-1" stroke="none" stroke-width="1" fill="none" fill-rule="evenodd">
        <g id="PM/Adyen">
            <path d="M0,3.75075247 C0,1.67926908 1.67596877,0 3.75035585,0 L52.2496442,0 C54.3209085,0 56,1.68806916 56,3.75075247 L56,32.2492475 C56,34.3207309 54.3240312,36 52.2496442,36 L3.75035585,36 C1.67909151,36 0,34.3119308 0,32.2492475 L0,3.75075247 Z" id="Rectangle-2" fill="#000000" fill-rule="nonzero"></path>
            <path d="M1.25,3.75075247 L1.25,32.2492475 C1.25,33.6250965 2.37296468,34.75 3.75035585,34.75 L52.2496442,34.75 C53.6324061,34.75 54.75,33.6316447 54.75,32.2492475 L54.75,3.75075247 C54.75,2.37490355 53.6270353,1.25 52.2496442,1.25 L3.75035585,1.25 C2.36759386,1.25 1.25,2.36835527 1.25,3.75075247 Z" id="Path" fill="#FFFFFF"></path>
            <g id="adyen" transform="translate(4.000000, 11.000000)" fill-rule="nonzero" fill="#3E8B41">
                <path d="M47.9976024,11.7688679 L47.9976024,4.60377358 C47.9976024,3.60141509 47.3334665,3.14386792 45.7846154,3.14386792 L39.3686314,3.14386792 L39.3686314,11.7688679 L43.1016983,11.7688679 L43.1016983,5.51886792 L44.2909091,5.51886792 L44.2909091,11.7688679 L47.9976024,11.7688679 Z" id="Shape"></path>
                <path d="M28.3108891,13.5542453 L28.3108891,3.14386792 L24.6065934,3.14386792 L24.6065934,9.39386792 L23.4173826,9.39386792 L23.4173826,3.14386792 L19.6843157,3.14386792 L19.6843157,10.3443396 C19.6843157,11.3301887 20.3484515,11.7712264 21.8973027,11.7712264 L24.6065934,11.7712264 L24.6065934,12.6037736 L19.6843157,12.6037736 L19.6843157,14.9811321 L26.1002997,14.9811321 C27.6203796,14.9787736 28.3108891,14.5400943 28.3108891,13.5542453" id="Shape"></path>
                <path d="M18.4687313,11.7688679 L18.4687313,0.00943396226 L14.7356643,0.00943396226 L14.7356643,9.39150943 L13.5464535,9.39150943 L13.5464535,3.14150943 L12.0527473,3.14150943 C10.5062937,3.14150943 9.84215784,3.58254717 9.84215784,4.60141509 L9.84215784,10.3396226 C9.84215784,11.3254717 10.5062937,11.7665094 12.0527473,11.7665094 L18.4687313,11.7665094 L18.4687313,11.7688679 Z" id="Shape"></path>
                <path d="M8.62657343,11.7688679 L8.62657343,4.60377358 C8.62657343,3.60141509 7.96243756,3.14386792 6.41358641,3.14386792 L0,3.14386792 L0,5.52122642 L4.92227772,5.52122642 L4.92227772,9.39386792 L3.73306693,9.39386792 L3.73306693,6.35377358 L2.21298701,6.35377358 C0.666533467,6.35377358 0,6.79481132 0,7.81367925 L0,10.3419811 C0,11.3278302 0.664135864,11.7688679 2.21298701,11.7688679 L8.62657343,11.7688679 Z" id="Shape"></path>
                <path d="M29.5336663,3.14386792 L29.5336663,10.3089623 C29.5336663,11.3113208 30.1978022,11.7688679 31.7466533,11.7688679 L38.1626374,11.7688679 L38.1626374,9.39150943 L33.2403596,9.39150943 L33.2403596,5.52122642 L34.4295704,5.52122642 L34.4295704,8.56132075 L35.9496503,8.56132075 C37.4985015,8.56132075 38.1626374,8.12028302 38.1626374,7.0990566 L38.1626374,4.56839623 C38.1626374,3.58254717 37.4985015,3.14150943 35.9496503,3.14150943 L29.5336663,3.14150943 L29.5336663,3.14386792 Z" id="Shape"></path>
            </g>
        </g>
    </g>
</svg>