<svg width="56" height="36" viewBox="0 0 56 36" xmlns="http://www.w3.org/2000/svg"><g fill="none" fill-rule="evenodd"><path d="M0 3.75A3.749 3.749 0 013.75 0h48.5A3.756 3.756 0 0156 3.75v28.5A3.749 3.749 0 0152.25 36H3.75A3.756 3.756 0 010 32.25V3.75z" fill="#000" fill-rule="nonzero"/><path d="M1.25 3.75v28.5c0 1.375 1.123 2.5 2.5 2.5h48.5c1.382 0 2.5-1.118 2.5-2.5V3.75c0-1.375-1.123-2.5-2.5-2.5H3.75a2.499 2.499 0 00-2.5 2.5z" fill="#FFF"/><g fill="#ED2A25" fill-rule="nonzero"><path d="M3.022 16.565l.868.886h5.937v-.886zM8.145 21.69h1.682v-.885h-2.55zM6.018 19.571h3.809v-.886H5.15zM52.947 16.565l-.868.886H46.14v-.886zM47.823 21.69h-1.682v-.885h2.55zM49.951 19.571h-3.81v-.886h4.678zM44.248 17.152c-.369-.452-1.093-.68-1.867-.554-.686.111-1.129.564-1.425 1.02.1-1.1.029-2.372.05-3.55h-1.715v7.63h1.716c.119-1.276-.373-3.394.68-3.753.204-.07.51-.087.745.013.483.205.454.928.454 1.637v2.09c.555.03 1.164.004 1.74.013.023-.781.013-1.641.013-2.468 0-.845-.002-1.599-.391-2.078M14.559 20.211c-.31.148-.826.154-1.108-.012-.3-.177-.51-.48-.547-.9-.068-.764.27-1.323.96-1.397.39-.041.742.072.95.28.554.554.363 1.734-.255 2.029m.498-2.722c-.361-.55-.835-.989-1.788-.923-.889.06-1.492.565-1.79 1.227-.311.694-.337 1.773-.048 2.54.28.741.85 1.257 1.63 1.348 1 .117 1.58-.35 2.009-.923v.942h1.545v-4.976h-1.558v.765zM26.38 16.553c-.9.051-1.532.47-1.933 1.038-.409.577-.57 1.486-.351 2.331.184.707.678 1.29 1.33 1.574.71.31 1.813.264 2.396-.122v-1.452c-.236.196-.487.394-.916.402-.452.01-.785-.17-.99-.463-.257-.364-.27-.947-.101-1.343.163-.384.518-.665 1.041-.659.354.004.622.163.815.305.053.038.114.104.151.085v-1.39c-.366-.223-.84-.34-1.443-.306M31.551 20.243c-.634.239-1.291-.079-1.489-.573-.205-.513-.08-1.256.293-1.56.132-.108.31-.192.586-.219.763-.075 1.213.369 1.27 1.012.061.703-.206 1.17-.66 1.34m.586-2.766c-.365-.555-.837-.988-1.794-.927-1.38.088-2.055 1.198-2.051 2.572.004 1.51.86 2.829 2.527 2.535.64-.113 1.004-.48 1.33-.914v.957h1.55v-4.991h-1.562v.768zM36.905 18.477c-.271-.078-.669-.17-.695-.427-.025-.242.238-.348.464-.366.577-.044 1.036.178 1.367.378.043.027.093.072.146.061.12-.373.235-.749.342-1.133-.632-.273-1.303-.486-2.112-.439-.772.045-1.378.377-1.623.89-.072.15-.14.444-.135.683.018.885.752 1.206 1.477 1.401.194.052.386.086.586.158.128.047.379.133.415.342.056.323-.236.442-.5.462-.723.056-1.31-.237-1.697-.523-.058-.043-.103-.122-.183-.122-.102.434-.224.849-.342 1.267a4.147 4.147 0 002.637.56c.898-.11 1.638-.658 1.636-1.62-.003-1.074-.92-1.325-1.783-1.572M21.585 17.86v-1.137h-1.658V21.7h1.746c.077-1.182-.243-2.625.405-3.247.306-.294.981-.436 1.544-.227.055-.53.116-1.055.164-1.592-1.223-.186-1.877.472-2.201 1.226M18.231 14.17c-.511.055-.897.417-.873.998a.963.963 0 00.975.935.97.97 0 00.961-.834c.078-.688-.424-1.167-1.063-1.099M17.447 16.76v4.94h1.759v-4.978H17.46c-.015.003-.014.02-.013.038"/></g></g></svg>