<?xml version="1.0" encoding="UTF-8"?><svg width="56" height="36" viewBox="0 0 56 36" xmlns="http://www.w3.org/2000/svg"><g fill="none" fill-rule="evenodd"><path d="M0 3.75A3.75 3.75 0 013.75 0h48.5A3.76 3.76 0 0156 3.75v28.5A3.75 3.75 0 0152.25 36H3.75A3.76 3.76 0 010 32.25V3.75z" fill="#000" fill-rule="nonzero"/><path d="M1.25 3.75v28.5a2.5 2.5 0 002.5 2.5h48.5a2.5 2.5 0 002.5-2.5V3.75a2.5 2.5 0 00-2.5-2.5H3.75a2.5 2.5 0 00-2.5 2.5z" fill="#FFF"/><path fill="#E20010" fill-rule="nonzero" d="M32.37 4v.04h-.3v.03h-.33v.04h-.3v.04h-.25v.03H31v.04h-.18v.04h-.2v.04h-.18v.03h-.18v.04h-.19v.03h-.1v.04h-.16v.04h-.14v.03h-.15v.04h-.11v.04h-.15v.03h-.15v.04h-.15v.04h-.1v.04h-.12v.03h-.11v.04h-.11v.03h-.11v.04h-.11v.04h-.11v.04h-.12v.03h-.1v.04h-.12v.03h-.1v.04h-.12v.04h-.11v.04h-.11v.03h-.08v.04h-.1v.03h-.08v.04h-.11v.04h-.07v.03h-.12v.04h-.1v.04h-.08v.04h-.11v.03h-.08v.04h-.1v.04h-.08v.03h-.12v.04h-.07v.04h-.07v.03h-.08v.04h-.1v.04h-.08v.03h-.08v.04h-.07v.04h-.07v.03h-.12v.04h-.07v.04h-.07v.03h-.08v.04h-.07v.04h-.11v.03h-.08v.04h-.07v.04h-.07v.03h-.08v.04h-.07v.04h-.08v.03h-.07v.04h-.07v.04h-.08v.03h-.07v.04h-.08v.04h-.07v.03h-.07v.04H24v.04h-.07v.03h-.08v.04h-.03v.04h-.08v.03h-.07v.04h-.08v.04h-.07v.04h-.08V7h-.07v.04h-.04v.03h-.07v.04h-.08v.04h-.07v.03h-.04v.04H23v.04h-.08v.04h-.07v.03h-.03v.04h-.08v.03h-.07v.04h-.08v.04h-.07v.04h-.04v.03h-.07v.04h-.08v.03h-.07v.04h-.04v.04h-.07v.04h-.04v.03h-.07v.04H22v.03h-.07v.04h-.08v.04h-.03v.03h-.08V8h-.04v.04h-.07v.04h-.07v.03h-.04v.04h-.08v.04h-.03v.03h-.08v.04h-.03v.04h-.08v.03h-.07v.04h-.04v.03h-.07v.04H21v.04h-.07v.04h-.04v.03h-.07v.04h-.04v.04h-.04v.03h-.07v.04h-.04v.04h-.07v.03h-.04v.04h-.07v.03h-.04v.04h-.04v.04h-.07v.04h-.04v.03h-.07v.04h-.04v.04h-.08v.03h-.03v.04H20v.04h-.07v.03h-.04v.04h-.07v.04h-.04v.03h-.04v.04h-.07v.04h-.04v.03h-.04v.04h-.07v.04h-.04v.04h-.03v.03h-.04v.04h-.08v.03h-.03v.04h-.04v.04h-.07v.03h-.04v.04h-.04v.04h-.04v.03H19v.04h-.04v.04h-.04v.03h-.07v.04h-.03v.04h-.04v.03h-.08v.04h-.03v.04h-.04v.03h-.04v.04h-.03v.04h-.04v.03h-.08v.04h-.03v.04h-.04v.03h-.04v.04h-.03v.04h-.04v.04h-.07v.03h-.04v.04h-.04v.03h-.04v.04h-.03v.04H18v.04h-.07v.03h-.04v.04h-.04v.04h-.04v.03h-.03v.04h-.04v.03h-.07v.04h-.04v.04h-.04v.04h-.03v.03h-.04v.04h-.04v.04h-.03v.03h-.04v.04h-.04v.04h-.04v.03h-.03v.04h-.04v.04h-.04v.03h-.03v.04h-.04v.04h-.04v.03h-.04v.04h-.03v.04H17v.03h-.03v.04h-.04v.04h-.08v.03h-.03v.04h-.04v.04h-.04v.03h-.04v.04h-.03v.04h-.04V12h-.03v.04h-.04v.04h-.04v.03h-.04v.08h-.03v.03h-.04v.04h-.04v.04h-.03v.03h-.04v.04h-.04v.04h-.04v.03h-.03v.04h-.04v.04h-.04v.07h-.04v.04h-.03v.03H16v.04h-.04v.04h-.03v.03h-.04v.04h-.04v.04h-.04v.03h-.03v.08h-.04v.03h-.04v.04h-.03v.04h-.04v.04h-.04v.03h-.03v.07h-.04v.04h-.04v.04h-.04v.07h-.03v.04h-.04v.03h-.04v.04h-.04v.07h-.03v.04h-.04v.04h-.04v.07h-.03v.04h-.04v.04h-.04v.03h-.03v.07H15v.04h-.04v.04h-.03v.07h-.04v.04h-.04v.03h-.04v.08h-.03v.04h-.04v.07h-.03v.04h-.04v.03h-.04v.08h-.04v.03h-.03v.08h-.04v.03h-.04v.08h-.04v.07h-.03v.04h-.04v.07h-.03v.04h-.04v.07h-.04v.07h-.04v.04h-.03v.07h-.04v.04h-.04v.07h-.04v.08h-.03v.07H14v.07h-.04v.04h-.04v.07h-.03v.08h-.04v.07h-.03v.07h-.04v.08h-.04v.07h-.04v.08h-.03v.07h-.04v.07h-.03v.11h-.04v.07h-.04v.08h-.04v.1h-.03v.08h-.04v.11h-.04v.11h-.04v.08h-.03v.14h-.04v.11h-.04v.11h-.04v.15h-.03v.18h-.04v.15h-.04v.26h-.03v.44H13v.4h.04v.37h.04v.18h.03v.15h.04v.14h.04v.12h.03v.1h.04v.12h.04v.07h.04v.07h.03v.08h.04v.07h.03v.07h.04v.07h.04v.08h.04v.04h.03v.07h.04v.04h.04v.07h.04v.04h.03v.07h.04v.04h.04v.03h.03v.04h.04V21h.04v.04h.03v.04H14v.04h.04v.03h.04v.04h.03v.04h.04v.03h.04v.04h.03v.04h.04v.03h.04v.04h.04v.04h.03v.03h.04v.04h.03v.04h.08v.03h.04v.04h.07v.04h.03v.03h.08v.04h.04v.04h.07v.04h.04v.03h.07v.04H15v.03h.07v.04h.04v.04h.07v.03h.08v.04h.11v.04h.07v.03h.08v.04h.1v.04h.08v.04h.08v.03h.15v.04h.18v.04h.18v.03h.2v.04h.92v-.04h.25v-.04h.23v-.03h.15v-.04h.15v-.04h.1v-.03h.12v-.04h.14v-.04h.12v-.03h.07v-.04h.11v-.04h.07V22H19v-.04h.1v-.04h.08v-.03h.08v-.04h.07v-.04h.08v-.03h.07v-.04h.07v-.04h.08v-.04h.07v-.03h.08v-.04h.07v-.03h.07v-.04H20v-.04h.04v-.04h.07v-.03h.04v-.04h.07v-.04h.07v-.03h.04v-.04h.08v-.04h.07v-.03h.04v-.04h.07v-.04h.04v-.03h.07v-.04h.04v-.04h.08v-.03h.03v-.04h.07v-.04h.04v-.03h.08v-.04h.03v-.03h.08v-.04h.03v-.04h.08v-.04h.04v-.03h.03v-.04h.08v-.03h.03v-.04h.04v-.04h.08v-.03h.03v-.04h.08v-.04h.03v-.03h.04v-.04h.07v-.04h.04v-.04h.04v-.03h.07v-.04H22v-.03h.04v-.04h.07v-.04h.04V20h.03v-.03h.08v-.04h.04v-.04h.03v-.03h.08v-.04h.03v-.04h.04v-.03h.04v-.04h.07v-.04h.04v-.03h.04v-.04h.07v-.04h.04v-.03h.03v-.04h.08v-.03h.03v-.04h.04v-.04H23v-.04h.07v-.03h.04v-.04h.04v-.04h.07v-.03h.04v-.04h.04v-.04h.07v-.03h.03v-.04h.04v-.03h.08v-.04h.03v-.04h.04v-.04h.07v-.03h.04v-.04h.04v-.04h.08v-.03h.03v-.04h.07v-.04h.04v-.03H24v-.04h.07v-.04h.04v-.04h.07v-.03h.04v-.04h.08v-.03h.03v-.04h.08v-.04h.03v-.03h.08v-.04h.03v-.04h.04v-.03h.08v-.04h.03v-.04h.07v-.04h.04v-.03h.08v-.04h.04V18H25v-.04h.04v-.04h.07v-.04h.04v-.03h.07v-.04h.04v-.03h.07v-.04h.04v-.04h.07v-.04h.04v-.03h.08v-.04h.03v-.03h.04v-.04h.07v-.04h.04v-.03h.08v-.04h.03v-.04h.08v-.04h.03v-.03h.08v-.04h.04v-.03h.07v-.04h.04v-.04h.07v-.03h.04v-.04h.07v-.04h.04V17h.07v-.03h.04v-.04h.07v-.04h.04v-.03h.07v-.04h.04v-.04h.08v-.03h.03v-.04h.08v-.04h.04v-.03h.07v-.04h.03v-.04h.08v-.03h.04v-.04h.07v-.04h.04v-.03h.07v-.04h.04v-.04h.07v-.03h.04v-.04h.07v-.04h.04v-.03h.08v-.04h.07v-.04h.03v-.03h.08v-.04h.04V16H28v-.04h.04v-.04h.07v-.04h.04v-.03h.07v-.04h.04v-.03h.08v-.04h.07v-.04h.03v-.04h.08v-.03h.04v-.04h.07v-.04h.07v-.03h.04v-.04h.08v-.04h.03v-.03h.08v-.04h.03v-.03h.08v-.04h.07v-.04h.04v-.04h.07v-.03h.08v-.04h.03v-.04h.08v-.03h.07v-.04h.04v-.04h.07v-.03h.08v-.04h.03v-.04h.08v-.03h.07v-.04h.04v-.04h.07v-.03h.08v-.04h.03v-.04h.08v-.03h.07v-.04h.08v-.04h.03v-.03h.08v-.04h.07v-.04h.08v-.03h.03v-.04h.08v-.04h.07v-.04h.08v-.03h.07v-.04h.04v-.03H31v-.04h.07v-.04h.08v-.04h.07v-.03h.08v-.04h.07v-.03h.07v-.04h.08v-.04h.07v-.04h.08v-.03h.07v-.04h.08v-.04h.04v-.03h.1v-.04h.08v-.04h.07v-.03h.08v-.04h.07v-.04h.11v-.03h.08v-.04h.07v-.04h.07v-.03h.08v-.04h.1v-.04h.08v-.03h.11v-.04h.08v-.04h.1v-.03h.12v-.04h.07v-.03h.12v-.04h.07v-.04h.11V13h.15v-.03h.11v-.04h.15v-.03h.11v-.04h.15v-.04h.14v-.03h.19v-.05h.22v-.03h.19v-.04h.63v-.04h.07v.04h.34v.04h.3v.04h.1v.03h.11v.04h.12v.04h.07v.03h.1v.04h.08v.04h.08v.03h.04v.04h.07v.04h.07v.04h.04v.03h.07v.04h.04v.03h.08v.04h.03v.04h.04v.04h.03v.03h.04v.04h.04v.03h.04v.04h.03v.04h.04v.03h.04v.04h.04v.04h.03v.07h.04v.04h.04v.04h.04v.07H38v.04h.04v.07h.03v.04h.04v.07h.04v.07h.04v.04h.03v.07h.04v.08h.04v.07h.04v.07h.03v.11h.04v.08h.03v.1h.04v.08h.04v.11h.04v.11h.03v.15h.04v.1h.04v.15h.03v.22h.04v.19h.04v.4h.04v.92h-.04v.3h-.04v.32h-.04V18h-.03v.18h-.04v.15h-.04v.18h-.03v.15h-.04v.14h-.04v.11h-.04v.12h-.03v.1h-.04v.15h-.04v.11h-.03v.11h-.04v.11h-.04v.07h-.03v.12h-.04v.07h-.04v.1h-.04v.08h-.03v.11H38v.08h-.04v.1h-.03v.08h-.04v.07h-.04v.08h-.04v.07h-.03v.11h-.04v.07h-.04v.08h-.03v.07h-.04v.07h-.04v.04h-.04v.07h-.03v.08h-.04v.07h-.04v.07h-.03v.04h-.04v.07h-.04v.08h-.04v.03h-.03v.08h-.04v.07h-.03v.04h-.04v.07h-.04v.07h-.04v.04h-.03v.07H37v.04h-.04v.07h-.03v.04h-.04v.08h-.04v.03h-.04v.08h-.03v.03h-.04v.07h-.04v.04h-.03v.08h-.04v.03h-.04v.04h-.03v.07h-.04v.04h-.04v.04h-.04v.07h-.03v.04h-.04v.03h-.04v.08h-.03v.03h-.04v.08h-.04v.03h-.04v.04h-.03v.03h-.04v.08h-.04v.04h-.03v.03H36v.04h-.03v.07h-.04v.04h-.04v.04h-.04v.03h-.04v.07h-.03v.04h-.04v.04h-.04v.04h-.03v.03h-.04v.08h-.04v.03h-.04v.04h-.03v.04h-.04v.03h-.03v.08h-.04v.03h-.04v.04h-.04v.04h-.03v.03h-.04v.04h-.04v.04h-.03v.03h-.04v.08h-.04v.03h-.04v.04h-.03v.04H35v.03h-.04v.04h-.03v.04h-.04v.03h-.04v.04h-.04v.08h-.03v.03h-.04v.04h-.04v.03h-.03v.04h-.04V25h-.04v.03h-.04v.04h-.03v.04h-.04v.03h-.04v.04h-.03v.04h-.04v.04h-.04v.03h-.03v.04h-.04v.04h-.04v.03h-.04v.04h-.03v.03h-.04v.04h-.03v.04h-.04v.04H34v.03h-.04v.04h-.04v.03h-.03v.04h-.04v.04h-.04v.04h-.03v.03h-.04v.04h-.04v.03h-.03v.04h-.04V26h-.04v.04h-.03v.03h-.04v.04h-.04v.04h-.04v.03h-.03v.04h-.04v.04h-.04v.03h-.03v.04h-.04v.04h-.08v.03h-.03v.04h-.04v.04h-.04v.03h-.03v.04H33v.04h-.04v.03h-.04v.04h-.03v.04h-.04v.03h-.07v.04h-.04v.04h-.04v.03h-.03v.04h-.04v.04h-.04v.03h-.04v.04h-.03v.04h-.07v.04h-.04v.03h-.04v.04h-.04v.03h-.03v.04h-.04v.04h-.04v.03h-.07v.04h-.04v.04h-.03v.03h-.04v.04H32v.04h-.07v.03h-.04v.04h-.04v.04h-.03v.04h-.04v.03h-.08v.04h-.03v.03h-.04v.04h-.04v.04h-.03v.03h-.08v.04h-.04v.04h-.03v.04h-.04v.03h-.07V28h-.04v.04h-.04v.03h-.04v.04h-.07v.04h-.04v.03h-.03v.04H31v.03h-.07v.04h-.04v.04h-.04v.04h-.04v.03h-.07v.04h-.04v.04h-.03v.03h-.08v.04h-.03v.04h-.04v.03h-.07v.04h-.04v.04h-.04v.03h-.07v.04h-.04v.04h-.04v.03h-.07v.04h-.04v.03h-.04v.04H30V29h-.04v.04h-.03v.03h-.08v.04h-.04v.04h-.07v.03h-.03v.04h-.04v.04h-.08v.03h-.03v.04h-.07v.04h-.04v.03h-.08v.04h-.04v.04h-.03v.03h-.08v.04h-.03v.04h-.08v.03h-.04v.04H29v.04h-.03v.03h-.08v.04h-.04v.04h-.07v.03h-.04v.04h-.07v.04h-.04v.03h-.07V30h-.04v.04h-.07v.03h-.08v.04h-.03v.04h-.08v.04h-.04v.03h-.07v.04h-.07v.03h-.04v.04h-.08v.04h-.03v.03h-.08v.04h-.07v.04h-.07v.03h-.04v.04h-.08v.04h-.07v.03h-.04v.04h-.07v.04h-.08v.04h-.07v.03h-.04v.04h-.07v.03h-.08v.04H27v.04h-.07v.03h-.08v.04h-.04v.04h-.07v.04h-.07v.03h-.08v.04h-.07v.04h-.08v.03h-.07v.04h-.07v.04h-.08v.03h-.1v.04h-.08v.04h-.08v.03h-.07v.04h-.07v.04h-.12v.03h-.07v.04h-.11v.04h-.08v.03h-.1v.04h-.12v.04h-.07v.03H25v.04h-.1v.03h-.12v.04h-.15v.04h-.18v.04h-.26v.03h-.37v-.03h-.15v-.04h-.11v-.04h-.08v-.03h-.07v-.04h-.04v-.04h-.04v-.04h-.03v-.03h-.04v-.07h-.04v-.08h-.04v-.07h-.03v-.11h-.04v-.37h.04v-.18h.04v-.11h.03v-.11h.04v-.08h.04v-.07h.04v-.07h.03v-.08h.04v-.07h.03v-.07h.04v-.04h.04v-.08h.04v-.07h.03v-.03h.04v-.08h.04v-.03h.03v-.08h.04v-.03h.04v-.08h.04v-.03h.03v-.04h.04v-.08h.04v-.03h.03v-.04H24v-.07h.04v-.04h.04v-.03h.03v-.08h.04v-.03h.04v-.04h.03v-.04h.04v-.04h.04v-.07h.04v-.03h.03v-.04h.04v-.04h.04v-.04h.03v-.03h.04v-.08h.04v-.03h.03v-.04h.04v-.04h.04v-.03h.04v-.04h.03v-.04h.04v-.03h.03v-.04h.04v-.04h.04v-.07h.04v-.04h.03v-.03H25v-.04h.04v-.03h.04v-.04h.03v-.04h.04v-.04h.03v-.03h.04v-.04h.04v-.04h.04v-.03h.03v-.04h.04v-.04h.04v-.03h.03v-.04h.04v-.04h.04v-.03h.04v-.04h.03v-.03h.04v-.04h.04v-.04h.03v-.04h.04v-.03h.04v-.04h.04v-.04h.03v-.03h.04v-.04h.04v-.04h.03v-.03H26v-.04h.04v-.04h.04v-.03h.03v-.04h.04v-.04h.04v-.03h.03v-.04h.04v-.04h.04v-.04h.04v-.03h.03v-.04h.04v-.03h.04v-.04h.03v-.04h.04v-.03h.04v-.04h.03v-.04h.04v-.03h.04v-.04h.03v-.04h.04v-.04h.04v-.03h.04v-.04h.03v-.03h.08v-.04h.04v-.08H27v-.03h.04v-.04h.03v-.03h.04v-.04h.04v-.04h.04v-.03h.03v-.04h.04v-.04h.04v-.04h.03v-.03h.04v-.08h.04v-.03h.04v-.04h.03v-.04h.04v-.03h.04v-.04h.03v-.07h.04v-.04h.04v-.04h.04v-.07h.03v-.04h.04v-.03h.03v-.04h.04v-.07h.04v-.04h.04v-.07h.03v-.04H28V25h.04v-.08h.04v-.03h.03v-.08h.04v-.07h.04v-.04h.03v-.1h.04v-.12h.04v-.1h.04v-.08h.03v-.55h-.03v-.15h-.04v-.1h-.04v-.04h-.04v-.08h-.03v-.03h-.04v-.08h-.04v-.03h-.04v-.04h-.03v-.04H28v-.04h-.04v-.03h-.03v-.04h-.04v-.04h-.04v-.03h-.07v-.04h-.04v-.04h-.07v-.03h-.04v-.04h-.07v-.03h-.08v-.04h-.07v-.04h-.08v-.04h-.1v-.03h-.12v-.04h-.07v-.04h-.11v-.03h-.19v-.04h-.15v-.04h-.22v-.03h-.33v-.04H26v.04h-.66v.03h-.23v.04h-.18v.04h-.12v.04h-.1v.03h-.16v.04h-.1v.04h-.08v.03h-.07v.04h-.08v.04h-.1v.03h-.08v.04h-.08v.04h-.07v.03h-.08v.04h-.03v.04h-.08v.03h-.04v.04h-.07v.04h-.03v.03h-.08v.04h-.04v.03h-.03v.04h-.08v.04h-.03v.04h-.08v.03h-.04v.04h-.03v.04h-.04v.03h-.04v.04h-.03v.04h-.08v.03h-.04v.04h-.03v.03h-.04v.04h-.04v.04h-.03v.04h-.04v.03h-.04v.04h-.03v.04h-.04v.03h-.04v.04h-.04v.04h-.03v.03h-.04v.04h-.04v.04h-.03v.07h-.04v.04h-.04v.03h-.03v.04h-.04v.04h-.04v.07h-.03v.04h-.04v.03h-.04v.04h-.04v.04h-.03v.03H22v.08h-.04v.03h-.04v.08h-.03v.04h-.04v.07h-.03v.03h-.04V25h-.04v.03h-.04v.08h-.03v.03h-.04v.08h-.04v.04h-.03v.07h-.04v.03h-.04v.08h-.04v.03h-.03v.08h-.04v.07h-.04v.08h-.03v.07h-.04v.07h-.04v.07h-.04V26h-.03v.04h-.04v.07h-.03v.07h-.04v.07H21v.08h-.04v.07h-.03v.08h-.04v.07h-.04v.07h-.04v.08h-.03v.1h-.04v.08h-.04v.07h-.03v.12h-.04v.07h-.04v.07h-.03v.11h-.04v.08h-.04v.07h-.03v.1h-.04v.08h-.04v.11h-.04v.11h-.03v.11h-.04v.11h-.04v.15h-.04v.1h-.03v.12h-.04v.15h-.04v.25h-.03v.26H20v.3h-.04v.03H20v.73h.04v.15h.03v.15h.04v.18h.04v.15h.04v.07h.03v.07h.04v.11h.04v.08h.03v.07h.04v.08h.04v.07h.04v.07h.03v.04h.04v.07h.04v.04h.03v.07h.04v.04h.04v.04h.03v.07h.04v.03h.04v.04h.04v.08h.07v.03h.04v.04h.03v.04H21v.03h.04v.04h.04v.04h.03v.03h.04v.04h.04v.03h.03v.04h.04v.04h.07v.04h.04v.03h.07v.04h.04v.04h.08v.03h.03v.04h.08v.04h.04v.03h.07v.04h.07v.04h.08v.03H22v.04h.11v.04h.11v.03h.11v.04h.19v.04h.22v.03h.37V33h.6v-.04h.44v-.03h.26v-.04h.22v-.04h.18v-.03H25v-.04h.15v-.04h.15v-.03h.14v-.04h.12v-.04h.1v-.04h.16v-.03h.1v-.04h.12v-.03h.1v-.04h.12v-.04h.07v-.03h.11v-.04h.12v-.04h.07v-.04h.11v-.03h.08v-.04h.1v-.04H27v-.03h.11v-.04h.08v-.03h.07V32h.07v-.04h.12v-.03h.07v-.04h.07v-.04h.08v-.03h.07v-.04h.07v-.04h.08v-.04H28v-.03h.07v-.04h.08v-.04h.07v-.03h.08v-.04h.04v-.04h.07v-.03h.07v-.04h.08v-.03h.07v-.04h.07v-.04h.08v-.04h.07v-.03h.04v-.04h.07v-.03h.08v-.04h.07v-.04h.08v-.04h.03v-.03h.08v-.04h.07v-.04h.08v-.03h.03v-.04h.08v-.04h.07v-.03h.04v-.04h.07v-.03h.08v-.04h.03v-.04h.08v-.04H30v-.03h.04v-.04h.07v-.04h.04v-.03h.07v-.04h.08v-.04h.03v-.03h.08v-.04h.04v-.04h.07v-.03h.07v-.04h.04v-.04h.07v-.03h.04v-.04h.08v-.04h.03v-.03h.07v-.04h.04v-.04h.08v-.03h.04v-.04h.07v-.04h.04v-.03h.07v-.04h.04v-.04h.07v-.03h.04v-.04h.03v-.04h.08v-.03h.04v-.04h.07v-.04h.04v-.04h.07v-.03h.04v-.04h.07v-.03h.04v-.04h.04v-.04H32v-.03h.04v-.04h.04v-.04h.07v-.03h.04v-.04h.07v-.04h.04v-.04h.03V29h.08v-.04h.04v-.03h.03v-.04h.08v-.04h.03v-.04h.08v-.03h.04v-.04h.03v-.04h.07v-.03h.04v-.04h.04v-.04h.07v-.03H33v-.04h.04v-.04h.04v-.03h.07v-.04h.03v-.04h.04v-.03h.08v-.04h.03v-.04h.04v-.03h.08v-.04h.03v-.03h.04v-.04h.04v-.04h.07v-.04h.04v-.03h.03v-.04h.08v-.04h.04v-.03h.03v-.04h.04v-.04h.07v-.03H34v-.04h.04v-.04h.04v-.03h.07v-.04h.04v-.03h.03v-.04h.04v-.04h.08v-.04h.03v-.03h.04v-.04h.04v-.04h.03v-.03h.08v-.04h.03v-.04h.04v-.03h.04v-.04h.07v-.04h.04v-.03h.04v-.04h.03v-.04h.04v-.03h.07v-.04H35v-.04h.04v-.04h.03v-.03h.04v-.04h.08v-.03h.03v-.04h.04v-.04h.04v-.03h.04v-.04h.03v-.04h.08v-.03h.03v-.04h.04v-.04h.04v-.04h.03v-.03h.04v-.04h.08v-.03h.03v-.04h.04v-.04h.03v-.04h.04v-.03h.04v-.04h.04v-.03H36v-.04h.04v-.04h.04v-.03h.03v-.04h.04v-.04h.03v-.04h.04v-.03h.04v-.04h.04v-.04h.07v-.03h.04v-.04h.04v-.04h.03v-.03h.04v-.04h.04v-.03h.03v-.04h.04v-.04h.04v-.04h.04v-.03h.03v-.04h.04v-.04h.04v-.03h.03v-.04h.04v-.04h.04v-.03h.03v-.04H37v-.04h.04v-.03h.04v-.04h.03v-.04h.04V25h.04v-.04h.03v-.04h.04v-.03h.04v-.04h.03v-.04h.04v-.03h.04v-.04h.04v-.04h.03v-.03h.04v-.04h.03v-.04h.04v-.03h.04v-.04h.04v-.04h.03v-.07h.04v-.04h.04v-.03h.04v-.04h.03v-.04h.04v-.04h.04v-.03h.04v-.04H38v-.03h.04v-.04h.03v-.07h.04v-.04h.04v-.04h.04v-.03h.03v-.04h.04v-.04h.04v-.07h.04v-.04h.03v-.03h.04v-.04h.03v-.04h.04v-.03h.04v-.08h.04v-.03h.03v-.04h.04v-.04h.04v-.03h.03v-.08h.04v-.03h.04v-.04h.04v-.08h.03v-.03h.04v-.04h.04v-.04h.03v-.07H39v-.04h.04v-.03h.03v-.04h.04v-.07h.04v-.04h.04v-.04h.03v-.07h.04v-.04h.04v-.03h.03v-.08h.04v-.03h.04v-.04h.04v-.07h.03v-.04h.04v-.07h.04v-.04h.03v-.04h.04v-.07h.04v-.04h.04v-.07h.03v-.04h.04v-.03h.04v-.08h.03v-.03h.04v-.08h.04v-.03h.03v-.08H40v-.03h.04v-.08h.04v-.03h.03v-.08h.04v-.03h.04v-.08h.04v-.03h.03v-.08h.04v-.07h.03v-.04h.04v-.07h.04v-.04h.04v-.07h.03v-.07h.04v-.04h.04v-.07h.03v-.08h.04v-.03h.04v-.08h.03v-.07h.04v-.04h.04v-.07h.04v-.08h.03v-.07h.04v-.03h.04v-.08h.03v-.07H41v-.08h.04v-.07h.04v-.07h.03v-.08h.04v-.03h.04v-.08h.03v-.07h.04v-.07h.04v-.08h.04v-.07h.03v-.07h.04v-.08h.04v-.07h.03v-.07h.04v-.11h.04v-.08h.04v-.07h.03v-.07h.04v-.08h.03v-.07h.04v-.07h.04v-.11h.04v-.08h.03v-.1h.04v-.08h.04v-.11h.03v-.08H42v-.1h.04v-.08h.04v-.1h.03v-.08h.04v-.11h.04v-.11h.03v-.11h.04v-.11h.04v-.11h.03v-.11h.04v-.11h.04v-.11h.04v-.11h.03v-.15h.04v-.15h.04v-.1h.03v-.15h.04v-.15h.04v-.15h.03v-.18h.04v-.18h.04v-.19h.04v-.18h.03v-.22h.04v-.3h.03v-.29h.04v-.48H43v-1.13h-.04v-.7h-.04v-.3h-.03v-.22h-.04v-.22h-.04v-.22h-.03v-.22h-.04v-.18h-.04v-.11h-.03v-.11h-.04v-.14h-.04v-.12h-.03v-.1h-.04v-.15h-.04v-.11h-.03V9.5h-.04V9.4h-.04v-.07h-.04v-.08h-.03v-.11h-.04v-.07h-.04v-.08h-.03v-.07h-.04v-.1h-.04v-.08h-.04v-.08h-.03V8.6H42v-.07h-.04v-.08h-.03v-.07h-.04v-.04h-.04v-.07h-.04v-.04h-.03v-.07h-.04v-.08h-.04v-.03h-.03v-.08h-.04V7.9h-.04v-.04h-.03v-.07h-.04v-.04h-.04v-.07h-.04v-.04h-.03V7.6h-.04v-.07h-.03v-.04h-.04v-.04h-.04v-.04h-.04v-.07h-.03V7.3h-.04v-.03h-.04v-.04h-.04v-.07h-.03v-.04H41v-.04h-.04v-.03h-.04V7h-.03v-.07h-.04V6.9h-.03v-.04h-.04v-.04h-.04V6.8h-.04v-.04h-.03v-.03h-.08v-.04h-.04v-.04h-.03v-.03h-.04v-.04h-.03v-.04h-.04V6.5h-.04v-.04h-.04v-.04h-.03v-.04h-.04v-.03h-.04V6.3h-.03v-.03h-.04v-.04h-.08V6.2h-.03v-.03H40v-.04h-.07v-.04h-.04v-.03h-.04v-.04h-.07v-.04h-.04v-.04h-.04v-.03h-.07v-.04h-.04v-.03h-.03V5.8h-.04v-.04h-.08v-.04h-.07V5.7h-.04v-.04h-.07v-.03h-.08v-.04h-.03v-.04h-.08v-.03h-.03v-.04h-.08v-.04h-.07V5.4h-.04v-.03h-.07v-.04h-.08V5.3h-.07v-.04h-.07V5.2h-.08v-.04h-.07v-.03h-.08V5.1h-.07v-.04h-.07v-.03h-.08v-.04h-.07v-.03h-.08v-.04h-.1v-.04h-.08v-.03h-.11V4.8h-.08v-.04h-.1v-.04h-.12V4.7h-.08v-.04h-.1v-.04h-.11V4.6h-.11v-.04h-.12v-.03h-.14v-.04h-.12v-.04h-.1v-.03h-.15v-.04h-.15v-.04h-.15V4.3h-.19v-.03h-.14v-.04h-.2v-.04h-.21v-.04h-.22v-.03h-.23v-.04h-.33v-.03h-.33V4z"/></g></svg>