<?xml version="1.0" encoding="UTF-8"?>
<svg width="56px" height="36px" viewBox="0 0 56 36" version="1.1" xmlns="http://www.w3.org/2000/svg" xmlns:xlink="http://www.w3.org/1999/xlink">
    <!-- Generator: Sketch 50.2 (55047) - http://www.bohemiancoding.com/sketch -->
    <title>cc/alipay</title>
    <desc>Created with Sketch.</desc>
    <defs></defs>
    <g id="cc/alipay" stroke="none" stroke-width="1" fill="none" fill-rule="evenodd">
        <g id="Group">
            <path d="M0,3.75075247 C0,1.67926908 1.67596877,0 3.75035585,0 L52.2496442,0 C54.3209085,0 56,1.68806916 56,3.75075247 L56,32.2492475 C56,34.3207309 54.3240312,36 52.2496442,36 L3.75035585,36 C1.67909151,36 0,34.3119308 0,32.2492475 L0,3.75075247 Z" id="Rectangle-2" fill="#000000" fill-rule="nonzero"></path>
            <path d="M1.25,3.75075247 L1.25,32.2492475 C1.25,33.6250965 2.37296468,34.75 3.75035585,34.75 L52.2496442,34.75 C53.6324061,34.75 54.75,33.6316447 54.75,32.2492475 L54.75,3.75075247 C54.75,2.37490355 53.6270353,1.25 52.2496442,1.25 L3.75035585,1.25 C2.36759386,1.25 1.25,2.36835527 1.25,3.75075247 Z" id="Path" fill="#FFFFFF"></path>
        </g>
        <g id="Group-115" transform="translate(5.000000, 12.000000)">
            <path d="M28.0184397,2.67632103 C28.0184397,3.11678598 27.6172096,3.47383026 27.1222679,3.47383026 C26.6273262,3.47383026 26.2260481,3.11678598 26.2260481,2.67632103 C26.2260481,2.23585609 26.6273262,1.87881181 27.1222679,1.87881181 C27.6172096,1.87881181 28.0184397,2.23585609 28.0184397,2.67632103" id="Fill-1" fill="#5590C0"></path>
            <path d="M23.2013241,2.75292989 L23.2013241,9.64667159 L24.8692955,9.64667159 L24.8692955,2.36566421 L23.5892904,2.36566421 C23.3750511,2.36566421 23.2013241,2.53907749 23.2013241,2.75292989" id="Fill-2" fill="#2F312F"></path>
            <path d="M26.2882822,4.69122509 L26.2882822,9.64667159 L27.9562055,9.64667159 L27.9562055,4.30395941 L26.6762485,4.30395941 C26.4619611,4.30395941 26.2882822,4.47737269 26.2882822,4.69122509" id="Fill-3" fill="#2F312F"></path>
            <path d="M31.9269366,9.18692251 C31.5845767,9.18692251 31.2220327,8.8638893 30.943589,8.54085609 L30.943589,5.67615498 C31.2032423,5.41869742 31.6446002,5.04946863 32.0264632,5.04946863 C32.5990654,5.04946863 33.1343272,5.83220295 33.1343272,6.97529151 C33.1343272,8.11838007 32.6115123,9.18692251 31.9269366,9.18692251 Z M32.4746452,4.17971587 C31.7147638,4.17971587 31.1799826,4.57254613 30.943589,4.78769373 L30.943589,4.30395941 L29.6635838,4.30395941 C29.4492965,4.30395941 29.2756176,4.47737269 29.2756176,4.69122509 L29.2756176,11.7837565 L30.943589,11.7837565 L30.943589,9.43118819 C31.1967065,9.62239852 31.5392587,9.75849077 32.0016176,9.75849077 C33.5575194,9.75849077 34.7524632,8.41661255 34.7524632,6.7268524 C34.7524632,5.03704428 33.5201789,4.17971587 32.4746452,4.17971587 Z" id="Fill-4" fill="#2F312F"></path>
            <path d="M37.8269744,9.05025461 C37.1299039,9.05025461 36.6942168,8.64025092 36.6942168,7.88231734 C36.6942168,7.12443173 37.4660164,6.6522583 38.075911,6.6522583 C38.3829969,6.6522583 38.5725828,6.74973432 38.6858538,6.84658672 L38.6858538,8.69935055 C38.4894438,8.86969373 38.1960061,9.05025461 37.8269744,9.05025461 Z M37.9265491,4.17971587 C36.457727,4.17971587 35.9723006,4.49032472 35.9723006,4.49032472 L36.1466043,4.86310332 C36.1466043,4.86310332 36.6942168,4.66431365 37.5904847,4.66431365 C38.5862311,4.66431365 38.6858538,5.19856089 38.6858538,5.85705166 L38.6858538,6.16425461 C38.4726237,6.10165314 38.0640409,6.00619188 37.5530961,6.00619188 C36.7938395,6.00619188 35.4495337,6.30437638 35.4495337,7.85746863 C35.4495337,9.41060886 36.6444775,9.75849077 37.4286278,9.75849077 C37.8875746,9.75849077 38.3663691,9.52060517 38.6858538,9.32291882 L38.6858538,9.64667159 L40.3537771,9.64667159 L40.3537771,5.85705166 C40.3537771,4.73885978 39.3953231,4.17971587 37.9265491,4.17971587 Z" id="Fill-5" fill="#2F312F"></path>
            <path d="M46.9724632,4.17971587 L45.8530654,4.17971587 L44.3514683,7.59358303 L44.3100429,7.51304059 L42.5982914,4.17923616 L40.8895194,4.17923616 L43.5628487,9.38643173 L43.2895951,10.0077454 C42.8681329,10.8425277 41.6607423,10.7865941 41.6607423,10.7865941 L41.6607423,11.485524 C41.6607423,11.485524 42.1803855,11.5290332 42.5569141,11.485524 C42.9154213,11.4441255 43.7140849,11.2060959 44.1023875,10.3831624 L44.1024356,10.3832103 L44.9000419,8.659631 L44.8998978,8.65943911 L46.9724632,4.17971587" id="Fill-6" fill="#2F312F"></path>
            <path d="M19.827272,7.93206273 L16.8157638,7.93206273 L18.3483579,4.75176384 L19.827272,7.93206273 Z M19.0787802,2.36619188 L18.3708006,2.36619188 L14.8619479,9.64667159 L15.9894673,9.64667159 L16.5702873,8.44146125 L20.0641462,8.44146125 L20.62459,9.64667159 L22.4642699,9.64667159 L19.2849458,2.80900738 L19.0787802,2.36619188 Z" id="Fill-7" fill="#2F312F"></path>
            <path d="M13.0218834,2.03816974 L13.0218834,10.9796273 C13.0099652,12.0963321 12.1003374,12.9969299 10.9800746,12.9969299 L2.04185685,12.9969299 C0.914145194,12.9969299 0,12.0843875 0,10.9587122 L0,2.03816974 C0,0.912494465 0.914145194,0 2.04185685,0 L10.9800746,0 C12.1077863,0 13.0218834,0.912494465 13.0218834,2.03816974" id="Fill-9" fill="#5590C0"></path>
            <path d="M3.41004703,10.0015092 C1.67441104,10.0015092 1.40557873,9.0249262 1.37568712,8.44198893 C1.34728528,7.93206273 1.6923364,6.97485978 3.65206339,6.97485978 C4.38099591,6.97485978 5.53706135,7.34610332 6.83508793,7.88730627 C6.10168609,8.84897048 4.92615746,10.0015092 3.41004703,10.0015092 Z M8.70220859,7.30580812 C9.37135787,6.0235572 9.81497444,4.66978229 9.81497444,4.66978229 L7.23242536,4.66978229 L7.23242536,3.76174908 L10.4154499,3.76174908 L10.4154499,3.20860148 L7.23242536,3.20860148 L7.23242536,1.74742066 L5.75067587,1.74742066 L5.75067587,3.20860148 L2.56765133,3.20860148 L2.56765133,3.76174908 L5.75067587,3.76174908 L5.75067587,4.66978229 L3.07398262,4.66978229 L3.07398262,5.15581919 L8.24662577,5.15581919 C8.24662577,5.15581919 7.95982004,6.03550185 7.47886299,6.90626199 C6.09125767,6.47831734 4.81115644,6.18013284 3.7835,6.18013284 C1.31893149,6.18013284 0.772232106,7.41614022 0.888722904,8.54632472 C0.982867076,9.44836162 1.65499591,10.7648635 3.70881902,10.7648635 C5.58487832,10.7648635 7.09945092,9.69138007 8.03152147,8.41363838 C9.80901534,9.23067159 11.6865644,10.2370923 13.0218834,10.9796273 L13.0218834,8.83558672 C11.6103937,8.35247601 10.1241748,7.78887085 8.70220859,7.30580812 Z" id="Fill-11" fill="#FFFFFE"></path>
        </g>
    </g>
</svg>