<?xml version="1.0" encoding="UTF-8"?>
<svg width="45px" height="29px" viewBox="0 0 45 29" version="1.1" xmlns="http://www.w3.org/2000/svg" xmlns:xlink="http://www.w3.org/1999/xlink">
    <!-- Generator: Sketch 41.2 (35397) - http://www.bohemiancoding.com/sketch -->
    <title>PM/Desktop/Deposit/amex</title>
    <desc>Created with Sketch.</desc>
    <defs>
        <rect id="path-1" x="0" y="0" width="45" height="29" rx="3"></rect>
        <mask id="mask-2" maskContentUnits="userSpaceOnUse" maskUnits="objectBoundingBox" x="0" y="0" width="45" height="29" fill="white">
            <use xlink:href="#path-1"></use>
        </mask>
        <polygon id="path-3" points="0.0186391336 25.1706405 24.7621715 25.1706405 24.7621715 0.056897027 12.3904053 0.056897027 0.0186391336 0.056897027 0.0186391336 25.1706405"></polygon>
        <polygon id="path-5" points="26.017344 11.4918568 0 11.4918568 0 5.77290831 0 0.0539598649 26.017344 0.0539598649"></polygon>
    </defs>
    <g id="Symbols" stroke="none" stroke-width="1" fill="none" fill-rule="evenodd">
        <g id="PM/Desktop/Deposit/amex">
            <use id="Rectangle-2" stroke="#000000" mask="url(#mask-2)" stroke-width="2" fill="#FFFFFF" xlink:href="#path-1"></use>
            <g id="Amex_one_color" transform="translate(9.000000, 2.000000)">
                <g id="Group-3" transform="translate(1.402059, 0.000000)">
                    <mask id="mask-4" fill="white">
                        <use xlink:href="#path-3"></use>
                    </mask>
                    <g id="Clip-2"></g>
                    <path d="M24.6152852,0.056897027 L0.0186391336,0.056897027 L0.0186391336,25.1750043 L24.6152852,25.1750043 L24.6152852,16.8833116 C24.7138417,16.7419922 24.7621715,16.5569509 24.7621715,16.3316286 C24.7621715,16.0744172 24.7138417,15.9166496 24.6152852,15.7835542 L24.6152852,0.056897027" id="Fill-1" fill="#246EA9" mask="url(#mask-4)"></path>
                </g>
                <path d="M1.42069786,12.7742218 L2.60279831,12.7742218 L2.8687771,12.1189828 L3.46522938,12.1189828 L3.73021847,12.7742218 L6.05532669,12.7742218 L6.05532669,12.2745685 L6.26225406,12.777075 L7.46794209,12.777075 L7.67354988,12.2684424 L7.67354988,12.7742218 L13.4504442,12.7742218 L13.4490421,11.7011505 L13.5604646,11.7011505 C13.6389799,11.7031646 13.6618252,11.7113886 13.6618252,11.84247 L13.6618252,12.7742218 L16.6487051,12.7742218 L16.6487051,12.5238077 C16.8896118,12.6569031 17.2645388,12.7742218 17.7563315,12.7742218 L19.0150503,12.7742218 L19.2825961,12.1189828 L19.8805329,12.1189828 L20.1434602,12.7742218 L22.5648156,12.7742218 L22.5648156,12.1530539 L22.9324849,12.7742218 L24.8708723,12.7742218 L24.8708723,8.66941176 L22.9505467,8.66941176 L22.9505467,9.15547014 L22.6829184,8.66941176 L20.7110465,8.66941176 L20.7110465,9.15547014 L20.464779,8.66941176 L17.8032592,8.66941176 C17.3578169,8.66941176 16.9640034,8.73226703 16.6487051,8.90900027 L16.6487051,8.66941176 L14.8129979,8.66941176 L14.8129979,8.90900027 C14.6097818,8.72739973 14.3360505,8.66941176 14.0314738,8.66941176 L7.32031355,8.66941176 L6.86744858,9.72964338 L6.40790322,8.66941176 L4.29376361,8.66941176 L4.29376361,9.15547014 L4.05970228,8.66941176 L2.25830424,8.66941176 L1.42069786,10.6191 L1.42069786,12.7742218 Z M24.255451,12.195433 L23.2759068,12.195433 L21.9657241,9.98836541 L21.9670437,12.195433 L20.5587995,12.195433 L20.2889444,11.5393549 L18.8505971,11.5393549 L18.5929482,12.195433 L17.7825582,12.195433 C17.4444147,12.195433 17.0203331,12.1189828 16.7808285,11.870415 C16.5359631,11.6192457 16.4119221,11.2820595 16.4119221,10.7468246 C16.4119221,10.3091874 16.4883756,9.91048865 16.7835502,9.59721932 C17.0088692,9.36098757 17.3578169,9.25248041 17.8348468,9.25248041 L18.5010721,9.25248041 L18.5010721,9.8818723 L17.8490323,9.8818723 C17.5954246,9.8818723 17.4518373,9.92072676 17.3136108,10.0572628 C17.1981472,10.1822181 17.1162504,10.4156805 17.1162504,10.7242504 C17.1162504,11.0410443 17.1766214,11.2662827 17.3089098,11.4158262 C17.4122498,11.5311308 17.6067236,11.5667124 17.7885788,11.5667124 L18.0990936,11.5667124 L19.0740193,9.25248041 L20.1079139,9.25248041 L21.2780556,12.0356514 L21.2780556,9.25248041 L22.3340532,9.25248041 L23.5483186,11.3017804 L23.5483186,9.25248041 L24.255451,9.25248041 L24.255451,12.195433 Z M15.3673059,12.195433 L16.0729538,12.195433 L16.0729538,9.25248041 L15.3673059,9.25248041 L15.3673059,12.195433 Z M14.9668119,10.0470247 C14.9668119,10.5119355 14.6586889,10.7584054 14.4810398,10.8300722 C14.6312251,10.8908295 14.7594722,10.9918678 14.8191009,11.0785561 C14.9178224,11.2226449 14.9371213,11.357083 14.9371213,11.615805 L14.9371213,12.195433 L14.2393909,12.195433 L14.2360919,11.8240918 C14.2360919,11.64996 14.2534939,11.393252 14.1248344,11.2532753 C14.0247934,11.1474535 13.8731237,11.1263899 13.6222376,11.1263899 L12.8788166,11.1263899 L12.8788166,12.195433 L12.1890862,12.195433 L12.1890862,9.25248041 L13.7778661,9.25248041 C14.1314324,9.25248041 14.3923802,9.26406122 14.617122,9.39447122 C14.8365854,9.52412595 14.9668119,9.71663595 14.9668119,10.0470247 L14.9668119,10.0470247 Z M11.7090873,12.195433 L9.39948417,12.195433 L9.39948417,9.25248041 L11.7090873,9.25248041 L11.7090873,9.86617946 L10.0925135,9.86617946 L10.0925135,10.3958757 L11.6687575,10.3958757 L11.6687575,10.9993366 L10.0925135,10.9979939 L10.0925135,11.5865173 L11.7090873,11.5865173 L11.7090873,12.195433 Z M8.88459872,12.195433 L8.1777137,12.195433 L8.17301268,9.89345311 L7.17202522,12.195433 L6.56551111,12.195433 L5.55817316,9.88791446 L5.55817316,12.195433 L4.15232063,12.195433 L3.88724905,11.5393549 L2.44716979,11.5393549 L2.18069616,12.195433 L1.42795557,12.195433 L2.66473632,9.25248041 L3.69368247,9.25248041 L4.86844274,12.0397634 L4.86844274,9.25248041 L5.99825465,9.25248041 L6.90258253,11.2505899 L7.73425077,9.25248041 L8.88459872,9.25248041 L8.88459872,12.195433 Z M20.0535635,10.9256558 L19.5739769,9.7541477 L19.0995862,10.9256558 L20.0535635,10.9256558 Z M14.0609995,10.460745 C13.9676389,10.5160476 13.8543196,10.5194043 13.7202168,10.5194043 L12.8788166,10.5194043 L12.8788166,9.86617946 L13.7282168,9.86617946 C13.8515979,9.86617946 13.9777832,9.87087892 14.0596799,9.9187127 C14.1495767,9.96243446 14.2045868,10.0532347 14.2045868,10.1775186 C14.2045868,10.3085161 14.1508138,10.4102258 14.0609995,10.460745 L14.0609995,10.460745 Z M3.63793002,10.9256558 L3.16535376,9.7541477 L2.6943445,10.9256558 L3.63793002,10.9256558 L3.63793002,10.9256558 Z" id="Fill-4" fill="#FFFFFF"></path>
                <g id="Group-8" transform="translate(0.000000, 13.678784)">
                    <mask id="mask-6" fill="white">
                        <use xlink:href="#path-5"></use>
                    </mask>
                    <g id="Clip-6"></g>
                    <path d="M14.8191009,1.60839 C14.8191009,2.42550851 14.2206693,2.59552824 13.6167943,2.59552824 L12.7533736,2.59552824 L12.7533736,3.58266649 L11.4118508,3.58266649 L10.5594816,2.60929095 L9.67527737,3.58266649 L6.93680925,3.58266649 L6.93680925,0.638371216 L9.7170917,0.638371216 L10.5682238,1.60285135 L11.4470672,0.638371216 L13.6558046,0.638371216 C14.2045868,0.638371216 14.8191009,0.793285541 14.8191009,1.60839 L14.8191009,1.60839 Z M9.32468021,2.96686946 L7.6242304,2.96686946 L7.6242304,2.38321338 L9.14224763,2.38321338 L9.14224763,1.78252176 L7.6242304,1.78252176 L7.6242304,1.24938486 L9.35651519,1.24938486 L10.1118949,2.10678446 L9.32468021,2.96686946 Z M12.064303,3.31572041 L11.0042641,2.11567986 L12.064303,0.95709527 L12.064303,3.31572041 Z M13.6477221,1.99617932 L12.7533736,1.99617932 L12.7533736,1.24938486 L13.6558046,1.24938486 C13.905371,1.24938486 14.0784016,1.34899662 14.0784016,1.60839 C14.0784016,1.86509797 13.913371,1.99617932 13.6477221,1.99617932 L13.6477221,1.99617932 Z M18.3112168,0.638371216 L20.6205725,0.638371216 L20.6205725,1.24938486 L19.0016071,1.24938486 L19.0016071,1.78252176 L20.5795829,1.78252176 L20.5795829,2.38321338 L19.0016071,2.38321338 L19.0016071,2.96686946 L20.6205725,2.97098149 L20.6205725,3.58266649 L18.3112168,3.58266649 L18.3112168,0.638371216 Z M17.4382291,2.21327757 C17.5913834,2.27193689 17.7180635,2.37448581 17.7765376,2.46176149 C17.8745168,2.6064377 17.8899394,2.73953311 17.891259,2.99825514 L17.891259,3.58266649 L17.1981472,3.58266649 L17.1981472,3.21258405 C17.1981472,3.03652216 17.21291,2.77511473 17.0861474,2.63857865 C16.9861064,2.53065892 16.8318799,2.50607068 16.5789321,2.50607068 L15.8388925,2.50607068 L15.8388925,3.58266649 L15.1465229,3.58266649 L15.1465229,0.638371216 L16.741241,0.638371216 C17.0928278,0.638371216 17.3478376,0.654147973 17.5738989,0.779690676 C17.7913005,0.911443378 17.9274651,1.0978273 17.9274651,1.43224419 C17.9274651,1.89984041 17.6202493,2.14026811 17.4382291,2.21327757 L17.4382291,2.21327757 Z M17.0203331,1.84940514 C16.9297766,1.903365 16.8137357,1.90940716 16.6802102,1.90940716 L15.8388925,1.90940716 L15.8388925,1.24938486 L16.6929112,1.24938486 C16.8137357,1.24938486 16.9391787,1.25148284 17.0203331,1.30057541 C17.1096525,1.34899662 17.1639204,1.43778284 17.1639204,1.56542351 C17.1639204,1.69239284 17.1096525,1.79275986 17.0203331,1.84940514 L17.0203331,1.84940514 Z M23.2571852,2.03025041 C23.3953292,2.17232514 23.4664218,2.3518277 23.4664218,2.65284486 C23.4664218,3.28844676 23.0760722,3.58266649 22.3802387,3.58266649 L21.0324479,3.58266649 L21.0324479,2.95050527 L22.3742181,2.95050527 C22.5070838,2.95050527 22.5983825,2.93338581 22.6566917,2.87816716 C22.7037019,2.83377405 22.7385059,2.76890473 22.7385059,2.68767122 C22.7385059,2.60106689 22.7030421,2.53065892 22.6546298,2.49180446 C22.6002794,2.44531338 22.5292693,2.42827784 22.4085273,2.42550851 C21.7616834,2.40234689 20.952613,2.44531338 20.952613,1.51423297 C20.952613,1.08893189 21.2162825,0.638371216 21.9401572,0.638371216 L23.3255562,0.638371216 L23.3255562,1.2650777 L22.0601569,1.2650777 C21.9314974,1.2650777 21.8502605,1.27120378 21.7805699,1.31761095 C21.7053536,1.36536081 21.6778897,1.43778284 21.6778897,1.52984189 C21.6778897,1.64178973 21.7429618,1.71765243 21.829477,1.75038081 C21.9019717,1.77564041 21.9784252,1.78252176 22.0958682,1.78453581 L22.4701354,1.79275986 C22.8466294,1.80366932 23.1008144,1.86912608 23.2571852,2.03025041 L23.2571852,2.03025041 Z M26.017344,3.20452784 C25.8475299,3.45703986 25.5208502,3.58266649 25.0787069,3.58266649 L23.7429573,3.58266649 L23.7429573,2.95050527 L25.0726863,2.95050527 C25.2047272,2.95050527 25.2968507,2.93338581 25.3531805,2.87816716 C25.4001082,2.83377405 25.4355721,2.76890473 25.4355721,2.68767122 C25.4355721,2.60106689 25.4001082,2.53065892 25.3511187,2.49180446 C25.2980054,2.44531338 25.2269952,2.42827784 25.1075728,2.42550851 C24.4587495,2.40234689 23.6490194,2.44531338 23.6490194,1.51423297 C23.6490194,1.08893189 23.915328,0.638371216 24.6392852,0.638371216 L26.017344,0.638371216 L26.017344,0.0539598649 L24.7370994,0.0539598649 C24.3501312,0.0539598649 24.069637,0.146186757 23.8716993,0.293716216 L23.8716993,0.0539598649 L21.9784252,0.0539598649 C21.6778897,0.0539598649 21.3229215,0.13041 21.1531899,0.293716216 L21.1551693,0.0539598649 L17.7730737,0.0539598649 L17.7730737,0.293716216 C17.5041259,0.0976816216 17.0512609,0.0539598649 16.8419418,0.0539598649 L14.6144828,0.0539598649 L14.6144828,0.293716216 C14.3984008,0.0854294595 13.9281338,0.0539598649 13.6389799,0.0539598649 L11.1438102,0.0539598649 L10.5721826,0.682764324 L10.038493,0.0539598649 L6.31157354,0.0539598649 L6.31157354,4.16095176 L9.96707053,4.16095176 L10.5567599,3.52266446 L11.1113154,4.16095176 L13.3645887,4.16153919 L13.3645887,3.19554851 L13.5872686,3.19554851 C13.8839278,3.19898919 14.2393909,3.18950635 14.5493283,3.05422905 L14.5493283,4.16095176 L16.4092005,4.16095176 L16.4092005,3.09039811 L16.4977776,3.09039811 C16.6131588,3.09039811 16.6245402,3.09652419 16.6245402,3.21065392 L16.6245402,4.16095176 L22.2730224,4.16095176 C22.6293103,4.16095176 23.0022579,4.06746608 23.2114946,3.8981177 L23.2114946,4.16095176 L25.003573,4.16095176 C25.3773454,4.16095176 25.7401487,4.10908986 26.017344,3.97179851 L26.017344,3.20452784 Z M26.017344,1.2650777 L24.7553262,1.2650777 C24.6292234,1.2650777 24.5459246,1.27120378 24.4768113,1.31761095 C24.4058012,1.36536081 24.3755332,1.43778284 24.3755332,1.52984189 C24.3755332,1.64178973 24.4373063,1.71765243 24.528605,1.75038081 C24.5996152,1.77564041 24.6774707,1.78252176 24.7935941,1.78453581 L25.1672015,1.79275986 C25.5456749,1.80366932 25.797963,1.86912608 25.9542513,2.03025041 C25.979076,2.05148189 25.9985399,2.07942689 26.017344,2.10477041 L26.017344,1.2650777 L26.017344,1.2650777 Z" id="Fill-5" fill="#FFFFFF" mask="url(#mask-6)"></path>
                    <path d="M0.805441501,11.188322 L0.702761317,11.188322 C0.689318048,11.1466143 0.686678879,11.0688215 0.686678879,11.0490166 C0.686678879,11.0086516 0.6805758,10.9704685 0.609895545,10.9704685 L0.457483515,10.9704685 L0.458225781,11.188322 L0.367256912,11.188322 L0.367256912,10.6558565 L0.609895545,10.6558565 C0.693359277,10.6558565 0.786225049,10.6878296 0.786225049,10.8066588 C0.786225049,10.8735422 0.757524082,10.9035851 0.729235485,10.9260754 C0.753482854,10.9398381 0.77360652,10.961657 0.776905482,11.0210716 L0.779544651,11.1144734 C0.78094671,11.1405722 0.783585879,11.1451877 0.805441501,11.1582791 L0.805441501,11.188322 Z M0.692699484,10.8114422 C0.692699484,10.7452301 0.648081027,10.7391041 0.614596566,10.7391041 L0.457483515,10.7391041 L0.457483515,10.8864657 L0.603132674,10.8864657 C0.650802671,10.8864657 0.692699484,10.8763115 0.692699484,10.8114422 L0.692699484,10.8114422 Z M1.12205935,10.9274181 C1.12205935,10.6141488 0.871833105,10.3594549 0.561813179,10.3594549 C0.2519582,10.3594549 0,10.6141488 0,10.9274181 C0,11.2428693 0.2519582,11.4968919 0.561813179,11.4968919 C0.871833105,11.4968919 1.12205935,11.2428693 1.12205935,10.9274181 L1.12205935,10.9274181 Z M1.03785335,10.9274181 C1.03785335,11.1964622 0.834884734,11.4136443 0.561813179,11.4136443 C0.287834409,11.4136443 0.0861853746,11.1964622 0.0861853746,10.9274181 C0.0861853746,10.6612273 0.287092142,10.4434577 0.561813179,10.4434577 C0.836864111,10.4434577 1.03785335,10.6612273 1.03785335,10.9274181 L1.03785335,10.9274181 Z" id="Fill-7" fill="#2071AC" mask="url(#mask-6)"></path>
                </g>
            </g>
        </g>
    </g>
</svg>