<?xml version="1.0" encoding="UTF-8"?>
<svg width="56px" height="36px" viewBox="0 0 56 36" version="1.1" xmlns="http://www.w3.org/2000/svg" xmlns:xlink="http://www.w3.org/1999/xlink">
    <!-- Generator: Sketch 46.2 (44496) - http://www.bohemiancoding.com/sketch -->
    <title>PM/Android Pay</title>
    <desc>Created with Sketch.</desc>
    <defs>
        <polygon id="path-1" points="0.0029296875 32.3529412 0.0029296875 0 50 0 50 32.3529412"></polygon>
    </defs>
    <g id="Page-1" stroke="none" stroke-width="1" fill="none" fill-rule="evenodd">
        <g id="PM/Android-Pay">
            <path d="M0,3.75075247 C0,1.67926908 1.67596877,0 3.75035585,0 L52.2496442,0 C54.3209085,0 56,1.68806916 56,3.75075247 L56,32.2492475 C56,34.3207309 54.3240312,36 52.2496442,36 L3.75035585,36 C1.67909151,36 0,34.3119308 0,32.2492475 L0,3.75075247 Z" id="Rectangle-2" fill="#000000" fill-rule="nonzero"></path>
            <path d="M1.25,3.75075247 L1.25,32.2492475 C1.25,33.6250965 2.37296468,34.75 3.75035585,34.75 L52.2496442,34.75 C53.6324061,34.75 54.75,33.6316447 54.75,32.2492475 L54.75,3.75075247 C54.75,2.37490355 53.6270353,1.25 52.2496442,1.25 L3.75035585,1.25 C2.36759386,1.25 1.25,2.36835527 1.25,3.75075247 Z" id="Path" fill="#FFFFFF"></path>
            <g id="android_pay_horizontal" transform="translate(3.000000, 2.000000)">
                <g id="Group-3">
                    <mask id="mask-2" fill="white">
                        <use xlink:href="#path-1"></use>
                    </mask>
                    <g id="Clip-2"></g>
                    <path d="M46.875,32.3529412 L3.125,32.3529412 C1.39912109,32.3529412 0,30.9397687 0,29.1965567 L0,3.15638451 C0,1.41317253 1.39912109,0 3.125,0 L46.875,0 C48.6008789,0 50,1.41317253 50,3.15638451 L50,29.1965567 C50,30.9397687 48.6008789,32.3529412 46.875,32.3529412" id="Fill-1" fill="#FFFFFF" mask="url(#mask-2)"></path>
                </g>
                <path d="M7.94233398,12.9707183 L7.89350586,12.9707183 L7.89350586,19.5122758 C7.89350586,20.0580344 8.3355957,20.5046135 8.87602539,20.5046135 L9.72314453,20.5046135 L9.72314453,22.7845588 C9.72333984,23.3323888 10.1631348,23.776502 10.7056152,23.776502 C11.2480957,23.776502 11.6878906,23.3323888 11.6880371,22.7845588 L11.6880371,20.5046135 L13.0117676,20.5046135 L13.0117676,22.7845588 C13.0120605,23.3323888 13.4518066,23.776502 13.9942871,23.776502 C14.5368164,23.776502 14.9765137,23.3323888 14.9767578,22.7845588 L14.9767578,20.5046135 L15.8023926,20.5046135 C16.3427246,20.5046135 16.7848145,20.0580344 16.7848145,19.5122758 L16.7848145,12.9707183 L7.94233398,12.9707183 Z M9.89941406,10.6139347 C9.89941406,10.846866 10.0863281,11.0357066 10.3168945,11.0357066 C10.5475098,11.0357066 10.7345215,10.846866 10.7345215,10.6139347 C10.7345215,10.3810034 10.5475098,10.1922122 10.3168945,10.1922122 C10.0863281,10.1922122 9.89941406,10.3810034 9.89941406,10.6139347 Z M13.9438965,10.6139347 C13.9438965,10.846866 14.1309082,11.0357066 14.3614746,11.0357066 C14.5919922,11.0357066 14.7790039,10.846866 14.7790039,10.6139347 C14.7790039,10.3810034 14.5919922,10.1922122 14.3614746,10.1922122 C14.1309082,10.1922122 13.9438965,10.3810034 13.9438965,10.6139347 Z M7.90458984,12.6234173 C7.90288086,12.5782416 7.90175781,12.5329179 7.90175781,12.4873476 C7.90175781,12.183151 7.93969727,11.886944 8.01123047,11.6022283 C8.28701172,10.5048915 9.06455078,9.57883788 10.1155762,9.02898583 L9.43374023,7.75854107 C9.39165039,7.68022328 9.42045898,7.58232604 9.49799805,7.53991212 C9.57548828,7.49739957 9.67241211,7.52654681 9.7144043,7.60481528 L10.4042969,8.89030219 C10.9912598,8.63330344 11.6506348,8.48904681 12.3473145,8.48904681 C13.0389648,8.48904681 13.693457,8.63128138 14.2770996,8.88467988 L14.963916,7.60481528 C15.0060059,7.52654681 15.102832,7.49739957 15.1804199,7.53991212 C15.2579102,7.58232604 15.2866699,7.68022328 15.2446777,7.75854107 L14.5663574,9.02227852 C15.6689941,9.59466912 16.4727539,10.5803981 16.7160156,11.7440683 C16.7435547,11.8756008 16.7638184,12.0093526 16.7766602,12.1450771 L16.7766602,12.6234173 L7.90458984,12.6234173 Z M19.0965332,13.7894055 C19.0963379,13.2415262 18.656543,12.7974623 18.1140625,12.7974623 C17.571582,12.7974623 17.1317871,13.2415262 17.1316406,13.7894055 L17.1316406,17.9575592 C17.1317871,18.5054385 17.571582,18.9495516 18.1140625,18.9495516 C18.656543,18.9495516 19.0963379,18.5054385 19.0965332,17.9575592 L19.0965332,13.7894055 Z M7.54155273,13.7894055 L7.54155273,17.9575592 C7.54125977,18.5054385 7.10146484,18.9495516 6.55898438,18.9495516 C6.01650391,18.9495516 5.57680664,18.5054385 5.5765625,17.9575592 L5.5765625,13.7894055 C5.57680664,13.2415262 6.01650391,12.7974623 6.55898438,12.7974623 C7.10146484,12.7974623 7.54125977,13.2415262 7.54155273,13.7894055 L7.54155273,13.7894055 Z" id="Fill-4" fill="#78C257"></path>
                <path d="M45.3959473,12.4145041 L44.1251953,12.4145041 L41.3656738,19.090208 L41.9295898,19.090208 L39.1775879,12.4220992 L37.8692383,12.4220992 L40.9896973,19.735738 L40.7416016,20.3053668 C40.4633789,20.9357066 39.9370117,21.2091284 39.433252,21.2091284 L39.0196777,21.2091284 L39.0196777,22.3559317 L39.4182129,22.3559317 C40.5385742,22.3559317 41.4258301,21.7483277 41.8995117,20.5939293 L45.3959473,12.4145041 Z M37.1925293,20.0167548 L37.1925293,12.4220992 L36.0646484,12.4220992 L36.0646484,13.2878856 C35.4330566,12.6499014 34.5608398,12.2701982 33.5683105,12.2701982 C31.4178223,12.2701982 29.7260254,14.0321512 29.7260254,16.211832 C29.7260254,18.3991078 31.4178223,20.1686558 33.5683105,20.1686558 C34.5608398,20.1686558 35.4330566,19.7813083 36.0646484,19.1509684 L36.0646484,20.0167548 L37.1925293,20.0167548 Z M33.6510254,19.0598278 C32.1095703,19.0598278 30.8614258,17.7839087 30.8614258,16.211832 C30.8614258,14.6473009 32.1095703,13.3714311 33.6510254,13.3714311 C34.6134766,13.3714311 35.523291,13.8270848 35.9894531,14.6093257 C36.0120117,14.654896 36.0646484,14.7308465 36.0646484,14.8599623 L36.0646484,17.5560572 C36.0571289,17.6927681 36.0120117,17.7763137 35.9819336,17.8142889 C35.4781738,18.5737446 34.6134766,19.0598278 33.6510254,19.0598278 Z M22.6279297,22.2951713 L22.6279297,19.1509684 C23.2595215,19.7889033 24.1317871,20.1762509 25.1242676,20.1762509 C27.2672363,20.1762509 28.9666016,18.4067028 28.9666016,16.2270221 C28.9666016,14.0397462 27.2672363,12.2701982 25.1242676,12.2701982 C24.1317871,12.2701982 23.2595215,12.6574964 22.6279297,13.2878856 L22.6279297,12.4220992 L21.5000488,12.4220992 L21.5000488,22.2951713 L22.6279297,22.2951713 Z M25.0416016,19.0674229 C24.0791504,19.0674229 23.1843262,18.6041248 22.703125,17.829479 C22.6730469,17.7839087 22.6279297,17.7079582 22.6279297,17.5788424 L22.6279297,14.8523673 C22.6354492,14.7232514 22.6805664,14.6397059 22.7106445,14.6017306 C23.2144043,13.8422749 24.0791504,13.3790262 25.0416016,13.3790262 C26.5754883,13.3790262 27.8236816,14.654896 27.8236816,16.2270221 C27.8236816,17.7915038 26.5754883,19.0674229 25.0416016,19.0674229 L25.0416016,19.0674229 Z" id="Fill-5" fill="#757575"></path>
            </g>
        </g>
    </g>
</svg>