<?xml version="1.0" encoding="UTF-8"?>
<svg width="56px" height="36px" viewBox="0 0 56 36" version="1.1" xmlns="http://www.w3.org/2000/svg" xmlns:xlink="http://www.w3.org/1999/xlink">
    <!-- Generator: Sketch 61.2 (89653) - https://sketch.com -->
    <title>PM/Apple Pay</title>
    <desc>Created with Sketch.</desc>
    <g id="PM/Apple-Pay" stroke="none" stroke-width="1" fill="none" fill-rule="evenodd">
        <g id="Group-2">
            <g id="Group">
                <path d="M0,3.75075247 C0,1.67926908 1.67596877,0 3.75035585,0 L52.2496442,0 C54.3209085,0 56,1.68806916 56,3.75075247 L56,32.2492475 C56,34.3207309 54.3240312,36 52.2496442,36 L3.75035585,36 C1.67909151,36 0,34.3119308 0,32.2492475 L0,3.75075247 Z" id="Rectangle-2" fill="#000000" fill-rule="nonzero"></path>
                <path d="M1.25,3.75075247 L1.25,32.2492475 C1.25,33.6250965 2.37296468,34.75 3.75035585,34.75 L52.2496442,34.75 C53.6324061,34.75 54.75,33.6316447 54.75,32.2492475 L54.75,3.75075247 C54.75,2.37490355 53.6270353,1.25 52.2496442,1.25 L3.75035585,1.25 C2.36759386,1.25 1.25,2.36835527 1.25,3.75075247 Z" id="Path" fill="#FFFFFF"></path>
            </g>
            <g id="Apple_Pay_Payment_Mark" transform="translate(10.000000, 10.000000)" fill="#1A1919">
                <path d="M6.69482024,3.04500858 C7.09673639,2.53927959 7.36926072,1.86007547 7.29740819,1.16617496 C6.70941976,1.19556775 5.99175325,1.55663808 5.57638265,2.0629434 C5.20337928,2.49634305 4.87331566,3.20378731 4.95919518,3.86858319 C5.61932241,3.92621612 6.27887711,3.5366175 6.69482024,3.04500858" id="Fill-5"></path>
                <path d="M7.28967904,3.99854545 C6.33126361,3.94091252 5.51626699,4.54605832 5.05852916,4.54605832 C4.60050506,4.54605832 3.89944193,4.02736192 3.14112578,4.04148199 C2.15437012,4.05589022 1.23889446,4.61752316 0.737930602,5.51083362 C-0.292051084,7.29803087 0.46626506,9.94885763 1.46790651,11.4040892 C1.95427084,12.1242127 2.54054169,12.9169537 3.31288482,12.8887136 C4.04257446,12.8598971 4.32883952,12.4129537 5.21568867,12.4129537 C6.10225157,12.4129537 6.35989012,12.8887136 7.13251952,12.8743053 C7.93348916,12.8598971 8.43445301,12.1538937 8.92081735,11.4329057 C9.47874795,10.6122127 9.70718747,9.81975986 9.72178699,9.776247 C9.70718747,9.7615506 8.17681446,9.17081304 8.16278747,7.39860034 C8.14818795,5.91455232 9.36424193,5.20883705 9.42149494,5.16503602 C8.73474506,4.14262779 7.66182361,4.02736192 7.28967904,3.99854545" id="Fill-6"></path>
                <path d="M14.4883865,7.69800343 L16.4006371,7.69800343 C17.8517147,7.69800343 18.6775894,6.91160206 18.6775894,5.54829503 C18.6775894,4.18527616 17.8517147,3.4060789 16.40808,3.4060789 L14.4883865,3.4060789 L14.4883865,7.69800343 Z M16.8472106,1.9903259 C18.9306477,1.9903259 20.3817253,3.43604803 20.3817253,5.54080274 C20.3817253,7.65304974 18.9008761,9.10626415 16.7951104,9.10626415 L14.4883865,9.10626415 L14.4883865,12.7990943 L12.8217513,12.7990943 L12.8217513,1.9903259 L16.8472106,1.9903259 L16.8472106,1.9903259 Z" id="Fill-7"></path>
                <path d="M25.854827,9.86298456 L25.854827,9.25610978 L24.0021195,9.37598628 C22.960401,9.44341681 22.4173561,9.83272727 22.4173561,10.5145249 C22.4173561,11.1735575 22.9827296,11.6006175 23.8681475,11.6006175 C24.9991807,11.6006175 25.854827,10.8738662 25.854827,9.86298456 Z M20.795092,10.5594786 C20.795092,9.17369468 21.8442535,8.37980103 23.7788328,8.25992453 L25.854827,8.13255575 L25.854827,7.53346141 C25.854827,6.65686449 25.2820106,6.17764666 24.2626207,6.17764666 C23.421574,6.17764666 22.8115431,6.61191081 22.685014,7.27872384 L21.1818361,7.27872384 C21.2267798,5.8779554 22.5361561,4.85929331 24.3072781,4.85929331 C26.2120858,4.85929331 27.4547624,5.86297084 27.4547624,7.42107719 L27.4547624,12.7990943 L25.9143701,12.7990943 L25.9143701,11.5032178 L25.8771557,11.5032178 C25.4383113,12.3495575 24.4707354,12.8812213 23.421574,12.8812213 C21.8740251,12.8812213 20.795092,11.9527547 20.795092,10.5594786 L20.795092,10.5594786 Z" id="Fill-8"></path>
                <path d="M28.8709157,15.6902504 L28.8709157,14.3946621 C28.9751161,14.4093585 29.2278882,14.4243431 29.3618602,14.4243431 C30.0984202,14.4243431 30.5152222,14.1099554 30.7682805,13.300789 L30.9171383,12.8215712 L28.0968549,4.95669297 L29.837919,4.95669297 L31.8025561,11.3383877 L31.8397706,11.3383877 L33.8041214,4.95669297 L35.5008145,4.95669297 L32.5763306,13.2186621 C31.9067566,15.1136329 31.1401388,15.7354923 29.518161,15.7354923 C29.3916318,15.7354923 28.9822728,15.7205077 28.8709157,15.6902504" id="Fill-9"></path>
            </g>
        </g>
    </g>
</svg>