<svg width="56" height="36" viewBox="0 0 56 36" version="1.1" xmlns="http://www.w3.org/2000/svg"><defs><linearGradient x1="100%" y1="50%" x2="0%" y2="50%" id="a"><stop stop-color="#D00" offset="0%"/><stop stop-color="#A00B01" offset="100%"/></linearGradient></defs><g fill="none" fill-rule="evenodd"><path d="M0 3.75A3.75 3.75 0 0 1 3.75 0h48.5A3.76 3.76 0 0 1 56 3.75v28.5A3.75 3.75 0 0 1 52.25 36H3.75A3.76 3.76 0 0 1 0 32.25V3.75z" fill="#000" fill-rule="nonzero"/><path d="M1.25 3.75v28.5a2.5 2.5 0 0 0 2.5 2.5h48.5a2.5 2.5 0 0 0 2.5-2.5V3.75a2.5 2.5 0 0 0-2.5-2.5H3.75a2.5 2.5 0 0 0-2.5 2.5z" fill="#FFF"/><g><path d="M.75 0h11.3c.4 0 .74.34.74.75v4.59c0 .42-.34.76-.76.76H.75A.75.75 0 0 1 0 5.35V.75C0 .34.34 0 .75 0z" fill="url(#a)" transform="translate(33 21)"/><path d="M35.07 25.68a1.49 1.49 0 0 1-.59-.65c-.13-.28-.2-.6-.2-.98s.07-.7.2-.99c.14-.27.34-.49.59-.64.25-.15.55-.22.9-.22.24 0 .46.04.67.11.21.08.39.2.53.34l-.18.39a1.48 1.48 0 0 0-1.02-.4c-.37 0-.65.12-.86.37-.2.24-.3.59-.3 1.04 0 .45.1.8.3 1.04.2.25.49.37.86.37a1.48 1.48 0 0 0 1.02-.4l.18.4c-.14.14-.32.25-.53.33a1.94 1.94 0 0 1-1.57-.11zm4.4-2.14c.16.17.24.43.24.77v1.55h-.49v-.41a.72.72 0 0 1-.28.33.99.99 0 0 1-.89.02.77.77 0 0 1-.31-.28.73.73 0 0 1-.12-.4c0-.18.05-.33.14-.43.1-.1.25-.18.46-.23.21-.04.5-.06.88-.06h.12v-.15c0-.2-.04-.33-.12-.42-.08-.08-.2-.13-.39-.13-.28 0-.56.1-.84.27l-.15-.37c.13-.1.3-.17.48-.22.19-.06.37-.09.54-.09.33 0 .57.09.73.25zm-.43 1.78a.7.7 0 0 0 .18-.5v-.13h-.1c-.26 0-.46.01-.6.04a.59.59 0 0 0-.3.12c-.06.05-.1.14-.1.24 0 .12.05.22.14.3.08.08.2.12.33.12.18 0 .33-.06.45-.19zm2.87-1.59l-.3.03c-.25.02-.43.1-.53.23a.73.73 0 0 0-.16.48v1.4h-.51v-2.52h.5v.44c.13-.3.4-.46.8-.49h.16l.04.43zm2.57-1.49v3.62h-.5v-.43a.79.79 0 0 1-.33.35.97.97 0 0 1-.49.12c-.21 0-.4-.06-.57-.17-.16-.1-.3-.26-.39-.46a1.6 1.6 0 0 1-.13-.68c0-.26.04-.49.13-.69.1-.2.23-.34.4-.45.16-.1.35-.16.56-.16.19 0 .35.04.49.12.14.08.25.2.32.35v-1.52h.5zm-.69 3.02c.12-.16.18-.38.18-.66 0-.29-.06-.5-.18-.66a.61.61 0 0 0-.5-.23c-.23 0-.4.08-.53.23-.12.15-.18.37-.18.65s.06.5.19.66c.12.16.3.24.51.24.22 0 .4-.08.51-.23z" fill="#FFF"/><g fill-rule="nonzero"><path d="M8.46 11.23h2.09c3.38-3.3 7.33-3.38 11.8-.2-4.41-4.1-9.05-4-13.9.2z" fill="#A60D14"/><path d="M7.14 10.2H6.11L3 19.47h.84l1-3.1h3.53l1 3.1h.86l-3.1-9.25zm.97 5.24H5.16l1.46-4.55 1.5 4.55zm6.5-1.99c.27.12.55.26.81.46l.34-.49a3.67 3.67 0 0 0-.97-.54 3.6 3.6 0 0 0-1.15-.17c-.43 0-.8.09-1.12.23-.34.14-.6.37-.8.6-.2.25-.28.54-.28.88 0 .46.14.83.45 1.11.32.29.8.51 1.52.71.46.12.8.23 1.06.37.26.15.43.29.55.46.11.17.14.4.14.65 0 .4-.17.69-.46.92-.29.2-.69.3-1.17.3a2.65 2.65 0 0 1-1.92-.68l-.44.46c.3.26.64.46 1 .6a3.85 3.85 0 0 0 2.59 0c.34-.14.63-.37.86-.66.23-.28.34-.62.34-1.05 0-.37-.09-.68-.23-.94a1.64 1.64 0 0 0-.69-.63 4.88 4.88 0 0 0-1.2-.42c-.57-.15-1-.32-1.23-.52a.83.83 0 0 1-.38-.74c0-.34.15-.6.4-.8.26-.2.64-.28 1.07-.28.32.03.63.09.92.17zm4.02-2.24l-.72.08v1.56h-1.12v.57h1.12v4.38c0 .57.14 1 .43 1.29.29.28.66.42 1.17.42.26 0 .52-.03.75-.11.23-.06.43-.17.66-.29l-.29-.5c-.14.08-.31.16-.48.22-.18.06-.35.09-.52.09-.34 0-.57-.09-.75-.29-.17-.2-.23-.48-.23-.85v-4.36h1.64l.08-.57h-1.72v-1.64h-.02zm4.2 1.64h-.65v6.55h.74v-3.98c.09-.35.2-.63.32-.89.11-.25.23-.45.37-.62.29-.35.66-.52 1.1-.52.1 0 .2 0 .3.03.1 0 .18.03.26.06l.15-.68-.29-.09h-.37c-.46 0-.83.14-1.15.4-.31.26-.54.68-.72 1.22l-.05-1.48zm6.48-.14c-.66 0-1.23.14-1.72.43a2.4 2.4 0 0 0-1.09 1.17 3.98 3.98 0 0 0-.37 1.82c0 .7.14 1.3.37 1.82.26.51.63.9 1.1 1.16.45.26 1.02.4 1.7.43.67 0 1.24-.14 1.73-.43.48-.28.83-.68 1.09-1.2.25-.5.4-1.1.4-1.81a3.72 3.72 0 0 0-.86-2.5 3.18 3.18 0 0 0-2.35-.89zm-1.72 1.31c.4-.45.98-.7 1.69-.7s1.29.22 1.69.7c.4.46.6 1.17.6 2.08 0 .94-.2 1.65-.63 2.13-.4.46-.97.69-1.69.69-.74 0-1.29-.23-1.69-.72a3.1 3.1 0 0 1-.63-2.07c.06-.94.26-1.65.66-2.1z" fill="#131313"/><path d="M39.56 14.5s.03-.02 0 0c.32-.42.46-.96.46-1.61 0-.92-.31-1.57-.92-2.02a4.34 4.34 0 0 0-2.52-.63h-2.17v9.13h.83v-3.75h1.34c.5 0 .92-.06 1.32-.15.17-.02.32-.08.49-.14.49-.17.89-.45 1.17-.82zm-1.03 0a2 2 0 0 1-.6.32c-.4.14-.83.2-1.37.17h-1.32v-4.13h1.34c.83 0 1.46.15 1.92.46.43.31.66.83.66 1.53 0 .55-.11.97-.34 1.29-.06.14-.17.25-.29.37zm6.19-.82c.23.26.34.63.34 1.17v.62H43.8a4 4 0 0 0-.86.09 2.8 2.8 0 0 0-1.14.48c-.5.37-.75.89-.75 1.57 0 .6.2 1.08.55 1.42.37.34.86.54 1.51.54.43 0 .83-.09 1.2-.28.32-.18.58-.4.78-.69l.09-.14v.97h.66c0-.91-.03-1.4-.03-1.48v-3.16c0-.68-.18-1.2-.52-1.53-.34-.37-.89-.55-1.63-.55-.34 0-.69.03-1.03.12-.35.06-.7.17-1.03.31l.17.57c.31-.11.63-.23.94-.28.29-.06.58-.12.83-.12.52 0 .92.11 1.18.37zm-2.87 3.87c0-.51.18-.91.52-1.17.17-.14.4-.22.66-.28.26-.06.54-.12.89-.12h1.14v1.8l-.25.42a.4.4 0 0 0-.09.12c-.11.14-.26.25-.4.37-.29.2-.66.28-1.06.28-.43 0-.78-.11-1-.37-.3-.25-.4-.6-.4-1.05zM53 12.85h-.78l-1.95 6-1.97-6h-.8l2.43 6.86c-.11.26-.2.46-.32.66a1.8 1.8 0 0 1-.6.62c-.26.17-.6.31-1.03.43l.09.57c.54-.12.97-.26 1.32-.49.34-.22.6-.48.83-.82.2-.34.4-.74.54-1.23l2.24-6.6z" fill="#787878"/><path d="M51.98 12.78c.04-.1.13-.18.24-.18H53c.17 0 .29.17.23.34L51 19.52c-.13.46-.32.86-.58 1.3-.24.37-.52.65-.9.9-.35.23-.79.38-1.4.51a.25.25 0 0 1-.3-.2l-.09-.57a.25.25 0 0 1 .19-.28c.4-.11.72-.24.95-.4.24-.15.4-.33.53-.54a3.83 3.83 0 0 0 .26-.54l-2.4-6.76a.25.25 0 0 1 .24-.34h.8c.1 0 .2.07.24.18l1.73 5.27 1.71-5.27zm.42.32l-1.89 5.84a.25.25 0 0 1-.47 0l-1.92-5.84h-.27l2.32 6.53-.01.18a18.94 18.94 0 0 1-.33.68c-.16.28-.38.51-.68.71-.24.16-.53.29-.89.4l.01.08A2.6 2.6 0 0 0 50 20.55c.23-.4.4-.76.52-1.18l2.13-6.27h-.25zm-7.61 1.75c0-.48-.1-.8-.28-1-.17-.19-.5-.29-1-.29a5.3 5.3 0 0 0-1.7.38.25.25 0 0 1-.31-.16l-.17-.57a.25.25 0 0 1 .14-.3c.4-.16.75-.27 1.07-.32.34-.09.7-.13 1.1-.13.8 0 1.41.2 1.8.62.4.39.59.97.59 1.71v3.16l.01.42.02 1.06c0 .14-.11.25-.25.25h-.66a.25.25 0 0 1-.25-.25v-.27a2.56 2.56 0 0 1-1.82.66c-.69 0-1.24-.2-1.69-.61-.4-.4-.62-.95-.62-1.6 0-.75.29-1.34.85-1.77.36-.26.77-.44 1.24-.52.28-.06.58-.1.91-.1h1.02v-.37zm.75 3.54l-.01-.44V14.8c0-.62-.15-1.07-.45-1.36-.29-.31-.76-.47-1.45-.47-.36 0-.67.04-1 .12-.23.04-.48.1-.76.21l.03.1c.32-.11.51-.17.74-.2.44-.1.64-.13.88-.13.62 0 1.08.14 1.36.46.28.3.4.74.4 1.33v.63c0 .14-.1.25-.24.25h-1.27c-.3 0-.56.02-.81.08-.4.07-.74.22-1.04.44a1.6 1.6 0 0 0-.65 1.36c0 .52.17.94.47 1.24.34.31.77.47 1.34.47.4 0 .77-.08 1.09-.25a2 2 0 0 0 .75-.72c.12-.24.48-.15.48.11v.72h.16l-.02-.8zm-5.72-3.82l.02-.1-.04.14.02-.04zm-1.35 1l-.25.08-.27.07c-.45.1-.9.14-1.37.14H35.5l.03 3.5c0 .15-.11.26-.25.26h-.83a.25.25 0 0 1-.25-.25v-9.13-.04c0-.13.11-.24.25-.24h2.2c1.13 0 2.03.22 2.67.68a2.61 2.61 0 0 1 1.02 2.23 3.15 3.15 0 0 1-.55 1.77c-.31.4-.75.71-1.31.93zm-3.78 3.55h.33l-.03-3.5c0-.14.11-.26.25-.26h1.34a6.01 6.01 0 0 0 1.49-.19l.23-.07a2.49 2.49 0 0 0 1.15-.85c.23-.34.35-.8.38-1.4 0-.82-.27-1.4-.81-1.81a4.1 4.1 0 0 0-2.38-.58H34.7v8.66zm0-8.85v-.06h-.25v.25h.25v-.22h-.25v.25a.25.25 0 0 0 .25-.22zm.8 4.72c0 .14-.11.25-.25.25a.25.25 0 0 1-.25-.25v-.03c0-.14.1-.25.25-.25h.25V15zm1.05-.28c.5.03.9-.02 1.27-.15.26-.1.4-.17.52-.26.16-.16.23-.23.29-.31.19-.27.3-.64.3-1.14 0-.62-.2-1.06-.56-1.32-.4-.28-.98-.42-1.78-.42h-1.1v3.6h1.06zm-1.3.25h.25V15h-.25v-.25.25-.03zm-.25.03v-4.13c0-.13.11-.25.25-.25h1.34c.9 0 1.56.16 2.07.5.5.38.76.97.76 1.74 0 .6-.13 1.07-.4 1.44-.07.1-.15.19-.35.38-.18.15-.36.24-.68.36-.44.15-.9.21-1.45.18h-1.3V15H35zm8.93 1.21c-.27 0-.5.04-.84.11a1.3 1.3 0 0 0-.56.24c-.28.2-.42.53-.42.97 0 .43.1.7.31.89.17.19.44.28.82.28.37 0 .7-.08.93-.23.2-.16.29-.23.34-.29a.62.62 0 0 1 .1-.15l.21-.34V16.2h-.9zm-1.86 2.56c-.31-.28-.46-.68-.46-1.24 0-.6.21-1.06.61-1.36.2-.16.45-.27.76-.34.38-.08.63-.12.95-.12h1.14c.14 0 .25.12.25.25v1.8l-.03.12-.36.53.06-.05a.3.3 0 0 0-.02.03l-.05.06c-.1.14-.2.23-.44.41l-.02.02c-.34.22-.76.32-1.22.32-.51 0-.91-.14-1.17-.43z" fill="#787878"/><path d="M29.3 13.56c-.64 0-1.13.2-1.53.63-.37.4-.56 1.04-.56 1.94 0 .83.2 1.5.57 1.91.35.43.82.63 1.5.63.65 0 1.15-.2 1.5-.6.38-.43.57-1.08.57-1.97 0-.86-.19-1.51-.54-1.92-.35-.41-.84-.62-1.5-.62zm0-.5c.8 0 1.45.27 1.89.8.44.5.66 1.27.66 2.24 0 1-.22 1.77-.7 2.3a2.4 2.4 0 0 1-1.87.77c-.82 0-1.43-.26-1.88-.8-.45-.52-.69-1.3-.69-2.24 0-1.02.23-1.78.7-2.28.5-.53 1.11-.79 1.9-.79zm2.54.37c.6.65.9 1.53.93 2.67 0 .73-.15 1.37-.43 1.93a3 3 0 0 1-1.19 1.3 3.6 3.6 0 0 1-1.85.46 4.06 4.06 0 0 1-1.83-.46c-.5-.28-.91-.71-1.2-1.28a4.63 4.63 0 0 1-.4-1.92c0-.76.14-1.4.4-1.92.26-.57.67-1 1.2-1.29.52-.3 1.14-.46 1.84-.46 1.04 0 1.89.33 2.53.97zm-4.13-.07c-.44.23-.77.59-.98 1.06a3.73 3.73 0 0 0-.35 1.7c0 .65.12 1.21.35 1.71.23.47.57.83.98 1.07.42.23.96.36 1.6.4.62 0 1.15-.14 1.6-.4.42-.25.74-.6.98-1.1.25-.49.38-1.05.38-1.7a3.48 3.48 0 0 0-.79-2.33 2.94 2.94 0 0 0-2.17-.8 3.1 3.1 0 0 0-1.6.4zm-4.26-.44a2 2 0 0 1 1.3-.46h.2l.26.01a3.12 3.12 0 0 0 .29.09c.12.04.19.16.16.29l-.14.68a.25.25 0 0 1-.32.19.82.82 0 0 0-.24-.06 1.87 1.87 0 0 0-.26-.02c-.36 0-.66.14-.9.43-.12.14-.22.32-.33.56-.14.31-.23.56-.3.79v3.98c0 .14-.1.25-.25.25h-.74a.25.25 0 0 1-.25-.25v-6.54c0-.14.1-.25.25-.25h.66c.13 0 .24.1.24.24l.02.45c.1-.15.22-.28.35-.38zm-.8 1.43l-.06-1.24h-.16v6.04h.24l.01-3.8c.07-.26.15-.5.27-.77-.14.03-.3-.06-.3-.23zm2.48-1.39a12 12 0 0 1-.18 0h-.2a1.5 1.5 0 0 0-1.36.82l.03-.03a1.62 1.62 0 0 1 1.46-.6l.14.02h.06l.1-.43.24.06-.08.23a3.12 3.12 0 0 0-.21-.07zm-6.26.71v4.1c0 .35.06.56.17.7.12.14.28.2.56.2.14 0 .29-.03.44-.08.14-.04.29-.12.43-.2a.25.25 0 0 1 .34.08l.32.51c.08.13.03.3-.1.36l-.34.17c-.13.06-.25.1-.35.12-.24.1-.51.13-.83.13-.57 0-1-.16-1.35-.5-.34-.33-.5-.82-.5-1.46v-4.13h-.87a.25.25 0 0 1-.25-.25v-.57c0-.13.11-.25.25-.25h.87v-1.3c0-.14.1-.24.22-.26l.71-.08c.15-.02.28.1.28.25v1.4h1.47c.15 0 .27.13.25.28l-.09.57a.25.25 0 0 1-.24.21h-1.39zm1.64 5.26a1.88 1.88 0 0 1-.91.23c-.42 0-.71-.1-.94-.37-.2-.24-.29-.56-.29-1.01v-4.36c0-.13.12-.25.25-.25h1.42l.01-.07h-1.43a.25.25 0 0 1-.25-.25V11.5l-.21.02v1.34c0 .14-.12.25-.25.25h-.87v.07h.87c.13 0 .25.12.25.25v4.38c0 .51.12.88.35 1.1.24.25.56.36 1 .36.26 0 .48-.03.69-.1a1.57 1.57 0 0 0 .36-.15l-.05-.08zm-5.65-6.28c.34.1.65.29 1.05.57.1.08.13.23.05.35l-.31.45a.25.25 0 0 1-.36.06 3.5 3.5 0 0 0-.72-.42 3 3 0 0 0-.85-.13c-.4 0-.7.08-.9.23a.7.7 0 0 0-.3.6c0 .25.08.42.28.56.18.16.57.32 1.12.45.51.12.93.27 1.27.45.36.2.62.43.79.73.17.3.26.66.26 1.06 0 .48-.13.88-.4 1.21-.26.33-.59.57-.97.73a4.1 4.1 0 0 1-2.76 0 3.48 3.48 0 0 1-1.07-.64.25.25 0 0 1-.02-.36l.43-.46c.1-.1.25-.1.35-.01.23.2.5.36.78.46.29.1.6.16.97.16.43 0 .79-.1 1.02-.26.25-.2.37-.42.37-.72 0-.25-.03-.4-.1-.51a1.25 1.25 0 0 0-.46-.38 4.26 4.26 0 0 0-1-.35 3.98 3.98 0 0 1-1.62-.76 1.66 1.66 0 0 1-.55-1.3c0-.4.11-.74.35-1.05.26-.3.55-.52.89-.66a3.48 3.48 0 0 1 2.41-.07zm-.16.47a3 3 0 0 0-2.05.05c-.27.11-.5.29-.7.52-.16.2-.24.44-.24.73 0 .4.13.7.38.93.28.25.73.46 1.41.65.5.13.85.25 1.12.4.3.16.5.32.63.53.14.2.19.45.19.8 0 .45-.2.81-.57 1.11-.34.24-.79.36-1.32.36-.42 0-.8-.06-1.14-.19-.27-.1-.52-.23-.75-.4l-.09.09c.21.15.46.28.73.39a3.61 3.61 0 0 0 2.39 0c.3-.12.55-.32.76-.58.2-.24.29-.53.29-.9 0-.31-.07-.59-.2-.82a1.4 1.4 0 0 0-.59-.53c-.3-.16-.67-.29-1.14-.4a3.32 3.32 0 0 1-1.31-.55 1.08 1.08 0 0 1-.49-.95c0-.4.17-.74.5-1 .3-.22.71-.33 1.21-.33.33 0 .66.06 1.02.17.25.1.46.21.64.33l.03-.04c-.26-.18-.48-.3-.71-.37zM4.09 19.53a.25.25 0 0 1-.24.18h-.83a.25.25 0 0 1-.24-.33l3.1-9.25c.02-.1.12-.17.23-.17h1.03c.1 0 .2.07.24.17l3.12 9.25a.25.25 0 0 1-.24.33H9.4c-.1 0-.2-.07-.23-.17l-.98-2.94H5.03l-.94 2.93zm5.83-.32l-2.96-8.75H6.3L3.36 19.2h.3l.95-2.93c.04-.1.13-.18.24-.18h3.53c.1 0 .2.07.23.18l.98 2.93h.33z" fill="#131313"/></g></g></g></svg>