<?xml version="1.0" encoding="UTF-8"?><svg width="56" height="36" viewBox="0 0 56 36" xmlns="http://www.w3.org/2000/svg"><g fill="none" fill-rule="evenodd"><path d="M0 3.75A3.749 3.749 0 013.75 0h48.5A3.756 3.756 0 0156 3.75v28.5A3.749 3.749 0 0152.25 36H3.75A3.756 3.756 0 010 32.25V3.75z" fill="#000" fill-rule="nonzero"/><path d="M1.25 3.75v28.5c0 1.375 1.123 2.5 2.5 2.5h48.5c1.382 0 2.5-1.118 2.5-2.5V3.75c0-1.375-1.123-2.5-2.5-2.5H3.75a2.499 2.499 0 00-2.5 2.5z" fill="#FFF"/><g><g fill-rule="nonzero"><path d="M7.155 11.42L4 20.66h1.857l.892-2.697h2.56l.919 2.697h1.892l-3.16-9.24H7.155zm1.71 5.01H7.202l.69-2.033c.049-.14.093-.275.132-.415.044.14.087.284.14.428l.7 2.02zM15.337 16.422c-.852-.342-.948-.496-.948-.746 0-.312.262-.51.682-.51.502 0 .891.202 1.08.32l.362.23.48-1.476-.213-.14c-.42-.278-1.05-.44-1.688-.44-1.424 0-2.46.905-2.46 2.156 0 1.146 1.014 1.76 1.862 2.068.848.32.913.536.913.808 0 .51-.533.584-.848.584-.49 0-1.018-.21-1.32-.386l-.363-.215-.476 1.506.232.136c.52.307 1.21.483 1.901.483 1.574 0 2.627-.887 2.627-2.204.009-1.335-1.04-1.88-1.823-2.174zM20.027 12.12l-1.771.54v1.072H17.3v1.546h.956v3.064c0 .855.17 1.466.521 1.869.342.38.864.589 1.46.589.54 0 .925-.11 1.11-.173l.24-.084-.092-1.55-.407.124a1.835 1.835 0 01-.553.062c-.215 0-.504 0-.504-.872v-3.03h1.609v-1.545h-1.609V12.12h-.004zM26.12 13.726l-.335-.04a2.141 2.141 0 00-1.847.606l-.018-.505H22.2l.023.36c.036.528.054 1.134.054 1.912v4.601h1.856v-3.638c0-.172.013-.343.032-.466.135-.712.597-1.156 1.213-1.156.144 0 .24 0 .321.018l.421.088v-1.78z" fill="#323232"/><path d="M29.317 13.66c-2.048 0-3.477 1.485-3.477 3.616 0 2.074 1.385 3.524 3.37 3.524 1.68 0 3.49-1.134 3.49-3.63.004-2.064-1.389-3.51-3.383-3.51zm1.523 3.55c0 1.2-.663 2.07-1.572 2.07-.905 0-1.564-.861-1.564-2.043 0-.765.336-2.057 1.59-2.057 1.224 0 1.546 1.327 1.546 2.03zM38.55 12.085c-.597-.532-1.49-.805-2.662-.805-.782 0-1.524.057-2.205.172l-.283.048v9.16h1.799v-3.405c.186.017.376.022.561.022 1.216 0 2.246-.374 2.895-1.052.509-.519.765-1.219.765-2.08 0-.832-.31-1.563-.87-2.06zm-.929 2.12c0 1.303-1.15 1.497-1.839 1.497-.23 0-.424-.01-.587-.031v-2.794a5.96 5.96 0 01.716-.035c.782 0 1.71.237 1.71 1.364zM44.864 18.84v-2.318c0-1.846-.971-2.862-2.732-2.862-.815 0-1.662.22-2.26.59l-.227.14.49 1.429.375-.25c.379-.251.922-.405 1.462-.405.365-.005.637.079.81.25.148.14.237.356.264.629-1.426.04-2.47.378-3.102.998-.441.43-.664.985-.664 1.64 0 1.05.775 2.119 2.264 2.119.633 0 1.234-.198 1.698-.554l.049.409h1.729l-.058-.387c-.071-.37-.098-.853-.098-1.429zm-3.044.456c-.272 0-.722-.096-.722-.738 0-.246.076-.44.236-.594.214-.206.687-.444 1.743-.466v.739a.852.852 0 01-.036.25c-.129.374-.526.81-1.22.81zM49.81 13.8l-1.316 3.832c-.036.096-.067.196-.098.292-.035-.096-.066-.188-.102-.275L46.86 13.8h-1.98l2.48 6.12.009.018c.04.078.053.126.057.144-.013.034-.04.096-.057.135-.213.453-.536.872-.855 1.124l-.009.01c-.363.3-.735.44-.877.483l-.318.1.465 1.526.296-.052c.182-.03.824-.183 1.56-.79.88-.767 1.465-1.991 2.231-3.98l1.878-4.834h-1.93V13.8z" fill="#323232"/><path d="M10.715 13.826c1.16-1.157 3.126-1.85 5.263-1.85.83 0 1.644.104 2.409.31l.061.017 1.372-.404-.615-.228c-1.17-.439-2.515-.671-3.9-.671-2.005 0-3.878.473-5.276 1.334l-.149.094.576 1.652.26-.254z" fill="red"/></g><path d="M33.386 22.34h10.12c.378 0 .685.307.685.686v4.011a.696.696 0 01-.695.696h-10.11a.686.686 0 01-.686-.686v-4.021c0-.379.307-.686.686-.686z" fill="red"/><path d="M34.559 26.477a1.325 1.325 0 01-.526-.57 1.937 1.937 0 01-.184-.87c0-.334.061-.624.184-.87.122-.248.298-.437.526-.569.228-.132.497-.198.805-.198.218 0 .42.034.608.103.187.068.346.166.476.293l-.163.345a1.523 1.523 0 00-.442-.268 1.35 1.35 0 00-.474-.082c-.333 0-.59.108-.77.323-.18.215-.27.522-.27.922s.09.709.27.925c.18.217.437.325.77.325.169 0 .327-.027.474-.082.146-.054.294-.144.442-.268l.163.346a1.31 1.31 0 01-.476.293c-.188.068-.39.102-.608.102-.308 0-.577-.067-.805-.2zm3.955-1.886c.144.148.216.374.216.677v1.373h-.44v-.368a.636.636 0 01-.256.297.755.755 0 01-.397.102.897.897 0 01-.4-.088.686.686 0 01-.283-.248.643.643 0 01-.102-.354c0-.16.042-.287.125-.38.083-.092.22-.158.412-.197.192-.04.456-.06.792-.06h.104v-.131c0-.17-.035-.293-.106-.368-.071-.076-.187-.114-.347-.114-.251 0-.502.077-.753.232l-.136-.323c.118-.082.26-.148.428-.198.168-.05.33-.075.483-.075.297 0 .517.075.66.223zm-.387 1.57a.618.618 0 00.158-.438v-.119h-.081c-.236 0-.418.011-.545.032a.533.533 0 00-.272.107c-.054.05-.081.122-.081.216 0 .106.038.195.115.266a.42.42 0 00.297.107.533.533 0 00.409-.17zm2.576-1.406l-.277.027c-.217.021-.374.088-.47.2a.637.637 0 00-.142.427v1.232h-.458v-2.218h.444v.386c.118-.26.359-.404.722-.432l.15-.009.031.387zm2.309-1.318v3.204h-.454v-.382a.703.703 0 01-.29.307.885.885 0 01-.44.106.918.918 0 01-.86-.554 1.397 1.397 0 01-.124-.604c0-.23.041-.432.124-.605a.946.946 0 01.347-.4.937.937 0 01.513-.14c.166 0 .312.035.438.106a.712.712 0 01.288.302v-1.34h.458zm-.615 2.667c.108-.136.161-.33.161-.581 0-.252-.053-.446-.16-.582-.108-.136-.262-.205-.461-.205-.2 0-.355.068-.465.203-.11.135-.166.326-.166.575 0 .248.056.443.168.584.112.14.266.21.463.21.2 0 .353-.067.46-.204z" fill="#FFF"/></g></g></svg>