<svg width="56" height="36" xmlns="http://www.w3.org/2000/svg">
    <g fill="none" fill-rule="evenodd">
        <path d="M0 3.75A3.749 3.749 0 013.75 0h48.5A3.756 3.756 0 0156 3.75v28.5A3.749 3.749 0 0152.25 36H3.75A3.756 3.756 0 010 32.25V3.75z"
              fill="#000" fill-rule="nonzero"/>
        <path d="M1.25 3.75v28.5c0 1.375 1.123 2.5 2.5 2.5h48.5c1.382 0 2.5-1.118 2.5-2.5V3.75c0-1.375-1.123-2.5-2.5-2.5H3.75a2.499 2.499 0 00-2.5 2.5z"
              fill="#FFF"/>
        <g fill="#04234D">
            <path d="M46.23 27.36h.034l.033.05-.033.05-.067-.05h.034v-.05zm.05-.045h.029v.078h-.029l-.028-.026a.025.025 0 01.013.029.028.028 0 01-.028.019.028.028 0 01-.027-.02.025.025 0 01.013-.028h.029l.028-.026v-.026zm-.398-.765h.046l.022.023h.067v-.023l.023.023h.023l.022.022.023.045.022.023v.044h-.045v.023h.023l.022.023h.023v.044l.022.023v.023l.113.09.067.044.045.046.068.022.044.022h.023l.045.023h.023l.022-.023h.023v.023h.022v.045l-.023.022h-.022l-.045.023h-.18l-.09-.023h-.135l-.067-.022-.068.022h-.09.112l.023.023h.023v-.023h.18l.022.023h.023v.045l-.023.022h-.023v.023l-.022-.023h-.135v-.022l-.023-.023v-.022l-.022.023h-.023.023l.023.022v.022h.022v.023h.023v.023l.022.044h-.045l-.023-.022h-.044l-.023-.023h-.045v-.045h-.023l-.022-.022-.023.022.023.023v.045l-.023-.023h-.022l-.045-.022v-.023h-.045l-.023-.022v-.023h.023v-.045l.023-.022.067.022-.023-.022h-.022v-.023l-.023.023h-.135l-.157-.045h-.09v-.045h.023l.022-.023v.023h.023l.022-.023h.023L45.544 27H45.5l-.045.023V27l-.023-.023v-.022h-.022l.023-.045h.022l.045.023h.023l.067.022.045.023v.067h-.023.023v-.023h.045-.023V27h-.022v-.067l.023-.023h.022v-.045h.023v-.022h.022v.067l.023.023v.022h-.023l-.023.023h.023l.045.044v.023h.067v-.023h.023l.045.023h.023v.022h.022v-.022h-.023l-.09-.023-.022-.022h-.023l-.022-.045v-.068l.022-.022h.023l.068-.022.022-.023v-.023h-.068l-.045.023h-.044v-.023l-.023-.022v-.022h-.023l.023-.023v-.023h.023l.022-.022-.023-.022-.022-.023v-.023h.067l.023.023h.023l.022-.045.023-.022h.022l-.023-.023zm.568.68h.05v.05h-.1v-.05l.05-.05v.05zm-.883-.095h.045l.045.025h.09l.023.025v.025h-.023v.025h-.044v-.025l-.023.025-.023-.025h-.022l-.045-.05h-.023v.025h-.022v-.025h.023v-.025zm1.26-.012l.09-.033v.033l-.022.034h-.068l-.022.033h-.068v-.033l.045-.034h.046l.09-.033-.09.033zm-1.147-.1h.05l-.05.1h.1l-.05-.1h-.05zm-.697-.428l.022.023.023.022v.023h.044l.045.022.046.023.045.022.044.023v.022h.023l.023.023v.022h.067l.023.023.044.044-.067.068-.045.023h-.023l-.022-.023h.023v-.022h-.023v.022h-.023v.023l-.022-.023h-.022v-.045h-.023v-.023l-.023-.022h-.022l-.023-.022.023-.046h.045l.067.023v-.023h-.067l-.023-.022-.022-.022-.023-.023h-.067l-.045-.023v-.022l-.023-.022h-.022v-.023l.023-.023v-.022zM37.85 9v.045l.608.225h.54v-.068h.292l.045.023h.023l.022.045.045.045.158.112v.023l.022.023.023.022.022.09v.023l.023.045.022.022.09.045.068.045h.044l.046-.045.022-.022v-.023l.022-.023.023-.022v-.023h.18l.023.023h.022l.023.022.09.113.022.022.045.068v.068h.023l.022.022.023.023.022.045v.022h.023v.023h.022l.023.022v.113l.022.022.023.023v.067h.022l.045.023.09.045.09.022h.023l.044.023h.045v.067l-.067.203-.022.112v.248l-.023.067v.068l.023.045.022.022.023.045.022.023v.022l-.023.045.023.068.045.067.068.09.044.045.023.068v.022l.023.045.044.045.023.023h.023l.044.022h.068l.023.023.022.022.023.023v.022h.067l.09-.022.023-.023h.112l.045-.022.023-.023h.135l.022-.022h.023l.022-.023.023-.022h.022l.023-.023.022-.022h.023v-.09h.022v-.023h.023v-.157l.022-.023v-.022l.023-.045.067-.045h.068l.067-.023.157-.045h.09l.068.045.045-.022.023.022h.022v.023h.023v.022h.022v.023l-.023.022v.023l-.022.045-.067.09-.023.022v.09h-.023v.023h-.022.045v.045h-.023v.022h.023v.023l-.023.045-.044.112v.023l-.023.022-.023-.022v-.09l-.022.022v.023l-.023.022h.023l.022.023v.045l-.022.045v.067l-.023.045v.135l-.022.023-.045.067-.023.023v.022h.023v-.022h.023l.067.045.022-.023h.023l.023-.022h.022v.022h.248l.022-.022h.067l.068.022h.135v.023l.023-.023.044.023.023.022.045.023.022.045h.045l.023.022.023.023.022.022v.023l-.023.022v.135l-.022.045-.023.045v.315h-.022v.023h.023v.067l-.023.068v.022l.023.023.067.112.023.045.044.045.023.023.023.022h.022v.023l.023.022v-.022h.022v.045h-.023.023l-.023.022h.068l-.023-.022.023.022.022.023.023.022h.068l.022-.022.135-.068h.023l.044-.045h.023l.023-.022h.09v.022h.09l.067.045.045.023.112.09v.022l.09.068-.022-.023v-.067l.023-.023.067-.022v-.023l.022-.022.023-.023v-.022h.023l.022-.023h.045v-.022h-.023v-.045l.023-.045v-.023l.067-.09.045-.067h.023l.023-.023h.022l.045.023h.045v-.045l.023-.023h.022l.068.023h.045l.022-.023.09-.067.045-.023h.023l.022-.022.023-.045.022-.023.023-.022h.067l.045.022.022.023v.022l-.022.023v.045l-.045.022H45.5l-.023.023v.045l.023.022.023.023v.022-.022h.022v-.023l.067-.022.045-.023.09-.022.045-.023h.045v-.022h-.022v.022h-.023l-.022-.022h-.023v-.09h.023l.045-.023.023.023.022.067.023.045h.112l.045.023.023.022.044.023v.067l.023.023v.022l.045.023.023-.023.157-.022h.135l.023.022.022.045.023.023h.067l.045.022h.023l.044-.022.068-.045h.045-.023l-.022-.023h.045l.225-.022h.157v.045h-.044l-.046.022h-.067l.022.023v.022h.023v.023l.023.022.022.023v-.023h.023l.022.023h.045v-.023l.023.023.022.022h.023v.023h.044l.023.022.023.023v.067h-.023v.045h-.045v.023h-.023v.022H47.3h.068l.022-.022h.135l.023.022h.022v.023h.023l.044.022.068.045.045.045.045.045.023.023v.112h.067l.023.023h.022l.068.067v.023h.022l.022.022.023.023h.045l.09.022h.045v.023h.023v-.023h.022v-.022h.225l.045.022h.023l.022.023h.068l.022.022.023.023h.044l.045.022.045.045.046.045h.022v.023h.023l.022.022v.023h.045l.023.022v.045-.022h.044v.022h.023v.023l.023.022.022.045v.113l.067.135v.067l.023-.022h.023l.022.022v.023l-.023.022h.023l.045.023.022.022v.09l-.022.023-.045.045-.023.022v.023l.023-.023h.045v.045l-.023.023h-.022.09l-.023.022.023-.022h.023l.022.022v.045l.068-.022.067.022.045.023v.045l-.023.022v.045l-.022.023-.022.022-.023.023h.023v.022h-.023v.023h-.045v.022h-.068v.023h-.135l-.022.022h-.023v-.022h-.022l.023.022.022.023.023-.023h.022v-.022h.045l.022.022.023-.022h.023l.022-.023-.023.045.023-.022v-.023h.045l.023-.022v-.023h.022v-.022h.023v.022h.022v-.022h-.022l.022-.045v-.023l.023-.045.022-.022h.135v-.023h.045l.023.023h.022l.045.022.023.023h.067v.022h.023l.022.023.068.022.022.023.022.022v.023-.023h.023v-.022h.023l.022.022.023.023h.022l.023.022v.068h.022v.022h.022v.023h-.022v.022l-.023.045h.023v-.022l.022-.023.023-.022.023.022v.023h.022l.068-.023h.022v-.022h.067l.09.045.023.022h.112l.068.023h.023l.135-.023.067.023.068.022.09.045.135.09.022.023.045.067.067.068h.023l.045.022h.023v.045h.044l.045.023h.136l.067.022.045.045.023.068.067.202v.27l-.022.068-.023.045-.045.09-.045.067-.045.023v.022l-.022.045-.045.045-.023.023-.023.022-.044.023-.023.022-.023.023-.022.022v.023l-.023.022-.022.023v.022l-.023.023v.022l-.044.068-.068.135-.023.022h-.067v.023l-.023.022h-.022v.068h-.023v.067l.023.023v.022l-.023.09v.023l.023.225-.023.067-.022.158v.135l-.023.022-.022.023-.023.022-.022.045v.203l-.023.022v.045l-.044.045-.023.023-.022.09-.045.045-.023.045-.045.045-.023.067v.023l.023.045v.045h-.023v.022h-.022l-.022.023h-.023l-.045.022h-.023v.023l-.022.022v.068l-.023.022h-.18l-.022-.022V19.8v.045h-.023l-.022.023h-.113.045-.09.023l.023.022v.023h-.068v-.023l.022-.022-.022.022h-.045l.023.023v.022h-.045v.023h-.046l-.044.045h.022v.045l-.023.022h-.022v-.045.023h-.023l-.022-.023H50l-.023.023-.112.067-.135.113-.045.045h-.023v.045h-.022v.022l-.023.023h-.022l-.023-.023v.023h-.022l.023.022v.023l-.023.022-.022.023.022.022-.022.023h.022v.067h-.022v.023l.022.112-.022.068h.044v.045l-.022.022v.023h-.022v.112l-.023.045-.023.023-.09.067-.022.045-.045.068-.135.247-.045.068-.045.067h-.023l-.09.09-.067.045v.023l-.023.045-.044.112-.023.045-.045.045-.067.068-.023.022-.045.09-.023.023-.022.022-.022.045-.113.045h-.315l-.09-.045-.023-.022-.022-.023h-.113l-.022-.022-.067-.068v.023l-.023.022v.023l.023.045.044.022.113.068.023.022.022.045v.068l-.023.022v.045l.023.023v.022h.022v.023h.068v.022l.023.023v.067l-.023.023-.023.067-.09.09-.022.068-.023.022-.022.023-.023.022-.067.045-.158.045-.112.045-.203.023-.09.022-.067-.022h-.045l-.023-.023h-.022v.068l.023.022.022.023h-.023l.023.022v.023l-.023.045-.022.045-.023.022v.068l.023.045v.045l-.023.045-.067.022-.045.023h-.18l-.09-.045-.068-.023h-.022v.18l.023.023v.022l-.023.023v.022l.023.023v.022h.022l.023.023h.044v.022h-.022l.022.023h.023v-.023h.023-.023l.023-.022.044-.023.046.023.022.045v.09l-.023.022h-.022v.023h-.068l-.022-.023-.023-.045h-.067v.023h-.023v.022l.046.023h.067l-.023.022-.067.045-.045.023-.023.022v.023l-.022.022v.045l.023.023v.067l-.023.023v.045h-.023l-.022.022v.023l-.022.022h.022v.045l-.022.023H46.4l-.023.022h-.022l-.045.023-.023.022-.044.045-.046.113-.022.045v.022l.023.045.022.045.023.023.044.045.023.022.045.023h.113l.022.045.023.045-.023.045v.022l-.023.023h-.022.023l.022.022v.023l-.023.022v.023l-.022.022-.203.158-.044.045-.023.045v.067l-.022.068v.067l-.023.023-.023.022-.022.023h-.068v.022l-.022.023h-.023l-.022.022-.023.023v.022l-.022.023v.045l-.023.045v.022l.023.023v.045l.023.022v.045h-.023v.023h-.023.023l.023.022.022.023.045.09.023.045v.045l-.113-.045h-.045l-.023.022-.022.045h-.045v.023l-.135.045h-.023v.022l-.044.135v.113l-.045.022h-.046l-.067-.022-.067-.045-.046-.045v-.023.023h-.044l-.023-.023h-.022l-.023-.022v-.023h.023v-.045.023h-.045l-.023-.023-.045-.022-.023-.023.023-.022h.023l.022-.023h.023-.135l-.023-.022v-.045l-.023-.023v-.045h-.022.023l.045.023h.022v-.023l.023-.022v.022h.067l.045-.045h.045v.023h.023v-.045l-.136.067h-.022l-.045-.045-.022-.022h-.023l-.023-.023h-.022v-.022l.023-.023h.022v-.09h-.068l-.022-.022-.045-.023-.023-.022-.022-.045h-.023v-.045h.068v-.045c-.023 0-.023 0 0 0v-.023h.023v-.022.022h.022l.045.045v-.022l-.023-.023h-.022l-.023-.045v-.022l.023-.023v-.022h.068-.023v-.023l-.023-.022v-.068h.023l-.023-.045-.022.068.023.045v.022l-.023.023-.023.022h-.022v-.022h-.023v-.068.023h-.022v.022h-.045l-.023-.022h-.045v-.045h.023v-.023h.023v-.022l-.023-.023v-.022h.023v-.023h.044-.022v-.022l-.023.022h-.044V25.628h.022-.023v-.023l-.022-.045h.023v-.112l.022-.023h.023l.022.023v-.045h.023l.022-.023h-.045v-.022c-.023 0-.023 0 0 0v-.023h.067v.023l.023.022v.023l.023.067v-.045h.044l-.022-.022h-.023v-.068h.068-.023l-.022-.045v-.022l.023-.023.022-.022v-.068h-.023v-.022.022h-.022v.023l-.045-.023h-.023l-.022-.022-.023-.023v-.022l-.022.022h-.023v.023l.023.022-.023.023h-.022l-.023-.023-.022-.022v-.023l.023-.022v-.023l.044-.022.046-.045.022-.023-.023-.045.023-.022.045-.023h.09l.023-.022v-.023l-.023.045h-.09v-.045l.023-.022.022-.045v-.023l.023-.022h.022v.09h.023v-.023h.022-.023v-.045l-.022-.022-.023-.023-.022-.067-.023-.023v-.022l.023-.023v-.022h.068l-.023-.023.023-.022v-.023h.045l.022.023h.023v.045h-.023v.022h-.022v.045-.022l.022-.023.023.023v.022h.022l-.023.023v.022h-.022v-.022.045l.023.045-.023.022v.023l-.022.022.022.023v.022-.022l.023-.023h.022l.045-.022h.023-.068v-.045l.023-.023.044-.022h-.044l-.023-.045v-.023l.023-.022v-.045h.044l-.022-.023v-.09h.023V24.3l.022-.045v-.022h.023v-.113h.022l-.022-.022v-.045h.022l.023-.023.022.023-.023-.045h-.044v-.068h.022v-.022h-.022v-.023l-.023.023h-.023l-.022.022-.023.023h-.067v-.068h-.022v-.022l-.023-.045v-.09l.023-.068.022-.09v-.022l.023-.045.022-.045.023-.023v-.112l-.023-.068-.023-.045v-.18l-.022-.09v-.022l.023-.023h.044l.023-.022v-.045l.023-.023.022-.022v-.045l.023-.045v-.045l.022-.023v-.022h.023v-.09l.044-.045.023-.023.023-.045v-.135l.022-.067.023-.023.022-.022v-.135l.023-.045v-.023l.022-.022-.023-.113v-.067l-.022-.158v-.067l.023-.068v-.022h.022v-.023l.023-.022v-.068l-.023-.067-.023-.023v-.045l.023-.022.023-.023v-.045l.022-.022v-.09l.045-.09v-.09l.023-.113.022-.067v-.135l.022-.045v-.023l.023-.022-.023-.023v-.247l.023-.023v-.022l-.023-.023v-.022l-.022-.023.022-.022v-.023l.023-.022.023-.045v-.023l.022-.27v-.315l-.023-.135v-.067l-.022-.023v-.022l-.023-.023-.135-.112-.022-.023v-.045h-.023l-.607-.36-.023-.022-.067-.068-.068-.067-.067-.09v-.023h-.023v-.067l.023-.023v-.067l-.113-.158-.022-.045-.023-.045-.022-.045v-.022l-.023-.023-.022-.022h-.023v-.068l-.022-.022-.067-.135-.136-.338-.044-.067-.045-.068-.023-.022-.023-.068-.022-.045-.045-.045-.045-.022-.135-.09-.023-.023v-.045l.023-.022h.023v-.045l-.023-.023-.023-.022v-.068l-.022-.045-.023-.022.023-.045.022-.045.045-.045.068-.045.045-.045h.045l.023-.023v-.045l.022-.022v-.135h-.023v.09l-.022-.023v-.022l-.022.045-.023.022-.045-.022-.045-.045-.023-.023v-.022h.023l.023-.023-.023-.022v-.113l-.023-.022.023-.023.023-.022.022-.023h.023v-.045l.022.023-.023-.023v-.045l.023-.022.023-.023.022-.022v-.135l.045-.023.09-.022.067-.045h.023V15.3h-.023v-.022h-.022v-.068h.068v-.09l.044-.045h.046v.023l.022-.045.023-.023v-.022h.022v-.023h.023l.022-.022.045-.09h-.023v-.023h-.022v-.022h-.023v-.045l.023-.045v-.158l-.023-.022v-.023l.023-.022v-.023h.023l-.023-.022-.023-.045V14.4h.023v-.045l-.023-.022-.044-.068-.023-.022-.045-.045-.023-.045-.022-.045v-.045c-.023 0 0 0 0 0h.023v-.068.023l-.023-.023v-.022h-.023v-.023l-.022-.022h-.023l-.022-.023h-.067l-.023.023-.023.022-.067.045h-.022l-.023.023h-.023l.023.022.045.068.023.022v.023l-.023.022h-.045l-.023.023-.022.022h-.045l-.023-.022-.022-.068v-.022.022h-.067l-.023-.022-.023-.023v-.022l-.022-.023h-.045l-.023-.022h-.09l-.022.022v.023h-.023v-.023l-.022-.022-.023-.068h-.022.022v.023h-.044l-.023-.023h-.023v-.112l-.022-.023-.023-.022h-.022l-.067-.023-.023-.022v-.023h-.023v-.022l-.022-.023-.023-.022.023.022-.023.045-.022.023-.023-.023-.022-.022-.045-.023-.023-.022h-.022v-.09l.023-.045-.045-.023h.022l.023-.022-.023-.023-.112-.09-.023-.022-.045-.068-.023-.022-.112-.113v-.022h.045v-.023h-.023v-.022h-.044l-.023.022-.045.023-.045-.023h-.045l-.045-.022h-.045l-.023-.023h-.067l-.023-.022h-.022l-.023-.023h-.022l-.068-.045h-.112l-.068-.022-.044-.023-.09-.067-.293-.293-.113-.022-.022-.023-.067.023-.136.067-.067.023h-.09l-.067-.045h-.113l-.023-.023-.067-.022-.045-.045-.045-.023h-.023l-.044-.022h-.068l-.023-.023-.314-.157-.023-.023-.045-.045-.023-.022h-.112l-.023-.023-.112-.045h-.022l-.023-.022-.023-.045-.044-.023-.158-.09-.023-.022-.09-.09v-.045l-.022-.023-.023-.045v-.022l.023-.023h.045v-.022l-.022-.023-.023-.022h.023l.022-.023v-.045l.023-.022-.023-.023-.022-.045-.023-.022v-.023l-.023-.09-.022-.022v-.023l-.203-.247-.044-.045-.09-.09-.023-.023h.023-.023l-.045-.022-.023-.045-.022-.045h.023l-.046-.023-.044-.045h-.045l-.023-.022h-.023l-.022-.023-.023-.045v-.045l.023-.022.023-.023v-.045l-.023-.022h-.067v-.023h-.023v-.045h-.023v-.022l-.067-.023-.023-.022-.022-.023v-.09l-.067-.022h-.023l-.023-.023-.044-.067-.045-.045h-.023v-.045h-.023v-.023h-.022v-.022.045h-.068v-.09h.023v-.023h.023-.023v-.022l-.023-.023-.045-.09-.022-.045-.023-.067-.022-.045v-.068l-.023-.022h-.022l-.023-.023h-.022v-.022h-.023v-.023h-.067c0 .023 0 .023 0 0h-.023l-.067-.022-.023.022v.068l.023.045.023.067v.113l.022.022.023.023.09.067.022.023v.022l.023.045h.022l.023.023v.022h.022v.023l.023.022v.023h.022l.022.022v.045l.023.068v.022h.023v.023l.044.022.023.023v.045l.023.022h.022v.068l.023-.023.022.023.023.045.022.022v.023l.023.045v.045l.022-.023v.023h-.023v.067h.023v.023l.023.022v.045l.022.023h.045v.045h-.022v.09l.022.022.023.023v-.023l.022-.022.023.022h.022l.023.045.044.068v.022h.023l.023.023v.09h-.023l-.022.022-.023.023h-.068v-.023l-.022-.067v-.023l-.023-.022-.044-.023-.068-.09-.112-.067v.022h-.023l-.045-.022h-.023v-.045h-.022V10.8s-.023 0 0 0v-.045l.023-.067v-.113l-.046-.045-.045-.045-.044-.022-.023-.045h-.023v-.045l-.022.022h-.068l-.022-.022-.023-.023-.044-.022-.023-.023h-.023l-.022-.022v-.023l-.023-.022-.022-.023-.023-.022h-.022v-.045h.135v-.023h.023v-.045l.022-.022v-.023l-.023-.022V9.99l-.044-.045-.068-.067-.023-.023-.09-.045-.044-.022v-.023l-.023-.022v-.09h-.022l-.023-.023v-.067l-.045-.023v-.067h-.023V9.45l-.022-.022h-.023V9.36l-.022-.022-.022-.023-.023-.022V9.27l-.023-.045h.023l.427-.045.113-.18zm7.695 17.64l-.023.023-.067.044h-.045l-.022.023h.067l.023.023v-.023h.022v-.023h.045l.023-.022.022-.022v-.023h-.045zm-.113-.067h-.044v.05h-.023v-.05h-.045v.1-.05h.023v.05h.044l.023-.05.023-.05h.09-.09zm2.34-.36h.023l.067.022h.023v.023h-.023v.022h.023v-.023l.023-.022.044.023.023.022h.023v.022h-.023l-.023.023-.09.045-.022.022h.022l.023.023-.023.023-.022-.023-.023.023-.044-.023h-.023l.023.023-.023.022h-.045v.023l-.023-.046-.022.023h-.022v-.023l.022-.022v.023-.046l.023-.044h.022l.023-.023.044-.023h-.022v-.022l.023-.023v-.022l.022-.023v-.022l-.023.022zm-2.812.09v.067h.023l.022.022v.023l-.023.068-.022.022-.023-.022-.022-.023v-.023l-.023-.045v-.044h.023v-.023h.023v-.023h.022zm2.587-.09h.023l-.023.022h.023l.045-.023h.067l.023.023-.023.023v.022l-.067.09-.023.022h-.067v.046h-.023l-.022.022h-.045l-.023-.023-.022-.022v-.023h.023v-.022h.045l.044-.023v-.022h-.044.044v-.023l-.022-.022h-.022v-.045h.022l.023.023h.022l-.023-.023v-.023h.046zm-.113.134h.034v.067l-.034.034h-.033v-.034l-.034-.033.034-.034h.033zm-2.429-.022l.067.033.033.034v.033h-.033l-.034-.033-.033-.034v-.033zm-.023-.135l.023.022v.046h-.023l-.022.022h-.045l-.023.022v.023h-.022v-.045l.023-.023v-.045h.044l.023-.022h.045-.023zm.174-.113v.1-.1zm-.303-.087h.05-.026v.025h-.025v.05h-.05v-.1h.026l.024.025zm.326.043v.1-.1zm-.309-.18l.045.022h.023l.022.023v.022h-.023v.022h-.022l-.023.023h-.067v-.023l.022-.09h.023zm1.27-.023l-.1.1h.1v-.1zm-1.068-.135v.05l.1.05-.1-.05v-.05zm-.067-.247v.044h-.09v-.022l-.023-.022v.044l-.022.023-.023.023.023-.023h.023l.022.023v.044h-.023.023v-.067h.068l.022.023v.022l.023-.045v-.045h.022v-.022h-.045zm.14-.18v.024h-.025v.025h-.025l.025.026h.025l.025.024h.025-.025v-.05l-.025-.05zm.072-.36l-.1.05v.05l.1-.05v-.05zm-.072-.18l-.05.1.05-.025.05-.025-.05-.05zm-.253-.176h.1v.05h-.1v-.1.05zm.483-.027l-.1.1v-.1h.1zm-.275-.247h.025l.025.05v.05h-.075l-.025-.05h.025v-.05h.025zm-.113-.068l.05.05v.05h-.1v-.05l.05-.05zm.108-.405h.023l.022.023h.045v.022l.023.023v.045l-.023.022v.023h.023l-.023.022h-.023v.045l.023.023.023.022-.023.045-.023.023h-.022v.045h-.023l-.022.022-.023-.022h-.044v-.045l.022-.09v-.113l.023-.09v-.045h.022zm2.165-.607h.05v.1h-.05v-.05h-.05v-.05h.05zm-3.033-1.193h.057-.029v.035h-.028c.01.008.016.024.013.04-.003.014-.015.025-.028.025-.013 0-.024-.01-.027-.026-.004-.015.002-.031.013-.04v-.034h.029zm3.697-.09v.1-.1zM35.06 18.45c.585 0 1.215.315 1.215 1.058v.135h-.72v-.068c0-.337-.247-.472-.495-.472-.27 0-.517.157-.517.517v.945c0 .338.225.518.54.518a.46.46 0 00.472-.473v-.067h.72v.135c0 .742-.63 1.057-1.215 1.057-.652 0-1.282-.36-1.282-1.147v-.968c0-.765.607-1.17 1.282-1.17zm-2.992 0c.675 0 1.305.383 1.305 1.193v.877c0 .833-.653 1.215-1.283 1.215-.675 0-1.305-.36-1.305-1.17v-.9c0-.81.63-1.215 1.283-1.215zm-16.875 0c.585 0 1.237.315 1.237 1.058v.135h-.72v-.068c0-.337-.27-.472-.495-.472-.27 0-.54.157-.54.517v.945c0 .338.225.518.54.518.225 0 .495-.158.495-.473v-.067h.72v.135c0 .742-.63 1.057-1.215 1.057-.675 0-1.305-.36-1.305-1.147v-.968c0-.765.608-1.17 1.283-1.17zm3.262.068l1.08 3.15h-.787l-.18-.585h-1.08l-.203.585h-.72l1.08-3.15h.81zm-11.902 0c.607 0 .9.315.9.787 0 .315-.135.585-.45.72.337.113.517.405.517.743 0 .517-.36.9-.922.9H5.023v-3.15h1.53zm31.77 0l1.057 3.15h-.787l-.18-.585h-1.08l-.18.585h-.72l1.08-3.15h.81zm-28.8 0l1.057 3.15h-.765l-.18-.585H8.533l-.18.585h-.72l1.08-3.15h.81zm16.245 0l1.057 3.15h-.787l-.18-.585h-1.08l-.18.585h-.72l1.08-3.15h.81zm-4.59 0c.697 0 1.102.405 1.102.99 0 .382-.18.765-.585.922l.698 1.238h-.833l-.607-1.103h-.338v1.103h-.765v-3.15h1.328zm7.852 0v2.497h1.44v.653h-2.205v-3.15h.765zm-5.49 0v3.15h-.765v-3.15h.765zm-11.88 0l1.148 1.777h.022v-1.777h.698v3.15h-.72l-1.17-1.845h-.023v1.845h-.697v-3.15h.742zm28.823 0v2.497h1.44v.653h-2.205v-3.15h.765zm8.775 2.835h-.023l-.022.022h-.023l-.022-.022v.022l-.023.023v.045h-.022v.067H49.1v.023l-.045.022h-.022v.023l-.045.067v.023-.023h.067v-.022l.045-.023v-.022h.045v-.068l.023-.022h.022v-.023l.023-.022.022-.023v-.068h.023zm-17.19-2.25c-.27 0-.518.157-.518.517v.923c0 .337.225.54.54.54.27 0 .518-.158.518-.518v-.945c0-.337-.248-.517-.54-.517zm-25.695 1.26h-.608v.675h.608c.247 0 .382-.135.382-.338 0-.225-.135-.337-.382-.337zm18.945-1.035l-.36 1.125h.72l-.36-1.125zm-7.29 0h-.023l-.337 1.125h.72l-.36-1.125zm-8.933 0h-.022l-.338 1.125h.698l-.338-1.125zm28.8 0h-.022l-.36 1.125h.72l-.338-1.125zm-16.807-.203h-.473v.855h.473c.27 0 .45-.18.45-.427 0-.27-.18-.428-.45-.428zm-14.738 0h-.585v.653h.585c.248 0 .36-.158.36-.338 0-.202-.135-.315-.36-.315zm45.123-1.305h-.1v.1-.1h.1zM35.06 14.13c.652 0 1.17.36 1.17.945v.158h-.36v-.113c0-.427-.337-.675-.81-.675-.495 0-.877.293-.877.788v1.057c0 .473.382.765.9.765.472 0 .787-.247.787-.675v-.067h.36v.112c0 .608-.495.945-1.147.945-.72 0-1.26-.36-1.26-1.035v-1.102c0-.653.517-1.103 1.237-1.103zm-16.942 0c.495 0 .922.18 1.102.585l-.337.135c-.135-.27-.405-.427-.765-.427-.338 0-.698.157-.698.517 0 .248.158.405.54.518l.63.18c.383.112.698.337.698.832 0 .518-.473.9-1.17.9-.608 0-1.08-.27-1.238-.742l.338-.135c.135.36.472.562.922.562.428 0 .765-.202.765-.562 0-.338-.202-.473-.495-.563l-.63-.157c-.45-.135-.72-.36-.72-.81 0-.518.45-.833 1.058-.833zm8.235.045c.607 0 1.057.338 1.057.945 0 .428-.247.81-.787.9l.945 1.305h-.405l-.945-1.282h-.675v1.282h-.36v-3.15h1.17zm12.937 0l1.215 3.15H40.1l-.337-.922h-1.328l-.36.922h-.36l1.215-3.15h.36zm-27.067 0l1.215 3.15h-.405l-.338-.922h-1.327l-.36.922h-.36l1.215-3.15h.36zm-3.06 0c.63 0 1.08.338 1.08.945 0 .428-.27.81-.81.9l.945 1.305h-.405l-.923-1.282h-.675v1.282h-.382v-3.15h1.17zm-1.643 0v.315H6.44v2.835h-.36V14.49H5v-.315h2.52zm14.4 0v.315h-1.71v1.058h1.418v.315H20.21v1.462h-.36v-3.15h2.07zm8.258 0v.315h-1.733v1.058h1.463v.315h-1.463v1.147h1.733v.315h-2.115v-3.15h2.115zm7.042 0v3.15h-.382v-3.15h.382zm-12.69 0v.315h-1.732v1.058h1.462v.315h-1.462v1.147h1.755v.315h-2.138v-3.15h2.115zm-10.237 0l1.71 2.52v-2.52h.36v3.15h-.36L14.27 14.76v2.565h-.36v-3.15h.383zm16.897 0l1.71 2.52v-2.52h.36v3.15h-.36l-1.732-2.565v2.565h-.36v-3.15h.382zm-19.147.428l-.585 1.507h1.147l-.562-1.507zm27.067 0l-.585 1.507h1.148l-.563-1.507zm4.927 1.327h.033v.05l-.033.05h-.067l.033-.05v-.05h.034zM26.24 14.49h-.697v1.26h.72c.495 0 .787-.202.787-.63 0-.45-.315-.63-.81-.63zm-17.167 0h-.698v1.26h.698c.495 0 .787-.202.787-.63 0-.45-.315-.63-.787-.63zm39.922 1.193h-.025l-.025.1h-.025.1v-.1h-.025zm1.303-.023h.05v.1h-.1v-.1h.05zm-1.086-.045v.1-.05h.1l-.1-.05zm.068-.27l-.023.023-.022.022-.068.045h-.022v.023l-.045.067.045-.022v.022l.022.023-.022.045-.023.045.045-.023.023-.022h.023v-.068l.022-.022v-.023l.023-.022.044-.023h.09-.09v-.022.022h-.022l-.023-.022v-.045l.023-.023zm-.063.068h.026l.024.033v.033h-.025l-.024.034h-.026l-.025-.034.026-.033.025-.033h.024-.024zm-4.922-.248v.1h-.1.1v-.1zm-.55-1.16l.033.034v.034h-.067v-.034l-.033-.033.033-.033h.033v.033zm.528-.145v.1h-.1v-.1h.1zm.022-.022v.1h-.05l-.05-.05v-.05h.1zm1.227-.405v.045l-.044.045-.023.022v.045l.023.045.022.023v.045h.068l.022-.023.022-.045v-.022l-.022-.045v-.023l-.045-.045v-.022l-.023-.023v-.022zm1.868-.068h.023l.022.023-.023.022.023.068-.023.045-.022.022h-.157v-.022l.045-.023.022-.022.023-.023v-.022H47.3l-.022-.023v-.022h.022l.09-.023h.023-.023zm-.473-.045v.052l-.022.026h-.045l-.045-.026a.028.028 0 01.01.029c-.002.011-.011.019-.021.019-.01 0-.02-.008-.022-.02a.028.028 0 01.01-.028h.023l.023-.026v.026h.044v-.026h.045v-.026zm-.242.05v.05h.05-.1v-.1h.05v.05zm-1.609-.005v.1-.1zm2.469-.09v.067h-.067l-.033.033v-.033h.033l.034-.034h.033v-.033zm-.23-.157h.05v.1h-.1l.05-.1zm-1.17-.023l.05.033v.067h-.05v-.033l-.05-.034h.05v-.033zm-.185-.022h.025v.025l.025.025h.025l.025.025v.025H46l-.025-.025-.025-.025v-.05zm-.135-.035v.034l.04.033c-.016-.008-.023-.023-.019-.037.005-.015.02-.025.039-.025.018 0 .034.01.039.025.004.014-.003.03-.019.037l-.04-.033v-.067h.04l-.08.033zm1.53-.033l.1.05h-.1v.05-.1zm.049-.112h.04v.067h-.04.04v.023h-.04c.015.005.023.015.018.025-.004.01-.02.016-.038.016s-.034-.006-.039-.016c-.005-.01.003-.02.019-.025h.04l-.04-.023v-.045h.04v-.022zm.277.022l.066.05v.05h-.099v-.1h.033zm-.181-.157v.1h-.05l-.05-.025v-.05l.05-.025h.05zm-.098-.158l.025.023.026.022v.023l.025.022-.026.023h-.025l-.025-.023v-.022h-.025V12.6h.026zm-.07-.157v.022h.1v.09h-.1V12.443zm-3.982.067l.05.1h.05-.05v-.1h-.05zm4.055-.112h.05v.1h-.1v-.1h.05zm-.073-.113h.023v.023l.023.022h.022v.023h-.068v.045H47.3v.022l-.022-.022h-.023v-.068h.045v-.022l.023-.023zm-4.41.023h.033v.05l-.067.05h-.033v-.05h.067v-.05zm.118-.023v.05h-.05v.05-.1h.1-.05zm4.258-.067v.1h-.1v-.1h.1zm-.022-.057h.033l.034.033v.034h-.034l-.033-.034h-.033l.033-.066v.033zm-.191-.053h.033v.025l.034.025h.033v.025h-.033v-.025l-.034-.025h-.033v-.05h.033l-.033.025zm-4.405-.025v.033l-.05.033v.034-.034l.05-.033v-.033h.05-.05zm4.383.038h.1-.1zm.202-.061h.1v.1h-.1v-.1zm-.248 0h.1v.1h-.1v-.1zm-1.71-.472h.046l.067.022.045.023h.023l.022-.023h.09l.045-.022h.023l.044.022.068.023h.045v.022h.023v.045h.022v.023h.023l.022-.023h.023l.022.023v.022h-.045l.023.023h.09l.022.022.023.023.022.022h.023v.045l-.023.023-.023.045h-.044v-.023h-.023l-.023-.022h-.135l-.045.022-.022.023h-.068v-.023h-.067v.023l-.023.022-.022.068h-.023v.022h-.022l-.023-.022v-.023l-.022-.022-.023-.023-.022-.022h-.315v.022h-.045l-.067-.045h-.023v-.045l.023-.022h.067l.135.022h.068l.067-.022-.023-.023-.022-.022v-.023l-.023-.022v-.045l.023-.023h-.023v-.022h-.067l-.022-.023-.023-.022v-.023h.045v-.022h.068-.023.023zm1.451.477h.067-.033l-.034.05h-.033v-.1h.033v.05zm-2.328-.162h.135l.045.022.045.022.045.023.023.045v.023h-.068l-.045-.023h-.023l-.022.022h-.023v.023h-.044v-.022h-.068v-.023l-.045-.022-.023-.023h-.022l-.023-.023v-.022h.023v-.023h.09zm2.655.112h.1v.1h-.1v-.1zm-4.378-.045l-.05.067v.033l-.05-.033v-.034l.05-.033h.05zm3.68-.09h.045l.046.023h.09l.022.022h.023v.045h.044v.023h-.067v-.023l-.045.045h-.225l-.023-.022v-.09h.023l.023-.023h.044zm.72.068l-.034.033v.067h-.033v-.067l.033-.033h.067-.033zm-.922.022h.1v.1h-.1v-.1zm.653-.057l-.023.034h-.045v.033h-.067l-.023-.033h.067v-.034h.045l.023-.033h.023v.033zm-4.83-.078v.033h-.026l-.025.034h-.025v.033h.05l.026-.033.025-.034h-.026v-.033zm3.255-.022h.022l.023.033.022.033-.023.034-.044-.034-.045-.033v-.033h.045zm1.552.05h.1v.05h-.1v-.1.05zm-8.225-.028v.1h-.05v-.05h-.05v-.05h.1zm5.188-.112h.1v.1h-.1v-.1zm.325-.068l-.026.1h-.075v-.1h.1zm-.438-.697h.157l.023.022h.09l.045.023h.023l.044.022h.023l.023.023.022-.023v.023h.045v.022h-.023l-.022-.022.023.022.022.023h.113l.022.022.045.023.045.022.023.023-.023-.023v-.022h-.023l-.022-.023h-.045v-.022h-.022v-.023h.067v.023h.045v.022h.023v.023h.022v.022h.023v.045h-.023.045l.022.023.023.022.023.023.022.022h.023v.023h.022l.067.022h.068l.023.023.022.022v.023l-.023.022h.113v.023h.045l.045.045.068.022v.023l-.023.022v.023h-.09l-.045.022H44.645l-.248.023-.022-.023.023-.022.067-.045v-.023l.022-.022v-.023h-.022l-.023-.022h-.112l-.023-.023-.044-.022v-.023h-.023v-.022l-.023-.045v-.023l-.022-.022h-.157l-.045-.023-.068-.045-.022-.022h-.068l-.045-.023h-.135v-.022h-.023l-.022-.023h.045v-.022h.023-.023l-.023-.023h-.112l-.023.023h-.022l-.068.067-.022.023h-.09v.022h-.023v.023h-.022l-.023.022-.044.023-.023-.023v-.022l-.022.022h-.023v-.022l.067-.023h.023l-.023-.022v-.023h.023v-.022l.023-.023.022-.022h.023l.044-.045.248-.068h.045l.045-.022zm-.81.517l.032.025h-.033v.05h-.033v.025h-.033V11.5h.033l.033-.025zm2.43-.135v.075h-.023l-.022.025h-.045l-.023-.025v-.025l.023-.025h.067l.023-.025h.023-.023zm-1.755-.135l.022.023.023.022.023.045h-.023l-.023.023-.022.022h-.023l-.022-.022-.023-.023v.023-.09h.046l.022-.023zm1.755.09h.1v.1h-.1v-.1h.1-.1zm-4.387-.022h.1v.1-.05l-.1-.05zm-1.598-.012h.04v.067c-.016-.008-.023-.023-.019-.038.005-.015.02-.025.039-.025.018 0 .034.01.039.025.004.015-.003.03-.019.038v-.034h-.04v-.033l.04-.033-.08.033zm6.098-.006h.1l-.05.05h-.05v-.1.05zm.07-.05h.025v.033h.05v.034l-.026.033-.024-.033h-.025l-.026-.034.026-.033zm-.408-.18l.023.023h.067v.045l-.023.022v.023l-.022.022h-.023v.023h-.022l-.022-.023.022-.022.023-.023h.022v-.045h-.023v.023l-.022-.023h-.022v-.022l.022-.023zm.203.09h.044l.023.035v.035h-.023l-.044-.035c.008.008.013.024.01.04-.003.014-.012.025-.022.025-.01 0-.019-.01-.021-.026-.003-.015.001-.031.01-.04h.023v-.034zm-.383-.247l.025.022.025.068.025.022.025.023v.022l-.025-.022-.05-.023v-.09l-.025-.022h.025-.025zm-.133.01h.026l.025.034.025.033-.026-.033-.05-.034h-.025v-.033h.025v.033zm-.385-.325h.023l.023.022.022.045.023.023v.045l-.023.022-.023.023h.046v.022h.022v.023l.022.022v.045l-.022.023h-.045v-.023l-.045-.09-.023-.022v-.023h-.022l-.023-.022h-.022.023v-.113h.022l.023-.022zm.68.225h.05v.05l-.05.05-.05-.05v-.05h.05zm-.227-.135v.022l.025.023v.022l.025.023.025.022v.023h-.05v-.045l-.025-.045-.025-.023.025-.022zm-6.1.09h.1v.1-.1h-.1zm.405.016h.1-.1zm-.81-.129l.05.033v.067h.05v-.033l-.1-.034v-.033zm6.323-.157l.022.045.067.022.023.045-.023.068v.022h-.022l-.023-.022v-.023h.023v-.045l-.023-.022v-.023h-.022l-.023-.022-.022.022v-.022h-.023.023v-.023l.023-.022zm-.13.112h.024l.025.1h-.075l-.024-.1h.05zm-.096-.382h.046l.067.022.045.045v.09l-.023.023v.045l-.022-.023v-.022l.023-.023v-.067l-.023-.023-.023-.022-.044-.023h-.023v-.022h.045-.068zm-.112.022l.023.033h.044l.046-.033v.067h-.046l-.09.033h-.044l-.023-.033.023-.034h.022v.034l.023-.034v-.033h.022zm-6.306-.225v.1-.1zm-.193-.112l.04.022v.068h-.04c.016.005.024.015.019.025-.005.01-.02.016-.039.016-.018 0-.034-.006-.038-.016-.005-.01.003-.02.018-.025l.04-.023V9.9h.04l-.04-.022zm-.561-.158h.05v.1h-.05v-.033l-.05-.034V9.72h.05zm.828-.09h.022v.023l.022.022v.023h.023l.023.022v.023l-.023.022-.023-.022-.022-.023h-.023v-.045h-.022v-.022l.023-.023z"/>
        </g>
    </g>
</svg>