<?xml version="1.0" encoding="UTF-8"?>
<svg width="56px" height="36px" viewBox="0 0 56 36" version="1.1" xmlns="http://www.w3.org/2000/svg" xmlns:xlink="http://www.w3.org/1999/xlink">
    <!-- Generator: Sketch 46.2 (44496) - http://www.bohemiancoding.com/sketch -->
    <title>PM/AstroPay Card</title>
    <desc>Created with Sketch.</desc>
    <defs>
        <linearGradient x1="100%" y1="50%" x2="0%" y2="50%" id="linearGradient-1">
            <stop stop-color="#DD0000" offset="0%"></stop>
            <stop stop-color="#A00B01" offset="100%"></stop>
        </linearGradient>
    </defs>
    <g id="Page-1" stroke="none" stroke-width="1" fill="none" fill-rule="evenodd">
        <g id="PM/AstroPay-Card">
            <g id="Group-3">
                <path d="M0,3.75075247 C0,1.67926908 1.67596877,0 3.75035585,0 L52.2496442,0 C54.3209085,0 56,1.68806916 56,3.75075247 L56,32.2492475 C56,34.3207309 54.3240312,36 52.2496442,36 L3.75035585,36 C1.67909151,36 0,34.3119308 0,32.2492475 L0,3.75075247 Z" id="Rectangle-2" fill="#000000" fill-rule="nonzero"></path>
                <path d="M1.25,3.75075247 L1.25,32.2492475 C1.25,33.6250965 2.37296468,34.75 3.75035585,34.75 L52.2496442,34.75 C53.6324061,34.75 54.75,33.6316447 54.75,32.2492475 L54.75,3.75075247 C54.75,2.37490355 53.6270353,1.25 52.2496442,1.25 L3.75035585,1.25 C2.36759386,1.25 1.25,2.36835527 1.25,3.75075247 Z" id="Path" fill="#FFFFFF"></path>
            </g>
            <g id="Group-4" transform="translate(2.000000, 8.000000)">
                <g id="Group-35" transform="translate(31.000000, 13.000000)">
                    <g id="Group-9">
                        <path d="M0.74844,0 L12.0436392,0 L12.0436392,1.11022302e-16 C12.4569912,3.50907722e-17 12.7920792,0.335088002 12.7920792,0.74844 L12.7920792,5.3378661 L12.7920792,5.3378661 C12.7920792,5.75705022 12.4522633,6.0968661 12.0330792,6.0968661 L0.74844,6.0968661 L0.74844,6.0968661 C0.335088002,6.0968661 -5.04490492e-16,5.7617781 -5.55111512e-16,5.3484261 L0,0.74844 L0,0.74844 C-5.06210201e-17,0.335088002 0.335088002,2.97976135e-16 0.74844,2.22044605e-16 Z" id="Rectangle-7" fill="url(#linearGradient-1)"></path>
                        <path d="M2.06945545,4.67711835 C1.81529576,4.52640854 1.62005019,4.31147904 1.48371287,4.03232338 C1.34737556,3.75316772 1.27920792,3.42520756 1.27920792,3.04843305 C1.27920792,2.67165854 1.34737556,2.34369838 1.48371287,2.06454272 C1.62005019,1.78538706 1.81529576,1.57131385 2.06945545,1.42231666 C2.32361513,1.27331946 2.62237452,1.19882199 2.96574257,1.19882199 C3.20812002,1.19882199 3.43366232,1.23735516 3.64237624,1.31442268 C3.85109015,1.39149019 4.02782106,1.50195197 4.17257426,1.64581133 L3.99079208,2.03628477 C3.82584076,1.89585064 3.66173349,1.79480808 3.49846535,1.73315407 C3.3351972,1.67150006 3.15930787,1.64067352 2.97079208,1.64067352 C2.6004932,1.64067352 2.31519902,1.7622671 2.11490099,2.00545792 C1.91460296,2.24864874 1.81445545,2.59630364 1.81445545,3.04843305 C1.81445545,3.50056246 1.91460296,3.84907365 2.11490099,4.09397708 C2.31519902,4.33888051 2.6004932,4.46133039 2.97079208,4.46133039 C3.15930787,4.46133039 3.3351972,4.43050385 3.49846535,4.36884984 C3.66173349,4.30719582 3.82584076,4.20615327 3.99079208,4.06571913 L4.17257426,4.45619258 C4.02782106,4.60005194 3.85109015,4.71051372 3.64237624,4.78758123 C3.43366232,4.86464874 3.20812002,4.90318192 2.96574257,4.90318192 C2.62237452,4.90318192 2.32361513,4.82782815 2.06945545,4.67711835 Z M6.47262376,2.54492781 C6.63252555,2.71276373 6.71247525,2.967939 6.71247525,3.31046128 L6.71247525,4.86207945 L6.22267327,4.86207945 L6.22267327,4.44591696 C6.15871255,4.59320154 6.06361449,4.70537591 5.93737624,4.78244342 C5.81113798,4.85951093 5.66386223,4.89804411 5.49554455,4.89804411 C5.33395959,4.89804411 5.18584226,4.86464869 5.05118812,4.79785685 C4.91653398,4.731065 4.81133701,4.63772908 4.73559406,4.51784628 C4.65985111,4.39796348 4.6219802,4.2643818 4.6219802,4.11709722 C4.6219802,3.93556041 4.66826686,3.7925595 4.76084158,3.68809021 C4.8534163,3.58362091 5.00658309,3.50912343 5.22034653,3.46459554 C5.43410998,3.42006764 5.72781991,3.39780403 6.10148515,3.39780403 L6.21762376,3.39780403 L6.21762376,3.24880758 C6.21762376,3.0569951 6.1780697,2.91827566 6.0989604,2.83264509 C6.01985109,2.74701452 5.89109,2.70419988 5.71267327,2.70419988 C5.43326593,2.70419988 5.15386278,2.79154175 4.87445545,2.96622811 L4.7229703,2.60144371 C4.85425808,2.50896269 5.0133159,2.43446521 5.20014851,2.37794904 C5.38698113,2.32143286 5.56623677,2.2931752 5.73792079,2.2931752 C6.06782343,2.2931752 6.31272197,2.3770919 6.47262376,2.54492781 Z M6.04089109,4.32004065 C6.15871346,4.1915948 6.21762376,4.02633028 6.21762376,3.82424213 L6.21762376,3.69065911 L6.12673267,3.69065911 C5.8641571,3.69065911 5.66217892,3.70264721 5.52079208,3.72662377 C5.37940523,3.75060033 5.27841614,3.7908461 5.21782178,3.84736227 C5.15722742,3.90387845 5.12693069,3.98522627 5.12693069,4.09140818 C5.12693069,4.21129097 5.16985106,4.31147724 5.25569307,4.39196997 C5.34153508,4.47246271 5.4517815,4.51270847 5.58643564,4.51270847 C5.77158508,4.51270847 5.92306872,4.44848651 6.04089109,4.32004065 Z M8.9090099,2.72988892 L8.6009901,2.76071577 C8.35861265,2.78469233 8.18440647,2.8600461 8.07836634,2.98677935 C7.9723262,3.11351259 7.91930693,3.27449565 7.91930693,3.46973335 L7.91930693,4.86207945 L7.40930693,4.86207945 L7.40930693,2.3548289 L7.90415842,2.3548289 L7.90415842,2.79154262 C8.0354462,2.49697346 8.30306729,2.33427782 8.7070297,2.30345081 L8.87366337,2.2931752 L8.9090099,2.72988892 Z M11.4792079,1.23992445 L11.4792079,4.86207945 L10.9742574,4.86207945 L10.9742574,4.43050354 C10.9001976,4.58121334 10.792476,4.69681288 10.6510891,4.77730561 C10.5097023,4.85779835 10.3464366,4.89804411 10.1612871,4.89804411 C9.94920686,4.89804411 9.75985232,4.84324137 9.59321782,4.73363424 C9.42658333,4.62402711 9.29698066,4.4698944 9.20440594,4.27123147 C9.11183122,4.07256855 9.06554455,3.84479465 9.06554455,3.58790294 C9.06554455,3.32758601 9.11183122,3.09981211 9.20440594,2.90457441 C9.29698066,2.70933671 9.42574175,2.55862917 9.59069307,2.45244726 C9.75564439,2.34626535 9.94584051,2.2931752 10.1612871,2.2931752 C10.3464366,2.2931752 10.5088607,2.33342096 10.6485644,2.4139137 C10.788268,2.49440643 10.8951481,2.60829338 10.9692079,2.75557796 L10.9692079,1.23992445 L11.4792079,1.23992445 Z M10.795,4.25581805 C10.9145055,4.10168302 10.9742574,3.88247205 10.9742574,3.59817856 C10.9742574,3.31388507 10.9145055,3.0946741 10.795,2.94053907 C10.6754945,2.78640404 10.5046546,2.70933769 10.2824752,2.70933769 C10.0602959,2.70933769 9.88777289,2.78554775 9.76490099,2.93797017 C9.64202909,3.09039258 9.58059406,3.30703467 9.58059406,3.58790294 C9.58059406,3.86877121 9.64287066,4.08883848 9.76742574,4.24811134 C9.89198082,4.4073842 10.0636623,4.48701943 10.2824752,4.48701943 C10.5046546,4.48701943 10.6754945,4.40995307 10.795,4.25581805 Z" id="Card" fill="#FFFFFF"></path>
                    </g>
                </g>
                <g id="Group-2" fill-rule="nonzero">
                    <g id="astropay">
                        <g id="Group">
                            <path d="M6.45867176,3.23423729 L8.54897277,3.23423729 C11.9292881,-0.066440678 15.8805542,-0.151864407 20.350215,3.03491525 C15.9378882,-1.06067797 11.2986144,-0.977627119 6.45867176,3.23423729 Z" id="Shape" fill="#A60D14"></path>
                            <path d="M5.13999044,2.20915254 L4.10797898,2.20915254 L1.01672241,11.4562712 L1.84806498,11.4562712 L2.85140946,8.35491525 L6.37505972,8.35491525 L7.3784042,11.4562712 L8.23841376,11.4562712 L5.13999044,2.20915254 L5.13999044,2.20915254 Z M6.11466794,7.44372881 L3.16435738,7.44372881 L4.62398471,2.89254237 L6.11466794,7.44372881 L6.11466794,7.44372881 Z M12.6172957,5.45288136 C12.8752986,5.56677966 13.1619685,5.70915254 13.4199713,5.90847458 L13.7639752,5.42440678 C13.4486383,5.19661017 13.1333015,4.99728814 12.7892977,4.88338983 C12.4452938,4.76949153 12.072623,4.71254237 11.6426183,4.71254237 C11.2126135,4.71254237 10.8399427,4.7979661 10.5246058,4.94033898 C10.180602,5.08271186 9.92259914,5.31050847 9.72193024,5.53830508 C9.52126135,5.79457627 9.43526039,6.07932203 9.43526039,6.42101695 C9.43526039,6.87661017 9.57859532,7.24677966 9.89393215,7.53152542 C10.209269,7.81627119 10.6966077,8.0440678 11.4108935,8.24338983 C11.8695652,8.35728814 12.213569,8.47118644 12.4715719,8.61355932 C12.7295748,8.7559322 12.9015767,8.89830508 13.0162446,9.06915254 C13.1309126,9.24 13.1595796,9.46779661 13.1595796,9.7240678 C13.1595796,10.1227119 12.9875776,10.4074576 12.7009078,10.6352542 C12.4142379,10.8345763 12.0129001,10.9484746 11.5255614,10.9484746 C11.1242236,10.9484746 10.7802198,10.8915254 10.4648829,10.7776271 C10.1495461,10.6637288 9.86287625,10.4928814 9.60487339,10.2650847 L9.17486861,10.720678 C9.46153846,10.9769492 9.80554228,11.1762712 10.1782131,11.3186441 C10.5508839,11.4610169 11.0095557,11.5464407 11.5518395,11.5464407 C11.9818442,11.5464407 12.383182,11.4610169 12.7558528,11.3186441 C13.0998567,11.1762712 13.3865265,10.9484746 13.6158624,10.6637288 C13.8451983,10.3789831 13.9598662,10.0372881 13.9598662,9.61016949 C13.9598662,9.24 13.8738653,8.92677966 13.7305303,8.67050847 C13.5871954,8.41423729 13.3578595,8.21491525 13.0425227,8.0440678 C12.7271859,7.87322034 12.3258481,7.73084746 11.8385093,7.61694915 C11.2651696,7.47457627 10.8351648,7.30372881 10.605829,7.10440678 C10.3478261,6.93355932 10.2331581,6.67728814 10.2331581,6.3640678 C10.2331581,6.02237288 10.3764931,5.76610169 10.6344959,5.56677966 C10.8924988,5.36745763 11.2651696,5.2820339 11.6951744,5.2820339 C12.0152891,5.31050847 12.3306259,5.36745763 12.6172957,5.45288136 L12.6172957,5.45288136 Z M16.6258958,3.20576271 L15.9092212,3.29118644 L15.9092212,4.85491525 L14.7912088,4.85491525 L14.7912088,5.42440678 L15.9092212,5.42440678 L15.9092212,9.80474576 C15.9092212,10.3742373 16.0525561,10.8013559 16.339226,11.0861017 C16.6258958,11.3708475 16.9985667,11.5132203 17.5145724,11.5132203 C17.7725753,11.5132203 18.0305781,11.4847458 18.259914,11.399322 C18.4892499,11.3423729 18.6899188,11.2284746 18.9192547,11.1145763 L18.6325848,10.6020339 C18.4892499,10.6874576 18.317248,10.7728814 18.1452461,10.8298305 C17.9732441,10.8867797 17.8012422,10.9152542 17.6292403,10.9152542 C17.2852365,10.9152542 17.0559006,10.8298305 16.8838987,10.6305085 C16.7118968,10.4311864 16.6545628,10.1464407 16.6545628,9.77627119 L16.6545628,5.42440678 L18.2861921,5.42440678 L18.372193,4.85491525 L16.6545628,4.85491525 L16.6545628,3.20576271 L16.6258958,3.20576271 Z M20.8375538,4.85491525 L20.1782131,4.85491525 L20.1782131,11.399322 L20.9235547,11.399322 L20.9235547,7.41525424 C21.0095557,7.07355932 21.1242236,6.78881356 21.2388915,6.53254237 C21.3535595,6.27627119 21.4682274,6.07694915 21.6115624,5.90610169 C21.8982322,5.56440678 22.270903,5.39355932 22.7009078,5.39355932 C22.8155757,5.39355932 22.9015767,5.39355932 23.0162446,5.4220339 C23.1022456,5.4220339 23.1882465,5.45050847 23.2742475,5.47898305 L23.4175824,4.79559322 C23.3315815,4.76711864 23.2169135,4.73864407 23.1309126,4.71016949 L22.7582418,4.71016949 C22.29957,4.71016949 21.9268992,4.85254237 21.6115624,5.10881356 C21.2962255,5.36508475 21.0668896,5.79220339 20.8948877,6.33322034 L20.8375538,4.85491525 L20.8375538,4.85491525 Z M27.3091257,4.71254237 C26.649785,4.71254237 26.0764453,4.85491525 25.5914955,5.13966102 C25.1041567,5.3959322 24.7314859,5.79457627 24.50215,6.30711864 C24.2441472,6.81966102 24.1294792,7.41762712 24.1294792,8.12711864 C24.1294792,8.83661017 24.2728141,9.43694915 24.50215,9.94711864 C24.7601529,10.459661 25.1328237,10.8583051 25.5914955,11.1145763 C26.0501672,11.3708475 26.6235069,11.5132203 27.3091257,11.5416949 C27.9684663,11.5416949 28.541806,11.399322 29.0267559,11.1145763 C29.5140946,10.8298305 29.8580984,10.4311864 30.1161013,9.91864407 C30.3741042,9.40610169 30.5174391,8.80813559 30.5174391,8.09864407 C30.4887721,7.01661017 30.2021022,6.19322034 29.6574295,5.59525424 C29.0840898,5.02576271 28.3124701,4.71254237 27.3091257,4.71254237 L27.3091257,4.71254237 Z M25.5914955,6.02237288 C25.9928333,5.56677966 26.566173,5.31050847 27.2804587,5.31050847 C27.9947444,5.31050847 28.570473,5.53830508 28.9694219,6.02237288 C29.3707597,6.4779661 29.5714286,7.18983051 29.5714286,8.09864407 C29.5714286,9.03830508 29.3707597,9.74779661 28.9407549,10.2318644 C28.5394171,10.6874576 27.9660774,10.9152542 27.2517917,10.9152542 C26.5064501,10.9152542 25.9617774,10.6874576 25.5628285,10.2033898 C25.1614907,9.74779661 24.9321548,9.0359322 24.9321548,8.12711864 C24.9894888,7.18745763 25.1901577,6.4779661 25.5914955,6.02237288 L25.5914955,6.02237288 Z" id="Shape" fill="#131313"></path>
                            <path d="M37.5623507,6.50644068 C37.5623507,6.50644068 37.5910177,6.4779661 37.5623507,6.50644068 C37.8776875,6.07932203 38.0210225,5.53830508 38.0210225,4.88576271 C38.0210225,3.97457627 37.7056856,3.3220339 37.1036789,2.86644068 C36.5016722,2.43932203 35.6440516,2.24 34.5833731,2.24 L32.4070712,2.24 L32.4070712,11.3732203 L33.2384138,11.3732203 L33.2384138,7.61694915 L34.5833731,7.61694915 C35.0707119,7.61694915 35.5007167,7.56 35.9020545,7.47457627 C36.0740564,7.44610169 36.2173913,7.38915254 36.3893932,7.33220339 C36.876732,7.15898305 37.2756808,6.87661017 37.5623507,6.50644068 L37.5623507,6.50644068 Z M36.5327281,6.50644068 C36.3607262,6.64881356 36.1600573,6.73423729 35.9307215,6.81966102 C35.5293837,6.9620339 35.0993789,7.01898305 34.5570951,6.99050847 L33.2384138,6.99050847 L33.2384138,2.8640678 L34.5833731,2.8640678 C35.4147157,2.8640678 36.0430005,3.00644068 36.5016722,3.31966102 C36.931677,3.63288136 37.1610129,4.14542373 37.1610129,4.85491525 C37.1610129,5.3959322 37.046345,5.82305085 36.8170091,6.13627119 C36.762064,6.27864407 36.6473961,6.39254237 36.5327281,6.50644068 L36.5327281,6.50644068 Z M42.7176302,5.68067797 C42.9469661,5.93694915 43.061634,6.30711864 43.061634,6.84813559 L43.061634,7.47457627 L41.8026756,7.47457627 C41.4873387,7.47457627 41.2006689,7.50305085 40.942666,7.56 C40.4839943,7.64542373 40.1113235,7.81627119 39.7959866,8.0440678 C39.3086479,8.41423729 39.050645,8.92677966 39.050645,9.60779661 C39.050645,10.2057627 39.2513139,10.6898305 39.5953177,11.0291525 C39.9679885,11.3708475 40.4553273,11.5701695 41.112279,11.5701695 C41.5422838,11.5701695 41.9436216,11.4847458 42.3162924,11.2854237 C42.6316292,11.1145763 42.8896321,10.8867797 43.090301,10.6020339 C43.118968,10.5450847 43.147635,10.5166102 43.176302,10.459661 L43.176302,11.4277966 L43.8356426,11.4277966 C43.8356426,10.5166102 43.8069756,10.0349153 43.8069756,9.94949153 L43.8069756,6.79118644 C43.8069756,6.10779661 43.6349737,5.59525424 43.2909699,5.2559322 C42.9469661,4.88576271 42.4022934,4.71491525 41.6593407,4.71491525 C41.3153368,4.71491525 40.971333,4.74338983 40.6273292,4.82881356 C40.2833254,4.88576271 39.9393215,4.99966102 39.5953177,5.1420339 L39.7673196,5.71152542 C40.0826565,5.59762712 40.3979933,5.48372881 40.7133301,5.42677966 C41,5.36983051 41.2866699,5.31288136 41.5446727,5.31288136 C42.0606785,5.31050847 42.4596273,5.42440678 42.7176302,5.68067797 L42.7176302,5.68067797 Z M39.8533206,9.55084746 C39.8533206,9.03830508 40.0253225,8.63966102 40.3693263,8.38338983 C40.5413282,8.24101695 40.7706641,8.15559322 41.028667,8.09864407 C41.2866699,8.04169492 41.5733397,7.98474576 41.9173435,7.98474576 L43.0640229,7.98474576 L43.0640229,9.77627119 L42.8060201,10.2033898 C42.7773531,10.2318644 42.7486861,10.260339 42.7200191,10.3172881 C42.6053512,10.459661 42.4620162,10.5735593 42.3186813,10.6874576 C42.0320115,10.8867797 41.6593407,10.9722034 41.2580029,10.9722034 C40.8279981,10.9722034 40.4839943,10.8583051 40.2546584,10.6020339 C39.9679885,10.3457627 39.8533206,10.0040678 39.8533206,9.55084746 L39.8533206,9.55084746 Z M50.9952222,4.85491525 L50.2212136,4.85491525 L48.2742475,10.8583051 L46.2986144,4.85491525 L45.4959388,4.85491525 L47.9302437,11.7101695 C47.8155757,11.9664407 47.7295748,12.1657627 47.6149068,12.3650847 C47.4715719,12.6213559 47.270903,12.820678 47.0129001,12.9915254 C46.7548973,13.1623729 46.4108935,13.3047458 45.9808887,13.4186441 L46.0668896,13.9881356 C46.6115624,13.8742373 47.0415671,13.7318644 47.385571,13.5040678 C47.7295748,13.2762712 47.9875776,13.02 48.2169135,12.6783051 C48.4175824,12.3366102 48.6182513,11.9379661 48.7615862,11.4538983 L50.9952222,4.85491525 L50.9952222,4.85491525 Z" id="Shape" fill="#787878"></path>
                            <path d="M49.9834069,4.77779192 C50.0168344,4.67471959 50.1128563,4.60491525 50.2212136,4.60491525 L50.9952222,4.60491525 C51.1663485,4.60491525 51.2868901,4.77297605 51.2320247,4.93506861 L49.0012983,11.5248782 C48.867605,11.9763845 48.6830849,12.3781941 48.4244935,12.8176268 C48.1767516,13.1867455 47.8951043,13.4665024 47.5235996,13.7125098 C47.1679766,13.9480006 46.7301422,14.1048482 46.1180611,14.2328425 C45.9775047,14.2622347 45.8411343,14.1674525 45.8196924,14.0254657 L45.7336915,13.4559742 C45.714647,13.3298632 45.7935877,13.2096344 45.9168769,13.176978 C46.3224475,13.0695517 46.6419618,12.9373143 46.8748715,12.7830834 C47.1108468,12.6268224 47.2785822,12.4542624 47.3982074,12.2404198 C47.4477379,12.1543232 47.493992,12.0640201 47.5463037,11.9526761 C47.5772134,11.8868855 47.6064912,11.822256 47.6612166,11.6996575 L45.2603514,4.93857251 C45.2025638,4.77583687 45.3232475,4.60491525 45.4959388,4.60491525 L46.2986144,4.60491525 C46.4065743,4.60491525 46.5023384,4.67421695 46.5360861,4.7767666 L48.2725108,10.0532699 L49.9834069,4.77779192 Z M50.4029544,5.10491525 L48.5120541,10.9354284 C48.4374691,11.1654083 48.1123524,11.1661097 48.0367758,10.9364537 L46.1176967,5.10491525 L45.8500082,5.10491525 L48.1658312,11.6265122 L48.1584415,11.8122761 C48.0761495,11.9970966 48.0387849,12.0802828 47.9988468,12.16529 C47.9410693,12.288268 47.8887169,12.3904768 47.8330975,12.4871209 C47.6739386,12.7716841 47.4503788,13.001674 47.1509288,13.1999675 C46.9141186,13.3567813 46.617553,13.4891355 46.260911,13.5986793 L46.2739178,13.6848089 C46.6935209,13.5810824 47.0014692,13.4585734 47.2475423,13.2956258 C47.5640452,13.08604 47.7984037,12.8532545 48.0013396,12.5517039 C48.2328088,12.1575628 48.4008513,11.7916345 48.5247837,11.3737449 L50.6466687,5.10491525 L50.4029544,5.10491525 Z M42.7853559,6.85050847 C42.7853559,6.37307457 42.6913525,6.05794228 42.5050565,5.84976596 C42.3379748,5.66306069 42.0116751,5.56288136 41.5160057,5.56288136 C41.3234327,5.56288136 41.1464685,5.58992388 40.7290939,5.67279981 C40.4848917,5.71690219 40.2831818,5.78065184 39.8235814,5.94665755 C39.6887999,5.99534002 39.5407632,5.92099086 39.49933,5.78380736 L39.3273281,5.21431583 C39.2901772,5.0913105 39.3523209,4.96017338 39.4710476,4.91103597 C39.8657267,4.7476901 40.2174116,4.63852624 40.5384116,4.58618244 C40.879269,4.50154003 41.2332427,4.46491525 41.6306737,4.46491525 C42.4480838,4.46491525 43.0520902,4.66248464 43.4378643,5.0779485 C43.8346522,5.46933622 44.0283086,6.04573831 44.0283086,6.79118644 L44.0283086,9.95186441 C44.0283086,9.96472878 44.0384237,10.2334915 44.0425352,10.3740461 C44.0516788,10.6866233 44.0569756,11.030801 44.0569756,11.4301695 C44.0569756,11.5682407 43.9450468,11.6801695 43.8069756,11.6801695 L43.147635,11.6801695 C43.0095638,11.6801695 42.897635,11.5682407 42.897635,11.4301695 L42.897635,11.1632321 C42.7505046,11.2951965 42.5864088,11.4102505 42.4055323,11.5082461 C42.0067515,11.721533 41.568694,11.8225424 41.083612,11.8225424 C40.3917058,11.8225424 39.8352936,11.6170174 39.3910893,11.2095091 C38.9886752,10.8125717 38.771978,10.2585977 38.771978,9.61016949 C38.771978,8.86262272 39.0575907,8.27158995 39.6209245,7.84378714 C39.9835778,7.58180948 40.3939088,7.40493651 40.8601135,7.31824926 C41.1366634,7.2572062 41.4412784,7.22694915 41.7740086,7.22694915 L42.7853559,7.22694915 L42.7853559,6.85050847 Z M43.542749,10.3886658 C43.5389148,10.2575899 43.5283086,9.97577969 43.5283086,9.95186441 L43.5283086,6.79118644 C43.5283086,6.16926169 43.3776632,5.72087822 43.0791724,5.42611802 C42.7942735,5.11954905 42.3215292,4.96491525 41.6306737,4.96491525 C41.2712963,4.96491525 40.9569197,4.99744302 40.6394935,5.07545664 C40.400215,5.11506872 40.1492242,5.18610548 39.8724808,5.28995528 L39.9020752,5.38794136 C40.2245311,5.27536127 40.4110176,5.22216249 40.6359507,5.1815714 C41.0828674,5.09278799 41.278574,5.06288136 41.5160057,5.06288136 C42.1400351,5.06288136 42.5975564,5.20334788 42.8776478,5.51633574 C43.156394,5.82782044 43.2853559,6.26014577 43.2853559,6.85050847 L43.2853559,7.47694915 C43.2853559,7.61502034 43.1734271,7.72694915 43.0353559,7.72694915 L41.7740086,7.72694915 C41.4760651,7.72694915 41.2073404,7.75364126 40.9597723,7.80814677 C40.5584432,7.88289092 40.2167725,8.03016792 39.9185366,8.24552214 C39.486066,8.57401524 39.271978,9.0170383 39.271978,9.61016949 C39.271978,10.1287426 39.438192,10.5536592 39.7356034,10.8472566 C40.0786206,11.1617626 40.5138953,11.3225424 41.083612,11.3225424 C41.4894118,11.3225424 41.8465541,11.2401908 42.1685331,11.0679853 C42.4502407,10.9153579 42.6789814,10.7133975 42.8383298,10.4920002 C42.8562103,10.4564792 42.8715894,10.431656 42.8970545,10.3938986 C42.9145899,10.3675882 42.9183221,10.361564 42.9243308,10.3496273 C43.0427805,10.1143179 43.397635,10.1985934 43.397635,10.4620339 L43.397635,11.1801695 L43.5562479,11.1801695 C43.5545224,10.8895472 43.5497931,10.6294708 43.542749,10.3886658 Z M37.8202942,6.57376249 C37.8432603,6.50845932 37.8432603,6.50845932 37.8434066,6.47559322 L37.7974783,6.60991014 C37.8061967,6.59864954 37.8138576,6.58654922 37.8202942,6.57376249 Z M36.4679721,7.56716014 C36.4525328,7.57227203 36.2744477,7.63320076 36.2210623,7.650073 C36.1209518,7.68171255 36.0342463,7.70372191 35.9541004,7.71672581 C35.4961641,7.8141964 35.0541729,7.86457627 34.5833731,7.86457627 L33.490329,7.86457627 L33.5170735,11.3689396 C33.5181329,11.5077524 33.4058976,11.6208475 33.2670807,11.6208475 L32.4357382,11.6208475 C32.297667,11.6208475 32.1857382,11.5089186 32.1857382,11.3708475 L32.1857382,2.23762712 C32.1857382,2.22562236 32.1865843,2.21381522 32.1882202,2.2022621 C32.1918703,2.06737664 32.3023601,1.95915254 32.4381271,1.95915254 L34.643096,1.95915254 C35.7723793,1.95915254 36.6691087,2.17836563 37.3142668,2.6362449 C37.9919663,3.14912172 38.3307453,3.88343355 38.3305044,4.86588748 C38.2990105,5.58277868 38.1358846,6.16081822 37.8250426,6.59307614 C37.8131754,6.60957872 37.7994848,6.62438359 37.7843523,6.63729525 C37.4689779,7.04094779 37.0322574,7.34950665 36.4679721,7.56716014 Z M32.6857382,11.1208475 L33.0151655,11.1208475 L32.988421,7.61648416 C32.9873617,7.47767134 33.0995969,7.36457627 33.2384138,7.36457627 L34.5833731,7.36457627 C35.017631,7.36457627 35.4250017,7.31814258 35.8612232,7.22556031 C35.9266352,7.21473148 35.9912116,7.19833939 36.0703853,7.17331683 C36.1170588,7.15856586 36.2904199,7.0992534 36.2993106,7.09662432 C36.7605358,6.91846286 37.1167734,6.67010395 37.3727331,6.35168922 C37.392375,6.31182185 37.4189331,6.2796266 37.451364,6.25455602 C37.6781885,5.91409653 37.8046364,5.44398432 37.8307453,4.85491525 C37.8307453,4.03498191 37.5607952,3.44985856 37.0187403,3.03948789 C36.4758963,2.6543447 35.6774287,2.45915254 34.643096,2.45915254 L32.6857382,2.45915254 L32.6857382,11.1208475 Z M32.6857382,2.27232806 C32.687313,2.26098668 32.6881271,2.24940197 32.6881271,2.23762712 L32.6881271,2.20915254 L32.4381271,2.20915254 L32.4381271,2.45915254 L32.6857382,2.45915254 L32.6857382,2.23762712 L32.4357382,2.23762712 L32.4357382,2.48762712 C32.4799878,2.48762712 32.5194455,2.47733868 32.5541096,2.45915254 C32.624029,2.42246999 32.674445,2.35365536 32.6857382,2.27232806 Z M33.4884138,6.98813559 C33.4884138,7.12620678 33.3764849,7.23813559 33.2384138,7.23813559 C33.0979537,7.23813559 32.9860248,7.12620678 32.9860248,6.98813559 L32.9860248,6.9620339 C32.9860248,6.82396271 33.0979537,6.7120339 33.2360248,6.7120339 L33.4884138,6.71210051 L33.4884138,6.98813559 Z M34.5391483,6.71237783 C35.0426238,6.73881464 35.4415751,6.68842753 35.8124019,6.55691086 C36.0748846,6.45914048 36.2185323,6.38779871 36.3254918,6.30059516 C36.4886383,6.13854365 36.5556036,6.06759341 36.6152976,5.98858067 C36.8100837,5.72254752 36.9110129,5.34660319 36.9110129,4.85491525 C36.9110129,4.22839835 36.7198363,3.78786604 36.3606876,3.52611523 C35.9551878,3.24920521 35.3796723,3.1140678 34.5833731,3.1140678 L33.4884138,3.1140678 L33.4884138,6.71210051 L34.5391483,6.71237783 Z M33.2360248,6.9620339 L33.4860248,6.9620339 L33.4860248,6.98813559 L33.2360248,6.98813559 L33.2360248,6.73813559 L33.2384138,6.98813559 L33.2360248,6.9620339 Z M32.9884138,6.98813559 L32.9884138,2.8640678 C32.9884138,2.72599661 33.1003426,2.6140678 33.2384138,2.6140678 L34.5833731,2.6140678 C35.4717144,2.6140678 36.1423187,2.77153312 36.6488656,3.11758649 C37.1536206,3.48525574 37.4110129,4.07837038 37.4110129,4.85491525 C37.4110129,5.44526122 37.2826063,5.92355418 37.0165227,6.28691752 C36.9350796,6.39477947 36.85871,6.47569364 36.6610818,6.67055012 C36.4838088,6.81728604 36.2977862,6.90967308 35.9832486,7.02680028 C35.543524,7.1827907 35.0792575,7.24142704 34.5260392,7.2120339 L33.2360248,7.2120339 L33.2360248,6.98813559 L32.9884138,6.98813559 Z M41.9173435,8.20389831 C41.6477526,8.20389831 41.4257181,8.23617307 41.0825526,8.31192024 C40.8341588,8.36674837 40.6531452,8.44214782 40.5186796,8.55302575 C40.2445089,8.7572737 40.1033206,9.07865846 40.1033206,9.52 C40.1033206,9.9451259 40.1975716,10.2149671 40.4122871,10.4068442 C40.5825518,10.5971064 40.8514894,10.6937288 41.2293359,10.6937288 C41.6042718,10.6937288 41.9240851,10.6122358 42.1625076,10.461393 C42.3636954,10.3015213 42.445239,10.2290509 42.4967149,10.1740341 C42.5179705,10.1318082 42.5414846,10.0953141 42.5683169,10.0619989 C42.5777548,10.0502806 42.58652,10.0401251 42.6033002,10.0246243 L42.8140229,9.67577706 L42.8140229,8.20389831 L41.9173435,8.20389831 Z M40.060526,10.7609658 C39.7451728,10.4825333 39.6033206,10.0764095 39.6033206,9.52 C39.6033206,8.92913815 39.8107849,8.45689029 40.2099168,8.15995835 C40.4049396,7.99853014 40.6555689,7.89413299 40.9747814,7.82367298 C41.3503381,7.74077608 41.6040391,7.70389831 41.9173435,7.70389831 L43.0640229,7.70389831 C43.2020941,7.70389831 43.3140229,7.81582712 43.3140229,7.95389831 L43.3140229,9.74542373 L43.2780125,9.87468503 L42.9178235,10.3961492 L42.9822005,10.3499133 C42.9646699,10.3674703 42.9621556,10.3701239 42.9577223,10.3756283 C42.9530209,10.3814656 42.948687,10.3881918 42.9147218,10.4432554 C42.803686,10.5811186 42.703672,10.6700042 42.4748551,10.8518274 L42.4533876,10.8672146 C42.1073907,11.0885202 41.694507,11.1937288 41.2293359,11.1937288 C40.7201921,11.1937288 40.3153175,11.0482677 40.060526,10.7609658 Z" id="Shape" fill="#787878"></path>
                            <path d="M27.3091257,5.56050847 C26.6603428,5.56050847 26.1749105,5.76846518 25.7733041,6.19397018 C25.4002366,6.58923787 25.2108218,7.23043959 25.2108218,8.12711864 C25.2108218,8.96369408 25.4146162,9.62439191 25.7844184,10.0443906 C26.1323422,10.4665468 26.6046829,10.6652542 27.2804587,10.6652542 C27.9302172,10.6652542 28.4327919,10.4628325 28.7825163,10.0658334 C29.1613362,9.63938576 29.3500956,8.99393768 29.3500956,8.09864407 C29.3500956,7.23802837 29.1628471,6.58761122 28.8051659,6.18137207 C28.4631873,5.76642952 27.9674172,5.56050847 27.3091257,5.56050847 Z M27.3091257,5.06050847 C28.109086,5.06050847 28.7480544,5.32590782 29.1856823,5.85711945 C29.6296639,6.36112135 29.8500956,7.12680214 29.8500956,8.09864407 C29.8500956,9.10599219 29.6273503,9.86765257 29.1570153,10.3971178 C28.7076458,10.907236 28.0670356,11.1652542 27.2804587,11.1652542 C26.462366,11.1652542 25.846856,10.9063173 25.403902,10.3686433 C24.9506818,9.85415385 24.7108218,9.07653191 24.7108218,8.12711864 C24.7108218,7.11428279 24.9357272,6.3529393 25.4096869,5.85077558 C25.906054,5.32487096 26.523154,5.06050847 27.3091257,5.06050847 Z M29.8422503,5.42690553 C30.4330231,6.07548241 30.7373151,6.958303 30.7674391,8.09864407 C30.7674391,8.82706147 30.6232452,9.4671813 30.3394055,10.0310506 C30.0513509,10.603293 29.6685917,11.029106 29.1533395,11.3301606 C28.6284848,11.6383371 28.0115516,11.7916949 27.2987518,11.7914796 C26.5759351,11.7614601 25.9648567,11.6095577 25.4695566,11.3328213 C24.9657277,11.0513198 24.5585226,10.6151245 24.2741295,10.0496205 C24.0156697,9.47466348 23.8794792,8.83585813 23.8794792,8.12711864 C23.8794792,7.36651245 24.0066822,6.73538598 24.2739522,6.20501206 C24.5258308,5.64208909 24.937501,5.20111076 25.4649118,4.92407673 C25.9897665,4.61590022 26.6066997,4.46254237 27.3091257,4.46254237 C28.3536321,4.46254237 29.1974538,4.78599696 29.8422503,5.42690553 Z M25.7078528,5.36093227 C25.2697886,5.59129203 24.9366613,5.94813572 24.7254542,6.4195252 C24.4913711,6.88454911 24.3794792,7.43970889 24.3794792,8.12711864 C24.3794792,8.76538481 24.5007703,9.33430416 24.7254542,9.83471209 C24.9611732,10.3029858 25.2988302,10.6646817 25.7134343,10.8963312 C26.1349991,11.1318698 26.6703618,11.2649508 27.3091257,11.2916949 C27.9259782,11.2916949 28.4555657,11.1600495 28.9006345,10.8987212 C29.3294083,10.6481942 29.6466033,10.2953203 29.8927971,9.80623751 C30.140595,9.31396811 30.2674391,8.75086895 30.2675268,8.10526515 C30.2404675,7.08391394 29.9757866,6.31601414 29.4812491,5.77262518 C28.9421303,5.23712489 28.225805,4.96254237 27.3091257,4.96254237 C26.6922731,4.96254237 26.1626856,5.09418774 25.7078528,5.36093227 Z M21.451503,4.91717601 C21.8219363,4.6161285 22.2532557,4.46254237 22.7558528,4.46254237 C22.8492748,4.46254213 22.8492748,4.46254213 22.9496943,4.46220847 C23.0413637,4.46161098 23.0413637,4.46161098 23.2094915,4.47283986 C23.2406301,4.48314973 23.2686359,4.49139205 23.3425013,4.51237892 C23.4191376,4.53410391 23.4556325,4.54484465 23.4961613,4.55826358 C23.6168809,4.59823335 23.6883621,4.72245547 23.6622585,4.84691185 L23.5189236,5.53030168 C23.4882892,5.67635988 23.3373413,5.76321998 23.1956686,5.71631269 C23.0925285,5.68216342 23.0517367,5.6720339 22.955994,5.66466502 C22.9162387,5.6547929 22.8807174,5.64931798 22.8408834,5.64649179 C22.8066253,5.6440612 22.7773195,5.64355932 22.7009078,5.64355932 C22.3413056,5.64355932 22.0399951,5.7844008 21.8030862,6.06678339 C21.6812721,6.21197917 21.5776449,6.38756847 21.4670894,6.63464895 C21.3302026,6.94057697 21.2374242,7.19246928 21.1735547,7.41525424 L21.1735547,11.4016949 C21.1735547,11.5397661 21.0616259,11.6516949 20.9235547,11.6516949 L20.1758242,11.6516949 C20.037753,11.6516949 19.9258242,11.5397661 19.9258242,11.4016949 L19.9258242,4.85728814 C19.9258242,4.71921695 20.037753,4.60728814 20.1758242,4.60728814 L20.8351648,4.60728814 C20.9694665,4.60728814 21.0797722,4.7133988 21.084977,4.84759952 L21.1024669,5.29856108 C21.2075806,5.148409 21.3234844,5.02121551 21.451503,4.91717601 Z M20.6426866,6.34528183 L20.5946728,5.10728814 L20.4258242,5.10728814 L20.4258242,11.1516949 L20.6740217,11.1516949 L20.6811158,7.35423495 C20.7482222,7.08761065 20.8316488,6.84799255 20.945019,6.58091789 C20.8076639,6.60782673 20.6495217,6.52151737 20.6426866,6.34528183 Z M23.1275613,4.96046951 C23.1299253,4.96029548 23.1327256,4.96017851 23.1359793,4.96011814 C23.1330975,4.96016554 23.1303085,4.96021141 23.1276062,4.96025582 C23.0464018,4.96159045 23.0434621,4.96160954 22.9521858,4.96220226 C22.8497147,4.96254262 22.8497147,4.96254262 22.7558528,4.96254237 C22.3682646,4.96254237 22.0482636,5.07648976 21.7668438,5.30519687 C21.6292814,5.41699249 21.5048314,5.57464484 21.3930782,5.77821206 C21.4019712,5.76717378 21.4109559,5.75624595 21.4200385,5.74542 C21.7518455,5.34992397 22.1933336,5.14355932 22.7009078,5.14355932 C22.7893312,5.14355932 22.826155,5.14418995 22.876269,5.1477455 C22.944147,5.15256138 23.0080978,5.16241819 23.0162446,5.1720339 C23.0395699,5.1720339 23.0613062,5.1728921 23.0826167,5.17475608 L23.1729063,4.74427459 L23.4175824,4.79559322 L23.3390035,5.03292286 C23.3078649,5.02261298 23.2798591,5.01437066 23.2059937,4.99338379 C23.1674205,4.982449 23.1390167,4.97429694 23.1258152,4.96879457 C23.1147676,4.96418992 23.1143664,4.96144089 23.1275613,4.96046951 Z M16.8735069,5.67440678 L16.8735069,9.77627119 C16.8735069,10.1206186 16.9272225,10.3340389 17.0421142,10.4671796 C17.1610762,10.605037 17.3196316,10.6652542 17.5981844,10.6652542 C17.743122,10.6652542 17.8886307,10.6411656 18.0356113,10.5925009 C18.1761447,10.5459708 18.3295464,10.4730972 18.4735414,10.3872801 C18.5909661,10.3172981 18.7428269,10.3546053 18.8144572,10.4710318 L19.129794,10.9835742 C19.2068238,11.1087768 19.1597256,11.2730957 19.0286691,11.3381831 C19.0822856,11.3115558 18.7717468,11.4683114 18.692333,11.5051224 C18.5577467,11.5675078 18.440031,11.6115945 18.3447888,11.6335976 C18.1017046,11.7241424 17.8263103,11.7632203 17.5121835,11.7632203 C16.9404349,11.7632203 16.5010438,11.6015752 16.1606566,11.2634726 C15.8215646,10.9266565 15.6568323,10.4357766 15.6568323,9.80474576 L15.6568323,5.67440678 L14.7888199,5.67440678 C14.6507487,5.67440678 14.5388199,5.56247797 14.5388199,5.42440678 L14.5388199,4.85491525 C14.5388199,4.71684407 14.6507487,4.60491525 14.7888199,4.60491525 L15.6568323,4.60491525 L15.6568323,3.29118644 C15.6568323,3.16456045 15.7515072,3.0579307 15.8772431,3.04294366 L16.5939177,2.95751993 C16.742666,2.93978994 16.8735069,3.05596153 16.8735069,3.20576271 L16.8735069,4.60491525 L18.3411371,4.60491525 C18.4940791,4.60491525 18.6111717,4.74101804 18.5883343,4.89224539 L18.5023334,5.46173692 C18.4838691,5.58400574 18.3787913,5.67440678 18.2551362,5.67440678 L16.8735069,5.67440678 Z M18.5126611,10.9346815 C18.4060319,10.9871736 18.2979943,11.0323205 18.1927691,11.0671601 C17.9957458,11.1323938 17.7972507,11.1652542 17.5981844,11.1652542 C17.1843193,11.1652542 16.8864632,11.0521325 16.6635714,10.7938374 C16.4546948,10.5517836 16.3735069,10.2292119 16.3735069,9.77627119 L16.3735069,5.42440678 C16.3735069,5.28633559 16.4854357,5.17440678 16.6235069,5.17440678 L18.040055,5.17440678 L18.0505492,5.10491525 L16.6235069,5.10491525 C16.4854357,5.10491525 16.3735069,4.99298644 16.3735069,4.85491525 L16.3735069,3.48733101 L16.1568323,3.51315745 L16.1568323,4.85491525 C16.1568323,4.99298644 16.0449035,5.10491525 15.9068323,5.10491525 L15.0388199,5.10491525 L15.0388199,5.17440678 L15.9068323,5.17440678 C16.0449035,5.17440678 16.1568323,5.28633559 16.1568323,5.42440678 L16.1568323,9.80474576 C16.1568323,10.3126979 16.2787699,10.6760553 16.5130175,10.9087308 C16.7544015,11.1484946 17.0662541,11.2632203 17.5121835,11.2632203 C17.7713963,11.2632203 17.9899563,11.232207 18.1972744,11.1566909 C18.2849355,11.1349228 18.3741109,11.1015249 18.4820578,11.0514878 C18.4984347,11.0438966 18.5271436,11.0299234 18.5609888,11.0132323 L18.5126611,10.9346815 Z M12.8630987,4.6460602 C13.1983544,4.75706201 13.5095605,4.93566315 13.9055925,5.22175324 C14.0159227,5.30145482 14.0422221,5.45477221 13.964761,5.56668675 L13.6494241,6.02227997 C13.5679204,6.14003508 13.4043489,6.16539088 13.2910197,6.07783751 C13.0853271,5.91892818 12.85108,5.79034471 12.5697906,5.66399572 C12.2833231,5.57863226 11.9951417,5.5320339 11.7238414,5.5320339 C11.3234254,5.5320339 11.0134345,5.61209057 10.8160038,5.76461717 C10.6088072,5.92468844 10.5118251,6.11228059 10.5118251,6.3640678 C10.5118251,6.60761694 10.5955058,6.77874426 10.7984935,6.91571447 C10.9841943,7.07711205 11.3713053,7.23622077 11.9240718,7.37350942 C12.4316471,7.4921373 12.8534876,7.64178345 13.190282,7.82425648 C13.5543389,8.02150014 13.8127505,8.25411384 13.977388,8.54847233 C14.1484605,8.85433598 14.2385332,9.21220864 14.2385332,9.61016949 C14.2385332,10.0890125 14.1075827,10.4873567 13.8392321,10.8205435 C13.576746,11.1464489 13.2539797,11.3949139 12.8737392,11.5521819 C12.454302,11.7124211 12.0236757,11.7964407 11.5805065,11.7964407 C11.0292797,11.7964407 10.5365487,11.7122113 10.1176607,11.5521819 C9.70736352,11.3954344 9.34014781,11.178136 9.03691738,10.9070603 C8.93200722,10.8132749 8.92513897,10.6514164 9.021727,10.5490807 L9.45173177,10.0934874 C9.54428425,9.99542742 9.69792653,9.98843306 9.79900582,10.0776783 C10.0335644,10.2847754 10.2929548,10.439365 10.5784786,10.542495 C10.8684362,10.6472264 11.1844522,10.6984746 11.5542284,10.6984746 C11.9839217,10.6984746 12.3391053,10.6022565 12.5740427,10.4395254 C12.8221873,10.2423422 12.9382465,10.0222616 12.9382465,9.7240678 C12.9382465,9.472694 12.9069831,9.31225021 12.8373316,9.2084743 C12.7483045,9.07582994 12.6072843,8.95816799 12.3794523,8.83244424 C12.1555633,8.70889627 11.8428095,8.60111814 11.3723649,8.48419009 C10.6223311,8.27489252 10.10335,8.03158247 9.75505175,7.71707292 C9.39057889,7.38795785 9.21392738,6.95347098 9.21392738,6.42101695 C9.21392738,6.01767392 9.32144054,5.68086981 9.56300378,5.37305165 C9.82485212,5.07580496 10.1115895,4.85257329 10.4503985,4.71248622 C10.8132056,4.54868081 11.223157,4.46254237 11.6712852,4.46254237 C12.1295626,4.46254237 12.5307988,4.52405385 12.8630987,4.6460602 Z M12.6984384,5.11810239 C12.4179807,5.01524383 12.0742119,4.96254237 11.6712852,4.96254237 C11.2932831,4.96254237 10.9535057,5.03393595 10.6488759,5.17133691 C10.3808143,5.28227958 10.1532007,5.45948208 9.9474329,5.69243399 C9.78667897,5.89773038 9.71392738,6.12563768 9.71392738,6.42101695 C9.71392738,6.81737647 9.83526997,7.11582714 10.0901465,7.34597793 C10.3709586,7.59954817 10.8246415,7.81224497 11.4998111,8.00075871 C12.0019361,8.12544743 12.3513438,8.24585686 12.6210254,8.3946744 C12.9132306,8.555921 13.1139202,8.72336882 13.2524916,8.92983078 C13.3900243,9.13474516 13.4382465,9.38222126 13.4382465,9.7240678 C13.4382465,10.1817446 13.247898,10.5426981 12.8722924,10.8405143 C12.5345058,11.0753778 12.0801012,11.1984746 11.5542284,11.1984746 C11.1284957,11.1984746 10.7551769,11.1379337 10.4086212,11.0127592 C10.1383833,10.9151505 9.88727195,10.7792653 9.65591205,10.6056066 L9.57050328,10.6960979 C9.78424223,10.8521685 10.0286478,10.9829307 10.2960994,11.0851063 C10.6557927,11.2225213 11.0882115,11.2964407 11.5805065,11.2964407 C11.9608615,11.2964407 12.3313129,11.2241619 12.6889167,11.0876461 C12.9830674,10.965906 13.2385531,10.7692335 13.4498267,10.5069141 C13.6441019,10.2657 13.7385332,9.97844517 13.7385332,9.61016949 C13.7385332,9.29626593 13.6696345,9.02252072 13.5410066,8.79254462 C13.426993,8.58869759 13.2385779,8.41909242 12.9520973,8.26387911 C12.6582181,8.10465723 12.277383,7.96955761 11.8069256,7.85958027 C11.180157,7.7039398 10.7306094,7.51916864 10.4964673,7.31284882 C10.173227,7.0988017 10.0118251,6.768734 10.0118251,6.3640678 C10.0118251,5.95344644 10.1834527,5.62146749 10.5103221,5.36894216 C10.8078582,5.13907842 11.2223499,5.0320339 11.7238414,5.0320339 C12.0463571,5.0320339 12.3819777,5.0863031 12.7421495,5.1957014 C12.9885437,5.30447492 13.1950818,5.41030218 13.3817275,5.53049391 L13.4119565,5.48681954 C13.1479621,5.30973145 12.9274762,5.19404293 12.6984384,5.11810239 Z M2.0859269,11.5332238 C2.05255304,11.636383 1.95648841,11.7062712 1.84806498,11.7062712 L1.01672241,11.7062712 C0.845992058,11.7062712 0.725490348,11.5389316 0.779620007,11.3770093 L3.87087658,2.12989062 C3.9049681,2.02790997 4.00045091,1.95915254 4.10797898,1.95915254 L5.13999044,1.95915254 C5.2472196,1.95915254 5.34250696,2.02753439 5.37683402,2.12912054 L8.5015354,11.3762392 C8.55630045,11.5383087 8.43576417,11.7062712 8.26469183,11.7062712 L7.40468227,11.7062712 C7.29696346,11.7062712 7.20135624,11.6372736 7.16741608,11.5350414 L6.19464028,8.60491525 L3.03328744,8.60491525 L2.0859269,11.5332238 Z M7.91632687,11.2062712 L4.96058089,2.45915254 L4.28800466,2.45915254 L1.3638951,11.2062712 L1.666187,11.2062712 L2.61354754,8.27796264 C2.6469214,8.17480341 2.74298603,8.10491525 2.85140946,8.10491525 L6.37505972,8.10491525 C6.48277854,8.10491525 6.57838576,8.17391286 6.61232591,8.27614499 L7.58510172,11.2062712 L7.91632687,11.2062712 Z" id="Shape" fill="#131313"></path>
                        </g>
                    </g>
                </g>
            </g>
        </g>
    </g>
</svg>