<?xml version="1.0" encoding="UTF-8"?><svg width="56" height="36" viewBox="0 0 56 36" xmlns="http://www.w3.org/2000/svg"><defs><radialGradient cx="49.655%" cy="-17.937%" fx="49.655%" fy="-17.937%" r="11.077%" gradientTransform="matrix(.12637 0 0 1 .434 0)" id="a"><stop stop-color="#0F86B2" offset="0%"/><stop stop-color="#70D3FE" offset="69.8%"/></radialGradient><radialGradient cx="22.535%" cy="7.392%" fx="22.535%" fy="7.392%" r="22.028%" gradientTransform="matrix(.98717 0 0 1 .003 0)" id="b"><stop stop-color="#6BC3FF" offset="23.9%"/><stop stop-color="#187FC4" offset="100%"/></radialGradient><linearGradient x1="38.092%" y1="-32.4%" x2="43.86%" y2="-21.244%" id="c"><stop stop-color="#FFF" offset="0%"/><stop stop-color="#8AFBFF" offset="100%"/></linearGradient></defs><g fill="none" fill-rule="evenodd"><path d="M0 3.75A3.749 3.749 0 013.75 0h48.5A3.756 3.756 0 0156 3.75v28.5A3.749 3.749 0 0152.25 36H3.75A3.756 3.756 0 010 32.25V3.75z" fill="#000" fill-rule="nonzero"/><path d="M1.25 3.75v28.5c0 1.375 1.123 2.5 2.5 2.5h48.5c1.382 0 2.5-1.118 2.5-2.5V3.75c0-1.375-1.123-2.5-2.5-2.5H3.75a2.499 2.499 0 00-2.5 2.5z" fill="#FFF"/><g><g fill-rule="nonzero"><path d="M10.06 13.154l-.248-.268c-1.542.456-2.657.953-3.362 1.483-.501.377-.85.715-1.047 1.008.13-.184.322-.367.57-.555 1.114-.799 2.472-1.36 4.086-1.668zm-.346-.451L9.4 12.31c-2.166.777-3.88 1.777-5.15 3.024-.876 1.06-.866 1.9.032 2.542-.684-.617-.618-1.405.182-2.37 1.261-1.24 3.013-2.173 5.251-2.803z" fill="#315155"/><path d="M2.973 10.972c0 .084.296.155.896.215.6.062 1.317.093 2.166.093.841 0 1.566-.03 2.166-.093.6-.062.896-.13.896-.215 0-.084-.296-.16-.896-.223-.6-.062-1.318-.084-2.166-.084-.842 0-1.566.03-2.166.084-.6.069-.896.138-.896.223z" fill="url(#a)" transform="translate(3.102 12.103)"/><g><path d="M7.46 1.264A4.335 4.335 0 006.071.339a4.361 4.361 0 00-1.7-.34 4.405 4.405 0 00-3.09 1.264A4.26 4.26 0 000 4.314a4.257 4.257 0 001.28 3.05c.403.4.866.708 1.388.925.542.227 1.108.34 1.701.34s1.159-.112 1.701-.34a4.29 4.29 0 001.389-.924 4.282 4.282 0 001.28-3.05 4.274 4.274 0 00-1.28-3.05z" transform="rotate(-14.931 61.27 -6.361)" fill="url(#b)"/><path d="M.002 1.686l.038.055.101.1.017-.026.083.054-.107-.128.039.054-.124-.164c-.016.019-.03.038-.047.055zm3.24.568h.1v-.1h-.1v.1zm-.743 0h.1v-.1h-.1v.1zm-.279-.42h-.092c-.055 0-.087.007-.099.02a.34.34 0 01-.04.07h.14c.05 0 .091.005.123.015.02.004.055.016.107.033l.14.045.049.094.285.014-.099.079h.416v-.09h-.095c0-.034-.009-.05-.031-.053a.873.873 0 01-.109.007.425.425 0 01-.123-.015c-.037-.012-.073-.024-.107-.033l-.235-.09h-.092l-.138-.096zM4.03.093L3.984.047l.007-.026-.087-.007-.106.167.37.05.046-.045-.046-.09H4.03V.092zm.377 3.257l-.053-.098a.279.279 0 00-.13-.169.81.81 0 00-.206-.074 1.485 1.485 0 01-.213-.067.277.277 0 01-.145-.146l.046-.083-.278.038h-.184l-.232-.09-.056-.1-.084.1h-.095v.045h.012-.104l-.048.09-.044.046a.257.257 0 00-.058-.034.216.216 0 00-.082-.012.834.834 0 00-.126.005c.005.012.003.026-.015.043h-.046l-.14-.093v-.32L2.08 2.34l-.298-.007.121-.323-.055-.038h-.14l-.139.184h-.278l-.232-.23.005-.403.227-.146h.184v.09h.14l.046-.045v-.09l.37.045.14.23v.092h.095a.521.521 0 00-.048-.229.337.337 0 01-.046-.139c0-.052.05-.114.15-.18.053-.039.128-.084.222-.14V.828L2.59.783h.046l.138-.046.049-.048h.14V.505L3.01.37h.046L3.29.322l.046.143.184-.05.099-.079L3.474.28 3.418.24 3.38.186V.14L3.426.1 3.15.047V.004A4.405 4.405 0 00.157 1.501l.44.468.003.134.184.094H.83l.046.045h.046l.046.045.232.098.179-.045.329.177c.043.028.094.06.157.09.043.034.068.093.075.184h.14l.046.093h.14l.093.046.004-.1.136.054a.71.71 0 00.034.106c.01.031.015.071.015.122v.045c0 .048-.032.103-.095.165a.522.522 0 00-.14.248l.05.089c-.046.033-.08.055-.099.067a.906.906 0 00.003.167c.063.021.094.036.094.045 0 .02.032.05.092.093l.046.14.049.044v.046l.038.052.056.038.232.23.184.093-.279 1.557.102.048-.056.134v.136l-.048.139v.093c.055.079.094.134.111.165.012.012.068.048.167.11l.003.083.043.024h.152c.013-.033.013-.053 0-.06C3.25 7.1 3.232 7.1 3.198 7.1c-.065 0-.097-.048-.097-.138 0-.055.022-.103.063-.144a1.16 1.16 0 01.124-.086l-.058-.226.15-.093V6.23l.179-.002.053-.136h.275l.1-.132-.061-.14.242-.003.23-.32c.019-.026.04-.055.067-.083a.171.171 0 00.026-.1v-.046l.01-.081.13-.148h.14l.047-.045h.186l.232-.688.24-.266-.01-.193a.636.636 0 00-.164-.055c-.025-.01-.063-.053-.116-.129h-.091a2.208 2.208 0 01-.107.007c-.021-.002-.032-.019-.032-.052h-.091l-.09.052-.049-.146H4.68l-.046-.045H4.59l-.085.103-.01-.1-.14.045-.046-.045.1-.133z" transform="rotate(-14.931 60.834 -9.759)" fill="url(#c)"/></g></g><path d="M16.025 13.487v4.35h-.761v-4.35h-1.16v-.72h3.077v.72h-1.156zm1.308 1.153h.735v.285c.135-.142.255-.24.36-.292a.82.82 0 01.378-.082c.194 0 .397.063.608.19l-.337.677a.7.7 0 00-.408-.151c-.4 0-.6.304-.6.913v1.658h-.736V14.64zm4.643 0h.738v3.198h-.738v-.335c-.302.284-.628.427-.976.427-.44 0-.804-.16-1.091-.48-.285-.326-.428-.733-.428-1.221 0-.48.143-.88.428-1.199.285-.32.642-.48 1.071-.48.37 0 .702.154.996.46v-.37zm-1.744 1.589c0 .306.082.556.245.749a.8.8 0 00.634.292.841.841 0 00.66-.283c.167-.194.251-.442.251-.742s-.084-.547-.251-.742a.83.83 0 00-.654-.285.81.81 0 00-.633.288 1.069 1.069 0 00-.252.723zm3.252-1.59h.738v.296c.257-.256.546-.384.869-.384.37 0 .658.117.865.351.179.2.268.525.268.976v1.96h-.738v-1.786c0-.316-.044-.533-.13-.654-.086-.122-.24-.184-.465-.184-.243 0-.416.081-.519.243-.1.16-.15.44-.15.838v1.543h-.738V14.64zm5.358.546l-.607.325c-.096-.197-.215-.296-.356-.296a.244.244 0 00-.174.068.226.226 0 00-.071.172c0 .123.141.244.424.364.39.169.652.324.787.467.135.142.203.334.203.574 0 .309-.113.567-.34.775-.22.197-.485.296-.797.296-.533 0-.911-.262-1.133-.785l.627-.292c.087.153.153.25.2.292.088.083.195.125.32.125.247 0 .372-.114.372-.342 0-.131-.096-.254-.288-.367a10.346 10.346 0 00-.222-.109l-.225-.108c-.214-.105-.364-.21-.451-.315a.78.78 0 01-.167-.516c0-.278.095-.508.285-.69a.994.994 0 01.705-.272c.407 0 .71.211.908.634zm1.468.144v2.509h-.738v-2.509h-.261v-.69h.261v-1.234c0-.403.07-.687.21-.854.19-.232.47-.348.835-.348.131 0 .295.038.494.115v.755l-.076-.04c-.159-.08-.29-.12-.391-.12-.131 0-.22.046-.265.14-.046.093-.069.27-.069.533v1.054h.8v.69h-.8zm4.065 1.084h-2.28c.02.262.105.471.255.627.15.153.343.23.578.23a.749.749 0 00.454-.132c.118-.087.252-.25.402-.486l.62.349a2.481 2.481 0 01-.303.421 1.617 1.617 0 01-.343.29c-.122.075-.254.13-.395.165a1.914 1.914 0 01-.46.053c-.475 0-.856-.153-1.144-.46-.287-.309-.43-.718-.43-1.228 0-.506.138-.915.417-1.228.281-.309.653-.463 1.117-.463.468 0 .838.15 1.11.45.27.298.405.71.405 1.238l-.003.174zm-.754-.604c-.103-.394-.35-.591-.742-.591a.718.718 0 00-.63.345.865.865 0 00-.104.246h1.476zm1.4-1.17h.734v.286c.135-.142.255-.24.36-.292a.82.82 0 01.379-.082c.193 0 .396.063.607.19l-.336.677a.7.7 0 00-.409-.151c-.4 0-.6.304-.6.913v1.658h-.735V14.64zm5.194 1.774h-2.28c.02.262.105.471.256.627.15.153.342.23.578.23a.749.749 0 00.454-.132c.117-.087.251-.25.401-.486l.62.349a2.481 2.481 0 01-.303.421 1.617 1.617 0 01-.343.29c-.122.075-.253.13-.395.165a1.914 1.914 0 01-.46.053c-.475 0-.856-.153-1.144-.46-.287-.309-.43-.718-.43-1.228 0-.506.139-.915.417-1.228.281-.309.654-.463 1.117-.463.468 0 .839.15 1.11.45.27.298.406.71.406 1.238l-.004.174zm-.754-.604c-.102-.394-.35-.591-.741-.591a.718.718 0 00-.63.345.865.865 0 00-.105.246h1.476zm1.4-1.17h.738v.296c.257-.256.546-.384.869-.384.37 0 .658.117.865.351.179.2.268.525.268.976v1.96h-.738v-1.786c0-.316-.044-.533-.13-.654-.086-.122-.24-.184-.465-.184-.243 0-.417.081-.519.243-.1.16-.15.44-.15.838v1.543h-.738V14.64zm5.985.138v.982c-.168-.205-.318-.347-.45-.423a.874.874 0 00-.461-.118.905.905 0 00-.69.292 1.028 1.028 0 00-.274.732c0 .3.089.546.265.739a.89.89 0 00.683.289.93.93 0 00.467-.115c.13-.075.284-.22.46-.434v.976a1.922 1.922 0 01-.895.233c-.492 0-.903-.16-1.234-.48a1.604 1.604 0 01-.497-1.198c0-.477.168-.88.503-1.209a1.697 1.697 0 011.235-.492c.313 0 .61.075.888.226zm1.289-.137v3.198H47.4V14.64h.735zm-.846-1.33c0-.13.047-.241.14-.335a.458.458 0 01.337-.141c.133 0 .246.047.34.14.093.093.14.205.14.339a.466.466 0 01-.14.341.45.45 0 01-.337.142.461.461 0 01-.34-.142.47.47 0 01-.14-.344zm3.964 1.33h.738v3.198h-.738v-.335c-.303.284-.629.427-.977.427-.44 0-.803-.16-1.09-.48-.286-.326-.429-.733-.429-1.221 0-.48.143-.88.428-1.199.285-.32.642-.48 1.071-.48.37 0 .703.154.997.46v-.37zm-1.745 1.589c0 .306.082.556.245.749a.8.8 0 00.634.292.841.841 0 00.66-.283c.167-.194.251-.442.251-.742s-.084-.547-.251-.742a.83.83 0 00-.653-.285.81.81 0 00-.634.288 1.069 1.069 0 00-.252.723z" fill="#000"/><path d="M15.79 21.762h.174c.198 0 .34-.026.427-.077.086-.051.129-.134.129-.247 0-.114-.043-.196-.129-.247-.086-.052-.229-.077-.427-.077h-.174v.648zm0-1.24h.145c.248 0 .371-.099.371-.296 0-.198-.123-.296-.37-.296h-.146v.592zm-.79-1.2h1.177c.28 0 .492.067.637.202.146.135.218.33.218.584a.796.796 0 01-.083.383.697.697 0 01-.252.258.952.952 0 01.289.099.615.615 0 01.3.383c.022.081.032.168.032.26 0 .143-.024.27-.074.38a.774.774 0 01-.21.28.895.895 0 01-.329.17 1.547 1.547 0 01-.435.057H15v-3.056zm4.379 1.921l-.355-1.017-.355 1.017h.71zm.21.604h-1.13l-.181.531h-.843l1.157-3.056h.863l1.158 3.056h-.843l-.182-.53zm1.35.531v-3.056h.79l1.46 1.869v-1.87h.786v3.057h-.786l-1.46-1.869v1.87h-.79zm5.883-2.035a.842.842 0 00-.678-.336.825.825 0 00-.588.241.812.812 0 00-.172.266.876.876 0 00-.062.332c0 .122.02.234.062.336a.819.819 0 00.434.446.8.8 0 00.322.065c.253 0 .48-.108.682-.324v.94l-.08.029a2.324 2.324 0 01-.34.095 1.558 1.558 0 01-.913-.09 1.576 1.576 0 01-.508-.336 1.674 1.674 0 01-.353-.514 1.577 1.577 0 01-.133-.651 1.57 1.57 0 01.482-1.153 1.603 1.603 0 011.119-.453c.121 0 .24.013.357.039.117.026.24.066.369.12v.948zm2.205.9l-.355-1.017-.354 1.017h.71zm.21.604h-1.13l-.18.531h-.843l1.157-3.056h.863l1.157 3.056h-.843l-.181-.53zm2.14-1.16h.15c.156 0 .276-.032.359-.096a.333.333 0 00.125-.28.333.333 0 00-.125-.28c-.083-.065-.203-.097-.359-.097h-.15v.754zm1.739 1.691h-.984l-.754-1.175v1.175h-.79v-3.056h1.23c.169 0 .317.025.443.075.126.05.23.118.312.204a.864.864 0 01.186.3c.042.114.062.235.062.365 0 .233-.055.421-.167.566a.842.842 0 01-.494.294l.956 1.252zm1.1-3.056v3.056h-.79v-3.056h.79zm2.27 1.921l-.355-1.017-.354 1.017h.71zm.21.604h-1.129l-.181.531h-.843l1.157-3.056h.863l1.157 3.056h-.843l-.181-.53zm3.492-2.525v2.383h.947v.673h-1.738v-3.056h.79zm1.963 1.528a.818.818 0 00.254.604.868.868 0 00.6.24.868.868 0 00.604-.24.835.835 0 00-.275-1.384.868.868 0 00-.328-.063.868.868 0 00-.6.239.818.818 0 00-.254.604zm-.827 0a1.604 1.604 0 01.472-1.147c.148-.146.325-.26.53-.343a1.81 1.81 0 01.68-.124c.244 0 .47.042.677.124a1.568 1.568 0 01.883.855c.084.196.125.408.125.635 0 .227-.041.439-.125.634a1.568 1.568 0 01-.883.856 1.815 1.815 0 01-.677.124 1.81 1.81 0 01-.68-.124 1.584 1.584 0 01-.53-.343 1.584 1.584 0 01-.472-1.147zm6.036-.507a.842.842 0 00-.677-.336.825.825 0 00-.589.241.812.812 0 00-.171.266.876.876 0 00-.063.332c0 .122.021.234.063.336a.819.819 0 00.433.446.8.8 0 00.323.065c.253 0 .48-.108.681-.324v.94l-.08.029a2.324 2.324 0 01-.339.095 1.558 1.558 0 01-.913-.09 1.576 1.576 0 01-.508-.336 1.674 1.674 0 01-.353-.514 1.577 1.577 0 01-.133-.651 1.57 1.57 0 01.482-1.153 1.603 1.603 0 011.119-.453c.12 0 .24.013.357.039.116.026.24.066.368.12v.948zm2.206.9l-.355-1.017-.355 1.017h.71zm.21.604h-1.13l-.18.531h-.844l1.158-3.056h.863l1.157 3.056h-.843l-.181-.53zm2.14-2.525v2.383h.948v.673h-1.738v-3.056h.79z" fill="#20AAFE"/></g></g></svg>