<?xml version="1.0" encoding="UTF-8"?>
<svg width="56px" height="36px" viewBox="0 0 56 36" version="1.1" xmlns="http://www.w3.org/2000/svg" xmlns:xlink="http://www.w3.org/1999/xlink">
    <!-- Generator: Sketch 50.2 (55047) - http://www.bohemiancoding.com/sketch -->
    <title>CC/astropay-tef</title>
    <desc>Created with Sketch.</desc>
    <defs></defs>
    <g id="CC/astropay-tef" stroke="none" stroke-width="1" fill="none" fill-rule="evenodd">
        <g id="Group">
            <path d="M0,3.75075247 C0,1.67926908 1.67596877,0 3.75035585,0 L52.2496442,0 C54.3209085,0 56,1.68806916 56,3.75075247 L56,32.2492475 C56,34.3207309 54.3240312,36 52.2496442,36 L3.75035585,36 C1.67909151,36 0,34.3119308 0,32.2492475 L0,3.75075247 Z" id="Rectangle-2" fill="#000000" fill-rule="nonzero"></path>
            <path d="M1.25,3.75075247 L1.25,32.2492475 C1.25,33.6250965 2.37296468,34.75 3.75035585,34.75 L52.2496442,34.75 C53.6324061,34.75 54.75,33.6316447 54.75,32.2492475 L54.75,3.75075247 C54.75,2.37490355 53.6270353,1.25 52.2496442,1.25 L3.75035585,1.25 C2.36759386,1.25 1.25,2.36835527 1.25,3.75075247 Z" id="Path" fill="#FFFFFF"></path>
        </g>
        <g id="Group-17" transform="translate(8.000000, 9.000000)">
            <g id="bank" transform="translate(0.000000, 2.000000)" fill="#4483F6">
                <path d="M0,11.5598256 C0,11.3580311 0.169635773,11.1944444 0.359136164,11.1944444 L11.6408638,11.1944444 C11.8392093,11.1944444 12,11.3610704 12,11.5598256 L12,12.6346189 C12,12.8364133 11.8303642,13 11.6408638,13 L0.359136164,13 C0.160790738,13 0,12.833374 0,12.6346189 L0,11.5598256 Z M1.5,5.04984707 C1.5,4.85356362 1.66052628,4.69444444 1.86310816,4.69444444 L2.63689184,4.69444444 C2.83743094,4.69444444 3,4.85071312 3,5.04984707 L3,9.75570848 C3,9.95199193 2.83947372,10.1111111 2.63689184,10.1111111 L1.86310816,10.1111111 C1.66256906,10.1111111 1.5,9.95484243 1.5,9.75570848 L1.5,5.04984707 Z M5.25,5.04984707 C5.25,4.85356362 5.41052628,4.69444444 5.61310816,4.69444444 L6.38689184,4.69444444 C6.58743094,4.69444444 6.75,4.85071312 6.75,5.04984707 L6.75,9.75570848 C6.75,9.95199193 6.58947372,10.1111111 6.38689184,10.1111111 L5.61310816,10.1111111 C5.41256906,10.1111111 5.25,9.95484243 5.25,9.75570848 L5.25,5.04984707 Z M9,5.04984707 C9,4.85356362 9.16052628,4.69444444 9.36310816,4.69444444 L10.1368918,4.69444444 C10.3374309,4.69444444 10.5,4.85071312 10.5,5.04984707 L10.5,9.75570848 C10.5,9.95199193 10.3394737,10.1111111 10.1368918,10.1111111 L9.36310816,10.1111111 C9.16256906,10.1111111 9,9.95484243 9,9.75570848 L9,5.04984707 Z M0,3.24434386 L0,2.89454503 C0,2.69704861 0.144426698,2.46693134 0.32258606,2.39187347 L5.67741394,0.135904312 C5.85168457,0.0624847412 6.1444267,0.0608464331 6.32258606,0.135904312 L11.6774139,2.39187347 C11.8516846,2.46529304 12,2.69198507 12,2.89454503 L12,3.24434386 C12,3.44184028 11.8392093,3.61111111 11.6408638,3.61111111 L0.359136164,3.61111111 C0.169635773,3.61111111 0,3.44690382 0,3.24434386 Z" id="Combined-Shape"></path>
            </g>
            <g id="Group-15" transform="translate(25.000000, 4.000000)">
                <path d="M13.8181406,1.42857143 L2.89454545,1.42857143 C2.09925541,1.42857143 1.45454545,2.07328139 1.45454545,2.86857143 L1.45454545,7.84571429 C1.45454545,7.84952729 1.45456027,7.85333683 1.45458986,7.85714286 L1.44,7.85714286 C0.64470996,7.85714286 8.94663875e-16,7.2124329 4.4408921e-16,6.41714286 L0,1.44 C-9.73949402e-17,0.64470996 0.64470996,1.4609241e-16 1.44,0 L12.3781818,0 C13.1696589,1.26055367e-15 13.8119963,0.638542679 13.8181374,1.42857143 Z" id="Combined-Shape" fill="#4483F6"></path>
                <g id="Group-14" transform="translate(2.181818, 2.142857)">
                    <rect id="Rectangle-3" fill="#4483F6" x="0" y="0" width="13.8181818" height="7.85714286" rx="1.44"></rect>
                    <ellipse id="Oval-2" fill="#FFFFFF" cx="6.90909091" cy="3.92857143" rx="1.81818182" ry="1.78571429"></ellipse>
                </g>
            </g>
            <polygon id="Line" fill="#A1AEC3" fill-rule="nonzero" points="18 0 19 0 19 18 18 18"></polygon>
        </g>
    </g>
</svg>