<?xml version="1.0" encoding="UTF-8"?><svg width="56" height="36" viewBox="0 0 56 36" xmlns="http://www.w3.org/2000/svg"><g fill="none" fill-rule="evenodd"><path d="M0 3.75A3.749 3.749 0 013.75 0h48.5A3.756 3.756 0 0156 3.75v28.5A3.749 3.749 0 0152.25 36H3.75A3.756 3.756 0 010 32.25V3.75z" fill="#000" fill-rule="nonzero"/><path d="M1.25 3.75v28.5c0 1.375 1.123 2.5 2.5 2.5h48.5c1.382 0 2.5-1.118 2.5-2.5V3.75c0-1.375-1.123-2.5-2.5-2.5H3.75a2.499 2.499 0 00-2.5 2.5z" fill="#FFF"/><g fill="#000" fill-rule="nonzero"><path d="M22.777 21.68h4.674l-6.321-7.236H18.32L12 21.68h1.726l.877-1.004h7.31l.864 1.004zm-6.965-2.373l2.442-2.787 2.45 2.8-4.892-.013z"/><path d="M35.4 14.444h-1.798l-2.418 2.778-2.473-2.778h-4.725l3.319 3.787-3.015 3.453h1.703l2.165-2.484 2.18 2.484h4.813l-3.078-3.462z"/><path d="M42.7 18.298l-3.863-2.614h4.483v-1.24H37c-.85 0-2.24-.084-2.549 1.383-.205.973.644 1.435 1.016 1.737.79.632 2.5 1.814 3.812 2.76a.118.118 0 01.04.126c-.012.048-.051.08-.095.079h-4.59v1.151h6.395c.466 0 1.975.116 2.718-.84.94-1.209-1.047-2.542-1.047-2.542z"/></g></g></svg>