<?xml version="1.0" encoding="UTF-8"?><svg width="56" height="36" viewBox="0 0 56 36" xmlns="http://www.w3.org/2000/svg"><g fill="none" fill-rule="evenodd"><path d="M0 3.75A3.749 3.749 0 013.75 0h48.5A3.756 3.756 0 0156 3.75v28.5A3.749 3.749 0 0152.25 36H3.75A3.756 3.756 0 010 32.25V3.75z" fill="#000" fill-rule="nonzero"/><g fill="#FFF"><path d="M1.25 3.75v28.5c0 1.375 1.123 2.5 2.5 2.5h48.5c1.382 0 2.5-1.118 2.5-2.5V3.75c0-1.375-1.123-2.5-2.5-2.5H3.75a2.499 2.499 0 00-2.5 2.5z"/><path d="M23.448 24.563c0-.78-.005-1.555-.005-2.335 0-.398.005-.802-.006-1.2 0-.114.028-.147.149-.147 2.945.005 5.896.005 8.84.005.337 0 .678-.005 1.014 0 .154.006.313.006.457.077.253.12.38.349.467.589.292.764.281 1.522-.099 2.258-.275.53-.704.818-1.326.818-3.067-.005-6.133 0-9.193-.005-.1 0-.215.033-.298-.06z" fill-rule="nonzero"/></g><g fill-rule="nonzero"><path d="M12.062 24.989c3.192-.02 5.177-2.607 5.696-5.134l1.695-8.848H6.71L4.016 24.989h8.046z" fill="#FFF"/><path d="M21.333 21.173c-.077.309-.137.695-.116 1.177 0 .886.505 1.389 1.512 1.389 2.424 0 3.898-2.875 3.898-4.939 0-1.157-.505-2.239-1.784-2.239-1.396 0-2.831 1.428-3.297 3.628l-.213.984zm2.036-10.089l-1.24 6.057h.036c.834-1.255 2.036-1.91 3.297-1.91 2.056 0 2.83 1.699 2.83 3.358 0 2.854-2.074 6.404-5.837 6.404-1.647 0-2.888-.675-2.888-2.411 0-.443.076-1.002.154-1.448l2.037-10.05h1.611zM35.994 16.639a4.424 4.424 0 00-1.126-.134c-2.424 0-4.403 2.527-4.421 5.11 0 1.042.368 2.065 1.61 2.065 1.34 0 2.93-1.737 3.393-4.225l.544-2.816zm-1.049 8.138c0-.559.096-1.445.213-2.411h-.04c-1.027 1.927-2.307 2.623-3.645 2.623-1.65 0-2.696-1.312-2.696-3.087 0-3.24 2.405-6.675 6.497-6.675.894 0 1.88.155 2.52.366l-.95 4.862c-.31 1.62-.448 3.28-.41 4.32h-1.489v.002zM44.367 24.411c-.484.232-1.453.58-2.714.58-2.426 0-3.607-1.639-3.607-3.625 0-3.184 2.364-6.116 5.738-6.116.873 0 1.668.252 1.958.405l-.466 1.272a3.645 3.645 0 00-1.59-.347c-2.444 0-3.975 2.39-3.975 4.59 0 1.505.795 2.49 2.326 2.49.95 0 1.688-.29 2.175-.521l.155 1.272zM45.825 23.16c.445.27 1.26.579 2.017.579 1.085 0 1.782-.696 1.782-1.525 0-.734-.329-1.178-1.3-1.716-1.085-.598-1.686-1.428-1.686-2.373 0-1.64 1.414-2.893 3.393-2.893.852 0 1.608.232 1.958.461l-.446 1.216a3.375 3.375 0 00-1.629-.425c-.969 0-1.668.598-1.668 1.41 0 .674.446 1.1 1.28 1.563 1.046.598 1.763 1.409 1.763 2.45 0 1.968-1.608 3.086-3.586 3.086-1.008-.018-1.901-.327-2.326-.657l.448-1.177z" fill="#211D1D"/><path d="M16.55 15.57c-.122-2.297-2.699-4.109-6.126-4.56h-.381c3.356.629 5.807 2.63 5.807 5.004 0 1.8-1.41 3.386-3.552 4.322 2.623-.984 4.357-2.79 4.251-4.766zm-5.214-4.56c3.351.713 5.787 2.706 5.92 5.174.173 3.268-3.766 6.132-8.796 6.398a13.36 13.36 0 01-3.912-.36l-.532 2.769h8.046c3.192-.02 5.177-2.607 5.696-5.134l1.697-8.848h-8.12zm-1.684 9.983c3.123-.657 5.394-2.636 5.394-4.98 0-2.374-2.332-4.377-5.522-5.004h-.777c3.21.507 5.611 2.56 5.611 5.016 0 2.57-2.63 4.702-6.063 5.08.087-.003.174-.005.26-.01a13.18 13.18 0 001.097-.102zm-3.221-.475a8.592 8.592 0 01-1.529-.134l1.744-9.057c3.429.082 6.175 2.107 6.175 4.593 0 2.541-2.86 4.598-6.39 4.598z" fill="#EA1A44"/></g></g></svg>