<?xml version="1.0" encoding="UTF-8"?><svg width="56" height="36" viewBox="0 0 56 36" xmlns="http://www.w3.org/2000/svg"><defs><radialGradient cx="25.999%" cy="85.739%" fx="25.999%" fy="85.739%" r="22.874%" gradientTransform="matrix(1 0 0 .98828 0 .01)" id="a"><stop stop-color="#710B13" offset="0%"/><stop stop-color="#C97510" offset="45.9%"/><stop stop-color="#FCE5C6" offset="100%"/></radialGradient><radialGradient cx="37.743%" cy="-14.963%" fx="37.743%" fy="-14.963%" r="51.209%" gradientTransform="matrix(1 0 0 .98828 0 -.002)" id="e"><stop stop-color="#913232" stop-opacity=".851" offset="0%"/><stop stop-color="#E5B264" offset="51.4%"/><stop stop-color="#743525" offset="100%"/></radialGradient><radialGradient cx="55.9%" cy="94.358%" fx="55.9%" fy="94.358%" r="16.46%" gradientTransform="matrix(.69098 0 0 1 .173 0)" id="f"><stop stop-color="#FFF" stop-opacity="0" offset="26.7%"/><stop stop-color="#FFF" stop-opacity=".502" offset="100%"/></radialGradient><radialGradient cx="50.959%" cy="156.971%" fx="50.959%" fy="156.971%" r="20.552%" gradientTransform="matrix(.61275 0 0 1 .197 0)" id="g"><stop stop-color="#FFF" stop-opacity="0" offset="26.7%"/><stop stop-color="#FFF" stop-opacity=".502" offset="100%"/></radialGradient><linearGradient x1="50.506%" y1="15.912%" x2="47.094%" y2="105.004%" id="b"><stop stop-color="#48A7D4" offset="0%"/><stop stop-color="#5F89CB" offset="48.2%"/><stop stop-color="#57A6DD" offset="100%"/></linearGradient><linearGradient x1="74.751%" y1="11.473%" x2="24.134%" y2="125.256%" id="c"><stop stop-color="#1554A6" offset="0%"/><stop stop-color="#000F38" offset="100%"/></linearGradient><linearGradient x1="-11.005%" y1="50.014%" x2="101.006%" y2="50.014%" id="d"><stop stop-color="#6487E5" offset="0%"/><stop stop-color="#000F38" offset="60%"/><stop stop-color="#40628E" offset="100%"/></linearGradient></defs><g fill="none" fill-rule="evenodd"><path d="M0 3.75A3.749 3.749 0 013.75 0h48.5A3.756 3.756 0 0156 3.75v28.5A3.749 3.749 0 0152.25 36H3.75A3.756 3.756 0 010 32.25V3.75z" fill="#000" fill-rule="nonzero"/><path d="M1.25 3.75v28.5c0 1.375 1.123 2.5 2.5 2.5h48.5c1.382 0 2.5-1.118 2.5-2.5V3.75c0-1.375-1.123-2.5-2.5-2.5H3.75a2.499 2.499 0 00-2.5 2.5z" fill="#FFF"/><path d="M47.404 12.627H9.397v5.64a2.38 2.38 0 011.45.63l.02.02c.06.052.26.072.582.062.32-.02.571.03.73.142.16.111.13.243-.09.378-.209.202-.328.459-.358.763 0 .01-.01.03-.01.03-.01.092-.02.183-.01.274v.091c0 .061.01.122.01.183 0 .712-.25 1.324-.741 1.82a2.452 2.452 0 01-1.583.754v.142h38.206c1.482 0 2.754-.53 3.794-1.598 1.05-1.067 1.58-2.36 1.58-3.867 0-1.506-.53-2.8-1.58-3.867-1.05-1.067-2.312-1.597-3.794-1.597h-.199z" fill="#DF2027" fill-rule="nonzero"/><path d="M20.618 17.42c.412-.43.621-.946.621-1.558 0-.61-.21-1.13-.64-1.567-.402-.408-.89-.631-1.442-.641h-4.105v8.641h4.494a2.364 2.364 0 001.73-.753c.492-.5.741-1.11.741-1.82s-.249-1.324-.74-1.82a2.81 2.81 0 00-.659-.483zm-1.112-1.243c0 .182-.06.335-.19.459a.578.578 0 01-.45.193c-.02 0-.04 0-.05-.01h-2.242v-1.284h2.311c.17 0 .32.061.442.183a.67.67 0 01.18.459zm.352 2.272c.25.253.381.56.381.915s-.132.662-.381.905c-.25.254-.541.388-.89.388-.04 0-.07 0-.11-.01-.04 0-.8-.01-2.262-.01v-2.566h2.471c-.01 0-.02 0-.03.01.31.01.589.132.82.368zm9.267.233c-.01-.956-.34-1.77-1.01-2.452a3.31 3.31 0 00-2.442-1.027c-.95 0-1.77.345-2.441 1.027a3.423 3.423 0 00-1.01 2.483c0 .966.34 1.8 1.01 2.482a3.31 3.31 0 002.441 1.027c.691 0 1.312-.183 1.853-.54v.54h1.601v-3.54h-.002zm-3.452-1.72c.482 0 .88.173 1.222.51.34.345.511.754.511 1.243 0 .49-.17.895-.51 1.243-.34.344-.741.52-1.223.52a1.64 1.64 0 01-1.222-.52 1.687 1.687 0 01-.5-1.243c0-.49.169-.895.5-1.242.33-.348.741-.51 1.222-.51zm5.305-3.085h-1.562v4.721c0 .041-.01.071-.01.112 0 .966.34 1.8 1.01 2.482.651.662 1.442 1.007 2.352 1.027h.9v-1.557h-.97a1.64 1.64 0 01-1.222-.52 1.701 1.701 0 01-.51-1.242c0-.04 0-.07.01-.111l.002-4.912zm8.217 2.353a3.31 3.31 0 00-2.442-1.027c-.95 0-1.77.345-2.441 1.027a3.356 3.356 0 00-1 2.371c0 .04-.01.07-.01.112 0 .732.19 1.384.58 1.965.12.182.27.355.432.53a3.31 3.31 0 002.442 1.027h.01c.95 0 1.76-.345 2.431-1.027a3.423 3.423 0 001.01-2.483c0-.966-.332-1.815-1.012-2.495zm-2.442.733c.481 0 .88.172 1.222.51.34.344.501.753.501 1.242 0 .49-.17.895-.5 1.243-.33.334-.742.51-1.213.52h-.01a1.64 1.64 0 01-1.222-.52 1.701 1.701 0 01-.511-1.243c0-.04 0-.07.01-.112.02-.438.19-.813.501-1.13.342-.348.75-.51 1.222-.51zm8.848-.733a3.423 3.423 0 00-1.01 2.483c0 .966.34 1.8 1.01 2.482a3.31 3.31 0 002.441 1.027c.95 0 1.771-.345 2.442-1.027a3.423 3.423 0 001.01-2.482c0-.967-.34-1.8-1.01-2.483-.671-.682-1.482-1.027-2.432-1.027-.96-.002-1.77.345-2.451 1.027zm1.232 3.725a1.692 1.692 0 01-.501-1.242c0-.49.17-.896.5-1.243.34-.345.742-.51 1.223-.51.481 0 .88.173 1.222.51.339.345.511.753.511 1.243 0 .489-.17.895-.511 1.242-.34.345-.74.52-1.222.52a1.63 1.63 0 01-1.222-.52zm-3.122-3.208v-1.526h-1.534v-1.344h-1.561v4.721c0 .041-.01.071-.01.112 0 .966.34 1.8 1.01 2.482.65.662 1.441 1.007 2.352 1.027h.9v-1.557h-.97a1.64 1.64 0 01-1.222-.52 1.701 1.701 0 01-.511-1.242c0-.04 0-.07.01-.111v-2.047h1.536v.005z" fill="#FCF400" fill-rule="nonzero"/><path d="M7.638 9.364a1.953 1.953 0 00-1.451-.61c-.561 0-1.05.202-1.451.61a2.013 2.013 0 00-.601 1.466c0 .57.2 1.057.6 1.465.402.409.881.611 1.452.611s1.05-.202 1.451-.61c.402-.409.601-.896.601-1.466s-.202-1.06-.6-1.466z" fill="url(#a)" fill-rule="nonzero" transform="translate(3 10)"/><path d="M4.716 3.124v-1.81c0-.764-.32-1.152-.96-1.162-.631.03-.97.378-1.03 1.037v3.816l-.462-2.9c-.07-.345-.17-.591-.309-.733a1.058 1.058 0 00-.78-.325c-.3 0-.562.112-.771.325-.2.213-.31.479-.31.783 0 .01.01.02.01.04v.062c0 .01 0 .03.01.04l.908 6.017 3.694-5.19z" fill="url(#b)" fill-rule="nonzero" transform="translate(3 10)"/><path d="M9.01.692a1.196 1.196 0 00-.89-.378c-.35 0-.641.122-.89.378-.01.01-.01.02-.02.02l-.05.051c-.01.01-.02.03-.03.04L2.072 7.788a4.88 4.88 0 00-.85 1.894c-.08.365-.12.753-.12 1.151 0 1.425.492 2.637 1.482 3.654.99 1.007 2.192 1.506 3.593 1.506 1.402 0 2.594-.5 3.584-1.506.99-1.006 1.48-2.229 1.48-3.654v-.324c-.01-.173-.029-.335-.049-.5a1.349 1.349 0 00-.21-.388 1.176 1.176 0 00-.84-.49c-.349-.05-.67.031-.95.244-.28.213-.441.51-.481.865 0 .01-.01.03-.01.03-.01.092-.02.183-.01.274v.092c0 .06.01.121.01.182 0 .713-.25 1.324-.74 1.82-.502.5-1.093.754-1.791.754-.701 0-1.292-.254-1.79-.753a2.527 2.527 0 01-.742-1.82c0-.46.1-.876.31-1.243.09-.173.21-.325.339-.49.03-.03.06-.07.09-.101a2.405 2.405 0 011.79-.753c.641 0 1.202.213 1.67.641l.02.02c.06.051.13.102.19.143.19.111.472.192.84.233.372.04.652-.081.851-.365.19-.284.28-.601.26-.946a1.413 1.413 0 00-.33-.865c-.1-.101-.2-.192-.309-.284a.573.573 0 01-.08-.07A4.69 4.69 0 006.71 5.69l2.33-3.256.18-.233c.1-.183.15-.398.15-.621.02-.338-.11-.644-.359-.888z" fill="url(#c)" fill-rule="nonzero" transform="translate(3 10)"/><path d="M3.1 12.26c0 .01 0 .03.01.04l.912 6.014 3.704-5.19v-1.81c0-.764-.32-1.152-.96-1.162-.641.03-.98.378-1.04 1.037v3.816l-.462-2.9c-.07-.345-.17-.591-.309-.733a1.058 1.058 0 00-.78-.325c-.3 0-.562.112-.771.325-.2.213-.31.479-.31.783 0 .01.01.02.01.04 0 .021-.004.044-.004.064h0z" stroke="#375682" stroke-width=".5" stroke-linecap="round" stroke-linejoin="round"/><path d="M9.24 2.209c0 .01-.01.01-.02.03a.796.796 0 01-.17.203L6.718 5.698c.96.09 1.813.448 2.574 1.047.03.02.05.05.08.07.07.041.13.092.19.153l.029.03c.03.03.06.061.08.102.19.233.3.52.329.865.02.344-.07.661-.26.945-.189.284-.48.409-.85.365-.371-.04-.66-.121-.84-.233-.06-.04-.13-.091-.19-.142 0-.01-.01-.01-.02-.02a2.403 2.403 0 00-1.67-.642c-.701 0-1.292.254-1.79.753a.91.91 0 00-.09.102c-.14.152-.25.314-.34.49-.2.364-.31.783-.31 1.242 0 .712.25 1.323.742 1.82.5.5 1.092.753 1.79.753.7 0 1.302-.253 1.79-.753.492-.51.741-1.11.741-1.82 0-.061 0-.132-.01-.183v-.091c-.01-.091 0-.183.01-.274 0-.01 0-.02.01-.03.04-.355.2-.652.482-.865a1.23 1.23 0 01.95-.243c.349.04.63.202.84.489.09.122.16.253.21.388a1.165 1.165 0 01.05.497v.324c0 1.425-.492 2.637-1.482 3.654-.99 1.007-2.182 1.506-3.583 1.506-1.402 0-2.604-.5-3.594-1.506-.99-1.006-1.481-2.229-1.481-3.654 0-.398.04-.783.12-1.15.15-.693.43-1.324.85-1.895L7.14.8c.01-.01.02-.03.03-.04l.05-.052s0-.01.02-.02c.249-.253.54-.378.89-.378.349 0 .64.122.89.378.25.254.372.55.372.905-.003.231-.053.434-.153.617l-.18.233m.32 4.387c.1.09.21.182.31.284m1.513 2.903c.04.162.08.324.1.5" stroke="url(#d)" stroke-width=".5" stroke-linecap="round" stroke-linejoin="round" transform="translate(3 10)"/><path d="M8.24 10.84c0 .57-.2 1.057-.602 1.466-.401.408-.88.61-1.451.61-.561 0-1.05-.202-1.451-.61a2.013 2.013 0 01-.601-1.466c0-.58.2-1.068.6-1.466.402-.408.881-.61 1.452-.61s1.05.202 1.451.61c.4.396.601.885.601 1.466z" stroke="url(#e)" stroke-width=".5" stroke-linecap="round" stroke-linejoin="round" transform="translate(3 10)"/><path d="M.04 2.006c.491-.409 1.01-.56 1.58-.439-.119-.55-.45-.753-.98-.641-.5.215-.7.57-.6 1.08z" fill="url(#f)" fill-rule="nonzero" transform="translate(3 10)"/><path d="M3.444.02c-.531.071-.81.365-.84.875.57-.264 1.112-.264 1.63 0 .02-.558-.239-.854-.79-.875z" fill="url(#g)" fill-rule="nonzero" transform="translate(3 10)"/></g></svg>