<?xml version="1.0" encoding="UTF-8"?>
<svg width="56px" height="36px" viewBox="0 0 56 36" version="1.1" xmlns="http://www.w3.org/2000/svg" xmlns:xlink="http://www.w3.org/1999/xlink">
    <!-- Generator: Sketch 46.2 (44496) - http://www.bohemiancoding.com/sketch -->
    <title>PM/Jumio</title>
    <desc>Created with Sketch.</desc>
    <defs></defs>
    <g id="Page-1" stroke="none" stroke-width="1" fill="none" fill-rule="evenodd">
        <g id="PM/Jumio">
            <path d="M0,3.75075247 C0,1.67926908 1.67596877,0 3.75035585,0 L52.2496442,0 C54.3209085,0 56,1.68806916 56,3.75075247 L56,32.2492475 C56,34.3207309 54.3240312,36 52.2496442,36 L3.75035585,36 C1.67909151,36 0,34.3119308 0,32.2492475 L0,3.75075247 Z" id="Rectangle-2" fill="#000000" fill-rule="nonzero"></path>
            <path d="M1.25,3.75075247 L1.25,32.2492475 C1.25,33.6250965 2.37296468,34.75 3.75035585,34.75 L52.2496442,34.75 C53.6324061,34.75 54.75,33.6316447 54.75,32.2492475 L54.75,3.75075247 C54.75,2.37490355 53.6270353,1.25 52.2496442,1.25 L3.75035585,1.25 C2.36759386,1.25 1.25,2.36835527 1.25,3.75075247 Z" id="Path" fill="#FFFFFF"></path>
            <g id="jumio" transform="translate(5.000000, 11.000000)" fill-rule="nonzero">
                <g id="Group">
                    <path d="M45.4057199,2.74913112 L44.033432,2.74913112 C43.7385602,2.74913112 43.4436884,2.97472354 43.4436884,3.32417062 L43.4436884,8.91532385 C43.4436884,9.05908373 43.3166667,9.16082148 43.189645,9.16082148 L38.1564103,9.16082148 C37.829783,9.16082148 37.5666667,9.41958926 37.5666667,9.73586098 C37.5666667,9.82432859 37.5870809,9.90837283 37.625641,9.9835703 C37.6279093,9.98578199 37.6279093,9.99020537 37.6279093,9.99241706 C38.0112426,10.7665087 38.7983235,11.3614534 39.916568,11.3614534 L43.4414201,11.3614534 C45.0677515,11.3614534 45.9954635,10.107425 45.9954635,8.87109005 L45.9954635,3.32195893 C45.9954635,3.03886256 45.7641026,2.74913112 45.4057199,2.74913112" id="Shape" fill="#95C11F"></path>
                    <path d="M33.0483235,0.67014218 C33.0483235,0.318483412 33.3431953,0.0951026856 33.6403353,0.0951026856 L35.0126233,0.0951026856 C35.3732742,0.0951026856 35.6046351,0.382622433 35.6046351,0.67014218 L35.6046351,10.8394945 C35.6046351,11.1270142 35.3732742,11.4167457 35.0126233,11.4167457 L33.6403353,11.4167457 C33.3454635,11.4167457 33.0483235,11.1911532 33.0483235,10.8394945 L33.0483235,0.67014218 Z M5.11942801,11.5450237 C5.11942801,12.9848341 4.23254438,13.9955766 2.60621302,13.9955766 L0.598816568,13.9955766 C0.303944773,13.9955766 0.0090729783,13.7699842 0.0090729783,13.4205371 L0.0090729783,12.4518167 C0.0090729783,12.100158 0.303944773,11.8745656 0.598816568,11.8745656 L2.26824458,11.8745656 C2.43609467,11.8745656 2.54270217,11.7706161 2.54270217,11.606951 L2.54270217,0.619273302 C2.54270217,0.331753555 2.79674556,0.0420221169 3.13244576,0.0420221169 L4.52741617,0.0420221169 C4.86311637,0.0420221169 5.11715976,0.329541864 5.11715976,0.619273302 L5.11942801,11.5450237 L5.11942801,11.5450237 Z M22.2560158,0.0420221169 C23.333432,0.0420221169 23.9866864,0.577251185 24.1137081,1.31595577 C24.3042406,0.577251185 24.8939842,0.0420221169 25.9918146,0.0420221169 L28.4846154,0.0420221169 C30.1109467,0.0420221169 31.0386588,1.29826224 31.0386588,2.53238547 L31.0386588,10.7886256 C31.0386588,11.1402844 30.743787,11.3636651 30.4466469,11.3636651 L29.074359,11.3636651 C28.7159763,11.3636651 28.4823471,11.0761453 28.4823471,10.7886256 L28.4823471,2.53238547 C28.4823471,2.43064771 28.3780079,2.28688784 28.230572,2.28688784 L25.6561144,2.28688784 C25.5064103,2.28688784 25.402071,2.43064771 25.402071,2.53238547 L25.402071,10.7886256 C25.402071,11.1402844 25.1071992,11.3636651 24.8100592,11.3636651 L23.4377712,11.3636651 C23.0793886,11.3636651 22.8480276,11.0761453 22.8480276,10.7886256 L22.8480276,2.53238547 C22.8480276,2.43064771 22.7414201,2.28688784 22.5939842,2.28688784 L20.060355,2.28688784 C19.8902367,2.28688784 19.8063116,2.43064771 19.8063116,2.53238547 L19.8063116,10.7886256 C19.8063116,11.1402844 19.5114398,11.3636651 19.2142998,11.3636651 L17.8215976,11.3636651 C17.4836292,11.3636651 17.2295858,11.0761453 17.2295858,10.7886256 L17.2295858,2.53238547 C17.2295858,1.29826224 18.1572978,0.0420221169 19.8040434,0.0420221169 L22.2560158,0.0420221169 L22.2560158,0.0420221169 Z M12.6545365,9.14312796 C12.8042406,9.14312796 12.9085799,8.9971564 12.9085799,8.89541864 L12.9085799,0.619273302 C12.9085799,0.267614534 13.2034517,0.0420221169 13.5005917,0.0420221169 L14.8932939,0.0420221169 C15.2516765,0.0420221169 15.4830375,0.329541864 15.4830375,0.619273302 L15.4830375,8.87551343 C15.4830375,10.1096367 14.5553254,11.3658768 12.9289941,11.3658768 L9.40187377,11.3658768 C7.77781065,11.3658768 6.84783037,10.1118483 6.84783037,8.87551343 L6.84783037,0.619273302 C6.84783037,0.267614534 7.14270217,0.0420221169 7.43757396,0.0420221169 L8.80986193,0.0420221169 C9.16824458,0.0420221169 9.39960552,0.329541864 9.39960552,0.619273302 L9.39960552,8.89541864 C9.39960552,8.9971564 9.50621302,9.14312796 9.65364892,9.14312796 L12.6545365,9.14312796 L12.6545365,9.14312796 Z M37.9885602,8.61895735 L39.3608481,8.61895735 C39.6557199,8.61895735 39.9505917,8.39336493 39.9505917,8.04391785 L39.9505917,2.4549763 C39.9505917,2.31121643 40.0776134,2.20947867 40.2046351,2.20947867 L45.2378698,2.20947867 C45.564497,2.20947867 45.8276134,1.9507109 45.8276134,1.63443918 C45.8276134,1.54597156 45.8071992,1.46192733 45.7686391,1.38672986 C45.7663708,1.38451817 45.7663708,1.38009479 45.7663708,1.3778831 C45.3830375,0.603791469 44.5959566,0.00884676145 43.477712,0.00884676145 L39.95286,0.00884676145 C38.3265286,0.00884676145 37.3988166,1.2628752 37.3988166,2.49921011 L37.3988166,8.04834123 C37.3988166,8.3314376 37.6301775,8.61895735 37.9885602,8.61895735 L37.9885602,8.61895735 Z" id="Shape" fill="#010000"></path>
                </g>
            </g>
        </g>
    </g>
</svg>