<?xml version="1.0" encoding="UTF-8"?>
<svg width="56px" height="36px" viewBox="0 0 56 36" version="1.1" xmlns="http://www.w3.org/2000/svg">
    <!-- Generator: Sketch 54.1 (76490) - https://sketchapp.com -->
    <title>PM/Banamex</title>
    <desc>Created with Sketch.</desc>
    <g id="PM/Banamex" stroke="none" stroke-width="1" fill="none" fill-rule="evenodd">
        <g id="Group-2">
            <path d="M0,3.75075247 C0,1.67926908 1.67596877,0 3.75035585,0 L52.2496442,0 C54.3209085,0 56,1.68806916 56,3.75075247 L56,32.2492475 C56,34.3207309 54.3240312,36 52.2496442,36 L3.75035585,36 C1.67909151,36 0,34.3119308 0,32.2492475 L0,3.75075247 Z" id="Rectangle-2" fill="#000000" fill-rule="nonzero"></path>
            <path d="M1.25,3.75075247 L1.25,32.2492475 C1.25,33.6250965 2.37296468,34.75 3.75035585,34.75 L52.2496442,34.75 C53.6324061,34.75 54.75,33.6316447 54.75,32.2492475 L54.75,3.75075247 C54.75,2.37490355 53.6270353,1.25 52.2496442,1.25 L3.75035585,1.25 C2.36759386,1.25 1.25,2.36835527 1.25,3.75075247 Z" id="Path" fill="#FFFFFF"></path>
        </g>
        <g id="Group-101" transform="translate(5.000000, 14.000000)">
            <path d="M4.101971,1.54307539 C4.67245048,1.0602036 5.36801419,0.699998468 6.10778957,0.627075391 C6.66455847,0.624613853 7.24060167,0.561639494 7.77730145,0.755485648 C8.56198396,1.01466513 9.2904332,1.51661385 9.76464054,2.21815231 L9.80795804,2.36963949 C9.53672694,2.36307539 9.26400555,2.3813318 8.99277445,2.35979334 C8.74409627,2.21394719 8.56198396,1.96963949 8.30923234,1.82553693 C7.33041592,1.1613318 5.98896452,1.14892155 4.99902067,1.7973318 C4.72858439,1.94646001 4.52968158,2.19743437 4.27206171,2.36307539 C3.99288244,2.38379334 3.71290836,2.36799847 3.4337291,2.36471642 C3.5717291,2.02758821 3.84365566,1.78081898 4.101971,1.54307539 L6.95464363,-1.31759422e-16" id="Fill-37" fill="#D7282C"></path>
            <path d="M41.2426492,6.0802036 C41.6694656,6.47107539 42.2559408,6.76758821 42.835958,6.63179334 C42.8311891,6.51497283 42.8528479,6.35353693 42.7075952,6.32040872 C42.4067572,6.17958821 41.9261913,6.14563949 41.8884375,5.71579334 C41.6846665,5.85815231 41.4656945,5.9733318 41.2426492,6.0802036 Z M43.5765282,5.72738308 C43.6262043,5.97497283 43.6607788,6.22430616 43.6944591,6.47446001 C44.1059753,6.21763949 44.4718889,5.85569078 44.6427745,5.3827677 C44.6908608,5.27097283 44.6603598,5.14922924 44.6532064,5.03240872 C44.1557507,5.00348565 44.1196859,5.84748565 43.5765282,5.72738308 Z M40.8414656,3.58225488 C40.7283036,3.90687026 40.6208047,4.24481898 40.6457421,4.59517796 C40.6633274,4.85271642 40.6841913,5.16081898 40.9168738,5.31569078 C41.3147788,5.02748565 40.864714,4.31517796 41.3885973,4.10153693 C41.1912842,3.94584462 41.0196038,3.76030616 40.8414656,3.58225488 Z M41.6100531,4.1802036 C41.9061222,4.54379334 42.0746233,5.02994719 42.0328954,5.50625488 C42.473323,5.34225488 43.0068436,5.29415231 43.4288911,5.53938308 C43.387958,5.05487026 43.5163209,4.53794719 43.8541179,4.18512667 C43.3999796,4.07497283 42.9667053,3.7802036 42.7445541,3.34953693 C42.4685541,3.74287026 42.0809818,4.08163949 41.6100531,4.1802036 Z M43.801958,3.19128052 C43.9768176,3.45969078 44.2672237,3.75784462 44.0875952,4.10317796 C44.3306103,4.12061385 44.57293,4.15866513 44.8103814,4.21743437 C44.7053662,3.65507539 44.4077075,3.08615231 43.8966405,2.82112667 C43.7016125,2.82112667 43.7080703,3.07702411 43.801958,3.19128052 Z M41.5755779,2.77969078 C41.4423468,2.85835744 41.468079,3.11343437 41.6373749,3.11846001 C41.9984202,3.06871642 42.4155995,2.75394719 42.7333274,3.08943437 C42.8158889,2.85004975 42.9282561,2.62399847 43.0517507,2.40451129 C42.5367097,2.35394719 41.9951416,2.45415231 41.5755779,2.77969078 Z M41.2145326,1.56717796 C41.560377,1.3973318 41.968714,1.22338308 42.3498284,1.36338308 C42.7052107,1.56379334 42.8857334,1.9638959 43.1039105,2.29763949 C43.3542777,2.03097283 43.4802561,1.57128052 43.8846189,1.51497283 C44.424498,1.53230616 44.8609516,1.93569078 45.1963641,2.33569078 C45.404904,2.61651129 45.6600401,2.9693318 45.5348565,3.34287026 C45.3920876,3.68656257 45.1200617,3.94584462 44.9227485,4.2547677 C45.2348133,4.36153693 45.6143382,4.37569078 45.8478155,4.64153693 C46.0732453,5.04410103 45.8830855,5.52440872 45.7234267,5.91538308 C45.553336,6.27558821 45.3415174,6.64912667 44.9965671,6.85702411 C44.5512712,7.01774206 44.1116384,6.72697283 43.6968436,6.59117796 C43.6687269,6.98215231 43.8525282,7.53128052 43.4489602,7.77640872 C42.9900531,8.00246001 42.4516643,7.93866513 41.9703036,7.83025488 C41.6365801,7.73999847 41.2369861,7.57846001 41.1519408,7.19087026 C41.0845801,6.83630616 41.1206449,6.47271642 41.1383295,6.11579334 C40.7668522,6.21846001 40.3191719,6.56051129 39.9645844,6.2442036 C39.6701049,5.93774206 39.5657853,5.49210103 39.4871978,5.0813318 C39.4470595,4.68871642 39.3917205,4.21169078 39.6813317,3.9002036 C39.9926017,3.64594719 40.4058068,3.59794719 40.7756945,3.48451129 C40.5895088,3.15487026 40.1723295,2.87240872 40.2790336,2.4442036 C40.4386924,2.02184462 40.8454397,1.77251129 41.2145326,1.56717796 L41.2145326,1.56717796 Z" id="Fill-38" fill="#D7282C"></path>
            <path d="M6.12537488,2.19158821 C6.38935329,2.04256257 6.6541265,1.89425488 6.92048936,1.75097283 C6.92366862,2.17671642 6.91969454,2.60246001 6.92446344,3.02728052 C7.19648936,3.03394719 7.46841592,3.03394719 7.74044184,3.03722924 C7.73805739,3.28902411 7.73726257,3.54163949 7.7363684,3.79343437 C7.46523666,3.79343437 7.19321074,3.79343437 6.92207899,3.79343437 C6.9228738,4.50235744 6.92048936,5.21138308 6.92207899,5.92112667 C6.92048936,6.08594719 6.93976365,6.28307539 7.0921697,6.37671642 C7.3849602,6.46779334 7.68510275,6.34769078 7.93378093,6.19117796 C7.87277877,6.45538308 7.81187596,6.71958821 7.74680037,6.98297283 C7.40026041,7.17015231 6.96460167,7.25794719 6.60594076,7.05661385 C6.26983277,6.87610103 6.11901635,6.46451129 6.12696452,6.09097283 C6.12696452,5.32728052 6.1214008,4.56451129 6.13103795,3.80174206 C5.90232953,3.79261385 5.67372046,3.79179334 5.4459062,3.79261385 C5.44749583,3.52840872 5.41778957,3.25917796 5.48594508,2.99999847 C5.69935329,3.03558821 5.91604011,3.04553693 6.13024313,3.00912667 C6.12537488,2.73661385 6.12537488,2.46410103 6.12537488,2.19158821" id="Fill-40" fill="#1F4471"></path>
            <path d="M3.44008763,3.6253318 C3.37839,3.86717796 3.15286085,4.03107539 3.0124764,4.22994719 C2.82877445,4.05261385 2.62659303,3.88287026 2.38029929,3.80994719 C1.84359951,3.61538308 1.19771182,3.90522924 0.958670781,4.43528052 C0.636074668,5.08297283 0.880778772,6.01804975 1.57077877,6.28635744 C2.08105091,6.52492155 2.64427769,6.28225488 3.0269818,5.91117796 C3.17700339,6.10081898 3.32861463,6.28892155 3.46899907,6.48594719 C3.15693428,6.86451129 2.71889108,7.14030616 2.23186732,7.18010103 C1.51941376,7.23384462 0.749236655,6.9373318 0.345668621,6.30625488 C-0.0891953102,5.62297283 -0.110059241,4.68543437 0.262212897,3.96902411 C0.855145943,2.81938308 2.65222586,2.56102411 3.44008763,3.6253318 Z" id="Fill-43" fill="#1F4471"></path>
            <path d="M15.3982993,5.41507539 C15.1215045,5.67015231 15.2242345,6.18953693 15.5467313,6.35517796 C16.033755,6.60861385 16.6515261,6.39487026 16.9787917,5.96840872 C17.024593,5.76707539 16.9948868,5.55671642 16.9964764,5.35128052 C16.7710466,5.26430616 16.5367745,5.19979334 16.2944548,5.19722924 C15.9880531,5.18481898 15.6325714,5.17322924 15.3982993,5.41507539 Z M14.8712367,3.30728052 C15.3870725,2.97015231 16.0313706,2.87569078 16.6282777,2.9693318 C17.0502259,3.03148565 17.473863,3.26748565 17.663228,3.67743437 C17.7819537,3.90687026 17.7947701,4.1718959 17.7971546,4.42697283 C17.7971546,5.31907539 17.7947701,6.21097283 17.7979494,7.10307539 C17.5323814,7.10635744 17.2677075,7.10635744 17.0029343,7.10553693 C16.9996557,6.97384462 16.998066,6.84215231 16.9964764,6.71046001 C16.456498,7.27528052 15.5114613,7.36646001 14.9161438,6.84461385 C14.5045282,6.49097283 14.3978241,5.85815231 14.5663252,5.34963949 C14.6915088,4.96122924 15.0421222,4.69199847 15.4135995,4.58604975 C15.931025,4.44112667 16.4926621,4.46010103 17.0004505,4.63907539 C17.0205196,4.32184462 17.0029343,3.93343437 16.6883857,3.76943437 C16.2022561,3.53999847 15.6309818,3.6798959 15.1672064,3.90358821 C15.0734181,3.70235744 14.9738673,3.50440872 14.8712367,3.30728052 L14.8712367,3.30728052 Z" id="Fill-45" fill="#1F4471"></path>
            <path d="M21.1443252,3.14410103 C21.5775995,3.43815231 21.7187788,4.00543437 21.7292107,4.51066513 C21.7396427,5.37363949 21.7252367,6.23753693 21.7364634,7.10051129 C21.4772539,7.10635744 21.2189386,7.10635744 20.9598284,7.10471642 C20.9590336,6.35097283 20.9630077,5.59651129 20.9590336,4.8427677 C20.9357853,4.49158821 20.9237637,4.07753693 20.640511,3.83148565 C20.389349,3.63938308 20.0331719,3.63692155 19.7555822,3.76687026 C19.4402388,3.93753693 19.301444,4.32594719 19.3086967,4.67630616 C19.303133,5.48635744 19.3126708,6.29712667 19.3047226,7.10717796 C19.0399494,7.10553693 18.775971,7.10553693 18.5119926,7.10553693 C18.5098731,6.20112667 18.5085484,4.84502411 18.5080185,3.03722924 L19.3110811,3.03804975 C19.3089616,3.19982753 19.3076369,3.30779334 19.3071071,3.36194719 C19.7844937,2.88317796 20.5739451,2.80615231 21.1443252,3.14410103 Z" id="Fill-46" fill="#1F4471"></path>
            <path d="M23.4669775,5.22379334 C23.2808911,5.2693318 23.1011632,5.3827677 23.00966,5.56081898 C22.8844764,5.85322924 23.0129386,6.24163949 23.3033446,6.37004975 C23.7301611,6.57630616 24.2428176,6.42471642 24.5789256,6.10830616 C24.8076341,5.93774206 24.7194094,5.60307539 24.7025196,5.35630616 C24.3221999,5.16748565 23.8770034,5.16912667 23.4669775,5.22379334 Z M22.611755,3.27579334 C23.2592323,2.9278959 24.0510682,2.81035744 24.7442475,3.08030616 C25.2079235,3.25835744 25.5313144,3.74707539 25.5160142,4.25887026 C25.5224721,5.20799847 25.5160142,6.15640872 25.518498,7.10553693 C25.2537248,7.10553693 24.9889516,7.10553693 24.7241783,7.10553693 C24.7225887,6.97794719 24.7209991,6.85046001 24.7202043,6.72204975 C24.4048608,6.99374206 24.0150034,7.20410103 23.5945455,7.19415231 C23.1380228,7.18502411 22.6542777,6.9813318 22.4063943,6.56881898 C22.1584116,6.1282036 22.1351632,5.54348565 22.4047053,5.10697283 C22.6133446,4.78317796 22.9783641,4.59846001 23.3417939,4.53712667 C23.8031848,4.44604975 24.2813662,4.49158821 24.7290466,4.63158821 C24.741863,4.31271642 24.7186146,3.91763949 24.3976081,3.76194719 C23.9082993,3.53999847 23.3506362,3.69240872 22.8820919,3.89948565 C22.7858198,3.69404975 22.6903425,3.48861385 22.611755,3.27579334 L22.611755,3.27579334 Z" id="Fill-47" fill="#1F4471"></path>
            <path d="M27.0235822,3.36851129 C27.5563079,2.76471642 28.6562345,2.77804975 29.0750034,3.51179334 C29.313349,3.22522924 29.6317723,2.98010103 30.0097075,2.95692155 C30.4284764,2.92379334 30.9123209,2.92625488 31.2356125,3.24758821 C31.5749991,3.59958821 31.6279537,4.12635744 31.6431546,4.59763949 C31.6504073,5.4333318 31.6439494,6.26902411 31.645539,7.10553693 C31.38166,7.10553693 31.1168868,7.10553693 30.8529084,7.10635744 C30.844066,6.29548565 30.8568824,5.48379334 30.8472453,4.6722036 C30.8360185,4.34010103 30.783958,3.93835744 30.4733835,3.75702411 C30.1982777,3.63610103 29.8451805,3.64102411 29.6125973,3.8522036 C29.3807097,4.08830616 29.3541827,4.44687026 29.352593,4.76410103 C29.352593,5.54430616 29.3533878,6.32451129 29.3533878,7.10471642 C29.0878198,7.10553693 28.8223511,7.10553693 28.5575779,7.10553693 C28.5559883,6.32369078 28.5591675,5.54184462 28.5567831,4.75999847 C28.5503252,4.44851129 28.5294613,4.0998959 28.3184375,3.85722924 C28.0007097,3.56810103 27.4151287,3.6227677 27.1920833,4.01128052 C27.0460358,4.25722924 27.0251719,4.55702411 27.0211978,4.83866513 C27.024377,5.59404975 27.0211978,6.34851129 27.0235822,7.10307539 C26.7572194,7.10635744 26.4916513,7.10635744 26.2252885,7.10215231 C26.2260833,5.74810103 26.2244937,4.39384462 26.2260833,3.03969078 C26.4908565,3.03230616 26.7564246,3.03230616 27.0219926,3.03312667 C27.0227874,3.14492155 27.0235822,3.25671642 27.0235822,3.36851129" id="Fill-48" fill="#1F4471"></path>
            <path d="M33.2737989,3.99692341 C33.0989393,4.18328238 33.0428054,4.49794905 32.9617341,4.73487212 C33.4816415,4.71794872 34.574514,4.71794872 34.9282093,4.73487212 C34.8904555,4.52112853 34.8559803,4.28512853 34.7284123,4.10533366 C34.4179371,3.62164135 33.64776,3.55959007 33.2737989,3.99692341 Z M35.137544,3.43538494 C35.6302309,3.94133366 35.7585937,4.70748751 35.6847751,5.39661571 C34.7789825,5.39497469 33.8731898,5.40153879 32.9673972,5.39333366 C33.0115095,5.7717952 33.1719631,6.16184648 33.5064814,6.35733366 C33.9661834,6.62482084 34.5422266,6.46502597 34.9538421,6.1717952 C35.1006844,6.34656443 35.246732,6.5237952 35.388706,6.70359007 C34.8278637,7.21538494 33.9726412,7.39600033 33.2802568,7.07876956 C32.7443518,6.84020546 32.3752589,6.29692341 32.2597125,5.71630802 C32.1137643,5.05866699 32.1923518,4.32482084 32.5413756,3.74676956 C33.0764857,2.8663593 34.4211164,2.70564135 35.137544,3.43538494 Z" id="Fill-49" fill="#1F4471"></path>
            <path d="M4.71656279,3.00830616 L4.74706387,7.10471642 L3.91826905,7.10307539 C3.91826905,5.29363949 3.91826905,3.93671642 3.91826905,3.03230616 L4.71656279,3.00830616 Z" id="Fill-50" fill="#1F4471"></path>
            <path d="M8.55880469,3.00912667 C8.82834681,3.00656257 9.09709411,3.00574206 9.36663622,3.01815231 C9.36027769,4.38225488 9.37388892,5.74553693 9.35948288,7.10963949 C9.09153039,7.10471642 8.82427337,7.10471642 8.5571157,7.10553693 C8.55800987,5.73979334 8.55314162,4.37404975 8.55880469,3.00912667" id="Fill-51" fill="#1F4471"></path>
            <path d="M11.4494526,4.18266513 C11.4469688,4.76410103 11.4494526,5.34553693 11.447863,5.92697283 C11.6579926,6.14307539 11.8995174,6.34604975 12.1963814,6.4147677 C12.5614008,6.52492155 12.9970595,6.36338308 13.1759926,6.00892155 C13.4150336,5.56174206 13.3925801,5.01753693 13.3027658,4.53056257 C13.2248738,4.13794719 12.9537421,3.71887026 12.5308997,3.6973318 C12.1089516,3.62861385 11.7270423,3.88122924 11.4494526,4.18266513 Z M10.655133,2.19579334 C10.9183166,2.04666513 11.1790164,1.89261385 11.4510423,1.76174206 C11.4558112,2.30758821 11.4518371,2.85251129 11.4534267,3.39835744 C11.7751287,3.12338308 12.173133,2.90974206 12.6039235,2.9453318 C13.162282,2.9362036 13.679012,3.31640872 13.9012626,3.8373318 C14.1676254,4.45353693 14.1989213,5.16410103 14.0672799,5.81928052 C13.9325585,6.44707539 13.4703727,7.01528052 12.8462431,7.15025488 C12.350377,7.2918959 11.8345412,7.07897283 11.4542215,6.75107539 C11.4534267,6.86943437 11.4526319,6.98707539 11.4526319,7.10553693 C11.1862691,7.10553693 10.9199062,7.10553693 10.6543382,7.1038959 C10.6543382,5.46810103 10.6535434,3.83148565 10.655133,2.19579334 L10.655133,2.19579334 Z" id="Fill-41" fill="#1F4471"></path>
            <polygon id="Fill-52" fill="#1F4471" points="35.7870293 3.00830616 36.6703684 3.03969078 37.345863 4.36738308 38.1128608 3.03558821 38.9304289 3.01487026 37.8505714 4.99435744 39.061971 7.10307539 38.1281611 7.1013318 37.345863 5.5882036 36.5404159 7.10881898 35.6738673 7.10307539 36.8765239 4.99928052"></polygon>
        </g>
    </g>
</svg>