<?xml version="1.0" encoding="UTF-8"?><svg width="56" height="36" viewBox="0 0 56 36" xmlns="http://www.w3.org/2000/svg"><g fill="none" fill-rule="evenodd"><path d="M0 3.75A3.749 3.749 0 013.75 0h48.5A3.756 3.756 0 0156 3.75v28.5A3.749 3.749 0 0152.25 36H3.75A3.756 3.756 0 010 32.25V3.75z" fill="#000" fill-rule="nonzero"/><path d="M1.25 3.75v28.5c0 1.375 1.123 2.5 2.5 2.5h48.5c1.382 0 2.5-1.118 2.5-2.5V3.75c0-1.375-1.123-2.5-2.5-2.5H3.75a2.499 2.499 0 00-2.5 2.5z" fill="#FFF"/><g fill="#173A79" fill-rule="nonzero"><path d="M7.37 14.85h.34c.244 0 1.072.24 1.072.24h.143a.357.357 0 00.179-.074.163.163 0 01.071.037l-1.412 1.038c-.002 0-.429.22-.429.427v2.614L5.94 20.133c.02-.139.196-.264.196-.463v-2.578c0-.2 1.341-.925 1.341-1.13 0-.204-.786-.371-.786-.371a6.65 6.65 0 00-.608 0c-.249.01-.53.172-.626.167.304-.21 1.107-.909 1.913-.909"/><path d="M9.819 16.184v1.669c.352-.22.572-.334.572-.63 0-.392-.572-1.039-.572-1.039m0 2.188v2.28c0 .113.19.204.303.204.054 0-.017.043.072 0v-2.132c0-.139-.32-.337-.375-.352m.41-3.467c.215 0 .346.239.716.741.09.125.518.666.518.927v.204c0 .528-1.34 1.06-1.34 1.28 0 .15.704.08 1.018.296.3.208.43.647.43.89v.63c0 .38-.5.52-1.109 1.002-.268.211-1.183.853-1.251.853 0 0-1.05-.594-1.555-.594h-.68c-.285 0-.983.26-1.036.26 0 0 1.053-1.076 2.127-1.076h.715c.147 0 .654.216.786.26v-4.71c0-.046-.057-.129-.143-.129-.198 0-.34.375-.34.39v2.8c0 .126-.464.498-.714.648-.374.224-.615.44-.84.556v-.055s.196-.223.196-.353v-3.04c0-.038.315-.445 1.18-.964.502-.3 1.013-.816 1.323-.816M23.089 18.13l-.01 2.56.84.389v-2.54l-.83-.408zm.384-.556l1.27.65v2.855l-1.199.611-1.286-.574V18.13l1.215-.557zM17.61 17.49l.769.797v2.447l.357.37-.59.594-.625-.612v-2.28c-.011-.008-.392-.4-.465-.427l-.429.408v1.966l.322.333-.608.612-.554-.556v-2.466s-.263-.228-.375-.37l.75-.798.733.723.715-.741zM20.56 17.593l1.394.612c-.065.083-.49.406-.644.445 0 0-1.138-.462-1.162-.464v2.41l.958.495s.553-.198.687-.198c.014 0 .04.006.071 0v.056l-1.09.741h-.143l-1.376-.648v-2.8l1.305-.649zM12.82 19.436v1.193l1.18.569V20.05l-1.18-.614zm.697-1.91c.869.451 1.251.505 1.251.705v2.373l.554.575-.518.52c-.379-.321-.518-.464-.518-.464l-.953.495-1.3-.618v-1.565l1.27-.648.697.296v-.649l-1.114-.4-.558.069-.027-.095 1.216-.593zM28.711 18.132v2.559l.859.39v-2.54l-.859-.409zm.394-2.28c.053 0 .289.094.679.297.21.109.59.19.59.389v4.598l-1.18.574-1.305-.648V18.15l1.251-.575c.045.006.447.167.447.167v-.927l-1.043-.462c-.17.01-.37.18-.574.216l.044-.18s.94-.538 1.09-.538zM31.86 18.302l.005 1.41.81-.542-.815-.868zm.551-.744l1.162 1.334-1.698 1.298v.352c0 .075 1 .549 1 .549s.497-.352.716-.215c-.012.017-1.197.816-1.197.816l-1.27-.575v-2.93l1.287-.63zM48.016 20.769l.321.315-.643.63-.608-.63V16.82l.93-.946zM43.064 15.755v2.688l.93-.945.697.723v3.411l-.876.89h-.018v-3.838l-.34-.333-.392.352v2.02l.339.334v.019l-.626.649-.607-.63v-4.413l.894-.908zM45.728 15.755h.018l.607.63v.019l-.625.649-.626-.65zM49.611 18.302l.005 1.41.809-.542-.814-.868zm.514-.703c.034 0 1.162 1.28 1.18 1.335l-1.698 1.242v.5l.962.452s.505-.07.682-.23l.257.067c-.021.034-1.181.768-1.383.768-.045 0-.91-.345-1.27-.593v-2.837c0-.126 1.266-.704 1.27-.704zM45.746 17.498h.017l.555.575v2.632l.34.334-.644.649-.608-.63v-2.633l-.286-.278zM39.606 15.28h.071c-.056.15-1.021.631-1.394 1.075-.572.681-.957 1.062-.893 2.125.037.618.507 1.533 1.054 1.86.168.101.7.405 1.198.427.724.034.435-.116.54-.057v-4.487c0-.056-.13-.35-.254-.35-.036 0-.09.068-.09.11v3.097c0 .116-.103.282-.607.63-.517.357-.676.477-.733.464a.844.844 0 01.125-.185v-3.226c0-.32.45-.506.84-.816.645-.512.994-.63 1.001-.63h.16c.43 0 .698.537.752.593.003.004.123.046.16.093h.25c.073 0 .25-.112.358-.093-.29.261-1.212.871-1.233.871h-.143c-.066 0-.168-.105-.286-.167v4.042c.05.007.043 0 .071 0 .176 0 .826-.488.858-.537h.054v.13l-.268.518c-.558.662-1.184.99-2.076.996-1.56.012-2.667-1.16-2.786-2.98-.118-1.81 1.11-3.297 2.556-3.392.21-.014.468.002.5 0 0 0 .199-.099.215-.111"/></g></g></svg>