<?xml version="1.0" encoding="UTF-8"?><svg width="56" height="36" viewBox="0 0 56 36" xmlns="http://www.w3.org/2000/svg"><g fill="none" fill-rule="evenodd"><path d="M0 3.75A3.75 3.75 0 013.75 0h48.5A3.76 3.76 0 0156 3.75v28.5A3.75 3.75 0 0152.25 36H3.75A3.76 3.76 0 010 32.25V3.75z" fill="#000" fill-rule="nonzero"/><path d="M1.25 3.75v28.5a2.5 2.5 0 002.5 2.5h48.5a2.5 2.5 0 002.5-2.5V3.75a2.5 2.5 0 00-2.5-2.5H3.75a2.5 2.5 0 00-2.5 2.5z" fill="#FFF"/><g fill-rule="nonzero"><path d="M50.88 18.58a.64.64 0 00.02-.13.49.49 0 01-.22.06c.1.01.16.03.2.07zm.07.08l.03.09.09.26h-.25l-.03-.07a.64.64 0 01-.2.15.6.6 0 01-.7-.15.72.72 0 01-.14-.75c.1-.25.33-.42.59-.42.22 0 .41.12.53.3.09.04.14.1.14.2 0 .04-.01.08-.04.12a.73.73 0 01-.02.27zm-.19.18l-.03-.1c-.04-.08-.08-.18-.32-.18h-.09v.45h-.19a.52.52 0 00.2.04c.18 0 .33-.08.43-.2zm-.7.14v-.97h.35c.1 0 .22 0 .32.03a.56.56 0 00-.18-.13.53.53 0 00-.6.12.63.63 0 00-.13.66c.05.12.14.23.25.29zm.35-.51c.16 0 .36-.03.36-.19 0-.13-.13-.17-.36-.17h-.1v.36h.1zm-16.88-1.81c-.35 0-.44.03-.5.39l-.25 1.52h.86a.6.6 0 00.5-.2.75.75 0 00.1-.19 1.78 1.78 0 00.06-.17l.02-.04h.23l-.27 1.68h-.24c.07-.44-.05-.67-.46-.67h-.87l-.28 1.71c-.07.42.01.43.37.43h.8c.4 0 .63-.16.77-.75h.24l-.22 1.16h-2.92l.68-4.2c.06-.38.08-.57.02-.67-.06-.1-.2-.13-.5-.18l-.07-.02.04-.2h3.5l-.17 1.18h-.24c.1-.63-.16-.78-.63-.78h-.57zm3.42 1.18l.26.07.05.01-.1.63-.13-.1a1.56 1.56 0 00-.17-.13.98.98 0 00-.5-.16c-.24 0-.51.1-.57.41-.02.17.05.33.17.43.07.07.15.13.23.18l.26.17c.36.25.72.56.62 1.16-.13.77-.78 1.09-1.5 1.09a3.02 3.02 0 01-.57-.06 4.26 4.26 0 01-.37-.09l.12-.64c.21.18.5.42.9.42.45 0 .65-.25.7-.51a.5.5 0 00-.18-.45 1.8 1.8 0 00-.22-.18l-.26-.18c-.36-.23-.72-.52-.63-1.07.1-.57.54-1.05 1.4-1.05a2.42 2.42 0 01.5.05zm1.54 2.62c-.1.54-.1.76.45.76a1.25 1.25 0 00.28-.03l-.05.35a2.74 2.74 0 01-.5.06c-.7 0-1.1-.12-.96-1.02l.39-2.37h-.57l.06-.34h.56l.1-.6.88-.73-.22 1.33h.95l-.06.34h-.95l-.36 2.25zm2.85-.23l.07-.43c-.31 0-1.09.07-1.2.77-.06.35.07.58.32.58.41 0 .73-.4.81-.92zm-.05-2.44c1.05 0 1.12.58.99 1.35l-.39 2.39h-.76l.07-.43-.1.11-.22.19c-.2.14-.44.21-.68.2-.57 0-.92-.43-.84-.9.18-1.1 1.6-1.2 2.1-1.21l.07-.39c.08-.5.17-1-.27-1s-.56.39-.62.73v.05h-.9c.17-.55.5-1.1 1.55-1.1zm3.58 1.67c.07-.44.1-1.22-.55-1.22s-.86.88-.95 1.43c-.1.6-.19 1.48.47 1.48.69 0 .9-.95.98-1.36l.05-.33zm-.02-3.22l1.33-.2-.89 5.48h-.76l.07-.4-.15.12a2.08 2.08 0 01-.25.18 1.3 1.3 0 01-.66.19c-.96 0-1.18-.87-1.03-1.84.17-.99.7-1.98 1.67-1.98.58 0 .76.3.86.56a1.57 1.57 0 00.04-.2l.07-.44.1-.6c.09-.51 0-.64-.36-.67l-.08-.01.04-.19zm3.39 3.46c.11-.73.19-1.61-.5-1.61-.7 0-.9.92-1.01 1.6-.1.67-.2 1.61.49 1.61.7 0 .89-.82 1.02-1.6zm-.45-1.91c1.07 0 1.46.78 1.27 1.91-.2 1.27-.8 1.9-1.89 1.9-1.18 0-1.45-.81-1.27-1.9.21-1.3.82-1.91 1.89-1.91zm-29.98 2.17c.12-.75-.36-1.02-1-1.02h-.64l-.3 1.88c-.05.3.21.3.62.3.8 0 1.19-.37 1.32-1.16zm-1.33-2.91l-.25 1.5h.47c.62 0 1.12-.22 1.25-.98.1-.69-.21-.91-.87-.91-.43 0-.54.02-.6.39zm1.28 1.66v.01c.47.12 1.01.42.85 1.4a1.5 1.5 0 01-1.02 1.23 2.91 2.91 0 01-.7.15c-.23.02-.44.02-.59.02h-1.38l.68-4.2c.07-.38.1-.56.03-.67-.07-.1-.25-.14-.57-.2l.03-.2h2.17c.83 0 1.7.21 1.53 1.29a1.47 1.47 0 01-1.03 1.17zm2.9 1.52l.07-.43c-.32 0-1.1.07-1.2.77-.06.35.06.58.32.58.4 0 .72-.4.8-.92zm-.05-2.44c1.04 0 1.11.58.98 1.35l-.39 2.38h-.75l.07-.42a4.8 4.8 0 01-.12.11 1.8 1.8 0 01-.21.18c-.2.14-.44.22-.67.22-.58 0-.92-.45-.85-.91.18-1.1 1.61-1.2 2.1-1.21l.07-.39c.08-.5.17-1-.27-1s-.55.38-.61.71a.5.5 0 00-.01.07h-.9c.17-.55.51-1.1 1.56-1.1zm3.76 0c.68 0 .81.52.71 1.12l-.42 2.61h-.76l.33-2.03c.1-.63.19-1.14-.28-1.14s-1 .71-1.08 1.26l-.32 1.9h-.75l.42-2.61c.09-.52 0-.65-.4-.67h-.07l.03-.2 1.38-.25-.15.96c.23-.37.7-.95 1.36-.95zm2.67 3.36a2.61 2.61 0 00.68-.1h.04l-.06.37a2.81 2.81 0 01-.41.13 3.04 3.04 0 01-.65.06c-1.03 0-1.52-.79-1.32-1.97.17-1.06.71-1.85 1.76-1.85.78 0 1.25.41 1.18 1.03v.07h-.9c.06-.36.05-.8-.37-.8-.47 0-.68.55-.8 1.3-.19 1.15.2 1.76.85 1.76zm3.46-1.45v-.01c.11-.72.19-1.6-.5-1.6-.7 0-.9.92-1.01 1.6-.1.67-.2 1.61.49 1.61.7 0 .89-.82 1.02-1.6zm-.45-1.92c1.07 0 1.46.79 1.28 1.91-.21 1.28-.81 1.9-1.9 1.9-1.18 0-1.45-.8-1.27-1.9.21-1.3.82-1.91 1.9-1.91z" fill="#636A72"/><path fill="#FFF" d="M5.01 14.01h8.38v8.97H5.01z"/><path d="M7.6 18.08v.4c0 .07-.04.13-.1.15L5 19.66v.63l2.5-1.05c.07-.03.1-.08.1-.15v-.4c.01-.07.05-.13.1-.15l.5-.2v-.61l-.5.2a.18.18 0 00-.1.15m0 1.2v.41c0 .07-.04.12-.1.14L5 20.88v.62l2.5-1.05c.07-.03.1-.09.1-.15v-.41c.01-.07.05-.12.1-.14l.5-.2v-.62l-.5.2a.18.18 0 00-.1.15" fill="#D10024"/><path d="M5 14v5.05l2.6-1.08v-.57l.6-.28v-.67a2.9 2.9 0 001.64-.92l3.57 3.21V14H5z" fill="#D10024"/><path fill="#DD8601" d="M9.84 15.53v.86l.62-.28v5.39h2.94v-2.76z"/><path d="M10.5 22.07l.07-.05a.1.1 0 00.04-.08.07.07 0 00-.02-.05.06.06 0 00-.05-.02c-.05 0-.09.03-.1.08a.11.11 0 00.03.06l.04.06zm-.02.14l-.06.04a.19.19 0 00-.08.14c0 .05.05.09.1.09.07 0 .13-.05.14-.12a.11.11 0 00-.03-.08l-.07-.07zm-2-.02a.53.53 0 00-.05.2c0 .04.01.06.03.06a.18.18 0 00.09-.06.41.41 0 00.1-.19l.02-.07a.1.1 0 00-.07-.03.16.16 0 00-.11.1m-.89-.1a.1.1 0 00-.07.04.36.36 0 00-.07.14l.18-.1a.07.07 0 000-.04c0-.03 0-.05-.04-.05" fill="#001277"/><path d="M11.7 22.07h-.2l-.03.18c.04 0 .07.01.1.03.07.03.1.1.1.17-.01.18-.15.32-.31.33a.36.36 0 01-.15-.05l.04-.1a.28.28 0 00.11.03.16.16 0 00.12-.06.19.19 0 00.04-.14.1.1 0 00-.03-.08.21.21 0 00-.1-.03h-.07l.07-.4h.33l-.02.12zm-.82.7a.35.35 0 01-.15-.04l.04-.1a.28.28 0 00.12.03.16.16 0 00.11-.06.19.19 0 00.04-.14.1.1 0 00-.03-.08.21.21 0 00-.1-.02h-.07l.07-.41h.33l-.02.12h-.2l-.03.18a.27.27 0 01.1.03c.07.03.1.1.1.17-.01.18-.15.32-.31.33v-.01zm-.46-.19c-.14 0-.22-.06-.21-.17a.28.28 0 01.1-.2l.1-.07-.04-.05a.22.22 0 01-.06-.14c0-.1.1-.18.26-.18.12 0 .19.05.18.15a.18.18 0 01-.01.06.24.24 0 01-.1.11l-.06.05.07.07a.22.22 0 01.07.16c0 .13-.12.22-.3.22zm-.41 0h-.14l.08-.43-.14.06-.03-.1.27-.12h.06l-.1.58zm-.75-.33l-.22.13a.11.11 0 00.01.05.06.06 0 00.05.03.2.2 0 00.07-.01.55.55 0 00.11-.1l.05.1-.07.05-.06.04a.3.3 0 01-.14.04c-.1 0-.15-.07-.14-.2 0-.23.12-.39.3-.39.1 0 .14.04.14.12 0 .06-.04.12-.1.14zm-.53.32H8.6l.03-.16-.03.04a.35.35 0 01-.06.08.26.26 0 01-.14.06c-.07 0-.1-.06-.1-.17 0-.23.13-.42.3-.42a.21.21 0 01.1.02l.05-.31.13-.02-.15.88zm-.54-.43a.2.2 0 00-.11-.03c-.05 0-.07.01-.07.04a.04.04 0 000 .02l.08.08c.07.07.1.1.1.16a.18.18 0 01-.06.13.16.16 0 01-.13.04.56.56 0 01-.08 0 .64.64 0 01-.1-.03l.04-.11a.33.33 0 00.12.03c.04 0 .07-.02.07-.05 0-.03-.01-.04-.04-.06l-.06-.06a.8.8 0 01-.04-.05.15.15 0 01-.03-.09c0-.1.08-.16.2-.16a.36.36 0 01.15.03l-.04.11zm-.51.11l-.23.13a.13.13 0 00.01.05.06.06 0 00.05.03.2.2 0 00.07-.02.56.56 0 00.12-.08l.05.08-.08.06a.5.5 0 01-.06.04.3.3 0 01-.14.04c-.1 0-.14-.07-.14-.2 0-.23.13-.39.3-.39.1 0 .15.04.14.12 0 .06-.04.12-.1.14zm-.54.32h-.12l.02-.16a.4.4 0 01-.02.04.36.36 0 01-.07.08.26.26 0 01-.14.06c-.07 0-.1-.06-.1-.17 0-.23.14-.42.3-.42.03 0 .06 0 .1.02l.05-.31.13-.02-.15.88zM5 23h8.4v-1.5H5V23z" fill="#001277"/><path d="M9.19 22.1a.1.1 0 00-.08.04.36.36 0 00-.06.14l.17-.1a.08.08 0 00.01-.04.05.05 0 000-.03.04.04 0 00-.04-.02m-2.29.1a.53.53 0 00-.06.2c0 .04.01.06.03.06a.18.18 0 00.1-.06.4.4 0 00.1-.19l.01-.07a.1.1 0 00-.06-.03.16.16 0 00-.12.1" fill="#001277"/></g></g></svg>