<?xml version="1.0" encoding="UTF-8"?><svg width="56" height="36" viewBox="0 0 56 36" xmlns="http://www.w3.org/2000/svg"><g fill="none" fill-rule="evenodd"><path d="M0 3.75A3.749 3.749 0 013.75 0h48.5A3.756 3.756 0 0156 3.75v28.5A3.749 3.749 0 0152.25 36H3.75A3.756 3.756 0 010 32.25V3.75z" fill="#000" fill-rule="nonzero"/><path d="M1.25 3.75v28.5c0 1.375 1.123 2.5 2.5 2.5h48.5c1.382 0 2.5-1.118 2.5-2.5V3.75c0-1.375-1.123-2.5-2.5-2.5H3.75a2.499 2.499 0 00-2.5 2.5z" fill="#FFF"/><path d="M29.4 7h.27c-.214.532-3.862 2.24-5.272 3.815-2.165 2.417-3.62 3.767-3.378 7.538.14 2.193 1.918 5.438 3.987 6.602.635.355 2.649 1.434 4.529 1.513 2.738.118 1.646-.415 2.045-.204V10.347c0-.198-.497-1.243-.964-1.243-.134 0-.338.244-.338.395v10.983c0 .412-.392 1-2.298 2.237-1.954 1.263-2.555 1.69-2.772 1.644.047-.118.345-.553.473-.658V12.261c0-1.135 1.699-1.795 3.178-2.894C31.3 7.55 32.618 7.13 32.645 7.13h.608c1.62 0 2.638 1.907 2.84 2.104.014.014.466.165.608.33h.946c.274 0 .947-.395 1.353-.33-1.095.928-4.584 3.092-4.665 3.092h-.54c-.25 0-.636-.375-1.082-.592v14.338c.19.026.162 0 .27 0 .663 0 3.124-1.73 3.244-1.907h.203v.46l-1.013 1.842c-2.109 2.348-4.477 3.508-7.85 3.532-5.901.042-10.089-4.118-10.537-10.57-.446-6.42 4.2-11.696 9.667-12.036.797-.05 1.77.007 1.892 0 0 0 .75-.348.812-.394" fill="#173A79" fill-rule="nonzero"/></g></svg>