<?xml version="1.0" encoding="UTF-8"?><svg width="56" height="36" viewBox="0 0 56 36" xmlns="http://www.w3.org/2000/svg" xmlns:xlink="http://www.w3.org/1999/xlink"><defs><path id="a" d="M0 0h45.993v6.947H0z"/></defs><g fill="none" fill-rule="evenodd"><path d="M0 3.75A3.749 3.749 0 013.75 0h48.5A3.756 3.756 0 0156 3.75v28.5A3.749 3.749 0 0152.25 36H3.75A3.756 3.756 0 010 32.25V3.75z" fill="#000" fill-rule="nonzero"/><path d="M1.25 3.75v28.5c0 1.375 1.123 2.5 2.5 2.5h48.5c1.382 0 2.5-1.118 2.5-2.5V3.75c0-1.375-1.123-2.5-2.5-2.5H3.75a2.499 2.499 0 00-2.5 2.5z" fill="#FFF"/><g transform="translate(5 15)"><mask id="b" fill="#fff"><use xlink:href="#a"/></mask><path d="M11.237 4.846c0-.856-.398-1.396-1.016-1.497v-.016c.555-.181.845-.713.845-1.407C11.066.691 10.4.295 9.478.295H7.593V6.73h1.9c1.314 0 1.744-.874 1.744-1.884zM8.717 1.25h.407c.558 0 .816.224.816.837 0 .604-.283.847-.902.847h-.32V1.251zm0 4.522V3.836h.486c.494 0 .86.217.86.963 0 .75-.366.974-.907.974h-.439zm25.301 1.018h1.624V.155h-1.624V6.79zM12.816 5.367h1.487l.26 1.363h1.17L14.257.295h-1.393L11.385 6.73h1.174l.257-1.363zm.735-3.955h.016l.54 2.894H13.01l.54-2.894zm25.264 5.535c1.48 0 2.299-1.437 2.299-2.772v-.058h-1.587l-.006.05c-.092.615-.286 1.037-.745 1.037-.652 0-.885-.842-.885-1.73 0-.89.233-1.731.885-1.731.572 0 .708.66.737.906l.005.052h1.58l-.005-.063C40.96.981 40.203.01 38.815 0 37.26 0 36.27 1.4 36.27 3.474c0 1.94.913 3.473 2.545 3.473zM0 1.55h5.866V.337H0V1.55zm22.07 5.308c1.478 0 1.776-1.2 1.776-2.589h-1.128c0 1.388-.296 1.631-.704 1.631-.485 0-.719-.35-.719-2.296 0-1.822.134-2.48.703-2.48.51 0 .673.406.673 1.344H23.8c0-.938-.118-2.296-1.73-2.296-1.69 0-1.9 1.388-1.9 3.341 0 1.955.21 3.345 1.9 3.345zM16.99 2.223h.017l1.376 4.507h1.282V.295h-1.032v4.407h-.015L17.257.295H15.96V6.73h1.032V2.223zm16.545 2.53c0-.923-.376-1.405-.8-1.637.334-.27.55-.638.55-1.269 0-.685-.285-1.692-1.621-1.692H28.92V6.79h2.84c.896 0 1.776-.7 1.776-2.038zm-3.048-2.987h.797c.31 0 .516.117.516.446 0 .42-.2.54-.516.54h-.797v-.986zm0 3.415V3.968h.947c.359 0 .531.207.531.591 0 .503-.274.622-.59.622h-.888zm-4.383 1.676c1.69 0 1.903-1.39 1.903-3.345 0-1.953-.214-3.341-1.903-3.341-1.688 0-1.9 1.388-1.9 3.341 0 1.955.212 3.345 1.9 3.345zm0-5.734c.664 0 .775.667.775 2.389 0 1.731-.11 2.387-.775 2.387s-.774-.656-.774-2.387c0-1.722.11-2.39.774-2.39zM0 3.248h5.866V2.034H0v1.214zM43.365 5.12v-.865h2.32V2.734h-2.32V1.85h2.554V.155h-4.175V6.79h4.25v-1.67h-2.629zM0 6.641h5.866V5.43H0V6.64zm0-1.697h5.866V3.73H0v1.213z" fill="#003B6E" mask="url(#b)"/></g></g></svg>