<?xml version="1.0" encoding="UTF-8"?><svg width="56" height="36" viewBox="0 0 56 36" xmlns="http://www.w3.org/2000/svg"><g fill="none" fill-rule="evenodd"><path d="M0 3.75A3.75 3.75 0 013.75 0h48.5A3.76 3.76 0 0156 3.75v28.5A3.75 3.75 0 0152.25 36H3.75A3.76 3.76 0 010 32.25V3.75z" fill="#000" fill-rule="nonzero"/><path d="M1.25 3.75v28.5a2.5 2.5 0 002.5 2.5h48.5a2.5 2.5 0 002.5-2.5V3.75a2.5 2.5 0 00-2.5-2.5H3.75a2.5 2.5 0 00-2.5 2.5z" fill="#FFF"/><g><path d="M4.03 24.92V11.08h48.9v13.84H4.02z" fill="#FFF"/><path d="M13.35 24.38h39l-.02.04-39-.02c0-.01 0-.02.02-.02z" fill="#EF945A"/><path d="M4.6 24.4h6.3-6.3zM4.6 11.68V24.4H4.6V11.68h.02z" fill="#CE4A63"/><path d="M10.9 24.4H4.6V11.68l6.3-.01.66.05c.02.01.28.04.3.06 1.19.23 2.15.81 3.06 1.62.44.48.8.96 1.14 1.52l.36.78c.17.59.3 1.11.39 1.71l.02.96-.07.73a7.42 7.42 0 01-1.03 2.59l-.28.39a7.76 7.76 0 01-2.2 1.75l-.63.25c-.56.17-1.13.29-1.71.31z" fill="#AD2931"/><path d="M13.35 24.38a8.3 8.3 0 002.16-1.46c.03-.05.26-.28.65-.75.36-.53.67-1.04.94-1.62l.25-.67a8.03 8.03 0 00-.28-5.31 8.8 8.8 0 00-2.25-2.88l37.51-.01.02.01v12.7l-39-.01z" fill="#F60"/><path d="M10.7 23.06c-.27-1.88-.56-3.77-.75-5.65.28-.15.36-.47.45-.77.06-.32.14-.68.12-1.02-.55.02-1.15.08-1.64.32-.61 0-.65-.9-.02-.95.55.22 1.1.3 1.68.32a5.3 5.3 0 00-.3-1.72.5.5 0 01.13-.37c.37-.25.72-.09.78.36-.23.58-.26 1.1-.3 1.7l.03.03a4.4 4.4 0 001.64-.32c.63.06.6.95-.02.95-.5-.25-1.1-.3-1.65-.3.04.35.07 1.64.6 1.78-.03.28-.05.3-.58 4.44-.02.02-.16 1.16-.18 1.2zM39.8 21.97a2.14 2.14 0 01-1.98-1.52c-.43-1.74.39-3.52 2.18-3.74.5 0 .97.13 1.44.3 0 .06 0 .06-.28.81-.14-.01-.14-.01-.45-.08h-.53c-.37.1-.63.21-.89.5-.51.8-.6 1.86.19 2.49l.3.14c.46.07.91.03 1.37-.11.1-.05.1-.05.13-.05.1.19.27.44.3.65-.55.34-1.13.53-1.77.61zM25.6 15.8h-.37c-.82 0-1.5.48-1.95 1.15-.13.3-.2.51-.22.53a3.5 3.5 0 00.1 2c.33.64.68.99 1.33 1.25l.41.08c.3 0 .76.04 1-.1l.02-1.6-1.18-.03v-1.02-.01h2.37l.01 3.4-.68.25c-.4.1-.76.19-1.17.24a4.44 4.44 0 01-1.57-.2 3.29 3.29 0 01-1.95-2.3 5.18 5.18 0 01.1-2.5 5 5 0 01.65-1.13c.5-.52.98-.77 1.64-1.02.95-.21 1.87-.1 2.8.17l-.32.97c-.63-.1-.63-.1-1.02-.14zM30.12 16.73c-.59.02-1.16.26-1.76.5l.27.75.77-.26c.28-.06.6-.08.9-.03.44.2.46.58.48 1.04-.81.05-1.58.06-2.27.55-.14.15-.3.3-.4.48a2 2 0 00-.05 1.19c.22.5.47.76.96.95.72.14 1.22-.16 1.74-.65h.03c.08.52.1.54.1.57h1.03l-.01-3.62c-.1-.55-.27-.92-.7-1.24a2.2 2.2 0 00-1.09-.23zm.66 2.78v.92c-.2.36-.72.53-1.1.57-.27-.07-.45-.15-.57-.43-.15-.99 1-1.04 1.67-1.06zM46.5 16.72c-.57.07-1.12.27-1.64.52-.03.12.18.6.27.75.52-.2.96-.34 1.5-.34.03.02.02.03.2.06.41.22.4.58.44 1.02-.99.07-2.33.06-2.74 1.23-.2.98.27 1.84 1.25 2a2 2 0 001.47-.72h.04c.07.5.07.5.1.6l1.01-.01V18.4c-.06-.7-.23-1.1-.8-1.5-.3-.13-.44-.14-.46-.16l-.64-.03zm.77 2.79v.95c-.4.36-1.18.87-1.6.24-.46-1.04.94-1.17 1.6-1.2z" fill="#FFF"/><path d="M35.6 21.84l1.17-.01c-.07.07-1.02.01-1.16.01zM47.39 21.84l1.01-.01h.01l-.04.02h-.98zM30.89 21.82l1.03.01h-1.03zM33.1 14.26l.01 7.57h1.2-1.23l.02-7.57zM42.5 21.83h1.19c-1.2.02-1.2.02-1.2 0zM35.58 16.84v5c-.02 0-.02 0 0-5z" fill="#EF945A"/><path d="M35.57 21.84v-5h1.18l.02 4.99h-1.2zM33.1 14.26v-.03h1.2v7.6h-1.19v-7.57zM42.5 21.83v-4.98h1.17l.02 4.98h-1.2z" fill="#FFF"/><path d="M48.4 21.83V18.4l.02 3.42h-.02zM27.13 21.45a756.8 756.8 0 010-3.41v3.41z" fill="#F7CEB5"/><path d="M47.28 20.46l-.01-.95h.02l-.01.95z" fill="#EFAD84"/><path d="M24.72 19.08h.02c1.18.02 1.18.02 1.18.04h-1.19v-.04z" fill="#EFAD7B"/><path d="M24.73 19.08v-1.02l.01 1.02h-.01z" fill="#F7CEB5"/><path d="M24.73 18.05h2.4-2.4z" fill="#EFAD84"/><path d="M42.5 16.86c0-.02 0-.02 1.17-.01H42.5z" fill="#F7CEB5"/><path d="M36.13 15.74c-.6-.08-.76-.76-.38-1.2.6-.39 1.18.09 1 .8a.71.71 0 01-.62.4zM43.05 15.74c-.5-.1-.74-.56-.5-1.07.3-.34.75-.38 1.05-.01.22.47.09.88-.37 1.06-.06 0-.12 0-.18.02z" fill="#FFF"/><path d="M33.1 14.24l.02-.04h1.17l.02.04h-1.2z" fill="#EFAD84"/><path d="M4.6 11.7v-.02h6.3l-6.3.01z" fill="#CE4A63"/><path d="M14.82 11.7c0-.02 0-.02 37.51-.02l-37.51.01z" fill="#EF945A"/></g></g></svg>