<?xml version="1.0" encoding="UTF-8"?><svg width="56" height="36" viewBox="0 0 56 36" xmlns="http://www.w3.org/2000/svg"><g fill="none" fill-rule="evenodd"><path d="M0 3.75A3.75 3.75 0 013.75 0h48.5A3.76 3.76 0 0156 3.75v28.5A3.75 3.75 0 0152.25 36H3.75A3.76 3.76 0 010 32.25V3.75z" fill="#000" fill-rule="nonzero"/><path d="M1.25 3.75v28.5a2.5 2.5 0 002.5 2.5h48.5a2.5 2.5 0 002.5-2.5V3.75a2.5 2.5 0 00-2.5-2.5H3.75a2.5 2.5 0 00-2.5 2.5z" fill="#FFF"/><g><path d="M6.8 4h43.4c1 0 1.8.8 1.8 1.8v12.7H5V5.8C5 4.8 5.8 4 6.8 4z" fill="#792995"/><path d="M16.99 18.45h-.84a155 155 0 00-1.14-3.1c-.01 0-.38 1.03-1.1 3.1h-.79l1.6-4.3h.56l1.7 4.3zm7.95-4.18l.2.08v.75l-.27-.13c-.36-.16-.97-.2-1.32-.08-.32.1-.6.35-.75.68-.12.24-.13.33-.13.73 0 .4.01.49.13.72.33.7 1.09.94 1.92.63.18-.06.34-.11.35-.1l.11.27c.12.31.12.32-.4.5-.83.32-1.8.17-2.36-.37-.45-.42-.64-.96-.62-1.72a2.14 2.14 0 011.55-2.01c.36-.1 1.3-.07 1.6.05zm3.52-.05c1.28.34 1.86 1.85 1.23 3.16-.72 1.48-3.08 1.5-3.81.04a2.36 2.36 0 01-.21-1.26c.02-.4.04-.52.17-.79.25-.55.82-1.04 1.35-1.17.3-.07.97-.05 1.27.02zm-1.06.64c-.24.08-.42.2-.58.4-.23.26-.33.6-.33 1.06 0 .65.24 1.13.7 1.38.27.15.9.15 1.18 0 .5-.28.77-.85.71-1.55-.04-.56-.3-.98-.71-1.2-.2-.1-.76-.16-.97-.09zm-15.35-.53c.35.18.52.44.55.85.01.24 0 .34-.09.52a.91.91 0 01-.21.3c-.15.1-.15.13.02.2.07.03.2.13.28.2.51.55.31 1.5-.4 1.87-.23.12-.67.18-1.42.18h-.72V14.2h.86c.85 0 .87 0 1.13.13zm-1.19 1.59h.31c.3 0 .32-.01.47-.17.14-.13.16-.2.16-.36a.81.81 0 00-.05-.3c-.07-.13-.33-.22-.63-.22h-.26v1.05zm0 1.82l.45-.02c.41-.01.45-.02.58-.15.19-.18.24-.42.13-.64-.1-.2-.3-.3-.79-.33l-.37-.03v1.17zm9.52-.62V14.2h.8v4.26h-.77l-1.12-1.5-1.12-1.47v2.97h-.8V14.2h.82l2.2 2.93z" fill="#FFF" fill-rule="nonzero"/><path d="M5 18.5h47v12.7c0 1-.8 1.8-1.8 1.8H6.8c-1 0-1.8-.8-1.8-1.8V18.5z" fill="#1E1B75"/><path d="M38.49 19c.25.26.15.71-.2.81a.47.47 0 01-.57-.2c-.2-.36 0-.74.42-.75.17 0 .24.03.35.14zm2.54.83v.69h3.36v.14c0 .1-.03.16-.1.2-.15.07-.19.13-.19.29 0 .16.96 2.46 1 2.41.06-.06.8-2.36.8-2.48 0-.16-.09-.27-.26-.31-.1-.03-.15-.08-.16-.15-.01-.1 0-.1.72-.1.71 0 .74 0 .74.1s-.02.1-.25.16c-.2.04-.4.24-.53.51-.06.14-.44 1.23-.85 2.43-.4 1.2-.8 2.32-.9 2.5-.39.8-.92 1.13-1.46.91-.1-.04-.17-.08-.17-.1l.13-.35.12-.34.15.04a.9.9 0 00.96-.3 7.7 7.7 0 00.58-1.36c0-.11-1.49-3.48-1.6-3.63-.2-.24-.38-.28-1.3-.28h-.79l.01 1.45c.02 1.35.03 1.47.11 1.65.13.24.34.36.64.36.26 0 .44-.08.61-.26.09-.1.13-.11.18-.08.03.03.06.09.06.12 0 .07-.37.42-.55.51-.62.32-1.37.15-1.67-.4-.12-.2-.12-.2-.14-1.77l-.02-1.56-.4-.02c-.34-.01-.38-.02-.38-.1 0-.06.06-.12.15-.17.25-.13.79-.68 1.01-1.05.14-.23.24-.34.3-.34.09 0 .1.04.1.68zm-6.6.95c0 .22 0 .4.03.4.02 0 .18-.12.36-.26.68-.56 1.02-.66 1.44-.44.31.16.32.2.15.6l-.15.34-.28-.14c-.43-.22-.67-.27-.91-.17-.12.04-.31.16-.43.27l-.22.2.01 1.29c.02 1.29.02 1.29.13 1.41.08.09.18.13.34.15.18.03.23.05.23.12 0 .09-.06.1-1.08.1s-1.1-.01-1.1-.1c0-.06.07-.09.25-.13.18-.03.27-.07.34-.17.1-.13.1-.2.12-1.64.01-1.88.03-1.83-.62-1.92-.18-.03-.22-.05-.22-.12 0-.07.06-.1.48-.13l.8-.06h.32v.4zm4.11 1.5l.02 1.9.13.11c.07.06.21.13.32.14.14.03.18.05.18.12 0 .09-.05.1-1.1.1-1.08 0-1.12-.01-1.12-.1 0-.08.04-.1.15-.1.22 0 .51-.14.57-.27.02-.06.04-.8.04-1.65V21l-.11-.13c-.09-.1-.16-.13-.38-.15-.24-.02-.27-.03-.27-.13s.03-.1.54-.15l.77-.05.25-.01.01 1.9zM17.3 20.57l.33.1c.04 0 .1-.05.16-.1.04-.05.12-.1.17-.1.08 0 .08.05.08.62v.61h-.11c-.09 0-.12-.02-.12-.1 0-.14-.13-.43-.28-.57-.48-.52-1.37-.37-1.37.22 0 .34.24.55 1.01.93.46.22.62.32.79.51.69.77.2 1.95-.85 2.08-.17.02-.3 0-.58-.1-.46-.18-.71-.19-.78-.04-.02.06-.08.1-.15.1-.1 0-.1 0-.1-.68 0-.69 0-.69.1-.69s.13.04.2.27c.15.49.71.92 1.2.92.36 0 .71-.36.71-.7 0-.4-.26-.65-1.01-1-.86-.37-1.11-.65-1.11-1.19 0-.5.23-.86.68-1.07.3-.15.67-.15 1.03-.02zm4.4.07c.56.26.97.84.97 1.35v.19h-2.98v.16c0 .28.15.88.28 1.16.15.32.48.66.8.8.17.1.3.12.58.13.45 0 .66-.1 1.1-.54l.32-.31v.17c0 .14-.04.2-.3.45-.37.36-.6.47-1.05.54-1.38.22-2.52-.73-2.52-2.09 0-.98.54-1.77 1.44-2.1.36-.13 1-.09 1.37.09zm-1.24.13c-.38.14-.7.57-.72 1l-.02.2h1.08c1.22.02 1.17.04 1.08-.38a1.08 1.08 0 00-1.42-.82zm5.75-.16c.3.1.4.09.52-.06.04-.04.1-.08.15-.08.09 0 .1.05.1.71 0 .66-.01.71-.1.71-.06 0-.11-.08-.2-.27-.37-.91-1.4-1.2-2.08-.6-.9.83-.6 2.75.5 3.28.18.1.28.1.56.1.45-.03.8-.2 1.17-.55l.28-.27v.16c0 .22-.35.57-.78.79-1.1.54-2.4.15-2.86-.87-.13-.27-.15-.4-.17-.78-.01-.25 0-.56.03-.7.16-.75.7-1.36 1.44-1.63.32-.1 1.01-.08 1.44.06zm2.74 1.36c0 .96.02 1.58.06 1.7.11.41.6.7 1.05.6.24-.06.55-.25.73-.46l.15-.17V22.4c0-.68-.02-1.29-.03-1.35-.04-.15-.25-.25-.51-.25-.2 0-.22 0-.22-.1 0-.11.02-.12.63-.17l.78-.06h.15v1.8c0 1.07.02 1.84.05 1.92.05.14.3.26.52.26.1 0 .14.02.14.1 0 .09-.03.1-.76.1h-.75V24l-.25.24c-.77.76-1.91.67-2.34-.18l-.15-.3v-1.23c0-.71-.02-1.31-.05-1.41-.05-.2-.17-.29-.47-.33-.17-.01-.22-.04-.23-.12-.01-.1.02-.1.5-.15l.76-.05h.24v1.5z" fill="#FFF" fill-rule="nonzero"/></g></g></svg>