<?xml version="1.0" encoding="UTF-8"?><svg width="56" height="36" viewBox="0 0 56 36" xmlns="http://www.w3.org/2000/svg"><g fill="none" fill-rule="evenodd"><path d="M0 3.75A3.749 3.749 0 013.75 0h48.5A3.756 3.756 0 0156 3.75v28.5A3.749 3.749 0 0152.25 36H3.75A3.756 3.756 0 010 32.25V3.75z" fill="#000" fill-rule="nonzero"/><path d="M1.25 3.75v28.5c0 1.375 1.123 2.5 2.5 2.5h48.5c1.382 0 2.5-1.118 2.5-2.5V3.75c0-1.375-1.123-2.5-2.5-2.5H3.75a2.499 2.499 0 00-2.5 2.5z" fill="#FFF"/><g><path d="M3.343 18.5c0-4.009 3.481-7.258 7.775-7.258 4.295 0 7.776 3.25 7.776 7.258 0 4.009-3.481 7.258-7.776 7.258-4.294 0-7.775-3.25-7.775-7.258" fill="#353D90" fill-rule="nonzero"/><path d="M11.118 11.743c-3.997 0-7.238 3.025-7.238 6.757 0 3.732 3.24 6.757 7.238 6.757s7.24-3.025 7.24-6.757c0-3.732-3.242-6.757-7.24-6.757M3.258 18.5c0-4.052 3.52-7.337 7.86-7.337 4.341 0 7.86 3.285 7.86 7.337s-3.519 7.337-7.86 7.337c-4.34 0-7.86-3.285-7.86-7.337m9.512 2.293c-.23.271-.405.66-.524 1.166-.018.066-.07.03-.066-.004.033-.576.165-1.03.394-1.36-.086-.094-.172-.195-.265-.302-.23-.255-.466-.16-.536.08-.242.919-.152 1.71.146 2.277-.78.051-1.385-.118-1.816-.509.429.755 1.22 1.558 1.67 1.558.181 0 .185-.104.122-.196a.558.558 0 01-.087-.192 1.53 1.53 0 01-.338-.035l.009-.054c.66.097 1.261-.064 2.05-.475.817-.557 1.069-.98.786-1.268-.109-.102-.35-.136-.637-.214-.135.15-.3.398-.36.727-.01.036-.038.017-.036-.002a1.78 1.78 0 01.247-.769 2.468 2.468 0 01-.295-.114c-.172.213-.303.512-.394.897-.014.052-.054.024-.052-.003.024-.41.11-.74.26-.993a1.99 1.99 0 01-.278-.215m-2.63-5.86c-.893.315-1.55.739-1.97 1.27-.067.111-.098.15-.3.139a8.268 8.268 0 00-.663-.019c-.425-.007-.66.082-.703.267-.017.11.35.306.474.631.11.163.17.382.145.65-.097 1.248-.009 2.064.24 2.475-.244-1.386.04-2.414.85-3.084.438-.374 1.066.059.527.52-.811.674-1.204 1.364-1.253 2.272.007.364.052.637.133.82-.117-.818.066-1.506.55-2.064.242-.263.426-.313.551-.15.076.135.054.217-.231.483-.548.52-.82 1.176-.816 1.964.002.679.188 1.135.516 1.367.122.072.233.024.233-.073 0-.171-.207-.192.048-.552.111-.154.357-.232.488-.154-.162.166-.25.33-.264.49.442.433 1.126.767 2.05 1.003-.442-.525-.857-.942-.982-1.476-.11-.47-.12-.903.136-1.508.07.052.18.099.33.142.044-.201.03-.412-.045-.632.374-.487 1.074-.762 1.324-1.482v-.091c-1.906-.306-2.362-1.375-1.368-3.209m1.7 2.926l.259-.223c.15-.164.308-.113.747-.077.535-.011.899-.068 1.092-.17.334-.216.321-.384-.039-.506-.411-.13-.541-.192-.555-.561-.007-1.067.567-1.15.614-1.597.26-.184-.066-.51-.916-.51-.8 0-1.612.197-2.556.637-.296.363-.437.898-.423 1.604.155.205.41.294.724.294.305.002.567-.084.786-.257.078-1.144 1.34-2.058 2.013-2.022.289.022.346.128.15.14-1.074.08-1.763 1.174-1.655 2.103-.242.037-.36.035-.466-.083-.19.158-.495.282-.833.282-.315 0-.519-.072-.7-.232.115.614.548 1.022 1.3 1.223.202.055.355.04.459-.045m-5.673 4.344a.187.187 0 00.041-.274.22.22 0 00-.293-.038.187.187 0 00-.041.273c.07.086.2.104.293.039m-.63-.877a.19.19 0 00.096-.261.216.216 0 00-.28-.09.19.19 0 00-.096.26c.05.098.176.138.28.09m-.453-.982c.11-.032.173-.14.139-.244a.212.212 0 00-.262-.13c-.11.032-.172.141-.139.244.034.104.151.162.262.13m-.255-1.036c.115-.013.197-.11.183-.217-.014-.107-.119-.183-.234-.17-.114.013-.196.11-.182.217.014.107.118.183.233.17m-.053-1.054c.115.007.215-.074.223-.182.008-.107-.08-.2-.194-.208-.116-.008-.216.074-.224.181-.008.108.08.201.195.209m.141-1.049c.112.029.226-.033.256-.137.03-.105-.036-.212-.147-.24-.112-.028-.227.034-.257.138-.03.104.036.211.148.24m.35-1.013c.104.046.229.004.277-.094.05-.098.004-.214-.1-.26a.216.216 0 00-.279.095c-.049.098-.003.214.101.26m.539-.937c.095.062.225.04.291-.048a.187.187 0 00-.051-.272.219.219 0 00-.291.048.187.187 0 00.051.272m.7-.83a.22.22 0 00.296.005.186.186 0 00.006-.276.22.22 0 00-.296-.005.186.186 0 00-.006.276m.862-.705c.066.088.197.11.291.048a.187.187 0 00.052-.272.219.219 0 00-.292-.048.188.188 0 00-.051.272m.967-.549c.048.099.17.143.277.1a.19.19 0 00.106-.259.216.216 0 00-.276-.099c-.106.044-.154.16-.107.258m1.066-.375c.028.104.141.168.253.142.113-.026.18-.132.153-.236-.028-.105-.142-.169-.254-.143-.112.026-.18.132-.152.237m1.12-.192c.008.108.108.19.223.182.116-.008.203-.101.195-.209-.009-.107-.108-.189-.224-.181-.115.007-.202.101-.194.208m1.131-.003c-.014.107.068.204.183.218.114.013.219-.063.233-.17.013-.107-.068-.205-.183-.218-.114-.014-.218.062-.233.17m1.121.185c-.033.103.029.212.14.244a.212.212 0 00.26-.13c.035-.103-.027-.212-.138-.244-.111-.031-.228.027-.262.13m1.062.364a.189.189 0 00.087.264c.102.051.229.015.283-.08a.189.189 0 00-.087-.265.217.217 0 00-.283.081m.985.549a.187.187 0 00.041.273.22.22 0 00.293-.038.186.186 0 00-.041-.274.22.22 0 00-.293.039m.856.69a.186.186 0 00-.015.276.22.22 0 00.295.015.186.186 0 00.016-.276.22.22 0 00-.296-.015m.712.83a.188.188 0 00-.067.27c.062.09.19.119.289.062a.188.188 0 00.066-.27.218.218 0 00-.288-.062m.544.926c-.108.04-.161.152-.12.253.041.1.162.15.27.112a.192.192 0 00.12-.252.215.215 0 00-.27-.113m.355 1.01c-.114.021-.188.124-.166.23.022.106.132.175.246.154.113-.02.187-.123.165-.229-.022-.105-.132-.175-.245-.154m.155 1.053c-.116.002-.208.091-.206.199.002.108.097.194.213.192.116-.002.208-.091.206-.199-.002-.108-.098-.193-.213-.192m-.047 1.063c-.114-.017-.222.055-.24.162-.018.106.06.207.175.223.114.017.221-.055.239-.162.018-.106-.06-.207-.174-.223m-.25 1.036a.213.213 0 00-.266.121c-.038.103.02.214.13.249.109.035.228-.02.266-.121.037-.102-.02-.213-.13-.249m-.435.969a.217.217 0 00-.287.066.188.188 0 00.072.269c.099.055.227.025.287-.067a.188.188 0 00-.072-.268m-.63.893a.22.22 0 00-.295.024.187.187 0 00.025.275.22.22 0 00.295-.024.187.187 0 00-.026-.275m-.776.768a.22.22 0 00-.295-.028.187.187 0 00-.03.274.22.22 0 00.294.029.187.187 0 00.03-.275m-.92.627a.218.218 0 00-.284-.076.19.19 0 00-.082.266.217.217 0 00.285.076.188.188 0 00.081-.266m-1.024.464c-.037-.102-.156-.156-.266-.12-.109.034-.167.146-.13.248.038.102.157.156.267.12.109-.035.167-.145.13-.248m-1.09.289c-.016-.107-.121-.182-.236-.167-.114.015-.194.114-.178.221.016.107.122.181.237.166.113-.015.193-.114.177-.22m-1.134.098c.004-.108-.086-.198-.202-.202-.116-.004-.212.08-.216.189-.004.107.086.198.202.201.115.004.212-.08.216-.188M10 24.326c.024-.106-.048-.21-.161-.232-.113-.023-.224.045-.248.15-.024.106.048.21.16.232.114.022.225-.045.249-.15m-1.099-.28c.044-.101-.008-.215-.115-.255a.215.215 0 00-.273.108c-.043.1.009.214.116.254.107.04.229-.008.272-.108m-1.023-.452a.188.188 0 00-.061-.27.218.218 0 00-.29.057.188.188 0 00.062.27.218.218 0 00.29-.057m-.923-.625a.186.186 0 00-.01-.276.22.22 0 00-.296.01.187.187 0 00.01.276.22.22 0 00.296-.01m4.162-11.048c3.894 0 7.05 2.946 7.05 6.58s-3.156 6.58-7.05 6.58c-3.893 0-7.049-2.946-7.049-6.58s3.156-6.58 7.05-6.58m.405 2.926c.027-.126.146-.229.265-.229.12 0 .194.102.167.23-.027.126-.146.228-.265.228-.12 0-.194-.102-.167-.229m2.04.23c-.276.259-.41.65-.401 1.174 0 .434.175.598.647.73.41.117.168.335-.246.323-.865-.026-1.262-.29-1.262-.684 0-.771.47-1.488 1.112-1.716.256-.094.323.01.15.173m-1.117 1.658c.076.268.324.393.743.42.169.007.29-.041.29-.127 0-.13-.214-.124-.377-.253-.202-.174-.194-.266-.436-.266-.141 0-.26.083-.22.226m-.816.2c.176.032.336.038.512-.003.13.226.474.382 1.033.47-.58.12-1.094-.036-1.545-.466" fill="#E5D000" fill-rule="nonzero"/><path d="M20.281 15.507c0-.623-.054-.996-.162-1.118-.109-.122-.483-.23-1.124-.322v-.278h4.019c.947 0 1.718.145 2.314.436.595.29.893.827.893 1.61 0 .556-.158.98-.474 1.276-.315.294-.699.509-1.15.644.614.126 1.114.355 1.502.688.388.332.582.86.582 1.585 0 .758-.304 1.324-.913 1.698-.61.375-1.59.562-2.943.562h-2.544v-6.781zm1.488 1.995h.907c.64 0 1.143-.12 1.509-.36.365-.24.548-.654.548-1.244 0-.547-.158-.936-.474-1.168-.315-.231-.798-.347-1.448-.347-.441 0-.726.034-.852.1-.126.068-.19.254-.19.557v2.462zm0 3.676c0 .236.1.38.298.435.198.055.532.082 1.001.082.74 0 1.279-.153 1.617-.46.338-.308.507-.79.507-1.447 0-.59-.203-1.018-.609-1.288-.405-.27-.933-.404-1.583-.404H21.77v3.082zM31.06 21.544a4.17 4.17 0 01-.724.65c-.23.156-.57.234-1.021.234-.514 0-.945-.145-1.292-.436-.347-.29-.521-.629-.521-1.016 0-.598.311-1.072.934-1.421.622-.35 1.497-.524 2.624-.524v-.644c0-.565-.045-.986-.135-1.263-.09-.278-.33-.417-.717-.417-.397 0-.654.116-.771.347-.118.232-.176.546-.176.941h-1.61c.09-.514.315-.928.676-1.244.36-.316.984-.474 1.868-.474.883 0 1.474.184 1.772.55.298.366.446.907.446 1.623v3.84H31.06v-.746zm0-2.059c-.496 0-.965.082-1.407.247-.442.164-.663.507-.663 1.029 0 .295.072.532.217.713a.72.72 0 00.595.272c.379 0 .683-.145.913-.436.23-.29.345-.654.345-1.092v-.733zM34.373 18.058c0-.446-.072-.745-.217-.897-.144-.151-.432-.227-.865-.227v-.252l2.435-.408v1.617a4.16 4.16 0 01.86-1.105c.365-.341.84-.512 1.427-.512.577 0 .994.164 1.251.493.258.329.386.758.386 1.289v4.233h-1.353v-3.273c0-.657-.05-1.135-.149-1.434-.1-.3-.352-.449-.758-.449-.433 0-.818.228-1.156.683-.339.454-.508.918-.508 1.39v3.083h-1.353v-4.23zM47.007 21.96a9.22 9.22 0 01-1.163.31 7.751 7.751 0 01-1.61.158c-1.353 0-2.332-.379-2.936-1.137-.604-.758-.907-1.873-.907-3.346 0-1.322.278-2.368.832-3.139.555-.77 1.532-1.156 2.93-1.156.983 0 1.723.173 2.219.518.496.346.785.796.866 1.352h-1.624a1.779 1.779 0 00-.426-.878c-.23-.266-.616-.398-1.157-.398-.631 0-1.148.267-1.549.802-.402.535-.602 1.396-.602 2.583 0 1.103.178 2.08.534 2.93.357.85 1.103 1.276 2.24 1.276.514 0 .972-.072 1.373-.215.401-.143.728-.299.98-.468v.809zM47.897 19.359c0-1.044.239-1.819.717-2.324.478-.505 1.213-.758 2.205-.758.947 0 1.67.28 2.171.84.501.56.752 1.308.752 2.242 0 1.036-.24 1.806-.718 2.312-.478.505-1.213.757-2.205.757-1.028 0-1.772-.273-2.232-.82-.46-.548-.69-1.298-.69-2.25m2.922 2.64c.596 0 .983-.233 1.164-.7.18-.468.27-1.114.27-1.94 0-.782-.092-1.42-.277-1.913-.185-.492-.57-.738-1.157-.738-.586 0-.972.25-1.156.75-.186.502-.278 1.135-.278 1.902 0 .757.09 1.387.27 1.888.18.501.569.752 1.164.752" fill="#353D90"/></g></g></svg>