<?xml version="1.0" encoding="UTF-8"?><svg width="56" height="36" viewBox="0 0 56 36" xmlns="http://www.w3.org/2000/svg"><g fill="none" fill-rule="evenodd"><path d="M0 3.75A3.75 3.75 0 013.75 0h48.5A3.76 3.76 0 0156 3.75v28.5A3.75 3.75 0 0152.25 36H3.75A3.76 3.76 0 010 32.25V3.75z" fill="#000" fill-rule="nonzero"/><path d="M1.25 3.75v28.5a2.5 2.5 0 002.5 2.5h48.5a2.5 2.5 0 002.5-2.5V3.75a2.5 2.5 0 00-2.5-2.5H3.75a2.5 2.5 0 00-2.5 2.5z" fill="#FFF"/><g fill-rule="nonzero"><path d="M15.46 24.84c-2.18 0-8.46-1.89-8.46-4.2 0-2.32 6.28-4.2 8.46-4.2 2.17 0 3.92 1.88 3.92 4.2 0 2.31-1.75 4.2-3.92 4.2" fill="#007937"/><path d="M13.52 18.02c-1.41-.91-4.8-4.78-3.95-6.3.86-1.5 5.65-.07 7.05.84a3.31 3.31 0 011 4.39c-.85 1.5-2.68 1.99-4.1 1.07" fill="#C8D300"/><path d="M12.33 17c.45.45.87.82 1.2 1.03 1.36.89 3.13.46 4.02-.94-.6-.4-1.32-.64-2.09-.64-.72 0-1.89.2-3.13.56" fill="#154634"/><path d="M24.77 14.57a1.37 1.37 0 01.8.98 1.9 1.9 0 01-.1 1.15 1.66 1.66 0 01-.95.9 2 2 0 01-.71.13h-1.88c-.17 0-.28-.04-.34-.11s-.1-.2-.1-.37v-4.81c0-.16.03-.28.1-.36.06-.08.17-.12.34-.12h1.78c.24 0 .46.02.67.08a1.25 1.25 0 01.88.7 1.52 1.52 0 01-.05 1.31c-.12.2-.26.36-.43.46v.06h-.01zm-2.33-.36h1.24l.24-.03a.63.63 0 00.24-.1.64.64 0 00.18-.23c.04-.09.06-.2.06-.35a.6.6 0 00-.17-.46c-.12-.12-.29-.18-.5-.18h-1.3v1.35zm2.2 1.73a.88.88 0 00-.24-.65c-.15-.16-.38-.24-.69-.24h-1.27v1.79h1.27a.94.94 0 00.74-.31c.07-.1.12-.18.15-.3.03-.1.04-.2.04-.3zM29.2 17.26c0 .14-.04.23-.14.28a5.22 5.22 0 01-1.18.27h-.4c-.33 0-.61-.03-.84-.1-.22-.07-.4-.17-.53-.3a1.06 1.06 0 01-.28-.44 1.79 1.79 0 01.01-1.08c.06-.17.16-.34.3-.46.13-.14.3-.25.51-.33.22-.08.48-.13.79-.13h.86v-.13c0-.11-.01-.2-.04-.3a.45.45 0 00-.12-.22.6.6 0 00-.24-.16c-.1-.03-.23-.05-.4-.05a3.32 3.32 0 00-1.07.17c-.06.02-.1.02-.13.01-.02 0-.04-.04-.05-.09l-.1-.47c0-.1 0-.15.08-.18.2-.09.45-.15.7-.18.26-.03.5-.05.73-.05.53 0 .93.13 1.17.38.25.25.38.62.38 1.1v2.46zm-.9-1.55h-.75c-.08 0-.17 0-.28.02-.1 0-.2.04-.29.09a.58.58 0 00-.22.22.73.73 0 00-.08.39c0 .23.07.4.22.5.14.09.35.13.6.13h.15l.2-.01.23-.04.22-.06V15.7zM31.25 14.14h-.24c-.1 0-.23.02-.36.05v3.41c0 .06-.01.1-.04.12-.02.02-.06.03-.1.03h-.61c-.05 0-.09-.01-.11-.03-.03-.02-.04-.06-.04-.12v-3.53c0-.2.04-.35.1-.46.07-.11.2-.18.42-.22.05 0 .12 0 .2-.03l.28-.02.28-.02.24-.01c.34 0 .63.04.88.12.25.08.45.2.62.36.16.16.28.38.35.66.08.26.12.59.12.97v2.17c0 .06 0 .1-.03.12-.02.02-.06.03-.11.03h-.6c-.06 0-.1-.01-.12-.03-.02-.02-.03-.06-.03-.12v-2.18c0-.22-.02-.4-.05-.56a1 1 0 00-.17-.39.76.76 0 00-.33-.23c-.16-.07-.34-.1-.55-.1M35.55 17a2.3 2.3 0 00.9-.22c.06-.03.1-.03.12-.03.03.01.04.04.06.09l.2.47c.05.09.03.15-.05.2a2 2 0 01-.68.26 3.7 3.7 0 01-.69.07 1.6 1.6 0 01-1.32-.57c-.3-.37-.46-.92-.46-1.66 0-.35.05-.66.13-.94.09-.28.22-.52.38-.72a1.67 1.67 0 011.36-.63c.21 0 .42.03.61.07.2.05.39.12.56.22.05.03.07.05.08.08 0 .03 0 .07-.02.13l-.2.48c-.02.05-.04.07-.07.08-.02.01-.07 0-.13-.03-.12-.05-.25-.09-.38-.12a1.61 1.61 0 00-.43-.06.8.8 0 00-.45.12.89.89 0 00-.3.32 1.5 1.5 0 00-.17.45 2.79 2.79 0 000 1.08c.03.17.08.31.16.43a.85.85 0 00.8.42M40.7 15.55c0 .73-.16 1.3-.48 1.69-.31.39-.78.59-1.4.59-.63 0-1.1-.2-1.4-.58-.3-.38-.46-.93-.46-1.67 0-.36.05-.68.14-.96.1-.28.22-.52.38-.71.16-.2.36-.34.6-.44.22-.1.47-.15.75-.15.61 0 1.07.2 1.39.6.33.39.48.93.48 1.63m-.9.03c0-.2-.03-.38-.05-.56a1.54 1.54 0 00-.15-.47.78.78 0 00-.75-.43c-.16 0-.3.03-.43.1a.99.99 0 00-.3.3c-.1.13-.15.29-.19.46-.04.18-.06.37-.06.57 0 .46.07.82.2 1.09.15.26.4.39.75.39.18 0 .33-.04.45-.12a.86.86 0 00.3-.32c.08-.13.13-.28.16-.46.04-.18.06-.36.06-.55" fill="#555759"/><path d="M28.5 24.36c0 .14-.04.22-.14.28-.1.05-.23.1-.36.13-.14.04-.27.08-.41.1l-.41.04h-.4a2.8 2.8 0 01-.84-.1c-.23-.07-.4-.17-.54-.3a1.04 1.04 0 01-.27-.45 1.79 1.79 0 01.02-1.09c.05-.18.15-.33.28-.47.14-.14.31-.25.53-.33.22-.08.48-.12.79-.12h.86v-.14l-.03-.3a.58.58 0 00-.12-.22.53.53 0 00-.25-.14 1.29 1.29 0 00-.4-.06 3.41 3.41 0 00-1.09.17c-.06.02-.09.02-.12.01-.02 0-.04-.03-.05-.09l-.1-.47c-.02-.1 0-.15.06-.17.21-.09.46-.16.72-.2.26-.03.5-.05.73-.05.54 0 .93.13 1.18.38.26.26.38.63.38 1.12v2.47h-.01zm-.9-1.57h-.75l-.28.02a.65.65 0 00-.51.3.73.73 0 00-.09.4c0 .24.08.4.22.5.16.09.35.14.6.14h.15l.2-.02a2.52 2.52 0 00.46-.11v-1.23zM34.3 24.36c0 .14-.04.22-.14.28-.1.05-.24.1-.36.13-.14.04-.28.08-.41.1l-.42.04h-.4c-.33 0-.61-.03-.84-.1a1.3 1.3 0 01-.54-.3 1.04 1.04 0 01-.27-.45 1.79 1.79 0 01.02-1.09c.05-.18.15-.33.28-.47.14-.14.32-.25.53-.33.22-.08.48-.12.79-.12h.86v-.14c0-.1 0-.2-.03-.3a.48.48 0 00-.12-.22.53.53 0 00-.25-.14c-.1-.04-.23-.06-.4-.06-.18 0-.37.02-.57.06a2 2 0 00-.5.11c-.07.02-.1.02-.13.01-.02 0-.04-.03-.06-.09l-.1-.47c-.03-.1 0-.15.06-.17.22-.09.46-.16.72-.2.26-.03.5-.05.73-.05.54 0 .94.13 1.18.38.25.26.38.63.38 1.12v2.47zm-.9-1.57h-.75l-.28.02c-.1 0-.2.04-.3.09a.6.6 0 00-.22.22.73.73 0 00-.09.39c0 .24.07.4.22.5.15.09.35.14.6.14h.15l.2-.02.24-.05c.08-.02.15-.03.22-.06v-1.23zM40.65 20.38c.6 0 1.04.17 1.33.5.29.32.42.77.42 1.34 0 .14-.01.26-.05.36a.5.5 0 01-.32.34.7.7 0 01-.25.03h-2.06c.01.22.04.4.1.55a.86.86 0 00.57.55c.13.03.27.05.42.05a2.16 2.16 0 00.9-.22c.08-.03.14-.03.18.05l.2.47c.04.1.03.15-.04.2-.2.12-.41.2-.65.25-.23.05-.45.08-.66.08-.63 0-1.11-.18-1.44-.54-.34-.35-.5-.93-.5-1.7 0-.37.05-.7.14-.98.1-.3.22-.53.38-.72.16-.2.36-.34.59-.44.22-.12.47-.17.74-.17m0 .8a.74.74 0 00-.37.1.91.91 0 00-.28.23c-.07.1-.13.2-.18.34-.05.12-.08.25-.08.4h1.79c0-.16-.02-.29-.04-.42a.9.9 0 00-.14-.34.66.66 0 00-.27-.23.92.92 0 00-.42-.08M50 24.36c0 .14-.05.22-.15.28-.11.05-.23.1-.37.13-.14.04-.27.08-.4.1l-.43.04h-.39c-.34 0-.62-.03-.85-.1-.22-.07-.4-.17-.53-.3a1.04 1.04 0 01-.28-.45 1.79 1.79 0 01.02-1.09c.06-.18.15-.33.29-.47.14-.14.3-.25.52-.33.21-.08.48-.12.79-.12h.87v-.14c0-.1-.01-.2-.04-.3a.48.48 0 00-.11-.22.53.53 0 00-.25-.14c-.1-.04-.24-.06-.4-.06a3.41 3.41 0 00-1.08.17c-.06.02-.1.02-.13.01-.03 0-.04-.03-.05-.09l-.11-.47c-.03-.1 0-.15.07-.17.2-.09.45-.16.71-.2.26-.03.5-.05.73-.05.54 0 .94.13 1.19.38.24.26.37.63.37 1.12v2.47H50zm-.92-1.57h-.75l-.28.02c-.1 0-.2.04-.29.09a.67.67 0 00-.23.22.73.73 0 00-.08.39c0 .24.07.4.22.5.14.09.35.14.6.14h.15l.2-.02a2.05 2.05 0 00.45-.11v-1.23h.01zM25.2 19.06c-.02-.02-.07-.04-.14-.04h-2.19c-.26 0-.48.03-.65.13-.18.08-.33.19-.43.32-.11.14-.19.3-.23.48-.04.19-.07.37-.07.57v4.14c0 .08.02.12.04.14.04.02.08.04.14.04h.25c.17-.01.52-.1.52-.65v-1.9h2.33c.07 0 .11-.03.13-.06a.34.34 0 00.02-.15v-.47c0-.08 0-.13-.02-.16-.02-.02-.06-.04-.13-.04h-2.33v-.96c0-.17.04-.3.13-.4.07-.09.2-.13.4-.13h2.09c.07 0 .11-.02.13-.05.02-.02.03-.07.03-.14v-.51c.01-.07 0-.13-.02-.16M38.37 21.72c-.07-.27-.18-.51-.32-.71-.15-.2-.33-.36-.56-.46a1.7 1.7 0 00-.8-.17 3.1 3.1 0 00-.97.15v-1.61c0-.07-.02-.11-.04-.13-.02-.02-.06-.03-.12-.03h-.25c-.17.01-.5.11-.5.63v5.04c0 .04 0 .09.02.12a.2.2 0 00.09.08c.24.1.49.19.77.22.28.05.55.08.81.08.34 0 .64-.06.89-.18.25-.11.45-.28.61-.49.16-.2.28-.45.36-.73a3.69 3.69 0 000-1.8m-.9 1.6c-.04.18-.12.33-.22.44a.8.8 0 01-.34.26c-.12.05-.28.07-.44.07-.1 0-.23 0-.36-.02-.13 0-.26-.03-.39-.08v-2.65a2.38 2.38 0 01.83-.14c.31 0 .55.12.73.36.18.24.26.6.26 1.08.01.27-.01.5-.06.68M44.4 24.64l-.05-.47c0-.04-.01-.07-.03-.09a.12.12 0 00-.08 0l-.14.01-.15.01c-.1 0-.17-.03-.2-.08-.04-.05-.06-.15-.06-.3v-4.81c0-.06-.02-.1-.03-.12a.21.21 0 00-.12-.03h-.26c-.17.01-.5.11-.5.6v4.59c0 .36.06.6.2.75.13.15.34.22.63.22l.35-.02c.14-.02.26-.05.36-.1l.1-.06-.01-.1M46.4 24.64l-.05-.47c-.01-.04-.02-.07-.04-.09a.12.12 0 00-.08 0l-.14.01-.14.01c-.1 0-.17-.03-.22-.08-.03-.05-.05-.15-.05-.3v-4.81c0-.06-.01-.1-.03-.12-.02-.02-.06-.03-.12-.03h-.25c-.17.01-.5.11-.5.64v4.55c0 .36.06.6.2.75.13.15.35.22.63.22l.36-.02c.13-.02.25-.05.35-.1l.1-.06-.02-.1M30.72 24.64l-.05-.47c0-.04-.02-.07-.03-.09a.14.14 0 00-.1 0l-.13.01-.15.01c-.1 0-.17-.03-.2-.08-.04-.05-.06-.15-.06-.3v-4.81c0-.06-.01-.1-.04-.12-.02-.02-.06-.03-.11-.03h-.26c-.17.01-.51.11-.51.65v4.54c0 .37.07.61.2.76.14.14.35.22.64.22l.35-.02c.13-.02.25-.05.35-.1l.1-.06v-.11" fill="#A0A0A1"/></g></g></svg>