<?xml version="1.0" encoding="UTF-8"?><svg width="56" height="36" viewBox="0 0 56 36" xmlns="http://www.w3.org/2000/svg"><g fill="none" fill-rule="evenodd"><path d="M0 3.75A3.75 3.75 0 013.75 0h48.5A3.76 3.76 0 0156 3.75v28.5A3.75 3.75 0 0152.25 36H3.75A3.76 3.76 0 010 32.25V3.75z" fill="#000" fill-rule="nonzero"/><path d="M1.25 3.75v28.5a2.5 2.5 0 002.5 2.5h48.5a2.5 2.5 0 002.5-2.5V3.75a2.5 2.5 0 00-2.5-2.5H3.75a2.5 2.5 0 00-2.5 2.5z" fill="#FFF"/><path fill="#FDE100" d="M8 5h41v27H8z"/><g fill="#1E447F" fill-rule="nonzero"><path d="M27.19 19.8l-1.71-1.12 7.71-5.04-4.29-2.8-2.14 1.4 1.72 1.12-3.86 2.52-3.43-2.24L28.9 8.6l7.72 5.04-9.43 6.17zm-2.57 1.69l-1.71-1.12-1.72 1.12v2.24l3.43-2.24zm10.29-9.53l-1.72-1.12 3.43-2.24v2.24l-1.71 1.12z"/><path d="M30.6 20.02l-1.69-1.1 3.8-2.49 3.38 2.22-7.6 4.96-7.6-4.96 9.3-6.07 1.68 1.1-7.6 4.97 4.22 2.76 2.12-1.39zm-19.04 9.2c.42 0 1.46-.05 1.46-1 0-.5-.18-.86-.88-.94v-.01c.54-.08.8-.39.8-.82 0-.8-.62-.97-1.37-.97H9.82v3.73h1.74zm-.75-2.2v-.96h.6c.34 0 .57.2.57.47 0 .36-.3.48-.51.48H10.8zm.31.56h.26c.5 0 .65.2.65.53 0 .52-.47.53-.67.53h-.55v-1.06h.31zM17 29.22v-2.24H17l1.04 2.24h1.05v-3.06h-.67v2.12h-.02l-1.01-2.12h-1.07v3.06H17zm3.76.08c.76 0 1.18-.27 1.18-1.1h-.8c-.02.25 0 .63-.38.63-.46 0-.53-.34-.53-1.14 0-.8.07-1.14.53-1.14.24 0 .33.16.33.57h.8c.04-.67-.3-1.03-1.13-1.03-1.36 0-1.36.78-1.36 1.6 0 .82 0 1.61 1.36 1.61zm-6.97-.08l.22-.68h1.1l.22.68h.85l-1.05-3.06h-1.06l-1.07 3.06h.8zm1.15-1.15h-.77l.37-1.32h.02l.38 1.32zm8.57.76c-.47 0-.53-.34-.53-1.14 0-.8.06-1.14.53-1.14.46 0 .52.34.52 1.14 0 .8-.06 1.14-.52 1.14zm0 .47c1.35 0 1.35-.79 1.35-1.6 0-.83 0-1.61-1.35-1.61-1.36 0-1.36.78-1.36 1.6 0 .82 0 1.61 1.36 1.61zm21.2-.08v-3.06h-.81v3.06h.8zm2.48 0v-.47h-1.12v-2.59h-.8v3.06h1.92zm-13 0c.42 0 1.46-.05 1.46-1 0-.5-.18-.86-.88-.94v-.01c.54-.08.8-.39.8-.82 0-.8-.62-.97-1.36-.97h-1.76v3.73h1.75zm-.75-2.2v-.96h.6c.34 0 .57.2.57.48 0 .36-.3.47-.51.47H33.43zm.31.56H34c.5 0 .66.2.66.54 0 .52-.47.53-.68.53h-.55v-1.06h.31zm-7.06-.95h.42c.56 0 .56.49.56 1.05 0 .77-.1 1.07-.59 1.07h-.39v-2.12zm-.82 2.58h1.33c1.39 0 1.3-1.08 1.3-1.55 0-.95-.2-1.5-1.27-1.5h-1.36v3.05zm4.26-.37c-.46 0-.52-.34-.52-1.14 0-.8.06-1.13.52-1.13s.53.34.53 1.13c0 .8-.07 1.14-.53 1.14zm0 .46c1.36 0 1.36-.79 1.36-1.6 0-.82 0-1.6-1.36-1.6-1.35 0-1.35.78-1.35 1.6 0 .81 0 1.6 1.35 1.6zm10.13-1.2h-.77l.37-1.32.4 1.32zm2.17 1.12c.59 0 1.18-.08 1.18-.86 0-.96-1.54-.83-1.54-1.4 0-.22.14-.33.39-.33h1.04v-.47h-1.13c-.94 0-1.17.37-1.17.85 0 .9 1.55.85 1.55 1.4 0 .2-.13.34-.4.34h-1.01l-.89-2.59h-1.06l-.95 2.7-.58-1.12c.45-.07.63-.32.63-.78 0-.52-.35-.8-.9-.8h-1.62v3.06h.82v-2.59h.48c.25 0 .42.17.42.47 0 .25-.16.46-.4.45h-.33l.87 1.67h1.28l.22-.68h1.1l.22.68h1.78z"/></g></g></svg>