<svg xmlns="http://www.w3.org/2000/svg" width="56" height="36"><g fill="none" fill-rule="evenodd"><path fill="#000" fill-rule="nonzero" d="M0 3.75A3.75 3.75 0 0 1 3.75 0h48.5A3.76 3.76 0 0 1 56 3.75v28.5A3.75 3.75 0 0 1 52.25 36H3.75A3.76 3.76 0 0 1 0 32.25V3.75z"/><path fill="#FFF" d="M1.25 3.75v28.5a2.5 2.5 0 0 0 2.5 2.5h48.5a2.5 2.5 0 0 0 2.5-2.5V3.75a2.5 2.5 0 0 0-2.5-2.5H3.75a2.5 2.5 0 0 0-2.5 2.5z"/><g fill-rule="nonzero"><path fill="#005498" d="M42.92 11.13h-11.4l-1.17 1.31-3.76 4.24-1.16 1.31H14.18l1.14-1.32.54-.63 1.13-1.32h-5.17c-.95 0-1.72.8-1.72 1.76v3.72c0 .98.77 1.76 1.72 1.76h19.84c.95 0 2.24-.58 2.87-1.3l3-3.41 5.4-6.12z"/><path fill="#FFD800" d="M45.2 7.16c.96 0 1.73.8 1.73 1.76v3.71c0 .98-.77 1.76-1.72 1.76h-5.16l1.15-1.3.57-.66 1.15-1.31h-11.4l-6.08 6.84H14.12l8.12-9.17.3-.35a4.46 4.46 0 0 1 2.89-1.3H45.2v.02z"/><path fill="#005498" d="M46.93 29.77v-.54c0-.07-.05-.12-.15-.12h-.35c-.1 0-.17-.01-.19-.06-.03-.04-.03-.13-.03-.27v-2.04h.57c.05 0 .07-.02.1-.04a.13.13 0 0 0 .05-.1v-.57a.13.13 0 0 0-.05-.1.13.13 0 0 0-.1-.05h-.57v-.74c0-.05-.01-.07-.03-.09a.2.2 0 0 0-.08-.03h-.02l-.84.15a.71.71 0 0 0-.1.04c-.03.03-.05.06-.05.09v.57h-.57a.13.13 0 0 0-.1.04.13.13 0 0 0-.04.1v.47c0 .04.01.07.04.08a.2.2 0 0 0 .1.06l.57.09v2.04c0 .25.03.45.07.6.06.17.14.29.22.37.1.1.22.15.37.18.14.03.32.04.5.04l.28-.01.28-.05c.07 0 .12-.04.12-.11zm-3.03-.08v-.62c0-.05-.02-.07-.05-.09-.03-.01-.05-.03-.08-.03h-.02l-.38.03c-.11.02-.27.02-.48.02a.55.55 0 0 1-.4-.17.56.56 0 0 1-.12-.26c-.03-.1-.05-.23-.05-.39v-.58c0-.16.02-.3.05-.4a.9.9 0 0 1 .11-.24.55.55 0 0 1 .41-.18c.2 0 .37 0 .48.02l.38.03h.02c.04 0 .07-.02.08-.03a.1.1 0 0 0 .05-.09v-.63c0-.05-.02-.08-.03-.1l-.12-.06c-.1-.03-.22-.04-.38-.07-.16-.03-.33-.03-.55-.03-.5 0-.89.15-1.2.45-.29.3-.45.75-.45 1.33v.58c0 .57.15 1.02.45 1.33.3.3.7.45 1.2.45.2 0 .4-.02.55-.03.16-.03.3-.05.38-.08a.22.22 0 0 0 .12-.05c.03-.02.03-.06.03-.1zm-4.56-.74a1.55 1.55 0 0 1-.58.15.7.7 0 0 1-.34-.06c-.07-.04-.1-.13-.1-.3v-.05c0-.09.01-.16.03-.22a.38.38 0 0 1 .1-.16.38.38 0 0 1 .19-.09c.07-.01.17-.03.3-.03h.4v.76zm1.1-1.7c0-.26-.04-.48-.11-.66a1.22 1.22 0 0 0-.32-.43 1.2 1.2 0 0 0-.51-.25c-.2-.06-.44-.09-.69-.09a5.24 5.24 0 0 0-1.2.15c-.1.03-.14.07-.14.16v.57c0 .04.02.07.03.1l.09.03h.03l.2-.02.28-.01.33-.02h.34c.16 0 .3.03.38.09.09.06.14.19.14.4v.24h-.37c-.6 0-1.05.09-1.32.28-.27.19-.4.5-.4.9v.06c0 .23.03.42.1.57.07.16.16.27.28.37a1.19 1.19 0 0 0 .83.27c.2 0 .39-.03.53-.1.15-.05.3-.12.44-.22v.11c0 .05.02.08.05.1.02.03.05.05.1.05h.78c.05 0 .08-.02.1-.05a.13.13 0 0 0 .05-.1v-2.5h-.02zm-3.74 2.52v-.54c0-.07-.04-.12-.14-.12h-.35c-.1 0-.18-.01-.2-.06-.02-.04-.02-.13-.02-.27v-2.04h.57c.04 0 .07-.02.1-.04a.13.13 0 0 0 .04-.1v-.57a.13.13 0 0 0-.04-.1.13.13 0 0 0-.1-.05h-.57v-.74c0-.05-.02-.07-.03-.09a.2.2 0 0 0-.09-.03h-.01l-.85.15a.71.71 0 0 0-.1.04.12.12 0 0 0-.04.09v.57h-.59a.13.13 0 0 0-.1.04.13.13 0 0 0-.04.1v.47c0 .04.01.07.04.08a.2.2 0 0 0 .1.06l.57.09v2.04c0 .25.03.45.07.6.06.17.14.29.22.37.1.1.22.15.37.18.14.03.32.04.5.04l.28-.01.28-.05c.09 0 .13-.04.13-.11zm-3.06-.02v-2.33c0-.21-.01-.42-.06-.62a1.3 1.3 0 0 0-.19-.51.85.85 0 0 0-.37-.34 1.3 1.3 0 0 0-.63-.13c-.22 0-.42.03-.6.09-.17.06-.35.15-.55.3v-.18a.13.13 0 0 0-.05-.1.13.13 0 0 0-.1-.05h-.78a.13.13 0 0 0-.1.04.13.13 0 0 0-.05.1v3.73c0 .05.02.08.04.1.03.03.06.05.1.05h.85c.04 0 .07-.02.1-.05a.13.13 0 0 0 .05-.1V27c.11-.06.23-.12.35-.16.1-.04.21-.06.32-.06.1 0 .19.02.26.03.07.02.12.06.16.1.04.06.06.12.07.2.02.1.02.2.02.31v2.33c0 .05.01.08.04.1.03.03.06.05.1.05h.85c.04 0 .07-.02.1-.05.06-.02.07-.07.07-.1zm-5.3-1.61c0 .56-.2.86-.63.86a.54.54 0 0 1-.46-.22c-.1-.15-.16-.37-.16-.64v-.5c0-.29.06-.5.16-.64s.26-.22.46-.22c.41 0 .63.3.63.86v.5zm1.14-.5c0-.27-.05-.54-.12-.76a1.47 1.47 0 0 0-.89-.93 2.01 2.01 0 0 0-.76-.13c-.29 0-.54.05-.75.13a1.47 1.47 0 0 0-.9.93c-.07.22-.1.49-.1.76v.5c0 .27.03.54.1.75a1.47 1.47 0 0 0 .89.93c.22.1.47.14.76.14.3 0 .54-.05.76-.13a1.47 1.47 0 0 0 .89-.94c.07-.21.12-.48.12-.75v-.5zm-3.9 2.05v-.62c0-.05 0-.07-.04-.09-.03-.01-.06-.03-.1-.03h-.01l-.38.03c-.12.02-.28.02-.48.02a.55.55 0 0 1-.4-.17.56.56 0 0 1-.13-.26c-.03-.1-.04-.23-.04-.39v-.58c0-.16.01-.3.04-.4a.9.9 0 0 1 .12-.24.55.55 0 0 1 .4-.18c.21 0 .37 0 .49.02l.38.03h.01c.04 0 .07-.02.1-.03a.1.1 0 0 0 .05-.09v-.63c0-.05-.02-.08-.03-.1l-.12-.06c-.1-.03-.22-.04-.38-.07-.16-.03-.33-.03-.55-.03-.5 0-.89.15-1.2.45-.29.3-.45.75-.45 1.33v.58c0 .57.15 1.02.45 1.33.3.3.7.45 1.2.45.2 0 .4-.02.55-.03l.38-.08a.22.22 0 0 0 .12-.05c.01-.02.03-.06.03-.1zm-3.45.06v-2.33c0-.21-.01-.42-.05-.62-.03-.2-.1-.37-.2-.51a.85.85 0 0 0-.37-.34 1.3 1.3 0 0 0-.63-.13c-.22 0-.42.03-.6.09-.17.06-.35.15-.55.3v-.18a.13.13 0 0 0-.04-.1.13.13 0 0 0-.1-.05h-.8a.13.13 0 0 0-.1.04.13.13 0 0 0-.04.1v3.73c0 .05.02.08.05.1.03.03.05.05.1.05h.84c.05 0 .08-.02.1-.05a.13.13 0 0 0 .05-.1V27c.12-.06.23-.12.35-.16.1-.04.22-.06.32-.06s.19.02.26.03c.07.02.12.06.16.1.05.06.06.12.07.2.02.1.02.2.02.31v2.33c0 .05.01.08.04.1.03.03.06.05.1.05h.85c.04 0 .07-.02.1-.05.06-.02.07-.07.07-.1zm-5.41-.8a1.55 1.55 0 0 1-.59.15.7.7 0 0 1-.33-.06c-.08-.04-.1-.13-.1-.3v-.05l.02-.22a.38.38 0 0 1 .1-.16.38.38 0 0 1 .2-.09c.07-.01.17-.03.3-.03h.4v.76zm1.12-1.7c0-.26-.05-.48-.12-.66a1.22 1.22 0 0 0-.32-.43 1.2 1.2 0 0 0-.51-.25c-.2-.06-.44-.09-.68-.09a5.24 5.24 0 0 0-1.21.15c-.1.03-.13.07-.13.16v.57l.02.1c.03.01.06.03.1.03H15l.2-.02.3-.01.33-.02h.34c.16 0 .29.03.38.09.08.06.14.19.14.4v.24h-.38c-.6 0-1.05.09-1.3.28-.29.19-.42.5-.42.9v.06c0 .23.03.42.1.57.08.16.17.27.28.37a1.19 1.19 0 0 0 .83.27c.2 0 .4-.03.54-.1.15-.05.3-.12.44-.22v.11c0 .05.01.08.04.1.03.03.06.05.1.05h.79c.04 0 .07-.02.1-.05a.13.13 0 0 0 .05-.1v-2.5h-.03zm-5.01 1.1a.6.6 0 0 1-.2.46c-.14.1-.4.16-.75.16h-.58v-1.31h.78c.28 0 .48.05.59.19.1.13.16.27.16.43v.08zm-.03-2.08c0 .08-.02.15-.03.22a.37.37 0 0 1-.12.18.77.77 0 0 1-.22.11c-.08.03-.2.05-.35.05h-.78v-1.21h.54c.36 0 .6.04.75.13.15.09.22.23.22.42l-.01.1zm1.2 2.01c0-.25-.07-.45-.18-.62a1.1 1.1 0 0 0-.46-.41.99.99 0 0 0 .44-.4c.1-.2.16-.4.16-.62v-.13c0-.28-.06-.51-.16-.7-.1-.19-.26-.33-.45-.45a2.19 2.19 0 0 0-.7-.25 5.67 5.67 0 0 0-.9-.07h-.35l-.35.01c-.12 0-.22.02-.32.03l-.23.03c-.14.03-.24.06-.3.13-.05.06-.08.18-.08.34v4.26c0 .16.03.26.08.34.06.06.16.1.3.13l.24.03.32.03.35.01h.37c.3 0 .6-.03.86-.07.26-.05.5-.13.7-.25.2-.12.35-.28.48-.48.11-.2.17-.47.17-.77v-.12z"/></g></g></svg>