<?xml version="1.0" encoding="UTF-8"?><svg width="56" height="36" viewBox="0 0 56 36" xmlns="http://www.w3.org/2000/svg"><g fill="none" fill-rule="evenodd"><path d="M0 3.75A3.75 3.75 0 013.75 0h48.5A3.76 3.76 0 0156 3.75v28.5A3.75 3.75 0 0152.25 36H3.75A3.76 3.76 0 010 32.25V3.75z" fill="#000" fill-rule="nonzero"/><path d="M1.25 3.75v28.5a2.5 2.5 0 002.5 2.5h48.5a2.5 2.5 0 002.5-2.5V3.75a2.5 2.5 0 00-2.5-2.5H3.75a2.5 2.5 0 00-2.5 2.5z" fill="#FFF"/><g fill="#005CAB" fill-rule="nonzero"><path d="M27.14 24.6c0-1.03.01-3.78-.01-4.12.02-4.1-2.96-6.98-4.84-6.75-1.3.1-2.39.64-2.97 2.17-.55 1.42-.06 3.31 1.74 3.75 1.93.48 3.06.88 3.87 1.44 1 .68 1.82 2 1.84 3.51"/><path d="M27.91 30.82c-3.4 0-6.9-.83-10.39-2.49l-.08-.04-.04-.09a23.85 23.85 0 01-.03-20.76l.04-.1.08-.03C20.72 5.78 24.2 5 27.82 5c3.38 0 6.99.86 10.43 2.5l.1.04.03.09a24.64 24.64 0 012.44 10.46c0 3.47-.8 6.94-2.4 10.3l-.05.1-.09.03a24.38 24.38 0 01-10.37 2.3m-10.06-2.94c3.39 1.6 6.77 2.4 10.06 2.4 3.5 0 6.96-.77 10.05-2.21a23.32 23.32 0 002.32-9.98c0-3.37-.82-6.87-2.35-10.14a24.05 24.05 0 00-10.1-2.4c-3.52 0-6.88.74-10.01 2.21a23.32 23.32 0 00.03 20.12"/><path d="M26.34 24.6c0-1.32-.73-2.48-1.7-3.1-.85-.56-2-.93-3.85-1.4-.57-.14-1.17-.47-1.35-.88-.49.5-.58 1.6-.5 2.25.1.75.98 1.99 2.3 2.03.8.04 1.83-.17 2.32-.27.84-.19 2.17.34 2.39 1.37M27.82 7.35c-2.23 0-4.17 1.47-4.16 4.03 0 2.14 1.73 3.3 2.35 4.11.93 1.24 1.44 2.7 1.49 4.95.04 1.78.04 3.54.05 4.17h.49c0-.66-.03-2.53 0-4.23.03-2.24.55-3.65 1.48-4.89.62-.82 2.35-1.97 2.35-4.11.01-2.56-1.92-4.03-4.16-4.03"/><path d="M28.4 24.6c0-1.03-.02-3.78 0-4.12-.02-4.1 2.96-6.98 4.84-6.75 1.3.1 2.39.64 2.98 2.17.54 1.42.05 3.31-1.75 3.75-1.93.48-3.06.88-3.87 1.44-1 .68-1.76 2-1.78 3.51"/><path d="M29.2 24.6c-.01-1.32.73-2.48 1.69-3.1.85-.56 2-.93 3.85-1.4.57-.14 1.17-.47 1.35-.88.5.5.58 1.6.5 2.25-.1.75-.98 1.99-2.3 2.03-.8.04-1.83-.17-2.32-.27-.84-.19-2.17.34-2.39 1.37M29.89 28.86l-.29-2.09.7-.1c.16-.02.37 0 .45.11.09.11.12.2.13.35.03.17-.02.38-.22.48v.01c.22 0 .36.16.4.43 0 .06.02.2 0 .32-.04.27-.2.36-.49.4l-.68.1zm.44-.37c.08-.01.17-.02.23-.06.1-.06.1-.2.08-.3-.04-.23-.1-.32-.34-.28l-.15.02.1.63.08-.01zm-.14-.97c.09-.01.21-.02.26-.1.03-.07.07-.11.04-.24-.02-.16-.08-.25-.27-.21l-.18.03.07.53h.08zM32.88 27.6l.02.13c.05.38-.02.7-.45.78-.63.12-.75-.27-.86-.82l-.06-.3c-.09-.53-.13-.93.5-1.05.34-.06.57.08.66.42.02.05.04.1.04.16l-.37.08c-.05-.13-.1-.37-.28-.35-.3.04-.2.42-.17.58l.11.57c.04.17.1.45.37.4.22-.05.12-.38.1-.52M33.49 28.24l-.13-2.16.5-.16 1.07 1.88-.4.12-.25-.48-.44.14.05.54-.4.12zm.3-1.01l.33-.1-.43-.87.1.97zM20.92 26.6c.16-.5.3-.88.9-.71.33.09.54.23.53.6 0 .1-.03.18-.05.26l-.38-.1c.05-.21.08-.38-.18-.46-.3-.08-.36.28-.4.44l-.16.56c-.05.17-.1.45.15.52.22.06.35-.15.43-.46l-.27-.07.1-.33.62.2-.3 1.1-.28-.08.06-.24a.4.4 0 01-.44.19c-.62-.17-.56-.58-.4-1.12M23.24 27.53l-.2.89-.41-.1.45-2.07.72.16c.42.1.54.28.48.67-.03.22-.14.46-.4.44.22.07.24.18.2.38-.02.09-.14.6-.06.67v.07l-.43-.12c-.02-.14.04-.4.07-.53.02-.12.06-.3-.06-.36-.1-.06-.14-.05-.25-.08l-.11-.02zm.07-.32l.28.07c.17.03.27-.06.3-.27.03-.2 0-.27-.16-.3l-.3-.07-.12.57zM25.94 26.71l.42.05-.18 1.46c-.09.46-.27.66-.78.6-.51-.06-.64-.3-.6-.77l.18-1.45.42.04-.18 1.43c-.02.15-.06.38.22.41.24.02.3-.14.32-.34M26.82 28.9l.12-2.09.8.04c.38.02.48.33.47.62 0 .18-.07.38-.22.5a.7.7 0 01-.45.1l-.26-.02-.05.88-.41-.03zm.47-1.16h.22c.17.01.28-.05.3-.3 0-.25-.09-.3-.31-.3h-.17l-.04.6z"/></g></g></svg>