<?xml version="1.0" encoding="UTF-8"?><svg width="56" height="36" viewBox="0 0 56 36" xmlns="http://www.w3.org/2000/svg"><g fill="none" fill-rule="evenodd"><path d="M0 3.75A3.749 3.749 0 013.75 0h48.5A3.756 3.756 0 0156 3.75v28.5A3.749 3.749 0 0152.25 36H3.75A3.756 3.756 0 010 32.25V3.75z" fill="#000" fill-rule="nonzero"/><path d="M1.25 3.75v28.5c0 1.375 1.123 2.5 2.5 2.5h48.5c1.382 0 2.5-1.118 2.5-2.5V3.75c0-1.375-1.123-2.5-2.5-2.5H3.75a2.499 2.499 0 00-2.5 2.5z" fill="#FFF"/><path d="M42.348 31H13.652a.647.647 0 01-.652-.643c0-.356.292-.643.652-.643h28.696c.36 0 .652.287.652.643a.647.647 0 01-.652.643zm-19.565-6.43c.36 0 .652.288.652.643a.647.647 0 01-.652.643h-5.218a.647.647 0 01-.652-.643c0-.355.292-.643.652-.643h.652v-8.358h-.652a.647.647 0 01-.652-.643c0-.355.292-.643.652-.643h5.218c.36 0 .652.288.652.643a.647.647 0 01-.652.643h-.653v8.358h.653zm-1.957-8.358h-1.304v8.358h1.304v-8.358zm9.783 8.358c.36 0 .652.288.652.643a.647.647 0 01-.652.643H25.39a.647.647 0 01-.652-.643c0-.355.292-.643.652-.643h.652v-8.358h-.652a.647.647 0 01-.652-.643c0-.355.292-.643.652-.643h5.218c.36 0 .652.288.652.643a.647.647 0 01-.652.643h-.652v8.358h.652zm-1.957-8.358h-1.304v8.358h1.304v-8.358zm12.391 11.573a.647.647 0 01-.652.643H15.61a.647.647 0 01-.652-.643c0-.355.291-.643.652-.643H40.39c.361 0 .652.288.652.643zm-2.608-3.215c.36 0 .652.288.652.643a.647.647 0 01-.652.643h-5.218a.647.647 0 01-.652-.643c0-.355.292-.643.652-.643h.653v-8.358h-.653a.647.647 0 01-.652-.643c0-.355.292-.643.652-.643h5.218c.36 0 .652.288.652.643a.647.647 0 01-.652.643h-.652v8.358h.652zm-1.957-8.358h-1.304v8.358h1.304v-8.358zm-22.174-3.858L28 5l13.696 7.354v1.286H14.304v-1.286zm24.484 0L28 6.856l-10.829 5.498h21.617z" fill="#000" fill-rule="nonzero"/></g></svg>