<?xml version="1.0" encoding="UTF-8"?>
<svg width="56px" height="36px" viewBox="0 0 56 36" version="1.1" xmlns="http://www.w3.org/2000/svg" xmlns:xlink="http://www.w3.org/1999/xlink">
    <!-- Generator: Sketch 53.2 (72643) - https://sketchapp.com -->
    <title>banki-spoldzielcze</title>
    <desc>Created with Sketch.</desc>
    <g id="banki-spoldzielcze" stroke="none" stroke-width="1" fill="none" fill-rule="evenodd">
        <g id="Base">
            <path d="M0,3.75075247 C0,1.67926908 1.67596877,0 3.75035585,0 L52.2496442,0 C54.3209085,0 56,1.68806916 56,3.75075247 L56,32.2492475 C56,34.3207309 54.3240312,36 52.2496442,36 L3.75035585,36 C1.67909151,36 0,34.3119308 0,32.2492475 L0,3.75075247 Z" id="Rectangle-2" fill="#000000" fill-rule="nonzero"></path>
            <path d="M1.25,3.75075247 L1.25,32.2492475 C1.25,33.6250965 2.37296468,34.75 3.75035585,34.75 L52.2496442,34.75 C53.6324061,34.75 54.75,33.6316447 54.75,32.2492475 L54.75,3.75075247 C54.75,2.37490355 53.6270353,1.25 52.2496442,1.25 L3.75035585,1.25 C2.36759386,1.25 1.25,2.36835527 1.25,3.75075247 Z" id="Path" fill="#FFFFFF"></path>
        </g>
        <g id="Logo-SGB-BS-svgRGB-171122-OK" transform="translate(5.000000, 14.000000)" fill-rule="nonzero">
            <path d="M16.7294423,4.88671875 L16.7294423,5.51953125 L17.1828794,5.51953125 C17.3499351,5.51953125 17.4692607,5.5078125 17.5169909,5.49609375 C17.5885863,5.484375 17.648249,5.4609375 17.6840467,5.40234375 C17.7317769,5.35546875 17.755642,5.28515625 17.755642,5.203125 C17.755642,5.1328125 17.7437095,5.07421875 17.7079118,5.02734375 C17.6721141,4.98046875 17.6243839,4.9453125 17.5527886,4.921875 C17.4811933,4.8984375 17.3499351,4.88671875 17.1232166,4.88671875 L16.7294423,4.88671875 Z M16.7294423,3.94921875 L16.7294423,4.5 L17.0516213,4.5 C17.2425422,4.5 17.3618677,4.48828125 17.3976654,4.48828125 C17.4811933,4.4765625 17.5527886,4.453125 17.6005188,4.40625 C17.648249,4.359375 17.6721141,4.30078125 17.6721141,4.21875 C17.6721141,4.1484375 17.648249,4.08984375 17.6124514,4.04296875 C17.5647211,3.99609375 17.5050584,3.97265625 17.4215305,3.9609375 C17.3738003,3.94921875 17.2425422,3.94921875 17.0158236,3.94921875 L16.7294423,3.94921875 Z M16.2521401,3.5625 L17.2067445,3.5625 C17.3976654,3.5625 17.540856,3.5625 17.6363165,3.5859375 C17.7198444,3.59765625 17.8033722,3.6328125 17.8869001,3.6796875 C17.9584955,3.7265625 18.0181582,3.796875 18.0658885,3.87890625 C18.1136187,3.9609375 18.1374838,4.0546875 18.1374838,4.1484375 C18.1374838,4.265625 18.1136187,4.359375 18.0420233,4.453125 C17.9823606,4.546875 17.9107652,4.6171875 17.8033722,4.6640625 C17.9465629,4.69921875 18.0658885,4.76953125 18.1374838,4.875 C18.2210117,4.98046875 18.2568093,5.09765625 18.2568093,5.2265625 C18.2568093,5.33203125 18.2329442,5.4375 18.185214,5.54296875 C18.1255512,5.6484375 18.0658885,5.71875 17.970428,5.7890625 C17.8869001,5.84765625 17.7795071,5.8828125 17.648249,5.89453125 C17.5647211,5.90625 17.3738003,5.90625 17.0635538,5.90625 L16.2521401,5.90625 L16.2521401,3.5625 Z" id="Shape" fill="#2B2A29"></path>
            <path d="M19.6171206,5.09765625 C19.5574578,5.109375 19.4619974,5.1328125 19.3426719,5.16796875 C19.2114137,5.19140625 19.1278859,5.21484375 19.0920882,5.23828125 C19.0324254,5.28515625 18.9966278,5.33203125 18.9966278,5.40234375 C18.9966278,5.4609375 19.0204929,5.51953125 19.0682231,5.56640625 C19.1159533,5.61328125 19.1756161,5.63671875 19.259144,5.63671875 C19.3426719,5.63671875 19.4142672,5.6015625 19.4858625,5.5546875 C19.5455253,5.5078125 19.581323,5.4609375 19.6051881,5.40234375 C19.6171206,5.3671875 19.6171206,5.296875 19.6171206,5.1796875 L19.6171206,5.09765625 Z M19.0085603,4.72265625 L18.5909209,4.65234375 C18.6386511,4.48828125 18.7102464,4.37109375 18.829572,4.2890625 C18.9488975,4.20703125 19.1159533,4.171875 19.3426719,4.171875 C19.5455253,4.171875 19.7006485,4.1953125 19.7961089,4.2421875 C19.8915694,4.2890625 19.9631647,4.34765625 20.0108949,4.41796875 C20.0466926,4.5 20.0705577,4.62890625 20.0705577,4.828125 L20.0586252,5.35546875 C20.0586252,5.49609375 20.0705577,5.61328125 20.0824903,5.68359375 C20.0944228,5.75390625 20.1302205,5.82421875 20.1660182,5.90625 L19.7125811,5.90625 C19.7006485,5.8828125 19.688716,5.8359375 19.6648508,5.77734375 C19.6648508,5.75390625 19.6529183,5.73046875 19.6529183,5.73046875 C19.581323,5.80078125 19.4977951,5.859375 19.4023346,5.89453125 C19.3188067,5.9296875 19.2233463,5.953125 19.1159533,5.953125 C18.936965,5.953125 18.7937743,5.90625 18.6983139,5.8125 C18.5909209,5.70703125 18.5431907,5.58984375 18.5431907,5.44921875 C18.5431907,5.35546875 18.5670558,5.26171875 18.614786,5.19140625 C18.6625162,5.109375 18.722179,5.05078125 18.8057069,5.015625 C18.8892348,4.98046875 19.0085603,4.9453125 19.1756161,4.91015625 C19.3904021,4.875 19.5335927,4.83984375 19.6171206,4.8046875 L19.6171206,4.7578125 C19.6171206,4.6640625 19.5932555,4.60546875 19.5574578,4.5703125 C19.5097276,4.53515625 19.4261997,4.51171875 19.3068742,4.51171875 C19.2233463,4.51171875 19.1636835,4.53515625 19.1159533,4.55859375 C19.0682231,4.59375 19.0324254,4.65234375 19.0085603,4.72265625 Z" id="Shape" fill="#2B2A29"></path>
            <path d="M22.0990921,5.90625 L21.645655,5.90625 L21.645655,5.0390625 C21.645655,4.86328125 21.6337224,4.734375 21.6098573,4.6875 C21.5859922,4.62890625 21.5621271,4.59375 21.5143969,4.55859375 C21.4666667,4.53515625 21.4189364,4.51171875 21.3592737,4.51171875 C21.2757458,4.51171875 21.2041505,4.53515625 21.1444877,4.58203125 C21.0728923,4.6171875 21.0370947,4.67578125 21.0132296,4.74609375 C20.9893645,4.81640625 20.9774319,4.9453125 20.9774319,5.14453125 L20.9774319,5.90625 L20.5239948,5.90625 L20.5239948,4.20703125 L20.9416342,4.20703125 L20.9416342,4.453125 C21.0967575,4.265625 21.2876783,4.171875 21.5143969,4.171875 C21.6217899,4.171875 21.7053178,4.18359375 21.7888457,4.21875 C21.8723735,4.25390625 21.9439689,4.30078125 21.9797665,4.359375 C22.0274968,4.41796875 22.0513619,4.4765625 22.075227,4.546875 C22.0871595,4.6171875 22.0990921,4.72265625 22.0990921,4.8515625 L22.0990921,5.90625 Z" id="Path" fill="#2B2A29"></path>
            <polygon id="Path" fill="#2B2A29" points="22.5525292 5.90625 22.5525292 3.5625 23.0059663 3.5625 23.0059663 4.8046875 23.5429313 4.20703125 24.1037613 4.20703125 23.5190661 4.828125 24.1514916 5.90625 23.6622568 5.90625 23.2207523 5.14453125 23.0059663 5.3671875 23.0059663 5.90625"></polygon>
            <path d="M24.4259403,5.90625 L24.4259403,4.20703125 L25.4259403,4.20703125 L25.4259403,5.90625 L24.4259403,5.90625 Z M24.4259403,3.97265625 L24.4259403,3.5625 L25.4259403,3.5625 L25.4259403,3.97265625 L24.4259403,3.97265625 Z" id="Shape" fill="#2B2A29"></path>
            <path d="M26.1680934,5.14453125 L26.633463,5.09765625 C26.6573281,5.26171875 26.7169909,5.3671875 26.8005188,5.4375 C26.8959792,5.51953125 27.0153048,5.5546875 27.1584955,5.5546875 C27.3136187,5.5546875 27.4329442,5.51953125 27.5045396,5.44921875 C27.5880674,5.390625 27.6238651,5.3203125 27.6238651,5.2265625 C27.6238651,5.16796875 27.6119326,5.12109375 27.5761349,5.0859375 C27.5403372,5.05078125 27.4806744,5.015625 27.4090791,4.98046875 C27.3494163,4.96875 27.2181582,4.93359375 27.0153048,4.88671875 C26.7527886,4.81640625 26.5738003,4.74609375 26.4664073,4.65234375 C26.3232166,4.5234375 26.2516213,4.359375 26.2516213,4.171875 C26.2516213,4.0546875 26.2874189,3.94921875 26.3590143,3.84375 C26.418677,3.73828125 26.52607,3.65625 26.6573281,3.59765625 C26.7885863,3.55078125 26.9437095,3.515625 27.1226978,3.515625 C27.4210117,3.515625 27.6477302,3.5859375 27.8028534,3.71484375 C27.9579767,3.84375 28.029572,4.01953125 28.0415045,4.23046875 L27.5642023,4.25390625 C27.5403372,4.13671875 27.492607,4.04296875 27.4210117,3.99609375 C27.3613489,3.9375 27.2539559,3.9140625 27.1226978,3.9140625 C26.9795071,3.9140625 26.8721141,3.9375 26.7885863,3.99609375 C26.740856,4.03125 26.7169909,4.078125 26.7169909,4.1484375 C26.7169909,4.1953125 26.740856,4.2421875 26.7885863,4.2890625 C26.848249,4.3359375 26.9914397,4.39453125 27.2300908,4.44140625 C27.4687419,4.5 27.6357977,4.55859375 27.7551232,4.6171875 C27.8625162,4.67578125 27.9460441,4.74609375 28.0176394,4.8515625 C28.0773022,4.95703125 28.1130999,5.07421875 28.1130999,5.2265625 C28.1130999,5.3671875 28.0773022,5.484375 27.9937743,5.6015625 C27.922179,5.71875 27.814786,5.8125 27.6715953,5.87109375 C27.5284047,5.9296875 27.3613489,5.953125 27.1465629,5.953125 C26.848249,5.953125 26.6215305,5.8828125 26.4544747,5.7421875 C26.2874189,5.61328125 26.1919585,5.4140625 26.1680934,5.14453125 Z" id="Path" fill="#2B2A29"></path>
            <path d="M28.9603113,5.02734375 C28.9603113,5.2265625 28.9961089,5.3671875 29.0677043,5.44921875 C29.1512322,5.54296875 29.2466926,5.58984375 29.3540856,5.58984375 C29.4614786,5.58984375 29.5450065,5.5546875 29.6166018,5.4609375 C29.6881971,5.37890625 29.7239948,5.25 29.7239948,5.05078125 C29.7239948,4.875 29.6881971,4.74609375 29.6166018,4.65234375 C29.5450065,4.5703125 29.449546,4.5234375 29.342153,4.5234375 C29.2347601,4.5234375 29.1392996,4.5703125 29.0677043,4.65234375 C28.9961089,4.734375 28.9603113,4.86328125 28.9603113,5.02734375 Z M28.5068742,4.20703125 L28.9245136,4.20703125 L28.9245136,4.453125 C28.9841764,4.37109375 29.0557717,4.30078125 29.1512322,4.25390625 C29.2466926,4.1953125 29.3540856,4.171875 29.4734112,4.171875 C29.6762646,4.171875 29.8433204,4.2421875 29.986511,4.40625 C30.1177691,4.55859375 30.1893645,4.76953125 30.1893645,5.05078125 C30.1893645,5.33203125 30.1177691,5.5546875 29.986511,5.71875 C29.8433204,5.87109375 29.664332,5.953125 29.4614786,5.953125 C29.3660182,5.953125 29.2824903,5.9296875 29.2108949,5.89453125 C29.1273671,5.859375 29.0438392,5.7890625 28.9603113,5.6953125 L28.9603113,6.5625 L28.5068742,6.5625 L28.5068742,4.20703125 Z" id="Shape" fill="#2B2A29"></path>
            <path d="M31.1201038,3.99609375 L31.3348898,3.515625 L31.8479896,3.515625 L31.4064851,3.99609375 L31.1201038,3.99609375 Z M30.9172503,5.0625 C30.9172503,5.2265625 30.9649805,5.35546875 31.0485084,5.44921875 C31.1201038,5.54296875 31.2274968,5.578125 31.3468223,5.578125 C31.4661479,5.578125 31.5616083,5.54296875 31.6451362,5.44921875 C31.7286641,5.35546875 31.7644617,5.2265625 31.7644617,5.05078125 C31.7644617,4.88671875 31.7286641,4.7578125 31.6451362,4.67578125 C31.5616083,4.58203125 31.4661479,4.53515625 31.3468223,4.53515625 C31.2274968,4.53515625 31.1201038,4.58203125 31.0485084,4.67578125 C30.9649805,4.7578125 30.9172503,4.88671875 30.9172503,5.0625 Z M30.4518807,5.0390625 C30.4518807,4.88671875 30.4876783,4.74609375 30.5592737,4.60546875 C30.6428016,4.46484375 30.7501946,4.359375 30.8814527,4.27734375 C31.0246433,4.20703125 31.1797665,4.171875 31.3468223,4.171875 C31.6093385,4.171875 31.8241245,4.25390625 31.9911803,4.41796875 C32.1582361,4.59375 32.2417639,4.8046875 32.2417639,5.05078125 C32.2417639,5.30859375 32.1582361,5.53125 31.9911803,5.6953125 C31.812192,5.859375 31.6093385,5.953125 31.3468223,5.953125 C31.1916991,5.953125 31.0365759,5.91796875 30.8933852,5.84765625 C30.7501946,5.77734375 30.6428016,5.671875 30.5592737,5.53125 C30.4876783,5.40234375 30.4518807,5.2265625 30.4518807,5.0390625 Z" id="Shape" fill="#2B2A29"></path>
            <polygon id="Path" fill="#2B2A29" points="32.5997406 4.7578125 32.5997406 3.5625 33.0531777 3.5625 33.0531777 4.37109375 33.2798962 4.18359375 33.2798962 4.48828125 33.0531777 4.67578125 33.0531777 5.90625 32.5997406 5.90625 32.5997406 5.0625 32.373022 5.25 32.373022 4.9453125"></polygon>
            <path d="M33.9003891,5.02734375 C33.9003891,5.203125 33.9242542,5.33203125 33.9719844,5.4140625 C34.0435798,5.53125 34.1509728,5.58984375 34.2822309,5.58984375 C34.3896239,5.58984375 34.4731518,5.5546875 34.5566796,5.4609375 C34.628275,5.37890625 34.6640726,5.23828125 34.6640726,5.0625 C34.6640726,4.875 34.628275,4.734375 34.5566796,4.640625 C34.4850843,4.55859375 34.3896239,4.51171875 34.2822309,4.51171875 C34.1748379,4.51171875 34.0793774,4.55859375 34.0077821,4.640625 C33.9361868,4.72265625 33.9003891,4.8515625 33.9003891,5.02734375 Z M35.1175097,5.90625 L34.6879377,5.90625 L34.6879377,5.66015625 C34.628275,5.75390625 34.5447471,5.8359375 34.4492866,5.8828125 C34.3418936,5.9296875 34.2464332,5.953125 34.1509728,5.953125 C33.9481193,5.953125 33.7810636,5.87109375 33.6378729,5.71875 C33.4946822,5.5546875 33.4230869,5.33203125 33.4230869,5.05078125 C33.4230869,4.76953125 33.4946822,4.546875 33.6378729,4.39453125 C33.769131,4.2421875 33.9481193,4.171875 34.1629053,4.171875 C34.3538262,4.171875 34.520882,4.25390625 34.6640726,4.40625 L34.6640726,3.5625 L35.1175097,3.5625 L35.1175097,5.90625 Z" id="Shape" fill="#2B2A29"></path>
            <path d="M35.3919585,5.90625 L35.3919585,5.5546875 L36.0363165,4.828125 C36.1437095,4.7109375 36.2272374,4.6171875 36.2749676,4.5703125 C36.2272374,4.5703125 36.155642,4.58203125 36.0601816,4.58203125 L35.4516213,4.58203125 L35.4516213,4.20703125 L36.8835279,4.20703125 L36.8835279,4.5234375 L36.2272374,5.2734375 L35.9885863,5.53125 C36.1198444,5.51953125 36.1914397,5.51953125 36.2272374,5.51953125 L36.9312581,5.51953125 L36.9312581,5.90625 L35.3919585,5.90625 Z" id="Path" fill="#2B2A29"></path>
            <path d="M37.2415045,5.90625 L37.2415045,4.20703125 L38.2415045,4.20703125 L38.2415045,5.90625 L37.2415045,5.90625 Z M37.2415045,3.97265625 L37.2415045,3.5625 L38.2415045,3.5625 L38.2415045,3.97265625 L37.2415045,3.97265625 Z" id="Shape" fill="#2B2A29"></path>
            <path d="M39.2103761,4.91015625 C39.1984436,4.78125 39.1626459,4.6875 39.1029831,4.6171875 C39.0313878,4.546875 38.9597925,4.51171875 38.864332,4.51171875 C38.7688716,4.51171875 38.6853437,4.546875 38.6137484,4.6171875 C38.5540856,4.69921875 38.5182879,4.79296875 38.5182879,4.91015625 L39.2103761,4.91015625 Z M39.1745785,5.3671875 L39.6399481,5.44921875 C39.5802853,5.61328125 39.4848249,5.73046875 39.3535668,5.82421875 C39.2342412,5.90625 39.0671855,5.953125 38.8762646,5.953125 C38.5779507,5.953125 38.3512322,5.84765625 38.2080415,5.66015625 C38.1006485,5.5078125 38.0409857,5.30859375 38.0409857,5.07421875 C38.0409857,4.79296875 38.1125811,4.5703125 38.2677043,4.40625 C38.4108949,4.25390625 38.6018158,4.171875 38.8404669,4.171875 C39.0910506,4.171875 39.293904,4.25390625 39.4490272,4.41796875 C39.5922179,4.59375 39.6638132,4.83984375 39.6638132,5.19140625 L38.5063554,5.19140625 C38.5182879,5.3203125 38.5540856,5.42578125 38.6256809,5.49609375 C38.6972763,5.578125 38.7808042,5.61328125 38.8881971,5.61328125 C38.9597925,5.61328125 39.0194553,5.58984375 39.0671855,5.5546875 C39.1149157,5.51953125 39.1507134,5.44921875 39.1745785,5.3671875 Z" id="Shape" fill="#2B2A29"></path>
            <polygon id="Path" fill="#2B2A29" points="40.0337224 5.90625 40.4990921 5.90625 40.4990921 3.5625 40.0337224 3.5625"></polygon>
            <path d="M42.4798962,4.7109375 L42.0264591,4.79296875 C42.0145266,4.69921875 41.9787289,4.640625 41.9190661,4.59375 C41.8713359,4.546875 41.7997406,4.5234375 41.7162127,4.5234375 C41.5968872,4.5234375 41.5014267,4.55859375 41.4417639,4.640625 C41.3701686,4.72265625 41.3343709,4.8515625 41.3343709,5.02734375 C41.3343709,5.2265625 41.3701686,5.37890625 41.4417639,5.4609375 C41.5014267,5.54296875 41.5968872,5.578125 41.7162127,5.578125 C41.7997406,5.578125 41.8713359,5.5546875 41.9309987,5.5078125 C41.9906615,5.4609375 42.0264591,5.37890625 42.0503243,5.26171875 L42.5037613,5.33203125 C42.4560311,5.53125 42.3605707,5.6953125 42.2293126,5.7890625 C42.0980545,5.89453125 41.9190661,5.953125 41.6923476,5.953125 C41.4417639,5.953125 41.2389105,5.87109375 41.0837873,5.71875 C40.9405966,5.5546875 40.8570687,5.34375 40.8570687,5.0625 C40.8570687,4.78125 40.9405966,4.55859375 41.0837873,4.40625 C41.2389105,4.2421875 41.4417639,4.171875 41.7042802,4.171875 C41.9190661,4.171875 42.0861219,4.21875 42.2054475,4.30078125 C42.3367056,4.39453125 42.4202335,4.5234375 42.4798962,4.7109375 Z" id="Path" fill="#2B2A29"></path>
            <path d="M42.6350195,5.90625 L42.6350195,5.5546875 L43.29131,4.828125 C43.398703,4.7109375 43.4702983,4.6171875 43.5299611,4.5703125 C43.4702983,4.5703125 43.398703,4.58203125 43.3151751,4.58203125 L42.7066148,4.58203125 L42.7066148,4.20703125 L44.1385214,4.20703125 L44.1385214,4.5234375 L43.4702983,5.2734375 L43.2435798,5.53125 C43.3629053,5.51953125 43.4464332,5.51953125 43.4822309,5.51953125 L44.1862516,5.51953125 L44.1862516,5.90625 L42.6350195,5.90625 Z" id="Path" fill="#2B2A29"></path>
            <path d="M45.5226978,4.91015625 C45.5226978,4.78125 45.4869001,4.6875 45.4272374,4.6171875 C45.355642,4.546875 45.2840467,4.51171875 45.1885863,4.51171875 C45.0811933,4.51171875 44.9976654,4.546875 44.9380026,4.6171875 C44.8664073,4.69921875 44.8425422,4.79296875 44.8425422,4.91015625 L45.5226978,4.91015625 Z M45.4988327,5.3671875 L45.9642023,5.44921875 C45.9045396,5.61328125 45.8090791,5.73046875 45.677821,5.82421875 C45.5584955,5.90625 45.3914397,5.953125 45.2005188,5.953125 C44.9022049,5.953125 44.6754864,5.84765625 44.5322957,5.66015625 C44.4249027,5.5078125 44.3652399,5.30859375 44.3652399,5.07421875 C44.3652399,4.79296875 44.4368353,4.5703125 44.5919585,4.40625 C44.7351492,4.25390625 44.92607,4.171875 45.1527886,4.171875 C45.4153048,4.171875 45.6181582,4.25390625 45.7732815,4.41796875 C45.9164721,4.59375 45.9880674,4.83984375 45.9880674,5.19140625 L44.8306096,5.19140625 C44.8306096,5.3203125 44.8783398,5.42578125 44.9499351,5.49609375 C45.0095979,5.578125 45.1050584,5.61328125 45.2124514,5.61328125 C45.2840467,5.61328125 45.3437095,5.58984375 45.3914397,5.5546875 C45.4391699,5.51953125 45.4749676,5.44921875 45.4988327,5.3671875 Z" id="Shape" fill="#2B2A29"></path>
            <path d="M3.62749676,5.15625 L4.10479896,5.109375 L4.10479896,5.109375 C4.14059663,5.26171875 4.18832685,5.37890625 4.27185473,5.44921875 C4.36731518,5.53125 4.48664073,5.5546875 4.64176394,5.5546875 C4.7849546,5.5546875 4.90428016,5.53125 4.98780804,5.47265625 C5.05940337,5.390625 5.10713359,5.3203125 5.10713359,5.23828125 C5.10713359,5.16796875 5.08326848,5.1328125 5.05940337,5.09765625 C5.01167315,5.05078125 4.95201038,5.02734375 4.88041505,4.9921875 C4.82075227,4.96875 4.70142672,4.93359375 4.48664073,4.8984375 C4.22412451,4.81640625 4.04513619,4.74609375 3.93774319,4.65234375 C3.79455253,4.5234375 3.7229572,4.37109375 3.7229572,4.1953125 C3.7229572,4.078125 3.74682231,3.9609375 3.81841764,3.85546875 C3.90194553,3.75 3.98547341,3.6796875 4.12866407,3.62109375 C4.25992218,3.5625 4.4150454,3.52734375 4.59403372,3.52734375 C4.8923476,3.52734375 5.11906615,3.609375 5.28612192,3.7265625 C5.42931258,3.85546875 5.51284047,4.03125 5.52477302,4.25390625 L5.52477302,4.25390625 L5.02360571,4.27734375 L5.02360571,4.27734375 C5.01167315,4.1484375 4.96394293,4.06640625 4.8923476,4.0078125 C4.83268482,3.9609375 4.72529183,3.92578125 4.59403372,3.92578125 C4.45084306,3.92578125 4.33151751,3.9609375 4.25992218,4.01953125 C4.21219196,4.0546875 4.18832685,4.08984375 4.18832685,4.171875 C4.18832685,4.20703125 4.21219196,4.27734375 4.25992218,4.30078125 C4.31958495,4.359375 4.47470817,4.40625 4.70142672,4.46484375 C4.94007782,4.5234375 5.11906615,4.5703125 5.22645914,4.62890625 C5.3457847,4.67578125 5.41738003,4.7578125 5.48897536,4.86328125 C5.56057069,4.96875 5.5844358,5.0859375 5.5844358,5.23828125 C5.5844358,5.3671875 5.56057069,5.49609375 5.46511025,5.61328125 C5.39351492,5.73046875 5.28612192,5.82421875 5.14293126,5.8828125 C5.01167315,5.9296875 4.83268482,5.953125 4.61789883,5.953125 C4.31958495,5.953125 4.09286641,5.89453125 3.92581064,5.75390625 C3.75875486,5.61328125 3.66329442,5.4140625 3.62749676,5.15625 L3.62749676,5.15625 Z" id="Path" fill="#2B2A29"></path>
            <path d="M7.11180285,5.05078125 L7.11180285,4.65234375 L8.1618677,4.65234375 L8.1618677,5.6015625 C8.05447471,5.6953125 7.89935149,5.77734375 7.70843061,5.859375 C7.52944228,5.9296875 7.32658885,5.953125 7.13566796,5.953125 C6.88508431,5.953125 6.65836576,5.91796875 6.47937743,5.8125 C6.28845655,5.70703125 6.14526589,5.5546875 6.04980545,5.3671875 C5.96627756,5.16796875 5.91854734,4.96875 5.91854734,4.734375 C5.91854734,4.51171875 5.96627756,4.2890625 6.061738,4.08984375 C6.169131,3.90234375 6.32425422,3.75 6.53904021,3.64453125 C6.68223087,3.57421875 6.88508431,3.52734375 7.11180285,3.52734375 C7.41011673,3.52734375 7.63683528,3.5859375 7.80389105,3.7265625 C7.95901427,3.84375 8.09027237,4.01953125 8.12607004,4.23046875 L8.12607004,4.23046875 L7.64876783,4.3125 L7.64876783,4.3125 C7.60103761,4.1953125 7.54137484,4.11328125 7.45784695,4.0546875 C7.36238651,3.97265625 7.24306096,3.94921875 7.11180285,3.94921875 C6.89701686,3.94921875 6.72996109,4.0078125 6.59870298,4.13671875 C6.47937743,4.27734375 6.4077821,4.46484375 6.4077821,4.7109375 C6.4077821,4.9921875 6.47937743,5.203125 6.59870298,5.35546875 C6.72996109,5.484375 6.89701686,5.5546875 7.11180285,5.5546875 C7.19533074,5.5546875 7.30272374,5.53125 7.41011673,5.49609375 C7.51750973,5.44921875 7.58910506,5.4140625 7.66070039,5.35546875 L7.66070039,5.05078125 L7.11180285,5.05078125 L7.11180285,5.05078125 Z" id="Path" fill="#2B2A29"></path>
            <path d="M9.21193256,0.01171875 C9.35512322,0.0234375 9.66536965,-0.046875 9.88015564,0.19921875 C10.0114137,0.41015625 10.0114137,0.57421875 9.66536965,0.75 C9.18806744,0.984375 0.202853437,3.3515625 2.2075227,6.890625 C3.01893645,8.3203125 6.8612192,8.02734375 9.49831388,6.66796875 C12.3979248,5.203125 13.4479896,3.29296875 13.0422827,2.6484375 C12.5769131,1.91015625 10.1188067,2.84765625 10.1188067,2.84765625 C10.1188067,2.84765625 9.7846952,2.96484375 9.59377432,2.70703125 C9.41478599,2.484375 9.79662776,2.28515625 9.79662776,2.28515625 C9.79662776,2.28515625 12.8871595,0.8203125 13.9491569,1.98046875 C15.0111543,3.1640625 12.5291829,6.5625 9.47444877,7.91015625 C5.90661479,9.48046875 2.43424125,9.140625 0.966536965,8.1328125 C-0.274448768,7.21875 -0.44150454,5.6484375 1.2767834,3.80859375 C3.63942931,1.25390625 8.62723735,0.03515625 9.18806744,0.01171875 L9.21193256,0.01171875 Z" id="Path" fill="#369D3A"></path>
            <path d="M9.092607,4.8984375 L9.092607,5.53125 L9.53411154,5.53125 C9.71309987,5.53125 9.82049287,5.51953125 9.86822309,5.5078125 C9.93981842,5.49609375 9.99948119,5.47265625 10.0472114,5.4140625 C10.0949416,5.3671875 10.1068742,5.296875 10.1068742,5.21484375 C10.1068742,5.14453125 10.0949416,5.0859375 10.059144,5.0390625 C10.0233463,4.9921875 9.97561608,4.95703125 9.90402075,4.93359375 C9.84435798,4.91015625 9.70116732,4.8984375 9.48638132,4.8984375 L9.092607,4.8984375 Z M9.092607,3.97265625 L9.092607,4.51171875 L9.41478599,4.51171875 C9.59377432,4.51171875 9.71309987,4.51171875 9.76083009,4.5 C9.84435798,4.48828125 9.90402075,4.46484375 9.95175097,4.41796875 C9.99948119,4.37109375 10.0233463,4.3125 10.0233463,4.2421875 C10.0233463,4.16015625 9.99948119,4.1015625 9.96368353,4.0546875 C9.92788586,4.01953125 9.86822309,3.984375 9.7846952,3.97265625 C9.73696498,3.97265625 9.59377432,3.97265625 9.36705577,3.97265625 L9.092607,3.97265625 Z M8.6153048,3.5859375 L9.56990921,3.5859375 C9.74889754,3.5859375 9.8920882,3.5859375 9.98754864,3.59765625 C10.0830091,3.62109375 10.166537,3.65625 10.2381323,3.703125 C10.3097276,3.75 10.3693904,3.80859375 10.4171206,3.890625 C10.4648508,3.97265625 10.488716,4.06640625 10.488716,4.171875 C10.488716,4.27734375 10.4648508,4.3828125 10.4051881,4.4765625 C10.3455253,4.55859375 10.2619974,4.62890625 10.1546044,4.67578125 C10.2977951,4.72265625 10.4171206,4.79296875 10.488716,4.88671875 C10.5722438,4.9921875 10.6080415,5.109375 10.6080415,5.23828125 C10.6080415,5.34375 10.5841764,5.44921875 10.5364462,5.5546875 C10.488716,5.6484375 10.4171206,5.73046875 10.3216602,5.7890625 C10.2381323,5.859375 10.1307393,5.89453125 9.99948119,5.90625 C9.92788586,5.91796875 9.73696498,5.91796875 9.42671855,5.91796875 L8.6153048,5.91796875 L8.6153048,3.5859375 Z" id="Shape" fill="#2B2A29"></path>
        </g>
    </g>
</svg>