<?xml version="1.0" encoding="UTF-8"?><svg width="56" height="36" viewBox="0 0 56 36" xmlns="http://www.w3.org/2000/svg"><g fill="none" fill-rule="evenodd"><path d="M0 3.75A3.75 3.75 0 013.75 0h48.5A3.76 3.76 0 0156 3.75v28.5A3.75 3.75 0 0152.25 36H3.75A3.76 3.76 0 010 32.25V3.75z" fill="#000" fill-rule="nonzero"/><path d="M1.25 3.75v28.5a2.5 2.5 0 002.5 2.5h48.5a2.5 2.5 0 002.5-2.5V3.75a2.5 2.5 0 00-2.5-2.5H3.75a2.5 2.5 0 00-2.5 2.5z" fill="#FFF"/><g fill="#0274DE"><path d="M7 22.4c0-.1.04-.2.12-.28l3.14-3.2a.37.37 0 01.28-.12c.1 0 .2.04.27.12.08.08.12.17.12.28v1.6h1.37c.4 0 .76-.01 1.08-.04.32-.02.63-.07.95-.13a2.88 2.88 0 001.46-.7c.2-.18.36-.39.5-.63.12-.25.22-.54.29-.87.07-.33.1-.7.1-1.13a10.76 10.76 0 00-.05-1.08c0-.06.01-.12.05-.16a.18.18 0 01.14-.06c.07 0 .12.04.17.1a7.61 7.61 0 011 3.3c.01.83-.1 1.52-.32 2.08-.66 1.68-2.45 2.52-5.37 2.52h-1.37v1.6c0 .1-.04.2-.12.28a.37.37 0 01-.27.12c-.11 0-.2-.04-.28-.12l-3.14-3.2A.39.39 0 017 22.4z"/><path d="M16 14.6c0 .1-.04.2-.12.28l-3.14 3.2a.37.37 0 01-.28.12c-.1 0-.2-.04-.27-.12a.39.39 0 01-.12-.28v-1.6H10.7c-.4 0-.76.01-1.08.04-.32.02-.63.07-.95.13a2.88 2.88 0 00-1.46.7c-.2.18-.36.39-.5.63-.12.25-.22.54-.29.87-.07.33-.1.7-.1 1.13a10.76 10.76 0 00.05 1.08c0 .06-.01.12-.05.16a.18.18 0 01-.14.06c-.07 0-.12-.04-.17-.1a7.61 7.61 0 01-1-3.3c-.01-.83.1-1.52.32-2.08C5.99 13.84 7.78 13 10.7 13h1.37v-1.6c0-.1.04-.2.12-.28a.37.37 0 01.27-.12c.11 0 .2.04.28.12l3.14 3.2c.08.08.12.17.12.28zM26.16 15.49a.9.9 0 01.16.55c0 .19-.05.36-.15.5a.99.99 0 01-.43.34c-.2.08-.41.12-.66.12h-1.76v-3.52h1.7c.38 0 .67.08.89.24a.8.8 0 01.32.67.81.81 0 01-.55.78c.21.06.37.17.48.32zm-1.95-.63h.66a.7.7 0 00.38-.08c.08-.05.12-.14.12-.25 0-.13-.04-.22-.12-.27-.08-.06-.2-.09-.38-.09h-.66v.69zm1.14 1.36c.08-.06.12-.16.12-.29 0-.13-.04-.23-.12-.29-.08-.06-.2-.09-.39-.09h-.75v.75h.75c.18 0 .31-.02.4-.08zm4.13.78l-.32-.73h-1.55l-.32.73h-.93l1.65-3.52h.73L30.39 17h-.91zm-1.58-1.42h.97l-.48-1.13-.49 1.13zm4.99-2.1h.86V17h-.68l-1.61-2.02V17h-.86v-3.52h.67l1.62 2.01v-2.02zM37.82 17h-1.1l-1.41-1.6V17h-.93v-3.52h.93v1.51l1.38-1.52h1.07l-1.55 1.68L37.8 17zm-13.7 7v-2.78h-1.06v-.75h3.04v.75h-1.05V24h-.94zm5.53 0h-1.01l-.61-1.13c-.08-.13-.2-.19-.37-.19h-.27V24h-.91v-3.53h1.68c.43 0 .75.1.96.28.22.19.32.45.32.8 0 .27-.07.5-.21.68-.15.19-.36.31-.63.38.2.04.37.17.49.39l.56 1zm-1.2-2.1c.1-.07.14-.17.14-.31 0-.15-.05-.26-.14-.32-.09-.07-.23-.1-.43-.1h-.64v.82h.64c.2 0 .34-.03.43-.1zM32.7 24l-.31-.73h-1.56l-.32.73h-.92l1.64-3.53h.73L33.61 24h-.91zm-1.58-1.42h.97l-.48-1.13-.49 1.13zm4.99-2.1h.86V24h-.68l-1.61-2.02V24h-.86v-3.53h.67l1.62 2.02v-2.01zm1.99 3.46a1.9 1.9 0 01-.62-.28l.28-.65a2.17 2.17 0 001.13.33c.2 0 .35-.03.46-.08.1-.06.16-.13.16-.24 0-.09-.05-.16-.15-.22-.1-.05-.27-.1-.54-.17a3.15 3.15 0 01-.77-.25.93.93 0 01-.4-.34.95.95 0 01-.11-.48c0-.21.06-.4.18-.58.12-.17.3-.3.52-.4.22-.1.47-.15.76-.15.25 0 .5.04.74.1.24.08.42.17.56.29l-.28.65a1.75 1.75 0 00-1.01-.33c-.18 0-.31.03-.41.1-.1.06-.16.14-.16.25 0 .06.02.11.06.16.03.04.1.07.2.11a3 3 0 00.45.12c.32.07.57.15.75.25.18.1.31.21.39.35a.9.9 0 01.12.46c0 .35-.14.62-.4.81-.27.2-.65.3-1.13.3-.26 0-.52-.04-.78-.11zm2.83.06v-3.53h2.45v.73h-1.55v.65h1.45v.71h-1.45V24h-.9zm2.89 0v-3.53h2.5v.72h-1.61v.67h1.51v.7h-1.51v.73h1.61V24h-2.5zm6.15 0h-1.01l-.61-1.13c-.08-.13-.2-.19-.36-.19h-.28V24h-.91v-3.53h1.68c.43 0 .75.1.96.28.22.19.33.45.33.8 0 .27-.08.5-.22.68-.15.19-.36.31-.62.38.2.04.36.17.48.39l.56 1zm-1.2-2.1c.1-.07.14-.17.14-.31 0-.15-.05-.26-.14-.32-.09-.07-.23-.1-.43-.1h-.64v.82h.64c.2 0 .34-.03.43-.1z"/></g></g></svg>