<?xml version="1.0" encoding="UTF-8"?>
<svg width="56px" height="36px" viewBox="0 0 56 36" version="1.1" xmlns="http://www.w3.org/2000/svg" xmlns:xlink="http://www.w3.org/1999/xlink">
    <!-- Generator: Sketch 53.2 (72643) - https://sketchapp.com -->
    <title>millennium </title>
    <desc>Created with Sketch.</desc>
    <g id="millennium-" stroke="none" stroke-width="1" fill="none" fill-rule="evenodd">
        <g id="Base">
            <path d="M0,3.75075247 C0,1.67926908 1.67596877,0 3.75035585,0 L52.2496442,0 C54.3209085,0 56,1.68806916 56,3.75075247 L56,32.2492475 C56,34.3207309 54.3240312,36 52.2496442,36 L3.75035585,36 C1.67909151,36 0,34.3119308 0,32.2492475 L0,3.75075247 Z" id="Rectangle-2" fill="#000000" fill-rule="nonzero"></path>
            <path d="M1.25,3.75075247 L1.25,32.2492475 C1.25,33.6250965 2.37296468,34.75 3.75035585,34.75 L52.2496442,34.75 C53.6324061,34.75 54.75,33.6316447 54.75,32.2492475 L54.75,3.75075247 C54.75,2.37490355 53.6270353,1.25 52.2496442,1.25 L3.75035585,1.25 C2.36759386,1.25 1.25,2.36835527 1.25,3.75075247 Z" id="Path" fill="#FFFFFF"></path>
        </g>
        <g id="Bank_Millenium" transform="translate(5.000000, 12.000000)" fill-rule="nonzero">
            <polygon id="path5872" fill="#C60052" points="0.0673652695 1.08450299 44.9312259 1.08450299 44.9312259 11.4805831 0.0673652695 11.4805831"></polygon>
            <g id="g5882" transform="translate(22.536490, 5.746981) scale(-1, 1) rotate(-180.000000) translate(-22.536490, -5.746981) translate(0.036490, 0.746981)" fill="#FFFFFF">
                <path d="M33.0890316,0.689229566 L33.0890316,1.25039815 C33.0855062,1.7032834 32.778819,1.81932642 32.3746083,1.81932642 L32.1310593,1.79675271 L31.8806323,1.42252275 C32.0488771,1.50135443 32.1987805,1.57224998 32.3895988,1.57224998 C32.5280395,1.57224998 32.7488387,1.51228855 32.7488387,1.33293329 C32.7488387,0.925195453 31.6298522,1.24687101 31.6298522,0.550789165 C31.6298522,0.24022413 31.8919188,0.00108377807 32.2698525,0.00108377807 C32.3336935,0.00108377807 32.4008859,0.00831442365 32.464198,0.0196012837 L32.6851735,0.300185591 C32.5952313,0.27408471 32.5056417,0.247807489 32.4156995,0.247807489 C32.2172981,0.247807489 32.0077854,0.3227593 32.0077854,0.554669012 C32.0077854,0.782875206 32.2098907,0.824142777 32.3895988,0.865234019 C32.5128728,0.895214764 32.6400258,0.925195453 32.7488387,0.98127704 L32.7488387,0.390127769 C32.7488387,0.0906732317 32.9959149,0.0158977826 33.2422859,0.00108377807 L33.4070036,0.247807489 C33.096791,0.281668058 33.0890316,0.393654903 33.0890316,0.689229566 Z M34.4868385,1.81932642 C34.243642,1.81932642 34.0900352,1.71086677 33.9595307,1.53115879 L33.9595307,1.77047549 L33.6191615,1.77047549 L33.6191615,0.0494056493 L33.958825,0.0494056493 L33.9595324,1.12324457 C33.9595324,1.34422017 34.015614,1.57224998 34.3558069,1.57224998 C34.6965292,1.57224998 34.8086924,1.36644117 34.8086924,0.966286695 L34.8090292,0.0494056493 L35.1490458,0.0494056493 L35.1490458,1.00349804 C35.1490458,1.17950254 35.1601566,1.41141226 35.0557528,1.56113948 C34.9358303,1.73679128 34.6965135,1.81932642 34.4868245,1.81932642 L34.4868385,1.81932642 Z M37.0471785,1.77047549 L36.706985,1.77047549 L36.0482914,1.01125778 C36.0482914,1.01125778 36.6754171,0.160687034 36.7579525,0.0494056493 L37.2020198,0.0494056493 C37.0667678,0.222588413 36.4221826,1.04846912 36.4221826,1.04846912 L37.0471785,1.77047549 Z M0.0308757485,2.7143392 L0.0308757485,2.50747219 L29.8151368,2.50747219 L29.8151368,0.0529327938 C29.9985483,0.0266555726 30.1302867,0.00108377807 30.3847702,0.00108377807 C31.0656854,0.00108377807 31.4922934,0.378840887 31.4922934,0.966286695 C31.4922934,1.47878067 31.1332304,1.81932642 30.7066224,1.81932642 C30.6168565,1.81932642 30.5270906,1.80821592 30.4408518,1.77823524 L30.2389227,1.46026319 C30.3399757,1.51228855 30.433445,1.54226929 30.5533681,1.54226929 C30.931125,1.54226929 31.1143602,1.26168497 31.1143602,0.898918226 C31.1143602,0.528568114 30.8787468,0.26279785 30.4671293,0.26279785 C30.3623729,0.26279785 30.2574403,0.281668058 30.1563879,0.307592571 L30.1563879,2.50747219 L35.6359822,2.50747219 L35.6359822,0.0494056493 L35.976704,0.0494056493 L35.9770408,2.50747219 L44.8961289,2.50747219 L44.8961289,2.7143392 L0.0308757485,2.7143392 Z M11.9438041,6.950968 L12.6118452,6.95046276 L12.610787,3.46529169 L11.9411587,3.46529169 L11.9438041,6.950968 Z M13.6886822,8.45547137 L13.6923856,3.45944832 L14.3822949,3.45944832 L14.383882,8.45688211 L13.6886822,8.45547137 Z M7.90928061,4.75673185 L6.4922506,8.0807122 C6.05100488,9.1021729 5.4305803,9.5201396 4.93766205,9.63812257 C4.71792103,9.71413249 4.08021332,9.66245996 4.08021332,9.66245996 C4.08021332,9.66245996 4.56043394,9.63812257 4.82444068,9.43795734 C5.19355621,9.19687668 5.42282055,8.63288679 5.3205334,7.86890737 L4.87170415,4.54580861 C4.81139034,4.13842354 4.69146725,3.46756078 4.69146725,3.46756078 L5.33622917,3.46756078 C5.33622917,3.46756078 5.37679132,3.98023114 5.43692914,4.43999433 L5.86671158,7.6812631 L7.298732,4.28180193 C7.47967449,3.85960279 7.58531244,3.65608658 7.96218778,3.36968252 L9.65063151,7.68884674 L10.0802377,4.05553563 C10.1049277,3.79893593 10.1237979,3.46756078 10.1237979,3.46756078 L10.9599073,3.46756078 C10.9599073,3.46756078 10.8868955,3.90492659 10.8413953,4.25905183 L10.344068,7.96026029 C10.3289013,8.1336192 10.3087966,8.42760685 10.3087966,8.42760685 L9.27357985,8.42760685 L9.27357985,8.41984693 C9.27357985,8.26165475 9.22084906,8.11086939 9.16053492,7.95250037 L7.90928061,4.75673185 Z M15.4169827,8.45547137 L15.4205098,3.45944832 L16.1105955,3.45944832 L16.1121825,8.45688211 L15.4169827,8.45547137 Z M17.7318469,5.80235367 L19.6888827,5.80235367 C19.6056422,6.333718 19.2564549,6.58361621 18.7102769,6.58361621 C18.2021918,6.58361621 17.8228473,6.2804579 17.7318469,5.80235367 Z M17.7015135,5.36269536 C17.7166802,4.43699624 18.3614422,3.89840137 19.2187146,3.89840137 C19.6737165,3.89840137 20.1137274,4.02749484 20.4627384,4.30067212 L20.4854882,4.30067212 L20.1063205,3.58730732 C19.7800599,3.4509832 19.4158821,3.39789964 19.059288,3.39789964 C17.769764,3.39789964 16.8821581,4.20949547 16.8821581,5.26393512 C16.8821581,6.31819817 17.6484302,7.08464652 18.7785269,7.08464652 C19.8103928,7.08464652 20.5158217,6.34094854 20.4854882,5.36269536 L17.7015135,5.36269536 Z M29.1828963,6.94708832 L29.1800726,3.46085917 L29.8497008,3.46085917 L29.8507618,6.94673522 L29.1828963,6.94708832 Z M21.1224908,6.95326067 L21.1224908,3.46368088 L21.8199835,3.46332721 L21.8199835,5.64063323 C21.8199835,6.088404 21.9333812,6.55116523 22.6238196,6.55116523 C23.3140812,6.55116523 23.5414059,6.13390419 23.5414059,5.32230842 L23.5401708,3.46209274 L24.2321963,3.46209274 L24.2318595,5.39814184 C24.2318595,5.75455969 24.2547856,6.22490457 24.0424519,6.52841486 C23.799608,6.88483271 23.3140964,7.051843 22.889076,7.051843 C22.3961576,7.051843 22.0854162,6.83192571 21.8198219,6.46774794 L21.8201587,6.95237762 L21.1224908,6.95326067 Z M33.1789738,6.96384207 L33.1802088,4.94578675 C33.1802088,4.36169175 32.8160311,3.95201396 32.3151765,3.95201396 C31.6552483,3.95201396 31.4579046,4.38426546 31.4579046,5.08211087 L31.4579046,6.96331325 L30.7605881,6.96384207 L30.7669368,4.95334654 C30.7669368,3.88391649 31.1924871,3.37530236 32.0876761,3.37530236 C32.618511,3.37530236 32.9070314,3.55007234 33.1802088,3.96715711 L33.1802088,3.47406237 L33.8708235,3.47406237 L33.8704867,6.96258402 L33.1789738,6.96384207 Z M34.8432564,6.95449513 L34.8474891,3.4649154 L35.5412784,3.4649154 L35.5412784,5.46780427 C35.5412784,6.19598297 35.8220389,6.5525771 36.3985503,6.5525771 C36.8687189,6.5525771 37.2630533,6.15048278 37.2630533,5.35387725 L37.2639347,3.4649154 L37.9533149,3.4649154 L37.9536518,5.40678424 C37.9536518,6.12014933 38.1432362,6.5525771 38.8259147,6.5525771 C39.4329364,6.5525771 39.6756035,6.05948241 39.6756035,5.28545069 L39.6703153,3.4649154 L40.3681606,3.4649154 L40.3658701,5.47521108 C40.3658701,6.43865064 40.0854622,7.05307859 39.0080962,7.05307859 C38.4463984,7.05307859 38.0901568,6.80282784 37.7942296,6.39315045 C37.5134691,6.84074495 37.1494676,7.05307859 36.6108728,7.05307859 C36.1026113,7.05307859 35.8066841,6.86367103 35.5412667,6.45381737 L35.5412667,6.95326067 L34.8432564,6.95449513 Z M25.0661901,6.9532601 L25.0663585,3.46368031 L25.763675,3.46368031 L25.7635065,5.64063379 C25.7635065,6.08840457 25.8770805,6.55116579 26.5673426,6.55116579 C27.2579573,6.55116579 27.4854583,6.13390475 27.4854583,5.32230881 L27.4838696,3.46209313 L28.1762481,3.46209313 L28.1759113,5.3981424 C28.1759113,5.75456025 28.1988374,6.22490513 27.9863269,6.52841542 C27.7433067,6.88483327 27.2579719,7.05184356 26.8331272,7.05184356 C26.3402088,7.05184356 26.0289386,6.83192627 25.7635211,6.4677485 L25.763858,6.95237818 L25.0661901,6.9532601 Z M11.7773229,7.87578537 C11.7773229,7.62553406 11.98031,7.42272362 12.2305609,7.42272362 C12.4808118,7.42272362 12.6836225,7.62553406 12.6836225,7.87578537 C12.6836225,8.12638866 12.4808118,8.32902339 12.2305609,8.32902339 C11.98031,8.32902339 11.7773229,8.12638866 11.7773229,7.87578537 Z M29.049041,7.87578537 C29.049041,7.62553406 29.251852,7.42272362 29.502279,7.42272362 C29.7525298,7.42272362 29.9553408,7.62553406 29.9553408,7.87578537 C29.9553408,8.12638866 29.7525298,8.32902339 29.502279,8.32902339 C29.251852,8.32902339 29.049041,8.12638866 29.049041,7.87578537 Z" id="path5884"></path>
            </g>
        </g>
    </g>
</svg>