<?xml version="1.0" encoding="UTF-8"?><svg width="56" height="36" viewBox="0 0 56 36" xmlns="http://www.w3.org/2000/svg"><g fill="none" fill-rule="evenodd"><path d="M0 3.75A3.75 3.75 0 013.75 0h48.5A3.76 3.76 0 0156 3.75v28.5A3.75 3.75 0 0152.25 36H3.75A3.76 3.76 0 010 32.25V3.75z" fill="#000" fill-rule="nonzero"/><path d="M1.25 3.75v28.5a2.5 2.5 0 002.5 2.5h48.5a2.5 2.5 0 002.5-2.5V3.75a2.5 2.5 0 00-2.5-2.5H3.75a2.5 2.5 0 00-2.5 2.5z" fill="#FFF"/><g transform="translate(16 6)" fill-rule="nonzero"><circle stroke="#E5E5E4" stroke-width=".53" fill="#1C2D5A" cx="12.41" cy="12.41" r="12.33"/><path d="M2.04 12.9c0-.3 0-.56-.02-.78h.56l.03.38a.9.9 0 01.8-.44c.32-.01.61.18.73.48.08-.14.2-.25.34-.34.15-.1.34-.16.52-.15.44 0 .88.3.88 1.13v1.54h-.63v-1.43c0-.44-.15-.68-.47-.68a.5.5 0 00-.46.34.94.94 0 00-.04.22v1.57h-.64v-1.52c0-.37-.14-.62-.45-.62a.52.52 0 00-.47.37.57.57 0 00-.04.22v1.55h-.64V12.9zm6.36 1.2c0 .21 0 .42.04.63h-.59l-.04-.29a.97.97 0 01-.78.34.78.78 0 01-.82-.78c0-.67.59-.99 1.55-.98v-.05c0-.17-.07-.45-.53-.45-.26 0-.5.07-.73.2l-.13-.43c.3-.16.62-.24.95-.23.84 0 1.08.53 1.08 1.1v.95zm-.65-.64c-.46 0-.9.09-.9.48a.34.34 0 00.37.38c.23 0 .43-.15.51-.36l.02-.15v-.35zm1.11-.56c0-.3 0-.56-.02-.78h.58l.03.39c.18-.29.5-.46.83-.45.46 0 .93.3.93 1.12v1.55h-.66v-1.47c0-.37-.13-.68-.5-.68a.55.55 0 00-.5.4.68.68 0 00-.04.22v1.53h-.65V12.9zm5.23-1.83V14c0 .26 0 .55.02.73h-.6l-.02-.4c-.17.3-.5.48-.85.46-.62 0-1.12-.53-1.12-1.35 0-.87.54-1.4 1.17-1.4.29-.02.57.11.74.35v-1.36h.67v.04zm-.67 2.14v-.18a.58.58 0 00-.58-.45c-.42 0-.68.38-.68.87s.26.82.67.82c.28 0 .52-.2.57-.46a.73.73 0 00.03-.21v-.4h-.01zm1.12 1.52v-2.61h.68v2.61h-.68zm1.14-1.77c0-.34 0-.6-.02-.84h.57l.02.5h.02c.1-.31.39-.51.71-.5h.16v.58a.91.91 0 00-.2-.02c-.29 0-.54.2-.59.5l-.02.2v1.36h-.67v-1.78h.02zm1.77 1.77v-2.61h.67v2.61h-.67z" fill="#FFF"/><path d="M22.26 9.35c-.33-.37-.67-.2-.96-.06l-.96.53a.82.82 0 01-.96-.19l-.04-.05-.04-.06a2.57 2.57 0 00-.31-.43c-.32-.32-.83-.54-1.67-.14l-1.7.98a.81.81 0 01-.98-.22v-.05l-.08-.14a2.98 2.98 0 00-.12-.17l-.17-.14c-.31-.32-.82-.54-1.66-.15l-1.69.97-.86.49.44.55a.9.9 0 001.1.22l1.5-.87c1.3-.71 1.93-.03 2.21.42l.03.04.03.05a.7.7 0 00.61.34c.14 0 .27-.05.38-.13l1.46-.85c1.3-.71 1.95 0 2.23.46l.07.11c.13.19.34.3.57.3a.86.86 0 00.36-.11l1.75-1.02a7.24 7.24 0 00-.55-.67h.01z" fill="#FCD111"/></g></g></svg>