<?xml version="1.0" encoding="UTF-8"?><svg width="56" height="36" viewBox="0 0 56 36" xmlns="http://www.w3.org/2000/svg"><g fill="none" fill-rule="evenodd"><path d="M0 3.75A3.75 3.75 0 013.75 0h48.5A3.76 3.76 0 0156 3.75v28.5A3.75 3.75 0 0152.25 36H3.75A3.76 3.76 0 010 32.25V3.75z" fill="#000" fill-rule="nonzero"/><path d="M1.25 3.75v28.5a2.5 2.5 0 002.5 2.5h48.5a2.5 2.5 0 002.5-2.5V3.75a2.5 2.5 0 00-2.5-2.5H3.75a2.5 2.5 0 00-2.5 2.5z" fill="#FFF"/><g fill-rule="nonzero"><path d="M15.7 15.89a.93.93 0 00-.35-.33 3.51 3.51 0 00-.8-.36c-.76-.24-1.56-.38-2.38-.45a20.34 20.34 0 00-5.2.1c-.63.09-1.24.2-1.8.41-.29.1-.56.23-.77.4-.33.27-.34.58 0 .84.13.1.28.2.45.27.42.2.9.32 1.39.43.5.1 1.03.18 1.56.23l.6.05c.34-.8.68-1.59 1-2.38h.02l.16 2.43h.2l1.23-.02a17 17 0 001.86-.18c.6-.08 1.2-.2 1.76-.4.33-.1.65-.24.88-.44.21-.18.3-.38.18-.6M8.19 17.59c-.72.01-1.44.06-2.15.16-.69.1-1.35.23-1.98.46-.4.14-.77.3-1.05.55-.25.23-.36.48-.24.76.1.24.33.42.6.57.46.25.98.42 1.53.55a13.6 13.6 0 002.02.3l1.4-3.35H8.2M13.42 18.38a7.47 7.47 0 00-1.67-.5c-.56-.12-1.14-.19-1.72-.24l-.43-.02.22 3.34h.11l1.08-.11c.64-.09 1.27-.22 1.86-.42.43-.14.83-.31 1.13-.57.38-.31.42-.68.12-1-.18-.2-.42-.35-.7-.48" fill="#EB0029"/><g fill="#594948"><path d="M20.3 18.76c0 .04 0 .17-.36.17H18v-.62h1.94c.36 0 .36.13.36.18v.27zm-2.3.7h1.94c.17 0 .25.02.28.04.07.03.1.1.1.2v.2c0 .1-.03.17-.1.2a.8.8 0 01-.28.03H18v-.66zm2.7-.26c.32-.07.48-.23.48-.48v-.35c0-.39-.3-.58-.88-.58h-3.24v2.92h3.01c.76 0 1.14-.2 1.14-.6v-.36c0-.29-.17-.47-.51-.55zM25.01 19.5h-1.5l.76-1.07.74 1.08zm-.27-1.71h-.88L21.7 20.7h.96l.44-.63h2.32l.44.63h1.07l-2.17-2.9-.02-.02zM31.13 19.32l.03.41c-.1-.07-.21-.16-.36-.25l-2.62-1.69h-.66v2.92h.86v-1.58c0-.1 0-.22-.02-.37l.23.17 2.74 1.77H32V17.8h-.86v1.53zM36.82 20.11h-2.79v-1.75h2.79v1.75zm-.02-2.32h-2.75c-.37 0-.62.05-.76.14-.14.1-.2.29-.2.56V20c0 .28.06.46.2.56.14.1.39.15.76.15h2.75c.37 0 .62-.05.75-.15.14-.1.21-.28.21-.56v-1.5c0-.28-.07-.47-.2-.57-.14-.1-.4-.14-.76-.14zM39.81 18.34h1.92c.16 0 .23.01.26.02.06.03.09.09.09.17v.35c0 .09-.03.14-.09.17a.75.75 0 01-.26.03H39.8v-.74zm2.3 1.29c.6 0 .89-.2.89-.59v-.67c0-.39-.3-.58-.88-.58h-3.24v2.92h.93v-1.08h.77l1.5 1.07h1.38l-1.72-1.07h.38zM43.72 18.36h1.71v2.35h.95v-2.35h1.72v-.57h-4.38zM49.8 20.11v-.65h1.77v-.55H49.8v-.57h2.88v-.55h-3.83v2.92h3.87v-.6zM18.79 16H17.5v.85h1.29v-.3h-.67v-.23h1.07v.47c0 .12-.03.2-.1.25-.05.04-.17.07-.34.07h-1.22c-.17 0-.28-.03-.35-.07-.06-.04-.09-.13-.09-.25v-.72c0-.12.03-.21.1-.25.06-.05.17-.07.34-.07h1.22c.17 0 .28.02.34.06.07.05.1.13.1.25v.03l-.4.05V16zM21.16 15.98h-.92v.38h.92l.14-.01c.03-.02.05-.05.05-.1v-.16c0-.05-.02-.08-.05-.1a.4.4 0 00-.14 0zm-1.33 1.13v-1.36h1.52c.26 0 .4.09.4.26v.32c0 .18-.14.26-.4.26h-.24l.82.52h-.59l-.71-.52h-.4v.52h-.4zM22.76 15.75v1.1h1.18v-1.1h.4v1.04c0 .12-.02.2-.09.25-.06.04-.17.07-.34.07h-1.12c-.17 0-.28-.03-.35-.07-.06-.04-.09-.13-.09-.25v-1.04h.41zM26.35 15.98h-.92v.37h.92c.07 0 .11 0 .14-.02.03-.01.05-.05.05-.1v-.14c0-.04-.02-.08-.05-.1a.38.38 0 00-.14 0zm-1.33 1.13v-1.36h1.52c.26 0 .4.09.4.26v.3c0 .18-.14.27-.4.27h-1.11v.53h-.4zM27.71 16.85h1.36V16h-1.36v.86zm-.4-.78c0-.12.02-.21.09-.25.06-.05.17-.07.34-.07h1.3c.17 0 .29.02.35.07.06.04.1.13.1.25v.72c0 .12-.04.2-.1.25-.06.04-.18.07-.35.07h-1.3c-.17 0-.28-.03-.34-.07-.07-.04-.1-.13-.1-.25v-.72zM31.22 17.1v-1.35H33V16h-1.38v.35h.74v.25h-.74v.52zM33.29 15.75h.41v1.36h-.41zM34.37 17.1v-1.35h.28l1.25.8c.09.06.16.1.2.15l-.02-.24v-.7h.38v1.35h-.29l-1.3-.84-.14-.11.01.21v.74h-.37zM37.58 16.57h.77l-.38-.56-.39.56zm-.8.54l1-1.36h.4l1.02 1.36h-.46l-.21-.3H37.4l-.21.3h-.41zM39.54 17.1v-1.35h.28l1.24.8c.1.06.16.1.2.15l-.01-.24v-.7h.37v1.35h-.28l-1.3-.84-.15-.11.02.21v.74h-.37zM43.78 16h-1.12v.85h1.12v-.29l.4.07v.16c0 .12-.02.2-.09.25-.06.04-.17.07-.34.07h-1.06c-.17 0-.28-.03-.34-.07-.07-.04-.1-.13-.1-.25v-.72c0-.12.03-.21.1-.25.06-.05.17-.07.34-.07h1.06c.17 0 .28.02.34.07.07.04.1.13.1.25v.13l-.41.05v-.26zM44.8 15.75h.42v1.36h-.41zM45.9 17.1v-1.35h1.8v.23h-1.4v.3h.82v.24h-.81v.33h1.41v.26zM49.58 15.98h-.92v.38h.92l.14-.01c.03-.02.05-.05.05-.1v-.16c0-.05-.02-.08-.05-.1a.4.4 0 00-.14 0zm-1.33 1.13v-1.36h1.52c.27 0 .4.09.4.26v.32c0 .18-.13.26-.4.26h-.23l.81.52h-.59l-.71-.52h-.4v.52h-.4zM51.15 16.85h1.36V16h-1.36v.86zm-.41-.78c0-.12.03-.21.09-.25.06-.05.18-.07.35-.07h1.3c.17 0 .28.02.35.07.06.04.09.13.09.25v.72c0 .12-.03.2-.1.25-.06.04-.17.07-.34.07h-1.3c-.17 0-.29-.03-.35-.07-.06-.04-.1-.13-.1-.25v-.72z"/></g></g></g></svg>