<?xml version="1.0" encoding="UTF-8"?><svg width="56" height="36" viewBox="0 0 56 36" xmlns="http://www.w3.org/2000/svg"><g fill="none" fill-rule="evenodd"><path d="M0 3.75A3.75 3.75 0 013.75 0h48.5A3.76 3.76 0 0156 3.75v28.5A3.75 3.75 0 0152.25 36H3.75A3.76 3.76 0 010 32.25V3.75z" fill="#000" fill-rule="nonzero"/><path d="M1.25 3.75v28.5a2.5 2.5 0 002.5 2.5h48.5a2.5 2.5 0 002.5-2.5V3.75a2.5 2.5 0 00-2.5-2.5H3.75a2.5 2.5 0 00-2.5 2.5z" fill="#FFF"/><g transform="translate(15 5)" fill-rule="nonzero"><circle fill="#544741" cx="12.89" cy="12.89" r="12.79"/><g fill="#FFC428"><path d="M13.07 3.1c-.07.94-.14 1.85-.32 2.77-.1.74-.28 1.47-.45 2.21-.14.56-.35 1.13-.56 1.65-.08.18-.08.18-.25.04a2.67 2.67 0 01-.6-.78 8.52 8.52 0 01-.77-2.24 16.1 16.1 0 01-.35-2.22c0-.17-.04-.35-.04-.56 0-.07.04-.1.07-.14a7.07 7.07 0 012.36-.74c.17-.03.38-.03.6-.07l.31.07zM13.5 3.1l.55.06c.81.1 1.62.35 2.36.74.07.04.14.1.1.18a15.56 15.56 0 01-.7 3.86 6.26 6.26 0 01-.74 1.55c-.1.14-.24.28-.38.38-.07.07-.1.04-.14-.03-.32-.74-.57-1.51-.74-2.32-.21-.98-.39-1.93-.5-2.95-.06-.5-.1-.99-.13-1.48h.31zM13.1 8.71c.04.07.08.18.08.28.07.57.2 1.13.35 1.7a15.36 15.36 0 002.53 4.98l.38.42c.07.07.07.1-.03.14a7.34 7.34 0 01-3.45.85 6.47 6.47 0 01-3.2-.85c-.06-.03-.06-.07-.03-.14.85-.91 1.55-1.97 2.04-3.13.35-.77.67-1.54.91-2.35.18-.56.28-1.16.36-1.76.07-.03.07-.1.07-.14zM16.62 4.32v-.17c0-.1.03-.1.1-.07a6.98 6.98 0 013.37 6.04c0 .24-.03.46-.03.7 0 .1-.03.1-.14.07a4.84 4.84 0 01-2.25-2.1c-.49-.95-.8-1.97-.95-3.03l-.1-1.44zM6.15 10.44v-.6a7.09 7.09 0 013.48-5.76c.03.03.03.07.03.1 0 .77-.1 1.58-.24 2.36-.18.98-.57 1.9-1.1 2.74a4.5 4.5 0 01-1.96 1.65c-.1.03-.1.03-.14-.07-.07-.18-.07-.32-.07-.42zM9.7 8.64c.03.1.03.18.07.28.2.88.6 1.7 1.16 2.4.03.03.07.1.03.17-.45.84-1.02 1.65-1.68 2.32-.36.35-.78.67-1.23.91a.1.1 0 01-.14 0c-.32-.38-.64-.8-.88-1.23l-.42-.88c-.04-.07-.04-.1.07-.17a5.87 5.87 0 002.98-3.41c-.03-.18 0-.28.04-.39zM16.55 8.6c.03.08.03.15.03.22.14.56.39 1.09.7 1.58a6 6 0 001.94 1.83c.1.07.21.1.32.17.1.04.1.1.07.18-.29.7-.64 1.37-1.13 1.93-.03.07-.1.1-.14.18-.07.1-.1.07-.21.03a6.4 6.4 0 01-1.97-1.79c-.31-.42-.6-.88-.88-1.37-.1-.18-.1-.18.04-.32.39-.49.67-1.05.88-1.65.2-.28.31-.63.35-.98z"/></g><path d="M5.66 18.38c.14.1.28.2.42.35.07.03.1.1.1.17v1.13c.25-.21.46-.46.7-.7.08-.08.15-.11.22-.11h.56L6.6 20.27l1.05 1.06h-.53a.32.32 0 01-.28-.14l-.5-.5c-.03-.03-.1-.1-.13-.1-.04.17 0 .39-.04.6 0 .03 0 .14-.07.14h-.45v-2.95zM8.78 19.22c.1-.04.21-.04.32-.04v.53a.66.66 0 00-.5.18c-.13.1-.17.28-.17.42v.91c0 .07-.03.14-.1.14H7.9v-2.1h.45c.07.06.04.2.04.28.1-.15.2-.29.38-.32zM12.3 19.43a.7.7 0 01.56-.25c.21 0 .42.04.56.18.14.14.18.35.18.53v1.33c0 .04 0 .1-.07.1h-.46v-1.3c0-.13-.03-.24-.14-.3-.21-.11-.5-.04-.6.17-.1.24-.07.49-.07.73v.67c-.17.04-.31 0-.49 0-.03-.03 0-.07-.03-.1v-2h.45c.1.06.1.17.1.24zM14.2 19.46a.94.94 0 011.01-.24c.1.03.18.1.25.17v-.2h.46c.07 0 .07.06.07.13v1.97a.8.8 0 01-.28.6c-.22.17-.53.21-.78.21a.96.96 0 01-.74-.32.65.65 0 01-.17-.42h.53c.03.07.07.14.14.21.14.07.31.07.45.07.1-.03.21-.1.28-.2.07-.15.04-.29.04-.43-.32.32-.88.32-1.23 0-.21-.17-.28-.46-.32-.74.04-.28.1-.56.28-.8zM16.62 19.4c.21-.18.5-.22.74-.22.28 0 .6.1.8.32a.1.1 0 010 .14c-.1.1-.2.18-.28.28a.83.83 0 00-.31-.28.77.77 0 00-.5.04c-.06.03-.13.14-.06.2.07.08.2.11.31.15.28.07.56.07.81.24.18.1.21.32.18.53a.63.63 0 01-.36.5c-.31.17-.66.17-1.01.1a1.1 1.1 0 01-.6-.32c-.04-.03.03-.1.07-.14.1-.07.17-.14.28-.21.1.14.28.21.42.25.18.03.39.03.53-.11.07-.03.07-.18 0-.21a.57.57 0 00-.32-.1c-.24-.04-.53-.08-.74-.25-.24-.25-.2-.7.04-.92zM19.11 19.54c.14-.25.39-.36.67-.36v.53c-.17 0-.35.04-.46.14-.14.1-.17.28-.17.46v.91c0 .07-.04.14-.1.14h-.43v-2.1h.42c.04 0 .07.03.07.06v.22zM9.38 19.22h.46c.03.03.03.1.03.14v1.09c0 .1 0 .24.1.35.11.1.22.1.36.1.1 0 .25-.06.32-.17a.7.7 0 00.1-.39v-1.12h.46c.07 0 .07.07.07.14v1.83c0 .03 0 .1-.04.14-.17.03-.31 0-.49 0v-.21a.61.61 0 01-.5.24c-.24.04-.55 0-.73-.2-.14-.15-.17-.36-.17-.57.03-.42.03-.88.03-1.37zM20.06 19.22h.46c.07.03.03.1.07.14V21.29c-.14.04-.32 0-.46 0-.03 0-.03-.03-.03-.07-.04-.63-.04-1.3-.04-2z" fill="#F6F5F5"/><path d="M14.93 19.64c.18-.03.35.04.46.18.17.2.17.56 0 .77-.14.17-.39.17-.56.1-.14-.03-.21-.17-.28-.28a.79.79 0 01.07-.63l.31-.14z" fill="#544741"/></g></g></svg>