<?xml version="1.0" encoding="UTF-8"?><svg width="56" height="36" viewBox="0 0 56 36" xmlns="http://www.w3.org/2000/svg"><g fill="none" fill-rule="evenodd"><path d="M0 3.75A3.75 3.75 0 013.75 0h48.5A3.76 3.76 0 0156 3.75v28.5A3.75 3.75 0 0152.25 36H3.75A3.76 3.76 0 010 32.25V3.75z" fill="#000" fill-rule="nonzero"/><path d="M1.25 3.75v28.5a2.5 2.5 0 002.5 2.5h48.5a2.5 2.5 0 002.5-2.5V3.75a2.5 2.5 0 00-2.5-2.5H3.75a2.5 2.5 0 00-2.5 2.5z" fill="#FFF"/><g transform="translate(18 6)" fill-rule="nonzero"><rect fill="#FFF" x=".21" y=".38" width="20.1" height="24.11" rx="3.61"/><path d="M16.99.01H3.8A3.8 3.8 0 000 3.76v17.39a3.8 3.8 0 003.8 3.75H17a3.8 3.8 0 003.8-3.75V3.76A3.8 3.8 0 0017 .01zm2.66 16.94c0 .03-.02.05-.04.05H1.19a.05.05 0 01-.05-.05V3.8A2.87 2.87 0 014.01.95h12.76a2.87 2.87 0 012.88 2.84v13.16z" fill="#0077C0"/><path d="M0 16.97v4.18a3.8 3.8 0 003.8 3.75H17a3.8 3.8 0 003.8-3.75v-4.18H0z" fill="#F47D31"/><path d="M9.95 13.62h-.72l-.84-1.56a.23.23 0 00-.07-.08v1.63H7.7c-.09 0-.12-.03-.1-.1v-2.94h.68l.86 1.58.06.07v-1.64h.72l.02 3.04zM5.53 8.53l.04.03c.3.1.48.39.46.7 0 .14-.03.28-.07.42a.62.62 0 01-.58.44l-1.03.04h-.59V7.1H5.16c.21 0 .41.07.56.22a.7.7 0 01.2.56.68.68 0 01-.39.64zm-1.01.97h.49c.07 0 .14-.03.2-.09a.27.27 0 00.06-.2c0-.17-.08-.3-.23-.3h-.52v.6zm0-1.2h.45c.14-.02.2-.13.2-.29 0-.16-.1-.27-.2-.27h-.45v.56zM16.57 12.38v1.23h-.75v-3.03h1.28c.11 0 .23.01.34.03.23.01.42.16.5.37.14.31.12.67-.05.96a.74.74 0 01-.43.34c.15.07.27.2.33.34.15.34.3.67.44 1.03h-.77a.11.11 0 01-.12-.08 90.38 90.38 0 00-.46-1.04.29.29 0 00-.31-.15zm0-1.2v.58s.03.05.05.05c.15 0 .3-.02.45-.04.13-.04.21-.16.2-.29 0-.16-.08-.26-.21-.28l-.5-.02zM14.35 10.14V7.12h1.19c.43-.02.82.27.94.68.12.38.16.77.11 1.17-.01.2-.07.42-.16.6a.97.97 0 01-.91.58H14.35zm.75-.68h.24c.12.02.24-.02.33-.1.1-.08.14-.2.14-.31.02-.24.02-.47 0-.7-.03-.38-.17-.53-.5-.56h-.12c-.05 0-.1.03-.1.1v1.57h.01zM7.05 12.93v.68H5v-3.03H7v.64H5.76v.48h1.16v.62H5.84c-.07 0-.1.03-.1.1v.42c0 .08.04.1.11.1h1.2zM15.12 11.7v.62h-1.1c-.07 0-.1.02-.1.08v.44c0 .07.03.09.1.09h1.21v.68h-2.06v-3.03h2.01v.64h-1.23v.48h1.17zM13.94 10.15h-.75c-.02 0-.04-.04-.05-.07a4.61 4.61 0 01-.09-.36c0-.05-.03-.07-.09-.07h-.72c-.06 0-.08.02-.1.07l-.08.37a.1.1 0 01-.07.06h-.73l.09-.28a1088.56 1088.56 0 00.86-2.74.11.11 0 01.09-.02h.65c.05-.01.09.02.1.06a1082.84 1082.84 0 00.9 2.98zm-1.33-2.22h-.02l-.26 1.06h.55l-.27-1.06zM8.93 10.15h-.78l-.11-.43A.07.07 0 008 9.66a.08.08 0 00-.06-.02h-.72c-.02 0-.05 0-.07.02a.08.08 0 00-.03.06l-.1.43h-.76a1326.52 1326.52 0 00.93-3.02.12.12 0 01.1-.02h.64c.04 0 .08.02.1.07l.87 2.9.02.07zM7.87 8.99L7.6 7.93h-.02l-.26 1.06h.55zM3.85 12.38l.63.24c-.02.49-.36.9-.84 1.02-.26.05-.53.02-.79-.07A1.05 1.05 0 012.3 13c-.14-.32-.2-.67-.17-1.02 0-.26.05-.52.15-.76.18-.45.65-.73 1.13-.68.27 0 .53.1.73.28.17.19.29.42.34.66l-.66.19c0-.05-.03-.1-.04-.14a.42.42 0 00-.78-.05.99.99 0 00-.11.46c-.02.23 0 .47.05.7.02.11.1.21.2.27.1.06.23.07.35.03.1-.03.2-.1.24-.21.05-.1.08-.22.13-.34zM10.5 10.15h-.76v-.1-1.09a.36.36 0 00-.04-.16l-.86-1.6-.05-.1h.77c.05 0 .1.04.12.09l.41.85.05.1.1-.23.35-.72a.11.11 0 01.12-.08h.75l-.05.1-.86 1.6a.4.4 0 00-.04.17v1.06l-.01.1zM11.95 11.32v2.29h-.76v-.12-2.06c0-.08-.02-.11-.1-.1H10.41v-.75h2.29v.74h-.76z" fill="#D31145"/><path d="M14.27 6.57l-.14-.08-2.92-2.23-1.29-1c-.07-.05-.11-.04-.18 0l-3.57 3.2a.35.35 0 01-.14.07.19.19 0 01-.22-.1.2.2 0 01.06-.25l.5-.45 3.24-2.87c.18-.15.23-.15.42 0l3.67 2.82.69.53c.07.06.1.16.07.24a.21.21 0 01-.19.12zM9.71 15.35c-.86 0-1.72-.13-2.53-.4-.08-.04-.15-.07-.16-.16a.2.2 0 01.06-.2.2.2 0 01.2-.03c.35.09.67.2 1.01.26a9 9 0 001.98.11 7.8 7.8 0 002.03-.39l.55-.2a.2.2 0 01.24.05c.05.07.05.17 0 .23a.29.29 0 01-.11.09 8.61 8.61 0 01-3.27.64z" fill="#0077C0"/><path d="M9.8 6.21a3.93 3.93 0 01-2.03-.6.22.22 0 01-.13-.22.2.2 0 01.12-.15.2.2 0 01.2.03 3.52 3.52 0 003.63.07l.25-.15a.2.2 0 01.28.05.19.19 0 01-.07.27c-.48.32-1.02.54-1.6.64l-.65.06z" fill="#0077C0"/><path d="M5.65 21.15v-1.03h-.47L3.84 22.1h.63l.66-1v.98h.46l.32-.43.38-.58v1.02h.5v-1.97h-.45l-.7 1.03zM14.63 20.91a.99.99 0 00-.96-.82c-.26 0-.52.1-.72.28a1 1 0 00-.3.7c0 .55.43 1 .98 1.02a.97.97 0 001-.71h-.5a.52.52 0 01-.5.27.56.56 0 01-.56-.55c0-.3.25-.56.56-.56.24 0 .46.14.53.37h.47zM7.04 22.07h1.1v-.4h-.59v-.34h.58v-.42h-.58v-.35h.58v-.46h-1.1zM12.11 21.64v-1.53h-.5v1.77l-.77-1.76h-.43l-.7 1.74-.35-.44.07-.05c.27-.16.41-.47.35-.78a.62.62 0 00-.55-.47h-.9v1.95h.49v-.47l.4.47h.92l.1-.26h.74l.13.25h1.58v-.42h-.58zm-2.83-.7a.2.2 0 01-.2.16h-.3v-.5h.24c.08 0 .17.03.22.1.05.07.07.16.04.24zm1.13.48l.2-.44.2.44h-.4zM15.7 20.08c-.26 0-.52.1-.71.3a1 1 0 00-.3.72c.02.55.46 1 1.02 1.02a1.02 1.02 0 00.74-1.74c-.2-.19-.46-.3-.74-.3zm0 1.56a.55.55 0 01-.5-.33.54.54 0 01.1-.6c.17-.15.4-.2.6-.11a.54.54 0 01-.16 1.04h-.03zM10.35 18.4h-.24l-.42 1.04h.25l.08-.24h.41l.1.24h.25l-.43-1.04zm-.25.63l.13-.37.14.37h-.27zM6.6 23.37c0-.35.18-.56.48-.56.31 0 .45.2.45.32l-.23.05c0-.06-.03-.1-.07-.14a.19.19 0 00-.15-.04c-.16 0-.24.14-.24.36 0 .22.08.34.25.34.12 0 .22-.1.23-.22l.2.06a.4.4 0 01-.44.36c-.3 0-.48-.19-.48-.53zM8.75 23.36a.52.52 0 01-.54.48.52.52 0 01-.5-.53c.01-.28.24-.5.52-.5a.5.5 0 01.39.16c.1.1.15.25.13.39zm-.8 0c0 .22.1.36.28.36.18 0 .3-.14.3-.36 0-.22-.12-.36-.3-.36-.17 0-.28.14-.28.36zM9.74 23.9v-.74l-.2.73h-.22l-.18-.73v.73h-.2v-1.04h.31l.19.68.18-.68h.32v1.05zM10.66 22.85c.28 0 .37.13.37.32 0 .2-.11.33-.38.33h-.2v.4h-.22v-1.05h.43zm-.22.47h.16c.15 0 .2-.04.2-.14s-.04-.16-.2-.16h-.16v.3zM11.77 23.64h-.4l-.09.25h-.24l.4-1.04h.26l.42 1.05h-.25l-.1-.26zm-.35-.18h.28l-.13-.37-.15.37zM12.27 23.9v-1.05h.22l.42.66v-.66h.2v1.05h-.22l-.41-.65v.65zM13.67 23.9v-.46l-.38-.59h.25l.24.39.24-.39h.25l-.38.6v.45z" fill="#FFF"/></g></g></svg>