<?xml version="1.0" encoding="UTF-8"?><svg width="56" height="36" viewBox="0 0 56 36" xmlns="http://www.w3.org/2000/svg"><g fill="none" fill-rule="evenodd"><path d="M0 3.75A3.75 3.75 0 013.75 0h48.5A3.76 3.76 0 0156 3.75v28.5A3.75 3.75 0 0152.25 36H3.75A3.76 3.76 0 010 32.25V3.75z" fill="#000" fill-rule="nonzero"/><path d="M1.25 3.75v28.5a2.5 2.5 0 002.5 2.5h48.5a2.5 2.5 0 002.5-2.5V3.75a2.5 2.5 0 00-2.5-2.5H3.75a2.5 2.5 0 00-2.5 2.5z" fill="#FFF"/><g transform="translate(15 5)" fill-rule="nonzero"><circle fill="#1F4396" cx="13.05" cy="13.05" r="12.94"/><path d="M13.05 2.17l.5.64c1.1 1.42 2.2 2.84 3.27 4.3.53.68 1 1.39 1.42 2.14.29.53.5 1.1.6 1.67a5.75 5.75 0 01-.1 2.42c-.18.5-.46.92-.82 1.31-.39.36-.82.71-1.24 1l-3.6 2.56c-.03.03-.06.03-.14 0-1.38-1-2.73-2-4.12-2.99a5.57 5.57 0 01-1.14-1.1c-.25-.4-.43-.82-.5-1.28-.03-.4-.07-.75-.03-1.14.03-.75.21-1.46.53-2.13.36-.72.78-1.4 1.25-2.03.78-1.07 1.6-2.1 2.38-3.17l1.6-2.13.14-.07zm3.3 7.08c0-.32-.1-.64-.31-.9l-2.88-3.98-.04-.03c-.03-.04-.07-.04-.1 0l-.04.07-1.74 2.35-1.25 1.7c-.18.22-.25.5-.25.79 0 .32.11.64.29.92.14.21.35.43.53.64l2.42 2.88c.07.07.07.07.14 0l.29-.35c.81-1 1.67-2 2.49-3 .24-.28.42-.67.46-1.1zm1.32 2.63c0-.25-.03-.46-.07-.71l-.21-.79c0-.03-.04-.07-.07-.1-.04.03-.07.03-.07.07-.07.1-.15.21-.22.28-.53.82-1.1 1.57-1.74 2.31-.35.43-.71.82-1.07 1.25-.2.21-.32.53-.28.85 0 .29.04.57.04.86 0 .03 0 .1.03.1.04 0 .07 0 .1-.03l2.32-1.67a2.96 2.96 0 001.24-2.42zm-5.5 3.27c0-.14 0-.25-.04-.4a1.2 1.2 0 00-.36-.56l-1.17-1.35a22.7 22.7 0 01-1.75-2.39l-.1-.1c-.04.03-.07.1-.1.14a3.87 3.87 0 00-.15 2.38c.18.64.6 1.18 1.14 1.57.53.39 1.06.78 1.6 1.14l.7.53c.04.03.08.03.12.03l.03-.07c.07-.35.07-.64.07-.92z" fill="#FFF"/><g fill="#FFF"><path d="M5.23 20.63h.21c.14 0 .21-.08.21-.22 0-.1-.07-.21-.2-.21h-.22v.43zm0-.72h.18c.1 0 .2-.07.2-.17 0-.11-.06-.18-.2-.18h-.18v.35zm-.6 1.07v-.21c.06-.04.1-.07.1-.14v-1.07c0-.07-.04-.1-.1-.14v-.22h.88c.14 0 .32 0 .46.07.15.08.22.22.22.4 0 .2-.1.35-.32.39.25.03.35.21.35.42 0 .15-.03.32-.17.4-.15.1-.36.1-.54.1h-.89zM7.04 20.38c-.1.03-.32.07-.32.17 0 .08.04.15.14.15.11 0 .11 0 .18-.04m.04.21a.76.76 0 01-.43.15c-.25 0-.4-.15-.4-.36 0-.25.15-.32.4-.39l.36-.1v-.11c0-.07-.08-.11-.15-.11-.1 0-.14.04-.14.1v.15H6.3v-.29c.18-.1.4-.2.64-.2.15 0 .29.03.4.1.14.1.14.25.14.39v.43c0 .07 0 .14.07.17l.03.18h-.46M16.14 20.63h.22c.14 0 .21-.08.21-.22 0-.1-.07-.21-.21-.21h-.22v.43zm0-.72h.18c.1 0 .22-.07.22-.17 0-.11-.08-.18-.22-.18h-.18v.35zm-.64 1.07v-.21c.08-.04.11-.07.11-.14v-1.07c0-.07-.03-.1-.1-.14v-.22h.88c.15 0 .32 0 .47.07.14.08.2.22.2.4 0 .2-.1.35-.31.39.25.03.35.21.35.42 0 .15-.03.32-.17.4-.15.1-.32.1-.5.1h-.93zM17.96 20.38c-.1.03-.32.07-.32.17 0 .08.03.15.14.15.1 0 .1 0 .18-.04v-.28zm0 .5a.76.76 0 01-.43.14c-.25 0-.39-.15-.39-.36 0-.25.14-.32.4-.39l.35-.1v-.11c0-.07-.07-.11-.15-.11-.1 0-.14.04-.14.1v.15h-.42v-.29c.17-.1.39-.2.64-.2.14 0 .28.03.39.1.14.1.14.25.14.39v.43c0 .07 0 .14.07.17l.04.18h-.5v-.1zM8.25 19.74c.14-.11.32-.11.4-.11.1 0 .2.04.24.07.1.07.1.18.1.29v.64c0 .07.04.14.11.17v.18h-.57c-.03-.14-.03-.28-.03-.39v-.46-.1c-.04-.04-.14-.08-.21-.04v.64c0 .07 0 .14.07.17v.18h-.68v-.18a.2.2 0 00.1-.17v-.57c0-.07-.03-.11-.1-.18v-.21h.57M19.17 19.74c.14-.11.32-.11.39-.11.1 0 .21.04.25.07.1.1.1.21.1.32v.6c0 .08.04.15.11.18v.18h-.57c-.03-.14-.03-.28-.03-.39v-.46-.1c-.04-.04-.15-.08-.22-.04v.64c0 .07 0 .14.07.17v.18h-.67v-.18a.2.2 0 00.1-.17v-.57c0-.07-.03-.11-.1-.18v-.21h.57M10 19.99c-.04 0-.11-.04-.15-.04-.18 0-.18.14-.18.21v.29c0 .07.04.21.18.21.04 0 .1 0 .14-.03v-.64zm.56-.15a.2.2 0 00-.1.18v.89c0 .14 0 .36-.11.46a.71.71 0 01-.46.14c-.25 0-.43-.07-.64-.17v-.25h.46v.1c0 .04.07.04.1.04.11 0 .15-.18.15-.25v-.07c-.11.07-.25.1-.36.1-.35 0-.46-.24-.46-.53v-.25c0-.28.03-.56.43-.56.14 0 .28.03.39.1v-.07h.57l.03.14zM11.17 20.1l.17-.15c.08-.07.08-.14.08-.25v-.03h.53v.17c-.04 0-.07.04-.1.07l-.33.25.32.43c.04.07.07.14.14.18v.21h-.46l-.35-.57v.22c0 .07.03.1.1.17v.18h-.67v-.18a.2.2 0 00.1-.17v-1.07c0-.07-.03-.1-.1-.18v-.18h.57M20.66 20.1l.18-.15c.07-.07.07-.14.07-.25v-.03h.53v.17c-.03 0-.07.04-.1.07l-.32.25.32.47c.03.07.07.14.14.17v.18h-.46l-.36-.57v.22c0 .07.04.1.1.17v.18h-.67v-.18a.2.2 0 00.1-.17v-1.07c0-.07-.03-.1-.1-.18v-.18h.57M13.94 20.1l.18-.15c.07-.07.07-.14.07-.25v-.03h.53v.17c-.03 0-.07.04-.1.07l-.32.25.32.43c.03.07.07.14.14.18v.21h-.46l-.36-.57v.22c0 .07.04.1.1.17v.18h-.67v-.18a.2.2 0 00.1-.17v-1.07c0-.07-.03-.1-.1-.18v-.18h.57M12.52 20.59c0 .07.07.18.14.18.1 0 .18-.1.18-.18v-.5c0-.07-.04-.18-.14-.18-.11 0-.18.11-.18.18v.5zm.82-.1c0 .14 0 .31-.15.38-.14.11-.32.11-.5.11-.14 0-.35 0-.5-.07-.17-.1-.17-.25-.17-.43v-.32c0-.14 0-.28.14-.39.14-.1.32-.1.5-.1.14 0 .4 0 .5.07.18.1.18.25.18.42v.32z"/></g></g></g></svg>