<?xml version="1.0" encoding="UTF-8"?><svg width="56" height="36" viewBox="0 0 56 36" xmlns="http://www.w3.org/2000/svg"><g fill="none" fill-rule="evenodd"><path d="M0 3.75A3.75 3.75 0 013.75 0h48.5A3.76 3.76 0 0156 3.75v28.5A3.75 3.75 0 0152.25 36H3.75A3.76 3.76 0 010 32.25V3.75z" fill="#000" fill-rule="nonzero"/><path d="M1.25 3.75v28.5a2.5 2.5 0 002.5 2.5h48.5a2.5 2.5 0 002.5-2.5V3.75a2.5 2.5 0 00-2.5-2.5H3.75a2.5 2.5 0 00-2.5 2.5z" fill="#FFF"/><g fill="#004B93" fill-rule="nonzero"><path d="M25.15 13.9l1.02-3.44 1.03 3.44h-2.05zm2.64-4.04c-.21-.62-.33-.76-.9-.76h-1.43l-2.29 7.53h1.17l.49-1.62h2.7l.5 1.62h2.02l-2.26-6.77zM14.07 15.63v-5.55h.96c.46 0 .86.38.86.85 0 .16-.03.31-.19.54l-.62.94c.65.16 1.09.66 1.09 1.6 0 1.13-.68 1.62-1.57 1.62h-.53zm2.42-3.58l.36-.55c.77-1.15.24-2.4-1.28-2.4h-3.25v7.54h3.13c2.76 0 3.58-3.25 1.04-4.6zM8.29 15.63h-.53v-5.55h.96c.46 0 .86.38.86.85 0 .16-.03.31-.19.54l-.62.94c.65.16 1.08.66 1.08 1.6 0 1.13-.67 1.62-1.56 1.62m1.88-3.58l.36-.55c.78-1.15.25-2.4-1.28-2.4H6v7.54h3.14c2.75 0 3.59-3.25 1.03-4.6M19.77 10.08c-.27-.85-.4-.99-.91-.99h-1.32l2.44 7.54h1.8l2.27-7.54h-1.18l-1.69 5.73-1.41-4.74zM6 9.1h3.14"/><g><path d="M6 27.95V20.4h2.17c.37 0 .72.04 1.03.12.31.08.6.22.82.42.15.13.28.29.37.49.13.25.2.56.2.92 0 .38-.1.7-.24.95-.15.25-.37.43-.61.57l-.16.08.36.15a1.59 1.59 0 01.86.9c.08.23.13.5.13.82 0 .4-.08.76-.24 1.06-.16.29-.4.52-.69.69-.18.11-.4.2-.64.26-.3.08-.65.12-1.03.12H6zm2.32-.73c.3 0 .58-.03.81-.1.24-.08.44-.19.6-.33.1-.1.18-.21.24-.35.09-.17.13-.39.13-.65 0-.3-.05-.53-.16-.72-.1-.2-.25-.34-.46-.45a1.84 1.84 0 00-.46-.17 3.42 3.42 0 00-.82-.09H6.8v2.86h1.52zm-.18-3.58c.26 0 .5-.03.72-.09.22-.06.4-.15.55-.27.1-.09.17-.19.23-.3.08-.17.13-.37.13-.62 0-.28-.06-.49-.16-.66a.99.99 0 00-.41-.37 1.47 1.47 0 00-.4-.15 3.2 3.2 0 00-.64-.06H6.8v2.52h1.33zM15.87 23.1a1.2 1.2 0 00-.29-.4 1.5 1.5 0 00-.65-.38 3.84 3.84 0 00-2.92.44c.29.62.6.47.99.3.3-.14.65-.19 1.02-.19.17 0 .35.04.54.08l.28.11a.8.8 0 01.29.32c.07.13.1.3.1.52v.81a5.7 5.7 0 00-2.17-.03c-.2.05-.38.12-.56.2-.25.14-.45.33-.6.57a1.92 1.92 0 00-.08 1.58c.14.31.38.56.67.72.3.17.65.25 1.05.25.46 0 .82-.09 1.13-.23.21-.1.4-.23.56-.39l.02.2a.47.47 0 00.13.26c.05.04.1.07.16.08.06.02.13.03.2.03H16v-4.08c0-.3-.05-.54-.14-.76zm-.64 3.44c-.2.23-.4.42-.64.56-.26.14-.57.23-.98.23-.17 0-.33-.02-.47-.07a1 1 0 01-.28-.12.82.82 0 01-.29-.33 1.24 1.24 0 01-.1-.55.91.91 0 01.32-.73c.12-.1.3-.18.5-.24.2-.05.44-.07.7-.07.46 0 .87.06 1.24.14v1.18zM21.02 27.95v-4.1c0-.23-.03-.4-.1-.53a.64.64 0 00-.22-.27.92.92 0 00-.23-.1 1.73 1.73 0 00-.39-.04c-.37 0-.74.1-1.1.27-.32.16-.64.36-.92.58v4.19h-.77v-5.67h.48a.3.3 0 01.11.04l.07.06a.3.3 0 01.06.1l.04.17V23c.27-.2.55-.37.87-.5.41-.18.86-.3 1.36-.3.22 0 .44.03.63.1.2.06.38.17.53.34.1.1.17.24.24.39.07.2.12.46.12.75v4.16h-.78zM28.8 27.55c-.42-.3-.74-.72-.92-1.25a3.63 3.63 0 01-.19-1.2c0-.65.15-1.22.42-1.68.27-.46.66-.8 1.14-1 .32-.14.67-.2 1.06-.2a2.46 2.46 0 012.43 1.7c.12.35.19.75.19 1.18 0 .66-.14 1.24-.42 1.7-.26.45-.65.8-1.13.99-.33.13-.68.2-1.07.2-.58 0-1.1-.16-1.51-.44zm.43-4.33c-.28.21-.5.52-.63.93-.09.28-.13.6-.13.96 0 .54.1.98.29 1.33.18.34.44.59.78.73.22.1.48.15.77.15.43 0 .8-.12 1.08-.33.28-.2.5-.52.63-.93.08-.27.12-.6.12-.95 0-.54-.1-.98-.28-1.33-.19-.35-.45-.6-.78-.75a1.9 1.9 0 00-.77-.14c-.44 0-.8.1-1.08.33zM40.73 27.95V23.8c0-.21-.02-.37-.07-.5a.59.59 0 00-.2-.26.8.8 0 00-.21-.1c-.1-.02-.23-.04-.38-.04-.36 0-.68.1-.98.26-.29.14-.56.34-.82.54v4.24h-.77V23.8c0-.21-.03-.37-.09-.5a.6.6 0 00-.2-.26.73.73 0 00-.2-.1 2.19 2.19 0 00-1.36.21h-.01c-.29.15-.56.35-.82.56v4.23h-.77v-5.67h.48c.04.01.08.02.12.05a.2.2 0 01.06.05l.07.1.03.17.01.3c.22-.15.47-.3.74-.44.37-.17.8-.3 1.27-.3.23 0 .45.04.66.13.2.08.4.22.53.41.06.08.1.17.14.27.25-.2.53-.38.84-.52.38-.17.8-.28 1.25-.28.22 0 .43.03.62.1a1.2 1.2 0 01.72.7c.08.18.11.4.11.65v4.28h-.77zM27.13 22.8c-.3.62-.57.42-.96.25a2.15 2.15 0 00-.85-.15c-.43 0-.8.1-1.08.32-.3.21-.52.52-.65.93-.1.27-.14.59-.14.94 0 .4.06.77.16 1.06.11.3.27.54.46.72.14.12.29.22.46.3.23.09.49.14.79.14.4 0 .7-.1.93-.2.38-.2.64-.43.98.16a2.61 2.61 0 01-1.94.72c-.6 0-1.13-.16-1.55-.45-.42-.3-.72-.72-.9-1.26a3.83 3.83 0 01-.18-1.19c0-.66.15-1.23.43-1.69.28-.45.68-.8 1.17-1 .32-.12.68-.18 1.07-.18.22 0 1.01-.06 1.8.58zM47.04 23.7a1.98 1.98 0 00-1.11-1.29 2.74 2.74 0 00-2.05.01c-.45.2-.84.55-1.1 1.02-.26.46-.4 1.03-.4 1.69 0 .42.05.82.17 1.17.17.53.47.95.89 1.24.41.3.95.45 1.57.45.5 0 .9-.08 1.24-.2.53-.2.8-.45.93-.6-.36-.52-.56-.31-.98-.12a2.89 2.89 0 01-1.97.1 1.47 1.47 0 01-.46-.29c-.2-.17-.35-.4-.45-.7a3 3 0 01-.16-.92h4.04v-.13-.03-.23c0-.45-.05-.84-.16-1.17zm-3.86.9c.04-.26.1-.49.18-.69.15-.35.35-.6.6-.78a1.89 1.89 0 011.55-.16c.14.05.26.12.37.22.17.14.3.32.4.58.07.22.13.5.15.83h-3.25zM50.5 22.24a2 2 0 00-1.08.32c-.2.13-.38.28-.54.44 0-.13 0-.24-.02-.33a.67.67 0 00-.03-.17.4.4 0 00-.06-.11.37.37 0 00-.07-.06.28.28 0 00-.12-.04l-.1-.01h-.38v5.67h.78v-4.07c.27-.32.52-.53.7-.64.32-.2.57-.26.77-.28.36-.04.6-.08.64-.65a1.76 1.76 0 00-.49-.07z"/></g></g></g></svg>