<?xml version="1.0" encoding="UTF-8"?><svg width="56" height="36" viewBox="0 0 56 36" xmlns="http://www.w3.org/2000/svg"><g fill="none" fill-rule="evenodd"><path d="M0 3.75A3.75 3.75 0 013.75 0h48.5A3.76 3.76 0 0156 3.75v28.5A3.75 3.75 0 0152.25 36H3.75A3.76 3.76 0 010 32.25V3.75z" fill="#000" fill-rule="nonzero"/><path d="M1.25 3.75v28.5a2.5 2.5 0 002.5 2.5h48.5a2.5 2.5 0 002.5-2.5V3.75a2.5 2.5 0 00-2.5-2.5H3.75a2.5 2.5 0 00-2.5 2.5z" fill="#FFF"/><g fill="#00539B" fill-rule="nonzero"><path d="M32.88 7.06H31.1l-2.82 9.11h1.44l.6-1.96h3.36l.6 1.96h2.5L34 8c-.25-.75-.39-.93-1.11-.93zm-2.14 5.81L32 8.71l1.28 4.16h-2.54zM20.02 10.63l.45-.66c.95-1.4.3-2.9-1.59-2.9h-4.02v9.1h3.88c3.41 0 4.43-3.92 1.28-5.54zm-2.33 4.33h-.66V8.25h1.19c.57 0 1.06.46 1.06 1.03 0 .2-.04.38-.23.66l-.77 1.13c.8.2 1.34.8 1.34 1.93 0 1.37-.83 1.96-1.93 1.96zM12.2 10.63l.46-.66c.95-1.4.3-2.9-1.6-2.9H7.06v9.1h3.88c3.4 0 4.44-3.92 1.28-5.54zm-2.32 4.33h-.65V8.25h1.18c.57 0 1.07.46 1.07 1.03 0 .2-.04.38-.24.66l-.77 1.13c.8.2 1.34.8 1.34 1.93 0 1.37-.83 1.96-1.93 1.96zM27.91 7.06l-2.08 6.92-1.75-5.73c-.33-1.03-.5-1.19-1.13-1.19h-1.63l3.02 9.11h2.22l2.81-9.1h-1.46z"/><g><path d="M7.05 29.88h1v-4.03h3.43v-.87H8.05v-3.33h4.63v-.88H7.05zM42.35 23.94a2.44 2.44 0 00-.97-.76 3.46 3.46 0 00-2.54.01c-.56.25-1.03.67-1.35 1.23-.33.56-.5 1.26-.5 2.05 0 .52.06 1 .2 1.42.22.64.59 1.15 1.1 1.5.52.36 1.18.55 1.96.55.62 0 1.12-.1 1.53-.25.66-.24 1-.54 1.16-.71-.45-.65-.7-.4-1.22-.15a3.64 3.64 0 01-2.44.1c-.22-.08-.41-.2-.58-.33a1.95 1.95 0 01-.55-.85 3.57 3.57 0 01-.2-1.12h5v-.16-.04l.02-.27c0-.54-.07-1.01-.21-1.42-.1-.3-.24-.57-.41-.8zm-4.37 1.89c.05-.31.12-.59.22-.83.18-.43.44-.74.75-.95a2.4 2.4 0 011.92-.2c.17.07.32.16.46.27.2.17.36.4.48.7.1.28.17.6.2 1.01h-4.03zM14.95 23.36c-.25.15-.48.34-.68.53a2.85 2.85 0 00-.06-.6.46.46 0 00-.07-.14.42.42 0 00-.08-.07.35.35 0 00-.15-.05l-.14-.01h-.46v6.87h.96v-4.93c.34-.4.65-.64.87-.77l.02-.01c.39-.25.7-.31.94-.34.45-.04.75-.1.79-.78a2.25 2.25 0 00-.6-.09c-.5 0-.96.16-1.34.4zM46.65 25.89c-1.37-.23-1.6-.52-1.6-1.1 0-.7.49-1.03 1.48-1.03.82 0 1.1.21 1.35.32.25.12.46.14.72-.17l.1-.14a1.75 1.75 0 00-.1-.11c-.85-.73-1.7-.71-2.08-.71-1.47 0-2.39.72-2.39 1.89 0 1.38 1.18 1.74 2.21 1.9 1.4.22 1.65.55 1.65 1.14 0 .84-.54 1.25-1.65 1.25-.5 0-.9-.1-1.2-.24-.45-.21-.7-.43-1.07-.05l-.16.2c.04.06.1.1.16.17a2.83 2.83 0 001.07.57c.33.1.73.16 1.23.16 1.65 0 2.56-.75 2.56-2.11 0-1.4-1.1-1.76-2.28-1.94zM22.17 23.52c-.21-.2-.49-.36-.81-.45a4.83 4.83 0 00-3.61.53c.36.75.73.57 1.22.36.38-.16.81-.22 1.27-.22.2 0 .44.04.66.09.13.03.25.08.35.14a1 1 0 01.36.38c.08.16.13.36.13.63v.98a7.19 7.19 0 00-2.69-.04c-.25.06-.47.14-.69.25-.3.17-.56.4-.74.68a2.27 2.27 0 00-.1 1.91c.17.38.46.68.83.88.37.2.8.3 1.3.3.56 0 1-.11 1.4-.29.25-.12.48-.28.69-.46l.02.23a.54.54 0 00.16.32c.06.05.13.09.2.1.07.02.15.03.24.03h.34v-4.93c0-.35-.06-.65-.18-.92-.08-.2-.2-.36-.35-.5zm-.43 4.64c-.24.28-.5.52-.8.68-.32.17-.7.28-1.21.28-.2 0-.4-.03-.58-.08a1.23 1.23 0 01-.34-.15 1 1 0 01-.36-.4c-.09-.17-.14-.4-.14-.66a1.08 1.08 0 01.4-.88c.16-.13.37-.22.63-.29.25-.06.54-.1.86-.1.57 0 1.07.08 1.54.18v1.42zM29.41 23.46c-.17-.2-.4-.33-.64-.4-.25-.08-.51-.11-.79-.11a4.3 4.3 0 00-1.68.34c-.4.17-.75.38-1.07.61v-.07l-.01-.36c0-.08-.03-.14-.05-.2a.38.38 0 00-.16-.2.4.4 0 00-.14-.04l-.14-.01h-.45v6.85h.95V24.8c.35-.26.75-.5 1.16-.7.43-.2.88-.32 1.34-.32.18 0 .35.01.5.05.1.02.19.06.27.1.12.09.21.19.28.34.07.15.11.36.11.64v4.95h.97v-5.02c0-.36-.05-.66-.15-.91a1.64 1.64 0 00-.3-.48zM35.36 28.85a2.6 2.6 0 01-1.15.25c-.37 0-.7-.06-.98-.18-.2-.09-.4-.2-.56-.35-.24-.22-.43-.5-.57-.87-.13-.36-.2-.79-.2-1.28 0-.43.06-.8.17-1.14.17-.49.44-.87.8-1.12.37-.26.82-.4 1.34-.4.45 0 .8.08 1.05.19.5.2.83.45 1.2-.3-.98-.78-1.96-.69-2.24-.7-.48 0-.93.08-1.32.23-.6.24-1.1.65-1.44 1.2a4.5 4.5 0 00-.31 3.48c.21.65.6 1.16 1.11 1.52a3.84 3.84 0 003.39.27l.14-.07c.31-.14.6-.36.78-.53-.41-.72-.73-.44-1.2-.2zM39.55 21.88l.13.17v.01l.2.18 2.1-1.94c-.5-.39-.8-.4-1.1-.22a1.57 1.57 0 00-.27.23l-.85.94-.09.1-.01.01-.08.1a.43.43 0 00-.07.16v.1c0 .06.02.11.04.16z"/></g></g></g></svg>