<?xml version="1.0" encoding="UTF-8"?><svg width="56" height="36" viewBox="0 0 56 36" xmlns="http://www.w3.org/2000/svg"><g fill="none" fill-rule="evenodd"><path d="M0 3.75A3.75 3.75 0 013.75 0h48.5A3.76 3.76 0 0156 3.75v28.5A3.75 3.75 0 0152.25 36H3.75A3.76 3.76 0 010 32.25V3.75z" fill="#000" fill-rule="nonzero"/><path d="M1.25 3.75v28.5a2.5 2.5 0 002.5 2.5h48.5a2.5 2.5 0 002.5-2.5V3.75a2.5 2.5 0 00-2.5-2.5H3.75a2.5 2.5 0 00-2.5 2.5z" fill="#FFF"/><g fill-rule="nonzero"><path d="M26 16.95c0 .34.05.54.14.61.1.08.35.11.77.11h.38c2.65 0 3.97-.93 3.97-2.78 0-1.98-1.19-2.97-3.57-2.97a3 3 0 00-1.28.18c-.27.15-.4.47-.4.95v3.9zm5.2.88c2.55.43 3.83 1.77 3.83 4.01 0 1.3-.51 2.33-1.52 3.1a6.26 6.26 0 01-3.94 1.18l-6.23.02V11.08c.78 0 2.67.08 3.69.07 5.45-.07 7.03 1.2 7.03 3.6 0 1.5-.95 2.53-2.86 3.08zm-4.82.6c-.25 0-.37.1-.37.29v4.8c0 1.17.79 1.76 2.36 1.76 1.26 0 2.21-.36 2.87-1.07.58-.62.87-1.46.87-2.5 0-1.02-.34-1.82-1.01-2.4-.68-.6-1.65-.89-2.91-.89h-1.81zM41.22 16.49c.68 0 1.34.09 1.96.26.82.24 1.24.58 1.24 1.01 0 1.13-.25 1.7-.74 1.7-.25 0-.5-.2-.75-.62l-.13-.24c-.6-1.05-1.22-1.57-1.86-1.57-.97 0-1.73.53-2.28 1.58-.41.8-.62 1.64-.62 2.5 0 1.07.27 1.98.82 2.73.69.94 1.68 1.4 3 1.4.37 0 .89-.14 1.55-.43.65-.3.94-.44.85-.44.24 0 .36.1.36.27 0 .47-.5.9-1.52 1.27a6.7 6.7 0 01-2.35.5 5 5 0 01-3.91-1.56c-.82-.9-1.23-2-1.23-3.33 0-1.4.46-2.55 1.39-3.48a5.67 5.67 0 014.22-1.55M45.4 26.16h2.2l-.02-9.07s-.4-.01-1.05-.06l-1.13-.08v9.21z" fill="#000"/><path d="M8.7 24.1a4.5 4.5 0 011.37-1.92s.78-.58 1.3-.93c.51-.36 1.31-.87 1.31-.87s1.68-1.01 2.07-1.28l.77.1s.71.04.9-.37c.2-.41-.39-.51-.39-.51l-.13-.03c.24-.18.5-.38.74-.6.8-.69 1.44-2.24 1.44-2.24L18.7 14s.45-.9 1.33-.75c1.15.2 1.08 1.45 1.08 1.45-.28 2-1.82 3.2-2.36 3.54-.87.55-4.12 2.45-4.12 2.45s-1.77 1.15-2.9 2.33c-1.13 1.18-1.27 1.69-1.6 2.33-.33.64-.37.76-.8.8H9.3c-.43 0-.93-.89-.6-2.05" fill="#F7323F"/><path d="M19.56 24.52c-.41-.32-.29-.89-.29-.89s.03-.51-.08-1.1c-.11-.6-.26-.92-.26-.92s-.07-.34-.56-.63c-.48-.3-.96-.37-1.07-.75-.1-.37.13-.65.5-.78s1.06-.2 1.75.33 1.04 1.76 1.04 1.76.4 1.02.42 1.48c0 0 .2.65-.2 1.15 0 0-.3.37-.68.47a.63.63 0 01-.57-.12" fill="#00953A"/><path d="M16.1 19.69l-.47-.2c-1.22-.56-1.78-1.03-1.78-1.03s-1.76-1.22-2.17-3.12c-.44-1.5.5-3.65.5-3.65s.33-1.4 1.86-1.02c1.54.37.86 1.9.86 1.9a26.4 26.4 0 00-.65 2.81c-.15 2.31 1.66 2.85 1.66 2.85l1.05.5s.62.3.26.76c-.3.39-.91.26-1.08.21l-.05-.01" fill="#0071CE"/><path d="M11.44 25.81s-.31-.24.05-1.07c.47-1.11 1.58-2.04 1.58-2.04s2.62-1.66 3.28-1.9c.65-.22 1.05.05 1.05.05s.99.68 1.04 2.17c.06 1.48-.96 2.02-.96 2.02s-.96.72-3.37.94c-1.18.21-1.84.2-2.21.13-.46-.1-.46-.3-.46-.3" fill="gold"/><path d="M45.36 15.2c0-.68.48-1.23 1.07-1.23.59 0 1.06.55 1.06 1.22 0 .68-.47 1.22-1.06 1.22-.59 0-1.07-.54-1.07-1.22" fill="#000"/></g></g></svg>