<?xml version="1.0" encoding="UTF-8"?><svg width="56" height="36" viewBox="0 0 56 36" xmlns="http://www.w3.org/2000/svg"><g fill="none" fill-rule="evenodd"><path d="M0 3.75A3.749 3.749 0 013.75 0h48.5A3.756 3.756 0 0156 3.75v28.5A3.749 3.749 0 0152.25 36H3.75A3.756 3.756 0 010 32.25V3.75z" fill="#000" fill-rule="nonzero"/><path d="M1.25 3.75v28.5c0 1.375 1.123 2.5 2.5 2.5h48.5c1.382 0 2.5-1.118 2.5-2.5V3.75c0-1.375-1.123-2.5-2.5-2.5H3.75a2.499 2.499 0 00-2.5 2.5z" fill="#FFF"/><g fill-rule="nonzero"><path d="M20.755 17.478c1.123.374 1.761 1.022 1.842 2.146.091 1.246-.445 2.177-1.448 2.865-.577.405-1.235.648-1.923.77a11.378 11.378 0 01-3.929.04c-1.316-.212-1.893-1.012-1.61-2.328.588-2.714 1.215-5.427 1.833-8.13.05-.213.111-.375.385-.395 1.478-.132 2.946-.355 4.434-.102.547.091 1.074.223 1.56.466 1.68.83 1.852 2.835.364 3.959-.425.314-.901.516-1.509.709zm-3.868 1.032c-.193.881-.375 1.691-.557 2.491-.071.304-.03.547.334.567.85.04 1.701 0 2.46-.445.578-.335.82-.861.74-1.53-.081-.637-.537-.89-1.094-1.062-.618-.183-1.215.121-1.883-.02zm1.873-4.424c-.263.172-.76-.243-.921.304-.173.607-.294 1.235-.436 1.863-.05.212.02.405.253.415.912.05 1.823.06 2.562-.588.719-.627.496-1.6-.415-1.893-.324-.091-.658-.091-1.043-.101zM42.736 14.238c-.517-1.418-1.823-1.752-3.16-1.884-1.234-.121-2.48-.06-3.715.081-.425.051-.638.213-.74.658-.728 3.321-1.487 6.642-2.227 9.963-.03.122-.09.254.071.405h.972c1.236 0 1.6-.293 1.873-1.488.162-.709.324-1.427.476-2.116.253-.091.456-.02.658-.01 1.782.06 3.473-.233 4.78-1.57 1.113-1.133 1.579-2.51 1.012-4.04zm-2.228 1.772c-.243 1.154-1.235 1.873-2.602 1.883-.89 0-.972-.102-.78-1.003.163-.739.335-1.468.466-2.207.061-.364.243-.506.598-.506.374-.01.749-.03 1.124.04.972.183 1.397.82 1.194 1.792zM32.742 12.547c-2.338-.85-4.586-.699-6.52.972-1.853 1.6-2.44 3.726-2.207 6.115.131 1.367.709 2.511 1.934 3.21 1.559.89 3.23.921 4.91.425.375-.111.658-.375.76-.77.151-.597.283-1.194.435-1.873-.526.284-.952.547-1.438.7-1.529.475-3.057-.112-3.594-1.388-.74-1.762.314-4.536 2.065-5.346 1.438-.658 2.825-.365 4.212.405.081-.304.162-.577.233-.85.203-.84.03-1.297-.79-1.6z" fill="#004192"/><path d="M9.253 13.377a8.174 8.174 0 013.29 2.997c.496.8.436 1.68-.121 2.45-1.145 1.6-2.663 2.775-4.425 3.585-1.185.546-2.49-.092-2.997-1.377.709-.375 1.417-.76 2.065-1.236.972-.708 1.813-1.529 2.228-2.693.567-1.245.618-2.49-.04-3.726zM47.221 13.377a8.267 8.267 0 013.301 2.997c.496.78.456 1.64-.081 2.4-1.154 1.64-2.703 2.835-4.506 3.655-1.174.526-2.45-.122-2.946-1.377.668-.365 1.347-.73 1.964-1.185 1.003-.729 1.894-1.56 2.319-2.764.577-1.255.617-2.5-.05-3.726z" fill="#F96A53"/><path d="M9.253 13.377c.658 1.235.597 2.47.03 3.716-.86-.932-1.934-1.57-3.068-2.076.597-1.61 1.954-2.318 3.038-1.64zM47.221 13.377c.669 1.235.628 2.47.04 3.726-.85-.931-1.913-1.56-3.108-2.096.395-.89.962-1.539 1.853-1.873.456-.182.85-.05 1.215.243z" fill="#004192"/></g></g></svg>