<?xml version="1.0" encoding="UTF-8"?><svg width="56" height="36" viewBox="0 0 56 36" xmlns="http://www.w3.org/2000/svg"><defs><linearGradient x1="0%" y1="50%" x2="100%" y2="50%" id="a"><stop stop-color="#8DBE3F" offset="0%"/><stop stop-color="#93C03D" offset="29%"/><stop stop-color="#9CC23B" offset="51%"/><stop stop-color="#99C13C" offset="55%"/><stop stop-color="#90BF3E" offset="73%"/><stop stop-color="#8DBE3F" offset="100%"/></linearGradient></defs><g fill="none" fill-rule="evenodd"><path d="M0 3.75A3.75 3.75 0 013.75 0h48.5A3.76 3.76 0 0156 3.75v28.5A3.75 3.75 0 0152.25 36H3.75A3.76 3.76 0 010 32.25V3.75z" fill="#000" fill-rule="nonzero"/><path d="M1.25 3.75v28.5a2.5 2.5 0 002.5 2.5h48.5a2.5 2.5 0 002.5-2.5V3.75a2.5 2.5 0 00-2.5-2.5H3.75a2.5 2.5 0 00-2.5 2.5z" fill="#FFF"/><g transform="translate(16 6)" fill-rule="nonzero"><rect fill="url(#a)" width="24" height="24" rx="4.22"/><path d="M5.2 3.81l-.05.4c0 .04.08.04.1 0l.05-.4h.26l-.04.37a.25.25 0 01-.18.17H5.2c-.07 0-.14 0-.2-.02a.14.14 0 01-.1-.11l.05-.4h.25zM6.56 4.14c0 .03 0 .06.04.06s.03-.04.04-.08l.02-.14v-.05s.05 0 .05-.05v-.13h.26l-.02.11c0 .03-.02.05-.05.06h-.07.06c.03.01.04.03.03.06l-.04.25c0 .06-.07.1-.2.1h-.13a.4.4 0 01-.09 0c-.1 0-.19-.07-.17-.18l.03-.17a.23.23 0 01.09-.1s0-.03-.06-.04v-.05H6.65a.3.3 0 010 .08c-.03.06-.06.05-.07.1l-.02.17zM5.93 4.36l.04-.4c0-.04-.08-.05-.09 0l-.05.4h-.27l.05-.37c.03-.09.1-.15.18-.17h.14c.07 0 .14 0 .2.02.06.01.1.06.1.11l-.03.4h-.27zM19.13 5.55l-.79 5.83s-1.21-1.43-2.7-1.58c-1.63-.14-3.67 1.31-3.82 3.15-.18 2.1 2.29 2.91 2.8 2.9 1.6-.05 3.24-1.46 3.24-1.46l-.97 5.76c-1.93.61-3.97.75-5.96.4-3.15-.64-5.7-4.23-4.48-8.66 1.3-4.7 6.3-8.43 12.68-6.34z" fill="#FFF"/><path d="M18.7 5.24l-.78 5.83s-1.21-1.43-2.7-1.58c-1.63-.15-3.67 1.31-3.83 3.15-.17 2.1 2.3 2.9 2.8 2.9 1.6-.05 3.25-1.46 3.25-1.46l-.97 5.76c-1.93.61-3.98.75-5.97.4-3.15-.64-5.7-4.23-4.47-8.66 1.3-4.7 6.3-8.43 12.67-6.34z" fill="#ED1D24"/><path d="M8.14 7.56c0 .79-.76 1.09-1.28 1.09H5.11L5.6 5.1h1.6c.7 0 1.02.28.99.89a.9.9 0 01-.54.81c.3.12.5.42.5.75zm-1.06-1.4c0-.1-.02-.2-.13-.2H6.6l-.07.52h.28c.13 0 .24-.18.27-.31zm-.05 1.32c.03-.23-.2-.25-.27-.25H6.4l-.08.56h.32c.19 0 .35-.13.38-.31zM8.47 8.65l.3-2.48h1.08l-.3 2.48zM11.22 9.84c-.42 0-.85-.07-1.25-.2l.35-.83c.2.16.45.26.7.27.5 0 .72-.29.8-.81a.98.98 0 01-.8.43c-.6 0-.86-.68-.83-1.18.05-.67.58-1.42 1.18-1.42.17 0 .34.04.48.14.1.1.18.2.24.31l.03-.42h1.08l-.3 2.33c-.1.83-.84 1.44-1.68 1.38zm.7-2.47c0-.26-.13-.34-.23-.34a.4.4 0 00-.37.35c-.03.22.06.35.24.34a.4.4 0 00.37-.36zM10.06 5.4a.72.72 0 01-.72.58.53.53 0 01-.57-.58c.06-.35.37-.6.72-.59a.53.53 0 01.57.59z" fill="#1E1917"/><path d="M7.9 7.17c0 .79-.75 1.09-1.27 1.09H4.87l.48-3.54h1.6c.7 0 1.01.28.99.89a.9.9 0 01-.54.81c.31.12.51.42.5.75zM6.83 5.78c0-.1-.02-.2-.13-.2h-.35l-.05.52h.27c.12 0 .25-.17.26-.32zm-.03 1.3c.03-.22-.2-.25-.27-.25h-.35l-.08.56h.32c.19.01.35-.12.38-.3zM8.23 8.26l.31-2.48h1.08l-.31 2.48zM10.99 9.44c-.43 0-.85-.06-1.25-.2l.34-.82c.2.16.45.25.71.26.49 0 .72-.28.79-.8a.98.98 0 01-.79.43c-.6 0-.86-.69-.83-1.18.05-.67.58-1.42 1.18-1.42.17-.01.34.04.48.14.1.09.17.2.23.3l.04-.41h1.08l-.3 2.32c-.1.84-.84 1.45-1.68 1.38zm.7-2.47c0-.26-.13-.33-.24-.33a.4.4 0 00-.36.34c-.03.23.06.35.24.35a.4.4 0 00.36-.35zM9.84 5.01a.72.72 0 01-.72.59.53.53 0 01-.57-.59c.06-.34.36-.59.72-.58a.53.53 0 01.57.58z" fill="#FD0"/></g></g></svg>