<?xml version="1.0" encoding="UTF-8"?><svg width="56" height="36" viewBox="0 0 56 36" xmlns="http://www.w3.org/2000/svg"><g fill="none" fill-rule="evenodd"><path d="M0 3.75A3.75 3.75 0 013.75 0h48.5A3.76 3.76 0 0156 3.75v28.5A3.75 3.75 0 0152.25 36H3.75A3.76 3.76 0 010 32.25V3.75z" fill="#000" fill-rule="nonzero"/><path d="M1.25 3.75v28.5a2.5 2.5 0 002.5 2.5h48.5a2.5 2.5 0 002.5-2.5V3.75a2.5 2.5 0 00-2.5-2.5H3.75a2.5 2.5 0 00-2.5 2.5z" fill="#FFF"/><g><g fill-rule="nonzero"><path d="M26.52 15.2a5.02 5.02 0 00-5-3.07 4.78 4.78 0 00-3.43 1.86V7.2h-3.26v17.74h3.26v-8.24c.39-.6.84-1.16 1.4-1.65a2.76 2.76 0 013.43-.06c1.3 1.05 1.57 3.19 1.3 4.9a3.71 3.71 0 01-3.1 3.12 5.4 5.4 0 01-2.47-.05 3.21 3.21 0 001.85 1.76c.9.33 3.1.16 4.55-1.05 1.35-1.15 1.86-2.14 2.14-4.06a8.96 8.96 0 00-.67-4.4zM30.06 12.79h3.2v9.12s-.06 1.26.17 1.59c.17.22.45.33.73.38a2.62 2.62 0 01-2.53 1.21c-1.35-.1-1.52-1.15-1.52-2.03l-.05-10.27zM36.86 12.79h3.2v9.12s-.06 1.26.17 1.59c.17.22.45.33.73.38a2.62 2.62 0 01-2.53 1.21c-1.35-.1-1.52-1.15-1.52-2.03l-.05-10.27c.05.05 0 0 0 0z" fill="#623D39"/><path d="M31.8 9.93V8.89h2.42a2.4 2.4 0 00-2.93-1.82 2.35 2.35 0 00-1.85 2.86c.34 1.26 1.63 2.14 2.92 1.81a2.39 2.39 0 001.86-1.81H31.8zM38.37 7.02c-1.18 0-2.19.77-2.41 1.87h2.36v1.04h-2.36a2.4 2.4 0 002.92 1.81c1.3-.33 2.2-1.6 1.86-2.85-.17-1.1-1.18-1.87-2.37-1.87z" fill="#ED1B2E"/></g><path d="M13.78 27.77c.09 0 .16-.01.21-.04.08-.04.12-.11.12-.22 0-.1-.04-.17-.12-.2a.58.58 0 00-.22-.04h-.39v.5h.4zm.07.74c.14 0 .23-.03.29-.11a.3.3 0 00.05-.18c0-.12-.05-.2-.16-.24a.6.6 0 00-.22-.03h-.43v.56h.47zm-.68-1.42h.69c.19 0 .32.05.4.17a.4.4 0 01.07.23c0 .1-.03.18-.08.25a.42.42 0 01-.13.1c.08.02.14.06.18.1.07.07.11.17.11.29 0 .1-.03.2-.1.28-.1.13-.25.2-.46.2h-.68v-1.62zm1.63 1.3c0 .06.02.1.06.13.04.04.1.05.15.05.07 0 .13-.01.2-.05a.27.27 0 00.16-.26v-.16a.34.34 0 01-.09.04.8.8 0 01-.11.02l-.12.02a.46.46 0 00-.16.04c-.06.04-.1.1-.1.17zm.48-.4c.04 0 .07-.03.09-.06l.01-.07c0-.07-.02-.12-.07-.15a.39.39 0 00-.2-.05c-.11 0-.18.03-.23.09a.27.27 0 00-.04.13h-.19c0-.14.05-.24.14-.3.1-.06.2-.08.32-.08.13 0 .25.02.33.08.09.05.13.13.13.24v.68l.01.05.06.02a.3.3 0 00.06-.01v.15a.55.55 0 01-.07.01h-.06c-.07 0-.12-.02-.15-.07a.28.28 0 01-.04-.1.54.54 0 01-.42.2c-.1 0-.2-.04-.27-.1a.33.33 0 01-.1-.26c0-.1.03-.2.1-.25.07-.06.16-.1.27-.11l.32-.04zm.62-.47h.18v.17a.53.53 0 01.18-.15.47.47 0 01.2-.04c.18 0 .29.06.35.17.03.07.05.16.05.28v.75h-.2v-.74a.4.4 0 00-.04-.17c-.03-.08-.1-.11-.19-.11l-.11.01a.3.3 0 00-.15.1.3.3 0 00-.06.12.81.81 0 00-.02.17v.62h-.2v-1.18zm1.24-.43h.2v.93l.5-.5h.25l-.45.45.48.73h-.25l-.37-.6-.17.16v.44h-.19V27.1zm1.83 0h.22v1.61h-.22V27.1zm.55.43h.19v.17a.53.53 0 01.18-.15.47.47 0 01.2-.04c.17 0 .28.06.34.17.03.07.05.16.05.28v.75h-.2v-.74a.4.4 0 00-.03-.17c-.04-.08-.1-.11-.2-.11l-.1.01a.3.3 0 00-.15.1.3.3 0 00-.07.12.81.81 0 00-.01.17v.62h-.2v-1.18zm1.3-.32h.2v.32h.18v.17h-.19v.76c0 .04.02.07.04.09h.08a.93.93 0 00.07 0v.16a.67.67 0 01-.15.02c-.1 0-.16-.02-.19-.07a.31.31 0 01-.05-.19v-.77h-.16v-.17h.16v-.32zm1.07.3a.54.54 0 01.42.2c.04.07.07.14.08.22l.02.26h-.87c0 .12.04.21.09.28.05.08.13.11.24.11a.32.32 0 00.33-.24h.19a.51.51 0 01-.15.27.46.46 0 01-.22.13.68.68 0 01-.16.01.5.5 0 01-.38-.16.62.62 0 01-.15-.44c0-.2.05-.35.16-.46a.5.5 0 01.4-.18zm.31.52a.51.51 0 00-.05-.2c-.06-.1-.15-.15-.27-.15a.3.3 0 00-.23.1.37.37 0 00-.1.25h.65zm.45-.5h.2v.2a.45.45 0 01.1-.14.3.3 0 01.23-.08h.05v.21a.3.3 0 00-.07 0c-.1 0-.17.03-.23.1a.34.34 0 00-.08.21v.68h-.2v-1.18zm.75 0h.19v.17a.53.53 0 01.17-.15.47.47 0 01.21-.04c.17 0 .28.06.34.17.03.07.05.16.05.28v.75h-.2v-.74a.4.4 0 00-.04-.17c-.03-.08-.1-.11-.19-.11l-.11.01a.3.3 0 00-.15.1.3.3 0 00-.06.12.81.81 0 00-.01.17v.62h-.2v-1.18zm1.4.87c0 .06.02.1.06.13.04.04.1.05.15.05.07 0 .14-.01.2-.05a.27.27 0 00.17-.26v-.16a.34.34 0 01-.1.04.8.8 0 01-.1.02l-.13.02a.46.46 0 00-.16.04c-.06.04-.09.1-.09.17zm.48-.4c.04 0 .08-.03.09-.06l.01-.07c0-.07-.02-.12-.07-.15a.39.39 0 00-.2-.05c-.1 0-.18.03-.22.09a.27.27 0 00-.05.13h-.19c0-.14.05-.24.15-.3.09-.06.2-.08.31-.08.14 0 .25.02.34.08.08.05.13.13.13.24V28.55l.06.02a.3.3 0 00.07-.01v.15a.55.55 0 01-.07.01h-.07c-.07 0-.12-.02-.15-.07a.28.28 0 01-.03-.1.54.54 0 01-.42.2c-.11 0-.2-.04-.27-.1a.33.33 0 01-.1-.26c0-.1.03-.2.1-.25.06-.06.15-.1.26-.11l.32-.04zm.74.34c0 .07.02.12.05.15.05.07.13.1.26.1.07 0 .13-.02.19-.05a.16.16 0 00.08-.15.13.13 0 00-.06-.11.8.8 0 00-.17-.06l-.16-.04a.77.77 0 01-.22-.08.25.25 0 01-.13-.22c0-.11.04-.2.12-.27.08-.07.19-.1.32-.1.18 0 .3.05.39.15.05.07.07.14.07.21h-.19a.23.23 0 00-.05-.12c-.04-.05-.12-.08-.23-.08a.28.28 0 00-.17.05.13.13 0 00-.06.1c0 .06.03.1.08.13.03.02.07.04.13.05l.13.03c.14.04.23.07.28.1.08.05.12.13.12.24 0 .1-.04.2-.12.27-.08.08-.2.12-.36.12-.18 0-.3-.04-.38-.12a.45.45 0 01-.11-.3h.19zm1-.8h.2v1.17h-.2v-1.17zm0-.44h.2v.22h-.2v-.22zm.97 1.48c.13 0 .22-.05.27-.15.05-.1.07-.2.07-.33 0-.1-.01-.2-.05-.26-.05-.11-.15-.17-.29-.17-.12 0-.2.05-.26.14-.06.1-.08.2-.08.34 0 .12.02.22.08.3.05.1.14.13.26.13zm0-1.08c.16 0 .29.05.4.15.1.1.15.25.15.45 0 .19-.05.34-.14.47-.09.12-.23.18-.43.18a.48.48 0 01-.38-.16.65.65 0 01-.15-.44c0-.2.05-.36.15-.47a.5.5 0 01.4-.18zm.79.03h.18v.17a.53.53 0 01.18-.15.47.47 0 01.2-.04c.17 0 .29.06.35.17.03.07.04.16.04.28v.75h-.2v-.74a.4.4 0 00-.03-.17c-.03-.08-.1-.11-.19-.11l-.12.01a.3.3 0 00-.14.1.3.3 0 00-.06.12.81.81 0 00-.02.17v.62h-.2v-1.18zm1.4.87c0 .06.02.1.06.13.04.04.1.05.15.05.07 0 .14-.01.2-.05a.27.27 0 00.17-.26v-.16a.34.34 0 01-.1.04.8.8 0 01-.11.02l-.12.02a.46.46 0 00-.16.04c-.06.04-.1.1-.1.17zm.48-.4c.04 0 .07-.03.09-.06l.01-.07c0-.07-.02-.12-.07-.15a.39.39 0 00-.2-.05c-.11 0-.18.03-.23.09a.27.27 0 00-.04.13h-.19c0-.14.05-.24.14-.3.1-.06.2-.08.32-.08.14 0 .25.02.33.08.09.05.13.13.13.24v.68c0 .02 0 .04.02.05 0 .01.02.02.05.02a.3.3 0 00.06-.01v.15a.55.55 0 01-.07.01h-.06c-.07 0-.12-.02-.15-.07a.28.28 0 01-.03-.1.54.54 0 01-.42.2c-.12 0-.2-.04-.27-.1a.33.33 0 01-.1-.26c0-.1.03-.2.1-.25.06-.06.15-.1.26-.11l.32-.04zm.62-.9h.2v1.61h-.2V27.1zm1.2 0h.22v1.61h-.22V27.1zm.55.43h.18v.17a.53.53 0 01.18-.15.47.47 0 01.2-.04c.18 0 .29.06.35.17.03.07.05.16.05.28v.75h-.2v-.74a.4.4 0 00-.04-.17c-.03-.08-.1-.11-.19-.11l-.11.01a.3.3 0 00-.15.1.3.3 0 00-.06.12.81.81 0 00-.02.17v.62h-.2v-1.18zm1.37.6c0 .13.03.24.08.32.06.09.14.13.26.13.1 0 .17-.04.23-.12.05-.08.08-.19.08-.34 0-.15-.03-.26-.09-.33a.28.28 0 00-.22-.1.3.3 0 00-.24.11c-.07.08-.1.19-.1.34zm.3-.62c.1 0 .17.02.23.06l.12.12v-.6h.19v1.62h-.18v-.16a.43.43 0 01-.16.15.47.47 0 01-.22.05.44.44 0 01-.34-.16.65.65 0 01-.15-.44c0-.17.05-.32.14-.45a.43.43 0 01.37-.19zm1.3 1.07c.13 0 .22-.05.27-.15.04-.1.07-.2.07-.33 0-.1-.02-.2-.05-.26-.06-.11-.16-.17-.3-.17-.11 0-.2.05-.26.14-.05.1-.08.2-.08.34 0 .12.03.22.08.3.06.1.15.13.27.13zm0-1.08c.15 0 .28.05.39.15.1.1.15.25.15.45 0 .19-.04.34-.13.47-.1.12-.24.18-.43.18a.48.48 0 01-.39-.16.65.65 0 01-.14-.44c0-.2.05-.36.15-.47a.5.5 0 01.4-.18zm.78.03h.19v.17a.53.53 0 01.17-.15.47.47 0 01.21-.04c.17 0 .28.06.34.17.03.07.05.16.05.28v.75h-.2v-.74a.4.4 0 00-.03-.17c-.04-.08-.1-.11-.2-.11l-.11.01a.3.3 0 00-.14.1.3.3 0 00-.07.12.81.81 0 00-.01.17v.62h-.2v-1.18zm1.74-.02a.54.54 0 01.42.2c.04.07.07.14.08.22l.02.26h-.86c0 .12.03.21.08.28.05.08.14.11.25.11a.32.32 0 00.32-.24h.2a.51.51 0 01-.15.27.46.46 0 01-.23.13.68.68 0 01-.16.01.5.5 0 01-.37-.16.62.62 0 01-.16-.44c0-.2.06-.35.16-.46a.5.5 0 01.4-.18zm.32.52a.51.51 0 00-.06-.2c-.05-.1-.14-.15-.27-.15a.3.3 0 00-.23.1.37.37 0 00-.1.25h.66zm.56.31c0 .07.02.12.05.15.05.07.13.1.26.1.07 0 .14-.02.2-.05a.16.16 0 00.07-.15.13.13 0 00-.06-.11.8.8 0 00-.17-.06l-.16-.04a.77.77 0 01-.22-.08.25.25 0 01-.13-.22c0-.11.04-.2.12-.27.08-.07.19-.1.33-.1.17 0 .3.05.38.15.05.07.07.14.07.21h-.19a.23.23 0 00-.04-.12c-.05-.05-.13-.08-.24-.08a.28.28 0 00-.17.05.13.13 0 00-.06.1c0 .06.03.1.08.13.03.02.07.04.13.05l.13.03c.14.04.24.07.28.1.08.05.12.13.12.24 0 .1-.04.2-.12.27-.08.08-.2.12-.36.12-.18 0-.3-.04-.37-.12a.45.45 0 01-.12-.3h.19zm1-.8h.2v1.17h-.2v-1.17zm0-.44h.2v.22h-.2v-.22zm.66 1.3c0 .06.02.1.06.13.04.04.1.05.15.05.07 0 .14-.01.2-.05a.27.27 0 00.17-.26v-.16a.34.34 0 01-.1.04.8.8 0 01-.11.02l-.12.02a.46.46 0 00-.16.04c-.06.04-.1.1-.1.17zm.48-.4c.04 0 .07-.03.09-.06l.01-.07c0-.07-.02-.12-.07-.15a.39.39 0 00-.2-.05c-.11 0-.18.03-.23.09a.27.27 0 00-.04.13h-.19c0-.14.05-.24.14-.3.1-.06.2-.08.32-.08.14 0 .25.02.33.08.09.05.13.13.13.24v.68c0 .02 0 .04.02.05 0 .01.02.02.05.02a.3.3 0 00.06-.01v.15a.55.55 0 01-.07.01h-.06c-.07 0-.12-.02-.15-.07a.28.28 0 01-.03-.1.54.54 0 01-.42.2c-.12 0-.2-.04-.27-.1a.33.33 0 01-.1-.26c0-.1.03-.2.1-.25.06-.06.15-.1.26-.11l.32-.04z" fill="#000"/></g></g></svg>