<?xml version="1.0" encoding="UTF-8"?>
<svg width="56px" height="36px" viewBox="0 0 56 36" version="1.1" xmlns="http://www.w3.org/2000/svg" xmlns:xlink="http://www.w3.org/1999/xlink">
    <g id="Page-1" stroke="none" stroke-width="1" fill="none" fill-rule="evenodd">
        <g id="PM/Bitpay">
            <g id="Group-3">
                <path d="M0,3.75075247 C0,1.67926908 1.67596877,0 3.75035585,0 L52.2496442,0 C54.3209085,0 56,1.68806916 56,3.75075247 L56,32.2492475 C56,34.3207309 54.3240312,36 52.2496442,36 L3.75035585,36 C1.67909151,36 0,34.3119308 0,32.2492475 L0,3.75075247 Z" id="Rectangle-2" fill="#000000" fill-rule="nonzero"></path>
                <path d="M1.25,3.75075247 L1.25,32.2492475 C1.25,33.6250965 2.37296468,34.75 3.75035585,34.75 L52.2496442,34.75 C53.6324061,34.75 54.75,33.6316447 54.75,32.2492475 L54.75,3.75075247 C54.75,2.37490355 53.6270353,1.25 52.2496442,1.25 L3.75035585,1.25 C2.36759386,1.25 1.25,2.36835527 1.25,3.75075247 Z" id="Path" fill="#FFFFFF"></path>
            </g>
            <g id="download" transform="translate(5.000000, 10.000000)" fill="#002855" fill-rule="nonzero">
                <path d="M45.9152632,3.77313433 L43.5305263,3.77313433 L42.1505263,9.51641791 L41.9568421,10.3044776 C41.8236842,10.3402985 41.6905263,10.3761194 41.5573684,10.4 C41.3152632,10.4477612 41.0610526,10.4716418 40.7947368,10.4716418 C40.4921053,10.4716418 40.25,10.4238806 40.0684211,10.3402985 C39.8989474,10.2567164 39.7657895,10.1373134 39.6931579,9.97014925 C39.6205263,9.81492537 39.5963158,9.6238806 39.6084211,9.40895522 C39.6205263,9.19402985 39.6689474,8.95522388 39.7294737,8.71641791 L40.4557895,5.73134328 L40.9278947,3.74925373 L38.4947368,3.74925373 L37.3931579,8.33432836 C37.26,8.88358209 37.1873684,9.40895522 37.1631579,9.91044776 C37.1389474,10.4119403 37.2236842,10.841791 37.3931579,11.2358209 C37.5626316,11.6179104 37.8652632,11.9164179 38.2768421,12.1432836 C38.6884211,12.3701493 39.2815789,12.4776119 40.0321053,12.4776119 C40.5526316,12.4776119 41.0126316,12.4298507 41.4,12.3462687 C41.4121053,12.3462687 41.4363158,12.3343284 41.4484211,12.3343284 C41.3394737,12.8119403 41.1215789,13.1940299 40.7826316,13.4925373 C40.4315789,13.7910448 39.9231579,13.9462687 39.2452632,13.9462687 C38.9547368,13.9462687 38.6884211,13.9343284 38.4463158,13.8985075 L37.9742105,15.8447761 C38.2889474,15.880597 38.64,15.9044776 39.0273684,15.9044776 C39.7536842,15.9044776 40.3831579,15.8208955 40.9278947,15.6656716 C41.4726316,15.4985075 41.9326316,15.2597015 42.3321053,14.9253731 C42.7194737,14.5910448 43.0463158,14.1731343 43.3126316,13.6835821 C43.5789474,13.1820896 43.7847368,12.5970149 43.9421053,11.9044776 L45.5884211,5.07462687 C45.5884211,5.07462687 45.5884211,5.07462687 45.5884211,5.07462687 L45.9152632,3.77313433 Z" id="y_2_"></path>
                <path d="M35.9284211,8.68059701 C35.7831579,9.27761194 35.7347368,9.88656716 35.7952632,10.4835821 C35.8557895,11.0925373 36.0978947,12.0119403 36.3278947,12.4776119 L34.0278947,12.4776119 C33.7494737,12.0119403 33.7615789,11.7850746 33.7010526,11.641791 C33.3984211,11.880597 33.0715789,12.0835821 32.7084211,12.238806 C32.3452632,12.3940299 31.9457895,12.4776119 31.4857895,12.4776119 C30.9531579,12.4776119 30.4931579,12.3820896 30.1178947,12.2029851 C29.7426316,12.0238806 29.4278947,11.7731343 29.1857895,11.4626866 C28.9436842,11.1522388 28.7742105,10.7940299 28.6652632,10.3761194 C28.5563158,9.95820896 28.5078947,9.51641791 28.5078947,9.03880597 C28.5078947,8.31044776 28.6410526,7.62985075 28.8952632,6.98507463 C29.1615789,6.34029851 29.5247368,5.77910448 29.9847368,5.30149254 C30.4447368,4.8238806 31.5705263,3.76119403 33.4105263,3.76119403 C34.2094737,3.76119403 35.2747368,3.76119403 37.1026316,3.76119403 L35.9284211,8.68059701 Z M34.2457895,5.75522388 C33.1321053,5.75522388 32.9263158,5.75522388 32.4663158,5.98208955 C32.1394737,6.14925373 31.8731579,6.4 31.6431579,6.68656716 C31.4131579,6.97313433 31.2194737,7.30746269 31.0863158,7.68955224 C30.9531579,8.07164179 30.8805263,8.46567164 30.8805263,8.87164179 C30.8805263,9.37313433 30.9652632,9.77910448 31.1347368,10.0776119 C31.3042105,10.3761194 31.6189474,10.519403 32.0789474,10.519403 C32.3210526,10.519403 32.5510526,10.4716418 32.7447368,10.3761194 C32.9384211,10.280597 33.1563158,10.1253731 33.3742105,9.89850746 C33.3984211,9.6358209 33.4347368,9.36119403 33.4831579,9.07462687 C33.5315789,8.7880597 33.5921053,8.51343284 33.6405263,8.27462687 L34.2457895,5.75522388 Z" id="a_2_"></path>
                <path d="M27.8542105,7.2238806 C27.8542105,8 27.7210526,8.70447761 27.4668421,9.34925373 C27.2126316,9.99402985 26.8494737,10.5432836 26.3894737,11.0089552 C25.9294737,11.4746269 25.3847368,11.8328358 24.7431579,12.0955224 C24.1015789,12.358209 23.4115789,12.4895522 22.6610526,12.4895522 C22.2978947,12.4895522 21.9347368,12.4537313 21.5594737,12.3940299 L20.8331579,15.2716418 L18.4484211,15.2716418 L21.2205263,3.78507463 C21.62,3.78507463 23.7505263,3.78507463 24.4042105,3.78507463 C25.0094737,3.78507463 25.53,3.88059701 25.9536842,4.05970149 C26.3894737,4.23880597 26.7405263,4.48955224 27.0310526,4.8 C27.3094737,5.11044776 27.5152632,5.48059701 27.6484211,5.89850746 C27.7936842,6.30447761 27.8542105,6.74626866 27.8542105,7.2238806 Z M22.0073684,10.4835821 C22.1889474,10.5313433 22.4189474,10.5432836 22.6852632,10.5432836 C23.1089474,10.5432836 23.4842105,10.4716418 23.8352632,10.3164179 C24.1742105,10.161194 24.4768421,9.94626866 24.7189474,9.67164179 C24.9610526,9.39701493 25.1426316,9.06268657 25.2878947,8.68059701 C25.4210526,8.29850746 25.4936842,7.86865672 25.4936842,7.40298507 C25.4936842,6.94925373 25.3968421,6.55522388 25.1910526,6.24477612 C24.9852632,5.92238806 24.6342105,5.75522388 24.1257895,5.75522388 C23.7747368,5.75522388 23.1815789,5.75522388 23.1815789,5.75522388 L22.0073684,10.4835821 Z" id="p_2_"></path>
                <path d="M16.9957895,10.4835821 C16.6931579,10.4835821 16.4510526,10.4358209 16.2694737,10.3522388 C16.1,10.2686567 15.9668421,10.1492537 15.8942105,9.98208955 C15.8215789,9.82686567 15.7973684,9.6358209 15.8094737,9.42089552 C15.8215789,9.20597015 15.87,8.96716418 15.9305263,8.72835821 L16.6568421,5.74328358 L19.3684211,5.74328358 L19.8647368,3.76119403 L17.1410526,3.76119403 L17.7705263,1.25373134 L15.2284211,1.64776119 L13.6184211,8.35820896 C13.4852632,8.90746269 13.4126316,9.43283582 13.3884211,9.93432836 C13.3642105,10.4358209 13.4489474,10.8656716 13.6184211,11.2597015 C13.7878947,11.641791 14.0905263,11.9402985 14.5021053,12.1671642 C14.9136842,12.3940299 15.5068421,12.5014925 16.2573684,12.5014925 C16.7778947,12.5014925 17.2378947,12.4537313 17.6252632,12.3701493 C17.6615789,12.358209 17.7221053,12.3462687 17.7584211,12.3343284 L18.2547368,10.2925373 C18.0852632,10.3522388 17.9157895,10.3880597 17.7584211,10.4119403 C17.5163158,10.4597015 17.2621053,10.4835821 16.9957895,10.4835821 Z" id="t_2_"></path>
                <polygon id="i_bottom_6_" points="10.9310526 3.77313433 8.82473684 12.4895522 11.2094737 12.4895522 13.3036842 3.77313433"></polygon>
                <polygon id="i_top_2_" points="13.5578947 2.77014925 13.9210526 1.25373134 11.5363158 1.25373134 11.1731579 2.77014925"></polygon>
                <path d="M5.65315789,3.78507463 C6.16157895,3.78507463 6.60947368,3.88059701 6.98473684,4.05970149 C7.36,4.23880597 7.66263158,4.47761194 7.91684211,4.7880597 C8.15894737,5.09850746 8.34052632,5.45671642 8.46157895,5.86268657 C8.58263158,6.26865672 8.64315789,6.71044776 8.64315789,7.1880597 C8.64315789,7.91641791 8.51,8.59701493 8.23157895,9.25373134 C7.95315789,9.89850746 7.59,10.4716418 7.11789474,10.9492537 C6.64578947,11.4268657 6.08894737,11.8089552 5.44736842,12.0835821 C4.80578947,12.358209 4.11578947,12.5014925 3.36526316,12.5014925 C3.26842105,12.5014925 3.09894737,12.5014925 2.85684211,12.4895522 C2.61473684,12.4895522 2.33631579,12.4656716 2.03368421,12.4179104 C1.71894737,12.3701493 1.39210526,12.3104478 1.05315789,12.2268657 C0.702105263,12.1432836 0.375263158,12.0238806 0.0726315789,11.880597 L2.84473684,0.394029851 L5.32631579,0.0119402985 L4.34578947,4.08358209 C4.56368421,3.9880597 4.75736842,3.91641791 4.97526316,3.86865672 C5.18105263,3.80895522 5.41105263,3.78507463 5.65315789,3.78507463 Z M3.57105263,10.5432836 C3.94631579,10.5432836 4.29736842,10.4597015 4.62421053,10.2686567 C4.95105263,10.0895522 5.24157895,9.85074627 5.48368421,9.55223881 C5.72578947,9.25373134 5.91947368,8.90746269 6.05263158,8.53731343 C6.18578947,8.15522388 6.25842105,7.76119403 6.25842105,7.35522388 C6.25842105,6.85373134 6.17368421,6.45970149 6.00421053,6.17313433 C5.83473684,5.88656716 5.48368421,5.75522388 5.02368421,5.75522388 C4.87842105,5.75522388 4.72105263,5.76716418 4.47894737,5.82686567 C4.23684211,5.87462687 4.03105263,5.99402985 3.83736842,6.16119403 L2.79631579,10.4955224 C3.11105263,10.5432836 3.20789474,10.5552239 3.29263158,10.5552239 C3.35315789,10.5432836 3.45,10.5432836 3.57105263,10.5432836 Z" id="b_2_"></path>
            </g>
        </g>
    </g>
</svg>