<?xml version="1.0" encoding="UTF-8"?><svg width="56" height="36" viewBox="0 0 56 36" xmlns="http://www.w3.org/2000/svg" xmlns:xlink="http://www.w3.org/1999/xlink"><defs><path id="a" d="M3.77 0H0V3.6h3.77V0z"/></defs><g fill="none" fill-rule="evenodd"><path d="M0 3.75A3.75 3.75 0 013.75 0h48.5A3.76 3.76 0 0156 3.75v28.5A3.75 3.75 0 0152.25 36H3.75A3.76 3.76 0 010 32.25V3.75z" fill="#000" fill-rule="nonzero"/><path d="M1.25 3.75v28.5a2.5 2.5 0 002.5 2.5h48.5a2.5 2.5 0 002.5-2.5V3.75a2.5 2.5 0 00-2.5-2.5H3.75a2.5 2.5 0 00-2.5 2.5z" fill="#FFF"/><path d="M17.32 18.19c0 .28-.15.51-.46.67-.27.15-.62.22-1.06.24h-.51c.08-.37.25-.7.51-.95l.05-.06c.28-.28.59-.4.9-.4.39 0 .57.17.57.5m-.46-1.63a3.48 3.48 0 00-1.74.48 3.2 3.2 0 00-1.2 1.34 4.14 4.14 0 00-.47 1.96c0 .72.21 1.27.63 1.67.4.38.98.57 1.7.58h.07c.79 0 1.5-.14 2.12-.44v-1.18c-.37.17-.68.28-.93.36-.26.06-.54.08-.87.08-.14 0-.27-.01-.38-.04-.18-.05-.3-.12-.42-.22a.98.98 0 01-.28-.74v-.13l.01-.12h.7c.93-.05 1.66-.2 2.2-.52.6-.35.9-.85.9-1.5 0-.49-.17-.87-.52-1.15a2.47 2.47 0 00-1.52-.43m-3.88 1.46c.31-.54.74-1.1 1.3-1.65H8.4l-2.33 1.65h6.91m-7.4 2.85L3 22.7h10.23a4.92 4.92 0 01-.8-1.84H5.56m6.8-.52c-.02-.6.1-1.22.36-1.84H7.17L4.6 20.35h7.78" fill="#078"/><path d="M17.17 13.44c.04-.05.08-.1.08-.18 0-.15-.11-.22-.33-.2h-.2v.44h.2c.1 0 .18-.02.25-.06zm-.2.54h-.25v.52h.24c.22 0 .33-.09.33-.26a.25.25 0 00-.08-.2c-.06-.04-.14-.06-.25-.06zm.74-1.3c.17.11.26.26.26.48a.5.5 0 01-.12.35.5.5 0 01-.3.2c.16.05.28.11.36.22.06.08.11.22.11.36 0 .23-.1.42-.26.53-.17.12-.42.2-.73.2h-1v-2.48h.9c.34 0 .6.06.78.15zm-2.6 2.93h3.76v-3.59H15.1v3.59z" fill="#736D6C"/><path d="M26.08 13.23l-.02.5-.01.2V15h.63v-2.46h-.93l-.53 1.75h-.01l-.55-1.75h-.93V15h.62v-1.06c0-.16-.01-.4-.05-.7h.02l.53 1.78h.66l.57-1.79zm-5.15.07l-.21.31v-1.07h-.7V15h.7v-.83l.2-.11.51.94h.8l-.81-1.36.82-1.1h-.78l-.53.76zm-4.21.68h.24c.11 0 .19.02.25.06.06.05.08.1.08.2 0 .17-.1.26-.33.26h-.24v-.52zm.52-.72c0 .08-.03.14-.08.18-.06.04-.14.06-.24.06h-.2v-.46h.2c.22 0 .32.07.32.22zm.73-.1a.5.5 0 00-.26-.47c-.17-.1-.44-.15-.8-.15h-.9V15h1.01c.31 0 .55-.06.73-.2a.65.65 0 00.27-.52.58.58 0 00-.11-.37c-.08-.1-.19-.16-.36-.2v-.02a.5.5 0 00.3-.2c.08-.08.12-.2.12-.33z" fill="#FFF"/><path d="M49.3 17.05c-.41.32-.61.78-.61 1.37 0 .32.1.59.26.84.17.24.48.46.92.7a4 4 0 01.7.45.5.5 0 01-.07.86c-.18.1-.42.16-.71.16-.59 0-1.16-.16-1.74-.47v1.28c.25.12.53.2.83.26.27.05.62.08 1 .08.8 0 1.44-.18 1.9-.52.44-.35.66-.85.66-1.5 0-.34-.1-.64-.3-.89-.2-.25-.52-.48-.97-.7a3.1 3.1 0 01-.65-.39.45.45 0 01-.17-.37.4.4 0 01.2-.35c.12-.09.3-.13.5-.13.43 0 .9.14 1.4.44l.55-1.1a4.07 4.07 0 00-1.99-.5c-.76 0-1.31.16-1.72.48m-2.12 1.12l.54-1.1a4.07 4.07 0 00-1.98-.5 2.7 2.7 0 00-1.72.48c-.4.33-.6.78-.6 1.37 0 .33.09.6.24.84.17.24.48.46.93.71a4 4 0 01.72.44.5.5 0 01-.08.86c-.19.1-.43.16-.71.16-.6 0-1.16-.16-1.74-.47v1.28c.25.12.53.2.82.27.28.04.62.07 1.03.07.8 0 1.44-.18 1.89-.52.45-.35.68-.85.68-1.5 0-.34-.1-.63-.31-.88-.2-.26-.53-.5-.98-.71a3.1 3.1 0 01-.65-.38.45.45 0 01-.17-.37.4.4 0 01.2-.36c.13-.08.3-.13.5-.13.42 0 .88.14 1.4.44m-8.16.94h-.25c.1-.4.28-.73.56-1 .28-.28.59-.41.9-.41.39 0 .57.16.57.49 0 .28-.15.51-.46.67-.31.17-.76.25-1.32.25m3.36-.97c0-.48-.17-.87-.53-1.15a2.4 2.4 0 00-1.5-.43 3.2 3.2 0 00-2.96 1.81 4.14 4.14 0 00-.46 1.97c0 .7.21 1.27.63 1.66.42.39 1 .6 1.77.6.79 0 1.5-.15 2.12-.45v-1.18c-.37.16-.68.28-.93.35-.26.06-.54.1-.87.1-.34 0-.62-.1-.8-.27a.98.98 0 01-.28-.74v-.13l.02-.12h.27c1.14 0 2-.18 2.6-.52.61-.35.92-.85.92-1.5m-5.53-1.52a1.74 1.74 0 00-.53-.06c-.74 0-1.4.4-1.92 1.18h-.03l.11-1.07h-1.24l-1.3 5.8h1.64l.57-2.6a2.7 2.7 0 01.69-1.36 1.6 1.6 0 011.66-.38l.35-1.5m-7.98 1.2c.48 0 .7.3.7.9 0 .41-.05.83-.2 1.24-.13.41-.32.74-.54.97-.21.24-.45.36-.7.36a.7.7 0 01-.55-.25.98.98 0 01-.2-.67c0-.47.07-.9.21-1.28.14-.38.33-.7.56-.93.24-.22.47-.34.72-.34m2.38.84c0-.66-.15-1.2-.45-1.56a1.56 1.56 0 00-1.25-.56c-.65 0-1.22.32-1.72.99h-.06l.09-.89H26.6L24.73 25h1.64l.39-1.77c.1-.47.2-1 .25-1.54h.04c.19.31.4.53.61.65.22.13.48.2.79.2.51 0 1-.18 1.43-.54a3.6 3.6 0 001.02-1.44c.21-.59.35-1.22.35-1.89m-7.53-2L22.4 18.4l-.63-1.74h-1.75l1.22 2.83-2.6 2.96h1.9L22 20.7l.68 1.77h1.78l-1.33-2.89 2.54-2.9h-1.94" fill="#857968"/><g transform="translate(19.19 12.02)"><mask id="b" fill="#fff"><use xlink:href="#a"/></mask><path d="M1.52 1.6c.03-.06.11-.17.22-.31l.54-.76h.78l-.82 1.11.8 1.36h-.79l-.5-.95-.21.12V3h-.7V.52h.7V1.6h-.02zM0 3.59h3.77V0H0V3.6z" fill="#A39970" mask="url(#b)"/></g><path d="M26.06 13.73l.02-.5h-.02L25.54 15h-.67l-.53-1.78h-.01c.03.3.04.54.04.7V15h-.62v-2.46h.94l.54 1.75h.02l.52-1.75h.93V15h-.63v-1.07-.2zm-2.76 1.88h3.77v-3.59H23.3v3.59z" fill="#929085"/></g></svg>