<?xml version="1.0" encoding="UTF-8"?><svg width="56" height="36" viewBox="0 0 56 36" xmlns="http://www.w3.org/2000/svg"><defs><radialGradient cx="9.28%" cy="-2.61%" fx="9.28%" fy="-2.61%" r="163.94%" id="b"><stop stop-color="red" offset="0%"/><stop stop-color="#E83E49" offset="49.5%"/><stop stop-color="#F0F" offset="100%"/></radialGradient><linearGradient x1="50%" y1="100%" x2="50%" y2="0%" id="a"><stop stop-color="#262626" offset="0%"/><stop offset="100%"/></linearGradient></defs><g fill="none" fill-rule="evenodd"><path d="M0 3.75A3.75 3.75 0 013.75 0h48.5A3.76 3.76 0 0156 3.75v28.5A3.75 3.75 0 0152.25 36H3.75A3.76 3.76 0 010 32.25V3.75z" fill="#000" fill-rule="nonzero"/><path d="M1.25 3.75v28.5a2.5 2.5 0 002.5 2.5h48.5a2.5 2.5 0 002.5-2.5V3.75a2.5 2.5 0 00-2.5-2.5H3.75a2.5 2.5 0 00-2.5 2.5z" fill="#FFF"/><g transform="translate(6 6)"><path d="M40.9 23.47H3.7a3.7 3.7 0 01-3.7-3.7V3.7A3.7 3.7 0 013.7 0h37.2a3.7 3.7 0 013.7 3.7v16.07a3.7 3.7 0 01-3.7 3.7z" fill="url(#a)"/><path fill="#FFF" d="M18.37 3.51h3.03v16.96h-3.03zM23.98 9.23h3.03v11.22h-3.03zM40.57 20.45l-4.55-5.93 4.19-5.3h-3.58l-4 5.14V3.5h-3.04v16.94h3.04V14.7l4 5.76z"/><path d="M10.66 9.11c-.95 0-1.88.24-2.72.69V3.5H4.93v11.34a5.74 5.74 0 105.73-5.74zm0 8.46a2.71 2.71 0 110-5.43 2.71 2.71 0 010 5.43z" fill="#FFF" fill-rule="nonzero"/><circle fill="url(#b)" cx="13.62" cy="5.36" r="2.7"/></g></g></svg>