<?xml version="1.0" encoding="UTF-8"?><svg width="56" height="36" viewBox="0 0 56 36" xmlns="http://www.w3.org/2000/svg"><g fill="none" fill-rule="evenodd"><path d="M0 3.75A3.75 3.75 0 013.75 0h48.5A3.76 3.76 0 0156 3.75v28.5A3.75 3.75 0 0152.25 36H3.75A3.76 3.76 0 010 32.25V3.75z" fill="#000" fill-rule="nonzero"/><path d="M1.25 3.75v28.5a2.5 2.5 0 002.5 2.5h48.5a2.5 2.5 0 002.5-2.5V3.75a2.5 2.5 0 00-2.5-2.5H3.75a2.5 2.5 0 00-2.5 2.5z" fill="#FFF"/><g fill-rule="nonzero"><path d="M30.87 22.14h5.09v-3.81c-.65.3-1.38.52-2.12.65-.6.05-1.16 0-1.72-.17a4.92 4.92 0 01-2.16-1.14c-.47-.44-.95-.88-1.38-1.36l-1.64 1.4c.74.97 1.3 1.62 1.47 1.8.73.79 1.03 1.1 1.55 1.36s2.16.26 2.16.26l-1.25 1.01zm-4.57-5.4l1.6-1.35c-.53-.66-.65-.92-1.22-1.8a14.1 14.1 0 01-1.5-3.03 6.56 6.56 0 01-.52-2.85c0-.57.13-1.14.34-1.71h-5v2.76s3.8 4.92 6.3 7.99zm9.7-5.78v6.27c-.3.13-.65.17-1 .22-.73 0-1.46-.22-2.1-.57-.7-.4-1.3-.97-1.77-1.67a6.1 6.1 0 01-.82-1.88 4.38 4.38 0 01.3-2.46 2.35 2.35 0 012.16-1.36c.73-.04 1.46.13 2.1.53.96.52 1.13.92 1.13.92zm0-2.85a5.53 5.53 0 00-2.24-.44c-1.21.04-2.33.52-3.2 1.36-.47.44-.81 1-1.12 1.58a8 8 0 00-.38 1.97c-.43-.48-.82-1-1.08-1.62-.56-1.01-.9-2.1-1-3.25 0-.57 0-1.14.1-1.67H36v2.07zm-11.3 10L20 22.14v-9.91l4.7 5.88zm.73.96l2.42 3.07h-6l3.58-3.07z" fill="#E94E0F"/><path d="M20.43 29.19c0 .49.04 1.24-.43 1.46v.04h1.68c.77 0 1.59.05 2.27-.3.69-.36 1.25-1.02 1.25-1.86 0-1.02-.73-1.68-1.68-1.86.6-.26 1.03-.66 1.03-1.36 0-.93-.77-1.5-2.14-1.5H20v.04c.52.22.43.97.43 1.46v3.88zm1.03.66v-2.6l.73-.05c.9-.04 1.85.4 1.85 1.42 0 1.01-.86 1.4-1.68 1.32l-.9-.09zm0-3.3v-2.08l.69-.1c.6-.04 1.24.32 1.24 1.07 0 .84-.94 1.1-1.63 1.1h-.3zm5.71-1.29l3.53 4.55c.43.62.77.93 1.5 1.19v-5.87c0-.57 0-1.02.52-1.33v-.04h-1.8v.04c.55.31.5.76.5 1.33v3.97l-3.73-4.85-.13-.22c-.08-.1-.13-.14-.17-.27h-1.5v.04c.51.31.51.76.51 1.33v4.2c0 .57 0 1-.56 1.32v.04h1.8v-.04c-.55-.31-.5-.75-.5-1.33v-4.06h.03zm7.14 3.93c0 .49.04 1.24-.43 1.46v.04h1.93v-.04c-.52-.22-.43-.97-.43-1.46v-3.97c0-.49-.04-1.24.43-1.46v-.04h-1.93v.04c.51.22.43.97.43 1.46v3.97z" fill="#005B6A"/></g></g></svg>