<?xml version="1.0" encoding="UTF-8"?>
<svg width="56px" height="36px" viewBox="0 0 56 36" version="1.1" xmlns="http://www.w3.org/2000/svg" xmlns:xlink="http://www.w3.org/1999/xlink">
    <!-- Generator: Sketch 53.2 (72643) - https://sketchapp.com -->
    <title>bnp-paribas</title>
    <desc>Created with Sketch.</desc>
    <defs>
        <linearGradient x1="50.253603%" y1="-1.73014643%" x2="50.253603%" y2="103.847292%" id="linearGradient-1">
            <stop stop-color="#31754E" offset="0%"></stop>
            <stop stop-color="#397C57" offset="11%"></stop>
            <stop stop-color="#4E906E" offset="28%"></stop>
            <stop stop-color="#70B195" offset="50%"></stop>
            <stop stop-color="#81C1A8" offset="60%"></stop>
            <stop stop-color="#6EB698" offset="68%"></stop>
            <stop stop-color="#459D73" offset="89%"></stop>
            <stop stop-color="#359465" offset="100%"></stop>
        </linearGradient>
        <linearGradient x1="127.806867%" y1="49.9795244%" x2="2.90743006%" y2="49.9795244%" id="linearGradient-2">
            <stop stop-color="#359465" offset="0%"></stop>
            <stop stop-color="#429B70" offset="7%"></stop>
            <stop stop-color="#63AF8D" offset="20%"></stop>
            <stop stop-color="#81C1A8" offset="30%"></stop>
            <stop stop-color="#6EB698" offset="35%"></stop>
            <stop stop-color="#459D73" offset="48%"></stop>
            <stop stop-color="#359465" offset="55%"></stop>
            <stop stop-color="#31754E" offset="83%"></stop>
            <stop stop-color="#31754E" offset="84%"></stop>
            <stop stop-color="#317E57" offset="89%"></stop>
            <stop stop-color="#32956E" offset="97%"></stop>
            <stop stop-color="#329D76" offset="100%"></stop>
        </linearGradient>
    </defs>
    <g id="bnp-paribas" stroke="none" stroke-width="1" fill="none" fill-rule="evenodd">
        <g id="Base">
            <path d="M0,3.75075247 C0,1.67926908 1.67596877,0 3.75035585,0 L52.2496442,0 C54.3209085,0 56,1.68806916 56,3.75075247 L56,32.2492475 C56,34.3207309 54.3240312,36 52.2496442,36 L3.75035585,36 C1.67909151,36 0,34.3119308 0,32.2492475 L0,3.75075247 Z" id="Rectangle-2" fill="#000000" fill-rule="nonzero"></path>
            <path d="M1.25,3.75075247 L1.25,32.2492475 C1.25,33.6250965 2.37296468,34.75 3.75035585,34.75 L52.2496442,34.75 C53.6324061,34.75 54.75,33.6316447 54.75,32.2492475 L54.75,3.75075247 C54.75,2.37490355 53.6270353,1.25 52.2496442,1.25 L3.75035585,1.25 C2.36759386,1.25 1.25,2.36835527 1.25,3.75075247 Z" id="Path" fill="#FFFFFF"></path>
        </g>
        <g id="bnp-paribas-seeklogo.com" transform="translate(6.000000, 13.000000)">
            <rect id="Rectangle" fill="url(#linearGradient-1)" x="0" y="0" width="9.30721154" height="9.30793269"></rect>
            <polygon id="Rectangle" fill="url(#linearGradient-2)" transform="translate(4.632332, 4.575361) rotate(-90.000000) translate(-4.632332, -4.575361) " points="0.211298077 0.102403846 9.05336538 0.102403846 9.05336538 9.04831731 0.211298077 9.04831731"></polygon>
            <path d="M7.25697115,2.44759615 C6.68004808,2.78509615 6.50697115,2.81394231 5.88245192,3.1875 C6.14707909,2.91236704 6.38649953,2.6140569 6.59783654,2.29615385 C6.02091346,2.32644231 5.184375,2.39567308 4.58725962,2.52836538 C5.10793269,2.25 6.13846154,1.94134615 6.68293269,1.86850962 C6.55673077,1.69254808 5.53485577,1.14230769 5.28100962,1.03269231 C6.08942308,1.09543269 7.078125,1.39759615 7.55697115,1.69038462 C7.74591346,1.63197115 7.94206731,1.62908654 8.29254808,1.59735577 C8.20384615,1.75096154 8.19951923,1.83966346 7.85552885,2.06826923 C7.95072115,2.32355769 7.72283654,3.72692308 7.53461538,4.09759615 C7.528125,3.51057692 7.47692308,2.76995192 7.25697115,2.44759615" id="Path" fill="#FFFFFF"></path>
            <path d="M3.05120192,7.47980769 C2.74136453,7.37170674 2.45848967,7.19804617 2.221875,6.97067308 C2.29929038,6.75693493 2.40478211,6.55443932 2.53557692,6.36850962 C2.26730769,6.40889423 2.06899038,6.440625 1.83822115,6.48245192 C1.65,6.15360577 1.56418269,5.83341346 1.46899038,5.39278846 C1.41706731,5.86225962 1.396875,6.196875 1.46394231,6.56971154 C1.27991041,6.61793867 1.1002053,6.6813782 0.926682692,6.759375 C1.15720667,6.9041246 1.39608475,7.03512226 1.64206731,7.15168269 C1.77216896,7.4411071 1.95734015,7.70245322 2.18725962,7.92115385 C2.13021477,7.73053587 2.1135137,7.53012297 2.13822115,7.33269231 C2.43447702,7.42248316 2.74169417,7.47101668 3.05120192,7.47692308" id="Path" fill="#FFFFFF"></path>
            <path d="M3.91081731,2.81466346 L3.91081731,2.81466346 C3.80197061,2.96711818 3.71619276,3.13478592 3.65625,3.31225962 C4.19901866,3.39504945 4.72048958,3.58267121 5.19158654,3.86466346 C4.44807692,3.73269231 4.05576923,3.74927885 3.778125,3.77379808 C3.50048077,3.79831731 3.44567308,3.83293269 3.44567308,3.83293269 C3.24447115,4.27211538 3.12259615,5.02716346 3.12259615,5.02716346 C2.98774038,4.70120192 2.79158654,4.04711538 2.79158654,4.04711538 C2.41658654,4.24831731 1.55264423,5.05673077 1.55264423,5.05673077 C2.02716346,4.10552885 2.50961538,3.67355769 2.50961538,3.67355769 C2.34375,3.50552885 1.90889423,3.421875 1.59086538,3.40745192 C1.75600962,3.34038462 2.17932692,3.26322115 2.50456731,3.24663462 C2.67888483,3.24002865 2.85343521,3.24315852 3.02740385,3.25600962 C3.31586538,3.02668269 3.75865385,2.83341346 3.91081731,2.81105769" id="Path" fill="#FFFFFF"></path>
            <path d="M4.81298077,6.890625 C4.67375766,7.08140638 4.52501144,7.2650526 4.36730769,7.44086538 C4.1096547,7.5159384 3.84239516,7.55286881 3.57403846,7.55048077 C3.73701453,7.63378249 3.9107998,7.69397627 4.09038462,7.72932692 C3.93391145,7.87331758 3.76498095,8.00315273 3.58557692,8.11730769 C3.92029895,8.04239464 4.24289606,7.92102627 4.54399038,7.75673077 C4.67451844,7.76326372 4.80536833,7.75528212 4.93413462,7.73293269 C4.90717863,7.64683492 4.88550371,7.55917188 4.86923077,7.47043269 C5.11131436,7.27940161 5.33953214,7.07142701 5.55216346,6.84807692 C5.32634148,7.0090656 5.08642189,7.14930029 4.83533654,7.26706731 C4.82379808,7.14014423 4.81658654,7.03341346 4.81009615,6.890625" id="Path" fill="#FFFFFF"></path>
            <path d="M12.8098558,3.39807692 C13.4365385,3.403125 13.6658654,3.53004808 13.6658654,3.87115385 C13.6684003,3.95953619 13.6383728,4.04576917 13.5814904,4.11346154 C13.4617788,4.25769231 13.228125,4.32980769 12.9324519,4.31322115 L12.9173077,4.31322115 L12.7420673,4.76971154 L12.9173077,4.76971154 C13.2634615,4.75961538 13.5663462,4.86850962 13.7185096,5.05817308 C13.7877538,5.14082893 13.8255568,5.24529809 13.8252404,5.353125 C13.8252404,5.71370192 13.5115385,5.89399038 12.8877404,5.89399038 C12.7838942,5.89399038 12.6137019,5.89399038 12.5084135,5.89399038 C12.4903846,5.41802885 12.4831731,4.77403846 12.4831731,4.57932692 C12.4831731,4.35504808 12.4975962,3.85817308 12.5084135,3.42548077 C12.6077675,3.40878899 12.7083919,3.40082591 12.8091346,3.40168269 L12.8098558,3.39807692 Z M11.6480769,3.07355769 C11.6675481,3.41177885 11.6877404,4.26706731 11.6877404,4.57860577 C11.6877404,4.86706731 11.6877404,5.82836538 11.6372596,6.24302885 L11.6372596,6.27620192 L13.1408654,6.27620192 C13.8793269,6.27620192 14.6603365,6.04543269 14.6603365,5.38990385 C14.6603365,4.97884615 14.3632212,4.67524038 13.8064904,4.509375 C14.2197115,4.39831731 14.4944712,4.11706731 14.4944712,3.79399038 C14.4944712,3.25889423 13.8793269,3.05697115 13.3009615,3.04326923 L11.6423077,3.04326923 L11.6480769,3.07355769 Z" id="Shape" fill="#000100" fill-rule="nonzero"></path>
            <path d="M18.1269231,3.03966346 L17.3949519,3.03966346 L17.4252404,3.85456731 C17.4389423,4.25769231 17.4526442,4.67163462 17.4814904,5.07403846 C17.4338942,4.94783654 17.3899038,4.88365385 17.1677885,4.55985577 C17.1677885,4.54831731 16.40625,3.37860577 16.1430288,3.04543269 L16.1350962,3.03822115 L15.2877404,3.03822115 L15.2877404,3.06850962 C15.3144231,3.40673077 15.3259615,4.26201923 15.3259615,4.57355769 C15.3259615,4.86201923 15.3259615,5.82259615 15.2848558,6.23798077 L15.2776442,6.27043269 L16.0341346,6.27043269 L16.0341346,6.23798077 C15.9908654,5.44903846 15.9908654,4.65144231 15.9908654,3.88052885 C16.0291905,4.00719036 16.0900174,4.1259128 16.1704327,4.23100962 C16.1798077,4.25192308 17.4829327,6.14855769 17.5456731,6.25673077 L17.5528846,6.27043269 L18.1586538,6.27043269 L18.1586538,6.23798077 C18.1125,5.82259615 18.1088942,4.86129808 18.1088942,4.57355769 C18.1088942,4.26201923 18.1298077,3.40673077 18.1492788,3.06850962 L18.1586538,3.03822115 L18.1269231,3.03966346 Z" id="Path" fill="#000100"></path>
            <path d="M20.1108173,3.42980769 C20.5326923,3.421875 20.8269231,3.50697115 20.9661058,3.68365385 C21.0329973,3.76605411 21.0682868,3.86962121 21.065625,3.97572115 C21.065625,4.44302885 20.5391827,4.54471154 20.0992788,4.54471154 L19.9211538,4.53173077 L19.8490385,4.52451923 C19.8454327,4.41634615 19.8454327,4.27355769 19.8454327,4.11418269 C19.8454327,3.91081731 19.8454327,3.66923077 19.8555288,3.44495192 C19.9406411,3.43354518 20.0263885,3.42752358 20.1122596,3.42692308 L20.1108173,3.42980769 Z M19.003125,3.06634615 C19.0326923,3.40456731 19.0442308,4.25985577 19.0442308,4.57139423 C19.0442308,4.85985577 19.0442308,5.82043269 18.9995192,6.23581731 L18.9995192,6.26826923 L19.8987981,6.26826923 L19.8951923,6.23581731 C19.8649038,5.93725962 19.8490385,5.37043269 19.8454327,4.93269231 L20.015625,4.94134615 L20.1432692,4.94134615 C21.3266827,4.94134615 21.9021635,4.62764423 21.9021635,3.96850962 C21.9021635,3.21850962 21.0944712,3.04615385 20.4209135,3.03100962 L19.0016827,3.03100962 L19.003125,3.06634615 Z" id="Shape" fill="#000100" fill-rule="nonzero"></path>
            <path d="M24.7254808,3.42980769 C25.1480769,3.421875 25.4423077,3.50697115 25.5836538,3.68365385 C25.650369,3.76606737 25.6851842,3.86974484 25.6817308,3.97572115 C25.6817308,4.44302885 25.1560096,4.54471154 24.721875,4.54471154 L24.5430288,4.53173077 C24.5430288,4.53173077 24.4961538,4.528125 24.4709135,4.52451923 C24.4658654,4.41634615 24.4658654,4.27283654 24.4658654,4.11418269 C24.4658654,3.90865385 24.4658654,3.66923077 24.4745192,3.44495192 C24.5584027,3.43335131 24.6429634,3.42732847 24.7276442,3.42692308 L24.7254808,3.42980769 Z M23.6206731,3.06634615 C23.6487981,3.40456731 23.6653846,4.25985577 23.6653846,4.57139423 C23.6653846,4.85985577 23.6653846,5.82043269 23.615625,6.23581731 L23.615625,6.26826923 L24.515625,6.26826923 L24.5105769,6.23581731 C24.4817308,5.93725962 24.4658654,5.37043269 24.4658654,4.93269231 L24.6274038,4.94134615 L24.7586538,4.94134615 C25.9413462,4.94134615 26.5225962,4.62764423 26.5225962,3.96850962 C26.5225962,3.21850962 25.7098558,3.04615385 25.0341346,3.03100962 L23.6206731,3.03100962 L23.6206731,3.06634615 Z" id="Shape" fill="#000100" fill-rule="nonzero"></path>
            <path d="M27.9425481,3.99158654 C28.0146635,4.14591346 28.1992788,4.575 28.4091346,5.08774038 C28.3759615,5.08774038 28.3370192,5.08774038 28.3370192,5.08774038 L27.9432692,5.09278846 C27.9432692,5.09278846 27.5350962,5.08774038 27.4680288,5.08557692 C27.6375,4.67596154 27.8055288,4.30528846 27.9432692,3.98942308 L27.9425481,3.99158654 Z M27.7269231,3.0375 L27.7153846,3.0375 L27.7088942,3.05336538 C27.5415865,3.51346154 26.4620192,5.86586538 26.2911058,6.22644231 L26.2766827,6.26682692 L27.0425481,6.26682692 L27.0490385,6.24879808 C27.1168269,6.02740385 27.2069712,5.77788462 27.3057692,5.51105769 L27.9454327,5.50168269 L28.4747596,5.50168269 C28.4747596,5.50168269 28.5598558,5.50745192 28.5858173,5.50745192 C28.7221154,5.85504808 28.8266827,6.11682692 28.8742788,6.24951923 L28.8829327,6.26322115 L29.7706731,6.26322115 L28.33125,3.03966346 L27.7233173,3.03966346 L27.7269231,3.0375 Z" id="Shape" fill="#000100" fill-rule="nonzero"></path>
            <path d="M30.1269231,3.06995192 C30.1528846,3.40817308 30.1651442,4.26346154 30.1651442,4.575 C30.1651442,4.86346154 30.1651442,5.82475962 30.1161058,6.23942308 L30.1161058,6.271875 L31.021875,6.271875 L31.0175481,6.23942308 C30.9699519,5.821875 30.9663462,4.86274038 30.9663462,4.575 C30.9663462,4.35072115 30.9735577,3.84951923 30.9959135,3.44495192 C31.0680288,3.43990385 31.1689904,3.42980769 31.2403846,3.42980769 C31.6586538,3.421875 31.9550481,3.50841346 32.0935096,3.68365385 C32.1600558,3.7660794 32.1943967,3.86987089 32.1901442,3.97572115 C32.1901442,4.34927885 31.8418269,4.53822115 31.5165865,4.55264423 C31.453211,4.55589728 31.3896689,4.55275642 31.3269231,4.54326923 L31.2634615,4.53245192 L31.2980769,4.59158654 C31.6197115,5.06033654 32.1,5.87235577 32.2990385,6.25600962 L32.3048077,6.26971154 L33.2711538,6.26971154 L33.2480769,6.22644231 C33.2076923,6.17163462 32.578125,5.24495192 32.3105769,4.84831731 C32.3105769,4.84831731 32.2990385,4.8375 32.2875,4.82451923 C32.7829327,4.67596154 33.0223558,4.39903846 33.0223558,3.97355769 C33.0223558,3.22860577 32.2153846,3.05192308 31.5331731,3.03605769 L30.1240385,3.03605769 L30.1269231,3.06995192 Z" id="Path" fill="#000100"></path>
            <path d="M34.5512019,3.03966346 L33.6894231,3.03966346 L33.6944712,3.06995192 C33.7168269,3.40817308 33.7341346,4.26346154 33.7341346,4.575 C33.7341346,4.86346154 33.7298077,5.821875 33.6894231,6.23942308 L33.6858173,6.271875 L34.5800481,6.271875 L34.575,6.23942308 C34.5411058,5.821875 34.5302885,4.86129808 34.5302885,4.575 C34.5302885,4.26346154 34.5512019,3.40817308 34.575,3.06995192 L34.575,3.03966346 L34.5512019,3.03966346 Z" id="Path" fill="#000100"></path>
            <path d="M36.5545673,3.39807692 L36.5545673,3.39807692 C37.1862981,3.403125 37.415625,3.53004808 37.415625,3.87115385 C37.4181831,3.95991697 37.3872959,4.04640106 37.3290865,4.11346154 C37.2151442,4.25769231 36.9721154,4.32980769 36.6800481,4.31322115 L36.665625,4.31322115 L36.4896635,4.76971154 L36.6634615,4.76971154 C37.0103365,4.75961538 37.3081731,4.86850962 37.4625,5.05817308 C37.533786,5.1394977 37.5725602,5.24426489 37.5713942,5.35240385 C37.5713942,5.71298077 37.25625,5.89326923 36.6338942,5.89326923 C36.5336538,5.89326923 36.365625,5.89326923 36.2603365,5.89326923 C36.2336538,5.41730769 36.2336538,4.77331731 36.2336538,4.57860577 C36.2336538,4.35432692 36.2423077,3.85745192 36.2603365,3.42475962 C36.3574907,3.40793521 36.4559722,3.3999698 36.5545673,3.40096154 L36.5545673,3.39807692 Z M35.3942308,3.07283654 C35.4201923,3.41105769 35.4360577,4.26634615 35.4360577,4.57788462 C35.4360577,4.86634615 35.4360577,5.82764423 35.390625,6.24230769 L35.3834135,6.27548077 L36.8891827,6.27548077 C37.6254808,6.27548077 38.4086538,6.04471154 38.4086538,5.38918269 C38.4086538,4.978125 38.1108173,4.67451923 37.5497596,4.50865385 C37.9629808,4.39759615 38.2413462,4.11634615 38.2413462,3.79326923 C38.2413462,3.25817308 37.6254808,3.05625 37.0521635,3.04254808 L35.3935096,3.04254808 L35.3942308,3.07283654 Z" id="Shape" fill="#000100" fill-rule="nonzero"></path>
            <path d="M40.2504808,3.98942308 C40.3225962,4.14014423 40.5072115,4.57067308 40.7163462,5.08485577 C40.6846154,5.08485577 40.6442308,5.08485577 40.6442308,5.08485577 L40.2490385,5.090625 C40.2490385,5.090625 39.8365385,5.08197115 39.7752404,5.08197115 C39.9432692,4.66875 40.1069712,4.30096154 40.2490385,3.98653846 L40.2504808,3.98942308 Z M40.6211538,3.03677885 L40.0161058,3.03677885 L40.0117788,3.05120192 C39.8307692,3.54014423 38.690625,6.02019231 38.5954327,6.22427885 L38.578125,6.26754808 L39.3490385,6.26754808 L39.3533654,6.24879808 C39.4175481,6.02668269 39.5069712,5.77860577 39.6079327,5.50600962 L40.2439904,5.49663462 L40.7740385,5.50456731 L40.8865385,5.50456731 C41.0264423,5.85216346 41.1295673,6.11610577 41.175,6.24735577 L41.1836538,6.26610577 L42.075,6.26610577 L40.6413462,3.03966346 L40.6211538,3.03677885 Z" id="Shape" fill="#000100" fill-rule="nonzero"></path>
            <path d="M42.3310096,3.87548077 C42.3310096,4.44302885 42.8992788,4.66875 43.4033654,4.88076923 C43.7927885,5.03653846 44.2060096,5.20168269 44.2060096,5.46923077 C44.2116368,5.54129765 44.189443,5.61278222 44.1439904,5.66899038 C44.0495192,5.78004808 43.8555288,5.82620192 43.5555288,5.81322115 C43.2555288,5.80024038 42.9165865,5.70649038 42.5358173,5.53125 L42.3865385,5.45913462 L42.3865385,6.16370192 L42.4882212,6.18966346 L42.5473558,6.19975962 C42.844229,6.2798075 43.1494034,6.32506333 43.4567308,6.33461538 C44.4057692,6.33461538 44.9711538,5.95600962 44.9711538,5.33004808 C44.9711538,4.74230769 44.3862981,4.51370192 43.8692308,4.30745192 C43.4884615,4.153125 43.0947115,4.00024038 43.0947115,3.74783654 C43.0947115,3.67572115 43.0947115,3.46370192 43.5858173,3.46370192 C43.9463942,3.46370192 44.3012019,3.60793269 44.5009615,3.68798077 L44.6834135,3.76009615 L44.6834135,3.05336538 L44.5016827,3.02091346 C44.2359107,2.96125361 43.9648669,2.92815824 43.6925481,2.92211538 C42.8747596,2.92211538 42.3310096,3.30576923 42.3310096,3.87548077" id="Path" fill="#000100"></path>
        </g>
    </g>
</svg>