<?xml version="1.0" encoding="UTF-8"?><svg width="56" height="36" viewBox="0 0 56 36" xmlns="http://www.w3.org/2000/svg" xmlns:xlink="http://www.w3.org/1999/xlink"><defs><path id="a" d="M0 0h12.16v24H0z"/></defs><g fill="none" fill-rule="evenodd"><path d="M0 3.75A3.75 3.75 0 013.75 0h48.5A3.76 3.76 0 0156 3.75v28.5A3.75 3.75 0 0152.25 36H3.75A3.76 3.76 0 010 32.25V3.75z" fill="#000" fill-rule="nonzero"/><path d="M1.25 3.75v28.5a2.5 2.5 0 002.5 2.5h48.5a2.5 2.5 0 002.5-2.5V3.75a2.5 2.5 0 00-2.5-2.5H3.75a2.5 2.5 0 00-2.5 2.5z" fill="#FFF"/><g transform="translate(4 6)"><mask id="b" fill="#fff"><use xlink:href="#a"/></mask><path d="M10.95 13.44c0 .56-.55 1.03-1.22 1.04-2.42.05-4.9.05-7.32 0-.66-.01-1.21-.48-1.22-1.04-.05-2.94.05-5.88.28-8.8.05-.57.6-1.12 1.22-1.22 2.26-.33 4.5-.33 6.76 0 .63.1 1.17.65 1.22 1.21.24 2.93.33 5.87.28 8.8zm-.53 3.14c0 .11-.12.22-.25.22-.7.05-1.4.08-2.1.1-.14.01-.25-.09-.25-.2l.02-1.22c0-.12.11-.22.25-.22.72-.01 1.43-.03 2.14-.06.13 0 .24.09.24.2l-.05 1.18zm-.1 1.92c-.01.11-.13.22-.26.23-.68.07-1.36.12-2.05.15-.13 0-.24-.08-.24-.2l.03-1.21c0-.12.12-.23.26-.23.7-.03 1.4-.06 2.1-.11.13 0 .23.08.23.2l-.07 1.17zm-.14 1.91c-.01.12-.13.23-.26.24-.66.1-1.32.16-1.98.2-.13.02-.23-.08-.23-.2l.04-1.2c0-.13.12-.23.25-.23.68-.04 1.36-.1 2.04-.16.13-.02.23.07.23.18l-.1 1.17zM10 22.32a.31.31 0 01-.25.25c-.63.12-1.27.2-1.9.26a.2.2 0 01-.21-.2l.05-1.2c0-.13.1-.23.24-.24.65-.05 1.3-.12 1.97-.21.13-.02.22.06.2.18l-.1 1.16zM7.39 16.7c0 .12-.12.22-.26.23H5.02c-.14 0-.25-.1-.26-.23l-.01-1.21c0-.12.11-.22.25-.22h2.15c.14 0 .25.1.25.22L7.4 16.7zm-.04 1.99c0 .12-.11.22-.24.22-.69.02-1.38.02-2.07 0-.13 0-.24-.1-.24-.22l-.02-1.21c0-.12.1-.22.24-.22.7.02 1.4.02 2.11 0 .14 0 .25.1.24.22 0 .4 0 .8-.02 1.2zm-.04 1.98c0 .12-.11.23-.24.23-.66.02-1.32.02-1.99 0a.25.25 0 01-.24-.23l-.03-1.2c0-.13.1-.22.24-.22.68.02 1.37.02 2.05 0 .13 0 .24.1.24.21l-.03 1.21zm-.06 1.98c0 .12-.1.22-.23.23-.63.03-1.26.03-1.89 0a.25.25 0 01-.23-.23l-.03-1.2c0-.13.1-.22.22-.21.66.02 1.31.02 1.97 0 .13 0 .23.08.23.2l-.04 1.21zm-2.95.18c-.63-.06-1.26-.14-1.9-.26a.31.31 0 01-.25-.25l-.1-1.16c-.02-.12.07-.2.2-.18.66.1 1.32.16 1.98.21.12.01.23.11.23.23l.05 1.2c0 .13-.09.22-.2.2zM1.9 19.24c-.01-.11.09-.2.22-.18.68.07 1.36.12 2.04.16.13 0 .24.1.25.23l.04 1.2c0 .12-.1.22-.23.2a28.4 28.4 0 01-1.98-.2c-.13-.01-.24-.12-.25-.24l-.1-1.17zm-.12-1.91c0-.12.1-.2.23-.2.7.05 1.4.08 2.1.11.13 0 .24.1.25.23l.03 1.2c0 .13-.1.22-.24.21-.68-.03-1.37-.08-2.05-.15-.13-.01-.25-.12-.26-.23l-.06-1.17zm-.09-1.92c0-.12.1-.21.25-.2l2.13.05c.14 0 .25.1.25.22l.02 1.21c0 .12-.1.22-.24.21-.7-.02-1.4-.05-2.1-.1-.14 0-.26-.1-.26-.22l-.05-1.17zm10.1-10.95c-.1-.9-1.03-1.88-2.04-2.08a19.58 19.58 0 00-7.05-.04l.13-1.4A.85.85 0 001.93 0c-.34 0-.67.17-.88.43-.12.13-.22.34-.29.58C.34 2.18-.64 16.14.61 21.6c.12.89 1.03 1.87 2 2.07 2.33.45 4.6.45 6.93 0a2.75 2.75 0 002-2.07c.74-5.69.82-11.43.24-17.13z" fill="#E26030" mask="url(#b)"/></g><path d="M22.44 10.05h-1.39v2.36h1.39c.9 0 1.46-.48 1.46-1.18 0-.77-.57-1.18-1.46-1.18zm-.04 3.4h-1.35v2.1h-1.19V9.01h2.68c1.58 0 2.57.86 2.57 2.2 0 1.47-1.22 2.24-2.7 2.24zM29.26 13.46c-.3-.11-.72-.2-1.17-.2-.74 0-1.17.3-1.17.8v.02c0 .46.43.73.98.73.78 0 1.36-.42 1.36-1.04v-.31zm-.03 2.1v-.61c-.35.4-.88.7-1.66.7-.96 0-1.82-.53-1.82-1.52v-.02c0-1.06.88-1.59 2.08-1.59.62 0 1.01.09 1.41.21v-.12c0-.68-.44-1.06-1.26-1.06-.57 0-1 .12-1.46.31l-.32-.9a4.52 4.52 0 011.95-.42c1.5 0 2.24.77 2.24 2.09v2.92h-1.16zM34.33 15.7c-.4 1-.86 1.38-1.69 1.38-.5 0-.85-.11-1.21-.3l.4-.84c.21.11.44.19.69.19.33 0 .53-.14.72-.58l-2.13-4.93h1.25l1.45 3.66 1.33-3.66h1.22l-2.03 5.08" fill="#0A0B09"/><path d="M42.91 11.5c-.8 0-1.49.62-1.49 1.59 0 .96.7 1.59 1.5 1.59s1.46-.61 1.46-1.6c0-.97-.67-1.58-1.47-1.58zm.27 4.16a2.1 2.1 0 01-1.73-.87v.76h-1.17V8.73h1.17v2.7c.38-.5.91-.92 1.73-.92 1.21 0 2.39.93 2.39 2.58 0 1.64-1.17 2.57-2.39 2.57zM49.26 15.7c-.4 1-.86 1.38-1.69 1.38-.5 0-.85-.11-1.2-.3l.39-.84c.21.11.44.19.69.19.33 0 .53-.14.72-.58l-2.13-4.93h1.25l1.45 3.66 1.33-3.66h1.22l-2.03 5.08" fill="#91928E"/><path fill="#0A0B09" d="M23.2 22.16h-.04l-2.13-3.07v4.68h-1.17v-6.55h1.27l2.07 3.1 2.06-3.1h1.27v6.55h-1.2v-4.7l-2.13 3.09M30.57 19.72c-.94 0-1.54.7-1.54 1.58 0 .88.65 1.6 1.56 1.6.95 0 1.55-.71 1.55-1.58 0-.88-.65-1.6-1.57-1.6zm0 4.16c-1.56 0-2.71-1.15-2.71-2.56 0-1.43 1.16-2.6 2.73-2.6s2.72 1.15 2.72 2.58c0 1.4-1.16 2.58-2.74 2.58zM37.14 19.7c-.8 0-1.5.63-1.5 1.6 0 .96.7 1.59 1.5 1.59s1.46-.61 1.46-1.6c0-.97-.67-1.58-1.46-1.58zm.27 4.17a2.1 2.1 0 01-1.74-.87v.77H34.5v-6.83h1.17v2.71c.38-.51.92-.93 1.74-.93 1.21 0 2.38.93 2.38 2.58 0 1.64-1.16 2.57-2.38 2.57zM41.06 23.77h1.17v-4.94h-1.17v4.94zm-.05-5.7h1.26v-1.08h-1.26v1.08zM43.83 23.77H45v-6.83h-1.17zM50.04 20.95c-.07-.73-.52-1.3-1.3-1.3-.71 0-1.22.53-1.32 1.3h2.62zm-1.14 2c.57 0 .98-.2 1.39-.59l.68.6c-.48.55-1.15.92-2.09.92-1.48 0-2.63-1.04-2.63-2.57a2.5 2.5 0 012.5-2.59c1.63 0 2.46 1.24 2.46 2.67l-.02.3h-3.76c.13.81.71 1.26 1.47 1.26z"/><path d="M40.55 27.2a.48.48 0 00-.35.15c-.1.1-.15.22-.15.36 0 .14.06.25.16.35.1.1.21.15.35.14.14 0 .26-.05.35-.15.1-.1.15-.21.14-.36a.49.49 0 00-.15-.35.48.48 0 00-.35-.14" fill="#E26030"/><path d="M46 28.05c-.09.1-.2.15-.35.15a.48.48 0 01-.35-.14.49.49 0 01-.15-.35c0-.14.04-.26.14-.36.1-.1.21-.15.35-.15.14 0 .26.04.36.14.1.1.14.22.15.35 0 .15-.05.26-.14.36zm-.33-1.5c-.34 0-.63.11-.86.34-.24.22-.35.5-.35.81 0 .32.11.59.34.81.24.23.52.34.85.34a1.17 1.17 0 001.19-1.15c0-.31-.12-.58-.35-.8-.23-.23-.5-.35-.82-.35zM43.44 28.06c-.1.1-.22.14-.36.14a.48.48 0 01-.35-.14.49.49 0 01-.15-.36c0-.14.05-.26.15-.35.1-.1.21-.15.35-.15.14 0 .26.05.36.14.1.1.14.22.14.36 0 .14-.05.26-.14.36zm-.34-1.5c-.2 0-.37.03-.53.1V26h-.68v1.71c0 .32.12.59.35.81.23.23.51.34.84.34a1.17 1.17 0 001.2-1.15c0-.31-.12-.58-.35-.8-.23-.23-.5-.35-.83-.35zM49.3 26.6h-.76l-.8 1.07V26h-.67v2.81h.52l.59-.76.57.76h.77l-.96-1.25.73-.94M51.16 26.6v1.1a.5.5 0 01-.16.36c-.1.1-.22.14-.36.14a.48.48 0 01-.35-.14.5.5 0 01-.16-.36v-1.1h-.68v1.1c0 .32.12.59.35.81.23.23.51.34.84.34a1.17 1.17 0 001.2-1.15v-1.1h-.68" fill="#121311"/><path d="M21.44 27.96c0-.43-.31-.7-.67-.7a.7.7 0 00-.69.7c0 .42.34.7.7.7.36 0 .66-.25.66-.7zm-.65.86a.82.82 0 01-.7-.4v.87h-.16v-2.14h.16v.36c.15-.21.36-.4.7-.4.4 0 .82.31.82.85 0 .53-.41.86-.82.86zM23.57 27.96c0-.4-.3-.7-.7-.7-.4 0-.69.31-.69.7 0 .4.3.7.7.7.4 0 .69-.3.69-.7zm-.7.86a.85.85 0 01-.87-.85c0-.47.37-.86.88-.86.5 0 .86.39.86.85 0 .46-.37.86-.87.86zM25.93 28.8h-.14l-.5-1.4-.51 1.4h-.14l-.62-1.65h.18l.5 1.43.52-1.44h.13l.51 1.44.51-1.43h.18l-.62 1.64M28.22 27.89c-.02-.33-.22-.64-.6-.64-.34 0-.6.27-.63.64h1.23zm-.56.78c.26 0 .44-.11.58-.26l.11.1a.9.9 0 01-.7.3.82.82 0 01-.83-.84v-.01c0-.47.35-.85.8-.85.48 0 .78.37.78.85v.07H27c.02.4.33.64.66.64zM29.77 27.3c-.39 0-.73.28-.73.81v.67h-.16v-1.63h.16v.46a.8.8 0 01.75-.49v.17h-.02M31.4 27.89c-.02-.33-.21-.64-.6-.64-.33 0-.6.27-.62.64h1.23zm-.56.78c.26 0 .44-.11.58-.26l.11.1a.9.9 0 01-.7.3.82.82 0 01-.83-.84v-.01c0-.47.35-.85.8-.85.48 0 .78.37.78.85v.07h-1.4c.03.4.33.64.66.64zM33.48 27.96a.7.7 0 00-.7-.7c-.36 0-.66.26-.66.7 0 .43.31.7.67.7a.7.7 0 00.69-.7zm-.01.82v-.37c-.15.22-.36.4-.7.4a.82.82 0 01-.82-.84.82.82 0 011.52-.46v-1.07h.16v2.34h-.16zM36.75 27.96c0-.43-.3-.7-.66-.7a.7.7 0 00-.7.7c0 .42.35.7.7.7.37 0 .66-.25.66-.7zm-.65.86a.82.82 0 01-.7-.4v.36h-.16v-2.34h.17v1.07c.14-.21.36-.4.7-.4.4 0 .82.31.82.85 0 .53-.42.86-.83.86zM38.12 28.84c-.15.34-.32.46-.56.46a.79.79 0 01-.34-.07l.06-.14a.6.6 0 00.29.06c.17 0 .29-.1.42-.38l-.82-1.62h.2l.7 1.46.6-1.46h.18l-.73 1.69" fill="#1A1919"/><path d="M52.43 19.05h-.02l-.43-.61v.85h-.12v-1.07h.13l.43.64.43-.64h.13v1.07h-.13v-.85l-.42.61zm-1.18.24h-.13v-.95h-.36v-.12h.85v.12h-.36v.95z" fill="#0A0B09"/></g></svg>