<?xml version="1.0" encoding="UTF-8"?><svg width="56" height="36" viewBox="0 0 56 36" xmlns="http://www.w3.org/2000/svg"><g fill="none" fill-rule="evenodd"><path d="M0 3.75A3.75 3.75 0 013.75 0h48.5A3.76 3.76 0 0156 3.75v28.5A3.75 3.75 0 0152.25 36H3.75A3.76 3.76 0 010 32.25V3.75z" fill="#000" fill-rule="nonzero"/><path d="M1.25 3.75v28.5a2.5 2.5 0 002.5 2.5h48.5a2.5 2.5 0 002.5-2.5V3.75a2.5 2.5 0 00-2.5-2.5H3.75a2.5 2.5 0 00-2.5 2.5z" fill="#FFF"/><g fill-rule="nonzero"><path d="M8.18 27.93h2.19V8.03H8.18v19.9zm2.88 0h.68V8.03h-.68v19.9zm1.27 0h1.21V8.03h-1.21v19.9zm2.38 0h.68V8.03h-.68v19.9zm.98 0h.52V8.03h-.52v19.9zm-9.17 0h.68V8.03h-.68v19.9zm-1.5 0h1.22V8.03H5.02v19.9zm14.82 0h2.18V8.03h-2.18v19.9zm2.87 0h.68V8.03h-.68v19.9zm1.27 0h1.22V8.03h-1.22v19.9zm2.39 0h.68V8.03h-.68v19.9zm.97 0h.52V8.03h-.52v19.9zm-9.17 0h.68V8.03h-.68v19.9zm-1.5 0h1.22V8.03h-1.21v19.9zm12.06 0h1.21V8.03h-1.21v19.9zm2.38 0h.68V8.03h-.68v19.9zm.97 0h.53V8.03h-.53v19.9zm2.49 0h.68V8.03h-.68v19.9zm-1.5 0h1.21V8.03h-1.2v19.9zm3.08 0h.67V8.03h-.67v19.9zm.97 0h.52V8.03h-.52v19.9zm2.48 0h.68V8.03h-.68v19.9zm-1.5 0h1.22V8.03h-1.21v19.9zm2.77 0h2.2V8.03h-2.2v19.9zm2.88 0h.68V8.03h-.68v19.9zm1.27 0h1.22V8.03h-1.22v19.9zm2.39 0h.67V8.03h-.67v19.9zm.97 0h.52V8.03h-.52v19.9zm1.38 0h1.22V8.03h-1.22v19.9z" fill="#231F20"/><path fill="#FFF" d="M7.5 27.97h41.95V16.82H7.5z"/><path d="M8.29 27.54V17.45h3.9c.8 0 1.43.1 1.9.3.49.21.86.53 1.13.95.28.43.41.87.41 1.33 0 .43-.12.84-.36 1.22s-.6.69-1.09.92a2.7 2.7 0 011.45.92c.34.43.51.94.51 1.53a2.88 2.88 0 01-1.07 2.26c-.3.21-.68.38-1.14.5-.46.1-1.01.16-1.68.16H8.3zm1.38-5.85h2.24c.61 0 1.05-.04 1.32-.11.35-.1.61-.27.79-.5.17-.24.26-.54.26-.9 0-.33-.08-.62-.25-.88-.16-.25-.4-.43-.7-.52-.31-.1-.84-.14-1.58-.14H9.67v3.05zm0 4.67h2.59c.44 0 .75-.02.93-.05.32-.05.59-.15.8-.27.21-.13.39-.32.52-.57.14-.24.2-.53.2-.85 0-.38-.09-.7-.3-.99-.19-.27-.47-.47-.82-.58a5.25 5.25 0 00-1.52-.17h-2.4v3.48zm7.72-2.47c0-1.35.39-2.36 1.16-3a3.57 3.57 0 012.37-.82c1.03 0 1.88.33 2.54 1 .65.65.98 1.55.98 2.71a4.7 4.7 0 01-.43 2.22c-.3.54-.72.95-1.27 1.25-.56.3-1.16.45-1.82.45-1.05 0-1.9-.33-2.56-.98-.65-.66-.97-1.6-.97-2.83zm1.3 0c0 .93.22 1.63.64 2.1.42.46.95.7 1.6.7.63 0 1.15-.24 1.58-.7.42-.47.63-1.19.63-2.14 0-.9-.22-1.59-.64-2.05-.42-.46-.95-.7-1.58-.7-.64 0-1.17.23-1.6.7-.41.46-.62 1.16-.62 2.09zm7.22 3.65h1.28V17.45H25.9v10.1zm8.4-2.36l1.32.16a3.1 3.1 0 01-1.16 1.74c-.56.41-1.27.62-2.15.62-1.1 0-1.97-.33-2.61-.99a3.78 3.78 0 01-.97-2.76c0-1.23.33-2.18.98-2.86a3.35 3.35 0 012.53-1.02c1 0 1.83.34 2.46 1 .64.66.96 1.6.96 2.8v.33h-5.62c.05.8.28 1.42.7 1.84.42.43.95.64 1.57.64.47 0 .87-.12 1.2-.36.33-.24.6-.62.78-1.14zm-4.19-2h4.2a2.43 2.43 0 00-.48-1.38c-.4-.47-.93-.71-1.58-.71-.59 0-1.08.19-1.48.57-.4.38-.61.89-.66 1.53zm9.9 3.26l.17 1.1a4.9 4.9 0 01-.96.1c-.47 0-.82-.07-1.08-.21a1.21 1.21 0 01-.54-.56c-.1-.24-.15-.72-.15-1.47V21.2h-.95v-.96h.95v-1.81l1.27-.74v2.55h1.28v.96h-1.28v4.28c0 .36.03.58.07.68.05.1.12.19.22.25s.25.09.44.09c.14 0 .32-.02.55-.05zm.77-2.55c0-1.35.39-2.36 1.17-3a3.57 3.57 0 012.37-.82c1.03 0 1.87.33 2.53 1 .66.65.99 1.55.99 2.71A4.7 4.7 0 0147.4 26c-.29.54-.71.95-1.27 1.25-.55.3-1.16.45-1.81.45-1.06 0-1.91-.33-2.56-.98-.65-.66-.98-1.6-.98-2.83zm1.3 0c0 .93.22 1.63.64 2.1.42.46.95.7 1.6.7.63 0 1.16-.24 1.58-.7.42-.47.63-1.19.63-2.14 0-.9-.21-1.59-.64-2.05-.42-.46-.95-.7-1.57-.7-.65 0-1.18.23-1.6.7-.42.46-.63 1.16-.63 2.09z" fill="#231F20"/></g></g></svg>