<svg width="56" height="36" viewBox="0 0 56 36" xmlns="http://www.w3.org/2000/svg"><g fill="none" fill-rule="evenodd"><path d="M0 3.75A3.75 3.75 0 013.75 0h48.5A3.76 3.76 0 0156 3.75v28.5A3.75 3.75 0 0152.25 36H3.75A3.76 3.76 0 010 32.25V3.75z" fill="#000" fill-rule="nonzero"/><path d="M1.25 3.75v28.5a2.5 2.5 0 002.5 2.5h48.5a2.5 2.5 0 002.5-2.5V3.75a2.5 2.5 0 00-2.5-2.5H3.75a2.5 2.5 0 00-2.5 2.5z" fill="#FFF"/><g fill-rule="nonzero"><g fill="#000"><path d="M9.08 21.31h2.14v6.21H9.08zM11.89 21.31h.66v6.21h-.66zM13.13 21.31h1.18v6.21h-1.18zM15.45 21.31h.66v6.21h-.66zM16.4 21.31h.51v6.21h-.5zM7.46 21.31h.66v6.21h-.66zM6 21.31h1.19v6.21H6zM20.45 21.31h2.13v6.21h-2.13zM23.25 21.31h.67v6.21h-.67zM24.5 21.31h1.18v6.21h-1.19zM26.82 21.31h.66v6.21h-.66zM27.77 21.31h.5v6.21h-.5zM18.82 21.31h.67v6.21h-.67zM17.37 21.31h1.18v6.21h-1.18zM29.11 21.31h1.19v6.21h-1.19zM31.44 21.31h.66v6.21h-.66zM32.39 21.31h.5v6.21h-.5zM34.81 21.31h.66v6.21h-.66zM33.35 21.31h1.19v6.21h-1.19zM36.35 21.31h.67v6.21h-.67zM37.3 21.31h.51v6.21h-.5zM39.72 21.31h.66v6.21h-.66zM38.26 21.31h1.19v6.21h-1.19zM40.96 21.31h2.14v6.21h-2.14zM43.77 21.31h.66v6.21h-.66zM45 21.31h1.2v6.21H45zM47.33 21.31H48v6.21h-.67zM48.28 21.31h.51v6.21h-.5zM49.63 21.31h1.19v6.21h-1.19z"/></g><path d="M7.51 13.1h.88l-1.52 6.67H6l1.51-6.67zm-.77 5.85h1.1a.8.8 0 00.48-.15.7.7 0 00.26-.42l.2-.87a.93.93 0 00.01-.43.46.46 0 00-.17-.27.53.53 0 00-.33-.1H7.24l.2-.82h1.04c.19 0 .34-.07.47-.19.13-.12.22-.3.27-.53l.16-.68c.04-.18.02-.31-.06-.41-.08-.1-.2-.15-.38-.15H7.88l.19-.82H9.1c.3 0 .56.05.75.15.2.1.33.26.4.46.06.2.07.44 0 .72l-.16.7c-.05.21-.12.4-.22.56a1.37 1.37 0 01-.89.6c.19.04.34.1.46.22.11.1.19.24.22.41.04.17.03.37-.02.6l-.2.87c-.07.3-.18.54-.33.74-.16.2-.35.36-.6.47-.23.1-.5.16-.8.16H6.55l.19-.82zM10.59 19.64a.95.95 0 01-.44-.57c-.07-.25-.07-.55.01-.9l.79-3.46c.08-.35.21-.66.4-.9.19-.26.42-.45.7-.58.27-.13.58-.2.93-.2.35 0 .63.07.85.2.22.13.36.32.43.57.08.25.07.56 0 .91l-.8 3.46c-.07.35-.2.65-.4.9-.18.25-.41.44-.69.57-.28.13-.59.2-.94.2s-.62-.07-.84-.2zm1.49-.74a.86.86 0 00.33-.28c.08-.12.15-.26.19-.43l.8-3.5a.88.88 0 000-.44.46.46 0 00-.2-.27.76.76 0 00-.41-.1c-.17 0-.31.04-.45.1a.84.84 0 00-.33.27 1.1 1.1 0 00-.18.43l-.8 3.51a.91.91 0 000 .43c.03.12.1.21.2.28a1.04 1.04 0 00.85 0zM15.45 13.1h.87l-1.52 6.67h-.87l1.52-6.67zm-.86 5.85h2.3l-.2.82H14.4l.19-.82zM18.9 13.1h.87l-1.51 6.67h-.87l1.51-6.67zm.45 0h2.41l-.19.83h-2.4l.18-.83zm-.66 2.95h2.17l-.18.82H18.5l.19-.82zm-.66 2.9h2.4l-.18.82h-2.4l.18-.82zM22.17 13.1h3.24l-.19.83H22l.18-.83zm1.06.55h.87l-1.39 6.12h-.87l1.39-6.12zM25.14 19.64a.95.95 0 01-.43-.57c-.08-.25-.07-.55 0-.9l.8-3.46c.07-.35.2-.66.4-.9.18-.26.41-.45.69-.58.28-.13.59-.2.94-.2s.63.07.84.2c.22.13.37.32.44.57.07.25.07.56-.01.91l-.79 3.46c-.08.35-.21.65-.4.9-.18.25-.42.44-.7.57-.27.13-.58.2-.93.2-.35 0-.63-.07-.85-.2zm1.49-.74a.86.86 0 00.33-.28c.09-.12.15-.26.19-.43l.8-3.5a.88.88 0 000-.44.46.46 0 00-.2-.27.76.76 0 00-.4-.1c-.17 0-.32.04-.45.1a.84.84 0 00-.33.27 1.1 1.1 0 00-.2.43l-.79 3.51a.91.91 0 000 .43c.03.12.1.21.2.28a1.04 1.04 0 00.85 0z" fill="#000"/><path d="M30 13.1h.87l-1.51 6.67h-.87L30 13.1zm-.28 3.02h1.23a.84.84 0 00.73-.34 1 1 0 00.18-.4l.15-.67c.04-.16.04-.3.01-.42a.44.44 0 00-.19-.27.7.7 0 00-.38-.1h-1.23l.19-.82h1.15c.35 0 .64.06.87.18.23.12.38.3.46.52.09.23.09.5.02.82l-.18.78c-.07.33-.2.6-.4.84-.18.23-.41.41-.7.53-.27.13-.6.19-.95.19h-1.15l.2-.84zm1 .62l.88-.2.32 3.23h-.95l-.24-3.03zM35.23 13.1h.8l.02 6.67h-.93l.2-5.3-2.21 5.3h-.94l3.06-6.67zm-1.55 4.4h1.97l-.19.82H33.5l.19-.82zm1.68-5.31l1.39-1.18.5.63-1.47 1.05-.42-.5zM38.16 13.1h.87l-1.51 6.67h-.87l1.51-6.67zm-.26 3.26h1.26c.12 0 .23-.03.33-.09.1-.05.18-.13.25-.23s.12-.23.16-.38l.23-1.02a.96.96 0 00.02-.38A.4.4 0 0040 14a.47.47 0 00-.29-.08h-1.26l.2-.83h1.23c.32 0 .57.06.77.18.2.12.32.3.39.52.06.23.06.5-.02.83l-.24 1.05c-.07.32-.19.59-.36.81-.16.22-.37.4-.62.51-.25.12-.53.18-.84.18h-1.24l.18-.82zM41.52 19.77h-.87l1.51-6.67h.87zM43.94 13.1h.87l-1.51 6.67h-.87l1.51-6.67zm-.77 5.85h1.21c.16 0 .3-.05.4-.15.1-.1.18-.23.22-.4l.89-3.92c.04-.18.03-.31-.04-.4-.06-.1-.17-.15-.33-.15H44.3l.2-.82h1.18c.3 0 .53.05.72.16.18.1.3.27.36.47.06.21.06.46 0 .76l-.89 3.88c-.06.29-.18.54-.33.75-.16.21-.36.37-.59.48-.23.1-.5.16-.8.16h-1.18l.2-.82zM47.08 19.64a.95.95 0 01-.43-.57c-.08-.25-.07-.55 0-.9l.8-3.46c.07-.35.2-.66.4-.9.18-.26.41-.45.69-.58.28-.13.59-.2.94-.2.34 0 .63.07.84.2.22.13.37.32.44.57.07.25.07.56-.01.91l-.79 3.46c-.08.35-.21.65-.4.9-.19.25-.42.44-.7.57-.27.13-.58.2-.93.2-.35 0-.63-.07-.85-.2zm1.49-.74a.86.86 0 00.33-.28c.09-.12.15-.26.19-.43l.8-3.5a.88.88 0 000-.44.46.46 0 00-.2-.27.76.76 0 00-.4-.1c-.17 0-.32.04-.45.1a.84.84 0 00-.33.27 1.1 1.1 0 00-.19.43l-.8 3.51a.91.91 0 000 .43c.03.12.1.21.2.28a1.04 1.04 0 00.85 0z" fill="#1375BB"/><g><path d="M7.83 8.24A1.2 1.2 0 007.04 8h-.57L6 11.32h.46l.18-1.3.01-.1h.4c.34 0 .6-.1.79-.3.18-.2.27-.42.27-.68 0-.3-.09-.54-.28-.7zM7.5 9.35a.62.62 0 01-.47.17h-.32l.02-.12.13-.91v-.1h.2c.2 0 .35.06.45.15.1.1.16.23.16.39s-.06.3-.17.42zM11.85 9.14l-.55 1.2-.14.3-.07-.33-.24-1.17h-.4l.4 2.01.02.04-.02.03-.58 1.23h.44l1.57-3.31z" fill="#1375BB"/><path d="M17.92 9.14l.02-.13.06-.32h-.41l-.06.36-.02.09h-.4l-.05.32h.38l-.02.13-.2 1.2a.6.6 0 00-.02.1c0 .16.05.28.16.37.1.1.24.14.42.14.15 0 .3-.03.46-.1l.02-.4a.84.84 0 01-.4.13c-.15 0-.23-.07-.23-.22 0-.04 0-.09.02-.15l.2-1.1.01-.1H18.3l.04-.32h-.42zM21.14 9.14l-.31 2.18h.41l.31-2.18zM21.25 8.62a.23.23 0 00.34 0c.04-.05.07-.1.07-.17a.23.23 0 00-.07-.17.24.24 0 00-.33 0 .23.23 0 00-.08.17c0 .06.03.12.07.17zM22.22 8l-.47 3.32h.41L22.63 8zM25.6 9.85c.08-.13.16-.22.22-.26a.4.4 0 01.22-.06c.08 0 .17.03.25.08v-.47a.46.46 0 00-.17-.04c-.1 0-.2.04-.28.1l-.07.06-.24.25.05-.34v-.03h-.4l-.31 2.19h.4l.18-1.23c.02-.05.06-.13.14-.25zM27.95 9.73V9.3a1.2 1.2 0 00-.68-.23c-.19 0-.36.06-.48.17a.59.59 0 00-.19.46c0 .1.03.2.1.3.05.1.18.22.36.35.2.13.3.22.34.28.04.05.06.1.06.16 0 .07-.02.13-.08.17a.3.3 0 01-.2.07c-.18 0-.4-.1-.68-.32l-.07.4c.26.19.52.29.76.29.2 0 .36-.07.49-.19s.19-.28.19-.47c0-.1-.03-.22-.1-.33-.06-.1-.19-.22-.38-.34-.2-.13-.3-.22-.34-.27a.23.23 0 01-.05-.13.2.2 0 01.08-.16.34.34 0 01.21-.07c.19 0 .41.1.66.3z" fill="#8DB73B"/><path d="M9.54 9.07c-.47 0-.84.13-1.1.4-.26.27-.39.62-.39 1.03 0 .24.07.45.21.62a.64.64 0 00.9.12l.21-.14-.04.23h.42l.3-2.2a1.86 1.86 0 00-.51-.06zm.05.48l-.16 1.12v.03l-.03.03-.16.15c-.12.1-.23.15-.34.15-.11 0-.21-.05-.3-.17a.72.72 0 01-.12-.43c0-.26.08-.48.25-.7.18-.2.42-.3.75-.3h.12l-.01.12z" fill="#1375BB"/><path d="M14.04 9.83l-.09-.11.14-.06a.9.9 0 00.33-.25.79.79 0 00.18-.5.92.92 0 00-.23-.65c-.16-.17-.45-.26-.9-.26h-.6l-.47 3.32h.46l.2-1.37v-.1h.18c.17 0 .3.06.39.16.08.1.18.28.3.52l.39.8h.47l-.6-1.25c-.04-.1-.1-.19-.15-.25zm-.1-.52c-.14.1-.33.15-.58.15h-.23l.01-.12.12-.85.01-.1h.26c.4 0 .6.17.6.49 0 .18-.06.32-.2.43zM16.04 9.07a.93.93 0 00-.74.37c-.2.24-.3.54-.3.9 0 .32.09.57.25.77.17.19.4.29.67.29.26 0 .5-.09.73-.25l.06-.4c-.27.2-.51.3-.72.3a.54.54 0 01-.4-.17.66.66 0 01-.17-.48v-.11l.01-.1h1.37l.02-.2a.98.98 0 00-.22-.66.7.7 0 00-.56-.26zm.26.83H15.48l.08-.16c.17-.33.39-.33.46-.33.12 0 .22.04.3.13.04.06.07.14.09.24l.02.12h-.13zM20.09 9.07c-.47 0-.84.13-1.1.4-.26.27-.39.62-.39 1.03 0 .24.07.45.21.62.14.17.31.25.52.25a.7.7 0 00.38-.13l.21-.14-.03.23h.4l.32-2.2a1.9 1.9 0 00-.52-.06zm.05.48l-.16 1.12v.03l-.03.03-.16.15c-.12.1-.23.15-.34.15-.12 0-.22-.06-.3-.17a.72.72 0 01-.12-.43c0-.26.08-.49.25-.7.17-.2.42-.3.74-.3h.13l-.01.12zM23.78 9.07a.92.92 0 00-.74.37c-.2.24-.3.54-.3.9 0 .32.08.57.25.77.17.19.39.29.67.29.26 0 .5-.09.73-.25l.06-.4c-.28.2-.52.3-.72.3a.54.54 0 01-.41-.17.66.66 0 01-.17-.48v-.11l.02-.1h1.37l.01-.2c0-.27-.07-.5-.22-.66a.7.7 0 00-.55-.26zm.25.83h-.81l.08-.16c.16-.33.38-.33.45-.33.13 0 .23.04.3.13a.5.5 0 01.1.24l.01.12h-.13z" fill="#8DB73B"/></g></g></g></svg>