<?xml version="1.0" encoding="UTF-8"?>
<svg width="56px" height="36px" viewBox="0 0 56 36" version="1.1" xmlns="http://www.w3.org/2000/svg" xmlns:xlink="http://www.w3.org/1999/xlink">
    <!-- Generator: Sketch 53.2 (72643) - https://sketchapp.com -->
    <title>bos-bank</title>
    <desc>Created with Sketch.</desc>
    <g id="bos-bank" stroke="none" stroke-width="1" fill="none" fill-rule="evenodd">
        <g id="Base">
            <path d="M0,3.75075247 C0,1.67926908 1.67596877,0 3.75035585,0 L52.2496442,0 C54.3209085,0 56,1.68806916 56,3.75075247 L56,32.2492475 C56,34.3207309 54.3240312,36 52.2496442,36 L3.75035585,36 C1.67909151,36 0,34.3119308 0,32.2492475 L0,3.75075247 Z" id="Rectangle-2" fill="#000000" fill-rule="nonzero"></path>
            <path d="M1.25,3.75075247 L1.25,32.2492475 C1.25,33.6250965 2.37296468,34.75 3.75035585,34.75 L52.2496442,34.75 C53.6324061,34.75 54.75,33.6316447 54.75,32.2492475 L54.75,3.75075247 C54.75,2.37490355 53.6270353,1.25 52.2496442,1.25 L3.75035585,1.25 C2.36759386,1.25 1.25,2.36835527 1.25,3.75075247 Z" id="Path" fill="#FFFFFF"></path>
        </g>
        <g id="logo-bos-bank" transform="translate(9.000000, 5.000000)" fill="#008054">
            <path d="M0.734237288,22.0192547 L0.734237288,26 L2.68898305,26 C3.72110169,26 4.34745763,25.688323 4.37161017,24.8243478 C4.39758557,24.3945253 4.12143699,24.0046287 3.70822034,23.8877019 C4.02215656,23.7086993 4.21954361,23.3777315 4.22830508,23.0156522 C4.22830508,22.3357764 3.66635593,22.0192547 2.65677966,22.0192547 L0.734237288,22.0192547 Z M2.03686441,22.949441 L2.53601695,22.949441 C2.94016949,22.949441 3.00940678,23.0576398 3.00940678,23.2643478 C3.00940678,23.4710559 2.87576271,23.6196273 2.58110169,23.6196273 L2.03686441,23.6196273 L2.03686441,22.9510559 L2.03686441,22.949441 Z M2.03686441,24.3398758 L2.44101695,24.3398758 C3.00135593,24.3398758 3.15271186,24.406087 3.16398305,24.7209938 C3.16398305,24.9163975 3.05449153,25.0730435 2.63584746,25.0730435 L2.03525424,25.0730435 L2.03525424,24.3382609 L2.03686441,24.3398758 Z" id="Shape"></path>
            <path d="M12.4482203,22.0192547 L11.0264407,26 L12.2952542,26 L12.4562712,25.4719255 L13.7444068,25.4719255 L13.9054237,26 L15.1935593,26 L13.7766102,22.0192547 L12.4482203,22.0192547 Z M12.6865254,24.6434783 L13.0922881,23.2207453 L13.5109322,24.6434783 L12.6865254,24.6434783 Z" id="Shape"></path>
            <polygon id="Path" points="22.2380508 22.0192547 22.2380508 26 23.4827119 26 23.4827119 24.7387578 23.4424576 23.832795 24.8497458 26 26.0799153 26 26.0799153 22.0192547 24.8320339 22.0192547 24.8320339 23.3063354 24.8738983 24.1929193 23.465 22.0192547 22.2380508 22.0192547"></polygon>
            <polygon id="Path" points="33.2983051 22.0192547 33.2983051 26 34.6025424 26 34.6025424 24.7387578 34.9084746 24.4157764 35.8697458 26 37.4235593 26 35.8262712 23.5227329 37.2625424 22.0192547 35.7554237 22.0192547 34.6025424 23.3063354 34.6025424 22.0192547 33.2983051 22.0192547"></polygon>
            <path d="M37.0338983,4.21167702 C36.0868864,4.02135018 35.1252728,3.91328936 34.1597458,3.88869565 C32.8571186,3.88869565 31.8217797,4.07440994 31.0199153,4.53465839 C30.2180508,4.99490683 29.6222881,6.09627329 29.6222881,6.67279503 C29.6222881,7.24931677 29.839661,7.78062112 30.1761864,8.31192547 C30.4496392,8.7332544 30.7741513,9.11893255 31.1422881,9.46012422 C31.464322,9.8089441 33.6750847,11.4335404 33.9117797,11.6515528 C34.4978814,12.1973913 34.8215254,12.652795 34.8215254,13.2131677 C34.8215254,13.5361491 34.5832203,13.8591304 34.1533051,14.1078261 C33.7813559,14.3226087 33.2210169,14.4518012 32.5061017,14.4518012 C31.3387288,14.4518012 30.4128814,14.2144099 29.4757627,13.5426087 L29.8444915,15.8874534 C31.0134746,16.2104348 32.1583051,16.4510559 33.325678,16.4510559 C34.1516949,16.4510559 35.1435593,16.3008696 35.7618644,16.0392547 C36.3801695,15.7776398 36.9195763,15.4498137 37.2432203,14.9992547 C37.6128103,14.5678173 37.8261623,14.0237623 37.8486441,13.4554037 C37.8486441,12.7836025 37.6119492,12.1085714 37.0258475,11.3301863 C36.8100847,11.110559 36.5605085,10.7746584 36.3028814,10.5792547 C35.9470339,10.3192547 34.3883898,9.11291925 34.0212712,8.87714286 C33.6864835,8.65528837 33.3737445,8.40165714 33.0873729,8.11975155 C32.7411864,7.66273292 32.6139831,7.31229814 32.6139831,6.98931677 C32.6139831,6.6663354 32.7637288,6.32881988 33.1952542,6.04944099 C33.4222881,5.90409938 34.1516949,5.77490683 34.8183051,5.77490683 C35.5316102,5.77490683 36.565339,5.90248447 37.3462712,6.24968944 L37.0242373,4.21329193 L37.0338983,4.21167702 Z" id="Path"></path>
            <polygon id="Path" points="33.515678 2.04285714 32.8442373 3.53826087 34.3610169 3.53826087 35.6137288 2.04285714 33.515678 2.04285714"></polygon>
            <path d="M9.51449153,10.0980124 C9.51093961,4.61285016 13.9409887,0.163026303 19.4100593,0.158273003 C24.8791299,0.153519703 29.3168619,4.59563636 29.3227887,10.0807966 C29.3287155,15.5659568 24.9005934,20.0177096 19.4315254,20.0248447 C13.9590513,20.0275221 9.51982467,15.5817406 9.51449153,10.0931677 M19.4315254,18.0368944 C23.8083109,18.0333262 27.3535959,14.472067 27.3503353,10.0824042 C27.3470747,5.69274136 23.7965032,2.13678388 19.4197173,2.139756 C15.0429314,2.14272812 11.4971643,5.70350449 11.4998305,10.0931677 C11.5011111,12.20154 12.3375405,14.223025 13.8250682,15.7128092 C15.312596,17.2025935 17.3293383,18.0386082 19.4315254,18.0368944" id="Shape"></path>
            <path d="M16.1016949,16.1700621 C16.5702542,15.7937888 17.6490678,15.0832298 17.9163559,14.0900621 C18.0081356,13.2067081 15.6814407,13.2632298 15.2354237,13.7525466 C15.1033898,13.1162733 15.1066102,12.1973913 13.9263559,12.4864596 C13.8426271,11.5643478 13.8732203,11.1218634 13.0810169,10.5485714 C15.1194915,10.3709317 15.1951695,9.52795031 13.5640678,7.62881988 C14.5301695,7.42695652 14.5060169,7.28 14.2419492,5.96869565 C15.2966102,6.62111801 15.940678,6.41440994 16.5847458,5.37279503 C17.8358475,7.35751553 19,7.1152795 18.5298305,5.04981366 C19.2544068,5.42447205 19.7100847,5.02881988 19.9419492,4.4668323 C20.3992373,4.7510559 20.8307627,4.4668323 21.2300847,3.93229814 C21.2300847,4.44099379 21.6712712,5.33242236 22.5005085,5.30173913 C22.0770339,5.92509317 22.6357627,6.31428571 23.0318644,6.34819876 C21.375,8.38621118 22.4747458,9.18397516 24.3055085,7.5157764 C24.1332203,8.68819876 24.4133898,8.94981366 25.7900847,8.92074534 C25.2619492,9.73950311 24.8577966,10.3951553 25.4873729,11.213913 C24.4536441,11.5772671 21.8918644,12.392795 24.5921186,13.4828571 C23.7870339,13.7154037 23.3973729,14.4308075 23.5100847,14.8426087 C22.4892373,14.3226087 21.9611017,14.8878261 22.0979661,15.8906832 C21.2928814,15.9908075 19.4444068,14.8700621 18.9066102,14.2531677 C18.7455932,14.0690683 18.5201695,13.9850932 18.4042373,14.1691925 C17.9211864,15.2108075 17.6216949,15.4772671 17.1354237,16.3686957 C16.8067887,16.2364321 16.4558008,16.1689889 16.1016949,16.1700621" id="Path"></path>
            <path d="M0.151355932,3.98236025 L4.82084746,3.98236025 C5.48948605,3.98836716 6.14599057,4.16213654 6.73050847,4.48782609 C7.26508475,4.81080745 7.45186441,4.99490683 7.72881356,5.52136646 C7.97814126,5.95395083 8.11025776,6.4444428 8.1120339,6.94409938 C8.13126591,7.47571557 8.03340692,8.00504718 7.82542373,8.49440994 C7.49782307,9.15031577 6.9405873,9.6620431 6.26033898,9.93167702 C7.13949153,9.88968944 8.31169492,10.7536646 8.6240678,11.3850932 C8.8553312,11.8261348 8.98932078,12.3118992 9.01694915,12.809441 C9.03788136,13.2486957 9.00728814,13.9398758 8.835,14.3613665 C8.69113571,14.7462955 8.45039287,15.0873313 8.13618644,15.3513043 C7.78245316,15.6707506 7.37084782,15.9190982 6.92372881,16.0828571 C6.44067797,16.2798758 5.8529661,16.310559 5.22016949,16.310559 L0.148135593,16.310559 L0.148135593,3.98236025 L0.151355932,3.98236025 Z M4.76127119,14.6003727 C5.21372881,14.6003727 5.92864407,14.4195031 6.24101695,14.0642236 C6.52850594,13.690559 6.68017683,13.2296498 6.6709322,12.757764 C6.68747939,12.3080856 6.53325387,11.8688657 6.23940678,11.5288199 C5.95118644,11.2058385 5.24271186,11.023354 4.75966102,11.0120497 L2.41525424,11.0120497 L2.41525424,14.6003727 L4.76127119,14.6003727 Z M4.38127119,9.10968944 C4.84849922,9.07900473 5.2878618,8.87593514 5.61466102,8.53962733 C5.91750018,8.18738942 6.08281754,7.73702284 6.08,7.27192547 C6.07937239,6.86853565 5.91343984,6.48314025 5.62110169,6.20608696 C5.27253943,5.91475338 4.8333932,5.75480174 4.37966102,5.75391304 L2.40076271,5.75391304 L2.40076271,9.11291925 L4.38127119,9.10968944 Z" id="Shape"></path>
        </g>
    </g>
</svg>