<?xml version="1.0" encoding="UTF-8"?><svg width="56" height="36" viewBox="0 0 56 36" xmlns="http://www.w3.org/2000/svg"><g fill="none" fill-rule="evenodd"><path d="M0 3.75A3.75 3.75 0 013.75 0h48.5A3.76 3.76 0 0156 3.75v28.5A3.75 3.75 0 0152.25 36H3.75A3.76 3.76 0 010 32.25V3.75z" fill="#000" fill-rule="nonzero"/><path d="M1.25 3.75v28.5a2.5 2.5 0 002.5 2.5h48.5a2.5 2.5 0 002.5-2.5V3.75a2.5 2.5 0 00-2.5-2.5H3.75a2.5 2.5 0 00-2.5 2.5z" fill="#FFF"/><g transform="translate(4 7)"><rect fill="#142C61" x=".98" y="1" width="46.04" height="20" rx=".97"/><path d="M43.57 5.2l-1.11-.01c-.27 0-.58.05-.72.46l-.54.94-2.13 3.73-2.14-3.73-.53-.94c-.15-.41-.46-.46-.72-.46h-1.12c-.59 0-.36.45-.36.45l3.92 6.86-.03 3.9c0 .25.14.4.41.4h1.02c.19 0 .5-.01.5-.4v-3.9l3.91-6.86s.23-.45-.36-.45zm2.7 15.53H1.7c-.25-.02-.42-.2-.42-.41V6.7h2.78v10.92c0 .28.16.43.4.46h6.35a3.95 3.95 0 002.03-7.33 3.62 3.62 0 001.23-2.6c0-2.64-1.9-4.13-4.6-4.13H6.87V1.28h39.4c.35 0 .45.22.45.44v18.56c0 .22-.11.44-.45.45zM1.66 1.28h2.4v2.74H1.3V1.7c0-.22.16-.4.38-.41zM9.85 6.7c.79 0 1.43.67 1.43 1.45 0 .78-.64 1.42-1.43 1.42l-.75.02c-.25 0-.21-.02-.21.3v2.07c.01.23-.05.22.21.22h1.54c.86 0 1.56.7 1.56 1.54 0 .8-.63 1.46-1.42 1.52H7.26c-.26 0-.43-.15-.45-.43V6.7h3.04zM47.09.02H.9C.41.02.02.42.02.9v20.2c0 .49.4.88.88.88h46.2c.48 0 .88-.4.88-.88V.9c0-.48-.4-.88-.89-.88zM18.9 10.78V7.11h2.75c1.03 0 1.86.82 1.86 1.83 0 1.02-.83 1.84-1.86 1.84h-2.75zm-1.5-5.58c-.38 0-.43.3-.43.5v10.69c0 .44.41.42.46.42h1.09c.18 0 .38-.15.38-.35v-3.83h2.77a3.74 3.74 0 003.77-3.72c0-2.04-1.68-3.7-3.76-3.7h-4.28zm10.94 7.3l1.93-5.4 2.05 5.4h-3.98zm2.63-7.3h-1.4c-.52 0-.62.2-.77.5-.13.28-4.02 10.66-4.02 10.66s-.23.45.36.45h.98c.27 0 .57-.05.72-.46l.7-1.95H33l.7 1.95c.15.42.46.47.73.47l.98-.01c.58 0 .35-.45.35-.45S31.87 5.98 31.74 5.69c-.15-.3-.25-.48-.78-.48z" fill-rule="nonzero" fill="#FFF"/></g></g></svg>