<?xml version="1.0" encoding="UTF-8"?><svg width="56" height="36" viewBox="0 0 56 36" xmlns="http://www.w3.org/2000/svg"><g fill="none" fill-rule="evenodd"><path d="M0 3.75A3.75 3.75 0 013.75 0h48.5A3.76 3.76 0 0156 3.75v28.5A3.75 3.75 0 0152.25 36H3.75A3.76 3.76 0 010 32.25V3.75z" fill="#000" fill-rule="nonzero"/><path d="M1.25 3.75v28.5a2.5 2.5 0 002.5 2.5h48.5a2.5 2.5 0 002.5-2.5V3.75a2.5 2.5 0 00-2.5-2.5H3.75a2.5 2.5 0 00-2.5 2.5z" fill="#FFF"/><path fill="#CC2229" fill-rule="nonzero" d="M17 5h21.93v21.65h-9.07v-8.97h-1.99v8.97h-1.05v-6.12h-1v6.12H17z"/><path d="M17.75 12.55L21.22 11c4.66-6.46 10.71-4.02 12.87-.93-5.02-3.2-8.72-1.56-10.57.62 14.09-1.45 17.6 7.08 10 10.2 6.74-5.37-1.82-9.77-10.74-9.33-2.15 3.94-1.44 6.84.56 9.46-2.16-1.64-3.59-4.04-2.43-9.15l-3.16.68z" fill="#FFF"/><path d="M20.44 28.97h.84l.01.33c.24-.37.58-.5 1-.39l-.1.91c-.42-.17-.68.04-.85.5v1.6h-.9v-2.95zm-3.15-.99v3.91h1.47c1.55.05 1.55-1.58.67-2.02.82-.43.62-1.88-.65-1.88h-1.5zm.96.79h.4c.46.04.44.72 0 .75h-.4v-.75zm0 1.54h.42c.5.04.49.78 0 .82h-.42v-.82zm8.91-2.43h.9v4.02h-.84v-.38c-.93.96-1.92.19-1.95-1.15.05-1.23.89-1.9 1.9-1.13v-1.36zm-4.49 1.25l.01.7c.6-.33 1.32-.38 1.32.2-.97-.07-1.62.18-1.6 1.05 0 .74.89 1.17 1.64.53l.02.3h.82c.02-.91.02-1.63-.05-2.14-.25-.85-.92-1.1-2.16-.64zm1.33 1.5c-.01.3-.1.5-.26.57-.3.14-.64-.13-.41-.41.1-.13.32-.2.67-.17z" fill="#000" fill-rule="nonzero"/><path d="M26.68 29.7c.25 0 .46.33.46.74 0 .4-.2.73-.46.73s-.47-.33-.47-.73c0-.4.21-.73.47-.73z" fill="#FFF"/><path d="M29.36 30.76l1.68.02c.16-1.07-.42-1.88-1.22-1.9-1.67-.12-1.93 3 0 3.1.34 0 .7-.05 1.04-.17l-.03-.82c-.96.6-1.4.13-1.47-.23zm3.84-.9l.1-.81c-1.2-.41-1.95.1-1.98.76 0 1.07 1.32.78 1.2 1.3-.25.28-.67.1-1.09-.12l-.08.82c1.13.31 1.91.2 2.08-.7.1-1.2-1.22-.92-1.21-1.36 0-.22.55-.26.98.11zm2.56 0l.06-.8c-1-.43-2.16.04-2.16 1.4.03 1.3 1.11 1.8 2.2 1.38l-.04-.85c-.63.5-1.2.08-1.22-.55-.02-.54.35-1.05 1.16-.57zm1.85-.96c-.89.03-1.45.45-1.47 1.56.01.74.38 1.53 1.46 1.52.66.04 1.44-.44 1.4-1.53-.04-.76-.34-1.5-1.39-1.55zm-.04.74c.27 0 .48.35.48.78 0 .43-.21.78-.48.78s-.48-.35-.48-.78c0-.43.21-.78.48-.78z" fill="#000" fill-rule="nonzero"/><path d="M29.34 30.1l.9.02c-.02-.74-.86-.67-.9-.02z" fill="#FFF"/></g></svg>