<?xml version="1.0" encoding="UTF-8"?>
<svg width="56px" height="36px" viewBox="0 0 56 36" version="1.1" xmlns="http://www.w3.org/2000/svg" xmlns:xlink="http://www.w3.org/1999/xlink">
    <!-- Generator: Sketch 53.2 (72643) - https://sketchapp.com -->
    <title>przelew24</title>
    <desc>Created with Sketch.</desc>
    <g id="przelew24" stroke="none" stroke-width="1" fill="none" fill-rule="evenodd">
        <g id="Base">
            <path d="M0,3.75075247 C0,1.67926908 1.67596877,0 3.75035585,0 L52.2496442,0 C54.3209085,0 56,1.68806916 56,3.75075247 L56,32.2492475 C56,34.3207309 54.3240312,36 52.2496442,36 L3.75035585,36 C1.67909151,36 0,34.3119308 0,32.2492475 L0,3.75075247 Z" id="Rectangle-2" fill="#000000" fill-rule="nonzero"></path>
            <path d="M1.25,3.75075247 L1.25,32.2492475 C1.25,33.6250965 2.37296468,34.75 3.75035585,34.75 L52.2496442,34.75 C53.6324061,34.75 54.75,33.6316447 54.75,32.2492475 L54.75,3.75075247 C54.75,2.37490355 53.6270353,1.25 52.2496442,1.25 L3.75035585,1.25 C2.36759386,1.25 1.25,2.36835527 1.25,3.75075247 Z" id="Path" fill="#FFFFFF"></path>
        </g>
        <g id="Banco_Santander" transform="translate(6.000000, 12.000000)">
            <rect id="Rectangle" fill="#FE0000" x="0.178571429" y="0.253571429" width="44.6428571" height="12.5"></rect>
            <path d="M7.21214286,2.62714286 C7.21214286,3.47857143 8.66035714,4.42392857 8.66035714,5.39625 C8.66035714,5.39625 8.66035714,5.49 8.62017857,5.59053571 C9.97446429,5.87214286 10.9333929,6.53589286 10.9333929,7.31375 C10.9333929,8.35964286 9.22357143,9.21785714 7.10482143,9.22446429 C7.09142857,9.23125 7.07803571,9.22446429 7.06464286,9.22446429 C4.96607143,9.22446429 3.26303571,8.39303571 3.26303571,7.35392857 C3.26303571,6.57625 4.30232143,5.94589286 5.55607143,5.61071429 C5.55607143,6.03982143 6.98428571,7.40089286 7.01767857,7.95071429 C7.01767857,7.95071429 7.02446429,7.9975 7.02446429,8.05125 C7.02446429,8.07803571 7.02446429,8.10482143 7.01767857,8.13160714 C7.32607143,7.97071429 7.32607143,7.46785714 7.32607143,7.46785714 C7.32607143,6.27446429 5.93821429,5.74482143 5.93821429,4.57142857 C5.93821429,4.11553571 6.15285714,3.78035714 6.34714286,3.68642857 L6.34714286,4.015 C6.34714286,4.86642857 7.84910714,5.81857143 7.84910714,6.59625 L7.84910714,6.85107143 C8.19767857,6.71696429 8.19767857,6.08 8.19767857,6.08 C8.19767857,5.00732143 6.80321429,4.41053571 6.80321429,3.18357143 C6.80321429,2.72767857 7.01767857,2.3925 7.21214286,2.29857143 L7.21214286,2.62714286" id="Path" fill="#FFFFFF"></path>
            <g id="Group" transform="translate(12.589286, 3.557143)" fill="#FFFFFF">
                <path d="M1.39464286,5.33875 C0.66375,5.33875 0.134107143,5.13107143 0.134107143,5.13107143 L0.134107143,3.86375 L0.315178571,3.86375 C0.409107143,4.53428571 0.918571429,5.04375 1.50196429,5.04375 C2.08517857,5.04375 2.49428571,4.72196429 2.49428571,4.2125 C2.49428571,3.66946429 1.95107143,3.42125 1.58910714,3.24035714 L1.06607143,2.97875 C0.57,2.73071429 0.167678571,2.32839286 0.167678571,1.76535714 C0.167678571,1.06125 0.690535714,0.457857143 1.68964286,0.457857143 C2.37357143,0.457857143 2.93678571,0.685892857 2.93678571,0.685892857 L2.93678571,1.81892857 L2.75571429,1.81892857 C2.64839286,1.21553571 2.31321429,0.739464286 1.62928571,0.739464286 C1.11964286,0.739464286 0.818035714,1.08803571 0.818035714,1.44339286 C0.818035714,1.90607143 1.13982143,2.11392857 1.51535714,2.30160714 L2.03821429,2.56303571 C2.51428571,2.80446429 3.10428571,3.20678571 3.10428571,3.89071429 C3.10428571,4.76232143 2.50089286,5.33875 1.39464286,5.33875" id="Path"></path>
                <path d="M4.77392857,3.95785714 C4.63303571,4.01821429 4.385,4.13214286 4.385,4.45392857 C4.385,4.62839286 4.48553571,4.91 4.83428571,4.91 C5.00178571,4.91 5.23642857,4.81607143 5.40410714,4.68196429 L5.40410714,3.68964286 L4.77392857,3.95785714 L4.77392857,3.95785714 Z M4.49892857,5.31214286 C4.04303571,5.31214286 3.74803571,5.01053571 3.74803571,4.56125 C3.74803571,4.23946429 3.98267857,3.99142857 4.49892857,3.80375 L5.40410714,3.47517857 L5.40410714,3.19357143 C5.40410714,2.77107143 5.20964286,2.50964286 4.91464286,2.50964286 C4.71357143,2.50964286 4.51232143,2.61017857 4.41178571,2.77107143 C4.37160714,2.83142857 4.36482143,2.91857143 4.36482143,2.98571429 C4.36482143,3.09964286 4.43857143,3.23375 4.43857143,3.23375 L3.99607143,3.435 C3.9425,3.34107143 3.87535714,3.20017857 3.87535714,3.05946429 C3.87535714,3.03267857 3.88214286,3.00571429 3.88214286,2.98571429 C3.91571429,2.74428571 4.12357143,2.58339286 4.40517857,2.41571429 C4.68,2.24821429 4.91464286,2.20125 5.08232143,2.20125 C5.92714286,2.20125 6.07464286,2.87178571 6.07464286,3.09303571 L6.07464286,4.48089286 C6.07464286,4.70214286 6.09464286,4.84285714 6.27571429,4.84285714 C6.32946429,4.84285714 6.36285714,4.84285714 6.43660714,4.81607143 L6.5975,4.7625 L6.5975,4.96357143 L5.65892857,5.31214286 C5.51803571,5.21160714 5.45107143,5.03053571 5.42428571,4.87642857 C5.20303571,5.06392857 4.82071429,5.31214286 4.49892857,5.31214286 L4.49892857,5.31214286 Z" id="Shape" fill-rule="nonzero"></path>
                <path d="M6.80535714,5.24517857 L6.80535714,5.08428571 L7.02660714,5.04392857 C7.16071429,5.01714286 7.25446429,4.91660714 7.25446429,4.7825 L7.25446429,2.99214286 C7.25446429,2.83803571 7.18071429,2.7575 7.04660714,2.7575 C6.99964286,2.7575 6.94607143,2.76428571 6.8925,2.78428571 L6.80535714,2.81785714 L6.80535714,2.61678571 L7.77089286,2.20107143 L7.91160714,2.20107143 L7.91160714,2.69714286 C8.20660714,2.36875 8.55517857,2.20107143 8.86375,2.20107143 C9.5475,2.20107143 9.87607143,2.69053571 9.87607143,3.26035714 L9.87607143,4.78232143 C9.87607143,4.91642857 9.97660714,5.02375 10.1107143,5.04375 L10.33875,5.08410714 L10.33875,5.245 L8.74303571,5.245 L8.74303571,5.08410714 L8.96428571,5.04375 C9.09839286,5.01696429 9.20571429,4.91642857 9.20571429,4.78232143 L9.20571429,3.26714286 C9.20571429,3.06589286 9.15196429,2.61678571 8.61553571,2.61678571 C8.32053571,2.61678571 8.0725,2.79785714 7.925,2.93178571 L7.925,4.78232143 C7.925,4.91642857 8.03232143,5.01696429 8.16642857,5.04375 L8.38767857,5.08410714 L8.38767857,5.245 L6.80535714,5.245" id="Path"></path>
                <path d="M12.6517857,2.61 L11.7132143,2.61 L11.7132143,4.27285714 C11.7132143,4.64160714 11.9075,4.84267857 12.1892857,4.84267857 C12.3032143,4.84267857 12.4842857,4.80910714 12.6517857,4.71535714 L12.7255357,4.87625 L12.1221429,5.25839286 C12.1221429,5.25839286 12.0014286,5.27857143 11.9410714,5.27857143 C11.3578571,5.27857143 11.0426786,4.93660714 11.0426786,4.2125 L11.0426786,2.61 L10.5532143,2.61 L10.5532143,2.4425 C10.5532143,2.4425 11.2907143,2.16089286 11.5791071,1.47035714 L11.7132143,1.47035714 L11.7132143,2.32178571 L12.7725,2.32178571 L12.6517857,2.61" id="Path"></path>
                <path d="M14.0582143,3.95785714 C13.9175,4.01821429 13.6692857,4.13214286 13.6692857,4.45392857 C13.6692857,4.62839286 13.77,4.91 14.1185714,4.91 C14.28625,4.91 14.5208929,4.81607143 14.6883929,4.68196429 L14.6883929,3.68964286 L14.0582143,3.95785714 L14.0582143,3.95785714 Z M13.7833929,5.31214286 C13.3275,5.31214286 13.0323214,5.01053571 13.0323214,4.56125 C13.0323214,4.23946429 13.2671429,3.99142857 13.7833929,3.80375 L14.6883929,3.47517857 L14.6883929,3.19357143 C14.6883929,2.77107143 14.4941071,2.50964286 14.1991071,2.50964286 C13.9978571,2.50964286 13.7967857,2.61017857 13.6960714,2.77107143 C13.6558929,2.83142857 13.6492857,2.91857143 13.6492857,2.98571429 C13.6492857,3.09964286 13.7230357,3.23375 13.7230357,3.23375 L13.2805357,3.435 C13.2267857,3.34107143 13.1598214,3.20017857 13.1598214,3.05946429 C13.1598214,3.03267857 13.1664286,3.00571429 13.1664286,2.98571429 C13.2,2.74428571 13.4078571,2.58339286 13.6894643,2.41571429 C13.9644643,2.24821429 14.1991071,2.20125 14.3666071,2.20125 C15.21125,2.20125 15.3589286,2.87178571 15.3589286,3.09303571 L15.3589286,4.48089286 C15.3589286,4.70214286 15.3791071,4.84285714 15.5601786,4.84285714 C15.6139286,4.84285714 15.6473214,4.84285714 15.7210714,4.81607143 L15.8819643,4.7625 L15.8819643,4.96357143 L14.9430357,5.31214286 C14.8023214,5.21160714 14.7351786,5.03053571 14.7085714,4.87642857 C14.4873214,5.06392857 14.1051786,5.31214286 13.7833929,5.31214286 L13.7833929,5.31214286 Z" id="Shape" fill-rule="nonzero"></path>
                <path d="M16.0896429,5.24517857 L16.0896429,5.08428571 L16.3108929,5.04392857 C16.445,5.01714286 16.53875,4.91660714 16.53875,4.7825 L16.53875,2.99214286 C16.53875,2.83803571 16.465,2.7575 16.3310714,2.7575 C16.2841071,2.7575 16.2305357,2.76428571 16.1767857,2.78428571 L16.0896429,2.81785714 L16.0896429,2.61678571 L17.0551786,2.20107143 L17.1958929,2.20107143 L17.1958929,2.69714286 C17.4908929,2.36875 17.8396429,2.20107143 18.1480357,2.20107143 C18.8319643,2.20107143 19.1603571,2.69053571 19.1603571,3.26035714 L19.1603571,4.78232143 C19.1603571,4.91642857 19.2610714,5.02375 19.3951786,5.04375 L19.6228571,5.08410714 L19.6228571,5.245 L18.0271429,5.245 L18.0271429,5.08410714 L18.2483929,5.04375 C18.3825,5.01696429 18.4898214,4.91642857 18.4898214,4.78232143 L18.4898214,3.26714286 C18.4898214,3.06589286 18.4360714,2.61678571 17.8998214,2.61678571 C17.6048214,2.61678571 17.3566071,2.79785714 17.2091071,2.93178571 L17.2091071,4.78232143 C17.2091071,4.91642857 17.3164286,5.01696429 17.4505357,5.04375 L17.6717857,5.08410714 L17.6717857,5.245 L16.0896429,5.245" id="Path"></path>
                <path d="M21.6276786,2.48267857 C21.145,2.48267857 20.6489286,2.79107143 20.6489286,3.68946429 C20.6489286,4.44035714 21.0244643,4.89625 21.6142857,4.89625 C21.9696429,4.89625 22.1908929,4.68857143 22.2446429,4.58125 L22.2446429,2.83803571 C22.1575,2.61678571 21.9092857,2.48267857 21.6276786,2.48267857 L21.6276786,2.48267857 Z M21.3258929,5.31214286 C20.6958929,5.31214286 19.9382143,4.84285714 19.9382143,3.82375 C19.9382143,2.93196429 20.6289286,2.20125 21.5541071,2.20125 C21.8626786,2.20125 22.0839286,2.26160714 22.2448214,2.32857143 L22.2448214,0.793214286 C22.2448214,0.632321429 22.1576786,0.585357143 22.0503571,0.585357143 C21.9898214,0.585357143 21.9226786,0.59875 21.8625,0.618928571 L21.7283929,0.665892857 L21.7283929,0.464821429 L22.7742857,0.0223214286 L22.915,0.0223214286 L22.915,4.44053571 C22.915,4.69535714 22.9551786,4.84285714 23.1360714,4.84285714 C23.19,4.84285714 23.2232143,4.84285714 23.2969643,4.81607143 L23.4580357,4.7625 L23.4580357,4.96357143 L22.5192857,5.31214286 C22.3717857,5.21160714 22.2980357,5.02392857 22.2642857,4.86964286 C22.0903571,5.05732143 21.7751786,5.31214286 21.3258929,5.31214286 L21.3258929,5.31214286 Z" id="Shape" fill-rule="nonzero"></path>
                <path d="M25.8114286,3.24035714 L25.8114286,3.22678571 C25.8114286,2.72410714 25.5298214,2.48267857 25.1946429,2.48267857 C24.8191071,2.48267857 24.5375,2.73071429 24.4569643,3.24035714 L25.8114286,3.24035714 L25.8114286,3.24035714 Z M24.4369643,3.51535714 L24.4369643,3.54892857 C24.4303571,4.44053571 24.9398214,4.88982143 25.5769643,4.88982143 C25.89875,4.88982143 26.1935714,4.76910714 26.4285714,4.58803571 L26.4285714,4.85625 C26.1601786,5.10428571 25.75125,5.31214286 25.2483929,5.31214286 C24.2026786,5.31214286 23.74,4.52767857 23.74,3.78357143 C23.74,2.91196429 24.40375,2.20125 25.2617857,2.20125 C25.9658929,2.20125 26.5155357,2.69732143 26.5155357,3.42821429 L26.5155357,3.51535714 L24.4369643,3.51535714 L24.4369643,3.51535714 Z" id="Shape" fill-rule="nonzero"></path>
                <path d="M26.9108929,5.24517857 L26.9108929,5.08428571 L27.1323214,5.04392857 C27.2596429,5.01714286 27.36,4.91660714 27.36,4.7825 L27.36,2.99214286 C27.36,2.83803571 27.28625,2.7575 27.1521429,2.7575 C27.1053571,2.7575 27.0516071,2.76428571 26.9982143,2.78428571 L26.9108929,2.81785714 L26.9108929,2.61678571 L27.8630357,2.20107143 L28.0039286,2.20107143 L28.0039286,2.85142857 C28.2451786,2.38214286 28.5335714,2.18767857 28.8619643,2.18767857 C29.1303571,2.18767857 29.1973214,2.25464286 29.1973214,2.25464286 L29.1973214,2.96535714 L29.0632143,2.96535714 C29.0298214,2.77767857 28.9023214,2.68375 28.70125,2.68375 C28.4867857,2.68375 28.2185714,2.74410714 28.0307143,3.13303571 L28.0307143,4.78232143 C28.0307143,4.91642857 28.1648214,5.02375 28.2921429,5.04375 L28.6142857,5.08410714 L28.6142857,5.245 L26.9108929,5.245" id="Path"></path>
            </g>
        </g>
    </g>
</svg>