<?xml version="1.0" encoding="UTF-8"?><svg width="56" height="36" viewBox="0 0 56 36" xmlns="http://www.w3.org/2000/svg"><g fill="none" fill-rule="evenodd"><path d="M0 3.75A3.75 3.75 0 013.75 0h48.5A3.76 3.76 0 0156 3.75v28.5A3.75 3.75 0 0152.25 36H3.75A3.76 3.76 0 010 32.25V3.75z" fill="#000" fill-rule="nonzero"/><path d="M1.25 3.75v28.5a2.5 2.5 0 002.5 2.5h48.5a2.5 2.5 0 002.5-2.5V3.75a2.5 2.5 0 00-2.5-2.5H3.75a2.5 2.5 0 00-2.5 2.5z" fill="#FFF"/><g><path d="M19.9 16.49l-1.08 2.65h1.49l-.4-2.66h-.01zm-5.7 6.09l4.41-9h3.33l1.86 9h-2.92l-.22-1.2h-2.84l-.65 1.2H14.2zm10.99 0l1.27-9h2.95l-1.27 9h-2.95zm19.6-6.1l-1.07 2.66h1.48l-.4-2.66zm-5.7 6.1l4.42-9h3.33l1.86 9h-2.93l-.21-1.2h-2.84l-.65 1.2H39.1zM32.58 18.38h3.7l2.53 4.15h-3.7l-2.53-4.15" fill="#0070AF"/><path fill="#F6822A" d="M32.97 17.74h3.81l3.32-4.14h-3.82l-3.31 4.14M29.15 22.55h3.82l3.31-4.18h-3.82l-3.31 4.18"/><path fill="#0070AF" d="M30.52 13.55h3.57l2.44 4.19h-3.56l-2.45-4.19M14.29 13.91l-.28 2.64c-1.09-1.48-3.6-.46-3.8 1.4-.26 2.34 2.17 2.89 3.49 1.5l-.29 2.66c-.4.19-.78.34-1.16.44a4.77 4.77 0 01-2.42.01 3.68 3.68 0 01-2.34-2.15 5.52 5.52 0 01.26-4.13 5.4 5.4 0 012.62-2.52 4.73 4.73 0 013.92.15"/></g></g></svg>