<?xml version="1.0" encoding="UTF-8"?><svg width="56" height="36" viewBox="0 0 56 36" xmlns="http://www.w3.org/2000/svg"><g fill="none" fill-rule="evenodd"><path d="M0 3.75A3.75 3.75 0 013.75 0h48.5A3.76 3.76 0 0156 3.75v28.5A3.75 3.75 0 0152.25 36H3.75A3.76 3.76 0 010 32.25V3.75z" fill="#000" fill-rule="nonzero"/><path d="M1.25 3.75v28.5a2.5 2.5 0 002.5 2.5h48.5a2.5 2.5 0 002.5-2.5V3.75a2.5 2.5 0 00-2.5-2.5H3.75a2.5 2.5 0 00-2.5 2.5z" fill="#FFF"/><g fill-rule="nonzero"><path d="M23.55 22.48h-.19l-.52.78-.57-.78h-.2l.67.9v.57h.17v-.58l.64-.89zm1.76.9l.63-.9h-.18l-.53.78-.56-.78h-.19l.66.9v.57h.17v-.58zm2.54-.15a.75.75 0 00-.13-.42.54.54 0 00-.28-.25 1.14 1.14 0 00-.43-.1c-.17 0-.3.04-.43.11a.54.54 0 00-.28.26.73.73 0 00-.11.42c0 .16.03.3.1.41.06.11.16.18.29.24a1.07 1.07 0 00.86 0 .67.67 0 00.3-.25.83.83 0 00.11-.42zm-.37-.51c.1.1.16.27.16.5 0 .22-.05.39-.16.5-.11.1-.26.16-.47.16a.67.67 0 01-.34-.07.63.63 0 01-.22-.22.7.7 0 01-.08-.36c0-.15.02-.27.08-.38a.47.47 0 01.22-.2c.1-.06.2-.08.34-.08.2-.02.36.04.47.15zm2.02-.24v1c0 .1-.04.2-.11.27-.08.07-.21.11-.36.11-.17 0-.3-.04-.38-.1a.35.35 0 01-.1-.28v-1h-.2v1.02c0 .09.02.18.08.23.06.08.13.13.22.18.1.06.23.06.38.06s.26-.02.36-.06c.1-.03.16-.1.22-.18a.36.36 0 00.07-.23v-1.02h-.18zm.99.82h.41l.53.65h.2l-.56-.69a.73.73 0 00.34-.12.34.34 0 00.11-.27.36.36 0 00-.17-.31c-.13-.08-.3-.1-.54-.1h-.49v1.47h.17v-.63zm.34-.1h-.34v-.6h.3c.18 0 .33.01.43.06.09.06.13.13.13.22 0 .11-.04.18-.13.24-.1.03-.22.07-.4.07zm4.06-.72h-.17l-.4 1.34-.44-1.34h-.21l-.45 1.34-.4-1.34h-.16l.45 1.47h.2l.45-1.32.43 1.32h.25l.45-1.47zM20.4 23.95h.19l.19-.4h.86l.17.4h.18l-.67-1.47h-.22l-.7 1.47zm.79-1.36l.37.85h-.74l.37-.85zm-1.72.78c.15 0 .28-.02.4-.05.1-.04.2-.07.25-.15a.4.4 0 00.1-.27.35.35 0 00-.19-.33c-.13-.07-.32-.1-.56-.1H19v1.46h.17v-.58h.3v.02zm0-.78c.19 0 .32.02.43.07.1.06.15.15.15.26 0 .09-.02.16-.08.21-.05.06-.1.08-.2.1-.1.01-.19.03-.3.03h-.3v-.69h.3v.02zm16.95 1.36h.19l-.68-1.47h-.24l-.7 1.47h.2l.18-.4h.86l.19.4zm-1-.5l.4-.86.38.85h-.77zm2.76-.97h-.2l-.55.78-.54-.78h-.2l.65.9v.57h.18v-.58l.66-.89z" fill="#333"/><path d="M14.4 21.21l.65-1.85h3.27l.6 1.85h2.35l-3.19-8.55h-2.56l-3.27 8.55h2.15zm1.21-3.45l1.13-3.27 1.06 3.27h-2.19zm-3.72-4.55a5.38 5.38 0 00-2.83-.74 6.2 6.2 0 00-1.55.2c-.75.2-1.44.58-2.04 1.1a4.16 4.16 0 00.02 6.37 5.14 5.14 0 003.6 1.32 4.7 4.7 0 002.8-.76l-.77-1.88-.03.03c-.55.53-1.18.78-1.95.78s-1.4-.27-1.95-.78a2.5 2.5 0 01-.8-1.89c0-.74.26-1.36.8-1.9a2.67 2.67 0 011.95-.78c.75 0 1.4.25 1.95.78l.03.04.77-1.9zm12.97 1.16c1.08-.05 2.1.18 3.03.73l.58-1.7a5.92 5.92 0 00-3.54-.83c-1.74.1-2.77.8-3.1 2.11-.23 1.34.4 2.25 1.9 2.74l1.97.74a.9.9 0 01.33.19c.15.14.21.3.21.5s-.07.37-.2.5c-.04.05-.1.09-.15.12-.73.38-1.95.16-3.63-.65l-.64 1.87c1.12.56 2.43.83 3.9.85a3.06 3.06 0 002.98-1.76 2.7 2.7 0 00-.3-2.36 3.3 3.3 0 00-1.45-1.02l-2.06-.76a.64.64 0 01-.22-.1l-.06-.06a.6.6 0 01-.2-.46c0-.18.07-.32.2-.45.11-.15.26-.2.45-.2zm13.19 6.84v-8.55h-2.11v3.38h-3.65v-3.38H30.1v8.55h2.18V18h3.65v3.21h2.1zm2.41-8.36c-.28.23-.41.56-.37.98l.2 6.93c.15.78.62 1.14 1.4 1.07l3.9-.63c-.94.12-1.73-.51-2.36-1.93l-2.77-6.42z" fill="#009FE3"/><path d="M45.38 18.22c.5 1.16 1.54 1.3 3.1.45 1.02-.53 1.26-1.49.74-2.87l-1.3-3.59-4.78.25 2.24 5.76z" fill="#E9510E"/><path d="M52.68 18.98l.3-6.12c-.08-.6-.4-.87-.94-.85l-1.76.1 1.01 3.1c.55 1.7.32 3.06-.69 4.08a6.77 6.77 0 01-1.94 1.4l2.88-.48c.73-.18 1.12-.6 1.14-1.23z" fill="#FDC413"/></g></g></svg>