<?xml version="1.0" encoding="UTF-8"?><svg width="56" height="36" viewBox="0 0 56 36" xmlns="http://www.w3.org/2000/svg"><g fill="none" fill-rule="evenodd"><path d="M0 3.75A3.75 3.75 0 013.75 0h48.5A3.76 3.76 0 0156 3.75v28.5A3.75 3.75 0 0152.25 36H3.75A3.76 3.76 0 010 32.25V3.75z" fill="#000" fill-rule="nonzero"/><path d="M1.25 3.75v28.5a2.5 2.5 0 002.5 2.5h48.5a2.5 2.5 0 002.5-2.5V3.75a2.5 2.5 0 00-2.5-2.5H3.75a2.5 2.5 0 00-2.5 2.5z" fill="#FFF"/><g><path d="M15.12 13.1l-1.23 1.16a3.8 3.8 0 00-2.8-1.3c-.89 0-1.63.3-2.23.89-.6.6-.9 1.33-.9 2.2 0 .6.13 1.15.4 1.62.26.47.64.84 1.13 1.1.48.28 1.03.41 1.62.41.51 0 .98-.1 1.4-.28.42-.19.88-.53 1.38-1.03l1.2 1.23a6.52 6.52 0 01-1.94 1.37c-.6.25-1.29.38-2.07.38a4.64 4.64 0 01-4.88-4.8 4.6 4.6 0 012.4-4.13 5.27 5.27 0 016.51 1.19M19.44 13.92l-1.24 3.13h2.46l-1.22-3.13zm-.9-2.42h1.77l3.54 9.12h-1.82l-.72-1.88h-3.75l-.75 1.88h-1.82l3.55-9.12zM29.12 12.74l-1.3 1.14c-.46-.63-.92-.95-1.4-.95a.85.85 0 00-.56.19c-.14.12-.22.26-.22.41 0 .15.06.3.16.43.14.19.57.58 1.29 1.17.66.56 1.07.9 1.21 1.05.36.36.6.7.76 1.02.15.33.22.68.22 1.06 0 .75-.26 1.37-.78 1.86-.53.49-1.2.73-2.05.73-.65 0-1.22-.16-1.7-.48-.5-.32-.91-.82-1.26-1.5l1.47-.88c.45.8.96 1.21 1.53 1.21.3 0 .56-.09.76-.26.2-.17.3-.37.3-.6 0-.2-.07-.41-.22-.62-.16-.2-.5-.52-1.02-.95-1-.8-1.66-1.43-1.95-1.87-.29-.44-.44-.88-.44-1.32 0-.63.25-1.17.73-1.63a2.54 2.54 0 011.8-.68c.46 0 .9.11 1.32.32.41.21.86.6 1.35 1.15M30.02 11.5h1.78v3.44h3.07V11.5h1.77v9.12h-1.77v-4H31.8v4h-1.78V11.5" fill="#1B425C"/><path fill="#EB8E4A" d="M37.9 20.62h1.71v-9.35h-1.7zM40.59 20.62h1.7v-6.74h-1.7v6.74zm.85-9.52c.3 0 .56.1.77.32.22.22.33.48.33.78 0 .3-.11.56-.32.78-.22.2-.47.31-.76.31-.3 0-.57-.1-.78-.32a1.08 1.08 0 01-.32-.8c0-.29.1-.54.32-.75.2-.21.46-.32.76-.32zM46.44 15.27c-.53 0-.98.18-1.34.54-.35.36-.53.84-.53 1.43 0 .6.18 1.08.53 1.45.36.37.8.55 1.34.55.52 0 .96-.18 1.32-.56a2 2 0 00.54-1.44c0-.58-.18-1.05-.53-1.42-.35-.37-.8-.55-1.33-.55zm-1.8-4v3.35a2.91 2.91 0 012.15-.92c.9 0 1.65.34 2.28 1 .62.67.93 1.52.93 2.56 0 1-.32 1.84-.97 2.52a3.05 3.05 0 01-3.37.8 3.34 3.34 0 01-1.01-.67v.71h-1.7v-9.35h1.7z"/><path d="M7.61 23.35h.15c.12 0 .2 0 .24-.02a.22.22 0 00.11-.09.24.24 0 00.04-.13c0-.1-.04-.17-.11-.21a.63.63 0 00-.3-.05h-.13v.5zm-.47-.95h.5c.27 0 .46.02.58.07a.6.6 0 01.28.24c.07.11.1.24.1.4 0 .17-.04.3-.13.42a.7.7 0 01-.37.24c-.09.02-.25.03-.49.03v1.04h-.47V22.4zM10.98 23.04l-.33.84h.66l-.33-.84zm-.24-.64h.48l.94 2.44h-.48l-.2-.5h-1l-.2.5h-.49l.95-2.44zM13.28 22.4h.5l.46.88.46-.88h.5l-.73 1.38v1.06H14v-1.06l-.72-1.38M20.66 22.83l-.33.3a1.02 1.02 0 00-.76-.34.81.81 0 00-.59.24.8.8 0 00-.24.58c0 .17.03.31.1.44.08.12.18.22.3.3.14.07.28.1.44.1a.9.9 0 00.38-.07c.1-.05.23-.14.37-.28l.32.33c-.19.18-.36.3-.52.37-.16.07-.35.1-.55.1-.39 0-.7-.12-.95-.36a1.24 1.24 0 01-.36-.93 1.23 1.23 0 01.64-1.1 1.4 1.4 0 011.74.32M22.98 23.04l-.33.84h.66l-.33-.84zm-.24-.64h.48l.95 2.44h-.5l-.18-.5h-1l-.2.5h-.5l.95-2.44zM26.75 22.73l-.35.3c-.12-.16-.25-.25-.37-.25a.23.23 0 00-.15.05c-.04.03-.06.07-.06.11 0 .04.01.08.04.12l.34.31c.18.15.3.24.33.28.1.1.16.19.2.27.04.09.06.18.06.29 0 .2-.07.36-.2.5a.77.77 0 01-.55.19.82.82 0 01-.46-.13 1.01 1.01 0 01-.34-.4l.4-.24c.12.22.25.33.4.33a.3.3 0 00.2-.07.2.2 0 00.1-.16.28.28 0 00-.07-.17 1.77 1.77 0 00-.27-.25 2.74 2.74 0 01-.52-.5.63.63 0 01-.12-.36c0-.17.06-.31.2-.43.12-.12.28-.18.48-.18.12 0 .24.02.35.08.1.06.23.16.36.31M28.16 22.4h.48v.92h.82v-.92h.48v2.44h-.48v-1.07h-.82v1.07h-.48V22.4M34.47 22.8a.78.78 0 00-.58.23.82.82 0 00-.23.6c0 .27.1.48.3.64a.8.8 0 00.52.18c.22 0 .4-.08.56-.24a.8.8 0 00.24-.59.81.81 0 00-.24-.59.77.77 0 00-.57-.24zm0-.46c.35 0 .65.12.9.37s.38.56.38.92c0 .35-.13.65-.37.9-.25.25-.55.37-.9.37-.37 0-.68-.13-.93-.38a1.25 1.25 0 01-.36-.9 1.26 1.26 0 01.64-1.11c.2-.12.41-.17.64-.17zM37.12 22.4h.45l1.05 1.6v-1.6h.47v2.44h-.45l-1.05-1.6v1.6h-.47V22.4M40.58 22.4h.47v2h.68v.44h-1.15V22.4M42.98 24.84h.47V22.4h-.47zM44.9 22.4h.45l1.06 1.6v-1.6h.46v2.44h-.45l-1.05-1.6v1.6h-.47V22.4M48.37 22.4h1.34v.45h-.88v.44h.88v.45h-.88v.64h.88v.46h-1.34V22.4" fill="#257"/></g></g></svg>