<?xml version="1.0" encoding="UTF-8"?><svg width="56" height="36" viewBox="0 0 56 36" xmlns="http://www.w3.org/2000/svg"><g fill="none" fill-rule="evenodd"><path d="M0 3.75A3.75 3.75 0 013.75 0h48.5A3.76 3.76 0 0156 3.75v28.5A3.75 3.75 0 0152.25 36H3.75A3.76 3.76 0 010 32.25V3.75z" fill="#000" fill-rule="nonzero"/><path d="M1.25 3.75v28.5a2.5 2.5 0 002.5 2.5h48.5a2.5 2.5 0 002.5-2.5V3.75a2.5 2.5 0 00-2.5-2.5H3.75a2.5 2.5 0 00-2.5 2.5z" fill="#FFF"/><path d="M38.79 25.33v1.22A2.44 2.44 0 0136.37 29H19.42c-.64 0-1.25-.25-1.7-.71a2.48 2.48 0 01-.72-1.74V9.45A2.43 2.43 0 0119.42 7h16.95c1.33 0 2.42 1.1 2.42 2.44v1.23h-10.9a2.43 2.43 0 00-2.42 2.44v9.78a2.43 2.43 0 002.42 2.44h10.9zm-10.9-2.44H40V13.1H27.9v9.78zm4.85-3.06c-1 0-1.82-.82-1.82-1.83a1.82 1.82 0 113.63 0c0 1.01-.8 1.83-1.81 1.83z" fill="#2E2E2E"/></g></svg>