<?xml version="1.0" encoding="UTF-8"?><svg width="56" height="36" viewBox="0 0 56 36" xmlns="http://www.w3.org/2000/svg"><g fill="none" fill-rule="evenodd"><path d="M0 3.75A3.749 3.749 0 013.75 0h48.5A3.756 3.756 0 0156 3.75v28.5A3.749 3.749 0 0152.25 36H3.75A3.756 3.756 0 010 32.25V3.75z" fill="#000" fill-rule="nonzero"/><path d="M1.25 3.75v28.5c0 1.375 1.123 2.5 2.5 2.5h48.5c1.382 0 2.5-1.118 2.5-2.5V3.75c0-1.375-1.123-2.5-2.5-2.5H3.75a2.499 2.499 0 00-2.5 2.5z" fill="#FFF"/><g fill-rule="nonzero"><path d="M13.987 14.914h1.29a2.819 2.819 0 01-1.092 1.651 3.324 3.324 0 01-2.041.597 2.9 2.9 0 01-2.314-.955 3.864 3.864 0 01-.82-2.68 3.823 3.823 0 01.805-2.596 2.906 2.906 0 012.329-.924c.9-.052 1.78.285 2.412.924.315.388.545.837.674 1.319h-1.817a1.526 1.526 0 00-.261-.39 1.252 1.252 0 00-.961-.363 1.273 1.273 0 00-.935.363 2.519 2.519 0 00-.47 1.704 2.405 2.405 0 00.47 1.677 1.23 1.23 0 001.013.416 1.48 1.48 0 00.752-.182.36.36 0 00.141-.089l.141-.14c.06-.078.13-.147.209-.207a.724.724 0 01.475-.125z" fill="#1D1C1A"/><path d="M20.169 14.923h1.278a2.815 2.815 0 01-1.083 1.65c-.581.41-1.279.616-1.987.59a2.834 2.834 0 01-2.274-.952 3.884 3.884 0 01-.817-2.67c-.058-.93.223-1.85.791-2.585a2.839 2.839 0 012.274-.952 3.068 3.068 0 012.377.952c.584.754.874 1.698.816 2.653v.285a.448.448 0 010 .18h-4.44c-.019.43.118.85.385 1.185.249.288.618.441.996.414.258.007.513-.056.739-.181a.354.354 0 00.139-.088l.138-.14a.557.557 0 01.19-.207.756.756 0 01.478-.134zm-3.08-2.007h2.607c0-.376-.127-.74-.36-1.034a1.222 1.222 0 00-.944-.362 1.242 1.242 0 00-.919.362c-.25.284-.383.654-.37 1.034h-.015z" fill="#1D1C1A"/><path d="M27.491 17h-.9a.83.83 0 01-.625-.246.842.842 0 01-.243-.63V12.62a1.039 1.039 0 00-.37-.901 1.336 1.336 0 00-.833-.285 1.285 1.285 0 00-.818.285 1.08 1.08 0 00-.36.9V17h-1.788v-4.012c0-1.166.303-1.948.91-2.345a3.95 3.95 0 012.01-.642 3.83 3.83 0 012.056.59c.63.397.946 1.196.946 2.397L27.49 17zM30.134 25.492c-.003.466-.405.841-.9.841h-.895v-6.17c0-1.155.357-1.944 1.072-2.367a4.57 4.57 0 012.347-.63c.454.004.904.084 1.329.237a2.5 2.5 0 011.071.68c.553.72.832 1.592.793 2.478a3.86 3.86 0 01-.793 2.519 2.528 2.528 0 01-2.03.942 2.826 2.826 0 01-1.158-.222 1.932 1.932 0 01-.841-.77l.005 2.462zm3.006-4.855a2.4 2.4 0 00-.396-1.511 1.34 1.34 0 00-1.136-.504 1.311 1.311 0 00-1.11.504c-.289.455-.418.983-.37 1.51a2.15 2.15 0 00.397 1.411c.263.34.691.53 1.136.504.425.013.828-.177 1.072-.504.29-.42.433-.915.407-1.415v.005z" fill="#1D1C1A"/><path d="M26.643 16.301l.216.656s.59.963.61 1.021c.021.059.273 1.217.293 1.275.02.058.365.915.365.915s.226.424.241.455c.016.032.283.08.298 0 .015-.08.647-1.301.647-1.301l.488-.82.909-.751.344-.63-.478-.47-2.172-.19-.554-.572-.442-.222-.467.27-.298.364zM39.13 23.767a3.213 3.213 0 01-1.144.338 10.55 10.55 0 01-1.045.062 2.727 2.727 0 01-1.62-.513 1.853 1.853 0 01-.694-1.623 1.735 1.735 0 01.632-1.537 3.672 3.672 0 011.573-.558c.103-.002.207-.014.308-.036.12 0 .256-.046.413-.062.752-.099 1.128-.317 1.128-.655a.478.478 0 00-.397-.512 2.703 2.703 0 00-.731-.113 1.91 1.91 0 00-.643.102.695.695 0 00-.413.38h-1.724c.06-.505.318-.967.721-1.286a3.01 3.01 0 011.98-.58 3.94 3.94 0 012.158.482c.485.31.768.847.747 1.414v2.295a2.848 2.848 0 01-.37 1.577 2.259 2.259 0 01-.879.825zm-.412-3.099a4.9 4.9 0 01-1.003.328l-.59.128a1.527 1.527 0 00-.67.328 1.01 1.01 0 00-.177.553.81.81 0 00.23.604c.19.146.428.217.668.2.429.046.855-.1 1.16-.4.305-.298.455-.716.408-1.136l-.026-.605zM41.358 26.935v-1.387h.464c.29.016.575-.07.807-.242.195-.161.233-.418.115-.771l-2.36-6.697h1.959l1.385 4.754 1.22-4.153a.754.754 0 01.823-.601H47L44.395 25.5c-.14.46-.407.87-.77 1.188a2.85 2.85 0 01-1.512.303h-.359a.965.965 0 00-.193-.036l-.203-.02z" fill="#1D1C1A"/><path d="M35.464 16.24c0-.702-.58-1.27-1.298-1.27h-1.905l2.805-2.731c.329-.321.457-.79.337-1.228a1.286 1.286 0 00-.919-.9 1.319 1.319 0 00-1.255.33l-2.78 2.73v-1.89c0-.708-.585-1.281-1.308-1.281-.723 0-1.309.573-1.309 1.28v4.657a1.238 1.238 0 000 .134c-.006.778.63 1.415 1.424 1.429h4.91c.713 0 1.293-.563 1.298-1.26zM20.536 17.934c0 .702.579 1.272 1.293 1.272h1.894l-2.765 2.724a1.258 1.258 0 000 1.8 1.31 1.31 0 001.831 0l2.77-2.734v1.888c0 .708.584 1.283 1.305 1.283.72 0 1.304-.575 1.304-1.283v-4.653a1.307 1.307 0 000-.133 1.432 1.432 0 00-1.419-1.431h-4.914c-.714 0-1.294.565-1.3 1.267z" fill="#EB7E23"/></g></g></svg>