<svg width="56" height="36" xmlns="http://www.w3.org/2000/svg"><g fill="none" fill-rule="evenodd"><path d="M0 3.75A3.75 3.75 0 0 1 3.75 0h48.5A3.76 3.76 0 0 1 56 3.75v28.5A3.75 3.75 0 0 1 52.25 36H3.75A3.76 3.76 0 0 1 0 32.25V3.75z" fill="#000" fill-rule="nonzero"/><path d="M1.25 3.75v28.5a2.5 2.5 0 0 0 2.5 2.5h48.5a2.5 2.5 0 0 0 2.5-2.5V3.75a2.5 2.5 0 0 0-2.5-2.5H3.75a2.5 2.5 0 0 0-2.5 2.5z" fill="#FFF"/><path fill="#135091" d="M40.92 28.28h1.56v-4.01l2.33 4.01h1.58v-6.41h-1.55v3.97l-2.26-3.97h-1.66zM50.85 21.88h-2.4l-1.95 6.4h1.82l.35-1.25h1.99l.35 1.25h1.86l-2.02-6.4zm-1.79 3.76l.6-2.12.59 2.12h-1.19zM36.88 28.28h3.75v-1.31h-2.05v-5.1h-1.7zM36.43 23.27h-2.61v1.1h2.4v1.42h-2.4v1.08h2.6v1.41h-3.4H33a.8.8 0 0 1-.8-.8v-4.81c0-.45.35-.8.8-.8h3.42v1.4zM25.25 28.29h1.71v-6.42h-1.71zM27.61 21.87v1.44h1.22v4.97h1.83v-4.97h1.23v-1.44zM16.13 28.36c1.8 0 2.99-1.32 2.99-3.3 0-2-1.19-3.31-2.99-3.31-1.8 0-2.99 1.32-2.99 3.3 0 2 1.2 3.3 3 3.3m0-5.3c.84 0 1.36.75 1.36 2 0 1.26-.52 2.01-1.37 2.01-.85 0-1.36-.75-1.36-2 0-1.26.5-2.01 1.36-2.01M10.44 24.58h-.62v-1.45h.67c.4 0 .91.08.91.68 0 .7-.47.77-.96.77m-2.17 3.7h1.55v-2.42c1.34-.04 3.2.11 3.2-2.02 0-1.35-.92-1.97-2.02-1.97H8.27v6.41M5.55 27.11c.35-.01.87-.11.85-.6-.03-.96-3.04-.34-3.13-2.65-.04-1.34 1.08-2.07 2.26-2.1.95-.04 1.67.26 2.29 1.03l-.98.8c-.43-.43-.68-.64-1.3-.62-.26.01-.66.2-.65.53.03.98 3.07.3 3.15 2.63.05 1.37-.98 2.2-2.21 2.24-1.13.03-2.15-.25-2.82-1.26l1.05-.83c.43.6.76.85 1.49.83M23.39 25.28c.59-.3.97-.81.97-1.57 0-1.32-.95-1.85-2.01-1.85h-2.89v6.43h1.59V25.8h.69l1.16 2.47h1.9l-1.41-3zm-2.34-2.23h.77c.4 0 .89.1.89.68 0 .64-.55.69-1 .69h-.66v-1.37zm.02-1.62h1.14l.99-1.24h-.98l-.58.63-.58-.63h-.96l.97 1.24zM20.98 17.8c.48-.01 1.17-.14 1.15-.8-.04-1.3-4.12-.47-4.23-3.58-.06-1.81 1.46-2.8 3.05-2.85a3.5 3.5 0 0 1 3.1 1.4l-1.33 1.1c-.57-.6-.91-.88-1.75-.85-.36.01-.9.26-.89.71.05 1.33 4.15.4 4.26 3.55.07 1.86-1.32 2.96-2.99 3.02-1.52.06-2.9-.32-3.8-1.7l1.42-1.1c.57.79 1.02 1.14 2 1.1M29.95 19.4h2.47l-2.45-5.73 2.19-2.92h-2.62l-2.32 3.17v-3.17h-2.4v8.66h2.39v-2.03l1.21-1.62zM17.25 12.64v-1.9h-4.6c-.6 0-1.1.48-1.1 1.08v6.5c0 .6.5 1.08 1.1 1.08h4.6v-1.91h-3.52v-1.45h3.25v-1.9h-3.25v-1.5h3.52M7.15 10.57c2.26 0 3.62 1.16 3.67 3.15H8.79c-.14-.9-.7-1.4-1.57-1.4-1.17 0-1.85 1.01-1.85 2.76 0 1.67.68 2.66 1.81 2.66.95 0 1.5-.6 1.64-1.8h2.11c-.06 2.25-1.47 3.56-3.81 3.56C4.57 19.5 3 17.8 3 15.04s1.6-4.47 4.15-4.47m-2.08-2.1h1.3l.78.85.8-.85h1.31l-1.34 1.68H6.38l-1.3-1.68"/><path d="M38.3 10.74h-3.25l-2.63 8.66h2.47l.48-1.7h2.68l.47 1.7h2.51l-2.73-8.66zm-2.42 5.08l.8-2.86.8 2.86h-1.6zm-.16-5.67h1.2l1.72-1.68H36.8l-1.08 1.68z" fill="#135091"/><path d="M47.68 10.3c-.9 0-1.62-.71-1.62-1.6 0-.89.73-1.6 1.62-1.6.9 0 1.62.71 1.62 1.6 0 .89-.72 1.6-1.62 1.6m-5.3 2.02v3.96h8v.53h-8v1.05c0 .86.7 1.55 1.56 1.55h7.46c.85 0 1.55-.7 1.55-1.56v-3.8h-7.98v-.6h7.98v-1.14c0-.86-.7-1.54-1.55-1.54h-7.46c-.86 0-1.56.7-1.56 1.55" fill="#ED1C24"/></g></svg>