<?xml version="1.0" encoding="UTF-8"?><svg width="56" height="36" viewBox="0 0 56 36" xmlns="http://www.w3.org/2000/svg"><g fill="none" fill-rule="evenodd"><path d="M0 3.75A3.749 3.749 0 013.75 0h48.5A3.756 3.756 0 0156 3.75v28.5A3.749 3.749 0 0152.25 36H3.75A3.756 3.756 0 010 32.25V3.75z" fill="#000" fill-rule="nonzero"/><path d="M1.25 3.75v28.5c0 1.375 1.123 2.5 2.5 2.5h48.5c1.382 0 2.5-1.118 2.5-2.5V3.75c0-1.375-1.123-2.5-2.5-2.5H3.75a2.499 2.499 0 00-2.5 2.5z" fill="#FFF"/><path d="M39.26 6H17.735C16.778 6 16 6.737 16 7.645v12.71c0 .908.778 1.645 1.736 1.645h21.528c.958 0 1.736-.737 1.736-1.645V7.645C41 6.737 40.217 6 39.26 6zm0 14.724H17.735a.38.38 0 01-.39-.369V9.837h22.307v10.518c0 .204-.179.37-.394.37zm-15.908-3.343c-.25.292-.579.486-.962.587-.17.044-.241.127-.236.292.005.16 0 .325 0 .485 0 .145-.077.223-.23.223-.185.005-.369.005-.553 0-.159-.005-.236-.087-.241-.238 0-.116 0-.238-.005-.354-.005-.262-.01-.272-.277-.31a3.633 3.633 0 01-.983-.267c-.245-.112-.266-.17-.2-.413.052-.18.103-.359.165-.538.066-.209.128-.233.327-.136.343.17.707.262 1.086.31.245.03.486.005.711-.087.425-.175.492-.64.133-.922a1.82 1.82 0 00-.404-.228c-.374-.155-.763-.271-1.111-.475-.568-.325-.932-.767-.89-1.426.045-.743.49-1.208 1.213-1.456.296-.102.296-.097.302-.393v-.3c.005-.224.046-.263.276-.267h.215c.497 0 .497 0 .497.47 0 .335 0 .335.353.388.266.04.522.117.773.219.138.058.19.145.149.286-.062.204-.123.407-.19.606-.066.19-.128.219-.322.131a2.524 2.524 0 00-1.224-.228.957.957 0 00-.328.063c-.368.156-.43.539-.117.781.158.122.343.209.532.282.328.126.655.252.968.417 1.003.52 1.27 1.698.573 2.498zm13.296-5.676v.786c0 .131-.112.233-.246.233H25.804a.24.24 0 01-.245-.233v-.786c0-.13.112-.233.245-.233h10.598c.134 0 .246.107.246.233zm-11.094 2.867v-.785c0-.131.112-.233.245-.233h6.088a.24.24 0 01.246.233v.785c0 .131-.113.233-.246.233h-6.083a.238.238 0 01-.25-.233zm10.95 1.78a.356.356 0 01-.01.307.507.507 0 01-.138.208c-.076.063-.158.136-.276.185-.425.16-.886.32-1.388.402-.42.068-.778-.039-1.039-.3l-.148.062c-.226.093-.44.175-.645.277-.251.126-.497.257-.743.388-.19.102-.384.204-.573.3-.164.083-.338.151-.517.2a.688.688 0 01-.671-.16.598.598 0 01-.169-.466c0-.03.005-.053.01-.082-.379.28-.763.562-1.147.839-.22.16-.455.305-.68.446a1.146 1.146 0 01-.354.136.648.648 0 01-.799-.47c-.056-.219.006-.418.036-.534.016-.058.036-.122.057-.18-.272.33-.538.67-.804 1.004l-.195.248a2.4 2.4 0 00-.2.286 1.225 1.225 0 00-.086.185l-.047.097-.01.029a.418.418 0 01-.394.266c-.03 0-.056-.004-.087-.01-.215-.043-.374-.237-.343-.446a1.55 1.55 0 01.015-.087c.067-.267.2-.485.328-.689.63-.985 1.193-1.756 1.777-2.435.189-.223.399-.422.604-.616l.02-.02a.903.903 0 01.41-.223.63.63 0 01.62.155.571.571 0 01.153.456c-.016.16-.051.31-.103.452l-.23.601c-.056.146-.118.291-.169.437.19-.15.379-.306.568-.456.267-.214.533-.427.8-.636.148-.116.306-.204.46-.29l.072-.045c.148-.082.307-.082.373-.082a.62.62 0 01.435.175.534.534 0 01.16.417c-.011.136-.032.281-.072.441l-.016.059c.092-.054.184-.112.277-.165.158-.093.312-.19.47-.282a6.082 6.082 0 011.132-.533c.312-.112.589-.093.824.043.113.068.215.155.302.262.026.034.036.034.077.034.02 0 .041 0 .062-.005.22-.034.44-.116.676-.199l.097-.034c.051-.019.102-.038.153-.063.082-.034.16-.068.246-.092.113-.039.225-.053.312-.063.016 0 .057-.005.072-.005.113 0 .2.04.236.058a.42.42 0 01.22.214zM18.198 29.82a1.53 1.53 0 01-.625-.635 1.997 1.997 0 01-.218-.95c0-.36.072-.676.218-.947.145-.272.353-.483.625-.633.271-.15.59-.225.957-.225.23 0 .452.035.668.105.215.07.39.163.527.28l-.285.65c-.29-.203-.587-.305-.89-.305-.287 0-.506.09-.658.27-.151.18-.227.448-.227.805 0 .357.076.626.227.808.152.181.371.272.658.272.303 0 .6-.102.89-.305l.285.65c-.137.117-.312.21-.527.28-.216.07-.438.105-.668.105a1.95 1.95 0 01-.957-.225zm5.277-3.345h.9V30h-.9v-1.425h-1.44V30h-.9v-3.525h.9v1.37h1.44v-1.37zM25.315 30v-3.525h2.505v.71h-1.61v.67h1.51v.705h-1.51v.73h1.61V30h-2.505zm6.3.14l.39.635-.785.355-.56-.915c-.07-.113-.197-.17-.38-.17-.36 0-.672-.074-.938-.223a1.518 1.518 0 01-.612-.63 2.024 2.024 0 01-.215-.957c0-.367.072-.686.215-.957.143-.272.347-.481.613-.628.265-.147.577-.22.937-.22.36 0 .672.073.938.22.265.147.468.356.61.628.141.271.212.59.212.957 0 .363-.072.682-.215.955a1.495 1.495 0 01-.615.63c.167.043.302.15.405.32zm-.71-1.082c.15-.189.225-.463.225-.823 0-.36-.076-.633-.227-.82a.759.759 0 00-.623-.28c-.267 0-.475.092-.625.277-.15.186-.225.46-.225.823 0 .363.075.638.225.825.15.187.358.28.625.28s.475-.094.625-.282zm2.358.597c-.266-.26-.398-.64-.398-1.14v-2.04h.9v2.075c0 .253.057.448.17.585.113.137.277.205.49.205.213 0 .377-.068.49-.205.113-.137.17-.332.17-.585v-2.075h.905v2.04c0 .497-.134.876-.403 1.137-.268.262-.655.393-1.162.393-.51 0-.897-.13-1.162-.39zM36.91 30v-3.525h2.505v.71h-1.61v.67h1.51v.705h-1.51v.73h1.61V30H36.91z" fill="#0274DE"/></g></svg>