<svg xmlns="http://www.w3.org/2000/svg" width="56" height="36"><g fill="none" fill-rule="evenodd"><path fill="#000" fill-rule="nonzero" d="M0 3.7508C0 1.6793 1.676 0 3.7504 0h48.4992C54.321 0 56 1.688 56 3.7508v28.4984C56 34.3207 54.324 36 52.2496 36H3.7504C1.679 36 0 34.312 0 32.2492V3.7508z"/><path fill="#FFF" d="M1.25 3.7508v28.4984c0 1.3759 1.123 2.5008 2.5004 2.5008h48.4992c1.3828 0 2.5004-1.1184 2.5004-2.5008V3.7508c0-1.3759-1.123-2.5008-2.5004-2.5008H3.7504C2.3676 1.25 1.25 2.3684 1.25 3.7508z"/><path fill="#212121" fill-rule="nonzero" d="M10.8714 12L4 15.1482v1.554h.5434v1.1063h.5435v4.4255h-.5435v1.1064H4V25h13.5857v-1.6596h-.5435V22.234h-.5434v-4.4255h.5434v-1.1064h.5435v-1.5539L10.8714 12zM5.0869 22.7872H6.717v.5532h-1.63v-.5532zm3.2605-4.9787v4.4255H7.804v1.1064h-.5434V22.234H6.717v-4.4255h.5435v-1.1064h.5434v1.1064h.5434zm3.2606 0v4.4255h-.5435v1.1064h-.5434V22.234h-.5434v-4.4255h.5434v-1.1064h.5434v1.1064h.5435zm3.2605 0v4.4255h-.5434v1.1064h-.5434V22.234h-.5434v-4.4255h.5434v-1.1064h.5434v1.1064h.5434zm1.6303 4.9787v.5532h-1.6303v-.5532h1.6303zm-1.0868-.5532v-4.4255h.5434v4.4255h-.5434zm-2.1737-4.9787H11.608v-.5532h1.6303v.5532zm-.5435.5532v4.4255h-.5434v-4.4255h.5434zm.5435 4.9787v.5532H11.608v-.5532h1.6303zm-3.2606-5.5319H8.3474v-.5532h1.6303v.5532zm-.5434.5532v4.4255h-.5435v-4.4255h.5435zm.5434 4.9787v.5532H8.3474v-.5532h1.6303zM6.717 17.2553h-1.63v-.5532h1.63v.5532zm-.5434.5532v4.4255h-.5434v-4.4255h.5434zm10.8685 6.0851v.5532H4.5434v-.5532h12.4988zm-.5434-6.6383h-1.6303v-.5532h1.6303v.5532zm.5434-1.1064H4.5434v-.6588l6.328-2.937 6.1708 2.937v.6588zm-8.1514-1.383v.5532h3.804v-.5531h-3.804z"/><path fill="#212121" d="M23.5963 14.8247c0 .1956-.0332.3776-.0998.546-.0666.1684-.1603.3148-.2812.4392-.1209.1245-.2665.222-.4369.2925-.1703.0706-.3593.1059-.5669.1059-.2076 0-.3969-.0353-.5678-.1059-.171-.0705-.3172-.168-.4387-.2925-.1216-.1244-.2156-.2708-.2821-.4392-.0666-.1684-.0999-.3504-.0999-.546 0-.1956.0333-.3776.0999-.546.0665-.1684.1605-.3145.282-.4383.1216-.1238.2678-.221.4388-.2915.171-.0706.3602-.1059.5678-.1059.2076 0 .3966.0356.567.1068.1703.0712.316.1687.4368.2925.121.1238.2146.2699.2812.4383.0666.1684.0998.3497.0998.5441zm-.6338 0c0-.1337-.017-.2541-.0512-.3612-.0342-.1071-.0834-.1978-.1475-.272a.6362.6362 0 0 0-.2354-.171c-.0928-.0395-.1984-.0594-.3169-.0594-.1197 0-.2262.0199-.3196.0595a.6346.6346 0 0 0-.2363.1708c-.0641.0743-.1133.165-.1475.2721-.0342.1071-.0513.2275-.0513.3612 0 .135.0171.256.0513.363.0342.1072.0834.1979.1475.2722a.6256.6256 0 0 0 .2363.1699c.0934.039.2.0585.3196.0585.1185 0 .2241-.0195.317-.0585a.6272.6272 0 0 0 .2353-.17c.0641-.0742.1133-.165.1475-.272.0341-.1071.0512-.2281.0512-.363zm1.309-1.352a.5184.5184 0 0 1 .0678.0037.1712.1712 0 0 1 .0494.014.165.165 0 0 1 .0421.0287.4855.4855 0 0 1 .0458.0502l1.2676 1.625a3.4703 3.4703 0 0 1-.011-.1514 2.7813 2.7813 0 0 1-.0036-.1383v-1.4319h.5458v2.7059h-.3224c-.0476 0-.0879-.0075-.1209-.0223-.033-.0149-.0647-.0421-.0952-.0817l-1.2584-1.612c.0036.047.0067.0931.0091.1383.0025.0452.0037.0876.0037.1272v1.4505h-.5459v-2.7059h.326zm3.115 2.2044h.9892v.5015h-1.6083v-2.7059h.6191v2.2044zm2.0124.5015h-.6228v-2.7059h.6228v2.7059zm.873-2.7059a.5184.5184 0 0 1 .0677.0037.1712.1712 0 0 1 .0495.014.165.165 0 0 1 .0421.0287.4855.4855 0 0 1 .0458.0502l1.2676 1.625a3.4702 3.4702 0 0 1-.011-.1514 2.7813 2.7813 0 0 1-.0037-.1383v-1.4319h.546v2.7059h-.3225c-.0476 0-.0879-.0075-.1209-.0223-.033-.0149-.0647-.0421-.0952-.0817l-1.2585-1.612c.0037.047.0068.0931.0092.1383.0024.0452.0037.0876.0037.1272v1.4505h-.546v-2.7059h.3262zm4.214 0v.4829h-1.0953v.6314h.839v.4643h-.839v.6444h1.0954v.4829h-1.7182v-2.7059h1.7182zm1.1635 2.7059v-2.7059h.9819c.1844 0 .3413.0173.4707.052.1295.0347.2351.0836.317.1467.0817.0632.1413.14.1785.2303.0373.0904.0559.1913.0559.3027a.601.601 0 0 1-.0257.1755.5192.5192 0 0 1-.0806.1588.6054.6054 0 0 1-.141.1347c-.0574.0402-.1264.0752-.207.1049.1759.0433.306.1136.3902.2108.0842.0972.1264.2219.1264.3742a.783.783 0 0 1-.066.3213.7349.7349 0 0 1-.1932.259c-.085.0737-.1896.1313-.3142.1728-.1245.0414-.2668.0622-.4268.0622h-1.066zm.6192-1.1477v.6741h.436c.0817 0 .1486-.0105.2005-.0316.0519-.021.0925-.0483.1218-.0817a.2753.2753 0 0 0 .0605-.1133.5052.5052 0 0 0 .0165-.1281.4332.4332 0 0 0-.0193-.1337.2214.2214 0 0 0-.066-.1003c-.031-.0273-.0723-.0483-.1236-.0632-.0513-.0148-.116-.0222-.1941-.0222h-.4323zm0-.4198h.3224c.0683 0 .13-.005.185-.0148.055-.01.1016-.0273.14-.052a.2377.2377 0 0 0 .088-.1022c.0202-.0433.0302-.0978.0302-.1634 0-.0644-.0079-.118-.0238-.1606a.23.23 0 0 0-.0732-.1031c-.033-.026-.0748-.0446-.1255-.0557-.0507-.0112-.1108-.0167-.1804-.0167h-.3627v.6685zm4.3203 1.5675h-.4799c-.0537 0-.098-.0127-.1328-.0381a.1964.1964 0 0 1-.0723-.0975l-.1576-.4717h-1.0148l-.1575.4717c-.0122.0347-.036.066-.0715.0938-.0354.0278-.0787.0418-.13.0418h-.4836l1.0331-2.7059h.6338l1.0331 2.7059zm-1.7145-1.0345h.729l-.2454-.741a87.5908 87.5908 0 0 1-.0559-.1662 4.2693 4.2693 0 0 1-.0632-.207 3.73 3.73 0 0 1-.0604.2098 3.032 3.032 0 0 1-.0586.1672l-.2455.7372zm2.309-1.6714a.5184.5184 0 0 1 .0679.0037.1712.1712 0 0 1 .0494.014.165.165 0 0 1 .0421.0287.4856.4856 0 0 1 .0458.0502l1.2676 1.625a3.4704 3.4704 0 0 1-.011-.1514 2.7813 2.7813 0 0 1-.0036-.1383v-1.4319h.5458v2.7059h-.3224c-.0476 0-.0879-.0075-.1209-.0223-.033-.0149-.0647-.0421-.0952-.0817l-1.2584-1.612c.0036.047.0067.0931.0091.1383.0025.0452.0037.0876.0037.1272v1.4505h-.5459v-2.7059h.326zm3.1151 1.0957h.099c.0915 0 .1575-.029.1978-.0873l.6008-.884c.033-.0482.0705-.081.1127-.0984.0421-.0173.0937-.026.1548-.026h.5385l-.7913 1.0939a.5338.5338 0 0 1-.088.0984.5538.5538 0 0 1-.0934.065.4697.4697 0 0 1 .1273.0715c.0385.0303.0736.0709.1054.1216l.806 1.2555h-.5533a.475.475 0 0 1-.0906-.0075.2302.2302 0 0 1-.065-.0222.1874.1874 0 0 1-.0477-.0363.3585.3585 0 0 1-.0385-.0492l-.6044-.9415a.1828.1828 0 0 0-.0834-.0734c-.0336-.0142-.079-.0214-.1365-.0214h-.1502v1.1515h-.6191v-2.7059h.6191v1.0957zm2.7268 1.6102h-.6228v-2.7059h.6228v2.7059zm.873-2.7059a.5184.5184 0 0 1 .0677.0037.1712.1712 0 0 1 .0495.014.165.165 0 0 1 .0421.0287.4855.4855 0 0 1 .0458.0502l1.2676 1.625a3.4702 3.4702 0 0 1-.011-.1514 2.7813 2.7813 0 0 1-.0037-.1383v-1.4319h.546v2.7059h-.3225c-.0476 0-.088-.0075-.1209-.0223-.033-.0149-.0647-.0421-.0952-.0817l-1.2585-1.612c.0037.047.0067.0931.0092.1383.0024.0452.0037.0876.0037.1272v1.4505h-.546v-2.7059h.3261zm3.7525 2.2527c.0854 0 .1612-.0074.2271-.0223a1.1009 1.1009 0 0 0 .1868-.0594v-.4104h-.2637c-.0391 0-.0696-.0105-.0916-.0316a.1058.1058 0 0 1-.033-.0798v-.3455h.9489v1.1422a1.3947 1.3947 0 0 1-.2134.1309 1.3668 1.3668 0 0 1-.2363.09 1.738 1.738 0 0 1-.2675.052 2.614 2.614 0 0 1-.305.0168c-.1954 0-.376-.035-.5422-.105a1.3158 1.3158 0 0 1-.4313-.2897c-.1216-.1231-.2168-.2692-.2858-.4382-.069-.169-.1035-.3526-.1035-.5507 0-.2018.033-.3872.099-.5562.0659-.169.1602-.3148.283-.4374.1227-.1225.271-.2179.445-.286.174-.068.3685-.1021.5835-.1021.111 0 .2155.0093.3132.0279.0977.0185.1878.044.2702.0761a1.2368 1.2368 0 0 1 .4094.26l-.1795.2767a.2007.2007 0 0 1-.0614.0613.1443.1443 0 0 1-.0778.0223c-.0367 0-.0745-.0124-.1136-.0372a1.9163 1.9163 0 0 0-.1383-.077.837.837 0 0 0-.1328-.053.86.86 0 0 0-.1429-.0297 1.383 1.383 0 0 0-.1685-.0093c-.116 0-.2204.0208-.3132.0623a.6721.6721 0 0 0-.2373.1755c-.0653.0755-.1157.1662-.151.272-.0355.1059-.0532.2238-.0532.3538 0 .1436.0195.2712.0586.3826.039.1114.0931.2055.1621.2823a.6885.6885 0 0 0 .2455.1755c.0946.0402.1981.0603.3105.0603zm-22.3215 5.2378v.4977h-.751v2.2081h-.6192v-2.208h-.751v-.4978h2.1212zm.9279 1.7048v1.001h-.6191v-2.7058h.8682c.193 0 .3575.0201.4937.0603.1361.0403.2473.0963.3334.1681.086.0718.1486.1566.1877.2544.0391.0979.0586.2043.0586.3195a.8686.8686 0 0 1-.0348.2488.758.758 0 0 1-.1035.2164.8072.8072 0 0 1-.1685.1773.8913.8913 0 0 1-.2299.1282.5813.5813 0 0 1 .1163.078.4626.4626 0 0 1 .0944.1133l.5678.9415h-.5605c-.1038 0-.1783-.0396-.2235-.1188l-.4433-.7856c-.0195-.0346-.0424-.0594-.0686-.0743-.0263-.0148-.0632-.0223-.1109-.0223h-.1575zm0-.4327h.2491c.0843 0 .156-.0108.2153-.0325.0592-.0216.1077-.0517.1456-.09a.3438.3438 0 0 0 .0824-.1347.5233.5233 0 0 0 .0257-.1662c0-.1189-.0382-.2117-.1145-.2786-.0764-.0668-.1945-.1003-.3545-.1003h-.2491v.8023zm4.3533 1.4337h-.4799c-.0537 0-.098-.0126-.1328-.038a.1964.1964 0 0 1-.0723-.0975l-.1576-.4717h-1.0148l-.1575.4717c-.0122.0346-.036.0659-.0715.0938-.0354.0278-.0787.0417-.13.0417h-.4836l1.0331-2.7058h.6338l1.0331 2.7058zm-1.7145-1.0344h.729l-.2454-.741a87.5124 87.5124 0 0 1-.0559-.1662 4.2693 4.2693 0 0 1-.0632-.207 3.73 3.73 0 0 1-.0604.2098 3.032 3.032 0 0 1-.0586.1671l-.2455.7373zm2.309-1.6714a.5184.5184 0 0 1 .0679.0037.1712.1712 0 0 1 .0494.014.165.165 0 0 1 .0421.0287.4855.4855 0 0 1 .0458.0502l1.2676 1.625a3.4702 3.4702 0 0 1-.011-.1514 2.7813 2.7813 0 0 1-.0036-.1384v-1.4318h.5458v2.7058h-.3223c-.0477 0-.088-.0074-.121-.0222-.033-.0149-.0647-.0421-.0952-.0818l-1.2584-1.612a5.977 5.977 0 0 1 .0091.1384c.0025.0452.0037.0876.0037.1272v1.4504h-.5459v-2.7058h.326zm3.9834.5497c-.0183.0297-.0375.052-.0577.0669-.0201.0148-.046.0222-.0778.0222-.0281 0-.0584-.009-.0907-.0269-.0324-.018-.069-.038-.11-.0603a.9054.9054 0 0 0-.14-.0604c-.0526-.018-.1124-.027-.1796-.027-.116 0-.2024.0251-.2592.0753-.0567.0501-.0851.118-.0851.2033 0 .0545.017.0997.0513.1356.0341.036.079.0669.1346.0929.0556.026.119.0498.1905.0715.0714.0216.1444.0458.2189.0724.0745.0266.1474.0579.2189.0938a.7302.7302 0 0 1 .1905.1374.642.642 0 0 1 .1346.2034c.0342.0798.0513.176.0513.2888 0 .125-.0214.242-.0641.351a.8228.8228 0 0 1-.186.285c-.0811.0811-.1813.1449-.3003.1913-.1191.0464-.2543.0697-.4058.0697-.083 0-.1676-.0087-.2537-.026a1.491 1.491 0 0 1-.25-.0734 1.4417 1.4417 0 0 1-.2271-.1124.9669.9669 0 0 1-.185-.1448l.1831-.2934a.15.15 0 0 1 .0568-.0539.1591.1591 0 0 1 .0788-.0204c.0366 0 .0735.0117.1108.0353.0372.0235.0794.0495.1264.078.047.0284.101.0544.1621.078.061.0235.1331.0352.2161.0352.1124 0 .1997-.025.262-.0752.0623-.0501.0934-.1297.0934-.2386 0-.0632-.017-.1145-.0513-.1542-.0342-.0396-.079-.0724-.1346-.0984a1.2294 1.2294 0 0 0-.1896-.0687 5.5989 5.5989 0 0 1-.218-.066 1.5822 1.5822 0 0 1-.218-.089.6884.6884 0 0 1-.1896-.1394c-.0555-.0575-.1004-.1293-.1346-.2154-.0342-.086-.0513-.1922-.0513-.3185a.7647.7647 0 0 1 .0605-.2971.7672.7672 0 0 1 .1777-.2582c.0781-.0755.174-.1358.2875-.181.1136-.0452.2437-.0678.3902-.0678.0818 0 .1615.0065.239.0195a1.249 1.249 0 0 1 .2208.0575c.0696.0254.1346.0558.195.091a.9001.9001 0 0 1 .1622.1198l-.1539.2916zm2.2688-.5497v.4828h-1.0954v.6853h.9122v.4847h-.9122v1.053h-.6228v-2.7058h1.7182zm2.093 0v.4828h-1.0955v.6315h.839v.4643h-.839v.6444h1.0954v.4828H41.832v-2.7058h1.7182zm1.0231 1.7048v1.001h-.6191v-2.7058h.8682c.193 0 .3575.0201.4937.0603.1362.0403.2473.0963.3334.1681.086.0718.1487.1566.1877.2544.0391.0979.0587.2043.0587.3195a.8686.8686 0 0 1-.0349.2488.758.758 0 0 1-.1034.2164.8072.8072 0 0 1-.1686.1773.8913.8913 0 0 1-.2299.1282.5813.5813 0 0 1 .1164.078.4626.4626 0 0 1 .0943.1133l.5678.9415h-.5605c-.1038 0-.1783-.0396-.2235-.1188l-.4432-.7856c-.0196-.0346-.0425-.0594-.0687-.0743-.0263-.0148-.0632-.0223-.1109-.0223h-.1575zm0-.4327h.2491c.0843 0 .156-.0108.2153-.0325.0592-.0216.1077-.0517.1456-.09a.3438.3438 0 0 0 .0824-.1347.5233.5233 0 0 0 .0257-.1662c0-.1189-.0382-.2117-.1145-.2786-.0763-.0668-.1945-.1003-.3545-.1003h-.249v.8023z"/><path fill="#C9C9C9" fill-rule="nonzero" d="M20.5165 18.6905v-.5H53v.5z"/></g></svg>