<?xml version="1.0" encoding="UTF-8"?>
<svg width="56px" height="36px" viewBox="0 0 56 36" version="1.1" xmlns="http://www.w3.org/2000/svg" xmlns:xlink="http://www.w3.org/1999/xlink">
    <!-- Generator: Sketch 46.2 (44496) - http://www.bohemiancoding.com/sketch -->
    <title>PM/Citadel</title>
    <desc>Created with Sketch.</desc>
    <defs></defs>
    <g id="Page-1" stroke="none" stroke-width="1" fill="none" fill-rule="evenodd">
        <g id="PM/Citadel">
            <path d="M0,3.75075247 C0,1.67926908 1.67596877,0 3.75035585,0 L52.2496442,0 C54.3209085,0 56,1.68806916 56,3.75075247 L56,32.2492475 C56,34.3207309 54.3240312,36 52.2496442,36 L3.75035585,36 C1.67909151,36 0,34.3119308 0,32.2492475 L0,3.75075247 Z" id="Rectangle-2" fill="#000000" fill-rule="nonzero"></path>
            <path d="M1.25,3.75075247 L1.25,32.2492475 C1.25,33.6250965 2.37296468,34.75 3.75035585,34.75 L52.2496442,34.75 C53.6324061,34.75 54.75,33.6316447 54.75,32.2492475 L54.75,3.75075247 C54.75,2.37490355 53.6270353,1.25 52.2496442,1.25 L3.75035585,1.25 C2.36759386,1.25 1.25,2.36835527 1.25,3.75075247 Z" id="Path" fill="#FFFFFF"></path>
            <g id="citadel" transform="translate(5.000000, 8.000000)" fill-rule="nonzero" fill="#6C2A7E">
                <path d="M17.6914769,17.4681818 L17.0318883,17.4681818 L17.0318883,20.8420063 L17.6914769,20.8420063 L17.6914769,17.4681818 L17.6914769,17.4681818 Z M10.9678178,17.3365204 L10.4187362,20.8420063 L11.2682586,20.8420063 L11.623953,18.3832288 L12.5563556,20.7366771 L13.1917708,20.7366771 L13.8237325,18.3832288 L14.2070536,20.815674 L15.056576,20.815674 L14.452241,17.3101881 L13.5474651,17.3101881 L12.8326231,19.6373041 L11.9554739,17.3101881 L10.9678178,17.3101881 L10.9678178,17.3365204 Z M2.79375459,17.4155172 L1.94423218,17.4155172 L1.94423218,20.7893417 L2.60382072,20.7893417 L2.60382072,19.6636364 L3.26340926,19.6636364 L4.30631888,20.7893417 L5.1005878,20.7893417 L5.1005878,20.7630094 L4.03005143,19.587931 C4.25106539,19.5352665 4.41337252,19.4562696 4.55150625,19.354232 C4.68963997,19.2489028 4.77252021,19.1205329 4.82432035,18.9888715 C4.87957384,18.85721 4.90720059,18.7025078 4.90720059,18.5181818 C4.90720059,18.3338558 4.8519471,18.1528213 4.76906686,17.9684953 C4.65855988,17.8105016 4.5238795,17.6557994 4.33049229,17.5504702 C4.13710507,17.4451411 3.91954445,17.3924765 3.61565026,17.3924765 C3.34283615,17.4155172 3.07002204,17.4155172 2.79375459,17.4155172 L2.79375459,17.4155172 Z M2.60382072,19.0876176 L2.60382072,17.9882445 L3.6191036,17.9882445 C3.75723733,17.9882445 3.86429096,18.0145768 3.97479794,18.0672414 C4.05767818,18.119906 4.14055841,18.1989028 4.1958119,18.2778997 C4.25106539,18.3568966 4.25106539,18.4358934 4.27869214,18.537931 C4.27869214,18.6169279 4.25106539,18.7222571 4.1958119,18.7979624 C4.14055841,18.8769592 4.08530492,18.9559561 4.00242469,19.0086207 C3.91954445,19.0612853 3.78141073,19.0876176 3.64673035,19.0876176 L2.60382072,19.0876176 L2.60382072,19.0876176 Z M7.15532697,18.8802508 L7.15532697,18.0968652 L8.80257164,18.0968652 L8.80257164,17.4945141 L6.49919177,17.4945141 L6.49919177,20.8683386 L8.80257164,20.8683386 L8.80257164,20.2396552 L7.15532697,20.2396552 L7.15532697,19.4529781 L8.80257164,19.4529781 L8.80257164,18.850627 L7.15532697,18.850627 L7.15532697,18.8802508 Z M7.29346069,5.17758621 C6.99301984,5.09858934 6.71675239,5.01959248 6.44393828,4.99326019 C6.19875092,4.9669279 5.95011021,4.9669279 5.72909625,4.9669279 C4.93482733,4.9669279 4.2199853,5.09858934 3.53277002,5.35862069 C2.84555474,5.64498433 2.24467303,6.01363636 1.72321822,6.51065831 C1.20176341,7.00768025 0.790815577,7.55736677 0.490374724,8.20909091 C0.189933872,8.86410658 0.0241734019,9.54216301 0.0241734019,10.2761755 C0.0241734019,11.0068966 0.189933872,11.7145768 0.462747979,12.3695925 C0.763188832,13.0246082 1.14996326,13.5973354 1.67141807,14.0680251 C2.19287289,14.565047 2.79720794,14.9567398 3.48096988,15.2431034 C4.16818516,15.5294671 4.90720059,15.6874608 5.70146951,15.6874608 C6.14004409,15.6874608 6.57861866,15.6347962 7.04481999,15.5294671 C7.51102131,15.4504702 7.97722263,15.295768 8.41579721,15.0587774 L8.44342395,15.0587774 C8.66443791,14.927116 8.88199853,14.7987461 9.13063924,14.6407524 L9.15826598,14.6144201 L9.15826598,12.5736677 L8.47450404,13.2319749 C8.17406319,13.4920063 7.8149155,13.7289969 7.40396767,13.8869906 C6.88251286,14.1470219 6.3334313,14.2786834 5.72909625,14.2786834 C5.1800147,14.2786834 4.65855988,14.1733542 4.19235856,13.9659875 C3.69853049,13.7553292 3.25995591,13.4689655 2.87663483,13.103605 C2.49331374,12.7382445 2.18941954,12.3202194 1.97185893,11.8231975 C1.75084497,11.3261755 1.61616458,10.8028213 1.61616458,10.2531348 C1.61616458,9.72978056 1.72667157,9.20642633 1.94423218,8.73573668 C2.16524614,8.23871473 2.43806025,7.82068966 2.82138134,7.48166144 C3.17707568,7.11630094 3.61565026,6.85297806 4.13710507,6.64561129 C4.63093314,6.43495298 5.1800147,6.33291536 5.78434974,6.33291536 C6.22292432,6.33291536 6.60624541,6.38557994 6.96539309,6.49090909 C7.32108744,6.62257053 7.62498163,6.75094044 7.87016899,6.90893417 C8.09118295,7.0669279 8.28111683,7.19529781 8.4468773,7.35329154 L8.50213079,7.40595611 L8.88545187,7.77131661 L8.88545187,5.78322884 C8.66443791,5.6515674 8.4468773,5.52319749 8.22586334,5.41786834 C7.89779574,5.33557994 7.59390154,5.25658307 7.29346069,5.17758621 L7.29346069,5.17758621 Z M15.5227774,8.96943574 L14.2346804,8.96943574 L14.2346804,9.96347962 L15.5227774,9.96347962 L15.5227774,15.3253918 L16.8661278,15.3253918 L16.8661278,9.93714734 L18.0471712,9.93714734 L18.0471712,8.94310345 L16.8661278,8.94310345 L16.8661278,6.45799373 L15.5227774,6.45799373 L15.5227774,8.96943574 L15.5227774,8.96943574 Z M12.6426892,8.96943574 L11.2993387,8.96943574 L11.2993387,15.3221003 L12.6426892,15.3221003 L12.6426892,8.96943574 L12.6426892,8.96943574 Z M12.6703159,5.17758621 C12.4769287,4.99326019 12.2593681,4.89122257 11.9831007,4.89122257 C11.7068332,4.89122257 11.4616458,4.99655172 11.2682586,5.17758621 C11.0748714,5.35862069 10.9954445,5.59561129 10.9954445,5.85893417 C10.9954445,6.12225705 11.0783248,6.35595611 11.2682586,6.54028213 C11.4581925,6.72460815 11.7068332,6.82664577 11.9831007,6.82664577 C12.2593681,6.82664577 12.4769287,6.72131661 12.6703159,6.54028213 C12.8637032,6.35924765 12.9707568,6.12225705 12.9707568,5.85893417 C12.9707568,5.59561129 12.8637032,5.36191223 12.6703159,5.17758621 L12.6703159,5.17758621 Z M40.297061,17.4155172 C39.9689934,17.4155172 39.6927259,17.4681818 39.4475386,17.573511 C39.2265246,17.6788401 39.0365907,17.80721 38.8708303,17.9915361 C38.7050698,18.1495298 38.5980162,18.3305643 38.5151359,18.5675549 C38.4875092,18.672884 38.4598824,18.7782132 38.4322557,18.9065831 C38.4046289,19.0119122 38.4046289,19.1172414 38.4046289,19.2456113 C38.4046289,19.3509404 38.4046289,19.4793103 38.4322557,19.5846395 C38.4598824,19.6899687 38.4875092,19.7952978 38.5151359,19.8973354 C38.5980162,20.1079937 38.7085231,20.2890282 38.8708303,20.4470219 C39.008964,20.6050157 39.1988979,20.7333856 39.4475386,20.8387147 C39.6927259,20.9440439 39.9689934,20.9967085 40.297061,20.9967085 C40.5422483,20.9967085 40.7908891,20.9440439 41.011903,20.865047 C41.232917,20.7860502 41.4504776,20.6543887 41.6438648,20.4996865 L41.2052902,20.0553292 C41.0947832,20.1606583 40.9601029,20.2659875 40.7943424,20.2890282 C40.6285819,20.3416928 40.4662748,20.3680251 40.3005143,20.3680251 C40.0000735,20.3680251 39.7790595,20.3153605 39.5856723,20.2100313 C39.3922851,20.1047022 39.2852314,19.95 39.2023512,19.765674 C39.119471,19.581348 39.0918442,19.4003135 39.0918442,19.2159875 C39.0918442,19.084326 39.119471,18.9296238 39.1747245,18.7979624 C39.229978,18.6663009 39.2852314,18.537931 39.3957384,18.4326019 C39.5062454,18.3272727 39.6167524,18.2219436 39.7790595,18.1725705 C39.94482,18.0935737 40.1071271,18.0672414 40.3281411,18.0672414 C40.4939015,18.0672414 40.6285819,18.0935737 40.7667157,18.1462382 C40.9324761,18.1989028 41.0671565,18.2778997 41.1776635,18.3799373 L41.6162381,17.9619122 C41.4228508,17.8039185 41.232917,17.6755486 41.011903,17.5965517 C40.7632623,17.4681818 40.5146216,17.4155172 40.297061,17.4155172 L40.297061,17.4155172 Z M33.1348273,17.4681818 L33.1348273,20.8420063 L33.7944159,20.8420063 L33.7944159,18.5412226 L35.6592212,20.8420063 L36.070169,20.8420063 L36.070169,17.4681818 L35.4105805,17.4681818 L35.4105805,19.5615987 L33.6839089,17.4681818 L33.1348273,17.4681818 L33.1348273,17.4681818 Z M22.4087436,18.0409091 L22.4087436,17.4648903 L19.5010287,17.4648903 L19.5010287,18.0409091 L20.5991918,18.0409091 L20.5991918,20.865047 L21.2587803,20.865047 L21.2587803,18.0409091 L22.4087436,18.0409091 L22.4087436,18.0409091 Z M24.5498163,17.4681818 L23.5621602,17.4681818 L23.5621602,18.0442006 L24.68795,18.0442006 L24.68795,20.8683386 L25.3751653,20.8683386 L25.3751653,18.0442006 L26.5009552,18.0442006 L26.5009552,17.4681818 L24.5498163,17.4681818 L24.5498163,17.4681818 Z M29.7332843,17.4681818 L28.9942689,17.4681818 L27.4022777,20.8420063 L28.1412932,20.8420063 L28.441734,20.2133229 L30.3065393,20.2133229 L30.6069802,20.8420063 L31.3459956,20.8420063 L29.7332843,17.4681818 L29.7332843,17.4681818 Z M30.0371785,19.6109718 L28.7214548,19.6109718 L29.3810434,18.1725705 L30.0371785,19.6109718 L30.0371785,19.6109718 Z M33.3005878,9.33479624 C33.0795738,9.02210031 32.7515062,8.78510972 32.3681852,8.57774295 C31.9848641,8.39341693 31.5739162,8.3177116 31.1353417,8.3177116 C30.5586334,8.3177116 30.0648053,8.42304075 29.6538575,8.65673981 C29.2429096,8.86739812 28.914842,9.15376176 28.6385746,9.51912226 C28.3657605,9.85815047 28.1447465,10.2498433 28.0066128,10.6942006 C27.8684791,11.1122257 27.8132256,11.5565831 27.8132256,11.9482759 C27.8132256,12.3926332 27.8961058,12.8369906 28.0342395,13.2550157 C28.1723733,13.6730408 28.3899339,14.0647335 28.6662013,14.4070533 C28.9390154,14.7460815 29.2981631,15.0094044 29.7091109,15.1904389 C30.1200588,15.4010972 30.5862601,15.5031348 31.1077149,15.5031348 C31.5739162,15.5031348 32.0124908,15.3978056 32.3958119,15.2167712 C32.779133,15.0324451 33.1106539,14.7460815 33.383468,14.3543887 L33.383468,15.3221003 L34.6439383,15.3221003 L34.6439383,4.75956113 L33.3005878,4.75956113 L33.3005878,9.33479624 L33.3005878,9.33479624 Z M31.2147686,9.49278997 C31.5152094,9.49278997 31.8191036,9.54545455 32.0919177,9.67711599 C32.3371051,9.78244514 32.5857458,9.96347962 32.779133,10.1741379 C32.9725202,10.3847962 33.1348273,10.6448276 33.2729611,10.9311912 C33.383468,11.2175549 33.4387215,11.5598746 33.4387215,11.9252351 C33.4387215,12.237931 33.383468,12.5539185 33.2729611,12.8402821 C33.1624541,13.1266458 33.000147,13.3899687 32.779133,13.5973354 C32.5857458,13.8079937 32.3405584,13.9890282 32.0919177,14.1206897 C31.8191036,14.2523511 31.5152094,14.331348 31.2147686,14.331348 C30.9143277,14.331348 30.6104335,14.2523511 30.3376194,14.1206897 C30.0648053,13.9890282 29.8437913,13.8079937 29.6780309,13.5710031 C29.4846436,13.3603448 29.3223365,13.1003135 29.2118295,12.8139498 C29.1013226,12.5275862 29.0460691,12.237931 29.0460691,11.9252351 C29.0460691,11.6652038 29.1013226,11.3755486 29.1842028,11.089185 C29.267083,10.8028213 29.4052168,10.5394984 29.5675239,10.3057994 C29.7609111,10.0721003 29.9784717,9.88777429 30.2547392,9.70344828 C30.5310066,9.57178683 30.8314475,9.49278997 31.2147686,9.49278997 L31.2147686,9.49278997 Z M23.9454813,8.60407524 C23.5621602,8.41974922 23.1235856,8.3177116 22.6573843,8.3177116 C22.0530492,8.3177116 21.5315944,8.42304075 21.1206466,8.65673981 C20.682072,8.86739812 20.3263777,9.15376176 20.0224835,9.51912226 C19.7496694,9.85815047 19.5286554,10.2498433 19.3905217,10.6942006 C19.252388,11.1122257 19.1695077,11.5565831 19.1695077,11.9482759 C19.1695077,12.3926332 19.252388,12.8369906 19.3905217,13.2550157 C19.5286554,13.6730408 19.7738428,14.0647335 20.0501102,14.4070533 C20.3505511,14.7460815 20.7096988,15.0094044 21.1482733,15.1904389 C21.5868479,15.3747649 22.080676,15.5031348 22.6297575,15.5031348 C23.0683321,15.5031348 23.5069067,15.3978056 23.8902278,15.1904389 C24.3011756,14.9797806 24.6050698,14.6670846 24.8502572,14.2753918 L24.8778839,14.2753918 L24.8778839,15.3221003 L26.1659809,15.3221003 L26.1659809,8.52507837 L24.8778839,8.52507837 L24.8778839,9.49278997 L24.8502572,9.49278997 C24.6326965,9.10109718 24.3288024,8.81144201 23.9454813,8.60407524 L23.9454813,8.60407524 Z M22.6573843,9.49278997 C22.9578251,9.49278997 23.2617193,9.54545455 23.5345334,9.67711599 C23.8073475,9.78244514 24.0559882,9.96347962 24.2735489,10.1741379 C24.4669361,10.3847962 24.6292432,10.6448276 24.7673769,10.9311912 C24.8778839,11.2175549 24.9607641,11.5598746 24.9607641,11.9252351 C24.9607641,12.237931 24.9055107,12.5539185 24.7673769,12.8402821 C24.6568699,13.1266458 24.4945628,13.3899687 24.2735489,13.5973354 C24.0525349,13.8079937 23.8073475,13.9890282 23.5345334,14.1206897 C23.2617193,14.2523511 22.9578251,14.331348 22.6297575,14.331348 C22.3016899,14.331348 21.9977957,14.2523511 21.7249816,14.1206897 C21.4521675,13.9890282 21.2035268,13.8079937 21.0101396,13.5710031 C20.8167524,13.3603448 20.6544453,13.1003135 20.5439383,12.8139498 C20.4334313,12.5275862 20.3781778,12.237931 20.3781778,11.9252351 C20.3781778,11.6652038 20.4334313,11.3755486 20.5163115,11.089185 C20.5991918,10.8028213 20.7373255,10.5394984 20.9272594,10.3057994 C21.1206466,10.0721003 21.3382072,9.88777429 21.6421014,9.70344828 C21.9425422,9.57178683 22.2706098,9.49278997 22.6573843,9.49278997 L22.6573843,9.49278997 Z M28.089493,2.24811912 L28.089493,3.11050157 L27.4299045,3.73918495 L27.4299045,5.7799373 L28.6385746,6.95501567 L28.6385746,7.65940439 L29.9266716,7.65940439 L29.9266716,6.48432602 L28.5556943,5.17758621 L28.5556943,3.47915361 L29.7885378,2.27774295 L29.7885378,0.839341693 C29.3499633,0.681347962 28.8837619,0.552978056 28.4451874,0.421316614 L28.4451874,1.28369906 L26.2246877,1.28369906 L26.2246877,0.0822884013 C25.4856723,0.0296238245 24.7708303,0.00329153605 24.0283615,0.0822884013 L24.0283615,1.31003135 L21.8320353,1.31003135 L21.8320353,0.394984326 C21.3105805,0.526645768 20.8167524,0.655015674 20.2952976,0.839341693 L20.2952976,2.25141066 L21.4763409,3.37711599 L21.4763409,5.44420063 L20.3229243,6.51724138 L20.3229243,7.63636364 L21.5557678,7.63636364 L21.5557678,6.85297806 L22.5986774,5.85893417 L22.5986774,3.68652038 L21.8044085,2.95579937 L21.8044085,2.3007837 C22.1048494,2.19545455 22.4363703,2.11645768 22.7368112,2.06708464 L22.7368112,2.64310345 L24.546363,2.64310345 L24.546363,1.83338558 C24.9296841,1.80705329 25.3406319,1.83338558 25.7274063,1.85971787 L25.7274063,2.64310345 L27.3193975,2.64310345 L27.3193975,2.06708464 C27.595665,2.11645768 27.8132256,2.19545455 28.089493,2.24811912 L28.089493,2.24811912 Z M38.8432035,8.60407524 C38.4046289,8.78840125 38.0489346,9.0484326 37.7174137,9.36112853 C37.3893461,9.67382445 37.1407054,10.0655172 36.9507715,10.4868339 C36.7573843,10.9311912 36.6779574,11.4018809 36.6779574,11.9252351 C36.6779574,12.3959248 36.7608376,12.8666144 36.9507715,13.3109718 C37.1407054,13.7553292 37.3893461,14.1206897 37.7174137,14.4630094 C38.0454813,14.7757053 38.4046289,15.0390282 38.8155768,15.246395 C39.2541514,15.430721 39.7203527,15.5327586 40.2141807,15.5327586 C40.4869949,15.5327586 40.7632623,15.5064263 41.0913299,15.4274295 C41.4193975,15.3484326 41.7232917,15.2167712 42.0237325,15.0357367 C42.3241734,14.8514107 42.6280676,14.6177116 42.873255,14.331348 C43.0942689,14.0976489 43.256576,13.834326 43.3947098,13.5216301 L42.2136664,13.2352665 C42.047906,13.5216301 41.8027186,13.784953 41.4470242,14.018652 C41.1189566,14.2523511 40.7080088,14.3840125 40.2141807,14.3840125 C39.9931668,14.3840125 39.7756062,14.3576803 39.5545922,14.2786834 C39.3094048,14.1996865 39.0883909,14.0943574 38.8950037,13.9396552 C38.6739897,13.7816614 38.4840558,13.600627 38.3182954,13.3636364 C38.1525349,13.1299373 38.0454813,12.8666144 37.962601,12.5275862 L43.6951506,12.5275862 C43.6951506,12.4749216 43.7227774,12.3959248 43.7227774,12.2675549 L43.7227774,11.8758621 C43.7227774,11.3788401 43.6398971,10.9081505 43.4499633,10.4901254 C43.256576,10.0721003 43.0113887,9.70673981 42.6833211,9.36442006 C42.3552535,9.05172414 41.9684791,8.81473354 41.5299045,8.63369906 C41.1189566,8.44937304 40.6803821,8.37366771 40.2141807,8.37366771 C39.7479794,8.31442006 39.2817781,8.41974922 38.8432035,8.60407524 L38.8432035,8.60407524 Z M38.183615,10.7468652 C38.294122,10.5131661 38.4288024,10.2761755 38.6498163,10.0918495 C38.8432035,9.90752351 39.0883909,9.75282132 39.3370316,9.64749216 C39.6098457,9.54216301 39.8861132,9.46316614 40.2141807,9.46316614 C40.5146216,9.46316614 40.7908891,9.51583072 41.0637032,9.64749216 C41.3088905,9.75282132 41.5575312,9.90752351 41.7785452,10.0918495 C41.9719324,10.2761755 42.1342395,10.4835423 42.2723733,10.7468652 C42.3828802,10.9805643 42.4381337,11.2438871 42.4657605,11.4775862 L37.9936811,11.4775862 C37.9902278,11.2438871 38.0454813,11.0068966 38.183615,10.7468652 L38.183615,10.7468652 Z M45.4252755,19.4529781 L45.4252755,18.850627 L43.8056576,18.850627 L43.8056576,18.0672414 L45.4252755,18.0672414 L45.4252755,17.4648903 L43.1218957,17.4648903 L43.1218957,20.8354232 L45.4252755,20.8354232 L45.4252755,20.2067398 L43.8056576,20.2067398 L43.8056576,19.4233542 L45.4252755,19.4233542 L45.4252755,19.4529781 Z M46.98964,4.70689655 L45.6462895,4.70689655 L45.6462895,15.3221003 L46.98964,15.3221003 L46.98964,4.70689655 Z" id="Shape"></path>
            </g>
        </g>
    </g>
</svg>