<?xml version="1.0" encoding="UTF-8"?><svg width="56" height="36" viewBox="0 0 56 36" xmlns="http://www.w3.org/2000/svg"><defs><linearGradient x1=".016%" y1="49.77%" x2="100.001%" y2="49.77%" id="a"><stop stop-color="#FF8000" offset="0%"/><stop stop-color="#FF8101" offset="27.4%"/><stop stop-color="#FF8507" offset="48.3%"/><stop stop-color="#FD9D2E" offset="74.7%"/><stop stop-color="#FCA73F" offset="85.2%"/><stop stop-color="#FBAF4C" offset="92.3%"/><stop stop-color="#FAB85A" offset="98.1%"/><stop stop-color="#FABE64" offset="100%"/></linearGradient><linearGradient x1="-.021%" y1="49.529%" x2="99.943%" y2="49.529%" id="b"><stop stop-color="#FF8000" offset="0%"/><stop stop-color="#FF8101" offset="27.4%"/><stop stop-color="#FF8507" offset="48.3%"/><stop stop-color="#FD9D2E" offset="74.7%"/><stop stop-color="#FCA73F" offset="85.2%"/><stop stop-color="#FBAF4C" offset="92.3%"/><stop stop-color="#FAB85A" offset="98.1%"/><stop stop-color="#FABE64" offset="100%"/></linearGradient></defs><g fill="none" fill-rule="evenodd"><path d="M0 3.75A3.749 3.749 0 013.75 0h48.5A3.756 3.756 0 0156 3.75v28.5A3.749 3.749 0 0152.25 36H3.75A3.756 3.756 0 010 32.25V3.75z" fill="#000" fill-rule="nonzero"/><path d="M1.25 3.75v28.5c0 1.375 1.123 2.5 2.5 2.5h48.5c1.382 0 2.5-1.118 2.5-2.5V3.75c0-1.375-1.123-2.5-2.5-2.5H3.75a2.499 2.499 0 00-2.5 2.5z" fill="#FFF"/><g fill-rule="nonzero"><path d="M32.447 6.448L26.734.76s-.74-.738-1.784-.738c0 0-1.045 0-1.785.738 0 0-.74.737-.74 1.78 0 0 0 1.042.74 1.78l1.39 1.382h-5.331s-1.054 0-1.798.742c0 0-.744.737-.744 1.788 0 0 0 1.047.744 1.793 0 0 .74.738 1.798.738h5.327l-1.39 1.387s-.74.737-.74 1.78c0 0 0 1.042.74 1.78 0 0 .74.728 1.784.728 0 0 1.045 0 1.785-.729l5.704-5.697s.74-.738.74-1.78c.008-.004.008-1.047-.727-1.784" fill="url(#a)" transform="translate(7 4)"/><path d="M11.895 4.717s1.4 0 2.382.985c0 0 .988.984.988 2.376 0 0 0 1.395-.988 2.376 0 0-.987.984-2.382.984 0 0-1.4 0-2.383-.984 0 0-.987-.985-.987-2.376 0 0 0-1.396.987-2.376 0 0 .988-.985 2.383-.985" fill="url(#b)" transform="translate(7 4)"/><path d="M9.847 30.052s-.469.093-.885.093c-1.231 0-1.927-.671-1.927-1.93V26.79c0-1.259.682-1.93 1.927-1.93.46 0 .885.092.885.092.133.023.195.093.195.204v.618c0 .115-.07.177-.195.163 0 0-.438-.062-.814-.062-.66 0-.877.385-.877.937v1.373c0 .57.235.945.886.945.398 0 .814-.061.814-.061.115-.01.186.04.186.154v.618c0 .106-.053.181-.195.212m1.834-.013h-.73a.188.188 0 01-.196-.194v-6.828c0-.115.084-.194.195-.194h.73c.116 0 .196.084.196.194v6.828a.188.188 0 01-.195.194m1.988 0h-.735a.188.188 0 01-.195-.194v-4.69c0-.115.084-.195.195-.195h.73c.116 0 .196.084.196.195v4.694c0 .11-.08.19-.19.19m0-6.095h-.736a.188.188 0 01-.195-.194v-.729c0-.114.084-.194.195-.194h.73c.116 0 .196.084.196.194v.73c0 .11-.08.193-.19.193m3.87 6.108s-.47.093-.886.093c-1.231 0-1.926-.671-1.926-1.93v-1.422c0-1.259.682-1.93 1.926-1.93.46 0 .886.093.886.093.133.022.195.093.195.203v.618c0 .115-.071.177-.195.164 0 0-.439-.062-.815-.062-.66 0-.877.384-.877.936v1.374c0 .57.235.945.886.945.398 0 .815-.062.815-.062.115-.009.186.04.186.154v.619c0 .101-.054.176-.195.207m4.556-.013h-.828c-.115 0-.203-.093-.252-.194l-1.386-2.65 1.262-2.04c.062-.093.155-.195.261-.195h.824c.115 0 .173.102.115.195l-1.262 2.018 1.4 2.672c.044.093-.023.194-.134.194m-2.719 0h-.735a.188.188 0 01-.195-.194v-6.828c0-.115.085-.194.195-.194h.731c.115 0 .195.084.195.194v6.828a.187.187 0 01-.19.194" fill="#FF8000"/><path d="M25.117 27.915h-.855c-.554 0-.775.234-.775.671 0 .384.221.61.673.61.315 0 .66-.124.961-.274l-.004-1.007zm.93 2.124h-.682a.188.188 0 01-.195-.194v-.093c-.323.203-.753.384-1.231.384-.992 0-1.568-.499-1.568-1.523 0-1.047.642-1.564 1.776-1.564.345 0 .846.04.979.062v-.406c0-.53-.235-.813-.837-.813-.603 0-1.369.177-1.369.177-.124.03-.195-.053-.195-.164v-.618c0-.115.071-.185.195-.212 0 0 .66-.212 1.52-.212 1.354 0 1.806.627 1.806 1.846v3.14a.19.19 0 01-.2.19zm4.742 0h-.73a.188.188 0 01-.195-.194v-3.158c0-.477-.146-.782-.682-.782-.314 0-.66.146-.948.296v3.648a.188.188 0 01-.195.195h-.73a.188.188 0 01-.195-.195v-4.694c0-.115.084-.195.195-.195h.682c.115 0 .195.084.195.195v.154c.292-.22.73-.446 1.315-.446 1.111 0 1.488.671 1.488 1.727v3.264a.199.199 0 01-.2.185zm3.605-4.001a2.327 2.327 0 00-.854-.194c-.563 0-.775.353-.775.865v1.572c0 .508.212.866.775.866.274 0 .584-.102.854-.234v-2.875zm.926 4.001h-.682a.188.188 0 01-.195-.194v-.062c-.314.194-.7.353-1.138.353-1.13 0-1.66-.689-1.66-1.78V26.63c0-1.087.53-1.78 1.66-1.78.416 0 .784.124 1.09.274v-2.116c0-.115.083-.194.194-.194h.73c.116 0 .196.084.196.194v6.828c0 .124-.085.203-.195.203z" fill="gray"/><path d="M39.133 26.705c0-.508-.204-.866-.762-.866-.275 0-.593.102-.868.234v2.999h.784c.61 0 .846-.336.846-.844v-1.523zm-.744 3.334h-1.816a.188.188 0 01-.195-.194v-6.828c0-.115.084-.194.195-.194h.73c.116 0 .196.084.196.194v2.155a2.12 2.12 0 011.098-.313c1.13 0 1.652.689 1.652 1.78v1.625c0 1.104-.598 1.775-1.86 1.775zm6.408 0h-.682a.188.188 0 01-.195-.194v-.155c-.293.221-.73.446-1.315.446-1.112 0-1.488-.671-1.488-1.727v-3.263c0-.115.084-.195.194-.195h.731c.115 0 .195.084.195.195v3.162c0 .477.146.782.682.782.314 0 .66-.146.948-.292V25.15c0-.115.084-.194.194-.194h.731c.115 0 .195.084.195.194v4.695c.004.115-.08.194-.19.194zm2.922 1.745c-.04.101-.101.185-.212.185h-.824c-.115 0-.195-.093-.155-.194l.585-1.696-1.626-4.924c-.03-.102.031-.195.155-.195h.806c.116 0 .195.07.222.186l1.036 3.22 1.09-3.22c.04-.102.115-.186.22-.186h.807c.124 0 .195.102.155.203l-2.259 6.62z" fill="#FF8000"/></g></g></svg>