<?xml version="1.0" encoding="UTF-8"?><svg width="56" height="36" viewBox="0 0 56 36" xmlns="http://www.w3.org/2000/svg"><g fill="none" fill-rule="evenodd"><path d="M0 3.75A3.749 3.749 0 013.75 0h48.5A3.756 3.756 0 0156 3.75v28.5A3.749 3.749 0 0152.25 36H3.75A3.756 3.756 0 010 32.25V3.75z" fill="#000" fill-rule="nonzero"/><path d="M1.25 3.75v28.5c0 1.375 1.123 2.5 2.5 2.5h48.5c1.382 0 2.5-1.118 2.5-2.5V3.75c0-1.375-1.123-2.5-2.5-2.5H3.75a2.499 2.499 0 00-2.5 2.5z" fill="#FFF"/><g><path d="M2 5c2.37.443 4.703.993 7.05 1.484 15.019 3.231 30.027 6.487 45.047 9.682a.551.551 0 01-.276.192c-12.386 4.607-24.773 9.227-37.16 13.823-.311.12-.61.299-.946.299-.574-1.664-1.244-3.28-1.927-4.895C10.844 18.763 7.23 12.229 2.85 6.233 2.562 5.826 2.203 5.455 2 5z" fill="#291670"/><path d="M38.658 16.274c.67-.419 1.496-.156 2.166.108-.024.323.048.694-.131.98-.42-.19-.874-.406-1.34-.286-.025.18 0 .383.167.49.383.324.837.599 1.089 1.054.167.466.036 1.065-.36 1.388-.538.479-1.34.419-1.986.227-.191-.084-.43-.12-.55-.287 0-.287.06-.562.12-.838.478.048.92.371 1.411.264.204-.012.24-.312.108-.431-.407-.395-.933-.682-1.209-1.197-.251-.527 0-1.209.515-1.472z" fill="#FCFCFB"/><path d="M13.884 14.132c1.628.06 3.256.024 4.883.024-.084.347-.096.718-.191 1.053-.814.143-1.688-.036-2.514.083-.036.455-.131.898-.167 1.353.718.036 1.436.012 2.166.012-.036.347-.084.682-.12 1.03-.742.035-1.496-.013-2.238.023-.024.527-.18 1.041-.18 1.58 1.042.012 2.083.012 3.136 0-.023.335-.083.67-.143 1.005h-4.5c.227-1.58.467-3.16.706-4.74.06-.406.168-.813.144-1.22-.324-.048-.683-.024-.982-.203z" fill="#FDFDFC"/><path d="M24.93 15.412c.013.24-.011.49-.035.73.49-.048 1.017-.131 1.484.072.622.263 1.077.922 1.017 1.604.036.981-.574 1.962-1.496 2.322-.526.25-1.113.191-1.675.215-.06.658-.18 1.316-.3 1.975h-1.172c.071-.683.25-1.34.263-2.035-.36.012-.718-.012-1.09.012-.25-.515-.478-1.03-.765-1.52-.455.395-.79.934-.97 1.508h-1.388a6.415 6.415 0 011.101-1.95c.18-.24.443-.396.587-.647-.264-.49-.623-.91-.922-1.376a6.724 6.724 0 00-1.101-.096v-.06c.682.012 1.388-.084 2.07.024.276.335.527.682.79 1.03a8.584 8.584 0 012.298-.67c.024-.336.144-.66.072-.982-.311-.024-.61-.06-.922-.048v-.072a25.873 25.873 0 012.155-.036zm1.066 1.891c-.24-.443-.79-.419-1.22-.323-.18.742-.24 1.52-.36 2.286.383.084.826.072 1.161-.168.527-.407.67-1.196.419-1.795z" fill="#FDFDFC"/><path d="M33.823 16.322c.682.43.802 1.316.73 2.058-.946.024-1.891-.084-2.813.06.012.347.156.754.515.874.682.275 1.376-.072 1.999-.3 0 .36-.096.695-.18 1.042-.885.383-2.034.538-2.86-.072-.766-.598-.862-1.747-.527-2.597.455-1.185 2.047-1.688 3.136-1.065zm-.79.634c-.503-.18-1.017.203-1.065.706h1.4c-.036-.263 0-.658-.335-.706z" fill="#FDFCFB"/><path d="M35.486 16.322c.527-.383 1.221-.288 1.808-.108.155.06.37.096.442.287-.012.287-.035.563-.06.85-.43-.072-.837-.383-1.292-.3-.215.049-.167.336-.036.444.371.347.826.61 1.113 1.04.347.659-.06 1.52-.766 1.736-.67.204-1.424.096-2.034-.251-.108-.287.024-.61.06-.91.478.036.921.347 1.412.276.18-.024.287-.264.155-.395-.37-.42-.921-.683-1.208-1.185-.288-.503-.084-1.197.406-1.484z" fill="#FCFCFA"/><path d="M27.85 16.142c.444.012.887.012 1.33.012-.025.18-.049.371-.072.563.31-.264.586-.694 1.053-.635.215.036.55.06.634.3-.144.406-.347.79-.527 1.184-.18-.12-.359-.275-.586-.31-.323.035-.586.298-.718.586-.18.813-.24 1.64-.383 2.453-.395 0-.778 0-1.173.012.036-.682.168-1.34.263-2.01.084-.719.335-1.437.18-2.155z" fill="#FDFDFB"/><path d="M7.517 10.254c.395-.97 1.377-1.652 2.43-1.723.586-.024 1.173-.024 1.759.107-.036.288.084.659-.132.886-.778-.12-1.627-.216-2.345.18-.886.502-1.21 2.022-.276 2.632.742.395 1.664.144 2.286-.359-.036.371-.024.754-.18 1.101-.957.55-2.345.527-3.135-.299-.622-.682-.694-1.687-.407-2.525z" fill="#F4D205"/><path d="M16.541 8.602c.048.563-.143 1.125-.167 1.688.454-.168 1.04-.395 1.46-.012.538.359.574 1.089.49 1.675a1.61 1.61 0 01-1.1 1.293c-.719.287-1.497.168-2.239.096.12-1.472.42-2.92.61-4.393.084-.359-.394-.227-.61-.25l.012-.073c.515 0 1.03-.06 1.544-.024zm.658 2.31c-.37-.084-.813.024-.981.395-.132.443-.192.91-.203 1.376.418 0 .885-.083 1.172-.418.312-.383.252-.946.012-1.353z" fill="#F4D305"/><path d="M14.339 10.302c.934.574.826 2.082 0 2.705-.682.61-1.975.622-2.465-.24-.599-.97 0-2.381 1.1-2.669.455-.036.982-.107 1.365.204zm-.407.885c-.108-.347-.562-.43-.838-.263-.634.347-.706 1.747.192 1.736.634-.096.885-.946.646-1.473z" fill="#F4D205"/><path d="M19.784 10.505c.204-.167.383-.455.695-.43.191-.013.383.06.562.131-.024.371-.251.67-.383 1.005-.203-.06-.395-.227-.622-.167a.75.75 0 00-.467.61c-.084.563-.18 1.137-.227 1.7-.3.012-.61.012-.91.012-.072-.515.144-1.042.18-1.556.024-.55.239-1.113.107-1.664a5.047 5.047 0 011.042.012c0 .084.011.264.023.347zM23.626 10.35c.766.55.766 1.747.168 2.417-.55.694-1.64.886-2.37.383-.562-.43-.694-1.256-.455-1.903.192-.586.73-1.029 1.34-1.149.444-.06.958-.071 1.317.252zm-.61.61c-.204-.144-.479-.144-.706-.036-.467.3-.575.982-.36 1.46.132.287.48.3.743.24.586-.3.706-1.15.323-1.664z" fill="#F4D305"/><path d="M24.775 16.98c.431-.096.981-.12 1.22.323.252.599.109 1.388-.418 1.795-.335.24-.778.252-1.16.168.119-.766.179-1.544.358-2.286z" stroke="#29166F" stroke-width=".55"/><path d="M31.968 17.662c.048-.503.562-.885 1.065-.706.335.048.3.443.335.706h-1.4z" stroke="#281571" stroke-width=".55"/><path d="M21.927 18.081c.478-.3.97-.646 1.532-.766-.06.981-.276 1.939-.395 2.896-.216-.107-.264-.359-.36-.562-.227-.539-.55-1.03-.777-1.568z" fill="#28166E"/><path d="M21.927 18.081c.478-.3.97-.646 1.532-.766-.06.981-.276 1.939-.395 2.896-.216-.107-.264-.359-.36-.562-.227-.539-.55-1.03-.777-1.568z" stroke="#28166E" stroke-width=".55"/><path d="M27.803 24.568c.12-.06.359.024.287.18-.131.203-.61-.037-.287-.18z" fill="#27166C"/><g><path d="M21.448 22.868c.18-.155.371.18.18.287-.168.132-.348-.167-.18-.287z" fill="#FCF9FE"/><path d="M15.368 23.347c.3.048.587-.048.874-.024.3.311.06.79 0 1.16h-.3c.037-.31.073-.621.096-.92-.514-.049-.394.598-.514.92-.072 0-.228 0-.3-.011.037-.371.096-.754.144-1.125z" fill="#FAF8F7"/><path d="M21.328 23.335c.084 0 .252 0 .335-.012a12.32 12.32 0 01-.167 1.16h-.287c.012-.382.071-.765.12-1.148z" fill="#FDFAEF"/><path d="M30.1 23.383c.228-.12.515-.012.767-.048a2.264 2.264 0 01-.06.275c-.132.036-.263.06-.395.096-.096.275-.012.862-.467.73.06-.347.084-.706.156-1.053z" fill="#F8F9F2"/><path d="M13.669 22.76h.311c-.012.383-.108.766-.096 1.15.012.299.467.323.635.167.239-.383.203-.862.287-1.28.12-.013.24-.025.37-.048-.023.49-.083 1.005-.286 1.46-.336.37-1.078.43-1.34-.072-.085-.455.011-.922.119-1.376z" fill="#FCFBF8"/><path d="M23.112 22.856c.083 0 .25.012.335.024-.024.168-.132.3-.323.311 0-.083-.012-.251-.012-.335z" fill="#F9F6FC"/><path d="M17.235 23.479c.168-.24.814-.288.718.12-.155-.013-.31-.013-.466-.013.143.18.454.288.43.563 0 .419-.85.502-.801.024.155.012.323.012.49 0-.143-.216-.49-.395-.37-.694z" fill="#FEFBFF"/><path d="M19.401 23.347c.36 0 .707-.024 1.066-.036.06.168.06.395.215.515.132-.216.192-.587.527-.515-.012.287-.216.527-.335.778-.096.156-.156.419-.395.359-.168-.251-.168-.586-.252-.874-.167.06-.383.036-.514.168-.096.24-.096.503-.132.742h-.287c-.024-.383.072-.766.107-1.137z" fill="#FBF8F7"/><path d="M22.01 23.43c.204-.155.503-.13.754-.107.132.383-.335.24-.538.323-.12.144-.12.335-.084.503.192.024.395.036.599.036 0 .383-.407.31-.67.275-.384-.18-.396-.79-.06-1.03z" fill="#FDF9F7"/><path d="M23.028 23.347c.072 0 .24-.012.323-.024-.024.371-.084.73-.144 1.09-.072.011-.215.035-.275.047 0-.371.06-.742.096-1.113z" fill="#FAF8F7"/><path d="M24.631 23.897c-.011.527-.706.754-1.065.42-.227-.324-.095-.826.276-.97.37-.18.885.12.79.55zm-.584-.327l-.074.016c-.24.12-.275.67.084.623.335-.072.311-.754-.084-.623z" fill="#FCF9FA"/><path d="M25.445 23.514c.108-.31.503-.167.754-.167.048.3-.263.263-.454.24.131.19.382.322.382.574-.035.347-.526.407-.765.227-.168-.263.25-.203.394-.227-.095-.216-.43-.383-.31-.647z" fill="#FBF8F9"/><path d="M27.133 23.359c.215.084.227.335.263.538-.275.024-.55.036-.826.048.072.36.443.24.718.228-.024.072-.06.203-.083.275-.24.012-.527.108-.742-.06-.252-.18-.228-.538-.12-.79.108-.31.515-.335.79-.24z" fill="#FCF9FE"/><path d="M28.64 23.323c-.035.227-.143.43-.239.646-.095.192-.347.156-.526.216.167.203.622.107.622.454-.036.527-.73.395-1.077.324-.108-.264.096-.503.144-.754.107-.252-.156-.563.083-.754.276-.228.67-.096.994-.132z" fill="#FBFBF2"/><path d="M28.856 23.347l.252-.048c.011.311-.036.61-.048.91.682.131.167-.982.766-.91.012.395-.036.802-.168 1.173-.3-.108-.79.191-.933-.204-.036-.31.035-.622.131-.921z" fill="#FDFBF3"/><path d="M32.076 23.814c.071.49-.563.825-.958.586-.335-.263-.263-.897.156-1.053.323-.156.85.048.802.467zm-.491-.276c-.323.048-.371.348-.323.61.407.228.622-.37.323-.61z" fill="#F9F6FC"/><path d="M18.94 23.359c.216.084.228.335.263.538-.275.024-.55.036-.825.048.071.36.442.24.718.228-.024.072-.06.203-.084.275-.24.012-.527.108-.742-.06-.251-.18-.227-.538-.12-.79.108-.31.515-.335.79-.24z" fill="#FCF9FE"/></g></g></g></svg>