<svg width="56" height="36" viewBox="0 0 56 36" xmlns="http://www.w3.org/2000/svg"><g fill="none" fill-rule="evenodd"><path d="M0 3.75A3.75 3.75 0 013.75 0h48.5A3.76 3.76 0 0156 3.75v28.5A3.75 3.75 0 0152.25 36H3.75A3.76 3.76 0 010 32.25V3.75z" fill="#000" fill-rule="nonzero"/><path d="M1.25 3.75v28.5a2.5 2.5 0 002.5 2.5h48.5a2.5 2.5 0 002.5-2.5V3.75a2.5 2.5 0 00-2.5-2.5H3.75a2.5 2.5 0 00-2.5 2.5z" fill="#FFF"/><g fill-rule="nonzero"><path d="M50 12.33a6.56 6.56 0 012.59 4.5l-.05.01-.05-.18a2.57 2.57 0 00-1.34-1.5c-.44-.21-.9-.3-1.38-.31-.62-.01-1.2.11-1.74.43a2.5 2.5 0 00-1.18 1.57 2.66 2.66 0 001.9 3.33c.4.11.8.16 1.2.12 1.11-.1 1.97-.58 2.46-1.61.08-.16.12-.34.18-.5a6.23 6.23 0 01-.92 2.84 6.57 6.57 0 01-11.28-.01 6.59 6.59 0 019.6-8.69zm-5.37 2.53c-.47-.04-.94 0-1.4.16a2.7 2.7 0 00-1.38 1.02c-.39.58-.5 1.2-.43 1.89.05.54.26 1.02.62 1.42.54.61 1.24.9 2.04.95a3.88 3.88 0 002.33-.6c.06-.04.1-.08.1-.17v-1.9-.11h-1.12v1.4c0 .09-.03.13-.11.16-.4.18-.83.22-1.26.15a1.61 1.61 0 01-1.05-.63 1.67 1.67 0 01-.33-1.2c.04-.42.2-.8.53-1.07.6-.52 1.5-.59 2.2-.19.16.1.3.21.46.33l.77-.7-.04-.04a2.75 2.75 0 00-1.93-.87z" fill="#2E323D"/><path d="M49.7 19.26c-.92.02-1.7-.68-1.7-1.69 0-1 .75-1.7 1.73-1.68.95.02 1.68.7 1.67 1.71 0 .98-.78 1.68-1.7 1.66zM38.1 16.45c.55.23.6.92.24 1.27-.19.2-.4.35-.6.51l1.03 1.03.15-.38.07-.25c.02-.06.05-.09.1-.06l.08.03c.24.07.22.02.15.27-.07.2-.16.4-.25.6-.03.06-.04.1.01.15l.44.44c.06.06.05.1 0 .15a.87.87 0 00-.13.14c-.04.06-.08.05-.12 0l-.41-.43c-.05-.05-.09-.06-.15 0a1.7 1.7 0 01-1.18.46c-.33 0-.65-.05-.94-.21a.92.92 0 01-.27-1.4c.19-.23.44-.4.7-.55l.04-.04.02-.02-.19-.22c-.16-.2-.27-.42-.28-.7a.81.81 0 01.53-.8c.32-.11.65-.12.96.01zm-.81 2c-.2.14-.4.26-.56.42-.29.28-.29.83.2 1.03.18.07.36.1.54.13v-.01l.34-.04c.25-.05.47-.15.65-.33.04-.04.06-.07.01-.11l-1.07-1.06c-.03-.03-.09-.04-.11-.03zM37 17.23l.03.16c.06.23.21.39.37.54.02.02.08.02.1 0 .18-.12.37-.25.53-.4.08-.07.13-.2.14-.31.02-.31-.12-.48-.45-.53-.34-.05-.73.12-.72.54z" fill="#2E323D"/><path d="M34.6 14.4c.08 0 .14 0 .14.12-.02.19 0 .37 0 .56 0 .07 0 .1.08.15a2.7 2.7 0 01.15 4.7l-.2.1c-.02.03-.04.07-.04.1v.5c0 .05 0 .08-.08.08h-.97c-.09 0-.12-.02-.11-.1 0-.25 0-.25-.25-.25h-.35v.26c0 .06-.01.09-.09.09h-.96c-.08 0-.11-.02-.1-.11v-.5c0-.07-.03-.1-.09-.13a2.63 2.63 0 01-1.37-2.26 2.7 2.7 0 01.47-1.64c.22-.33.51-.58.86-.77.1-.06.14-.12.13-.23v-.66h1.15v.47h.52c.07 0 .08-.04.08-.1v-.37h.54l.5-.01zm-1.27 1.55c-1 0-1.72.68-1.7 1.7 0 .95.69 1.63 1.69 1.65.97 0 1.69-.72 1.69-1.68 0-.97-.72-1.67-1.68-1.67zM14.37 14.93c.5 0 .96.13 1.37.41.41.29.66.68.74 1.18.04.3.05.58-.03.87-.1.45-.37.81-.78 1.06-.06.04-.13.08-.2.1-.05.04-.05.07-.02.12l.66.93.5.72h-1.24c-.08 0-.12-.01-.16-.07l-.92-1.34c-.05-.07-.11-.1-.2-.09h-.93l-.09.01v1.5H11.9c-.06 0-.07-.04-.07-.1V14.96l.01-.03.08-.01h2.46zm-1.2 1.02c-.07 0-.1.02-.1.09v1.71c0 .07.03.09.1.09l1.08-.01c.24 0 .47-.08.67-.22.34-.24.41-.8.22-1.17-.16-.31-.44-.45-.77-.47-.4-.03-.8-.02-1.2-.02zM24.03 14.92c.51.01 1 .14 1.42.43.28.2.49.45.61.77.15.38.18.77.1 1.18a1.75 1.75 0 01-1.23 1.4c-.37.13-.76.18-1.15.17h-.9c-.08 0-.12.02-.12.11v1.26c0 .07-.01.08-.08.08h-1.16v-.2-5.02c0-.17 0-.18.17-.18h2.34zm-1.25 1.04l-.01.03v1.76c0 .08.03.09.1.09h1.01c.28-.01.55-.07.76-.25.26-.23.33-.53.28-.86a.82.82 0 00-.22-.48c-.19-.2-.44-.28-.7-.29-.4-.02-.8 0-1.22 0zM20.33 14.92h1.11l.04.01-.2.35-1.6 2.66-.14.24a.82.82 0 00-.15.54v1.49c0 .09-.01.12-.11.12h-1.05c-.07 0-.1-.03-.1-.1l.01-1.66a.6.6 0 00-.09-.33l-1.3-2.17-.66-1.1-.02-.04.06-.01h1.17c.06 0 .1.02.12.07l1.36 2.26c0 .02.02.03.05.06l.42-.7.66-1.1c.1-.18.2-.35.32-.52.02-.03.06-.07.1-.07zM30.64 15.94c-.08.02-.15.01-.23.01h-1.32c-.05 0-.1 0-.1.08v4.29h-1.25v-4.36l-.1-.01h-1.53c-.06 0-.1-.01-.1-.08v-.88c0-.06.03-.07.08-.07h4.54c.06 0 .09.01.09.08v.87c0 .03-.05.07-.08.07zM6.5 15.26A3.03 3.03 0 008 20.68a3.14 3.14 0 002.7-.99c.05-.05.09-.06.14-.01l.74.59c.14.12.15.13.02.27-.44.47-.96.81-1.56 1.02-.81.29-1.64.33-2.48.21a4.28 4.28 0 01-1.74-.67 3.97 3.97 0 01-1.8-3.1 4.8 4.8 0 01.05-1.17 3.98 3.98 0 012.2-2.9 4.3 4.3 0 012.16-.48c.56 0 1.1.08 1.63.27.54.2 1.03.49 1.43.91l.21.23.01.04-.48.4-.4.34c-.06.04-.09.05-.14 0a3.09 3.09 0 00-4.2-.37z" fill="#E5891A"/></g></g></svg>