<svg width="56" height="36" xmlns="http://www.w3.org/2000/svg"><g fill="none" fill-rule="evenodd"><path d="M0 3.75A3.75 3.75 0 013.75 0h48.5A3.76 3.76 0 0156 3.75v28.5A3.75 3.75 0 0152.25 36H3.75A3.76 3.76 0 010 32.25V3.75z" fill="#000" fill-rule="nonzero"/><path d="M1.25 3.75v28.5a2.5 2.5 0 002.5 2.5h48.5a2.5 2.5 0 002.5-2.5V3.75a2.5 2.5 0 00-2.5-2.5H3.75a2.5 2.5 0 00-2.5 2.5z" fill="#FFF"/><g fill="#000"><path d="M7.76 20.03a2.2 2.2 0 003.01.15l.17.12c-.24.26-.64.56-1.15.73.4.02.71.09 1.16.17v1.52a3.6 3.6 0 00-1.09-.21c-.93 0-1.63.5-1.63 1.45 0 1 .65 1.5 1.56 1.5.4 0 .78-.08 1.18-.23v1.54c-.4.11-1.01.23-1.56.23C7.5 27 6 25.99 6 23.93c0-1.56 1.01-2.49 2.35-2.8a2.85 2.85 0 01-1.21-.53l.62-.57zm6.5.99c.6 0 1.28.07 1.87.2v1.48l-.21-.07a5.09 5.09 0 00-1.47-.22c-.34 0-.94 0-.94.38 0 .75 3 .04 3 2.27 0 1.55-1.52 1.94-2.78 1.94-.84 0-1.53-.08-2.35-.27v-1.5c.6.25 1.3.38 1.96.38.51 0 .98-.1.98-.4 0-.78-3-.07-3-2.32 0-1.59 1.64-1.87 2.93-1.87zm5.73 0c1.99 0 3.18 1.05 3.18 2.99 0 1.97-1.2 2.99-3.18 2.99-1.99 0-3.15-1.02-3.15-3 0-1.93 1.16-2.98 3.15-2.98zm7.29.1c.99 0 1.96.32 1.96 1.42 0 .8-.42 1.22-1.18 1.42v.02c.8.1 1.28.73 1.28 1.31 0 1.46-1.16 1.61-2.34 1.61h-3.3v-5.78h3.58zm16.52.07c.2.13.53.48.6 1.1l.08.64c.13 1.14 1.54 2.8 1.54 2.8s-.26.52-.5.34c-.2-.14-2.62-2.28-1.72-4.88zm-17.46 3.33h-.58v1.19h.57c.4 0 .83-.15.83-.6 0-.5-.4-.59-.82-.59zM20 22.41c-.8 0-.87 1.06-.87 1.6 0 .62.09 1.6.87 1.6.86 0 .89-.98.9-1.6-.01-.54-.07-1.6-.9-1.6zm6.36-.2h-.6v1.12h.55c.39 0 .8-.12.8-.56 0-.43-.36-.56-.75-.56zm15.6-6.11c.5 0 .7.22.7.22s-.16.16-.54.21c-1.1.14-1.64.24-2.31.48-.74.27-1.64.77-1.7 1.25-.15.94 1.32.78 2 1.48.61.64.2 1.7 1.08 1.7.61 0 1.12-.59 1.34-1.15.23-.57.24-.96.3-1.7.06-.7.16-1.36.33-1.8.14-.35.15-.37.2-.45.13-.19.36-.23.36-.23s.12.14.05.39c-.27.94-.2 2.48-.24 3.63-.05 1.18-.62 2.54-2.16 2.72-.6.07-1.33-.1-1.67-.85a3.8 3.8 0 00-1.64-1.8c-.59-.32-1.25-.9-1.13-1.9.14-1.15 1.58-1.86 2.51-2.03 1.22-.23 1.97-.18 2.53-.17zm2.57.01c.95.26 2.52.19 3.69.24 1.2.04 2.57.61 2.76 2.12.07.59-.1 1.32-.86 1.65-.8.33-1.46.92-1.84 1.61-.32.59-.91 1.24-1.93 1.12-1.16-.14-1.88-1.56-2.06-2.48-.22-1.2-.17-1.94-.16-2.48 0-.48.22-.68.22-.68s.17.15.21.52c.14 1.09.25 1.62.5 2.28.26.73.77 1.61 1.26 1.69.95.14.78-1.32 1.5-1.99.64-.6 1.73-.2 1.73-1.06 0-.6-.6-1.1-1.17-1.32-.58-.22-.97-.23-1.73-.3a7.57 7.57 0 01-1.83-.32c-.35-.13-.37-.15-.45-.2a.57.57 0 01-.23-.35s.14-.12.4-.05zm-15.45-.27v3.56H6.2v-1.72s3.2-.64 7.52-1.08a5.3 5.3 0 006.97-.55c3.36-.17 6.4-.2 7.7-.2h.68zM17.77 9a3.93 3.93 0 013.96 3.9c0 2.15-1.77 3.9-3.95 3.9a3.93 3.93 0 01-3.96-3.9c0-2.15 1.77-3.9 3.96-3.9zm23.78.01c1.16.15 1.88 1.56 2.06 2.48.23 1.2.18 1.94.17 2.49-.01.48-.22.68-.22.68s-.17-.15-.22-.53a9.17 9.17 0 00-.49-2.27c-.27-.73-.78-1.62-1.27-1.69-.95-.14-.78 1.31-1.5 1.98-.64.6-1.72.2-1.72 1.06 0 .6.6 1.1 1.17 1.33.58.22.97.23 1.72.3.71.06 1.38.15 1.84.32.34.13.36.15.45.2.18.12.23.35.23.35s-.14.11-.4.04c-.95-.25-2.52-.18-3.69-.23-1.19-.05-2.57-.61-2.75-2.13-.07-.58.1-1.31.86-1.64.79-.34 1.45-.93 1.83-1.62.33-.58.92-1.24 1.93-1.12zm6.66.85a3.8 3.8 0 001.64 1.81c.6.32 1.26.9 1.13 1.9-.14 1.15-1.58 1.86-2.51 2.03-1.22.23-1.97.17-2.52.17-.49-.01-.7-.22-.7-.22s.16-.17.54-.22a9.54 9.54 0 002.31-.48c.74-.26 1.64-.77 1.71-1.25.14-.94-1.33-.77-2-1.48-.62-.63-.21-1.7-1.08-1.7-.62 0-1.13.6-1.35 1.16-.22.57-.23.95-.3 1.7-.06.7-.16 1.35-.33 1.8-.13.35-.15.36-.2.45-.12.18-.36.23-.36.23s-.11-.14-.04-.4c.26-.93.19-2.47.23-3.63.05-1.17.63-2.53 2.16-2.72.6-.07 1.34.1 1.67.85z"/></g></g></svg>