<svg width="56" height="36" xmlns="http://www.w3.org/2000/svg"><g fill="none" fill-rule="evenodd"><path d="M0 3.75A3.749 3.749 0 0 1 3.75 0h48.5A3.756 3.756 0 0 1 56 3.75v28.5A3.749 3.749 0 0 1 52.25 36H3.75A3.756 3.756 0 0 1 0 32.25V3.75z" fill="#000" fill-rule="nonzero"/><path d="M1.25 3.75v28.5c0 1.375 1.123 2.5 2.5 2.5h48.5c1.382 0 2.5-1.118 2.5-2.5V3.75c0-1.375-1.123-2.5-2.5-2.5H3.75a2.499 2.499 0 0 0-2.5 2.5z" fill="#FFF"/><path d="M28.069 16.778a5.392 5.392 0 0 0 5.394-5.39A5.392 5.392 0 0 0 28.07 6a5.392 5.392 0 0 0-5.395 5.389 5.392 5.392 0 0 0 5.395 5.389" fill="#00ACEC"/><path d="M32.048 15.75a7.094 7.094 0 0 1-5.166 2.225c-1.805 0-3.358-.7-4.346-1.479-5.89.617-10.27 1.493-10.27 1.493v2.382l31.214-.004.003-4.911s-5.326-.034-11.435.293" fill="#00ACEC"/><path d="M18.781 30.553c-.556.16-1.378.32-2.134.32-2.58 0-4.647-1.396-4.647-4.247 0-2.68 2.157-4.02 4.647-4.02.822 0 1.312.104 2.112.253v2.107c-.49-.161-.99-.298-1.49-.298-1.267 0-2.223.698-2.223 2.004 0 1.373.889 2.072 2.123 2.072.545 0 1.068-.115 1.612-.31v2.12zM25.829 24.93a6.847 6.847 0 0 0-2.301-.4c-.467 0-1.279.013-1.279.527 0 1.042 4.08.057 4.08 3.137 0 2.141-2.057 2.68-3.78 2.68-1.145 0-2.09-.115-3.202-.378v-2.072c.8.343 1.78.526 2.669.526.7 0 1.333-.149 1.333-.55 0-1.076-4.08-.102-4.08-3.206 0-2.198 2.224-2.587 3.991-2.587.834 0 1.757.103 2.569.275v2.049zM31.087 28.95c1.178 0 1.211-1.352 1.221-2.21-.01-.744-.087-2.21-1.221-2.21-1.1 0-1.19 1.466-1.19 2.21 0 .858.122 2.21 1.19 2.21m0 1.924c-2.713 0-4.303-1.409-4.303-4.133 0-2.68 1.59-4.134 4.303-4.134 2.712 0 4.335 1.454 4.335 4.134 0 2.724-1.623 4.133-4.335 4.133M38.958 25.801h.744c.523 0 1.09-.16 1.09-.767 0-.595-.489-.778-1.023-.778h-.81v1.545zm0 3.287h.778c.545 0 1.134-.206 1.134-.825 0-.687-.556-.813-1.111-.813h-.8v1.638zm-2.801-6.344h4.88c1.345 0 2.668.447 2.668 1.97 0 1.1-.567 1.682-1.601 1.958v.023c1.079.148 1.745 1.019 1.745 1.82 0 2.015-1.578 2.22-3.19 2.22h-4.502v-7.99z" fill="#003A66"/><path d="M13.544 22.026s.936.804 2.352.81a3.91 3.91 0 0 0 2.848-1.217l-.227-.173s-.678.748-1.967.734c-1.367-.013-2.144-.943-2.144-.943l-.862.79z" fill="#003A66"/></g></svg>