<?xml version="1.0" encoding="UTF-8"?>
<svg width="56px" height="36px" viewBox="0 0 56 36" version="1.1" xmlns="http://www.w3.org/2000/svg" xmlns:xlink="http://www.w3.org/1999/xlink">
    <!-- Generator: Sketch 53.2 (72643) - https://sketchapp.com -->
    <title>PM/cc-mansion</title>
    <desc>Created with Sketch.</desc>
    <defs>
        <linearGradient x1="2.32487372%" y1="30.6436716%" x2="97.4002588%" y2="69.2864845%" id="linearGradient-1">
            <stop stop-color="#5CA2FF" offset="0%"></stop>
            <stop stop-color="#2475E1" offset="100%"></stop>
        </linearGradient>
        <rect id="path-2" x="0" y="0" width="4.39655172" height="3.27027027" rx="0.735"></rect>
    </defs>
    <g id="PM/cc-mansion" stroke="none" stroke-width="1" fill="none" fill-rule="evenodd">
        <g id="Base">
            <path d="M0,3.75075247 C0,1.67926908 1.67596877,0 3.75035585,0 L52.2496442,0 C54.3209085,0 56,1.68806916 56,3.75075247 L56,32.2492475 C56,34.3207309 54.3240312,36 52.2496442,36 L3.75035585,36 C1.67909151,36 0,34.3119308 0,32.2492475 L0,3.75075247 Z" id="Rectangle-2" fill="#000000" fill-rule="nonzero"></path>
            <path d="M1.25,3.75075247 L1.25,32.2492475 C1.25,33.6250965 2.37296468,34.75 3.75035585,34.75 L52.2496442,34.75 C53.6324061,34.75 54.75,33.6316447 54.75,32.2492475 L54.75,3.75075247 C54.75,2.37490355 53.6270353,1.25 52.2496442,1.25 L3.75035585,1.25 C2.36759386,1.25 1.25,2.36835527 1.25,3.75075247 Z" id="Path" fill="#FFFFFF"></path>
        </g>
        <g id="Add-card-IconAlone-2" transform="translate(11.000000, 7.000000)">
            <g id="Add-card-IconAlone">
                <rect id="Rounded_Rectangle_1" fill="url(#linearGradient-1)" fill-rule="nonzero" x="0" y="0" width="34" height="22" rx="2.205"></rect>
                <rect id="Rectangle" fill="#464646" fill-rule="nonzero" x="0" y="3.87194337" width="34" height="4.31081081"></rect>
                <polygon id="Rectangle" fill="#3B3B3B" fill-rule="nonzero" points="34 3.87194337 34 8.18275418 15.5344828 8.18275418 20.6637931 3.90910553"></polygon>
                <g id="Group-56" transform="translate(5.092672, 14.418919)">
                    <mask id="mask-3" fill="white">
                        <use xlink:href="#path-2"></use>
                    </mask>
                    <use id="Rounded_Rectangle_2" fill="#FFD764" fill-rule="nonzero" xlink:href="#path-2"></use>
                    <path d="M4.39655172,-3.99680289e-15 L4.39655172,2.53527027 C4.39655172,2.94119956 4.06748102,3.27027027 3.66155172,3.27027027 L-1.93178806e-14,3.27027027 L4.39655172,-3.99680289e-15 Z" id="Rounded_Rectangle_2" fill="#EDAE3A" fill-rule="nonzero" mask="url(#mask-3)"></path>
                </g>
                <path d="M16.4160345,11.7503218 L29.2348276,11.7503218 C29.6407569,11.7503218 29.9698276,12.0793925 29.9698276,12.4853218 L29.9698276,12.5018082 C29.9698276,12.9077375 29.6407569,13.2368082 29.2348276,13.2368082 L16.4160345,13.2368082 C16.0101052,13.2368082 15.6810345,12.9077375 15.6810345,12.5018082 L15.6810345,12.4853218 C15.6810345,12.0793925 16.0101052,11.7503218 16.4160345,11.7503218 Z" id="Rounded_Rectangle_3" fill="#2E3192" fill-rule="nonzero" opacity="0.49"></path>
                <path d="M16.4160345,14.5746461 L22.7865517,14.5746461 C23.192481,14.5746461 23.5215517,14.9037168 23.5215517,15.3096461 L23.5215517,15.3261326 C23.5215517,15.7320619 23.192481,16.0611326 22.7865517,16.0611326 L16.4160345,16.0611326 C16.0101052,16.0611326 15.6810345,15.7320619 15.6810345,15.3261326 L15.6810345,15.3096461 C15.6810345,14.9037168 16.0101052,14.5746461 16.4160345,14.5746461 Z" id="Rounded_Rectangle_3_copy" fill="#2E3192" fill-rule="nonzero" opacity="0.49"></path>
            </g>
        </g>
    </g>
</svg>