<svg width="56" height="36" viewBox="0 0 56 36" xmlns="http://www.w3.org/2000/svg"><defs><linearGradient x1="-.007%" y1="50%" x2="99.992%" y2="50%" id="a"><stop stop-color="#EF3E42" offset="0%"/><stop stop-color="#D33527" offset="99.42%"/><stop stop-color="#933526" offset="100%"/></linearGradient></defs><g fill="none" fill-rule="evenodd"><path d="M0 3.75A3.75 3.75 0 013.75 0h48.5A3.76 3.76 0 0156 3.75v28.5A3.75 3.75 0 0152.25 36H3.75A3.76 3.76 0 010 32.25V3.75z" fill="#000" fill-rule="nonzero"/><path d="M1.25 3.75v28.5a2.5 2.5 0 002.5 2.5h48.5a2.5 2.5 0 002.5-2.5V3.75a2.5 2.5 0 00-2.5-2.5H3.75a2.5 2.5 0 00-2.5 2.5z" fill="#FFF"/><g><path d="M44.98 27.14c0 .66-.54 1.2-1.2 1.2H1.22a1.2 1.2 0 01-1.2-1.2V1.22c0-.66.54-1.2 1.2-1.2h42.57c.66 0 1.2.54 1.2 1.2v25.92z" fill="url(#a)" fill-rule="nonzero" transform="translate(6 4)"/><path d="M26.9 14.04h.46c.78.03 1.6.22 2.24.68.38.27.69.64.9 1.05.23.45.34.96.38 1.47h-2.42c-.03-.34-.14-.7-.4-.92-.32-.27-.76-.33-1.15-.29-.36.03-.7.22-.9.52-.28.41-.35.93-.37 1.43-.01.56.02 1.14.26 1.64.17.35.5.63.88.72.42.1.91.06 1.26-.22.31-.26.45-.66.48-1.04h2.4a3.9 3.9 0 01-.48 1.68c-.22.4-.55.73-.93.99-.8.53-1.8.66-2.74.61a4.28 4.28 0 01-1.71-.45 3.39 3.39 0 01-1.18-1 4.23 4.23 0 01-.77-2.15 5.55 5.55 0 01.13-1.9c.2-.78.63-1.53 1.28-2.03a4.11 4.11 0 012.38-.8zM40.93 14.04h.47c.33 0 .66.04.99.11.59.13 1.17.4 1.58.87.37.41.56.96.6 1.5h-2.39a.83.83 0 00-.27-.5c-.21-.16-.5-.2-.76-.2-.22 0-.44.03-.62.16-.17.13-.2.37-.14.56.08.18.28.25.46.32.36.12.74.2 1.11.3.55.14 1.1.26 1.62.51.42.24.8.57 1.02 1 .22.47.24 1 .16 1.5-.08.46-.29.92-.63 1.27-.38.38-.87.61-1.38.75-.63.16-1.3.2-1.95.15a4.1 4.1 0 01-1.61-.43c-.4-.2-.74-.51-.98-.89-.26-.4-.4-.87-.44-1.35h2.46c.05.23.15.47.35.6.24.18.55.2.84.2.26-.01.54-.05.75-.22.22-.18.22-.58-.02-.74-.2-.14-.43-.18-.65-.25-.76-.2-1.53-.37-2.26-.67a2.1 2.1 0 01-1.12-1.04c-.2-.41-.24-.87-.2-1.31.05-.46.23-.9.54-1.24.33-.38.79-.63 1.27-.78.38-.1.8-.16 1.2-.18zM14.18 14.37a1.17 1.17 0 011.64 0l1.37 1.38 1.3-1.31c.1-.1.21-.2.34-.26.42-.23.99-.16 1.34.17l1.7 1.7c.34.34.43.9.21 1.33-.1.22-.28.38-.45.55l-4.44 4.44-4.66-4.66c-.2-.2-.33-.46-.35-.74v-.2c.02-.28.15-.55.35-.74l1.65-1.66zM30.38 14.26h2.58l1.33 5.09 1.42-5.1h2.48l-2.65 7.9h-2.52c-.87-2.64-1.76-5.27-2.64-7.9z" fill="#FAFAFA"/></g></g></svg>