<?xml version="1.0" encoding="UTF-8"?><svg width="56" height="36" viewBox="0 0 56 36" xmlns="http://www.w3.org/2000/svg"><g fill="none" fill-rule="evenodd"><path d="M0 3.75A3.749 3.749 0 013.75 0h48.5A3.756 3.756 0 0156 3.75v28.5A3.749 3.749 0 0152.25 36H3.75A3.756 3.756 0 010 32.25V3.75z" fill="#000" fill-rule="nonzero"/><path d="M1.25 3.75v28.5c0 1.375 1.123 2.5 2.5 2.5h48.5c1.382 0 2.5-1.118 2.5-2.5V3.75c0-1.375-1.123-2.5-2.5-2.5H3.75a2.499 2.499 0 00-2.5 2.5z" fill="#FFF"/><g fill-rule="nonzero"><path d="M9.097 19.33h.44c.252 0 .456.02.68.264.159.17.333.544.333 1.15 0 .216.002.432-.042.653-.07.349-.24.908-1.213.908-.26 0-.198-.007-.198-.007V19.33zm.5 3.49c1.31 0 1.895-.552 1.895-2.062 0-.4-.124-1.069-.517-1.477-.406-.419-.931-.471-1.375-.471H8.14v4.01h1.457zM13.729 21.782c0 .133-.004.31-.153.439-.125.104-.3.112-.368.112-.166 0-.315-.058-.378-.252a.733.733 0 01-.022-.182c0-.293.205-.416.433-.469.12-.026.2-.031.488-.054v.406zm0-.767l-.477.044c-.514.056-.71.1-.93.239a.755.755 0 00-.36.672c0 .274.087.48.207.599.158.174.408.238.65.238.591 0 .874-.255.874-.255l.004.181h.798v-1.897c0-.214.005-.514-.254-.727a.793.793 0 00-.437-.185c-.182-.03-.245-.043-.423-.043-.538 0-.944.09-1.176.48-.099.168-.094.338-.094.467h.732c.006-.113.012-.27.105-.378.047-.062.158-.15.363-.15.066 0 .26 0 .359.153.055.09.06.208.06.34v.222h-.001zM20.082 21.782c0 .133-.004.31-.154.439-.121.104-.298.112-.37.112-.164 0-.311-.058-.375-.252a.718.718 0 01-.02-.182c0-.293.204-.416.433-.469.12-.026.2-.031.486-.054v.406zm0-.767l-.475.044c-.517.056-.71.1-.932.239a.758.758 0 00-.359.672c0 .274.086.48.204.599.16.174.412.238.652.238.593 0 .875-.255.875-.255l.004.181h.795v-1.897c0-.214.007-.514-.25-.727a.8.8 0 00-.437-.185c-.183-.03-.246-.043-.425-.043-.538 0-.943.09-1.176.48-.098.168-.091.338-.091.467h.73c.006-.113.012-.27.105-.378.047-.062.157-.15.362-.15.067 0 .26 0 .362.153.052.09.057.208.057.34v.222zM32.105 22.733h-.833v-1.698c0-.109 0-.2-.009-.292-.008-.089-.035-.377-.398-.377a.631.631 0 00-.23.043c-.245.107-.252.296-.258.445v1.88h-.834v-2.78h.834v.316c.21-.177.4-.372.868-.372.393 0 .588.145.668.234.185.197.185.452.192.651v1.95zM17.704 22.733h-.832v-1.698c0-.109 0-.2-.014-.292-.006-.089-.034-.377-.399-.377a.626.626 0 00-.227.043c-.246.107-.253.296-.26.445v1.88h-.834v-2.78h.834v.316c.214-.177.401-.372.869-.372.395 0 .586.145.67.234.186.197.186.452.193.651v1.95zM21.458 19.953h.834v.323c.16-.135.442-.38.943-.38.572 0 .732.323.77.43.342-.312.566-.43.893-.43.16 0 .27.025.375.061.45.163.459.541.467.786v1.988h-.848v-1.81c-.004-.197-.01-.309-.065-.396-.01-.023-.093-.161-.304-.161a.75.75 0 00-.271.05c-.234.105-.242.288-.246.437v1.88h-.827v-1.8c0-.213.003-.567-.374-.567a.823.823 0 00-.306.06c-.207.122-.213.3-.207.547v1.76h-.834v-2.778zM28.202 21.283c0 .158-.007.31-.024.463-.018.153-.046.461-.296.59a.543.543 0 01-.225.05c-.472 0-.515-.469-.525-.64a4.51 4.51 0 01-.02-.378c0-.111.009-.266.026-.448.017-.147.052-.428.292-.561a.56.56 0 01.253-.056c.449 0 .49.446.5.617.012.122.019.245.019.363m.85.015c0-.247 0-.709-.29-1.022-.35-.395-.85-.395-1.027-.395-.206 0-.679.008-1.05.326-.42.355-.42.92-.42 1.206 0 .543.13 1.118.856 1.318.211.061.323.072.536.072.2 0 .697 0 1.067-.389.328-.344.328-.86.328-1.116" fill="#046148"/><path fill="#EF9826" d="M14.59 15.98h7.713l-6.841-1.987-.873.444-2.96.723z"/><path fill="#EB712D" d="M8.14 13.146v2.833h6.45v-1.542l-6.45-1.29z"/><path fill="#FEC02B" d="M22.306 15.98l-7.717-2.834.002 1.291 7.715 1.542z"/><path fill="#EF9826" d="M48.896 21.305v-5.328H38.507l-2.16 1.474 2.16 1.775z"/><path fill="#FEC02B" d="M38.507 19.226l-2.824-2.304-13.376-.94 16.2 5.326z"/><path fill="#EB712D" d="M22.303 15.977v.003l16.204 3.245v-3.247H22.303z"/></g></g></svg>