<svg width="56" height="36" xmlns="http://www.w3.org/2000/svg"><g fill="none" fill-rule="evenodd"><path d="M0 3.75A3.75 3.75 0 013.75 0h48.5A3.76 3.76 0 0156 3.75v28.5A3.75 3.75 0 0152.25 36H3.75A3.76 3.76 0 010 32.25V3.75z" fill="#000" fill-rule="nonzero"/><path d="M1.25 3.75v28.5a2.5 2.5 0 002.5 2.5h48.5a2.5 2.5 0 002.5-2.5V3.75a2.5 2.5 0 00-2.5-2.5H3.75a2.5 2.5 0 00-2.5 2.5z" fill="#FFF"/><g fill-rule="nonzero"><path d="M27.9 10.12a1.09 1.09 0 00-.69 0c-1.46.56-2.7 1.3-3.71 2.2v.01c-.18.27-.18.5 0 .7.07.1.28.15.6.14h.25c.04.17.04.34 0 .52-.02.12-.06.25-.1.38-.14.31-.28.55-.43.74-.22.27-.35.56-.4.89 0 .36.12.67.37.94.29.31.62.52.99.63.36.1.78.13 1.28.08l.43.06c.72.08 1.46.07 2.2 0l.35-.05.13.01c.44.04.83 0 1.16-.1.37-.1.7-.31.98-.63.25-.26.36-.58.36-.94a1.7 1.7 0 00-.39-.89c-.14-.17-.3-.42-.42-.73a1.5 1.5 0 01-.11-.38 1.25 1.25 0 010-.52h.3c.47-.03.73-.12.76-.3.07-.19-.18-.54-.75-1.05l-.3-.24-.08-1.32v-.01l-.02-.01h-.02l-.98.07-.02.01-.01.02v.57c-.33-.16-.7-.34-1.11-.52-.2-.1-.4-.19-.63-.28m.6.33a16.15 16.15 0 012.21 1.16h.01c.12.08.22.17.3.25.54.48.78.8.74.98-.05.14-.28.22-.7.24H24.1c-.3.01-.47-.02-.55-.12-.15-.16-.15-.36 0-.6 1-.89 2.24-1.62 3.68-2.17.2-.07.4-.07.64 0l.62.26m1.21.48v-.57l.91-.07.07 1.22c-.26-.19-.59-.38-.98-.58m-2.06 2.73c-.36.04-.68.2-.95.5-.37.54-.5 1.12-.4 1.76l-.53.42a.34.34 0 00-.12.4c.07.21.19.4.36.54-.46.04-.85.01-1.2-.08a2.1 2.1 0 01-.95-.61 1.3 1.3 0 01-.34-.9c.04-.3.17-.59.37-.85.16-.18.3-.43.44-.75.06-.13.1-.26.12-.4.04-.18.04-.35 0-.53h6.24a1.64 1.64 0 00.12.93c.13.32.28.57.43.75.21.26.34.54.38.85 0 .34-.12.64-.35.89-.29.3-.6.5-.95.6-.31.1-.68.13-1.1.1l.3-.46c.08-.12.04-.25-.12-.41l-.5-.5a2.48 2.48 0 00-.4-1.74c-.24-.31-.53-.49-.85-.51m-.92.54c.26-.3.57-.46.92-.5.31.03.59.2.81.5.33.48.47 1.05.4 1.7v.02l.5.52c.15.14.2.26.13.37l-.31.47-.14-.01-.28.04c.09-.1.1-.23.05-.38-.1-.13-.21-.2-.35-.19a.77.77 0 00.03-.09c.02-.07.02-.12 0-.16-.02-.04-.06-.06-.1-.07.15-.49.2-.95.11-1.4a1.74 1.74 0 00-.48-.93c-.3-.22-.59-.22-.85 0-.3.31-.5.65-.54 1.01-.06.45 0 .89.16 1.32-.05.01-.1.03-.11.07-.02.04-.02.09 0 .15v.01l.03.09c-.13 0-.25.05-.35.2a.39.39 0 00.06.38l-.36-.04h-.02c-.18-.14-.3-.33-.38-.55a.31.31 0 01.11-.36l.54-.42v-.01c-.07-.63.05-1.21.42-1.74m.48-.1c.25-.2.52-.2.8 0 .26.27.42.57.47.92.08.44.03.9-.12 1.39v.02c.06 0 .1.03.11.06.02.03.02.07 0 .12a9.35 9.35 0 00-1.76 0v-.12a.14.14 0 01.1-.06h.01l.01-.01v-.01a2.9 2.9 0 01-.17-1.32c.07-.35.25-.68.55-.99m-.7 3.23c-.11-.1-.13-.23-.09-.38.1-.13.21-.19.35-.17h.02v-.02a1.3 1.3 0 01-.05-.1 9.85 9.85 0 011.75 0 1.3 1.3 0 01-.06.1v.02h.03c.14-.02.25.04.35.17.04.15.02.27-.08.37h-.02c-.75.08-1.48.08-2.2 0m1.7-1.83a.18.18 0 000 .24c.03.03.07.05.11.05.05 0 .1-.02.12-.05a.15.15 0 00.05-.12.15.15 0 00-.05-.12.17.17 0 00-.12-.04c-.04-.01-.08.01-.11.04m-.02.12c0-.04.02-.07.04-.1a.15.15 0 01.1-.03c.03 0 .06.01.08.03.03.03.04.06.04.1 0 .03-.02.06-.04.09s-.05.03-.09.03a.15.15 0 01-.1-.03.12.12 0 01-.03-.1m1.16-1.43c-.21 0-.31.1-.31.31v.7c0 .2.1.31.3.31h1.03c.2 0 .3-.1.3-.3v-.7c0-.21-.1-.32-.3-.32h-1.02m-.28.31c0-.18.1-.27.28-.27h1.02c.18 0 .27.09.27.27v.7c0 .19-.09.27-.27.27h-1.02c-.19 0-.28-.08-.28-.27v-.7m1.43.08c0-.16-.08-.24-.24-.24h-.78c-.16 0-.24.08-.24.24v.53c0 .17.08.25.24.25h.78c.16 0 .24-.08.24-.25v-.53m-1.02-.2h.25c-.04.31-.19.5-.46.56v-.36c0-.13.08-.2.2-.2m.8 0c.13 0 .2.06.2.2v.37c-.27-.13-.42-.32-.44-.57h.23m-4.12.12c0-.2-.1-.3-.3-.3H24.8c-.2 0-.3.1-.3.3v.7c0 .2.1.31.3.31h1.02c.2 0 .31-.1.31-.3v-.7m-.3-.28c.18 0 .26.09.26.27v.7c0 .19-.08.27-.27.27H24.8c-.18 0-.27-.08-.27-.27v-.7c0-.18.09-.27.27-.27h1.02m.13.35c0-.16-.08-.24-.24-.24h-.78c-.16 0-.24.08-.24.24v.53c0 .17.08.25.24.25h.78c.16 0 .24-.08.24-.25v-.53m-1.02-.2h.25c-.03.31-.18.5-.45.56v-.36c0-.13.07-.2.2-.2m.79 0c.14 0 .2.06.2.2v.37c-.27-.13-.41-.32-.44-.57h.24z" fill="#000"/><path d="M26.48 17.32h.02c.72.08 1.44.07 2.18 0h.02c.1-.1.12-.23.08-.37-.1-.14-.22-.2-.36-.17h-.01v-.01-.02l.04-.1a9.2 9.2 0 00-1.74 0l.05.1v.02h-.02c-.14-.02-.25.04-.35.18a.4.4 0 00.1.37m3.96-2.76c0-.14-.06-.2-.2-.2H30c.02.25.17.44.44.57v-.37m-.72-.2h-.25c-.14 0-.21.06-.21.2v.36c.27-.05.42-.25.46-.56m-3.81.2c0-.14-.07-.2-.2-.2h-.24c.02.25.17.44.44.57v-.37m-.73-.2h-.25c-.14 0-.2.06-.2.2v.36c.26-.05.41-.25.45-.56m4.45-3.37c-.33-.17-.72-.35-1.16-.54l-.61-.26a1.03 1.03 0 00-.64 0 11.6 11.6 0 00-3.68 2.18c-.15.23-.15.42 0 .6.07.08.26.12.55.11h6.95c.42-.02.65-.1.7-.24.04-.17-.2-.5-.73-.98a8.11 8.11 0 00-1.37-.87z" fill="#F7941E"/><path d="M27.2 14.1c-.3.31-.48.64-.53 1a2.82 2.82 0 00.17 1.32l-.01.01c-.06.02-.1.04-.11.07-.02.03-.02.06 0 .11.59-.05 1.17-.05 1.76 0v-.11c-.02-.03-.06-.05-.1-.06h-.01v-.02c.16-.49.2-.95.11-1.4a1.7 1.7 0 00-.47-.91c-.3-.2-.56-.2-.81 0m.94 1.5c0-.05.02-.09.05-.12a.18.18 0 01.23 0c.04.04.06.07.06.12 0 .04-.02.09-.06.12a.15.15 0 01-.11.05.15.15 0 01-.12-.05.19.19 0 01-.05-.12z" fill="#FFF200"/><path d="M28.22 15.51a.15.15 0 00-.04.1c0 .03.02.06.04.09.03.03.06.03.1.03.03 0 .06-.01.08-.03.03-.03.04-.06.04-.1a.15.15 0 00-.04-.09.12.12 0 00-.09-.03.15.15 0 00-.1.03z" fill="#FFF"/><path d="M27.64 13.7c-.35.03-.66.2-.92.49-.37.53-.5 1.1-.38 1.73v.01l-.54.43a.31.31 0 00-.11.36c.07.23.2.41.37.54h.02l.37.05c-.1-.11-.11-.24-.06-.4.1-.13.21-.2.35-.18a.77.77 0 01-.04-.1c-.02-.07-.02-.12 0-.15.03-.04.06-.06.11-.08a2.87 2.87 0 01-.16-1.31c.05-.36.24-.7.55-1.02.26-.21.55-.21.84 0 .27.27.43.59.49.94.08.44.04.9-.12 1.4.06 0 .1.03.11.07.02.03.02.08 0 .15 0 .04-.02.07-.04.1.14-.01.25.05.36.19.05.14.03.27-.06.37.1 0 .2-.02.28-.04h.01l.13.02.31-.48c.06-.1.02-.23-.12-.37l-.51-.51v-.02a2.45 2.45 0 00-.39-1.7 1.3 1.3 0 00-.85-.5m1.7.52c-.19 0-.28.09-.28.27v.7c0 .19.1.27.28.27h1.02c.18 0 .27-.08.27-.27v-.7c0-.18-.09-.27-.27-.27h-1.02m.91.11c.17 0 .25.08.25.24v.53c0 .17-.08.25-.25.25h-.77c-.17 0-.25-.08-.25-.25v-.53c0-.16.08-.24.25-.24h.77m-4.16.16c0-.18-.08-.27-.27-.27H24.8c-.18 0-.27.09-.27.27v.7c0 .19.09.27.27.27h1.02c.19 0 .27-.08.27-.27v-.7m-.37-.16c.16 0 .24.08.24.24v.53c0 .17-.08.25-.24.25h-.78c-.16 0-.24-.08-.24-.25v-.53c0-.16.08-.24.24-.24h.78z" fill="#0095DA"/><path d="M27.63 13.66c.33.02.61.2.85.5.34.5.47 1.07.4 1.74l.5.5c.16.16.2.3.13.42l-.3.46a3 3 0 001.09-.1c.35-.1.67-.3.95-.6.23-.26.35-.55.35-.9a1.6 1.6 0 00-.38-.84 2.92 2.92 0 01-.55-1.14 1.32 1.32 0 010-.54h-6.24c.04.18.04.35 0 .54a2.73 2.73 0 01-.56 1.15 1.6 1.6 0 00-.36.85c0 .33.1.64.33.89.3.3.6.5.96.6.34.1.74.14 1.2.09a1.16 1.16 0 01-.37-.55c-.05-.16 0-.3.13-.4l.53-.4c-.1-.64.02-1.23.4-1.76.27-.3.59-.47.94-.51m-1.8.51c.2 0 .3.1.3.31v.7c0 .2-.1.31-.3.31H24.8c-.2 0-.3-.1-.3-.3v-.7c0-.21.1-.32.3-.32h1.02m3.2.31c0-.2.11-.3.32-.3h1.02c.2 0 .3.1.3.3v.7c0 .2-.1.31-.3.31h-1.02c-.21 0-.31-.1-.31-.3v-.7m.67-4.13v.57c.4.2.72.4.98.58l-.07-1.22-.9.07z" fill="#ED1C24"/><g fill="#ED1C24"><path d="M20.63 20.49a.35.35 0 00-.1.26v3.23a.36.36 0 00.62.26.33.33 0 00.1-.26v-3.23c0-.1-.04-.19-.11-.26a.33.33 0 00-.26-.1c-.1 0-.18.02-.25.1m-1.06-.15a.38.38 0 00-.2.2 6.94 6.94 0 01-1.82 2.82.96.96 0 01-.47.2c-.1 0-.2-.05-.28-.15l-.03-.03a8.15 8.15 0 01-1.92-2.74.37.37 0 00-.48-.2.37.37 0 00-.2.48 8.76 8.76 0 002.08 2.97c.25.28.52.41.83.4.28.02.6-.1.92-.36h.02a7.53 7.53 0 002.04-3.12.34.34 0 000-.28.36.36 0 00-.2-.19.33.33 0 00-.3 0m-9.9 3.92c.1-.04.15-.1.2-.2a6.95 6.95 0 011.83-2.81c.17-.13.33-.2.46-.21.1 0 .2.07.29.16 0 .02.02.02.03.03.86.82 1.49 1.79 1.89 2.9a.36.36 0 00.46.22c.1-.04.16-.1.2-.2a.34.34 0 00.02-.27 8.15 8.15 0 00-2.07-3.16 1.06 1.06 0 00-.83-.42c-.28 0-.58.12-.92.37l-.02.02a7.53 7.53 0 00-2.04 3.1.37.37 0 000 .29c.05.1.12.15.21.19.1.03.2.03.29-.01M8.42 21.1l-.02-.02a4.78 4.78 0 00-4.11-.52.4.4 0 00-.22.17.34.34 0 00-.03.28c.03.1.08.17.17.22.08.05.18.06.28.03a4.13 4.13 0 013.5.43c.45.36.53.8.25 1.33a2.6 2.6 0 01-2.1.67H6.1c-.44.02-.7-.03-.77-.14v-1.76c0-.1-.03-.18-.1-.26a.33.33 0 00-.26-.1c-.1 0-.19.04-.26.1a.35.35 0 00-.1.26v1.86c.03.55.53.8 1.5.76a3.3 3.3 0 002.74-.99c.53-.93.39-1.7-.42-2.32m30.7-.52a.36.36 0 00-.1.27c.12 1.5.1 2.37-.1 2.6-.07.09-.15.12-.24.1-.13-.06-.27-.2-.43-.43l-1.07-1.65v-.01c-.6-.98-1.16-1.31-1.71-1-.03 0-.06.01-.08.03-.34.25-.52.65-.55 1.19V24c0 .1.04.18.1.26a.36.36 0 00.52 0 .33.33 0 00.1-.26v-2.3c.02-.27.1-.47.24-.61.2-.02.45.23.75.73l.01.01 1.08 1.66c.27.41.54.65.82.72.33.12.65.03.96-.26.36-.28.47-1.35.32-3.2 0-.1-.05-.18-.12-.24a.34.34 0 00-.27-.09.65.65 0 00-.24.15m5.58.52l-.02-.02a4.78 4.78 0 00-4.12-.52.4.4 0 00-.22.17.34.34 0 00-.03.28c.03.1.09.17.17.22.09.05.18.06.28.03a4.13 4.13 0 013.5.43c.45.36.54.8.26 1.33a2.6 2.6 0 01-2.1.67h-.05c-.45.02-.7-.03-.77-.14v-1.76c0-.1-.04-.18-.11-.26a.33.33 0 00-.26-.1c-.1 0-.18.04-.26.1a.35.35 0 00-.1.26v1.86c.04.55.54.8 1.5.76a3.3 3.3 0 002.75-.99c.52-.93.38-1.7-.42-2.32m-17.64-.76a.38.38 0 00-.2.2 6.94 6.94 0 01-1.82 2.82.96.96 0 01-.46.2c-.1 0-.2-.05-.3-.15l-.01-.03a8.15 8.15 0 01-1.93-2.74.37.37 0 00-.48-.2.37.37 0 00-.2.48 8.76 8.76 0 002.08 2.97c.25.28.53.41.84.4.27.02.58-.1.91-.36h.02a7.53 7.53 0 002.04-3.12.34.34 0 000-.28.36.36 0 00-.2-.19.33.33 0 00-.29 0m1.06.15a.35.35 0 00-.1.26v3.23a.36.36 0 00.62.26.33.33 0 00.1-.26v-3.23c0-.1-.03-.19-.1-.26a.33.33 0 00-.26-.1c-.1 0-.19.02-.26.1m5.64.2a.34.34 0 00-.21-.14c-1.98-.4-3.33-.1-4.05.89a2.06 2.06 0 00-.26.9v.02c-.03.61.31 1.1 1.01 1.49 1.18.6 2.48.7 3.9.3a.3.3 0 00.2-.16.3.3 0 00.03-.25.3.3 0 00-.15-.2.33.33 0 00-.25-.02c-1.25.34-2.4.26-3.43-.26-.3-.16-.5-.36-.59-.58H32a.3.3 0 00.22-.1.3.3 0 00.1-.22.32.32 0 00-.1-.24.3.3 0 00-.22-.1h-2.05l.08-.2c.61-.75 1.74-.96 3.37-.63a.31.31 0 00.38-.25.28.28 0 00-.03-.25m14.85.51c0 .02.02.02.03.03.86.82 1.5 1.79 1.89 2.9a.36.36 0 00.46.22c.1-.04.16-.1.2-.2a.34.34 0 00.02-.27 8.15 8.15 0 00-2.06-3.16 1.06 1.06 0 00-.83-.42c-.28 0-.6.12-.93.37l-.02.02a7.53 7.53 0 00-2.04 3.1.37.37 0 000 .29c.05.1.12.15.21.19.1.03.19.03.28-.01.1-.04.16-.1.2-.2a6.95 6.95 0 011.83-2.81c.18-.13.33-.2.47-.21.11 0 .2.07.29.16z"/></g></g></g></svg>