<?xml version="1.0" encoding="UTF-8"?>
<svg width="56px" height="36px" viewBox="0 0 56 36" version="1.1" xmlns="http://www.w3.org/2000/svg" xmlns:xlink="http://www.w3.org/1999/xlink">
    <!-- Generator: Sketch 53.2 (72643) - https://sketchapp.com -->
    <title>deutsche-bank</title>
    <desc>Created with Sketch.</desc>
    <g id="deutsche-bank" stroke="none" stroke-width="1" fill="none" fill-rule="evenodd">
        <g id="Base">
            <path d="M0,3.75075247 C0,1.67926908 1.67596877,0 3.75035585,0 L52.2496442,0 C54.3209085,0 56,1.68806916 56,3.75075247 L56,32.2492475 C56,34.3207309 54.3240312,36 52.2496442,36 L3.75035585,36 C1.67909151,36 0,34.3119308 0,32.2492475 L0,3.75075247 Z" id="Rectangle-2" fill="#000000" fill-rule="nonzero"></path>
            <path d="M1.25,3.75075247 L1.25,32.2492475 C1.25,33.6250965 2.37296468,34.75 3.75035585,34.75 L52.2496442,34.75 C53.6324061,34.75 54.75,33.6316447 54.75,32.2492475 L54.75,3.75075247 C54.75,2.37490355 53.6270353,1.25 52.2496442,1.25 L3.75035585,1.25 C2.36759386,1.25 1.25,2.36835527 1.25,3.75075247 Z" id="Path" fill="#FFFFFF"></path>
        </g>
        <g id="Deutsche_Bank-Logo" transform="translate(5.000000, 8.000000)" fill="#1C62B7" fill-rule="nonzero">
            <g id="Group" transform="translate(0.000000, 15.750000)">
                <path d="M1.49423835,4.69695664 L-9.81437154e-14,4.69695664 L-9.81437154e-14,6.79456491e-14 L1.49423835,6.79456491e-14 C3.07510135,6.79456491e-14 3.92237703,0.799118052 3.92237703,2.3452578 C3.92237703,3.87823146 3.21856901,4.69695664 1.49423835,4.69695664 Z M1.38596085,0.714528416 L0.896002391,0.714528416 L0.896002391,3.98214828 L1.37513365,3.98214828 C2.60950429,4.00819646 3.00742723,3.38470035 3.00742723,2.35169884 C3.00742723,1.21478375 2.43625811,0.714528416 1.38596085,0.714528416 L1.38596085,0.714528416 Z" id="path2677"></path>
                <path d="M5.2920959,2.7155465 C5.31645965,2.28671634 5.51947966,1.89037784 5.98778372,1.89037784 C6.44255357,1.89037784 6.66722955,2.24106184 6.64828058,2.7155465 L5.2920959,2.7155465 Z M6.01485211,1.3383069 C4.82108641,1.3383069 4.40692228,2.21529117 4.40692228,3.04017989 C4.40692228,4.02136012 4.88334654,4.75521815 5.90116062,4.787709 C6.71053992,4.79442999 7.42788371,4.54094264 7.47660885,3.62502405 L6.64828058,3.62502405 C6.64828058,3.99531194 6.35863748,4.23563644 6.02026689,4.23563644 C5.44910011,4.23563644 5.2677345,3.80036362 5.25961273,3.26761987 L7.54699075,3.26117639 C7.61466487,2.28671634 7.20591316,1.3383069 6.01485211,1.3383069 L6.01485211,1.3383069 Z" id="path2679"></path>
                <path d="M11.2203273,4.69695664 L10.36493,4.69695664 L10.3595154,4.16421127 C10.2160474,4.5863172 9.81812483,4.80087347 9.33087376,4.80087347 C8.75158521,4.80087347 8.20478062,4.43702581 8.19936584,3.56648259 L8.19936584,1.45510744 L9.06559206,1.45510744 L9.06559206,3.44295863 C9.06017729,3.91072311 9.2361289,4.17065394 9.6611225,4.17709499 C10.0455085,4.17709499 10.3595154,3.94965744 10.3595154,3.31971785 L10.3595154,1.45510744 L11.2203273,1.45510744 L11.2203273,4.69695664" id="path2681"></path>
                <path d="M12.3301793,1.4682719 L12.3301793,0.95485292 L13.1666276,0.50025533 L13.1666276,1.4682719 L13.9651801,1.4682719 L13.9651801,2.09821068 L13.1666276,2.09821068 L13.1666276,3.66395594 C13.1666276,3.98214828 13.2721998,4.16421127 13.5862065,4.17709499 C13.705313,4.17709499 13.8135903,4.18998113 13.9705926,4.14460333 L13.9705926,4.70340012 C13.5618429,4.76193914 13.0908338,4.87229864 12.7010309,4.65774238 C12.4059732,4.49556727 12.3301793,4.20958583 12.3301793,3.75498824 L12.3301793,2.09821068 L11.6588552,2.09821068 L11.6588552,1.4682719 L12.3301793,1.4682719" id="path2683"></path>
                <path d="M17.2162328,3.30011071 C17.3542861,3.58608972 17.3488737,3.96282109 17.1783348,4.22275192 C16.883277,4.69023403 16.241729,4.80731452 15.7463562,4.79442999 C15.0425487,4.74877549 14.4172402,4.56054977 14.4470185,3.69000574 L15.3024159,3.69000574 C15.294294,4.06673792 15.5216798,4.20314479 15.8465137,4.21602931 C16.1605205,4.21602931 16.4745273,4.10567143 16.4745273,3.80680628 C16.4745273,3.56648259 16.2552634,3.46256576 15.97374,3.39758407 C15.6516134,3.3261589 15.4215223,3.29366724 15.0614956,3.14409591 C14.7745597,3.00124557 14.490329,2.76092106 14.490329,2.30632347 C14.490329,1.92931216 14.7745597,1.6436131 15.1454114,1.48759829 C15.3944514,1.37723879 15.7030458,1.34474795 15.9683253,1.34474795 C16.5638556,1.34474795 17.2108182,1.55902427 17.1729202,2.33853519 L16.3689552,2.33853519 C16.3689552,2.22173464 16.3445938,2.09176802 16.2498488,2.0139018 C16.0738974,1.85144594 15.5325069,1.83183881 15.3646753,2.09821068 C15.1751875,2.55308902 15.7598906,2.5855823 16.4068532,2.76736454 C16.8156029,2.86483789 17.0917117,3.04017989 17.2162328,3.30011071" id="path2685"></path>
                <path d="M19.3574335,1.33158429 C20.0422941,1.33158429 20.7515162,1.65649762 20.7515162,2.54664798 L19.9096533,2.53992456 C19.9096533,2.12426129 19.6903893,1.87077071 19.276225,1.89037784 C19.1679478,1.89682131 19.0542537,1.93575564 18.9622182,1.98785362 C18.7023511,2.143866 18.6211427,2.57913882 18.6211427,3.01440922 C18.6211427,3.47545029 18.7294198,3.92388677 18.9243202,4.0860643 C19.0542537,4.21602931 19.2870521,4.25524357 19.4873671,4.21602931 C19.8203229,4.1577678 19.9204803,3.81969081 19.9286023,3.52754827 L20.7515162,3.52110722 C20.7623433,4.44990953 20.0287576,4.80087347 19.2626906,4.787709 C18.2394617,4.74877549 17.7684504,4.06029444 17.7684504,3.04017989 C17.7684504,2.00745832 18.3396192,1.33158429 19.3574335,1.33158429" id="path2687"></path>
                <path d="M21.4147184,0.00644266695 L22.280945,0.00644266695 L22.280945,1.96824649 C22.5083287,1.55258079 22.8466991,1.37079855 23.3041738,1.37079855 C23.8834624,1.37079855 24.4302676,1.81895267 24.4302676,2.46205834 L24.4302676,4.69695664 L23.5748702,4.69695664 L23.5748702,2.70882308 C23.5748702,2.26710921 23.3935042,1.97496747 22.9847525,1.97496747 C22.6030716,1.97496747 22.2755304,2.23461836 22.2755304,2.83234704 L22.2755304,4.69695664 L21.4147184,4.69695664 L21.4147184,0.00644266695" id="path2689"></path>
                <path d="M25.9867654,2.7155465 C26.0111283,2.28671634 26.2114437,1.89037784 26.6824532,1.89037784 C27.1345145,1.89037784 27.361899,2.24106184 27.3429508,2.7155465 L25.9867654,2.7155465 Z M26.7095231,1.3383069 C25.5157559,1.3383069 25.1015917,2.21529117 25.1015917,3.04017989 C25.1015917,4.02136012 25.5780152,4.75521815 26.5958309,4.787709 C27.4052102,4.79442999 28.1225532,4.54094264 28.1712783,3.62502405 L27.3429508,3.62502405 C27.3429508,3.99531194 27.0533062,4.23563644 26.7149371,4.23563644 C26.1437696,4.23563644 25.962404,3.80036362 25.9542814,3.26761987 L28.2416594,3.26117639 C28.3093336,2.28671634 27.9005834,1.3383069 26.7095231,1.3383069 L26.7095231,1.3383069 Z" id="path2691"></path>
                <path d="M33.5824813,4.56054977 C33.2901304,4.65774238 32.9111564,4.69695664 32.5051133,4.69695664 L30.8646987,4.69695664 L30.8646987,0.0128837158 L32.6106846,0.0128837158 C33.3902877,0.0128837158 34.205081,0.266371875 34.2375641,1.16940595 C34.2565131,1.74108645 33.8802461,2.10465416 33.4092367,2.26710921 C33.7719679,2.36458256 34.0670265,2.47494205 34.2673411,2.82590357 C34.4432927,3.13765324 34.4568277,3.55359887 34.3133593,3.89783859 C34.1617698,4.22275192 33.9289713,4.43702581 33.5824813,4.56054977 Z M32.6106846,0.714528416 L31.7255101,0.714528416 L31.7255101,1.92931216 L32.6242195,1.92931216 C33.0952298,1.92931216 33.3388555,1.72792279 33.3388555,1.33158429 C33.3388555,0.961295586 33.0573319,0.714528416 32.6106846,0.714528416 Z M32.7000139,2.63095686 L31.7255101,2.6245142 L31.7255101,4.00175542 L32.6675307,4.00175542 C33.2955444,4.00175542 33.495859,3.68328313 33.495859,3.28722457 C33.495859,2.98191837 33.2820094,2.6245142 32.7000139,2.63095686 L32.7000139,2.63095686 Z" id="path2693"></path>
                <path d="M36.3219198,4.22919297 C36.002499,4.20314479 35.8130124,4.04068731 35.8130124,3.72894006 C35.8184264,3.0469025 36.6548748,3.11832605 37.0879879,3.11832605 C37.1069369,3.65751489 37.063625,4.21602931 36.3219198,4.22919297 Z M37.9109022,2.3452578 C37.9109022,1.68254499 37.2206284,1.35119142 36.4220771,1.35763166 C35.6614229,1.37079855 35.1092036,1.62400596 35.0983764,2.38418969 L35.9321179,2.38418969 C35.9131697,2.03322899 36.1459674,1.85144594 36.4545603,1.84500327 C36.9174495,1.84500327 37.1258851,2.06571984 37.082574,2.61162967 C36.6223917,2.63740034 36.007913,2.60490706 35.5504377,2.82590357 C35.2174818,2.98836104 34.9603211,3.29366724 34.9603211,3.7807581 C34.9603211,4.40453497 35.3798993,4.78126634 35.994378,4.80087347 C36.4356121,4.84624884 36.9363985,4.64485866 37.1312991,4.22275192 L37.1637823,4.69695664 L37.9109022,4.69695664 C37.9109022,3.91072311 37.9109022,3.13765324 37.9109022,2.3452578 L37.9109022,2.3452578 Z" id="path2695"></path>
                <path d="M38.7446445,1.45510744 L39.6108699,1.45510744 L39.6108699,1.97496747 C39.8382537,1.55258079 40.2524178,1.37079855 40.7180141,1.37079855 C41.2377495,1.37079855 41.7710199,1.68254499 41.7710199,2.46205834 L41.7710199,4.69695664 L40.9047945,4.69695664 L40.9047945,2.70882308 C40.9102077,2.28671634 40.7098931,1.97496747 40.3146779,1.97496747 C39.9248768,1.97496747 39.6054559,2.23461836 39.6054559,2.83234704 L39.6054559,4.69695664 L38.7446445,4.69695664 L38.7446445,1.45510744" id="path2697"></path>
                <path d="M44.8028093,4.69695664 L43.4845218,2.83878971 L44.6782891,1.45510744 L45.6961039,1.45510744 L44.4590255,2.80629886 L45.9153675,4.69695664 L44.8028093,4.69695664 Z M42.6074684,0.00644266695 L43.4601596,0.00644266695 L43.4601596,4.69695664 L42.6074684,4.69695664 L42.6074684,0.00644266695 Z" id="path2699"></path>
            </g>
            <path d="M17.0857143,0 L28.111141,0 L28.111141,11.4545918 L17.0857143,11.4545918 L17.0857143,0 Z M23.785427,2.71302542 L19.478662,8.69394984 L21.4249624,8.69394984 L25.7479694,2.71302542 L23.785427,2.71302542 Z M18.6205576,9.86811881 L26.5762977,9.86811881 L26.5762977,1.5867529 L18.6205576,1.5867529 L18.6205576,9.86811881 Z" id="path2701"></path>
        </g>
    </g>
</svg>