<?xml version="1.0" encoding="UTF-8"?><svg width="56" height="36" viewBox="0 0 56 36" xmlns="http://www.w3.org/2000/svg"><g fill="none" fill-rule="evenodd"><path d="M0 3.75A3.749 3.749 0 013.75 0h48.5A3.756 3.756 0 0156 3.75v28.5A3.749 3.749 0 0152.25 36H3.75A3.756 3.756 0 010 32.25V3.75z" fill="#000" fill-rule="nonzero"/><path d="M1.25 3.75v28.5c0 1.375 1.123 2.5 2.5 2.5h48.5c1.382 0 2.5-1.118 2.5-2.5V3.75c0-1.375-1.123-2.5-2.5-2.5H3.75a2.499 2.499 0 00-2.5 2.5z" fill="#FFF"/><g fill-rule="nonzero"><path d="M12.56 20.78l1.176-5.574h1.512c.422 0 .69.007.808.019.234.024.441.069.622.14.182.071.35.17.498.3.148.127.278.282.386.462.108.18.19.387.25.622.059.235.087.491.087.77 0 .6-.116 1.134-.347 1.6-.23.464-.52.835-.871 1.108-.269.213-.613.37-1.037.472-.24.055-.608.083-1.105.083l-1.979-.002zm1.343-.898h.587c.424 0 .73-.026.92-.078.192-.052.366-.15.524-.292.226-.204.42-.48.575-.821.155-.342.233-.746.233-1.209 0-.396-.064-.693-.193-.892a.927.927 0 00-.476-.397c-.132-.045-.368-.068-.707-.068h-.669l-.794 3.757zm5.014-3.14h1.15l-.889 4.038h-1.15l.889-4.038zm.336-1.536h1.15l-.217.987h-1.15l.217-.987zM21 16.742h1.01l-.103.524c.252-.223.488-.382.707-.477.219-.095.45-.142.693-.142.325 0 .58.095.765.285.186.19.28.441.28.757 0 .142-.04.41-.122.807l-.464 2.286H22.7l.467-2.295c.068-.342.103-.546.103-.613 0-.14-.04-.25-.12-.327a.455.455 0 00-.337-.121c-.155 0-.33.066-.52.201-.191.136-.34.311-.45.532-.08.157-.168.477-.267.961l-.337 1.657h-1.064l.824-4.035zm7.975 2.357h-2.839c-.002.043-.005.076-.005.1 0 .268.08.486.238.65a.78.78 0 00.582.247c.377 0 .67-.187.879-.562l1.013.163c-.198.394-.462.689-.79.883-.33.197-.699.295-1.109.295-.563 0-1.02-.171-1.371-.515-.351-.345-.528-.798-.528-1.363 0-.553.16-1.044.478-1.477.434-.584 1.054-.873 1.857-.873.514 0 .921.152 1.223.458.301.306.452.734.452 1.284-.002.264-.028.501-.08.71zm-.954-.665l.004-.109c0-.299-.07-.522-.21-.674a.728.728 0 00-.56-.225.914.914 0 00-.629.254c-.186.17-.31.42-.377.752l1.772.002zm2.167-1.692h1.006l-.162.783c.374-.586.782-.878 1.22-.878.155 0 .32.04.5.119l-.413.892a.901.901 0 00-.31-.052c-.187 0-.373.071-.566.214-.191.142-.342.332-.448.567-.108.237-.214.612-.32 1.128l-.262 1.265h-1.076l.831-4.038zm2.095 2.362c0-.748.212-1.344.636-1.79.424-.444.98-.667 1.67-.667.598 0 1.065.164 1.402.491.337.328.504.77.504 1.325 0 .655-.21 1.22-.631 1.695-.422.475-.983.714-1.69.714-.381 0-.72-.076-1.015-.227a1.508 1.508 0 01-.662-.646 1.95 1.95 0 01-.214-.895zm3.126-.779c0-.259-.075-.465-.226-.622a.778.778 0 00-.587-.235.996.996 0 00-.631.219c-.184.144-.325.358-.43.636a2.26 2.26 0 00-.152.767c0 .29.078.517.238.688.158.171.356.254.596.254.301 0 .553-.128.756-.385.29-.363.436-.802.436-1.322z" fill="#42953A"/><path d="M40.318 20.78h-1.16l-.214-4.658L38 20.78h-1.102l1.239-5.574h1.741l.181 3.905 2.027-3.905h1.762l-1.244 5.574h-1.114l1.17-4.625-2.341 4.625zm5.114-2.894l-1.105-.09c.128-.361.347-.641.662-.845.316-.202.73-.304 1.249-.304.54 0 .938.104 1.197.313.257.21.386.466.386.767 0 .121-.012.252-.033.387-.021.138-.101.496-.235 1.08-.111.482-.165.82-.165 1.011 0 .174.03.364.094.575h-1.103a1.968 1.968 0 01-.082-.456 1.705 1.705 0 01-1.225.55c-.349 0-.634-.108-.86-.33-.226-.218-.34-.5-.34-.844 0-.385.126-.693.373-.924.25-.23.693-.37 1.333-.418.54-.042.9-.094 1.082-.156.047-.152.07-.273.07-.366a.363.363 0 00-.146-.292c-.096-.078-.242-.118-.433-.118-.203 0-.363.04-.48.12a.592.592 0 00-.239.34zm1.077 1.011c-.068.017-.16.034-.273.05-.568.067-.94.162-1.115.29a.43.43 0 00-.186.368c0 .126.047.235.142.32.094.088.219.13.374.13.172 0 .332-.04.483-.118a.848.848 0 00.34-.309c.075-.125.14-.32.2-.586l.035-.145zm2.551-2.155h1.037l-.801 4.038h-1.037l.801-4.038zm.304-1.536h1.037l-.196.987H49.17l.195-.987zm.943 5.574l1.107-5.574h1.032L51.34 20.78h-1.034zM8.75 18.097a1.057 1.057 0 00-.22-.325 1.392 1.392 0 00-.314-.235 3.14 3.14 0 00-.36-.17c-.123-.05-.243-.098-.359-.14a2.039 2.039 0 01-.313-.143.764.764 0 01-.221-.171.327.327 0 01-.085-.226.46.46 0 01.04-.192.359.359 0 01.127-.147.664.664 0 01.226-.093c.092-.021.203-.033.335-.033.075 0 .153.005.238.012a2.967 2.967 0 01.697.166v-.722a3.685 3.685 0 00-.714-.121 2.901 2.901 0 00-.24-.012v-.432h-.45v.468a1.797 1.797 0 00-.247.062c-.191.064-.347.152-.47.263a.99.99 0 00-.268.387 1.296 1.296 0 00-.085.468c0 .18.029.332.085.46.057.129.13.238.222.33.092.093.195.169.313.23.115.062.236.12.356.167.12.05.24.095.355.137.118.043.222.09.314.145a.831.831 0 01.221.185.397.397 0 01.085.26.48.48 0 01-.042.203.402.402 0 01-.137.162.743.743 0 01-.243.107 1.456 1.456 0 01-.362.038c-.097 0-.194-.008-.295-.02a3.59 3.59 0 01-.306-.052c-.104-.021-.205-.05-.306-.078a4.69 4.69 0 01-.293-.097v.78c.191.06.384.103.58.129.146.019.297.03.452.035v.409h.45v-.42c.125-.015.243-.034.356-.064.198-.055.37-.136.514-.245.143-.11.256-.25.337-.418.08-.168.12-.368.12-.596a1.195 1.195 0 00-.092-.45z" fill="#134786"/><path d="M7.521 14c-.655 0-1.272.17-1.807.47l-.099.057-.087.211.132.034a2.968 2.968 0 011.58-.456c1.746 0 3.162 1.521 3.162 3.397 0 1.875-1.416 3.397-3.161 3.397-1.746 0-3.162-1.522-3.162-3.397 0-.33.045-.648.125-.95l.377.449.737-2.101-.323.209-.603.39-.28.18-.719.5v.276h.554a3.77 3.77 0 00-.162 1.099c0 2.08 1.672 3.765 3.736 3.765s3.736-1.685 3.736-3.765C11.26 15.685 9.587 14 7.521 14z" fill="#42953A"/><path d="M3.393 17.107s-1.86 3.713 2.724 4.879c0 0-3.548-1.225-2.724-4.879z" fill="#42953A"/></g></g></svg>