<?xml version="1.0" encoding="UTF-8"?>
<svg width="45px" height="29px" viewBox="0 0 45 29" version="1.1" xmlns="http://www.w3.org/2000/svg" xmlns:xlink="http://www.w3.org/1999/xlink">
    <!-- Generator: Sketch 41.2 (35397) - http://www.bohemiancoding.com/sketch -->
    <title>PM/Desktop/Deposit/diners</title>
    <desc>Created with Sketch.</desc>
    <defs>
        <rect id="path-1" x="0" y="0" width="45" height="29" rx="3"></rect>
        <mask id="mask-2" maskContentUnits="userSpaceOnUse" maskUnits="objectBoundingBox" x="0" y="0" width="45" height="29" fill="white">
            <use xlink:href="#path-1"></use>
        </mask>
    </defs>
    <g id="Symbols" stroke="none" stroke-width="1" fill="none" fill-rule="evenodd">
        <g id="PM/Desktop/Deposit/diners">
            <use id="Rectangle-2" stroke="#000000" mask="url(#mask-2)" stroke-width="2" fill="#FFFFFF" xlink:href="#path-1"></use>
            <g id="diners" transform="translate(3.000000, 10.000000)">
                <g id="Group">
                    <path d="M18.0466889,2.18595825 C18.0695569,2.11954459 18.0905193,2.05502846 18.3554073,2.05502846 C19.1939019,2.05502846 19.3692234,2.64705882 19.3692234,3.13092979 C19.3692234,3.41555977 19.2148642,4.88614801 17.6941401,4.88614801 C17.4730824,4.88614801 17.3644593,4.86337761 17.3644593,4.70967742 C17.3644593,4.64326376 17.4311577,4.42504744 17.4749881,4.27134725 L18.0466889,2.18595825 L18.0466889,2.18595825 Z M17.1662697,1.9886148 C17.4082897,2.0113852 17.5416865,2.03225806 17.5416865,2.18595825 C17.5416865,2.27324478 17.4978561,2.42694497 17.4978561,2.47058824 L16.9032873,4.57685009 C16.8156265,4.86148008 16.7489281,4.88425047 16.5069081,4.92789374 L16.5069081,4.9943074 L17.7189138,4.9943074 C19.1291091,4.9943074 19.9009052,4.11574953 19.9009052,3.14990512 C19.9009052,2.64516129 19.6150548,1.87666034 18.5116722,1.87666034 L17.1891377,1.87666034 L17.1891377,1.98671727 L17.1662697,1.98671727 L17.1662697,1.9886148 Z M20.8899476,4.53510436 C20.7127203,4.81973435 20.4935684,5.08349146 20.2286803,5.08349146 C20.0076227,5.08349146 20.0076227,4.86337761 20.0076227,4.79886148 C20.0076227,4.57874763 20.3830395,3.39468691 20.3830395,3.26185958 C20.3830395,3.15180266 20.3392091,3.13092979 20.0743211,3.13092979 L20.0743211,3.06451613 C20.2515484,3.06451613 20.6479276,2.9772296 20.8461172,2.9544592 L20.8689852,2.9544592 L20.449738,4.4914611 C20.4268699,4.55787476 20.3830395,4.75521822 20.3830395,4.79886148 C20.3830395,4.84250474 20.4268699,4.86527514 20.449738,4.86527514 C20.5164364,4.86527514 20.6479276,4.77798861 20.8461172,4.4914611 L20.8899476,4.53510436 Z M20.8022868,2.40607211 C20.691758,2.40607211 20.5812292,2.31878558 20.5812292,2.16508539 C20.5812292,1.9886148 20.691758,1.90132827 20.8022868,1.90132827 C20.956646,1.90132827 21.0443068,2.05502846 21.0443068,2.16508539 C21.0233444,2.25237192 20.956646,2.40607211 20.8022868,2.40607211 Z M23.1157694,4.51233397 C22.8737494,4.84060721 22.7193902,5.06072106 22.4545021,5.06072106 C22.2334445,5.06072106 22.2334445,4.90702087 22.2334445,4.77609108 C22.2334445,4.66603416 22.5859933,3.5028463 22.5859933,3.30550285 C22.5859933,3.21821632 22.5631253,3.15180266 22.4754645,3.15180266 C22.2544069,3.15180266 21.9456884,3.56925996 21.7703668,3.83301708 C21.5493092,4.16129032 21.4845164,4.36053131 21.2863268,5.01897533 L20.933778,5.01897533 C21.0881372,4.47058824 21.3968556,3.37381404 21.3968556,3.26375712 C21.3968556,3.19734345 21.3530253,3.13282732 21.0881372,3.13282732 L21.0881372,3.06641366 C21.3530253,3.0227704 21.5950453,2.97912713 21.8599333,2.91271347 L21.8828013,2.91271347 L21.5740829,3.89943074 C21.7951405,3.5483871 22.2353502,2.88994307 22.6317294,2.88994307 C22.852787,2.88994307 22.9614102,3 22.9614102,3.19734345 C22.9614102,3.39468691 22.5859933,4.58064516 22.5859933,4.73434535 C22.5859933,4.80075901 22.6526918,4.82163188 22.6526918,4.82163188 C22.7403525,4.82163188 22.8737494,4.66793169 23.049071,4.44781784 L23.1157694,4.51233397 L23.1157694,4.51233397 Z M23.7332063,3.81024668 C23.9104335,3.39278937 24.2401143,3.02087287 24.5050024,3.02087287 C24.6155312,3.02087287 24.6822296,3.10815939 24.6822296,3.21821632 C24.6822296,3.26185958 24.6593616,3.83301708 23.6684135,4.03036053 L23.7332063,3.81024668 L23.7332063,3.81024668 Z M24.72606,4.48956357 C24.48404,4.68690702 24.2858504,4.84060721 24.0209624,4.84060721 C23.8227727,4.84060721 23.5807527,4.73055028 23.5807527,4.40227704 C23.5807527,4.31499051 23.6036208,4.20493359 23.6245831,4.11764706 L23.7560743,4.09487666 C24.5278704,3.98481973 24.9909481,3.59013283 24.9909481,3.21631879 C24.9909481,2.99620493 24.8365889,2.88804554 24.5945688,2.88804554 C23.9104335,2.88804554 23.1615055,3.67741935 23.1615055,4.37950664 C23.1615055,4.68690702 23.3158647,5.06072106 23.8227727,5.06072106 C24.3068128,5.06072106 24.72606,4.62239089 24.7927585,4.55597723 L24.72606,4.48956357 L24.72606,4.48956357 Z M25.0119104,5.0170778 L25.4082897,3.63377609 C25.4521201,3.4573055 25.4749881,3.30550285 25.4749881,3.25996205 C25.4749881,3.19354839 25.4521201,3.10626186 25.2977608,3.10626186 C25.2539304,3.10626186 25.187232,3.12903226 25.1434016,3.12903226 L25.1434016,3.04174573 C25.3854216,2.99810247 25.6731777,2.9544592 25.8923297,2.91081594 L25.9151977,2.91081594 L25.6731777,3.85388994 L25.7170081,3.76660342 C25.8713673,3.45920304 26.2467842,2.88804554 26.5326346,2.88804554 C26.6431634,2.88804554 26.7536922,2.9544592 26.7536922,3.12903226 C26.7536922,3.37001898 26.576465,3.37001898 26.5326346,3.37001898 C26.334445,3.37001898 26.4011434,3.19354839 26.2906146,3.19354839 C26.1362554,3.19354839 25.850405,3.72106262 25.8065746,3.78557875 C25.6293473,4.13662239 25.5645545,4.33396584 25.3663649,4.971537 L25.0138161,4.971537 L25.0138161,5.0170778 L25.0119104,5.0170778 Z M26.5326346,4.31499051 C26.576465,4.53510436 26.6431634,4.97343454 27.0395426,4.97343454 C27.3044307,4.97343454 27.3920915,4.75332068 27.3920915,4.57874763 C27.3920915,4.27134725 26.818485,3.81024668 26.818485,3.43833017 C26.818485,3.28462998 26.8851834,2.91081594 27.3920915,2.91081594 C27.6131491,2.91081594 27.7008099,2.99810247 27.8551691,2.99810247 C27.9428299,2.99810247 27.965698,2.9544592 27.9866603,2.91081594 L28.0533587,2.91081594 L27.965698,3.56925996 L27.8989995,3.56925996 C27.8761315,3.30550285 27.7675083,3.02087287 27.4587899,3.02087287 C27.3482611,3.02087287 27.1939019,3.06451613 27.1939019,3.30550285 C27.1939019,3.61290323 27.7884707,4.03036053 27.7884707,4.42504744 C27.7884707,4.95256167 27.3482611,5.06072106 27.083373,5.06072106 C26.9290138,5.06072106 26.7536922,4.97343454 26.599333,4.97343454 C26.5326346,4.97343454 26.5116722,5.0170778 26.4888042,5.08349146 L26.4221058,5.08349146 L26.5097666,4.31499051 L26.5326346,4.31499051 L26.5326346,4.31499051 Z M32,2.77798861 C32,2.64705882 31.9561696,2.00948767 31.2720343,2.00948767 C30.3249166,2.00948767 29.8180086,3.17267552 29.8180086,3.87476281 C29.8180086,4.48956357 30.0828966,4.88425047 30.6565031,4.88425047 C31.2072415,4.88425047 31.538828,4.55597723 31.75798,4.31309298 L31.8456408,4.37950664 C31.6684135,4.59962049 31.2510719,5.08159393 30.5459743,5.08159393 C29.9952358,5.08159393 29.2901382,4.75332068 29.2901382,3.78747628 C29.2901382,2.86527514 30.1286327,1.81214421 31.2301096,1.81214421 C31.5826584,1.81214421 31.8685088,1.92220114 31.9790376,1.92220114 C32.1105288,1.92220114 32.1562649,1.85578748 32.1772273,1.81214421 L32.2877561,1.81214421 L32.1105288,2.75521822 L32,2.77798861 L32,2.77798861 Z M32.8804192,4.4686907 C32.6383992,4.84250474 32.4402096,5.06072106 32.1524535,5.06072106 C31.9313959,5.06072106 31.9313959,4.90702087 31.9313959,4.77609108 C31.9313959,4.66603416 32.6364936,2.18595825 32.6364936,2.07590133 C32.6364936,1.94497154 32.438304,1.94497154 32.3068128,1.9658444 L32.3068128,1.89943074 C32.5488328,1.87666034 32.8137208,1.83301708 33.0557408,1.76850095 L33.0786089,1.79127135 L32.3506432,4.55597723 C32.3506432,4.59962049 32.3068128,4.73244782 32.3068128,4.77609108 C32.3068128,4.79886148 32.3068128,4.86337761 32.3735112,4.86337761 C32.48404,4.86337761 32.5945688,4.73244782 32.8365889,4.42504744 L32.8804192,4.4686907 Z M35.0852787,4.51233397 C34.7765603,4.95066414 34.6660314,5.06072106 34.4240114,5.06072106 C34.2029538,5.06072106 34.2029538,4.88425047 34.2029538,4.81973435 C34.2029538,4.73244782 34.2906146,4.33776091 34.4011434,3.94117647 C34.0714626,4.48956357 33.7170081,5.08159393 33.2996665,5.08159393 C33.1224393,5.08159393 33.0347785,5.01518027 33.0347785,4.79696395 C33.0347785,4.57685009 33.4101953,3.39278937 33.4101953,3.25996205 C33.4101953,3.12903226 33.3225345,3.12903226 33.1243449,3.12903226 L33.1243449,3.0626186 C33.3663649,3.0398482 33.6083849,2.99620493 33.8523106,2.9316888 L33.8751787,2.9316888 L33.434969,4.66603416 C33.412101,4.73244782 33.434969,4.81973435 33.5454979,4.81973435 C33.7436875,4.81973435 34.0524059,4.38140417 34.2067651,4.11764706 C34.4487851,3.76660342 34.5364459,3.45920304 34.7365412,2.9544592 L35.08909,2.9544592 L34.7136732,4.38140417 C34.6908051,4.4686907 34.6260124,4.68880455 34.6260124,4.75521822 C34.6260124,4.77798861 34.6260124,4.82163188 34.6927108,4.82163188 C34.7803716,4.82163188 34.9137685,4.64516129 35.08909,4.44781784 L35.0852787,4.51233397 L35.0852787,4.51233397 Z M36.8251548,3.54648956 C36.8251548,3.94117647 36.3620772,4.95066414 35.7236779,4.95066414 C35.5026203,4.95066414 35.5026203,4.81973435 35.5026203,4.79696395 C35.5026203,4.29222011 35.965698,3.15180266 36.4935684,3.15180266 C36.7813244,3.15180266 36.8251548,3.41555977 36.8251548,3.54648956 Z M35.5026203,1.94497154 C35.7884707,1.94497154 35.8113387,1.96774194 35.8113387,2.07590133 C35.8113387,2.14231499 35.7675083,2.25237192 35.7446403,2.40417457 L35.083373,4.79696395 L35.083373,4.81973435 C35.083373,4.92979127 35.4587899,5.08349146 35.7008099,5.08349146 C36.4287756,5.08349146 37.2444021,4.24857685 37.2444021,3.5028463 C37.2444021,3.15180266 37.0023821,2.9316888 36.6707956,2.9316888 C36.230586,2.9316888 35.9428299,3.37001898 35.7884707,3.63377609 C35.9428299,3.08538899 36.1638876,2.20683112 36.2725107,1.81214421 L36.2286803,1.76850095 C35.9866603,1.81214421 35.7446403,1.85578748 35.5007146,1.87855787 L35.5007146,1.94497154 L35.5026203,1.94497154 Z M16.5050024,8.66034156 C16.7470224,8.61669829 16.8137208,8.59392789 16.9013816,8.30929791 L17.4959505,6.20303605 C17.5188185,6.11574953 17.5397808,5.9829222 17.5397808,5.91840607 C17.5397808,5.74193548 17.4082897,5.74193548 17.2101,5.72106262 L17.2101,5.65464896 L18.4011434,5.65464896 L18.4011434,5.72106262 C18.1591234,5.76470588 18.092425,5.76470588 18.0047642,6.07210626 L17.4101953,8.17836812 C17.3873273,8.26565465 17.3663649,8.37571157 17.3663649,8.4857685 C17.3663649,8.63946869 17.4768938,8.66223909 17.6960457,8.68311195 L17.6960457,8.74952562 L16.5278704,8.74952562 L16.5278704,8.66223909 L16.5050024,8.66223909 L16.5050024,8.66034156 Z" id="Shape" fill="#000000"></path>
                    <path d="M19.9866603,8.24288425 C19.7446403,8.5711575 19.5902811,8.79127135 19.325393,8.79127135 C19.1043354,8.79127135 19.1043354,8.63757116 19.1043354,8.50664137 C19.1043354,8.39658444 19.4568842,7.23339658 19.4568842,7.03605313 C19.4568842,6.9487666 19.4340162,6.88235294 19.3463554,6.88235294 C19.1252978,6.88235294 18.8165793,7.29981025 18.6412577,7.56356736 C18.4202001,7.89184061 18.3554073,8.09108159 18.1572177,8.74952562 L17.8046689,8.74952562 C17.9590281,8.20113852 18.2677465,7.10436433 18.2677465,6.9943074 C18.2677465,6.92789374 18.2239162,6.86337761 17.9590281,6.86337761 L17.9590281,6.79696395 C18.2239162,6.75332068 18.4659362,6.70967742 18.7308242,6.64326376 L18.7536922,6.64326376 L18.4449738,7.62998102 C18.6660314,7.27893738 19.1062411,6.62049336 19.5026203,6.62049336 C19.7236779,6.62049336 19.8323011,6.73055028 19.8323011,6.92789374 C19.8323011,7.12523719 19.4568842,8.31119545 19.4568842,8.46489564 C19.4568842,8.5313093 19.5235827,8.55218216 19.5235827,8.55218216 C19.6112434,8.55218216 19.7446403,8.39848197 19.9199619,8.17836812 L19.9866603,8.24288425 L19.9866603,8.24288425 Z M21.2653645,6.83870968 L20.8689852,6.83870968 L20.449738,8.41935484 L20.449738,8.4629981 C20.449738,8.50664137 20.472606,8.55028463 20.5164364,8.55028463 C20.6040972,8.55028463 20.7813244,8.33017078 20.8918533,8.17647059 L20.9585517,8.22011385 C20.7165317,8.5711575 20.5183421,8.79127135 20.2744164,8.79127135 C20.1867556,8.79127135 20.0533587,8.74762808 20.0533587,8.59392789 C20.0533587,8.52751423 20.1410195,8.22011385 20.1638876,8.15559772 L20.5164364,6.83870968 L20.1638876,6.83870968 L20.1638876,6.77229602 C20.1867556,6.72865275 20.3182468,6.70588235 20.4059076,6.66223909 C20.5602668,6.57495256 20.8022868,6.37760911 20.9356837,6.20113852 C20.9585517,6.17836812 20.9795141,6.13472486 21.0233444,6.13472486 C21.0671748,6.13472486 21.0671748,6.17836812 21.0671748,6.20113852 L20.9356837,6.68311195 L21.3111005,6.68311195 L21.2653645,6.83870968 L21.2653645,6.83870968 Z M21.6846117,7.54079696 C21.861839,7.12333966 22.1915198,6.75142315 22.4564078,6.75142315 C22.5669366,6.75142315 22.6336351,6.83870968 22.6336351,6.9487666 C22.6336351,6.99240987 22.610767,7.56356736 21.619819,7.76091082 L21.6846117,7.54079696 L21.6846117,7.54079696 Z M22.6755598,8.22201139 C22.4335398,8.41935484 22.2353502,8.57305503 21.9704621,8.57305503 C21.7722725,8.57305503 21.5302525,8.4629981 21.5302525,8.13472486 C21.5302525,8.04743833 21.5531205,7.9373814 21.5740829,7.85009488 L21.7055741,7.82732448 C22.4773702,7.71726755 22.9404478,7.32258065 22.9404478,6.9487666 C22.9404478,6.72865275 22.7860886,6.62049336 22.5440686,6.62049336 C21.8599333,6.62049336 21.1110052,7.43263757 21.1110052,8.11195446 C21.1110052,8.41935484 21.2653645,8.79316888 21.7722725,8.79316888 C22.2563125,8.79316888 22.6755598,8.35483871 22.7422582,8.28842505 L22.6755598,8.22201139 L22.6755598,8.22201139 Z M23.071939,8.72675522 L23.4683182,7.34345351 C23.5121486,7.16698292 23.5350167,7.01518027 23.5350167,6.96963947 C23.5350167,6.90322581 23.5121486,6.81593928 23.3577894,6.81593928 C23.313959,6.81593928 23.2472606,6.83870968 23.2034302,6.83870968 L23.2034302,6.75142315 C23.4454502,6.70777989 23.7332063,6.66413662 23.9523583,6.62049336 L23.9752263,6.62049336 L23.7332063,7.56356736 L23.7770367,7.47628083 C23.9313959,7.16888046 24.3068128,6.59772296 24.5926632,6.59772296 C24.703192,6.59772296 24.8137208,6.66413662 24.8137208,6.83870968 C24.8137208,7.07969639 24.6364936,7.07969639 24.5926632,7.07969639 C24.3944736,7.07969639 24.461172,6.90322581 24.3506432,6.90322581 C24.1962839,6.90322581 23.9104335,7.43074004 23.8666031,7.49525617 C23.6893759,7.84629981 23.6245831,8.04364326 23.4263935,8.68121442 L23.0738447,8.68121442 L23.0738447,8.72675522 L23.071939,8.72675522 Z" id="Shape" fill="#000000"></path>
                    <path d="M26.7308242,8.24288425 C26.4888042,8.5711575 26.334445,8.79127135 26.0695569,8.79127135 C25.8484993,8.79127135 25.8484993,8.63757116 25.8484993,8.50664137 C25.8484993,8.39658444 26.2010481,7.23339658 26.2010481,7.03605313 C26.2010481,6.9487666 26.1781801,6.88235294 26.0905193,6.88235294 C25.8694616,6.88235294 25.5607432,7.29981025 25.3854216,7.56356736 C25.164364,7.89184061 25.0995712,8.09108159 24.9013816,8.74952562 L24.5488328,8.74952562 C24.703192,8.20113852 25.0119104,7.10436433 25.0119104,6.9943074 C25.0119104,6.92789374 24.96808,6.86337761 24.703192,6.86337761 L24.703192,6.79696395 C24.96808,6.75332068 25.2101,6.70967742 25.4749881,6.64326376 L25.4978561,6.64326376 L25.1891377,7.62998102 C25.4101953,7.27893738 25.850405,6.62049336 26.2467842,6.62049336 C26.4678418,6.62049336 26.576465,6.73055028 26.576465,6.92789374 C26.576465,7.12523719 26.2010481,8.31119545 26.2010481,8.46489564 C26.2010481,8.5313093 26.2677465,8.55218216 26.2677465,8.55218216 C26.3554073,8.55218216 26.4888042,8.39848197 26.6641258,8.17836812 L26.7308242,8.24288425 L26.7308242,8.24288425 Z M27.1062411,8.22201139 C27.1062411,7.78368121 27.5464507,6.75142315 28.0971891,6.75142315 C28.2286803,6.75142315 28.3620772,6.83870968 28.3620772,7.07969639 C28.3620772,7.54079696 27.8989995,8.5711575 27.3920915,8.5711575 C27.2606003,8.55028463 27.1062411,8.4629981 27.1062411,8.22201139 Z M28.8480229,8.19924099 C28.6269652,8.41935484 28.5393044,8.52751423 28.472606,8.52751423 C28.4287756,8.52751423 28.4059076,8.50474383 28.4059076,8.46110057 C28.4059076,8.30740038 28.8461172,6.68311195 28.8689852,6.63946869 L28.8251548,6.61669829 L28.5393044,6.66034156 L28.5164364,6.68311195 L28.472606,6.90322581 C28.449738,6.77229602 28.2953788,6.63946869 28.0971891,6.63946869 C27.4587899,6.63946869 26.7308242,7.53889943 26.7308242,8.24098672 C26.7308242,8.37191651 26.7536922,8.81214421 27.2148642,8.81214421 C27.5007146,8.81214421 27.7656027,8.65844402 28.1619819,8.08728653 C28.0952835,8.37191651 28.0514531,8.48197343 28.0514531,8.59203036 C28.0514531,8.67931689 28.0514531,8.78937381 28.2496427,8.78937381 C28.4478323,8.78937381 28.6250596,8.61290323 28.91091,8.26185958 L28.8480229,8.19924099 L28.8480229,8.19924099 Z M30.2791806,6.83870968 L29.8828013,6.83870968 L29.4635541,8.41935484 L29.4635541,8.4629981 C29.4635541,8.50664137 29.4864221,8.55028463 29.5302525,8.55028463 C29.6179133,8.55028463 29.7951405,8.33017078 29.9056694,8.17647059 L29.9723678,8.22011385 C29.7303478,8.59392789 29.5321582,8.79127135 29.2882325,8.79127135 C29.2005717,8.79127135 29.0671748,8.74762808 29.0671748,8.59392789 C29.0671748,8.52751423 29.1548356,8.22011385 29.1777037,8.15559772 L29.5302525,6.83870968 L29.1777037,6.83870968 L29.1777037,6.77229602 C29.2005717,6.72865275 29.3320629,6.70588235 29.4197237,6.66223909 C29.5740829,6.57495256 29.8161029,6.37760911 29.9494998,6.20113852 C29.9723678,6.17836812 29.9933302,6.13472486 30.0371606,6.13472486 C30.0809909,6.13472486 30.0809909,6.17836812 30.0809909,6.20113852 L29.9494998,6.68311195 L30.3249166,6.68311195 L30.2791806,6.83870968 L30.2791806,6.83870968 Z M31.1843735,8.24288425 C31.0071463,8.52751423 30.7879943,8.79127135 30.5231062,8.79127135 C30.3020486,8.79127135 30.3020486,8.5711575 30.3020486,8.50664137 C30.3020486,8.28652751 30.6774655,7.10246679 30.6774655,6.96963947 C30.6774655,6.85958254 30.6336351,6.83870968 30.368747,6.83870968 L30.368747,6.77229602 C30.5459743,6.77229602 30.9423535,6.68500949 31.1405431,6.66223909 L31.1634111,6.66223909 L30.7441639,8.19924099 C30.7212959,8.26565465 30.6774655,8.4629981 30.6774655,8.50664137 C30.6774655,8.55028463 30.7212959,8.57305503 30.7441639,8.57305503 C30.8108623,8.57305503 30.9423535,8.4857685 31.1405431,8.19924099 L31.1843735,8.24288425 Z M31.0948071,6.11385199 C30.9842782,6.11385199 30.8737494,6.02656546 30.8737494,5.87286528 C30.8737494,5.69639469 30.9842782,5.60910816 31.0948071,5.60910816 C31.2491663,5.60910816 31.3368271,5.76280835 31.3368271,5.87286528 C31.3368271,5.9829222 31.2491663,6.11385199 31.0948071,6.11385199 Z M32.7489281,6.72865275 C32.9699857,6.72865275 33.0786089,6.9487666 33.0786089,7.18975332 C33.0786089,7.69449715 32.703192,8.68121442 32.1524535,8.68121442 C31.9104335,8.68121442 31.7770367,8.50474383 31.7770367,8.24288425 C31.7789424,7.67172676 32.219152,6.72865275 32.7489281,6.72865275 Z M32.7927585,6.64136622 C32.0876608,6.64136622 31.3825631,7.40986717 31.3825631,8.11195446 C31.3825631,8.50664137 31.6036208,8.79316888 32.1105288,8.79316888 C32.8384945,8.79316888 33.4997618,7.9373814 33.4997618,7.34535104 C33.4978561,7.01328273 33.3434969,6.64136622 32.7927585,6.64136622 L32.7927585,6.64136622 Z" id="Shape" fill="#000000"></path>
                    <path d="M35.5693187,8.24288425 C35.3272987,8.5711575 35.1729395,8.79127135 34.9080515,8.79127135 C34.6869938,8.79127135 34.6869938,8.63757116 34.6869938,8.50664137 C34.6869938,8.39658444 35.0395426,7.23339658 35.0395426,7.03605313 C35.0395426,6.9487666 35.0166746,6.88235294 34.9290138,6.88235294 C34.7079562,6.88235294 34.3992377,7.29981025 34.2239162,7.56356736 C34.0028585,7.89184061 33.9380657,8.09108159 33.7398761,8.74952562 L33.3873273,8.74952562 C33.5416865,8.20113852 33.850405,7.10436433 33.850405,6.9943074 C33.850405,6.92789374 33.8065746,6.86337761 33.5416865,6.86337761 L33.5416865,6.79696395 C33.8065746,6.75332068 34.0485946,6.70967742 34.3134826,6.64326376 L34.3363506,6.64326376 L34.0276322,7.62998102 C34.2486899,7.27893738 34.6888995,6.62049336 35.0852787,6.62049336 C35.3063364,6.62049336 35.4149595,6.73055028 35.4149595,6.92789374 C35.4149595,7.12523719 35.0395426,8.31119545 35.0395426,8.46489564 C35.0395426,8.5313093 35.1062411,8.55218216 35.1062411,8.55218216 C35.1939019,8.55218216 35.3272987,8.39848197 35.5026203,8.17836812 L35.5693187,8.24288425 L35.5693187,8.24288425 Z M36.0552644,8.22201139 C36.0552644,7.78368121 36.495474,6.75142315 37.0462125,6.75142315 C37.1777037,6.75142315 37.3111005,6.83870968 37.3111005,7.07969639 C37.3111005,7.54079696 36.8480229,8.5711575 36.3411148,8.5711575 C36.2096236,8.55028463 36.0552644,8.4629981 36.0552644,8.22201139 Z M37.7741782,8.19924099 C37.5531205,8.41935484 37.4654597,8.52751423 37.3987613,8.52751423 C37.3549309,8.52751423 37.3320629,8.50474383 37.3320629,8.46110057 C37.3320629,8.30740038 37.7722725,6.68311195 37.7951405,6.63946869 L37.7513101,6.61669829 L37.4654597,6.66034156 L37.4425917,6.68311195 L37.3987613,6.90322581 C37.3758933,6.77229602 37.2215341,6.63946869 37.0233444,6.63946869 C36.3849452,6.63946869 35.6569795,7.53889943 35.6569795,8.24098672 C35.6569795,8.37191651 35.6798475,8.81214421 36.1410195,8.81214421 C36.4268699,8.81214421 36.691758,8.65844402 37.0881372,8.08728653 C37.0214388,8.37191651 36.9776084,8.48197343 36.9776084,8.59203036 C36.9776084,8.67931689 36.9776084,8.78937381 37.175798,8.78937381 C37.3739876,8.78937381 37.5512149,8.61290323 37.8370653,8.26185958 L37.7741782,8.19924099 L37.7741782,8.19924099 Z M38.8756551,8.19924099 C38.6336351,8.57305503 38.4354455,8.79127135 38.1476894,8.79127135 C37.9266317,8.79127135 37.9266317,8.63757116 37.9266317,8.50664137 C37.9266317,8.39658444 38.6317294,5.91650854 38.6317294,5.80645161 C38.6317294,5.67552182 38.4335398,5.67552182 38.3020486,5.69639469 L38.3020486,5.62998102 C38.5440686,5.60721063 38.8089566,5.56356736 39.0509767,5.49905123 L39.0738447,5.52182163 L38.345879,8.28652751 C38.345879,8.33017078 38.3020486,8.4629981 38.3020486,8.50664137 C38.3020486,8.52941176 38.3020486,8.59392789 38.368747,8.59392789 C38.4792758,8.59392789 38.5898047,8.4629981 38.8318247,8.15559772 L38.8756551,8.19924099 L38.8756551,8.19924099 Z M39.5369223,5.58823529 L39.5807527,5.58823529 C39.6245831,5.58823529 39.6684135,5.61100569 39.6684135,5.67552182 C39.6684135,5.74193548 39.6455455,5.78557875 39.5807527,5.78557875 L39.5369223,5.78557875 L39.5369223,5.58823529 L39.5369223,5.58823529 Z M39.4054312,5.58823529 C39.4721296,5.58823529 39.4721296,5.58823529 39.4721296,5.65464896 L39.4721296,5.93927894 C39.4721296,5.9829222 39.4721296,5.9829222 39.4054312,6.0056926 L39.4054312,6.028463 L39.6036208,6.028463 L39.6036208,6.0056926 C39.5369223,6.0056926 39.5369223,6.0056926 39.5369223,5.93927894 L39.5369223,5.82922201 L39.6036208,5.82922201 C39.6703192,5.93927894 39.7141496,6.02656546 39.75798,6.02656546 L39.8246784,6.02656546 C39.8018104,6.00379507 39.75798,5.9601518 39.7370176,5.91650854 L39.6703192,5.82922201 C39.7141496,5.80645161 39.75798,5.76280835 39.75798,5.69829222 C39.75798,5.63187856 39.6912816,5.58823529 39.6264888,5.58823529 L39.4054312,5.58823529 L39.4054312,5.58823529 Z M40,5.78557875 C40,5.5654649 39.8227727,5.36812144 39.6036208,5.36812144 C39.3844688,5.36812144 39.1843735,5.54459203 39.1843735,5.78557875 C39.1843735,6.0056926 39.3616008,6.20303605 39.6036208,6.20303605 C39.8227727,6.20303605 40,6.00379507 40,5.78557875 Z M39.9333016,5.78557875 C39.9333016,5.9829222 39.7789424,6.13662239 39.6036208,6.13662239 C39.4054312,6.13662239 39.2510719,5.9601518 39.2510719,5.78557875 C39.2510719,5.58823529 39.4054312,5.4345351 39.6036208,5.4345351 C39.7789424,5.4345351 39.9333016,5.58823529 39.9333016,5.78557875 Z" id="Shape" fill="#000000"></path>
                    <g id="Shape">
                        <path d="M10.553597,9.99810247 C13.2863268,10.0208729 15.5350167,7.78178368 15.5121486,5.06072106 C15.555979,2.25237192 13.3072892,0.0132827324 10.553597,0.0132827324 L5.06526918,0.0132827324 C2.30967127,0.0132827324 0.0628870891,2.25237192 0.0171510243,5.0398482 C0.0609814197,7.76091082 2.30967127,10 5.06526918,9.9772296 L10.553597,9.9772296 L10.553597,9.99810247 Z" fill="#034EA2"></path>
                        <path d="M0.369699857,5.0398482 C0.392567889,2.4288425 2.48499285,0.34345351 5.06526918,0.364326376 C7.64363983,0.364326376 9.73797046,2.44971537 9.76083849,5.0398482 C9.73797046,7.56356736 7.6455455,9.64895636 5.06526918,9.64895636 C2.48689852,9.66982922 0.392567889,7.58444023 0.369699857,5.0398482 L0.369699857,5.0398482 Z" fill="#FFFFFF"></path>
                        <path d="M4.02858504,2.27324478 C2.94807051,2.75521822 2.13244402,3.81024668 2.11148166,5.06072106 C2.13434969,6.26755218 2.90424011,7.32068311 4.02858504,7.76091082 L4.02858504,2.27324478 Z M6.12291567,7.73814042 C7.2472606,7.29981025 8.01905669,6.24667932 8.04001906,5.03795066 C8.01715102,3.76470588 7.2472606,2.71157495 6.12291567,2.25047438 L6.12291567,7.73814042 L6.12291567,7.73814042 Z" fill="#034EA2"></path>
                    </g>
                </g>
            </g>
        </g>
    </g>
</svg>