<svg width="56" height="36" viewBox="0 0 56 36" xmlns="http://www.w3.org/2000/svg"><g fill="none" fill-rule="evenodd"><path d="M0 3.75A3.75 3.75 0 013.75 0h48.5A3.76 3.76 0 0156 3.75v28.5A3.75 3.75 0 0152.25 36H3.75A3.76 3.76 0 010 32.25V3.75z" fill="#000" fill-rule="nonzero"/><path d="M1.25 3.75v28.5a2.5 2.5 0 002.5 2.5h48.5a2.5 2.5 0 002.5-2.5V3.75a2.5 2.5 0 00-2.5-2.5H3.75a2.5 2.5 0 00-2.5 2.5z" fill="#FFF"/><g fill-rule="nonzero"><path d="M51 31.17c0 .66-.54 1.2-1.2 1.2H7.23a1.2 1.2 0 01-1.2-1.2V5.25c0-.66.54-1.2 1.2-1.2H49.8c.66 0 1.2.54 1.2 1.2v25.92z" fill="#FEF100"/><path d="M14.96 15.9v-1.84c0-.13-.03-.16-.16-.16-.36 0-.36 0-.36-.35v-.51c0-.07 0-.13.09-.12 1.05.03 2.12-.1 3.17.1 1.04.2 1.52.71 1.68 1.77.08.48.08.97-.02 1.45-.2.9-.8 1.44-1.79 1.62-.32.05-.65.07-.98.07H15.1c-.13 0-.16-.04-.16-.16.02-.62.02-1.24.02-1.86zM35.31 23.2l-.07.8c0 .08-.05.12-.12.15-.66.3-1.37.12-1.8-.45-.26-.33-.45-.69-.67-1.03-.07-.11-.3-.18-.4-.13-.08.04-.05.1-.05.15v1.35c0 .13-.04.16-.16.16h-1.09c-.1 0-.14-.02-.14-.13V19.3c0-.08 0-.13.11-.13.84.02 1.67-.04 2.5.04.26.03.52.09.75.2.55.27.84.83.8 1.47-.03.63-.25 1.14-.86 1.43-.07.04-.06.07-.02.13l.38.6c.17.25.38.32.67.22l.17-.08zM42.56 16.94l-.07.8c-.01.08-.05.13-.13.15-.54.2-1.32.26-1.83-.49-.22-.33-.43-.66-.63-1-.07-.1-.32-.18-.42-.12-.06.04-.04.1-.04.15v1.34c0 .12-.02.16-.15.16h-1.1c-.1 0-.13-.02-.13-.13v-4.75c0-.08 0-.14.1-.13.85.02 1.69-.04 2.53.04.14.01.3.05.44.1.72.2 1.13.79 1.1 1.55-.03.64-.26 1.15-.86 1.45-.1.05-.04.1-.02.15l.35.55c.19.29.4.35.73.23a.53.53 0 01.13-.05zM22.96 21.53V24.04c0 .12-.03.16-.15.15h-.88c-.1 0-.14-.03-.14-.13V19.3c0-.11.04-.15.14-.13h.02c.24 0 .5-.06.7.02.2.09.31.33.46.5l1.47 1.74.35.42v-1-1.53c0-.12.03-.16.15-.15h.82c.14 0 .18.02.18.17v4.7c0 .1-.03.16-.16.15-.24-.01-.51.06-.72-.03-.19-.09-.32-.34-.47-.52l-1.5-1.77-.27-.35zM24.44 15.43c0 .36-.04.71-.14 1.05-.36 1.11-1.24 1.6-2.33 1.55-1.45-.06-2.08-1.07-2.2-2.21-.03-.44-.01-.88.1-1.3.33-1.23 1.28-1.77 2.45-1.69 1.44.1 2.08 1.2 2.12 2.44v.16zM17.16 22.9V24c.02.17-.04.2-.2.2a2.08 2.08 0 00-.4 0c-.15 0-.27-.02-.32-.17-.05-.1-.11-.06-.18-.02-.6.3-1.22.36-1.86.2a1.9 1.9 0 01-1.43-1.36 3.68 3.68 0 010-2.28c.28-.88.9-1.34 1.8-1.46.44-.06.88-.04 1.3.1.65.21 1.02.68 1.19 1.33.02.08 0 .1-.07.11l-1.25.22c-.07.01-.12 0-.14-.1-.02-.1-.06-.18-.1-.27-.2-.4-.69-.49-1.02-.17-.14.14-.23.3-.28.49a2.95 2.95 0 00-.02 1.62c.22.8.94.9 1.53.7.06-.02.1-.05.1-.12v-.49c0-.08-.03-.1-.11-.1h-.02c-.14-.02-.32.06-.4-.04-.06-.1-.01-.27-.01-.4 0-.37 0-.37.36-.37h1.4c.12 0 .15.03.15.14-.02.38-.02.76-.02 1.15zM37.63 17.93h-1.36c-.1 0-.11-.05-.13-.12-.07-.23-.16-.45-.22-.68-.03-.1-.07-.12-.17-.12h-1.4c-.11 0-.15.04-.17.13l-.2.67c-.02.08-.05.12-.14.12h-1.12c-.14 0-.12-.05-.09-.15l1.02-3.14c.17-.51.34-1.03.47-1.56.04-.14.1-.18.25-.18.44.02.88 0 1.33 0 .1 0 .14.02.17.11l1.74 4.83.02.1zM35.51 24.2l.4-1.25c.4-1.2.83-2.4 1.15-3.64.03-.11.08-.13.19-.13h1.37c.11 0 .16.03.2.13l1.7 4.72c.05.15.02.17-.13.17h-1.1c-.15 0-.2-.04-.24-.17-.05-.21-.14-.42-.2-.64-.03-.08-.07-.11-.15-.11h-1.43c-.1 0-.13.03-.16.13l-.2.68c-.02.07-.03.11-.12.11h-1.28zM26.8 21.67v-2.32c0-.13.01-.19.16-.18H30c.13 0 .18.03.17.17-.01.2-.02.41 0 .62.01.18-.06.2-.2.2l-1.6-.01c-.15 0-.2.04-.19.2.02.2.02.4 0 .61 0 .15.03.2.2.2h1.25c.13 0 .2.01.18.16-.02.23 0 .45 0 .67 0 .11-.03.15-.14.15l-1.32-.01c-.12 0-.17.02-.17.15.02.26.02.52 0 .78 0 .12.05.14.16.14h1.77c.18 0 .25.02.22.22-.04.2-.04.43-.05.63 0 .1-.03.14-.14.14h-3.21c-.15 0-.14-.07-.14-.17v-2.35zM17.8 21.69c0-.78 0-1.55-.02-2.33 0-.14.03-.19.2-.19h3c.15 0 .2.04.2.18-.02.2-.02.42 0 .62 0 .15-.04.2-.2.2-.53-.02-1.08 0-1.62-.02-.13 0-.18.02-.17.17V21c0 .12.03.16.16.16h1.3c.12 0 .16.02.16.15-.02.24 0 .47 0 .7 0 .1-.03.13-.13.13l-1.34-.01c-.11 0-.16.03-.15.15v.77c0 .13.04.15.17.15h1.81c.14 0 .19.02.17.17-.03.22-.04.45-.04.68 0 .13-.05.14-.16.14h-3.18c-.14 0-.16-.05-.16-.17v-2.33zM28.9 15.42V13.1c0-.14.02-.2.17-.2.36.02.7.02 1.06 0 .14 0 .17.05.17.18v3.64c0 .27-.03.23.24.23h1.72c.11 0 .16.03.14.15l-.05.71c0 .1-.03.12-.13.12h-3.2c-.13 0-.12-.07-.12-.16v-2.35zM24.98 15.42v-2.34c0-.14.02-.18.16-.18.36.02.7.02 1.06 0 .14 0 .17.05.17.18v3.62c0 .24 0 .24.25.24h1.69c.14 0 .17.04.16.18-.03.22-.03.44-.05.67 0 .1-.02.14-.13.14H25.1c-.13 0-.13-.06-.13-.16v-2.35zM40.92 21.68v-2.34c0-.13.03-.16.16-.16h1.04c.18 0 .2.06.2.2v3.64c0 .17.04.2.2.2.57-.02 1.16 0 1.75 0 .12 0 .16.02.15.15l-.05.7c0 .1-.03.14-.13.13h-3.2c-.14 0-.11-.08-.11-.17l-.01-2.35z" fill="#231F20"/><path d="M16.35 15.43l-.01-1.36c0-.14.05-.18.19-.17.17.01.35 0 .53.03.5.07.76.33.86.82.08.41.08.83.02 1.24-.1.68-.41.94-1.13.97-.46.02-.46.02-.46-.44v-1.1zM32.2 20.91v-.62c0-.1.02-.14.13-.14.24.02.5 0 .74.04.23.06.38.2.44.42.05.22.04.43-.02.65-.08.24-.3.38-.62.39h-.53c-.11 0-.15-.03-.15-.14v-.6zM39.89 13.9c.12 0 .27 0 .43.04.24.05.38.2.43.43.04.16.04.33.01.5-.05.32-.23.5-.6.53-.2.02-.41 0-.62 0-.08 0-.1-.03-.1-.1V14c0-.08.02-.12.11-.12.1.02.2.01.34.01zM22.96 15.43c0 .37-.02.73-.16 1.07-.17.37-.46.52-.85.45-.3-.06-.46-.25-.55-.52a3.23 3.23 0 01-.13-1.32c.01-.26.05-.5.15-.74.13-.3.35-.47.68-.48a.7.7 0 01.69.45c.15.34.17.71.17 1.09z" fill="#FEF100"/><path d="M34.99 14.24l.55 1.73c.03.1.01.12-.09.12h-.82c-.13 0-.13-.05-.1-.15l.4-1.46c.03-.06.03-.14.06-.24zM37.96 20.6c.14.54.32 1.05.5 1.57.04.14.02.18-.13.17a6.53 6.53 0 00-.71 0c-.17.01-.21-.02-.16-.2.15-.48.28-.97.42-1.46l.01-.11c.05-.03.05.01.07.04z" fill="#FDF001"/><path d="M37.99 20.6l-.1-.03c0-.03 0-.1.03-.1.09.02.07.09.07.14z" fill="#9B955B"/></g></g></svg>