<?xml version="1.0" encoding="UTF-8"?><svg width="56" height="36" viewBox="0 0 56 36" xmlns="http://www.w3.org/2000/svg"><g fill="none" fill-rule="evenodd"><path d="M0 3.75A3.749 3.749 0 013.75 0h48.5A3.756 3.756 0 0156 3.75v28.5A3.749 3.749 0 0152.25 36H3.75A3.756 3.756 0 010 32.25V3.75z" fill="#000" fill-rule="nonzero"/><path d="M1.25 3.75v28.5c0 1.375 1.123 2.5 2.5 2.5h48.5c1.382 0 2.5-1.118 2.5-2.5V3.75c0-1.375-1.123-2.5-2.5-2.5H3.75a2.499 2.499 0 00-2.5 2.5z" fill="#FFF"/><g fill-rule="nonzero"><path d="M8.726 14.073h-.061c-1 0-1.877.39-2.605 1.17-.696.75-1.06 1.709-1.06 2.788v.06c0 1.051.364 1.981 1.06 2.73.726.779 1.574 1.168 2.605 1.168h4.087V11.105h-1.937v2.97h-2.09v-.002zM7.03 18.094v-.09c0-.66.213-1.23.635-1.709.455-.479.968-.69 1.574-.69h1.605v4.799H9.239c-.606 0-1.12-.24-1.574-.72-.422-.42-.635-.96-.635-1.59zm13.23-2.49c-.122-.122-.242-.272-.364-.39-.758-.751-1.664-1.14-2.724-1.17h-.213c-1.06.03-1.967.419-2.724 1.17-.122.12-.242.24-.332.39-.575.69-.848 1.53-.848 2.459 0 1.08.393 2.009 1.18 2.789.787.779 1.725 1.169 2.846 1.169 1.122 0 2.06-.39 2.815-1.17.273-.27.484-.54.667-.84.332-.6.515-1.23.515-1.948 0-.72-.18-1.38-.515-1.98a2.66 2.66 0 00-.303-.48zm-2.302.21c.394 0 .606.21.606.6v1.47c.181.09.242.27.242.54v1.29c0 .39-.212.6-.606.6h-2.208c-.394 0-.606-.21-.606-.6v-1.322c0-.3.122-.48.332-.569v-1.409c0-.39.212-.6.606-.6h1.634zm.152.75c0-.21-.09-.3-.303-.3h-1.363c-.213 0-.303.09-.303.3v1.29h1.967v-1.29h.002zm8.143-.96v-1.53h-2.18v-2.969h-1.937v2.97h-1.573v1.53h1.573v4.32c0 .089 0 .178.03.27.09.42.302.811.605 1.17.181.21.394.36.606.45.213.12.455.21.697.24v-.03l.122.03 2.027-.03v-1.74H24.86c-.212 0-.393-.09-.574-.271a1.113 1.113 0 01-.242-.511v-3.9h2.209z" fill="#A0121B"/><path d="M30.25 15.664c.574 0 1.09.24 1.514.69.394.45.606.99.636 1.62v.089c0 .66-.213 1.23-.636 1.709-.454.48-.967.719-1.573.719h-1.605v-4.798l1.664-.03zm3.088-.42c-.696-.75-1.544-1.14-2.512-1.168H26.62v10.917h1.938v-2.97h2.179c1 0 1.876-.39 2.604-1.17.728-.779 1.06-1.708 1.06-2.82v-.06a3.923 3.923 0 00-.73-2.31 2.25 2.25 0 00-.332-.418zm8.627 6.568v-5.219c0-1.62-.819-2.46-2.483-2.52H34.82v1.62h4.57c.607.06.878.54.849 1.38h-3.602c-1.422.21-2.118 1.05-2.089 2.549.122 1.47.819 2.22 2.09 2.22h5.328v-.03zm-1.786-3.239v1.77h-3.057a.925.925 0 01-.483-.15c-.062-.03-.123-.09-.181-.121a.809.809 0 01-.242-.48c0-.028-.03-.089-.03-.15 0-.24.09-.45.242-.629.061-.06.09-.09.181-.12a.899.899 0 01.484-.122h3.086v.002zm4.146-4.379H42.66v5.011c0 1.41.696 2.22 2.089 2.4h3.15c.028.84-.243 1.319-.849 1.379h-4.57v1.59h4.658c1.664-.06 2.483-.9 2.483-2.52v-7.86h-1.816v5.878h-2.602c-.18 0-.332-.03-.483-.15a.581.581 0 01-.181-.121c-.181-.18-.242-.39-.242-.63v-4.977h.027zm6.902-2.16c0-.089-.03-.15-.061-.239a.486.486 0 00-.181-.179c-.09-.06-.18-.06-.274-.06h-.696v1.469h.274v-.48h.273l.455.511h.332v-.029l-.516-.51c.09-.03.181-.061.242-.09.061-.06.09-.09.122-.15.03-.092.03-.153.03-.242zm-.545-.21c.061 0 .09 0 .122.03l.09.089c0 .03.03.09.03.121 0 .03 0 .09-.03.09l-.09.09s-.09.06-.122.06h-.423v-.48h.423z" fill="#1A171B"/><path d="M50.61 13.744a1.373 1.373 0 01-1.38-1.366c0-.755.618-1.367 1.38-1.367.761 0 1.379.612 1.379 1.367 0 .754-.618 1.366-1.38 1.366zm0-.157c.674 0 1.22-.541 1.22-1.21 0-.667-.546-1.209-1.22-1.209-.675 0-1.221.542-1.221 1.21 0 .668.546 1.21 1.22 1.21z" fill="#000"/></g></g></svg>