<?xml version="1.0" encoding="UTF-8"?><svg width="56" height="36" viewBox="0 0 56 36" xmlns="http://www.w3.org/2000/svg"><defs><radialGradient cx="67.619%" cy="18.676%" fx="67.619%" fy="18.676%" r="10.866%" gradientTransform="matrix(1 0 0 .96979 0 .006)" id="a"><stop stop-color="#DD1F26" offset="0%"/><stop stop-color="#9D1D20" offset="47.06%"/><stop stop-color="#8D191B" offset="100%"/></radialGradient></defs><g fill="none" fill-rule="evenodd"><path d="M0 3.75A3.749 3.749 0 013.75 0h48.5A3.756 3.756 0 0156 3.75v28.5A3.749 3.749 0 0152.25 36H3.75A3.756 3.756 0 010 32.25V3.75z" fill="#000" fill-rule="nonzero"/><path d="M1.25 3.75v28.5c0 1.375 1.123 2.5 2.5 2.5h48.5c1.382 0 2.5-1.118 2.5-2.5V3.75c0-1.375-1.123-2.5-2.5-2.5H3.75a2.499 2.499 0 00-2.5 2.5z" fill="#FFF"/><g fill-rule="nonzero"><path d="M11.881 19.477h-.79c-.107.355-.283.68-.524.974-.057.066-.115.13-.172.197a2.827 2.827 0 01-2.075.876c-.143 0-.287-.008-.43-.02v.767c.034.007.065.01.096.01.024.005.047.007.066.01.089.007.18.01.268.01 1.02 0 1.889-.37 2.6-1.113.484-.5.804-1.07.961-1.711zm.61 0c-.004.032-.011.064-.018.098a4.314 4.314 0 01-1.133 2.047c-.31.328-.654.597-1.028.807l-.239.108a4.178 4.178 0 01-1.732.356c-.153 0-.3-.008-.448-.02v1.092c.143.013.288.02.439.02.787 0 1.51-.148 2.17-.444.089-.047.186-.091.296-.138a5.668 5.668 0 001.286-1.004c.723-.747 1.197-1.605 1.42-2.57.03-.118.052-.236.066-.355h-1.078v.003z" fill="#89181A"/><path d="M5.407 18.512c0-.106.007-.21.019-.315h-.732a4.591 4.591 0 00.057 1.112 3.91 3.91 0 00.229.74l.01.02c.028.059.052.12.076.187.179.335.4.639.665.915.501.513 1.074.846 1.713 1.004.077.027.153.047.23.06v-.768c-.02-.007-.041-.012-.068-.02a2.79 2.79 0 01-1.352-.796 3.024 3.024 0 01-.544-.738 2.774 2.774 0 01-.067-.167 2.508 2.508 0 01-.095-.267l-.038-.118c-.003-.015-.005-.032-.01-.05a.568.568 0 00-.02-.059 3.737 3.737 0 01-.073-.74zm3.037-3.78h-.296c-.086.002-.172.01-.258.02v.756c.098-.01.196-.017.296-.02h.258c.76.03 1.41.326 1.951.886a3.011 3.011 0 01.837 2.136c0 .259-.028.503-.086.737h.752c.045-.236.067-.483.067-.737 0-.257-.022-.503-.067-.738a3.743 3.743 0 00-.99-1.938c-.554-.572-1.198-.923-1.932-1.053a4.589 4.589 0 00-.532-.05zm-.551-1.705c-.072.008-.141.015-.21.02a9.335 9.335 0 00-.391.06c-1.036.201-1.947.702-2.734 1.496-1.036 1.07-1.553 2.37-1.553 3.9v.256a5.363 5.363 0 001.553 3.64c.207.21.422.397.646.563a4.917 4.917 0 002.476.984v-1.103a.11.11 0 01-.038-.01c-.885-.133-1.66-.535-2.323-1.21a4.31 4.31 0 01-1.152-2.146c-.012-.055-.027-.109-.039-.168a.19.19 0 00-.01-.06 6.542 6.542 0 01-.047-.542V18.5c0-1.22.415-2.262 1.248-3.12.627-.629 1.357-1.026 2.19-1.191.057-.013.114-.022.171-.03.07-.012.139-.022.21-.03.146-.012.294-.02.449-.02h.105c1.004.023 1.875.358 2.61 1.005a4.325 4.325 0 011.2 1.645c.221.532.333 1.112.333 1.741 0 .257-.019.506-.057.747h1.076c.026-.244.038-.493.038-.747 0-.996-.222-1.897-.665-2.698a5.474 5.474 0 00-.895-1.201c-1.021-1.056-2.273-1.586-3.752-1.586-.15.002-.296.007-.44.012z" fill="#595A5C"/><path d="M4.883 3.228a2.205 2.205 0 00-1.143.629 2.277 2.277 0 00-.656 1.645v.109c.01.224.046.439.105.639l.086.227c.115.241.27.466.468.668a2.159 2.159 0 001.152.629c.14.027.286.04.439.04.33 0 .632-.062.904-.188a.862.862 0 00.134-.069 2.352 2.352 0 001.002-1.083 1.3 1.3 0 00.085-.227c.024-.061.043-.128.058-.197a2.621 2.621 0 00.057-.552c0-.644-.22-1.192-.656-1.646a2.115 2.115 0 00-1.582-.668 2.31 2.31 0 00-.439.04h-.014v.004z" fill="url(#a)" transform="translate(3 13)"/><g fill="#89181A"><path d="M30.524 17.861l.305-.619c-.4-.269-.818-.404-1.257-.404-.444 0-.806.108-1.085.325-.28.222-.42.523-.42.896 0 .517.403.89 1.21 1.112a.41.41 0 00.085.03c.508.165.761.345.761.542 0 .138-.05.25-.153.335-.107.087-.252.129-.439.129-.42 0-.854-.175-1.304-.523l-.392.649c.234.19.501.337.8.443.305.107.596.158.875.158.413 0 .751-.116 1.019-.345.267-.222.4-.525.4-.905 0-.375-.133-.654-.4-.836a1.782 1.782 0 00-.363-.207 3.402 3.402 0 00-.353-.139 7.053 7.053 0 00-.41-.118 1.73 1.73 0 01-.372-.128c-.127-.06-.191-.156-.191-.286 0-.146.064-.252.19-.326a.91.91 0 01.468-.108 1.76 1.76 0 011.026.325zm5.923-.964h-.866L34.43 19.82l-1.152-2.923h-.866c1.035 2.659 1.553 4.023 1.553 4.094 0 .158-.055.3-.162.434a.553.553 0 01-.449.207c-.179 0-.353-.081-.525-.246l-.372.678c.286.261.604.395.952.395.253 0 .487-.077.694-.227a1.52 1.52 0 00.477-.61l1.868-4.725zM23.203 17.93c.386-.269.758-.404 1.114-.404.57 0 .856.266.856.796v.148h-1.057c-.477 0-.854.1-1.133.296-.279.19-.42.484-.42.876 0 .395.134.705.401.935.26.236.59.355.99.355.54 0 .969-.197 1.286-.59v.533h.732v-2.57c0-.505-.143-.875-.43-1.112-.285-.237-.655-.355-1.113-.355-.59 0-1.121.19-1.591.572l.365.52zm1.96 1.468c0 .249-.097.449-.295.6-.191.15-.413.226-.666.226-.26 0-.462-.052-.608-.158a.502.502 0 01-.22-.444c0-.38.292-.572.876-.572h.914v.348zm-4.455-3.752h-3.552v5.227h3.637v-.827h-2.788v-1.398h2.428v-.787h-2.428v-1.388h2.705v-.827h-.002zm26.488 2.255H44.95v-1.438h2.514l.01-.817h-3.37v5.227h.846v-2.156h2.247v-.816zm1.868-1.448h1.543v4.42h.847v-4.42h1.544v-.807h-3.934v.807zm-9.93.02h2.702v-.827h-3.552v5.227h3.638v-.827h-2.789v-1.398h2.429v-.787h-2.429v-1.388z"/></g></g></g></svg>