<?xml version="1.0" encoding="UTF-8"?><svg width="56" height="36" viewBox="0 0 56 36" xmlns="http://www.w3.org/2000/svg"><g fill="none" fill-rule="evenodd"><path d="M0 3.75A3.749 3.749 0 013.75 0h48.5A3.756 3.756 0 0156 3.75v28.5A3.749 3.749 0 0152.25 36H3.75A3.756 3.756 0 010 32.25V3.75z" fill="#000" fill-rule="nonzero"/><path d="M1.25 3.75v28.5c0 1.375 1.123 2.5 2.5 2.5h48.5c1.382 0 2.5-1.118 2.5-2.5V3.75c0-1.375-1.123-2.5-2.5-2.5H3.75a2.499 2.499 0 00-2.5 2.5z" fill="#FFF"/><g fill-rule="nonzero"><path d="M39.961 31.97V4.04H17.035v27.93H39.96zm-.602-27.32v26.683h-21.67V4.65h21.67zm-2.59 14.491c.463.25.602.553.411.913-3.218 3.844-6.358 5.806-9.416 5.89h10.503V14.91h-15.09c-.217 3.485.9 5.864 3.413 7.136 3.27 1.436 6.683.466 10.179-2.905zm-18.097 3.87v2.933h5.484c-2.235-.167-4.063-1.163-5.484-2.932zm0-10.59c1.72-3.4 4.557-5.503 8.542-6.332h-8.542v6.333zM33.875 6.09c2.127.277 3.574 1.466 4.392 3.542V6.089h-4.392zm-.329 7.492c.762-4.372-.411-6.61-3.521-6.693-2.894-.14-5.077 2.076-6.58 6.693h10.101z" fill="#173B5E"/><path d="M38.077 27.493c-.139-.25-.299-.443-.52-.58-.217-.14-.463-.219-.736-.302a3.987 3.987 0 00-.819-.084h-1.117v3.871h1.23c.273 0 .52-.026.792-.083.247-.057.49-.167.71-.303.217-.14.382-.36.49-.61.139-.25.19-.58.19-.94-.03-.39-.086-.723-.22-.97zm-1.066-.14c.109.083.19.219.247.416.082.193.108.417.108.72 0 .36-.082.663-.19.887a.919.919 0 01-.438.416 1.58 1.58 0 01-.628.11h-.437v-2.765h.411c.165 0 .33 0 .49.057.164-.008.303.075.437.158zm-4.855-.527c-.273-.193-.654-.277-1.2-.277h-1.23v3.871h.792v-1.55h.49l.9 1.55h.902l-1.066-1.685c.273-.11.49-.25.628-.417a.981.981 0 00.217-.636 1.016 1.016 0 00-.433-.856zm-.602.417c.138.083.216.25.216.47 0 .219-.082.385-.216.495a.871.871 0 01-.546.167h-.49v-1.246h.412c.294-.027.49.004.624.114zm-7.97 3.177h.9l.3-.913h1.503l.298.913h.901l-1.39-3.87h-1.091l-1.421 3.87zm2.512-1.461h-1.148l.602-1.852.546 1.852zm-4.994-2.38c-.19-.082-.412-.109-.654-.109-.33 0-.654.084-.927.22a1.905 1.905 0 00-.628.693c-.165.303-.217.663-.217 1.106 0 .443.083.803.217 1.106.138.303.355.527.628.693.273.167.572.22.927.22.273 0 .52-.057.736-.14.217-.084.381-.194.52-.334l-.381-.443a1.636 1.636 0 01-.381.219 1.227 1.227 0 01-.464.083c-.19 0-.381-.026-.52-.14a.9.9 0 01-.355-.47 2.359 2.359 0 01-.138-.83c0-.333.056-.635.138-.855.082-.193.19-.36.355-.47a.931.931 0 01.49-.14c.138 0 .273.026.411.083.109.058.247.11.356.22l.38-.443a1.107 1.107 0 00-.493-.268z" fill="#1C3863"/></g></g></svg>