<?xml version="1.0" encoding="UTF-8"?><svg width="56" height="36" viewBox="0 0 56 36" xmlns="http://www.w3.org/2000/svg"><g fill="none" fill-rule="evenodd"><path d="M0 3.75A3.749 3.749 0 013.75 0h48.5A3.756 3.756 0 0156 3.75v28.5A3.749 3.749 0 0152.25 36H3.75A3.756 3.756 0 010 32.25V3.75z" fill="#000" fill-rule="nonzero"/><path d="M1.25 3.75v28.5c0 1.375 1.123 2.5 2.5 2.5h48.5c1.382 0 2.5-1.118 2.5-2.5V3.75c0-1.375-1.123-2.5-2.5-2.5H3.75a2.499 2.499 0 00-2.5 2.5z" fill="#FFF"/><path d="M49.747 24.902a2.202 2.202 0 00-2.98.118c-.799.808-.798 2.083.003 2.889.548.55 1.362.767 2.123.564a2.116 2.116 0 001.524-1.54 2.045 2.045 0 00-.67-2.03z" fill="#066697"/><path d="M47.468 27.212a1.097 1.097 0 01-.03-1.58 1.185 1.185 0 011.631-.04c.463.423.487 1.128.054 1.58a1.206 1.206 0 01-1.655.04M26.858 19.232v9.256h-1.92v-8.743zM42.466 27.463v-4.947H41.41v-1.394h1.057V19.75l1.824-.512v1.89h1.824v1.393H44.29v4.205c-.01.59.027 1.178.111 1.762h-1.454a.438.438 0 01-.319-.096.41.41 0 01-.151-.288v-.036l-.01-.605zM12.085 26.762c.59.33 1.254.517 1.935.543.846 0 1.216-.349 1.216-.83 0-.482-.312-.743-1.247-1.06-1.481-.482-2.115-1.27-2.115-2.146 0-1.301 1.105-2.295 2.87-2.295a4.502 4.502 0 012.026.435l-.386 1.301a3.462 3.462 0 00-1.587-.425c-.687 0-1.057.333-1.057.789s.36.676 1.327 1.024c1.385.472 2.015 1.153 2.025 2.239 0 1.347-1.057 2.31-3.088 2.31a5.016 5.016 0 01-2.305-.513l.386-1.372zM40.489 22.516c-.423 0-.698-.046-1.518-.046a2.45 2.45 0 00-1.701.753 2.298 2.298 0 00-.636 1.705 2.224 2.224 0 00.648 1.664 2.374 2.374 0 001.69.697 2.582 2.582 0 001.897-.937l.059-.062 1.057 1.025-.058.056-.053-.056.042.066a4.235 4.235 0 01-3.035 1.358c-2.516 0-3.833-1.926-3.833-3.831a3.768 3.768 0 011.274-2.976 3.953 3.953 0 012.56-.948 8.59 8.59 0 011.586.118l.02 1.414z" fill="#0DBCE5"/><path d="M22.824 28.488c-.492.113-.997.16-1.502.138-2.464 0-3.918-1.465-3.918-3.713 0-2.05 1.28-3.96 3.701-3.96 2.422 0 3.273 1.962 3.273 3.586a4.31 4.31 0 01-.063.783h-5.04c.043 1.332 1.122 1.906 2.338 1.906.72.012 1.436-.1 2.115-.333 0 0-.117 1.429-.904 1.593zm-.238-4.467c0-.68-.296-1.797-1.586-1.797-1.185 0-1.687 1.024-1.761 1.797h3.347zM32.833 28.488c-.492.113-.997.16-1.502.138-2.464 0-3.913-1.465-3.913-3.713 0-2.05 1.275-3.96 3.702-3.96 2.426 0 3.272 1.962 3.272 3.586.002.262-.018.524-.058.783h-5.076c.048 1.332 1.121 1.906 2.337 1.906a6.264 6.264 0 002.115-.333s-.09 1.429-.877 1.593zm-.238-4.467c0-.68-.296-1.797-1.586-1.797-1.185 0-1.687 1.024-1.761 1.797h3.347z" fill="#0DBCE5" fill-rule="nonzero"/><path d="M24.939 17.599v-3.396c0-1.055-.402-1.875-1.465-1.875-.672 0-1.272.41-1.496 1.024a1.59 1.59 0 00-.058.58v4.348a.067.067 0 01-.064.066h-1.808a.07.07 0 01-.049-.02.066.066 0 01-.02-.046V9.06c0-.225-.1-.824-.1-.824s.132-.026.169-.026h1.449c.18 0 .327.142.327.318l.096 1.183v2.274c.238-.353.565-.64.951-.835a2.792 2.792 0 011.327-.333c1.296 0 2.644.835 2.644 3.191v3.073l-1.903.518zM44.29 14.218h.032c.185-.287.407-.604.592-.86l1.856-2.372h2.31l-2.839 3.007 3.21 4.353h-2.353l-2.184-3.252-.624.743v1.25l-1.819.512V9.08a5.535 5.535 0 00-.1-.85h1.523c.178 0 .322.14.322.312l.074 1.168v4.507zM19.434 17.266a4.235 4.235 0 01-3.034 1.352c-2.517 0-3.834-1.926-3.834-3.826a3.768 3.768 0 011.28-2.976 3.942 3.942 0 012.554-.948 3.974 3.974 0 012.775 1.086l.053.046-.893 1.122-.064-.062a2.638 2.638 0 00-1.787-.732 2.45 2.45 0 00-1.698.756 2.298 2.298 0 00-.634 1.703 2.22 2.22 0 00.645 1.663c.44.446 1.05.698 1.687.698a2.58 2.58 0 001.898-.953l.058-.066 1.058 1.05-.058.056-.006.03zM41.922 17.266a4.235 4.235 0 01-3.035 1.352c-2.517 0-3.834-1.926-3.834-3.826a3.768 3.768 0 011.275-2.976c1.54-1.316 3.869-1.255 5.335.138l.052.046-.893 1.122-.064-.062a2.649 2.649 0 00-1.787-.732 2.45 2.45 0 00-1.701.754 2.298 2.298 0 00-.636 1.705 2.224 2.224 0 00.648 1.664 2.374 2.374 0 001.69.697 2.58 2.58 0 001.897-.953l.059-.066 1.083 1.09-.058.057-.031-.01z" fill="#066697"/><path d="M32.917 18.357a5.686 5.686 0 01-1.501.138c-2.464 0-3.918-1.465-3.918-3.719 0-2.048 1.28-3.959 3.7-3.959 2.422 0 3.279 1.967 3.279 3.585.005.258-.013.515-.053.769h-5.102c.047 1.331 1.126 1.905 2.342 1.905.72.01 1.436-.103 2.115-.333 0 0-.074 1.445-.862 1.614zm-.238-4.472c0-.681-.296-1.798-1.586-1.798-1.184 0-1.687 1.025-1.766 1.798h3.352zM10.44 18.244a6.072 6.072 0 01-2.114.348c-2.115 0-3.104-1.255-3.104-3.037 0-2.223 1.681-4.64 4.288-4.64 1.496 0 2.448.83 2.448 2.048 0 1.89-2.04 2.495-4.975 2.433-.009.351.06.7.2 1.024.324.533.93.842 1.566.8a4.61 4.61 0 002.115-.513s.148 1.214-.423 1.537zm-.19-5.26c0-.466-.39-.753-.967-.753-1.126 0-1.888.983-2.115 1.874 1.877 0 3.077-.23 3.077-1.106l.005-.015z" fill="#066697" fill-rule="nonzero"/></g></svg>