<svg width="56" height="36" xmlns="http://www.w3.org/2000/svg"><g fill="none" fill-rule="evenodd"><path d="M0 3.75A3.749 3.749 0 0 1 3.75 0h48.5A3.756 3.756 0 0 1 56 3.75v28.5A3.749 3.749 0 0 1 52.25 36H3.75A3.756 3.756 0 0 1 0 32.25V3.75z" fill="#000" fill-rule="nonzero"/><path d="M1.25 3.75v28.5c0 1.375 1.123 2.5 2.5 2.5h48.5c1.382 0 2.5-1.118 2.5-2.5V3.75c0-1.375-1.123-2.5-2.5-2.5H3.75a2.499 2.499 0 0 0-2.5 2.5z" fill="#FFF"/><g><path d="M19.83 20.42c-.08 1.22-.69 1.83-1.83 1.83h-1.84c-.5 0-.93-.18-1.29-.54-.36-.359-.54-.79-.54-1.29v-4.59c0-.492.177-.92.531-1.284a1.743 1.743 0 0 1 1.3-.546H18c1.152 0 1.762.61 1.83 1.83h-.92c-.07-.607-.374-.91-.91-.91h-.92a.889.889 0 0 0-.648.268.873.873 0 0 0-.271.642v4.59c0 .246.09.46.268.64.18.18.397.27.651.27H18c.539 0 .842-.303.91-.91h.92zm1.83 1.83V14h1.831v2.75c.038-.31.133-.54.286-.692.153-.152.365-.228.634-.228h.92c.5 0 .931.182 1.29.544.36.362.54.794.54 1.296v4.58h-1.83v-4.58a.882.882 0 0 0-.273-.65.887.887 0 0 0-.647-.27.885.885 0 0 0-.649.27.885.885 0 0 0-.27.65v4.58H21.66zm12.831-2.75h-3.67v.92c0 .246.09.46.27.64.178.18.395.27.65.27h.92c.607 0 .91-.303.91-.91h.92c-.143 1.22-.753 1.83-1.83 1.83h-1.84c-.5 0-.93-.18-1.29-.54-.36-.359-.54-.79-.54-1.29v-2.75c0-.508.18-.94.542-1.3.36-.36.79-.54 1.289-.54h1.839c.501 0 .932.182 1.291.544.36.362.54.794.54 1.296v1.83zm-3.67-.92h1.84v-.91a.882.882 0 0 0-.273-.65.887.887 0 0 0-.647-.27.885.885 0 0 0-.648.27.885.885 0 0 0-.271.65v.91zm10.081-.91h-.91c-.072-.613-.379-.92-.92-.92a.885.885 0 0 0-.649.27.885.885 0 0 0-.27.65v2.75c0 .246.089.46.268.64.179.18.396.27.65.27.542 0 .849-.303.92-.91h.911c-.074 1.22-.684 1.83-1.83 1.83h-.92c-.501 0-.931-.18-1.29-.54-.36-.359-.54-.79-.54-1.29v-2.75c0-.508.18-.94.541-1.3.361-.36.79-.54 1.29-.54h.919c1.151 0 1.762.613 1.83 1.84zm1.84 4.58V14h1.83v4.125l2.75-2.295h1.839l-3.841 3.215 3.84 3.205h-1.838l-2.75-2.295v2.295h-1.83z" fill="#000" fill-rule="nonzero"/><path d="M12.5 19.5H8.83v.92c0 .246.09.46.269.64.18.18.396.27.651.27h.92c.607 0 .91-.303.91-.91h.92c-.143 1.22-.753 1.83-1.83 1.83H8.83c-.5 0-.931-.18-1.29-.54-.36-.359-.54-.79-.54-1.29v-2.75c0-.508.18-.94.541-1.3.361-.36.791-.54 1.29-.54h1.839c.5 0 .931.182 1.29.544.36.362.54.794.54 1.296v1.83zm-3.67-.92h1.84v-.91a.882.882 0 0 0-.273-.65.887.887 0 0 0-.647-.27.885.885 0 0 0-.649.27.885.885 0 0 0-.27.65v.91z" fill="#0274DE"/></g></g></svg>