<?xml version="1.0" encoding="UTF-8"?><svg width="56" height="36" viewBox="0 0 56 36" xmlns="http://www.w3.org/2000/svg"><defs><radialGradient cx="37.763%" cy="32.906%" fx="37.763%" fy="32.906%" r="69.218%" gradientTransform="matrix(.50737 0 0 1 .186 0)" id="a"><stop stop-color="#81C241" offset="0%"/><stop stop-color="#8BC53F" offset="100%"/></radialGradient><radialGradient cx="50.005%" cy="50.006%" fx="50.005%" fy="50.006%" r="58.129%" gradientTransform="matrix(1 0 0 .75678 0 .122)" id="b"><stop stop-color="#81C241" offset="0%"/><stop stop-color="#8BC53F" offset="100%"/></radialGradient><radialGradient cx="50.004%" cy="49.993%" fx="50.004%" fy="49.993%" r="50.189%" gradientTransform="matrix(1 0 0 .98019 0 .01)" id="c"><stop stop-color="#81C241" offset="0%"/><stop stop-color="#8BC53F" offset="100%"/></radialGradient><radialGradient cx="49.992%" cy="49.989%" fx="49.992%" fy="49.989%" r="62.308%" gradientTransform="matrix(1 0 0 .68055 0 .16)" id="d"><stop stop-color="#81C241" offset="0%"/><stop stop-color="#8BC53F" offset="100%"/></radialGradient><radialGradient cx="49.989%" cy="50.002%" fx="49.989%" fy="50.002%" r="51.963%" gradientTransform="matrix(1 0 0 .91696 0 .042)" id="e"><stop stop-color="#81C241" offset="0%"/><stop stop-color="#8BC53F" offset="100%"/></radialGradient></defs><g fill="none" fill-rule="evenodd"><path d="M0 3.75A3.749 3.749 0 013.75 0h48.5A3.756 3.756 0 0156 3.75v28.5A3.749 3.749 0 0152.25 36H3.75A3.756 3.756 0 010 32.25V3.75z" fill="#000" fill-rule="nonzero"/><path d="M1.25 3.75v28.5c0 1.375 1.123 2.5 2.5 2.5h48.5c1.382 0 2.5-1.118 2.5-2.5V3.75c0-1.375-1.123-2.5-2.5-2.5H3.75a2.499 2.499 0 00-2.5 2.5z" fill="#FFF"/><g fill-rule="nonzero"><path d="M1.142 5.524C1.179 2.743 4.945.538 9.553.6c2.514.033 4.754.734 6.27 1.816C14.322 1.062 11.753.15 8.824.11 4.151.047.332 2.232.296 4.99.283 6.104.888 7.142 1.922 7.986c-.509-.777-.788-1.62-.78-2.462z" fill="url(#a)" transform="translate(4 12)"/><path d="M13.2 17.776c0 .316-.078.534-.238.656-.158.12-.406.183-.74.183H8.586c0 .363.179.642.541.836.29.153.649.23 1.07.23.326 0 .72-.1 1.179-.303.461-.201.755-.303.884-.303a.81.81 0 01.593.242.795.795 0 01.246.583c0 .518-.413.923-1.239 1.212a5.796 5.796 0 01-1.922.328c-1.049 0-1.897-.328-2.545-.982-.65-.655-.974-1.48-.974-2.475 0-.948.338-1.757 1.013-2.431.674-.677 1.51-1.014 2.506-1.014.93 0 1.705.32 2.328.958.623.64.935 1.399.935 2.28zm-2.024-.473c-.009-.288-.15-.55-.422-.786-.276-.237-.565-.354-.874-.354-.317 0-.611.117-.884.354-.274.237-.41.498-.41.786h2.59zM19.159 20.117c0 .43-.298.77-.89 1.021a3.778 3.778 0 01-1.496.302c-1.015 0-1.84-.343-2.475-1.03-.61-.657-.915-1.464-.915-2.427 0-.963.31-1.777.935-2.445.622-.666 1.44-1 2.456-1 .584 0 1.087.081 1.508.242.585.218.877.558.877 1.02a.912.912 0 01-.232.618.754.754 0 01-.591.267c-.163 0-.397-.051-.707-.153-.308-.1-.553-.15-.732-.15-.48 0-.853.16-1.119.48-.248.29-.372.663-.372 1.121 0 .433.112.8.334 1.096.249.346.594.518 1.041.518.198 0 .466-.054.808-.164.343-.108.592-.163.747-.163a.76.76 0 01.578.267.844.844 0 01.245.58z" fill="#1C437D"/><path d="M25.761 17.983c0 .963-.307 1.77-.917 2.427-.637.687-1.461 1.03-2.477 1.03-1.014 0-1.839-.343-2.474-1.03-.61-.657-.914-1.464-.914-2.427 0-.963.305-1.771.914-2.426.644-.68 1.47-1.019 2.474-1.019 1.015 0 1.84.338 2.477 1.019.61.655.917 1.463.917 2.426zm-2.025 0c0-.433-.111-.8-.332-1.096-.247-.338-.592-.505-1.036-.505-.442 0-.787.168-1.033.505-.223.296-.333.663-.333 1.096 0 .432.11.802.333 1.107.246.34.59.507 1.033.507.444 0 .789-.167 1.036-.507.22-.304.332-.675.332-1.107z" fill="#1C437D"/><path d="M22.417 8.374V1.555c0-.275.088-.5.265-.674.175-.174.423-.26.742-.26l2.282-.012c.945.008 1.732.278 2.36.812.627.534.941 1.233.941 2.1 0 .88-.315 1.58-.947 2.1-.633.515-1.392.774-2.277.774H24.35v1.982c0 .307-.093.54-.276.7a1.008 1.008 0 01-.69.241c-.276 0-.506-.08-.69-.241-.185-.162-.278-.393-.278-.692v-.011zm1.935-3.593h1.315c.405.01.727-.109.967-.357.24-.247.361-.551.361-.916 0-.363-.12-.67-.36-.917-.24-.246-.563-.37-.968-.37l-1.315-.01v2.57z" fill="url(#b)" transform="translate(4 12)"/><path d="M35.557 3.849V8.372c0 .063-.003.132-.013.207a1.07 1.07 0 01-.212.51c-.116.153-.338.23-.664.23-.266 0-.464-.063-.592-.194-.131-.127-.228-.307-.298-.534-.24.267-.508.468-.8.601a2.276 2.276 0 01-.966.202c-.869 0-1.598-.315-2.185-.944-.59-.627-.884-1.432-.884-2.412 0-.963.298-1.771.895-2.418.598-.648 1.322-.974 2.174-.974.342 0 .674.067.985.198.313.131.575.337.78.616a.78.78 0 01.298-.53c.17-.14.37-.21.592-.21.327 0 .548.08.664.237.116.157.188.33.213.517.01.073.012.141.012.206v.183-.014zm-4.758 2.182v.116c0 .037.004.074.013.114.035.38.17.734.407 1.055.236.324.587.487 1.05.487.447 0 .786-.163 1.019-.487.233-.321.364-.675.4-1.055a.564.564 0 00.013-.114v-.103c0-.042-.003-.084-.007-.129a1.485 1.485 0 01-.007-.14 2.133 2.133 0 00-.413-1.042c-.232-.315-.566-.473-1.005-.473-.456 0-.8.158-1.038.473a2.091 2.091 0 00-.419 1.043c0 .048-.003.096-.007.14-.003.044-.007.086-.007.128V6.03z" fill="url(#c)" transform="translate(4 12)"/><path d="M35.828 3.911a.828.828 0 01-.059-.194 1.457 1.457 0 01-.018-.242c0-.181.065-.336.2-.464a1.06 1.06 0 01.458-.267l.102-.019c.035-.002.07-.005.104-.005a.98.98 0 01.574.164c.159.11.276.261.355.455l1.275 3.277 1.369-3.29a.96.96 0 01.354-.442.98.98 0 01.573-.164c.035 0 .068.002.103.005l.103.019c.172.048.328.137.465.267a.614.614 0 01.207.464c0 .087-.007.169-.02.242a.726.726 0 01-.07.207l-3.108 7.277a1.436 1.436 0 01-.33.486.755.755 0 01-.548.206c-.318 0-.558-.079-.721-.237-.163-.158-.244-.33-.244-.516a.66.66 0 01.005-.084.876.876 0 00.007-.085.806.806 0 01.045-.17c.02-.057.04-.114.058-.17l.812-1.892-2.051-4.828z" fill="url(#d)" transform="translate(4 12)"/><path d="M41.953 8.179l2.913-3.858h-2.153a.851.851 0 01-.593-.188c-.163-.133-.245-.322-.245-.564 0-.243.082-.431.245-.563a.903.903 0 01.593-.202l4.215-.012c.035.008.076.016.124.024.047.009.096.02.148.035a.6.6 0 01.232.165c.069.076.103.189.103.334a.734.734 0 01-.02.188 1.122 1.122 0 01-.044.153l-.058.084c-.022.032-.044.065-.07.098l-2.927 3.844h2.45c.233.01.43.08.592.214.164.133.246.32.246.563 0 .244-.082.43-.246.558a.91.91 0 01-.592.195h-4.318c-.208 0-.386-.047-.537-.14-.15-.092-.226-.24-.226-.442a.64.64 0 01.033-.207 1.15 1.15 0 01.07-.169.168.168 0 00.04-.05c.007-.014.016-.031.026-.047V8.18z" fill="url(#e)" transform="translate(4 12)"/></g></g></svg>