<?xml version="1.0" encoding="UTF-8"?><svg width="56" height="36" viewBox="0 0 56 36" xmlns="http://www.w3.org/2000/svg"><g fill="none" fill-rule="evenodd"><path d="M0 3.75A3.749 3.749 0 013.75 0h48.5A3.756 3.756 0 0156 3.75v28.5A3.749 3.749 0 0152.25 36H3.75A3.756 3.756 0 010 32.25V3.75z" fill="#000" fill-rule="nonzero"/><path d="M1.25 3.75v28.5c0 1.375 1.123 2.5 2.5 2.5h48.5c1.382 0 2.5-1.118 2.5-2.5V3.75c0-1.375-1.123-2.5-2.5-2.5H3.75a2.499 2.499 0 00-2.5 2.5z" fill="#FFF"/><g><path fill="#F5E840" d="M14 4h27.999v27.999H14z"/><path d="M31.824 24.78l.01 2.294c.019.22.047.343.09.434.31.677 1.383.615 2.007.21l-.276-.577c-.205.076-.448.248-.739.157-.258-.076-.238-.381-.238-.682v-1.854l1.73.004 1.393 3.176c.028.138-.282.687-.348.777-.482.677-.93.391-1.317.305l-.19.687c.734.281 1.502.177 1.931-.291.382-.415.601-.996.84-1.645l1.334-3.69h-.887l-.939 2.837c-.095-.105-.82-1.922-.954-2.232-.18-.42-.443-.6-1.001-.605-.524-.005-1.054 0-1.592 0v-1.14c-.187.043-.716.2-.854.272v.853l-.687.01.005.682.682.019zm-1.74-18.643c4.382 0 7.262 3.523 6.432 7.877-.83 4.353-5.06 7.877-9.441 7.877-4.387 0-7.267-3.524-6.437-7.877.834-4.354 5.059-7.877 9.446-7.877zm2.093 1.02c2.713.949 4.287 3.662 3.676 6.857-.71 3.724-4.134 6.79-7.853 7.18-.296-.009-.3-.176-.31-.424.014-.514.034-1.034.048-1.55.004-.076-.024-.1-.058-.109a5.817 5.817 0 01-1.13-.238 7.002 7.002 0 01-1.21-.649c-.187-.09-.163-.52-.158-.686.033-.305.257-1.016.62-1.05.434-.023.639.206 1.068.416.753.357 1.807.567 2.589.2.377-.23.467-.539.29-.93-.304-.639-1.768-1.164-2.431-1.483-1.588-.677-2.475-2.05-2.193-3.686.21-1.206 1.34-2.122 2.522-2.288V8.14c-1.459.424-2.57 1.263-3.567 2.24-1.444 1.412-2.293 3.195-2.365 5.475.115 2.79 1.564 4.024 3.08 4.95-2.603-1.007-4.09-3.668-3.495-6.79.73-3.825 4.316-6.953 8.154-7.206.153.09.162.105.243.31-.033.482-.062.963-.095 1.445.758.153 1.473.367 2.05.858.02 1.106-.81 1.569-1.125 1.402.014-.052-1.25-.4-1.512-.462a1.6 1.6 0 00-.949.11c-.371.176-.548.438-.371.848.152.305.405.505.681.677.797.429 1.593.863 2.39 1.292.686.386 1.177.887 1.492 1.493.229.6.28 1.21.148 1.83-.158.506-.349.945-.64 1.221-.242.277-.51.492-.796.644-.405.215-.81.405-1.23.472-.014.258-.024.51-.038.768.033.019.067.01.105 0 .901-.29 1.693-.801 2.465-1.359 1.001-.882 1.936-1.807 2.427-3.004a7.317 7.317 0 00.715-2.275c.272-2.432-.615-4.72-3.237-5.922zm-10.08 16.927l.01-.848c-.01-.3.262-.768.634-.94.343-.157.996-.167 1.32.043l-.157.673c-.968-.215-.963-.034-.963 1.073h1.054l-.272.672-.782.005v3.166c-.158.019-.706.028-.844-.01v-3.152l-.424-.01-.263-.667.687-.005zm5.693 2.027c.053 2.265 2.513 2.14 3.176 1.54-.024-.096-.19-.52-.248-.577-.453.186-.896.396-1.445.124-.853-.42-.791-2.007.072-2.403.334-.153.796-.138 1.144.01.124.057.215.118.315.161v-.734c-.505-.2-.872-.334-1.512-.19-.963.223-1.52 1.106-1.502 2.069zm-8.974-.506c.062-.514.258-.939.806-.949.53-.01.782.43.806.959l-1.612-.01zm2.365 2.046l-.238-.563c-.224.062-.362.172-.653.224-.759.13-1.445-.224-1.46-1.087h2.466c0-.863-.153-1.855-1.116-2.155-.443-.143-.987-.09-1.354.129-1.335.8-1.269 3.847 1.073 3.819.448-.005 1.02-.128 1.282-.367zm3.691-2.036c.043-.52.281-.954.815-.959.515 0 .778.449.782.959h-1.597zm-.858.553c.09 1.426 1.197 2.098 2.555 1.778.3-.071.444-.185.668-.262l-.238-.6c-.344.104-.787.4-1.407.185-.41-.147-.696-.505-.71-1.04l2.47-.004c0-1.125-.339-2.226-1.636-2.236-1.268-.014-1.769 1.054-1.702 2.179z" fill="#000103"/></g></g></svg>