<?xml version="1.0" encoding="UTF-8"?><svg width="56" height="36" viewBox="0 0 56 36" xmlns="http://www.w3.org/2000/svg"><g fill="none" fill-rule="evenodd"><path d="M0 3.75A3.749 3.749 0 013.75 0h48.5A3.756 3.756 0 0156 3.75v28.5A3.749 3.749 0 0152.25 36H3.75A3.756 3.756 0 010 32.25V3.75z" fill="#000" fill-rule="nonzero"/><path d="M1.25 3.75v28.5c0 1.375 1.123 2.5 2.5 2.5h48.5c1.382 0 2.5-1.118 2.5-2.5V3.75c0-1.375-1.123-2.5-2.5-2.5H3.75a2.499 2.499 0 00-2.5 2.5z" fill="#FFF"/><g fill-rule="nonzero"><path d="M17.494 18.059c0-1.219-.7-2.17-2.128-2.857a7.681 7.681 0 00-2.916-.743h-.03c.263-.475.496-.98.758-1.457-.728.328-1.37.863-1.952 1.576-.03 0-.059 0-.088.03h.088c-.67.862-1.224 1.992-1.69 3.392-1.837.297-3.209.891-4.141 1.783a86.622 86.622 0 013.732-.535 36.14 36.14 0 00-.757 3.868h-.088c-.262-.03-.932-.298-1.982-.892-1.078-.565-1.602-1.457-1.573-2.649.029-1.219.728-2.321 2.156-3.302 1.224-.833 2.655-1.398 4.287-1.665a9.105 9.105 0 00-1.312-.09c-1.836.268-3.412.833-4.723 1.755-1.428.98-2.128 2.08-2.128 3.272 0 1.192.7 2.141 2.128 2.827.961.476 2.04.744 3.266.803-.029.268-.087.535-.116.803.582-1.635 1.253-3.243 1.952-4.878a90.275 90.275 0 015.569-.536c-.146 1.041-.845 1.992-2.098 2.857-.816.565-1.836 1.01-3.092 1.308 1.836-.03 3.441-.505 4.753-1.427 1.253-.862 1.952-1.813 2.098-2.857.729-.03 1.457-.089 2.188-.118-.762-.09-1.462-.179-2.161-.268zm-5.22-3.24c.496.118.992.297 1.458.535 1.311.624 2.01 1.486 2.127 2.559-1.894-.179-3.558-.179-5.015-.06.44-1.043.906-2.024 1.43-3.035z" fill="#EF9C00"/><path d="M25.221 16.513c-.32-.208-.816-.297-1.457-.297-.787 0-1.428.238-1.981.684a3.056 3.056 0 00-1.02 1.754c-.088.505-.059.951.087 1.337.146.387.379.654.67.833.32.178.758.267 1.312.267.7 0 1.224-.089 1.632-.297.408-.208.787-.594 1.136-1.16h-1.69c-.117.15-.233.239-.35.268a1.17 1.17 0 01-.524.149c-.263 0-.467-.09-.583-.297-.088-.149-.117-.357-.088-.625h3.413l.029-.208c.116-.624.116-1.1 0-1.486a1.262 1.262 0 00-.586-.922zm-2.304 1.1a.87.87 0 01.7-.327c.232 0 .407.09.524.238.116.149.145.386.087.743h-1.661c.117-.297.233-.505.35-.654zm6.503-.922l.38-1.813h-2.218l-1.224 6.067h2.334l.466-2.827 1.166 2.827h2.509l-1.603-3.243 2.538-2.737h-2.45L29.42 16.69zm4.957.209c-.554.445-.903 1.04-1.049 1.754-.146.773 0 1.367.466 1.843.38.386.933.565 1.632.565.787 0 1.457-.238 1.982-.684a2.965 2.965 0 001.05-1.724c.116-.625.028-1.16-.263-1.606-.35-.535-.962-.803-1.836-.803-.787-.03-1.457.209-1.982.655zm.729 2.678c-.117-.208-.146-.506-.088-.922.088-.416.233-.713.437-.922a.922.922 0 01.67-.297c.234 0 .409.09.525.297.117.179.146.476.088.892-.088.417-.233.744-.408.922a1.015 1.015 0 01-.67.268.554.554 0 01-.554-.238zm8.835-2.916c-.204-.298-.554-.417-1.02-.417-.35 0-.67.06-.933.179-.262.119-.524.357-.816.684l.146-.773h-1.603l-.932 4.64h1.69l.437-2.232c.087-.416.204-.714.379-.862.175-.179.35-.268.554-.268.204 0 .32.06.408.178.058.12.087.327.029.625l-.525 2.53h1.72L44.057 18c.146-.595.088-1.041-.116-1.338zm3.616-.327l.35-1.754-1.895.921-.174.833h-.612l-.263 1.308h.641l-.32 1.635c-.088.505-.117.892-.058 1.13.029.237.145.416.32.535.175.119.466.178.904.178.378 0 .786-.06 1.224-.148l.116-1.22c-.233.09-.408.12-.554.12-.145 0-.233-.06-.262-.15-.029-.059-.029-.207.03-.415l.32-1.635h.962l.262-1.309h-.991v-.03zm6.385 2.291c.116-.624.058-1.16-.233-1.605-.35-.535-.962-.803-1.866-.803-.786 0-1.428.238-1.981.684-.554.446-.904 1.04-1.05 1.754-.145.773 0 1.368.467 1.843.379.387.932.565 1.632.565.787 0 1.457-.238 1.982-.684.553-.446.903-1.04 1.049-1.754zm-2.128.952a1.015 1.015 0 01-.67.267.672.672 0 01-.554-.267c-.116-.208-.145-.506-.087-.922.087-.416.233-.713.437-.922a.922.922 0 01.67-.297c.233 0 .408.09.525.297.116.179.146.476.087.892-.058.446-.204.744-.408.952z" fill="#031745"/></g></g></svg>