<?xml version="1.0" encoding="UTF-8"?><svg width="56" height="36" viewBox="0 0 56 36" xmlns="http://www.w3.org/2000/svg"><g fill="none" fill-rule="evenodd"><path d="M0 3.75A3.749 3.749 0 013.75 0h48.5A3.756 3.756 0 0156 3.75v28.5A3.749 3.749 0 0152.25 36H3.75A3.756 3.756 0 010 32.25V3.75z" fill="#000" fill-rule="nonzero"/><path d="M1.25 3.75v28.5c0 1.375 1.123 2.5 2.5 2.5h48.5c1.382 0 2.5-1.118 2.5-2.5V3.75c0-1.375-1.123-2.5-2.5-2.5H3.75a2.499 2.499 0 00-2.5 2.5z" fill="#FFF"/><g fill-rule="nonzero"><path d="M11.385 16.204l3.106-.151s.09 1.359 1.269 1.596c1.201.237 1.972-.086 2.063-.755.09-.69-.318-1.057-2.063-1.51-1.745-.453-4.08-.949-3.921-3.278.158-2.33 2.992-3.02 5.281-2.718 2.29.302 3.241 1.273 3.49 3.02l-3.105.086s0-1.359-1.496-1.272c-1.496.086-1.337 1.143-.793 1.358.567.238 2.063.54 3.173.82 1.111.302 2.63 1.143 2.63 2.869 0 1.725-1.338 3.472-4.738 3.472-3.4 0-4.624-1.466-4.896-3.537z" fill="#333287"/><path d="M16.1 9.324c.34 0 .703.021 1.043.064 2.289.302 3.241 1.273 3.49 3.02l-3.105.086s0-1.272-1.383-1.272h-.113c-1.496.086-1.337 1.143-.793 1.358.566.238 2.062.54 3.173.82 1.11.302 2.63 1.143 2.63 2.869 0 1.725-1.338 3.472-4.738 3.472-3.468-.043-4.647-1.466-4.919-3.537l3.106-.151s.09 1.359 1.269 1.596c.272.043.499.086.725.086.771 0 1.27-.302 1.338-.82.09-.69-.318-1.056-2.063-1.51-1.745-.452-4.08-.97-3.921-3.3.113-2.005 2.198-2.781 4.261-2.781zm0-.28c-1.156 0-2.221.236-2.992.69-.975.517-1.519 1.337-1.564 2.329-.181 2.459 2.176 3.084 3.876 3.515l.25.065c1.813.475 1.903.798 1.858 1.23-.045.496-.68.582-1.043.582a4.02 4.02 0 01-.68-.065c-.952-.194-1.042-1.294-1.042-1.337-.023-.151-.136-.259-.272-.259h-.023l-3.105.151a.294.294 0 00-.204.086c-.046.044-.068.13-.046.194.318 2.567 1.95 3.753 5.146 3.753 1.632 0 2.946-.41 3.83-1.143a3.34 3.34 0 001.202-2.588c0-2.178-2.154-2.955-2.811-3.127-.43-.13-.907-.238-1.383-.345-.725-.173-1.428-.346-1.745-.475a.386.386 0 01-.227-.41c.046-.259.386-.41.907-.431h.09c1.066 0 1.111.927 1.111 1.014 0 .064.023.15.091.194a.346.346 0 00.204.086h.023l3.06-.086c.09 0 .158-.043.204-.087.045-.043.068-.129.068-.215-.272-1.941-1.428-2.934-3.718-3.236-.362-.043-.702-.086-1.065-.086z" fill="#FFF"/><path d="M27.252 9.604h-5.553v9.878h3.241v-3.688h2.153c1.587 0 3.491-.69 3.491-3.235s-1.836-2.955-3.332-2.955zm-1.088 4.227h-1.201v-2.264h1.201c.793 0 1.337.453 1.337 1.143s-.634 1.121-1.337 1.121z" fill="#333287"/><path d="M27.252 9.604c1.496 0 3.332.367 3.332 2.955 0 2.566-1.904 3.235-3.49 3.235H24.94v3.688h-3.219V9.604h5.531zm-2.29 4.227h1.202c.725 0 1.337-.453 1.337-1.143s-.566-1.143-1.337-1.143h-1.201v2.286zm2.29-4.486h-5.53a.269.269 0 00-.273.259v9.878c0 .151.136.26.272.26h3.242c.158 0 .272-.13.272-.26v-3.43h1.858c.703 0 1.7-.128 2.516-.71.839-.605 1.27-1.554 1.27-2.805 0-1.23-.408-2.135-1.224-2.653-.59-.345-1.383-.539-2.403-.539zm-2.017 2.48h.906c.635 0 1.066.324 1.066.863 0 .561-.544.863-1.066.863h-.906v-1.726z" fill="#FFF"/><path fill="#F18B1A" d="M31.377 9.604h8.704v2.33H34.71v1.595h4.987v1.963h-4.987v1.812h5.554v2.178h-8.886z"/><path d="M40.081 9.604v2.33h-5.394v1.595h4.986v1.963h-4.986v1.79h5.553v2.179h-8.885V9.604h8.726zm0-.259h-8.704a.269.269 0 00-.272.259v9.878c0 .151.136.26.272.26h8.886c.158 0 .272-.13.272-.26v-2.178c0-.151-.136-.259-.272-.259h-5.259v-1.272h4.715c.158 0 .272-.13.272-.26V13.53c0-.15-.136-.258-.272-.258h-4.715v-1.057h5.1c.159 0 .272-.13.272-.26v-2.35c0-.151-.136-.259-.295-.259z" fill="#FFF"/><g><path fill="#F18B1A" d="M41.419 9.604v3.86h1.201v-1.25l2.063 2.049v-4.66z"/><path d="M44.683 9.604v4.637l-2.063-2.027v1.23h-1.201v-3.84h3.264zm0-.259H41.44a.269.269 0 00-.272.259v3.86c0 .152.136.26.272.26h1.202c.158 0 .272-.13.272-.26v-.582l1.586 1.553a.346.346 0 00.204.087c.046 0 .068 0 .091-.022a.26.26 0 00.181-.259V9.604a.29.29 0 00-.294-.259z" fill="#FFF"/></g><g><path fill="#333287" d="M41.419 19.482v-3.99h1.201v1.23l2.063-2.028v4.788z"/><path d="M44.683 14.694v4.788H41.44v-3.99h1.202v1.23l2.04-2.028zm0-.259c-.068 0-.159.022-.204.087l-1.587 1.553v-.583c0-.15-.136-.259-.272-.259h-1.201a.269.269 0 00-.272.26v3.99c0 .15.136.258.272.258h3.241c.159 0 .272-.13.272-.259v-4.788c0-.108-.068-.194-.181-.259h-.068z" fill="#FFF"/></g><path d="M3.915 26v-1.946h-.739v-.521h2.128v.521h-.738V26h-.651zm3.149-.975c.14.032.25.123.333.275l.392.7h-.707l-.427-.788c-.053-.09-.139-.136-.255-.136h-.196V26H5.57v-2.467h1.176c.299 0 .523.064.674.194.15.13.226.316.226.561a.74.74 0 01-.154.475.756.756 0 01-.434.26l.006.002zm-.42-.432c.143 0 .245-.022.307-.066.062-.045.093-.117.093-.218 0-.102-.031-.176-.093-.222-.062-.045-.164-.068-.306-.068h-.448v.574h.448zM9.887 26l-.22-.511H8.572l-.22.511h-.648l1.152-2.467h.51L10.524 26h-.637zm-1.106-.994h.679l-.34-.791-.34.791zm3.49-1.473h.601V26h-.476l-1.127-1.41V26h-.598v-2.467h.469l1.13 1.41v-1.41zm1.942 2.498c-.185 0-.367-.024-.546-.073a1.336 1.336 0 01-.438-.196l.2-.455a1.517 1.517 0 00.79.231c.14 0 .247-.02.321-.058.074-.038.11-.092.11-.163 0-.063-.033-.114-.1-.154a1.408 1.408 0 00-.38-.119 2.208 2.208 0 01-.542-.175.648.648 0 01-.275-.237.663.663 0 01-.078-.336c0-.152.042-.288.128-.408a.853.853 0 01.36-.284c.155-.069.333-.103.534-.103.177 0 .35.025.516.075.167.05.297.115.39.195l-.196.455a1.228 1.228 0 00-.707-.231.533.533 0 00-.287.068c-.072.045-.108.105-.108.18 0 .044.013.08.038.109a.388.388 0 00.144.082c.07.027.174.054.311.082.224.049.4.108.529.177.128.069.22.148.273.24.053.09.08.199.08.325a.665.665 0 01-.28.569c-.186.136-.449.205-.787.205zM15.643 26v-2.467h1.719v.503h-1.085v.455h1.015v.504h-1.015V26h-.634zm2.023 0v-2.467h1.754v.496h-1.127v.47h1.057v.493h-1.057v.511h1.127V26h-1.754zm3.583-.975c.14.032.251.123.334.275l.392.7h-.707l-.427-.788c-.054-.09-.14-.136-.256-.136h-.196V26h-.633v-2.467h1.176c.298 0 .523.064.673.194.151.13.226.316.226.561a.74.74 0 01-.154.475.756.756 0 01-.434.26l.006.002zm-.419-.432c.143 0 .245-.022.306-.066.062-.045.093-.117.093-.218 0-.102-.03-.176-.093-.222-.061-.045-.163-.068-.306-.068h-.448v.574h.448zM22.23 26v-2.467h1.754v.496h-1.127v.47h1.057v.493h-1.057v.511h1.127V26H22.23zm3.69-2.467h.601V26h-.476l-1.127-1.41V26h-.598v-2.467h.469l1.13 1.41v-1.41zm2.246 2.498c-.256 0-.48-.052-.67-.157a1.07 1.07 0 01-.438-.444 1.398 1.398 0 01-.152-.665c0-.253.051-.474.152-.664.102-.19.248-.337.438-.442.19-.106.414-.158.67-.158a1.5 1.5 0 01.467.073c.151.05.274.115.37.196l-.2.455a1.074 1.074 0 00-.623-.213c-.2 0-.354.063-.46.189-.106.126-.16.314-.16.563 0 .25.054.439.16.566.106.127.26.19.46.19.213 0 .42-.07.623-.213l.2.455a1.074 1.074 0 01-.37.196 1.5 1.5 0 01-.467.073zM29.342 26v-2.467h.644V26h-.644zm2.972 0l-.22-.511H31l-.22.511h-.648l1.152-2.467h.51L32.952 26h-.637zm-1.106-.994h.679l-.34-.791-.34.791zm4.546-.287a.628.628 0 01.333.222.625.625 0 01.115.384.603.603 0 01-.106.355.69.69 0 01-.305.236 1.18 1.18 0 01-.464.084H34.1v-2.467h1.193c.26 0 .465.057.618.173.153.115.23.271.23.467a.57.57 0 01-.102.334.575.575 0 01-.28.21l-.004.002zm-1.029-.217h.459a.49.49 0 00.266-.056c.056-.037.084-.097.084-.178 0-.087-.028-.15-.084-.19-.056-.04-.145-.059-.266-.059h-.459v.483zm.522 1.012c.128 0 .22-.02.275-.062.054-.04.082-.108.082-.201 0-.093-.028-.16-.082-.201-.055-.041-.147-.062-.275-.062h-.522v.526h.522zm3.17.486l-.22-.511h-1.092l-.22.511h-.648l1.152-2.467h.51L39.056 26h-.637zm-1.105-.994h.679l-.34-.791-.34.791zm3.49-1.473h.601V26h-.476L39.8 24.59V26h-.598v-2.467h.469l1.13 1.41v-1.41zm2.246 2.498c-.256 0-.48-.052-.67-.157a1.07 1.07 0 01-.437-.444 1.398 1.398 0 01-.153-.665c0-.253.051-.474.153-.664.101-.19.247-.337.437-.442.19-.106.414-.158.67-.158a1.5 1.5 0 01.468.073c.15.05.273.115.369.196l-.2.455a1.074 1.074 0 00-.623-.213c-.2 0-.354.063-.46.189-.106.126-.16.314-.16.563 0 .25.054.439.16.566.106.127.26.19.46.19.213 0 .42-.07.623-.213l.2.455a1.074 1.074 0 01-.37.196 1.5 1.5 0 01-.467.073zM46.076 26l-.22-.511h-1.093l-.22.511h-.648l1.152-2.467h.51L46.714 26h-.637zm-1.106-.994h.679l-.34-.791-.34.791zm3.383.019c.14.032.251.123.334.275l.392.7h-.707l-.427-.788c-.054-.09-.14-.136-.256-.136h-.196V26h-.633v-2.467h1.176c.298 0 .523.064.674.194.15.13.225.316.225.561a.74.74 0 01-.154.475.756.756 0 01-.434.26l.006.002zm-.419-.432c.143 0 .245-.022.307-.066.061-.045.092-.117.092-.218 0-.102-.03-.176-.092-.222-.062-.045-.164-.068-.307-.068h-.448v.574h.448zm1.4 1.407v-2.467h.644V26h-.644zm2.972 0l-.22-.511h-1.093l-.22.511h-.648l1.152-2.467h.51L52.944 26h-.637zm-1.106-.994h.679l-.34-.791-.34.791z" fill="#000"/></g></g></svg>