<?xml version="1.0" encoding="UTF-8"?><svg width="56" height="36" viewBox="0 0 56 36" xmlns="http://www.w3.org/2000/svg"><g fill="none" fill-rule="evenodd"><path d="M0 3.75A3.749 3.749 0 013.75 0h48.5A3.756 3.756 0 0156 3.75v28.5A3.749 3.749 0 0152.25 36H3.75A3.756 3.756 0 010 32.25V3.75z" fill="#000" fill-rule="nonzero"/><path d="M1.25 3.75v28.5c0 1.375 1.123 2.5 2.5 2.5h48.5c1.382 0 2.5-1.118 2.5-2.5V3.75c0-1.375-1.123-2.5-2.5-2.5H3.75a2.499 2.499 0 00-2.5 2.5z" fill="#FFF"/><g fill-rule="nonzero"><path d="M17.713 31.273h-1.057v.593c.014.14.014.236.112.326a.204.204 0 00.126.046.267.267 0 00.112-.046c.125-.095.125-.217.111-.344v-.25h.578c.014.236.014.576-.08.793-.097.186-.302.345-.754.345-.256 0-.544-.064-.67-.281-.158-.25-.144-.62-.144-.92v-.883c0-.045 0-.312.046-.498.126-.53.638-.543.8-.543.099 0 .178.013.21.013.177.032.354.109.466.25.144.217.144.561.144.81v.589zm-.591-.467v-.452c-.014-.096-.014-.186-.098-.25a.203.203 0 00-.144-.063.387.387 0 00-.126.045c-.098.064-.098.14-.112.25v.452h.48v.018z" fill="#0072BC"/><path d="M18.677 28.642v4.062h-.61v-4.062h.61zm2.062 2.63h-1.057v.594c.014.14.014.236.112.326a.204.204 0 00.126.046.387.387 0 00.126-.046c.111-.095.111-.217.097-.344v-.25h.592c0 .236 0 .576-.098.793-.098.186-.303.345-.754.345-.256 0-.545-.064-.67-.281-.159-.25-.145-.62-.145-.92v-.883c0-.045 0-.312.047-.498.125-.53.637-.543.8-.543.098 0 .177.013.224.013a.81.81 0 01.465.25c.145.217.145.561.145.81v.593h-.01v-.004zm-.61-.466v-.452c-.014-.096-.014-.186-.097-.25a.203.203 0 00-.145-.063.387.387 0 00-.125.045c-.098.064-.098.14-.112.25v.452h.48v.018zm1.97-.108c0-.25 0-.467-.065-.562-.014-.032-.066-.063-.159-.063-.032 0-.079.013-.111.013a.39.39 0 00-.112.236c-.014.28-.014.561-.014.824 0 .263.014.53.014.793 0 .031.014.063.014.095.014.063.032.172.223.172.21 0 .224-.172.224-.372v-.403l.61.014v.435c-.014.217-.014.403-.177.593-.066.095-.145.14-.191.172-.065.014-.242.077-.466.077-.079 0-.48 0-.689-.263-.158-.203-.177-.452-.177-.702-.014-.326-.014-.638-.014-.95.014-.155.014-.313.033-.485.014-.14.014-.172.046-.25.126-.343.4-.42.513-.452.125-.032.27-.032.302-.032.382 0 .591.204.67.326.098.154.098.372.098.78l-.572.004zm1.005-1.06v-.793h.61v.793h.242v.512h-.242v1.743c0 .14 0 .218.047.263.032.014.079.014.125.032.014 0 .047.013.08.013l-.014.485h-.382c-.144.013-.256.013-.354-.095-.033-.046-.065-.064-.08-.123-.013-.045-.013-.095-.013-.203v-2.133h-.256v-.512h.242v.018h-.005zm1.7 0l-.014.593c.065-.217.097-.294.144-.371.144-.236.335-.25.591-.28l-.014.733c-.223-.014-.414-.014-.558.14-.098.122-.112.236-.112.39v1.852h-.624v-3.066h.591v.009h-.004zm.86.951c.015-.235 0-.421.127-.639.097-.172.288-.344.702-.344.433 0 .61.154.69.344.125.25.097.562.097 1.12 0 .171.014.357.014.529 0 .014.014.485-.098.716-.144.326-.414.403-.754.403-.302 0-.577-.11-.703-.403-.097-.25-.097-.748-.097-1.029.023-.203.023-.452.023-.697zm1.044.308c0-.154 0-.294-.014-.453 0-.014 0-.154-.047-.249-.046-.095-.112-.095-.144-.095-.08 0-.177.063-.21.235-.014.11-.014.326-.014.62v.685c0 .249.014.42.066.511.032.064.097.11.158.11.046 0 .098-.014.112-.046.097-.095.097-.25.097-.512v-.806h-.004zm1.569-1.26l.014.264c.032-.014.065-.064.097-.095.065-.064.224-.218.48-.218.065 0 .158 0 .27.077.19.122.223.294.242.498v2.523h-.61v-2.21c0-.109-.014-.204-.098-.263-.046-.032-.079-.032-.098-.032-.079 0-.144.064-.158.064-.125.14-.125.326-.112.484v1.975h-.59v-3.066h.563zm2.127 0v3.067h-.61v-3.066h.61zm.014-.995v.593h-.61v-.593h.61zm1.439 2.056c0-.25 0-.467-.066-.562-.014-.032-.065-.063-.158-.063-.046 0-.098.013-.126.013a.313.313 0 00-.097.236c-.014.28-.014.561-.014.824 0 .263.014.53.014.793 0 .031.014.063.014.095.014.063.046.172.223.172.224 0 .224-.172.224-.372v-.403l.61.014v.435c-.015.217-.015.403-.159.593-.079.095-.158.14-.21.172-.065.014-.241.077-.446.077-.098 0-.48 0-.69-.263-.158-.203-.176-.452-.176-.702 0-.326-.014-.638 0-.95 0-.155.014-.313.014-.485.014-.14.014-.172.046-.25.126-.343.4-.42.512-.452.126-.032.29-.032.322-.032.381 0 .59.204.656.326.098.154.098.372.098.78l-.591.004z" fill="#000"/><path d="M34.58 30.698c0-.25 0-.467-.065-.562-.014-.032-.065-.063-.158-.063-.033 0-.08.013-.112.013a.39.39 0 00-.112.236c-.014.28-.014.561-.014.824 0 .263.014.53.014.793 0 .031.014.063.014.095.014.063.033.172.224.172.21 0 .223-.172.223-.372v-.403l.61.014v.435c-.014.217-.014.403-.177.593-.065.095-.144.14-.19.172-.066.014-.243.077-.466.077-.08 0-.48 0-.69-.263-.158-.203-.176-.452-.176-.702-.014-.326-.014-.638-.014-.95.014-.155.014-.313.032-.485.014-.14.014-.172.047-.25.126-.343.4-.42.512-.452.126-.032.27-.032.303-.032.381 0 .59.204.67.326.098.154.098.372.098.78l-.573.004z" fill="#EF4123"/><path d="M35.474 30.589c-.014-.371.014-.575.098-.734.177-.249.61-.262.67-.262.014 0 .4.013.577.172.126.108.145.294.177.638v2.306h-.577v-.25c-.014.046-.065.096-.098.14-.098.096-.256.123-.382.123a.455.455 0 01-.446-.294c-.08-.172-.066-.453-.066-.639v-.186c.014-.249.066-.42.27-.561.066-.064.354-.236.415-.28.177-.096.256-.11.288-.313.014-.064.014-.077.014-.11 0-.03 0-.14-.079-.203-.014 0-.065-.013-.112-.013-.065 0-.079.013-.097.063-.065.077-.08.204-.065.403h-.587zm.768.684c0 .013-.08.063-.126.122-.065.064-.097.172-.097.39 0 .063.014.14.014.217 0 .095 0 .154.065.217a.142.142 0 00.098.032c.032 0 .065-.013.097-.013a.21.21 0 00.098-.173c.014-.14.014-.466.014-.9-.051.013-.098.058-.163.108zm1.602.263c-.014.312-.014.53.065.638.032.064.125.095.223.095.224 0 .256-.28.256-.326 0-.013 0-.095-.014-.14-.046-.14-.111-.186-.302-.372-.112-.095-.224-.217-.336-.326l-.097-.095a.8.8 0 01-.303-.638.93.93 0 01.08-.358c.078-.204.255-.39.702-.39.415 0 .578.123.67.281.145.218.126.485.126.734l-.544-.014c.014-.185.014-.543-.256-.543-.126 0-.224.122-.224.249 0 .154.158.294.289.403.065.077.125.14.19.217.066.064.145.109.21.172.242.236.368.453.368.761 0 .046 0 .453-.144.639-.098.122-.336.235-.703.235-.512 0-.69-.28-.769-.511-.013-.064-.013-.123-.013-.263v-.421h.526v-.027zm2.03-2.894v1.213c.176-.14.335-.262.544-.262.158 0 .256.063.303.095.223.154.223.403.223.652v2.364h-.61V30.48c0-.013.014-.326-.21-.326-.013 0-.097 0-.144.064-.097.095-.111.294-.111.403v2.088h-.61v-4.05h.61v-.017h.004z" fill="#000"/><path d="M40.995 27.07h-12.96c-1.057 0-1.774-1.028-1.774-1.775 0-.684.014-18.772 0-19.47-.014-.697 1.247-1.789 2.08-1.789.848.014 12.64 0 12.64 0v9.121h-6.88V8.846s-.447-.014-1.025 0c-.288.013-.768.294-.768.747-.014.951 0 11.875 0 12.156 0 .262.177.607.768.62.592.032 1.039 0 1.039 0V17.7h6.88v9.371z" fill="#EF4123"/><path d="M18.211 4.05c1.425.013 11.793 0 11.793 0V17.7l-7.84-.014v4.017c0 .064.19.67.894.702h.977v-3.378h5.983l-.014 8.048h-11.84s-1.773-.281-1.936-1.961c.014-.62 0-18.99 0-19.316-.019-.285.67-1.748 1.983-1.748zm5.824 4.764s-.526-.032-.991-.013c-.48.013-.894.466-.894.747v3.627h1.89l-.005-4.36z" fill="#0072BC"/><path d="M30.018 19.022h-3.762v6.286c0 .716.722 1.744 1.76 1.776h1.983l.019-8.062zm-.014-1.322V4.05h-1.648c-.848 0-2.114 1.091-2.081 1.789v11.874h3.729V17.7z" fill="#000"/></g></g></svg>