<?xml version="1.0" encoding="UTF-8"?><svg width="56" height="36" viewBox="0 0 56 36" xmlns="http://www.w3.org/2000/svg"><g fill="none" fill-rule="evenodd"><path d="M0 3.75A3.749 3.749 0 013.75 0h48.5A3.756 3.756 0 0156 3.75v28.5A3.749 3.749 0 0152.25 36H3.75A3.756 3.756 0 010 32.25V3.75z" fill="#000" fill-rule="nonzero"/><path d="M1.25 3.75v28.5c0 1.375 1.123 2.5 2.5 2.5h48.5c1.382 0 2.5-1.118 2.5-2.5V3.75c0-1.375-1.123-2.5-2.5-2.5H3.75a2.499 2.499 0 00-2.5 2.5z" fill="#FFF"/><g fill="#E82934"><path d="M23.78 12.477l-4.563-3.016a9.587 9.587 0 012.686-2.55l3.923 4.037c-.81.34-1.493.85-2.047 1.53zm-1.195 2.847l-5.159-1.955c.299-1.232.768-2.379 1.45-3.44l4.647 2.846c-.511.764-.852 1.656-.938 2.549zm6.225 2.336l-5.585-2.124a5.77 5.77 0 011.023-2.337l4.562 2.847v1.614zm0-1.87l-4.349-2.846a5.05 5.05 0 012.004-1.402l2.345 2.337v1.912zm-11.085 3.74a10.396 10.396 0 01-.64-3.612c0-.68.043-1.402.213-2.081l5.287 1.869v.212c0 1.232.427 2.422 1.194 3.399h.043a5.682 5.682 0 01-.725-2.761c0-.213 0-.425.043-.638l5.627 1.997v1.614H17.725zm.384.977l-.256-.638h3.283l.554.638h4.86l-1.023 1.062h-6.011a1.616 1.616 0 00-1.407-1.062zm12.407.254a6.245 6.245 0 001.023-.722c.213-.17.426-.34.554-.552a5.382 5.382 0 00-.469-7.647 5.516 5.516 0 00-3.667-1.36c-.597 0-1.236.085-1.79.298l-3.795-4.206a11.214 11.214 0 015.585-1.487c6.097-.043 11 4.8 11 10.79 0 5.991-4.817 10.877-10.872 10.92-2.899 0-5.713-1.148-7.76-3.187h13.346l.085-.085-14.027-.595-.128-.085h14.922l.043-.085-15.605-.722-.042-.043h6.054c0-.042 3.07.085 5.543-1.232z" fill-rule="nonzero"/><path d="M31.07 30.023c0-.255-.17-.51-.47-.552.257-.085.427-.298.427-.553 0-.425-.298-.637-.853-.637h-.895v2.507h.768c.767 0 1.023-.425 1.023-.765zm-.554-1.062c0 .212-.171.34-.512.34h-.213v-.68h.298c.299.042.427.17.427.34zm.042 1.062c0 .212-.17.382-.511.382h-.256v-.722h.213c.341 0 .554.085.554.34zM32.903 30.788v-1.232c0-.383-.17-.638-.767-.638-.256 0-.512.043-.683.128l.043.425c.17-.085.384-.128.554-.128.299 0 .384.085.384.298v.084c-.64 0-1.108.255-1.108.68 0 .298.213.468.554.468.298 0 .511-.128.597-.34 0 .085-.043.212-.043.297h.47v-.042zm-.512-.765c0 .212-.17.425-.426.425-.128 0-.213-.085-.213-.213 0-.17.128-.297.64-.297v.085zM34.992 30.788V29.47c0-.34-.128-.595-.554-.595-.298 0-.512.17-.64.382.043-.127.043-.255.043-.34h-.469v1.87h.47v-.893c0-.34.212-.594.425-.594.171 0 .256.127.256.297v1.19h.47zM37.167 30.788l-.725-.978.682-.892h-.64l-.554.807V28.07h-.469v2.719h.47v-.893l.596.893zM21.52 29.513c0-.892-.555-1.274-1.237-1.274-.767 0-1.364.51-1.364 1.317 0 .807.426 1.274 1.236 1.274.767 0 1.364-.51 1.364-1.317zm-.683.043c0 .552-.34.764-.64.764-.426 0-.639-.297-.639-.807s.299-.765.64-.765c.426 0 .64.255.64.808zM23.694 30.745l-.085-.51a1.819 1.819 0 01-.47.085c-.511 0-.724-.297-.724-.764 0-.468.256-.765.682-.765.17 0 .341.042.512.085l.085-.51c-.17-.042-.384-.042-.554-.042-.896 0-1.407.552-1.407 1.359 0 .595.298 1.19 1.279 1.19.255-.043.511-.085.682-.128zM26.124 30.023c0-.255-.17-.51-.426-.552.255-.085.383-.298.383-.553 0-.425-.34-.637-.938-.637h-.98v2.507h.853c.767 0 1.108-.383 1.108-.765zm-.725-1.02c0 .213-.17.298-.469.298h-.17v-.553h.256c.255 0 .383.085.383.255zm.043 1.02c0 .212-.17.297-.426.297h-.256v-.595h.213c.298 0 .469.085.469.298zM28.341 30.745l-.085-.51a1.819 1.819 0 01-.47.085c-.51 0-.724-.297-.724-.764 0-.468.256-.765.682-.765.17 0 .341.042.512.085l.085-.51c-.17-.042-.341-.042-.554-.042-.896 0-1.407.552-1.407 1.359 0 .595.298 1.19 1.279 1.19.256-.043.469-.085.682-.128z"/></g></g></svg>