<?xml version="1.0" encoding="UTF-8"?><svg width="56" height="36" viewBox="0 0 56 36" xmlns="http://www.w3.org/2000/svg"><g fill="none" fill-rule="evenodd"><path d="M0 3.75A3.749 3.749 0 013.75 0h48.5A3.756 3.756 0 0156 3.75v28.5A3.749 3.749 0 0152.25 36H3.75A3.756 3.756 0 010 32.25V3.75z" fill="#000" fill-rule="nonzero"/><path d="M1.25 3.75v28.5c0 1.375 1.123 2.5 2.5 2.5h48.5c1.382 0 2.5-1.118 2.5-2.5V3.75c0-1.375-1.123-2.5-2.5-2.5H3.75a2.499 2.499 0 00-2.5 2.5z" fill="#FFF"/><g fill-rule="nonzero"><path d="M20.63 24.081c-.946 1.231-2.54 1.72-3.987 1.22-1.446-.498-2.434-1.875-2.471-3.445-.037-1.57.885-2.995 2.307-3.565a3.553 3.553 0 014.04 1.021l1.356-1.778a5.674 5.674 0 00-8.182.014c-2.257 2.327-2.257 6.096 0 8.424a5.674 5.674 0 008.182.013l-1.244-1.904zM23.175 16.321h2.443v11.557h-2.443zM36.381 16.321h2.443v11.557h-2.443zM32.058 27.878c-2.102 0-2.605-1.851-2.656-2.887v-6.61h-2.164v-2.117h2.149v-2.239l2.179-1.364-.061 1.72v1.888h2.204v2.118h-2.2v5.862c-.029.173-.029.35 0 .523v.13a1.49 1.49 0 001.212 1.241c.62.104 1.236-.21 1.532-.78 0 0 .04 2.515-2.195 2.515z" fill="#000"/><path d="M31.083 9c-3.995-.001-7.726 2.056-9.94 5.48h3.459a9.086 9.086 0 0112.973 0h3.459c-2.216-3.427-5.952-5.485-9.95-5.48z" fill="#E20613"/><path d="M42.307 14.624v-1.266h.6a.8.8 0 01.253.032c.059.02.109.061.142.115a.43.43 0 010 .392.342.342 0 01-.238.178c.04.002.08.01.117.026l.055.068c.02.024.037.05.051.078l.173.372h-.406l-.193-.393a.293.293 0 00-.067-.099.14.14 0 00-.086-.031h-.035v.523l-.366.005zm.366-.748h.248a.097.097 0 00.056-.042.13.13 0 000-.073.122.122 0 00-.035-.094.199.199 0 00-.132-.031h-.137v.24z" fill="#000"/><path d="M42.715 12.66c-.693 0-1.255.579-1.255 1.292 0 .714.562 1.292 1.255 1.292.693 0 1.255-.578 1.255-1.292 0-.713-.562-1.291-1.255-1.291zm0 2.349c-.561 0-1.016-.469-1.016-1.046 0-.578.455-1.046 1.016-1.046.561 0 1.016.468 1.016 1.046 0 .577-.455 1.046-1.016 1.046z" fill="#000"/></g></g></svg>