<?xml version="1.0" encoding="UTF-8"?><svg width="56" height="36" viewBox="0 0 56 36" xmlns="http://www.w3.org/2000/svg"><g fill="none" fill-rule="evenodd"><path d="M0 3.75A3.749 3.749 0 013.75 0h48.5A3.756 3.756 0 0156 3.75v28.5A3.749 3.749 0 0152.25 36H3.75A3.756 3.756 0 010 32.25V3.75z" fill="#000" fill-rule="nonzero"/><path d="M1.25 3.75v28.5c0 1.375 1.123 2.5 2.5 2.5h48.5c1.382 0 2.5-1.118 2.5-2.5V3.75c0-1.375-1.123-2.5-2.5-2.5H3.75a2.499 2.499 0 00-2.5 2.5z" fill="#FFF"/><g fill-rule="nonzero"><path d="M25.583 22.704c-.423.273-.916.43-1.427.454-1.227-.033-2.226-.951-2.307-2.12l2.379-1.362 3.724 1.589-2.369 1.44z" fill="#83B8D7"/><path d="M27.01 16.848l-1.783-.749c-.795-.34-1.546-.622-1.546-1.457-.026-.338.105-.67.356-.908l3.768 1.584-.952.513c-.257.15-.433.282-.433.454 0 .173.243.377.576.522" fill="#B3D3A2"/><path d="M28.756 9.008l-1.827 1.058c-.161.095-.38.245-.38.454 0 .209.423.454.794.636l-2.283-.963c-.675-.281-1.346-.604-1.346-1.362-.003-.29.086-.573.257-.812l4.937-2.878a2.128 2.128 0 011.165 1.816c-.001.86-.514 1.646-1.322 2.029" fill="#83B8D7"/><path d="M32.637 12.413l-.475.245-3.772-1.589 4.4-2.52a2.142 2.142 0 011.17 1.817c.012.867-.509 1.661-1.332 2.029" fill="#B3D3A2"/><path d="M29.46 15.468l2.23.935c.838.359 1.095.776 1.095 1.308a1.096 1.096 0 01-.433.812l-3.758-1.607.633-.34c.537-.282.713-.454.713-.64s-.123-.327-.475-.482" fill="#83B8D7"/><path d="M33.431 23.326a15.75 15.75 0 00-3.191-1.702l-5.708-2.402c-1.427-.608-2.378-1.416-2.378-2.782-.037-1.047.566-2.02 1.546-2.493l.337-.208c-.251.238-.382.57-.356.907 0 .836.751 1.117 1.546 1.458l6.611 2.778c1.151.454 2.202 1.284 2.202 2.664a2.749 2.749 0 01-.618 1.78" fill="#26A135"/><path d="M32.76 18.278l-.413.245c.263-.197.424-.493.442-.812 0-.527-.256-.95-1.094-1.308l-7.082-2.973c-1.427-.604-2.316-1.362-2.316-2.724-.014-1.122.638-2.155 1.683-2.67-.17.24-.26.524-.256.813 0 .772.67 1.095 1.346 1.362l6.877 2.897c1.247.53 2.27 1.33 2.27 2.787.032.987-.52 1.908-1.428 2.383M23.976 27.153h-.224c-.162 0-.228-.1-.228-.24v-1.009h.475v-.286h-.475v-.53h-.338v1.815a.467.467 0 00.135.416c.111.11.272.164.431.142h.243l-.02-.308zM20.736 26.59c0 .654.562.908 1.085.908.523 0 1.027-.236 1.027-.754 0-.517-.433-.64-.842-.726l-.157-.023c-.366-.077-.68-.14-.68-.4 0-.367.4-.408.566-.408a.575.575 0 01.427.117c.12.094.192.23.201.378h.357c0-.508-.376-.799-.951-.799-.476 0-.952.227-.952.74s.4.576.842.667h.086c.376.077.732.15.732.454 0 .382-.404.454-.647.454a.921.921 0 01-.518-.14.518.518 0 01-.224-.455l-.352-.013zM24.908 27.185c-.105 0-.347-.023-.347-.25s.185-.282.366-.309l.171-.023c.13-.006.257-.035.376-.086v.277c0 .15-.152.39-.561.39h-.005zm1.094-.023a.259.259 0 01-.09 0c-.081 0-.086-.041-.086-.186v-.908c0-.34-.233-.509-.718-.509-.295 0-.79.078-.809.613h.338c0-.222.157-.327.475-.327.32 0 .405.091.405.286 0 .196-.172.187-.41.218l-.209.032c-.328.06-.647.154-.647.567 0 .323.238.518.638.518a.871.871 0 00.651-.263c-.005.07.021.14.073.19.052.05.125.077.199.073a.45.45 0 00.228-.054l-.038-.25zM26.297 25.618v1.816h.337v-1.021a.476.476 0 01.136-.396.527.527 0 01.407-.153c.099-.007.196.027.267.094.07.068.106.16.099.255v1.226h.338v-1.194c0-.454-.22-.667-.661-.667a.675.675 0 00-.605.304v-.259l-.318-.005zM29.122 27.194c-.39 0-.566-.327-.566-.65 0-.204.052-.68.552-.68s.575.513.575.667c0 .322-.147.663-.56.663zm.547-2.27v.908a.752.752 0 00-.6-.264.894.894 0 00-.659.284.81.81 0 00-.21.66c-.009.242.068.478.218.673a.83.83 0 00.661.286c.234.02.46-.081.595-.264v.218h.338v-2.492l-.343-.01zM31.049 27.194c-.105 0-.348-.023-.348-.25s.186-.281.367-.309l.17-.022c.129-.007.255-.036.372-.087v.277c0 .15-.152.39-.561.39zm1.089-.023a.264.264 0 01-.09 0c-.081 0-.086-.04-.086-.186v-.908c0-.34-.233-.509-.718-.509-.295 0-.79.078-.81.613h.339c0-.222.157-.327.475-.327.319 0 .405.091.405.286 0 .196-.172.187-.41.218l-.209.032c-.328.06-.647.154-.647.563 0 .322.238.518.638.518a.867.867 0 00.651-.264c-.005.07.021.14.073.19.052.051.124.078.198.074a.444.444 0 00.229-.055l-.038-.245zM33.45 25.578a.69.69 0 00-.684.39v-.35h-.32v1.816h.343v-.808c0-.486.214-.713.666-.713l-.004-.335zM34.42 27.194c-.394 0-.57-.327-.57-.65 0-.204.052-.68.552-.68s.575.513.575.667c0 .322-.147.663-.556.663zm.548-2.27v.908a.757.757 0 00-.6-.264.899.899 0 00-.657.286.815.815 0 00-.213.659c-.004.247.081.487.243.68.16.19.405.296.66.287.234.02.46-.081.595-.264v.218h.338v-2.501l-.366-.01zM22.073 29.967a.67.67 0 01-.208.502.736.736 0 01-.524.202.78.78 0 01-.666-.304 1.184 1.184 0 01-.205-.722 1.141 1.141 0 01.205-.686.795.795 0 01.66-.3c.341-.028.65.193.714.514h.371a.9.9 0 00-.366-.608 1.224 1.224 0 00-.713-.21 1.191 1.191 0 00-.928.387c-.211.259-.323.58-.319.907 0 .804.476 1.303 1.213 1.303.29.01.572-.085.79-.267a1.12 1.12 0 00.342-.736l-.366.018zM22.772 28.42v2.505h.338V29.9a.476.476 0 01.136-.396.527.527 0 01.406-.153.347.347 0 01.267.092c.07.066.107.159.1.253v1.23h.337v-1.194c0-.454-.214-.667-.661-.667a.682.682 0 00-.585.277v-.908l-.338-.014zM25.355 30.68c-.105 0-.352-.023-.352-.25s.186-.277.366-.308l.167-.023c.13-.006.257-.035.375-.086v.277c0 .15-.152.395-.56.395l.004-.005zm-.3-.985c0-.223.157-.327.476-.327.319 0 .404.09.404.286 0 .195-.171.186-.409.218l-.21.032c-.327.059-.646.154-.646.563 0 .322.238.517.637.517a.867.867 0 00.652-.259.235.235 0 00.075.191.26.26 0 00.2.068.445.445 0 00.23-.05v-.254a.254.254 0 01-.091 0c-.081 0-.086-.04-.086-.19v-.909c0-.34-.238-.503-.718-.503-.295 0-.79.077-.809.612l.295.005zM35.063 30.68c-.395 0-.566-.327-.566-.65 0-.203.052-.68.552-.68s.594.513.594.667c0 .323-.147.663-.556.663h-.024zm.908.245v-2.501h-.337v.908a.757.757 0 00-.6-.264.899.899 0 00-.658.286.815.815 0 00-.212.659c-.009.24.068.478.219.672.16.19.406.295.66.285a.67.67 0 00.596-.258v.218l.332-.005zM29.893 29.35a.517.517 0 01.518.481h-1.046a.508.508 0 01.523-.481h.005zm.518 1.012a.437.437 0 01-.476.318.582.582 0 01-.418-.15.56.56 0 01-.152-.413h1.427a1.097 1.097 0 00-.281-.817.8.8 0 00-.585-.222.938.938 0 00-.663.286.852.852 0 00-.236.658c.005.594.338.967.908.967.393.026.744-.234.814-.604l-.338-.023zM33.037 29.35c.282 0 .515.212.528.481h-1.052a.508.508 0 01.524-.481zm.513 1.017a.437.437 0 01-.475.313.577.577 0 01-.419-.15.552.552 0 01-.152-.413h1.427a1.097 1.097 0 00-.28-.817.8.8 0 00-.586-.222.933.933 0 00-.665.285.847.847 0 00-.234.659c0 .608.352.958.914.958.392.026.743-.234.813-.604l-.343-.01zM27.082 30.925v-.812c0-.486.214-.713.666-.713v-.336a.69.69 0 00-.685.39v-.35h-.32v1.817l.339.004zM31.443 30.925v-.812c0-.486.21-.713.666-.713v-.336a.685.685 0 00-.685.39v-.35h-.318v1.817l.337.004zM28.841 30.64h-.237c-.162 0-.229-.1-.229-.241V29.39h.476v-.286h-.476v-.536h-.342v1.816a.467.467 0 00.137.413c.111.11.27.161.429.14h.238l.004-.299z" fill="#006EA6"/></g></g></svg>