<?xml version="1.0" encoding="UTF-8"?><svg width="56" height="36" viewBox="0 0 56 36" xmlns="http://www.w3.org/2000/svg"><g fill="none" fill-rule="evenodd"><path d="M0 3.75A3.749 3.749 0 013.75 0h48.5A3.756 3.756 0 0156 3.75v28.5A3.749 3.749 0 0152.25 36H3.75A3.756 3.756 0 010 32.25V3.75z" fill="#000" fill-rule="nonzero"/><path d="M1.25 3.75v28.5c0 1.375 1.123 2.5 2.5 2.5h48.5c1.382 0 2.5-1.118 2.5-2.5V3.75c0-1.375-1.123-2.5-2.5-2.5H3.75a2.499 2.499 0 00-2.5 2.5z" fill="#FFF"/><g><path d="M29.444 13.938s5.112-4.32 5.024-5.062c0 0 .617-1.57-1.278-1.832 0 0-.397-.131-1.85.61 0 0-3.218 1.659-6.038.219l-1.542-.655a1.42 1.42 0 00-.837-.13c-1.895.217-1.146 1.875-1.146 1.875-.044.83 5.068 5.062 5.068 5.062.308.218.66.393 1.057.436.573.088 1.102-.087 1.542-.523zM29.444 17.996s5.112 4.32 5.024 5.061c0 0 .617 1.57-1.278 1.833 0 0-.397.13-1.85-.611 0 0-3.218-1.658-6.038-.218l-1.542.698a1.42 1.42 0 01-.837.13c-1.895-.218-1.146-1.876-1.146-1.876-.044-.829 5.068-5.061 5.068-5.061.308-.218.66-.393 1.057-.436a2.243 2.243 0 011.542.48zM25.92 17.341s-4.275 4.974-5.024 4.974c0 0-1.675.524-1.895-1.265 0 0-.088-.393.617-1.833 0 0 1.763-3.229.22-6.065l-.617-1.483a1.332 1.332 0 01-.132-.83c.22-1.832 1.895-1.134 1.895-1.134.75 0 5.023 4.974 5.023 4.974.265.306.441.699.441 1.135.088.567-.132 1.134-.529 1.527zM30.105 17.341s4.275 4.974 5.024 4.974c0 0 1.674.524 1.894-1.265 0 0 .089-.393-.616-1.833 0 0-1.675-3.229-.22-6.065l.616-1.483c.132-.262.176-.524.132-.83-.132-1.832-1.894-1.134-1.894-1.134-.75 0-5.024 4.974-5.024 4.974-.264.306-.44.699-.44 1.135-.044.567.132 1.134.528 1.527z" fill="#EC1B2E" fill-rule="nonzero"/><path d="M27.065 28.206h1.19c.44 0 1.013.13 1.013.741 0 .524-.396.786-1.013.786h-1.19v-1.527zm-.22 1.701h1.41c.749 0 1.233-.349 1.233-.96 0-.698-.66-.872-.793-.872a.722.722 0 00.661-.742c0-.436-.264-.873-1.101-.873h-1.41v3.447zm.22-3.272h1.19c.44 0 .881.174.881.654 0 .437-.308.698-.881.698h-1.19v-1.352zM30.238 28.642l.793-1.963.749 1.963h-1.542zm.66-2.182l-1.41 3.447h.22l.441-1.09h1.675l.44 1.09h.22L31.12 26.46h-.22zM32.793 26.46h.265l2.203 3.186V26.46h.22v3.447h-.264l-2.203-3.185v3.185h-.22zM36.098 26.46h.176v2.007l2.204-2.007h.264l-1.586 1.44 1.718 2.007h-.308l-1.543-1.876-.749.655v1.221h-.176zM17.327 29.69v-3.011s0-.088-.132-.219h1.454c.572 0 1.674.35 1.674 1.746s-1.102 1.701-1.718 1.701H17.15c.177-.13.177-.218.177-.218zm.617-.306c0 .262 0 .392.308.392.837 0 1.366-.523 1.366-1.57 0-.96-.529-1.527-1.278-1.527-.22 0-.308 0-.352.087-.044.087-.044.218-.044.523v2.095zM22.614 28.075s.441-.218.441-.698c0-.655-.485-.873-.925-.873h-1.587s.133.044.089.262v2.923c0 .218-.089.218-.089.218h1.675c.529 0 1.146-.261 1.146-.916-.045-.567-.397-.742-.75-.916zm-.837 1.701h-.22c-.353 0-.264-.174-.264-.305V26.722c0-.13.132-.13.132-.13h.132c.44 0 .793.087.837.654 0 .436-.352.698-.396.698-.089.043-.177.043-.265.087v.044c.309.043.837.349.837.872 0 .568-.352.873-.793.83zM24.377 28.319c-.925-.262-.881-.855-.881-.855 0-.873 1.013-.96 1.013-.96.397-.087.881.044.881.044.309.13.441.087.441.087v.436h-.044s-.264-.392-.573-.436c0 0-.749-.218-1.013.349 0 0-.22.567.44.742l.53.174s.836.218.836.917c0 0 .044.48-.264.785 0 0-.397.393-1.19.393 0 0-.352 0-.573-.088l-.352-.13h-.132v-.568h.044s.308.48.881.48c0 0 .573.087.793-.349 0 0 .22-.349-.044-.698 0 0-.132-.175-.485-.262l-.308-.061z" fill="#231F20"/></g></g></svg>