<svg xmlns="http://www.w3.org/2000/svg" xmlns:xlink="http://www.w3.org/1999/xlink" width="56" height="36"><defs><path id="a" d="M0 .096h13.834v13.893H0z"/><path id="c" d="M.124.17h14.434v8.381H.124z"/></defs><g fill="none" fill-rule="evenodd"><path fill="#000" fill-rule="nonzero" d="M0 3.75A3.749 3.749 0 0 1 3.75 0h48.5A3.756 3.756 0 0 1 56 3.75v28.5A3.749 3.749 0 0 1 52.25 36H3.75A3.756 3.756 0 0 1 0 32.25V3.75z"/><path fill="#FFF" d="M1.25 3.75v28.5c0 1.375 1.123 2.5 2.5 2.5h48.5c1.382 0 2.5-1.118 2.5-2.5V3.75c0-1.375-1.123-2.5-2.5-2.5H3.75a2.499 2.499 0 0 0-2.5 2.5z"/><g transform="translate(6 11)"><mask id="b" fill="#fff"><use xlink:href="#a"/></mask><path fill="#009949" d="M9.595 4.449L5.86 8.203 4.24 6.574a.33.33 0 0 0-.47 0l-.903.909a.334.334 0 0 0 0 .471l2.76 2.774a.33.33 0 0 0 .468 0l4.874-4.9a.335.335 0 0 0 0-.47l-.904-.91a.33.33 0 0 0-.469 0" mask="url(#b)"/><path fill="#009949" d="M6.917 1.036a5.949 5.949 0 0 0-4.232 1.758c-2.333 2.346-2.333 6.162 0 8.507a5.969 5.969 0 0 0 8.463 0c2.334-2.345 2.334-6.161 0-8.507a5.95 5.95 0 0 0-4.231-1.758zm0 12.964a6.88 6.88 0 0 1-4.893-2.034c-2.698-2.712-2.698-7.125 0-9.837a6.903 6.903 0 0 1 9.786 0c2.698 2.712 2.698 7.125 0 9.837A6.88 6.88 0 0 1 6.917 14z" mask="url(#b)"/></g><path fill="#1A1919" d="M23.833 20.776h1.374c.735 0 1.128-.394 1.128-1.047 0-.641-.393-1.048-1.128-1.048h-1.374c-.049 0-.073.025-.073.074v1.948c0 .049.024.073.073.073zm1.276-3.487c.686 0 1.09-.37 1.09-.986 0-.617-.404-.974-1.09-.974h-1.276c-.049 0-.073.025-.073.074v1.812c0 .049.024.074.073.074h1.276zm-3.152-3.303c0-.074.05-.124.123-.124h3.25c1.814 0 2.66.9 2.66 2.231 0 .912-.417 1.48-.969 1.787v.025c.552.21 1.116.9 1.116 1.898 0 1.651-1.091 2.44-2.894 2.44H22.08c-.074 0-.123-.05-.123-.123v-8.134zm11.103 5.127l-.944-2.934h-.037l-.944 2.934h1.925zm-1.876-5.127c.024-.074.073-.124.159-.124h1.545c.086 0 .135.05.16.124l2.82 8.134c.024.074 0 .123-.086.123h-1.594c-.086 0-.135-.037-.16-.123l-.478-1.467h-2.918l-.466 1.467c-.025.086-.074.123-.16.123H28.4c-.086 0-.11-.05-.086-.123l2.87-8.134z"/><g transform="translate(36.357 13.692)"><mask id="d" fill="#fff"><use xlink:href="#c"/></mask><path fill="#1A1919" d="M.124.293C.124.22.174.17.247.17h1.471c.086 0 .16.037.209.123L4.87 5.568h.06V.293c0-.074.05-.123.124-.123h1.385c.074 0 .123.05.123.123v8.134c0 .074-.05.124-.123.124H4.98c-.098 0-.16-.037-.209-.124L1.816 3.165h-.06v5.262c0 .074-.05.124-.123.124H.247c-.074 0-.123-.05-.123-.124V.293m7.57 0c0-.074.05-.123.123-.123h1.557c.074 0 .123.05.123.123v3.624L12.267.28c.062-.086.111-.11.21-.11h1.777c.074 0 .11.085.05.16l-2.527 3.18 2.76 4.892c.048.086.012.148-.074.148H12.66c-.098 0-.135-.025-.184-.111l-1.888-3.525-1.091 1.38v2.132c0 .074-.05.124-.123.124H7.817c-.074 0-.123-.05-.123-.124V.293" mask="url(#d)"/></g></g></svg>