<?xml version="1.0" encoding="UTF-8"?><svg width="56" height="36" viewBox="0 0 56 36" xmlns="http://www.w3.org/2000/svg"><g fill="none" fill-rule="evenodd"><path d="M0 3.75A3.749 3.749 0 013.75 0h48.5A3.756 3.756 0 0156 3.75v28.5A3.749 3.749 0 0152.25 36H3.75A3.756 3.756 0 010 32.25V3.75z" fill="#000" fill-rule="nonzero"/><path d="M1.25 3.75v28.5c0 1.375 1.123 2.5 2.5 2.5h48.5c1.382 0 2.5-1.118 2.5-2.5V3.75c0-1.375-1.123-2.5-2.5-2.5H3.75a2.499 2.499 0 00-2.5 2.5z" fill="#FFF"/><g fill-rule="nonzero" fill="#00AEEF"><path d="M4 20.086c.2.086.39.192.566.317a3.265 3.265 0 001.882.528.892.892 0 00.704-.324.392.392 0 00.099-.383.402.402 0 00-.288-.278.87.87 0 00-.396-.04 2.058 2.058 0 01-2.165-1.27 1.364 1.364 0 01-.111-.377.294.294 0 01.082-.277.309.309 0 01.283-.08c.16.024.314.074.456.15.334.16.667.318 1.003.473.246.129.55.066.723-.149a.5.5 0 00.083-.443.513.513 0 00-.308-.334c-.347-.171-.702-.33-1.052-.499a2.009 2.009 0 01-.287-.149c-.244-.17-.244-.381 0-.545.433-.302.98-.404 1.496-.28.549.112 1.028.439 1.323.905.12.203.365.302.595.24a.455.455 0 00.297-.227.438.438 0 00.02-.368c-.123-.447-.435-.745-.8-1.009a3.458 3.458 0 00-1.032-.482 1.63 1.63 0 01-.36-.15c.273-.041.552-.041.825 0 1.46.207 2.632 1.284 2.936 2.696.271 1.422-.429 2.851-1.73 3.535a3.682 3.682 0 01-1.749.447 3.583 3.583 0 01-2.477-.931c-.17-.15-.327-.32-.49-.481A.368.368 0 014 20.086zM16.443 18.488c.146.08.276.185.385.31.202.292.25.66.13.993-.12.332-.394.59-.738.693a1.912 1.912 0 01-.487.064h-1.186a.585.585 0 01-.451-.164.56.56 0 01-.168-.442c-.005-.91-.005-1.822 0-2.733a.556.556 0 01.167-.432.582.582 0 01.442-.164c.426 0 .852-.018 1.276 0 .457.024.836.183 1.014.633.141.357.102.923-.305 1.175a.658.658 0 00-.079.067zm-1.114.384h-.406c-.122 0-.152.04-.152.15v.535a.187.187 0 00.046.144c.036.04.086.063.14.065.277.036.559.03.835-.015a.388.388 0 00.347-.396.425.425 0 00-.304-.447 1.89 1.89 0 00-.506-.036zm-.068-.73c.134 0 .438 0 .456-.008a.368.368 0 00.305-.368.34.34 0 00-.292-.358 2.815 2.815 0 00-.746-.027.226.226 0 00-.178.075.216.216 0 00-.052.182c.024.603-.07.497.507.503zM43.439 19.355v.911c0 .207-.076.274-.29.282-.5.016-.52 0-.526-.498-.006-.497.026-.987-.026-1.48-.025-.249-.082-.314-.339-.362a.777.777 0 00-.304 0c-.244.052-.335.149-.337.393v1.536a.43.43 0 01-.229.402.45.45 0 01-.47-.028.26.26 0 01-.118-.262c0-.495-.02-.99 0-1.49.03-.62-.418-.637-.81-.535-.153.04-.194.164-.212.298-.029.41-.034.82-.017 1.23v.553a.22.22 0 01-.063.173.23.23 0 01-.175.067h-.036c-.507.022-.54-.008-.54-.502v-1.464c0-.685.449-1.128 1.149-1.153.39-.013.77 0 1.065.298.06.061.094 0 .134-.031.41-.328 1.208-.37 1.674-.091.306.188.487.52.476.874.012.298 0 .584 0 .876l-.006.003zM29.109 18.723V17.26c0-.43.226-.652.663-.655.437-.003.826 0 1.24 0 .761 0 1.24.48 1.244 1.224.005.16-.007.322-.035.48a1.096 1.096 0 01-1.082.911c-.327.012-.658.01-.985 0-.152 0-.205.05-.2.197.007.274 0 .548 0 .82 0 .221-.087.298-.314.298-.495.017-.533-.019-.533-.498l.002-1.313zm1.416-.262c.188.01.377-.003.562-.035a.336.336 0 00.265-.22c.06-.164.07-.341.029-.51a.393.393 0 00-.341-.298 3.386 3.386 0 00-.761-.025c-.286.016-.312.053-.314.34v.214c-.004.537-.004.537.565.537l-.005-.003zM35.845 17.5c.36 0 .425.047.507.4.126.545.245 1.093.368 1.638l.037.156c.01.127.12.224.25.22.143 0 .2-.096.228-.215.106-.47.21-.943.315-1.413.036-.163.068-.327.11-.489.063-.234.142-.298.386-.298.505-.009.536.031.421.52-.203.847-.399 1.695-.589 2.544a2.47 2.47 0 01-.278.715c-.266.446-.69.636-1.192.69a.25.25 0 01-.287-.194c-.02-.069-.034-.139-.052-.209a.228.228 0 01.02-.2c.037-.06.1-.1.172-.11.165-.034.32-.102.456-.2a.802.802 0 00.092-.089c.073-.086.18-.181.13-.297-.048-.117-.174-.048-.267-.05a.631.631 0 01-.583-.362 1.808 1.808 0 01-.152-.421 654.75 654.75 0 00-.457-1.915c-.067-.356-.01-.422.365-.422zM45.717 19.331h-.729c-.152 0-.175.07-.137.194a.445.445 0 00.362.289c.299.06.607.06.906 0l.198-.033c.152-.022.315-.088.37.13.066.25.028.539-.19.604-.132.043-.27.072-.409.086-.443.033-.887.059-1.318-.089a1.045 1.045 0 01-.76-1.008c-.01-.298 0-.584 0-.874a1.136 1.136 0 01.313-.826c.213-.223.507-.355.819-.366a3.32 3.32 0 01.564 0c.595.05.956.377 1.066.95.035.218.039.44.012.659-.019.202-.117.283-.324.287h-.748l.005-.003zm-.294-.654h.457c.112 0 .152-.047.132-.149-.038-.247-.227-.381-.566-.393-.34-.012-.564.136-.609.392-.016.106.014.16.13.158.153-.01.306-.008.456-.008zM20.175 19.699a.802.802 0 01-.61.828c-.48.14-.994.14-1.475 0-.43-.122-.621-.41-.62-.877a.816.816 0 01.623-.86c.325-.105.88-.08.995-.08.116 0 .248.071.279-.11a.363.363 0 00-.22-.425 1.765 1.765 0 00-.748-.047 9.562 9.562 0 00-.291.025.246.246 0 01-.208-.04.235.235 0 01-.096-.185c-.032-.214.042-.41.21-.447.563-.104 1.127-.122 1.664.115.307.13.502.428.495.755.008.232 0 .465 0 .697.002.008.003.436.002.65zm-1.702-.325a.264.264 0 00-.184.243.248.248 0 00.152.265c.245.093.516.093.761 0 .123-.048.209-.326.152-.462-.056-.135-.187-.062-.286-.081a1.964 1.964 0 00-.595.035zM35.112 19.702a.808.808 0 01-.636.832c-.472.131-.971.131-1.443 0-.427-.117-.631-.406-.633-.85 0-.48.193-.754.626-.894.325-.105.662-.065.995-.079.096 0 .233.065.272-.095a.373.373 0 00-.204-.433 1.718 1.718 0 00-.76-.054 9.562 9.562 0 00-.291.025.245.245 0 01-.21-.04.234.234 0 01-.095-.189c-.031-.226.05-.402.232-.447.35-.067.71-.078 1.065-.032.195.014.386.065.562.148a.84.84 0 01.505.769c.021.23.016 1.124.015 1.339zm-1.695-.33a.263.263 0 00-.19.254.26.26 0 00.191.274c.223.06.46.057.68-.009.144-.046.238-.278.198-.457-.04-.179-.185-.082-.284-.104-.2-.017-.4-.003-.595.041zM23.501 19.355v.91c0 .207-.076.274-.289.281-.5.017-.52-.007-.527-.497-.006-.49.026-1-.02-1.498a.338.338 0 00-.331-.338 1.982 1.982 0 00-.198-.024c-.456-.015-.595.086-.622.518-.03.475-.016.952-.019 1.427 0 .383-.032.412-.43.412h-.152a.22.22 0 01-.17-.058.21.21 0 01-.066-.164c0-.635-.025-1.274.009-1.909a.961.961 0 01.742-.894c.446-.139.925-.139 1.37 0a.953.953 0 01.699.905c.01.31 0 .618 0 .927l.004.002zM50.162 19.344v.91c0 .22-.073.285-.304.298-.496.014-.513 0-.52-.487 0-.505.028-1.011-.02-1.516a.332.332 0 00-.32-.328c-.055-.007-.108-.02-.161-.025-.48-.034-.646.08-.673.542-.029.487-.012.976-.015 1.463 0 .298-.055.35-.366.35h-.219a.22.22 0 01-.166-.064.21.21 0 01-.062-.164c0-.632-.023-1.263.01-1.892a.964.964 0 01.734-.905 2.283 2.283 0 011.382 0 .962.962 0 01.692.894V19.347l.008-.003zM50.99 19.032v-.596c0-.203 0-.183-.193-.183-.194 0-.364.068-.364-.447.02-.15.15-.262.304-.26.396 0 .305 0 .305-.33v-.126c-.01-.41.152-.377.58-.377.103.03.174.12.179.223v.563h.797a.244.244 0 01.194.066c.051.05.077.119.071.189.005.077.005.155 0 .232-.012.19-.088.265-.288.271-.199.006-.39 0-.584 0-.195 0-.186.026-.186.173v1c0 .334.17.455.493.42.19-.019.38-.051.571-.063a.086.086 0 01.09.074c.064.57-.046.745-.56.754-.399 0-.802.061-1.181-.422a1.05 1.05 0 01-.225-.62v-.543l-.003.002zM24.183 18.396v-1.787c0-.264.065-.325.335-.328.456 0 .477.018.477.456v3.444c0 .312-.051.362-.37.362h-.153c-.222 0-.294-.073-.294-.297.003-.613.005-1.225.005-1.85zM26.712 20.545c-.295.062-.53-.09-.724-.358-.195-.268-.39-.473-.577-.714-.294-.38-.282-.738.024-1.106.177-.213.355-.424.528-.638a.566.566 0 01.487-.233h.42c.066 0 .152-.01.18.06.027.07-.022.135-.066.19-.217.264-.438.526-.657.788-.365.438-.364.364-.008.791l.761.915a.854.854 0 01.066.084c.092.15.062.207-.11.216-.091.01-.183.005-.324.005z"/></g></g></svg>