<?xml version="1.0" encoding="UTF-8"?><svg width="56" height="36" viewBox="0 0 56 36" xmlns="http://www.w3.org/2000/svg"><g fill="none" fill-rule="evenodd"><path d="M0 3.75A3.749 3.749 0 013.75 0h48.5A3.756 3.756 0 0156 3.75v28.5A3.749 3.749 0 0152.25 36H3.75A3.756 3.756 0 010 32.25V3.75z" fill="#000" fill-rule="nonzero"/><path d="M1.25 3.75v28.5c0 1.375 1.123 2.5 2.5 2.5h48.5c1.382 0 2.5-1.118 2.5-2.5V3.75c0-1.375-1.123-2.5-2.5-2.5H3.75a2.499 2.499 0 00-2.5 2.5z" fill="#FFF"/><g fill="#5DD8C4"><path d="M8.699 14.567C7.145 14.567 6 15.902 6 17.59c0 1.687 1.258 3.023 2.891 3.023 1.304 0 2.163-.817 2.154-.826-.379-.766-.676-.702-1.838-.532a2.19 2.19 0 01-.316.022c-.85 0-1.406-.655-1.508-1.165h4.014c.01-.219.01-.437.01-.546 0-1.774-1.235-3-2.708-3zm-1.316 2.488c.046-.51.442-1.165 1.316-1.165.895 0 1.326.668 1.349 1.165H7.383zM29.05 14.567c-1.598 0-2.868 1.323-2.868 3.023 0 1.687 1.27 3.023 2.869 3.023 1.598 0 2.868-1.336 2.868-3.023 0-1.7-1.27-3.023-2.868-3.023zm0 4.686c-.918 0-1.485-.765-1.485-1.663 0-.899.567-1.664 1.486-1.664.918 0 1.485.765 1.485 1.664 0 .898-.567 1.663-1.485 1.663zM15.118 14.567c-1.134 0-1.61.983-1.61.983v-.005-.049l-.002.001a.809.809 0 00-.789-.784h-.479v5.754H13.6v-3.8s.363-.74 1.066-.74c.59 0 1.066.351 1.066 1.177v3.363h1.36v-3.728c0-1.383-.93-2.172-1.973-2.172zM25.45 14.567c-.998 0-1.463.983-1.463.983v-.068l-.003.002a.803.803 0 00-.81-.774v.002h-.479v5.755h1.36v-3.763s.375-.778 1.202-.778c.397 0 .647.134.647.134l.476-1.312s-.442-.181-.93-.181zM35.457 14.567c-1.109 0-1.62.894-1.621.897v-.062c-.001.001 0 .02-.005-.018-.03-.413-.349-.647-.684-.67v-.002H32.577v8.547h1.36v-3.387c.182.243.67.741 1.52.741 1.394 0 2.618-1.25 2.618-3.023 0-1.773-1.224-3.023-2.618-3.023zm-.238 4.686c-.896 0-1.282-.8-1.282-.8v-1.725s.386-.802 1.282-.802c.918 0 1.473.717 1.473 1.664s-.555 1.663-1.473 1.663zM42.799 15.465s-.5-.898-1.621-.898c-1.395 0-2.62 1.25-2.62 3.023 0 1.772 1.225 3.023 2.62 3.023 1.156 0 1.62-.898 1.62-.898v.031l.007-.007c.05.439.4.706.763.726v.002h.49v-5.755h-1.26v.753zm-.103 2.987s-.396.801-1.27.801c-.918 0-1.485-.716-1.485-1.663 0-.947.567-1.664 1.486-1.664.873 0 1.27.802 1.27.802v1.724zM49.333 14.712l-1.418 4.213-1.814-4.213h-1.507l2.618 5.889-.237.652h.002c-.163.384-.41.727-.633.925-.046.044-.092.082-.138.12-.415.319-.569.615-.423 1.068l-.003.002.019.053.207.565c.361-.094.93-.368 1.441-.98.34-.405.65-.924 1.211-2.522l2.137-5.772h-1.462zM20.709 19.253c-.364 0-.704-.206-.704-.91v-2.32h1.622v-1.31h-1.622v-1.119.125c0-.636-.434-.718-.66-.718l.082-.001h-.782v1.712h-1.054v1.311h1.054v2.55c0 1.226.793 2.04 1.837 2.04.782 0 1.292-.377 1.292-.377l-.499-1.19s-.26.207-.566.207z"/></g></g></svg>