<?xml version="1.0" encoding="UTF-8"?><svg width="56" height="36" viewBox="0 0 56 36" xmlns="http://www.w3.org/2000/svg"><g fill="none" fill-rule="evenodd"><path d="M0 3.75A3.749 3.749 0 013.75 0h48.5A3.756 3.756 0 0156 3.75v28.5A3.749 3.749 0 0152.25 36H3.75A3.756 3.756 0 010 32.25V3.75z" fill="#000" fill-rule="nonzero"/><path d="M1.25 3.75v28.5c0 1.375 1.123 2.5 2.5 2.5h48.5c1.382 0 2.5-1.118 2.5-2.5V3.75c0-1.375-1.123-2.5-2.5-2.5H3.75a2.499 2.499 0 00-2.5 2.5z" fill="#FFF"/><path fill="#004772" d="M4 25.995h48.914V10.087H4z"/><path d="M13.067 17.192c0-.886-.12-1.364-.657-1.364-.633 0-.74.513-.74 1.364h1.397zm-1.398 1.096v.385c0 .98.144 1.458.705 1.458.502 0 .657-.362.705-1.155h1.792c-.035 1.563-.908 2.321-2.509 2.321-2.437 0-2.628-1.667-2.628-3.545 0-1.773.525-3.09 2.628-3.09 2.402 0 2.57 1.48 2.57 3.626h-3.263zM17.787 16.434h.55c.8 0 .991-.49.991-1.05 0-.64-.215-1.13-1.027-1.13h-.514v2.18zm-2.008-3.627h3.107c2.115 0 2.521 1.493 2.521 2.531 0 1.493-.729 2.542-2.736 2.542h-.884v3.254h-2.008v-8.327zM24.108 19.99c.406 0 .776-.232.776-.862 0-.525.012-.851.012-1.108-.61.315-.872.327-1.051.467-.203.151-.299.35-.299.7 0 .5.203.804.562.804zm-2.247-3.23c.012-.862.275-1.387.73-1.69.453-.303 1.003-.409 1.804-.409 1.589 0 2.294.537 2.294 1.866v3.242c0 .479 0 1.085.227 1.365h-1.864a2.862 2.862 0 01-.108-.723h-.024c-.263.56-.872.886-1.517.886-1.088 0-1.72-.56-1.72-1.924 0-.735.31-1.353.788-1.61.478-.256 1.195-.373 1.732-.512.586-.152.693-.245.693-.724 0-.384-.179-.63-.61-.63-.537 0-.692.316-.704.864h-1.72zM27.238 14.825h2.008l.788 4.42h.024l.753-4.42h1.936l-1.733 6.355c-.442 1.621-.896 2.006-2.402 2.006-.31 0-.585 0-.836-.023v-1.33c.155.024.323.047.478.047.37 0 .705-.151.813-.7l-1.829-6.355M32.83 21.134h1.864v-2.1H32.83zM38.446 19.921c.729 0 .753-.968.753-1.982 0-1.143-.036-1.901-.741-1.901-.657 0-.705.863-.705 1.982 0 1.225.12 1.901.693 1.901zm-2.593-7.114h1.936v2.706h.024c.322-.676.908-.852 1.446-.852 1.589 0 1.875 1.412 1.875 3.37 0 2.356-.692 3.266-1.995 3.266-.86 0-1.255-.501-1.398-.933h-.024v.77h-1.864v-8.327zM44.588 19.606c.525 0 .728-.373.728-1.796 0-1.154-.143-1.702-.705-1.702-.633 0-.728.723-.728 1.76 0 1.318.179 1.738.705 1.738zm.8-4.781h1.793v6.087c0 1.423-.646 2.367-2.69 2.367-1.875 0-2.425-.804-2.425-1.749h1.793c.036.175.095.304.203.385.12.082.275.128.478.128.645 0 .776-.408.776-1.609v-.385h-.023c-.263.723-.873.933-1.53.933-1.398 0-1.816-1.352-1.816-3.09 0-1.493.203-3.23 1.888-3.23.872 0 1.302.443 1.53 1.014h.023v-.851z" fill="#FFFFFE"/></g></svg>