<?xml version="1.0" encoding="UTF-8"?><svg width="56" height="36" viewBox="0 0 56 36" xmlns="http://www.w3.org/2000/svg"><defs><linearGradient x1="52.414%" y1="-1.297%" x2="47.367%" y2="86.409%" id="a"><stop stop-color="#F0B90D" offset="0%"/><stop stop-color="#EC3C1F" offset="100%"/></linearGradient><linearGradient x1="48.541%" y1="-19.228%" x2="55.63%" y2="157.595%" id="b"><stop stop-color="#F0B90D" offset="0%"/><stop stop-color="#EC3C1F" offset="100%"/></linearGradient><linearGradient x1="49.872%" y1=".281%" x2="50.098%" y2="194.433%" id="c"><stop stop-color="#F0B90D" offset="0%"/><stop stop-color="#EC3C1F" offset="100%"/></linearGradient><linearGradient x1="49.825%" y1=".055%" x2="50.038%" y2="82.663%" id="d"><stop stop-color="#F0B90D" offset="0%"/><stop stop-color="#EC3C1F" offset="100%"/></linearGradient></defs><g fill="none" fill-rule="evenodd"><path d="M0 3.75A3.749 3.749 0 013.75 0h48.5A3.756 3.756 0 0156 3.75v28.5A3.749 3.749 0 0152.25 36H3.75A3.756 3.756 0 010 32.25V3.75z" fill="#000" fill-rule="nonzero"/><path d="M1.25 3.75v28.5c0 1.375 1.123 2.5 2.5 2.5h48.5c1.382 0 2.5-1.118 2.5-2.5V3.75c0-1.375-1.123-2.5-2.5-2.5H3.75a2.499 2.499 0 00-2.5 2.5z" fill="#FFF"/><g fill-rule="nonzero"><path d="M.6 2.994c-.39 0-.58.188-.58.58v7.305c0 .39.188.58.58.58h7.276c.389 0 .578-.187.578-.58V6.616H5.422c-.389 0-.579-.188-.579-.58V2.993H.6z" fill="url(#a)" transform="translate(4 12)"/><path d="M5.955 5.82h1.704c.144 0 .217-.074.217-.203v-1.71c0-.144-.073-.218-.217-.218H5.955c-.144 0-.217.074-.217.218v1.71c.002.129.073.202.217.202z" fill="url(#b)" transform="translate(4 12)"/><path d="M8.093 2.82V.02H5.452c-.389 0-.579.189-.579.581V2.82h3.22z" fill="url(#c)" transform="translate(4 12)"/><path d="M11.356.601c0-.39-.187-.58-.578-.58H8.093v2.796h.073c.174.014.304.057.389.144.1.101.144.246.144.434v3.203h2.079c.388 0 .578-.189.578-.581V.6zm-.634.928v.063l-.104-.063h.104z" fill="url(#d)" transform="translate(4 12)"/><path d="M25.98 21.341c.131.014.159-.03.088-.13l-.419-.435a5.5 5.5 0 01-1.546 1.13l.304.55a9.929 9.929 0 001.574-1.115zm-3.795-2.638v-2.681h-4.201v2.695h.98c-.33.682-.966 1.247-1.904 1.68l.274.538c.68-.35 1.169-.71 1.473-1.059h.78c-.275.726-1.04 1.348-2.28 1.841l.304.538c1.443-.666 2.296-1.465 2.54-2.363h.838c-.158.753-.766 1.449-1.834 2.101l.304.494c1.198-.77 1.891-1.623 2.078-2.595h.767l-.087 1.536c-.014.32-.13.478-.348.478h-.78l.117.564h.81c.461 0 .706-.231.736-.681l.13-2.376h-3.73c.144-.175.275-.407.39-.666h2.64l.003-.044zm-.563-1.088v.622h-3.09v-.622h3.09zm0-1.13v.653h-3.09v-.652h3.09zm7.967 3.16v-.565h-4.605v.565h4.605zm-.85 1.131l-.419.434c.766.652 1.4 1.045 1.921 1.19l.231-.653c-.434-.087-.997-.422-1.733-.97zm1.66-.147v-.564h-6.236v.564h2.829v1.13c0 .073-.044.117-.117.117h-.389l.117.565h.505c.304 0 .462-.159.462-.478V20.63H30.4zm-.231-4.173v-.565H24.32v.565h1.92v.565h-1.516v1.623h5.054V17.02h-1.546v-.565h1.935zm-2.497 0v.565h-.867v-.565h.867zm.562 1.726V17.5h.981v.682h-.98zm-.562-.682v.682h-.867V17.5h.867zm-2.383.682V17.5h.953v.682h-.953zm8.605-.638l.26.262c.202-.058.433-.088.664-.088h.592v1.552h-1.777l.261.276a2.46 2.46 0 01.663-.101h.851a3.332 3.332 0 01-.476 1.653 4.052 4.052 0 01-1.271 1.304l.043.087c.636-.276 1.141-.682 1.503-1.233.361-.55.549-1.16.592-1.855.057.595.201 1.146.448 1.653.245.507.535.941.894 1.304.101-.188.304-.29.62-.29v-.116c-.389-.145-.766-.45-1.098-.914-.347-.464-.606-1-.75-1.61h1.848l-.505-.55-.405.376h-1.068v-1.522h1.717l-.505-.564-.375.376h-.663c.244-.39.535-.854.866-1.377l.275-.131-.636-.434a9.557 9.557 0 01-.679 1.942h-1.889zm.028-1.552l-.348.363h-2.426l.26.275c.202-.057.348-.1.405-.1v4.377c-.117.044-.318.074-.592.117l.274.595c.144-.202.707-.494 1.674-.87 0 .652-.014 1.232-.03 1.74l.419-.232c-.014-.202-.03-.377-.03-.521V20.59l.737-.275-.03-.117-.707.218v-3.903h.85l-.456-.52zm-1.761.521h1.01v1.334h-1.01v-1.334zm0 1.508h1.01v1.247h-1.01v-1.247zm0 2.783v-1.361h1.01v1.085l-1.01.276zm3.176-4.086c-.014-.131-.087-.276-.201-.42-.117-.159-.318-.35-.579-.581l-.087.057c.202.363.348.725.405 1.086.057.376.158.477.304.319.128-.158.188-.317.158-.461zm12.792 2.55c.305.377.579.854.837 1.421l.563-.376a9.475 9.475 0 00-.867-1.392l-.533.347zm-6.208-3.521h-.622v.94h-2.699v.565h2.699v1.059h-2.05v.564h.881c.26.682.636 1.32 1.125 1.885-.75.45-1.674.783-2.785 1.001l.26.682c1.185-.29 2.18-.726 3.003-1.276.636.537 1.574.957 2.815 1.246l.218-.74c-1.068-.201-1.905-.506-2.527-.913.562-.507 1.081-1.216 1.546-2.13l.116-.058-.476-.433-.173.174h-1.285v-1.058h2.728v-.565h-2.728v-.71c.155-.103.141-.19-.046-.233zm-1.128 3.145h2.08c-.305.594-.68 1.085-1.126 1.464a4.481 4.481 0 01-.954-1.464zm6.888-2.61c.13-.044.158-.102.087-.175l-.592-.232c-.245 1.26-.766 2.289-1.573 3.101l.448.538c.201-.218.405-.478.62-.797v3.666h.562v-4.391c.144-.117.13-.202-.057-.246.23-.477.389-.971.505-1.465zm3.177-.203c.13-.1.13-.158-.03-.174h-.535v1.68h-2.527v.567h2.527v3.464c0 .074-.044.118-.117.118h-.766l.144.564h.837c.304 0 .448-.158.448-.463v-3.683h1.155v-.564h-1.155v-1.509h.019z" fill="#E87018"/></g></g></svg>