<?xml version="1.0" encoding="UTF-8"?><svg width="56" height="36" viewBox="0 0 56 36" xmlns="http://www.w3.org/2000/svg" xmlns:xlink="http://www.w3.org/1999/xlink"><defs><path d="M22.618 26.305c0 .735-.596 1.33-1.333 1.33h-19.9a1.331 1.331 0 01-1.332-1.33V1.418C.053.683.7.14 1.437.14h19.9c.737 0 1.281.543 1.281 1.278v24.887zM8.694 5.842c1.994-1.133 4.332-.888 6.28.991l-8.458 4.809c-.736-2.488.184-4.667 2.178-5.8zm5.988 9.755c-2.205 1.254-5.209.822-6.674-1.332l12.144-6.904-.33-.58c-3.28-5.764-9.25-5.72-12.301-3.985-5.105 2.902-5.862 8.459-3.642 12.363 2.222 3.904 7.385 6.095 12.49 3.193 1.657-.967 2.926-2.416 3.758-4.168l-2.885-1.688c-.473 1.333-1.327 2.4-2.56 3.1z" id="a"/><path d="M6.034 2.245a5.346 5.346 0 011.114-.479L3.479.127C1.202 1.935.128 4.38.046 6.803l3.616.357c-.304-2.113.619-3.919 2.372-4.915z" id="c"/></defs><g fill="none" fill-rule="evenodd"><path d="M0 3.75A3.749 3.749 0 013.75 0h48.5A3.756 3.756 0 0156 3.75v28.5A3.749 3.749 0 0152.25 36H3.75A3.756 3.756 0 010 32.25V3.75z" fill="#000" fill-rule="nonzero"/><path d="M1.25 3.75v28.5c0 1.375 1.123 2.5 2.5 2.5h48.5c1.382 0 2.5-1.118 2.5-2.5V3.75c0-1.375-1.123-2.5-2.5-2.5H3.75a2.499 2.499 0 00-2.5 2.5z" fill="#FFF"/><g><path d="M17.307 30.585V5.45c0-.595.533-1.08 1.188-1.08h20.1c.626 0 1.081.454 1.081 1.08v25.136c0 .625-.509 1.133-1.135 1.133H18.442a1.135 1.135 0 01-1.135-1.133zm1.287-26.498c-.88 0-1.594.667-1.594 1.487V30.46c0 .849.692 1.539 1.542 1.539h19.9c.85 0 1.542-.69 1.542-1.539V5.574c0-.848-.64-1.487-1.49-1.487h-19.9z" fill="#FFFFFE"/><path d="M39.775 30.461c0 .735-.597 1.33-1.333 1.33h-19.9a1.331 1.331 0 01-1.333-1.33V5.574c0-.735.649-1.278 1.385-1.278h19.9c.736 0 1.28.543 1.28 1.278V30.46" fill="#71397C"/><path d="M17.209 25.316v5.145c0 .735.596 1.33 1.333 1.33h19.9c.736 0 1.333-.595 1.333-1.33v-5.145H17.209" fill="#1A1919"/><path d="M23.81 27.951l1.098-.622-.007 1.29-1.09-.668zm9.55-1.592h.717v1.977c0 .564.344.8.786.8.558 0 .827-.347.827-.87V26.36h.717v3.265c0 1.03-.903 1.483-1.524 1.483-.751 0-1.09-.285-1.413-.661l.607-.376c.227.222.455.355.765.355.476 0 .89-.293.89-.884v-.181h-.014c-.283.32-.545.459-1.007.459-.745 0-1.352-.564-1.352-1.51v-1.95zm-1.252 3.37h.717v-3.37h-.717v.41h-.014c-.186-.285-.566-.5-1.062-.5-1.083 0-1.765.946-1.765 1.775 0 .87.634 1.775 1.73 1.775.456 0 .869-.195 1.097-.501h.014v.41zm-2.082-1.685c0-.606.482-1.094 1.061-1.094.566 0 1.048.488 1.048 1.094 0 .605-.482 1.093-1.048 1.093-.58 0-1.061-.488-1.061-1.093zm-3.909-1.685H25.4v4.532h.717v-1.573h.014c.186.285.566.501 1.062.501 1.082 0 1.765-.947 1.765-1.775 0-.87-.634-1.776-1.73-1.776-.456 0-.842.181-1.097.502h-.014v-.411zm2.083 1.685c0 .605-.483 1.093-1.062 1.093-.566 0-1.048-.488-1.048-1.093 0-.606.482-1.094 1.048-1.094.579 0 1.062.488 1.062 1.094zm-6.538-1.023c.395-.225.86-.176 1.246.196l-1.678.955c-.146-.494.036-.926.432-1.151zm1.188 1.936c-.438.248-1.034.163-1.324-.265l2.409-1.37-.066-.115c-.65-1.143-1.835-1.135-2.44-.79-1.013.575-1.163 1.678-.722 2.453.44.774 1.465 1.209 2.478.633.328-.192.58-.48.745-.827l-.572-.335a1.117 1.117 0 01-.508.616zM25.85 9.999c1.994-1.134 4.332-.889 6.281.99l-8.458 4.81c-.736-2.489.184-4.667 2.178-5.8zm5.989 9.754c-2.205 1.254-5.21.823-6.674-1.331l12.143-6.905-.33-.579c-3.279-5.765-9.25-5.72-12.3-3.986-5.106 2.903-5.863 8.46-3.642 12.364 2.221 3.904 7.385 6.095 12.49 3.192 1.656-.967 2.926-2.415 3.757-4.167l-2.885-1.689c-.472 1.334-1.326 2.4-2.56 3.101z" fill="#FFFFFE"/><g transform="translate(17.156 4.156)"><mask id="b" fill="#fff"><use xlink:href="#a"/></mask><path d="M.148 9.431l-.193.013.1.947.195-.013-.036-.328h.004c.057.056.164.094.298.085.293-.019.456-.228.437-.402-.02-.181-.21-.36-.507-.34a.403.403 0 00-.285.124H.157L.148 9.43zm.6.316c.014.126-.106.236-.262.247-.152.01-.294-.084-.307-.21-.014-.127.106-.237.258-.247.157-.01.298.083.311.21z" fill="#C8BACB" mask="url(#b)"/><path d="M.555 9.377l.091-.007.004.05h.002a.097.097 0 01.085-.07.101.101 0 01.054.011l-.028.1a.07.07 0 00-.037-.011.067.067 0 00-.062.073l.021.3-.097.007-.033-.453M1.635 9.982a.328.328 0 01-.26.164c-.14.01-.279-.086-.3-.23l.772-.05-.002-.037a.504.504 0 00-.515-.5.498.498 0 00-.482.531c.016.25.22.486.544.466a.562.562 0 00.418-.259l-.175-.085zm-.57-.234c.023-.143.123-.23.249-.238.127-.008.237.06.288.203l-.537.035z" fill="#C8BACB" mask="url(#b)"/><path fill="#C8BACB" mask="url(#b)" d="M1.432 9.426l.188-.01.005.093-.188.01-.005-.093M1.946 9.31l-.198.006.051.964.198-.006-.017-.335h.003c.055.059.162.102.299.097.298-.01.476-.217.466-.394-.01-.185-.194-.372-.497-.362a.42.42 0 00-.296.117H1.95l-.004-.088zm.593.34c.007.128-.12.236-.28.24-.157.006-.295-.093-.301-.222-.008-.13.12-.237.277-.242.16-.005.297.094.304.223z"/><path d="M3.124 10.228l.2-.005-.023-.948-.2.005.003.116h-.003c-.054-.08-.16-.137-.299-.134-.3.007-.484.278-.478.512.005.244.188.495.492.487a.38.38 0 00.302-.148h.004l.002.115zm-.59-.46a.302.302 0 01.288-.315.302.302 0 01.299.3.303.303 0 01-.284.315.3.3 0 01-.302-.3z" fill="#C8BACB" mask="url(#b)"/><path d="M2.956 9.266l.098-.001.001.267c.001.076.048.108.108.107.076 0 .113-.047.112-.118l-.001-.257h.098l.002.44c.001.14-.122.201-.206.202a.224.224 0 01-.193-.089l.082-.05c.031.029.062.047.104.046.065 0 .121-.04.121-.12V9.67H3.28a.162.162 0 01-.137.063c-.102 0-.185-.075-.186-.203l-.001-.263M4.553 9.94a.331.331 0 01-.275.14c-.14-.003-.27-.111-.278-.256l.776.02v-.037a.507.507 0 00-.47-.546.497.497 0 00-.529.486.498.498 0 00.503.514.56.56 0 00.44-.22l-.167-.1zm-.55-.285c.037-.14.143-.218.271-.215.127.004.232.083.27.23l-.54-.015z" fill="#C8BACB" mask="url(#b)"/><path fill="#C8BACB" mask="url(#b)" d="M4.41 9.393l.187.01-.004.091-.188-.009.004-.092M5.006 9.315l-.19-.012-.088.989.19.011.03-.343h.004c.044.066.14.12.272.127.287.018.487-.178.503-.358.017-.19-.134-.398-.425-.416a.414.414 0 00-.3.092h-.004l.008-.09zm.52.401c-.012.132-.15.23-.303.221-.15-.009-.269-.123-.257-.255.012-.132.15-.23.3-.221.153.009.271.123.26.255z"/><path d="M6.057 10.341l.19.022.102-.915-.19-.023-.013.112h-.004c-.04-.084-.135-.155-.267-.17-.287-.034-.497.201-.523.427-.026.236.115.502.407.537a.362.362 0 00.307-.102h.003l-.012.112zm-.503-.524a.29.29 0 01.315-.263c.15.018.264.166.246.33-.018.164-.161.282-.311.264a.295.295 0 01-.25-.33z" fill="#C8BACB" mask="url(#b)"/><path d="M6.053 9.432l.096.017-.044.262c-.013.076.028.115.088.125.075.013.119-.028.13-.097l.043-.254.097.016-.073.435c-.024.137-.155.177-.239.163a.223.223 0 01-.175-.12l.09-.036c.026.034.054.057.095.064.064.01.126-.019.14-.098l.004-.024h-.002a.162.162 0 01-.146.039c-.1-.017-.169-.106-.148-.232l.044-.26M7.25 9.656l-.16-.045-.295.955.161.045.102-.332.003.001c.024.071.095.14.206.171a.42.42 0 00.512-.264.378.378 0 00-.273-.482.336.336 0 00-.28.038l-.002-.001.027-.086zm.359.484c-.04.128-.18.2-.31.164a.236.236 0 01-.164-.295c.04-.128.18-.2.306-.165.13.036.207.168.168.296z" fill="#C8BACB" mask="url(#b)"/><path d="M7.58 9.802l.087.03-.016.047h.002a.097.097 0 01.104-.03c.02.007.037.019.046.031l-.064.08a.072.072 0 00-.03-.024.067.067 0 00-.087.043l-.097.285-.093-.032.148-.43M8.492 10.714a.33.33 0 01-.305.045c-.133-.048-.225-.19-.187-.33l.734.264.013-.034a.509.509 0 00-.28-.665.495.495 0 00-.655.292.5.5 0 00.32.644c.16.056.334.028.488-.068l-.128-.148zm-.436-.443c.079-.121.204-.161.325-.118.12.044.195.152.187.303l-.512-.185z" fill="#C8BACB" mask="url(#b)"/><path fill="#C8BACB" mask="url(#b)" d="M8.423 10.215l.176.067-.032.086-.176-.066.032-.087M9.083 10.298l-.15-.06-.366.942.15.059.127-.327.002.001c.016.075.078.15.181.191a.4.4 0 00.512-.224.388.388 0 00-.217-.51.305.305 0 00-.27.014l-.003-.001.034-.085zm.298.52a.24.24 0 01-.31.14.242.242 0 01-.13-.312.24.24 0 01.307-.142c.12.048.182.189.133.315z"/><path d="M9.766 11.45l.163.07.312-.775-.164-.069-.037.095-.004-.001c-.015-.084-.082-.17-.195-.217a.437.437 0 00-.567.24c-.08.2-.02.468.23.573a.33.33 0 00.296-.011l.004.001-.038.095zm-.32-.585a.264.264 0 01.344-.15.27.27 0 01.137.35.261.261 0 01-.34.152.272.272 0 01-.14-.352z" fill="#C8BACB" mask="url(#b)"/><path d="M9.959 10.71l.09.039-.105.246c-.03.07 0 .117.056.141.07.03.122.001.15-.064l.1-.237.09.039-.173.405c-.054.128-.192.136-.27.103a.224.224 0 01-.141-.158l.095-.014c.017.04.039.068.078.085.06.025.127.011.158-.062l.01-.023h-.002a.163.163 0 01-.15.003c-.094-.04-.14-.143-.09-.26l.104-.242M11.556 11.996a.33.33 0 01-.308.02c-.129-.058-.208-.208-.16-.344l.711.324.016-.033a.507.507 0 00-.225-.684.495.495 0 00-.676.236.498.498 0 00.266.667.567.567 0 00.492-.028l-.116-.158zm-.398-.476c.088-.114.217-.143.333-.09.117.053.183.167.161.316l-.494-.226z" fill="#C8BACB" mask="url(#b)"/><path fill="#C8BACB" mask="url(#b)" d="M11.477 11.501l.17.08-.038.083-.17-.079.038-.084M12.107 11.608l-.141-.07-.418.93.14.07.146-.323.003.002c.01.076.065.158.162.207.214.106.435-.022.511-.191.08-.179.04-.427-.176-.534a.286.286 0 00-.262-.005l-.003-.001.038-.085zm.255.55a.23.23 0 01-.31.12c-.112-.055-.162-.202-.106-.327a.229.229 0 01.308-.12c.113.056.163.203.108.327z"/><path d="M12.689 12.774l.157.077.353-.744-.157-.077-.043.091-.003-.002c-.01-.083-.071-.171-.18-.225a.433.433 0 00-.573.202c-.09.192-.047.46.193.579.1.048.211.05.293.007h.003l-.043.092zm-.28-.596a.26.26 0 01.347-.127c.124.06.18.22.116.354a.26.26 0 01-.345.128.269.269 0 01-.118-.355z" fill="#C8BACB" mask="url(#b)"/><path d="M12.893 12.058l.089.043-.118.24c-.034.068-.005.117.049.144.068.033.122.007.153-.056l.113-.231.088.043-.194.395c-.061.125-.199.126-.275.089a.224.224 0 01-.134-.165l.097-.01c.015.041.035.071.073.09.058.028.126.017.161-.054l.011-.022-.002-.001a.163.163 0 01-.15-.005c-.092-.044-.132-.15-.076-.264l.115-.236M13.945 12.501l-.139-.072-.43.926.139.074.149-.322h.002c.01.078.063.161.159.212.21.11.432-.013.51-.183.083-.178.046-.428-.166-.54a.28.28 0 00-.26-.01h-.003l.04-.085zm.243.558c-.057.124-.197.174-.31.115-.108-.058-.156-.207-.098-.33.057-.125.197-.175.306-.118.113.06.16.21.102.333z" fill="#C8BACB" mask="url(#b)"/><path d="M14.184 12.694l.083.04-.022.045.001.001a.097.097 0 01.108-.016c.02.01.034.023.042.036l-.075.072a.07.07 0 00-.026-.028.067.067 0 00-.092.031l-.133.27-.087-.043.201-.408M14.987 13.663a.335.335 0 01-.308.011c-.127-.062-.202-.214-.15-.348l.701.344.016-.033a.507.507 0 00-.205-.69.496.496 0 10-.436.89c.152.073.33.065.493-.013l-.11-.161zm-.385-.488c.092-.11.221-.136.336-.08.115.057.178.172.153.32l-.489-.24z" fill="#C8BACB" mask="url(#b)"/><path fill="#C8BACB" mask="url(#b)" d="M14.917 13.173l.17.081-.04.083-.17-.081.04-.083M15.547 13.284l-.142-.07-.414.932.142.069.143-.323h.003a.285.285 0 00.164.207c.215.104.436-.024.511-.195.08-.178.037-.426-.18-.531a.285.285 0 00-.262-.003l-.003-.002.038-.084zm.257.547c-.055.125-.195.178-.309.122-.112-.054-.163-.201-.108-.326.056-.124.196-.177.307-.123a.252.252 0 01.11.327z"/><path d="M16.156 14.446l.161.073.332-.76-.16-.073-.04.093-.004-.002c-.013-.083-.077-.17-.187-.22a.435.435 0 00-.57.221.433.433 0 00.211.576.331.331 0 00.295-.002l.003.001-.04.093zm-.299-.591a.261.261 0 01.345-.139.27.27 0 01.127.353.262.262 0 01-.342.14.27.27 0 01-.13-.354z" fill="#C8BACB" mask="url(#b)"/><path d="M16.342 13.709l.09.038-.103.246c-.03.07.002.118.057.14.07.03.123.001.15-.064l.1-.237.09.038-.171.407c-.054.128-.192.136-.27.103a.224.224 0 01-.143-.157l.096-.014c.018.04.039.068.078.084.06.025.127.01.158-.063l.01-.022h-.002a.162.162 0 01-.15.003c-.094-.04-.141-.142-.091-.26l.101-.242M17.707 14.837a.33.33 0 01-.304.04c-.133-.05-.223-.194-.182-.333l.73.277.013-.035a.51.51 0 00-.27-.67.496.496 0 00-.66.283.5.5 0 00.31.648.565.565 0 00.49-.06l-.127-.15zm-.427-.45c.08-.12.206-.158.325-.112.12.046.193.154.183.305l-.508-.193z" fill="#C8BACB" mask="url(#b)"/><path fill="#C8BACB" mask="url(#b)" d="M17.635 14.333l.177.063-.03.087-.178-.063.03-.087M18.274 14.393l-.157-.05-.32.951.158.05.11-.33h.003c.02.073.089.144.198.178a.414.414 0 00.511-.25.38.38 0 00-.254-.492.325.325 0 00-.275.03l-.003-.001.029-.086zm.337.496a.249.249 0 01-.309.156.237.237 0 01-.153-.301.25.25 0 01.307-.157c.127.04.198.175.155.302z"/><path d="M19.06 15.515l.174.051.233-.83-.174-.052-.029.102-.002-.002a.32.32 0 00-.225-.2c-.263-.077-.494.108-.552.312-.06.215.032.484.299.562.11.033.224.014.3-.045l.004.001-.029.101zm-.39-.564a.271.271 0 01.333-.194c.138.04.222.195.18.345a.27.27 0 01-.33.194.28.28 0 01-.183-.345z" fill="#C8BACB" mask="url(#b)"/><path d="M19.167 14.698l.095.024-.065.259c-.018.074.02.116.078.13.074.019.121-.018.138-.086l.063-.25.094.023-.106.428c-.034.135-.168.165-.25.144a.223.223 0 01-.165-.133l.092-.03c.023.038.049.063.09.072.063.016.127-.009.146-.086l.006-.024h-.002a.162.162 0 01-.148.027c-.098-.024-.16-.118-.13-.243l.064-.255M20.287 14.927l-.175-.03-.205.971.174.03.072-.337h.003c.032.069.115.13.235.151.263.044.471-.131.509-.308.04-.187-.074-.406-.34-.452a.367.367 0 00-.288.063h-.004l.019-.088zm.428.446c-.027.13-.166.214-.306.19-.137-.023-.233-.147-.205-.277.027-.13.166-.214.304-.191.14.024.235.148.207.278z" fill="#C8BACB" mask="url(#b)"/><path d="M20.624 15.006l.09.015-.006.048h.001a.097.097 0 01.098-.047c.021.004.04.012.05.022l-.048.09a.072.072 0 00-.035-.018.067.067 0 00-.077.057l-.046.298-.097-.015.07-.45M21.641 15.772a.331.331 0 01-.286.113c-.141-.018-.26-.137-.255-.282l.773.095.004-.037a.51.51 0 00-.419-.589.5.5 0 10-.12.992.562.562 0 00.46-.176l-.157-.116zm-.52-.337c.049-.136.162-.203.288-.187.128.015.225.105.25.254l-.539-.067z" fill="#C8BACB" mask="url(#b)"/><path fill="#C8BACB" mask="url(#b)" d="M21.503 15.227l.188.017-.008.091-.188-.016.008-.092M22.07 15.157l-.195-.008-.062.992.194.008.021-.344h.004c.047.064.146.116.28.121.292.013.49-.186.5-.368.013-.19-.146-.395-.441-.408a.414.414 0 00-.304.097h-.003l.005-.09zm.538.393c-.008.132-.145.233-.302.227-.153-.007-.276-.119-.268-.251.009-.133.146-.234.299-.228.156.007.28.12.271.252z"/><path d="M23.22 16.14h.202v-.948h-.2v.115h-.004c-.053-.08-.159-.141-.298-.142a.505.505 0 00-.497.499c0 .245.177.5.485.5a.383.383 0 00.308-.14h.004v.116zm-.584-.475c0-.171.136-.308.299-.308.159 0 .294.138.294.309 0 .17-.136.307-.295.307a.304.304 0 01-.298-.308zM.203 6.953l-.188.022.176.921.188-.022-.061-.32H.32c.06.052.168.084.298.069.282-.034.424-.247.392-.415-.033-.177-.235-.341-.521-.307a.378.378 0 00-.267.135H.219l-.016-.083zm.61.278c.023.123-.084.237-.235.255-.148.017-.293-.067-.317-.19-.023-.123.084-.237.232-.254.151-.018.296.066.32.189z" fill="#C8BACB" mask="url(#b)"/><path d="M.61 6.86l.092-.013.007.05H.71c.011-.04.041-.07.08-.074.022-.004.041 0 .055.006l-.02.1a.076.076 0 00-.039-.007.067.067 0 00-.057.077l.042.298-.097.014-.063-.45M1.71 7.409a.332.332 0 01-.247.182c-.14.019-.284-.067-.314-.21l.766-.102-.005-.037a.502.502 0 00-.547-.464.5.5 0 00-.444.564c.032.249.251.47.572.427a.565.565 0 00.4-.287l-.18-.073zm-.583-.194c.014-.144.107-.238.232-.255.126-.017.24.045.301.183l-.533.072z" fill="#C8BACB" mask="url(#b)"/><path fill="#C8BACB" mask="url(#b)" d="M1.489 6.85l.186-.023.012.092-.187.023-.011-.092M1.986 6.71l-.19.017.134.936.191-.017-.047-.325h.004c.058.054.165.09.298.078.288-.026.441-.237.417-.408-.027-.18-.222-.352-.514-.326a.39.39 0 00-.277.13h-.004l-.012-.085zm.604.299c.019.125-.095.237-.25.25-.15.014-.293-.075-.311-.2-.018-.125.096-.238.246-.25.154-.014.297.075.315.2z"/><path d="M3.19 7.536l.192-.02-.088-.923-.193.02.012.112h-.004c-.058-.073-.165-.12-.298-.107-.29.03-.448.307-.427.534.023.238.217.469.511.439a.367.367 0 00.28-.168h.004l.01.113zm-.602-.405a.296.296 0 01.255-.328c.152-.016.294.104.31.27.016.166-.1.313-.252.328a.292.292 0 01-.313-.27z" fill="#C8BACB" mask="url(#b)"/><path d="M2.995 6.58l.098-.009.022.266c.006.076.056.104.115.1.076-.007.11-.057.103-.127l-.021-.257.097-.008.037.44c.011.138-.106.209-.19.216a.224.224 0 01-.2-.073l.078-.057c.034.027.066.042.108.039.065-.006.118-.05.111-.13l-.002-.024H3.35a.162.162 0 01-.132.074c-.1.008-.19-.06-.2-.188l-.022-.263M4.616 7.146a.33.33 0 01-.261.162c-.14.008-.279-.088-.298-.232l.772-.044-.002-.037a.504.504 0 00-.512-.505.497.497 0 00-.485.528c.014.25.216.489.54.47a.562.562 0 00.42-.256l-.174-.086zm-.569-.239c.025-.142.125-.228.251-.236.128-.007.237.063.287.205l-.538.031z" fill="#C8BACB" mask="url(#b)"/><path fill="#C8BACB" mask="url(#b)" d="M4.455 6.59l.188-.008.003.092-.187.007-.004-.092M5.013 6.476l-.2.003.022.973.2-.003-.008-.338h.004c.053.061.16.106.298.104.302-.004.488-.21.483-.388-.003-.187-.185-.379-.49-.375a.431.431 0 00-.304.112h-.004l-.001-.088zm.588.354c.003.13-.13.237-.29.239-.158.002-.295-.101-.298-.231-.003-.13.13-.236.287-.24.161-.001.298.102.301.232z"/><path d="M6.201 7.43l.2.003.016-.948-.2-.003-.002.116H6.21c-.05-.082-.156-.144-.294-.147-.302-.004-.497.26-.5.492-.004.245.169.503.475.508a.379.379 0 00.307-.136h.004l-.002.116zm-.573-.483a.303.303 0 01.3-.303.302.302 0 01.288.312.303.303 0 01-.297.304.304.304 0 01-.29-.313z" fill="#C8BACB" mask="url(#b)"/><path d="M6.103 6.475l.097.005-.015.267c-.004.076.04.11.1.114.077.004.116-.04.12-.111l.015-.257.098.005-.026.44c-.008.14-.134.193-.219.189a.225.225 0 01-.187-.1l.086-.047c.029.032.059.052.101.054.065.004.124-.032.128-.112l.001-.024h-.001a.163.163 0 01-.141.054c-.101-.006-.18-.087-.172-.215l.015-.262M7.293 6.571l-.178-.023-.169.976.18.024.058-.34.003.001c.037.068.123.127.247.142.27.036.477-.146.507-.324.033-.187-.093-.403-.366-.44a.382.382 0 00-.293.073h-.004l.015-.089zm.459.431c-.023.13-.162.22-.306.2-.142-.018-.244-.138-.222-.27.023-.13.162-.218.303-.2.144.019.247.14.225.27z" fill="#C8BACB" mask="url(#b)"/><path d="M7.686 6.657l.09.02-.01.05h.001a.097.097 0 01.101-.04.1.1 0 01.049.025l-.055.086a.072.072 0 00-.033-.02.067.067 0 00-.081.051l-.067.293-.096-.021.101-.444M8.66 7.534a.334.334 0 01-.303.058c-.135-.042-.232-.181-.2-.323l.744.234.012-.035a.51.51 0 00-.308-.653.494.494 0 00-.642.32.5.5 0 00.347.63.565.565 0 00.485-.089l-.135-.142zm-.453-.425c.073-.125.197-.17.32-.13.12.037.2.142.198.293l-.518-.163z" fill="#C8BACB" mask="url(#b)"/><path fill="#C8BACB" mask="url(#b)" d="M8.59 7.03l.178.058-.028.088-.179-.059.029-.087M9.253 7.092l-.156-.052-.329.949.155.051.115-.33.003.002c.02.073.086.146.193.18a.412.412 0 00.512-.245.381.381 0 00-.246-.495.32.32 0 00-.274.026h-.003l.03-.086zm.329.501a.248.248 0 01-.31.153.238.238 0 01-.148-.304.247.247 0 01.307-.153.239.239 0 01.15.304z"/><path d="M10.005 8.229l.17.06.274-.802-.17-.06-.033.098-.003-.002c-.02-.083-.092-.167-.21-.208-.254-.091-.491.077-.56.274-.07.207.006.476.264.568.107.039.22.027.298-.027l.004.001-.034.098zm-.353-.576a.267.267 0 01.34-.171.275.275 0 01.157.348.266.266 0 01-.336.172.276.276 0 01-.16-.35z" fill="#C8BACB" mask="url(#b)"/><path d="M10.172 7.457l.092.033-.09.252c-.025.071.009.117.065.137.072.026.122-.006.146-.072l.087-.243.091.033-.147.415c-.047.131-.184.147-.263.119A.224.224 0 0110 7.982l.095-.02c.02.039.042.066.082.08.061.022.128.004.155-.072l.008-.023h-.002a.161.161 0 01-.15.012c-.096-.034-.148-.133-.105-.254l.088-.248M11.59 8.558a.332.332 0 01-.305.044c-.133-.049-.224-.192-.186-.331l.733.267.013-.035a.508.508 0 00-.278-.665.495.495 0 00-.655.289.499.499 0 00.317.645c.16.057.334.03.489-.066l-.128-.148zm-.434-.445c.08-.12.205-.16.324-.116.12.044.195.152.187.302l-.51-.186z" fill="#C8BACB" mask="url(#b)"/><path fill="#C8BACB" mask="url(#b)" d="M11.498 8.05l.176.064-.031.087-.177-.065.032-.087M12.13 8.116l-.153-.056-.35.944.152.056.121-.328h.003c.018.075.081.15.187.188a.405.405 0 00.511-.233.386.386 0 00-.23-.505.312.312 0 00-.27.02l-.003-.001.031-.085zm.31.512a.244.244 0 01-.31.145.24.24 0 01-.137-.309.244.244 0 01.307-.146.241.241 0 01.14.31z"/><path d="M12.824 9.251l.167.063.288-.793-.167-.062-.035.096-.004-.001c-.018-.084-.088-.168-.204-.212-.252-.095-.491.068-.562.263-.074.204-.004.473.25.57.107.04.22.03.299-.022l.003.001-.035.097zm-.341-.58a.266.266 0 01.34-.163c.132.05.204.207.151.35a.265.265 0 01-.337.164.274.274 0 01-.154-.35z" fill="#C8BACB" mask="url(#b)"/><path d="M12.97 8.478l.091.034-.093.25c-.027.072.006.118.063.14.071.026.122-.006.146-.072l.09-.241.092.034-.154.413c-.049.13-.185.145-.264.115a.223.223 0 01-.15-.15l.095-.02a.144.144 0 00.081.082c.061.023.128.005.156-.07l.009-.023h-.003a.161.161 0 01-.15.01c-.095-.035-.146-.135-.101-.255l.091-.247M14.048 8.827l-.152-.056-.354.944.152.056.123-.327.003.001c.017.074.08.149.185.188a.403.403 0 00.511-.232.386.386 0 00-.227-.506.312.312 0 00-.27.019l-.004-.001.033-.086zm.308.515a.243.243 0 01-.31.144.24.24 0 01-.135-.31.242.242 0 01.306-.145.241.241 0 01.14.31z" fill="#C8BACB" mask="url(#b)"/><path d="M14.317 8.98l.086.032-.017.047h.002a.097.097 0 01.105-.026c.02.007.036.02.045.032l-.066.078a.073.073 0 00-.03-.025.067.067 0 00-.088.04l-.104.283-.092-.035.159-.426M15.201 9.898a.331.331 0 01-.305.042c-.132-.05-.222-.194-.183-.333l.73.274.014-.035a.508.508 0 00-.272-.668.495.495 0 00-.659.284.5.5 0 00.313.648.565.565 0 00.489-.063l-.127-.15zm-.43-.449c.08-.12.206-.158.325-.113.12.045.195.154.184.304l-.508-.19z" fill="#C8BACB" mask="url(#b)"/><path fill="#C8BACB" mask="url(#b)" d="M15.13 9.398l.177.065-.032.087-.176-.066.032-.086M15.79 9.476l-.152-.056-.352.944.151.056.123-.328.003.001c.017.074.08.149.186.188a.404.404 0 00.51-.233.384.384 0 00-.227-.504.31.31 0 00-.271.019l-.003-.001.032-.086zm.31.513a.244.244 0 01-.31.145.241.241 0 01-.137-.31.242.242 0 01.307-.145.241.241 0 01.14.31z"/><path d="M16.517 10.624l.167.062.285-.795-.168-.062-.034.097-.004-.002c-.018-.083-.089-.167-.205-.21a.442.442 0 00-.562.264c-.073.206-.001.474.254.57.106.04.22.03.298-.023l.004.002-.035.097zm-.343-.58a.266.266 0 01.34-.165c.131.05.203.206.152.35a.265.265 0 01-.337.166.275.275 0 01-.155-.35z" fill="#C8BACB" mask="url(#b)"/><path d="M16.692 9.858l.093.031-.086.253c-.024.072.01.118.067.137.072.024.122-.008.145-.075l.082-.244.093.031-.141.417c-.045.132-.181.15-.262.124a.224.224 0 01-.153-.147l.094-.021c.02.038.043.065.084.079.062.02.128.001.153-.075l.008-.023h-.002a.161.161 0 01-.15.014c-.096-.032-.15-.13-.11-.252l.085-.25M18.16 10.904a.331.331 0 01-.3.069c-.136-.038-.24-.173-.212-.316l.752.208.01-.036a.51.51 0 00-.33-.643.496.496 0 00-.63.343.5.5 0 00.368.619.566.566 0 00.482-.106l-.14-.138zm-.468-.409c.07-.127.19-.176.314-.142.123.033.207.136.21.287l-.524-.145z" fill="#C8BACB" mask="url(#b)"/><path fill="#C8BACB" mask="url(#b)" d="M18.047 10.377l.184.043-.022.09-.183-.043.021-.09M18.65 10.377l-.172-.031-.215.97.173.03.075-.337.003.001c.031.07.112.132.232.153.26.046.47-.127.509-.304.041-.186-.069-.407-.333-.454a.363.363 0 00-.287.06h-.004l.02-.088zm.422.45c-.028.128-.167.212-.307.188-.136-.025-.23-.15-.2-.28.028-.129.168-.212.303-.188.14.025.233.15.204.28z"/><path d="M19.582 11.447l.187.028.133-.897-.188-.03-.016.11h-.003a.328.328 0 00-.257-.177c-.284-.045-.5.18-.531.4-.034.233.096.5.382.544a.35.35 0 00.306-.089h.003l-.016.11zm-.477-.534a.285.285 0 01.32-.248c.148.022.254.172.23.334-.023.161-.168.271-.315.248a.292.292 0 01-.235-.334z" fill="#C8BACB" mask="url(#b)"/><path d="M19.565 10.546l.097.01-.03.266c-.008.075.035.113.095.12.075.008.117-.035.125-.105l.029-.256.097.01-.049.44c-.016.137-.145.184-.23.175a.223.223 0 01-.18-.11l.087-.042c.028.034.056.055.099.06.064.007.125-.026.133-.105l.003-.025h-.001a.163.163 0 01-.144.046c-.1-.011-.175-.096-.16-.223l.03-.261M20.635 10.64l-.19-.01-.08.99.19.01.028-.344h.004c.044.065.142.118.275.126.288.016.486-.18.501-.362.016-.19-.138-.397-.43-.413a.41.41 0 00-.301.093h-.004l.007-.09zm.526.4c-.01.131-.148.23-.303.222-.15-.008-.27-.122-.26-.254.011-.133.148-.232.299-.224.154.009.275.122.264.255z" fill="#C8BACB" mask="url(#b)"/><path d="M21.004 10.667l.092.004-.003.05h.002a.098.098 0 01.145-.041l-.04.095a.073.073 0 00-.035-.015.067.067 0 00-.071.066l-.015.3-.097-.005.022-.454M22.048 11.357a.333.333 0 01-.276.138c-.14-.004-.27-.113-.278-.258l.777.025.001-.037a.508.508 0 00-.468-.549.496.496 0 00-.531.483.498.498 0 00.5.517.56.56 0 00.441-.217l-.166-.102zm-.548-.288c.037-.14.144-.217.271-.213.129.004.232.084.27.23l-.541-.017z" fill="#C8BACB" mask="url(#b)"/><path fill="#C8BACB" mask="url(#b)" d="M21.87 10.805l.188.003-.002.092-.188-.003.002-.092M22.395 10.71h-.2l-.008.981.2.002.003-.341h.003c.052.062.158.109.296.11.304.001.496-.203.498-.382.001-.189-.175-.386-.48-.387a.435.435 0 00-.309.107h-.004v-.09zm.58.368c-.001.132-.137.237-.3.236-.158 0-.292-.107-.29-.238 0-.132.136-.236.295-.235.161 0 .295.106.294.237zM.723 6.293a.334.334 0 01-.227.208c-.137.035-.29-.034-.335-.172l.752-.188-.009-.036a.502.502 0 00-.595-.4.502.502 0 00-.382.61c.059.243.3.439.617.36a.567.567 0 00.366-.33l-.187-.052zm-.602-.128c-.002-.145.081-.248.204-.279.124-.03.245.018.32.148l-.524.131z"/><path fill="#C8BACB" mask="url(#b)" d="M.505 5.726l.183-.043.02.09-.183.042-.02-.09M1.014 5.545l-.182.03.245.895.181-.03-.085-.31.003-.002c.063.048.17.075.296.053.274-.046.396-.262.351-.426-.047-.172-.256-.323-.534-.276-.114.02-.203.072-.25.146h-.003l-.022-.08zm.617.243c.033.12-.063.236-.21.261-.143.025-.291-.051-.324-.17-.032-.12.064-.237.207-.261.146-.025.295.05.327.17z"/><path d="M2.284 6.232l.183-.036-.166-.875-.183.037.02.106-.003.001c-.062-.065-.17-.102-.297-.076-.276.055-.404.335-.364.55.043.226.25.429.53.373a.357.357 0 00.256-.186h.003l.02.106zm-.616-.331a.287.287 0 01.218-.338c.144-.028.292.074.322.23a.287.287 0 01-.215.338.28.28 0 01-.325-.23z" fill="#C8BACB" mask="url(#b)"/><path d="M2.092 5.287l.097-.016.045.263c.013.075.064.099.124.088.075-.012.103-.065.091-.135l-.043-.254.096-.016.074.435c.024.137-.087.218-.17.232a.224.224 0 01-.206-.056l.073-.063c.036.024.07.036.111.03.064-.012.113-.06.1-.139l-.004-.024h-.002a.162.162 0 01-.125.085c-.1.017-.195-.044-.216-.17l-.045-.26M3.195 5.145l-.19.02.157.928.19-.02-.055-.322h.004c.059.053.166.087.297.074.285-.03.433-.243.404-.412-.03-.178-.229-.346-.517-.316a.385.385 0 00-.273.132H3.21l-.014-.084zm.607.289c.021.124-.09.236-.242.252-.15.016-.293-.07-.314-.195-.021-.124.09-.237.239-.252.152-.016.296.07.317.195z" fill="#C8BACB" mask="url(#b)"/><path d="M3.649 5.059l.091-.01.006.05.002-.001a.097.097 0 01.082-.071.101.101 0 01.054.008l-.023.1a.072.072 0 00-.038-.009.067.067 0 00-.06.076l.032.299-.097.01-.05-.452M4.78 5.639a.327.327 0 01-.256.169c-.14.012-.28-.08-.304-.224l.77-.066-.003-.037a.503.503 0 00-.525-.49.498.498 0 00-.47.542c.02.25.229.482.552.455a.564.564 0 00.412-.268l-.176-.081zm-.574-.223c.02-.143.117-.231.244-.243.127-.01.238.057.292.197l-.536.046z" fill="#C8BACB" mask="url(#b)"/><path fill="#C8BACB" mask="url(#b)" d="M4.616 5.081l.188-.01.005.091-.188.011-.005-.092M5.177 4.961l-.2.004.031.97.199-.003-.01-.337H5.2c.053.06.16.104.298.101.3-.005.484-.212.479-.39-.006-.185-.189-.376-.493-.37a.429.429 0 00-.302.113H5.18l-.003-.088zm.59.35c.004.13-.127.237-.288.24-.157.003-.294-.1-.298-.229-.004-.13.126-.236.283-.24.161-.003.299.1.303.23z"/><path d="M6.368 5.917l.2.005.022-.948-.2-.005-.002.116-.004-.001c-.05-.082-.153-.145-.291-.149-.301-.007-.497.255-.503.489-.006.244.165.504.47.511a.375.375 0 00.307-.134h.004l-.003.116zm-.567-.489a.302.302 0 01.302-.3.303.303 0 01.285.315c-.005.17-.142.305-.3.3a.302.302 0 01-.287-.315z" fill="#C8BACB" mask="url(#b)"/><path d="M6.283 4.964l.097.008-.021.266c-.007.076.038.112.098.117.075.006.116-.038.121-.108L6.6 4.99l.098.008-.036.44c-.011.138-.139.189-.223.182a.224.224 0 01-.185-.105l.087-.043c.028.032.058.052.1.056.064.005.124-.03.13-.11l.002-.024H6.57a.162.162 0 01-.142.05c-.1-.007-.177-.09-.167-.218l.022-.262M7.862 5.755a.33.33 0 01-.294.093c-.14-.027-.251-.154-.236-.298l.765.146.007-.036a.51.51 0 00-.38-.615.496.496 0 00-.6.392.5.5 0 00.416.59.566.566 0 00.472-.146l-.15-.126zm-.499-.371c.059-.132.176-.191.302-.167.126.024.216.12.232.27l-.534-.103z" fill="#C8BACB" mask="url(#b)"/><path fill="#C8BACB" mask="url(#b)" d="M7.762 5.239l.181.047-.023.09-.182-.049.024-.088M8.406 5.265l-.163-.041-.276.958.164.042.095-.333h.003c.026.071.1.139.212.167a.426.426 0 00.511-.273.378.378 0 00-.287-.475.34.34 0 00-.28.043l-.004-.001.025-.087zm.373.476a.257.257 0 01-.309.17.236.236 0 01-.173-.291.255.255 0 01.306-.171.236.236 0 01.176.292z"/><path d="M9.23 6.373l.175.05.226-.837-.175-.05-.028.102h-.003a.317.317 0 00-.226-.199c-.265-.075-.496.113-.551.318-.058.217.036.485.304.56a.34.34 0 00.302-.047h.003l-.027.103zm-.397-.563a.272.272 0 01.333-.198c.139.04.224.194.184.344-.04.15-.192.239-.33.199a.28.28 0 01-.187-.345z" fill="#C8BACB" mask="url(#b)"/><path d="M9.34 5.556l.094.026-.073.257c-.021.074.015.117.074.133.073.021.12-.014.14-.082l.07-.248.094.027-.12.424c-.038.134-.173.16-.254.136a.223.223 0 01-.161-.138l.093-.027c.022.038.047.063.087.075.063.018.128-.005.15-.082l.006-.023h-.002a.162.162 0 01-.148.022c-.098-.028-.157-.124-.122-.247l.071-.253M10.49 5.848l-.16-.045-.295.955.16.045.103-.332.003.001c.023.072.094.141.205.172a.421.421 0 00.512-.265.378.378 0 00-.273-.481.334.334 0 00-.279.037l-.003-.001.027-.086zm.358.484c-.04.128-.18.2-.31.165a.236.236 0 01-.164-.296.253.253 0 01.307-.165c.13.036.206.168.167.296z" fill="#C8BACB" mask="url(#b)"/><path d="M10.81 5.98l.088.026-.014.048h.002a.097.097 0 01.103-.034c.021.007.037.018.048.03l-.061.082a.07.07 0 00-.032-.023.067.067 0 00-.084.047l-.086.288-.094-.028.13-.436M11.75 6.86a.332.332 0 01-.303.061c-.135-.04-.234-.18-.203-.32l.746.226.01-.035a.51.51 0 00-.313-.651.496.496 0 00-.639.327.5.5 0 00.354.627c.16.047.335.01.483-.094l-.136-.141zm-.459-.42c.073-.126.195-.172.318-.134.123.036.204.14.203.292l-.52-.158z" fill="#C8BACB" mask="url(#b)"/><path fill="#C8BACB" mask="url(#b)" d="M11.665 6.349l.18.055-.027.088-.18-.055.027-.088M12.313 6.396l-.159-.048-.31.952.159.048.108-.331h.003c.022.074.09.144.2.177a.417.417 0 00.512-.257.38.38 0 00-.262-.487.33.33 0 00-.276.033l-.004-.001.029-.086zm.345.491a.25.25 0 01-.31.16.236.236 0 01-.156-.3.25.25 0 01.306-.16.237.237 0 01.16.3z"/><path d="M13.088 7.52l.171.055.255-.816-.171-.056-.032.1-.003-.001a.315.315 0 00-.216-.205c-.259-.084-.494.091-.557.292-.065.211.018.48.28.566.109.035.223.02.3-.036l.004.001-.031.1zm-.37-.572a.269.269 0 01.336-.181c.135.043.213.2.168.346a.269.269 0 01-.334.183.278.278 0 01-.17-.348z" fill="#C8BACB" mask="url(#b)"/><path d="M13.227 6.728l.093.03-.083.254c-.024.072.01.117.068.136.072.023.122-.01.143-.077l.08-.244.094.03-.137.419c-.044.132-.18.152-.26.125a.225.225 0 01-.156-.144l.095-.023c.02.038.044.065.084.078.061.02.128 0 .152-.076l.008-.023h-.002a.162.162 0 01-.15.016c-.096-.032-.15-.13-.111-.251l.082-.25M14.748 7.832a.332.332 0 01-.304.049c-.134-.047-.227-.188-.191-.329l.737.256.012-.035a.51.51 0 00-.289-.662.496.496 0 00-.65.302.5.5 0 00.329.64c.16.053.334.023.487-.075l-.131-.146zm-.44-.438c.075-.122.2-.163.321-.122.122.042.198.15.192.3l-.514-.178z" fill="#C8BACB" mask="url(#b)"/><path fill="#C8BACB" mask="url(#b)" d="M14.653 7.321l.177.063-.03.087-.178-.063.03-.087M15.288 7.385l-.152-.056-.35.945.152.055.122-.328.002.002c.018.073.082.147.187.186a.405.405 0 00.512-.234.385.385 0 00-.23-.504.312.312 0 00-.272.02h-.003l.032-.086zm.312.512a.244.244 0 01-.31.145.24.24 0 01-.138-.308.243.243 0 01.307-.147.24.24 0 01.141.31z"/><path d="M15.967 8.521l.165.065.301-.783-.165-.066-.036.096-.004-.001c-.017-.084-.085-.169-.199-.215-.249-.1-.49.058-.565.25-.078.203-.012.472.24.573A.334.334 0 0016 8.424l.003.002-.037.095zm-.329-.584c.055-.14.21-.21.343-.156.13.052.197.21.143.35a.263.263 0 01-.339.158.274.274 0 01-.147-.352z" fill="#C8BACB" mask="url(#b)"/><path d="M16.135 7.716l.094.025-.068.258c-.02.074.018.116.076.132.073.02.12-.017.139-.085l.066-.249.094.025-.113.426c-.035.135-.17.162-.252.14a.225.225 0 01-.163-.135l.093-.028c.022.037.048.062.088.073.063.017.128-.007.148-.084l.006-.024h-.001a.161.161 0 01-.149.025c-.098-.026-.159-.121-.126-.245l.068-.254M17.232 7.984l-.162-.043-.283.958.162.042.099-.332h.003c.024.072.096.14.21.17a.424.424 0 00.51-.27.378.378 0 00-.281-.478.34.34 0 00-.28.04h-.004l.026-.087zm.367.48a.255.255 0 01-.309.167.236.236 0 01-.17-.293.255.255 0 01.307-.169c.13.035.21.166.172.294z" fill="#C8BACB" mask="url(#b)"/><path d="M17.533 8.1l.09.022-.012.049h.002a.097.097 0 01.101-.038.1.1 0 01.049.026l-.057.086a.072.072 0 00-.033-.022.067.067 0 00-.082.05l-.073.292-.095-.024.11-.44M18.495 8.93a.332.332 0 01-.296.086c-.138-.03-.247-.16-.23-.304l.763.164.008-.036a.509.509 0 00-.366-.623.5.5 0 10-.206.976.568.568 0 00.474-.134l-.147-.13zm-.49-.383c.061-.13.18-.187.305-.16.125.027.213.125.226.275l-.531-.115z" fill="#C8BACB" mask="url(#b)"/><path fill="#C8BACB" mask="url(#b)" d="M18.368 8.394l.185.033-.015.09-.186-.032.016-.09M18.956 8.366l-.18-.022-.16.978.18.022.055-.34h.004c.037.068.124.126.249.142.273.034.477-.15.507-.329.03-.187-.096-.402-.372-.436a.387.387 0 00-.294.074h-.003l.014-.09zm.464.428c-.021.13-.16.22-.305.203-.143-.018-.247-.138-.226-.268.022-.131.16-.221.303-.204.146.018.25.138.228.269z"/><path d="M19.954 9.412l.19.02.094-.92-.192-.021-.011.112h-.004a.335.335 0 00-.27-.168c-.29-.03-.499.209-.52.435-.025.238.12.504.413.535a.36.36 0 00.307-.106h.003l-.01.113zm-.51-.52a.291.291 0 01.313-.269c.15.017.266.164.25.33-.017.165-.159.284-.31.268a.296.296 0 01-.254-.33z" fill="#C8BACB" mask="url(#b)"/><path d="M19.893 8.484l.098.007-.02.266c-.006.076.038.112.099.116.075.006.116-.038.12-.109l.02-.256.098.007-.033.44c-.01.138-.138.19-.222.184a.223.223 0 01-.186-.103l.087-.045c.028.032.058.052.1.056.065.004.124-.03.13-.11l.002-.025h-.002a.163.163 0 01-.142.052c-.101-.008-.178-.09-.168-.217l.02-.263M21.474 9.22a.334.334 0 01-.277.135c-.14-.006-.27-.115-.276-.26l.776.031.002-.037a.508.508 0 00-.463-.553.497.497 0 00-.536.479c-.01.25.169.507.496.52a.56.56 0 00.444-.213l-.166-.103zm-.546-.295c.038-.14.146-.215.274-.21.127.005.23.086.266.233l-.54-.023z" fill="#C8BACB" mask="url(#b)"/><path fill="#C8BACB" mask="url(#b)" d="M21.312 8.667l.188.006-.003.092-.188-.005.003-.093M21.856 8.576l-.2-.001-.017.983.2.002.005-.341h.004c.05.062.155.11.294.112.3.003.494-.2.497-.38.004-.189-.17-.387-.474-.39a.432.432 0 00-.307.105h-.005l.003-.09zm.573.373c-.004.13-.14.235-.3.234-.158-.002-.29-.11-.287-.24.001-.132.138-.237.295-.235.161.002.293.11.292.24z"/><path d="M23.025 9.539h.202v-.95h-.202v.116h-.004c-.052-.08-.158-.141-.298-.14a.506.506 0 00-.496.5c0 .244.179.5.486.5a.384.384 0 00.308-.142h.004v.116zm-.585-.475c0-.17.135-.308.298-.308.159 0 .295.137.295.308 0 .17-.136.308-.294.308a.304.304 0 01-.299-.308zM.84 8.788a.333.333 0 01-.25.18c-.138.017-.283-.07-.311-.213l.766-.095-.004-.037a.502.502 0 00-.543-.47.499.499 0 00-.45.56c.031.25.248.473.57.433a.566.566 0 00.401-.284L.84 8.788zm-.581-.2c.015-.144.108-.237.234-.252.126-.016.24.047.3.186l-.534.066z" fill="#C8BACB" mask="url(#b)"/><path fill="#C8BACB" mask="url(#b)" d="M.621 8.283l.187-.021.01.091-.186.021-.01-.091M1.122 8.146L.93 8.16l.121.94.192-.015-.042-.326h.004c.057.055.164.092.297.081.29-.023.448-.234.425-.406-.023-.18-.217-.355-.51-.331a.398.398 0 00-.28.127h-.005l-.01-.085zm.602.305c.017.126-.1.238-.255.25-.151.012-.294-.08-.31-.205-.016-.125.1-.237.252-.248.155-.013.297.078.313.203z"/><path d="M2.321 8.988l.194-.017-.078-.93-.193.018.01.114H2.25c-.057-.075-.164-.125-.298-.113-.292.026-.455.303-.436.531.02.24.212.475.508.449a.37.37 0 00.284-.165h.004l.01.113zm-.6-.414a.299.299 0 01.262-.328c.152-.013.293.11.308.277.013.167-.106.313-.258.327a.295.295 0 01-.312-.276z" fill="#C8BACB" mask="url(#b)"/><path d="M2.131 8.03l.098-.007.019.267c.005.076.054.104.114.1.076-.005.11-.055.104-.125l-.018-.257L2.546 8l.03.44c.01.139-.108.208-.193.214a.224.224 0 01-.198-.075l.079-.057c.033.028.065.044.107.04.065-.004.119-.047.113-.127l-.002-.024H2.48a.161.161 0 01-.132.071c-.101.008-.19-.063-.198-.19L2.13 8.03M3.25 7.93l-.196.007.057.962.197-.006-.02-.335h.004c.055.059.162.1.298.096.298-.01.474-.218.463-.394-.011-.185-.197-.37-.498-.36a.416.416 0 00-.295.117h-.003L3.25 7.93zm.595.337c.008.129-.12.237-.278.243-.156.005-.295-.093-.303-.222-.007-.129.12-.237.275-.242.16-.006.298.093.306.221z" fill="#C8BACB" mask="url(#b)"/><path d="M3.685 7.897l.092-.003.001.05h.002a.097.097 0 01.088-.065.1.1 0 01.054.012l-.032.098a.072.072 0 00-.037-.012.067.067 0 00-.066.07l.01.302-.098.003-.014-.455M4.784 8.54a.332.332 0 01-.268.15c-.14.002-.275-.1-.289-.244l.775-.012v-.038a.506.506 0 00-.492-.525.497.497 0 00-.508.507.497.497 0 00.523.493.563.563 0 00.43-.238l-.171-.094zm-.56-.263c.031-.142.134-.223.261-.225.128-.002.235.072.28.217l-.54.008z" fill="#C8BACB" mask="url(#b)"/><path fill="#C8BACB" mask="url(#b)" d="M4.628 7.987h.188v.092h-.188v-.092M5.158 7.887l-.199-.003-.023.986.198.003.008-.342h.004c.05.063.154.111.291.113.3.005.494-.198.499-.378.004-.19-.166-.389-.47-.393a.428.428 0 00-.306.104h-.004l.002-.09zm.568.376c-.004.132-.14.235-.3.233-.157-.003-.288-.11-.285-.243.003-.13.14-.234.296-.232.16.002.292.11.289.242z"/><path d="M6.266 8.844l.197.008.042-.947-.197-.01-.005.116h-.004c-.047-.084-.15-.149-.286-.155-.297-.015-.497.243-.507.476-.012.245.152.508.453.523a.37.37 0 00.308-.127h.004l-.005.116zm-.552-.502a.3.3 0 01.306-.294c.155.007.282.151.274.321-.007.171-.146.302-.301.295a.303.303 0 01-.28-.322z" fill="#C8BACB" mask="url(#b)"/><path d="M6.225 7.89l.097.008-.02.265c-.005.076.04.112.099.116.076.006.116-.038.121-.108l.02-.257.097.007-.033.44c-.01.138-.138.19-.222.184a.223.223 0 01-.185-.104l.086-.044c.028.032.058.052.1.056.065.004.124-.03.13-.11l.002-.025h-.002a.162.162 0 01-.141.052c-.102-.008-.178-.09-.169-.217l.02-.263M7.846 8.707a.33.33 0 01-.29.107c-.14-.02-.257-.142-.248-.287l.77.11.006-.037a.51.51 0 00-.407-.596.5.5 0 10-.139.99A.564.564 0 008 8.825l-.155-.12zM7.33 8.36c.052-.135.167-.2.293-.182.127.02.222.11.244.259l-.537-.077z" fill="#C8BACB" mask="url(#b)"/><path fill="#C8BACB" mask="url(#b)" d="M7.703 8.172l.185.032-.016.091-.185-.032.016-.091M8.32 8.157l-.171-.033-.229.967.17.033.08-.336h.004c.03.07.109.134.227.157.258.05.468-.121.51-.298.044-.185-.062-.408-.322-.458a.358.358 0 00-.287.056H8.3l.02-.088zm.41.456c-.03.128-.17.21-.307.183-.135-.025-.226-.152-.195-.281.03-.13.17-.211.305-.185.138.027.228.153.197.283z"/><path d="M9.15 9.242l.176.05.224-.838-.176-.05-.027.103-.003-.001a.318.318 0 00-.227-.198c-.266-.075-.496.114-.55.32-.059.216.037.485.305.56a.34.34 0 00.302-.05l.003.002-.027.102zm-.398-.562c.04-.15.19-.239.333-.199a.28.28 0 01.184.344.272.272 0 01-.33.2.28.28 0 01-.187-.345z" fill="#C8BACB" mask="url(#b)"/><path d="M9.25 8.457l.092.035-.096.25c-.028.07.005.117.06.139.072.027.123-.004.149-.07l.092-.24.091.035-.158.412c-.05.13-.187.143-.266.112a.225.225 0 01-.148-.153l.096-.017c.018.04.04.067.08.082.06.024.127.007.156-.068l.009-.022-.002-.001a.163.163 0 01-.15.008c-.095-.036-.145-.137-.1-.256l.096-.246M10.37 8.84l-.149-.06-.375.939.149.06.13-.325h.003a.278.278 0 00.177.195.396.396 0 00.512-.219.391.391 0 00-.21-.515.301.301 0 00-.269.012l-.002-.002.033-.084zm.29.526a.239.239 0 01-.31.137.244.244 0 01-.125-.316.238.238 0 01.306-.137c.12.048.18.19.13.316z" fill="#C8BACB" mask="url(#b)"/><path d="M10.668 9.02l.085.035-.02.046.003.001a.097.097 0 01.106-.023c.02.008.035.02.044.033l-.069.077a.074.074 0 00-.03-.027.067.067 0 00-.088.038l-.115.278-.09-.037.174-.42M11.553 9.971a.334.334 0 01-.307.03c-.13-.056-.214-.202-.17-.34l.72.302.014-.034a.508.508 0 00-.245-.677.495.495 0 00-.669.257.498.498 0 00.287.66.567.567 0 00.49-.044l-.12-.154zm-.412-.464c.084-.117.212-.15.33-.1.118.049.187.16.17.31l-.5-.21z" fill="#C8BACB" mask="url(#b)"/><path fill="#C8BACB" mask="url(#b)" d="M11.507 9.487l.174.073-.036.085-.174-.074.036-.084M12.177 9.593l-.146-.064-.39.936.147.064.135-.325.003.001a.28.28 0 00.173.198c.22.096.44-.039.51-.21.076-.18.024-.423-.199-.52a.295.295 0 00-.265.006l-.004-.002.036-.084zm.279.533a.236.236 0 01-.31.131.246.246 0 01-.119-.319.235.235 0 01.307-.133.246.246 0 01.122.32z"/><path d="M12.842 10.759l.162.07.323-.766-.162-.071-.039.093h-.003c-.015-.084-.08-.17-.192-.22a.436.436 0 00-.568.23c-.083.198-.027.467.22.575a.329.329 0 00.296-.006l.003.001-.04.094zm-.307-.589a.263.263 0 01.344-.144.27.27 0 01.131.352.262.262 0 01-.34.145.27.27 0 01-.135-.353z" fill="#C8BACB" mask="url(#b)"/><path d="M13.053 10.03l.09.038-.105.246c-.03.07 0 .117.056.141.07.03.121.002.15-.063l.101-.237.09.039-.174.405c-.055.128-.192.135-.27.102a.225.225 0 01-.142-.158l.096-.014c.017.04.039.068.077.085.06.025.127.011.16-.062l.009-.022-.002-.001a.161.161 0 01-.15.003c-.094-.04-.14-.143-.09-.26l.104-.242M14.424 11.198a.333.333 0 01-.308.027c-.13-.056-.213-.204-.167-.34l.717.307.015-.034a.507.507 0 00-.24-.68.495.495 0 00-.671.253.498.498 0 00.282.661.57.57 0 00.492-.039l-.12-.155zm-.41-.468c.086-.116.214-.148.332-.098.117.05.186.163.168.312l-.5-.214z" fill="#C8BACB" mask="url(#b)"/><path fill="#C8BACB" mask="url(#b)" d="M14.342 10.698l.173.074-.036.084-.173-.073.036-.085M14.973 10.788l-.146-.064-.387.937.147.063.134-.325.002.001c.014.076.073.154.174.197.22.096.44-.04.512-.211.074-.18.022-.423-.202-.52a.298.298 0 00-.266.008l-.003-.001.035-.085zm.281.531a.236.236 0 01-.31.132.245.245 0 01-.12-.318.236.236 0 01.307-.133c.118.05.175.194.123.32z"/><path d="M15.616 11.939l.163.069.315-.772-.162-.069-.038.094-.003-.001c-.016-.084-.082-.17-.195-.218a.436.436 0 00-.567.237c-.082.199-.023.467.226.573.104.044.216.04.296-.009l.003.002-.038.094zm-.315-.587a.264.264 0 01.344-.148.27.27 0 01.135.352.263.263 0 01-.34.149.273.273 0 01-.14-.353z" fill="#C8BACB" mask="url(#b)"/><path d="M15.787 11.19l.09.036-.102.247c-.029.07.003.118.059.141.07.029.122 0 .148-.066l.099-.238.09.037-.168.408c-.053.128-.19.138-.268.106a.223.223 0 01-.144-.156l.095-.015c.018.04.04.067.078.084.06.024.128.01.158-.065l.01-.022-.002-.001a.16.16 0 01-.15.005c-.095-.038-.142-.14-.093-.259l.1-.243M16.86 11.572l-.147-.062-.378.939.147.061.132-.326.002.001c.015.076.075.153.177.195a.396.396 0 00.512-.217c.073-.18.017-.421-.208-.515a.3.3 0 00-.268.01l-.003-.001.034-.085zm.289.527a.238.238 0 01-.31.135.244.244 0 01-.125-.316.238.238 0 01.307-.137c.12.05.178.193.128.318z" fill="#C8BACB" mask="url(#b)"/><path d="M17.153 11.749l.086.034-.019.046h.002a.098.098 0 01.106-.023c.02.007.036.02.044.032l-.068.077a.074.074 0 00-.029-.025.067.067 0 00-.088.038l-.112.28-.09-.037.168-.422M18.044 12.683a.33.33 0 01-.305.038c-.133-.051-.22-.196-.18-.335l.728.282.013-.035a.508.508 0 00-.265-.67.495.495 0 00-.66.277.5.5 0 00.305.651.569.569 0 00.49-.057l-.126-.151zm-.425-.453c.08-.12.208-.156.327-.11.12.046.192.156.18.306l-.507-.196z" fill="#C8BACB" mask="url(#b)"/><path fill="#C8BACB" mask="url(#b)" d="M17.982 12.185l.176.064-.031.087-.177-.065.032-.086M18.638 12.257l-.155-.052-.332.948.154.052.116-.33.003.002c.02.073.086.146.193.181a.41.41 0 00.512-.243.382.382 0 00-.244-.496.317.317 0 00-.274.025l-.003-.001.03-.086zm.327.503a.247.247 0 01-.31.152.238.238 0 01-.147-.304.247.247 0 01.307-.154.24.24 0 01.15.306z"/><path d="M19.42 13.391l.173.054.245-.822-.173-.054-.03.1-.003-.001a.317.317 0 00-.219-.203c-.26-.081-.494.099-.555.301-.063.213.023.48.288.564a.34.34 0 00.3-.04l.004.001-.03.1zm-.379-.568a.271.271 0 01.336-.187.279.279 0 01.172.346.27.27 0 01-.332.188.278.278 0 01-.176-.347z" fill="#C8BACB" mask="url(#b)"/><path d="M19.553 12.588l.095.025-.068.259c-.02.073.018.116.076.131.074.02.121-.016.139-.085l.066-.249.094.025-.112.427c-.036.134-.17.162-.252.14a.225.225 0 01-.164-.135l.093-.028c.023.037.048.062.089.073.063.016.127-.007.148-.085l.006-.023h-.002a.162.162 0 01-.149.024c-.098-.026-.159-.12-.126-.244l.067-.255M21.066 13.544a.333.333 0 01-.295.092c-.138-.028-.25-.155-.233-.3l.764.151.007-.036a.51.51 0 00-.376-.617.5.5 0 10-.19.98.564.564 0 00.472-.142l-.149-.128zm-.497-.374c.06-.131.177-.19.303-.165.126.025.216.12.23.27l-.533-.105z" fill="#C8BACB" mask="url(#b)"/><path fill="#C8BACB" mask="url(#b)" d="M20.929 13.005l.185.03-.014.09-.185-.029.014-.09M21.504 12.967l-.184-.018-.136.981.184.019.047-.34h.004c.039.066.13.123.257.135.277.028.48-.16.505-.339.026-.188-.11-.4-.391-.429a.39.39 0 00-.295.08h-.004l.013-.089zm.482.419c-.018.13-.155.224-.304.21-.145-.016-.254-.133-.236-.265.018-.13.157-.224.301-.21.149.015.257.133.24.265z"/><path d="M22.546 14.002l.196.012.056-.942-.196-.012-.007.114h-.004a.336.336 0 00-.28-.159c-.296-.018-.498.234-.512.467-.014.243.144.507.443.526.124.008.24-.04.307-.122h.004l-.007.116zm-.54-.507a.3.3 0 01.308-.288c.154.01.277.154.268.324-.01.17-.15.297-.304.287-.159-.01-.281-.154-.272-.323z" fill="#C8BACB" mask="url(#b)"/><path d="M22.44 13.046h.097v.268c-.001.076.046.108.106.108.076 0 .113-.046.113-.117l.001-.257h.098l-.002.441c0 .139-.124.2-.208.2a.225.225 0 01-.193-.091l.083-.05c.031.03.062.048.104.048.065 0 .122-.039.122-.119v-.024h-.002a.162.162 0 01-.137.061c-.102 0-.184-.077-.184-.204l.001-.264" fill="#C8BACB" mask="url(#b)"/></g><g transform="translate(19.816 7.754)"><mask id="d" fill="#fff"><use xlink:href="#c"/></mask><path d="M.464 6.63l.2-.005-.023-.948-.199.005.003.116H.44c-.054-.08-.16-.137-.298-.134-.302.008-.485.279-.48.512.007.245.189.495.494.488a.38.38 0 00.3-.15h.005l.002.116zm-.589-.46a.302.302 0 01.287-.314.302.302 0 01.3.3.303.303 0 01-.285.315.3.3 0 01-.302-.3z" fill="#C8BACB" mask="url(#d)"/><path d="M.296 5.668h.098l.002.266c0 .076.047.108.107.108.077 0 .113-.048.113-.118l-.002-.258h.098l.002.44c.001.14-.122.201-.206.202a.224.224 0 01-.193-.089l.082-.05c.031.03.062.047.105.047.065 0 .12-.04.12-.12V6.07H.62a.162.162 0 01-.137.063c-.101 0-.184-.075-.185-.203l-.002-.263M1.893 6.343a.331.331 0 01-.274.14c-.141-.004-.271-.112-.28-.257l.777.02V6.21a.507.507 0 00-.47-.546.497.497 0 00-.529.486.498.498 0 00.503.514.56.56 0 00.44-.22l-.167-.1zm-.549-.286c.036-.14.142-.218.27-.214.127.003.232.082.27.229l-.54-.015z" fill="#C8BACB" mask="url(#d)"/><path fill="#C8BACB" mask="url(#d)" d="M1.75 5.795l.187.01-.004.091-.188-.009.004-.092M2.346 5.717l-.19-.011-.088.988.19.012.03-.343h.004c.044.065.14.118.272.127.287.017.487-.179.503-.36.017-.189-.134-.397-.425-.414a.414.414 0 00-.3.09h-.004l.008-.089zm.52.402c-.012.132-.15.23-.303.22-.15-.008-.269-.123-.257-.255.012-.131.15-.23.3-.221.153.01.271.123.26.256z"/><path d="M3.397 6.744l.19.022.102-.916-.19-.023-.013.112h-.004c-.04-.084-.135-.154-.267-.17-.287-.034-.497.202-.523.427-.026.236.115.502.407.537a.362.362 0 00.307-.102h.003l-.012.113zm-.503-.524a.29.29 0 01.316-.264c.15.018.263.166.245.33-.018.165-.161.282-.311.264a.295.295 0 01-.25-.33z" fill="#C8BACB" mask="url(#d)"/><path d="M3.393 5.834l.096.017-.044.263c-.013.075.029.114.088.124.075.013.119-.027.13-.097l.043-.254.097.016-.073.435c-.023.137-.155.177-.239.163a.223.223 0 01-.175-.12l.09-.036c.026.035.054.057.095.064.064.011.127-.019.14-.097l.004-.024h-.002a.162.162 0 01-.146.038c-.1-.017-.169-.106-.148-.232l.044-.26M4.59 6.058l-.16-.045-.294.955.16.045.102-.332.004.001c.023.071.094.14.205.172a.42.42 0 00.512-.265.378.378 0 00-.273-.481.336.336 0 00-.279.037l-.003-.001.027-.086zm.359.484c-.04.128-.18.2-.31.164a.236.236 0 01-.164-.295c.04-.128.18-.2.306-.165.13.036.207.169.168.296z" fill="#C8BACB" mask="url(#d)"/><path d="M4.92 6.204l.087.03-.016.047h.002a.097.097 0 01.104-.03c.02.008.037.02.046.031l-.064.08a.072.072 0 00-.03-.024.067.067 0 00-.087.043l-.097.285-.093-.032.148-.43M5.832 7.116a.33.33 0 01-.305.045c-.133-.048-.225-.19-.187-.33l.734.265.013-.035a.509.509 0 00-.28-.665.495.495 0 00-.655.292.5.5 0 00.32.644c.16.056.335.028.489-.068l-.129-.148zm-.436-.443c.079-.121.204-.16.325-.117.12.043.195.151.187.302l-.512-.185z" fill="#C8BACB" mask="url(#d)"/><path fill="#C8BACB" mask="url(#d)" d="M5.763 6.618l.176.066-.032.086-.176-.066.032-.086M6.423 6.7l-.15-.059-.366.941.15.06.127-.328.002.001c.016.075.078.15.182.192a.4.4 0 00.511-.224.388.388 0 00-.217-.51.306.306 0 00-.27.014l-.002-.002.033-.085zm.298.521a.24.24 0 01-.31.14.242.242 0 01-.13-.313.24.24 0 01.307-.142c.12.048.182.189.133.315z"/><path d="M7.106 7.853l.163.069.312-.775-.163-.068-.038.094-.004-.001c-.015-.084-.082-.17-.195-.217a.437.437 0 00-.567.24c-.08.2-.02.469.23.573a.33.33 0 00.296-.011l.004.002-.038.094zm-.319-.585a.264.264 0 01.343-.151.27.27 0 01.137.351.261.261 0 01-.339.152.272.272 0 01-.141-.352z" fill="#C8BACB" mask="url(#d)"/><path d="M7.299 7.113l.09.038-.105.246c-.03.07 0 .117.056.141.07.03.122.002.15-.063l.1-.237.091.038-.174.406c-.054.127-.192.135-.27.102a.224.224 0 01-.141-.158l.095-.014c.017.04.039.068.078.085.06.026.127.012.158-.062l.01-.022-.002-.001a.163.163 0 01-.15.003c-.094-.04-.14-.143-.09-.26l.104-.242M.53 3.938l.192-.02-.088-.922-.192.02.01.112H.45C.392 3.055.284 3.006.15 3.02c-.29.03-.448.307-.427.534.023.239.217.47.511.439a.367.367 0 00.28-.167H.52l.011.112zm-.602-.405a.296.296 0 01.255-.328c.152-.015.294.105.31.27.016.166-.1.313-.252.328a.292.292 0 01-.313-.27z" fill="#C8BACB" mask="url(#d)"/><path d="M.335 2.982l.098-.008.022.266c.006.076.056.103.116.098.076-.006.108-.056.102-.126l-.021-.257.097-.008.037.44c.011.138-.106.21-.19.216a.224.224 0 01-.2-.073l.078-.057c.034.027.066.042.108.039.065-.005.118-.05.111-.13L.691 3.36H.69a.162.162 0 01-.131.073c-.102.009-.19-.06-.2-.188l-.023-.262M1.956 3.548a.332.332 0 01-.261.163c-.14.007-.278-.089-.298-.233l.772-.044-.002-.037a.505.505 0 00-.512-.505.497.497 0 00-.485.528c.014.251.216.489.54.47a.563.563 0 00.42-.256l-.174-.086zm-.569-.239c.025-.142.125-.228.251-.235.128-.008.237.063.287.205l-.538.03z" fill="#C8BACB" mask="url(#d)"/><path fill="#C8BACB" mask="url(#d)" d="M1.795 2.992l.188-.007.003.092-.187.007-.004-.092M2.353 2.878l-.2.003.022.974.2-.003-.008-.338h.004c.053.06.16.105.298.103.302-.004.488-.21.484-.388-.004-.186-.185-.379-.491-.374a.432.432 0 00-.304.111h-.003l-.002-.088zm.588.354c.004.13-.129.237-.29.24-.158.001-.295-.102-.298-.232-.003-.13.13-.236.287-.239.162-.002.298.102.301.231z"/><path d="M3.542 3.834l.2.002.015-.949-.2-.003L3.555 3H3.55c-.05-.082-.156-.144-.294-.146-.302-.005-.497.259-.5.492-.004.245.17.503.475.508a.378.378 0 00.307-.137h.005l-.002.117zm-.574-.485a.303.303 0 01.3-.303.302.302 0 01.289.313.303.303 0 01-.297.303.303.303 0 01-.292-.313z" fill="#C8BACB" mask="url(#d)"/><path d="M3.443 2.877l.097.005-.015.267c-.004.076.04.11.101.114.076.005.115-.04.12-.11l.014-.258.098.006-.025.44c-.008.139-.135.193-.22.188a.225.225 0 01-.187-.1l.086-.046c.03.032.059.051.101.053.065.004.124-.032.128-.112l.001-.024h-.001a.163.163 0 01-.141.054c-.101-.006-.18-.087-.172-.214l.015-.263M4.634 2.973l-.18-.023-.168.977.18.023.058-.339h.003c.037.068.123.127.248.143.27.035.476-.146.506-.325.033-.187-.092-.403-.366-.439a.383.383 0 00-.293.072h-.004l.016-.089zm.458.431c-.023.13-.161.22-.306.201-.141-.018-.244-.14-.221-.27.022-.13.16-.22.302-.2.144.018.247.14.225.27z" fill="#C8BACB" mask="url(#d)"/><path d="M5.027 3.06l.09.02-.012.048.002.001a.1.1 0 01.15-.015l-.055.086a.074.074 0 00-.033-.02.067.067 0 00-.081.052l-.067.293-.096-.022.102-.443M6 3.936a.333.333 0 01-.302.058c-.135-.042-.233-.181-.2-.323l.743.235.012-.036a.51.51 0 00-.308-.653.495.495 0 00-.642.32.5.5 0 00.347.63c.161.05.335.014.485-.088L6 3.936zm-.453-.425c.073-.124.197-.17.32-.13.121.038.2.143.198.293l-.518-.163z" fill="#C8BACB" mask="url(#d)"/><path fill="#C8BACB" mask="url(#d)" d="M5.93 3.432l.178.059-.028.087L5.9 3.52l.029-.088M6.593 3.494l-.156-.051-.329.948.156.052.114-.33.003.001c.02.073.086.146.193.181a.412.412 0 00.512-.245.382.382 0 00-.246-.496.318.318 0 00-.274.027l-.003-.001.03-.086zm.329.502a.248.248 0 01-.31.152.239.239 0 01-.148-.303.247.247 0 01.307-.154.239.239 0 01.15.305z"/><path d="M7.346 4.631l.168.06.275-.802-.17-.06-.033.098-.003-.001c-.02-.084-.092-.167-.21-.209-.254-.09-.491.077-.56.275-.07.207.006.476.264.568.107.038.22.026.299-.028l.004.002-.034.097zm-.354-.576a.267.267 0 01.34-.17.275.275 0 01.157.347.267.267 0 01-.336.173.276.276 0 01-.16-.35zM.535 1.548l-.19.02.158.927.189-.02-.055-.321h.004c.059.053.166.087.297.073.285-.03.433-.242.404-.412-.03-.178-.228-.346-.517-.316a.385.385 0 00-.272.133H.549l-.014-.084zm.607.288c.021.124-.09.237-.242.253-.149.015-.293-.071-.314-.196-.021-.124.09-.237.239-.252.152-.016.297.07.317.195z" fill="#C8BACB" mask="url(#d)"/><path d="M.989 1.461l.092-.01.005.05h.002a.1.1 0 01.137-.063l-.024.1a.072.072 0 00-.038-.01.067.067 0 00-.06.076l.032.3-.097.01-.049-.453M2.12 2.04a.327.327 0 01-.256.17c-.14.012-.28-.08-.304-.223l.77-.066-.003-.038a.503.503 0 00-.525-.49.498.498 0 00-.47.542c.02.25.229.483.553.455a.564.564 0 00.412-.268l-.177-.081zm-.573-.221c.02-.144.117-.232.243-.244.127-.01.238.057.292.198l-.535.046z" fill="#C8BACB" mask="url(#d)"/><path fill="#C8BACB" mask="url(#d)" d="M1.956 1.483l.188-.01.005.092-.188.01-.005-.092M2.517 1.363l-.2.004.031.971.2-.004-.011-.337h.004c.053.06.16.104.298.102.301-.006.484-.212.479-.39-.006-.186-.189-.376-.493-.37a.429.429 0 00-.301.113H2.52l-.003-.089zm.59.35c.004.13-.127.237-.288.24-.157.003-.294-.099-.298-.228-.004-.13.127-.237.284-.24.16-.003.298.099.302.229z"/><path d="M3.709 2.32l.199.005.022-.949-.2-.005-.001.116h-.005c-.049-.082-.153-.146-.291-.15-.301-.006-.497.255-.503.489-.005.245.165.504.47.512a.374.374 0 00.307-.135l.004.001-.002.116zm-.568-.49a.302.302 0 01.302-.3.303.303 0 01.285.316c-.005.17-.142.304-.3.3a.302.302 0 01-.287-.315z" fill="#C8BACB" mask="url(#d)"/><path d="M3.623 1.367l.097.008-.021.266c-.006.075.038.111.098.116.076.006.116-.037.122-.108l.02-.257.098.008-.036.44c-.011.138-.139.19-.223.182a.224.224 0 01-.185-.104l.087-.044c.028.033.058.053.1.056.065.005.124-.03.13-.11l.002-.023H3.91a.162.162 0 01-.141.05c-.102-.008-.178-.09-.167-.218l.02-.262M5.202 2.157a.331.331 0 01-.294.093c-.14-.027-.251-.154-.236-.298l.765.147.007-.037a.51.51 0 00-.379-.615.495.495 0 00-.6.393.501.501 0 00.415.588.566.566 0 00.472-.145l-.15-.126zm-.499-.37c.059-.133.176-.192.302-.168.126.024.216.12.232.27l-.534-.103z" fill="#C8BACB" mask="url(#d)"/><path fill="#C8BACB" mask="url(#d)" d="M5.102 1.64l.182.048-.024.09-.182-.048.024-.09M5.746 1.667l-.163-.041-.276.959.164.041.095-.333.004.001c.025.071.098.139.211.167a.426.426 0 00.511-.274.378.378 0 00-.287-.475.34.34 0 00-.28.043l-.004-.001.025-.087zm.373.476a.257.257 0 01-.309.17.236.236 0 01-.172-.291.255.255 0 01.305-.17.236.236 0 01.176.291z"/><path d="M6.57 2.775l.175.05.227-.837-.176-.05-.028.103-.003-.001a.317.317 0 00-.226-.199c-.265-.074-.495.113-.551.319-.058.216.036.485.305.56a.34.34 0 00.301-.048l.004.001-.028.102zm-.397-.563a.272.272 0 01.333-.197c.139.039.224.193.184.344-.04.15-.192.238-.33.198a.281.281 0 01-.187-.345z" fill="#C8BACB" mask="url(#d)"/><path d="M6.68 1.958l.094.027-.073.257c-.02.073.016.117.074.133.073.02.12-.015.14-.082l.07-.248.094.026-.12.424c-.037.134-.172.16-.254.137a.223.223 0 01-.161-.139l.093-.026c.022.037.047.063.088.074.062.018.127-.005.149-.082l.006-.023H6.88a.162.162 0 01-.15.022c-.097-.028-.156-.124-.121-.247l.072-.253M.591 4.332l-.197.008.057.962.197-.007-.02-.334h.004c.055.058.162.1.298.096.298-.01.474-.219.463-.395-.01-.184-.197-.37-.498-.36a.415.415 0 00-.294.118H.597L.59 4.332zm.594.338c.008.129-.12.237-.278.242-.156.006-.295-.093-.302-.221-.008-.129.119-.237.274-.243.16-.006.299.093.306.222z" fill="#C8BACB" mask="url(#d)"/><path d="M1.025 4.3l.092-.004.001.05h.002a.097.097 0 01.088-.065.1.1 0 01.054.013l-.032.098a.075.075 0 00-.037-.013.067.067 0 00-.066.071l.01.3-.098.004-.014-.455M2.124 4.941a.332.332 0 01-.267.151c-.142.002-.276-.099-.29-.244l.776-.012-.001-.037a.506.506 0 00-.492-.526.497.497 0 00-.507.508.497.497 0 00.522.492.563.563 0 00.43-.238l-.17-.094zm-.559-.261c.03-.142.133-.224.26-.226.128-.002.235.073.28.217l-.54.009z" fill="#C8BACB" mask="url(#d)"/><path fill="#C8BACB" mask="url(#d)" d="M1.968 4.39h.188v.091h-.188V4.39M2.498 4.29L2.3 4.287l-.023.985.198.003.008-.342h.004c.05.063.154.112.291.114.3.004.495-.198.499-.378.004-.19-.166-.389-.47-.394a.43.43 0 00-.306.105h-.004l.002-.09zm.568.375c-.004.132-.14.236-.3.233-.157-.003-.288-.11-.285-.242.003-.131.14-.235.296-.233.16.003.292.11.289.242z"/><path d="M3.606 5.246l.197.01.042-.95-.197-.009-.005.116h-.004c-.047-.083-.15-.149-.286-.155-.297-.014-.497.243-.507.477-.012.245.152.508.453.522a.37.37 0 00.308-.127h.004l-.005.116zm-.552-.502a.3.3 0 01.306-.293c.155.007.282.15.274.32-.007.172-.146.303-.301.295a.303.303 0 01-.279-.322z" fill="#C8BACB" mask="url(#d)"/><path d="M3.565 4.293l.097.007-.02.266c-.005.076.04.111.1.116.075.005.115-.039.12-.109l.02-.257.097.007-.033.44c-.01.139-.137.19-.222.184a.223.223 0 01-.185-.103l.086-.045c.029.033.058.053.1.056.065.005.124-.03.13-.11l.002-.024h-.002a.162.162 0 01-.141.051c-.102-.008-.178-.09-.169-.217l.02-.262M5.186 5.11a.329.329 0 01-.29.106c-.139-.02-.257-.142-.248-.287l.77.111.006-.037a.51.51 0 00-.407-.597.5.5 0 10-.139.99.565.565 0 00.463-.167l-.155-.12zm-.515-.347c.052-.135.167-.2.294-.182.126.018.221.11.244.259l-.538-.077z" fill="#C8BACB" mask="url(#d)"/><path fill="#C8BACB" mask="url(#d)" d="M5.043 4.574l.185.033-.016.09-.185-.032.016-.09M5.66 4.56l-.171-.034-.228.967.17.033.08-.335h.003c.03.07.11.133.227.156.258.05.468-.12.51-.298.044-.185-.062-.407-.322-.457a.36.36 0 00-.287.055H5.64l.02-.088zm.41.455c-.03.129-.17.21-.307.184-.135-.026-.225-.153-.195-.281.03-.13.17-.212.305-.185.138.026.228.153.197.282z"/><path d="M6.49 5.645l.176.049.224-.838-.175-.049-.028.102h-.003a.317.317 0 00-.227-.198c-.266-.075-.496.113-.55.319-.059.217.037.485.305.56a.342.342 0 00.303-.049l.002.002-.027.102zm-.398-.563c.04-.15.191-.238.333-.198a.28.28 0 01.184.343.272.272 0 01-.33.2.28.28 0 01-.187-.345z" fill="#C8BACB" mask="url(#d)"/><path d="M6.59 4.86l.092.035-.096.249c-.028.07.005.118.061.14.071.027.122-.004.148-.07l.092-.24.092.035-.159.412c-.05.13-.187.142-.266.112a.224.224 0 01-.148-.153l.096-.018c.018.04.04.067.08.083.06.023.127.006.156-.068l.01-.023h-.003a.163.163 0 01-.15.008c-.095-.037-.145-.137-.099-.257l.095-.245" fill="#C8BACB" mask="url(#d)"/></g></g></g></svg>