<?xml version="1.0" encoding="UTF-8"?><svg width="56" height="36" viewBox="0 0 56 36" xmlns="http://www.w3.org/2000/svg"><g fill="none" fill-rule="evenodd"><path d="M0 3.75A3.749 3.749 0 013.75 0h48.5A3.756 3.756 0 0156 3.75v28.5A3.749 3.749 0 0152.25 36H3.75A3.756 3.756 0 010 32.25V3.75z" fill="#000" fill-rule="nonzero"/><path d="M1.25 3.75v28.5c0 1.375 1.123 2.5 2.5 2.5h48.5c1.382 0 2.5-1.118 2.5-2.5V3.75c0-1.375-1.123-2.5-2.5-2.5H3.75a2.499 2.499 0 00-2.5 2.5z" fill="#FFF"/><g fill-rule="nonzero"><path d="M9.883 15.985c0-.53-.181-1-.559-1.405a1.794 1.794 0 00-1.286-.578H3.005l2.313 4.763h1.783c.168 0 .318.062.438.188a.634.634 0 01.181.452.63.63 0 01-.181.452.594.594 0 01-.438.187H4.76l.877 1.86h2.66c.529 0 .983-.188 1.346-.578.378-.405.56-.86.56-1.39 0-.546-.182-1.015-.56-1.422a1.767 1.767 0 00-1.346-.578h-.258c.5-.015.937-.203 1.286-.563.378-.403.56-.857.56-1.388zm-2.963.047h.03a.6.6 0 01.41.173c.105.109.167.25.167.422 0 .156-.06.296-.168.405a.551.551 0 01-.408.173H5.409v-1.17h1.51v-.003zm11.023-2.015h-2.436v4.593c0 .358-.122.657-.363.906-.258.25-.545.375-.892.375-.332 0-.619-.126-.877-.375a1.253 1.253 0 01-.36-.906v-4.593h-2.45v5.013c0 .797.272 1.484.831 2.047.514.516 1.104.797 1.769.844h2.086a2.77 2.77 0 001.891-.844c.545-.563.817-1.25.817-2.047v-5.013h-.016zm7.074 2.311v-2.31h-6.333v7.903h2.433v-2.546h3.508v-2.123h-3.508v-.921h3.9v-.003zm6.939 0v-2.31h-6.334v7.903h2.433v-2.546h3.509v-2.123h-3.509v-.921h3.9v-.003z" fill="#E74C3C"/><path d="M37.869 17.032a2.466 2.466 0 00-.818-.718c-.332-.188-.74-.282-1.21-.282-.468 0-.876.094-1.209.25l-.227.14c-.227.156-.437.329-.59.546-.213.281-.378.61-.468.953-.106.358-.151.719-.151 1.094 0 .405.045.78.15 1.14.091.359.259.672.469.954.213.281.483.498.817.656.333.156.741.235 1.21.235.74 0 1.331-.173 1.723-.53.227-.189.409-.438.574-.705h-.801a4.6 4.6 0 01-.258.282c-.304.267-.71.39-1.24.39-.347 0-.636-.062-.878-.202a1.86 1.86 0 01-.604-.531 1.917 1.917 0 01-.347-.719 2.722 2.722 0 01-.105-.765h4.536a3.83 3.83 0 00-.122-1.17 2.451 2.451 0 00-.451-1.018zm-2.027-.405c.287 0 .56.062.786.173.227.111.423.267.59.452.151.188.273.405.364.64.09.234.136.483.15.75h-3.824c.031-.25.091-.499.196-.75.091-.25.213-.47.378-.64a1.73 1.73 0 01.59-.452c.21-.111.466-.173.77-.173zm9.13-1.234a2.15 2.15 0 00-.454-.704 2.11 2.11 0 00-.696-.437 2.864 2.864 0 00-.922-.156h-3.356v7.793h.727v-2.857h2.631c.332 0 .65-.047.923-.155.272-.094.513-.235.695-.437.196-.203.347-.438.454-.704.031-.08.06-.173.091-.267.06-.22.076-.437.076-.686v-.047c-.002-.61-.047-1.08-.17-1.343zm-.543 1.39v.064c0 .375-.09.686-.241.92a.804.804 0 01-.227.235c-.318.267-.727.405-1.21.405h-2.478v-3.654h2.478c.5 0 .909.126 1.21.405.301.25.452.798.468 1.625 0-.018 0 0 0 0zm2.51-.578h-.665v5.654h.665v-5.654zm0-1.454v-.702h-.665v.687h.665v.015zm5.246 2.906c.045.202.076.437.076.686v3.514h.727V18.22c0-.343-.031-.64-.09-.906a1.736 1.736 0 00-.364-.687c-.167-.187-.392-.328-.681-.437-.273-.109-.62-.155-1.042-.155-.438 0-.832.108-1.179.313a2.216 2.216 0 00-.772.719v-.86h-.664v5.655h.664V18.53c.015-.25.077-.484.168-.719a2.12 2.12 0 01.363-.624c.167-.173.363-.297.59-.39.227-.094.483-.156.787-.156.286 0 .545.047.74.14a.991.991 0 01.455.359c.086.14.177.313.222.516z" fill="#2C3E50"/></g></g></svg>