<?xml version="1.0" encoding="UTF-8"?><svg width="56" height="36" viewBox="0 0 56 36" xmlns="http://www.w3.org/2000/svg"><g fill="none" fill-rule="evenodd"><path d="M0 3.75A3.749 3.749 0 013.75 0h48.5A3.756 3.756 0 0156 3.75v28.5A3.749 3.749 0 0152.25 36H3.75A3.756 3.756 0 010 32.25V3.75z" fill="#000" fill-rule="nonzero"/><path d="M1.25 3.75v28.5c0 1.375 1.123 2.5 2.5 2.5h48.5c1.382 0 2.5-1.118 2.5-2.5V3.75c0-1.375-1.123-2.5-2.5-2.5H3.75a2.499 2.499 0 00-2.5 2.5z" fill="#FFF"/><g fill-rule="nonzero"><path d="M20.512 22.147h-9.4c-3.406 0-6.106-2.703-6.106-6.038L5 14.038C5 10.703 7.76 8 11.166 8h9.346v14.147z" fill="#FFF"/><path d="M45.637 22.147H20.512V8h25.125c3.291 0 5.96 2.613 5.96 5.836v2.475c0 3.223-2.669 5.836-5.96 5.836zM14.45 13.025c.033 0 .05.04.027.062l-1.295 1.268a1.03 1.03 0 000 1.478l.088.086a1.174 1.174 0 001.635 0l2.385-2.335a1.063 1.063 0 00.058-1.466l-.242-.275c-.629-.616-1.47-.986-2.355-1.11-1.434-.201-2.875.32-3.9 1.322l.067-.065c-1.452 1.422-1.775 4.08-.453 5.617l.12.157a4.156 4.156 0 003.301 1.616h1.862c.583 0 1.056-.463 1.056-1.034v-.086c0-.606-.5-1.097-1.12-1.097H14.1c-1.174 0-2.126-.932-2.126-2.081 0-1.136.94-2.057 2.1-2.057h.376z" fill="#A68840"/><path d="M28.663 11.104h-4.16l-2.026 8.424h1.875l.792-3.288 2.195-.025c2.176-.062 3.173-1.324 3.503-2.451.31-1.365-.751-2.66-2.18-2.66zm.252 2.5a1.506 1.506 0 01-1.49 1.213h-1.91l.554-2.39h1.846c.636 0 1.116.566 1 1.178zM37.118 11.104h-4.106l-2.047 8.378h1.915l.849-3.418h1.368l1.217 3.418h2.075l-1.424-3.584c1.273-.268 2.22-1.21 2.367-2.332.17-1.306-.869-2.462-2.214-2.462zm.317 2.55a1.526 1.526 0 01-1.48 1.117h-1.971l.575-2.346h1.909c.656 0 1.135.608.967 1.23zM45.783 11.06l-.322-.044c-1.988-.27-3.888.895-4.509 2.764l-.587 2.281c-.479 1.903.575 3.203 2.14 3.456 2.265.411 4.454-1.009 4.95-3.21l.495-2.197c.325-1.441-.674-2.847-2.167-3.05zm.337 2.887l-.7 2.85c-.245.998-1.272 1.612-2.29 1.37a1.276 1.276 0 01-.96-1.543l.13-.701c.072-.386.164-.768.276-1.144l.319-1.071a1.975 1.975 0 012.107-1.33c.778.089 1.301.823 1.118 1.569z" fill="#FFF"/><g><g fill="#000"><path d="M11.306 23.763c.174-.036.448-.063.727-.063.399 0 .655.067.847.22.16.116.257.295.257.533 0 .291-.197.547-.522.663v.01c.293.071.636.309.636.757 0 .26-.105.457-.26.605-.216.192-.564.282-1.067.282-.275 0-.486-.018-.618-.036v-2.971zM11.704 25h.362c.42 0 .668-.215.668-.507 0-.354-.275-.493-.678-.493-.183 0-.288.014-.352.027V25zm0 1.447c.078.014.192.018.334.018.412 0 .792-.148.792-.587 0-.412-.362-.583-.797-.583h-.329v1.152zM15.628 26.152c0 .224.004.42.018.591h-.357l-.023-.354h-.009a.836.836 0 01-.732.403c-.348 0-.765-.188-.765-.95v-1.268h.403v1.201c0 .412.128.69.495.69.27 0 .457-.183.53-.358a.566.566 0 00.037-.202v-1.331h.403v1.578zM16.444 24.574l.485 1.282c.05.143.105.313.142.443h.01c.04-.13.086-.295.141-.452l.44-1.273h.425l-.604 1.546c-.288.744-.485 1.125-.76 1.358-.197.17-.393.238-.494.256l-.1-.332c.1-.032.233-.094.351-.193a1.2 1.2 0 00.34-.439.282.282 0 00.031-.094.34.34 0 00-.027-.103l-.82-1.999h.44zM19.778 26.743l-.783-3.02h.421l.367 1.528c.09.376.173.753.228 1.044h.01c.05-.3.146-.659.251-1.049l.412-1.524h.417l.375 1.533c.087.359.17.717.215 1.036h.009c.064-.332.151-.668.248-1.045l.407-1.524h.407l-.874 3.021h-.417l-.389-1.573a9.027 9.027 0 01-.201-.986h-.01c-.054.3-.123.596-.237.986l-.44 1.573h-.416zM23.51 23.965c.005.134-.096.242-.256.242a.237.237 0 01-.243-.242c0-.14.106-.247.252-.247.151 0 .247.108.247.247zm-.448 2.778v-2.169h.402v2.17h-.402zM24.618 23.951v.623h.577v.3h-.577v1.17c0 .269.078.421.302.421a.91.91 0 00.234-.027l.018.296a1.002 1.002 0 01-.357.054c-.187 0-.338-.058-.435-.166-.114-.116-.155-.31-.155-.565v-1.183h-.344v-.3h.344v-.52l.393-.103zM25.65 23.561h.402v1.354h.009a.739.739 0 01.288-.278.843.843 0 01.412-.112c.298 0 .774.179.774.927v1.291h-.403v-1.246c0-.35-.133-.645-.513-.645a.577.577 0 00-.567.583v1.308h-.403v-3.182zM29.651 26.743v-1.281l-.975-1.74h.454l.434.834c.12.229.21.413.307.623h.01c.086-.197.191-.394.31-.623l.444-.834h.454l-1.035 1.735v1.286h-.403zM33.085 25.64c0 .803-.567 1.152-1.103 1.152-.6 0-1.062-.43-1.062-1.116 0-.725.485-1.151 1.099-1.151.636 0 1.066.452 1.066 1.116zm-1.757.023c0 .475.279.834.673.834.384 0 .672-.355.672-.843 0-.367-.187-.834-.663-.834-.476 0-.682.43-.682.843zM35.448 26.152c0 .224.005.42.019.591h-.357l-.023-.354h-.01a.837.837 0 01-.731.403c-.349 0-.765-.188-.765-.95v-1.268h.403v1.201c0 .412.128.69.494.69.27 0 .458-.183.53-.358a.562.562 0 00.038-.202v-1.331h.402v1.578zM36.118 25.25c0-.255-.004-.474-.018-.676h.352l.014.426h.018c.101-.292.344-.475.614-.475.046 0 .077.004.114.013v.372a.61.61 0 00-.137-.013c-.284 0-.486.21-.54.506a1.107 1.107 0 00-.019.184v1.156h-.398v-1.492z"/></g><path d="M40.451 27.968v-.31a.178.178 0 00-.056-.142.203.203 0 00-.15-.054.208.208 0 00-.185.087.196.196 0 00-.174-.087.177.177 0 00-.154.073v-.061h-.114v.494h.115v-.272a.111.111 0 01.032-.094.127.127 0 01.097-.037c.076 0 .114.047.114.13v.275h.116v-.274a.112.112 0 01.031-.094.128.128 0 01.097-.037c.078 0 .116.047.116.13v.275l.115-.002zm1.709-.494h-.188v-.15h-.116v.15h-.104v.098h.107v.228c0 .114.047.183.182.183.05 0 .1-.013.143-.039l-.033-.092a.221.221 0 01-.101.028c-.055 0-.076-.033-.076-.082v-.226h.187l-.001-.098zm.976-.012a.157.157 0 00-.14.072v-.06h-.112v.494h.114v-.277c0-.082.037-.127.11-.127.024 0 .049.004.072.012l.035-.103a.259.259 0 00-.082-.013l.003.002zm-1.475.051a.413.413 0 00-.215-.051c-.133 0-.22.06-.22.158 0 .08.064.13.182.146l.055.007c.062.008.092.024.092.051 0 .039-.042.06-.12.06a.292.292 0 01-.175-.051l-.055.084a.397.397 0 00.228.064c.152 0 .24-.068.24-.162s-.07-.132-.184-.148l-.055-.007c-.05-.006-.089-.015-.089-.048s.037-.058.1-.058c.058 0 .115.015.165.042l.05-.087zm3.063-.051a.157.157 0 00-.138.072v-.06h-.114v.494h.115v-.277c0-.082.037-.127.11-.127.024 0 .049.004.071.012l.035-.103a.259.259 0 00-.08-.013l.001.002zm-1.474.258a.242.242 0 00.08.188c.053.049.126.075.2.07a.287.287 0 00.19-.058l-.055-.087a.24.24 0 01-.137.044.163.163 0 01-.156-.158c0-.083.068-.151.156-.158a.24.24 0 01.137.044l.055-.087a.287.287 0 00-.19-.058.275.275 0 00-.2.07.242.242 0 00-.08.188v.002zm1.072 0v-.246h-.115v.06a.205.205 0 00-.165-.072c-.152 0-.275.115-.275.258 0 .143.123.259.275.259a.205.205 0 00.165-.073v.06h.115v-.246zm-.426 0c.005-.081.078-.143.165-.14.086.003.154.07.153.151-.002.082-.072.147-.158.147a.163.163 0 01-.117-.046.143.143 0 01-.043-.112zm-1.38-.258c-.152.002-.273.119-.271.262.002.142.127.257.278.255.08.003.157-.02.219-.068l-.055-.08a.26.26 0 01-.153.052c-.079.007-.148-.047-.157-.12h.39v-.042c0-.155-.102-.258-.25-.258l-.001-.001zm0 .096c.034 0 .068.011.093.034a.12.12 0 01.04.086h-.275c.004-.07.066-.123.14-.12h.002zm2.865.163v-.446h-.11v.259a.205.205 0 00-.165-.072c-.151 0-.275.115-.275.258 0 .143.124.259.275.259a.205.205 0 00.165-.073v.06h.11v-.245zm.191.175a.054.054 0 01.038.015.052.052 0 01-.017.086.051.051 0 01-.02.005.055.055 0 01-.05-.033.053.053 0 01.011-.058.055.055 0 01.04-.015h-.002zm.014.119a.053.053 0 00.039-.017.053.053 0 000-.073.055.055 0 00-.039-.016.056.056 0 00-.04.016.053.053 0 000 .073.056.056 0 00.042.016h-.002zm.011-.093c.01 0 .02.003.028.009.007.005.01.013.01.022a.025.025 0 01-.008.019.038.038 0 01-.022.01l.03.034h-.024l-.029-.035h-.01v.035h-.02v-.093h.045zm-.034.009v.025h.024a.023.023 0 00.013 0 .01.01 0 000-.01.01.01 0 000-.009.023.023 0 00-.013 0l-.024-.006zm-.604-.21c.005-.081.078-.143.164-.14.087.003.154.07.153.151-.001.082-.072.147-.158.147a.163.163 0 01-.117-.046.143.143 0 01-.042-.112zm-3.863 0v-.247h-.114v.06a.205.205 0 00-.165-.072c-.152 0-.275.115-.275.258 0 .143.123.259.275.259a.205.205 0 00.165-.073v.06h.114v-.245zm-.425 0c.005-.081.078-.143.164-.14.087.003.155.07.153.151-.001.082-.071.147-.158.147a.163.163 0 01-.117-.046.143.143 0 01-.043-.112z" fill="#231F20"/><path fill="#FF5F00" d="M41.623 23.708h1.732v2.926h-1.732z"/><path d="M41.733 25.171c-.001-.57.278-1.11.756-1.463-.812-.6-1.978-.512-2.678.2a1.78 1.78 0 000 2.526c.7.713 1.866.8 2.678.2a1.82 1.82 0 01-.756-1.463z" fill="#EB001B"/><path d="M45.692 25.171c0 .713-.433 1.363-1.114 1.674a2.084 2.084 0 01-2.09-.21c.478-.353.757-.893.757-1.464 0-.57-.279-1.11-.756-1.463a2.084 2.084 0 012.089-.21c.681.31 1.114.96 1.114 1.673z" fill="#F79E1B"/></g></g></g></svg>