<?xml version="1.0" encoding="UTF-8"?><svg width="56" height="36" viewBox="0 0 56 36" xmlns="http://www.w3.org/2000/svg"><g fill="none" fill-rule="evenodd"><path d="M0 3.75A3.749 3.749 0 013.75 0h48.5A3.756 3.756 0 0156 3.75v28.5A3.749 3.749 0 0152.25 36H3.75A3.756 3.756 0 010 32.25V3.75z" fill="#000" fill-rule="nonzero"/><path d="M1.25 3.75v28.5c0 1.375 1.123 2.5 2.5 2.5h48.5c1.382 0 2.5-1.118 2.5-2.5V3.75c0-1.375-1.123-2.5-2.5-2.5H3.75a2.499 2.499 0 00-2.5 2.5z" fill="#FFF"/><g fill-rule="nonzero"><path d="M20.182 22.314h-9.2c-3.334 0-5.976-2.735-5.976-6.109L5 14.11C5 10.735 7.702 8 11.035 8h9.147v14.314z" fill="#FFF"/><path d="M44.772 22.314h-24.59V8h24.59c3.222 0 5.833 2.644 5.833 5.905v2.505c0 3.26-2.611 5.904-5.833 5.904zM14.25 13.085c.032 0 .048.04.025.063l-1.267 1.283a1.067 1.067 0 000 1.495l.086.087a1.122 1.122 0 001.6 0l2.335-2.363c.398-.403.423-1.05.056-1.483l-.236-.279c-.616-.623-1.44-.997-2.306-1.123-1.403-.203-2.814.324-3.816 1.338l.065-.065c-1.42 1.438-1.737 4.127-.443 5.683l.118.16a4.022 4.022 0 003.23 1.634h1.822a1.04 1.04 0 001.034-1.047v-.087c0-.613-.49-1.11-1.095-1.11h-1.552c-1.149 0-2.08-.942-2.08-2.105 0-1.15.92-2.081 2.056-2.081h.367z" fill="#A68840"/><path d="M28.16 11.14h-4.072l-1.982 8.525h1.834l.775-3.328 2.149-.025c2.13-.062 3.105-1.34 3.428-2.48.304-1.381-.735-2.692-2.133-2.692zm.246 2.531a1.487 1.487 0 01-1.458 1.227h-1.87l.542-2.418h1.808c.622 0 1.091.572.978 1.191zM36.435 11.14h-4.019l-2.004 8.478h1.875l.83-3.458h1.34l1.19 3.458h2.032l-1.394-3.627c1.246-.27 2.173-1.224 2.317-2.359.166-1.322-.85-2.492-2.167-2.492zm.31 2.581a1.502 1.502 0 01-1.448 1.13h-1.93l.563-2.374h1.868c.643 0 1.111.616.947 1.244zM44.916 11.096l-.316-.044c-1.946-.273-3.805.905-4.413 2.796l-.574 2.309c-.47 1.925.562 3.24 2.095 3.497 2.215.416 4.358-1.021 4.844-3.249l.484-2.223c.318-1.458-.66-2.88-2.12-3.086zm.33 2.921l-.686 2.884a1.855 1.855 0 01-2.242 1.386 1.293 1.293 0 01-.94-1.56l.129-.71c.07-.39.16-.777.27-1.158l.312-1.083a1.931 1.931 0 012.062-1.346c.76.09 1.274.833 1.094 1.587z" fill="#FFF"/><g fill="#2B3894"><path d="M35.472 24.28l-.648 3.024h.784l.647-3.023zM34.313 24.28l-.815 2.058-.33-1.75a.365.365 0 00-.36-.307h-1.334l-.018.088c.273.06.584.155.772.257.116.062.149.117.186.265l.625 2.413h.828l1.269-3.023h-.823zM37.283 25.118c.002-.108.106-.223.332-.253.112-.014.422-.026.772.136l.138-.642a2.115 2.115 0 00-.733-.133c-.774 0-1.32.41-1.323.999-.005.435.389.678.685.823.305.148.408.243.406.375-.002.203-.243.293-.468.296-.394.006-.622-.106-.805-.19l-.142.662c.183.084.521.156.871.16.823 0 1.362-.406 1.364-1.034.003-.798-1.105-.842-1.097-1.199zM40.516 24.28h-.668a.356.356 0 00-.334.222l-1.175 2.802h.823l.163-.452h1.005l.095.452h.724l-.633-3.023zm-.966 1.953l.413-1.135.237 1.135h-.65z"/></g><g fill="#000"><path d="M5 24.267c.17-.037.439-.064.712-.064.39 0 .64.068.829.222.157.118.25.3.25.54 0 .295-.192.553-.51.671v.009c.287.073.623.313.623.767a.829.829 0 01-.255.612c-.211.195-.551.286-1.044.286-.27 0-.475-.018-.605-.037v-3.006zm.39 1.251h.354c.412 0 .654-.217.654-.512 0-.358-.27-.499-.663-.499-.18 0-.283.014-.345.027v.984zm0 1.465c.076.013.188.018.327.018.403 0 .775-.15.775-.594 0-.417-.354-.59-.78-.59H5.39v1.166zM9.23 26.684c0 .226.005.426.018.598h-.35l-.022-.358h-.009a.814.814 0 01-.717.408c-.34 0-.748-.19-.748-.961v-1.284h.395v1.216c0 .417.125.698.483.698a.57.57 0 00.52-.363.59.59 0 00.036-.204v-1.347h.394v1.597zM10.029 25.087l.475 1.297c.049.145.103.318.139.45h.008c.041-.132.085-.3.14-.459l.43-1.288h.416l-.591 1.565c-.283.753-.475 1.138-.744 1.374-.193.172-.385.24-.484.258l-.098-.335a1.04 1.04 0 00.345-.195c.107-.086.241-.24.331-.444a.293.293 0 00.031-.096.353.353 0 00-.026-.104l-.802-2.023h.43zM13.292 27.282l-.766-3.056h.412l.358 1.546c.09.381.17.762.224 1.057h.01c.048-.304.142-.667.246-1.061l.403-1.542h.408l.367 1.55c.085.363.165.726.21 1.048h.01c.062-.335.147-.675.241-1.056l.399-1.542h.399l-.856 3.056h-.408l-.38-1.592a9.407 9.407 0 01-.198-.997h-.008a9.7 9.7 0 01-.234.997l-.43 1.592h-.407zM16.945 24.47c.004.137-.094.246-.251.246a.236.236 0 01-.238-.245c0-.14.104-.25.247-.25.148 0 .242.11.242.25zm-.44 2.812v-2.195h.395v2.195h-.394zM18.03 24.457v.63h.564v.304h-.565v1.184c0 .272.076.426.296.426.103 0 .18-.013.228-.027l.018.299a.952.952 0 01-.35.055c-.183 0-.33-.06-.425-.168-.112-.118-.152-.313-.152-.572v-1.197h-.336v-.304h.336v-.526l.385-.104zM19.038 24.062h.394v1.37h.01a.734.734 0 01.281-.281.804.804 0 01.404-.113c.29 0 .756.18.756.938v1.306h-.394v-1.26c0-.354-.13-.654-.501-.654a.567.567 0 00-.556.59v1.324h-.394v-3.22zM22.955 27.282v-1.297l-.954-1.76h.444l.425.844c.117.232.206.418.3.63h.01c.084-.2.187-.398.304-.63l.434-.843h.444l-1.013 1.755v1.301h-.394zM26.316 26.167c0 .811-.555 1.165-1.08 1.165-.586 0-1.039-.435-1.039-1.129 0-.734.475-1.165 1.075-1.165.623 0 1.044.458 1.044 1.129zm-1.72.022c0 .481.273.844.658.844.377 0 .659-.358.659-.853 0-.371-.184-.843-.65-.843s-.667.435-.667.852zM28.629 26.684c0 .226.005.426.018.598h-.35l-.022-.358h-.009a.815.815 0 01-.717.408c-.34 0-.748-.19-.748-.961v-1.284h.394v1.216c0 .417.126.698.484.698a.57.57 0 00.52-.363.585.585 0 00.036-.204v-1.347h.394v1.597zM29.285 25.772c0-.258-.005-.48-.019-.685h.345l.014.431h.018c.098-.295.336-.48.6-.48.045 0 .076.004.112.013v.377a.578.578 0 00-.134-.014c-.278 0-.475.213-.529.512a1.157 1.157 0 00-.018.186v1.17h-.39v-1.51z"/></g><g fill="#000"><path d="M44.689 27.183c-.143.072-.43.145-.797.145-.852 0-1.492-.545-1.492-1.547 0-.956.64-1.605 1.577-1.605.376 0 .613.081.716.136l-.094.322a1.401 1.401 0 00-.609-.127c-.708 0-1.178.458-1.178 1.26 0 .749.426 1.23 1.16 1.23.238 0 .48-.05.636-.128l.081.314zM46.334 27.282l-.031-.276h-.013a.804.804 0 01-.664.326c-.438 0-.662-.313-.662-.63 0-.53.465-.821 1.303-.817v-.045c0-.181-.049-.508-.493-.508-.201 0-.412.064-.564.164l-.09-.263c.18-.118.44-.195.712-.195.664 0 .825.458.825.897v.821c0 .19.009.377.036.526h-.359zm-.058-1.12c-.43-.009-.918.068-.918.494 0 .259.17.381.372.381a.54.54 0 00.524-.367.417.417 0 00.022-.127v-.38zM47.294 25.772c0-.258-.005-.48-.018-.685h.345l.013.431h.018c.099-.295.336-.48.6-.48.046 0 .077.004.113.013v.377a.578.578 0 00-.135-.014c-.278 0-.475.213-.528.512a1.157 1.157 0 00-.018.186v1.17h-.39v-1.51zM50.588 24.062v2.653c0 .195.004.418.017.567h-.353l-.018-.38h-.01c-.12.244-.385.43-.738.43-.525 0-.928-.449-.928-1.115-.004-.73.444-1.18.972-1.18.332 0 .556.16.654.336h.01v-1.31h.394zm-.395 1.919a.709.709 0 00-.018-.168.581.581 0 00-.568-.463c-.408 0-.65.363-.65.849 0 .444.215.811.64.811a.594.594 0 00.578-.476.7.7 0 00.018-.172v-.381z"/></g></g></g></svg>