<svg width="56" height="36" xmlns="http://www.w3.org/2000/svg"><g fill="none" fill-rule="evenodd"><path d="M0 3.75A3.749 3.749 0 013.75 0h48.5A3.756 3.756 0 0156 3.75v28.5A3.749 3.749 0 0152.25 36H3.75A3.756 3.756 0 010 32.25V3.75z" fill="#000" fill-rule="nonzero"/><path d="M1.25 3.75v28.5c0 1.375 1.123 2.5 2.5 2.5h48.5c1.382 0 2.5-1.118 2.5-2.5V3.75c0-1.375-1.123-2.5-2.5-2.5H3.75a2.499 2.499 0 00-2.5 2.5z" fill="#FFF"/><g fill-rule="nonzero"><path d="M38.9 17.518h-3.226a.646.646 0 01-.65-.644c0-.358.291-.673.65-.673h4.913v-2.424h-4.913a3.115 3.115 0 00-3.11 3.109 3.115 3.115 0 003.11 3.108h3.183c.359 0 .651.284.651.642 0 .358-.292.622-.651.622h-6.825c-.58 1.106-1.143 2.054-2.287 2.528h9.156c1.686-.024 3.065-1.45 3.065-3.146 0-1.695-1.38-3.098-3.065-3.122z" fill="#71706F"/><path d="M26.532 13.777c-2.735 0-4.963 2.241-4.963 4.994V29.16h2.476v-5.374h2.481c2.735 0 4.955-2.27 4.955-5.024 0-2.753-2.215-4.985-4.95-4.985zm0 7.48h-2.487v-2.495c0-1.394 1.11-2.528 2.486-2.528 1.377 0 2.496 1.134 2.496 2.528a2.486 2.486 0 01-2.495 2.496z" fill="#71706F"/><g fill="#C8036F"><path d="M13.73 23.786c-2.34 0-4.309-1.668-4.841-3.847 0 0-.154-.72-.154-1.195 0-.475.146-1.203.146-1.203a4.994 4.994 0 014.84-3.792c2.748 0 5.004 2.234 5.004 4.983v1.21h-7.303c.43.842 1.303 1.316 2.309 1.316h6.565l.01-7.129c0-1.062-.87-1.932-1.933-1.932H9.068c-1.063 0-1.933.843-1.933 1.906v9.305c0 1.063.87 1.96 1.933 1.96h9.305c.954 0 1.75-.686 1.903-1.581H13.73z"/><path d="M13.72 16.114c-1.002 0-1.873.614-2.306 1.404h4.613c-.433-.79-1.305-1.404-2.307-1.404zM17.934 9.171c0-2.271-1.887-4.112-4.215-4.112-2.29 0-4.152 1.78-4.213 4v1.264c0 .148.12.294.272.294h1.55c.152 0 .285-.146.285-.294V9.17c0-1.134.945-2.056 2.107-2.056 1.163 0 2.107.922 2.107 2.056v1.152c0 .148.123.294.275.294h1.55c.152 0 .283-.146.283-.294V9.17z"/></g><g fill="#71706F"><path d="M29.31 27l-.225 1.27c-.112.641-.532.935-1.102.935-.483 0-.856-.315-.748-.935L27.46 27h.346l-.225 1.27c-.068.395.11.62.446.62.345 0 .641-.205.713-.62l.224-1.27h.345zm-1.358-.397c0 .105.08.155.168.155.109 0 .227-.078.227-.224 0-.103-.068-.156-.159-.156-.112 0-.236.072-.236.225zm.747-.004c0 .11.084.16.174.16.097 0 .225-.079.225-.222 0-.103-.075-.159-.16-.159-.111 0-.239.072-.239.221zM30.145 27l-.156.877c.134-.18.402-.276.589-.276.386 0 .654.226.654.647 0 .595-.415.952-.944.952-.205 0-.38-.076-.486-.269l-.059.229h-.302l.383-2.16h.32zm-.243 1.48c-.012.256.153.42.392.42a.617.617 0 00.614-.588c.012-.259-.156-.41-.39-.41-.298 0-.597.239-.616.578zM31.861 28.527c-.012.211.153.383.433.383.156 0 .361-.06.473-.166l.175.201c-.19.175-.47.261-.707.261-.442 0-.7-.265-.7-.67 0-.538.423-.94.965-.94.495 0 .775.3.607.931h-1.246zm.984-.263c.025-.263-.13-.37-.389-.37-.233 0-.448.107-.542.37h.931zM33.964 27.632l-.016.203a.575.575 0 01.496-.236c.15 0 .283.053.355.13l-.194.28a.34.34 0 00-.255-.092.48.48 0 00-.489.416l-.146.827h-.321l.27-1.528h.3zM36.343 27.632l.162 1.208.586-1.208h.358l-.803 1.528h-.377l-.153-1.008-.246.5-.268.508h-.373l-.271-1.528h.36l.16 1.208.588-1.208zM37.86 28.527c-.012.211.154.383.434.383.155 0 .361-.06.473-.166l.174.201c-.19.175-.47.261-.706.261-.443 0-.701-.265-.701-.67 0-.538.423-.94.965-.94.495 0 .776.3.608.931H37.86zm.985-.263c.025-.263-.13-.37-.39-.37-.233 0-.448.107-.541.37h.931zM39.985 27.632l-.27 1.528h-.321l.27-1.528h.321zm-.283-.416c0 .109.081.165.168.165.125 0 .24-.081.24-.234a.157.157 0 00-.162-.162c-.115 0-.246.075-.246.23zM41.409 28.01c-.1-.112-.228-.143-.38-.143-.212 0-.361.071-.361.205 0 .112.121.16.302.175.28.024.638.118.563.513-.053.287-.339.455-.738.455-.249 0-.489-.056-.65-.283l.208-.228c.115.159.318.225.498.228.153 0 .334-.057.362-.2.028-.137-.094-.19-.318-.211-.262-.025-.548-.122-.548-.411 0-.384.414-.517.726-.517.236 0 .41.053.554.205l-.218.212zM42.421 27.632l-.146.823c-.047.261.071.442.34.442.251 0 .466-.209.51-.464l.14-.801h.32l-.27 1.528h-.29l.022-.222c-.18.172-.358.252-.573.252-.377 0-.6-.27-.52-.734l.146-.824h.321zM44.994 29.16l.147-.818c.046-.265-.044-.44-.337-.44-.255 0-.47.205-.514.457l-.14.8h-.32l.27-1.527h.293l-.022.223c.178-.165.361-.246.56-.246.374 0 .617.26.533.73l-.146.82h-.324zM46.081 29.37c-.022.211.14.297.411.297a.537.537 0 00.552-.469l.046-.262c-.14.196-.395.273-.585.273-.393 0-.666-.233-.666-.657 0-.604.448-.953.956-.953.215 0 .408.102.476.276l.053-.243h.311l-.267 1.573c-.1.583-.533.763-.928.763-.474 0-.735-.229-.67-.598h.311zm.09-.88c0 .261.172.42.418.42.663 0 .84-1.018.177-1.018a.583.583 0 00-.594.598z"/></g></g></g></svg>