<svg width="56" height="36" xmlns="http://www.w3.org/2000/svg"><g fill="none" fill-rule="evenodd"><path d="M0 3.75A3.75 3.75 0 0 1 3.75 0h48.5A3.76 3.76 0 0 1 56 3.75v28.5A3.75 3.75 0 0 1 52.25 36H3.75A3.76 3.76 0 0 1 0 32.25V3.75z" fill="#000" fill-rule="nonzero"/><path d="M1.25 3.75v28.5a2.5 2.5 0 0 0 2.5 2.5h48.5a2.5 2.5 0 0 0 2.5-2.5V3.75a2.5 2.5 0 0 0-2.5-2.5H3.75a2.5 2.5 0 0 0-2.5 2.5z" fill="#FFF"/><path fill="#E20613" d="M4 31.99h47.96V4.08H4z"/><g fill="#FFEC00"><path d="M26.68 14.79c0 .16-.15.17-.53.22a9.24 9.24 0 0 0-2.3.5c-.72.26-1.61.78-1.68 1.27-.15.97.9.8 1.52 1.57.4.65.67 1.7 1.53 1.7.61 0 1.12-.61 1.34-1.19.22-.58.23-.98.3-1.74.06-.72.15-1.4.32-1.86.13-.35.23-.5.3-.58.17-.22.44-.16.3.3-.3.94-.19 2.54-.23 3.72-.05 1.21-.62 2.6-2.14 2.8a1.56 1.56 0 0 1-1.66-.88c-.29-.56-.58-1.24-1.27-1.63-.59-.33-1.6-1.15-1.48-2.18.14-1.17 1.57-1.9 2.5-2.08 1.2-.23 2.14-.15 2.56-.17.48-.02.62.06.62.23M27.6 13.06c-.17 0-.18-.16-.22-.54a9.77 9.77 0 0 0-.49-2.34c-.27-.74-.77-1.65-1.25-1.73-.95-.14-.78.93-1.54 1.56-.63.42-1.66.68-1.66 1.56 0 .62.6 1.14 1.16 1.37.57.22.96.23 1.7.3.71.06 1.37.16 1.82.34a2 2 0 0 1 .57.29c.22.18.16.46-.28.31-.93-.3-2.5-.19-3.66-.24-1.18-.04-2.55-.63-2.73-2.18-.07-.6.12-1.3.85-1.69.56-.3 1.22-.59 1.6-1.3.32-.6 1.13-1.63 2.13-1.5 1.16.14 1.87 1.6 2.04 2.54.23 1.24.15 2.2.17 2.61.03.5-.06.64-.22.64M29.28 14c0-.17.16-.18.53-.23a9.24 9.24 0 0 0 2.3-.5c.72-.26 1.61-.78 1.69-1.27.14-.97-.9-.8-1.52-1.57-.42-.65-.68-1.7-1.54-1.7-.6 0-1.12.6-1.34 1.19-.22.58-.23.98-.3 1.74-.06.72-.15 1.4-.32 1.86-.13.35-.22.5-.29.58-.18.21-.45.15-.3-.3.3-.95.18-2.54.23-3.72.04-1.21.61-2.6 2.13-2.8.6-.07 1.27.13 1.66.88.29.56.58 1.24 1.27 1.63.59.32 1.6 1.15 1.48 2.17-.14 1.18-1.57 1.9-2.5 2.09-1.2.23-2.14.15-2.55.17-.49.02-.63-.06-.63-.23M28.37 15.72c.16 0 .17.15.22.54.13 1.1.24 1.66.48 2.34.27.74.77 1.65 1.26 1.73.94.14.77-.93 1.53-1.56.63-.42 1.67-.69 1.67-1.57 0-.62-.6-1.13-1.16-1.36-.58-.22-.97-.23-1.71-.3a7.29 7.29 0 0 1-1.82-.34 2 2 0 0 1-.57-.29c-.21-.18-.16-.46.28-.32.94.31 2.5.2 3.66.24 1.18.05 2.55.63 2.73 2.19.07.6-.12 1.29-.85 1.68-.56.3-1.22.6-1.6 1.3-.32.6-1.13 1.64-2.13 1.51-1.15-.14-1.87-1.6-2.04-2.54-.23-1.24-.15-2.2-.17-2.62-.02-.49.06-.63.22-.63M28.38 20.88a4.39 4.39 0 0 1-.45-.84c-.03-.05-.09-.04-.12-.02-.17.28-.21 1.55.1 2.53.3.97.45 1.12.8 1.6.23.34.52.59.7.75.23.18.56.08.36-.22a4.6 4.6 0 0 1-1.26-2.92l-.06-.64c0-.1-.06-.23-.07-.24M7.07 27.19c.44-.08 1.02-.32 1.02-1 0-.48-.28-.76-.66-.76-.1 0-.22.01-.3.1-.07.08-.06.21-.06.33v1.33zm0 1.3c0 .06.01.13.03.18.03.1.1.13.17.16.08.04.12.08.12.19 0 .2-.21.17-.32.17h-.86c-.1 0-.23-.04-.23-.19 0-.1.05-.14.11-.18l.05-.04c.1-.06.09-.19.09-.3v-2.73c0-.12.02-.25-.09-.3l-.05-.04c-.06-.05-.1-.08-.1-.19 0-.15.12-.19.22-.19h1.43c.3 0 .6.03.87.2.3.19.49.51.49.93 0 .54-.32.94-.69 1.16-.37.22-.83.28-1.24.3v.86zM10.75 27.8c0-.41-.1-.98-.51-.98-.42 0-.53.58-.53 1 0 .43.08 1.07.52 1.07.46 0 .52-.65.52-1.1m-1.42 1.14a1.52 1.52 0 0 1-.41-1.07c0-.4.15-.78.39-1.04.27-.29.6-.4.96-.4.65 0 1.28.56 1.28 1.4 0 .9-.65 1.46-1.32 1.46-.32 0-.65-.1-.9-.35M13.44 25.09c.04-.04.12-.1.18-.1.04 0 .09.05.09.11 0 .08-.06.16-.11.21l-.48.6c-.06.08-.18.24-.28.24-.1 0-.22-.16-.29-.24l-.47-.6c-.05-.06-.1-.13-.1-.21 0-.06.04-.11.09-.11.06 0 .12.06.18.1l.6.46.59-.46zm-.29 2.4c.35.12.68.28.68.8 0 .32-.16.6-.37.77-.21.15-.47.22-.72.22a1.2 1.2 0 0 1-.61-.15c-.16-.08-.36-.25-.36-.49 0-.13.08-.26.19-.26.1 0 .15.07.21.17.15.2.25.33.48.33.16 0 .4-.1.4-.34 0-.58-1.21-.14-1.21-1.16 0-.7.58-.97 1.06-.97.21 0 .55.07.73.22.1.07.1.26.1.38 0 .13-.01.28-.14.28-.21 0-.2-.49-.64-.49-.16 0-.35.1-.35.32 0 .2.2.27.33.3l.22.07zM15.1 28.36c0 .25.02.4.26.4.14 0 .31-.03.31.22 0 .2-.19.21-.3.21h-.64c-.3 0-.39-.05-.39-.43V26.9h-.1c-.13 0-.27 0-.27-.22 0-.15.08-.19.19-.2.12-.03.23-.05.3-.18.07-.12.12-.38.13-.52.04-.21.07-.29.26-.29.21 0 .23.04.23.28v.68h.27c.14 0 .29 0 .29.23 0 .2-.15.22-.28.22h-.27v1.45zM17.69 27.8c0-.41-.1-.98-.52-.98-.42 0-.52.58-.52 1 0 .43.07 1.07.51 1.07.47 0 .53-.65.53-1.1m-1.43 1.14a1.52 1.52 0 0 1-.4-1.07c0-.4.15-.78.38-1.04.27-.29.61-.4.96-.4.65 0 1.28.56 1.28 1.4 0 .9-.65 1.46-1.32 1.46-.32 0-.65-.1-.9-.35M20.3 27.9c.07-.2.18-.67.18-.87 0-.26-.2-.21-.2-.41 0-.18.15-.16.24-.16h.26c.1 0 .29-.04.29.15 0 .07-.03.12-.06.17-.11.13-.1.13-.15.34l-.05.24a7.72 7.72 0 0 1-.66 1.8c-.08.1-.18.12-.28.12-.2 0-.3-.05-.4-.26a7.36 7.36 0 0 1-.68-1.97c-.03-.1-.04-.17-.1-.24-.06-.04-.1-.08-.1-.17 0-.19.16-.18.26-.18h.6c.1 0 .3-.01.3.17 0 .19-.19.17-.19.36 0 .36.33 1.26.5 1.58l.24-.67zM23.69 28.47l.01.3c.02.04.06.07.1.1.04.03.08.07.08.15 0 .13-.09.17-.18.17h-.78c-.1 0-.18-.04-.18-.17 0-.08.04-.12.09-.15.03-.03.07-.06.08-.1.03-.07.02-.22.02-.3v-.91c0-.32 0-.67-.34-.67-.15 0-.28.07-.36.23-.06.14-.06.32-.06.47v.88l.01.3c.02.04.06.07.1.1.04.03.07.07.07.15 0 .13-.08.17-.17.17h-.78c-.1 0-.18-.04-.18-.17 0-.08.04-.12.09-.15.03-.03.07-.06.08-.1.03-.07.02-.22.02-.3V27.4c0-.2.02-.3-.14-.4a.16.16 0 0 1-.1-.16c0-.2.57-.42.72-.42.16 0 .19.26.2.41a.84.84 0 0 1 .74-.4c.24 0 .5.08.66.3.16.22.2.53.2.82v.93zM24.66 25.98c-.05.05-.12.13-.19.13-.05 0-.1-.05-.1-.12 0-.06.04-.14.07-.19l.24-.51c.08-.19.1-.24.27-.24h.21c.1-.01.24-.02.24.15 0 .12-.08.18-.15.24l-.59.54zm-.34 1.6c0-.13 0-.3-.02-.43-.01-.12-.06-.13-.14-.19-.06-.04-.12-.06-.12-.16 0-.14.15-.2.22-.22.18-.07.4-.17.58-.17.08 0 .13.03.17.12.06.13.06.41.06.57v1.37c0 .18-.02.3.11.4.05.03.1.07.1.15 0 .16-.12.17-.22.17h-.76c-.1 0-.18-.04-.18-.17 0-.08.03-.12.08-.16.04-.02.07-.04.1-.09.02-.07.02-.24.02-.31v-.88zM28.4 27.5c.36.1.68.27.68.8 0 .31-.15.59-.37.76-.2.15-.47.22-.72.22-.21 0-.41-.04-.6-.15-.16-.08-.37-.25-.37-.49 0-.13.08-.26.2-.26.1 0 .14.07.2.17.15.2.25.33.48.33.16 0 .4-.1.4-.34 0-.58-1.2-.14-1.2-1.16 0-.7.57-.97 1.05-.97.21 0 .55.07.73.22.1.07.1.26.1.38 0 .13 0 .28-.14.28-.2 0-.19-.49-.64-.49-.16 0-.35.1-.35.32 0 .2.2.27.34.3l.21.07zM30.35 29.47c0 .08 0 .24.02.32.02.05.06.07.1.1.06.04.11.08.11.17 0 .18-.14.18-.25.18h-.72c-.11 0-.25 0-.25-.18 0-.1.05-.13.1-.17.05-.03.1-.05.11-.1.02-.08.02-.24.02-.32V27.4c0-.2.02-.3-.14-.4a.16.16 0 0 1-.1-.16c0-.2.58-.42.72-.42.16 0 .19.26.2.41.21-.26.44-.4.72-.4.67 0 1.08.62 1.08 1.41 0 .81-.48 1.45-1.13 1.45-.15 0-.48-.07-.48-.34 0-.07.04-.14.1-.14l.22.02c.14 0 .26-.1.34-.23.12-.2.16-.48.16-.72 0-.38-.11-.97-.5-.97a.39.39 0 0 0-.32.18c-.1.15-.11.36-.11.54v1.85zM34.23 27.8c0-.41-.1-.98-.5-.98-.43 0-.54.58-.54 1 0 .43.08 1.07.52 1.07.46 0 .52-.65.52-1.1m-1.42 1.14a1.52 1.52 0 0 1-.41-1.07c0-.4.16-.78.4-1.04.26-.29.6-.4.95-.4.65 0 1.28.56 1.28 1.4 0 .9-.65 1.46-1.32 1.46-.32 0-.65-.1-.9-.35M36.86 25.08c.05-.03.12-.1.18-.1.05 0 .09.06.09.11 0 .09-.06.16-.1.21l-.48.6c-.07.09-.18.25-.3.25-.1 0-.2-.16-.28-.25l-.47-.6c-.04-.06-.1-.12-.1-.2 0-.06.04-.12.09-.12.06 0 .13.06.18.1l.6.46.59-.46zm-.55 3.35c0 .08 0 .24.03.3.02.06.06.09.1.11.06.04.11.08.11.17 0 .18-.14.18-.25.18h-.72c-.12 0-.25 0-.25-.18 0-.09.05-.13.1-.17.04-.02.09-.05.1-.1.03-.07.03-.23.03-.31v-1.04c0 .08 0-.04-.03-.16-.02-.12-.07-.15-.16-.2-.07-.05-.13-.1-.13-.2 0-.14.14-.2.23-.25.1-.05.38-.17.48-.17.21 0 .24.4.27.6.1-.28.34-.6.6-.6.2 0 .35.18.35.42 0 .18-.08.4-.25.4-.12 0-.2-.08-.3-.08-.1 0-.18.11-.22.21a1.6 1.6 0 0 0-.09.62v.45zM37.77 27.58l-.01-.42c-.02-.12-.06-.15-.14-.2-.05-.05-.11-.07-.11-.17 0-.15.2-.18.28-.21.14-.06.4-.17.55-.17.21 0 .18.39.18.56v1.5c0 .08 0 .23.02.3.02.04.06.07.1.1.04.03.07.07.07.15 0 .13-.08.17-.17.17h-.78c-.1 0-.18-.04-.18-.17 0-.08.04-.12.08-.15l.1-.1c.02-.07.01-.22.01-.3v-.89zm-.14-1.92c0-.3.23-.47.45-.47.23 0 .45.14.45.45 0 .3-.25.45-.46.45-.2 0-.44-.15-.44-.43zM39.92 28.36c0 .25.02.4.26.4.14 0 .31-.03.31.22 0 .2-.19.21-.3.21h-.64c-.3 0-.39-.05-.39-.43V26.9h-.09c-.13 0-.28 0-.28-.22 0-.15.09-.19.19-.2.12-.03.23-.05.3-.18.07-.12.12-.38.14-.52.03-.21.07-.29.25-.29.21 0 .23.04.23.28v.68h.27c.14 0 .3 0 .3.23 0 .2-.16.22-.29.22h-.26v1.45zM42.27 27.18c0-.22-.1-.37-.28-.37-.39 0-.56.63-.54 1.02.3-.02.82-.18.82-.65m-.18 1.64c.25 0 .44-.13.62-.34.07-.07.1-.12.2-.12.06 0 .13.07.13.15 0 .2-.25.45-.38.53-.24.18-.48.24-.77.24-.63 0-1.24-.5-1.24-1.34 0-.96.67-1.53 1.4-1.53.4 0 .94.24.94.83 0 .42-.35.66-.63.78-.28.1-.58.14-.87.2.07.35.3.6.6.6M43.48 26.06l-.01-.43c-.02-.12-.06-.14-.14-.2-.05-.04-.11-.07-.11-.16 0-.15.19-.19.28-.22.14-.05.4-.16.54-.16.22 0 .2.39.2.56v2.98c0 .08 0 .24.02.3.01.06.06.09.1.11.06.04.1.08.1.17 0 .18-.13.18-.24.18h-.73c-.1 0-.25 0-.25-.18 0-.09.05-.13.11-.17.04-.02.09-.05.1-.1.03-.07.03-.23.03-.31v-2.37zM47.12 28.47c0 .08 0 .23.02.3.02.04.05.07.09.1.04.03.08.07.08.15 0 .13-.08.17-.18.17h-.78c-.09 0-.17-.04-.17-.17 0-.08.03-.12.08-.15.03-.03.07-.06.09-.1.02-.07.02-.22.02-.3v-.91c0-.32-.01-.67-.34-.67-.16 0-.28.07-.36.23-.07.14-.07.32-.07.47v.88c0 .08 0 .23.02.3.02.04.05.07.09.1.04.03.08.07.08.15 0 .13-.08.17-.18.17h-.78c-.09 0-.17-.04-.17-.17 0-.08.03-.12.08-.15.03-.03.07-.06.09-.1.02-.07.02-.22.02-.3V27.4c0-.2.02-.3-.14-.4a.16.16 0 0 1-.1-.16c0-.2.57-.42.71-.42.16 0 .2.26.21.41a.84.84 0 0 1 .74-.4c.23 0 .49.08.65.3.17.22.2.53.2.82v.93zM48.95 27.75c-.33 0-.66.2-.66.65 0 .22.1.41.29.41.15 0 .27-.12.35-.27.1-.2.1-.38.1-.6v-.19h-.08zm.83.66c0 .08 0 .24.02.32a.2.2 0 0 0 .1.1c.07.05.12.09.12.18 0 .18-.14.18-.25.18h-.46c-.24 0-.24-.1-.25-.35a.76.76 0 0 1-.72.44c-.43 0-.83-.3-.83-.88 0-.81.83-1 1.34-1H49c0-.35-.14-.6-.43-.6s-.33.36-.62.36c-.13 0-.28-.08-.28-.27 0-.4.73-.48.95-.48.26 0 .55.05.77.21.3.2.38.5.38.9v.9z"/></g></g></svg>