<?xml version="1.0" encoding="UTF-8"?>
<svg width="56px" height="36px" viewBox="0 0 56 36" version="1.1" xmlns="http://www.w3.org/2000/svg" xmlns:xlink="http://www.w3.org/1999/xlink">
    <!-- Generator: Sketch 53.2 (72643) - https://sketchapp.com -->
    <title>eurobank</title>
    <desc>Created with Sketch.</desc>
    <g id="eurobank" stroke="none" stroke-width="1" fill="none" fill-rule="evenodd">
        <g id="Base">
            <path d="M0,3.75075247 C0,1.67926908 1.67596877,0 3.75035585,0 L52.2496442,0 C54.3209085,0 56,1.68806916 56,3.75075247 L56,32.2492475 C56,34.3207309 54.3240312,36 52.2496442,36 L3.75035585,36 C1.67909151,36 0,34.3119308 0,32.2492475 L0,3.75075247 Z" id="Rectangle-2" fill="#000000" fill-rule="nonzero"></path>
            <path d="M1.25,3.75075247 L1.25,32.2492475 C1.25,33.6250965 2.37296468,34.75 3.75035585,34.75 L52.2496442,34.75 C53.6324061,34.75 54.75,33.6316447 54.75,32.2492475 L54.75,3.75075247 C54.75,2.37490355 53.6270353,1.25 52.2496442,1.25 L3.75035585,1.25 C2.36759386,1.25 1.25,2.36835527 1.25,3.75075247 Z" id="Path" fill="#FFFFFF"></path>
        </g>
        <g id="logo.e4081db7a6ee" transform="translate(5.000000, 14.000000)" fill="#CC0033">
            <path d="M22.772152,2.3523 L22.7377193,3.4089 L22.6166667,3.3705 L22.3242573,3.3189 C21.6754152,3.3189 21.3205965,3.8466 21.3205965,4.8063 L21.3222105,7.17 L20.3567485,7.17 L20.3586316,2.3913 L21.2463509,2.3913 L21.2463509,3.0339 C21.4700969,2.58779269 21.8909545,2.30950384 22.3492749,2.3046 L22.6823041,2.3394 L22.772152,2.3523 Z M43.5891696,4.41 C43.6583041,4.5 45.7479415,7.17 45.7479415,7.17 L44.5183158,7.17 C44.5183158,7.17 43.0387836,5.1789 42.8563977,4.935 L42.8563977,7.1742 L41.8906667,7.1742 L41.8906667,0.861 L42.8563977,0.861 L42.8563977,4.0032 L44.2918129,2.3931 L45.4732865,2.3931 C45.4732865,2.3931 43.6658363,4.3287 43.5902456,4.4088 L43.5891696,4.41 Z M39.5169591,2.2818 C40.5122807,2.2818 41.0373801,2.9919 41.0373801,4.3371 L41.0373801,7.17 L40.0729942,7.17 L40.0729942,4.53 C40.0729942,4.0095 39.9831462,3.6573 39.8039883,3.456 C39.6529179,3.30097261 39.4514518,3.22181464 39.2466082,3.237 C38.6114854,3.237 38.2348772,3.8097 38.2348772,4.7733 L38.2348772,7.1733 L37.2702222,7.1733 L37.2702222,2.3913 L38.1676257,2.3913 L38.1676257,3.0174 C38.4805094,2.53740999 38.9864897,2.26173298 39.5183041,2.2815 L39.5169591,2.2818 Z M19.2444094,2.3928 L19.2444094,7.17 L18.3249474,7.17 L18.3249474,6.6504 C18.0129474,7.05600207 17.5544948,7.28450699 17.0754152,7.2732 C16.0176842,7.2732 15.4589591,6.5682 15.4589591,5.2254 L15.4589591,2.3931 L16.3980585,2.3931 L16.3980585,2.4561 L16.3996725,4.8774 C16.3996725,5.9298 16.6148772,6.3474 17.1620351,6.387 C18.1549357,6.387 18.3020819,5.2872 18.3020819,4.6272 L18.3020819,2.3931 L19.2436023,2.3931 L19.2444094,2.3928 Z M26.7445614,2.9742 C27.160604,3.46052763 27.3854394,4.11189091 27.369193,4.7838 C27.3887887,5.66024335 26.98072,6.4796268 26.3031935,6.92427867 C25.625667,7.36893055 24.7852219,7.36893055 24.1076954,6.92427867 C23.4301689,6.4796268 23.0221002,5.66024335 23.0416959,4.7838 C23.0416959,3.3228 23.9315673,2.3001 25.207731,2.3001 C25.7807655,2.28318045 26.3354022,2.52646076 26.7445614,2.9742 L26.7445614,2.9742 Z M25.205848,6.3702 C26.0101754,6.3702 26.3773684,5.5473 26.3773684,4.7841 C26.3773684,4.0119 25.9660585,3.1941 25.205848,3.1941 C24.4391813,3.1941 24.0276023,4.011 24.0276023,4.7841 C24.0276023,5.5473 24.3956023,6.3702 25.205848,6.3702 L25.205848,6.3702 Z M31.4381754,2.85 C31.8495347,3.36093333 32.0657456,4.03080099 32.0407485,4.7169 C32.0407485,5.8938 31.5613801,7.275 30.2026316,7.275 C29.7120471,7.28504419 29.2393599,7.06958463 28.8955322,6.6792 L28.8955322,7.17 L27.9862924,7.17 L27.9862924,0.861 L28.9299649,0.861 L28.9299649,2.877 C29.2552892,2.49035862 29.7174679,2.28427462 30.1921404,2.3142 C30.6557759,2.29515879 31.1061396,2.48892537 31.4381754,2.8503 L31.4381754,2.85 Z M31.0532281,4.8246 C31.0532281,4.8063 31.051345,4.7907 31.051345,4.7745 C31.051345,4.7583 31.0532281,4.7379 31.0532281,4.719 C31.0739501,4.27479062 30.9430405,3.83831332 30.6868421,3.4974 C30.5154753,3.30358341 30.2792444,3.19850845 30.0353099,3.2076 C29.2740234,3.2076 28.9299649,4.0353 28.9299649,4.8051 C28.9299649,5.568 29.2734854,6.3864 30.0272398,6.3864 C30.261229,6.38716504 30.4851138,6.28012823 30.6459532,6.0906 C30.9169025,5.73893047 31.0620126,5.28815841 31.0534971,4.8246 L31.0532281,4.8246 Z M35.4011696,7.17 L35.4011696,6.7341 C35.0910544,7.1025227 34.656358,7.30860629 34.2032865,7.302 C33.165193,7.302 32.5725731,6.7305 32.5725731,5.7366 C32.5725731,4.4007 33.8503509,4.041 34.6078713,4.041 C34.6078713,4.041 35.191345,4.0539 35.3072865,4.056 C35.2766199,3.4233 35.005462,3.1488 34.3956257,3.1488 C33.9838207,3.1475493 33.5840497,3.30360622 33.2628421,3.591 L33.1245731,3.726 L33.0395673,2.796 L33.0578596,2.7402 L33.0871813,2.7174 C33.5197603,2.42805776 34.0141499,2.2737704 34.5185614,2.2707 C34.9970367,2.2250042 35.4717029,2.39741561 35.834269,2.7486 C36.1301754,3.0786 36.2738246,3.5721 36.2708655,4.2555 L36.2708655,6.1575 L36.3036842,7.0452 L36.3203626,7.1691 L35.4011696,7.1691 L35.4011696,7.17 Z M34.269193,6.4284 C34.5506802,6.45240457 34.827708,6.33937515 35.0288462,6.11845573 C35.2299845,5.89753631 35.3355472,5.5903489 35.3183158,5.2761 L35.3183158,4.9032 L34.9091579,4.8879 C34.4932749,4.8879 33.5302339,4.9707 33.5302339,5.7366 C33.5685131,6.15159528 33.8952317,6.45779765 34.268386,6.4284 L34.269193,6.4284 Z M14.626655,5.085 L11.6944912,5.085 C11.7056368,5.4667295 11.8556024,5.82696287 12.1098803,6.08280864 C12.3641582,6.33865441 12.7008494,6.46807857 13.0424795,6.4413 C13.431866,6.43498479 13.8138417,6.32163583 14.1545497,6.1113 L14.2938947,6.0243 L14.2938947,6.9744 L14.2704912,7.0308 L14.2347135,7.0455 C13.8035888,7.23744217 13.3418927,7.32931419 12.877848,7.3155 C11.5567602,7.3155 10.7354854,6.3255 10.7354854,4.7238 C10.7354854,3.2319 11.5567602,2.2263 12.7785848,2.2263 C13.9178246,2.2263 14.626924,3.1443 14.626924,4.6263 L14.626924,5.0844 L14.626655,5.085 Z M12.7350058,3.06 C12.1996842,3.06 11.820386,3.5364 11.7127836,4.2918 L13.6923977,4.2918 C13.6116959,3.5031 13.2773216,3.06 12.7339298,3.06 L12.7350058,3.06 Z M8.07017544,0.8484 C8.06987855,0.379861694 7.72928979,0.000165444296 7.30915789,-9.42578264e-17 L0.762631579,-9.42578264e-17 C0.560586081,-0.000398156736 0.366685746,0.0887916355 0.223641292,0.247923408 C0.0805968384,0.40705518 0.000142473126,0.623075051 0,0.8484 L0,8.1477 C0.00132904013,8.61680287 0.341993525,8.99671783 0.762631579,8.9982 L7.30619883,8.9982 C7.72766806,8.99836603 8.06958164,8.61772937 8.07017544,8.1477 L8.07017544,0.8484 Z M4.11955556,5.4 C4.41384795,6.2016 5.39894737,6.3981 6.14167251,5.9055 L6.14839766,5.9055 C6.46636937,5.70059968 6.72269384,5.39511426 6.88493567,5.0277 C7.03416861,4.6911604 7.11717308,4.32293397 7.12838596,3.9477 L7.12838596,3.894 C7.1204582,3.02794027 6.76585322,2.21115902 6.16157895,1.6671 L6.15566082,1.6602 C5.04186012,0.648162057 3.46495329,0.56975093 2.27480854,1.46722601 C1.08466379,2.3647011 0.562555542,4.02595644 0.989872148,5.55566449 C1.41718875,7.08537255 2.69293978,8.12200776 4.12956384,8.10687933 C5.56618789,8.09175091 6.82415855,7.02843424 7.22549708,5.49 L7.22146199,5.5092 C6.77830275,6.55399494 5.82378213,7.20843706 4.78776608,7.1778 C2.60612865,7.0878 2.14962573,4.4265 3.28536842,3.5073 L3.28536842,3.5046 C3.53570646,3.30869337 3.83787322,3.212428 4.14322807,3.2313 C4.43105505,3.24773286 4.70119063,3.39121033 4.89402791,3.63007333 C5.08686519,3.86893632 5.18655471,4.18355247 5.17109942,4.5045 C5.14374942,5.03867725 4.73571579,5.44862034 4.25647953,5.4234 C4.21100755,5.41998806 4.16595199,5.41154661 4.12197661,5.3982 L4.11955556,5.4 Z" id="Shape"></path>
        </g>
    </g>
</svg>