<?xml version="1.0" encoding="UTF-8"?><svg width="56" height="36" viewBox="0 0 56 36" xmlns="http://www.w3.org/2000/svg"><g fill="none" fill-rule="evenodd"><path d="M0 3.75A3.749 3.749 0 013.75 0h48.5A3.756 3.756 0 0156 3.75v28.5A3.749 3.749 0 0152.25 36H3.75A3.756 3.756 0 010 32.25V3.75z" fill="#000" fill-rule="nonzero"/><path d="M1.25 3.75v28.5c0 1.375 1.123 2.5 2.5 2.5h48.5c1.382 0 2.5-1.118 2.5-2.5V3.75c0-1.375-1.123-2.5-2.5-2.5H3.75a2.499 2.499 0 00-2.5 2.5z" fill="#FFF"/><g fill-rule="nonzero"><path d="M14.337 13.898c-1.342-1.246-2.936-1.884-4.821-1.884-.224 0-.414 0-.638.031 1.597.129 3.001.767 4.181 1.853 1.34 1.278 2.011 2.812 2.011 4.6 0 1.788-.67 3.321-2.01 4.6-1.18 1.119-2.554 1.757-4.182 1.885h.638c1.885 0 3.48-.638 4.821-1.916 1.34-1.279 2.011-2.812 2.011-4.6 0-1.788-.702-3.29-2.01-4.57z" fill="#E2263C"/><path d="M4.694 22.521c1.119 1.12 2.49 1.693 4.056 1.693 1.597 0 2.936-.574 4.055-1.693.957-.957 1.532-2.076 1.661-3.385-2.427 1.821-5.873 2.714-10.376 2.65.16.257.35.512.604.735zm4.056-9.804c-1.597 0-2.937.573-4.056 1.693-1.118 1.119-1.692 2.49-1.692 4.057 0 .702.096 1.34.32 1.916 3.99-1.916 6.672-4.28 7.981-7.09a6.098 6.098 0 00-2.553-.576z" fill="#0F80B3"/><path d="M14.433 19.136c.03-.224.03-.448.03-.638 0-.99-.223-1.917-.67-2.748-1.405 2.331-4.406 4.121-8.94 5.431 3.578.383 6.771-.288 9.58-2.045z" fill="#58B211"/><path d="M12.774 14.41a5.784 5.784 0 00-1.468-1.086c-.543 2.3-2.682 4.695-6.45 7.155 4.215-1.055 7.183-2.62 8.939-4.727a5.7 5.7 0 00-1.021-1.342z" fill="#01682F"/><path d="M24.809 16.357a.483.483 0 00-.353-.128.402.402 0 00-.318.128c-.096.095-.16.19-.16.32v4.152c0 .064 0 .128.031.19.064.352.224.671.447.926a1.64 1.64 0 001.18.479h1.181c.352 0 .638-.095.895-.255.031.031.064.064.095.129.064.095.16.128.288.128.129 0 .19-.03.288-.128.064-.096.129-.19.129-.32v-5.302c0-.128-.065-.224-.16-.319a.41.41 0 00-.319-.128.477.477 0 00-.352.128.41.41 0 00-.128.32v4.311c0 .031-.031.064-.031.095a.612.612 0 01-.129.19.984.984 0 01-.414.191c-.03 0-.064.031-.095.031H25.67c-.03 0-.095 0-.095-.03a.971.971 0 01-.414-.191c-.064-.064-.095-.129-.129-.19 0-.032-.03-.065-.03-.096v-4.312c-.065-.095-.13-.224-.193-.319zm-1.916-1.917c-.095-.095-.19-.159-.319-.159H20.02c-.064 0-.128 0-.19.03a1.929 1.929 0 00-.926.449 1.642 1.642 0 00-.478 1.18v4.824c.03.384.19.703.478.99.19.191.383.32.638.415.16.064.319.095.512.095l2.522-.03c.129 0 .255-.032.32-.13.064-.097.159-.19.159-.318a.52.52 0 00-.16-.353.41.41 0 00-.319-.128h-.478c-1.214 0-1.851.03-1.885.03h-.095a.64.64 0 01-.512-.223c-.128-.16-.223-.32-.223-.512v-1.981h3.032a.35.35 0 00.318-.16c.096-.128.16-.19.16-.319a.52.52 0 00-.16-.352.402.402 0 00-.318-.128h-3.001v-1.853a.972.972 0 01.19-.414c.064-.064.129-.095.19-.129.031 0 .065-.03.096-.03h2.713a.402.402 0 00.318-.13.515.515 0 00.16-.352c0-.128-.124-.216-.188-.312zm8.589 1.12c0-.129-.065-.224-.129-.32-.064-.095-.224-.128-.352-.128a.402.402 0 00-.319.128c-.095.096-.16.191-.16.32v.83h-.735a.402.402 0 00-.319.129.484.484 0 00-.128.352c0 .129.03.255.128.353.096.095.19.16.32.16h.735v3.48c0 .065 0 .129.03.19.031.191.096.353.19.513.065.128.16.254.289.414.255.224.512.383.83.448.065.03.16.03.255.03h.478c.065 0 .096 0 .16-.03.064-.031.095-.065.16-.096a.515.515 0 00.159-.352.52.52 0 00-.16-.352l-.064-.065c-.095-.064-.16-.095-.255-.095h-.414c-.03 0-.064 0-.095-.03a.971.971 0 01-.414-.191c-.064-.065-.095-.129-.128-.19 0-.032-.031-.065-.031-.096v-3.614h.99a.35.35 0 00.319-.16.484.484 0 00.128-.352.674.674 0 00-.128-.353.41.41 0 00-.32-.128h-.99v-.798l-.03.003zm4.628.669h-.064a2.32 2.32 0 00-1.66.702c-.384.383-.574.798-.672 1.31 0 .03-.031.03-.031.095v2.14s0 .031.03.064c.065.512.289.927.672 1.31.447.448 1.021.702 1.661.702 0 0 .19 0 .512-.03.321-.032.702-.13 1.15-.289.447-.16.606-.352.478-.607-.129-.255-.288-.352-.414-.352-.16.03-.288.064-.415.095-.511.095-.894.129-1.213.095h-.095c-.353 0-.638-.128-.895-.414-.16-.16-.288-.414-.352-.767v-.607h3.448c.064-.095.095-.224.16-.352.03-.095.03-.19.064-.288.03-.16.064-.32.064-.479 0-.16-.031-.319-.064-.478-.096-.448-.32-.831-.672-1.215-.478-.378-1.051-.635-1.692-.635zm-.064 1.054h.064c.384 0 .702.129.957.415.255.254.383.542.414.926h-2.713c0-.353.129-.672.414-.926.226-.286.514-.415.864-.415zm4.439-2.843c-.096-.095-.224-.159-.32-.159a.52.52 0 00-.352.16.41.41 0 00-.128.319v7.059c0 .129.03.224.128.32.096.094.224.159.353.159a.393.393 0 00.319-.16c.095-.095.159-.19.159-.319v-7.06a.386.386 0 00-.16-.319zm2.777.32a.402.402 0 00-.129-.32.515.515 0 00-.352-.159.393.393 0 00-.319.16c-.095.095-.16.19-.16.319v7.059c0 .129.065.224.16.32.095.094.224.159.32.159a.52.52 0 00.351-.16.41.41 0 00.129-.319v-7.06zm6.066 3.866c0-.16-.031-.319-.031-.478a2.315 2.315 0 00-.671-1.215 2.265 2.265 0 00-1.692-.702h-.031a2.32 2.32 0 00-1.661.702c-.383.384-.607.798-.671 1.31 0 .03-.031.03-.031.095 0 .064-.031.16-.031.255v1.533c0 .19.03.32.03.353 0 .033 0 .03.032.064.064.512.288.926.67 1.31.448.447 1.022.702 1.662.702 0 0 .19 0 .512-.031.32-.031.702-.129 1.149-.288.447-.16.607-.353.447-.607-.128-.255-.288-.353-.414-.353-.16.031-.288.064-.414.095-.511.096-.926.129-1.244.096h-.062c-.352 0-.671-.129-.926-.415-.16-.16-.255-.414-.319-.766v-.607h3.441c.065-.096.095-.224.129-.353.03-.095.03-.19.064-.288.062-.062.062-.221.062-.412zm-2.394-1.343c.383 0 .702.129.957.415.254.254.383.542.414.926h-2.713c0-.353.128-.672.414-.926a1.48 1.48 0 01.928-.415c-.031 0 0 0 0 0zm3.927-.926c-.096 0-.19.064-.288.16-.065.095-.129.19-.129.319v5.271c0 .129.064.224.16.32.095.094.19.159.318.159a.52.52 0 00.353-.16.41.41 0 00.128-.319v-4.312c0-.03.031-.064.031-.095.031-.064.095-.129.129-.19a.984.984 0 01.414-.191c.03 0 .064-.03.128-.03h.448c.383-.032.511-.353.383-.958h-.83a1.83 1.83 0 00-.927.255l-.095-.096c-.03-.069-.126-.133-.223-.133z" fill="#1D1D1D"/></g></g></svg>