<?xml version="1.0" encoding="UTF-8"?><svg width="56" height="36" viewBox="0 0 56 36" xmlns="http://www.w3.org/2000/svg"><g fill="none" fill-rule="evenodd"><path d="M0 3.75A3.749 3.749 0 013.75 0h48.5A3.756 3.756 0 0156 3.75v28.5A3.749 3.749 0 0152.25 36H3.75A3.756 3.756 0 010 32.25V3.75z" fill="#000" fill-rule="nonzero"/><path d="M1.25 3.75v28.5c0 1.375 1.123 2.5 2.5 2.5h48.5c1.382 0 2.5-1.118 2.5-2.5V3.75c0-1.375-1.123-2.5-2.5-2.5H3.75a2.499 2.499 0 00-2.5 2.5z" fill="#FFF"/><g fill-rule="nonzero"><path d="M7.772 18.673v2.664h2.76v-2.664h-2.76zm-2.76 2.664V24h2.76v-2.663h-2.76zm2.76-2.664V16.01h-2.76v2.663h2.76z" fill="#FBCF40"/><path d="M20.429 18.749c0-.678-.26-1.256-.754-1.734-.47-.453-1.042-.678-1.693-.704h-2.267c-.702 0-1.302.225-1.77.704a2.31 2.31 0 00-.73 1.734v2.839c0 .678.233 1.23.73 1.708a2.466 2.466 0 001.77.704h2.265c.65-.026 1.223-.251 1.692-.704.494-.476.755-1.03.755-1.708v-.026h-1.744c-.027.3-.158.552-.391.78-.26.25-.572.376-.963.376h-1.172c-.363 0-.677-.125-.938-.377a1.212 1.212 0 01-.39-.905v-.955h5.598V18.75h.002zm-3.1-1.256c.364 0 .703.126.963.377s.39.552.39.929v.502H14.83v-.528c0-.351.13-.678.39-.93.26-.25.573-.376.938-.376h1.172v.026zm15.52-1.156h-1.353l-1.432 6.28h-.312l-1.458-6.28H25.95l-1.432 6.28h-.312l-1.459-6.28h-1.589L22.93 24h2.63l1.46-6.28L28.478 24h2.63l1.742-7.663zm2.968 0h-1.744V24h1.744v-7.663zM34.1 13.019v1.484h1.744v-1.484H34.1zm7.89 6.18h1.458v-1.331c-.027-1.005-.572-1.507-1.613-1.533h-.6c-.938.05-1.562.452-1.928 1.156v-1.156h-1.744v7.663h1.72v-5.576c.572-.803 1.171-1.104 1.797-.955.57.152.883.728.91 1.732zm9.999-.45c0-.678-.234-1.256-.754-1.734-.47-.453-1.042-.678-1.693-.704h-2.318c-.678.026-1.25.251-1.72.704a2.31 2.31 0 00-.73 1.734v2.839c0 .678.234 1.23.73 1.708.47.453 1.042.704 1.72.704h2.318c.651-.026 1.224-.251 1.693-.704.493-.476.754-1.03.754-1.708v-.026h-1.744c-.027.3-.157.552-.39.78-.261.25-.573.376-.939.376h-1.199c-.363 0-.677-.125-.938-.377a1.212 1.212 0 01-.39-.905v-.955h5.598V18.75h.002zm-3.098-1.256c.364 0 .678.126.939.377.26.251.39.552.39.929v.502h-3.854v-.528c0-.351.13-.678.39-.93.261-.25.573-.376.939-.376h1.199v.026h-.003z" fill="#007E59"/></g></g></svg>