<?xml version="1.0" encoding="UTF-8"?><svg width="56" height="36" viewBox="0 0 56 36" xmlns="http://www.w3.org/2000/svg"><g fill="none" fill-rule="evenodd"><path d="M0 3.75A3.749 3.749 0 013.75 0h48.5A3.756 3.756 0 0156 3.75v28.5A3.749 3.749 0 0152.25 36H3.75A3.756 3.756 0 010 32.25V3.75z" fill="#000" fill-rule="nonzero"/><path d="M1.25 3.75v28.5c0 1.375 1.123 2.5 2.5 2.5h48.5c1.382 0 2.5-1.118 2.5-2.5V3.75c0-1.375-1.123-2.5-2.5-2.5H3.75a2.499 2.499 0 00-2.5 2.5z" fill="#FFF"/><g><path d="M5.56 17.508h3.492v.638H5.563c.18 1.66 1.673 2.957 3.489 2.957v.515C6.814 21.618 5 19.913 5 17.81S6.814 14 9.052 14v.515c-1.83 0-3.33 1.315-3.492 2.993z" fill="#D24A00"/><path d="M6.575 17.295h-.417c.261-1.292 1.458-2.267 2.894-2.267v.392c-1.21 0-2.222.802-2.477 1.875zm-.008 1.028c.24 1.09 1.261 1.91 2.485 1.91v.393c-1.449 0-2.654-.993-2.9-2.303h.415z" fill="#555" fill-rule="nonzero"/><g fill-rule="nonzero"><path d="M12.21 19.659h2.247v.365h-2.675v-4.04h2.604v.366h-2.177v1.392h2.034v.36H12.21v1.557zm3.546-1.016l-1.026-1.29h.516l.759 1.016.76-1.015h.485l-1.008 1.272 1.103 1.398h-.522L16 18.91l-.848 1.113h-.486l1.09-1.38zm2.455 2.75h-.403v-4.04h.403v.463h.018c.115-.175.268-.307.46-.397a1.37 1.37 0 01.584-.134c.217 0 .414.036.59.109.176.072.326.17.45.296.125.126.222.274.291.445.07.172.104.356.104.554 0 .197-.035.382-.104.553-.069.171-.166.32-.29.445a1.347 1.347 0 01-.451.297 1.54 1.54 0 01-.59.108 1.37 1.37 0 01-.584-.134 1.117 1.117 0 01-.46-.385h-.018v1.82zm2.07-2.704c0-.149-.024-.288-.071-.42a.964.964 0 00-.534-.573 1.1 1.1 0 00-.445-.085c-.154 0-.296.027-.427.082a1.026 1.026 0 00-.56.57c-.053.132-.08.274-.08.426 0 .152.027.294.08.425a1.017 1.017 0 00.56.564c.13.056.273.083.427.083.166 0 .315-.027.445-.083a.932.932 0 00.534-.57c.047-.131.071-.271.071-.42zm1.127-.748a8.394 8.394 0 00-.024-.587h.386a4.969 4.969 0 01.024.456h.011a.938.938 0 01.356-.38 1 1 0 01.534-.145c.051 0 .098.002.14.006a.784.784 0 01.127.023l-.054.365a1.218 1.218 0 00-.285-.034.851.851 0 00-.308.057.66.66 0 00-.258.18.937.937 0 00-.177.313c-.046.128-.069.28-.069.46v1.369h-.403V17.94zm6.565.046a.694.694 0 00-.27-.27.803.803 0 00-.412-.106c-.07 0-.142.007-.213.022a.594.594 0 00-.19.075.41.41 0 00-.133.13.345.345 0 00-.05.189.32.32 0 00.16.288c.106.067.274.123.504.168.328.065.57.16.726.283.156.123.234.29.234.499a.75.75 0 01-.092.385.781.781 0 01-.24.257.99.99 0 01-.335.142c-.124.029-.25.043-.376.043-.21 0-.414-.042-.611-.125a1.122 1.122 0 01-.487-.394l.32-.228a.856.856 0 00.315.296c.138.08.29.12.457.12.087 0 .17-.007.249-.023a.585.585 0 00.207-.08.443.443 0 00.143-.145.418.418 0 00.053-.22c0-.14-.07-.246-.21-.316a2.827 2.827 0 00-.608-.197 3.77 3.77 0 01-.264-.071.92.92 0 01-.258-.126.59.59 0 01-.273-.522c0-.137.028-.254.083-.35a.71.71 0 01.222-.24 1.01 1.01 0 01.318-.14c.118-.03.24-.046.367-.046.194 0 .382.042.564.126a.896.896 0 01.409.354l-.309.222zm2.468 0a.694.694 0 00-.27-.27.803.803 0 00-.412-.106c-.071 0-.143.007-.214.022a.594.594 0 00-.19.075.41.41 0 00-.133.13.345.345 0 00-.05.189.32.32 0 00.16.288c.106.067.275.123.504.168.328.065.57.16.726.283.156.123.235.29.235.499a.75.75 0 01-.092.385.781.781 0 01-.24.257.99.99 0 01-.336.142c-.124.029-.25.043-.376.043-.21 0-.413-.042-.611-.125a1.122 1.122 0 01-.486-.394l.32-.228a.856.856 0 00.314.296c.139.08.29.12.457.12.087 0 .17-.007.249-.023a.585.585 0 00.207-.08.443.443 0 00.143-.145.418.418 0 00.053-.22c0-.14-.07-.246-.21-.316a2.827 2.827 0 00-.608-.197 3.77 3.77 0 01-.264-.071.92.92 0 01-.258-.126.59.59 0 01-.273-.522c0-.137.028-.254.083-.35a.71.71 0 01.223-.24 1.01 1.01 0 01.317-.14c.118-.03.241-.046.368-.046.193 0 .381.042.563.126a.896.896 0 01.41.354l-.31.222zm-5.467 1.726c.173-.053.324-.131.452-.235.128-.104.226-.23.294-.375l.283.168c-.08.18-.201.335-.362.465-.16.13-.353.23-.575.298a1.694 1.694 0 01-.816.058 1.347 1.347 0 01-1.067-.967 1.442 1.442 0 01-.036-.754c.055-.242.17-.452.343-.631.173-.179.392-.308.657-.39.247-.075.487-.09.72-.042.232.047.437.149.614.305.178.157.307.357.39.601l-2.158 1.126a.99.99 0 00.54.391c.222.067.463.061.72-.018zm-.732-2.053c-.195.06-.355.155-.483.289a.967.967 0 00-.25.47c-.04.18-.029.37.032.569.016.05.029.087.04.11l1.853-.966a.957.957 0 00-.49-.451 1.007 1.007 0 00-.702-.021z" fill="#D24B01"/><path d="M34.99 19.373a1.699 1.699 0 01-.607.53 2.013 2.013 0 01-.44.163c-.16.04-.334.06-.524.06-.316 0-.609-.053-.878-.16a2.009 2.009 0 01-1.148-1.112 2.171 2.171 0 01-.162-.85c0-.308.055-.591.166-.85.11-.258.264-.482.46-.67.195-.188.426-.336.693-.442.267-.107.557-.16.869-.16a2.25 2.25 0 01.872.174c.13.055.249.122.355.2.107.078.196.166.267.265l-.355.25a1.034 1.034 0 00-.175-.193 1.192 1.192 0 00-.258-.171 1.653 1.653 0 00-.324-.12 1.797 1.797 0 00-1.109.097 1.645 1.645 0 00-.892.947c-.08.213-.119.437-.119.673 0 .236.04.46.122.673a1.645 1.645 0 00.895.947c.216.095.458.143.727.143.241 0 .47-.048.688-.143.217-.095.399-.247.545-.456l.332.205zm3.233-.684c0 .201-.037.388-.11.559a1.342 1.342 0 01-.774.739c-.182.07-.381.105-.599.105a1.63 1.63 0 01-.593-.105 1.342 1.342 0 01-.774-.739 1.408 1.408 0 01-.11-.56c0-.2.037-.387.11-.558a1.342 1.342 0 01.774-.74c.182-.07.38-.105.593-.105.218 0 .417.036.6.106a1.342 1.342 0 01.774.739c.072.17.109.357.109.559zm-.427 0a1.18 1.18 0 00-.074-.42.996.996 0 00-.543-.573 1.084 1.084 0 00-.439-.085 1.003 1.003 0 00-.976.659 1.18 1.18 0 00-.074.419c0 .148.025.288.075.419a.969.969 0 00.54.57c.128.056.273.083.435.083.162 0 .309-.027.439-.083a.962.962 0 00.543-.57 1.18 1.18 0 00.074-.42zm1.304-1.335a4.969 4.969 0 01.024.456h.012a.895.895 0 01.385-.38 1.16 1.16 0 01.564-.145c.352 0 .616.101.791.303.176.201.264.467.264.798v1.638h-.403v-1.478c0-.14-.012-.268-.035-.382a.783.783 0 00-.122-.294.575.575 0 00-.231-.191.855.855 0 00-.365-.068.764.764 0 00-.581.254.946.946 0 00-.19.325 1.368 1.368 0 00-.071.464v1.37h-.403V17.94a8.394 8.394 0 00-.024-.587h.385zm2.949 0a4.969 4.969 0 01.024.456h.011a.895.895 0 01.386-.38 1.16 1.16 0 01.563-.145c.352 0 .616.101.792.303.176.201.264.467.264.798v1.638h-.404v-1.478c0-.14-.012-.268-.035-.382a.783.783 0 00-.122-.294.575.575 0 00-.231-.191.855.855 0 00-.365-.068.764.764 0 00-.581.254.946.946 0 00-.19.325 1.368 1.368 0 00-.07.464v1.37h-.404V17.94a8.394 8.394 0 00-.024-.587h.386zm7.921.61a.756.756 0 00-.293-.254.896.896 0 00-.418-.1c-.162 0-.309.028-.44.083a.993.993 0 00-.548.57c-.05.132-.074.274-.074.426 0 .152.025.293.074.422a.962.962 0 00.543.568c.13.055.277.082.439.082a.957.957 0 00.45-.097.913.913 0 00.303-.25l.302.216c-.118.14-.263.253-.435.337a1.405 1.405 0 01-.62.125c-.226 0-.43-.035-.611-.105a1.327 1.327 0 01-.765-.739 1.442 1.442 0 01-.107-.56c0-.2.036-.387.107-.558a1.327 1.327 0 01.765-.74c.182-.07.385-.105.61-.105.187 0 .375.04.567.117.192.078.347.193.466.345l-.315.217zm-3.522 1.75c.173-.054.324-.132.452-.236.129-.104.227-.23.294-.375l.283.168c-.08.18-.2.335-.362.465-.16.13-.352.23-.575.298a1.694 1.694 0 01-.816.058 1.347 1.347 0 01-1.066-.967 1.442 1.442 0 01-.037-.754c.056-.242.17-.452.343-.631.173-.179.392-.308.657-.39.248-.075.487-.09.72-.042.233.047.437.149.615.305.177.157.307.357.39.601l-2.16 1.126a.99.99 0 00.54.391c.224.067.464.061.722-.018zm-.732-2.054c-.194.06-.355.155-.482.289a.967.967 0 00-.25.47c-.04.18-.03.37.031.569.016.05.029.087.04.11l1.854-.966a.957.957 0 00-.492-.451 1.007 1.007 0 00-.701-.021zm5.236 2.379v-2.582h-.53v-.377h.53v-1.163h.371v1.163h.609v.377h-.609v2.582h-.37zm-17.622 1.23h.548c.096 0 .19.013.285.039a.766.766 0 01.254.12.615.615 0 01.251.524.948.948 0 01-.078.389.873.873 0 01-.216.3.984.984 0 01-.328.191 1.21 1.21 0 01-.412.068h-.603l.299-1.63zm-.031 1.433h.347a.86.86 0 00.336-.06.725.725 0 00.243-.163.669.669 0 00.148-.232.754.754 0 00.049-.268.55.55 0 00-.036-.199.448.448 0 00-.11-.164.524.524 0 00-.186-.111.787.787 0 00-.27-.042h-.294l-.227 1.24zm1.779.198h-.235l.3-1.63h.234l-.3 1.63zm.646 0h-.232l.3-1.63h.48c.083 0 .16.009.228.026a.529.529 0 01.176.079.36.36 0 01.112.126.455.455 0 01.004.36.43.43 0 01-.098.14.5.5 0 01-.149.096.79.79 0 01-.189.053l.362.75h-.264l-.337-.727h-.261l-.132.727zm.165-.914h.261c.06 0 .118-.005.171-.014.054-.009.1-.025.14-.047a.264.264 0 00.093-.087.25.25 0 00.034-.138c0-.085-.031-.147-.094-.184a.51.51 0 00-.258-.055h-.249l-.098.525zm1.336.714h.879l-.036.2h-1.11l.298-1.63H38.3l-.036.198h-.814l-.088.493h.775l-.036.19h-.775l-.1.55zm2.61-.055a.78.78 0 01-.454.274 1.003 1.003 0 01-.531-.028.64.64 0 01-.394-.364.72.72 0 01-.055-.285 1.008 1.008 0 011.005-1.014.874.874 0 01.343.07c.05.023.094.05.134.08.04.03.072.065.096.104l-.194.136a.387.387 0 00-.135-.132.465.465 0 00-.25-.064.682.682 0 00-.305.068.789.789 0 00-.395.432.807.807 0 00-.055.292.61.61 0 00.035.207.481.481 0 00.271.284.664.664 0 00.498-.014.63.63 0 00.228-.173l.158.127zm.737.255h-.234l.263-1.432h-.536l.036-.198h1.302l-.036.198h-.531l-.264 1.432zm1.633-1.63h.548c.096 0 .191.012.285.038a.766.766 0 01.254.12.615.615 0 01.251.524.948.948 0 01-.077.389.873.873 0 01-.217.3.984.984 0 01-.328.191 1.21 1.21 0 01-.412.068h-.603l.3-1.63zm-.031 1.432h.347a.86.86 0 00.337-.06.725.725 0 00.243-.163.669.669 0 00.147-.232.754.754 0 00.049-.268.55.55 0 00-.036-.199.448.448 0 00-.109-.164.524.524 0 00-.187-.111.787.787 0 00-.269-.042h-.295l-.227 1.24zm1.812-.002h.88l-.037.2h-1.11l.299-1.63h1.043l-.035.198h-.815l-.088.493h.776l-.036.19h-.776l-.1.55zm1.425-1.43h.484c.175 0 .31.036.405.108a.357.357 0 01.143.302c0 .086-.016.16-.05.224a.426.426 0 01-.138.158.632.632 0 01-.214.092c-.083.02-.175.03-.276.03h-.29l-.131.716h-.232l.299-1.63zm.098.725h.268c.131 0 .236-.023.314-.069.078-.046.117-.12.117-.22a.245.245 0 00-.025-.117.2.2 0 00-.07-.076.303.303 0 00-.11-.04.787.787 0 00-.14-.012h-.253l-.1.534zm1.863.947a.99.99 0 01-.322-.05.712.712 0 01-.248-.141.63.63 0 01-.16-.223.727.727 0 01-.055-.29 1.02 1.02 0 01.283-.714.954.954 0 01.703-.296c.115 0 .22.017.316.05s.178.08.247.142a.632.632 0 01.159.22.719.719 0 01.056.29c0 .14-.024.272-.073.395a.979.979 0 01-.516.537.954.954 0 01-.39.08zm.735-.99a.581.581 0 00-.036-.207.49.49 0 00-.277-.282.615.615 0 00-.233-.041.66.66 0 00-.3.068.736.736 0 00-.232.18.856.856 0 00-.199.547c0 .072.013.14.037.204a.476.476 0 00.274.283.622.622 0 00.236.042.675.675 0 00.532-.245.863.863 0 00.198-.55zm1.494-.387a.342.342 0 00-.13-.107.41.41 0 00-.184-.04.5.5 0 00-.123.015.38.38 0 00-.117.052.298.298 0 00-.089.091.242.242 0 00-.035.131.197.197 0 00.077.162c.024.02.053.038.086.054.034.016.07.03.11.045.062.021.12.045.174.072.053.027.1.059.141.095a.362.362 0 01.13.287.47.47 0 01-.171.373.608.608 0 01-.2.108.83.83 0 01-.425.023.814.814 0 01-.154-.047.597.597 0 01-.135-.079.431.431 0 01-.102-.111l.196-.127c.032.054.08.099.145.135a.505.505 0 00.362.035.387.387 0 00.12-.058.297.297 0 00.086-.095.262.262 0 00.032-.132.214.214 0 00-.026-.109.268.268 0 00-.072-.08.524.524 0 00-.106-.061 1.591 1.591 0 00-.126-.05 1.487 1.487 0 01-.144-.062.525.525 0 01-.122-.083.362.362 0 01-.084-.115.454.454 0 01.146-.523.628.628 0 01.199-.1.835.835 0 01.249-.036c.099 0 .19.018.276.053a.445.445 0 01.198.15l-.182.134zm.522 1.335h-.235l.3-1.63h.234l-.3 1.63zm.96 0h-.235l.264-1.432h-.537l.036-.198h1.303l-.036.198h-.532l-.263 1.432z" fill="#555"/></g></g></g></svg>