<?xml version="1.0" encoding="UTF-8"?><svg width="56" height="36" viewBox="0 0 56 36" xmlns="http://www.w3.org/2000/svg"><g fill="none" fill-rule="evenodd"><path d="M0 3.75A3.749 3.749 0 013.75 0h48.5A3.756 3.756 0 0156 3.75v28.5A3.749 3.749 0 0152.25 36H3.75A3.756 3.756 0 010 32.25V3.75z" fill="#000" fill-rule="nonzero"/><path d="M1.25 3.75v28.5c0 1.375 1.123 2.5 2.5 2.5h48.5c1.382 0 2.5-1.118 2.5-2.5V3.75c0-1.375-1.123-2.5-2.5-2.5H3.75a2.499 2.499 0 00-2.5 2.5z" fill="#FFF"/><g fill="#0274DE"><path d="M7 22.4c0-.108.039-.202.117-.281l3.142-3.2a.374.374 0 01.277-.119c.106 0 .198.04.276.119.078.079.117.173.117.281v1.6h1.375c.4 0 .76-.012 1.077-.037a7.65 7.65 0 00.945-.135c.313-.064.585-.153.817-.265.23-.113.447-.258.647-.435s.364-.387.491-.631.226-.532.298-.866a5.41 5.41 0 00.107-1.131c0-.23-.01-.485-.03-.769 0-.025-.005-.074-.016-.147a1.299 1.299 0 01-.015-.165c0-.063.017-.115.052-.156a.178.178 0 01.144-.063c.066 0 .123.035.172.106a.707.707 0 01.08.138 12.422 12.422 0 01.147.337c.52 1.188.78 2.127.78 2.819 0 .83-.108 1.523-.325 2.081C17.012 23.161 15.22 24 12.304 24h-1.375v1.6a.388.388 0 01-.117.281.374.374 0 01-.276.119.374.374 0 01-.277-.119l-3.142-3.2A.388.388 0 017 22.4z"/><path d="M16 14.6a.388.388 0 01-.117.281l-3.142 3.2a.374.374 0 01-.277.119.374.374 0 01-.276-.119.388.388 0 01-.117-.281v-1.6h-1.375c-.4 0-.76.012-1.077.037a7.65 7.65 0 00-.945.135 3.469 3.469 0 00-.817.265 2.879 2.879 0 00-.647.435 2.17 2.17 0 00-.491.631 3.437 3.437 0 00-.298.866 5.41 5.41 0 00-.107 1.131c0 .23.01.485.03.769 0 .025.005.074.016.147.01.073.015.128.015.165a.236.236 0 01-.052.156.178.178 0 01-.144.063c-.066 0-.123-.035-.172-.106a.707.707 0 01-.08-.138 12.422 12.422 0 01-.147-.337C5.26 19.23 5 18.292 5 17.6c0-.83.108-1.523.325-2.081C5.988 13.839 7.78 13 10.696 13h1.375v-1.6c0-.108.04-.202.117-.281a.374.374 0 01.276-.119c.107 0 .199.04.277.119l3.142 3.2c.078.079.117.173.117.281zM23.32 13V9.475h2.505v.71h-1.61v.67h1.51v.705h-1.51v.73h1.61V13H23.32zm4.895-1.78l1.35 1.78H28.49l-.795-1.11-.8 1.11H25.83l1.345-1.78-1.32-1.745h1.07l.77 1.08.78-1.08h1.065l-1.325 1.745zm1.52-1.745h1.705c.39 0 .693.1.91.298.217.198.325.474.325.827 0 .35-.11.625-.328.825-.218.2-.52.3-.907.3h-.785V13h-.92V9.475zm1.58 1.56c.17 0 .296-.035.377-.105.082-.07.123-.178.123-.325 0-.147-.04-.256-.123-.328-.081-.071-.207-.107-.377-.107h-.66v.865h.66zM36.29 13h-1.01l-.61-1.125c-.077-.13-.198-.195-.365-.195h-.28V13h-.905V9.475h1.68c.427 0 .747.092.963.278.215.185.322.452.322.802 0 .267-.073.492-.22.678a1.08 1.08 0 01-.62.372c.203.043.365.175.485.395l.56 1zm-1.197-2.105c.088-.063.132-.167.132-.31 0-.147-.044-.252-.133-.317-.088-.066-.234-.098-.437-.098h-.64v.82h.64c.203 0 .35-.032.438-.095zM36.654 13V9.475h2.505v.71h-1.61v.67h1.51v.705h-1.51v.73h1.61V13h-2.505zm3.48-.06a1.909 1.909 0 01-.625-.28l.285-.65a2.168 2.168 0 001.13.33c.2 0 .352-.027.458-.082.105-.056.157-.133.157-.233 0-.09-.047-.163-.142-.22-.096-.057-.276-.113-.543-.17a3.155 3.155 0 01-.775-.25c-.187-.097-.317-.21-.392-.34a.947.947 0 01-.113-.48c0-.217.06-.41.182-.583.122-.171.294-.306.516-.404.221-.099.475-.148.762-.148.253 0 .5.036.738.108.238.071.424.164.557.277l-.28.65c-.32-.22-.657-.33-1.01-.33a.762.762 0 00-.41.098c-.103.065-.155.15-.155.257a.22.22 0 00.055.155c.037.04.105.08.205.118.1.038.248.077.445.117.32.07.572.154.755.252a.964.964 0 01.39.343.9.9 0 01.115.465c0 .347-.133.617-.4.812-.267.196-.642.293-1.125.293-.263 0-.523-.035-.78-.105zm3.32 0a1.909 1.909 0 01-.625-.28l.285-.65a2.168 2.168 0 001.13.33c.2 0 .352-.027.458-.082.105-.056.157-.133.157-.233 0-.09-.047-.163-.142-.22-.096-.057-.276-.113-.543-.17a3.155 3.155 0 01-.775-.25c-.187-.097-.317-.21-.392-.34a.947.947 0 01-.113-.48c0-.217.06-.41.182-.583.122-.171.294-.306.516-.404.221-.099.475-.148.762-.148.253 0 .5.036.738.108.238.071.424.164.557.277l-.28.65c-.32-.22-.657-.33-1.01-.33a.762.762 0 00-.41.098c-.103.065-.155.15-.155.257a.22.22 0 00.055.155c.037.04.105.08.205.118.1.038.248.077.445.117.32.07.572.154.755.252a.964.964 0 01.39.343.9.9 0 01.115.465c0 .347-.133.617-.4.812-.267.196-.642.293-1.125.293-.263 0-.523-.035-.78-.105zM26.16 18.488c.11.148.165.33.165.547 0 .193-.05.362-.152.508a.985.985 0 01-.435.337c-.189.08-.41.12-.663.12H23.32v-3.525h1.705c.37 0 .664.082.883.248a.793.793 0 01.327.667c0 .18-.048.34-.145.478a.823.823 0 01-.405.302c.207.063.365.17.475.318zm-1.945-.628h.655c.173 0 .3-.027.38-.08.08-.053.12-.138.12-.255 0-.123-.04-.213-.12-.27-.08-.057-.207-.085-.38-.085h-.655v.69zm1.137 1.357c.079-.058.118-.154.118-.287 0-.133-.04-.23-.117-.287-.079-.059-.21-.088-.393-.088h-.745v.75h.745c.183 0 .314-.03.392-.088zM29.48 20l-.315-.73h-1.56l-.315.73h-.925l1.645-3.525h.73L30.39 20h-.91zm-1.58-1.42h.97l-.485-1.13-.485 1.13zm4.985-2.105h.86V20h-.68l-1.61-2.015V20H30.6v-3.525h.67l1.615 2.015v-2.015zM37.815 20h-1.09l-1.42-1.595V20h-.92v-3.525h.92v1.515l1.38-1.515h1.075l-1.555 1.675 1.61 1.85zm-13.7 7v-2.78H23.06v-.745h3.04v.745h-1.055V27h-.93zm5.535 0h-1.01l-.61-1.125c-.077-.13-.198-.195-.365-.195h-.28V27h-.905v-3.525h1.68c.427 0 .747.092.962.277.216.186.323.453.323.803 0 .267-.073.492-.22.678a1.08 1.08 0 01-.62.372c.203.043.365.175.485.395l.56 1zm-1.197-2.105c.088-.063.132-.167.132-.31 0-.147-.044-.252-.133-.318-.088-.065-.234-.097-.437-.097h-.64v.82h.64c.203 0 .35-.032.438-.095zM32.7 27l-.315-.73h-1.56l-.315.73h-.925l1.645-3.525h.73L33.61 27h-.91zm-1.58-1.42h.97l-.485-1.13-.485 1.13zm4.985-2.105h.86V27h-.68l-1.61-2.015V27h-.855v-3.525h.67l1.615 2.015v-2.015zM38.1 26.94a1.909 1.909 0 01-.625-.28l.285-.65a2.168 2.168 0 001.13.33c.2 0 .352-.027.458-.082.105-.056.157-.133.157-.233 0-.09-.047-.163-.142-.22-.096-.057-.276-.113-.543-.17a3.155 3.155 0 01-.775-.25c-.187-.097-.317-.21-.392-.34a.947.947 0 01-.113-.48c0-.217.06-.41.183-.582.121-.172.293-.307.515-.405.221-.099.475-.148.762-.148.253 0 .5.036.738.107.238.072.424.165.557.278l-.28.65c-.32-.22-.657-.33-1.01-.33a.762.762 0 00-.41.098c-.103.065-.155.15-.155.257a.22.22 0 00.055.155c.037.04.105.08.205.118.1.038.248.077.445.117.32.07.572.154.755.253a.964.964 0 01.39.342.9.9 0 01.115.465c0 .347-.133.617-.4.813-.267.195-.642.292-1.125.292-.263 0-.523-.035-.78-.105zm2.825.06v-3.525h2.455v.72h-1.55v.65h1.45v.72h-1.45V27h-.905zm2.89 0v-3.525h2.505v.71h-1.61v.67h1.51v.705h-1.51v.73h1.61V27h-2.505zm6.155 0h-1.01l-.61-1.125c-.077-.13-.198-.195-.365-.195h-.28V27H46.8v-3.525h1.68c.427 0 .747.092.963.277.215.186.322.453.322.803 0 .267-.073.492-.22.678a1.08 1.08 0 01-.62.372c.203.043.365.175.485.395l.56 1zm-1.197-2.105c.088-.063.132-.167.132-.31 0-.147-.044-.252-.132-.317-.089-.066-.235-.098-.438-.098h-.64v.82h.64c.203 0 .35-.032.438-.095z"/></g></g></svg>