<?xml version="1.0" encoding="UTF-8"?><svg width="56" height="36" viewBox="0 0 56 36" xmlns="http://www.w3.org/2000/svg"><g fill="none" fill-rule="evenodd"><path d="M0 3.75A3.749 3.749 0 013.75 0h48.5A3.756 3.756 0 0156 3.75v28.5A3.749 3.749 0 0152.25 36H3.75A3.756 3.756 0 010 32.25V3.75z" fill="#000" fill-rule="nonzero"/><path d="M1.25 3.75v28.5c0 1.375 1.123 2.5 2.5 2.5h48.5c1.382 0 2.5-1.118 2.5-2.5V3.75c0-1.375-1.123-2.5-2.5-2.5H3.75a2.499 2.499 0 00-2.5 2.5z" fill="#FFF"/><g fill-rule="nonzero"><path d="M10.523 23.458l-.065.159-.614.022c-.528.013-.959.114-1.282.307-.324.182-.56.478-.712.866-.128.375-.14.662-.033.866.128.204.354.307.69.307.28 0 .507-.035.7-.113.204-.08.42-.24.668-.456h.022l.012.5h.668l.895-2.46c.162-.446.15-.776-.021-.992-.172-.217-.495-.32-.96-.32-.485 0-.968.114-1.453.33l.064.685c.443-.182.797-.275 1.078-.275.364.005.471.186.343.574zm-.281.753l-.107.307a1.126 1.126 0 01-.388.536 1.006 1.006 0 01-.614.204c-.312 0-.41-.149-.302-.433a.788.788 0 01.366-.446c.171-.103.4-.148.678-.158l.367-.01zM6.2 21.077H4.79L3.02 25.92h1.714c.516 0 .968-.125 1.356-.375a1.98 1.98 0 00.83-1.014c.12-.32.141-.569.087-.752-.065-.194-.226-.32-.486-.375l.012-.036c.226-.035.43-.148.626-.33.205-.193.355-.432.464-.717.15-.432.119-.74-.098-.933-.226-.207-.668-.31-1.325-.31zm-.248.856c.281 0 .464.035.572.113.097.08.107.217.054.398-.076.194-.183.342-.333.433-.15.08-.355.126-.626.126H5.05l.388-1.06h.516v-.01zm.01 2.484c-.086.229-.205.388-.376.49-.162.104-.376.16-.647.16h-.636l.464-1.254h.605c.526 0 .73.204.59.604zm13.48-3.637h-.97l-1.863 5.14h.96l.42-1.15.529-.353.464 1.505h1.1l-.715-2.086 1.973-1.619h-1.066l-2.016 1.687h-.011l1.194-3.124zm-4.03 1.37c-.238 0-.464.045-.678.148-.226.09-.421.216-.593.397H14.1l.043-.468h-.733l-1.347 3.692h.96l.625-1.744c.162-.445.333-.752.517-.933a.924.924 0 01.678-.285c.193 0 .312.068.355.204.042.126.011.33-.086.604l-.788 2.154h.96l.873-2.416c.161-.433.171-.762.054-1.001-.128-.24-.388-.353-.797-.353zm-3.06-9.255l.55-1.46H8.29l-3.07 8.26H6.9l1.198-3.246h2.724l.538-1.435H8.624l.797-2.119h2.932zm4.181 2.61l-.098.274-1.087.023c-.926.035-1.68.216-2.263.546-.571.307-.98.798-1.228 1.47-.238.64-.248 1.127-.055 1.47.217.342.626.513 1.218.513.486 0 .905-.068 1.25-.194.354-.148.733-.41 1.152-.775h.042l.022.856h1.176l1.551-4.183c.281-.763.27-1.334-.033-1.699-.302-.365-.862-.546-1.702-.546-.861 0-1.713.181-2.553.569l.119 1.163c.776-.307 1.411-.469 1.906-.469.638.013.83.333.583.982zm-2.316 1.55c.303-.158.7-.251 1.198-.274l.647-.023-.193.536c-.14.375-.366.672-.678.901a1.803 1.803 0 01-1.066.343c-.538 0-.721-.24-.538-.718.133-.332.35-.593.63-.765zM32.05 23.62l-.614.023c-.528.012-.959.113-1.282.307-.324.181-.56.478-.712.866-.128.375-.14.662-.033.865.128.204.354.307.69.307.28 0 .516-.035.7-.113.204-.08.42-.239.656-.455h.034v.5h.669l.894-2.46c.162-.446.15-.776-.021-.993-.171-.216-.495-.32-.969-.32-.485 0-.968.114-1.444.33l.064.685c.443-.181.81-.274 1.088-.274.354 0 .473.194.333.569l-.053.163zm-.216.592l-.107.307a1.126 1.126 0 01-.388.536.983.983 0 01-.605.204c-.311 0-.409-.149-.302-.433a.788.788 0 01.367-.446c.171-.103.4-.148.678-.158l.357-.01zm-7.78-3.134l-.311.856h1.249l-1.454 3.976h.968l1.454-3.976h1.24l.312-.856h-3.458zm-2.242-5.708c-.107-.126-.14-.262-.085-.41.097-.274.388-.41.895-.41.28 0 .537.045.764.136.238.08.485.193.742.32l.969-1.244c-.572-.33-1.219-.5-1.95-.5-.787 0-1.444.158-1.982.477-.55.297-.926.73-1.13 1.289-.12.33-.172.604-.15.833a.927.927 0 00.26.604c.15.171.42.365.818.569.28.136.495.261.657.375.162.103.26.204.311.284.055.08.055.181 0 .307-.128.365-.495.546-1.099.546-.312 0-.647-.045-1.002-.136-.355-.103-.657-.229-.904-.397l-.538 1.424c.238.126.507.217.797.275.302.057.678.09 1.121.09.873 0 1.595-.171 2.166-.5.55-.33.947-.821 1.197-1.47.107-.32.15-.592.128-.798a1.028 1.028 0 00-.26-.614c-.161-.172-.451-.353-.86-.547-.465-.241-.755-.402-.865-.503zm15.281 6.78c-.238 0-.464.046-.678.149-.226.09-.421.216-.593.397h-.042l.042-.468h-.733l-1.356 3.692h.969l.635-1.744c.162-.445.333-.752.516-.933a.931.931 0 01.69-.285c.193 0 .312.068.355.204.043.126.012.33-.086.604l-.787 2.154h.959l.873-2.416c.162-.433.172-.762.055-1.001-.152-.24-.41-.353-.819-.353zm-7.092.033a1.118 1.118 0 00-.302-.035c-.216 0-.442.068-.669.194a2.46 2.46 0 00-.635.5h-.043l.086-.626h-.721l-1.347 3.692h.959l.678-1.88c.107-.297.281-.524.507-.695.226-.17.495-.251.797-.251.12 0 .205.012.27.045l.42-.944zm-.268-7.291l.485-1.299h-1.735l.507-1.334h-1.475l-.648 1.299-1.078.274-.452 1.06h1.002l-.12.32h-.011l-.938 2.519c-.26.694-.302 1.218-.128 1.56.076.136.183.24.323.32.227.126.55.194.948.194.507 0 .98-.068 1.41-.194.077-.023.163-.045.239-.08l.473-1.29c-.452.127-.83.195-1.13.195-.217 0-.366-.058-.474-.159-.085-.126-.085-.307 0-.546l1.067-2.837 1.735-.002zm11.249 8.079c.14.045.28.113.421.194l.55-.73a2.174 2.174 0 00-1.121-.297c-.443 0-.819.09-1.12.274a1.418 1.418 0 00-.648.763 1.074 1.074 0 00-.086.49.532.532 0 00.15.343c.086.103.248.216.474.33.161.08.28.158.376.216.085.058.15.113.161.171.034.045.034.103 0 .181-.076.217-.29.32-.635.32-.171 0-.355-.035-.55-.09a2.284 2.284 0 01-.516-.217l-.302.82c.128.068.28.126.442.171.172.036.376.046.636.046.495 0 .904-.103 1.228-.297a1.61 1.61 0 00.69-.856c.064-.181.097-.342.086-.478a.658.658 0 00-.15-.365c-.098-.103-.26-.204-.486-.32-.26-.126-.421-.229-.485-.297-.065-.068-.077-.148-.043-.239.055-.158.226-.239.507-.239.14.035.292.058.42.106zm5.507 2.016c-.086-.159-.086-.375.012-.662h2.242l.183-.49c.193-.524.204-.935.033-1.232-.171-.297-.495-.445-.992-.445-.517 0-.98.171-1.402.513-.41.343-.733.82-.96 1.447-.216.604-.225 1.06-.032 1.39.192.33.58.49 1.13.49.28 0 .516-.022.721-.067.205-.046.4-.104.593-.194l.28-.775a2.921 2.921 0 01-.656.203c-.205.046-.41.081-.626.081-.257-.008-.44-.1-.526-.26zm1.228-2.12c.204 0 .333.069.41.204.075.136.063.32-.022.57H46.77c.107-.252.247-.434.42-.57a.731.731 0 01.527-.203zM44.17 21.02c-.26.194-.474.501-.626.924l-.098.274-.635.275-.171.478h.528l-1.066 2.94h.947l1.066-2.94h.819l.28-.753h-.818l.086-.239a.716.716 0 01.216-.32.442.442 0 01.333-.125c.162 0 .334.035.495.09l.517-.74c-.217-.103-.486-.158-.819-.158-.44.01-.785.1-1.054.294zm8.824 1.163a1.058 1.058 0 00-.302-.035c-.217 0-.443.068-.669.194a2.46 2.46 0 00-.635.5h-.043l.098-.626h-.733l-1.347 3.692h.959l.69-1.88c.107-.297.269-.524.495-.695.226-.17.495-.251.809-.251a.63.63 0 01.269.045l.41-.944z" fill="#505050"/><path d="M34.097 11.493a1.558 1.558 0 00-.226-.284c-.269-.274-.507-.252-.7.08l-2.63 7.885c-.192.695-.042.97.431.798l4.979-3.828c.4-.342.495-.717.28-1.117l-2.134-3.534z" fill="#90B7C0"/><path d="M38.752 16.144c.4-.342.495-.717.28-1.117l-2.131-3.534c-.367-.546-.679-.614-.926-.204l-.29.879c-.108.352-.098.672.042.946l1.152 1.915c.217.398.12.776-.28 1.118l-2.75 2.109c-.183.136-.302.32-.375.523v.013l-.129.388c-.193.694-.043.968.43.797l4.977-3.833z" fill="#C7DBDF"/></g></g></svg>