<svg width="56" height="36" xmlns="http://www.w3.org/2000/svg"><g fill="none" fill-rule="evenodd"><path d="M0 3.75A3.75 3.75 0 0 1 3.75 0h48.5A3.76 3.76 0 0 1 56 3.75v28.5A3.75 3.75 0 0 1 52.25 36H3.75A3.76 3.76 0 0 1 0 32.25V3.75z" fill="#000" fill-rule="nonzero"/><path d="M1.25 3.75v28.5a2.5 2.5 0 0 0 2.5 2.5h48.5a2.5 2.5 0 0 0 2.5-2.5V3.75a2.5 2.5 0 0 0-2.5-2.5H3.75a2.5 2.5 0 0 0-2.5 2.5z" fill="#FFF"/><g fill="#00408A"><path d="M15 27h3.29v1.03h-2.07v.92h1.36v1h-1.36v1.95H15zM18.61 28.45h1.06v3.45h-1.06v-3.45zm0-1.45h1.06v1h-1.06v-1zM21.3 30.94c.08.16.2.25.37.25.17 0 .3-.08.37-.25a2 2 0 0 0 .11-.77 2 2 0 0 0-.1-.76.38.38 0 0 0-.38-.25c-.16 0-.3.09-.36.25a2 2 0 0 0-.12.76c0 .35.04.6.12.77zm-1.1-1.48c.08-.22.2-.41.33-.58a1.49 1.49 0 0 1 1.15-.52 1.52 1.52 0 0 1 1.14.51c.14.17.25.36.33.58.08.22.12.46.12.73a1.93 1.93 0 0 1-.45 1.3 1.52 1.52 0 0 1-1.79.37c-.19-.09-.36-.21-.5-.37a1.77 1.77 0 0 1-.33-.57 2.1 2.1 0 0 1-.12-.73c0-.25.04-.5.12-.72zM27.15 31.3c.19 0 .32-.08.39-.25.06-.18.1-.47.1-.87 0-.36-.03-.63-.09-.79-.06-.16-.17-.25-.34-.25a.4.4 0 0 0-.22.06.8.8 0 0 0-.22.2v1.35c0 .37.12.56.38.56zm-1.45.33l.01-.23V27h1.06v1.84c.13-.16.25-.27.38-.34.12-.07.27-.1.42-.1.37 0 .67.15.87.45.21.3.32.72.32 1.29 0 .58-.1 1.02-.34 1.34-.23.32-.54.48-.95.48-.4 0-.7-.18-.94-.53l-.18.46h-.67l.02-.26zM30.82 30.33c-.5.03-.75.2-.75.52 0 .26.1.39.32.39a.62.62 0 0 0 .43-.19v-.72zm1.05 1.4l.04.17h-1.05a.97.97 0 0 1-.04-.3c-.28.25-.6.37-.95.37a.75.75 0 0 1-.6-.27 1.07 1.07 0 0 1-.24-.7c0-.4.15-.73.45-.95.3-.21.74-.32 1.34-.33v-.3a.3.3 0 0 0-.1-.23.39.39 0 0 0-.26-.08c-.1 0-.19.04-.26.1a.56.56 0 0 0-.15.32l-.89-.22c.1-.31.25-.54.46-.7.22-.14.5-.21.87-.21.47 0 .81.08 1.04.25.22.17.33.43.33.79v2.1l.01.19zM32.4 28.45h1.04v.5c.2-.19.37-.32.54-.41.17-.1.34-.14.52-.14.29 0 .49.1.61.28.12.2.18.47.18.87v2.35h-1.06v-2.05c0-.21-.02-.37-.05-.47-.03-.1-.11-.15-.24-.15a.46.46 0 0 0-.22.07c-.08.05-.17.12-.27.22v2.38H32.4v-3.45zM35.82 27h1.04v2.72l1.04-1.27h1.06l-.95 1.11.93 2.34h-1.17l-.54-1.43-.37.44v.99h-1.04zM40.85 30.33c-.5.03-.74.2-.74.52 0 .26.1.39.32.39a.62.62 0 0 0 .42-.19v-.72zm1.06 1.4l.03.17H40.9a.97.97 0 0 1-.04-.3c-.28.25-.59.37-.94.37a.78.78 0 0 1-.62-.27 1.07 1.07 0 0 1-.23-.7c0-.4.15-.73.45-.95.3-.21.74-.32 1.34-.33v-.3a.3.3 0 0 0-.1-.23.39.39 0 0 0-.26-.08c-.1 0-.19.04-.26.1a.56.56 0 0 0-.14.32l-.9-.22c.1-.31.25-.54.46-.7.22-.14.5-.21.88-.21.46 0 .8.08 1.03.25.22.17.34.43.34.79v2.1l.01.19z"/></g><path d="M18.86 11.29l.02 5.4c-.65-.22-6.77-2.28-8.06-2.7l8.04-2.7zM9 13.99l10.48 3.5-.04-7L9 13.99zM28.17 7.85l10.19-3.44v19.12l-10.23-3.44 8.16-2.73v-6.8z" fill="#00408A"/><path d="M38.06 4.8v18.32c-.68-.22-7.7-2.6-9.02-3.03l7.54-2.52v-7.21s-6.18-2.08-7.5-2.51c1.32-.45 8.3-2.8 8.98-3.05zm-10.8 3.05l8.72 2.92v6.39l-8.75 2.93 11.42 3.85V4l-11.4 3.85z" fill="#00408A"/><path fill="#00408A" d="M16.95 16.69v7.25l10.82-3.66 10.82-3.59 8.24-2.63-8.24-2.6-10.8-3.67-10.86-3.62v7.29z"/><path d="M28.17 7.85l8.12 2.71v6.8l-8.16 2.73 10.21 3.44V4.41L28.17 7.85zM9.92 13.98l9.27 3.1-.02-6.2-9.25 3.1zm22.6-2.22h.07c.78-.12.94 1.36.94 1.85 0 .73-.08 1.74-.89 1.98l-.05.02c-.92.18-.92-1.63-.92-2.17 0-.7.15-1.5.86-1.68zm.05 4.03c.07-.01.13-.01.19-.05a2.8 2.8 0 0 0 1.63-2.49v-.17c0-.28-.06-.52-.15-.76-.27-.68-1-.92-1.67-.79l-.25.08a2.6 2.6 0 0 0-1.5 2.03c-.11.66-.06 1.57.56 2 .36.25.78.25 1.19.15zm-4.1 1.44c.2-.02.53-.24.66-.37.21-.24.46-.71.6-1.25l-.21-.06c-.06.23-.2.47-.25.56-.06.08-.2.28-.27.3l-.12.02c-.07-.02-.07-.47-.05-.6V12.4c-.75.32-.89.36-1.67.71.03.17.01.19.01.15 0 .04.02.08.04.15l.14-.02.29-.05c.15-.02.15.18.15.46v2.49c0 .3-.06.82.2.9.01 0 .22.1.47.05zm.01-5.47c.38 0 .67-.32.67-.71 0-.38-.29-.71-.67-.71-.4 0-.7.31-.7.7 0 .38.3.72.7.72zm-7.35-.96c.33-.05.54-.05.69 0 .08.02.21.17.21.3 0 .08.06.3.06.49v6.04c0 .16.11 1-.92 1.6v.38l3.24-1.03v-.47c-.52 0-.8-.22-.8-.52v-3.37c.34-.07.55-.13.74-.13.16 0 .35.08.46.17.08.06.2.19.22.3.01.08.11.3.13.47l.11.52h.24v-3.64h-.33l-.06.56c-.02.18-.13.4-.2.54-.07.17-.26.35-.41.43-.33.17-.62.22-.94.32v-3.01c0-.32 0-.54.32-.73l.12-.06c.54-.32 1.13-.13 1.42.02.32.13.61.82.73 1.37l.06.22h.24V8.65l-5.35 1.82v.33h.02z" fill="#FFF"/></g></svg>