<?xml version="1.0" encoding="UTF-8"?><svg width="56" height="36" viewBox="0 0 56 36" xmlns="http://www.w3.org/2000/svg"><g fill="none" fill-rule="evenodd"><path d="M0 3.75A3.749 3.749 0 013.75 0h48.5A3.756 3.756 0 0156 3.75v28.5A3.749 3.749 0 0152.25 36H3.75A3.756 3.756 0 010 32.25V3.75z" fill="#000" fill-rule="nonzero"/><path d="M1.25 3.75v28.5c0 1.375 1.123 2.5 2.5 2.5h48.5c1.382 0 2.5-1.118 2.5-2.5V3.75c0-1.375-1.123-2.5-2.5-2.5H3.75a2.499 2.499 0 00-2.5 2.5z" fill="#FFF"/><g fill-rule="nonzero"><path d="M19.364 5.072S14 5.072 14 10.212v20.693h14.884s13.029 0 13.029-12.488V5.072h-22.55z" fill="#052460"/><path d="M29.892 11.953v-1.61s0-1.324-1.382-1.324h-8.039s-1.381 0-1.381 1.324V25.67s0 1.324 1.381 1.324h8.027s1.381 0 1.381-1.324V22.03h-.759v2.314h-9.172v-13.68h9.184v1.288h.76zM23.595 25.61c0-.441.385-.799.87-.799.486 0 .872.358.872.8 0 .44-.386.798-.871.798-.486 0-.871-.358-.871-.799zm2.451-15.671h-2.762v-.18h2.762v.18z" fill="#FFF"/><g fill="#7AC8C1"><path d="M23.172 13.17h1.107c.821 0 1.195.322 1.195 1.002v.071c0 .68-.361 1.026-1.17 1.026h-.36v1.133h-.76V13.17h-.012zm.759 1.455h.36c.312 0 .411-.096.411-.382v-.036c0-.298-.112-.381-.423-.381h-.348v.799zM27.216 15.65h-.846l-.187.752h-.821l.983-3.244h.908l.983 3.244h-.858l-.162-.752zm-.684-.644h.535l-.262-1.097-.273 1.097z"/></g><path fill="#7AC8C1" d="M28.784 13.17l.548 1.252.547-1.252h.834l-1.02 1.896v1.336h-.76v-1.348l-1.008-1.896h.859z"/><g fill="#7AC8C1"><path d="M33.96 15.448c0 .727-.372.954-1.206.954h-1.17v-3.244h1.033c.809 0 1.17.203 1.17.87v.036c0 .275-.1.477-.25.597.225.107.424.357.424.739v.048zm-1.63-1.694v.716h.337c.273 0 .373-.084.373-.358v-.024c0-.274-.124-.346-.398-.346h-.311v.012zm.847 1.658c0-.274-.125-.346-.398-.346h-.448v.74h.473c.286 0 .385-.084.385-.358v-.036h-.012zM34.857 13.17l.547 1.252.548-1.252h.834l-1.02 1.896v1.336h-.772v-1.348l-1.008-1.896h.87z"/></g><g fill="#FFF"><path d="M23.856 17.523l.535 1.42.535-1.42h.772v2.97h-.672v-1.79l-.374.979h-.56l-.373-.978v1.789h-.672v-2.97zM28.448 18.549v.93c0 .692-.373 1.073-1.145 1.073-.759 0-1.145-.37-1.145-1.073v-.93c0-.704.374-1.074 1.145-1.074.784 0 1.145.37 1.145 1.074zm-1.53.954c0 .298.124.43.398.43.273 0 .398-.132.398-.43v-.99c0-.298-.125-.43-.398-.43-.274 0-.399.132-.399.43v.99zM31.099 19.622c0 .668-.336.87-1.108.87h-1.07v-2.97h.946c.746 0 1.07.192 1.082.8v.036c0 .25-.087.441-.236.548.199.096.386.322.386.68v.036zm-1.494-1.562v.656h.311c.25 0 .336-.072.336-.322v-.024c0-.25-.112-.31-.373-.31h-.274zm.784 1.526c0-.25-.112-.322-.36-.322h-.411v.68h.435c.262 0 .349-.083.349-.334v-.024h-.013zM32.181 20.493h-.709v-2.97h.71zM34.471 20.493H32.68v-2.97h.71v2.361h1.082v.609zM35.541 18.692h.971v.596h-.97v.596h1.182v.609h-1.892v-2.97h1.854v.608h-1.145v.56z"/></g></g></g></svg>