<?xml version="1.0" encoding="UTF-8"?><svg width="56" height="36" viewBox="0 0 56 36" xmlns="http://www.w3.org/2000/svg"><g fill="none" fill-rule="evenodd"><path d="M0 3.75A3.75 3.75 0 013.75 0h48.5A3.76 3.76 0 0156 3.75v28.5A3.75 3.75 0 0152.25 36H3.75A3.76 3.76 0 010 32.25V3.75z" fill="#000" fill-rule="nonzero"/><path d="M1.25 3.75v28.5a2.5 2.5 0 002.5 2.5h48.5a2.5 2.5 0 002.5-2.5V3.75a2.5 2.5 0 00-2.5-2.5H3.75a2.5 2.5 0 00-2.5 2.5z" fill="#FFF"/><g fill="#E2714D" fill-rule="nonzero"><path d="M43.4 18.26A15.16 15.16 0 0127.9 33.4c-8.33-.08-14.96-7.02-14.9-15.56C13.07 9.6 20.06 2.9 28.53 3A15.16 15.16 0 0143.4 18.26zm-14.39-3.64c.36-.95.44-1.96.97-2.36.7-.51 1.76-.55 2.82-.83l.4-1.9c-3.1-.97-5.72.33-6.55 3.17-.5 1.69-.5 1.69-2.24 2.06l-.26 2.11h2.1l-2.77 5.58 1.97.1-1.82 3.63 5.95-5.65-.09-.22h-2.18c1.28-1.25 2.31-2.33 3.43-3.32.74-.65.9-1.42.95-2.38h-2.68z"/></g></g></svg>