<?xml version="1.0" encoding="UTF-8"?><svg width="56" height="36" viewBox="0 0 56 36" xmlns="http://www.w3.org/2000/svg"><g fill="none" fill-rule="evenodd"><path d="M0 3.75A3.749 3.749 0 013.75 0h48.5A3.756 3.756 0 0156 3.75v28.5A3.749 3.749 0 0152.25 36H3.75A3.756 3.756 0 010 32.25V3.75z" fill="#000" fill-rule="nonzero"/><path d="M1.25 3.75v28.5c0 1.375 1.123 2.5 2.5 2.5h48.5c1.382 0 2.5-1.118 2.5-2.5V3.75c0-1.375-1.123-2.5-2.5-2.5H3.75a2.499 2.499 0 00-2.5 2.5z" fill="#FFF"/><path d="M38 13.5a.31.31 0 01-.099.221.3.3 0 01-.218.1h-.95v.483a.469.469 0 01-.138.341.455.455 0 01-.337.14H20.742a.455.455 0 01-.337-.14.469.469 0 01-.138-.341v-.483h-.95a.3.3 0 01-.218-.1A.31.31 0 0119 13.5v-.643c0-.134.066-.228.198-.281L28.38 9.04a.196.196 0 01.238 0l9.183 3.536c.132.053.198.147.198.281v.643zm-.95 11.571a.91.91 0 01.673.282.937.937 0 01.277.683v.643a.31.31 0 01-.099.22.3.3 0 01-.218.101H19.317a.3.3 0 01-.218-.1.31.31 0 01-.099-.221v-.643c0-.268.092-.496.277-.683a.91.91 0 01.673-.282h17.1zM22.167 15.43H24.7v7.714h2.533v-7.714h2.534v7.714H32.3v-7.714h2.533v7.714h1.425c.132 0 .244.047.337.14a.469.469 0 01.138.342v.804H20.267v-.804c0-.134.046-.248.138-.342a.455.455 0 01.337-.14h1.425v-7.714z" fill="#35353B"/></g></svg>