<?xml version="1.0" encoding="UTF-8"?><svg width="56" height="36" viewBox="0 0 56 36" xmlns="http://www.w3.org/2000/svg"><g fill="none" fill-rule="evenodd"><path d="M0 3.75A3.749 3.749 0 013.75 0h48.5A3.756 3.756 0 0156 3.75v28.5A3.749 3.749 0 0152.25 36H3.75A3.756 3.756 0 010 32.25V3.75z" fill="#000" fill-rule="nonzero"/><path d="M1.25 3.75v28.5c0 1.375 1.123 2.5 2.5 2.5h48.5c1.382 0 2.5-1.118 2.5-2.5V3.75c0-1.375-1.123-2.5-2.5-2.5H3.75a2.499 2.499 0 00-2.5 2.5z" fill="#FFF"/><path d="M26.143 17.604c.15.091.276.208.384.3l.49-1.154c-.298-.208-.724-.322-1.299-.368h-.51c-.596.023-1.065.186-1.365.462a1.485 1.485 0 00-.47.808c-.042.114-.042.254-.042.394s.022.277.043.393c.084.346.255.623.553.83.084.07.234.14.406.21h.042c.448.139.766.253.938.299l.532.185c.02 0 .02 0 .02.023.043.023.064.023.085.046.064.068.085.162.085.277a.51.51 0 01-.171.393c-.15.115-.364.186-.64.208h-.13c-.318 0-.574-.068-.745-.208a18.788 18.788 0 00-.703-.622l-.406 1.247c.063.069.129.14.213.185.406.3.96.463 1.642.463h.128c.683-.023 1.215-.186 1.578-.531.235-.231.406-.485.49-.74.064-.185.085-.367.085-.553 0-.208-.021-.394-.085-.554a1.13 1.13 0 00-.319-.507c-.147-.14-.363-.254-.618-.369l-.98-.3c-.022 0-.043-.022-.064-.022a.624.624 0 00-.17-.046c-.193-.069-.34-.114-.407-.163-.042-.022-.063-.045-.084-.045a.342.342 0 01-.129-.277c0-.114.042-.208.15-.277a.966.966 0 01.34-.14c.106 0 .192-.022.235-.022h.192c.344.012.558.058.706.175zm3.943-1.364a2.12 2.12 0 00-1.683.785c-.427.508-.64 1.224-.64 2.123 0 .762.17 1.407.49 1.892.34.508.853.808 1.512.924.15.023.298.023.448.023h.02c.746 0 1.323-.091 1.747-.322l-.15-1.108c-.595.163-1.109.232-1.599.186-.042-.023-.084-.023-.105-.023-.214-.046-.427-.163-.661-.3-.235-.162-.34-.462-.34-.876h3.216c.106-1.107-.042-1.938-.49-2.471-.424-.556-1.02-.833-1.765-.833zm.767 1.455c.192.208.297.531.318.97h-2.023c0-.416.085-.716.277-.947a.922.922 0 01.724-.345.86.86 0 01.704.322zm6.414-.83c-.129-.186-.319-.323-.553-.44a1.758 1.758 0 00-.788-.185c-.682 0-1.235.323-1.683.947v-.807h-1.236v5.493h1.344v-2.494c0-.6.042-1.016.105-1.27a.98.98 0 01.385-.553c.192-.14.405-.209.619-.209a.8.8 0 01.468.14.668.668 0 01.256.416c.063.163.084.554.084 1.13v2.817h1.365v-3.393a5.71 5.71 0 00-.063-.97 1.757 1.757 0 00-.303-.622zM9.8 18.688c0 .785-.042 1.293-.105 1.501a.925.925 0 01-.364.508.942.942 0 01-.595.208c-.211 0-.385-.045-.511-.162a.68.68 0 01-.256-.394c-.042-.185-.063-.67-.063-1.432v-2.54H6.56v3.464c0 .531.064.925.193 1.224.128.3.318.531.574.694.277.162.574.23.917.23.342 0 .66-.09.959-.253a1.98 1.98 0 00.724-.693v.807h1.257v-5.47H9.82v2.308H9.8zm3.878-.576a.98.98 0 01.384-.554c.193-.14.406-.208.62-.208a.8.8 0 01.468.14.668.668 0 01.256.416c.063.163.084.554.084 1.13v2.817h1.365v-3.396a5.71 5.71 0 00-.064-.97 1.383 1.383 0 00-.276-.6c-.13-.185-.32-.322-.554-.439a1.758 1.758 0 00-.787-.185c-.683 0-1.236.322-1.684.947v-.807h-1.235v5.493h1.343v-2.517c-.026-.6-.005-1.013.08-1.267zm-8.375-3.95c-.363 0-.682.07-.916.209-.256.14-.427.345-.512.576-.084.231-.128.554-.128 1.016v.417H3v1.13h.746v4.34h1.343v-4.317H6.09v-1.13H5.089v-.394c0-.3.042-.485.129-.577.084-.091.213-.14.405-.14.193 0 .406.024.62.07l.17-1.017a3.631 3.631 0 00-1.11-.182zm41.489-.16a2.77 2.77 0 00-.64.07c-.96.207-1.45.946-1.45 2.168v3.416c0 1.5.683 2.24 2.068 2.24h3.154c1.385 0 2.068-.74 2.068-2.24v-5.653h-5.2zm1.535.463c.83 0 1.555.322 2.131.97.64.693.96 1.5.96 2.423 0-.925-.32-1.755-.96-2.423-.598-.625-1.3-.947-2.13-.97zm1.533 1.615a2.565 2.565 0 000 0zm-.147 1.823c0-.439-.15-.784-.427-1.107.277.3.427.668.427 1.107zm-2.047-.576c.15-.185.34-.254.574-.254h.064a.896.896 0 01.51.254c.15.163.235.368.235.622v.023c0 .231-.084.44-.234.6a.753.753 0 01-.575.253.75.75 0 01-.574-.254c-.171-.162-.234-.368-.234-.622a.88.88 0 01.234-.622zm-4.326-3.025h-1.343v2.723c-.427-.531-.917-.785-1.491-.785-.619 0-1.13.231-1.533.716-.406.508-.596 1.224-.596 2.146 0 .9.213 1.615.62 2.1.426.531.916.785 1.49.785.298 0 .575-.068.854-.23.276-.163.532-.394.724-.717v.808h1.257v-7.546h.018zm-1.343 4.848c0 .577-.105.993-.319 1.293-.213.277-.49.417-.788.417-.384 0-.682-.186-.916-.554-.15-.277-.214-.693-.214-1.293 0-.53.106-.947.32-1.224.213-.277.468-.416.787-.416s.595.14.809.416c.216.274.321.737.321 1.361zm-19.434-4.848H21.22v2.723c-.427-.531-.917-.785-1.491-.785-.619 0-1.13.231-1.533.716-.406.508-.596 1.224-.596 2.146 0 .9.214 1.615.62 2.1.426.531.916.785 1.49.785.298 0 .575-.068.854-.23.276-.163.532-.394.724-.717v.808h1.257v-7.546h.018zm-2.47 3.07c.318 0 .595.14.808.417.214.277.32.74.32 1.361 0 .577-.106.993-.32 1.293-.213.277-.49.417-.788.417-.384 0-.682-.186-.916-.554-.15-.277-.214-.693-.214-1.293 0-.53.106-.947.32-1.224.215-.28.47-.416.79-.416z" fill="#2F52C7" fill-rule="nonzero"/><path d="M48.24 17.05a.75.75 0 00-.575.254c-.171.163-.234.368-.234.622a.88.88 0 00.234.623c.15.162.34.254.574.254a.75.75 0 00.575-.254.869.869 0 00.234-.6v-.023a.88.88 0 00-.234-.622.78.78 0 00-.511-.254h-.064z" fill="#FFF" fill-rule="nonzero"/><path d="M48.326 14.465c.83 0 1.555.322 2.131.97.64.693.96 1.5.96 2.423v.091m-3.09-2.585c.618.023 1.13.254 1.554.716.468.508.703 1.107.703 1.8v.092m-2.258-1.638c.364.023.682.163.96.462.297.3.426.67.426 1.107v.07" stroke="#FFF" stroke-width=".5" stroke-linecap="round" stroke-linejoin="round"/></g></svg>