<?xml version="1.0" encoding="UTF-8"?>
<svg width="56px" height="36px" viewBox="0 0 56 36" version="1.1" xmlns="http://www.w3.org/2000/svg" xmlns:xlink="http://www.w3.org/1999/xlink">
    <!-- Generator: Sketch 53.2 (72643) - https://sketchapp.com -->
    <title>getin-bank </title>
    <desc>Created with Sketch.</desc>
    <defs>
        <polygon id="path-1" points="0 12.5885741 44.9487097 12.5885741 44.9487097 0.0486296296 0 0.0486296296"></polygon>
        <polygon id="path-3" points="0 12.5885741 44.9487097 12.5885741 44.9487097 0.0486296296 0 0.0486296296"></polygon>
    </defs>
    <g id="getin-bank-" stroke="none" stroke-width="1" fill="none" fill-rule="evenodd">
        <g id="Base">
            <path d="M0,3.75075247 C0,1.67926908 1.67596877,0 3.75035585,0 L52.2496442,0 C54.3209085,0 56,1.68806916 56,3.75075247 L56,32.2492475 C56,34.3207309 54.3240312,36 52.2496442,36 L3.75035585,36 C1.67909151,36 0,34.3119308 0,32.2492475 L0,3.75075247 Z" id="Rectangle-2" fill="#000000" fill-rule="nonzero"></path>
            <path d="M1.25,3.75075247 L1.25,32.2492475 C1.25,33.6250965 2.37296468,34.75 3.75035585,34.75 L52.2496442,34.75 C53.6324061,34.75 54.75,33.6316447 54.75,32.2492475 L54.75,3.75075247 C54.75,2.37490355 53.6270353,1.25 52.2496442,1.25 L3.75035585,1.25 C2.36759386,1.25 1.25,2.36835527 1.25,3.75075247 Z" id="Path" fill="#FFFFFF"></path>
        </g>
        <g id="logo" transform="translate(6.000000, 12.000000)">
            <polygon id="Path" fill="#00B140" fill-rule="nonzero" points="19.7574194 0.161296296 19.7574194 2.63057407 0 2.63057407 0 10.2324444 19.7574194 10.2324444 19.7574194 12.7014815 28.3674194 6.43138889"></polygon>
            <g id="Group" transform="translate(0.000000, 0.112907)">
                <path d="M30.5293427,7.47793956 L31.3652448,7.47793956 C31.5289565,7.47793956 31.6631678,7.44549968 31.7680406,7.37803765 C31.872427,7.31186678 31.9246202,7.19550284 31.9246202,7.0328193 C31.9246202,6.85786995 31.870806,6.73585727 31.761719,6.66774969 C31.6537665,6.59818955 31.5216624,6.56478134 31.3652448,6.56478134 L30.5293427,6.56478134 L30.5293427,7.47793956 Z M30.5293427,5.89548702 L31.3363928,5.89548702 C31.3811298,5.89548702 31.4289467,5.88790157 31.479519,5.87531297 C31.5302533,5.86175602 31.5741798,5.84158197 31.6166477,5.81107879 C31.6568463,5.78202818 31.692344,5.74264841 31.7208721,5.69471488 C31.7484276,5.64549019 31.761719,5.58690475 31.761719,5.51669904 C31.761719,5.37063891 31.7182785,5.27041424 31.6302634,5.21473386 C31.5428964,5.15921488 31.4446694,5.13210095 31.3363928,5.13210095 L30.5293427,5.13210095 L30.5293427,5.89548702 Z M29.4887202,4.32820539 L31.3585991,4.32820539 C31.5309017,4.32546171 31.702718,4.33708196 31.8743719,4.36112943 C32.0465124,4.38792057 32.2009848,4.43892056 32.3394104,4.5126769 C32.4779981,4.58707879 32.5891923,4.68988575 32.6752626,4.8186769 C32.7611707,4.94956615 32.8041247,5.11886678 32.8041247,5.32625602 C32.8041247,5.50411044 32.7556597,5.66388892 32.6588913,5.80317058 C32.5606643,5.94277501 32.4343957,6.05123071 32.277654,6.12918323 C32.4908032,6.19277184 32.6588913,6.3081674 32.7814321,6.47843639 C32.9052694,6.64644589 32.9670259,6.84431297 32.9670259,7.07219904 C32.9670259,7.30993007 32.9258548,7.50699018 32.8438369,7.66547754 C32.7611707,7.8234807 32.6506248,7.95017374 32.5097678,8.04442689 C32.3700457,8.13900285 32.2048752,8.20678765 32.0139322,8.24858828 C31.8233134,8.28861362 31.6216725,8.31007881 31.4090095,8.31007881 L29.4887202,8.31007881 L29.4887202,4.32820539 Z M34.4537064,6.82733449 L35.3610905,6.82733449 L34.9187446,5.43306552 L34.9086951,5.43306552 L34.4537064,6.82733449 Z M34.3869249,4.3283345 L35.4455398,4.3283345 L36.9405029,8.31020792 L35.8536842,8.31020792 L35.6076305,7.59653069 L34.2128393,7.59653069 L33.9617608,8.31020792 L32.8913134,8.31020792 L34.3869249,4.3283345 Z" id="Shape" fill="#00B140" fill-rule="nonzero"></path>
                <polygon id="Path" fill="#00B140" fill-rule="nonzero" points="37.1271774 4.32827778 38.1962903 4.32827778 39.5847581 6.78214815 39.5966129 6.78214815 39.5966129 4.32827778 40.5766935 4.32827778 40.5766935 8.31012963 39.506371 8.31012963 38.1179032 5.82833333 38.1070161 5.82833333 38.1070161 8.31012963 37.1271774 8.31012963"></polygon>
                <polygon id="Path" fill="#00B140" fill-rule="nonzero" points="41.1130645 4.32827778 42.1550806 4.32827778 42.1550806 5.85625926 43.4702419 4.32827778 44.7633871 4.32827778 43.2854032 5.8955 44.9487097 8.31012963 43.6545968 8.31012963 42.5801613 6.63698148 42.1550806 7.08187037 42.1550806 8.31012963 41.1130645 8.31012963"></polygon>
                <path d="M8.02475746,8.30886836 L7.3530533,8.30886836 L7.29097256,7.87423862 C7.22435323,7.97026709 7.14541502,8.05225443 7.05350956,8.11697279 C6.96257664,8.18217532 6.86645681,8.23511202 6.76806772,8.27513734 C6.66935444,8.31677658 6.56950652,8.3463114 6.46836189,8.36503291 C6.36689306,8.38391582 6.27012486,8.39279242 6.17773314,8.39279242 C5.8746234,8.39279242 5.60036581,8.33856455 5.3544741,8.23010885 C5.10777196,8.12358989 4.8981886,7.97543165 4.723941,7.78757089 C4.55066598,7.60019431 4.41677901,7.3811848 4.32438726,7.12989682 C4.22988835,6.87909305 4.18466502,6.60892216 4.18466502,6.31857722 C4.18466502,6.02920064 4.22988835,5.7580614 4.32438726,5.50806456 C4.41677901,5.25693798 4.55066598,5.03776708 4.723941,4.84926077 C4.8981886,4.66107722 5.10777196,4.5148557 5.3544741,4.40607722 C5.60036581,4.29858987 5.8746234,4.24468482 6.17773314,4.24468482 C6.38245377,4.24468482 6.58863324,4.27244429 6.79594732,4.32731773 C7.00261306,4.38412785 7.19096255,4.47047279 7.35921276,4.5869981 C7.52665253,4.70433039 7.66718523,4.85410252 7.78097294,5.03696011 C7.89476066,5.21852659 7.96300089,5.43414683 7.98520732,5.68301392 L6.94490874,5.68301392 C6.92610622,5.51193799 6.84279157,5.37830506 6.69496478,5.2821152 C6.54730009,5.18511835 6.36689306,5.13686203 6.15520251,5.13686203 C5.9871144,5.13686203 5.84431241,5.17059304 5.72744497,5.23708671 C5.60879453,5.30422596 5.5125126,5.39379873 5.43778875,5.50402975 C5.36241656,5.61587469 5.30973706,5.7427291 5.27618427,5.88394748 C5.2423073,6.02548861 5.22561194,6.16945064 5.22561194,6.31857722 C5.22561194,6.46770379 5.2423073,6.61295695 5.27618427,6.75320697 C5.30973706,6.89442532 5.36241656,7.02144115 5.43778875,7.13312468 C5.5125126,7.2433557 5.60879453,7.33325127 5.72744497,7.4003905 C5.84431241,7.46752974 5.9871144,7.49996963 6.15520251,7.49996963 C6.41195429,7.49996963 6.62315857,7.44541898 6.78395262,7.33583356 C6.94750219,7.22608671 7.04313576,7.08018798 7.07296045,6.89862153 L6.34517289,6.89862153 L6.34517289,6.12910254 L8.02475746,6.12910254 L8.02475746,8.30886836 Z" id="Path" fill="#FFFFFF" fill-rule="nonzero"></path>
                <polygon id="Path" fill="#FFFFFF" fill-rule="nonzero" points="8.61145161 4.32731481 11.7982258 4.32731481 11.7982258 5.15811111 9.65225806 5.15811111 9.65225806 5.85625926 11.6121774 5.85625926 11.6121774 6.65888889 9.65225806 6.65888889 9.65225806 7.41698148 11.8533871 7.41698148 11.8533871 8.30892593 8.61145161 8.30892593"></polygon>
                <polygon id="Path" fill="#FFFFFF" fill-rule="nonzero" points="15.6972581 5.21974074 14.5042742 5.21974074 14.5042742 8.30892593 13.4629839 8.30892593 13.4629839 5.21974074 12.2697581 5.21974074 12.2697581 4.32731481 15.6972581 4.32731481"></polygon>
                <g id="Clipped">
                    <mask id="mask-2" fill="white">
                        <use xlink:href="#path-1"></use>
                    </mask>
                    <g id="a"></g>
                    <polygon id="Path" fill="#FFFFFF" fill-rule="nonzero" mask="url(#mask-2)" points="17.3595968 8.30868519 18.4020968 8.30868519 18.4020968 4.32731481 17.3595968 4.32731481"></polygon>
                </g>
                <g id="Clipped">
                    <mask id="mask-4" fill="white">
                        <use xlink:href="#path-3"></use>
                    </mask>
                    <g id="a"></g>
                    <polygon id="Path" fill="#FFFFFF" fill-rule="nonzero" mask="url(#mask-4)" points="19.1124194 4.32731481 20.1825 4.32731481 21.5704839 6.78238889 21.5816129 6.78238889 21.5816129 4.32731481 22.5619355 4.32731481 22.5619355 8.30892593 21.4923387 8.30892593 20.1031452 5.82833333 20.0917742 5.82833333 20.0917742 8.30892593 19.1124194 8.30892593"></polygon>
                </g>
            </g>
        </g>
    </g>
</svg>