<?xml version="1.0" encoding="UTF-8"?>
<svg width="56px" height="36px" viewBox="0 0 56 36" version="1.1" xmlns="http://www.w3.org/2000/svg" xmlns:xlink="http://www.w3.org/1999/xlink">
    <!-- Generator: Sketch 45.2 (43514) - http://www.bohemiancoding.com/sketch -->
    <title>PM/Mobile/Giropay</title>
    <desc>Created with Sketch.</desc>
    <defs>
        <rect id="path-1" x="0" y="0" width="56" height="36" rx="3.75"></rect>
    </defs>
    <g id="Page-1" stroke="none" stroke-width="1" fill="none" fill-rule="evenodd">
        <g id="PM/Mobile/Giropay">
            <g id="Rectangle-2">
                <use fill="#FFFFFF" fill-rule="evenodd" xlink:href="#path-1"></use>
                <rect stroke="#000000" stroke-width="1.25" x="0.625" y="0.625" width="54.75" height="34.75" rx="3.75"></rect>
            </g>
            <g id="giropay" transform="translate(6.000000, 9.000000)" fill-rule="nonzero">
                <g id="Group">
                    <path d="M0.0239455782,3.40917722 C0.0239455782,1.52721519 1.55047619,0.00300632911 3.43020408,0.00300632911 L40.5668027,0.00300632911 C42.4495238,0.00300632911 43.9730612,1.52721519 43.9730612,3.40917722 L43.9730612,15.5818038 C43.9730612,17.4607595 42.4465306,18.9879747 40.5668027,18.9879747 L3.43319728,18.9879747 C1.55047619,18.9879747 0.0269387755,17.4637658 0.0269387755,15.5818038 L0.0269387755,3.40917722 L0.0239455782,3.40917722 Z" id="Shape" fill="#000268"></path>
                    <path d="M1.4247619,3.52642405 L1.4247619,15.4675633 C1.4247619,16.643038 2.37959184,17.5960443 3.55591837,17.5960443 L23.0117007,17.5960443 L23.0117007,1.39794304 L3.55591837,1.39794304 C2.37659864,1.39794304 1.4247619,2.35094937 1.4247619,3.52642405 L1.4247619,3.52642405 Z M28.0372789,9.43686709 C28.0372789,10.1974684 27.6631293,10.7205696 27.0435374,10.7205696 C26.4957823,10.7205696 26.0408163,10.1974684 26.0408163,9.50300633 C26.0408163,8.7875 26.4419048,8.25838608 27.0435374,8.25838608 C27.6840816,8.25537975 28.0372789,8.80553797 28.0372789,9.43686709 Z M24.397551,13.7960443 L26.0378231,13.7960443 L26.0378231,11.2045886 L26.0557823,11.2045886 C26.3670748,11.7727848 26.9866667,11.9832278 27.5613605,11.9832278 C28.9741497,11.9832278 29.7314286,10.8107595 29.7314286,9.40079114 C29.7314286,8.24636076 29.010068,6.99272152 27.6960544,6.99272152 C26.9477551,6.99272152 26.2563265,7.29636076 25.9270748,7.96376582 L25.9091156,7.96376582 L25.9091156,7.1039557 L24.3945578,7.1039557 L24.3945578,13.7960443 L24.397551,13.7960443 Z M31.9763265,10.3628165 C31.9763265,9.90585443 32.4133333,9.73148734 32.970068,9.73148734 C33.2155102,9.73148734 33.454966,9.74952532 33.6644898,9.7585443 C33.6644898,10.3177215 33.272381,10.8859177 32.6527891,10.8859177 C32.2666667,10.8859177 31.9763265,10.6935127 31.9763265,10.3628165 L31.9763265,10.3628165 Z M35.2868027,11.875 C35.214966,11.4992089 35.1970068,11.1234177 35.1970068,10.7476266 L35.1970068,8.97088608 C35.1970068,7.51582278 34.1493878,6.99272152 32.9341497,6.99272152 C32.2337415,6.99272152 31.6201361,7.09493671 31.0364626,7.33243671 L31.0634014,8.45079114 C31.5183673,8.19525316 32.0481633,8.09303797 32.5779592,8.09303797 C33.1706122,8.09303797 33.652517,8.26740506 33.6644898,8.91677215 C33.454966,8.8806962 33.1616327,8.85063291 32.8982313,8.85063291 C32.0242177,8.85063291 30.4468027,9.025 30.4468027,10.4800633 C30.4468027,11.5142405 31.284898,11.9832278 32.2247619,11.9832278 C32.8982313,11.9832278 33.3561905,11.7186709 33.7303401,11.1234177 L33.7482993,11.1234177 C33.7482993,11.372943 33.7752381,11.6164557 33.7842177,11.875 L35.2868027,11.875 L35.2868027,11.875 Z M36.0231293,13.7960443 C36.3613605,13.8712025 36.6965986,13.9072785 37.0438095,13.9072785 C38.5493878,13.9072785 38.902585,12.7438291 39.3695238,11.5443038 L41.1115646,7.10094937 L39.4682993,7.10094937 L38.492517,10.2155063 L38.4745578,10.2155063 L37.4538776,7.10094937 L35.684898,7.10094937 L37.6095238,11.9832278 C37.4897959,12.4041139 37.1814966,12.6446203 36.7804082,12.6446203 C36.5529252,12.6446203 36.352381,12.6175633 36.1338776,12.5424051 L36.0231293,13.7960443 L36.0231293,13.7960443 Z" id="Shape" fill="#FFFFFF"></path>
                    <path d="M5.43265306,9.44588608 C5.43265306,8.79651899 5.75292517,8.25537975 6.36353741,8.25537975 C7.10285714,8.25537975 7.41115646,8.85063291 7.41115646,9.38275316 C7.41115646,10.1162975 6.94721088,10.6093354 6.36353741,10.6093354 C5.87265306,10.6093354 5.43265306,10.1884494 5.43265306,9.44588608 Z M8.99755102,7.10094937 L7.51292517,7.10094937 L7.51292517,7.96075949 L7.49496599,7.96075949 C7.1477551,7.37452532 6.58204082,6.98971519 5.87863946,6.98971519 C4.4029932,6.98971519 3.7355102,8.0539557 3.7355102,9.47294304 C3.7355102,10.8829114 4.54666667,11.8719937 5.85170068,11.8719937 C6.51020408,11.8719937 7.05795918,11.6164557 7.44707483,11.0572785 L7.46503401,11.0572785 L7.46503401,11.3128165 C7.46503401,12.2477848 6.95319728,12.6957278 6.00734694,12.6957278 C5.32190476,12.6957278 4.90285714,12.5484177 4.4029932,12.3018987 L4.32217687,13.6036392 C4.70530612,13.7419304 5.35183673,13.9072785 6.13605442,13.9072785 C8.05170068,13.9072785 9.00054422,13.2759494 9.00054422,11.3158228 L9.00054422,7.10094937 L8.99755102,7.10094937 Z M11.7722449,5.11376582 L10.1289796,5.11376582 L10.1289796,6.32231013 L11.7722449,6.32231013 L11.7722449,5.11376582 Z M10.1319728,11.875 L11.7722449,11.875 L11.7722449,7.10094937 L10.1319728,7.10094937 L10.1319728,11.875 Z M16.3428571,7.04683544 C16.1782313,7.01977848 15.9776871,6.99272152 15.7861224,6.99272152 C15.0737415,6.99272152 14.6636735,7.37753165 14.3823129,7.9818038 L14.3643537,7.9818038 L14.3643537,7.1039557 L12.8677551,7.1039557 L12.8677551,11.875 L14.5080272,11.875 L14.5080272,9.86075949 C14.5080272,8.92579114 14.9360544,8.36661392 15.7023129,8.36661392 C15.8938776,8.36661392 16.0764626,8.36661392 16.2590476,8.42072785 L16.3428571,7.04683544 L16.3428571,7.04683544 Z M19.1714286,10.8287975 C18.4141497,10.8287975 18.1058503,10.1974684 18.1058503,9.49098101 C18.1058503,8.77547468 18.4141497,8.14414557 19.1714286,8.14414557 C19.9287075,8.14414557 20.24,8.77547468 20.24,9.49098101 C20.2370068,10.1974684 19.9287075,10.8287975 19.1714286,10.8287975 Z M19.1714286,11.9832278 C20.7398639,11.9832278 21.9341497,11.0693038 21.9341497,9.49098101 C21.9341497,7.90664557 20.7398639,6.98971519 19.1714286,6.98971519 C17.6029932,6.98971519 16.4087075,7.90664557 16.4087075,9.49098101 C16.4087075,11.0693038 17.6029932,11.9832278 19.1714286,11.9832278 L19.1714286,11.9832278 Z" id="Shape" fill="#FF0007"></path>
                </g>
            </g>
        </g>
    </g>
</svg>