<svg xmlns="http://www.w3.org/2000/svg" width="56" height="36" viewBox="0 0 56 36"><g fill="none" fill-rule="nonzero"><path fill="#FFF" d="M41.106 3H14.894C6.702 3 0 9.702 0 17.894c0 8.191 6.702 14.893 14.894 14.893h26.212C49.298 32.787 56 26.085 56 17.894 56 9.702 49.298 3 41.106 3z"/><path fill="#3C4043" d="M41.106 4.206c1.84 0 3.627.365 5.31 1.08a13.807 13.807 0 017.298 7.298 13.51 13.51 0 011.08 5.31c0 1.839-.365 3.626-1.08 5.31a13.807 13.807 0 01-7.298 7.297 13.51 13.51 0 01-5.31 1.08H14.894a13.51 13.51 0 01-5.31-1.08 13.807 13.807 0 01-7.298-7.298 13.51 13.51 0 01-1.08-5.31c0-1.839.365-3.626 1.08-5.309a13.807 13.807 0 017.298-7.298 13.51 13.51 0 015.31-1.08h26.212m0-1.206H14.894C6.702 3 0 9.702 0 17.894c0 8.191 6.702 14.893 14.894 14.893h26.212C49.298 32.787 56 26.085 56 17.894 56 9.702 49.298 3 41.106 3z"/><g fill="#3C4043"><path d="M26.704 18.951v4.505h-1.43V12.331h3.79c.962 0 1.78.32 2.45.96.686.64 1.029 1.423 1.029 2.346 0 .946-.343 1.728-1.028 2.36-.663.634-1.482.947-2.45.947h-2.36v.007zm0-5.25v3.88h2.39c.567 0 1.043-.194 1.416-.574.38-.38.573-.841.573-1.362 0-.514-.194-.968-.573-1.348-.373-.395-.842-.588-1.415-.588h-2.39V13.7zM36.28 15.593c1.058 0 1.892.283 2.503.848.61.566.916 1.34.916 2.324v4.691h-1.363V22.4h-.06c-.588.871-1.377 1.303-2.36 1.303-.842 0-1.542-.246-2.107-.745-.566-.498-.85-1.117-.85-1.861 0-.79.298-1.415.894-1.877.596-.469 1.393-.7 2.383-.7.85 0 1.55.157 2.093.47v-.328c0-.5-.194-.916-.589-1.266a2.018 2.018 0 00-1.385-.522c-.796 0-1.43.336-1.891 1.013l-1.259-.79c.693-1.005 1.72-1.503 3.076-1.503zm-1.846 5.525c0 .372.156.685.477.93a1.75 1.75 0 001.11.373c.602 0 1.139-.223 1.608-.67.469-.447.707-.968.707-1.571-.447-.35-1.065-.529-1.862-.529-.58 0-1.064.142-1.452.417-.394.29-.588.64-.588 1.05zM47.473 15.838L42.707 26.8h-1.474l1.772-3.835-3.143-7.127h1.557l2.264 5.466h.03l2.204-5.466z"/></g><path fill="#4285F4" d="M21.017 18.043c0-.467-.042-.913-.119-1.342h-5.993v2.458h3.451a2.957 2.957 0 01-1.28 1.98v1.594h2.054c1.2-1.11 1.887-2.751 1.887-4.69z"/><path fill="#34A853" d="M17.076 21.139c-.572.386-1.308.611-2.17.611-1.664 0-3.076-1.121-3.582-2.633H9.205v1.644a6.38 6.38 0 005.701 3.514c1.723 0 3.171-.567 4.225-1.542l-2.055-1.594z"/><path fill="#FABB05" d="M11.125 17.897c0-.424.07-.834.2-1.22v-1.644h-2.12a6.346 6.346 0 00-.678 2.864c0 1.031.245 2.004.678 2.865l2.12-1.644a3.847 3.847 0 01-.2-1.22z"/><path fill="#E94235" d="M14.906 14.044c.94 0 1.783.324 2.448.957l1.82-1.82c-1.105-1.03-2.547-1.662-4.268-1.662a6.38 6.38 0 00-5.701 3.514l2.12 1.644c.505-1.512 1.917-2.633 3.581-2.633z"/></g></svg>