<svg width="56" height="36" viewBox="0 0 56 36" xmlns="http://www.w3.org/2000/svg" xmlns:xlink="http://www.w3.org/1999/xlink"><defs><path id="a" d="M.1.16h17.68v10.4H.11z"/><path id="c" d="M0 .04h25.99v8.34H0z"/></defs><g fill="none" fill-rule="evenodd"><path d="M0 3.75A3.75 3.75 0 013.75 0h48.5A3.76 3.76 0 0156 3.75v28.5A3.75 3.75 0 0152.25 36H3.75A3.76 3.76 0 010 32.25V3.75z" fill="#000" fill-rule="nonzero"/><path d="M1.25 3.75v28.5a2.5 2.5 0 002.5 2.5h48.5a2.5 2.5 0 002.5-2.5V3.75a2.5 2.5 0 00-2.5-2.5H3.75a2.5 2.5 0 00-2.5 2.5z" fill="#FFF"/><g><g transform="translate(34.39 12)"><mask id="b" fill="#fff"><use xlink:href="#a"/></mask><path d="M17.78 5.06l-5.73-3.48-1.44 7.57 7.17-4.09zM9.76 2.9l.4-2.1a9.57 9.57 0 00-3.3-.64c-1.83 0-3.46.5-4.64 1.46A5.86 5.86 0 00.11 6.3C.1 7.7.67 8.83 1.5 9.5a5.34 5.34 0 003.43 1.06c1.18-.02 2.35-.22 3.47-.59l1.06-5.53H6.94l-.73 3.8c-.3.1-.6.15-.92.13-1.32 0-2.34-.65-2.34-2.25 0-1.41.6-2.5 1.47-3.12a4.2 4.2 0 012.34-.63c1.02.05 2.03.22 3 .53z" fill="#0E99D3" mask="url(#b)"/></g><g transform="translate(4 14.12)"><mask id="d" fill="#fff"><use xlink:href="#c"/></mask><path d="M5.31 2.89h-2.2v.9h1.1v1.54c-.27.1-.56.15-.85.13-1.3 0-2.16-.84-2.16-2.25 0-1.45.93-2.24 2.26-2.24.49 0 .97.09 1.41.28l.25-.91a4.14 4.14 0 00-1.65-.3C1.4.04 0 1.31 0 3.27c0 .95.32 1.77.87 2.3.59.56 1.38.83 2.44.83.68 0 1.36-.13 2-.35V2.89zm3.4-1.17c-1.36 0-2.33.9-2.33 2.39 0 1.44.98 2.32 2.25 2.32 1.15 0 2.32-.74 2.32-2.4 0-1.36-.9-2.3-2.23-2.3H8.7zm-.03.83c.78 0 1.1.8 1.1 1.51 0 .91-.46 1.55-1.1 1.55-.7 0-1.13-.66-1.13-1.53.01-.75.33-1.52 1.14-1.52zm3.43 3.78h1.13V3.99c.19.03.37.04.56.03.8 0 1.5-.2 1.97-.66.37-.38.56-.9.53-1.42a1.76 1.76 0 00-.6-1.37c-.4-.34-1.01-.51-1.84-.51-.59-.01-1.17.03-1.74.13v6.14zM13.24.98c.22-.04.44-.06.66-.06.79 0 1.27.38 1.27 1.07 0 .73-.52 1.14-1.37 1.14-.19.01-.37 0-.55-.04V.98zm7.48 2.64c0-.98-.41-1.89-1.86-1.89a3.24 3.24 0 00-1.62.4l.22.74c.36-.21.78-.33 1.2-.33.8 0 .92.49.92.79v.07c-1.66 0-2.67.57-2.67 1.7a1.34 1.34 0 001.42 1.34c.5.01 1-.21 1.32-.6h.03l.08.5h1.02a7.23 7.23 0 01-.06-1.09V3.63zm-1.1 1.13a.92.92 0 01-.93.87.6.6 0 01-.65-.64c0-.69.77-.86 1.57-.84v.61zm1.86-2.92l1.64 4.14c.04.07.07.15.07.22 0 .08-.03.15-.08.2a1.98 1.98 0 01-1.28 1.03l.26.96c.45-.08.86-.28 1.2-.59.53-.46.94-1.2 1.57-2.89l1.13-3.07h-1.22l-.71 2.4-.24.9h-.03c-.06-.27-.16-.6-.25-.88l-.81-2.42h-1.25z" fill="#000" mask="url(#d)"/></g></g></g></svg>