<?xml version="1.0" encoding="UTF-8"?>
<svg width="56px" height="36px" viewBox="0 0 56 36" version="1.1" xmlns="http://www.w3.org/2000/svg" xmlns:xlink="http://www.w3.org/1999/xlink">
    <!-- Generator: Sketch 46.2 (44496) - http://www.bohemiancoding.com/sketch -->
    <title>PM/HALCASH</title>
    <desc>Created with Sketch.</desc>
    <defs></defs>
    <g id="Page-1" stroke="none" stroke-width="1" fill="none" fill-rule="evenodd">
        <g id="PM/HALCASH">
            <path d="M0,3.75075247 C0,1.67926908 1.67596877,0 3.75035585,0 L52.2496442,0 C54.3209085,0 56,1.68806916 56,3.75075247 L56,32.2492475 C56,34.3207309 54.3240312,36 52.2496442,36 L3.75035585,36 C1.67909151,36 0,34.3119308 0,32.2492475 L0,3.75075247 Z" id="Rectangle-2" fill="#000000" fill-rule="nonzero"></path>
            <g id="halcash" transform="translate(1.000000, 1.000000)">
                <g id="Group">
                    <path d="M0.25,2.75075247 L0.25,31.2492475 C0.25,32.6250965 1.37296468,33.75 2.75035585,33.75 L51.2496442,33.75 C52.6324061,33.75 53.75,32.6316447 53.75,31.2492475 L53.75,2.75075247 C53.75,1.37490355 52.6270353,0.25 51.2496442,0.25 L2.75035585,0.25 C1.36759386,0.25 0.25,1.36835527 0.25,2.75075247 Z" id="Path" fill="#FFFFFF"></path>
                    <path d="M17.2246145,13.6273585 C17.4617684,13.9144654 17.6989224,14.1842767 17.9460969,14.4713836 C19.0383411,15.6959119 20.2341313,16.8962264 21.5368079,18.0515723 C21.6303334,17.9823899 21.7338794,17.9305031 21.8274049,17.8751572 L19.6829989,15.8584906 L20.1706676,13.2710692 L19.0283205,13.6238994 L18.4905489,11.963522 C17.8158292,12.5930818 17.3949645,13.1534591 17.2246145,13.6273585 L17.2246145,13.6273585 Z M22.8895873,17.6987421 C22.5856295,17.9720126 22.2582903,18.2314465 21.930951,18.4874214 L22.3785373,18.9232704 C22.7459589,18.6915094 23.0899991,18.4597484 23.4039776,18.2003145 L22.8895873,17.6987421 L22.8895873,17.6987421 Z M25.2811679,20.0128931 C24.9671894,20.272327 24.6231492,20.5040881 24.2690884,20.7358491 L24.7300355,21.1855346 C25.0974571,20.9676101 25.4414973,20.7220126 25.7554757,20.4764151 L25.2811679,20.0128931 L25.2811679,20.0128931 Z M23.4674413,19.9610063 L23.9150276,20.4106918 C24.2690884,20.1927673 24.6131286,19.9471698 24.9404678,19.6877358 L24.4795208,19.2380503 C24.1655423,19.4974843 23.8248423,19.7292453 23.4674413,19.9610063 L23.4674413,19.9610063 Z M27.0447915,19.2657233 L26.5704836,18.7745283 C26.2798865,19.0996855 25.9792689,19.4144654 25.6485895,19.7154088 L26.1228973,20.1789308 C26.4669375,19.8918239 26.7675552,19.577044 27.0447915,19.2657233 L27.0447915,19.2657233 Z M26.8343591,16.4188679 C26.610566,16.827044 26.3600513,17.2213836 26.0727944,17.6018868 L26.5337415,18.0930818 C26.8243385,17.7264151 27.0848738,17.3320755 27.308667,16.9100629 L26.8343591,16.4188679 L26.8343591,16.4188679 Z M28.0969533,17.7125786 L27.6360062,17.2352201 C27.4122131,17.6433962 27.1483376,18.0377358 26.8610807,18.418239 L27.3220278,18.909434 C27.6092847,18.5427673 27.8731602,18.1345912 28.0969533,17.7125786 L28.0969533,17.7125786 Z M23.7981207,17.8751572 C24.1388207,17.5742138 24.4561394,17.2490566 24.7567571,16.9100629 L24.2323462,16.3669811 C23.9283884,16.7059748 23.6144099,17.0345912 23.2737099,17.3597484 L23.7981207,17.8751572 L23.7981207,17.8751572 Z M25.7821973,17.9720126 C25.4916002,18.3110063 25.1909826,18.6257862 24.8502825,18.9267296 L25.3112296,19.3764151 C25.6519296,19.0754717 25.9558875,18.7641509 26.2431444,18.4355346 L25.7821973,17.9720126 L25.7821973,17.9720126 Z M24.2056247,18.9647799 L23.7713992,18.5427673 C23.4440599,18.8022013 23.1000197,19.0339623 22.7459589,19.2657233 L23.1801844,19.7015723 C23.5342452,19.4559748 23.8749452,19.2242138 24.2056247,18.9647799 L24.2056247,18.9647799 Z M25.5183218,17.6987421 L25.1108179,17.2767296 C24.8202208,17.6157233 24.5062423,17.9305031 24.1521815,18.2314465 L24.586407,18.6534591 C24.9271071,18.3386792 25.2444257,18.0273585 25.5183218,17.6987421 L25.5183218,17.6987421 Z M25.4147757,16.8962264 L25.8222797,17.3320755 C26.0995159,16.9654088 26.3600513,16.5710692 26.5838444,16.1628931 L26.1763405,15.7408805 C25.9525473,16.1455975 25.6886718,16.5433962 25.4147757,16.8962264 L25.4147757,16.8962264 Z M25.8089189,15.3707547 L25.3613326,14.9210692 C25.1108179,15.2877358 24.8369218,15.6440252 24.5463247,15.9968553 L25.0607149,16.5399371 C25.334611,16.159434 25.5851257,15.7650943 25.8089189,15.3707547 L25.8089189,15.3707547 Z M21.3263755,8.30377358 L21.3263755,7.71918239 C20.6282745,7.12075472 19.9969774,7.07924528 19.4324842,7.62232704 C19.0517019,8.0581761 18.8813518,8.6427673 18.8947126,9.36572327 L18.4204048,9.51446541 L18.4204048,10.2374214 L18.9715371,10.0471698 C18.9982587,10.2235849 19.0383411,10.4138365 19.088444,10.6040881 L18.918094,10.6455975 L18.918094,11.4757862 L19.4191234,11.3132075 C19.7331019,11.8320755 20.1172245,12.1157233 20.5748313,12.1710692 L20.6282745,11.5034591 C20.4044813,11.4066038 20.2207705,11.2716981 20.0637813,11.095283 L21.3263755,10.6871069 L21.3263755,9.92610063 L19.6696382,10.427673 C19.6028342,10.2512579 19.5527313,10.0748428 19.5260097,9.87075472 L21.3263755,9.25849057 L21.3263755,8.60471698 L19.4725666,9.20314465 L19.4725666,9.18930818 C19.445845,8.68427673 19.6028342,8.31761006 19.9468745,8.09968553 C20.2608529,7.85408805 20.7218,7.92327044 21.3263755,8.30377358 L21.3263755,8.30377358 Z M23.4039776,13.872956 L24.245707,13.7242138 C23.7713992,12.513522 22.9296697,12.1572327 21.7205187,12.6484277 C21.1426647,13.1119497 21.0090569,13.6965409 21.3397363,14.3918239 C21.3664579,14.4194969 21.3798186,14.4471698 21.4065402,14.4748428 L21.4332618,14.5025157 C21.4599834,14.5301887 21.5000657,14.5716981 21.5368079,14.5993711 C21.640354,14.6962264 21.7472402,14.7619497 21.8507863,14.8172956 C21.9543324,14.858805 22.1413834,14.9245283 22.4152795,15.0213836 C22.679155,15.118239 22.849505,15.2669811 22.9163089,15.4710692 C22.9831128,15.7305031 22.8227834,15.8792453 22.4553618,15.8930818 C21.8641471,15.7858491 21.5334677,15.5540881 21.4833647,15.1839623 L20.5748313,15.1839623 C20.6549961,15.8792453 21.1526853,16.3427673 22.0879402,16.5710692 C22.679155,16.6402516 23.1267413,16.5157233 23.4039776,16.190566 C23.7713992,15.754717 23.8782854,15.291195 23.7079354,14.7896226 C23.6411315,14.6685535 23.5776678,14.5578616 23.4975031,14.4748428 C23.3805962,14.3537736 23.2603491,14.2707547 23.1167207,14.2430818 C22.8795668,14.1877358 22.7225775,14.1462264 22.629052,14.1081761 C22.5355265,14.0666667 22.4453412,14.0009434 22.3518158,13.9040881 C22.3117334,13.8764151 22.2850118,13.8349057 22.2482697,13.8072327 L22.1447236,13.7 C22.0511981,13.440566 22.1313628,13.2503145 22.3551559,13.1292453 C22.8628658,13.1534591 23.2169266,13.3955975 23.4039776,13.872956 L23.4039776,13.872956 Z" id="Shape" fill="#FFFFFF" fill-rule="nonzero"></path>
                    <path d="M24.653211,23.513522 L24.653211,23.022327 C21.2862931,20.4349057 18.5005695,17.577673 16.2926998,14.4713836 L2.22379315,14.4713836 L2.22379315,23.513522 L24.653211,23.513522 L24.653211,23.513522 Z M24.8603031,14.2811321 L25.0039316,14.4852201 C24.3325521,15.5748428 23.2670295,16.7059748 21.8207245,17.8751572 C21.7271991,17.9305031 21.623653,17.9962264 21.5301275,18.0515723 C20.2274509,16.8927673 19.0316607,15.6959119 17.9394165,14.4713836 C17.6889018,14.1842767 17.4517479,13.9144654 17.2179341,13.6273585 C17.3882841,13.15 17.8091489,12.5930818 18.4805283,11.9669811 L18.3235391,11.4896226 C17.9561175,11.7767296 17.6254381,12.1157233 17.3248204,12.5100629 C17.181192,12.7141509 17.0342233,12.918239 16.9039557,13.15 C16.8004096,13.3264151 16.7068841,13.5166667 16.6133586,13.7069182 C16.8371517,13.9663522 17.0609449,14.2257862 17.284738,14.4679245 C20.0838225,17.6261006 22.5555677,20.0786164 24.7133345,21.8185535 C26.3967934,20.8638365 27.803016,19.5320755 28.908621,17.8163522 C27.9867268,16.5779874 27.0013689,15.4606918 25.9358463,14.4679245 C25.6218679,14.1669811 25.3045492,13.8971698 24.97721,13.6238994 L24.8603031,14.2811321 L24.8603031,14.2811321 Z M25.3613326,14.9072327 L25.8089189,15.3569182 C25.5851257,15.7650943 25.334611,16.1455975 25.0607149,16.5157233 L24.5463247,15.9726415 C24.8369218,15.6301887 25.1108179,15.2773585 25.3613326,14.9072327 L25.3613326,14.9072327 Z M25.8222797,17.3320755 L25.4147757,16.8962264 C25.692012,16.5295597 25.9525473,16.1490566 26.1763405,15.7374214 L26.5838444,16.159434 C26.3600513,16.5676101 26.0961757,16.9654088 25.8222797,17.3320755 L25.8222797,17.3320755 Z M25.1108179,17.2767296 L25.5183218,17.6987421 C25.2277247,18.0377358 24.9137463,18.3525157 24.586407,18.6534591 L24.1521815,18.2314465 C24.5062423,17.9305031 24.823561,17.6053459 25.1108179,17.2767296 L25.1108179,17.2767296 Z M23.7713992,18.5427673 L24.2056247,18.9647799 C23.8916462,19.2242138 23.547606,19.4559748 23.1801844,19.6877358 L22.7459589,19.2518868 C23.1000197,19.0339623 23.4407197,18.8022013 23.7713992,18.5427673 L23.7713992,18.5427673 Z M24.8603031,18.9232704 C25.2010032,18.622327 25.504961,18.3110063 25.7922179,17.9685535 L26.253165,18.4320755 C25.9625679,18.7572327 25.6619502,19.0720126 25.3212502,19.372956 L24.8603031,18.9232704 L24.8603031,18.9232704 Z M24.7567571,16.8962264 C24.46616,17.2352201 24.1521815,17.5638365 23.7981207,17.8613208 L23.2737099,17.3286164 C23.6010492,17.0034591 23.9183678,16.6748428 24.2323462,16.3358491 L24.7567571,16.8962264 L24.7567571,16.8962264 Z M27.6360062,17.2352201 L28.0969533,17.7125786 C27.8731602,18.1345912 27.6092847,18.5427673 27.3220278,18.909434 L26.8610807,18.418239 C27.1483376,18.0550314 27.4122131,17.6572327 27.6360062,17.2352201 L27.6360062,17.2352201 Z M26.0727944,17.6053459 C26.3500307,17.2248428 26.610566,16.8305031 26.8343591,16.422327 L27.308667,16.913522 C27.0848738,17.3216981 26.8209983,17.7160377 26.5337415,18.0965409 L26.0727944,17.6053459 L26.0727944,17.6053459 Z M26.5704836,18.7745283 L27.0447915,19.2657233 C26.7675552,19.5908805 26.4669375,19.8918239 26.1362581,20.1927673 L25.6619502,19.7292453 C25.9792689,19.4144654 26.2965875,19.1031447 26.5704836,18.7745283 L26.5704836,18.7745283 Z M23.9150276,20.4072327 L23.4674413,19.9575472 C23.8215021,19.7257862 24.1655423,19.4940252 24.4795208,19.2345912 L24.9404678,19.6842767 C24.6131286,19.9471698 24.2690884,20.1789308 23.9150276,20.4072327 L23.9150276,20.4072327 Z M24.2690884,20.7496855 C24.6231492,20.5179245 24.9671894,20.2861635 25.2811679,20.0267296 L25.7554757,20.5040881 C25.4414973,20.7496855 25.0974571,20.995283 24.7300355,21.2132075 L24.2690884,20.7496855 L24.2690884,20.7496855 Z M21.9443118,18.477044 C22.271651,18.2176101 22.5889697,17.9581761 22.9029481,17.6883648 L23.4173384,18.1933962 C23.1033599,18.4389937 22.7593197,18.6845912 22.3918981,18.9163522 L21.9443118,18.477044 Z" id="Shape" fill="#48A232" fill-rule="nonzero"></path>
                    <path d="M25.2945286,12.1157233 L23.4674413,11.6383648 L21.5334677,6.01383648 L17.1043674,7.74339623 L18.3268793,11.4861635 L18.4838685,11.963522 L19.0216401,13.6238994 L20.1639872,13.2710692 L19.6763186,15.8584906 L21.8207245,17.8751572 C23.2670295,16.7059748 24.3325521,15.5748428 25.0039316,14.4852201 L24.8603031,14.2811321 L24.9905708,13.6273585 L25.2945286,12.1157233 L25.2945286,12.1157233 Z M24.245707,13.7242138 L23.4039776,13.872956 C23.2202668,13.3955975 22.866206,13.15 22.338455,13.1361635 C22.1146618,13.2572327 22.0344971,13.4509434 22.1280226,13.7069182 C22.1547442,13.7484277 22.1948265,13.7761006 22.2315687,13.8141509 C22.2582903,13.8418239 22.2983726,13.8833333 22.3351148,13.9110063 C22.4386609,14.0078616 22.5321864,14.0597484 22.6123511,14.1150943 C22.7058766,14.1566038 22.8628658,14.1981132 23.1000197,14.25 C23.2436482,14.277673 23.377256,14.3572327 23.4808021,14.481761 C23.5609668,14.5647799 23.6244305,14.6720126 23.6912344,14.7965409 C23.8615845,15.3015723 23.7580384,15.7616352 23.3872766,16.1974843 C23.1100403,16.5226415 22.6657942,16.6471698 22.0712393,16.5779874 C21.1393245,16.3462264 20.6382951,15.8827044 20.5581304,15.1908805 L21.4666637,15.1908805 C21.5201069,15.5575472 21.8474461,15.7893082 22.4386609,15.9 C22.8060824,15.8861635 22.9630717,15.7374214 22.8996079,15.4779874 C22.832804,15.2738994 22.6758148,15.1251572 22.3985785,15.0283019 C22.134703,14.9314465 21.9509922,14.8657233 21.8340853,14.8242138 C21.7305393,14.7688679 21.623653,14.7031447 21.5201069,14.6062893 C21.4800245,14.5786164 21.453303,14.5371069 21.4165608,14.509434 L21.3898392,14.481761 C21.3631177,14.4540881 21.3363961,14.4264151 21.3230353,14.3987421 C20.9956961,13.7034591 21.1259637,13.1188679 21.7038177,12.6553459 C22.9296697,12.1572327 23.7713992,12.513522 24.245707,13.7242138 L24.245707,13.7242138 Z M21.3263755,7.71918239 L21.3263755,8.30377358 C20.7218,7.92327044 20.2608529,7.85408805 19.9201529,8.09968553 C19.5794529,8.33144654 19.4191234,8.69811321 19.445845,9.18930818 L19.445845,9.20314465 L21.2996539,8.60471698 L21.2996539,9.27232704 L19.4992882,9.88459119 C19.5260097,10.0886792 19.5794529,10.2789308 19.6429166,10.4415094 L21.2996539,9.93647799 L21.2996539,10.6974843 L20.0370598,11.1091195 C20.194049,11.2855346 20.3777598,11.4238994 20.6015529,11.5172956 L20.5481098,12.1849057 C20.0871627,12.1295597 19.7063803,11.8597484 19.3924019,11.327044 L18.8913724,11.4896226 L18.8913724,10.659434 L19.0617224,10.6179245 C19.0082793,10.427673 18.968197,10.2374214 18.9448156,10.0610063 L18.3936832,10.2512579 L18.3936832,9.52830189 L18.8679911,9.37955975 C18.8546303,8.65660377 19.0249803,8.07201258 19.4057627,7.63616352 C19.9969774,7.07924528 20.6282745,7.12075472 21.3263755,7.71918239 L21.3263755,7.71918239 Z" id="Shape" fill="#FE7A17" fill-rule="nonzero"></path>
                    <path d="M51.2077712,23.513522 L51.2077712,14.4713836 L25.9391865,14.4713836 C26.9913483,15.4641509 27.990067,16.5814465 28.9119612,17.8198113 C29.5165367,18.7849057 28.0969533,20.5283019 24.653211,23.022327 L24.653211,23.513522 L51.2077712,23.513522 L51.2077712,23.513522 Z" id="Shape" fill="#FE7915" fill-rule="nonzero"></path>
                    <path d="M16.960739,25.8830189 C16.6835027,25.8830189 16.4864311,25.9383648 16.3561635,26.059434 C16.2258958,26.1666667 16.1590919,26.3188679 16.1590919,26.495283 C16.1590919,26.6855346 16.2392566,26.8342767 16.3828851,26.9449686 C16.4864311,27.0141509 16.7503066,27.1075472 17.1578106,27.2044025 C17.2513361,27.2320755 17.301439,27.2459119 17.3281606,27.2735849 C17.3548822,27.3012579 17.3682429,27.3289308 17.3682429,27.3808176 C17.3682429,27.4361635 17.3415214,27.477673 17.301439,27.5157233 C17.2346351,27.5710692 17.131089,27.5987421 16.9974812,27.5987421 C16.8805743,27.5987421 16.7870488,27.5710692 16.7202449,27.5157233 C16.6534409,27.4603774 16.6166988,27.3808176 16.5899772,27.2701258 L16.075587,27.3531447 C16.1290301,27.5433962 16.2192154,27.6921384 16.3795449,27.8028302 C16.5231733,27.9100629 16.7336057,27.9654088 16.9974812,27.9654088 C17.2880782,27.9654088 17.4985106,27.8962264 17.642139,27.7613208 C17.7857675,27.6264151 17.8659322,27.4742138 17.8659322,27.2977987 C17.8659322,27.1352201 17.812489,27.0106918 17.708943,26.9172956 C17.6053969,26.8238994 17.4183459,26.754717 17.1444498,26.6855346 C16.8672135,26.6163522 16.7102243,26.5783019 16.6701419,26.5367925 C16.6300596,26.5091195 16.6166988,26.4814465 16.6166988,26.4399371 C16.6166988,26.3984277 16.6434204,26.3569182 16.6701419,26.3327044 C16.7235851,26.291195 16.8271312,26.263522 16.960739,26.263522 C17.0642851,26.263522 17.1444498,26.291195 17.2112537,26.3327044 C17.2646969,26.3742138 17.3047792,26.4295597 17.3147998,26.5091195 L17.8024685,26.4261006 C17.7490253,26.2496855 17.6722008,26.1251572 17.538593,26.031761 C17.4216861,25.9245283 17.2246145,25.8830189 16.960739,25.8830189 L16.960739,25.8830189 Z M12.8456172,25.1738994 L12.8456172,25.6650943 L13.3466467,25.6650943 L13.3466467,25.1738994 L12.8456172,25.1738994 L12.8456172,25.1738994 Z M13.3466467,25.9349057 L12.8456172,25.9349057 L12.8456172,27.9100629 L13.3466467,27.9100629 L13.3466467,25.9349057 L13.3466467,25.9349057 Z M15.003384,25.8830189 C14.7528693,25.8830189 14.5424369,25.9902516 14.3720869,26.2220126 L14.3720869,25.9349057 L13.897779,25.9349057 L13.897779,27.9100629 L14.3988085,27.9100629 L14.3988085,27.0106918 C14.3988085,26.7927673 14.4121693,26.6440252 14.4388908,26.5610063 C14.4656124,26.4779874 14.5056948,26.4122642 14.5825193,26.3569182 C14.6493232,26.3015723 14.7261477,26.2877358 14.8196732,26.2877358 C14.8864771,26.2877358 14.9499409,26.3015723 14.9900232,26.3292453 C15.0434664,26.3707547 15.0701879,26.4122642 15.0935693,26.4779874 C15.1202909,26.5471698 15.1336517,26.6820755 15.1336517,26.9 L15.1336517,27.9066038 L15.6346811,27.9066038 L15.6346811,26.6855346 C15.6346811,26.5367925 15.6213203,26.4122642 15.6079595,26.3327044 C15.5945987,26.2531447 15.5545164,26.1839623 15.5044134,26.1147799 C15.4509703,26.0455975 15.3875066,25.9937107 15.2939811,25.9522013 C15.2004556,25.9106918 15.1202909,25.8830189 15.003384,25.8830189 L15.003384,25.8830189 Z M18.2500548,25.540566 L18.2500548,25.9349057 L18.0129008,25.9349057 L18.0129008,26.3569182 L18.2500548,26.3569182 L18.2500548,27.2147799 C18.2500548,27.4050314 18.2500548,27.5295597 18.2634155,27.595283 C18.2767763,27.6783019 18.3034979,27.7440252 18.3435803,27.7993711 C18.3836626,27.854717 18.4371057,27.8962264 18.5005695,27.9204403 C18.5807342,27.9481132 18.6575587,27.9757862 18.7510842,27.9757862 C18.8947126,27.9757862 19.0416813,27.9481132 19.1452274,27.8927673 L19.105145,27.4845912 C19.0116195,27.5261006 18.9481558,27.5399371 18.8947126,27.5399371 C18.8679911,27.5399371 18.8412695,27.5261006 18.8011871,27.5122642 C18.7744656,27.4984277 18.7611048,27.4707547 18.7611048,27.4430818 C18.747744,27.4154088 18.747744,27.3220126 18.747744,27.1559748 L18.747744,26.3672956 L19.088444,26.3672956 L19.088444,25.945283 L18.747744,25.945283 L18.747744,25.25 L18.2500548,25.540566 L18.2500548,25.540566 Z M20.3911206,25.8830189 C20.1406058,25.8830189 19.956895,25.9245283 19.8266274,26.0179245 C19.7097205,26.1147799 19.616195,26.263522 19.5627519,26.4537736 L20.023699,26.5367925 C20.0504205,26.4399371 20.0905029,26.3880503 20.1406058,26.3465409 C20.194049,26.3050314 20.2575127,26.291195 20.3510382,26.291195 C20.4813059,26.291195 20.5748313,26.3050314 20.6149137,26.3465409 C20.6683568,26.3880503 20.6950784,26.4676101 20.6950784,26.5644654 L20.6950784,26.6198113 C20.6015529,26.6613208 20.4445637,26.7028302 20.2074098,26.7408805 C20.0370598,26.7823899 19.9034519,26.8238994 19.7999058,26.8619497 C19.7063803,26.9172956 19.6295558,26.9830189 19.5894735,27.0660377 C19.5360303,27.1490566 19.5093087,27.2562893 19.5093087,27.3669811 C19.5093087,27.5295597 19.5627519,27.681761 19.6796588,27.7889937 C19.7965656,27.8962264 19.9435343,27.9654088 20.1406058,27.9654088 C20.2575127,27.9654088 20.364399,27.9377358 20.4545843,27.8962264 C20.5581304,27.854717 20.6516559,27.7889937 20.7318206,27.6921384 C20.7318206,27.7059748 20.7451814,27.7198113 20.7451814,27.7613208 C20.7719029,27.8305031 20.7852637,27.8823899 20.7986245,27.9100629 L21.2996539,27.9100629 C21.2462108,27.8132075 21.2194892,27.7336478 21.2061284,27.6506289 C21.1927677,27.5676101 21.1794069,27.4465409 21.1794069,27.2701258 L21.1927677,26.6578616 C21.1927677,26.4261006 21.1660461,26.2773585 21.1259637,26.1943396 C21.0725206,26.1113208 20.9956961,26.0455975 20.8888098,25.9764151 C20.7852637,25.9106918 20.6149137,25.8830189 20.3911206,25.8830189 L20.3911206,25.8830189 Z M20.6950784,26.958805 L20.6950784,27.0660377 C20.6950784,27.1871069 20.6950784,27.2701258 20.6817176,27.3116352 C20.6683568,27.3808176 20.6282745,27.4327044 20.5648108,27.4880503 C20.484646,27.5433962 20.3944607,27.5849057 20.3009353,27.5849057 C20.2207705,27.5849057 20.1573068,27.5572327 20.1038637,27.5018868 C20.0504205,27.4465409 20.023699,27.3808176 20.023699,27.3116352 C20.023699,27.2286164 20.0637813,27.1767296 20.127245,27.1352201 C20.1673274,27.1075472 20.2575127,27.0660377 20.4044813,27.0383648 C20.5380892,26.9968553 20.6282745,26.9726415 20.6950784,26.958805 L20.6950784,26.958805 Z M6.07503943,26.1147799 C6.02159629,26.0455975 5.95813256,25.9937107 5.86460706,25.9522013 C5.77108157,25.9106918 5.66753548,25.8830189 5.5606492,25.8830189 C5.31013448,25.8830189 5.09970212,25.9902516 4.92935211,26.2220126 L4.92935211,25.9349057 L4.47174523,25.9349057 L4.47174523,27.9100629 L4.97277466,27.9100629 L4.97277466,27.0106918 C4.97277466,26.7927673 4.98613545,26.6440252 5.0262178,26.5610063 C5.05293937,26.4779874 5.09302173,26.4122642 5.16984624,26.3569182 C5.23665017,26.3015723 5.31347468,26.2877358 5.40700018,26.2877358 C5.4738041,26.2877358 5.53726783,26.3015723 5.59071097,26.3292453 C5.64415411,26.3707547 5.67087568,26.4122642 5.69425705,26.4779874 C5.72097862,26.5471698 5.73433941,26.6820755 5.73433941,26.9 L5.73433941,27.9066038 L6.20864728,27.9066038 L6.20864728,26.6855346 C6.20864728,26.5367925 6.19528649,26.4122642 6.18192571,26.3327044 C6.15520414,26.2496855 6.12848257,26.1666667 6.07503943,26.1147799 L6.07503943,26.1147799 Z M2.5377716,25.6374214 L3.957355,25.6374214 L3.957355,25.1738994 L2,25.1738994 L2,27.9100629 L4.01079814,27.9100629 L4.01079814,27.4465409 L2.5377716,27.4465409 L2.5377716,26.6993711 L3.8671697,26.6993711 L3.8671697,26.2496855 L2.5377716,26.2496855 L2.5377716,25.6374214 L2.5377716,25.6374214 Z M10.6878504,25.8830189 C10.5041397,25.8830189 10.3337896,25.9245283 10.1734602,26.0179245 C10.016471,26.1009434 9.89622394,26.2358491 9.81939942,26.3984277 C9.73923471,26.5610063 9.68913177,26.7235849 9.68913177,26.9034591 C9.68913177,27.1352201 9.72921412,27.3254717 9.81939942,27.4880503 C9.89956413,27.6367925 10.0298318,27.7613208 10.186821,27.8408805 C10.3438102,27.9204403 10.5141602,27.9619497 10.6878504,27.9619497 C10.9650867,27.9619497 11.2022407,27.8650943 11.3859515,27.6610063 C11.5696623,27.4707547 11.6631878,27.2251572 11.6631878,26.9242138 C11.6631878,26.6232704 11.5696623,26.3811321 11.3859515,26.1874214 C11.2022407,25.9764151 10.9784475,25.8830189 10.6878504,25.8830189 L10.6878504,25.8830189 Z M11.0185299,26.4676101 C11.1120554,26.5748428 11.1487975,26.727044 11.1487975,26.9172956 C11.1487975,27.1213836 11.1087152,27.2701258 11.0185299,27.3808176 C10.9283446,27.4915094 10.8214583,27.5295597 10.6911906,27.5295597 C10.560923,27.5295597 10.4540367,27.4742138 10.3638514,27.3808176 C10.2703259,27.2735849 10.2335838,27.1213836 10.2335838,26.9311321 C10.2335838,26.7408805 10.2870269,26.5921384 10.3638514,26.4814465 C10.4573769,26.3742138 10.560923,26.3327044 10.6911906,26.3327044 C10.8214583,26.3327044 10.9250044,26.3569182 11.0185299,26.4676101 L11.0185299,26.4676101 Z M9.28162783,25.9349057 L8.7672376,25.9349057 L8.7672376,27.9100629 L9.28162783,27.9100629 L9.28162783,25.9349057 L9.28162783,25.9349057 Z M8.46661994,25.9349057 L7.94220913,25.9349057 L7.57478754,26.9415094 C7.56142676,26.9968553 7.53470519,27.0487421 7.5213444,27.1040881 C7.5213444,27.131761 7.49462283,27.1871069 7.46790126,27.2805031 L7.00695418,25.9314465 L6.48254337,25.9314465 L7.2574689,27.9066038 L7.7050552,27.9066038 L8.46661994,25.9349057 L8.46661994,25.9349057 Z M9.28162783,25.6650943 L9.28162783,25.1738994 L8.7672376,25.1738994 L8.7672376,25.6650943 L9.28162783,25.6650943 L9.28162783,25.6650943 Z M38.5617882,26.1805031 C38.4047989,25.9902516 38.1810058,25.8795597 37.8904087,25.8795597 C37.639894,25.8795597 37.4294616,25.9764151 37.2591116,26.1666667 C37.0887616,26.3569182 37.0085969,26.6163522 37.0085969,26.9415094 C37.0085969,27.2147799 37.0754008,27.4465409 37.1923077,27.622956 C37.3492969,27.854717 37.5998116,27.9619497 37.9271509,27.9619497 C38.1375832,27.9619497 38.3079332,27.9066038 38.4515617,27.8132075 C38.5951901,27.7163522 38.7020764,27.5676101 38.7655401,27.363522 L38.2511499,27.2805031 C38.2244283,27.3773585 38.184346,27.4430818 38.134243,27.4984277 C38.0807999,27.5399371 38.0039754,27.5676101 37.9238107,27.5676101 C37.8069038,27.5676101 37.7133783,27.5261006 37.6332136,27.4465409 C37.5530489,27.363522 37.5163067,27.2424528 37.5163067,27.0937107 L38.7789009,27.0937107 C38.8123029,26.6716981 38.7321382,26.3707547 38.5617882,26.1805031 L38.5617882,26.1805031 Z M38.1943666,26.3984277 C38.2611705,26.4814465 38.2979127,26.6025157 38.3112734,26.7512579 L37.5497087,26.7512579 C37.5497087,26.6025157 37.589791,26.4918239 37.6532548,26.4122642 C37.7167185,26.3327044 37.810244,26.291195 37.9304911,26.291195 C38.0206764,26.291195 38.1142019,26.3188679 38.1943666,26.3984277 L38.1943666,26.3984277 Z M36.1568469,25.1738994 L36.1568469,26.1666667 C35.9998576,25.9764151 35.8161468,25.8795597 35.6057145,25.8795597 C35.3685605,25.8795597 35.1848497,25.9764151 35.0278605,26.1528302 C34.8708713,26.3292453 34.7907066,26.5748428 34.7907066,26.9138365 C34.7907066,27.2389937 34.8708713,27.4984277 35.0278605,27.6748428 C35.1848497,27.8650943 35.3685605,27.9619497 35.5923537,27.9619497 C35.6958998,27.9619497 35.8027861,27.9342767 35.9196929,27.8789308 C36.023239,27.8235849 36.1167645,27.7301887 36.1969292,27.6194969 L36.1969292,27.9066038 L36.6712371,27.9066038 L36.6712371,25.1704403 L36.1568469,25.1738994 L36.1568469,25.1738994 Z M36.0365998,26.4261006 C36.1167645,26.522956 36.1535067,26.6855346 36.1535067,26.9172956 C36.1535067,27.1213836 36.1134243,27.2701258 36.0365998,27.3669811 C35.9564351,27.4742138 35.852889,27.5295597 35.7326419,27.5295597 C35.5890135,27.5295597 35.4687664,27.4603774 35.3919419,27.3254717 C35.3384988,27.2286164 35.3117772,27.0798742 35.3117772,26.8619497 C35.3117772,26.6578616 35.3518596,26.522956 35.4286841,26.4122642 C35.5088488,26.3154088 35.6123949,26.263522 35.7326419,26.263522 C35.852889,26.291195 35.9564351,26.3327044 36.0365998,26.4261006 L36.0365998,26.4261006 Z M43.01761,25.9349057 L42.5032197,25.9349057 L42.5032197,27.9100629 L43.01761,27.9100629 L43.01761,25.9349057 L43.01761,25.9349057 Z M43.01761,25.1738994 L42.5032197,25.1738994 L42.5032197,25.6650943 L43.01761,25.6650943 L43.01761,25.1738994 L43.01761,25.1738994 Z M41.5045011,25.1738994 L41.5045011,26.1666667 C41.3475118,25.9764151 41.163801,25.8795597 40.9400079,25.8795597 C40.702854,25.8795597 40.5191432,25.9764151 40.3621539,26.1528302 C40.2051647,26.3292453 40.125,26.5748428 40.125,26.9138365 C40.125,27.2389937 40.2051647,27.4984277 40.3621539,27.6748428 C40.5191432,27.8650943 40.702854,27.9619497 40.9266471,27.9619497 C41.0301932,27.9619497 41.1370795,27.9342767 41.2406255,27.8789308 C41.3441716,27.8235849 41.4376971,27.7301887 41.5178618,27.6194969 L41.5178618,27.9066038 L41.9921697,27.9066038 L41.9921697,25.1704403 L41.5045011,25.1738994 L41.5045011,25.1738994 Z M41.3875942,26.4261006 C41.4677589,26.522956 41.5045011,26.6855346 41.5045011,26.9172956 C41.5045011,27.1213836 41.4644187,27.2701258 41.3742334,27.3669811 C41.2940687,27.4742138 41.1905226,27.5295597 41.0702755,27.5295597 C40.9266471,27.5295597 40.8064,27.4603774 40.7295755,27.3254717 C40.6761324,27.2286164 40.63605,27.0798742 40.63605,26.8619497 C40.63605,26.6578616 40.6761324,26.522956 40.7663177,26.4122642 C40.8464824,26.3154088 40.9500285,26.263522 41.0702755,26.263522 C41.2038834,26.291195 41.3074295,26.3327044 41.3875942,26.4261006 L41.3875942,26.4261006 Z M23.4808021,26.6855346 C23.4808021,26.5367925 23.4674413,26.4122642 23.4540805,26.3327044 C23.4407197,26.2496855 23.4006374,26.1839623 23.3505344,26.1147799 C23.2970913,26.0455975 23.2336276,25.9937107 23.1401021,25.9522013 C23.0465766,25.9106918 22.9430305,25.8830189 22.8361442,25.8830189 C22.5856295,25.8830189 22.3751971,25.9902516 22.2048471,26.2220126 L22.2048471,25.9349057 L21.7305393,25.9349057 L21.7305393,27.9100629 L22.2315687,27.9100629 L22.2315687,27.0106918 C22.2315687,26.7927673 22.2449295,26.6440252 22.271651,26.5610063 C22.2983726,26.4779874 22.338455,26.4122642 22.4152795,26.3569182 C22.4820834,26.3015723 22.5589079,26.2877358 22.6524334,26.2877358 C22.7192373,26.2877358 22.7827011,26.3015723 22.8361442,26.3292453 C22.8895873,26.3707547 22.9163089,26.4122642 22.9396903,26.4779874 C22.9664119,26.5471698 22.9797726,26.6820755 22.9797726,26.9 L22.9797726,27.9066038 L23.4808021,27.9066038 L23.4808021,26.6855346 L23.4808021,26.6855346 Z M26.4936591,25.9625786 C26.390113,25.9072327 26.2164228,25.8795597 25.9926297,25.8795597 C25.7421149,25.8795597 25.5584042,25.9210692 25.4281365,26.0144654 C25.3112296,26.1113208 25.2177041,26.2600629 25.164261,26.4503145 L25.6252081,26.5333333 C25.6519296,26.436478 25.692012,26.3845912 25.7421149,26.3430818 C25.7955581,26.3015723 25.8590218,26.2877358 25.9525473,26.2877358 C26.082815,26.2877358 26.1763405,26.3015723 26.2297836,26.3430818 C26.2832267,26.3845912 26.3099483,26.4641509 26.3099483,26.5610063 L26.3099483,26.6163522 C26.2164228,26.6578616 26.0594336,26.6993711 25.8222797,26.7374214 C25.6519296,26.7789308 25.5083012,26.8204403 25.4147757,26.8584906 C25.3212502,26.9138365 25.2444257,26.9795597 25.1909826,27.0625786 C25.1375394,27.1455975 25.1108179,27.2528302 25.1108179,27.363522 C25.1108179,27.5261006 25.164261,27.6783019 25.2811679,27.7855346 C25.3980747,27.8927673 25.5450434,27.9619497 25.7421149,27.9619497 C25.8590218,27.9619497 25.9659081,27.9342767 26.0560934,27.8927673 C26.1596395,27.8512579 26.253165,27.7855346 26.3333297,27.6886792 C26.3333297,27.7025157 26.3466905,27.7163522 26.3466905,27.7578616 C26.373412,27.827044 26.3867728,27.8789308 26.4001336,27.9066038 L26.901163,27.9066038 C26.8477199,27.8097484 26.8209983,27.7301887 26.8076376,27.6471698 C26.7942768,27.5641509 26.780916,27.4430818 26.780916,27.2666667 L26.7942768,26.6544025 C26.7942768,26.4226415 26.7675552,26.2738994 26.7274728,26.1908805 C26.6773699,26.0871069 26.5972052,26.0179245 26.4936591,25.9625786 L26.4936591,25.9625786 Z M26.2965875,26.958805 L26.2965875,27.0660377 C26.2965875,27.1871069 26.2832267,27.2701258 26.269866,27.3116352 C26.2565052,27.3808176 26.2164228,27.4327044 26.1529591,27.4880503 C26.0727944,27.5433962 25.9826091,27.5849057 25.8890836,27.5849057 C25.8089189,27.5849057 25.7454551,27.5572327 25.692012,27.5018868 C25.6385689,27.4465409 25.6118473,27.3808176 25.6118473,27.3116352 C25.6118473,27.2286164 25.6385689,27.1767296 25.7153934,27.1352201 C25.7554757,27.1075472 25.845661,27.0660377 25.9926297,27.0383648 C26.1362581,26.9968553 26.2297836,26.9726415 26.2965875,26.958805 L26.2965875,26.958805 Z M24.0352747,25.540566 L24.0352747,25.9349057 L23.7981207,25.9349057 L23.7981207,26.3569182 L24.0352747,26.3569182 L24.0352747,27.2147799 C24.0352747,27.4050314 24.0352747,27.5295597 24.0486354,27.595283 C24.0619962,27.6783019 24.0887178,27.7440252 24.1288002,27.7993711 C24.1688825,27.854717 24.2223257,27.8962264 24.2857894,27.9204403 C24.3659541,27.9481132 24.4427786,27.9757862 24.5363041,27.9757862 C24.6799325,27.9757862 24.8135404,27.9481132 24.9304473,27.8927673 L24.8903649,27.4845912 C24.7968394,27.5261006 24.7333757,27.5399371 24.6799325,27.5399371 C24.653211,27.5399371 24.6264894,27.5261006 24.5997678,27.5122642 C24.5730463,27.4984277 24.5596855,27.4707547 24.5596855,27.4430818 C24.5463247,27.4154088 24.5463247,27.3220126 24.5463247,27.1559748 L24.5463247,26.3672956 L24.8870247,26.3672956 L24.8870247,25.945283 L24.5463247,25.945283 L24.5463247,25.25 L24.0352747,25.540566 L24.0352747,25.540566 Z M33.197433,26.1805031 C33.0137222,25.9902516 32.7765682,25.8795597 32.4859712,25.8795597 C32.3022604,25.8795597 32.1319104,25.9210692 31.971581,26.0144654 C31.8145917,26.0974843 31.6943447,26.2323899 31.6175202,26.3949686 C31.5373554,26.5575472 31.5006133,26.7201258 31.5006133,26.9 C31.5006133,27.131761 31.5406956,27.3220126 31.6175202,27.4845912 C31.6976849,27.6333333 31.8279525,27.7578616 31.9849417,27.8374214 C32.141931,27.9169811 32.312281,27.9584906 32.4859712,27.9584906 C32.7632075,27.9584906 33.0003614,27.8616352 33.197433,27.6575472 C33.3811438,27.4672956 33.4746693,27.2216981 33.4746693,26.9207547 C33.4746693,26.6163522 33.3811438,26.3707547 33.197433,26.1805031 L33.197433,26.1805031 Z M32.9469183,26.9034591 C32.9469183,27.1075472 32.9068359,27.2562893 32.8166506,27.3669811 C32.7231251,27.4742138 32.619579,27.5157233 32.4893114,27.5157233 C32.3590437,27.5157233 32.2521574,27.4603774 32.1619721,27.3669811 C32.0684466,27.2597484 32.0183437,27.1075472 32.0183437,26.9172956 C32.0183437,26.727044 32.0717868,26.5783019 32.1619721,26.4676101 C32.2554976,26.3603774 32.3590437,26.3188679 32.4893114,26.3188679 C32.619579,26.3188679 32.7264653,26.3742138 32.8166506,26.4676101 C32.9068359,26.5748428 32.9469183,26.727044 32.9469183,26.9034591 L32.9469183,26.9034591 Z M30.2781015,25.8830189 C30.0275867,25.8830189 29.8171544,25.9798742 29.6468044,26.1701258 C29.4764544,26.3603774 29.3962896,26.6198113 29.3962896,26.9449686 C29.3962896,27.218239 29.4630936,27.45 29.5800004,27.6264151 C29.7369897,27.8581761 29.9875044,27.9654088 30.3282044,27.9654088 C30.5386368,27.9654088 30.7089868,27.9100629 30.8425946,27.8166667 C30.9728623,27.7198113 31.0931093,27.5710692 31.1565731,27.3669811 L30.6421828,27.2839623 C30.6154613,27.3808176 30.5753789,27.4465409 30.525276,27.5018868 C30.4718328,27.5433962 30.4083691,27.5710692 30.3148436,27.5710692 C30.1979367,27.5710692 30.1044112,27.5295597 30.0242465,27.45 C29.9440818,27.3669811 29.9073397,27.2459119 29.9073397,27.0971698 L31.1699339,27.0971698 C31.1832946,26.7028302 31.1031299,26.4018868 30.9327799,26.1977987 C30.7924917,25.9764151 30.5686985,25.8830189 30.2781015,25.8830189 L30.2781015,25.8830189 Z M30.3181838,26.291195 C30.4217299,26.291195 30.5018946,26.3327044 30.5820593,26.3984277 C30.6488632,26.4814465 30.6856054,26.6025157 30.6989662,26.7512579 L29.9374014,26.7512579 C29.9374014,26.6025157 29.9774838,26.4918239 30.0409475,26.4122642 C30.1044112,26.3327044 30.2012769,26.291195 30.3181838,26.291195 L30.3181838,26.291195 Z M28.9119612,26.1147799 C28.858518,26.0455975 28.7950543,25.9937107 28.7015288,25.9522013 C28.6080033,25.9106918 28.5044572,25.8830189 28.397571,25.8830189 C28.1470562,25.8830189 27.9366239,25.9902516 27.7662739,26.2220126 L27.7662739,25.9349057 L27.291966,25.9349057 L27.291966,27.9100629 L27.7929954,27.9100629 L27.7929954,27.0106918 C27.7929954,26.7927673 27.8063562,26.6440252 27.8464386,26.5610063 C27.8731602,26.4779874 27.9132425,26.4122642 27.9767062,26.3569182 C28.0435102,26.3015723 28.1203347,26.2877358 28.2138602,26.2877358 C28.2806641,26.2877358 28.3441278,26.3015723 28.397571,26.3292453 C28.4510141,26.3707547 28.4777357,26.4122642 28.501117,26.4779874 C28.5278386,26.5471698 28.5411994,26.6820755 28.5411994,26.9 L28.5411994,27.9066038 L29.0422288,27.9066038 L29.0422288,26.6855346 C29.0422288,26.5367925 29.0288681,26.4122642 29.0155073,26.3327044 C28.9887857,26.2496855 28.9654043,26.1666667 28.9119612,26.1147799 L28.9119612,26.1147799 Z M48.3151612,26.2081761 L48.3151612,25.9245283 L47.8542141,25.9245283 L47.8542141,27.8962264 L48.3552436,27.8962264 L48.3552436,27.2839623 C48.3552436,26.9449686 48.3686043,26.727044 48.3953259,26.6163522 C48.4220475,26.5091195 48.4621298,26.4399371 48.5122328,26.3984277 C48.5656759,26.3569182 48.6157789,26.3430818 48.6959436,26.3430818 C48.7761083,26.3430818 48.8529328,26.3707547 48.9330975,26.4261006 L49.0900867,25.9625786 C48.9865407,25.8933962 48.8662936,25.8553459 48.7493867,25.8553459 C48.669222,25.8553459 48.6057583,25.8830189 48.5389544,25.9245283 C48.4621298,25.9902516 48.3953259,26.0732704 48.3151612,26.2081761 L48.3151612,26.2081761 Z M45.1620159,26.1147799 C45.1085728,26.0455975 45.0451091,25.9937107 44.9515836,25.9522013 C44.8580581,25.9106918 44.754512,25.8830189 44.6476257,25.8830189 C44.397111,25.8830189 44.1866786,25.9902516 44.0163286,26.2220126 L44.0163286,25.9349057 L43.5420208,25.9349057 L43.5420208,27.9100629 L44.0430502,27.9100629 L44.0430502,27.0106918 C44.0430502,26.7927673 44.056411,26.6440252 44.0964933,26.5610063 C44.1232149,26.4779874 44.1632973,26.4122642 44.226761,26.3569182 C44.2935649,26.3015723 44.3703894,26.2877358 44.4639149,26.2877358 C44.5307189,26.2877358 44.5941826,26.3015723 44.6476257,26.3292453 C44.7010689,26.3707547 44.7277904,26.4122642 44.7511718,26.4779874 C44.7778934,26.5471698 44.7912542,26.6820755 44.7912542,26.9 L44.7912542,27.9066038 L45.2922836,27.9066038 L45.2922836,26.6855346 C45.2922836,26.5367925 45.2789228,26.4122642 45.265562,26.3327044 C45.2388405,26.2496855 45.2121189,26.1666667 45.1620159,26.1147799 L45.1620159,26.1147799 Z M47.2128964,26.1805031 C47.0559072,25.9902516 46.8321141,25.8795597 46.541517,25.8795597 C46.2910023,25.8795597 46.0805699,25.9764151 45.9102199,26.1666667 C45.7398699,26.3569182 45.6597052,26.6163522 45.6597052,26.9415094 C45.6597052,27.2147799 45.7265091,27.4465409 45.843416,27.622956 C46.0004052,27.854717 46.2509199,27.9619497 46.5782592,27.9619497 C46.7886915,27.9619497 46.9590415,27.9066038 47.10267,27.8132075 C47.2462984,27.7163522 47.3531847,27.5676101 47.4166484,27.363522 L46.9022582,27.2805031 C46.8755366,27.3773585 46.8354543,27.4430818 46.7853513,27.4984277 C46.7319082,27.5399371 46.6550837,27.5676101 46.574919,27.5676101 C46.4580121,27.5676101 46.3644866,27.5261006 46.2843219,27.4465409 C46.2041572,27.363522 46.167415,27.2424528 46.167415,27.0937107 L47.4300092,27.0937107 C47.4500504,26.6716981 47.3698857,26.3707547 47.2128964,26.1805031 L47.2128964,26.1805031 Z M46.8321141,26.3984277 C46.898918,26.4814465 46.9356602,26.6025157 46.9490209,26.7512579 L46.1874562,26.7512579 C46.1874562,26.6025157 46.2275385,26.4918239 46.2910023,26.4122642 C46.3578062,26.3292453 46.4479915,26.291195 46.5682386,26.291195 C46.6717847,26.291195 46.7519494,26.3188679 46.8321141,26.3984277 L46.8321141,26.3984277 Z M50.8937927,26.1805031 C50.7100819,25.9902516 50.472928,25.8795597 50.1823309,25.8795597 C49.9986201,25.8795597 49.8282701,25.9210692 49.6679407,26.0144654 C49.5109515,26.0974843 49.3907044,26.2323899 49.3138799,26.3949686 C49.2337152,26.5575472 49.196973,26.7201258 49.196973,26.9 C49.196973,27.131761 49.2370554,27.3220126 49.3138799,27.4845912 C49.3940446,27.6333333 49.5243122,27.7578616 49.6813015,27.8374214 C49.8382907,27.9169811 50.0086407,27.9584906 50.1823309,27.9584906 C50.4595672,27.9584906 50.6967211,27.8616352 50.8937927,27.6575472 C51.0775035,27.4672956 51.171029,27.2216981 51.171029,26.9207547 C51.1676888,26.6163522 51.0775035,26.3707547 50.8937927,26.1805031 L50.8937927,26.1805031 Z M49.7113632,26.9172956 C49.7113632,26.727044 49.7648064,26.5783019 49.8549917,26.4676101 C49.945177,26.3569182 50.0520633,26.3188679 50.1823309,26.3188679 C50.3125986,26.3188679 50.4328456,26.3742138 50.5096701,26.4676101 C50.6031956,26.5748428 50.6399378,26.727044 50.6399378,26.9172956 C50.6399378,27.1213836 50.5998554,27.2701258 50.5096701,27.3808176 C50.4194848,27.4915094 50.3125986,27.5295597 50.1823309,27.5295597 C50.0520633,27.5295597 49.945177,27.4742138 49.8549917,27.3808176 C49.7614662,27.2562893 49.7113632,27.1075472 49.7113632,26.9172956 Z" id="Shape" fill="#4E9D3B" fill-rule="nonzero"></path>
                    <path d="M7.29755125,15.9034591 L7.29755125,18.0827044 L5.79780314,18.0827044 L5.79780314,15.9034591 L3.93063343,15.9034591 L3.93063343,22.1402516 L5.79780314,22.1402516 L5.79780314,19.6081761 L7.31091204,19.6081761 L7.31091204,22.1402516 L9.17808174,22.1402516 L9.17808174,15.9034591 L7.29755125,15.9034591 L7.29755125,15.9034591 Z M16.5933174,15.9034591 L14.9232193,15.9034591 L14.9232193,22.1402516 L16.5933174,22.1402516 L16.5933174,15.9034591 L16.5933174,15.9034591 Z M14.3453653,19.1827044 C14.3453653,18.9647799 14.305283,18.7468553 14.2284585,18.5150943 C14.1482938,18.2833333 14.0313869,18.0930818 13.8877585,17.9720126 C13.6906869,17.781761 13.4401722,17.6572327 13.1261937,17.6053459 C12.8222359,17.55 12.4147319,17.5084906 11.9170427,17.5084906 C11.6030642,17.5084906 11.3124671,17.5361635 11.0352309,17.5915094 C10.7713554,17.6468553 10.560923,17.7125786 10.4039338,17.7955975 C10.1935014,17.9166667 10.0231514,18.0688679 9.91626511,18.2314465 C9.79935824,18.3940252 9.70583275,18.6257862 9.65238961,18.9128931 L11.2556838,19.0893082 C11.3224877,18.8990566 11.412673,18.7641509 11.5061985,18.6949686 C11.6364662,18.5981132 11.8468985,18.5600629 12.1241348,18.5600629 C12.3345672,18.5600629 12.4915564,18.6015723 12.5717211,18.6811321 C12.6518858,18.7641509 12.688628,18.9128931 12.688628,19.1308176 C12.4781956,19.2138365 12.2811241,19.2933962 12.0974133,19.3487421 C11.9137025,19.4040881 11.5061985,19.4836478 10.8749014,19.6220126 C10.3504906,19.7292453 9.99308963,19.895283 9.79601805,20.1132075 C9.59894647,20.3311321 9.50542097,20.618239 9.50542097,20.9572327 C9.50542097,21.3238994 9.63568863,21.6386792 9.91292492,21.8842767 C10.1768004,22.1298742 10.5709436,22.2647799 11.0953544,22.2647799 C11.4894975,22.2647799 11.8301976,22.209434 12.1207946,22.0883648 C12.3445878,21.9915094 12.5550202,21.8427673 12.7788133,21.6110063 C12.7921741,21.7459119 12.8188957,21.8427673 12.8322564,21.8981132 C12.8456172,21.9534591 12.8856996,22.0468553 12.9491633,22.1713836 L14.5257359,22.1713836 C14.4322104,21.9811321 14.3821075,21.8323899 14.3553859,21.7216981 C14.3286644,21.6006289 14.3153036,21.4345912 14.3153036,21.2166667 L14.3153036,19.1896226 L14.3453653,19.1827044 Z M11.3592299,20.4902516 C11.4527554,20.3933962 11.6631878,20.3138365 12.0038878,20.2169811 C12.2544025,20.1477987 12.4915564,20.0820755 12.7153496,19.9852201 L12.7153496,20.2584906 C12.7153496,20.4764151 12.6752672,20.6528302 12.6118035,20.791195 C12.5449996,20.9261006 12.4414535,21.0367925 12.2711035,21.1301887 C12.1141142,21.227044 11.9304035,21.2650943 11.7466927,21.2650943 C11.5763426,21.2650943 11.4427348,21.2235849 11.3525495,21.1440252 C11.2623642,21.0644654 11.2089211,20.9399371 11.2089211,20.8050314 C11.2156015,20.6943396 11.2690446,20.5871069 11.3592299,20.4902516 L11.3592299,20.4902516 Z M35.2616743,17.7402516 C35.0512419,17.086478 34.7239027,16.595283 34.2896772,16.2701258 C33.8554516,15.9449686 33.2642369,15.7927673 32.5026722,15.7927673 C31.530675,15.7927673 30.7791309,16.0660377 30.2547201,16.622956 C29.7303093,17.1798742 29.453073,17.9720126 29.453073,19.0062893 C29.453073,19.7811321 29.5967014,20.4072327 29.9006593,20.8984277 C30.2046171,21.4034591 30.5586779,21.7424528 30.9795427,21.9465409 C31.4004074,22.1367925 31.9248182,22.2336478 32.5828369,22.2336478 C33.1206085,22.2336478 33.5681948,22.1506289 33.9222556,21.9880503 C34.2629556,21.8254717 34.5535527,21.5798742 34.7907066,21.2650943 C35.0278605,20.9503145 35.1982105,20.5559748 35.3050968,20.0820755 L33.675081,19.5632075 C33.5949163,19.9575472 33.4646487,20.2584906 33.2809379,20.4764151 C33.0972271,20.6805031 32.8199908,20.791195 32.46593,20.791195 C32.0985084,20.791195 31.8079113,20.6701258 31.6108398,20.4106918 C31.4004074,20.1512579 31.3068819,19.6738994 31.3068819,18.9959119 C31.3068819,18.4389937 31.3870466,18.0308176 31.5573966,17.7713836 C31.7811898,17.4185535 32.108529,17.2386792 32.5293937,17.2386792 C32.7131045,17.2386792 32.8834545,17.2801887 33.0437839,17.3597484 C33.1874124,17.4427673 33.3210202,17.55 33.4245663,17.6987421 C33.4913702,17.781761 33.5414732,17.9305031 33.6082771,18.1069182 L35.2616743,17.7402516 L35.2616743,17.7402516 Z M36.2603929,17.7955975 C36.0499606,17.9166667 35.8796106,18.0688679 35.7727243,18.2314465 C35.6558174,18.3940252 35.5622919,18.6257862 35.5088488,18.9128931 L37.112143,19.0893082 C37.1789469,18.8990566 37.2557714,18.7641509 37.3626577,18.6949686 C37.4929254,18.5981132 37.7033577,18.5600629 37.980594,18.5600629 C38.1910264,18.5600629 38.3480156,18.6015723 38.4281803,18.6811321 C38.508345,18.7641509 38.558448,18.9128931 38.558448,19.1308176 C38.3480156,19.2138365 38.150944,19.2933962 37.9672332,19.3487421 C37.7835224,19.4040881 37.3760185,19.4836478 36.7447214,19.6220126 C36.2203106,19.7292453 35.8629096,19.895283 35.665838,20.1132075 C35.4687664,20.3311321 35.3752409,20.618239 35.3752409,20.9572327 C35.3752409,21.3238994 35.5055086,21.6386792 35.7827449,21.8842767 C36.0466204,22.1298742 36.4407635,22.2647799 36.9651743,22.2647799 C37.3593175,22.2647799 37.7000175,22.209434 37.9906146,22.0883648 C38.2144077,21.9915094 38.4248401,21.8427673 38.6486333,21.6110063 C38.661994,21.7459119 38.6887156,21.8427673 38.7020764,21.8981132 C38.7154372,21.9534591 38.7555195,22.0468553 38.8189833,22.1713836 L40.3821951,22.1713836 C40.2886696,21.9811321 40.2385667,21.8323899 40.2118451,21.7216981 C40.1851235,21.6006289 40.1717627,21.4345912 40.1717627,21.2166667 L40.1717627,19.1896226 C40.1717627,18.9716981 40.1316804,18.7537736 40.0548559,18.5220126 C39.9746912,18.2902516 39.8577843,18.1 39.7141559,17.9789308 C39.5170843,17.7886792 39.2665696,17.6641509 38.9525911,17.6122642 C38.6486333,17.5569182 38.2411293,17.5154088 37.7434401,17.5154088 C37.4294616,17.5154088 37.1388646,17.5430818 36.874989,17.5984277 C36.6278145,17.6433962 36.4173822,17.7125786 36.2603929,17.7955975 L36.2603929,17.7955975 Z M38.5617882,19.9990566 L38.5617882,20.272327 C38.5617882,20.4902516 38.5217058,20.6666667 38.4582421,20.8050314 C38.3947783,20.9433962 38.2745313,21.0506289 38.1175421,21.1440252 C37.9605528,21.2374214 37.776842,21.2789308 37.5931312,21.2789308 C37.4227812,21.2789308 37.2791528,21.2374214 37.1989881,21.1578616 C37.1054626,21.0748428 37.0687204,20.9537736 37.0687204,20.8188679 C37.0687204,20.6977987 37.1221636,20.5871069 37.1989881,20.5040881 C37.2925136,20.4072327 37.5029459,20.327673 37.843646,20.2308176 C38.1008411,20.1512579 38.337995,20.0820755 38.5617882,19.9990566 L38.5617882,19.9990566 Z M44.7912542,21.4311321 C44.9482434,21.1855346 45.0284081,20.9261006 45.0284081,20.6701258 C45.0284081,20.4106918 44.9482434,20.1789308 44.8179757,19.9610063 C44.6743473,19.7430818 44.4639149,19.5805031 44.1866786,19.4698113 C43.9094424,19.3487421 43.5019384,19.2657233 42.9374452,19.1965409 C42.5700237,19.1550314 42.3328697,19.0996855 42.2259834,19.0339623 C42.1224374,18.9786164 42.0556334,18.8990566 42.0556334,18.7883648 C42.0556334,18.6915094 42.0957158,18.5981132 42.1859011,18.5289308 C42.2660658,18.4597484 42.4096942,18.4216981 42.593405,18.4216981 C42.7771158,18.4216981 42.934105,18.4632075 43.0677129,18.5566038 C43.1612384,18.6257862 43.2247021,18.7330189 43.2647845,18.881761 L44.8547179,18.7191824 C44.7511718,18.418239 44.6042032,18.186478 44.4472139,18.0100629 C44.2768639,17.8336478 44.0664316,17.7091195 43.8159169,17.6295597 C43.5654021,17.5465409 43.1846198,17.5084906 42.660209,17.5084906 C42.1591795,17.5084906 41.7650364,17.5638365 41.4777795,17.6710692 C41.1871824,17.7783019 40.9533687,17.9443396 40.7796785,18.1622642 C40.6093285,18.3801887 40.5291637,18.6396226 40.5291637,18.9371069 C40.5291637,19.2103774 40.6093285,19.4559748 40.7663177,19.6600629 C40.9233069,19.8641509 41.1070177,20.0128931 41.3441716,20.1097484 C41.5679648,20.1927673 41.9754687,20.2861635 42.5399619,20.3968553 C42.934105,20.4660377 43.171259,20.531761 43.2614443,20.5732704 C43.3783511,20.6424528 43.4451551,20.7358491 43.4451551,20.8603774 C43.4451551,20.9676101 43.3917119,21.0644654 43.3148874,21.1336478 C43.1846198,21.2305031 43.0109296,21.2823899 42.7904766,21.2823899 C42.5800442,21.2823899 42.423055,21.2408805 42.2894472,21.1474843 C42.1725403,21.0644654 42.065654,20.9157233 41.9988501,20.7116352 L40.3421128,20.8742138 C40.4356383,21.3100629 40.6560912,21.6352201 40.9867706,21.8808176 C41.3274707,22.1125786 41.895304,22.2336478 42.6969511,22.2336478 C43.2614443,22.2336478 43.7090306,22.1644654 44.0363698,22.0157233 C44.397111,21.8808176 44.6342649,21.6732704 44.7912542,21.4311321 L44.7912542,21.4311321 Z M47.1594533,19.1169811 C47.289721,18.9544025 47.4500504,18.8713836 47.6604827,18.8713836 C47.8441935,18.8713836 47.987822,18.9267296 48.0947083,19.0477987 C48.1982543,19.1688679 48.2383367,19.3625786 48.2383367,19.6462264 L48.2383367,22.1367925 L49.9217956,22.1367925 L49.9217956,19.2657233 C49.9217956,18.6811321 49.7915279,18.2314465 49.5276524,17.9443396 C49.2637769,17.6572327 48.9097161,17.5084906 48.4621298,17.5084906 C48.158172,17.5084906 47.8842759,17.5638365 47.6604827,17.6710692 C47.4366896,17.7783019 47.2128964,17.9581761 46.9891033,18.1899371 L46.9891033,15.9034591 L45.3190052,15.9034591 L45.3190052,22.1402516 L46.9623817,22.1402516 L46.9623817,19.9610063 C46.9623817,19.5493711 47.0291856,19.2795597 47.1594533,19.1169811 L47.1594533,19.1169811 Z" id="Shape" fill="#FFFFFF" fill-rule="nonzero"></path>
                </g>
            </g>
        </g>
    </g>
</svg>