<?xml version="1.0" encoding="UTF-8"?><svg width="56" height="36" viewBox="0 0 56 36" xmlns="http://www.w3.org/2000/svg"><g fill="none" fill-rule="evenodd"><path d="M0 3.75A3.749 3.749 0 013.75 0h48.5A3.756 3.756 0 0156 3.75v28.5A3.749 3.749 0 0152.25 36H3.75A3.756 3.756 0 010 32.25V3.75z" fill="#000" fill-rule="nonzero"/><path d="M1.25 3.75v28.5c0 1.375 1.123 2.5 2.5 2.5h48.5c1.382 0 2.5-1.118 2.5-2.5V3.75c0-1.375-1.123-2.5-2.5-2.5H3.75a2.499 2.499 0 00-2.5 2.5z" fill="#FFF"/><g fill-rule="nonzero"><path d="M23.024 12.269a1.018 1.018 0 00-1.183-.126 36.727 36.727 0 01-4.294 2.107 222.07 222.07 0 011.876-6.86 1.058 1.058 0 00-.692-1.313 1.03 1.03 0 00-1.288.706c-.016.055-1.158 3.934-2.242 8.305-.869.266-1.717.473-2.542.62-.237.042-.462.077-.676.107a77.384 77.384 0 012.263-7.624 1.06 1.06 0 00-.604-1.358 1.028 1.028 0 00-1.331.616c-.075.202-1.428 3.9-2.488 8.496a4.908 4.908 0 01-.614-.052 1.036 1.036 0 00-1.194.86c-.097.574.281 1.12.844 1.218.075.013.25.04.519.06a52.43 52.43 0 00-.419 2.433 1.051 1.051 0 001.024 1.21 1.04 1.04 0 001.02-.897c.138-.933.306-1.868.493-2.783a18.57 18.57 0 001.519-.209 22.752 22.752 0 001.623-.352 98.696 98.696 0 00-.727 3.39c-.111.57.253 1.126.813 1.239a1.04 1.04 0 001.215-.83c.277-1.428.624-2.974.99-4.497a33.622 33.622 0 003.494-1.47 35.49 35.49 0 00-.695 2.173c-.257.923-.4 1.658-.435 2.246-.06 1.012.211 1.71.808 2.073.166.102.349.15.53.15.351 0 .694-.183.888-.514.25-.426.17-.96-.163-1.294-.022-.212-.013-.876.511-2.6.418-1.376 1.01-2.923 1.441-4.052a1.069 1.069 0 00-.284-1.178M32.284 12.057c-.685.593-1.713 1.194-3.054 1.785-.601.265-1.21.503-1.786.712.352-1.54.701-3.08 1.048-4.621l.153-.683.132-.011c1.739-.139 3.089.042 3.8.51.324.213.497.466.564.821.08.424-.209.925-.857 1.487zm2.887-1.883a3.31 3.31 0 00-1.476-2.198c-1.126-.74-2.847-1.022-5.112-.837-1.596.13-2.892.448-2.946.461a1.055 1.055 0 00-.76 1.273c.133.566.692.913 1.246.777.004 0 .095-.023.255-.058a1663.984 1663.984 0 01-1.302 5.727c-.46.132-.741.203-.75.205a1.056 1.056 0 00-.76 1.274c.114.473.524.792.98.804-.06.249-.117.498-.176.746-.194.82-.383 1.64-.603 2.453-.15.549.184 1.21.746 1.34.565.132 1.154-.173 1.313-.76.396-1.46.729-2.938 1.065-4.413.913-.296 2.029-.693 3.137-1.18 1.535-.675 2.741-1.387 3.586-2.117 1.574-1.36 1.716-2.653 1.557-3.497zM36.365 15.78h.001-.001zm-.663.056c-.363.19-.941.646-1.714 1.731a6.69 6.69 0 00-1.031 2.16c-.031.115-.039.216-.037.29.252-.067.87-.336 1.964-1.397.167-.975.518-2.012.818-2.784zm7.678 14.15c-.042 0-.085-.002-.128-.007a1.05 1.05 0 01-.9-1.175c.244-2.021 1.202-5.174 2.186-8.04a9.25 9.25 0 01-.216.19c-1.015.862-1.924 1.243-2.78 1.164-.7-.065-1.265-.429-1.59-1.025a2.291 2.291 0 01-.135-.299 7.25 7.25 0 01-2.31 1.215c-.68.211-1.542.385-2.193-.155a1.49 1.49 0 01-.407-.524 5.818 5.818 0 01-.866.51c-1.069.498-1.8.303-2.224.05-.815-.483-1.159-1.574-.856-2.715.267-1 .722-1.959 1.355-2.847 1.275-1.791 2.546-2.712 3.777-2.736.883-.017 1.556.445 1.865.846.244.317.29.749.117 1.112-.288.606-1.029 2.382-1.19 3.671a4.27 4.27 0 00-.022.22c-.01.131-.021.255-.032.375l-.018.203.088-.027c1.473-.46 2.46-1.475 3.112-2.505.069-.236.147-.482.235-.738a23.332 23.332 0 011.029-2.493c.23-.466.759-.69 1.244-.528.486.162.782.662.698 1.176a10.987 10.987 0 01-1.292 3.431c-.263.992-.241 1.504-.188 1.684.142.007 1.08-.067 3.152-2.765a33.154 33.154 0 002.174-3.248c.273-.479.864-.66 1.35-.414.487.246.705.834.498 1.346-.04.1-4.01 9.984-4.509 14.123-.064.534-.51.926-1.024.926z" fill="#00A5E1"/><path d="M23.69 8.724c.46.482.463 1.238.007 1.69-.455.45-1.197.426-1.656-.056-.46-.481-.463-1.237-.008-1.689.456-.45 1.197-.426 1.657.055" fill="#FFBA00"/></g></g></svg>