<?xml version="1.0" encoding="UTF-8"?><svg width="56" height="36" viewBox="0 0 56 36" xmlns="http://www.w3.org/2000/svg"><g fill="none" fill-rule="evenodd"><path d="M0 3.75A3.749 3.749 0 013.75 0h48.5A3.756 3.756 0 0156 3.75v28.5A3.749 3.749 0 0152.25 36H3.75A3.756 3.756 0 010 32.25V3.75z" fill="#000" fill-rule="nonzero"/><path d="M1.25 3.75v28.5c0 1.375 1.123 2.5 2.5 2.5h48.5c1.382 0 2.5-1.118 2.5-2.5V3.75c0-1.375-1.123-2.5-2.5-2.5H3.75a2.499 2.499 0 00-2.5 2.5z" fill="#FFF"/><g fill-rule="nonzero"><path d="M27.888 25.053v-.741H24.25v4.638h3.64v-.708h-2.557v-1.319h2.228v-.74h-2.228v-1.127h2.556v-.003zm-17.244 1.16c0-.55-.197-1.03-.623-1.386-.392-.386-.916-.549-1.606-.549-.69 0-1.18.16-1.573.515-.392.386-.622.838-.622 1.386v.87c0 .549.196 1.03.622 1.386.426.356.95.548 1.607.548.656 0 1.18-.192 1.572-.548.426-.385.623-.837.623-1.385v-.838zm-1.049 0v.87c0 .355-.098.644-.294.9-.196.226-.49.323-.852.323s-.657-.097-.853-.323a1.386 1.386 0 01-.328-.9v-.87c0-.356.098-.645.328-.901.196-.226.49-.323.853-.323.361 0 .656.097.852.323.196.256.294.545.294.9zm9.605-1.901v4.638h1.836c.657 0 1.18-.16 1.607-.548.426-.356.622-.837.622-1.386v-.774c0-.581-.196-1.03-.622-1.386-.426-.355-.95-.548-1.607-.548H19.2v.004zm2.986 1.93v.774c0 .356-.098.645-.328.9-.23.227-.524.323-.916.323h-.69v-3.19h.69c.392 0 .69.097.916.323.23.225.328.518.328.87zm-9.442-.448l2.164 3.156h1.082v-4.638h-1.082v3.156h-.034l-2.13-3.156H11.66v4.638h1.083v-3.156zm37.212.418c0-.548-.23-1-.622-1.352-.098-.097-.196-.16-.294-.226a2.57 2.57 0 00-.755-.29c-.162-.032-.328-.032-.524-.032h-1.836v4.638h1.836c.656 0 1.18-.16 1.607-.548.426-.356.622-.804.622-1.32v-.87h-.034zm-1.082.03v.774c0 .356-.098.645-.294.9-.23.227-.525.323-.917.323h-.72v-3.19h.72c.392 0 .69.097.917.323.196.225.294.518.294.87zm-15.608-.74l.064.032-.132 3.416h1.082v-4.638h-1.41l-1.376 3.415h-.034l-1.377-3.415h-1.41v4.638h1.082l-.132-3.416h.034l1.509 3.416h.72l1.38-3.449zm4.657-1.19H36.84l-1.87 4.638h1.082l.361-1h1.87l.363 1h1.082l-1.806-4.638zm-.558 1.093l.69 1.837h-1.346l.656-1.837zm6.297-1.093v3.156h-.034l-2.13-3.156h-1.083v4.638h1.083v-3.156l2.164 3.156h1.049v-4.638h-1.049zm-3.609-1.516V8.01H6.02v14.786h34.033zM35.725 11.07h1.9v8.73h-1.64l-4.525-5.38v5.412h-1.67V11.07h1.376l4.559 5.12v-5.12zm-12.524 0h2.557l3.277 8.73h-2.36l-.593-1.709H22.87l-.591 1.708h-2.395l3.318-8.729zm-4.295 2.416c0 .419-.098.774-.294 1.126-.197.323-.525.582-.95.741.523.13.916.356 1.18.708.263.356.392.741.392 1.223 0 .837-.294 1.482-.917 1.9-.592.452-1.474.678-2.557.678h-3.344V11.07h2.918c1.147 0 2 .193 2.655.612.623.418.917 1 .917 1.804zM8.676 11.07h2.13v8.73h-2.13v-8.73zm8.427 6.154c0-.385-.098-.645-.264-.837-.196-.193-.524-.29-.95-.29h-1.573v2.19h1.475c.46 0 .788-.096 1.018-.259.196-.193.294-.448.294-.804zm-1.772-4.575h-1.018v2.093h1.048c.49 0 .853-.096 1.083-.29.23-.159.362-.418.362-.74 0-.386-.132-.645-.393-.804-.196-.163-.588-.26-1.082-.26zm9.148.774l-1.082 3.123h2.198l-1.116-3.123zM42.678 8.01h-1.9v14.786h1.9V8.01zm1.704 0h-1.048v14.786h1.048V8.01zm3.87 14.786V8.01h-3.15v14.786h3.15zM49.955 8.01h-.916v14.786h.916V8.01z" fill="#3CB878"/><path d="M10.81 11.07H8.678v8.73h2.13v-8.73zm7.835 3.512c.197-.322.295-.707.295-1.126 0-.804-.328-1.386-.95-1.804-.623-.419-1.51-.612-2.656-.612h-2.918v8.73h3.378c1.116 0 1.969-.227 2.557-.679.592-.418.917-1.063.917-1.9 0-.452-.132-.87-.393-1.223-.263-.356-.656-.581-1.18-.708.423-.1.72-.355.95-.678zm-4.329-1.933h1.018c.49 0 .886.096 1.116.259.264.16.393.418.393.804 0 .322-.132.581-.362.74-.23.194-.592.29-1.082.29H14.35v-2.093h-.034zm2.523 3.704c.197.193.264.482.264.838 0 .355-.098.611-.328.774-.23.16-.558.226-1.018.26h-1.474v-2.16h1.572c.46 0 .788.096.984.288zm8.919-5.283H23.2l-3.277 8.73h2.394l.592-1.709h3.213l.592 1.708h2.394l-3.351-8.729zm-1.279 2.353l1.116 3.156h-2.198l1.082-3.156zm13.15-2.353h-1.901v5.12l-4.56-5.12h-1.376v8.73h1.671v-5.38l4.56 5.412h1.64V11.07h-.034z" fill="#FFF"/></g></g></svg>