<?xml version="1.0" encoding="UTF-8"?><svg width="56" height="36" viewBox="0 0 56 36" xmlns="http://www.w3.org/2000/svg"><g fill="none" fill-rule="evenodd"><path d="M0 3.75A3.749 3.749 0 013.75 0h48.5A3.756 3.756 0 0156 3.75v28.5A3.749 3.749 0 0152.25 36H3.75A3.756 3.756 0 010 32.25V3.75z" fill="#000" fill-rule="nonzero"/><path d="M1.25 3.75v28.5c0 1.375 1.123 2.5 2.5 2.5h48.5c1.382 0 2.5-1.118 2.5-2.5V3.75c0-1.375-1.123-2.5-2.5-2.5H3.75a2.499 2.499 0 00-2.5 2.5z" fill="#FFF"/><path fill="#000" d="M5 6h46v24H5z"/><path d="M9.564 14.316H7.256L5.938 20.49h2.308l1.318-6.173zm.865 2.494l-.122.536h2.526l.122-.536h-2.526zm11.282 1.461c.264-1.313-.166-2.05-1.286-2.23.888-.255 1.44-.88 1.649-1.849.264-1.313-.253-1.993-1.548-2.037h-5.24l-1.768 8.334h5.252c1.658-.033 2.633-.78 2.941-2.218zm-5.394.224l.34-1.593h1.846c.549.044.801.312.758.813 0 .032-.012.055-.012.088-.075.424-.43.657-1.042.7h-1.89v-.008zm3.089-3.743c0 .044-.012.088-.023.132-.088.345-.407.545-.935.592h-1.495l.307-1.449h1.449c.5.033.729.277.697.725zm9.215-2.597h-2.462l-4.724 8.334h2.482l.703-1.314h2.735l.154 1.314h2.45l-1.338-8.334zm-1.757 2.853l.308 2.486h-1.637l1.33-2.486zm7.932-2.853H32.38l-1.768 8.334h2.416l.978-4.568 1.658 4.568h2.372l1.768-8.334h-2.372l-.955 4.502-1.681-4.502zm12.94 1.136c-.738-.848-1.693-1.269-2.878-1.269-1.187 0-2.24.424-3.184 1.27-.935.847-1.472 1.872-1.603 3.074-.142 1.204.154 2.217.888 3.062.738.849 1.702 1.282 2.89 1.282.713 0 1.372-.157 2-.469 1.361 1.27 2.746 1.717 4.151 1.37-1.132-.357-2.163-1.049-3.098-2.074.044-.032.087-.076.122-.111.935-.849 1.472-1.873 1.626-3.063.128-1.202-.18-2.227-.915-3.072zm-4.814 4.703c-.276-.444-.363-.992-.276-1.625.087-.636.32-1.181.714-1.626.395-.445.825-.668 1.295-.668.473 0 .836.223 1.11.668.275.445.362.993.275 1.626a3.307 3.307 0 01-.505 1.36c-.166-.28-.331-.568-.494-.868l-1.207.948c.185.288.383.568.571.824a1.501 1.501 0 01-.383.045c-.45-.006-.824-.227-1.1-.684z" fill="#FFF" fill-rule="nonzero"/><path d="M32.203 25.124c.66-.268 1.295-.58 1.922-.937 2-1.148 3.824-2.762 5.47-4.859-3.141 2.842-7.546 4.403-13.224 4.68-4.416.044-7.944-1.137-10.588-3.522h-.43c1.152 1.525 2.262 2.65 3.327 3.354 1.065.7 2.12 1.27 3.153 1.717 1.033.447 2.407.68 4.096.736 2.23 0 4.33-.377 6.274-1.169z" fill="#555"/><path d="M10.113 10.906a1.108 1.108 0 00-.869-.38c-.35 0-.659.124-.934.38a1.362 1.362 0 00-.45.913 1.18 1.18 0 00.307.913c.23.256.517.38.868.38.352 0 .66-.124.935-.38a1.3 1.3 0 00.439-.913 1.151 1.151 0 00-.296-.913z" fill="#FA0"/></g></svg>