<?xml version="1.0" encoding="UTF-8"?><svg width="56" height="36" viewBox="0 0 56 36" xmlns="http://www.w3.org/2000/svg"><defs><linearGradient x1="50%" y1="0%" x2="50%" y2="100%" id="a"><stop stop-color="#FDF55B" offset="0%"/><stop stop-color="#FAE72E" offset="100%"/></linearGradient></defs><g fill="none" fill-rule="evenodd"><path d="M0 3.75A3.75 3.75 0 013.75 0h48.5A3.76 3.76 0 0156 3.75v28.5A3.75 3.75 0 0152.25 36H3.75A3.76 3.76 0 010 32.25V3.75z" fill="#000" fill-rule="nonzero"/><path d="M1.25 3.75v28.5a2.5 2.5 0 002.5 2.5h48.5a2.5 2.5 0 002.5-2.5V3.75a2.5 2.5 0 00-2.5-2.5H3.75a2.5 2.5 0 00-2.5 2.5z" fill="#FFF"/><g fill-rule="nonzero"><path fill="#0089D0" d="M5 13.53h3.42V24.3H5zM43.4 13.53v3.68h3.54v-3.68h3.42V24.3h-3.42V20h-3.55v4.3h-3.42V13.54h3.42zM26.67 13.53l3.9 10.78h-3.42l-.7-1.9h-3.4l-.7 1.9h-3.41l3.9-10.78h3.82zm-1.92 4.16l-.88 2.43h1.76l-.88-2.43z"/><path d="M15.07 13.4a4.88 4.88 0 014.61 3.28l-3 .67c-.23-.82-.87-1.4-1.6-1.4h-.9c-.94 0-1.7.94-1.7 2.1v1.73c0 1.17.76 2.12 1.7 2.12h.9c.9 0 1.65-.89 1.7-2l3.02.99a4.88 4.88 0 01-4.73 3.67h-.88a4.88 4.88 0 01-4.88-4.88v-1.4c0-2.69 2.18-4.87 4.88-4.87h.88z" fill="#0187D6"/><path d="M36.3 13.28c1.77 0 3.2 1.55 3.2 3.46V17.07h-3.41c.05-.1.07-.22.07-.33 0-.57-.46-1.03-1.03-1.03h-1.08a.75.75 0 00-.75.75c0 .38.23.71.58.85l.15.04.64.13v.01h1.5c1.77 0 3.2 1.55 3.2 3.46v.15c0 1.9-1.43 3.46-3.2 3.46h-3.13c-1.77 0-3.2-1.55-3.2-3.46V20.76h3.4a.84.84 0 00-.07.34c0 .57.47 1.03 1.03 1.03h1.09c.41 0 .75-.34.75-.75a.91.91 0 00-.58-.85l-.16-.04-.63-.13v-.02h-1.5c-1.78 0-3.21-1.54-3.21-3.45v-.15c0-1.91 1.43-3.46 3.2-3.46h3.14z" fill="#0089D0"/><path fill="#F58430" d="M50.36 12.05l-3.42 1.05v-1.78z"/><path fill="#FFCB09" d="M49.37 11l-2.43 2.1v-1.78z"/><path fill="url(#a)" d="M.14 1.8h3.28L2.34.7h-.95z" transform="translate(5 11)"/><path fill="#FAE72E" d="M5.14 12.8h.75l1.06-1.09h-.57z"/></g></g></svg>