<?xml version="1.0" encoding="UTF-8"?><svg width="56" height="36" viewBox="0 0 56 36" xmlns="http://www.w3.org/2000/svg" xmlns:xlink="http://www.w3.org/1999/xlink"><defs><path id="a" d="M.029.046h6.073v6.686H.029z"/></defs><g fill="none" fill-rule="evenodd"><path d="M0 3.75A3.749 3.749 0 013.75 0h48.5A3.756 3.756 0 0156 3.75v28.5A3.749 3.749 0 0152.25 36H3.75A3.756 3.756 0 010 32.25V3.75z" fill="#000" fill-rule="nonzero"/><path d="M1.25 3.75v28.5c0 1.375 1.123 2.5 2.5 2.5h48.5c1.382 0 2.5-1.118 2.5-2.5V3.75c0-1.375-1.123-2.5-2.5-2.5H3.75a2.499 2.499 0 00-2.5 2.5z" fill="#FFF"/><g><path d="M28.337 16.67v1.294h4.281v-3.886h-2.632v-1.295H32.618V8.892h-4.28v1.296h2.96v1.299H28.66V15.374h2.637v1.295h-2.96zm-7.61-3.238c0-3.933 3.25-7.127 7.26-7.127 4.006 0 7.257 3.194 7.257 7.127 0 3.935-3.25 7.127-7.258 7.127-4.009 0-7.259-3.192-7.259-7.127zm-1.33 0c0-4.658 3.843-8.431 8.59-8.431 4.743 0 8.589 3.773 8.589 8.431 0 4.658-3.846 8.433-8.59 8.433-4.746 0-8.589-3.775-8.589-8.433zm8.276-3.246V8.89h-4.288v3.888h2.627v1.296h-2.627v3.888h4.288v-1.295h-2.969v-1.295h2.638V11.48h-2.638v-1.295h2.969z" fill="#B2292E"/><path d="M28.337 16.67v1.294h4.281v-3.886h-2.632v-1.295H32.618V8.892h-4.28v1.296h2.96v1.299H28.66V15.374h2.637v1.295h-2.96zm-7.61-3.238c0-3.933 3.25-7.127 7.26-7.127 4.006 0 7.257 3.194 7.257 7.127 0 3.935-3.25 7.127-7.258 7.127-4.009 0-7.259-3.192-7.259-7.127zm-1.33 0c0-4.658 3.843-8.431 8.59-8.431 4.743 0 8.589 3.773 8.589 8.431 0 4.658-3.846 8.433-8.59 8.433-4.746 0-8.589-3.775-8.589-8.433zm8.276-3.246V8.89h-4.288v3.888h2.627v1.296h-2.627v3.888h4.288v-1.295h-2.969v-1.295h2.638V11.48h-2.638v-1.295h2.969z" stroke="#B2292E" stroke-width=".5"/><g transform="translate(26.357 25.211)"><mask id="b" fill="#fff"><use xlink:href="#a"/></mask><path d="M1.324 3.914V3.9h2.36c.216 0 .526.034.774.192.233.15.35.37.35.654 0 .228-.064.405-.188.527-.231.228-.631.227-.923.227H1.316v-.015l.008-1.57zm0-1.242V1.277h2.16c.38 0 1.017 0 1.017.735 0 .27-.119.462-.355.568-.21.097-.476.108-.657.108H1.324v-.016zm2.448 4.06c.818 0 1.435-.194 1.834-.576.41-.394.496-.901.496-1.257 0-.78-.333-1.322-.992-1.61l-.028-.012.027-.014c.298-.152.69-.461.69-1.386 0-.507-.196-.964-.554-1.287C4.853.236 4.283.05 3.595.05L.029.046V6.73l3.743.003z" fill="#161519" mask="url(#b)"/></g><path fill="#161519" d="M17 31.943h1.358V25.26H17zM19.802 30.175c.191.376.46.692.851.997.608.474 1.462.715 2.54.715h1.86v-1.262h-1.756c-.975 0-1.684-.238-2.104-.706-.298-.333-.451-.78-.455-1.333-.005-.591.164-1.061.503-1.397.424-.42 1.116-.632 2.056-.632h1.755v-1.25H23.26c-.604 0-1.11.058-1.55.178a2.898 2.898 0 00-1.099.552c-.43.355-1.15 1.152-1.15 2.507 0 .647.112 1.18.342 1.631zM33.62 30.235c.198.412.484.767.852 1.056.57.446 1.378.652 2.54.652h1.961v-1.261h-1.857c-.974 0-1.683-.247-2.106-.735-.297-.343-.449-.802-.454-1.36-.006-.609.17-1.094.521-1.441.427-.422 1.113-.637 2.04-.637h1.856V25.26h-1.895c-.604 0-1.11.059-1.549.18-.438.12-.799.3-1.1.55-.345.285-1.15 1.106-1.15 2.554 0 .645.115 1.215.342 1.69z"/></g></g></svg>