<?xml version="1.0" encoding="UTF-8"?>
<svg width="56px" height="36px" viewBox="0 0 56 36" version="1.1" xmlns="http://www.w3.org/2000/svg" xmlns:xlink="http://www.w3.org/1999/xlink">
    <!-- Generator: Sketch 53.2 (72643) - https://sketchapp.com -->
    <title>idea-bank </title>
    <desc>Created with Sketch.</desc>
    <g id="idea-bank-" stroke="none" stroke-width="1" fill="none" fill-rule="evenodd">
        <g id="Base">
            <path d="M0,3.75075247 C0,1.67926908 1.67596877,0 3.75035585,0 L52.2496442,0 C54.3209085,0 56,1.68806916 56,3.75075247 L56,32.2492475 C56,34.3207309 54.3240312,36 52.2496442,36 L3.75035585,36 C1.67909151,36 0,34.3119308 0,32.2492475 L0,3.75075247 Z" id="Rectangle-2" fill="#000000" fill-rule="nonzero"></path>
            <path d="M1.25,3.75075247 L1.25,32.2492475 C1.25,33.6250965 2.37296468,34.75 3.75035585,34.75 L52.2496442,34.75 C53.6324061,34.75 54.75,33.6316447 54.75,32.2492475 L54.75,3.75075247 C54.75,2.37490355 53.6270353,1.25 52.2496442,1.25 L3.75035585,1.25 C2.36759386,1.25 1.25,2.36835527 1.25,3.75075247 Z" id="Path" fill="#FFFFFF"></path>
        </g>
        <g id="Idea_Bank_logo" transform="translate(6.000000, 15.000000)" fill="#009DE0" fill-rule="nonzero">
            <g id="Group" transform="translate(25.664062, 0.000000)">
                <path d="M0.227460938,0.15925 L2.58503906,0.15925 C2.93765625,0.15925 3.2484375,0.20195 3.51597656,0.28665 C3.78316406,0.37135 4.00675781,0.4928 4.18605469,0.6503 C4.36605469,0.8085 4.50105469,0.9968 4.59210938,1.2166 C4.68386719,1.43605 4.72992188,1.68035 4.72992188,1.9488 C4.72992188,2.1308 4.70601563,2.29285 4.65855469,2.436 C4.61179688,2.5795 4.54746094,2.70655 4.46484375,2.81855 C4.38257813,2.9295 4.28660156,3.0261 4.17796875,3.1073 C4.06933594,3.1892 3.95613281,3.25675 3.83941406,3.30995 L3.83941406,3.32675 C3.98636719,3.36245 4.12523438,3.42195 4.25742188,3.5077 C4.3903125,3.5924 4.50808594,3.6981 4.61109375,3.82305 C4.71339844,3.9494 4.79425781,4.09675 4.85367188,4.26755 C4.91203125,4.4373 4.9415625,4.62455 4.9415625,4.82895 C4.9415625,5.1331 4.8853125,5.40435 4.77351563,5.64095 C4.66207031,5.87825 4.50351563,6.0802 4.30101563,6.24715 C4.0978125,6.41445 3.85417969,6.5415 3.57257813,6.6297 C3.29027344,6.7172 2.97878906,6.7613 2.63671875,6.7613 L0.226757813,6.7613 L0.227460938,0.15925 L0.227460938,0.15925 Z M2.35511719,2.87 C2.67292969,2.87 2.92851562,2.80105 3.11941406,2.66315 C3.31101563,2.52525 3.40664062,2.3254 3.40664062,2.0622 C3.40664062,1.78675 3.31699219,1.5883 3.13699219,1.4651 C2.95699219,1.3426 2.73410156,1.2817 2.46972656,1.2817 L1.55039062,1.2817 L1.55039062,2.87 L2.35511719,2.87 Z M2.42542969,5.63885 C2.84308594,5.63885 3.13769531,5.5587 3.30820312,5.3977 C3.4790625,5.2367 3.56484375,5.03895 3.56484375,4.8048 C3.56484375,4.69875 3.54691406,4.59515 3.51175781,4.49225 C3.47660156,4.389 3.4171875,4.29695 3.335625,4.2154 C3.25265625,4.1335 3.14613281,4.06735 3.0178125,4.01765 C2.88738281,3.9676 2.72601563,3.94345 2.53160156,3.94345 L1.55039062,3.94345 L1.55039062,5.63955 L2.42542969,5.63885 L2.42542969,5.63885 Z" id="Shape"></path>
                <path d="M8.27859375,6.1705 L8.25925781,6.17715 C8.04761719,6.45155 7.80222656,6.6381 7.52273437,6.7382 C7.24394531,6.83725 6.97183594,6.8866 6.70816406,6.8866 C6.53167969,6.8866 6.34921875,6.8635 6.16042969,6.81695 C5.97234375,6.76935 5.80113281,6.6927 5.64503906,6.5835 C5.49,6.475 5.36203125,6.3336 5.26570312,6.15755 C5.169375,5.98115 5.12050781,5.76555 5.12050781,5.50725 C5.12050781,5.3844 5.1384375,5.2486 5.17324219,5.09915 C5.20839844,4.94935 5.29066406,4.8076 5.42039063,4.67285 C5.54871094,4.53775 5.743125,4.4191 6.001875,4.31655 C6.25992187,4.21435 6.61007813,4.1489 7.05058594,4.11985 L8.22339844,4.04915 L8.22339844,3.8381 C8.22339844,3.56825 8.14535156,3.3677 7.98890625,3.2361 C7.83457031,3.1038 7.61484375,3.0387 7.3321875,3.0387 C7.06746094,3.0387 6.86214844,3.09925 6.71519531,3.22 C6.56824219,3.3411 6.4884375,3.5042 6.47613281,3.71105 L5.26007813,3.71105 C5.27097656,3.535 5.31421875,3.35405 5.38699219,3.16995 C5.46117188,2.98585 5.58,2.8147 5.74523438,2.65965 C5.9090625,2.50495 6.12386719,2.37685 6.38824219,2.2771 C6.65261719,2.1784 6.98554688,2.1273 7.38457031,2.1273 C7.66757813,2.1273 7.93265625,2.15565 8.17910156,2.2106 C8.42695313,2.26625 8.64386719,2.3527 8.83335938,2.46925 C9.02074219,2.5872 9.16980469,2.737 9.27914063,2.92145 C9.38847656,3.10485 9.44296875,3.32605 9.44296875,3.584 L9.44296875,6.19815 C9.44296875,6.31575 9.44894531,6.4183 9.45984375,6.5065 C9.47144531,6.59505 9.48550781,6.67975 9.50308594,6.762 L8.27824219,6.762 L8.27824219,6.1705 L8.27859375,6.1705 Z M8.22480469,4.79885 L7.16554687,4.89475 C6.87164062,4.92415 6.66914062,4.9826 6.55769531,5.0708 C6.44519531,5.15795 6.38929687,5.2843 6.38929687,5.44845 C6.38929687,5.54785 6.41109375,5.63115 6.45539062,5.69835 C6.49933594,5.7659 6.55628906,5.8198 6.62695312,5.8611 C6.69726562,5.90205 6.7809375,5.93145 6.87832031,5.9493 C6.97570312,5.96645 7.07589844,5.9752 7.18242187,5.9752 C7.28226562,5.9752 7.39265625,5.96085 7.5121875,5.93145 C7.633125,5.90205 7.74703125,5.8569 7.85285156,5.79565 C7.95902344,5.7337 8.04726562,5.65425 8.11722656,5.558 C8.1871875,5.46175 8.22375,5.3466 8.22375,5.2115 L8.22480469,4.79885 L8.22480469,4.79885 Z" id="Shape"></path>
                <path d="M12.8608594,4.0152 C12.8608594,3.8507 12.8390625,3.71315 12.7947656,3.60185 C12.7508203,3.4916 12.6907031,3.40165 12.6140625,3.33445 C12.5377734,3.26725 12.4519922,3.21825 12.358125,3.18885 C12.2642578,3.1598 12.1665234,3.1451 12.0673828,3.1451 C11.8093359,3.1451 11.6061328,3.24345 11.4591797,3.4398 C11.3122266,3.63615 11.2380469,3.88815 11.2380469,4.1986 L11.2380469,6.76095 L9.97066406,6.76095 L9.97066406,2.24595 L11.1846094,2.24595 L11.1846094,2.83815 L11.2060547,2.83815 C11.3941406,2.5634 11.5994531,2.37545 11.8233984,2.2764 C12.0459375,2.1777 12.2867578,2.1266 12.5455078,2.1266 C12.8158594,2.1266 13.0510547,2.1679 13.2500391,2.2505 C13.4486719,2.33135 13.6149609,2.4451 13.7478516,2.58825 C13.8793359,2.7314 13.9760156,2.89835 14.0382422,3.08875 C14.0994141,3.2788 14.1307031,3.48215 14.1307031,3.6988 L14.1307031,6.762 L12.8619141,6.762 L12.8619141,4.01555 L12.8608594,4.01555 L12.8608594,4.0152 Z" id="Path"></path>
                <polygon id="Path" points="15.9113672 4.55035 15.8927344 4.54895 15.8927344 6.7613 14.6253516 6.7613 14.6253516 0.15925 15.8927344 0.15925 15.8927344 4.2245 15.9113672 4.22415 17.2792969 2.24595 18.7516406 2.24945 17.2353516 4.28365 18.8142188 6.7613 17.2529297 6.7613"></polygon>
            </g>
            <path d="M3.18234375,1.58235 C3.18234375,2.43565 2.48554687,3.129 1.6284375,3.129 C0.770625,3.129 0.0748828125,2.43635 0.0748828125,1.58235 C0.0748828125,0.7273 0.770625,0.0357 1.6284375,0.0357 C2.48554688,0.0357 3.18234375,0.72695 3.18234375,1.58235 M6.95953125,1.58235 C6.95953125,0.7273 6.26378906,0.0357 5.40632813,0.0357 C4.54921875,0.0357 3.85382813,0.7273 3.85382813,1.58235 C3.85382813,2.43565 4.54921875,3.129 5.40632813,3.129 C6.26414063,3.12865 6.95953125,2.436 6.95953125,1.58235 M3.18234375,5.3438 C3.18234375,4.4898 2.48554687,3.7982 1.6284375,3.7982 C0.770625,3.7982 0.0748828125,4.4898 0.0748828125,5.3438 C0.0748828125,6.1978 0.770625,6.89045 1.6284375,6.89045 C2.48554688,6.89045 3.18234375,6.19815 3.18234375,5.3438 M6.95953125,5.3438 C6.95953125,4.4898 6.26378906,3.7982 5.40632813,3.7982 C4.54921875,3.7982 3.85382813,4.4898 3.85382813,5.3438 C3.85382813,6.1978 4.54921875,6.89045 5.40632813,6.89045 C6.26414063,6.89045 6.95953125,6.19815 6.95953125,5.3438" id="Shape"></path>
            <path d="M43.6573828,4.48245 C43.6573828,4.39495 43.6739063,4.31445 43.70625,4.23815 C43.7392969,4.1615 43.7839453,4.095 43.8416016,4.0383 C43.8985547,3.98195 43.9660547,3.9368 44.0419922,3.90425 C44.1175781,3.8717 44.1991406,3.8549 44.2863281,3.8549 C44.3735156,3.8549 44.4557813,3.8717 44.5320703,3.90425 C44.6083594,3.9368 44.6748047,3.98195 44.7314062,4.0383 C44.7883594,4.095 44.8333594,4.1622 44.8664062,4.23815 C44.8994531,4.3141 44.9163281,4.39495 44.9163281,4.48245 C44.9163281,4.56925 44.8994531,4.6501 44.8664062,4.7257 C44.8333594,4.802 44.7883594,4.86815 44.7314062,4.92485 C44.6748047,4.9819 44.6073047,5.026 44.5320703,5.05855 C44.4557813,5.09285 44.3735156,5.1086 44.2863281,5.1086 C44.1991406,5.1086 44.1175781,5.09285 44.0419922,5.05855 C43.9653516,5.026 43.8985547,4.9819 43.8416016,4.92485 C43.7839453,4.86815 43.7392969,4.8013 43.70625,4.7257 C43.6739063,4.65045 43.6573828,4.56925 43.6573828,4.48245 Z M44.8235156,4.48245 C44.8235156,4.40335 44.8098047,4.3316 44.7809766,4.2651 C44.7542578,4.1993 44.7159375,4.1412 44.6695313,4.0936 C44.6210156,4.04565 44.5640625,4.0082 44.4997266,3.9802 C44.4336328,3.9529 44.3626172,3.93925 44.2873828,3.93925 C44.2103906,3.93925 44.1404297,3.9529 44.0750391,3.9802 C44.0096484,4.0082 43.95375,4.046 43.9062891,4.0936 C43.858125,4.1412 43.8212109,4.1993 43.7930859,4.2651 C43.7660156,4.3316 43.7526563,4.4037 43.7526563,4.48245 C43.7526563,4.56015 43.7660156,4.63295 43.7930859,4.6984 C43.8212109,4.7642 43.8584766,4.8223 43.9062891,4.8699 C43.9544531,4.91855 44.0103516,4.95565 44.0750391,4.9833 C44.1404297,5.0106 44.2103906,5.02425 44.2873828,5.02425 C44.3629688,5.02425 44.4336328,5.0106 44.4997266,4.9833 C44.5651172,4.95565 44.6220703,4.91785 44.6695313,4.8699 C44.7166406,4.82195 44.7542578,4.7642 44.7809766,4.6984 C44.8094531,4.6326 44.8235156,4.5598 44.8235156,4.48245 Z M44.2877344,4.53215 L44.1344531,4.53215 L44.1344531,4.8496 L44.0402344,4.8496 L44.0402344,4.10865 L44.3323828,4.10865 C44.4195703,4.10865 44.4846094,4.1258 44.5260938,4.15975 C44.5686328,4.19475 44.5897266,4.24655 44.5897266,4.31655 C44.5897266,4.35155 44.5833984,4.382 44.5739063,4.40685 C44.5623047,4.4317 44.5478906,4.45305 44.5306641,4.4709 C44.5116797,4.48875 44.4912891,4.50205 44.4663281,4.5122 C44.4441797,4.5213 44.4195703,4.5283 44.3942578,4.5318 L44.6048438,4.84995 L44.4923438,4.84995 L44.2877344,4.53215 Z M44.2986328,4.44885 C44.3302734,4.44885 44.3576953,4.4471 44.3823047,4.44325 C44.4058594,4.4401 44.4269531,4.43415 44.4441797,4.42505 C44.4614063,4.41595 44.4744141,4.40335 44.4821484,4.3883 C44.4905859,4.37115 44.4955078,4.3512 44.4955078,4.3232 C44.4955078,4.29695 44.4916406,4.27455 44.4846094,4.2574 C44.4765234,4.2399 44.4652734,4.22695 44.4512109,4.21715 C44.4360937,4.20805 44.4195703,4.20175 44.3988281,4.1972 C44.3784375,4.1937 44.3555859,4.1916 44.3295703,4.1916 L44.1344531,4.1916 L44.1344531,4.44745 L44.2986328,4.44745 L44.2986328,4.44885 L44.2986328,4.44885 Z" id="Shape"></path>
            <path d="M8.32324219,0.15925 L9.64582031,0.15925 L9.64582031,6.7613 L8.32324219,6.7613 L8.32324219,0.15925 Z M13.7257031,6.1271 L13.7056641,6.1306 C13.5232031,6.40045 13.3055859,6.59295 13.0535156,6.7102 C12.8003906,6.82745 12.526875,6.8859 12.2329688,6.8859 C11.9151562,6.8859 11.6272266,6.8201 11.368125,6.6885 C11.1097266,6.55725 10.8871875,6.38155 10.7026172,6.16175 C10.5166406,5.94265 10.3728516,5.68925 10.2698437,5.40225 C10.1668359,5.11595 10.1158594,4.8132 10.1158594,4.4982 C10.1158594,4.1818 10.164375,3.8815 10.2610547,3.59835 C10.3584375,3.31415 10.4966016,3.0625 10.6766016,2.8434 C10.8551953,2.6236 11.0749219,2.4493 11.3336719,2.32085 C11.5917188,2.1924 11.885625,2.1273 12.2153906,2.1273 C12.5092969,2.1273 12.7694531,2.1805 12.9962109,2.28585 C13.2233203,2.39155 13.4419922,2.5851 13.6539844,2.8658 L13.6712109,2.8658 L13.6712109,0.15925 L14.9392969,0.15925 L14.9392969,6.7613 L13.7260547,6.7613 L13.7257031,6.1271 L13.7257031,6.1271 Z M13.7148047,4.51535 C13.7148047,4.3463 13.6916016,4.18215 13.6437891,4.02465 C13.5966797,3.8668 13.5246094,3.72645 13.4279297,3.6036 C13.33125,3.48075 13.2103125,3.38275 13.0661719,3.30995 C12.9220313,3.2368 12.7504688,3.2004 12.5504297,3.2004 C12.3679688,3.2004 12.2076563,3.23785 12.0691406,3.31415 C11.9313281,3.3908 11.8156641,3.48985 11.7210938,3.61305 C11.6275781,3.7359 11.5562109,3.87765 11.5094531,4.03865 C11.4626953,4.19965 11.4387891,4.36555 11.4387891,4.5339 C11.4387891,4.7096 11.4641016,4.8776 11.5136719,5.0386 C11.5646484,5.1996 11.6374219,5.34135 11.7348047,5.46385 C11.8311328,5.58705 11.9503125,5.68435 12.0916406,5.7575 C12.2329688,5.83065 12.3975,5.86705 12.5862891,5.86705 C12.7680469,5.86705 12.9283594,5.8317 13.066875,5.76135 C13.2043359,5.6917 13.3224609,5.5951 13.4194922,5.4719 C13.5158203,5.34905 13.5892969,5.2059 13.6402734,5.0421 C13.6894922,4.8783 13.7148047,4.7033 13.7148047,4.51535 Z M16.6503516,4.8636 C16.6619531,4.9994 16.6935937,5.1303 16.7431641,5.2563 C16.7934375,5.3816 16.8609375,5.4936 16.9460156,5.5909 C17.0314453,5.6868 17.1372656,5.76695 17.2627734,5.82855 C17.3900391,5.8905 17.5380469,5.92095 17.7096094,5.92095 C17.9029687,5.92095 18.0808594,5.87545 18.2429297,5.78515 C18.4042969,5.69415 18.5291016,5.5608 18.6176953,5.38475 L19.8523828,5.48135 C19.6994531,5.94335 19.4280469,6.29265 19.0364063,6.52995 C18.6461719,6.76725 18.1824609,6.8852 17.6477344,6.8852 C17.3063672,6.8852 16.9934766,6.8299 16.7083594,6.71825 C16.4228906,6.60695 16.1792578,6.4477 15.9760547,6.23945 C15.7732031,6.03225 15.6146484,5.7834 15.5000391,5.4936 C15.3854297,5.20345 15.3284766,4.87725 15.3284766,4.5143 C15.3284766,4.1517 15.3854297,3.82165 15.5000391,3.52695 C15.6146484,3.2305 15.7732031,2.98025 15.9760547,2.772 C16.1792578,2.5641 16.4228906,2.4045 16.7083594,2.29355 C16.9934766,2.1826 17.3063672,2.1259 17.6477344,2.1259 C17.9891016,2.1259 18.3012891,2.18155 18.5874609,2.29355 C18.8722266,2.4038 19.1165625,2.5634 19.3190625,2.7706 C19.5215625,2.9792 19.6801172,3.23015 19.7954297,3.52485 C19.9100391,3.8213 19.9669922,4.1503 19.9669922,4.51255 L19.9669922,4.8629 L16.6503516,4.8636 L16.6503516,4.8636 Z M18.6964453,4.05685 C18.6851953,3.94625 18.6556641,3.83285 18.6092578,3.71875 C18.5614453,3.605 18.4967578,3.50105 18.4141406,3.40725 C18.3315234,3.3131 18.2320312,3.2375 18.1139062,3.17975 C17.9964844,3.1213 17.8611328,3.09155 17.7092578,3.09155 C17.5440234,3.09155 17.3998828,3.11815 17.2764844,3.171 C17.1530859,3.22385 17.0476172,3.2935 16.959375,3.381 C16.8704297,3.46885 16.801875,3.57105 16.7519531,3.68795 C16.7016797,3.80485 16.6682812,3.92875 16.6503516,4.05685 L18.6964453,4.05685 L18.6964453,4.05685 Z M23.4123047,6.1705 L23.3929688,6.17715 C23.180625,6.45155 22.9352344,6.6381 22.6560937,6.7382 C22.3769531,6.83725 22.1058984,6.8866 21.8408203,6.8866 C21.6650391,6.8866 21.4822266,6.8635 21.2941406,6.81695 C21.1060547,6.76935 20.9344922,6.6927 20.7783984,6.5835 C20.6226562,6.475 20.4960937,6.3336 20.3990625,6.15755 C20.3027344,5.98115 20.2538672,5.76555 20.2538672,5.50725 C20.2538672,5.3844 20.2717969,5.2486 20.3066016,5.09915 C20.3417578,4.94935 20.4236719,4.8076 20.5530469,4.67285 C20.6827734,4.53775 20.8764844,4.4191 21.1359375,4.31655 C21.3936328,4.21435 21.7434375,4.1489 22.1842969,4.11985 L23.3564062,4.04915 L23.3564062,3.8381 C23.3564062,3.56825 23.2787109,3.3677 23.1229687,3.2361 C22.9675781,3.10345 22.7485547,3.038 22.46625,3.038 C22.2015234,3.038 21.9958594,3.09855 21.8489062,3.2193 C21.7019531,3.3404 21.6228516,3.5035 21.6105469,3.71035 L20.3941406,3.71035 C20.4057422,3.5343 20.4486328,3.35335 20.5221094,3.16925 C20.5955859,2.98515 20.7140625,2.814 20.8792969,2.65895 C21.0441797,2.50425 21.2582813,2.37615 21.5233594,2.2764 C21.7877344,2.1777 22.1196094,2.1266 22.5196875,2.1266 C22.8023438,2.1266 23.0667187,2.15495 23.3135156,2.2099 C23.5613672,2.26555 23.7786328,2.352 23.9670703,2.46855 C24.1558594,2.5865 24.3042187,2.7363 24.4135547,2.92075 C24.5228906,3.10415 24.5777344,3.32535 24.5777344,3.5833 L24.5777344,6.19745 C24.5777344,6.31505 24.5833594,6.4176 24.5942578,6.5058 C24.6055078,6.59435 24.6202734,6.67905 24.6375,6.7613 L23.4130078,6.7613 L23.4123047,6.1705 L23.4123047,6.1705 Z M23.3574609,4.79885 L22.2992578,4.89475 C22.0053516,4.92415 21.8017969,4.9826 21.6903516,5.0708 C21.5785547,5.15795 21.5226563,5.2843 21.5226563,5.44845 C21.5226563,5.54785 21.5444531,5.63115 21.58875,5.69835 C21.6326953,5.7659 21.69,5.8198 21.7606641,5.8611 C21.830625,5.90205 21.9146484,5.93145 22.0123828,5.9493 C22.1094141,5.96645 22.2110156,5.9752 22.3161328,5.9752 C22.4163281,5.9752 22.5267188,5.96085 22.6469531,5.93145 C22.7668359,5.90205 22.8803906,5.8569 22.9858594,5.79565 C23.0927344,5.7337 23.180625,5.65425 23.2509375,5.558 C23.3216016,5.46175 23.3571094,5.3466 23.3571094,5.2115 L23.3574609,4.79885 L23.3574609,4.79885 Z" id="Shape"></path>
        </g>
    </g>
</svg>