<?xml version="1.0" encoding="UTF-8"?><svg width="56" height="36" viewBox="0 0 56 36" xmlns="http://www.w3.org/2000/svg"><g fill="none" fill-rule="evenodd"><path d="M0 3.75A3.749 3.749 0 013.75 0h48.5A3.756 3.756 0 0156 3.75v28.5A3.749 3.749 0 0152.25 36H3.75A3.756 3.756 0 010 32.25V3.75z" fill="#000" fill-rule="nonzero"/><path d="M1.25 3.75v28.5c0 1.375 1.123 2.5 2.5 2.5h48.5c1.382 0 2.5-1.118 2.5-2.5V3.75c0-1.375-1.123-2.5-2.5-2.5H3.75a2.499 2.499 0 00-2.5 2.5z" fill="#FFF"/><g fill-rule="nonzero"><path d="M29.925 31.991c8.383-.608 13-4.255 13.902-10.966.133-.953.16-1.958.133-3.012.372-8.563-4.297-13.215-14.035-13.982H12.018v27.96h17.907zm12.867-14.004v.238c0 .582-.027 1.138-.08 1.693-.531 6.473-4.696 9.992-12.468 10.548H13.346V5.512h16.898c7.878.635 12.07 4.123 12.521 10.468.053.631.053 1.319.027 2.007zm-27.645 1.82v8.776h5.227v-8.775h-5.227zm4.855-6.604c-.61-.609-1.354-.9-2.2-.9-.85 0-1.593.291-2.2.9-.606.608-.929 1.349-.929 2.191 0 .847.292 1.587.93 2.192.637.608 1.354.899 2.2.899.85 0 1.593-.291 2.2-.9.61-.608.929-1.349.929-2.191 0-.82-.319-1.557-.93-2.191z" fill="#000"/><path d="M42.792 18.251v-.238c.026-.714.026-1.376 0-2.01-.452-6.346-4.643-9.834-12.521-10.469H13.372v25.002h16.899c7.798-.582 11.936-4.096 12.468-10.547.053-.604.053-1.16.053-1.738zm-5.334-5.419v5.42h3.315c-.053 6.658-3.58 10.097-10.613 10.282h-7.48v-10.31h.823c1.355 0 2.147-.634 2.412-1.904.053-.265.08-.556.107-.873.053-1.8-.77-2.72-2.519-2.774h-.823V7.386h7.48c4.855.477 8.038 2.271 9.551 5.42.584 1.19.903 2.562 1.01 4.149h-1.886v-4.15h-1.377v.027zM23.503 14.05c.744.132 1.142.582 1.195 1.402.053.847-.345 1.35-1.195 1.482-.053 0-.106 0-.16.026h-.663v-2.932h.664c.053-.004.106.022.16.022zm-5.727-1.746c.85 0 1.593.291 2.2.9.61.608.93 1.349.93 2.191 0 .847-.32 1.587-.93 2.192-.611.608-1.355.899-2.2.899-.845 0-1.593-.291-2.2-.9-.606-.608-.93-1.349-.93-2.191 0-.847.293-1.587.93-2.191.633-.583 1.35-.9 2.2-.9zm-2.63 16.28v-8.775h5.228v8.775h-5.227zm11.938-15.75v5.418h3.421V16.77h-2.098v-.688h2.098v-1.35h-2.098v-.66h2.098v-1.244l-3.421.004zm9.578 5.418l-1.833-5.419h-1.885l-1.753 5.42h1.275l.425-1.27h1.885l.425 1.27h1.46zm-2.227-2.328h-1.142l.558-1.667.584 1.667z" fill="#FFF"/><path d="M24.698 15.447c-.053-.82-.451-1.27-1.195-1.402-.053 0-.106-.027-.16-.027h-.663v2.933h.664c.053 0 .106-.027.16-.027.849-.128 1.274-.63 1.194-1.477zm12.76 2.804v-5.419h1.381v4.15h1.886c-.106-1.588-.425-2.96-1.01-4.15-1.513-3.144-4.695-4.943-9.55-5.42h-7.48V12.7h.85c1.752.053 2.57.979 2.518 2.773 0 .318-.054.609-.107.873-.265 1.27-1.088 1.905-2.412 1.905h-.85v10.31h7.48c7.002-.186 10.56-3.62 10.614-10.283h-3.32v-.027zm-2.624-5.419l1.832 5.42h-1.434l-.425-1.27h-1.885l-.425 1.27h-1.275l1.753-5.42h1.859zm-7.75 5.42v-5.42h3.421v1.244h-2.098v.661h2.098v1.35h-2.098v.687h2.098v1.482l-3.421-.005zm6.21-2.329h1.141l-.584-1.667-.558 1.667z" fill="#D50172"/></g></g></svg>