<?xml version="1.0" encoding="UTF-8"?><svg width="56" height="36" viewBox="0 0 56 36" xmlns="http://www.w3.org/2000/svg"><g fill="none" fill-rule="evenodd"><path d="M0 3.75A3.749 3.749 0 013.75 0h48.5A3.756 3.756 0 0156 3.75v28.5A3.749 3.749 0 0152.25 36H3.75A3.756 3.756 0 010 32.25V3.75z" fill="#000" fill-rule="nonzero"/><path d="M1.25 3.75v28.5c0 1.375 1.123 2.5 2.5 2.5h48.5c1.382 0 2.5-1.118 2.5-2.5V3.75c0-1.375-1.123-2.5-2.5-2.5H3.75a2.499 2.499 0 00-2.5 2.5z" fill="#FFF"/><g fill-rule="nonzero"><path d="M12.223 14.38H9.012v13.382h3.214V14.381h-.003zm-.259-4.778a1.54 1.54 0 00-1.233-.596c-.13 0-.26.033-.389.066-.324.067-.583.265-.845.53-.13.199-.259.398-.356.596-.032.133-.064.299-.097.431-.032.132-.032.265-.032.397 0 .133 0 .299.032.431.065.331.194.632.389.897.032.033.032.1.097.133.226.265.518.464.812.53.13.033.26.066.421.066.486 0 .877-.199 1.233-.596.357-.398.518-.897.518-1.427a2.2 2.2 0 00-.55-1.458z" fill="#EF5133"/><path d="M18.746 14.149c0-1.527-.357-2.689-1.04-3.52-.715-.798-1.85-1.195-3.408-1.195h-.486c.292.463.454.996.454 1.592a2.92 2.92 0 01-.486 1.66c.683 0 1.136.165 1.33.496.195.299.292.732.357 1.328l.032 7.438c0 .897-.13 1.493-.389 1.824-.226.299-.715.464-1.427.497v3.487h.486c1.621 0 2.79-.43 3.505-1.295.715-.83 1.072-2.192 1.072-4.05V14.15zm3.667 8.4v-.595h5.095v-3.189c-.065-3.156-1.395-4.782-3.959-4.848-2.563-.033-3.797 2.06-3.732 6.275v1.994c.032 3.85 1.395 5.745 4.024 5.642 2.304-.198 3.538-1.659 3.667-4.417h-2.855c0 .1-.032.199-.032.298-.033.298-.13.563-.357.831-.064.1-.226.166-.42.232h-.454c-.324-.033-.583-.166-.747-.397-.162-.232-.26-.765-.292-1.56.062-.033.062-.133.062-.265zm.812-5.576c.13-.033.26-.066.421-.066.421 0 .716.166.845.497.13.298.194.732.194 1.361v.864h-2.304v-1.261c.064-.765.359-1.229.844-1.395zm13.405 6.673v-5.444c0-1.063-.13-1.927-.421-2.623-.421-1.096-1.298-1.626-2.661-1.626-.453 0-.877.1-1.266.331-.356.2-.618.464-.747.765 0 .033-.033.033-.033.1V9.735h-2.434v18.027h2.434v-1.328c0 .033.033.066.033.1.42.897 1.168 1.36 2.207 1.36h.065c.518 0 .942-.099 1.298-.297 1.007-.564 1.525-1.858 1.525-3.951 0 .033 0 .033 0 0zm-3.862-6.841c.259 0 .453.033.583.165.194.133.323.398.42.765.033.1.033.199.065.331.033.2.033.464.065.732v4.116c-.032.666-.097 1.13-.227 1.46a.843.843 0 01-.618.53h-.291c-.324 0-.55-.066-.748-.231-.097-.1-.162-.199-.259-.331-.097-.232-.162-.564-.226-.964 0-.199-.033-.397-.033-.632v-4.114c0-.165.033-.298.033-.43.064-.43.13-.732.259-.93.194-.299.453-.431.844-.464.036-.003.068-.003.133-.003zm8.31-2.322h-2.856v13.282h2.855V14.483zm-.295-4.88a1.54 1.54 0 00-1.233-.597c-.486 0-.878.199-1.234.596-.162.199-.291.398-.356.633-.032.099-.065.265-.097.397-.032.133-.032.265-.032.43 0 .166 0 .266.032.431.065.331.194.633.388.897.033.034.033.1.098.133.356.397.747.596 1.233.596.486 0 .877-.199 1.233-.596.356-.397.518-.897.518-1.427.003-.633-.191-1.096-.55-1.494zm4.836 1.195h-2.855V24.01c.064 2.192 1.33 3.487 3.83 3.885.226.033.485.066.747.099v-3.418c-1.104-.099-1.687-.698-1.72-1.791v-5.88h2.37v-2.26h-2.37v-3.847h-.002z" fill="#4B5A52"/></g></g></svg>