<?xml version="1.0" encoding="UTF-8"?><svg width="56" height="36" viewBox="0 0 56 36" xmlns="http://www.w3.org/2000/svg"><g fill="none" fill-rule="evenodd"><path d="M0 3.75A3.749 3.749 0 013.75 0h48.5A3.756 3.756 0 0156 3.75v28.5A3.749 3.749 0 0152.25 36H3.75A3.756 3.756 0 010 32.25V3.75z" fill="#000" fill-rule="nonzero"/><path d="M1.25 3.75v28.5c0 1.375 1.123 2.5 2.5 2.5h48.5c1.382 0 2.5-1.118 2.5-2.5V3.75c0-1.375-1.123-2.5-2.5-2.5H3.75a2.499 2.499 0 00-2.5 2.5z" fill="#FFF"/><g fill="#E04D4B" fill-rule="nonzero"><path d="M28.017 8c2.828 0 5.382 1.215 7.202 3.167l-3.101 2.566a5.94 5.94 0 00-4.102-1.652c-3.357 0-6.078 2.821-6.078 6.3 0 3.479 2.723 6.299 6.08 6.299 1.985 0 3.995-.862 4.86-2.516v5.296a9.698 9.698 0 01-4.86 1.302C22.484 28.762 18 24.116 18 18.382 18 12.645 22.485 8 28.017 8zm9.416 8.392v4.815l-2.822 5.987v-8.391h-3.824l2.816-2.411h3.83z"/></g></g></svg>