<?xml version="1.0" encoding="UTF-8"?><svg width="56" height="36" viewBox="0 0 56 36" xmlns="http://www.w3.org/2000/svg"><g fill="none" fill-rule="evenodd"><path d="M0 3.75A3.749 3.749 0 013.75 0h48.5A3.756 3.756 0 0156 3.75v28.5A3.749 3.749 0 0152.25 36H3.75A3.756 3.756 0 010 32.25V3.75z" fill="#000" fill-rule="nonzero"/><path d="M1.25 3.75v28.5c0 1.375 1.123 2.5 2.5 2.5h48.5c1.382 0 2.5-1.118 2.5-2.5V3.75c0-1.375-1.123-2.5-2.5-2.5H3.75a2.499 2.499 0 00-2.5 2.5z" fill="#FFF"/><g><path d="M8.04 11.011c-.568 0-1.025.458-1.025 1.027v3.332h42.97v-3.332c0-.57-.457-1.027-1.026-1.027H8.041z" fill-opacity=".997" fill="#D61C24" fill-rule="nonzero"/><path d="M7.015 20.603v3.333c0 .569.457 1.027 1.026 1.027h40.918c.569 0 1.026-.458 1.026-1.027v-3.333H7.015z" fill-opacity=".997" fill="#FFCF21" fill-rule="nonzero"/><path fill-opacity=".997" fill="#006AB4" fill-rule="nonzero" d="M7.015 15.806v4.362h42.97v-4.362z"/><path d="M28.517 11.703c-5.991 0-11.149.93-15 2.2-.95.344-1.322 1.033-1.322 1.604v4.963c0 .74.558 1.384 1.414 1.64 5.108 1.605 10.517 2.202 14.91 2.202 5.166.01 10.578-.852 14.896-2.178 1.047-.418 1.402-.997 1.421-1.664v-4.925c0-.741-.565-1.406-1.42-1.664-3.933-1.392-9.279-2.153-14.897-2.178h-.002z" fill="#FFF"/><path d="M28.519 12.527c-5.91 0-10.378.888-14.666 2.144-.593.178-.834.573-.834.874v4.925c0 .3.24.696.834.874 4.288 1.256 9.023 2.144 14.666 2.144 5.075.01 10.43-.845 14.659-2.144.594-.178.834-.574.834-.874v-4.925c0-.3-.24-.696-.834-.874-4.23-1.3-9.584-2.154-14.66-2.144zm0 1.281c4.457 0 9.86.519 13.859 1.515.561.136.79.567.79.798v3.773c0 .23-.154.628-.715.765-3.591.815-9.136 1.555-13.934 1.547-5.335 0-9.85-.582-13.904-1.544-.624-.152-.75-.65-.75-.88V16.12c0-.23.227-.662.788-.798 4.054-.962 9.494-1.515 13.866-1.515z" fill-opacity=".997" fill="#D61C24"/><path d="M19.9 15.327s-.616.108-1.98.353c-.37.099-1.85.346-1.776 1.478.035.533.543.89.964.89.54 0 .722-.56.722-.56s-.633-.027-.633-.57c0-.333.389-.508.736-.613a9.87 9.87 0 01.976-.248l-.89 2.19c-.335.855-.94 1.307-1.662 1.318-.722.011-.937-.664-1-.894-.322.237-.43.469-.43.672 0 .415.695.88 1.373.88.51 0 1.077-.151 1.394-.47.48-.378.768-.61 1.32-1.076.363-.248.49-.246.557-.228.066.017.157.136.03.357l-.514 1.4h.828l.585-1.492c.116-.2.173-.293.312-.274.138.02.13.162.075.316l-.247.666c-.08.296-.081.518.176.727.202.074.297.044.445-.042l.945-.467c.056.297.23.566.679.566.396 0 .567-.153.701-.287-.01.199.08.285.234.285.153 0 .279-.05.394-.095l1.082-.513a1.651 1.651 0 01-.124-.285l-.463.178c-.33.089-.332-.06-.258-.189l1.192-3.202h-.742l-.552 1.491c-.639-.171-1.403.027-1.87.837-.193.314-.284.556-.295.883l-.343.157c-.295.17-.357-.05-.275-.215l.374-.986c.09-.3.075-.594-.119-.702-.237-.133-.61-.035-1.073.38-.13-.42-.466-.595-1.013-.28l-1 .625 1.165-2.961zm3.849 2.841c.013 0 .026 0 .039.002.25.035.077.53.022.626-.225.512-.534.767-.68.767-.361-.066.008-.751.073-.865.122-.21.348-.517.546-.53zM41.366 16.095l-.511 1.414h-.377l-.242.635h.389l-.325.816c-.159.592-.615.8-.942.799-.327-.002-.55-.086-.63-.288 1.405-.717 1.497-1.908.563-1.97-.425-.01-.861.306-1.219.925a1.38 1.38 0 00-.12 1.062c-.277.17-.476.29-.738.22-.13-.035-.144-.183-.06-.414.083-.231.227-.573.412-.807l-.064-.42c-.43.005-.591-.096-.676-.23l.427-.413c-.087-.015-.214-.002-.385-.035-.172-.032-.23-.104-.365-.245l-.44.63c.049.398-.185.783-.478 1.133-.268.307-.366.397-.589.514-.132.069-.353.134-.293-.089l.691-1.825h-.555c-.049 0-.209.033-.262.188a.453.453 0 00-.378-.173c-.425-.01-.923.32-1.312.904-.195.32-.333.575-.357.883l-.4.199c-.295.17-.357-.05-.275-.215l.371-.986c.09-.301.089-.628-.108-.731-.217-.114-.522-.052-1.013.366-.069-.257-.28-.443-.474-.443-.194 0-.555.102-.873.42.035-.252-.066-.41-.257-.41-.19 0-.302.059-.508.146l-.942.394c.052.105.092.215.121.33l.724-.222-.752 2.05h.822l.565-1.45c.081-.244.254-.348.36-.32.104.029.102.176.031.369l-.53 1.4h.881l.55-1.45c.106-.233.194-.317.34-.317.147 0 .11.203.07.317l-.253.683c-.103.54.075.933.651.668l.926-.476c.076.3.3.575.682.575.396 0 .573-.153.707-.287.03.21.112.292.331.292.259 0 .608-.22.748-.301.428-.248.803-.676 1.162-1.226.102-.177.29-.319.407-.287.117.031.084.18.045.25-.09.156-.274.507-.345.747-.091.37-.12.81.692.81.385 0 .85-.2 1.123-.408.174.234.463.4.896.414.598 0 .912-.217 1.075-.306.12.218.382.307.684.307.288 0 .636-.105.814-.226.177-.122.36-.276.492-.418 0 0-.097-.18-.27-.133-.286.215-.51.348-.73.323-.22-.025-.182-.198-.12-.504l.412-1.11h.376l.24-.634h-.38l.525-1.414h-.757zm-2.162 1.998c.007 0 .013 0 .018.002.153.041-.043.349-.132.438-.227.227-.318.362-.458.342-.143-.039.088-.404.208-.525.092-.113.269-.259.364-.257zm-5.07.077c.25.036.078.528.022.625-.225.51-.522.76-.669.76-.315 0-.1-.584.07-.857.141-.244.374-.545.576-.528z" fill-opacity=".997" fill="#006AB4"/><path d="M26.656 17.167c-.416 0-.815.17-1.11.475-.294.304-.459.717-.459 1.148 0 .896.703 1.623 1.57 1.623.415 0 .815-.171 1.109-.476.294-.304.46-.717.46-1.147 0-.43-.166-.844-.46-1.148a1.543 1.543 0 00-1.11-.475zm0 .215c.361 0 .707.148.963.412.255.264.398.622.398.996 0 .373-.143.731-.398.995a1.339 1.339 0 01-.963.413c-.36 0-.707-.149-.962-.413a1.433 1.433 0 01-.399-.995c0-.374.143-.732.399-.996.255-.264.601-.412.962-.412zm0 .165c-.318 0-.624.131-.85.364a1.264 1.264 0 00-.35.879c0 .686.537 1.242 1.2 1.242.319 0 .624-.13.85-.364.225-.233.351-.549.351-.878 0-.33-.126-.646-.351-.879a1.181 1.181 0 00-.85-.364zm0 .216c.264 0 .516.108.702.3.187.193.291.454.291.727 0 .272-.104.533-.29.726a.977.977 0 01-.703.3.977.977 0 01-.702-.3 1.045 1.045 0 01-.29-.726c0-.568.444-1.027.992-1.027zm0 .165a.82.82 0 00-.589.252.877.877 0 00-.244.61c0 .476.373.861.833.861.46 0 .833-.385.833-.861a.877.877 0 00-.244-.61.82.82 0 00-.589-.252zm0 .215c.166 0 .325.068.442.19a.658.658 0 010 .914.615.615 0 01-.442.19.636.636 0 01-.625-.647c0-.357.28-.647.625-.647z" fill-opacity=".997" fill="#D61C24" fill-rule="nonzero"/></g></g></svg>