<?xml version="1.0" encoding="UTF-8"?><svg width="56" height="36" viewBox="0 0 56 36" xmlns="http://www.w3.org/2000/svg"><g fill="none" fill-rule="evenodd"><path d="M0 3.75A3.749 3.749 0 013.75 0h48.5A3.756 3.756 0 0156 3.75v28.5A3.749 3.749 0 0152.25 36H3.75A3.756 3.756 0 010 32.25V3.75z" fill="#000" fill-rule="nonzero"/><path d="M1.25 3.75v28.5c0 1.375 1.123 2.5 2.5 2.5h48.5c1.382 0 2.5-1.118 2.5-2.5V3.75c0-1.375-1.123-2.5-2.5-2.5H3.75a2.499 2.499 0 00-2.5 2.5z" fill="#FFF"/><g fill-rule="nonzero"><path d="M22.07 9.009v2.195h2.845v-1.17c-.027-.685-.362-1.025-1.003-1.025H22.07zm1.842 3.048H22.07v10.835h2.844v-9.806c-.027-.686-.362-1.029-1.003-1.029zm-7.31 2.168c.56 0 1.033.198 1.424.598.392.4.586.857.586 1.398v5.646c.056.655.362.998 1.003 1.025h1.506v-7.726c-.027-.884-.474-1.654-1.283-2.282a4.573 4.573 0 00-1.812-.827 5.328 5.328 0 00-1.394-.17c-.503 0-.976.056-1.394.17-.64.172-1.226.427-1.759.827-.864.628-1.282 1.398-1.311 2.309v7.7h2.482V16.25a2 2 0 01.585-1.455c.362-.37.81-.571 1.368-.571zm-7.587-2.168c-.641.058-.977.37-1.003.999v9.836h2.706V12.057H9.015zm1.703-3.048H9.015c-.641.057-.977.4-1.003 1.025v1.197h2.706V9.009zm38.27 1.025c-.026-.685-.362-1.025-1.003-1.025h-1.84v13.886h2.843v-12.86zm-11.438 2.88c-.53.4-.891.827-1.088 1.311-.112.256-.168.541-.224.827h2.874c.056-.084.112-.142.167-.229a1.75 1.75 0 01.447-.342c.28-.172.615-.229.977-.229.559 0 1.032.198 1.423.598.112.115.168.229.168.343.082.827-.615 1.254-2.12 1.254-2.762.285-4.1 1.425-4.045 3.394v.114c-.055 1.966 1.256 3.051 3.933 3.25 1.088.084 1.98-.199 2.732-.827.138.37.447.571.891.571h1.506v-7.783c-.026-.884-.473-1.654-1.282-2.282a4.635 4.635 0 00-1.785-.827 5.726 5.726 0 00-1.424-.17c-.503 0-.976.056-1.394.17a5.101 5.101 0 00-1.756.857zm5.162 4.191v1.852c-.306 1.482-1.312 2.168-2.93 2.08-.697-.114-1.058-.54-1.088-1.283 0-.743.418-1.197 1.256-1.398 1.506-.31 2.426-.71 2.762-1.25zm-12.024-2.88c.56 0 1.033.198 1.424.598.39.4.585.857.585 1.398v5.646c.056.655.391.998 1.003 1.025h1.506v-7.726c-.027-.884-.474-1.654-1.282-2.282a4.635 4.635 0 00-1.786-.827 5.726 5.726 0 00-1.423-.17 5.433 5.433 0 00-3.18.998c-.864.627-1.282 1.397-1.311 2.308v7.7h2.482V16.25c0-.57.194-1.055.559-1.455.39-.37.867-.571 1.423-.571z" fill="#404040"/><path d="M20.118 27.997c.67-.027 1.003-.37 1.003-1.025V25.09H9.015c-.67.027-1.003.37-1.003 1.025v1.882h12.106z" fill="#00AEF6"/><path d="M35.18 26.972V25.09H23.043c-.585.027-.92.313-1.003.827v2.08h12.106c.67-.027 1.006-.37 1.032-1.025z" fill="#FFC116"/><path d="M48.988 26.972V25.09H37.162c-.67.027-1.003.37-1.003 1.025v1.882h11.826c.641-.027.977-.37 1.003-1.025z" fill="#F01B20"/></g></g></svg>