<?xml version="1.0" encoding="UTF-8"?><svg width="56" height="36" viewBox="0 0 56 36" xmlns="http://www.w3.org/2000/svg"><g fill="none" fill-rule="evenodd"><path d="M0 3.75A3.749 3.749 0 013.75 0h48.5A3.756 3.756 0 0156 3.75v28.5A3.749 3.749 0 0152.25 36H3.75A3.756 3.756 0 010 32.25V3.75z" fill="#000" fill-rule="nonzero"/><path d="M1.25 3.75v28.5c0 1.375 1.123 2.5 2.5 2.5h48.5c1.382 0 2.5-1.118 2.5-2.5V3.75c0-1.375-1.123-2.5-2.5-2.5H3.75a2.499 2.499 0 00-2.5 2.5z" fill="#FFF"/><path d="M7.414 13.01h-2.41v10.972h2.41V13.009zm13.331 10.972V13.009h-2.41v6.686L12.39 13.01H10.99v10.973h2.369v-6.253l5.558 6.214h1.827v.039zm11.31-7.353c0-1.023-.35-1.849-1.05-2.556a3.495 3.495 0 00-2.409-1.062h-4.818v10.973h2.409v-3.738h2.369c.973 0 1.789-.353 2.448-1.061a3.522 3.522 0 001.05-2.556zm-2.721-1.141c.311.315.466.746.504 1.22 0 .472-.155.864-.504 1.22-.312.316-.738.51-1.206.51h-1.943v-3.463h1.943c.466 0 .894.198 1.206.513zm8.627-2.479h-.933l-4.624 10.973h2.293l.545-1.338h4.547l.505 1.338h2.293L37.96 13.009zm-.426 3.894l1.515 3.933h-3.07l1.555-3.933zm14.456-3.815v-.079h-2.214l-2.643 5.466-2.642-5.466h-2.255l3.691 7.158v3.815h2.41v-3.815l3.653-7.079z" fill-rule="nonzero" fill="#00364E"/></g></svg>