<?xml version="1.0" encoding="UTF-8"?><svg width="56" height="36" viewBox="0 0 56 36" xmlns="http://www.w3.org/2000/svg"><g fill="none" fill-rule="evenodd"><path d="M0 3.75A3.749 3.749 0 013.75 0h48.5A3.756 3.756 0 0156 3.75v28.5A3.749 3.749 0 0152.25 36H3.75A3.756 3.756 0 010 32.25V3.75z" fill="#000" fill-rule="nonzero"/><path d="M1.25 3.75v28.5c0 1.375 1.123 2.5 2.5 2.5h48.5c1.382 0 2.5-1.118 2.5-2.5V3.75c0-1.375-1.123-2.5-2.5-2.5H3.75a2.499 2.499 0 00-2.5 2.5z" fill="#FFF"/><g fill-rule="nonzero"><path d="M8.509 16.629h2.086c1.217 0 1.953.656 1.953 1.605v.013c0 1.075-.918 1.63-2.064 1.63h-.85v1.393H8.512l-.003-4.641zm2.013 2.34c.56 0 .889-.304.889-.701v-.014c0-.457-.35-.704-.911-.704h-.87v1.42h.892zM14.437 16.596h1.037l2.186 4.674h-1.173l-.468-1.04h-2.157l-.467 1.04H12.25l2.187-4.674zm1.181 2.732l-.68-1.506-.68 1.506h1.36zM18.9 19.44l-1.96-2.811h1.32l1.219 1.87 1.24-1.87h1.274l-1.968 2.791v1.85H18.9zM22.51 16.629h1.21l1.34 1.963 1.341-1.963h1.209v4.64h-1.115V18.24l-1.435 1.983h-.03l-1.422-1.962v3.009H22.51zM28.652 16.629h3.85v.911h-2.735v.94h2.407v.91h-2.407v.972h2.773v.908h-3.888zM33.356 16.629h1.035l2.399 2.857V16.63h1.108v4.64h-.955l-2.479-2.949v2.95h-1.108zM40.124 17.57H38.57v-.941h4.23v.942h-1.554v3.699h-1.122zM43.019 20.6l.663-.723c.432.355.971.553 1.53.563.459 0 .736-.17.736-.437v-.013c0-.259-.17-.391-1.029-.59-1.02-.24-1.691-.498-1.691-1.42v-.013c0-.85.744-1.4 1.787-1.4a3.145 3.145 0 011.895.59l-.583.77a2.55 2.55 0 00-1.328-.457c-.43 0-.656.17-.656.405v.005c0 .306.22.405 1.102.61 1.035.247 1.618.583 1.618 1.393v.013c0 .922-.772 1.438-1.87 1.438a3.444 3.444 0 01-2.174-.734zM8.499 15.656v-5.22H9.76v5.22zM15.635 15.656l-2.78-3.318v3.318h-1.247v-5.22h1.164l2.691 3.214v-3.214h1.247v5.22zM20.336 15.731a3.87 3.87 0 01-2.436-.836l.746-.813a2.78 2.78 0 001.713.634c.51 0 .83-.187.83-.491v-.015c0-.291-.197-.44-1.158-.665-1.156-.269-1.902-.56-1.902-1.595v-.02c0-.947.836-1.574 2.01-1.574a3.544 3.544 0 012.133.665l-.656.865a2.864 2.864 0 00-1.495-.51c-.482 0-.737.2-.737.454v.015c0 .34.246.456 1.239.68 1.164.275 1.82.656 1.82 1.566v.015c0 1.044-.87 1.625-2.107 1.625zM26.43 11.495v4.161h-1.263v-4.161H23.42v-1.06h4.76v1.06zM33.22 15.656l-.532-1.176H30.26l-.525 1.171h-1.287l2.46-5.251h1.166l2.46 5.258-1.314-.002zm-1.746-3.877l-.762 1.7h1.53l-.768-1.7zM39.85 15.656l-2.773-3.318v3.318H35.83v-5.22h1.166l2.684 3.214v-3.214h1.246v5.22zM45.32 11.495v4.161h-1.263v-4.161H42.31v-1.06h4.76v1.06z" fill="#0054A6"/><path d="M10.47 23.175a.527.527 0 01-.37.497c.3.09.51.238.51.542 0 .4-.38.612-.952.612h-1.19v-2.21h1.153c.523-.008.85.211.85.56zm-.45.063c0-.18-.17-.285-.452-.285H8.91v.59h.617c.298 0 .493-.099.493-.305zm.143.935c0-.19-.17-.3-.529-.3H8.91v.606h.75c.316 0 .503-.103.503-.309v.003zM13.913 24.826h-.456v-.875l-1.02-1.343h.533l.72.982.726-.982h.51l-1.02 1.334zM21.33 24.864c-.748 0-1.307-.51-1.307-1.145 0-.634.547-1.149 1.326-1.149.366-.017.726.104 1.006.34l-.289.29a1.103 1.103 0 00-.72-.276.79.79 0 100 1.576c.273 0 .536-.102.737-.288l.291.254c-.28.268-.656.411-1.044.398zM25.177 22.608v2.21h-.457v-2.21zM28.8 24.826h-.456V22.97h-.816v-.362h2.088v.362H28.8zM34.133 24.826h-.476l-.267-.535h-1.216l-.265.535h-.457l1.132-2.234h.418l1.13 2.234zm-1.348-1.768l-.44.888h.885l-.445-.888zM37.385 24.826h-.959v-2.21h.959c.81 0 1.36.48 1.36 1.107s-.55 1.103-1.36 1.103zm0-1.87h-.51v1.508h.51c.54 0 .893-.314.893-.751s-.352-.75-.893-.75v-.007zM42.874 22.956H41.42v.577h1.289v.34h-1.289v.596h1.472v.34h-1.924V22.6h1.907zM45.28 22.608h.452v1.87h1.36v.355H45.28z" fill="#BF1E2E"/><path d="M48.879 7.044H6.634c-.968.204-1.615.944-1.615 1.848v17.68c0 .93.751 1.684 1.681 1.688h29.383l-.427 1.01 2.985-1.26-2.985-1.26.427 1.005H6.7c-.65 0-1.175-.527-1.176-1.176V8.899c0-.655.482-1.19 1.201-1.346h42.079c.719.154 1.202.691 1.202 1.346v17.68c-.001.65-.527 1.175-1.177 1.176h-5.28a1.377 1.377 0 100 .51h5.27c.931 0 1.686-.755 1.687-1.686V8.899c.01-.915-.648-1.66-1.627-1.855zm-6.68 21.886a.906.906 0 11-.003-1.812.906.906 0 01.003 1.812z" fill="#BD1622"/></g></g></svg>