<?xml version="1.0" encoding="UTF-8"?>
<svg width="56px" height="36px" viewBox="0 0 56 36" version="1.1" xmlns="http://www.w3.org/2000/svg" xmlns:xlink="http://www.w3.org/1999/xlink">
    <!-- Generator: Sketch 46.2 (44496) - http://www.bohemiancoding.com/sketch -->
    <title>PM/InstaDebit</title>
    <desc>Created with Sketch.</desc>
    <defs></defs>
    <g id="Page-1" stroke="none" stroke-width="1" fill="none" fill-rule="evenodd">
        <g id="PM/InstaDebit">
            <path d="M0,3.75075247 C0,1.67926908 1.67596877,0 3.75035585,0 L52.2496442,0 C54.3209085,0 56,1.68806916 56,3.75075247 L56,32.2492475 C56,34.3207309 54.3240312,36 52.2496442,36 L3.75035585,36 C1.67909151,36 0,34.3119308 0,32.2492475 L0,3.75075247 Z" id="Rectangle-2" fill="#000000" fill-rule="nonzero"></path>
            <path d="M1.25,3.75075247 L1.25,32.2492475 C1.25,33.6250965 2.37296468,34.75 3.75035585,34.75 L52.2496442,34.75 C53.6324061,34.75 54.75,33.6316447 54.75,32.2492475 L54.75,3.75075247 C54.75,2.37490355 53.6270353,1.25 52.2496442,1.25 L3.75035585,1.25 C2.36759386,1.25 1.25,2.36835527 1.25,3.75075247 Z" id="Path" fill="#FFFFFF"></path>
            <g id="instadebit" transform="translate(3.000000, 15.000000)" fill-rule="nonzero">
                <g id="Group">
                    <path d="M2.65795724,4.10627615 L0.42280285,4.10627615 L0.0213776722,6.90041841 L2.25653207,6.90041841 L2.65795724,4.10627615 L2.65795724,4.10627615 Z M6.05463183,4.10627615 L3.81947743,4.10627615 L3.41805226,6.87991632 L5.65320665,6.87991632 L6.05463183,4.10627615 L6.05463183,4.10627615 Z M6.23515439,2.78242678 L6.60807601,0.09958159 L4.37054632,0.09958159 L3.9976247,2.78242678 L6.23515439,2.78242678 L6.23515439,2.78242678 Z" id="Shape" fill="#FF9805"></path>
                    <path d="M6.95011876,6.89748954 L8.21615202,6.89748954 L9.31828979,0.0966527197 L8.06650831,0.0966527197 L6.95011876,6.89748954 L6.95011876,6.89748954 Z M14.7885986,0.09958159 L13.5225653,0.09958159 L12.8527316,4.27029289 L12.8218527,4.27029289 L11.7339667,0.09958159 L10.4679335,0.09958159 L9.36579572,6.90041841 L10.631829,6.90041841 L11.3182898,2.74728033 L11.3491686,2.72970711 L12.4370546,6.90041841 L13.7030879,6.90041841 L14.7885986,0.09958159 L14.7885986,0.09958159 Z M19.0807601,2.08242678 C19.1995249,1.43807531 19.0950119,0.943096234 18.7672209,0.556485356 C18.4394299,0.190376569 17.9928741,0.00585774059 17.4109264,0.00585774059 C16.8598575,0.00585774059 16.3824228,0.152301255 15.9952494,0.465690377 C15.5938242,0.779079498 15.3539192,1.23891213 15.2660333,1.80711297 C15.175772,2.35774059 15.280285,2.81757322 15.5629454,3.18661088 C15.8456057,3.55271967 16.2921615,3.86610879 16.9049881,4.12384937 C17.2185273,4.3083682 17.4418052,4.45481172 17.5463183,4.60125523 C17.6508314,4.73012552 17.6793349,4.93221757 17.6365796,5.20753138 C17.6057007,5.37154812 17.5320665,5.50041841 17.3990499,5.6292887 C17.2494062,5.74058577 17.1021378,5.79330544 16.9524941,5.79330544 C16.7149644,5.79330544 16.5059382,5.72008368 16.3562945,5.59121339 C16.192399,5.4623431 16.1330166,5.2251046 16.192399,4.87364017 L14.9548694,4.87364017 L14.9406176,4.91171548 C14.807601,5.60878661 14.9406176,6.141841 15.327791,6.47280335 C15.7149644,6.80376569 16.192399,6.98828452 16.7434679,6.98828452 C17.2945368,6.98828452 17.7719715,6.841841 18.1591449,6.52845188 C18.5463183,6.23556485 18.7862233,5.77573222 18.8741093,5.18702929 C18.9786223,4.59832636 18.888361,4.1209205 18.6365796,3.75481172 C18.3824228,3.38870293 17.9809976,3.09288703 17.4441805,2.83514644 C17.0261283,2.63305439 16.7577197,2.46903766 16.6389549,2.35774059 C16.52019,2.22887029 16.4750594,2.04435146 16.52019,1.78661088 C16.5510689,1.62259414 16.6247031,1.49372385 16.7743468,1.38242678 C16.9073634,1.27112971 17.0570071,1.19790795 17.2066508,1.19790795 C17.4299287,1.19790795 17.5938242,1.27112971 17.7125891,1.43807531 C17.8313539,1.60209205 17.8622328,1.82468619 17.8171021,2.08242678 L19.0807601,2.08242678 L19.0807601,2.08242678 Z M22.5106888,1.31213389 L23.8218527,1.31213389 L24.0166271,0.09958159 L20.1258907,0.09958159 L19.9311164,1.31213389 L21.2422803,1.31213389 L20.3325416,6.89748954 L21.5985748,6.89748954 L22.5106888,1.31213389 L22.5106888,1.31213389 Z M24.9691211,5.57364017 L26.4893112,5.57364017 L26.4893112,6.89748954 L27.8313539,6.89748954 L27.8313539,0.09958159 L25.9382423,0.09958159 L23.2114014,6.90041841 L24.4774347,6.90041841 L24.9691211,5.57364017 L24.9691211,5.57364017 Z M26.280285,2.08242678 L26.4133017,2.08242678 L26.4133017,4.36108787 L25.3990499,4.36108787 L26.280285,2.08242678 L26.280285,2.08242678 Z M32.9881235,4.10627615 L32.9881235,2.87615063 C32.9881235,2.06778243 32.7648456,1.38828452 32.3325416,0.872803347 C31.9002375,0.357322176 31.3634204,0.0820083682 30.7078385,0.0820083682 L28.7244656,0.0820083682 L28.7244656,6.88284519 L30.7078385,6.88284519 C31.3634204,6.88284519 31.9002375,6.6251046 32.3325416,6.09205021 C32.7648456,5.59414226 32.9881235,4.93221757 32.9881235,4.10627615 L32.9881235,4.10627615 Z M31.4085511,1.73389121 C31.6033254,2.02677824 31.7054632,2.3958159 31.7054632,2.87322176 L31.7054632,4.10334728 C31.7054632,4.58075314 31.6009501,4.94979079 31.4085511,5.24267782 C31.2137767,5.53556485 30.9453682,5.68493724 30.6175772,5.68493724 L29.9904988,5.68493724 L29.9904988,1.31213389 L30.6175772,1.31213389 C30.95962,1.31213389 31.2280285,1.45857741 31.4085511,1.73389121 L31.4085511,1.73389121 Z M37.7862233,1.31213389 L37.7862233,0.09958159 L33.9406176,0.09958159 L33.9406176,6.90041841 L37.7719715,6.90041841 L37.7719715,5.68786611 L35.2232779,5.68786611 L35.2232779,3.99790795 L37.3847981,3.99790795 L37.3847981,2.78242678 L35.2232779,2.78242678 L35.2232779,1.31213389 L37.7862233,1.31213389 L37.7862233,1.31213389 Z M45.0308789,0.09958159 L43.7482185,0.09958159 L43.7482185,6.90041841 L45.0308789,6.90041841 L45.0308789,0.09958159 L45.0308789,0.09958159 Z M42.4061758,2.83807531 C42.5249406,2.58033473 42.6009501,2.30502092 42.6009501,1.97405858 C42.6009501,1.35020921 42.4061758,0.890376569 42.0190024,0.576987448 C41.631829,0.263598326 41.0950119,0.117154812 40.4085511,0.117154812 L38.5154394,0.117154812 L38.5154394,6.91799163 L40.6769596,6.91799163 C41.3467933,6.91799163 41.8693587,6.7539749 42.2422803,6.40251046 C42.6009501,6.0539749 42.7790974,5.55606695 42.7790974,4.89414226 C42.7790974,4.54560669 42.7054632,4.23221757 42.5415677,3.95690377 C42.391924,3.68158996 42.1543943,3.49707113 41.8266033,3.40627615 C42.0783848,3.27740586 42.2731591,3.09288703 42.4061758,2.83807531 L42.4061758,2.83807531 Z M41.0807601,1.51422594 C41.2304038,1.64309623 41.304038,1.86276151 41.304038,2.13807531 C41.304038,2.3958159 41.2304038,2.59790795 41.0807601,2.72677824 C40.9311164,2.85564854 40.7220903,2.92887029 40.4251781,2.92887029 L39.783848,2.92887029 L39.783848,1.31213389 L40.3942993,1.31213389 C40.7078385,1.31213389 40.9311164,1.38535565 41.0807601,1.51422594 L41.0807601,1.51422594 Z M39.7980998,3.97740586 L40.7529691,3.97740586 C41.0213777,3.97740586 41.216152,4.05062762 41.3349169,4.21757322 C41.4536817,4.36401674 41.4988124,4.58368201 41.4988124,4.87949791 C41.4988124,5.15481172 41.4394299,5.35690377 41.304038,5.50334728 C41.1710214,5.63221757 40.9619952,5.68786611 40.6769596,5.68786611 L39.7980998,5.68786611 L39.7980998,3.97740586 L39.7980998,3.97740586 Z M49.9786223,1.31213389 L49.9786223,0.09958159 L45.7909739,0.09958159 L45.7909739,1.31213389 L47.2375297,1.31213389 L47.2375297,6.90041841 L48.52019,6.90041841 L48.52019,1.31213389 L49.9786223,1.31213389 L49.9786223,1.31213389 Z" id="Shape" fill="#275897"></path>
                </g>
            </g>
        </g>
    </g>
</svg>