<?xml version="1.0" encoding="UTF-8"?><svg width="56" height="36" viewBox="0 0 56 36" xmlns="http://www.w3.org/2000/svg"><g fill="none" fill-rule="evenodd"><path d="M0 3.75A3.749 3.749 0 013.75 0h48.5A3.756 3.756 0 0156 3.75v28.5A3.749 3.749 0 0152.25 36H3.75A3.756 3.756 0 010 32.25V3.75z" fill="#000" fill-rule="nonzero"/><path d="M1.25 3.75v28.5c0 1.375 1.123 2.5 2.5 2.5h48.5c1.382 0 2.5-1.118 2.5-2.5V3.75c0-1.375-1.123-2.5-2.5-2.5H3.75a2.499 2.499 0 00-2.5 2.5z" fill="#FFF"/><path d="M49.926 12.677h-3.403 3.403l-1.3 6.298h-1.905l1.274-6.225h-1.967l.37-1.639h5.828l-.297 1.578h-2.005v-.012h.002zm.117-.172l-.119.17.119-.17zm-5.03-1.406l-1.61 7.876H41.5l-1.644-4.83h-.039l-.989 4.83h-1.905l1.62-7.864h1.893l1.645 4.83h.038l.99-4.83h1.904v-.012zm6.125 9.378l1.855 2.703-1.733 2.726h-1.855l1.733-2.726-1.855-2.703h1.855zm-3.08 0L49.9 23.18l-1.733 2.726h-1.854l1.732-2.726-1.857-2.703h1.87zm-14.946-7.25h-.038l-1.398 2.618h1.596l-.16-2.617zm.273 4.073H30.91l-.865 1.651h-2.094l4.615-7.864h2.03l1.013 7.864h-2.103l-.122-1.651zm-4.059-4.795h-1.978L26.01 18.96h-1.907l1.336-6.456h-1.955l.297-1.406h5.827l-.283 1.406zm-7.473.904l-.012.038h-1.855c.062-.319 0-.574-.172-.758-.172-.184-.433-.281-.755-.281-.234 0-.46.061-.67.196-.198.123-.322.281-.358.477-.062.293 0 .513.186.662.187.134.581.33 1.212.562.818.28 1.422.623 1.795 1.05.383.417.495.979.359 1.664-.148.685-.507 1.21-1.09 1.552-.581.354-1.286.527-2.127.527-.83 0-1.547-.196-2.116-.586-.58-.392-.779-1.002-.592-1.81l.012-.037h1.842c-.086.392-.012.673.235.82.234.146.533.219.903.219.234 0 .459-.061.67-.196.21-.123.334-.281.382-.465.062-.331.012-.574-.148-.721-.16-.146-.483-.33-.966-.539-.903-.304-1.57-.673-2.017-1.1-.433-.416-.581-.955-.46-1.59.137-.662.508-1.162 1.103-1.528.595-.367 1.3-.55 2.115-.55.865 0 1.534.219 2.029.646.507.416.67 1.004.495 1.748zm-6.829-2.31l-1.62 7.864h-1.895l-1.645-4.819h-.038l-.99 4.83H6.92l1.62-7.863h1.905l1.659 4.819h.038l.99-4.83h1.892zm-8.413 0l-1.62 7.864H3.096l1.632-7.864h1.883z" fill="#76AD1C" fill-rule="nonzero"/><path d="M44.778 22.117c0 .28-.074.526-.222.72-.148.208-.37.366-.655.5.335.086.569.246.717.466.148.22.222.49.222.82v.342c0 .147.024.305.062.49a.632.632 0 00.223.391v.074h-1.312c-.098-.074-.16-.22-.199-.404a2.836 2.836 0 01-.05-.55v-.331c0-.258-.062-.454-.198-.586-.137-.132-.347-.208-.62-.208h-.865v2.079h-1.285V20.49h2.227c.58.024 1.052.17 1.398.44.37.28.557.685.557 1.186zm-1.274.073c0-.22-.062-.392-.198-.527s-.335-.208-.593-.208h-.83v1.406h.842c.26 0 .459-.062.593-.159.124-.12.186-.293.186-.512zm-6.928.427h2.153v.966h-2.153v1.345h2.535v.978h-3.81v-5.429h3.825v.978H36.59v1.162h-.014zm-2.338-1.16h-2.586v1.307h2.201v.978h-2.201v2.175h-1.274v-5.426h3.86v.966zm-6.656 1.222c.63.184 1.102.415 1.41.673.308.27.47.635.47 1.113 0 .477-.186.855-.556 1.124-.383.27-.88.404-1.496.404-.62 0-1.164-.158-1.609-.465-.459-.32-.681-.759-.67-1.345v-.023h1.25c0 .319.087.538.25.673.172.135.432.196.779.196.26 0 .459-.05.592-.158a.498.498 0 00.199-.404c0-.196-.062-.343-.199-.454-.124-.11-.358-.22-.693-.33-.693-.22-1.211-.454-1.534-.697-.335-.258-.507-.612-.507-1.077 0-.454.199-.832.607-1.101.397-.281.904-.428 1.523-.428.607 0 1.102.159 1.496.466.382.319.569.708.557 1.197v.038h-1.238c0-.22-.074-.404-.223-.527-.148-.134-.358-.208-.619-.208-.248 0-.444.062-.607.159a.512.512 0 00-.222.415c0 .159.074.282.222.393.137.11.409.22.818.366zm-3.712 3.229h-1.274l-2.017-3.46h-.024v3.448h-1.286v-5.43h1.286l2.017 3.46.024-.012v-3.46h1.274v5.454zm-6.967-5.43l1.78 5.428h-1.285l-.309-1.063h-1.732l-.309 1.063h-1.286l1.77-5.429h1.371zm-.705 1.468l-.569 1.945h1.176l-.569-1.945h-.038zm-9.044-.489H5.72v4.463H4.434v-4.463H3v-.977h4.156v.977h-.002zm4.07.208c-.136-.134-.334-.208-.593-.208h-.829v1.406h.841c.26 0 .445-.061.593-.158.136-.123.199-.293.199-.513a.704.704 0 00-.21-.527zm1.25 1.174c-.148.208-.37.367-.655.501.335.085.57.246.73.466.147.22.222.488.222.82v.342c0 .146.023.304.062.489a.632.632 0 00.222.392v.073h-1.312c-.098-.073-.172-.22-.199-.404a2.836 2.836 0 01-.05-.55v-.331c0-.257-.074-.454-.198-.586-.136-.134-.347-.208-.62-.208h-.864v2.079h-1.3v-5.43h2.115c.63 0 1.137.146 1.522.439.37.293.557.685.557 1.197.005.27-.07.515-.232.711z" fill="#9A9996" fill-rule="nonzero"/><path d="M43.404 18.975h-1.905l-1.644-4.83h-.039l-.989 4.83h-1.905l1.62-7.864h1.893l1.645 4.83h.038l.99-4.83h1.904l-1.608 7.864zM33.384 17.3h-2.473l-.865 1.651h-2.094l4.615-7.864h2.03l1.013 7.864h-2.103l-.122-1.651zm-4.058-4.795h-1.978L26.01 18.96h-1.907l1.336-6.456h-1.955l.297-1.406h5.827l-.283 1.406zm-7.473.904l-.012.038h-1.855c.062-.319 0-.574-.172-.758-.172-.184-.433-.281-.755-.281-.234 0-.46.061-.67.196-.198.123-.322.281-.358.477-.062.293 0 .513.186.662.187.134.581.33 1.212.562.818.28 1.422.623 1.795 1.05.383.417.495.979.359 1.664-.148.685-.507 1.21-1.09 1.552-.581.354-1.286.527-2.127.527-.83 0-1.547-.196-2.116-.586-.58-.392-.779-1.002-.592-1.81l.012-.037h1.842c-.086.392-.012.673.235.82.234.146.533.219.903.219.234 0 .459-.061.67-.196.21-.123.334-.281.382-.465.062-.331.012-.574-.148-.721-.16-.146-.483-.33-.966-.539-.903-.304-1.57-.673-2.017-1.1-.433-.416-.581-.955-.46-1.59.137-.662.508-1.162 1.103-1.528.595-.367 1.3-.55 2.115-.55.865 0 1.534.219 2.029.646.507.416.67 1.004.495 1.748zm-6.829-2.31l-1.62 7.864h-1.895l-1.645-4.819h-.038l-.99 4.83H6.92l1.62-7.863h1.905l1.659 4.819h.038l.99-4.83h1.892zm-8.413 0l-1.62 7.864H3.096l1.632-7.864h1.883z"/></g></svg>