<?xml version="1.0" encoding="UTF-8"?><svg width="56" height="36" viewBox="0 0 56 36" xmlns="http://www.w3.org/2000/svg"><g fill="none" fill-rule="evenodd"><path d="M0 3.75A3.749 3.749 0 013.75 0h48.5A3.756 3.756 0 0156 3.75v28.5A3.749 3.749 0 0152.25 36H3.75A3.756 3.756 0 010 32.25V3.75z" fill="#000" fill-rule="nonzero"/><path d="M1.25 3.75v28.5c0 1.375 1.123 2.5 2.5 2.5h48.5c1.382 0 2.5-1.118 2.5-2.5V3.75c0-1.375-1.123-2.5-2.5-2.5H3.75a2.499 2.499 0 00-2.5 2.5z" fill="#FFF"/><g fill-rule="nonzero"><path d="M4.016 22.003v.676h1.496v-4.608l-1.496 3.932zm8.393-3.713c0-.11 0-.204-.014-.315a2.898 2.898 0 00-.755-1.7c-.508-.55-1.118-.818-1.843-.818h-.189c-.727 0-1.335.283-1.859.818-.508.55-.769 1.228-.769 2.015v4.407h1.35v-4.359c0-.394.13-.724.39-.992.262-.283.567-.41.916-.41h.103c.363 0 .669.142.915.41.261.283.392.614.392.992v4.359h1.349V18.29h.014zm3.847-1.353v-1.462h-1.293v-1.983h-1.35v6.435c0 .788.262 1.447.77 1.997.333.361.726.614 1.16.74.044.015.086.015.116.03.175.048.364.064.567.064h.305v-1.48h-.275c-.275 0-.522-.079-.741-.235a1.07 1.07 0 01-.189-.174 1.49 1.49 0 01-.391-.993v-2.924l1.32-.015zm6.794 2.28c.058-.235.086-.472.086-.707v-.22c0-.787-.26-1.447-.769-2.015-.508-.55-1.118-.818-1.843-.818h-.188c-.727 0-1.335.283-1.86.818a2.857 2.857 0 00-.769 1.998v.22c0 .063 0 .126.014.174v1.654c.028.598.217 1.116.553 1.573.058.078.116.157.188.235.217.235.45.409.697.55.35.19.741.283 1.146.283h.19c.42 0 .812-.093 1.16-.283.246-.141.48-.315.696-.55.145-.157.275-.316.378-.488l-1.03-1.116a1.387 1.387 0 01-.32.55 1.209 1.209 0 01-.93.424l-.102.001c-.29 0-.538-.093-.769-.268a1.547 1.547 0 01-.16-.156 1.417 1.417 0 01-.392-.993v-.11c0-.112.014-.22.044-.332h3.82c.088-.123.13-.265.16-.424zm-1.28-.77v.063h-2.714v-.174c0-.394.131-.725.392-.993.044-.048.102-.093.144-.141.233-.19.48-.283.77-.283h.102c.291 0 .552.094.769.283.044.048.102.093.144.141.261.283.392.614.392.993v.111h.002zm6.215-1.604v-1.462h-.71c-.728 0-1.336.283-1.86.818-.508.551-.769 1.228-.769 2.016v4.484h1.35v-4.441c0-.394.13-.725.377-.993.26-.283.566-.409.93-.409h.682v-.013zm6.07-.11a2.67 2.67 0 00-.378-.52c-.508-.551-1.118-.82-1.843-.82h-.202c-.727 0-1.336.284-1.86.82-.086.093-.16.189-.233.282a2.935 2.935 0 00-.538 1.715v1.952c0 .174.014.346.044.52.086.565.333 1.053.71 1.48.509.55 1.133.833 1.86.833h.203c.727 0 1.335-.283 1.843-.833.189-.205.333-.41.45-.63l-1.06-1.148c-.045.283-.175.52-.364.74-.26.267-.566.409-.93.409h-.102c-.364 0-.669-.142-.93-.41-.26-.282-.377-.613-.377-1.007v-.126l.014-1.462c0-.048-.014-.094-.014-.142v-.11c0-.049 0-.094.014-.142a1.4 1.4 0 01.377-.849c.261-.282.566-.409.93-.409h.102c.364 0 .669.142.93.41h.014c.189.204.305.439.35.706l.99-1.26zm6.344 1.48c0-.112 0-.205-.014-.317a2.898 2.898 0 00-.755-1.699c-.508-.55-1.118-.818-1.843-.818h-.202c-.727 0-1.335.283-1.86.818a2.07 2.07 0 00-.275.361l1.002 1.07a1.28 1.28 0 01.247-.378c.261-.283.566-.41.93-.41h.102c.364 0 .67.142.93.41.261.283.378.614.378.992v.127c0 .063 0 .126-.014.19-.334-.269-.944-.38-1.83-.317-1.335.142-2.047.897-2.103 2.25.044 1.51.857 2.298 2.44 2.362 1.118-.016 2.075-.283 2.874-.756v-3.886H40.4zm-3.98 2.295c.029-.677.392-1.053 1.06-1.134.653-.015 1.177.126 1.569.44l.014 1.494c-.392.235-.858.361-1.407.379-.8-.03-1.205-.424-1.235-1.18zm9.815-4.074c-.059-.078-.117-.156-.19-.235-.507-.55-1.117-.818-1.842-.818h-.189c-.233 0-.463.03-.683.094-1.06.409-1.582 1.197-1.596 2.36-.014 1.165.711 1.842 2.193 2.061h.116c.275 0 .522.079.727.22.203.157.306.331.306.55 0 .22-.103.41-.306.551-.202.157-.45.235-.727.235-.29 0-.538-.078-.74-.235-.059-.048-.117-.093-.161-.141l-.028-.03-.566-.834-.972.993c.13.346.32.661.58.944.508.55 1.133.833 1.86.833h.188c.072 0 .161 0 .233-.015 1.263-.156 1.932-.93 1.974-2.298.058-1.338-.653-2.093-2.12-2.25-.087.015-.175.015-.275.015-.292 0-.539-.078-.741-.235a.64.64 0 01-.292-.55c0-.22.103-.394.292-.55.202-.157.45-.235.74-.235.275 0 .522.078.727.234.19.142.292.316.306.52l1.186-1.184zm6.752 2.296c0-.015 0-.03.014-.048v-.394c0-.788-.261-1.447-.769-2.015-.508-.55-1.118-.818-1.843-.818h-.203c-.463 0-.885.11-1.263.346v-2.78h-1.35v9.754h1.364v-4.171c0-.048-.014-.112-.014-.157v-.141c0-.048 0-.094.014-.127v-.048c.045-.298.161-.565.378-.788.26-.282.566-.409.916-.409h.102c.364 0 .669.142.93.41.26.267.377.613.377.992v4.437h1.35V18.73h-.003z" fill="#14417C"/><path d="M5.512 16.497v-.77H4.016v4.705l1.496-3.935zm-1.496-3.194v1.588h1.496v-1.588H4.016z" fill="#D44F51"/></g></g></svg>