<svg xmlns="http://www.w3.org/2000/svg" viewBox="0 0 56 36" height="36" width="56"><defs><path id="a" d="M0 0h16.429v16.429H0z"/></defs><path d="M0 3.75A3.749 3.749 0 013.75 0h48.5A3.756 3.756 0 0156 3.75v28.5A3.749 3.749 0 0152.25 36H3.75A3.756 3.756 0 010 32.25z"/><path d="M1.25 3.75v28.5c0 1.375 1.123 2.5 2.5 2.5h48.5c1.382 0 2.5-1.118 2.5-2.5V3.75c0-1.375-1.123-2.5-2.5-2.5H3.75a2.499 2.499 0 00-2.5 2.5z" fill="#fff" fill-rule="evenodd"/><path opacity=".8" fill="#484848" d="M23.628 23.525h-.864l-.194.538h-.28l.787-2.062h.238l.789 2.062h-.28zm-.782-.224h.701l-.351-.964zm1.838.54h.977v.222h-1.25v-2.062h.273zm1.59 0h.977v.222H26v-2.062h.273zm3.581-.432c-.025.218-.106.386-.242.505-.135.118-.315.178-.54.178a.729.729 0 01-.586-.263c-.146-.174-.22-.408-.22-.7v-.199c0-.192.035-.36.103-.505a.766.766 0 01.727-.452c.22 0 .395.061.527.184.133.122.21.29.231.507h-.273c-.024-.164-.075-.283-.154-.357a.464.464 0 00-.33-.11.488.488 0 00-.41.192c-.098.129-.147.311-.147.548v.2c0 .224.047.402.14.534a.453.453 0 00.392.198c.151 0 .267-.034.347-.102.082-.069.135-.188.162-.358zm1.54.116h-.864l-.194.538h-.28l.788-2.062h.237l.79 2.062h-.28zm-.781-.224h.7l-.35-.964zm3.149.762h-.274l-1.038-1.589v1.59h-.273V22h.273l1.041 1.596v-1.596h.27zm1.676-.538h-.864l-.194.538h-.28l.787-2.062h.238l.789 2.062h-.28zm-.782-.224h.701l-.35-.964zm1.565.762v-2.062h.582c.179 0 .338.04.476.119a.8.8 0 01.318.339c.076.146.114.314.115.504v.131a1.1 1.1 0 01-.113.512.787.787 0 01-.322.337.992.992 0 01-.486.12zm.272-1.838v1.616h.286c.21 0 .372-.065.488-.196.117-.13.176-.316.176-.556v-.12c0-.235-.055-.417-.166-.546-.11-.13-.265-.196-.467-.198zm1.952 1.838h-.272v-2.062h.272zm1.692-.538h-.864l-.194.538h-.28l.787-2.062h.238l.789 2.062h-.28zm-.782-.224h.7l-.35-.964zm3.15.762h-.274l-1.038-1.589v1.59h-.274V22h.274l1.04 1.596v-1.596h.271zm1.26 0v-2.062h.674c.223 0 .391.046.504.139.113.092.17.23.17.41a.422.422 0 01-.082.257.536.536 0 01-.224.171c.111.031.2.09.263.179.066.087.098.19.098.311 0 .185-.06.33-.18.437-.12.105-.29.158-.508.158zm.271-.964v.742h.45a.431.431 0 00.298-.098.347.347 0 00.11-.272c0-.248-.134-.372-.404-.372zm0-.219h.411c.12 0 .214-.03.285-.089a.298.298 0 00.107-.242c0-.113-.033-.195-.099-.246-.066-.052-.166-.078-.301-.078h-.403zm2.703.645h-.863l-.195.538h-.28l.787-2.062h.238l.79 2.062h-.28zm-.781-.224h.7l-.35-.964zm3.149.762h-.273l-1.039-1.589v1.59h-.273V22h.273l1.041 1.596v-1.596h.27zm1.036-.959l-.252.262v.697h-.272v-2.062h.272v1.02l.916-1.02h.329l-.812.91.876 1.152h-.326z"/><path fill="#6c6c6c" d="M52.137 24.048c.215 0 .403-.048.565-.143.162-.096.243-.255.243-.478a.476.476 0 00-.192-.409.863.863 0 00-.315-.127l-.282-.065a1.807 1.807 0 01-.365-.109.23.23 0 01-.123-.216c0-.09.035-.168.105-.235.07-.068.186-.102.347-.102.198 0 .34.053.422.158.045.057.074.14.088.247h.256c0-.223-.074-.386-.221-.488a.922.922 0 00-.537-.152c-.23 0-.406.058-.531.174a.58.58 0 00-.188.444.42.42 0 00.192.377c.074.048.2.092.378.132l.272.062c.148.034.256.073.326.119.068.046.102.124.102.234 0 .146-.081.247-.243.304a.845.845 0 01-.28.043c-.228 0-.387-.066-.477-.2a.55.55 0 01-.08-.277h-.257a.646.646 0 00.208.516c.142.127.337.191.587.191z"/><path d="M22.29 12.411v7.832h1.816v-7.832H22.29zm2.64 7.832h1.702v-3.007a.656.656 0 01.648-.596c.365 0 .647.282.647.648v2.955h1.702v-2.976c0-1.493-.856-2.329-2.35-2.329-.323 0-.647.053-.939.21v-.116h-1.41v5.211zm5.35-1.357c.041.219.177.563.281.72.25.366.7.72 1.483.72.877 0 1.587-.72 1.587-1.618 0-1.002-.658-1.41-1.159-1.692l-.042-.02c-.073-.021-.532-.261-.532-.408 0-.083.02-.188.188-.188.146 0 .23.147.261.188l1.295-.449c-.084-.626-.794-1.2-1.577-1.2-1.002 0-1.64.647-1.64 1.65 0 1.023.742 1.388 1.139 1.628l.052.032c.167.094.553.24.553.396 0 .136-.083.199-.23.199-.208 0-.396-.209-.49-.376zm4.746-3.864h-1.15v1.566h1.15v3.655h1.702v-3.655h1.127v-1.566h-1.127v-1.4h-1.702zm4.534 2.61c0-.584.438-1.012.992-1.012.585 0 1.002.428 1.002 1.012 0 .585-.417 1.013-1.002 1.013-.554 0-.992-.428-.992-1.013zm-1.692 0c0 1.473 1.222 2.695 2.684 2.695.449 0 .877-.084 1.242-.282v.198h1.462V14.97h-1.462v.26a2.686 2.686 0 00-1.242-.292c-1.462 0-2.684 1.222-2.684 2.694zm6.213 2.611h1.703v-3.007a.656.656 0 01.647-.596c.365 0 .647.282.647.648v2.955h1.702v-2.976c0-1.493-.856-2.329-2.35-2.329-.323 0-.646.053-.939.21v-.116h-1.41v5.211zm5.986-5.221h-1.149v1.566h1.149v3.655h1.702v-3.655h1.128v-1.566h-1.128v-1.4h-1.702z" fill="#303030"/><path fill="#fdb913" d="M4.602 10.28h13.224c.73 0 1.323.592 1.323 1.322v13.225c0 .73-.592 1.322-1.323 1.322H4.602c-.73 0-1.322-.592-1.322-1.322V11.602a1.322 1.322 0 011.322-1.322z"/><path fill="#fff" d="M17.827 10.28c.73 0 1.322.592 1.322 1.322v13.225c0 .73-.592 1.322-1.322 1.322H4.602a1.322 1.322 0 01-1.322-1.322V11.602a1.323 1.323 0 011.322-1.322h13.225m0-.28H4.602A1.604 1.604 0 003 11.602v13.225a1.604 1.604 0 001.602 1.602h13.225a1.604 1.604 0 001.602-1.602V11.602c-.001-.884-.718-1.601-1.602-1.602"/><path fill="#231f20" d="M12.14 18.386v-2.841l.74-.176v.372s.193-.49.639-.603a.427.427 0 01.206-.014v.725c-.134.001-.266.029-.389.08-.274.109-.412.345-.412.705v1.57zM8.23 19.31s-.12-.181-.12-.82v-1.415l-.381.09v-.582l.382-.09v-.636l.789-.186v.635l.557-.132v.582l-.557.132v1.44c0 .656.173.782.173.782zM9.54 17.62c0-.506.071-.874.226-1.157.183-.336.485-.554.924-.654.865-.197 1.177.315 1.165 1.002-.005.245-.004.365-.004.365l-1.524.358v.025c0 .48.1.707.405.643.262-.056.336-.22.356-.424.004-.032.005-.116.005-.116l.714-.17s.002.058 0 .123c-.005.273-.085.95-1.077 1.184-.94.223-1.19-.351-1.19-1.18m1.181-1.281c-.252.057-.385.305-.39.716l.766-.183c.002-.019.002-.06.002-.124-.002-.31-.098-.473-.378-.409M16.394 15.958c-.03-.865.195-1.552 1.16-1.77.616-.14.85.02.968.174.113.148.157.347.157.626l.001.05-.755.18v-.105c0-.33-.092-.456-.332-.396-.286.072-.401.343-.401.882v.251c0 .548.075.799.405.73.285-.059.324-.31.329-.53l.002-.145.754-.178v.118c-.001.718-.38 1.17-1.09 1.336-.976.23-1.168-.336-1.198-1.223M13.783 17.17c0-.659.386-.867.966-1.107.522-.216.533-.323.535-.51.003-.159-.07-.294-.33-.227a.392.392 0 00-.314.371 1.34 1.34 0 00-.005.146l-.732.173a1.456 1.456 0 01.05-.432c.118-.394.465-.659 1.064-.797.778-.18 1.038.162 1.039.693v1.259c0 .608.113.697.113.697l-.719.17a1.561 1.561 0 01-.096-.258s-.157.397-.7.524c-.57.134-.871-.219-.871-.703m1.496-.898c-.12.085-.249.16-.382.223-.24.117-.348.262-.348.484 0 .193.12.319.336.265.233-.058.394-.275.394-.577zM4.108 21.301a.456.456 0 01-.383-.704l.006-.006.008-.002 1.073-.254v.815l-.017.004c-.243.058-.534.125-.594.138a.445.445 0 01-.093.01M4.108 22.344a.455.455 0 01-.383-.703l.006-.008.008-.002 1.073-.253v.815l-.017.004c-.243.058-.534.126-.594.138a.481.481 0 01-.093.009M4.108 23.388a.456.456 0 01-.383-.703l.006-.008 1.08-.255v.814l-.016.005a41.97 41.97 0 01-.594.137.466.466 0 01-.093.01M3.981 20.303v-4.558l.83-.196v4.558zM6.05 19.916a.513.513 0 00-1.025 0l.001 4.26a1.39 1.39 0 001.388 1.388l1.45-.002.001-1.777v-1.982a.671.671 0 00-.297-.559l-1.294-.878v1.995a.11.11 0 11-.22 0l-.003-2.445M6.743 16.737a1.121 1.121 0 00-.74.572v-.32l-.748.177.001 2.045a.765.765 0 01.788.138v-1.32c0-.317.157-.57.382-.62.17-.037.31.024.31.325l.001 1.927.789-.184v-2.039c0-.494-.19-.84-.783-.7M18.207 13.846a.5.5 0 11-.001-1 .5.5 0 010 1m0-.937a.437.437 0 100 .874.437.437 0 000-.874"/><path fill="#231f20" d="M17.978 13.078h.275a.244.244 0 01.148.034c.038.025.057.06.05.096 0 .066-.044.116-.13.125.078.006.119.034.123.105l.004.103c0 .018.014.034.037.044h-.14a.066.066 0 01-.022-.045c-.004-.03-.003-.059-.005-.096-.002-.055-.028-.08-.114-.08h-.102v.22h-.125zm.224.226a.155.155 0 00.092-.022c.024-.016.036-.038.033-.06 0-.055-.036-.083-.119-.083h-.106v.165z"/></svg>