<?xml version="1.0" encoding="UTF-8"?><svg width="56" height="36" viewBox="0 0 56 36" xmlns="http://www.w3.org/2000/svg"><g fill="none" fill-rule="evenodd"><path d="M0 3.75A3.749 3.749 0 013.75 0h48.5A3.756 3.756 0 0156 3.75v28.5A3.749 3.749 0 0152.25 36H3.75A3.756 3.756 0 010 32.25V3.75z" fill="#000" fill-rule="nonzero"/><path d="M1.25 3.75v28.5c0 1.375 1.123 2.5 2.5 2.5h48.5c1.382 0 2.5-1.118 2.5-2.5V3.75c0-1.375-1.123-2.5-2.5-2.5H3.75a2.499 2.499 0 00-2.5 2.5z" fill="#FFF"/><g><g fill-rule="nonzero"><path d="M27.935 27.74c0 1.021-.841 1.851-1.877 1.851H7.3c-1.035 0-1.877-.83-1.877-1.851V9.245c0-1.021.842-1.851 1.877-1.851h18.76c1.035 0 1.876.83 1.876 1.851V27.74z" fill="#FDB913"/><path d="M49.7 7H26.059 7.3C6.048 7 5.023 8.01 5.023 9.245V27.75c0 1.235 1.014 2.246 2.276 2.246h42.402c1.251 0 2.276-1 2.276-2.246V9.245A2.275 2.275 0 0049.701 7zM7.3 29.591c-1.036 0-1.878-.83-1.878-1.851V9.245c0-1.021.842-1.851 1.877-1.851h18.76c1.035 0 1.876.83 1.876 1.851V27.75c0 1.022-.841 1.852-1.877 1.852L7.3 29.592zm44.278-1.851c0 1.021-.842 1.851-1.877 1.851H27.34a2.25 2.25 0 00.993-1.851V9.245c0-.766-.388-1.447-.992-1.851H49.7c1.035 0 1.877.83 1.877 1.851V27.74z" fill="#FFF"/></g><path d="M28.334 9.245V27.75c0 .767-.388 1.448-.992 1.852H49.7c1.035 0 1.877-.83 1.877-1.852V9.245c0-1.021-.842-1.851-1.877-1.851H27.34a2.25 2.25 0 01.993 1.851z" fill="#555" fill-rule="nonzero"/><path d="M32.873 21.555c-.626 0-1.074-.166-1.342-.497-.268-.33-.403-.815-.403-1.452v-2.237c0-.632.135-1.11.403-1.434.268-.324.716-.485 1.342-.485.621 0 1.066.161 1.335.485.268.324.402.802.402 1.434v2.237c0 .632-.135 1.115-.406 1.449-.27.333-.715.5-1.331.5zm0-.802c.244 0 .408-.076.492-.228.085-.152.127-.373.127-.662v-2.744c0-.289-.041-.507-.123-.654-.082-.147-.247-.221-.496-.221-.248 0-.415.075-.5.224-.084.15-.126.367-.126.651v2.744c0 .29.042.51.126.662.085.152.252.228.5.228zm2.483-3.53h1.014v.419c.343-.324.691-.486 1.044-.486.243 0 .426.088.548.265.122.176.183.4.183.67v3.383H37.13v-3.185c0-.137-.022-.238-.064-.302-.042-.063-.118-.095-.227-.095-.13.005-.286.073-.47.206v3.376h-1.014v-4.252zm3.601-1.707h1.007v5.958h-1.007v-5.958zm1.842.198h1.014v.832H40.8v-.832zm0 1.508h1.014v4.252H40.8v-4.252zm1.82 0h1.013v.42c.343-.324.691-.486 1.044-.486.244 0 .426.088.548.265.122.176.183.4.183.67v3.383h-1.014v-3.185c0-.137-.021-.238-.063-.302-.043-.063-.119-.095-.228-.095-.13.005-.286.073-.47.206v3.376h-1.014v-4.252zm4.838 4.318c-.477 0-.827-.131-1.05-.393-.225-.263-.336-.651-.336-1.166v-1.265c0-.52.113-.91.339-1.17.226-.26.575-.39 1.047-.39.488 0 .832.135 1.033.405.201.27.302.676.302 1.22v.611h-1.715v.662c0 .265.024.459.071.581.047.123.15.184.31.184.134 0 .23-.045.286-.136.058-.09.086-.23.086-.415v-.36h.955v.293c0 .437-.112.769-.336.997-.224.228-.554.342-.992.342zm.373-2.64v-.405c0-.22-.027-.379-.082-.475-.054-.095-.151-.143-.29-.143-.145 0-.244.051-.299.154-.055.103-.082.295-.082.574v.294h.753z" fill="#FFF"/><g fill="#1C1601" fill-rule="nonzero"><path d="M17.977 18.735v-3.98l1.057-.245v.522s.27-.681.906-.84c.194-.054.292-.022.292-.022v1.01s-.238-.01-.55.118c-.389.149-.583.479-.583.99v2.192l-1.122.255zM12.432 20.023s-.172-.256-.172-1.15v-1.979l-.54.128v-.82l.54-.127v-.883l1.122-.267v.894l.787-.18v.819l-.787.18v2.012c0 .915.248 1.096.248 1.096l-1.198.277zM14.288 17.66c0-.702.097-1.223.323-1.617.26-.468.69-.777 1.306-.915 1.23-.277 1.672.436 1.65 1.404-.01.34 0 .511 0 .511l-2.157.5v.032c0 .67.14.99.571.905.378-.075.475-.309.507-.596 0-.043.011-.16.011-.16l1.014-.234v.17c-.01.383-.119 1.33-1.532 1.66-1.337.298-1.693-.5-1.693-1.66zm1.683-1.798c-.356.085-.55.426-.55 1l1.089-.255v-.17c-.01-.437-.14-.66-.54-.575zM24.007 15.33c-.043-1.213.28-2.171 1.65-2.48.874-.191 1.209.032 1.37.245.162.202.227.49.227.873v.074l-1.068.256v-.15c0-.457-.13-.638-.475-.553-.41.096-.571.48-.571 1.235v.35c0 .767.108 1.118.571 1.022.41-.085.464-.436.464-.744v-.203l1.068-.244v.16c0 1-.54 1.638-1.542 1.872-1.37.32-1.65-.468-1.694-1.713zM26.433 12.345a.839.839 0 01-.776-.51.819.819 0 01.182-.902c.24-.236.6-.307.914-.179.313.128.517.43.517.764a.833.833 0 01-.837.827m0-1.55a.728.728 0 00-.734.723c0 .4.328.723.733.724a.728.728 0 00.733-.724c0-.399-.328-.722-.732-.723"/><path d="M26.127 11.074h.327a.215.215 0 01.175.061.21.21 0 01.06.173c0 .119-.053.21-.154.225v.002c.092.01.14.06.145.188.001.058.002.13.005.185 0 .032.017.062.044.08h-.167a.15.15 0 01-.025-.082c-.005-.054-.004-.106-.006-.172-.003-.1-.034-.143-.135-.143h-.121v.396h-.148v-.913zm.266.407c.04.003.081-.011.11-.04a.133.133 0 00.038-.109c0-.097-.043-.148-.14-.148h-.126v.297h.118zM20.307 17.032c0-.925.55-1.213 1.37-1.543.744-.297.755-.446.755-.712 0-.224-.097-.416-.464-.32a.545.545 0 00-.442.522c-.01.106-.01.202-.01.202l-1.036.245s-.011-.32.075-.607c.162-.553.658-.926 1.51-1.117 1.1-.256 1.467.223 1.478.968v1.756c0 .851.162.979.162.979l-1.014.234s-.097-.192-.14-.362c0 0-.227.554-.993.734-.82.192-1.251-.308-1.251-.979zm2.125-1.266s-.216.15-.54.309c-.334.16-.495.362-.495.68 0 .267.172.448.474.373.335-.085.561-.383.561-.809v-.553zM6.586 22.81a.645.645 0 01-.648-.638c0-.128.033-.245.108-.351l.011-.01h.01l1.522-.352v1.139l-.022.01c-.345.086-.755.17-.841.192-.054 0-.097.01-.14.01zM6.586 24.268a.645.645 0 01-.648-.638c0-.128.033-.245.108-.351l.011-.01h.01l1.522-.352v1.139l-.022.01c-.345.085-.755.181-.841.192-.054 0-.097.01-.14.01zM6.586 25.726a.645.645 0 01-.648-.638c0-.128.033-.245.108-.351l.011-.01 1.532-.352v1.139l-.022.01c-.366.085-.766.181-.841.192-.054.01-.097.01-.14.01zM6.413 21.417v-6.374l1.176-.277v6.374zM9.347 20.874a.718.718 0 00-.723-.713c-.399 0-.722.32-.722.713v5.959c0 1.075.884 1.937 1.963 1.937h2.06v-2.49-2.778a.927.927 0 00-.42-.776L9.67 21.502v2.788c0 .085-.076.16-.162.16-.086 0-.151-.064-.151-.16-.01-.032-.01-3.054-.01-3.416zM10.329 16.426c-.766.17-1.047.798-1.047.798v-.447l-1.057.245v2.862c.119-.042.26-.074.4-.074.27 0 .528.096.711.266v-1.852c0-.447.227-.798.54-.862.237-.053.442.032.442.458v2.692l1.122-.255v-2.852c0-.692-.28-1.17-1.111-.98z"/></g></g></g></svg>