<?xml version="1.0" encoding="UTF-8"?><svg width="56" height="36" viewBox="0 0 56 36" xmlns="http://www.w3.org/2000/svg"><g fill="none" fill-rule="evenodd"><path d="M0 3.75A3.749 3.749 0 013.75 0h48.5A3.756 3.756 0 0156 3.75v28.5A3.749 3.749 0 0152.25 36H3.75A3.756 3.756 0 010 32.25V3.75z" fill="#000" fill-rule="nonzero"/><path d="M1.25 3.75v28.5c0 1.375 1.123 2.5 2.5 2.5h48.5c1.382 0 2.5-1.118 2.5-2.5V3.75c0-1.375-1.123-2.5-2.5-2.5H3.75a2.499 2.499 0 00-2.5 2.5z" fill="#FFF"/><g fill-rule="nonzero"><path d="M23.758 25.963a1.61 1.61 0 01-1.615 1.604H6.005a1.61 1.61 0 01-1.615-1.604V9.945A1.61 1.61 0 016.005 8.34h16.138c.89 0 1.615.719 1.615 1.604v16.018z" fill="#F0B51C"/><path d="M50.995 8H6.005a1.958 1.958 0 00-1.959 1.945v16.027c0 1.07.873 1.945 1.959 1.945h44.99a1.952 1.952 0 001.959-1.945V9.945A1.964 1.964 0 0050.995 8zM6.005 27.567a1.61 1.61 0 01-1.615-1.604V9.945A1.61 1.61 0 016.005 8.34h16.138c.89 0 1.615.719 1.615 1.604v16.027a1.61 1.61 0 01-1.615 1.604l-16.138-.01zm46.605-1.604a1.61 1.61 0 01-1.615 1.604H23.247c.51-.35.854-.94.854-1.604V9.945c0-.664-.334-1.254-.854-1.604h27.748c.891 0 1.615.719 1.615 1.604v16.018z" fill="#FFF"/><path d="M24.101 9.945v16.027c0 .664-.334 1.254-.854 1.604h27.748a1.61 1.61 0 001.615-1.604V9.945a1.61 1.61 0 00-1.615-1.604H23.247c.51.35.854.94.854 1.604z" fill="#555"/><g fill="#1C1601"><path d="M15.201 18.166v-3.447l.91-.212v.452s.232-.59.78-.729c.166-.046.25-.018.25-.018v.876s-.204-.01-.473.1c-.334.13-.502.416-.502.858v1.899l-.965.22zM10.431 19.281s-.148-.221-.148-.995V16.57l-.464.111v-.71l.464-.11v-.765l.965-.23v.774l.677-.157v.71l-.677.156v1.742c0 .793.213.95.213.95l-1.03.24zM12.027 17.235c0-.608.084-1.06.279-1.4.223-.406.594-.674 1.123-.794 1.058-.24 1.438.378 1.42 1.217-.01.295 0 .442 0 .442l-1.856.434v.027c0 .58.12.857.491.784.325-.065.409-.268.437-.516 0-.037.009-.139.009-.139l.872-.202v.147c-.009.332-.102 1.152-1.318 1.438-1.15.258-1.457-.433-1.457-1.438zm1.448-1.558c-.306.074-.473.37-.473.867l.937-.221v-.148c-.01-.378-.12-.571-.464-.498zM20.389 15.217c-.037-1.051.241-1.88 1.42-2.148.752-.166 1.04.028 1.178.212.14.175.195.424.195.756v.064l-.918.222v-.13c0-.396-.112-.552-.409-.479-.352.083-.492.415-.492 1.07v.304c0 .663.093.967.492.884.353-.073.4-.378.4-.645v-.175l.918-.212v.138c0 .867-.464 1.42-1.327 1.622-1.179.277-1.42-.405-1.457-1.483zM17.206 16.691c0-.802.473-1.05 1.178-1.336.64-.258.65-.387.65-.618 0-.193-.083-.36-.399-.276a.472.472 0 00-.38.451c-.01.093-.01.176-.01.176l-.89.212s-.01-.277.064-.526c.14-.48.566-.802 1.3-.968.946-.22 1.262.194 1.271.84v1.52c0 .737.14.848.14.848l-.873.203s-.084-.166-.12-.314c0 0-.196.48-.855.636-.705.166-1.076-.267-1.076-.848zm1.828-1.097s-.186.13-.464.268c-.288.138-.427.313-.427.59 0 .23.149.387.409.322.287-.074.482-.332.482-.7v-.48zM5.401 21.696a.557.557 0 01-.556-.553c0-.11.027-.212.092-.304l.01-.01h.009l1.308-.304v.987l-.018.009c-.297.073-.65.147-.724.166-.046 0-.084.009-.12.009zM5.401 22.959a.557.557 0 01-.556-.553c0-.111.027-.212.092-.305l.01-.009h.009l1.308-.304v.986l-.018.01c-.297.073-.65.156-.724.165-.046 0-.084.01-.12.01zM5.401 24.221a.557.557 0 01-.556-.553c0-.11.027-.212.092-.304l.01-.01 1.317-.303v.986l-.018.01c-.316.073-.66.156-.724.165-.046.01-.084.01-.12.01zM5.253 20.488v-5.52l1.011-.24v5.52zM7.777 20.018a.62.62 0 00-.622-.617.62.62 0 00-.621.617v5.162c0 .93.76 1.677 1.689 1.677h1.772V24.7v-2.405a.804.804 0 00-.362-.673l-1.578-1.06v2.415a.142.142 0 01-.139.138c-.074 0-.13-.055-.13-.138-.009-.028-.009-2.645-.009-2.959zM8.622 16.166c-.66.147-.9.691-.9.691v-.387l-.91.212v2.48c.102-.038.223-.065.343-.065a.9.9 0 01.613.23v-1.603c0-.388.195-.692.464-.747.204-.046.38.028.38.396v2.332l.965-.221v-2.47c0-.6-.24-1.014-.955-.848z"/><g><path d="M22.588 12.627a.596.596 0 01-.593-.59c0-.323.269-.59.593-.59.325 0 .594.267.594.59a.59.59 0 01-.594.59zm0-1.106a.517.517 0 100 1.032.517.517 0 100-1.032z"/><path d="M22.375 11.687h.549c.216 0 .392.064.392.256 0 .128-.078.23-.255.244.157.012.236.064.236.205v.205c0 .051.039.077.078.09H23.1c-.02-.013-.039-.052-.039-.09 0-.064 0-.115-.02-.192 0-.116-.058-.154-.215-.154h-.196v.436h-.255v-1zm.431.448c.157 0 .236-.064.236-.166 0-.103-.079-.167-.236-.167h-.215v.32h.215v.013z"/></g></g><g fill="#FFF"><path d="M26.421 17.88v.258c0 .387.102.765.418.765.278 0 .399-.212.445-.617h.761c-.028.765-.399 1.189-1.197 1.189-1.225 0-1.28-.94-1.28-1.76 0-.876.176-1.697 1.317-1.697.993 0 1.216.664 1.216 1.669v.193h-1.68zm.873-.498c-.019-.497-.084-.783-.427-.783-.334 0-.437.35-.437.654v.13h.864zM30.514 17.272v.719h-1.736v-.72zM33.567 15.041v.72h-.956v3.64h-.881v-3.64h-.956v-.72zM33.558 16.11h.807v.443h.01c.176-.313.408-.525.76-.525.047 0 .102.009.158.009v.802c-.083-.01-.176-.01-.26-.01-.297 0-.63.157-.63.59v1.973h-.845V16.11zM35.664 17.124v-.083c0-.755.52-1.013 1.16-1.013 1.012 0 1.198.414 1.198 1.004v1.724c0 .304.018.442.102.636h-.808a1.113 1.113 0 01-.102-.341h-.01c-.194.34-.435.424-.844.424-.594 0-.798-.498-.798-.94 0-.618.25-.867.836-1.023l.482-.13c.25-.064.334-.165.334-.387 0-.248-.111-.405-.39-.405-.26 0-.39.175-.39.424v.092l-.77.018zm1.55.627c-.12.083-.26.138-.362.166-.343.074-.482.24-.482.535 0 .248.093.46.315.46.232 0 .52-.147.52-.506v-.655h.01zM38.653 16.11h.807v.388h.01c.176-.323.482-.47.844-.47.529 0 .844.285.844.93v2.434h-.844v-2.268c0-.331-.112-.46-.362-.46-.288 0-.446.175-.446.543v2.185h-.844l-.01-3.281zM42.439 18.323v.11c0 .286.158.48.445.48.26 0 .427-.13.427-.388 0-.212-.139-.313-.306-.368l-.594-.212c-.464-.166-.705-.452-.705-.913 0-.544.343-.986 1.216-.986.77 0 1.132.341 1.132.931v.138h-.761c0-.332-.102-.497-.371-.497-.214 0-.4.12-.4.35 0 .156.084.295.372.387l.51.175c.538.175.733.442.733.94 0 .691-.52 1.032-1.225 1.032-.956 0-1.215-.414-1.215-1.041v-.138h.742zM44.824 16.682h-.427v-.571h.427v-.37c0-.589.334-.782.882-.782.157 0 .297.009.454.018v.599c-.055-.01-.11-.01-.167-.01-.24 0-.324.075-.324.259v.286h.491v.571h-.491v2.71h-.845v-2.71zM47.283 17.88v.258c0 .387.102.765.418.765.278 0 .399-.212.445-.617h.761c-.027.765-.399 1.189-1.197 1.189-1.234 0-1.28-.94-1.28-1.76 0-.876.176-1.697 1.317-1.697.993 0 1.216.664 1.216 1.669v.193h-1.68zm.863-.498c-.018-.497-.083-.783-.426-.783-.335 0-.437.35-.437.654v.13h.863zM49.492 16.11h.807v.443h.01c.176-.313.408-.525.76-.525.047 0 .103.009.158.009v.802c-.083-.01-.176-.01-.269-.01-.297 0-.63.157-.63.59v1.973h-.845l.009-3.281z"/></g></g></g></svg>