<svg width="56" height="36" viewBox="0 0 56 36" xmlns="http://www.w3.org/2000/svg" xmlns:xlink="http://www.w3.org/1999/xlink"><defs><path id="a" d="M0 0h27.883v27.884H0z"/></defs><g fill="none" fill-rule="evenodd"><path d="M0 3.75A3.749 3.749 0 013.75 0h48.5A3.756 3.756 0 0156 3.75v28.5A3.749 3.749 0 0152.25 36H3.75A3.756 3.756 0 010 32.25V3.75z" fill="#000" fill-rule="nonzero"/><path d="M1.25 3.75v28.5c0 1.375 1.123 2.5 2.5 2.5h48.5c1.382 0 2.5-1.118 2.5-2.5V3.75c0-1.375-1.123-2.5-2.5-2.5H3.75a2.499 2.499 0 00-2.5 2.5z" fill="#FFF"/><g transform="translate(14 4)"><mask id="b" fill="#fff"><use xlink:href="#a"/></mask><g mask="url(#b)" fill-rule="nonzero"><path d="M2.72.475h22.444a2.245 2.245 0 012.244 2.245v22.444a2.244 2.244 0 01-2.244 2.245H2.719a2.244 2.244 0 01-2.244-2.244V2.72A2.244 2.244 0 012.719.475z" fill="#FDB913"/><path d="M25.164.475a2.245 2.245 0 012.244 2.245v22.444a2.244 2.244 0 01-2.244 2.245H2.72a2.245 2.245 0 01-2.245-2.245V2.72A2.245 2.245 0 012.72.475h22.444m0-.475H2.72A2.722 2.722 0 000 2.72v22.444a2.723 2.723 0 002.72 2.72h22.444a2.722 2.722 0 002.72-2.72V2.72A2.722 2.722 0 0025.163 0" fill="#FFF"/><path d="M15.513 14.233l-.002-4.823 1.259-.298v.632s.326-.831 1.083-1.024a.724.724 0 01.35-.024v1.23c-.227.003-.45.05-.66.138-.465.183-.7.584-.7 1.196l.002 2.663-1.332.31zM8.878 15.8s-.205-.306-.205-1.391v-2.401l-.647.154v-.99l.649-.152V9.94l1.338-.316v1.078l.946-.224v.988l-.946.224v2.445c0 1.112.295 1.325.295 1.325l-1.43.34zM11.099 12.932c0-.857.122-1.483.384-1.963.312-.57.823-.94 1.568-1.11 1.468-.334 1.998.535 1.978 1.7-.008.417-.006.62-.006.62l-2.587.608v.042c0 .814.17 1.2.687 1.091.445-.094.57-.373.605-.718a3.69 3.69 0 00.008-.198l1.212-.29s.003.1.001.21c-.01.463-.145 1.611-1.83 2.01-1.595.378-2.02-.596-2.02-2.002m2.006-2.175c-.429.097-.654.518-.663 1.215l1.3-.31c.003-.032.003-.101.003-.21-.002-.526-.165-.804-.64-.695M22.733 10.112c-.05-1.469.33-2.634 1.97-3.005 1.043-.238 1.44.034 1.64.297.194.25.269.588.269 1.061v.087l-1.281.305-.001-.179c0-.56-.155-.774-.563-.672-.485.122-.68.582-.68 1.497v.426c0 .93.128 1.356.687 1.239.484-.1.55-.526.559-.899l.003-.246 1.28-.303.001.2c-.003 1.22-.646 1.988-1.85 2.268-1.658.389-1.983-.57-2.034-2.076M18.301 12.168c0-1.117.655-1.47 1.64-1.878.885-.366.905-.548.908-.866.005-.268-.12-.498-.56-.385a.666.666 0 00-.534.63c-.007.083-.01.166-.008.248l-1.242.293a2.47 2.47 0 01.086-.733c.198-.668.787-1.118 1.804-1.353 1.322-.305 1.762.275 1.764 1.177v2.136c0 1.033.191 1.184.191 1.184l-1.219.289a2.65 2.65 0 01-.163-.438s-.267.672-1.188.889c-.967.228-1.479-.371-1.479-1.193zm2.54-1.525a4.603 4.603 0 01-.649.38c-.406.198-.59.443-.59.82 0 .327.202.542.57.45.395-.099.669-.467.669-.978v-.672zM1.88 19.181a.774.774 0 01-.649-1.195l.009-.01.014-.005 1.821-.43v1.383l-.028.007c-.413.099-.907.212-1.009.234a.761.761 0 01-.158.016M1.88 20.95a.773.773 0 01-.649-1.193l.009-.012.014-.004 1.821-.43v1.383l-.028.007a53.12 53.12 0 01-1.009.234.819.819 0 01-.158.015M1.88 22.722a.773.773 0 01-.649-1.193l.009-.014 1.835-.433v1.383l-.028.007c-.437.105-.92.215-1.009.234a.807.807 0 01-.158.016M1.665 17.487V9.751l1.41-.333v7.736zM5.178 16.829a.87.87 0 10-1.74 0l.001 7.23a2.36 2.36 0 002.355 2.356l2.463-.003v-3.016l.001-3.364c0-.38-.189-.737-.506-.948l-2.195-1.491v3.386a.187.187 0 01-.375 0l-.004-4.15M6.353 11.434c-.54.126-.998.48-1.255.971v-.544l-1.27.3.001 3.473a1.3 1.3 0 011.337.234v-2.242c0-.537.268-.966.65-1.05.287-.063.526.04.526.55l.001 3.272 1.338-.314v-3.46c0-.839-.323-1.425-1.328-1.19M25.788 6.483a.827.827 0 11-.002-1.653.827.827 0 01.002 1.653m0-1.55a.723.723 0 100 1.447.723.723 0 000-1.446" fill="#231F20"/><path d="M25.487 5.164h.356a.233.233 0 01.256.26c0 .13-.058.231-.168.248v.002c.1.01.153.066.158.208.002.064.003.143.006.205 0 .035.018.068.048.087h-.182a.168.168 0 01-.028-.09c-.005-.06-.004-.117-.007-.19-.002-.11-.036-.159-.147-.159h-.131v.439h-.161v-1.01zm.29.45a.148.148 0 00.16-.164c0-.108-.046-.164-.152-.164h-.137v.328h.129z" fill="#231F20"/></g></g></g></svg>