<?xml version="1.0" encoding="UTF-8"?><svg width="56" height="36" viewBox="0 0 56 36" xmlns="http://www.w3.org/2000/svg"><g fill="none" fill-rule="evenodd"><path d="M0 3.75A3.749 3.749 0 013.75 0h48.5A3.756 3.756 0 0156 3.75v28.5A3.749 3.749 0 0152.25 36H3.75A3.756 3.756 0 010 32.25V3.75z" fill="#000" fill-rule="nonzero"/><path d="M1.25 3.75v28.5c0 1.375 1.123 2.5 2.5 2.5h48.5c1.382 0 2.5-1.118 2.5-2.5V3.75c0-1.375-1.123-2.5-2.5-2.5H3.75a2.499 2.499 0 00-2.5 2.5z" fill="#FFF"/><g fill-rule="nonzero"><path d="M11.336 16.364L7 17.41v1.72h1.699v5.687h2.639v-8.453h-.002zm-.042-2.574a1.71 1.71 0 00-.534-1.252 1.748 1.748 0 00-1.264-.524c-.49 0-.925.18-1.276.524-.35.344-.519.77-.519 1.252s.183.894.519 1.24c.35.345.785.524 1.276.524.492 0 .912-.18 1.264-.523.351-.332.534-.746.534-1.24z" fill="#080431"/><path d="M23.474 16.281c0-1.281-.393-2.243-1.193-2.892-.8-.647-1.965-.979-3.494-.979h-5.08v12.38h2.68v-4.405h2.203c1.558 0 2.765-.358 3.62-1.06.844-.689 1.264-1.707 1.264-3.044zm-4.815-1.708c.73 0 1.277.153 1.615.441.336.289.506.744.506 1.364 0 .606-.198 1.073-.603 1.39-.407.318-1.024.483-1.852.483H16.39v-3.678h2.27zm13.725 3.925c0-1.13-.336-1.97-1.01-2.52-.674-.55-1.627-.84-2.89-.84-1.32 0-2.512.288-3.579.853l.842 1.749c1.01-.456 1.894-.688 2.64-.688.968 0 1.459.482 1.459 1.446v.414l-1.627.056c-1.403.055-2.457.317-3.143.799-.702.468-1.052 1.211-1.052 2.217v.027c0 .95.266 1.679.772 2.19.519.523 1.22.785 2.133.785.731 0 1.334-.11 1.798-.318.45-.22.884-.591 1.318-1.143h.07v1.281H32.4v-6.308h-.017zm-2.526 1.928v.785c0 .565-.182 1.02-.533 1.364-.365.344-.842.523-1.432.523-.827 0-1.234-.358-1.234-1.087 0-.51.182-.882.533-1.13.365-.247.926-.385 1.67-.4l.996-.055zm7.185-4.283l-.392-.812h-1.993v9.473h2.64v-4.819c-.015-.935.14-1.584.463-1.94.324-.359.786-.55 1.36-.592.436-.014.816.153 1.152.524l.575-2.355c-1.18-.814-2.457-.635-3.805.521zm12.953 2.355c0-1.13-.35-1.97-1.04-2.52-.688-.55-1.683-.84-2.99-.84-1.347 0-2.582.288-3.69.853l.869 1.749c1.04-.456 1.95-.688 2.723-.688.997 0 1.501.482 1.501 1.446v.414l-1.684.056c-1.444.055-2.526.317-3.227.799-.716.468-1.081 1.211-1.081 2.217 0 .964.267 1.693.8 2.217.533.523 1.264.785 2.19.785.758 0 1.36-.11 1.839-.318.464-.22.911-.591 1.36-1.143v1.281h2.428l.002-6.308zm-5.346 2.37c.378-.248.94-.386 1.711-.4l1.025-.042v.785c0 .565-.183 1.02-.548 1.364-.365.344-.857.523-1.474.523-.857 0-1.276-.358-1.276-1.087 0-.524.182-.897.562-1.144z" fill="#3A6CAE"/></g></g></svg>