<?xml version="1.0" encoding="UTF-8"?>
<svg width="56px" height="36px" viewBox="0 0 56 36" version="1.1" xmlns="http://www.w3.org/2000/svg" xmlns:xlink="http://www.w3.org/1999/xlink">
    <!-- Generator: Sketch 53.2 (72643) - https://sketchapp.com -->
    <title>ipko</title>
    <desc>Created with Sketch.</desc>
    <defs>
        <radialGradient cx="49.1588552%" cy="-0.170533269%" fx="49.1588552%" fy="-0.170533269%" r="109.160721%" gradientTransform="translate(0.491589,-0.001705),scale(0.988870,1.000000),translate(-0.491589,0.001705)" id="radialGradient-1">
            <stop stop-color="#004C9A" offset="0%"></stop>
            <stop stop-color="#004994" offset="14%"></stop>
            <stop stop-color="#013F84" offset="33%"></stop>
            <stop stop-color="#033069" offset="54%"></stop>
            <stop stop-color="#051A43" offset="77%"></stop>
            <stop stop-color="#070016" offset="100%"></stop>
        </radialGradient>
        <radialGradient cx="78.1050463%" cy="-61.6831101%" fx="78.1050463%" fy="-61.6831101%" r="279.361483%" gradientTransform="translate(0.781050,-0.616831),scale(1.000000,0.579213),translate(-0.781050,0.616831)" id="radialGradient-2">
            <stop stop-color="#004C9A" offset="0%"></stop>
            <stop stop-color="#004994" offset="14%"></stop>
            <stop stop-color="#013F84" offset="33%"></stop>
            <stop stop-color="#033069" offset="54%"></stop>
            <stop stop-color="#051A43" offset="77%"></stop>
            <stop stop-color="#070016" offset="100%"></stop>
        </radialGradient>
        <radialGradient cx="-36.3016111%" cy="-51.2655504%" fx="-36.3016111%" fy="-51.2655504%" r="306.401865%" gradientTransform="translate(-0.363016,-0.512656),scale(1.000000,0.503171),translate(0.363016,0.512656)" id="radialGradient-3">
            <stop stop-color="#004C9A" offset="0%"></stop>
            <stop stop-color="#004994" offset="14%"></stop>
            <stop stop-color="#013F84" offset="33%"></stop>
            <stop stop-color="#033069" offset="54%"></stop>
            <stop stop-color="#051A43" offset="77%"></stop>
            <stop stop-color="#070016" offset="100%"></stop>
        </radialGradient>
    </defs>
    <g id="ipko" stroke="none" stroke-width="1" fill="none" fill-rule="evenodd">
        <g id="Base">
            <path d="M0,3.75075247 C0,1.67926908 1.67596877,0 3.75035585,0 L52.2496442,0 C54.3209085,0 56,1.68806916 56,3.75075247 L56,32.2492475 C56,34.3207309 54.3240312,36 52.2496442,36 L3.75035585,36 C1.67909151,36 0,34.3119308 0,32.2492475 L0,3.75075247 Z" id="Rectangle-2" fill="#000000" fill-rule="nonzero"></path>
            <path d="M1.25,3.75075247 L1.25,32.2492475 C1.25,33.6250965 2.37296468,34.75 3.75035585,34.75 L52.2496442,34.75 C53.6324061,34.75 54.75,33.6316447 54.75,32.2492475 L54.75,3.75075247 C54.75,2.37490355 53.6270353,1.25 52.2496442,1.25 L3.75035585,1.25 C2.36759386,1.25 1.25,2.36835527 1.25,3.75075247 Z" id="Path" fill="#FFFFFF"></path>
        </g>
        <g id="pko-jubileusz" transform="translate(16.000000, 5.000000)" fill-rule="nonzero">
            <path d="M11.8132114,4.51627281 C13.0718481,4.51627281 14.0921748,3.50527071 14.0921748,2.25813641 C14.0921748,1.01100211 13.0718481,7.63649514e-17 11.8132114,0 C10.5545746,-7.63649514e-17 9.53424797,1.01100211 9.53424797,2.25813641 C9.53424797,3.50527071 10.5545746,4.51627281 11.8132114,4.51627281 Z" id="Path" fill="#E4202C"></path>
            <path d="M11.8213923,10.9930712 C14.8401423,10.9930712 17.4311484,10.2519393 18.5238821,9.21898663 C18.889685,8.87158103 19.0860264,8.50101505 19.0860264,8.1130788 C19.0860264,7.72514254 18.889685,7.34878648 18.5238821,7.00485493 C18.1580793,6.66092339 17.6286585,6.34825835 16.9695122,6.07844 C15.6523882,5.5515415 13.8257114,5.22729627 11.8097053,5.22729627 C11.8097053,5.22729627 11.8003557,5.22729627 11.7945122,5.22729627 C9.08546748,5.22729627 6.73988821,5.84336221 5.48353659,6.69797998 C4.7414126,7.20287612 4.54857724,7.78535952 4.54857724,8.49406694 C4.54857724,8.54386174 4.54857724,14.2262594 4.54857724,14.2262594 L4.54857724,16.5063981 C4.54857724,17.4131267 4.82205285,17.8149592 4.94009146,18.0118224 C5.32503255,18.6557447 5.867689,19.1930437 6.51783537,19.5739896 L6.56692073,19.60294 L6.56692073,10.1037129 L6.62535569,10.1268733 C7.94481707,10.6607199 9.7808435,10.9930712 11.8132114,10.9930712 L11.8213923,10.9930712 Z M8.74070122,8.01812127 C8.70013513,7.97085618 8.67741221,7.91108839 8.67642276,7.84905054 C8.69092252,7.68556389 8.79649693,7.5438492 8.94989837,7.48195862 C9.02992325,7.44293056 9.11782123,7.42234454 9.2070122,7.42174165 L14.5397866,7.42174165 C14.6289775,7.42234454 14.7168755,7.44293056 14.7969004,7.48195862 C14.9503619,7.54353359 15.0557044,7.68554389 15.0692073,7.84905054 C15.0688173,7.91119994 15.0460197,7.97116424 15.0049289,8.01812127 C14.9299935,8.09960867 14.8240122,8.14623436 14.7127541,8.14666134 L9.03404472,8.14666134 C8.92250119,8.14599276 8.81625185,8.0994354 8.74070122,8.01812127 L8.74070122,8.01812127 Z" id="Shape" fill="url(#radialGradient-1)"></path>
            <path d="M12.8708841,19.661999 L12.8708841,17.37028 C12.8676696,16.6733195 12.2968917,16.1098275 11.5934959,16.1091977 L11.5794715,16.1091977 L11.5794715,15.8949643 C12.3074981,15.8301902 12.8676857,15.2295753 12.8755589,14.5053419 L12.8755589,12.89917 C12.8703542,12.5389028 12.9151849,12.1796382 13.0087907,11.8314767 L13.0216463,11.786314 L12.9748984,11.786314 C12.758689,11.8013683 12.436128,11.8083164 12.0948679,11.8083164 C11.5899898,11.8083164 11.0430386,11.7921041 10.7473577,11.7643117 L10.7216463,11.7643117 L10.7122967,11.7909461 C10.5915252,12.1606963 10.5330861,12.5476427 10.5393293,12.9362266 L10.5393293,14.764738 C10.536895,15.21352 10.1740679,15.5786807 9.72123984,15.5880893 L9.72123984,11.662406 L9.69202236,11.662406 C8.92382341,11.5736164 8.16634201,11.4099287 7.43058943,11.1737221 L7.38734756,11.1586679 L7.38734756,20.1159423 L7.40721545,20.1252065 C8.13466873,20.4458154 8.9011556,20.6712076 9.68734756,20.7956993 L9.72591463,20.7956993 L9.72591463,16.2203675 C10.1809857,16.2267148 10.5459722,16.5950821 10.5440041,17.0460348 L10.5440041,19.5299849 C10.5435923,19.9994913 10.6274877,20.4653256 10.7917683,20.905711 L10.7917683,20.9253974 L10.8128049,20.9253974 C10.9857724,20.9427676 11.2908028,20.9543478 11.6308943,20.9543478 C12.0954529,20.9582617 12.559841,20.9350611 13.0216463,20.8848667 L13.0613821,20.8848667 L13.0496951,20.8466521 C12.9211561,20.4650431 12.860649,20.0641734 12.8708841,19.661999 L12.8708841,19.661999 Z" id="Path" fill="url(#radialGradient-2)"></path>
            <path d="M18.8709858,10.7695736 C18.8668674,10.6332796 18.7922791,10.5086697 18.6735502,10.4397303 C18.5548213,10.370791 18.4086508,10.3672186 18.2866362,10.4302742 C17.2979167,11.0011774 15.882622,11.472491 14.301372,11.6786183 C13.948358,11.7279495 13.688888,12.0318841 13.6983232,12.3850097 L13.6983232,20.0869918 C13.6983232,20.4067699 13.9599454,20.6660012 14.2826728,20.6660012 C14.3219547,20.6655298 14.3610966,20.6612635 14.3995427,20.653263 C15.6418699,20.3348078 16.6901931,19.8634942 17.5223069,19.2068977 C18.2655996,18.5896737 18.866311,17.7327399 18.866311,16.7287377 L18.8709858,10.7695736 Z M16.8444614,12.6895686 L16.8444614,18.0430889 C16.831183,18.1969569 16.7442621,18.3351899 16.6107215,18.4148129 C16.4061992,18.549143 16.1619411,18.543353 16.064939,18.3997586 C16.0384992,18.3574295 16.0254724,18.3082187 16.0275407,18.2584804 L16.0275407,12.7115709 C16.0464731,12.5430622 16.1730473,12.4059454 16.340752,12.3722715 C16.3842498,12.3609587 16.4290131,12.3551226 16.4739837,12.3549012 C16.633002,12.3437181 16.7802885,12.4381779 16.8351118,12.5865049 C16.8421208,12.6105956 16.8456619,12.6355463 16.8456301,12.6606181 L16.8444614,12.6895686 Z" id="Shape" fill="url(#radialGradient-3)"></path>
            <path d="M0.93495935,26.9536793 C0.305030488,26.9536793 0,26.7973467 0,26.3850921 L0,23.9312505 C0,23.2711799 0.610060976,23.3117105 0.884705285,23.3117105 C1.78927846,23.3117105 2.11417683,23.714701 2.11417683,24.1779085 C2.11417683,24.6110075 1.79979675,24.8785098 1.45853659,24.9989437 L1.45853659,25.0093659 C1.89563008,25.0846371 2.32804878,25.3729838 2.32804878,25.9566252 C2.32921748,26.4603633 1.98678862,26.9536793 0.93495935,26.9536793 Z M0.898729675,23.5734228 C0.670833333,23.5734228 0.452286585,23.6035312 0.452286585,23.9868354 L0.452286585,24.9132504 C0.507215447,24.9132504 0.625254065,24.9236725 0.777184959,24.9236725 C1.31128049,24.9236725 1.67240854,24.6723825 1.67240854,24.2288613 C1.66890244,23.8409251 1.4398374,23.5734228 0.895223577,23.5734228 L0.898729675,23.5734228 Z M0.793546748,25.1471701 C0.611229675,25.1471701 0.514227642,25.1529602 0.448780488,25.1564343 L0.448780488,26.3144529 C0.448780488,26.5865873 0.580843496,26.6676486 0.931453252,26.6676486 C1.57190041,26.6676486 1.85121951,26.3306652 1.85121951,25.9218846 C1.85121951,25.4169885 1.51930894,25.1471701 0.793546748,25.1471701 Z" id="Shape" fill="#000000"></path>
            <path d="M4.90152439,26.9038845 C4.84941422,26.9128543 4.79663988,26.9175025 4.74375,26.9177807 C4.62688008,26.9177807 4.54974593,26.8679859 4.52987805,26.7012312 L4.51468496,26.5854293 L4.47962398,26.5738491 C4.29613821,26.8205071 4.08226626,26.9722076 3.80294715,26.9722076 C3.21859756,26.9722076 2.82708333,26.5437406 2.82708333,25.7273375 C2.82708333,24.8565074 3.41143293,24.2473896 4.00630081,24.2473896 C4.30198171,24.2473896 4.90152439,24.3226608 4.90152439,24.7754461 L4.90152439,26.9038845 Z M4.47962398,24.8078707 C4.47962398,24.5913212 4.35106707,24.4859415 4.01214431,24.4859415 C3.64634146,24.4859415 3.25950203,24.8333471 3.25950203,25.6289059 C3.25950203,26.3630897 3.56453252,26.630592 3.91514228,26.630592 C4.14237457,26.6192725 4.35214891,26.5063992 4.48546748,26.3237171 L4.47962398,24.8078707 Z" id="Shape" fill="#000000"></path>
            <path d="M7.1816565,26.9085165 L7.1816565,25.0313683 C7.1816565,24.7546018 7.03323171,24.4720452 6.55055894,24.4720452 C6.06788618,24.4720452 6.02698171,24.6631183 6.02698171,24.829873 L6.02698171,26.9143066 L5.6097561,26.9143066 L5.6097561,24.6839627 C5.59581587,24.5497707 5.67506831,24.4231738 5.80259146,24.3759297 C6.04679218,24.2728074 6.31101288,24.2245592 6.57627033,24.2346514 C7.02271341,24.2346514 7.60823171,24.3608755 7.60823171,25.0058919 L7.60823171,26.9050425 L7.1816565,26.9085165 Z" id="Path" fill="#000000"></path>
            <path d="M8.68343496,26.9085165 L8.26620935,26.9085165 L8.26620935,23.1160054 L8.68343496,23.1160054 L8.68343496,25.5026819 L9.53307927,24.5264721 C9.66262423,24.3772386 9.85216939,24.2924472 10.050813,24.2948684 C10.1006927,24.294534 10.1504609,24.2995819 10.1992378,24.3099226 L9.39984756,25.201597 C9.25259146,25.3625616 9.08546748,25.5038399 8.97327236,25.5038399 L8.97327236,25.5941653 C9.09014228,25.5941653 9.25259146,25.6810167 9.44075203,25.9021983 L10.314939,26.9143066 C10.258712,26.9278677 10.2010069,26.9344801 10.1431402,26.9339929 C9.95145729,26.9476537 9.76405287,26.873377 9.6347561,26.7324977 C9.43607724,26.500894 8.68343496,25.574479 8.68343496,25.574479 L8.68343496,26.9085165 Z" id="Path" fill="#000000"></path>
            <path d="M13.0765752,25.573321 C12.9662696,25.5688838 12.8562669,25.5588344 12.747002,25.5432125 L12.747002,26.9085165 L12.2795224,26.9085165 L12.2795224,23.9822033 C12.2795224,23.8154487 12.1883638,23.3117105 13.1735772,23.3117105 C14.0582825,23.3117105 14.4591463,23.8003944 14.4591463,24.4095122 C14.4649898,25.1008494 14.0325711,25.573321 13.0765752,25.573321 Z M13.1934451,23.5734228 C12.7060976,23.5734228 12.747002,23.8652435 12.747002,23.9868354 L12.747002,25.2872904 C12.8466157,25.300658 12.9468754,25.3087755 13.0473577,25.3116088 C13.7228659,25.3116088 13.9916667,24.9491489 13.9916667,24.4153023 C13.9916667,23.9555689 13.7590955,23.5734228 13.1934451,23.5734228 Z" id="Shape" fill="#000000"></path>
            <path d="M15.8265244,26.9687335 C15.058689,26.9687335 14.6823679,26.319085 14.6823679,25.5941653 C14.6823679,24.8692456 15.0797256,24.2381255 15.8265244,24.2381255 C16.5733232,24.2381255 16.9753557,24.8680876 16.9753557,25.5941653 C16.9753557,26.320243 16.5955285,26.9687335 15.8265244,26.9687335 Z M15.8113313,24.4801514 C15.3134654,24.4801514 15.1194614,25.0047338 15.1194614,25.5385804 C15.1194614,26.072427 15.322815,26.6965991 15.8323679,26.6965991 C16.3699695,26.6965991 16.5335874,26.1627525 16.5335874,25.6242738 C16.5335874,25.0857951 16.3349085,24.4801514 15.8113313,24.4801514 L15.8113313,24.4801514 Z" id="Shape" fill="#000000"></path>
            <polygon id="Path" fill="#000000" points="17.4884146 26.9085165 17.4884146 23.1299016 17.9161585 23.1299016 17.9161585 26.9085165"></polygon>
            <path d="M20.3564024,26.1893869 C20.3564024,26.6525944 19.9555386,26.9444151 19.4214431,26.9548373 C18.9738313,26.9548373 18.435061,26.7128114 18.435061,26.1534884 L18.435061,26.1384341 C18.4702524,26.1327276 18.5057748,26.1292465 18.5414126,26.1280119 C18.7185044,26.1200246 18.8814537,26.223489 18.9481199,26.3862501 C19.0343974,26.5788277 19.2241157,26.7056498 19.4366362,26.7128114 C19.670376,26.7128114 19.9438516,26.5460567 19.9438516,26.2646581 C19.9438516,25.6196417 18.5262195,25.7366016 18.5262195,24.954939 C18.5262195,24.5079438 18.9177337,24.2392835 19.4155996,24.2392835 C19.8480183,24.2392835 20.2851118,24.4419368 20.2851118,24.9340947 C20.1909148,24.970284 20.0855411,24.9644518 19.9959976,24.9180929 C19.9064541,24.871734 19.8414451,24.7893548 19.8176321,24.6920688 C19.7477357,24.5460478 19.5997346,24.4524806 19.4366362,24.4512009 L19.4004065,24.4512009 C19.1269309,24.4512009 18.9177337,24.6017433 18.9177337,24.8634556 C18.9235772,25.4945757 20.3564024,25.3521394 20.3564024,26.1893869 Z" id="Path" fill="#000000"></path>
            <path d="M21.3229167,26.9085165 L20.9068598,26.9085165 L20.9068598,23.1160054 L21.3229167,23.1160054 L21.3229167,25.5026819 L22.172561,24.5264721 C22.3024686,24.3770571 22.4924467,24.2922634 22.6914634,24.2948684 C22.7409545,24.2945814 22.7903302,24.2996292 22.8387195,24.3099226 L22.040498,25.201597 C21.8920732,25.3625616 21.7249492,25.5038399 21.6127541,25.5038399 L21.6127541,25.5941653 C21.729624,25.5941653 21.8920732,25.6810167 22.0802337,25.9021983 L22.9544207,26.9143066 C22.8977994,26.9278809 22.8397061,26.9344928 22.7814533,26.9339929 C22.5898252,26.9473053 22.4025687,26.8730872 22.2730691,26.7324977 C22.0743902,26.500894 21.321748,25.574479 21.321748,25.574479 L21.3229167,26.9085165 Z" id="Path" fill="#000000"></path>
            <path d="M23.7828789,23.8258708 C23.6444133,23.8287164 23.5099722,23.7983013 23.4107046,23.7416725 C23.3114369,23.6850437 23.2559578,23.6071158 23.2571212,23.525944 C23.2740825,23.3647103 23.5022179,23.2390337 23.7779376,23.2390337 C24.0536572,23.2390337 24.2817927,23.3647103 24.298754,23.525944 C24.2998352,23.6060852 24.2457024,23.6830949 24.1486051,23.7395467 C24.0515078,23.7959985 23.9196535,23.8271207 23.7828789,23.8258708 L23.7828789,23.8258708 Z M23.4211734,26.9085165 L23.4211734,24.2995005 L24.1445844,24.2995005 L24.1445844,26.9085165 L23.4211734,26.9085165 Z" id="Shape" fill="#000000"></path>
        </g>
    </g>
</svg>