<?xml version="1.0" encoding="UTF-8"?><svg width="56" height="36" viewBox="0 0 56 36" xmlns="http://www.w3.org/2000/svg" xmlns:xlink="http://www.w3.org/1999/xlink"><defs><path id="a" d="M28.973.027v28.852H0V.027z"/></defs><g fill="none" fill-rule="evenodd"><path d="M0 3.75A3.749 3.749 0 013.75 0h48.5A3.756 3.756 0 0156 3.75v28.5A3.749 3.749 0 0152.25 36H3.75A3.756 3.756 0 010 32.25V3.75z" fill="#000" fill-rule="nonzero"/><path d="M1.25 3.75v28.5c0 1.375 1.123 2.5 2.5 2.5h48.5c1.382 0 2.5-1.118 2.5-2.5V3.75c0-1.375-1.123-2.5-2.5-2.5H3.75a2.499 2.499 0 00-2.5 2.5z" fill="#FFF"/><g transform="translate(14 3.007)"><mask id="b" fill="#fff"><use xlink:href="#a"/></mask><path d="M23.831 28.88H5.141C2.315 28.88 0 26.574 0 23.758V5.147C0 2.331 2.314.027 5.142.027h18.69c2.827 0 5.141 2.304 5.141 5.12V23.76c0 2.816-2.314 5.12-5.142 5.12" fill="#223F82" mask="url(#b)"/></g><path d="M40.545 20.03c0-.13-.035-.162-.162-.16-.634.006-1.268.007-1.902-.001-.144-.002-.178.037-.177.178.006 1.314 0 2.628.006 3.943a1.4 1.4 0 01-.38.993c-.38.413-.855.546-1.399.435-.524-.108-.778-.477-.907-.96a2.986 2.986 0 01-.09-.776c0-1.218-.002-2.435.003-3.652 0-.129-.033-.162-.16-.16-.635.006-1.269.007-1.903 0-.14-.002-.183.03-.182.176.006 1.325.005 2.65.002 3.976 0 .337.015.671.08 1.001.127.64.376 1.216.893 1.645.446.37.97.533 1.545.567.82.047 1.56-.14 2.191-.687.203-.175.358-.39.547-.59 0 .32.006.638-.002.956-.004.12.034.151.153.15.56-.006 1.12-.006 1.68 0 .122.001.165-.022.165-.157-.005-2.292-.005-4.585 0-6.878M24.335 25.356c-.214.084-.414.072-.613.058-.35-.024-.586-.204-.692-.538a1.477 1.477 0 01-.072-.35c-.062-.96-.014-1.92-.03-2.881-.002-.11.054-.116.139-.115.37.002.742-.002 1.113.003.105.001.15-.017.148-.137a40.38 40.38 0 010-1.382c.002-.128-.046-.146-.158-.144-.36.006-.72-.003-1.079.005-.128.003-.165-.031-.164-.16.006-.694-.001-1.388.005-2.082.002-.135-.022-.184-.173-.182-.605.01-1.211.009-1.816 0-.144-.001-.193.024-.191.182.01.694 0 1.388.008 2.082.001.131-.038.165-.164.16-.246-.01-.492 0-.737-.004-.091-.002-.131.017-.13.12.005.472.005.945 0 1.417 0 .097.03.127.126.125.245-.006.491.006.736-.006.141-.006.17.044.168.174-.005.916 0 1.831-.003 2.747-.001.314.018.625.073.934.114.633.364 1.186.955 1.52.716.403 1.478.421 2.256.236.3-.072.296-.087.295-.389v-1.393M18.662 17.613c0-.127-.031-.162-.16-.161-.64.007-1.28.008-1.92 0-.14-.002-.18.029-.18.174l.004 1.156c.002 1.157 0 2.313 0 3.469v3.481l-.002 1.16c0 .127.023.175.165.173.64-.009 1.28-.007 1.92-.001.129.001.174-.027.173-.167-.004-3.094-.003-6.19 0-9.284M37.623 19.406c.065 0 .104-.032.145-.074l1.33-1.351c.165-.167.327-.336.511-.526h-2.042c-.054 0-.094.01-.129.06-.431.62-.866 1.239-1.322 1.89h1.507M29.57 25.237c-.42.478-.944.66-1.565.535-.334-.068-.581-.261-.67-.608-.09-.353-.035-.678.23-.945.296-.296.683-.399 1.078-.474.348-.067.702-.073 1.055-.086.134-.005.168.04.158.164-.01.124-.002.25-.002.375.022.378-.019.737-.284 1.039m2.443-2.408c0-.222-.01-.442-.038-.663-.153-1.22-.927-2.08-2.126-2.353-.734-.167-1.472-.15-2.211-.05-.62.084-1.215.25-1.776.53-.097.05-.128.098-.093.207.116.362.235.724.327 1.093.045.181.098.164.24.095.8-.39 1.641-.58 2.535-.437.536.086.867.409.911.85.014.14-.03.175-.163.173a8.577 8.577 0 00-1.6.134c-.691.123-1.354.323-1.918.761-.708.549-.98 1.292-.872 2.155.11.864.62 1.464 1.44 1.747.937.323 1.853.222 2.715-.28.21-.124.386-.292.593-.505 0 .242.01.432-.003.621-.009.133.04.159.164.157.554-.007 1.108-.01 1.661.001.167.003.22-.031.219-.21-.009-1.342-.005-2.684-.005-4.026" fill="#F7F301"/><path d="M29.856 23.823c.01-.123-.024-.169-.158-.164-.353.013-.707.02-1.055.086-.395.075-.782.178-1.077.474-.266.267-.32.592-.23.945.088.347.335.54.67.608.62.126 1.145-.057 1.564-.535.265-.302.306-.661.284-1.04 0-.124-.008-.25.002-.374" fill="#223F82"/></g></svg>