<?xml version="1.0" encoding="UTF-8"?><svg width="56" height="36" viewBox="0 0 56 36" xmlns="http://www.w3.org/2000/svg" xmlns:xlink="http://www.w3.org/1999/xlink"><defs><path id="a" d="M0 0h22.95v2.83H0z"/><path id="c" d="M0 0h22.95v2.83H0z"/><path id="e" d="M0 0h22.95v2.83H0z"/><path id="g" d="M0 0h22.95v2.83H0z"/><path id="i" d="M0 0h22.95v2.83H0z"/><path id="k" d="M0 0h22.95v2.83H0z"/><path id="m" d="M0 0h22.95v2.83H0z"/><path id="o" d="M0 0h22.95v2.83H0z"/><path id="q" d="M0 0h22.95v2.83H0z"/><path id="s" d="M0 0h22.95v2.83H0z"/><path id="u" d="M0 0h22.95v2.83H0z"/><path id="w" d="M0 0h22.95v2.83H0z"/><path id="y" d="M0 0h22.95v2.83H0z"/><path id="A" d="M0 0h22.95v2.83H0z"/><path id="C" d="M0 0h22.95v2.83H0z"/><path id="E" d="M0 0h22.95v2.83H0z"/><path id="G" d="M0 0h22.95v2.83H0z"/><path id="I" d="M0 0h22.95v2.83H0z"/><path id="K" d="M0 0h22.95v2.83H0z"/><path id="M" d="M0 0h22.95v2.83H0z"/><path id="O" d="M0 0h22.95v2.83H0z"/><path id="Q" d="M0 0h22.95v2.83H0z"/></defs><g fill="none" fill-rule="evenodd"><path d="M0 3.75A3.75 3.75 0 013.75 0h48.5A3.76 3.76 0 0156 3.75v28.5A3.75 3.75 0 0152.25 36H3.75A3.76 3.76 0 010 32.25V3.75z" fill="#000" fill-rule="nonzero"/><path d="M1.25 3.75v28.5a2.5 2.5 0 002.5 2.5h48.5a2.5 2.5 0 002.5-2.5V3.75a2.5 2.5 0 00-2.5-2.5H3.75a2.5 2.5 0 00-2.5 2.5z" fill="#FFF"/><g><path d="M25.1 26.16v-2.19h.25v.3c.1-.22.25-.33.44-.33.16 0 .3.07.38.2.1.18.15.38.14.59.01.22-.04.44-.15.64-.11.16-.25.25-.42.25a.47.47 0 01-.39-.22v.76h-.24zm.25-.97c.13.14.24.2.36.2.23 0 .34-.2.34-.64 0-.37-.1-.56-.3-.56-.14 0-.27.09-.4.27v.74zm1.86.43a.54.54 0 01-.46-.23 1 1 0 01-.17-.61 1 1 0 01.17-.62c.11-.15.29-.23.47-.22.2 0 .35.07.46.22.13.18.19.4.17.61 0 .26-.05.47-.17.62a.56.56 0 01-.47.23zm0-.22c.26 0 .39-.21.39-.63 0-.41-.13-.62-.38-.62s-.38.21-.38.63c0 .4.12.62.37.62zm1.38.22c-.14-.01-.28-.04-.4-.1v-.26c.15.09.29.14.4.14a.23.23 0 00.25-.24c0-.1-.07-.18-.2-.25l-.14-.07c-.2-.1-.3-.26-.3-.45 0-.14.03-.25.11-.33.1-.09.22-.13.34-.12.08 0 .17 0 .28.03l.05.01v.25c-.1-.05-.21-.07-.32-.08-.16 0-.24.07-.24.2 0 .1.06.17.18.23l.12.06c.13.07.22.14.27.21.06.09.09.18.09.28a.47.47 0 01-.5.49zm1.27 0c-.13-.01-.27-.04-.4-.1v-.26c.16.09.3.14.41.14a.23.23 0 00.25-.24c0-.1-.07-.18-.2-.25l-.14-.07c-.2-.1-.3-.26-.3-.45 0-.14.03-.25.11-.33.1-.09.22-.13.34-.12.07 0 .17 0 .28.03l.05.01v.25c-.1-.05-.21-.07-.32-.08-.16 0-.24.07-.24.2 0 .1.06.17.18.23l.12.06c.13.07.22.14.28.21.05.09.08.18.08.28a.47.47 0 01-.5.49zm.93-.04v-1.61h.3v1.6h-.3zm0-1.9v-.3h.3v.3h-.3zm.73 1.92v-2.36h.24v1.03c.1-.22.25-.33.44-.33.16 0 .3.07.38.2.1.18.15.38.14.59 0 .22-.04.44-.16.64-.1.16-.24.25-.4.25a.47.47 0 01-.4-.22l-.03.2h-.21zm.24-.4c.12.13.24.2.35.2.24 0 .35-.22.35-.65 0-.37-.1-.56-.3-.56-.14 0-.27.09-.4.27v.74zm1.34.38v-1.61h.29v1.6h-.3zm0-1.9v-.3h.29v.3h-.3zm.72 1.9v-2.34h.3v2.34h-.3zm.73 0v-1.61h.3v1.6h-.3zm0-1.9v-.3h.3v.3h-.3zm1.13 1.94a.35.35 0 01-.3-.13.55.55 0 01-.1-.36v-.94h-.16v-.22h.17v-.3l.24-.02v.32h.34v.22h-.34v.9c0 .2.07.3.22.3l.12-.01v.2a.63.63 0 01-.2.04zm.53-.04v-1.61h.3v1.6h-.3zm0-1.9v-.3h.3v.3h-.3zm1.7 1.85c-.13.05-.27.08-.4.09a.58.58 0 01-.49-.24.96.96 0 01-.19-.61c0-.25.06-.45.17-.6a.5.5 0 01.42-.24c.16 0 .28.07.37.21.09.14.13.34.13.6v.08h-.84c.04.38.2.57.47.57.12 0 .25-.04.37-.1v.24zm-.82-.93h.59c0-.3-.1-.45-.28-.45-.18 0-.29.15-.3.45zm1.6 1.01c-.14 0-.27-.03-.4-.09v-.27c.16.1.3.15.41.15a.23.23 0 00.24-.24c0-.1-.06-.19-.19-.25l-.14-.07c-.2-.1-.31-.26-.31-.45 0-.14.04-.26.12-.34.1-.08.21-.12.34-.12.07 0 .16.01.27.04l.05.01v.24c-.1-.04-.2-.06-.32-.07-.15 0-.23.07-.23.2 0 .1.06.17.18.23l.11.06a.8.8 0 01.28.21c.06.08.09.18.09.28a.47.47 0 01-.5.48zm2.55-.03v-.3c-.12.22-.28.33-.46.33a.33.33 0 01-.28-.13.57.57 0 01-.1-.36v-1.15h.24v1.06c0 .12.01.2.04.26.03.05.08.07.15.07.15 0 .29-.11.42-.35v-1.04h.24v1.6h-.24zm.73 0v-1.61h.24v.3c.13-.22.29-.34.47-.34.11 0 .21.05.28.14.07.1.1.23.1.35v1.16h-.24v-1.06c0-.1-.01-.18-.04-.26-.03-.05-.08-.08-.15-.08-.15 0-.29.12-.42.36v1.04h-.24zm1.56 0v-2.34h.3v2.34h-.3zm.73 0v-1.61h.29v1.6h-.3zm0-1.9v-.3h.29v.3h-.3zm.72 1.9v-1.61h.24v.3c.12-.22.27-.34.46-.34.17 0 .3.12.36.34.11-.23.26-.34.45-.34.11 0 .2.04.27.13.07.08.1.2.1.35v1.17h-.25v-1.13c0-.18-.06-.27-.18-.27s-.25.1-.39.32v1.08h-.24v-1.13c0-.18-.06-.28-.19-.28-.12 0-.25.11-.39.33v1.08h-.24zm2.34 0v-1.61h.3v1.6h-.3zm0-1.9v-.3h.3v.3h-.3zm1.13 1.93a.35.35 0 01-.29-.12.55.55 0 01-.1-.36v-.94h-.17v-.22h.17v-.3l.24-.02v.32h.35v.22h-.35v.9c0 .2.08.3.23.3l.11-.01v.2a.63.63 0 01-.19.04zm1.5-.08c-.13.05-.27.08-.41.08a.58.58 0 01-.48-.23.96.96 0 01-.2-.61c0-.25.06-.45.17-.6a.5.5 0 01.42-.24c.16 0 .29.07.38.2.08.15.13.34.13.6v.09h-.84c.03.38.19.57.46.57.13 0 .26-.04.37-.1v.24zm-.82-.93h.59c0-.3-.1-.45-.28-.45-.19 0-.3.15-.31.45zm2.1.98v-.3c-.1.22-.25.33-.45.33a.43.43 0 01-.37-.2c-.1-.18-.15-.38-.14-.59 0-.26.05-.48.16-.64.1-.16.24-.25.4-.25.16 0 .3.08.4.22v-.91h.24v2.34h-.24zm0-1.23c-.13-.13-.25-.2-.36-.2-.23 0-.34.22-.34.65 0 .37.1.56.3.56.14 0 .27-.1.4-.27v-.74z" fill="#EB8B2D" fill-rule="nonzero"/><g transform="translate(24.86 22.76)"><mask id="b" fill="#fff"><use xlink:href="#a"/></mask><text fill-opacity="0" fill="#000" mask="url(#b)" font-family="LucidaGrande, Lucida Grande" font-size="66.64"><tspan x=".01" y="26.42">p</tspan></text></g><g transform="translate(24.86 22.76)"><mask id="d" fill="#fff"><use xlink:href="#c"/></mask><text fill-opacity="0" fill="#000" mask="url(#d)" font-family="LucidaGrande, Lucida Grande" font-size="66.64"><tspan x="1.43" y="26.42">o</tspan></text></g><g transform="translate(24.86 22.76)"><mask id="f" fill="#fff"><use xlink:href="#e"/></mask><text fill-opacity="0" fill="#000" mask="url(#f)" font-family="LucidaGrande, Lucida Grande" font-size="66.64"><tspan x="2.81" y="26.42">s</tspan></text></g><g transform="translate(24.86 22.76)"><mask id="h" fill="#fff"><use xlink:href="#g"/></mask><text fill-opacity="0" fill="#000" mask="url(#h)" font-family="LucidaGrande, Lucida Grande" font-size="66.64"><tspan x="3.81" y="26.42">s</tspan></text></g><g transform="translate(24.86 22.76)"><mask id="j" fill="#fff"><use xlink:href="#i"/></mask><text fill-opacity="0" fill="#000" mask="url(#j)" font-family="LucidaGrande, Lucida Grande" font-size="66.64"><tspan x="4.8" y="26.42">i</tspan></text></g><g transform="translate(24.86 22.76)"><mask id="l" fill="#fff"><use xlink:href="#k"/></mask><text fill-opacity="0" fill="#000" mask="url(#l)" font-family="LucidaGrande, Lucida Grande" font-size="66.64"><tspan x="5.39" y="26.42">b</tspan></text></g><g transform="translate(24.86 22.76)"><mask id="n" fill="#fff"><use xlink:href="#m"/></mask><text fill-opacity="0" fill="#000" mask="url(#n)" font-family="LucidaGrande, Lucida Grande" font-size="66.64"><tspan x="6.82" y="26.42">i</tspan></text></g><g transform="translate(24.86 22.76)"><mask id="p" fill="#fff"><use xlink:href="#o"/></mask><text fill-opacity="0" fill="#000" mask="url(#p)" font-family="LucidaGrande, Lucida Grande" font-size="66.64"><tspan x="7.41" y="26.42">l</tspan></text></g><g transform="translate(24.86 22.76)"><mask id="r" fill="#fff"><use xlink:href="#q"/></mask><text fill-opacity="0" fill="#000" mask="url(#r)" font-family="LucidaGrande, Lucida Grande" font-size="66.64"><tspan x="8" y="26.42">i</tspan></text></g><g transform="translate(24.86 22.76)"><mask id="t" fill="#fff"><use xlink:href="#s"/></mask><text fill-opacity="0" fill="#000" mask="url(#t)" font-family="LucidaGrande, Lucida Grande" font-size="66.64"><tspan x="8.59" y="26.42">t</tspan></text></g><g transform="translate(24.86 22.76)"><mask id="v" fill="#fff"><use xlink:href="#u"/></mask><text fill-opacity="0" fill="#000" mask="url(#v)" font-family="LucidaGrande, Lucida Grande" font-size="66.64"><tspan x="9.42" y="26.42">i</tspan></text></g><g transform="translate(24.86 22.76)"><mask id="x" fill="#fff"><use xlink:href="#w"/></mask><text fill-opacity="0" fill="#000" mask="url(#x)" font-family="LucidaGrande, Lucida Grande" font-size="66.64"><tspan x="10" y="26.42">e</tspan></text></g><g transform="translate(24.86 22.76)"><mask id="z" fill="#fff"><use xlink:href="#y"/></mask><text fill-opacity="0" fill="#000" mask="url(#z)" font-family="LucidaGrande, Lucida Grande" font-size="66.64"><tspan x="11.26" y="26.42">s</tspan></text></g><g transform="translate(24.86 22.76)"><mask id="B" fill="#fff"><use xlink:href="#A"/></mask><text fill-opacity="0" fill="#000" mask="url(#B)" font-family="LucidaGrande, Lucida Grande" font-size="66.64"><tspan x="12.79" y="26.42">u</tspan></text></g><g transform="translate(24.86 22.76)"><mask id="D" fill="#fff"><use xlink:href="#C"/></mask><text fill-opacity="0" fill="#000" mask="url(#D)" font-family="LucidaGrande, Lucida Grande" font-size="66.64"><tspan x="14.17" y="26.42">n</tspan></text></g><g transform="translate(24.86 22.76)"><mask id="F" fill="#fff"><use xlink:href="#E"/></mask><text fill-opacity="0" fill="#000" mask="url(#F)" font-family="LucidaGrande, Lucida Grande" font-size="66.64"><tspan x="15.57" y="26.42">l</tspan></text></g><g transform="translate(24.86 22.76)"><mask id="H" fill="#fff"><use xlink:href="#G"/></mask><text fill-opacity="0" fill="#000" mask="url(#H)" font-family="LucidaGrande, Lucida Grande" font-size="66.64"><tspan x="16.16" y="26.42">i</tspan></text></g><g transform="translate(24.86 22.76)"><mask id="J" fill="#fff"><use xlink:href="#I"/></mask><text fill-opacity="0" fill="#000" mask="url(#J)" font-family="LucidaGrande, Lucida Grande" font-size="66.64"><tspan x="16.75" y="26.42">m</tspan></text></g><g transform="translate(24.86 22.76)"><mask id="L" fill="#fff"><use xlink:href="#K"/></mask><text fill-opacity="0" fill="#000" mask="url(#L)" font-family="LucidaGrande, Lucida Grande" font-size="66.64"><tspan x="18.84" y="26.42">i</tspan></text></g><g transform="translate(24.86 22.76)"><mask id="N" fill="#fff"><use xlink:href="#M"/></mask><text fill-opacity="0" fill="#000" mask="url(#N)" font-family="LucidaGrande, Lucida Grande" font-size="66.64"><tspan x="19.43" y="26.42">t</tspan></text></g><g transform="translate(24.86 22.76)"><mask id="P" fill="#fff"><use xlink:href="#O"/></mask><text fill-opacity="0" fill="#000" mask="url(#P)" font-family="LucidaGrande, Lucida Grande" font-size="66.64"><tspan x="20.24" y="26.42">e</tspan></text></g><g transform="translate(24.86 22.76)"><mask id="R" fill="#fff"><use xlink:href="#Q"/></mask><text fill-opacity="0" fill="#000" mask="url(#R)" font-family="LucidaGrande, Lucida Grande" font-size="66.64"><tspan x="21.5" y="26.42">d</tspan></text></g><path d="M34.4 22.1l-.36.31a2.32 2.32 0 01-.97.48c-.2.05-.41.07-.64.07-.51.01-1.01-.2-1.36-.57a2 2 0 01-.55-1.45c0-.47.09-.86.28-1.15.19-.31.47-.55.79-.71.34-.17.76-.3 1.26-.37s1.02-.13 1.56-.16v-.04c0-.35-.12-.6-.38-.73-.26-.14-.64-.2-1.15-.2-.3 0-.62.05-.96.18-.25.08-.5.17-.74.27h-.17v-1.55a9.1 9.1 0 012.26-.33c1.04 0 1.8.18 2.25.55.54.4.86 1.03.87 1.7v4.39H34.4v-.69zm7.1-1.36c0 .67-.24 1.2-.72 1.62-.48.4-1.14.6-1.97.6-.47 0-.89-.05-1.27-.15-.29-.09-.56-.2-.82-.36l-.01-1.7c.15 0 .25.15.37.24.32.23.67.4 1.05.5.22.06.46.1.7.1.33 0 .57-.05.73-.14a.43.43 0 00.24-.4c0-.15-.05-.27-.14-.34-.16-.1-.34-.16-.53-.2a7.64 7.64 0 00-.5-.11 4.5 4.5 0 01-.57-.15 2 2 0 01-1.06-.71 2.04 2.04 0 01-.34-1.21c0-.63.24-1.14.71-1.55a2.87 2.87 0 011.94-.62 4.22 4.22 0 011.95.46v1.63h-.14a3.06 3.06 0 00-.84-.51c-.3-.13-.63-.2-.96-.2-.24 0-.47.04-.68.14-.18.09-.27.22-.27.39 0 .15.04.27.12.35.08.08.28.16.59.24l.55.12c.2.04.39.1.59.15.39.1.73.34.97.67.2.3.31.69.31 1.14zm6.13 2.05h-1.99v-3.03c0-.27 0-.54-.03-.8-.01-.2-.05-.4-.13-.59a.68.68 0 00-.3-.32c-.13-.07-.18-.1-.42-.1-.4 0-.76.18-1.08.4v4.44h-1.87v-9.22h1.87v3.5c1.17-1.26 3.95-1.13 3.95 1.39v4.33zm-19.8.16c-.59 0-1.13-.09-1.63-.28a3.48 3.48 0 01-2.12-2.23c-.21-.62-.31-1.27-.3-1.92 0-.67.1-1.3.28-1.84.2-.55.47-1.03.83-1.42.34-.38.77-.67 1.28-.88a4.4 4.4 0 011.67-.31 6.93 6.93 0 011.64.22c.23.07.44.15.63.23v1.74c-.5.07-.78-.25-1.23-.42a2.3 2.3 0 00-1.55.02c-.26.1-.5.26-.72.5-.2.2-.38.5-.5.86-.15.42-.21.86-.2 1.3 0 .54.07 1 .2 1.35.15.36.33.64.54.85.2.2.45.36.72.45.5.17 1.04.18 1.53.02.24-.08.47-.2.68-.33.17-.11.33-.23.48-.36l.2-.16v2.14l-.19.08c-.72.34-1.44.4-2.24.4zm6.57-1.84v-1.35l-.8.1c-.29.03-.5.08-.66.14a.86.86 0 00-.42.28.78.78 0 00-.14.5c0 .12 0 .24.03.32.02.1.08.18.15.24.08.08.17.13.28.17a1.63 1.63 0 001.56-.4zM14.15 9c5.04 0 9.14 3.93 9.14 8.77 0 4.85-4.1 8.77-9.15 8.77C9.1 26.54 5 22.62 5 17.77 5 12.93 9.1 9 14.15 9" fill="#05437A" fill-rule="nonzero"/><path d="M15.8 22.65v-1.66l3.07-4h-2.95v-1.55h5.32v2l-2.84 3.6h2.8v1.61h-5.4zm-.54-.06c-.87.13-1.95.23-2.79-.07a1.36 1.36 0 01-.75-.64 2.1 2.1 0 01-.22-.73l-.03-4.18h-1.19v-1.53h1.16V14.1l2.45-.9v2.24h1.27v1.53h-1.4v2.6c.01 1.64.42 1.65 1.5 1.52v1.5zm-7.83-.04h2.41v-9.51h-2.4v9.51z" fill="#FFFFFE" fill-rule="nonzero"/><path d="M25.53 9.03c-5.27.96-5.5 4.01-5.5 4.01-.88-2.34-3.63-2.69-3.63-2.69l9.13-1.32" fill="#EB8B2D" fill-rule="nonzero"/><path d="M21.18 11.56s1.52-1.84 4.8-2.25c0 0-3.03.71-3.68 3.7 0 0-.36-.63-1.12-1.45" fill="#EB8B2D" fill-rule="nonzero"/></g></g></svg>