<?xml version="1.0" encoding="UTF-8"?>
<svg width="45px" height="29px" viewBox="0 0 45 29" version="1.1" xmlns="http://www.w3.org/2000/svg" xmlns:xlink="http://www.w3.org/1999/xlink">
    <!-- Generator: Sketch 41.2 (35397) - http://www.bohemiancoding.com/sketch -->
    <title>PM/Desktop/Deposit/jcb</title>
    <desc>Created with Sketch.</desc>
    <defs>
        <rect id="path-1" x="0" y="0" width="45" height="29" rx="3"></rect>
        <mask id="mask-2" maskContentUnits="userSpaceOnUse" maskUnits="objectBoundingBox" x="0" y="0" width="45" height="29" fill="white">
            <use xlink:href="#path-1"></use>
        </mask>
        <linearGradient x1="-57.5365449%" y1="49.9637097%" x2="233.580565%" y2="49.9637097%" id="linearGradient-3">
            <stop stop-color="#007F49" offset="0%"></stop>
            <stop stop-color="#209248" offset="29%"></stop>
            <stop stop-color="#50AF47" offset="76%"></stop>
            <stop stop-color="#62BA46" offset="100%"></stop>
        </linearGradient>
        <linearGradient x1="-0.0211670481%" y1="50.0403529%" x2="100.2377%" y2="50.0403529%" id="linearGradient-4">
            <stop stop-color="#007F49" offset="0%"></stop>
            <stop stop-color="#209248" offset="29%"></stop>
            <stop stop-color="#50AF47" offset="76%"></stop>
            <stop stop-color="#62BA46" offset="100%"></stop>
        </linearGradient>
        <linearGradient x1="-62.5216606%" y1="50.1416185%" x2="253.818592%" y2="50.1416185%" id="linearGradient-5">
            <stop stop-color="#007F49" offset="0%"></stop>
            <stop stop-color="#209248" offset="29%"></stop>
            <stop stop-color="#50AF47" offset="76%"></stop>
            <stop stop-color="#62BA46" offset="100%"></stop>
        </linearGradient>
        <linearGradient x1="-0.224%" y1="49.9933004%" x2="101.476%" y2="49.9933004%" id="linearGradient-6">
            <stop stop-color="#333377" offset="0%"></stop>
            <stop stop-color="#2F397D" offset="7%"></stop>
            <stop stop-color="#0D66AD" offset="69%"></stop>
            <stop stop-color="#0077BF" offset="100%"></stop>
        </linearGradient>
        <linearGradient x1="-0.663329519%" y1="50.0168156%" x2="98.2182494%" y2="50.0168156%" id="linearGradient-7">
            <stop stop-color="#743237" offset="0%"></stop>
            <stop stop-color="#AA263E" offset="40%"></stop>
            <stop stop-color="#DA1C44" offset="80%"></stop>
            <stop stop-color="#EC1846" offset="100%"></stop>
        </linearGradient>
    </defs>
    <g id="Symbols" stroke="none" stroke-width="1" fill="none" fill-rule="evenodd">
        <g id="PM/Desktop/Deposit/jcb">
            <use id="Rectangle-2" stroke="#000000" mask="url(#mask-2)" stroke-width="2" fill="#FFFFFF" xlink:href="#path-1"></use>
            <g id="jcb" transform="translate(9.000000, 4.000000)">
                <g id="Group">
                    <path d="M20.7335423,12.6317073 L22.661442,12.6317073 C22.7178683,12.6317073 22.8401254,12.6223577 22.8871473,12.6130081 C23.2539185,12.5288618 23.5642633,12.2109756 23.5642633,11.7621951 C23.5642633,11.3134146 23.2539185,10.9861789 22.8871473,10.9113821 C22.830721,10.9020325 22.7178683,10.8926829 22.661442,10.8926829 L20.7335423,10.8926829 L20.7335423,12.6317073 L20.7335423,12.6317073 Z" id="Shape" fill="url(#linearGradient-3)"></path>
                    <path d="M22.4357367,0.542682927 C20.5924765,0.542682927 19.1065831,2.02926829 19.1065831,3.85243902 L19.1065831,7.29308943 L23.8181818,7.29308943 C23.9310345,7.29308943 24.0626959,7.30243902 24.1473354,7.30243902 C25.2100313,7.35853659 26,7.90081301 26,8.84512195 C26,9.59308943 25.4639498,10.2195122 24.4858934,10.3691057 L24.4858934,10.4065041 C25.5673981,10.4813008 26.3949843,11.0703252 26.3949843,12.0052846 C26.3949843,13.0150407 25.4827586,13.6601626 24.2789969,13.6601626 L19.1065831,13.6601626 L19.1065831,20.4105691 L23.9968652,20.4105691 C25.8401254,20.4105691 27.3260188,18.9239837 27.3260188,17.100813 L27.3260188,0.542682927 L22.4357367,0.542682927 L22.4357367,0.542682927 Z" id="Shape" fill="url(#linearGradient-4)"></path>
                    <path d="M23.338558,9.09756098 C23.338558,8.65813008 23.0282132,8.36829268 22.6708464,8.30284553 C22.6332288,8.29349593 22.5485893,8.28414634 22.4827586,8.28414634 L20.7335423,8.28414634 L20.7335423,9.90162602 L22.4827586,9.90162602 C22.5485893,9.90162602 22.6426332,9.89227642 22.6708464,9.88292683 C23.0376176,9.82682927 23.338558,9.53699187 23.338558,9.09756098 L23.338558,9.09756098 Z" id="Shape" fill="url(#linearGradient-5)"></path>
                    <path d="M4.0031348,0.542682927 C2.15987461,0.542682927 0.673981191,2.02926829 0.673981191,3.85243902 L0.673981191,12.0333333 C1.60501567,12.4821138 2.57366771,12.7813008 3.56112853,12.7813008 C4.71786834,12.7813008 5.34796238,12.0800813 5.34796238,11.145122 L5.34796238,7.30243902 L8.21630094,7.30243902 L8.21630094,11.145122 C8.21630094,12.6504065 7.28526646,13.8565041 4.10658307,13.8565041 C2.18808777,13.8565041 0.68338558,13.445122 0.68338558,13.445122 L0.68338558,20.4292683 L5.57366771,20.4292683 C7.4169279,20.4292683 8.90282132,18.9426829 8.90282132,17.1195122 L8.90282132,0.542682927 L4.0031348,0.542682927 Z" id="Shape" fill="url(#linearGradient-6)"></path>
                    <path d="M13.2194357,0.542682927 C11.3761755,0.542682927 9.89028213,2.02926829 9.89028213,3.85243902 L9.89028213,8.19065041 C10.7366771,7.47073171 12.1943574,7.02195122 14.5642633,7.12479675 C15.8338558,7.18089431 17.1786834,7.51747967 17.1786834,7.51747967 L17.1786834,8.9199187 C16.5015674,8.58333333 15.69279,8.26544715 14.6583072,8.19065041 C12.862069,8.0597561 11.7711599,8.92926829 11.7711599,10.4813008 C11.7711599,12.0333333 12.8526646,12.9028455 14.6583072,12.7719512 C15.7021944,12.6971545 16.5203762,12.3699187 17.1786834,12.0426829 L17.1786834,13.445122 C17.1786834,13.445122 15.8338558,13.7817073 14.5642633,13.8378049 C12.1943574,13.9406504 10.7366771,13.4918699 9.89028213,12.7719512 L9.89028213,20.4199187 L14.7805643,20.4199187 C16.6238245,20.4199187 18.1097179,18.9333333 18.1097179,17.1101626 L18.1097179,0.542682927 L13.2194357,0.542682927 L13.2194357,0.542682927 Z" id="Shape" fill="url(#linearGradient-7)"></path>
                </g>
            </g>
        </g>
    </g>
</svg>