<?xml version="1.0" encoding="UTF-8"?><svg width="56" height="36" viewBox="0 0 56 36" xmlns="http://www.w3.org/2000/svg"><g fill="none" fill-rule="evenodd"><path d="M0 3.75A3.75 3.75 0 013.75 0h48.5A3.76 3.76 0 0156 3.75v28.5A3.75 3.75 0 0152.25 36H3.75A3.76 3.76 0 010 32.25V3.75z" fill="#000" fill-rule="nonzero"/><path d="M1.25 3.75v28.5a2.5 2.5 0 002.5 2.5h48.5a2.5 2.5 0 002.5-2.5V3.75a2.5 2.5 0 00-2.5-2.5H3.75a2.5 2.5 0 00-2.5 2.5z" fill="#FFF"/><path d="M38.61 7.39A14.99 14.99 0 0128 33a14.99 14.99 0 110-30c3.98 0 7.8 1.58 10.61 4.39zm-18.46 1.7a2.37 2.37 0 00-1.85 2.38v6s-.36 6.44 8.29 11.2c.88.54 1.94.54 2.82 0 .62-.35 1.24-.7 1.68-1.14l-6.8-6.44a.96.96 0 01-.26-1.15c.18-.44.53-.7.97-.7h1.41c1.06 0 1.86-.62 2.3-1.5h-4.94a1.02 1.02 0 01-1.06-1.06c0-.62.44-1.06 1.06-1.06h4.94a2.63 2.63 0 00-2.3-1.5h-2.64a1.02 1.02 0 01-1.06-1.06c0-.55.34-.96.86-1.04l.2-.02h8.11c.62 0 1.06.44 1.06 1.06 0 .62-.44 1.06-1.06 1.06H30.2c.36.44.53.97.7 1.5h.98c.62 0 1.06.44 1.06 1.06 0 .61-.44 1.05-1.06 1.05h-1.06a4.7 4.7 0 01-3.44 3.45l5.3 5.03c5.29-4.15 5.02-8.74 5.02-8.74v-6c0-1.15-.79-2.12-1.85-2.3l-2.12-.35c-3.08-.26-8.2-.26-11.3 0l-2.28.27z" fill="#0B509D" fill-rule="nonzero"/></g></svg>