<?xml version="1.0" encoding="UTF-8"?><svg width="56" height="36" viewBox="0 0 56 36" xmlns="http://www.w3.org/2000/svg"><g fill="none" fill-rule="evenodd"><path d="M0 3.75A3.749 3.749 0 013.75 0h48.5A3.756 3.756 0 0156 3.75v28.5A3.749 3.749 0 0152.25 36H3.75A3.756 3.756 0 010 32.25V3.75z" fill="#000" fill-rule="nonzero"/><path d="M1.25 3.75v28.5c0 1.375 1.123 2.5 2.5 2.5h48.5c1.382 0 2.5-1.118 2.5-2.5V3.75c0-1.375-1.123-2.5-2.5-2.5H3.75a2.499 2.499 0 00-2.5 2.5z" fill="#FFF"/><g fill-rule="nonzero"><path d="M38.471 16.142c0 6.147-4.805 11.121-10.742 11.121-5.938 0-10.742-4.974-10.742-11.12 0-6.148 4.804-11.122 10.742-11.122 5.937 0 10.742 4.974 10.742 11.121" fill="#FFF"/><path d="M33.137 21.892c-.494-.265-1.024-.53-1.81-.53-.693 0-1.26.265-1.79.53-.566.265-1.15.548-1.936.548-.694 0-1.206-.246-1.754-.51-.566-.265-1.15-.549-1.955-.549-.694 0-1.26.265-1.808.51-.567.266-1.17.55-1.937.55h-.128c.073.094.165.207.256.302.786-.02 1.37-.303 1.937-.568.548-.245 1.04-.491 1.68-.491.731 0 1.26.246 1.827.53.548.264 1.133.548 1.882.548.84 0 1.462-.303 2.064-.587.53-.245 1.042-.491 1.681-.491.713 0 1.188.246 1.68.491.53.284 1.097.568 2.01.568.092-.095.165-.208.256-.322h-.237c-.877.02-1.407-.264-1.918-.53" fill="#98867D"/><path d="M31.328 21.93c-.694 0-1.26.264-1.79.53-.567.264-1.151.548-1.937.548-.694 0-1.206-.246-1.754-.511-.566-.265-1.15-.549-1.955-.549-.694 0-1.26.265-1.808.511-.494.227-.987.454-1.59.53.092.094.165.189.256.264.548-.094 1.023-.302 1.462-.51.548-.246 1.04-.492 1.68-.492.731 0 1.26.265 1.827.53.548.264 1.133.548 1.882.548.84 0 1.462-.302 2.064-.586.53-.246 1.042-.492 1.681-.492.713 0 1.188.246 1.68.492.44.227.878.454 1.517.548.092-.094.183-.189.256-.283-.712-.057-1.187-.303-1.644-.53-.512-.265-1.023-.548-1.827-.548" fill="#98867D"/><path d="M31.328 22.516c-.694 0-1.26.265-1.79.53-.567.264-1.151.548-1.937.548-.694 0-1.206-.246-1.754-.51-.566-.266-1.15-.55-1.955-.55-.694 0-1.26.266-1.808.511-.347.17-.713.34-1.133.435.091.076.164.17.256.246.347-.113.676-.264.986-.397.548-.246 1.042-.492 1.681-.492.73 0 1.26.265 1.827.53.548.265 1.133.548 1.882.548.84 0 1.461-.302 2.064-.586.53-.246 1.041-.492 1.68-.492.713 0 1.188.246 1.682.492.31.17.62.322 1.004.435.092-.076.183-.17.275-.246-.457-.094-.804-.283-1.151-.473-.494-.264-1.005-.53-1.81-.53" fill="#98867D"/><path d="M31.328 23.083c-.694 0-1.26.265-1.79.53-.567.265-1.151.548-1.937.548-.694 0-1.206-.246-1.754-.51-.566-.265-1.15-.549-1.955-.549-.694 0-1.26.265-1.808.51-.22.095-.439.209-.658.285l.274.226c.183-.075.347-.15.512-.226.548-.246 1.04-.492 1.68-.492.731 0 1.26.265 1.827.53.548.264 1.133.548 1.882.548.84 0 1.462-.284 2.064-.586.53-.246 1.042-.492 1.681-.492.713 0 1.188.246 1.68.492.165.094.348.189.53.264l.275-.227c-.238-.094-.457-.208-.676-.321-.512-.265-1.023-.53-1.827-.53" fill="#98867D"/><path d="M31.328 23.67c-.694 0-1.26.264-1.79.53-.567.264-1.151.548-1.937.548-.694 0-1.206-.246-1.754-.511-.566-.284-1.15-.549-1.955-.549-.694 0-1.26.265-1.808.511-.055.038-.128.057-.183.095.091.075.183.132.274.208.018 0 .018 0 .037-.02.548-.245 1.04-.49 1.68-.49.731 0 1.26.264 1.827.529.548.264 1.133.548 1.882.548.84 0 1.462-.302 2.064-.567.53-.265 1.042-.492 1.681-.492.713 0 1.188.246 1.68.492.02.019.037.019.074.038.091-.057.183-.133.274-.19a1.973 1.973 0 01-.2-.113c-.53-.303-1.042-.567-1.846-.567" fill="#98867D"/><path d="M29.538 24.767c-.567.264-1.151.548-1.937.548-.694 0-1.206-.246-1.754-.51-.566-.265-1.15-.55-1.955-.55-.566 0-1.041.171-1.498.38.11.075.201.132.31.188.366-.151.75-.265 1.188-.265.731 0 1.26.246 1.827.53.548.265 1.133.549 1.882.549.84 0 1.462-.303 2.064-.587.53-.265 1.042-.492 1.681-.492.512 0 .877.114 1.242.284.11-.057.201-.132.311-.189-.42-.208-.895-.397-1.535-.397-.73-.019-1.278.246-1.826.51" fill="#98867D"/><path d="M27.656 26.204c-5.408 0-9.793-4.54-9.793-10.137 0-5.599 4.385-10.138 9.793-10.138 5.407 0 9.792 4.54 9.792 10.138s-4.385 10.137-9.792 10.137m0-22.204C21.225 4 16 9.41 16 16.067s5.207 12.066 11.637 12.066c6.431 0 11.656-5.39 11.656-12.066C39.293 9.409 34.087 4 27.656 4" fill="#EC1B2E"/><path d="M33.1 13.078c-.073.379-.438.776-.64.946-.456.378-3.47 2.288-3.818 2.723-.347.435-.402 1.078-.402 1.59v3.668h.475v-.945c0-.322.183-.833.548-1.23.622-.68 2.065-1.513 2.997-2.232.785-.605.84-1.4.84-2.118v-2.515.113z" fill="#00A84F"/><path d="M28.259 16.52c.328-.435 3.434-2.402 3.891-2.78.438-.378.968-.945.968-1.664V7.953c0 .586-.31 1.021-.712 1.57-.457.624-2.54 1.796-3.581 2.534-1.023.756-1.388 1.494-1.388 2.42v7.49h.456v-3.896c-.018-.491.019-1.116.366-1.55M25.884 12.265c-.95-.757-2.887-2.364-3.106-2.686-.22-.321-.73-.889-.73-1.588v3.82c0 .549.255 1.532 1.168 2.232.914.7 2.21 1.702 2.595 2.1.383.396.749 1.134.749 2.174v3.688h.456v-7.357c.037-1.173-.182-1.626-1.132-2.383" fill="#00A84F"/><g fill="#98867D"><path d="M17.864 30.213h-.52s-.62.795-.64.836v-.836h-.441v2.043h.44v-.897l.67.897h.561s-.85-1.083-.86-1.104c.01-.01.82-.949.82-.949h-.03v.01zM20.286 30.77c0 .31.19.454.48.568l.03.01c.16.062.33.124.33.31 0 .144-.09.278-.26.278-.18 0-.32-.144-.37-.289l-.01-.02-.29.268.01.01c.16.258.4.403.67.403.431 0 .711-.279.711-.702 0-.402-.3-.526-.54-.619-.17-.072-.31-.124-.31-.258s.13-.216.25-.216.22.051.31.165l.01.01.21-.289-.01-.01c-.14-.145-.41-.227-.59-.227a.598.598 0 00-.63.609M24.64 30.213h-.52s-.621.795-.651.836v-.836h-.44v2.043h.44v-.897l.67.897h.56s-.85-1.083-.86-1.104c.01-.01.82-.949.82-.949h-.02v.01zM29.234 30.152h-.31v2.094h.44v-1.352c.03.042 1.11 1.403 1.11 1.403h.32v-2.084h-.44v1.352c-.03-.041-1.11-1.413-1.12-1.413zM35.459 30.152h-.31v2.094h.44v-1.352c.03.042 1.11 1.403 1.11 1.403h.321v-2.084h-.44v1.352c-.03-.041-1.121-1.413-1.121-1.413zM39.132 30.213h-.52s-.621.795-.651.836v-.836h-.44v2.043h.44v-.897l.67.897h.56s-.85-1.083-.86-1.104c.01-.01.82-.949.82-.949h-.02v.01zM19.015 30.791c.02.052.24.67.25.702h-.48c.02-.042.22-.66.23-.702zm.18-.64h-.33l-.84 2.095h.46s.17-.413.18-.423h.72c.01.02.16.423.16.423h.47l-.82-2.094z"/><path d="M25.31 31.74a.735.735 0 01-.24-.526c0-.31.25-.65.62-.65.15 0 .29.052.401.165.13.124.21.31.21.485 0 .31-.27.691-.62.691a.574.574 0 01-.37-.165m-.701-.516c0 .31.12.599.34.805.2.186.45.279.73.279.611 0 1.062-.465 1.062-1.073 0-.3-.12-.588-.34-.795-.2-.185-.451-.278-.731-.278-.59-.01-1.061.464-1.061 1.062M27.612 30.554c.15 0 .24.02.3.082.04.031.06.073.07.135 0 .02.01.051.01.072 0 .216-.11.299-.38.299h-.04v-.588h.04zm-.47-.34h-.01v2.042h.44v-.794c.03.041.51.794.51.794h.531s-.59-.836-.61-.856c.29-.052.43-.33.43-.568 0-.051 0-.092-.01-.134a.573.573 0 00-.16-.31c-.12-.113-.31-.175-.56-.175h-.561zM31.816 30.544c.11 0 .18.02.22.061.03.031.05.073.06.124v.062c0 .186-.08.258-.29.258h-.04v-.505h.05zm.02.825c.14 0 .28.01.36.082.03.031.05.073.06.124 0 .02.01.041.01.062 0 .258-.19.279-.41.279h-.07v-.547h.05zm-.49-1.156l-.01 2.043h.67c.43 0 .69-.217.69-.588 0-.041 0-.072-.01-.113-.03-.186-.14-.361-.35-.403.13-.093.18-.258.18-.392 0-.051 0-.093-.01-.134a.524.524 0 00-.14-.278c-.11-.104-.27-.155-.5-.155h-.52v.02zM33.877 30.791c.02.052.24.67.25.702h-.47c0-.042.2-.66.22-.702zm.18-.64h-.33l-.84 2.095h.46s.17-.413.18-.423h.72c.01.02.16.423.16.423h.471l-.82-2.094z"/></g></g></g></svg>