<?xml version="1.0" encoding="UTF-8"?><svg width="56" height="36" viewBox="0 0 56 36" xmlns="http://www.w3.org/2000/svg"><g fill="none" fill-rule="evenodd"><path d="M0 3.75A3.749 3.749 0 013.75 0h48.5A3.756 3.756 0 0156 3.75v28.5A3.749 3.749 0 0152.25 36H3.75A3.756 3.756 0 010 32.25V3.75z" fill="#000" fill-rule="nonzero"/><path d="M1.25 3.75v28.5c0 1.375 1.123 2.5 2.5 2.5h48.5c1.382 0 2.5-1.118 2.5-2.5V3.75c0-1.375-1.123-2.5-2.5-2.5H3.75a2.499 2.499 0 00-2.5 2.5z" fill="#FFF"/><g><path d="M8.854 10.61c-.237-.14-.542-.218-.914-.253-.94-.06-.855-.697-.855 6.626 0 6.015.008 6.33.152 6.46.127.122.347.148 1.169.148.677 0 1.05-.035 1.117-.104.068-.07.102-.558.102-1.613 0-.828.034-1.508.068-1.508s.576.61 1.202 1.368c.627.75 1.245 1.474 1.363 1.613l.23.244h1.388c1.295 0 1.405-.008 1.55-.174.16-.183.135-.2-1.931-2.336-1.152-1.186-2.092-2.197-2.092-2.241-.008-.052.864-.959 1.922-2.023 1.685-1.682 1.923-1.952 1.838-2.092-.085-.14-.246-.157-1.516-.183-1.676-.026-1.338-.218-2.913 1.639l-1.067 1.255-.042-2.999c-.042-2.911-.05-3.016-.229-3.312-.101-.175-.347-.401-.542-.515zm9.019-.052c-.407-.21-1.38-.288-1.533-.122-.152.157-.161 12.894-.009 13.05.144.149 2.194.149 2.338 0 .076-.078.101-.775.101-2.597 0-2.441.009-2.494.203-2.938.246-.532.686-.872 1.237-.95.787-.114 1.515.313 1.693 1.002.043.183.085 1.43.093 2.807.009 2.11.026 2.502.144 2.624.187.227 2.134.236 2.346.01.127-.132.135-.428.102-3.07-.043-3.164-.085-3.548-.542-4.341-.33-.593-.966-1.116-1.618-1.351-.449-.157-.745-.201-1.456-.201-.923 0-1.313.105-1.88.497-.119.087-.237.157-.263.157-.025 0-.059-.837-.076-1.866l-.025-1.865-.263-.34a2.056 2.056 0 00-.592-.506zm11.042 4.071l-2.355.061.017 8.797h2.338v-8.858zm7.46.035c-.712-.174-5.225-.21-5.394-.035-.077.079-.102 1.56-.102 6.138 0 5.274.017 6.041.127 6.137.085.079.322.096.745.07.703-.044 1.084-.253 1.423-.759.178-.287.203-.418.228-1.473l.034-1.15h1.076c1.896 0 2.769-.306 3.742-1.3 1.702-1.752 1.753-4.768.11-6.477a4.095 4.095 0 00-1.99-1.15zm6.765-.035c-.067-.07-.448-.104-1.168-.104s-1.101.034-1.169.104c-.135.14-.144 5.04-.008 5.789.27 1.543 1.32 2.694 2.803 3.095 1.99.54 4.022-.262 4.885-1.918.415-.81.517-1.665.517-4.42 0-2.04-.017-2.398-.135-2.51-.102-.114-.34-.14-1.169-.14-.686 0-1.067.034-1.135.104-.076.079-.101.741-.101 2.433 0 3.05-.068 3.408-.762 3.888-.381.27-1.27.279-1.685.017-.72-.453-.771-.697-.771-3.757 0-1.814-.025-2.502-.102-2.58zm-9.72 4.42v-2.1l1.126.034c1.168.035 1.583.157 1.939.567.457.514.55 1.752.203 2.51-.398.872-.864 1.09-2.303 1.09h-.966v-2.1z" fill="#4E3478" fill-rule="nonzero"/><path d="M28.381 13.145c1.059-.506 1.313-1.761.525-2.615-.483-.524-1.11-.663-1.736-.401a1.646 1.646 0 00-.06 3.016c.433.21.84.21 1.271 0z" fill="#00BBEA"/></g></g></svg>