<?xml version="1.0" encoding="UTF-8"?><svg width="56" height="36" viewBox="0 0 56 36" xmlns="http://www.w3.org/2000/svg"><g fill="none" fill-rule="evenodd"><path d="M0 3.75A3.749 3.749 0 013.75 0h48.5A3.756 3.756 0 0156 3.75v28.5A3.749 3.749 0 0152.25 36H3.75A3.756 3.756 0 010 32.25V3.75z" fill="#000" fill-rule="nonzero"/><path d="M1.25 3.75v28.5c0 1.375 1.123 2.5 2.5 2.5h48.5c1.382 0 2.5-1.118 2.5-2.5V3.75c0-1.375-1.123-2.5-2.5-2.5H3.75a2.499 2.499 0 00-2.5 2.5z" fill="#FFF"/><path d="M14.75 23.68h2.217V13H14.75v10.68zm14.035-6.175v-.956h-2.071v7.131h2.096v-3.737c0-1.084 1.192-1.56 2.01-1.32.008.003.016.001.024.001V16.55c-.858 0-1.647.383-2.059.956zm-7.13 4.524c-1.086 0-1.966-.857-1.966-1.914s.88-1.914 1.966-1.914c1.086 0 1.966.857 1.966 1.914s-.88 1.914-1.966 1.914zm1.946-4.986a3.584 3.584 0 00-2.116-.691c-2.025 0-3.666 1.685-3.666 3.763s1.641 3.763 3.666 3.763c.788 0 1.518-.257 2.116-.692v.494h1.81v-7.13h-1.81v.493zm12.426-.686c-.83 0-1.617.265-2.142.995v-.803h-2.071v7.131h2.096v-3.9c0-1.085.708-1.616 1.561-1.616.914 0 1.44.561 1.44 1.601v3.915h2.077v-4.535c0-1.66-1.285-2.788-2.96-2.788zm13.497 4.794c-.721 0-1.306.6-1.306 1.34 0 .74.585 1.34 1.306 1.34.72 0 1.305-.6 1.305-1.34 0-.74-.584-1.34-1.305-1.34zm-5.965.878c-1.086 0-1.966-.857-1.966-1.914s.88-1.914 1.966-1.914c1.086 0 1.966.857 1.966 1.914s-.88 1.914-1.966 1.914zm1.946-4.986a3.584 3.584 0 00-2.116-.691c-2.025 0-3.666 1.685-3.666 3.763s1.641 3.763 3.666 3.763c.788 0 1.518-.257 2.116-.692v.494h1.81v-7.13h-1.81v.493zm3.127-.364h.101c.063 0 .09.032.09.08 0 .049-.017.085-.09.085h-.101v-.165zm.001.252h.101l.085.2h.101l-.094-.217c.06-.027.092-.081.092-.154 0-.102-.076-.17-.185-.17h-.193v.539h.093v-.198zM5 23.681h2.31V13H5v10.68zM13.24 13h-2.243c-.046 2.411-1.403 4.492-3.37 5.522l3.447 5.157h2.815l-3.133-4.69c1.564-1.576 2.453-3.7 2.484-5.989zm35.47 3.454c.22 0 .398.186.398.414a.406.406 0 01-.398.413.406.406 0 01-.397-.413c0-.228.178-.414.397-.414zm0 .926c.272 0 .493-.23.493-.512a.503.503 0 00-.493-.512.502.502 0 00-.492.512c0 .282.22.512.492.512z" fill-rule="nonzero" fill="#020302"/></g></svg>