<?xml version="1.0" encoding="UTF-8"?><svg width="56" height="36" viewBox="0 0 56 36" xmlns="http://www.w3.org/2000/svg" xmlns:xlink="http://www.w3.org/1999/xlink"><defs><rect id="a" x="0" y="0" width="38" height="26" rx="2"/></defs><g fill="none" fill-rule="evenodd"><path d="M0 3.75A3.749 3.749 0 013.75 0h48.5A3.756 3.756 0 0156 3.75v28.5A3.749 3.749 0 0152.25 36H3.75A3.756 3.756 0 010 32.25V3.75z" fill="#000" fill-rule="nonzero"/><path d="M1.25 3.75v28.5c0 1.375 1.123 2.5 2.5 2.5h48.5c1.382 0 2.5-1.118 2.5-2.5V3.75c0-1.375-1.123-2.5-2.5-2.5H3.75a2.499 2.499 0 00-2.5 2.5z" fill="#FFF"/><g><g transform="translate(9 5)"><mask id="b" fill="#fff"><use xlink:href="#a"/></mask><g mask="url(#b)" fill-rule="nonzero" fill="#FA82A0"><path d="M0 0h38v26H0z"/></g></g><g fill-rule="nonzero" fill="#FFF"><path d="M20.956 22.875h-1.13c0 .948-.426 1.812-1.166 2.382l-.446.341 1.733 2.413h1.424l-1.596-2.221a4.127 4.127 0 001.18-2.915zM16.917 22.875h1.155v5.136h-1.155zM21.706 22.875h1.09v5.136h-1.09zM32.354 24.361c-.416 0-.81.13-1.074.497v-.399h-1.034v3.552h1.049v-1.864c0-.538.355-.802.78-.802.456 0 .72.28.72.797v1.874h1.039v-2.262c0-.829-.644-1.393-1.48-1.393zm-6.264.098v.228a1.783 1.783 0 00-1.034-.326c-1.014 0-1.835.839-1.835 1.874 0 1.036.821 1.875 1.835 1.875.385 0 .74-.12 1.034-.327v.228h1.039V24.46h-1.04zm-.948 2.688c-.522 0-.943-.41-.943-.912s.421-.91.943-.91.943.408.943.91c0 .503-.42.912-.943.912zm3.598-2.227v-.46h-1.064v3.551h1.07v-1.657c0-.559.592-.86 1.003-.86h.01V24.46c-.42 0-.81.187-1.019.461zm8.327-.46v.227a1.783 1.783 0 00-1.034-.326c-1.013 0-1.834.839-1.834 1.874 0 1.036.82 1.875 1.834 1.875.386 0 .74-.12 1.034-.327v.228h1.04V24.46h-1.04zm-.947 2.687c-.522 0-.943-.41-.943-.912s.42-.91.943-.91c.522 0 .942.408.942.91.005.503-.42.912-.942.912zm3.096-.394c-.36 0-.654.3-.654.668 0 .368.294.668.654.668.36 0 .654-.3.654-.668a.66.66 0 00-.654-.668z"/></g><g fill-rule="nonzero" fill="#FFF"><path d="M34.854 19.999L26.693 8.31a14.96 14.96 0 00-5.779 9.275l13.94 2.413zm-14.533-2.232a15.519 15.519 0 016.278-10.076.274.274 0 01.384.068l8.706 12.467c.142.204-.03.479-.272.437l-14.87-2.574a.28.28 0 01-.226-.322z"/><path d="M27.57 9.596c-.07.072-.143.152-.245.268a124.236 124.236 0 00-.253.288c-.448.5-.765.732-1.07.737-1.39.023-2.064.921-2.026 2.125.003.084.008.157.018.261.016.173.018.205.017.267-.007.298-.226.648-1.063 1.563-1.021 1.117-1.051 2.417-.45 3.242.09.124.263.15.386.06a.282.282 0 00.058-.392c-.447-.615-.425-1.616.411-2.53.927-1.013 1.199-1.448 1.21-1.93.002-.093 0-.132-.019-.331a3.667 3.667 0 01-.015-.229c-.03-.916.431-1.53 1.481-1.548.511-.007.924-.309 1.471-.92a16.402 16.402 0 00.257-.292 5.94 5.94 0 01.224-.245.282.282 0 000-.395.274.274 0 00-.391.001zm-.613 9.356a2.184 2.184 0 012.253-1.331 2.198 2.198 0 011.943 2.058c.01.154.141.27.294.26a.278.278 0 00.257-.296 2.753 2.753 0 00-2.433-2.578 2.736 2.736 0 00-2.822 1.668.28.28 0 00.146.366c.14.06.303-.005.362-.147zm-.938-2.522a2.466 2.466 0 00-2.176.637.282.282 0 00-.012.395c.105.113.28.118.39.012a1.918 1.918 0 011.693-.496.28.28 0 00.105-.549zm3.794-.948a2.5 2.5 0 001.628 1.597.28.28 0 00.161-.534 1.944 1.944 0 01-1.266-1.243.275.275 0 00-.35-.174.28.28 0 00-.173.354z"/><path d="M27.384 16.038a2.015 2.015 0 01-2.004-2.027c0-1.12.897-2.027 2.004-2.027 1.106 0 2.003.908 2.003 2.027 0 1.12-.897 2.027-2.003 2.027zm0-.559a1.46 1.46 0 001.45-1.468c0-.81-.649-1.468-1.45-1.468a1.46 1.46 0 00-1.451 1.468c0 .81.65 1.468 1.45 1.468z"/></g></g></g></svg>