<?xml version="1.0" encoding="UTF-8"?><svg width="56" height="36" viewBox="0 0 56 36" xmlns="http://www.w3.org/2000/svg" xmlns:xlink="http://www.w3.org/1999/xlink"><defs><rect id="a" x="0" y="0" width="38" height="26" rx="2"/></defs><g fill="none" fill-rule="evenodd"><path d="M0 3.75A3.749 3.749 0 013.75 0h48.5A3.756 3.756 0 0156 3.75v28.5A3.749 3.749 0 0152.25 36H3.75A3.756 3.756 0 010 32.25V3.75z" fill="#000" fill-rule="nonzero"/><path d="M1.25 3.75v28.5c0 1.375 1.123 2.5 2.5 2.5h48.5c1.382 0 2.5-1.118 2.5-2.5V3.75c0-1.375-1.123-2.5-2.5-2.5H3.75a2.499 2.499 0 00-2.5 2.5z" fill="#FFF"/><g><g transform="translate(9 5)"><mask id="b" fill="#fff"><use xlink:href="#a"/></mask><g mask="url(#b)" fill="#FA82A0" fill-rule="nonzero"><path d="M0 0h38v26H0z"/></g></g><g fill="#FFF" fill-rule="nonzero"><path d="M20.956 22.875h-1.13c0 .948-.426 1.812-1.166 2.382l-.446.341 1.733 2.413h1.424l-1.596-2.221a4.127 4.127 0 001.18-2.915zM16.917 22.875h1.155v5.136h-1.155zM21.706 22.875h1.09v5.136h-1.09zM32.354 24.361c-.416 0-.81.13-1.074.497v-.399h-1.034v3.552h1.049v-1.864c0-.538.355-.802.78-.802.456 0 .72.28.72.797v1.874h1.039v-2.262c0-.829-.644-1.393-1.48-1.393zm-6.264.098v.228a1.783 1.783 0 00-1.034-.326c-1.014 0-1.835.839-1.835 1.874 0 1.036.821 1.875 1.835 1.875.385 0 .74-.12 1.034-.327v.228h1.039V24.46h-1.04zm-.948 2.688c-.522 0-.943-.41-.943-.912s.421-.91.943-.91.943.408.943.91c0 .503-.42.912-.943.912zm3.598-2.227v-.46h-1.064v3.551h1.07v-1.657c0-.559.592-.86 1.003-.86h.01V24.46c-.42 0-.81.187-1.019.461zm8.327-.46v.227a1.783 1.783 0 00-1.034-.326c-1.013 0-1.834.839-1.834 1.874 0 1.036.82 1.875 1.834 1.875.386 0 .74-.12 1.034-.327v.228h1.04V24.46h-1.04zm-.947 2.687c-.522 0-.943-.41-.943-.912s.42-.91.943-.91c.522 0 .942.408.942.91.005.503-.42.912-.942.912zm3.096-.394c-.36 0-.654.3-.654.668 0 .368.294.668.654.668.36 0 .654-.3.654-.668a.66.66 0 00-.654-.668z"/></g><g fill="#FFF" fill-rule="nonzero"><path d="M26.635 17.084c.268.271.274.713.013.99l-.053.057a.674.674 0 01-.965.013l-1.52-1.546c-.418-.43-.478-.962-.212-1.243l.053-.057a.608.608 0 01.827-.055c.119.096.29.075.384-.047a.285.285 0 00-.046-.394 1.146 1.146 0 00-1.559.107l-.053.057c-.493.52-.394 1.397.22 2.03l1.524 1.549a1.213 1.213 0 001.74-.024l.055-.058a1.288 1.288 0 00-.025-1.779.269.269 0 00-.386.004.286.286 0 00.003.396zm-.91-8.378l.622 5.25a.275.275 0 00.305.244.279.279 0 00.238-.312l-.624-5.266-.006-.034c-.106-.437.158-.926.51-1.003a.738.738 0 01.573.11.774.774 0 01.325.496l1.082 4.75c.035.15.182.244.329.209a.28.28 0 00.204-.337l-1.08-4.74a1.329 1.329 0 00-.559-.846 1.274 1.274 0 00-.987-.19c-.663.144-1.099.941-.932 1.669z"/><path d="M31.442 14.875l1.23-6.293a1.336 1.336 0 00-.902-1.556 1.354 1.354 0 00-1.652.986l-1.361 4.789a.282.282 0 00.186.348.272.272 0 00.339-.191l1.363-4.795a.808.808 0 01.98-.597.773.773 0 01.511.902l-1.23 6.297a.28.28 0 00.214.33.274.274 0 00.322-.22zm-3.098 6.063c-1.95 0-3.578-1.468-3.578-3.553a.277.277 0 00-.273-.28.277.277 0 00-.274.28c0 2.412 1.888 4.114 4.125 4.114a.277.277 0 00.274-.28.277.277 0 00-.274-.281zm-.964-4.905a.694.694 0 01-.27.386l-.058.04a.677.677 0 01-.952-.188l-1.195-1.826c-.327-.508-.284-1.042.03-1.263l.059-.04c.402-.24.744-.058 1.096.467l1 1.528a.27.27 0 00.38.076.285.285 0 00.074-.389l-1.001-1.53c-.495-.738-1.108-1.064-1.839-.628l-.075.051c-.588.414-.658 1.293-.18 2.039l1.198 1.83a1.215 1.215 0 001.71.339l.06-.042c.24-.169.413-.416.49-.7a.281.281 0 00-.19-.346.273.273 0 00-.337.196z"/><path d="M29.19 16.961c-.568.326-.921.939-.965 1.866a.278.278 0 00.26.294c.15.007.279-.112.286-.267.04-.84.358-1.293.873-1.491a1.813 1.813 0 01.907-.09c.352.068.46-.469.11-.55l-2.103-.481c-.985-.276-1.133-.65-.95-1.273.078-.271.24-.41.483-.466a1.313 1.313 0 01.614.02l3.192.765a.237.237 0 01.062.02.514.514 0 01.162.123c.213.235.332.677.272 1.403-.208 2.547-1.366 4.129-4.108 4.104a.277.277 0 00-.276.278.277.277 0 00.271.283c3.082.028 4.428-1.812 4.658-4.618.072-.873-.088-1.471-.418-1.833-.182-.2-.374-.289-.521-.31l-3.156-.757a1.824 1.824 0 00-.87-.026c-.428.098-.751.376-.89.854-.263.899.018 1.606 1.343 1.977l.764.175z"/></g></g></g></svg>