<?xml version="1.0" encoding="UTF-8"?><svg width="56" height="36" viewBox="0 0 56 36" xmlns="http://www.w3.org/2000/svg" xmlns:xlink="http://www.w3.org/1999/xlink"><defs><rect id="a" x="0" y="0" width="38" height="26" rx="2"/></defs><g fill="none" fill-rule="evenodd"><path d="M0 3.75A3.749 3.749 0 013.75 0h48.5A3.756 3.756 0 0156 3.75v28.5A3.749 3.749 0 0152.25 36H3.75A3.756 3.756 0 010 32.25V3.75z" fill="#000" fill-rule="nonzero"/><path d="M1.25 3.75v28.5c0 1.375 1.123 2.5 2.5 2.5h48.5c1.382 0 2.5-1.118 2.5-2.5V3.75c0-1.375-1.123-2.5-2.5-2.5H3.75a2.499 2.499 0 00-2.5 2.5z" fill="#FFF"/><g><g transform="translate(9 5)"><mask id="b" fill="#fff"><use xlink:href="#a"/></mask><g mask="url(#b)" fill-rule="nonzero" fill="#FA82A0"><path d="M0 0h38v26H0z"/></g></g><g fill-rule="nonzero" fill="#FFF"><path d="M20.956 22.875h-1.13c0 .948-.426 1.812-1.166 2.382l-.446.341 1.733 2.413h1.424l-1.596-2.221a4.127 4.127 0 001.18-2.915zM16.917 22.875h1.155v5.136h-1.155zM21.706 22.875h1.09v5.136h-1.09zM32.354 24.361c-.416 0-.81.13-1.074.497v-.399h-1.034v3.552h1.049v-1.864c0-.538.355-.802.78-.802.456 0 .72.28.72.797v1.874h1.039v-2.262c0-.829-.644-1.393-1.48-1.393zm-6.264.098v.228a1.783 1.783 0 00-1.034-.326c-1.014 0-1.835.839-1.835 1.874 0 1.036.821 1.875 1.835 1.875.385 0 .74-.12 1.034-.327v.228h1.039V24.46h-1.04zm-.948 2.688c-.522 0-.943-.41-.943-.912s.421-.91.943-.91.943.408.943.91c0 .503-.42.912-.943.912zm3.598-2.227v-.46h-1.064v3.551h1.07v-1.657c0-.559.592-.86 1.003-.86h.01V24.46c-.42 0-.81.187-1.019.461zm8.327-.46v.227a1.783 1.783 0 00-1.034-.326c-1.013 0-1.834.839-1.834 1.874 0 1.036.82 1.875 1.834 1.875.386 0 .74-.12 1.034-.327v.228h1.04V24.46h-1.04zm-.947 2.687c-.522 0-.943-.41-.943-.912s.42-.91.943-.91c.522 0 .942.408.942.91.005.503-.42.912-.942.912zm3.096-.394c-.36 0-.654.3-.654.668 0 .368.294.668.654.668.36 0 .654-.3.654-.668a.66.66 0 00-.654-.668z"/></g><g fill-rule="nonzero" fill="#FFF"><path d="M17.993 11.715a43.807 43.807 0 014.561-.257c1.07 0 1.846.036 2.904.116l.491.038c.188.014.335.025.477.034.465.03.859.046 1.276.046.15 0 .273-.123.273-.274a.273.273 0 00-.273-.274c-.404 0-.787-.015-1.24-.045-.14-.009-.286-.02-.472-.034l-.49-.037a35.348 35.348 0 00-2.947-.118 44.353 44.353 0 00-4.863.287.273.273 0 00-.241.272v.86c0 .045.01.089.032.129.216.408.353.854.404 1.314.072 1.42.215 2.31.652 3.202.634 1.292 1.765 2.022 3.482 2.022 3 .002 3.889-.682 4.532-2.723l.1-.318c.04-.123.072-.224.105-.321-.037.108.45-1.373.558-1.635.158-.385.274-.516.388-.516.15 0 .273-.123.273-.274a.273.273 0 00-.273-.274c-.406 0-.657.284-.891.855-.116.283-.614 1.797-.57 1.666l-.108.332-.1.319c-.29.918-.5 1.323-.947 1.668-.578.445-1.531.674-3.067.673-1.507 0-2.45-.609-2.994-1.717-.394-.804-.528-1.638-.598-3.004a4.245 4.245 0 00-.434-1.465v-.547z"/><path d="M22.101 17.503h-.028a2.363 2.363 0 01-1.756-.695c-.948-.967-.932-2.573-.932-2.65a7.801 7.801 0 01-.034-.749.882.882 0 01.194-.653.87.87 0 01.599-.317c.659-.074 1.67-.11 2.335-.118 1.707-.02 2.637.085 3.016.337.51.335.444.834 0 2.26l-.12.308c-.443 1.466-.693 2.277-3.274 2.277zm.966-4.687l-2.586 3.255a.275.275 0 00.042.385.27.27 0 00.383-.043l2.586-3.254a.275.275 0 00-.043-.386.27.27 0 00-.382.043zm-1.715-.11l-1.485 1.868a.275.275 0 00.043.385.27.27 0 00.382-.043l1.485-1.868a.275.275 0 00-.043-.385.27.27 0 00-.382.043zm16.06-.991v.547a4.23 4.23 0 00-.433 1.449c-.071 1.382-.205 2.216-.6 3.02-.543 1.108-1.486 1.717-2.993 1.717-1.534 0-2.487-.23-3.066-.678-.447-.345-.658-.751-.95-1.672l-.099-.316c-.04-.125-.073-.228-.108-.329.045.131-.453-1.383-.569-1.666-.234-.57-.485-.855-.892-.855a.273.273 0 00-.272.274c0 .151.122.274.272.274.115 0 .231.131.389.516a56 56 0 01.662 1.953l.1.315c.646 2.045 1.535 2.732 4.533 2.732 1.717 0 2.847-.73 3.482-2.022.437-.892.58-1.781.653-3.219.05-.443.187-.89.403-1.297a.276.276 0 00.032-.13v-.859a.273.273 0 00-.242-.272 44.348 44.348 0 00-4.861-.287c-1.087 0-1.877.036-2.947.118l-.491.037c-.186.015-.332.025-.472.034-.453.03-.836.045-1.24.045a.273.273 0 00-.273.274c0 .151.122.274.272.274.418 0 .812-.015 1.277-.046l.477-.034.49-.038a34.825 34.825 0 012.906-.116c1.522.006 3.045.092 4.56.257z"/><path d="M33.296 17.503c-2.58 0-2.831-.81-3.284-2.275l-.1-.321c-.451-1.426-.51-1.922 0-2.26.379-.257 1.31-.357 3.016-.336.667 0 1.677.043 2.336.118a.875.875 0 01.601.322c.15.185.218.422.191.658 0 .258 0 .515-.036.772 0 .047.016 1.662-.933 2.63a2.363 2.363 0 01-1.758.694h-.033v-.002zm-1.5-4.797l-1.485 1.868a.275.275 0 00.043.385.27.27 0 00.382-.043l1.485-1.868a.275.275 0 00-.043-.385.27.27 0 00-.382.043zm1.714.11l-2.586 3.255a.275.275 0 00.043.385.27.27 0 00.382-.043l2.586-3.254a.275.275 0 00-.042-.386.27.27 0 00-.383.043z"/></g></g></g></svg>