<svg width="56" height="36" xmlns="http://www.w3.org/2000/svg"><g fill="none" fill-rule="evenodd"><path d="M0 3.75A3.75 3.75 0 0 1 3.75 0h48.5A3.76 3.76 0 0 1 56 3.75v28.5A3.75 3.75 0 0 1 52.25 36H3.75A3.76 3.76 0 0 1 0 32.25V3.75z" fill="#000" fill-rule="nonzero"/><path d="M1.25 3.75v28.5a2.5 2.5 0 0 0 2.5 2.5h48.5a2.5 2.5 0 0 0 2.5-2.5V3.75a2.5 2.5 0 0 0-2.5-2.5H3.75a2.5 2.5 0 0 0-2.5 2.5z" fill="#FFF"/><g fill-rule="nonzero"><path d="M30.77 17.9l5.17-2.99c.46-.27.2-.55-.11-.55v-.11h3.7v.11a4.9 4.9 0 0 0-1.74.7l-4.66 2.65 5.43 4.2c.41.3.77.61 1.23.66v.12h-3.71l-5.31-4.27v3.3c0 .54.3.85.85.85v.12h-4v-.12c.54 0 .85-.3.85-.86v-6.48c0-.55-.3-.87-.85-.87v-.11h4v.11c-.55 0-.85.32-.85.87v2.68M51.95 20.28c0 1.46-1.36 2.4-4.63 2.41h-6.3v-.12c.54 0 .85-.3.85-.86v-6.48c0-.55-.3-.87-.85-.87v-.11h6.68c2.76 0 3.73.9 3.73 1.95 0 1.41-1.49 1.9-2.88 2.02 1.46 0 3.4.48 3.4 2.06zm-3-3.81c0-1.16-1.35-1.32-2.74-1.3-.6 0-1.3.02-2.04.1v2.5s.82.03 1.36.03c2.76-.02 3.42-.37 3.42-1.33zm-2.16 5.26c1.18 0 2.64-.18 2.64-1.47 0-1.77-3-1.58-5.26-1.45v2.26c0 .3.38.62.83.64.53.02 1.79.02 1.79.02z" fill="#000"/><path fill="#C03" d="M5 10h16.76v8.59H5z"/><path fill="#000" d="M5 18.45h16.76v8.46H5z"/><path fill="#FFF" d="M8.56 18.45h9.58v.81H8.56z"/></g></g></svg>