<?xml version="1.0" encoding="UTF-8"?><svg width="56" height="36" viewBox="0 0 56 36" xmlns="http://www.w3.org/2000/svg"><g fill="none" fill-rule="evenodd"><path d="M0 3.75A3.749 3.749 0 013.75 0h48.5A3.756 3.756 0 0156 3.75v28.5A3.749 3.749 0 0152.25 36H3.75A3.756 3.756 0 010 32.25V3.75z" fill="#000" fill-rule="nonzero"/><path d="M1.25 3.75v28.5c0 1.375 1.123 2.5 2.5 2.5h48.5c1.382 0 2.5-1.118 2.5-2.5V3.75c0-1.375-1.123-2.5-2.5-2.5H3.75a2.499 2.499 0 00-2.5 2.5z" fill="#FFF"/><g transform="translate(17 5)"><ellipse fill="#019BDB" fill-rule="nonzero" cx="10.627" cy="10.567" rx="10.254" ry="10.567"/><path d="M17.033 6.89c-.036-.073-.072-.11 0-.147.071-.073.071-.184.035-.294a1.144 1.144 0 00-.321-.405 8.582 8.582 0 00-2.323-1.618 2.068 2.068 0 00-.821-.184c-.358-.037-.68.22-.787.552-.035.147-.035.294-.035.404.035.368-.179.7-.536.773-.322.11-.68.073-.965-.11a.774.774 0 01-.322-.957c.25-.662.822-1.14 1.501-1.214.179-.037.322.037.429.184.071-.037.107-.074.143-.11.143-.221.036-.442-.215-.515-.107-.037-.357-.074-.357-.074-.071-.037-.107-.11-.179-.184-.035-.037-.071-.037-.107-.037h-.178s-.108-.073-.179-.147a1.16 1.16 0 00-1.322-.073c-.179.11-.322.22-.465.33-.107.111-.285.148-.428.111.035-.073.107-.147.035-.22-.035-.037-.107-.074-.178-.037-.072.036-.143.11-.143.184 0 .11.071.22.143.22.035 0 .107.037.143.037-.143.147-.358.184-.5.074-.072-.037-.25-.11-.072-.221.036-.037.036-.037.036-.074.035-.073-.036-.147-.108-.184h-.035c-.143-.036-.215.074-.215.184-.035.295.143.552.43.589h.07c.144 0 .144.073.072.147-.214.294-.393.589-.572.883-.143.257-.393.441-.679.552-.428.147-.678-.074-.607-.515.036-.442-.143-.662-.607-.662-.286 0-.572.11-.822.257-.5.294-.93.699-1.322 1.14a5.927 5.927 0 00-.75 1.104c-.072.147-.143.294.035.404.072.037 0 .074 0 .11-.357.369-.572.81-.643 1.325a6.175 6.175 0 000 1.986c.036.331.071.626.179.957.035.11.071.22.178.184.179-.037.179.073.215.184.178.846.464 1.655.857 2.427.25.442.465.883.643 1.361.072.147.108.331.108.479a.248.248 0 01-.25.257H5.17a.498.498 0 00-.214-.074c-.036 0-.072-.073-.143-.036-.036.036 0 .11 0 .147.107.257.393.368.643.33.25-.073.464-.293.464-.588 0-.257-.035-.515-.107-.735-.214-.662-.5-1.325-.679-2.023-.071-.221-.107-.442.143-.589.072-.074.143-.147.179-.258.107-.257.179-.514.214-.772 0-.074.072-.184.143-.184.5-.11.893-.478 1.036-.993.036-.11.072-.147.215-.147.571.11 1.143-.11 1.465-.589.071-.11.107-.073.143.037.107.22.25.441.393.625.178.184.178.258.035.479a.979.979 0 01-.357.294c-.071.037-.143.037-.214.037-.286-.074-.572-.11-.822-.074a.889.889 0 00-.715.331.4.4 0 00-.071.442c.036.11.143.183.286.22.071 0 .178 0 .071-.11a.24.24 0 010-.22c.072-.074.143-.038.215 0 .393.146.821.11 1.214-.074.036-.037.108-.074.143-.037.072.037.107.11.072.184-.072.147.035.11.107.11.179-.037.286-.257.214-.441 0-.074-.035-.147.036-.221a.848.848 0 00.25-.258c.036-.036.072-.073.143-.036.286.184.608.33.93.404.106.037.07.074.035.147-.107.148-.215.295-.357.405-.215.184-.5.258-.75.184a1.484 1.484 0 00-.894.037.503.503 0 00-.393.404.43.43 0 00.143.442c.071.073.214.11.321.073-.035-.073-.107-.147-.143-.22 0-.074 0-.147.072-.184a.106.106 0 01.143 0c.5.257.965.11 1.393-.11.179-.11.322-.074.358.147.035.147.071.11.143.036a.342.342 0 00.035-.441l-.035-.037c-.072-.073-.072-.147.035-.184.215-.11.393-.294.572-.478.071-.074.179-.11.25-.074.322.11.572.295.715.589a1.6 1.6 0 01-.572 2.17h-.036c-.178.11-.393.147-.571.11a.248.248 0 01-.25-.257v-.037c0-.073.035-.147.035-.22 0-.037.036-.11 0-.11-.035-.037-.107 0-.143.036-.107.074-.143.22-.143.368 0 .184-.035.22-.214.11-.143-.073-.214-.22-.286-.368 0-.036 0-.11-.071-.11-.072 0-.072.074-.107.11-.072.221-.036.442.107.589.143.147.357.257.571.294.072 0 .179 0 .25.074.322.294.787.404 1.18.294.143 0 .143.037.107.147a1.38 1.38 0 01-.179.405c-.536.92-1.322 1.25-2.322 1.25a.936.936 0 01-.858-.882c0-.368.143-.736.393-.993.036-.037.107-.074.107-.148-.25 0-.464.11-.607.295-.357.478-.357.993-.072 1.545-.393-.11-.75-.295-1.036-.626-.286-.368-.393-.846-.214-1.287.179-.405.536-.7.965-.7.25-.036.5 0 .75.038.036 0 .071.036.107 0 .036-.037 0-.074-.036-.11a.979.979 0 00-.428-.332 1.437 1.437 0 00-1.608.552c-.5.773-.322 1.802.393 2.391a2.87 2.87 0 001.286.552c.143 0 .286.037.393.11a3.317 3.317 0 001.858.442 3.209 3.209 0 002.323-1.178 3.207 3.207 0 00.643-2.464 3.068 3.068 0 010-.81 3.992 3.992 0 00-.107-2.243 2.96 2.96 0 00-.465-.81c.036-.036.072-.036.107 0 .465.221.965.258 1.465.111.107-.037.143 0 .143.147 0 .294 0 .552.036.846.071.442.179.92.572 1.214.178.147.143.22.071.368-.321.772-.607 1.545-.786 2.39-.107.332-.107.7-.036 1.068.072.257.322.44.608.367.25 0 .464-.22.5-.478-.107.037-.179.11-.286.147-.143.074-.321.037-.393-.11 0-.037-.036-.037-.036-.074a1.08 1.08 0 010-.478c.072-.33.215-.662.358-.993.464-1.03 1.036-1.986 1.286-3.127 0-.036.036-.073.071-.073.25.037.286-.184.358-.331.107-.368.178-.736.25-1.104.429-1.287.25-2.464-.643-3.42zm-5.717-3.862c.071 0 .071.074.071.074s-.071.073-.107.036c-.071 0-.071-.073-.071-.073s.035-.037.107-.037zm-.179.037c0 .073.036.147.107.184.072 0 .179-.037.215-.11l.107.073h-.107s-.036 0-.036.037c-.036.037-.107.037-.179.037-.071 0-.143-.074-.143-.148 0-.036-.035-.073-.035-.11-.036 0 .035.037.071.037zm2.466 11.697a2.476 2.476 0 01-1.358 2.391c-.536.294-1.108.441-1.715.368l-.108-.037c.072-.073.108-.073.18-.073 1.035-.221 1.821-1.03 2.072-2.06.035-.11.107-.221.214-.258.214-.073.357-.22.5-.404.036-.037.072-.148.143-.11.072 0 .072.11.072.183z" fill="#FFF" fill-rule="nonzero"/><path d="M0 25.985V24.22h.407v.761l.646-.76h.457l-.66.788.704.977H1.09l-.5-.711-.183.191v.52H0zm1.686 0V24.22h.794a.51.51 0 01.23.053.61.61 0 01.303.328.57.57 0 01.023.374.614.614 0 01-.147.264.54.54 0 01-.12.09l.387.657h-.46l-.337-.57h-.266v.57h-.407zm.407-.925h.372c.048 0 .09-.023.125-.068a.281.281 0 00.052-.176.247.247 0 00-.06-.174c-.04-.043-.083-.065-.129-.065h-.36v.483zm2.014.577c.07 0 .128-.015.176-.044a.346.346 0 00.117-.115.495.495 0 00.063-.166.97.97 0 00.018-.19v-.903h.408v.903c0 .123-.016.237-.046.343a.79.79 0 01-.142.279.663.663 0 01-.243.188.83.83 0 01-.351.068.82.82 0 01-.36-.072.667.667 0 01-.243-.193.795.795 0 01-.136-.28 1.26 1.26 0 01-.044-.333v-.903h.408v.903c0 .068.006.133.02.194a.515.515 0 00.064.164c.03.048.068.086.115.115a.336.336 0 00.176.042zm1.504-.662v1.01h-.407V24.22h.318l.822 1.037V24.22h.407v1.766h-.328l-.812-1.01zm2.689.836a.662.662 0 01-.464.187.824.824 0 01-.78-.539.987.987 0 010-.712.869.869 0 01.812-.54c.164 0 .307.034.43.103a.67.67 0 01.275.282l-.303.23a.434.434 0 00-.172-.186.477.477 0 00-.245-.066.412.412 0 00-.328.155.536.536 0 00-.092.17.658.658 0 00.003.421c.023.065.055.12.097.168a.441.441 0 00.337.15c.16 0 .303-.073.43-.22v-.056h-.343v-.296h.68v.923H8.3v-.174zm1.897-1.234H9.66v1.408h-.408v-1.408h-.538v-.358h1.482v.358zm1.715-.358v1.766h-.407v-.724h-.702v.724h-.408V24.22h.408v.684h.702v-.684h.407zm.817 0h.368l.643 1.766h-.417l-.137-.395h-.549l-.134.395h-.417l.643-1.766zm.39 1.09l-.206-.625-.211.625h.417zm.795.676V24.22h.407v1.766h-.407zm2.78-.453a.402.402 0 01-.047.2.41.41 0 01-.129.14.61.61 0 01-.191.084.908.908 0 01-.231.03h-.86v-1.767h.982c.06 0 .116.014.166.04.05.027.092.061.127.103a.493.493 0 01.046.548.4.4 0 01-.19.17c.1.03.18.083.24.159a.467.467 0 01.087.293zm-.414-.082a.212.212 0 00-.048-.139.148.148 0 00-.119-.057h-.469v.385h.452a.178.178 0 00.184-.189zm-.636-.882v.365h.4a.178.178 0 00.119-.045c.035-.03.052-.076.052-.139 0-.058-.015-.103-.046-.134a.149.149 0 00-.11-.047h-.415zm1.733-.349h.367l.644 1.766h-.418l-.136-.395h-.549l-.134.395h-.417l.643-1.766zm.39 1.09l-.206-.625-.211.625h.417zm1.202-.334v1.01h-.408V24.22h.318l.822 1.037V24.22h.407v1.766h-.328l-.811-1.01zm1.477 1.01V24.22h.407v.761l.645-.76h.457l-.66.788.705.977h-.464l-.5-.711-.183.191v.52h-.407z" fill="#019BDB"/></g></g></svg>