<?xml version="1.0" encoding="UTF-8"?><svg width="56" height="36" viewBox="0 0 56 36" xmlns="http://www.w3.org/2000/svg" xmlns:xlink="http://www.w3.org/1999/xlink"><defs><path id="a" d="M0 2.074h17.376V0H0z"/></defs><g fill="none" fill-rule="evenodd"><path d="M0 3.75A3.749 3.749 0 013.75 0h48.5A3.756 3.756 0 0156 3.75v28.5A3.749 3.749 0 0152.25 36H3.75A3.756 3.756 0 010 32.25V3.75z" fill="#000" fill-rule="nonzero"/><path d="M1.25 3.75v28.5c0 1.375 1.123 2.5 2.5 2.5h48.5c1.382 0 2.5-1.118 2.5-2.5V3.75c0-1.375-1.123-2.5-2.5-2.5H3.75a2.499 2.499 0 00-2.5 2.5z" fill="#FFF"/><g transform="translate(6 10)"><path d="M5.203 9.636H4.037a2.308 2.308 0 01-.118-.207 3.105 3.105 0 00-.159-.302c-.124-.222-.268-.46-.43-.714a53.871 53.871 0 00-.654-.983l-.313-.468c-.13-.195-.235-.356-.313-.482l-.862.99v2.166H.176V2.784h1.012v3.44l2.735-3.44h1.194L2.67 5.737c.1.165.249.393.447.685.198.29.324.475.379.553.366.537.657.969.873 1.294.217.326.396.616.538.872l.295.495zm8.555-6.852l-1.783 6.924h-.989L9.67 5.215l-.154-.82-.159.825-1.334 4.488h-.866L5.256 2.784h1.039l1.098 4.448.231 1.242.227-1.242 1.302-4.448h.73l1.32 4.448.3 1.251.214-1.247 1.025-4.452h1.016zm1.705 0v6.852h-1.026V2.784h1.026zm4.204-.072c.387 0 .71.021.967.063.257.042.493.095.707.158l.136.036-.145.891a4.1 4.1 0 00-.317-.146c-.1-.04-.26-.082-.481-.124a4.342 4.342 0 00-.799-.063c-.463 0-.864.108-1.204.324-.34.216-.601.524-.783.923-.181.4-.272.867-.272 1.404 0 .535.09 1.009.272 1.423.182.414.442.737.783.968.34.23.74.346 1.2.346a4.169 4.169 0 001.306-.213 1.24 1.24 0 00.39-.205l.005.85c-.197.079-.365.14-.506.187-.14.047-.316.087-.526.122a4.41 4.41 0 01-.71.052c-.644 0-1.21-.144-1.695-.432A2.908 2.908 0 0116.87 8.06c-.264-.522-.397-1.127-.397-1.814 0-.73.145-1.361.436-1.895a3.04 3.04 0 011.166-1.22 3.147 3.147 0 011.592-.419zm7.88 6.924H26.38a2.308 2.308 0 01-.118-.207 3.105 3.105 0 00-.16-.302c-.123-.222-.267-.46-.43-.714a53.871 53.871 0 00-.654-.983l-.313-.468c-.13-.195-.234-.356-.313-.482l-.862.99v2.166H22.52V2.784h1.011v3.44l2.736-3.44h1.193l-2.445 2.953c.1.165.249.393.447.685.198.29.324.475.379.553.366.537.657.969.873 1.294.216.326.395.616.538.872l.294.495z" fill="#000" fill-rule="nonzero"/><rect fill="#000" x="29.313" width="14.687" height="11.42" rx="1.2"/><path d="M36.152 6.21v3.003a.788.788 0 00-.193.036 3.647 3.647 0 00-.27.099c-.281.108-.56.195-.835.26a4.506 4.506 0 01-1.03.1c-.665 0-1.238-.149-1.72-.446a2.889 2.889 0 01-1.1-1.231c-.252-.524-.378-1.119-.378-1.785 0-.76.14-1.405.42-1.936.28-.53.66-.93 1.143-1.197a3.32 3.32 0 011.635-.4c.348 0 .626.014.835.044.209.03.437.075.685.135.175.042.313.072.413.09l-.045.9a3.364 3.364 0 00-.813-.29c-.29-.064-.67-.097-1.138-.097-.403 0-.762.106-1.078.316-.316.21-.563.513-.742.909-.178.396-.267.864-.267 1.404 0 .544.078 1.027.236 1.45.157.423.396.757.716 1.002.321.244.716.366 1.185.366.269 0 .533-.021.791-.065.259-.043.45-.107.574-.191V6.989L33.92 6.93v-.72h2.233zm.62.054c0-.762.141-1.41.424-1.945.283-.534.667-.935 1.152-1.204a3.32 3.32 0 011.636-.403c.596 0 1.12.14 1.572.419.452.279.803.674 1.053 1.186.25.512.374 1.108.374 1.79 0 .77-.138 1.426-.413 1.967-.275.54-.654.947-1.136 1.222-.483.274-1.036.412-1.659.412-.602 0-1.13-.147-1.583-.441a2.894 2.894 0 01-1.05-1.225c-.247-.522-.37-1.115-.37-1.778zm5.186-.104c0-.489-.078-.937-.232-1.346a2.226 2.226 0 00-.683-.974c-.3-.242-.664-.363-1.09-.363-.403 0-.767.102-1.094.304-.327.203-.586.51-.778.92-.192.412-.288.92-.288 1.522 0 .487.08.936.24 1.349.16.412.398.743.712.992.315.25.693.374 1.135.374.42 0 .787-.107 1.1-.32.313-.213.554-.527.723-.943.17-.415.255-.92.255-1.515z" fill="#FFF" fill-rule="nonzero"/><path d="M.717 14.691H.192v-1.7a12.1 12.1 0 01.486-.017c.178 0 .317.038.417.114.1.075.15.183.15.323 0 .135-.07.241-.215.32.214.073.32.225.32.455a.442.442 0 01-.177.369.726.726 0 01-.456.136zm-.22-1.459v.408c.046.003.096.005.147.005.198 0 .297-.074.297-.222 0-.131-.09-.196-.27-.196-.048 0-.106.001-.174.005zm0 .644v.562c.061.006.111.008.15.008.135 0 .234-.023.295-.068.061-.046.092-.122.092-.228 0-.097-.029-.167-.086-.211-.057-.044-.156-.067-.298-.067l-.153.004zm1.913.817v-.105a.53.53 0 01-.171.09.624.624 0 01-.2.037c-.292 0-.437-.154-.437-.46v-.808h.292v.786c0 .16.073.239.217.239a.354.354 0 00.185-.051.26.26 0 00.114-.119v-.855h.292v1.246H2.41zm1.163.198a.4.4 0 01-.2.206.753.753 0 01-.36.082v-.256c.226 0 .34-.057.34-.169a1.03 1.03 0 00-.095-.341l-.392-.966h.304l.341.86.308-.86h.304l-.55 1.444zm2.68-.176h-.107L5.8 13.95l-.343.765h-.107l-.473-1.268h.308l.251.743.307-.743h.105l.318.747.271-.747h.288l-.474 1.268zm.876-1.75c.047 0 .087.017.12.05.033.032.05.072.05.119a.162.162 0 01-.05.119.164.164 0 01-.12.049.164.164 0 01-.12-.05.162.162 0 01-.05-.118c0-.047.017-.087.05-.12a.164.164 0 01.12-.049zm-.15 1.726v-1.006h-.161v-.238h.456v1.244h-.296zm.68-1.01h-.145v-.234h.146v-.253l.292-.107v.36h.344v.234h-.344v.545c0 .089.014.152.042.188.029.037.078.056.148.056.07 0 .136-.02.197-.057v.267a.939.939 0 01-.29.035c-.126 0-.222-.035-.289-.105-.067-.07-.1-.17-.1-.3v-.63zm1.718 1.01v-.766a.244.244 0 00-.072-.185.262.262 0 00-.19-.07.312.312 0 00-.146.04.27.27 0 00-.106.088v.893h-.297v-1.707l.297-.07v.612a.45.45 0 01.313-.102c.157 0 .278.043.365.13.087.086.13.21.13.37v.767h-.294zm1.887.2a.4.4 0 01-.2.206.753.753 0 01-.36.082v-.256c.226 0 .34-.057.34-.169a1.03 1.03 0 00-.094-.341l-.393-.966h.304l.341.86.308-.86h.304l-.55 1.444zm.643-.825c0-.19.055-.344.166-.463a.568.568 0 01.437-.179c.19 0 .339.057.444.172.105.115.158.271.158.47 0 .199-.054.356-.161.473a.569.569 0 01-.44.176c-.191 0-.34-.06-.445-.177a.68.68 0 01-.159-.472zm.305 0c0 .275.1.412.298.412a.257.257 0 00.217-.107.5.5 0 00.08-.305c0-.27-.099-.405-.297-.405a.259.259 0 00-.218.107.486.486 0 00-.08.298zm1.942.627v-.105a.53.53 0 01-.17.09.624.624 0 01-.201.037c-.291 0-.437-.154-.437-.46v-.808h.293v.786c0 .16.072.239.216.239a.354.354 0 00.185-.051.26.26 0 00.114-.119v-.855h.293v1.246h-.293zm1.334-.975a.309.309 0 00-.173-.051.234.234 0 00-.18.092.332.332 0 00-.08.224v.708h-.292v-1.244h.293v.114a.417.417 0 01.326-.137c.1 0 .177.015.23.045l-.124.249z" fill="#000" fill-rule="nonzero"/><g transform="translate(25.657 12.788)"><mask id="b" fill="#fff"><use xlink:href="#a"/></mask><path d="M2.411 1.883V.968a.53.53 0 00-.162-.42.58.58 0 00-.436-.16.597.597 0 00-.534.26.565.565 0 00-.503-.26.51.51 0 00-.445.217v-.18H0v1.458h.334V1.08a.332.332 0 01.09-.278.364.364 0 01.282-.11c.22 0 .33.138.33.385v.81h.335v-.807a.334.334 0 01.091-.277.366.366 0 01.281-.11c.226 0 .334.137.334.384v.81l.334-.005zM7.352.425h-.544v-.442h-.334v.442h-.302v.29h.309v.67c0 .34.136.54.528.54.146.001.29-.038.413-.112l-.095-.272a.63.63 0 01-.293.083c-.159 0-.22-.098-.22-.244V.715h.541l-.003-.29zM10.173.39a.453.453 0 00-.4.213V.425h-.328v1.458h.33v-.817c0-.241.109-.375.319-.375a.56.56 0 01.207.036l.101-.305a.735.735 0 00-.235-.04l.006.007zM5.908.54a1.176 1.176 0 00-.62-.152c-.385 0-.636.177-.636.466 0 .238.184.384.525.43l.159.022c.18.024.267.07.267.152 0 .113-.121.177-.347.177a.834.834 0 01-.506-.153l-.159.247c.193.13.424.196.659.19.439 0 .693-.199.693-.476 0-.278-.2-.39-.531-.436l-.16-.022C5.11.968 4.996.941 4.996.843c0-.098.108-.17.29-.17.167.001.332.044.477.124l.146-.256zm8.86-.152a.453.453 0 00-.4.213V.425h-.328v1.458h.33v-.817c0-.241.109-.375.318-.375a.56.56 0 01.207.036l.102-.305a.735.735 0 00-.235-.04l.006.007zm-4.262.762a.72.72 0 00.23.553.787.787 0 00.58.21.818.818 0 00.548-.174l-.16-.257a.687.687 0 01-.397.132.476.476 0 01-.449-.467c0-.244.196-.447.45-.467a.687.687 0 01.397.132l.159-.257a.818.818 0 00-.547-.173.787.787 0 00-.581.209.72.72 0 00-.23.553v.006zm3.098 0V.425h-.331v.177a.587.587 0 00-.477-.213c-.44 0-.795.341-.795.762s.356.762.795.762a.587.587 0 00.477-.213v.177h.33V1.15zm-1.231 0a.453.453 0 01.476-.414.45.45 0 01.442.447.45.45 0 01-.457.434.466.466 0 01-.337-.137.427.427 0 01-.124-.33zM8.38.389c-.439.006-.79.352-.784.773.006.42.367.757.806.751a.95.95 0 00.632-.198l-.16-.235a.743.743 0 01-.441.153.417.417 0 01-.455-.357h1.129v-.122c0-.457-.296-.762-.722-.762L8.38.389zm0 .283c.1-.002.197.034.269.1a.355.355 0 01.116.254h-.795a.385.385 0 01.404-.354h.006zm8.287.482V-.16h-.318v.762a.587.587 0 00-.477-.213c-.439 0-.795.341-.795.762s.356.762.795.762a.587.587 0 00.477-.213v.177h.318v-.723zm.552.517c.02 0 .041.003.06.01a.153.153 0 01.083.076.136.136 0 01-.033.16.16.16 0 01-.05.03.16.16 0 01-.204-.076.138.138 0 01.035-.159.16.16 0 01.114-.041h-.005zm0 .258a.117.117 0 00.083-.034.11.11 0 00-.083-.186.124.124 0 00-.084.034.11.11 0 000 .152c.01.01.024.019.038.024.016.007.034.01.051.01h-.005zm.01-.182c.015 0 .03.004.041.012.01.008.015.02.014.032 0 .01-.003.02-.01.028a.057.057 0 01-.034.014l.046.05h-.037l-.042-.05h-.015v.05h-.03v-.134l.067-.002zm-.035.026v.037h.035a.035.035 0 00.019 0 .015.015 0 000-.014.015.015 0 000-.014.035.035 0 00-.02 0l-.034-.009zm-1.75-.619a.453.453 0 01.476-.414.45.45 0 01.443.447.45.45 0 01-.457.434.466.466 0 01-.337-.137.427.427 0 01-.125-.33zm-11.169 0V.425h-.33v.177A.587.587 0 003.469.39c-.44 0-.796.341-.796.762s.356.762.796.762a.587.587 0 00.477-.213v.177h.33v-.723zm-1.23 0A.453.453 0 013.522.74a.45.45 0 01.442.447.45.45 0 01-.457.434.466.466 0 01-.34-.136.427.427 0 01-.125-.33h.004z" fill="#231F20" fill-rule="nonzero" mask="url(#b)"/></g><path fill="#FF5F00" d="M19.692 15.483h1.888v-3.367h-1.888z"/><path d="M19.812 13.8c0-.657.303-1.278.824-1.684a2.17 2.17 0 00-3.03.36 2.13 2.13 0 00.363 3.007c.783.61 1.884.61 2.667 0a2.132 2.132 0 01-.824-1.683" fill="#EB001B"/><path d="M24.127 13.8a2.15 2.15 0 01-2.158 2.14c-.484 0-.953-.16-1.333-.457a2.13 2.13 0 000-3.367 2.17 2.17 0 013.03.36c.3.377.462.843.462 1.323z" fill="#F79E1B"/></g></g></svg>