<?xml version="1.0" encoding="UTF-8"?><svg width="56" height="36" viewBox="0 0 56 36" xmlns="http://www.w3.org/2000/svg"><defs><radialGradient cx="49.655%" cy="-17.937%" fx="49.655%" fy="-17.937%" r="11.077%" gradientTransform="matrix(.12641 0 0 1 .434 0)" id="a"><stop stop-color="#0F86B2" offset="0%"/><stop stop-color="#70D3FE" offset="69.8%"/></radialGradient><radialGradient cx="22.535%" cy="7.392%" fx="22.535%" fy="7.392%" r="22.028%" gradientTransform="matrix(.98747 0 0 1 .003 0)" id="b"><stop stop-color="#6BC3FF" offset="23.9%"/><stop stop-color="#187FC4" offset="100%"/></radialGradient><linearGradient x1="38.092%" y1="-32.4%" x2="43.86%" y2="-21.244%" id="c"><stop stop-color="#FFF" offset="0%"/><stop stop-color="#8AFBFF" offset="100%"/></linearGradient></defs><g fill="none" fill-rule="evenodd"><path d="M0 3.75A3.749 3.749 0 013.75 0h48.5A3.756 3.756 0 0156 3.75v28.5A3.749 3.749 0 0152.25 36H3.75A3.756 3.756 0 010 32.25V3.75z" fill="#000" fill-rule="nonzero"/><path d="M1.25 3.75v28.5c0 1.375 1.123 2.5 2.5 2.5h48.5c1.382 0 2.5-1.118 2.5-2.5V3.75c0-1.375-1.123-2.5-2.5-2.5H3.75a2.499 2.499 0 00-2.5 2.5z" fill="#FFF"/><g fill-rule="nonzero"><path d="M7.296 14.452H6.018v7.822h3.705v-1.25H7.307v-6.572h-.011zm16.184-.23H22.22v8.05h1.259v-.388c.14.1.292.189.443.258a2.9 2.9 0 001.188.258c.866 0 1.582-.288 2.155-.854.573-.577.856-1.293.856-2.147 0-.824-.28-1.52-.834-2.097-.565-.577-1.259-.866-2.074-.874a2.812 2.812 0 00-1.73.557l-.004-2.763zm.505 3.936a1.523 1.523 0 011.168-.516c.463 0 .857.17 1.188.508.332.338.503.746.503 1.231 0 .517-.171.955-.503 1.302a1.607 1.607 0 01-1.208.516c-.421 0-.806-.17-1.137-.516a1.718 1.718 0 01-.503-1.223 1.783 1.783 0 01.492-1.302zm10.638 4.116V16.55h-1.258v.388a2.621 2.621 0 00-.394-.238 2.97 2.97 0 00-1.238-.278c-.857 0-1.581.289-2.155.866v-.011c-.573.577-.865 1.292-.865 2.136 0 .835.281 1.54.846 2.116v.011c.564.566 1.267.855 2.112.855a2.96 2.96 0 001.278-.278c.152-.07.282-.15.402-.238v.388h1.268l.004.008zm-4.107-4.116a1.607 1.607 0 011.208-.516c.433 0 .806.178 1.138.516.342.347.503.755.503 1.223 0 .508-.172.935-.503 1.302v-.011c-.332.347-.714.527-1.158.527-.463 0-.856-.17-1.188-.497a1.695 1.695 0 01-.503-1.232c-.01-.524.16-.963.503-1.312zm12.029-.904c-.574.566-.857 1.282-.857 2.136 0 .824.292 1.531.865 2.128v.01a2.911 2.911 0 002.135.885c.635 0 1.197-.169 1.68-.507.374-.258.685-.607.927-1.054l.261-.438h-1.469l-.09.13c-.12.158-.261.297-.433.408-.26.169-.553.258-.885.249-.463 0-.856-.15-1.168-.438a1.656 1.656 0 01-.472-.824h4.64v-.347c0-.935-.272-1.69-.814-2.277-.554-.586-1.259-.885-2.124-.885-.907-.03-1.632.258-2.196.824zm.533 1.481c.101-.297.253-.535.464-.735a1.575 1.575 0 011.076-.388c.452 0 .826.12 1.107.358h.01c.212.188.383.438.495.765h-3.152zm-5.666-2.097a2.405 2.405 0 00-.292.139v-.228h-1.247v5.725h1.247v-2.793c0-.416.011-.705.04-.874l.01-.01c.02-.14.07-.27.132-.378.11-.178.253-.308.433-.408.191-.1.402-.15.654-.138.402 0 .705.1.897.297.18.238.28.616.28 1.132v3.17h1.259v-2.98c0-.507-.03-.884-.081-1.142v-.011a2.236 2.236 0 00-.301-.755v-.01a2.118 2.118 0 00-.826-.706 2.632 2.632 0 00-1.146-.238c-.407.02-.758.08-1.059.208zM50.99 17.8v-1.25h-.986v-2.456h-1.267v2.455h-.986V17.8h.986v4.464h1.267V17.8h.986z" fill="#000"/><path d="M25.704 23.168c-.05-.01-.11-.01-.18-.01a.752.752 0 00-.342.08.702.702 0 00-.242.238.811.811 0 00-.09.397c0 .158.03.288.09.388.061.108.14.189.242.239a.81.81 0 00.362.08c.11 0 .202-.011.281-.04.081-.03.14-.069.18-.108l-.12-.13a.675.675 0 01-.141.08c-.062.02-.121.03-.191.04a.43.43 0 01-.23-.061.345.345 0 01-.161-.178.745.745 0 01-.062-.328c0-.138.02-.249.062-.338a.34.34 0 01.171-.169.45.45 0 01.391-.03c.05.02.101.05.152.08l.131-.13c-.04-.03-.09-.05-.131-.08-.07.021-.121.002-.172-.02zm-2.506.716c0 .15.031.277.09.388.06.1.141.178.242.238a.869.869 0 00.725 0c.11-.05.19-.13.241-.238a.8.8 0 00.09-.388.754.754 0 00-.09-.389.664.664 0 00-.241-.249.869.869 0 00-.725 0 .566.566 0 00-.242.239c-.07.11-.09.24-.09.399zm.363-.436a.424.424 0 01.331-.13c.14 0 .253.039.332.13.081.089.12.238.12.438 0 .13-.019.238-.05.327a.388.388 0 01-.16.178.492.492 0 01-.242.06.405.405 0 01-.23-.06.4.4 0 01-.16-.178.733.733 0 01-.06-.319c-.002-.208.038-.357.119-.446zm-1.22-.258h-.22v1.381h.864l.031-.17h-.685V23.19h.01zm5.537 0h-.23v1.381h.876l.03-.17h-.673V23.19h-.003zm-1.458 1.032h.615l.132.347h.241l-.522-1.382h-.292l-.534 1.382h.23l.13-.347zm.312-.885l.253.727h-.503l.25-.727zm6.703-.147h-.211v.746c0 .06 0 .119.011.177 0 .059.011.109.011.159.011.05.011.08.02.089l-.674-1.174h-.304v1.384h.211v-.635c0-.13 0-.239-.01-.328 0-.089-.012-.158-.02-.219l.674 1.182h.3V23.19h-.008zm-2.978.496a.23.23 0 00.05-.139c0-.119-.061-.208-.18-.268a1.13 1.13 0 00-.463-.08h-.402v1.38h.452c.132 0 .242-.01.343-.038a.424.424 0 00.23-.13c.062-.059.082-.13.082-.228 0-.08-.02-.139-.062-.189a.31.31 0 00-.14-.1c-.062-.03-.121-.039-.191-.05.059-.01.11-.03.151-.05.068-.03.1-.069.13-.108zm-.242-.269c.031.03.05.07.05.13a.21.21 0 01-.05.13.357.357 0 01-.11.08.76.76 0 01-.17.02h-.253v-.427h.19c.082 0 .152.011.211.011.06.006.11.026.132.056zm-.061.527c.05.011.1.04.132.08a.33.33 0 01.061.159.355.355 0 01-.061.15.37.37 0 01-.141.069c-.062.01-.132.02-.222.02h-.23v-.508h.272c.068 0 .13.01.189.03zm1.36-.754h-.293l-.534 1.381h.231l.12-.347h.616l.132.347h.241l-.514-1.381zm.1.874H31.1l.253-.727.261.727zm2.526.507V23.19h-.23v1.381h.23zm2.093-.638c0-.13 0-.238-.011-.327-.011-.089-.011-.158-.02-.219l.663 1.182h.301v-1.382h-.21v.746c0 .061 0 .12.01.178a.811.811 0 01.011.159c0 .05.011.069.011.089l-.674-1.174h-.292v1.386h.21v-.638zm-.683-.743h-.23v1.381h.23V23.19zm-1.149.624l.624-.627h-.261l-.615.636.643.746h.281l-.672-.755zm4.127-.605a.722.722 0 00-.281-.039.783.783 0 00-.352.08.665.665 0 00-.252.239.708.708 0 00-.101.397c0 .158.03.288.09.388a.5.5 0 00.23.239.79.79 0 00.352.08c.11 0 .222-.011.312-.03.09-.02.17-.05.241-.09v-.654h-.542l.03.15h.293v.416c-.05.02-.101.039-.152.05-.05.01-.101.01-.151.01-.152 0-.262-.039-.332-.13-.081-.089-.12-.228-.12-.427a.81.81 0 01.08-.338.41.41 0 01.172-.178.48.48 0 01.23-.059c.07 0 .14.011.202.03.05.02.11.05.16.09l.132-.12a.935.935 0 00-.241-.104zm1.55-.02h-.292v1.382h.211v-.635c0-.13-.01-.239-.02-.328 0-.089-.01-.158-.02-.219l.664 1.182h.3V23.19h-.19v.923c0 .059.01.109.01.159.012.05.012.08.012.089l-.675-1.171zm4.158 1.213l-.262-1.212h-.221l.331 1.381h.281l.312-1.162.301 1.162h.292l.332-1.381H45.4l-.273 1.212-.322-1.212h-.253l-.316 1.212zm-1.742-1.212v.158h.464v1.223h.23v-1.223h.453l.02-.158h-1.167zm-.222.147l.031-.15h-.896v1.384h.905v-.158h-.674v-.477h.553v-.159h-.553v-.446h.634v.006zm7.208.477l.624-.627h-.261l-.624.636.643.746h.281l-.663-.755zm-.272-.624h-.222v1.381h.222V23.19zm-2.124 1.073a.776.776 0 00.09-.388.754.754 0 00-.09-.388.618.618 0 00-.252-.25.797.797 0 00-.352-.08.81.81 0 00-.362.08.649.649 0 00-.253.239.788.788 0 00-.081.397c0 .15.03.277.081.388.062.1.14.178.253.239a.81.81 0 00.362.08c.14 0 .253-.03.352-.08a.511.511 0 00.252-.237zm-.604-.945c.14 0 .253.039.332.13.081.089.12.238.12.438 0 .13-.02.238-.06.327a.388.388 0 01-.161.178.441.441 0 01-.242.06.47.47 0 01-.241-.06.4.4 0 01-.16-.178.73.73 0 01-.062-.319c.01-.2.05-.347.132-.438a.432.432 0 01.342-.138zm1.49-.128h-.433v1.381h.221v-.585h.262l.382.585h.272l-.443-.627c.12-.03.21-.08.26-.138a.313.313 0 00.091-.239c0-.13-.05-.228-.152-.288-.098-.061-.248-.09-.46-.09zm.291.585a.494.494 0 01-.261.06h-.23v-.496h.201c.132 0 .231.02.293.05.059.04.1.1.1.189a.232.232 0 01-.103.197z" fill="#209CD2"/><path d="M17.774 11.978l-.281-.378c-2.043.378-3.543.866-4.52 1.451-.694.416-1.188.805-1.48 1.154.19-.22.463-.427.806-.636 1.54-.876 3.36-1.414 5.475-1.591zm-.382-.627l-.352-.547c-2.888.705-5.224 1.76-7.025 3.19-1.268 1.243-1.369 2.325-.301 3.27-.795-.884-.604-1.888.553-3.02 1.788-1.423 4.164-2.386 7.125-2.893z" fill="#315155"/><path d="M2.84 13.006c0 .108.382.2 1.157.277.775.08 1.702.12 2.798.12 1.087 0 2.023-.04 2.798-.12.775-.08 1.157-.169 1.157-.277 0-.109-.382-.209-1.157-.289-.775-.08-1.702-.108-2.798-.108-1.087 0-2.023.039-2.798.108-.775.089-1.157.178-1.157.289z" fill="url(#a)" transform="translate(8.965 10.8)"/><g><path d="M10.634 2.635A5.6 5.6 0 008.84 1.441a5.632 5.632 0 00-2.197-.439 5.62 5.62 0 00-2.197.439 5.69 5.69 0 00-1.794 1.194 5.504 5.504 0 00-1.21 1.772A5.442 5.442 0 001 6.577c0 .755.146 1.477.444 2.169a5.5 5.5 0 001.21 1.771 5.581 5.581 0 001.793 1.195c.7.293 1.432.438 2.197.438a5.62 5.62 0 002.197-.438 5.541 5.541 0 001.794-1.195 5.533 5.533 0 001.654-3.94 5.522 5.522 0 00-1.654-3.941z" transform="rotate(-14.931 56.657 -25.657)" fill="url(#b)"/><path d="M0 3.171c.015.022.03.047.05.071l.13.13.022-.034.106.07-.138-.166.05.07L.06 3.1c-.02.025-.039.05-.06.071zm4.184.722h.119v-.117h-.119v.117zm-.96 0h.123v-.117h-.122v.117zm-.359-.53h-.118c-.072 0-.113.01-.129.025a.44.44 0 01-.053.092h.182c.065 0 .118.006.16.018.024.006.07.022.137.043l.181.059.063.12.369.019-.128.102h.537v-.117h-.122c0-.044-.012-.065-.04-.068-.05.006-.094.009-.141.009a.549.549 0 01-.16-.019l-.138-.043-.303-.117h-.119l-.178-.123zm2.338-2.25l-.06-.059.01-.033-.113-.01-.137.216.478.065.06-.058-.06-.118h-.178v-.003zm.487 4.21l-.069-.128a.36.36 0 00-.168-.218 1.045 1.045 0 00-.266-.096 1.918 1.918 0 01-.275-.086.357.357 0 01-.187-.189l.06-.107-.36.049h-.238l-.3-.117-.071-.13-.11.13h-.121v.058H3.6h-.134l-.063.117-.056.059a.332.332 0 00-.075-.043.279.279 0 00-.107-.016c-.103 0-.16.004-.162.006.006.016.003.034-.02.056h-.058l-.182-.121v-.413l-.06-.118-.384-.009.156-.417-.071-.049h-.182l-.177.238h-.36l-.3-.297.006-.521.294-.189h.237v.117h.182l.06-.058v-.117l.477.058.182.296v.12h.122a.674.674 0 00-.063-.295.436.436 0 01-.06-.18c0-.067.066-.148.194-.234a4.08 4.08 0 01.288-.179v-.237l.06-.058h.059l.178-.06.062-.061h.182v-.238l.059-.175h.06l.303-.062.06.185.236-.065.129-.102-.188-.074-.072-.049-.05-.07v-.06l.06-.052-.356-.068V.999A5.69 5.69 0 00.2 2.933l.57.605.003.173.237.12h.06l.059.059h.059l.06.058.3.127.23-.059.425.229c.056.037.122.077.203.117.056.043.088.12.097.238h.182l.059.12h.181l.119.059.006-.13.175.071c.01.043.026.09.044.136a.55.55 0 01.02.158v.058c0 .062-.042.133-.123.213a.675.675 0 00-.181.321l.065.115c-.06.043-.103.07-.128.086-.006.012-.004.086.003.216.081.028.122.046.122.059 0 .024.041.064.119.12l.06.18.062.058v.058l.05.068.071.05.3.296.238.12-.36 2.012.131.062-.071.173v.176l-.063.18v.12c.072.101.122.173.144.212.016.016.087.062.215.142l.004.108.056.031H4.2c.015-.043.015-.068 0-.077-.006-.004-.028-.004-.072-.004-.084 0-.125-.062-.125-.179 0-.07.028-.132.081-.185.016-.015.07-.052.16-.111l-.075-.293.194-.12v-.235l.23-.003.07-.176h.356l.128-.17-.079-.181.313-.004.296-.413c.026-.034.054-.07.088-.108a.221.221 0 00.034-.13v-.058l.012-.105.168-.191h.182l.06-.059h.24l.3-.888.31-.343-.013-.25a.822.822 0 00-.138-.052.278.278 0 01-.075-.02c-.03-.011-.08-.067-.15-.166h-.117c-.075.006-.122.01-.138.01-.028-.004-.04-.025-.04-.068h-.12l-.115.068-.063-.189h-.06l-.058-.058h-.06l-.109.132-.012-.129-.182.059-.059-.059.128-.17z" transform="rotate(-14.931 55.63 -33.871)" fill="url(#c)"/></g></g></g></svg>