<?xml version="1.0" encoding="UTF-8"?>
<svg width="45px" height="29px" viewBox="0 0 45 29" version="1.1" xmlns="http://www.w3.org/2000/svg" xmlns:xlink="http://www.w3.org/1999/xlink">
    <!-- Generator: Sketch 41.2 (35397) - http://www.bohemiancoding.com/sketch -->
    <title>PM/Desktop/Deposit/maestro</title>
    <desc>Created with Sketch.</desc>
    <defs>
        <rect id="path-1" x="0" y="0" width="45" height="29" rx="3"></rect>
        <mask id="mask-2" maskContentUnits="userSpaceOnUse" maskUnits="objectBoundingBox" x="0" y="0" width="45" height="29" fill="white">
            <use xlink:href="#path-1"></use>
        </mask>
    </defs>
    <g id="Symbols" stroke="none" stroke-width="1" fill="none" fill-rule="evenodd">
        <g id="PM/Desktop/Deposit/maestro">
            <use id="Rectangle-2" stroke="#000000" mask="url(#mask-2)" stroke-width="2" fill="#FFFFFF" xlink:href="#path-1"></use>
            <g id="maestro" transform="translate(8.000000, 4.000000)">
                <g id="d11c4685-0de7-43a5-9036-eaab5538fd4b">
                    <g id="Group" transform="translate(0.030303, 0.000000)">
                        <path d="M8.74848485,21.8758065 L8.74848485,20.4239247 C8.74848485,19.8768817 8.39090909,19.5102151 7.81515152,19.5043011 C7.51212121,19.4983871 7.2,19.5900538 6.98181818,19.9153226 C6.81818182,19.6580645 6.56060606,19.5043011 6.1969697,19.5043011 C5.94242424,19.5043011 5.6969697,19.5782258 5.5030303,19.8473118 L5.5030303,19.5604839 L4.98787879,19.5604839 L4.98787879,21.8758065 L5.50909091,21.8758065 L5.50909091,20.5924731 C5.50909091,20.1903226 5.73636364,19.9774194 6.09090909,19.9774194 C6.43333333,19.9774194 6.60606061,20.1962366 6.60606061,20.5865591 L6.60606061,21.8758065 L7.12727273,21.8758065 L7.12727273,20.5924731 C7.12727273,20.1903226 7.36666667,19.9774194 7.70909091,19.9774194 C8.06060606,19.9774194 8.23030303,20.1962366 8.23030303,20.5865591 L8.23030303,21.8758065 L8.74848485,21.8758065 L8.74848485,21.8758065 Z M11.6545455,20.7166667 L11.6545455,19.5604839 L11.1393939,19.5604839 L11.1393939,19.8413978 C10.9757576,19.6344086 10.7272727,19.5013441 10.3909091,19.5013441 C9.72727273,19.5013441 9.20606061,20.0099462 9.20606061,20.7166667 C9.20606061,21.4233871 9.72727273,21.9319892 10.3909091,21.9319892 C10.7272727,21.9319892 10.9757576,21.8018817 11.1393939,21.5919355 L11.1393939,21.8728495 L11.6545455,21.8728495 L11.6545455,20.7166667 Z M9.73636364,20.7166667 C9.73636364,20.3086022 10.0090909,19.9744624 10.4545455,19.9744624 C10.8818182,19.9744624 11.169697,20.2938172 11.169697,20.7166667 C11.169697,21.1365591 10.8818182,21.458871 10.4545455,21.458871 C10.0090909,21.458871 9.73636364,21.1247312 9.73636364,20.7166667 Z M22.6969697,19.4983871 C22.8787879,19.4983871 23.0484848,19.530914 23.2060606,19.5900538 C23.3606061,19.6521505 23.4969697,19.7379032 23.6121212,19.8473118 C23.7272727,19.9567204 23.8151515,20.083871 23.8787879,20.2317204 C23.9424242,20.3795699 23.9757576,20.5422043 23.9757576,20.7137097 C23.9757576,20.888172 23.9424242,21.0478495 23.8787879,21.1956989 C23.8151515,21.3435484 23.7242424,21.4736559 23.6121212,21.5801075 C23.4969697,21.6895161 23.3636364,21.7752688 23.2060606,21.8373656 C23.0515152,21.8994624 22.8818182,21.9290323 22.6969697,21.9290323 C22.5121212,21.9290323 22.3454545,21.8965054 22.1878788,21.8373656 C22.0333333,21.7752688 21.8969697,21.6895161 21.7848485,21.5801075 C21.6727273,21.4706989 21.5818182,21.3435484 21.5181818,21.1956989 C21.4545455,21.0478495 21.4212121,20.8852151 21.4212121,20.7137097 C21.4212121,20.5392473 21.4545455,20.3795699 21.5181818,20.2317204 C21.5818182,20.083871 21.6727273,19.9537634 21.7848485,19.8473118 C21.8969697,19.7379032 22.0333333,19.6521505 22.1878788,19.5900538 C22.3454545,19.530914 22.5151515,19.4983871 22.6969697,19.4983871 Z M22.6969697,19.9744624 C22.5909091,19.9744624 22.4939394,19.9922043 22.4030303,20.0276882 C22.3121212,20.063172 22.2333333,20.1134409 22.1666667,20.1784946 C22.1,20.2435484 22.0484848,20.3233871 22.0121212,20.4120968 C21.9727273,20.5037634 21.9545455,20.6043011 21.9545455,20.7137097 C21.9545455,20.8231183 21.9727273,20.9236559 22.0121212,21.0153226 C22.0515152,21.1069892 22.1030303,21.183871 22.1666667,21.2489247 C22.2333333,21.3139785 22.3121212,21.3642473 22.4030303,21.3997312 C22.4939394,21.4352151 22.5909091,21.452957 22.6969697,21.452957 C22.8030303,21.452957 22.9,21.4352151 22.9909091,21.3997312 C23.0818182,21.3642473 23.1606061,21.3139785 23.2272727,21.2489247 C23.2939394,21.183871 23.3454545,21.1040323 23.3848485,21.0153226 C23.4242424,20.9236559 23.4424242,20.8231183 23.4424242,20.7137097 C23.4424242,20.6043011 23.4242424,20.5037634 23.3848485,20.4120968 C23.3454545,20.3204301 23.2939394,20.2435484 23.2272727,20.1784946 C23.1606061,20.1134409 23.0818182,20.063172 22.9909091,20.0276882 C22.9030303,19.9922043 22.8030303,19.9744624 22.6969697,19.9744624 Z M14.4636364,20.7166667 C14.4575758,19.9951613 14.0030303,19.5013441 13.3363636,19.5013441 C12.6424242,19.5013441 12.1545455,19.9951613 12.1545455,20.7166667 C12.1545455,21.452957 12.6606061,21.9319892 13.369697,21.9319892 C13.7272727,21.9319892 14.0545455,21.8462366 14.3424242,21.6067204 L14.0878788,21.2341398 C13.8878788,21.3879032 13.6363636,21.4766129 13.3969697,21.4766129 C13.0636364,21.4766129 12.7606061,21.3258065 12.6878788,20.908871 L14.4484848,20.908871 C14.4575758,20.8467742 14.4636364,20.7846774 14.4636364,20.7166667 Z M12.6969697,20.5126344 C12.7515152,20.1784946 12.9606061,19.9508065 13.3272727,19.9508065 C13.6606061,19.9508065 13.8727273,20.1548387 13.9272727,20.5126344 L12.6969697,20.5126344 Z M16.6363636,20.1518817 C16.4939394,20.066129 16.2,19.9537634 15.8969697,19.9537634 C15.6151515,19.9537634 15.4454545,20.0543011 15.4454545,20.2258065 C15.4454545,20.3795699 15.6242424,20.4239247 15.8484848,20.4534946 L16.0909091,20.4860215 C16.6060606,20.5599462 16.9181818,20.7728495 16.9181818,21.177957 C16.9181818,21.6185484 16.5212121,21.9319892 15.8363636,21.9319892 C15.4484848,21.9319892 15.0909091,21.8344086 14.8090909,21.6303763 L15.0515152,21.2370968 C15.2242424,21.3672043 15.4818182,21.4795699 15.8393939,21.4795699 C16.1909091,21.4795699 16.3787879,21.3790323 16.3787879,21.1986559 C16.3787879,21.0685484 16.2454545,20.9946237 15.9606061,20.9561828 L15.7181818,20.9236559 C15.1878788,20.8497312 14.9,20.619086 14.9,20.2405914 C14.9,19.7793011 15.2878788,19.4983871 15.8878788,19.4983871 C16.2636364,19.4983871 16.6060606,19.5811828 16.8545455,19.7408602 L16.6363636,20.1518817 Z M19.1151515,20.0188172 L18.2727273,20.0188172 L18.2727273,21.0655914 C18.2727273,21.2991935 18.3575758,21.452957 18.6151515,21.452957 C18.7484848,21.452957 18.9181818,21.4086022 19.0727273,21.3228495 L19.2212121,21.7545699 C19.0575758,21.8669355 18.8,21.9349462 18.5757576,21.9349462 C17.9666667,21.9349462 17.7515152,21.6155914 17.7515152,21.0774194 L17.7515152,20.0188172 L17.269697,20.0188172 L17.269697,19.5575269 L17.7515152,19.5575269 L17.7515152,18.8567204 L18.2727273,18.8567204 L18.2727273,19.5575269 L19.1151515,19.5575269 L19.1151515,20.0188172 Z M20.9030303,19.5013441 C21.0060606,19.5013441 21.1575758,19.522043 21.269697,19.5634409 L21.1121212,20.0365591 C21.0030303,19.9922043 20.8939394,19.9774194 20.7909091,19.9774194 C20.4545455,19.9774194 20.2848485,20.1903226 20.2848485,20.5717742 L20.2848485,21.8698925 L19.769697,21.8698925 L19.769697,19.5545699 L20.2818182,19.5545699 L20.2818182,19.8354839 C20.4121212,19.6373656 20.6060606,19.5013441 20.9030303,19.5013441 L20.9030303,19.5013441 Z M24.4757576,21.5387097 C24.5090909,21.5387097 24.5393939,21.5446237 24.569697,21.5564516 C24.6,21.5682796 24.6242424,21.5860215 24.6454545,21.6067204 C24.6666667,21.6274194 24.6848485,21.6510753 24.6969697,21.6806452 C24.7090909,21.7072581 24.7151515,21.7397849 24.7151515,21.7693548 C24.7151515,21.8018817 24.7090909,21.8314516 24.6969697,21.8580645 C24.6848485,21.8846774 24.6666667,21.9112903 24.6454545,21.9319892 C24.6242424,21.9526882 24.5969697,21.9704301 24.569697,21.9822581 C24.5393939,21.994086 24.5090909,22 24.4757576,22 C24.4424242,22 24.4090909,21.994086 24.3818182,21.9822581 C24.3515152,21.9704301 24.3272727,21.9526882 24.3060606,21.9319892 C24.2848485,21.9112903 24.2666667,21.8876344 24.2545455,21.8580645 C24.2424242,21.8314516 24.2363636,21.8018817 24.2363636,21.7693548 C24.2363636,21.736828 24.2424242,21.7072581 24.2545455,21.6806452 C24.2666667,21.6540323 24.2848485,21.6274194 24.3060606,21.6067204 C24.3272727,21.5860215 24.3545455,21.5682796 24.3818182,21.5564516 C24.4090909,21.5446237 24.4424242,21.5387097 24.4757576,21.5387097 Z M24.4757576,21.9467742 C24.5,21.9467742 24.5242424,21.9408602 24.5454545,21.9319892 C24.5666667,21.9231183 24.5878788,21.9083333 24.6030303,21.8935484 C24.6181818,21.8787634 24.6333333,21.8580645 24.6424242,21.8373656 C24.6515152,21.8166667 24.6575758,21.7930108 24.6575758,21.7663978 C24.6575758,21.7427419 24.6515152,21.719086 24.6424242,21.6954301 C24.6333333,21.6747312 24.6212121,21.6540323 24.6030303,21.6392473 C24.5878788,21.6244624 24.5666667,21.6096774 24.5454545,21.6008065 C24.5242424,21.5919355 24.5,21.5860215 24.4757576,21.5860215 C24.4484848,21.5860215 24.4242424,21.5919355 24.4030303,21.6008065 C24.3818182,21.6096774 24.3606061,21.6215054 24.3454545,21.6392473 C24.330303,21.6540323 24.3151515,21.6747312 24.3060606,21.6954301 C24.2969697,21.716129 24.2909091,21.7397849 24.2909091,21.7663978 C24.2909091,21.7900538 24.2969697,21.8137097 24.3060606,21.8373656 C24.3151515,21.8580645 24.3272727,21.8787634 24.3454545,21.8935484 C24.3606061,21.9083333 24.3818182,21.9231183 24.4030303,21.9319892 C24.4242424,21.9438172 24.4484848,21.9467742 24.4757576,21.9467742 Z M24.4878788,21.6599462 C24.5151515,21.6599462 24.5363636,21.6658602 24.5515152,21.6776882 C24.5666667,21.6895161 24.5757576,21.7072581 24.5757576,21.727957 C24.5757576,21.7456989 24.569697,21.7604839 24.5575758,21.7723118 C24.5454545,21.7841398 24.5272727,21.7900538 24.5060606,21.7930108 L24.5787879,21.8728495 L24.5212121,21.8728495 L24.4545455,21.7930108 L24.4333333,21.7930108 L24.4333333,21.8728495 L24.3878788,21.8728495 L24.3878788,21.6599462 L24.4878788,21.6599462 L24.4878788,21.6599462 Z M24.4333333,21.7013441 L24.4333333,21.8013441 L24.4895833,21.8013441 C24.5020833,21.8013441 24.5114583,21.7960809 24.5208333,21.7908178 C24.5270833,21.7802915 24.5333333,21.7697651 24.5333333,21.7539757 C24.5333333,21.7381862 24.5302083,21.7223967 24.5208333,21.7171336 C24.5145833,21.7066072 24.5020833,21.7066072 24.4895833,21.7066072 L24.4333333,21.7066072 L24.4333333,21.7013441 Z" id="Shape" fill="#000000"></path>
                        <g id="XMLID_12_">
                            <rect id="Rectangle-path" fill="#7673C0" x="10.5575758" y="1.89543011" width="7.82727273" height="13.7263441"></rect>
                            <path d="M11.0545455,8.75564516 C11.0545455,5.97016129 12.3909091,3.4922043 14.469697,1.89247312 C12.9484848,0.724462366 11.0272727,0.0295698925 8.94242424,0.0295698925 C4.0030303,0.0295698925 0,3.93575269 0,8.75564516 C0,13.5755376 4.0030303,17.4846774 8.94242424,17.4846774 C11.030303,17.4846774 12.9484848,16.786828 14.469697,15.6188172 C12.3909091,14.022043 11.0545455,11.541129 11.0545455,8.75564516 Z" id="XMLID_16_" fill="#EB001B"></path>
                            <path id="Shape" fill="#00A1DF"></path>
                            <path d="M28.9424242,8.75564516 C28.9424242,13.5755376 24.9393939,17.4846774 20,17.4846774 C17.9121212,17.4846774 15.9939394,16.786828 14.4727273,15.6188172 C16.5545455,14.019086 17.8878788,11.541129 17.8878788,8.75564516 C17.8878788,5.97016129 16.5515152,3.4922043 14.4727273,1.89247312 C15.9939394,0.724462366 17.9151515,0.0266129032 20,0.0266129032 C24.9363636,0.0295698925 28.9424242,3.93575269 28.9424242,8.75564516 Z" id="Shape" fill="#00A1DF"></path>
                        </g>
                    </g>
                </g>
            </g>
        </g>
    </g>
</svg>