<svg width="56" height="36" xmlns="http://www.w3.org/2000/svg"><g fill="none" fill-rule="evenodd"><path d="M0 3.75A3.75 3.75 0 0 1 3.75 0h48.5A3.76 3.76 0 0 1 56 3.75v28.5A3.75 3.75 0 0 1 52.25 36H3.75A3.76 3.76 0 0 1 0 32.25V3.75z" fill="#000" fill-rule="nonzero"/><path d="M1.25 3.75v28.5a2.5 2.5 0 0 0 2.5 2.5h48.5a2.5 2.5 0 0 0 2.5-2.5V3.75a2.5 2.5 0 0 0-2.5-2.5H3.75a2.5 2.5 0 0 0-2.5 2.5z" fill="#FFF"/><g><path fill="#FF5F00" d="M23.19 10.18h9.45V25.8h-9.45z"/><path d="M24.17 17.99a9.96 9.96 0 0 1 3.75-7.81 9.74 9.74 0 0 0-13.28 1.07 10.02 10.02 0 0 0 0 13.48 9.74 9.74 0 0 0 13.28 1.07 9.96 9.96 0 0 1-3.75-7.81z" fill="#EB001B"/><path d="M42.9 24.6v-.7h.17v-.15h-.4v.15h.16v.7h.08zm.78 0v-.85h-.12l-.14.6-.14-.6h-.12v.84h.08v-.63l.13.54h.1l.12-.54v.63h.09z" fill="#F79E1B" fill-rule="nonzero"/><path d="M43.8 17.99c0 3.8-2.14 7.27-5.53 8.93a9.73 9.73 0 0 1-10.35-1.13 9.97 9.97 0 0 0 0-15.61 9.73 9.73 0 0 1 10.35-1.13 9.94 9.94 0 0 1 5.53 8.93z" fill="#F79E1B"/></g></g></svg>