<svg width="56" height="36" xmlns="http://www.w3.org/2000/svg"><g fill="none" fill-rule="evenodd"><path d="M0 3.75A3.75 3.75 0 0 1 3.75 0h48.5A3.76 3.76 0 0 1 56 3.75v28.5A3.75 3.75 0 0 1 52.25 36H3.75A3.76 3.76 0 0 1 0 32.25V3.75z" fill="#000" fill-rule="nonzero"/><path d="M1.25 3.75v28.5a2.5 2.5 0 0 0 2.5 2.5h48.5a2.5 2.5 0 0 0 2.5-2.5V3.75a2.5 2.5 0 0 0-2.5-2.5H3.75a2.5 2.5 0 0 0-2.5 2.5z" fill="#FFF"/><g fill-rule="nonzero"><path fill="#18A035" d="M41.01 27.98h11.96V9.02H41.01z"/><path fill="#0077BD" d="M39.64 27.98h1.37V9.02h-1.37z"/><path fill="#CC0B0A" d="M31.59 27.98h8.05V9.02h-8.05z"/><path fill="#F39100" d="M19.87 27.98h11.72V9.02H19.87z"/><path fill="#201C17" d="M17.86 27.98h2.01V9.02h-2.01z"/><path fill="#E41E0A" d="M4.05 27.98h13.81V9.02H4.05z"/><path d="M22.72 18.1h.8c.53 0 .83-.08 1.03-.27.18-.17.26-.41.26-.8 0-.23-.05-.55-.28-.75-.2-.19-.5-.26-1.07-.26h-.74v2.08zm0 3.41h.97c1.1 0 1.51-.31 1.51-1.15 0-.4-.1-.67-.3-.84-.24-.21-.58-.3-1.2-.3h-.98v2.3zm-1.84 1.34v-6.83h-.77v-1.33h3.66c1.15 0 1.8.17 2.27.58.4.37.62.89.62 1.49 0 .74-.35 1.34-.94 1.66l-.04.03.04.01c.93.28 1.42.96 1.42 1.99 0 .98-.38 1.65-1.15 2.04-.48.25-1.14.36-2.13.36h-2.98zm17.87 0v-3.82c0-.39-.04-.65-.2-.88-.16-.22-.43-.33-.77-.33a1 1 0 0 0-.83.38c-.2.27-.25.62-.25 1.06v3.59h-1.76v-5h-.73v-1.27H36l.29.75.02-.02a2.42 2.42 0 0 1 1.93-.84c.74 0 1.33.2 1.71.6.38.4.55.93.55 1.7v4.08h-1.76zm7.94.08c-.67 0-1.09-.26-1.48-.93l-1.13-1.9h-.53v2.75h-1.76v-7.54h-.74v-1.27h2.5v4.72h.6l1.26-2.18h1.76l-1.62 2.8 1.2 2c.16.27.28.35.48.35.16 0 .34-.06.48-.16l.06-.05-.06 1.1v.02c-.24.18-.63.29-1.02.29zm-27.9 0c-.53 0-.9-.15-1.12-.45a1.77 1.77 0 0 1-.23-1.02v-2.43c0-.4-.01-.65-.18-.88a.91.91 0 0 0-.75-.33.99.99 0 0 0-.8.37c-.17.23-.24.53-.24 1.05v3.61h-1.76v-3.82c0-.4-.01-.65-.18-.88a.91.91 0 0 0-.74-.33.99.99 0 0 0-.8.37c-.17.23-.24.53-.24 1.05v3.61H9.99v-5h-.74v-1.27h1.8l.29.75.02-.03c.4-.53 1.1-.83 1.9-.83.86 0 1.48.26 1.85.8l.01.01.02-.02c.25-.3.82-.8 1.85-.8.84 0 1.5.29 1.85.8.25.36.36.82.36 1.52v2.6c0 .3.13.35.27.35s.36-.09.46-.16l.06-.05-.06 1.07-.01.01c-.23.16-.65.33-1.14.33zm11.86-3.15c-.67 0-1.04.37-1.04 1.01s.33 1 .92 1c.29 0 .54-.1.7-.28.17-.17.25-.43.25-.75v-.83h-.01a2.7 2.7 0 0 0-.82-.15zm-.6 3.19c-1.37 0-2.22-.8-2.22-2.1 0-1.33.92-2.13 2.45-2.13.38 0 .84.07 1.18.18h.02v-.1c0-.44-.06-.67-.23-.86-.18-.21-.52-.32-1-.32-.6 0-1.25.16-1.82.45l-.05.03V16.9l.02-.01a5.2 5.2 0 0 1 2.12-.41c.99 0 1.7.21 2.17.66.38.35.55.87.55 1.6v2.65c0 .25.08.35.26.35.14 0 .37-.09.47-.16l.06-.05-.07 1.07-.01.01c-.29.2-.73.33-1.15.33-.53 0-.93-.22-1.1-.59v-.03l-.02.03c-.35.39-.96.63-1.63.63z" fill="#FFFFFE"/></g></g></svg>