<?xml version="1.0" encoding="UTF-8"?><svg width="56" height="36" viewBox="0 0 56 36" xmlns="http://www.w3.org/2000/svg"><g fill="none" fill-rule="evenodd"><path d="M0 3.75A3.749 3.749 0 013.75 0h48.5A3.756 3.756 0 0156 3.75v28.5A3.749 3.749 0 0152.25 36H3.75A3.756 3.756 0 010 32.25V3.75z" fill="#000" fill-rule="nonzero"/><path d="M1.25 3.75v28.5c0 1.375 1.123 2.5 2.5 2.5h48.5c1.382 0 2.5-1.118 2.5-2.5V3.75c0-1.375-1.123-2.5-2.5-2.5H3.75a2.499 2.499 0 00-2.5 2.5z" fill="#FFF"/><g fill-rule="nonzero"><path d="M13.092 19.89a885.069 885.069 0 012.776-5.983 1.36 1.36 0 011.206-.822c.82-.058 1.09.164 1.206.976l1.085 7.707c.091.642-.053.905-.538.99-.643.115-1.049-.146-1.137-.773-.244-1.817-.838-6.122-.99-6.426-.225.487-1.075 2.546-2.549 6.175a1.1 1.1 0 01-1.022.759c-.47.025-.9-.267-1.05-.713-.317-.731-2.508-6.007-2.628-6.229-.102.19-.665 4.437-.925 6.351-.08.625-.325.866-.87.88-.653.02-.922-.265-.84-.914.162-1.26.353-2.522.53-3.783l.55-3.922c.058-.404.041-.863.57-1.022a1.487 1.487 0 011.618.418c.167.21 1.17 2.322 3.008 6.331zM21.08 22.768c-.56 0-.841-.268-.841-.834a928.913 928.913 0 010-7.975c0-.625.244-.852.858-.859 1.372-.015 2.744-.039 4.114.017 1.452.059 2.514.99 2.749 2.285a2.407 2.407 0 01-.365 1.693 3.27 3.27 0 01-.318.417l.467.334c.935.669 1.34 1.61 1.052 2.732a2.746 2.746 0 01-2.306 2.115c-.961.185-4.583.075-5.41.075zm.817-4.863c0 .995.012 1.99 0 2.983 0 .3.066.405.386.397 1.135-.02 2.275 0 3.412 0 .28 0 .559-.06.814-.175.505-.209.831-.702.824-1.247a1.274 1.274 0 00-.882-1.15 3.27 3.27 0 00-1.238-.198c-.528 0-1.059 0-1.587-.022a.659.659 0 01-.69-.676c0-.397.245-.663.707-.715.2-.022.403 0 .606-.02.358-.021.717-.028 1.072-.077.709-.098 1.18-.62 1.152-1.242a1.273 1.273 0 00-1.287-1.178c-.978-.024-1.956 0-2.935-.017-.296 0-.362.083-.36.364.006.985.006 1.98.006 2.973z" fill="#060606"/><path d="M18.074 27.846H10.03c-.591 0-1.183.04-1.775.025-1.871-.049-2.284-1.44-1.856-2.903.112-.383.45-.505.824-.47.374.01.689.285.75.653a.574.574 0 010 .093c.1 1.107.1 1.107 1.223 1.107h18.367a.402.402 0 00.438-.488 5.578 5.578 0 01-.022-.604.815.815 0 011.573-.244c.489 1.578-.14 2.853-1.898 2.836-3.19-.024-6.383-.005-9.58-.005zM18.003 8h7.107c1.338 0 1.923.449 2.282 1.737.059.21.115.422.162.634a.793.793 0 01-.6.992.816.816 0 01-1.037-.543 1.443 1.443 0 01-.058-.225c-.218-1.03-.294-1.093-1.37-1.093H11.488c-1.03 0-1.12.074-1.333 1.074-.134.629-.489.907-1.034.804a.72.72 0 01-.646-.86 6.49 6.49 0 01.171-.869C8.96 8.488 9.588 8 10.803 8h7.2z" fill="#D20612"/><path d="M36.928 17.024c-.15.295-.798 2.576-1.005 3.276-.12.402-.338.707-.812.693-.475-.015-.695-.295-.8-.713-.416-1.626-.832-3.252-1.25-4.878-.07-.28-.08-.546.267-.634.347-.088.601 0 .694.41.294 1.285 1.027 4.217 1.152 4.363l.768-2.792c.12-.434.245-.869.347-1.305.084-.342.262-.561.639-.559.376.003.538.244.62.578.28 1.115.98 3.81 1.155 3.98.157-.611.306-1.184.448-1.758.205-.826.416-1.653.601-2.487a.488.488 0 01.675-.437c.372.088.372.356.294.659-.404 1.564-.806 3.127-1.206 4.69-.04.133-.089.264-.144.392a.734.734 0 01-.775.488.714.714 0 01-.712-.551c-.264-.91-.766-2.927-.956-3.415zM46.353 20.507a.417.417 0 01-.36.459.441.441 0 01-.572-.27c-.139-.328-.261-.716-.376-1.052a2.289 2.289 0 00-.16-.43l-2.69.006c-.049.191-.085.333-.11.424-.11.307-.2.622-.334.917a.535.535 0 01-.722.337c-.313-.137-.284-.432-.169-.732a994.896 994.896 0 001.866-4.766c.152-.388.382-.668.84-.685.457-.017.645.317.79.685.615 1.574 1.236 3.124 1.86 4.695.059.156.103.303.137.412zm-2.788-4.702c-.225.57-.53 1.406-.914 2.505h1.905c-.335-.859-.643-1.622-.99-2.505zM49.062 18.539a1852.631 1852.631 0 00.003 2.046c0 .236-.222.427-.497.427-.276 0-.499-.19-.5-.426a1776.889 1776.889 0 00-.002-1.809c-.232-.44-.424-.826-.814-1.627a49.63 49.63 0 00-.849-1.694.429.429 0 01.757-.4c.255.482.446.865.862 1.721.21.43.36.738.491.999l1.565-2.732a.429.429 0 01.743.424l-1.76 3.071z" fill="#060606"/></g></g></svg>