<?xml version="1.0" encoding="UTF-8"?><svg width="56" height="36" viewBox="0 0 56 36" xmlns="http://www.w3.org/2000/svg"><g fill="none" fill-rule="evenodd"><path d="M0 3.75A3.749 3.749 0 013.75 0h48.5A3.756 3.756 0 0156 3.75v28.5A3.749 3.749 0 0152.25 36H3.75A3.756 3.756 0 010 32.25V3.75z" fill="#000" fill-rule="nonzero"/><path d="M1.25 3.75v28.5c0 1.375 1.123 2.5 2.5 2.5h48.5c1.382 0 2.5-1.118 2.5-2.5V3.75c0-1.375-1.123-2.5-2.5-2.5H3.75a2.499 2.499 0 00-2.5 2.5z" fill="#FFF"/><g transform="translate(5 12)" fill-rule="nonzero"><path d="M17.172 5.962C17.172 2.679 13.328 0 8.586 0 3.844 0 0 2.677 0 5.962v.349c0 3.485 3.36 6.303 8.585 6.303 5.258 0 8.587-2.822 8.587-6.303v-.35z" fill="#253E8A"/><ellipse fill="#00AEEF" cx="8.589" cy="5.959" rx="8.256" ry="5.607"/><path d="M5.847 4.19c0 .01-.087.1-.034.172.13.177.533.279.94.181.248-.057.553-.32.854-.573.326-.275.649-.55.974-.657.229-.089.479-.096.711-.02.237.094.456.23.649.402.565.45 2.836 2.556 3.228 2.92a18.788 18.788 0 013.63-1.242c-.166-1.08-.786-2.07-1.724-2.878-1.309.583-2.908.888-4.472.077-.007 0-.854-.428-1.69-.408-1.245.029-1.776.594-2.345 1.202l-.721.824z" fill="#FFF"/><path d="M13.076 6.84c-.026-.025-2.67-2.482-3.27-2.96-.347-.275-.54-.346-.742-.374a.955.955 0 00-.353.036c-.278.08-.643.338-.966.611-.323.274-.65.55-.942.62a1.449 1.449 0 01-1.04-.165.479.479 0 01-.174-.201.354.354 0 01.088-.366l.73-.838c.085-.09.17-.18.257-.263A4.5 4.5 0 006 3.1a2.75 2.75 0 01-.776.154 6.978 6.978 0 01-.791-.132 11.394 11.394 0 01-2.103-.807C1.291 3.134.597 4.152.397 5.288c.15.042.39.118.495.142 2.35.554 3.078 1.125 3.216 1.243a.755.755 0 01.626-.275.767.767 0 01.592.351.855.855 0 01.559-.208.99.99 0 01.335.063.79.79 0 01.459.446.744.744 0 01.326-.073.941.941 0 01.391.092c.433.197.495.648.462.988a.751.751 0 01.092 0 .92.92 0 01.8.48c.167.3.175.67.02.975.139.083.494.272.807.23.247-.033.345-.123.378-.175.034-.05.049-.076.025-.105l-.663-.78s-.109-.11-.073-.153c.036-.044.105.018.152.062.338.299.749.75.749.75s.034.061.186.09a.658.658 0 00.524-.131.817.817 0 00.115-.132h-.008a.392.392 0 00-.018-.463l-.773-.92s-.11-.108-.073-.152c.037-.043.105.02.153.062.247.218.591.586.923.931.064.05.356.242.742-.028a.572.572 0 00.274-.514.6.6 0 00-.16-.337L10.976 6.62s-.112-.1-.072-.152c.04-.051.105.019.152.062.336.3 1.248 1.182 1.248 1.182a.61.61 0 00.716-.016.513.513 0 00.235-.402.612.612 0 00-.178-.453z" fill="#FFF"/><path d="M7.953 8.273c-.163 0-.343.1-.371.086-.029-.014.01-.078.026-.12.016-.04.231-.728-.295-.967-.402-.184-.648.022-.732.116-.022.025-.032.022-.034-.01a.612.612 0 00-.409-.572.772.772 0 00-.896.339.591.591 0 00-.51-.529.573.573 0 00-.601.405.629.629 0 00.232.714.549.549 0 00.708-.074v.02c-.077.39.124.78.474.92a.539.539 0 00.555-.09c.046-.035.053-.02.047.026-.02.141 0 .444.405.616a.492.492 0 00.602-.119c.052-.05.065-.042.068.036.014.42.343.75.74.742.395-.01.711-.354.709-.774-.002-.42-.322-.761-.718-.765z" fill="#FFF"/><path d="M13.179 6.546c-.814-.755-2.697-2.495-3.208-2.898a2.214 2.214 0 00-.664-.411 1.041 1.041 0 00-.326-.054c-.141.002-.28.027-.415.074-.329.11-.658.394-.974.656l-.016.013c-.296.25-.601.508-.833.564a1.33 1.33 0 01-.308.036c-.258 0-.494-.08-.579-.198-.014-.02 0-.051.029-.097l.716-.82c.562-.596 1.09-1.158 2.312-1.181h.06c.556.023 1.102.16 1.608.403.679.36 1.427.55 2.186.557a5.44 5.44 0 002.4-.611 7.082 7.082 0 00-.291-.244 5.028 5.028 0 01-2.103.508 4.434 4.434 0 01-2.046-.525 4.386 4.386 0 00-1.746-.438h-.076c-1.025.025-1.608.413-1.99.75a3.736 3.736 0 00-.99.192 2.55 2.55 0 01-.7.142c-.09 0-.247-.01-.265-.01-.248-.007-1.513-.336-2.517-.74a6.25 6.25 0 00-.297.238c1.049.457 2.325.81 2.728.837.113.008.232.021.352.021a2.83 2.83 0 00.789-.158c.152-.046.319-.095.495-.132l-.14.145L5.64 4a.41.41 0 00-.1.427.532.532 0 00.192.226c.236.14.503.21.773.205.103 0 .207-.011.308-.035.305-.072.624-.344.965-.629.27-.228.654-.517.947-.602a1.022 1.022 0 01.331-.038c.195.026.383.096.718.363.597.477 3.242 2.933 3.268 2.958a.557.557 0 01.158.412.453.453 0 01-.214.365.617.617 0 01-.348.114.546.546 0 01-.306-.094c-.01-.008-.916-.89-1.25-1.182a.275.275 0 00-.157-.09.085.085 0 00-.069.035c-.052.068.006.164.075.226l1.065 1.126c.08.082.13.189.146.305a.52.52 0 01-.247.466.657.657 0 01-.371.131.523.523 0 01-.302-.097l-.152-.159c-.277-.29-.564-.59-.773-.775a.277.277 0 00-.158-.086c-.026 0-.05.01-.067.03-.024.028-.041.079.018.163a.548.548 0 00.054.063l.771.92c.093.11.1.274.018.393l-.028.037a.82.82 0 01-.071.073.595.595 0 01-.481.122.255.255 0 01-.153-.068l-.01-.01a12.28 12.28 0 00-.753-.754.261.261 0 00-.162-.09.09.09 0 00-.069.033c-.064.074.032.186.073.226l.66.771a.165.165 0 01-.025.047c-.024.035-.104.12-.343.151a.621.621 0 01-.088 0 1.442 1.442 0 01-.644-.203 1.099 1.099 0 00-.059-1.003.97.97 0 00-.83-.485h-.035c.017-.263-.018-.76-.495-.98a.984.984 0 00-.41-.095.792.792 0 00-.301.057.842.842 0 00-.481-.433 1.022 1.022 0 00-.353-.066.893.893 0 00-.549.187.814.814 0 00-.603-.332.802.802 0 00-.634.258c-.205-.166-1.018-.714-3.195-1.24a10.517 10.517 0 01-.494-.144 3.94 3.94 0 00-.056.38l.48.12c2.226.526 2.958 1.07 3.082 1.173a.93.93 0 00.122.896.81.81 0 00.8.315c.066.357.305.65.628.77.095.04.195.06.297.061a.72.72 0 00.189-.025.965.965 0 00.845.586.696.696 0 00.262-.042.996.996 0 00.72.625.945.945 0 00.888-.294c.254.156.54.246.832.262.042 0 .083-.002.124-.007.336-.045.495-.186.564-.293a.44.44 0 00.035-.06.903.903 0 00.266.044.866.866 0 00.538-.204.79.79 0 00.316-.49v-.006a.84.84 0 00.18.02.96.96 0 00.552-.187.858.858 0 00.396-.753c.06.013.12.02.182.02a.916.916 0 00.517-.17.81.81 0 00.36-.621.879.879 0 00-.114-.502 20.488 20.488 0 013.43-1.14 3.948 3.948 0 00-.048-.378c-1.238.29-2.447.707-3.61 1.245zM7.953 9.753c-.36.002-.658-.3-.672-.682 0-.033 0-.12-.073-.12a.122.122 0 00-.081.047.461.461 0 01-.324.158.55.55 0 01-.218-.05c-.383-.164-.388-.443-.371-.556a.108.108 0 00-.014-.086l-.023-.022h-.024a.12.12 0 00-.066.029.54.54 0 01-.326.123.479.479 0 01-.195-.039c-.33-.13-.52-.501-.44-.867a.076.076 0 00-.023-.07l-.032-.03-.033.033a.501.501 0 01-.648.067.575.575 0 01-.21-.654.524.524 0 01.55-.368.54.54 0 01.465.484l.018.15.077-.132a.707.707 0 01.837-.316.559.559 0 01.371.525c0 .072.055.076.063.076a.084.084 0 00.061-.034c.1-.111.24-.174.386-.173.1.002.198.026.29.07.494.224.269.89.267.896-.043.11-.045.16 0 .187l.02.01h.014a.333.333 0 00.095-.026.801.801 0 01.264-.062c.371 0 .673.32.673.715 0 .394-.302.714-.673.714l-.005.003zM46.429 2.163c-.31-.413-.78-.619-1.412-.619-.63 0-1.1.206-1.41.619a2.36 2.36 0 00-.466 1.461 2.35 2.35 0 00.465 1.468c.31.406.78.609 1.411.61.631 0 1.102-.203 1.412-.61a2.35 2.35 0 00.465-1.468 2.36 2.36 0 00-.465-1.461zm-.769 2.363a.83.83 0 01-.647.318.83.83 0 01-.647-.318c-.152-.211-.228-.513-.228-.903s.076-.691.228-.902a.834.834 0 01.647-.316c.249 0 .485.115.648.316.15.212.226.513.226.903s-.076.692-.227.904v-.002zM38.508 1.819a2.237 2.237 0 00-1.079-.255c-.622 0-1.061.172-1.317.516-.169.245-.264.54-.272.843h.93a.764.764 0 01.137-.358c.096-.12.26-.18.495-.18a.95.95 0 01.469.092.35.35 0 01.16.33.305.305 0 01-.208.29 1.447 1.447 0 01-.385.09l-.329.043c-.296.026-.585.111-.851.251-.352.215-.528.563-.528 1.044-.02.323.097.638.32.859.236.2.53.307.831.303 2.103.1 2.078-1.182 2.103-1.444V2.78c-.002-.471-.161-.791-.476-.961zm-.489 2.232c-.006.342-.098.578-.276.706a.966.966 0 01-.58.195.51.51 0 01-.34-.117.47.47 0 01-.138-.378.474.474 0 01.227-.434c.139-.073.287-.121.44-.144l.22-.043c.089-.016.175-.04.26-.071a.948.948 0 00.186-.099l.001.385zM33.715 2.438a.61.61 0 01.53.237.908.908 0 01.147.394h1.036c-.057-.558-.24-.946-.55-1.164a2.02 2.02 0 00-1.191-.33c-.572 0-1.02.187-1.344.559-.324.372-.486.892-.487 1.561 0 .592.147 1.073.44 1.445.294.37.752.557 1.376.558.623 0 1.094-.223 1.411-.669.19-.252.306-.558.334-.88h-1.033a.953.953 0 01-.182.502c-.1.131-.267.193-.505.193a.677.677 0 01-.684-.487 1.967 1.967 0 01-.1-.688 2.15 2.15 0 01.1-.721.699.699 0 01.702-.51zM31.578 1.576c-2.13 0-2.004 2.002-2.004 2.002v2.036h.967V3.706a1.663 1.663 0 01.112-.695c.132-.263.392-.396.778-.4h.115c.047 0 .1.006.162.014v-1.05h-.13zM28.027 4.55a.732.732 0 01-.133.155.79.79 0 01-.54.154.874.874 0 01-.515-.132c-.247-.157-.37-.424-.39-.814h2.674a5.454 5.454 0 00-.032-.773 1.99 1.99 0 00-.292-.807 1.528 1.528 0 00-.635-.576 1.997 1.997 0 00-.866-.183c-.489-.02-.964.175-1.313.54-.337.363-.506.883-.506 1.563 0 .721.187 1.242.56 1.561a1.93 1.93 0 001.295.473c.592 0 1.053-.19 1.382-.569.157-.164.272-.368.335-.592h-1.024zm-1.299-1.91a.738.738 0 01.573-.224.811.811 0 01.57.21c.161.16.253.382.255.616h-1.658c.024-.225.115-.436.26-.603zM25.093 5.612h-.883V3.25c0-.216-.067-.73-.65-.73a.632.632 0 00-.485.21.715.715 0 00-.184.52v2.363h-.884V3.25c0-.216-.06-.73-.642-.73a.628.628 0 00-.487.208.712.712 0 00-.182.522v2.363h-.883V3.275c0-.974.609-1.707 1.553-1.707a1.33 1.33 0 011.098.533c.27-.348.672-.547 1.097-.544.963 0 1.532.707 1.532 1.707v2.348zM42.853.344s-.974-.11-.974.72v1.099a1.196 1.196 0 00-.42-.431 1.13 1.13 0 00-.594-.156 1.378 1.378 0 00-1.162.574c-.29.382-.433.932-.433 1.596a2.21 2.21 0 00.439 1.419c.293.367.866.525 1.378.525 1.78 0 1.758-1.62 1.758-1.62l.008-3.726zm-1.16 4.193a.695.695 0 01-.617.322.666.666 0 01-.609-.325 1.734 1.734 0 01-.2-.89 1.64 1.64 0 01.196-.84.664.664 0 01.619-.338.71.71 0 01.485.187c.226.204.34.573.34 1.05a1.49 1.49 0 01-.213.834z" fill="#253E8A"/><path d="M26.87 12.127a.497.497 0 01-.142.357.453.453 0 01-.341.148h-.483V9.061c0-.694.22-1.128.583-1.421.24-.195.596-.38 1.264-.38.451 0 .98.187 1.265.556.32.415.454.878.454 1.484 0 .625-.142 1.13-.425 1.518a1.313 1.313 0 01-1.092.57 1.395 1.395 0 01-.625-.13 1.092 1.092 0 01-.455-.463l-.003 1.332zm1.62-2.778c0-.386-.07-.684-.213-.892a.696.696 0 00-.611-.316.686.686 0 00-.598.313c-.132.189-.198.487-.198.893 0 .378.07.656.213.848a.693.693 0 00.612.31.669.669 0 00.583-.312 1.48 1.48 0 00.214-.849l-.001.005zM35.876 11.06v-.252a1.075 1.075 0 01-.677.526 1.31 1.31 0 01-.843-.075 1.598 1.598 0 01-.72-.657c-.2-.327-.3-.754-.3-1.279 0-.613.132-1.11.396-1.494.266-.382.692-.556 1.278-.573.586-.017.913.122 1.237.388.36.29.571.734.571 1.427v2.09c0 .668-.436 1.906-1.814 1.8-.854-.065-1.327-.436-1.59-1.278h1.018a.762.762 0 00.802.378.761.761 0 00.42-.29c.14-.208.216-.458.216-.714m-1.592-1.708c0 .684.186 1.064.559 1.139.373.075.647-.017.824-.276.1-.152.162-.328.181-.512.038-.229.04-.462.008-.692a1.422 1.422 0 00-.229-.604.605.605 0 00-.53-.263c-.317 0-.53.125-.642.372a2.036 2.036 0 00-.169.848M32.51 7.536a2.246 2.246 0 00-1.08-.255c-.622 0-1.061.172-1.317.516-.169.246-.263.54-.272.843h.93a.76.76 0 01.138-.358c.095-.12.26-.18.494-.18a.95.95 0 01.468.092.35.35 0 01.16.332.305.305 0 01-.208.29 1.452 1.452 0 01-.385.09l-.329.043a2.246 2.246 0 00-.85.252c-.353.215-.529.563-.529 1.044-.019.324.1.64.325.859.236.2.53.307.831.303 2.103.1 2.078-1.182 2.103-1.444V8.497c0-.47-.157-.791-.471-.96h-.009zm-.487 2.232c0 .343-.099.578-.276.707a.966.966 0 01-.581.193.51.51 0 01-.338-.117.468.468 0 01-.14-.378.474.474 0 01.228-.434c.14-.071.29-.118.443-.139l.219-.043c.087-.016.173-.04.257-.07a.934.934 0 00.187-.1l.001.381zM40.48 7.86c-.31-.413-.78-.62-1.412-.62-.631 0-1.102.207-1.411.62a2.36 2.36 0 00-.464 1.463 2.349 2.349 0 00.465 1.467c.31.405.78.608 1.411.61.631 0 1.102-.203 1.413-.61.31-.417.472-.936.457-1.467a2.362 2.362 0 00-.463-1.461m-.768 2.363a.83.83 0 01-.648.318.83.83 0 01-.647-.318c-.153-.211-.229-.513-.228-.903 0-.39.077-.69.228-.9a.834.834 0 01.647-.317c.249 0 .485.116.648.316.15.21.226.51.225.9-.001.391-.076.693-.225.904" fill="#00AEEF"/></g></g></svg>