<?xml version="1.0" encoding="UTF-8"?><svg width="56" height="36" viewBox="0 0 56 36" xmlns="http://www.w3.org/2000/svg"><g fill="none" fill-rule="evenodd"><path d="M0 3.75A3.749 3.749 0 013.75 0h48.5A3.756 3.756 0 0156 3.75v28.5A3.749 3.749 0 0152.25 36H3.75A3.756 3.756 0 010 32.25V3.75z" fill="#000" fill-rule="nonzero"/><path d="M1.25 3.75v28.5c0 1.375 1.123 2.5 2.5 2.5h48.5c1.382 0 2.5-1.118 2.5-2.5V3.75c0-1.375-1.123-2.5-2.5-2.5H3.75a2.499 2.499 0 00-2.5 2.5z" fill="#FFF"/><path d="M8.695 8.79h-.662V10h.54c.624 0 .906-.212.906-.647 0-.364-.294-.564-.784-.564zm.429-1.588c0-.317-.233-.588-.723-.588h-.355v1.152h.392c.453 0 .686-.27.686-.564zM27.375 9.06c0-.6-.245-1.058-.82-1.058-.576 0-.821.459-.821 1.058 0 .6.245 1.07.82 1.07.576-.012.821-.47.821-1.07zm-14.54.341c-.122.07-.184.177-.184.341 0 .27.196.4.503.4.281 0 .502-.082.588-.141V9.27l-.441.012c-.196.023-.356.059-.466.117zm26.08 0c-.123.07-.184.177-.184.341 0 .27.196.4.502.4.281 0 .502-.082.588-.141V9.27l-.441.012c-.184.023-.356.059-.466.117z"/><path d="M33.304 11.022v-2.55c0-1.2-.71-1.446-1.372-1.446-.502 0-.955.188-1.372.494l-.135-.4h-1.114v3.902h1.323V8.378c.245-.177.563-.294.82-.294.478 0 .552.34.552.752v2.175h1.298v.011zm1.225-4.83v.928h-.76v.952h.76v1.88c0 .706.514 1.153 1.335 1.153.417 0 .98-.094 1.299-.306l-.356-.846c-.159.094-.38.164-.588.164-.257 0-.38-.129-.38-.493V8.072h.944l.294-.952H35.84V5.839l-1.311.352zm9.677 1.81c.392 0 .71.117 1.004.34V7.308c-.208-.13-.575-.294-1.163-.294-1.176 0-2.23.811-2.23 2.069 0 1.152.772 2.01 2.144 2.01.588 0 1.14-.165 1.482-.4l-.355-.846c-.306.165-.588.259-.931.259-.612 0-1.017-.365-1.017-1.035 0-.588.38-1.07 1.066-1.07zm2.131-1.81v.928h-.759v.952h.76v1.88c0 .706.514 1.153 1.335 1.153.416 0 .98-.094 1.298-.306l-.355-.846c-.16.094-.38.164-.588.164-.257 0-.38-.129-.38-.493V8.072h.943l.294-.952h-1.237V5.839l-1.31.352zm-7.141 2.327a2.68 2.68 0 00-1.078.235c-.416.211-.674.54-.674 1.07 0 .752.588 1.28 1.385 1.28.502 0 .857-.176 1.139-.41l.183.328h1.066c-.073-.211-.073-.529-.073-.764V8.507c0-.952-.515-1.481-1.777-1.481-.649 0-1.2.153-1.678.376l.405.788a2.352 2.352 0 011.028-.236c.441 0 .711.153.711.518v.047h-.637zm.637 1.493a1.188 1.188 0 01-.588.14c-.306 0-.502-.129-.502-.4 0-.164.061-.258.184-.34.11-.07.269-.094.477-.106l.441-.012v.718h-.012zm-11.135-.953c0-1.187-.882-2.033-2.143-2.033-1.262 0-2.144.846-2.144 2.033 0 1.188.882 2.046 2.144 2.046 1.261 0 2.143-.858 2.143-2.046zm-2.952 0c0-.6.245-1.058.82-1.058.577 0 .822.459.822 1.058 0 .6-.245 1.07-.821 1.07-.588-.012-.82-.47-.82-1.07zm-12.641-.54a2.68 2.68 0 00-1.078.235c-.417.211-.674.54-.674 1.07 0 .752.588 1.28 1.384 1.28.502 0 .858-.176 1.14-.41l.183.328h1.066c-.074-.211-.074-.529-.074-.764V8.507c0-.952-.514-1.481-1.776-1.481-.65 0-1.2.153-1.678.376l.404.788a2.352 2.352 0 011.03-.236c.44 0 .71.153.71.518v.047h-.637zm.649 1.493a1.188 1.188 0 01-.588.14c-.306 0-.502-.129-.502-.4 0-.164.06-.258.183-.34.11-.07.27-.094.478-.106l.441-.012v.718h-.012zm-3.356-3.045c0-.682-.552-1.375-1.777-1.375H6.723v5.43h2.045c1.36 0 2.022-.858 2.022-1.657 0-.6-.356-1.117-1.042-1.305V8.05c.441-.236.65-.67.65-1.082zm-2.365-.353h.356c.49 0 .722.26.722.588 0 .294-.232.564-.686.564h-.392V6.614zM8.573 10h-.54V8.79h.662c.49 0 .784.21.784.563 0 .435-.27.647-.907.647zM22.866 8c.392 0 .711.118 1.005.341V7.308c-.208-.13-.576-.294-1.164-.294-1.176 0-2.23.811-2.23 2.069 0 1.152.773 2.01 2.144 2.01.588 0 1.14-.165 1.483-.4l-.356-.846c-.306.165-.588.259-.93.259-.613 0-1.017-.365-1.017-1.035 0-.588.392-1.07 1.065-1.07zm-3.025 3.021v-2.55c0-1.2-.71-1.446-1.372-1.446-.502 0-.956.188-1.372.494l-.135-.4H15.85v3.902h1.298V8.378c.245-.177.563-.294.82-.294.478 0 .552.34.552.752v2.175h1.323v.011z" fill="#024B81" fill-rule="nonzero"/><path d="M38.277 28.69c-.122.07-.171.164-.171.329 0 .27.196.4.502.4.282 0 .49-.083.588-.142v-.717l-.429.012c-.22.023-.38.047-.49.117zm-13.744-1.435c-.416 0-.624.33-.624.67h1.274c-.013-.34-.184-.67-.65-.67z"/><path d="M34.615 25.904c.526 0 1.016.117 1.482.352v-1.14c-.392-.153-.894-.247-1.519-.247-1.886 0-3.062 1.246-3.062 2.786 0 1.563.992 2.704 2.927 2.704.588 0 1.237-.094 1.923-.459l-.355-.975c-.416.235-.82.4-1.396.4-1.054 0-1.703-.694-1.703-1.682-.012-.917.502-1.74 1.703-1.74zm-8.158 2.539c0-1.305-.699-2.104-1.9-2.104-1.26 0-1.91.905-1.91 2.057 0 .975.576 1.95 2.168 1.95.527 0 1.03-.093 1.507-.375l-.368-.823a2.01 2.01 0 01-1.029.259c-.539 0-.967-.224-.992-.694h2.536v-.27h-.012zm-2.548-.53c0-.34.208-.67.624-.67.466 0 .637.33.65.67h-1.274zm5.132-.528c.098 0 .319.023.54.164l.452-.999a1.202 1.202 0 00-.661-.2c-.453 0-.772.224-1.078.482l-.135-.388h-1.078v3.832h1.274v-2.633c.27-.2.453-.258.686-.258zm9.506.435c-.404.011-.772.094-1.054.235-.416.211-.661.529-.661 1.046 0 .74.576 1.258 1.36 1.258a1.66 1.66 0 001.114-.4l.172.33h1.053c-.073-.212-.073-.518-.073-.753V27.82c0-.929-.503-1.458-1.74-1.458-.637 0-1.176.141-1.641.376l.392.776a2.428 2.428 0 011.017-.235c.428 0 .698.141.698.505v.036h-.637zm.637 1.457a1.188 1.188 0 01-.588.141c-.306 0-.502-.129-.502-.4 0-.164.06-.258.171-.329.11-.07.27-.094.478-.105l.428-.012v.705h.013zm5.88-4.737v5.736h1.273V27.68c.233-.177.552-.283.809-.283.478 0 .539.341.539.741v2.14h1.274v-2.504c0-1.188-.698-1.423-1.348-1.423-.502 0-.955.212-1.286.482v-2.28h-1.262v-.012zm-2.512 4.878c-.367 0-.808-.117-1.151-.34l-.392.87c.38.223.968.399 1.654.399.882 0 1.727-.33 1.727-1.234 0-1.364-1.887-1.176-1.887-1.61 0-.142.123-.224.441-.224.441 0 .858.117 1.238.27v-1.01a4.257 4.257 0 00-1.287-.2c-.992 0-1.629.482-1.629 1.222 0 1.293 1.887 1.07 1.887 1.587 0 .2-.233.27-.6.27zm-28.37-4.83c-.428 0-.759.317-.759.693 0 .4.33.705.76.705.428 0 .76-.33.76-.705 0-.388-.332-.694-.76-.694zm-2.927 5.688h1.298V24.94h-1.175l-1.262 1.822a6.228 6.228 0 00-.404.67h-.013a7.116 7.116 0 00-.428-.635l-1.397-1.869H6.71v5.337H8.01v-2.763c0-.14 0-.352-.012-.54h.012c.122.2.257.364.367.517l1.03 1.363h.563l.906-1.316c.098-.141.319-.459.368-.564h.012c-.012.164-.012.376-.012.576v2.738h.012zm2.29-3.832h1.275v3.832h-1.274v-3.832zm6.223-.905v.905h-.747v.94h.747v1.846c0 .694.503 1.129 1.311 1.129.404 0 .968-.094 1.274-.306l-.355-.823a1.143 1.143 0 01-.588.165c-.257 0-.368-.118-.368-.482v-1.528h.931l.282-.94h-1.213v-1.258l-1.274.352zm-2.903 3.88c-.367 0-.808-.118-1.151-.342l-.392.87c.38.224.968.4 1.654.4.881 0 1.727-.33 1.727-1.234 0-1.364-1.887-1.176-1.887-1.61 0-.142.123-.224.441-.224.441 0 .858.117 1.237.27v-1.01a4.257 4.257 0 00-1.286-.2c-.992 0-1.629.482-1.629 1.222 0 1.293 1.886 1.07 1.886 1.587 0 .2-.232.27-.6.27zM6.686 18.345v4.714h24.523l6.615-7.04h-7.913l-4.214 4.442h-7.815l1.96-2.116" fill="#024B81" fill-rule="nonzero"/><path fill="#FDD813" fill-rule="nonzero" d="M48.971 18.146v-4.714H24.484l-6.639 7.041h7.852l4.214-4.455h7.913l-1.997 2.128"/></g></svg>