<?xml version="1.0" encoding="UTF-8"?><svg width="56" height="36" viewBox="0 0 56 36" xmlns="http://www.w3.org/2000/svg"><g fill="none" fill-rule="evenodd"><path d="M0 3.75A3.749 3.749 0 013.75 0h48.5A3.756 3.756 0 0156 3.75v28.5A3.749 3.749 0 0152.25 36H3.75A3.756 3.756 0 010 32.25V3.75z" fill="#000" fill-rule="nonzero"/><path d="M1.25 3.75v28.5c0 1.375 1.123 2.5 2.5 2.5h48.5c1.382 0 2.5-1.118 2.5-2.5V3.75c0-1.375-1.123-2.5-2.5-2.5H3.75a2.499 2.499 0 00-2.5 2.5z" fill="#FFF"/><path d="M12.585 17.805c-.145-.098-.32-.138-.551-.138-.175 0-.359.03-.53.08a1.31 1.31 0 00-.513.295c-.163.138-.241.246-.241.305v2.325h.358v-1.873a.7.7 0 01.271-.55c.03-.02.048-.04.078-.06.163-.107.359-.166.579-.166.232 0 .395.08.503.247.096.157.154.384.154.68v1.724h.367V18.78c0-.049.03-.147.097-.304.03-.09.126-.188.29-.286.153-.099.337-.148.55-.148.232 0 .395.08.492.237.096.157.154.394.154.7v1.716h.367v-1.734c0-.434-.087-.76-.25-.966-.163-.218-.425-.316-.763-.325-.213 0-.406.049-.59.138-.174.089-.338.237-.482.452a.933.933 0 00-.34-.455zm4.538-.138c-.214 0-.416.04-.6.108a1.455 1.455 0 00-.482.305c-.135.138-.25.295-.328.483a1.625 1.625 0 00-.126.64c0 .245.039.452.126.64.078.187.193.353.328.491.136.13.29.237.483.305.183.068.385.108.6.108.213 0 .406-.04.59-.108.183-.068.346-.178.482-.305.135-.138.24-.295.328-.492.078-.187.126-.394.126-.64s-.039-.443-.126-.64a1.307 1.307 0 00-.328-.482 1.418 1.418 0 00-.483-.305 1.674 1.674 0 00-.59-.108zm-1.033 1.538c0-.345.087-.612.27-.809.184-.197.435-.295.763-.295.32 0 .57.098.753.295.184.197.271.464.271.809 0 .344-.087.611-.27.808-.184.197-.435.296-.754.296-.32 0-.579-.099-.762-.296-.175-.197-.271-.464-.271-.808zm6.81-1.48h-.513v2.956h.512v-2.955zm-2.821 0c-.087.02-.163.06-.25.1l-.115.058v-1.519h-.512l.009 4.06c.096.058.183.098.27.147.067.03.127.05.194.08a2.36 2.36 0 00.31.077c.096.01.202.019.328.019a1.493 1.493 0 001.063-.434c.127-.138.232-.304.299-.492.078-.197.115-.415.115-.64 0-.501-.106-.876-.32-1.134-.213-.256-.52-.375-.927-.375a1.649 1.649 0 00-.464.054zm-.01.446c.136-.04.29-.059.444-.059.28 0 .491.09.618.268.135.178.202.443.202.787 0 .366-.087.64-.271.828-.184.187-.425.285-.735.285-.067 0-.126 0-.184-.009-.048-.01-.105-.01-.154-.03-.039-.01-.066-.03-.105-.05-.049-.018-.106-.04-.154-.068V18.39c.048-.04.009-.019-.127.068.244-.169.398-.267.467-.286zm2.849-1.617c-.058-.068-.154-.108-.271-.108a.33.33 0 00-.262.108.363.363 0 00-.097.267c0 .099.03.178.097.256.057.08.144.107.262.107.117 0 .202-.04.27-.107a.414.414 0 00.088-.256.39.39 0 00-.087-.267zm1.293-.188h-.492v4.318h.492v-4.318z" fill="#A0274D" fill-rule="nonzero"/><path d="M27.525 18.565a1.531 1.531 0 00-.31-.483 1.26 1.26 0 00-.464-.305 1.522 1.522 0 00-1.13 0 1.336 1.336 0 00-.455.305 1.646 1.646 0 00-.31.483 1.871 1.871 0 00-.106.64c0 .236.04.452.106.64.078.187.184.353.31.492.126.129.28.236.455.304a1.522 1.522 0 001.13 0c.174-.068.328-.178.464-.304.126-.139.232-.296.31-.492.066-.188.105-.394.105-.64 0-.237-.039-.453-.105-.64zm-2.377.64c0-.178.03-.335.078-.483.048-.148.126-.277.222-.385.097-.098.203-.178.329-.236a1.072 1.072 0 01.85 0c.135.058.24.138.337.237.097.107.163.236.223.384a1.528 1.528 0 010 .965.964.964 0 01-.223.375 1.005 1.005 0 01-.762.316c-.154 0-.299-.03-.425-.079a1.107 1.107 0 01-.329-.236 1.123 1.123 0 01-.222-.375 1.306 1.306 0 01-.078-.483zm5.477-2.839h-.377v1.597a1.876 1.876 0 00-.395-.228 1.707 1.707 0 00-.473-.08c-.193 0-.376.04-.54.108-.174.08-.319.178-.443.305a1.353 1.353 0 00-.29.492 1.896 1.896 0 00-.105.63c0 .256.03.483.097.67.066.198.154.355.27.474.116.13.263.228.426.286.163.068.346.099.55.099.136 0 .263 0 .377-.01a8.39 8.39 0 00.32-.03l.29-.059c.096-.018.201-.049.298-.089v-4.165h-.005zm-1.931 1.962a.942.942 0 01.328-.218c.126-.05.262-.068.407-.08.163 0 .319.03.443.099.135.058.262.148.376.267v1.854a1.47 1.47 0 01-.376.09c-.127.018-.262.03-.425.03-.154 0-.29-.02-.425-.068a1.22 1.22 0 01-.347-.207.927.927 0 01-.223-.365 1.418 1.418 0 01-.087-.523c0-.197.03-.366.087-.502.076-.161.143-.278.242-.377zm2.847-.237a1.353 1.353 0 00-.289.493 1.896 1.896 0 00-.106.63c0 .237.03.443.097.63.066.188.163.354.28.493.126.129.271.236.443.304.184.068.386.108.618.108.223 0 .407-.019.56-.049.154-.03.31-.09.474-.178l-.115-.375c-.127.08-.271.138-.416.166-.145.03-.31.05-.491.05a1.26 1.26 0 01-.395-.06.895.895 0 01-.338-.196 1.08 1.08 0 01-.241-.335 1.419 1.419 0 01-.106-.483h2.173c.018-.068.03-.138.039-.197v-.218c0-.178-.03-.344-.078-.492a.843.843 0 00-.223-.375.995.995 0 00-.367-.255 1.44 1.44 0 00-.531-.09c-.202 0-.386.04-.56.108-.147.085-.301.193-.428.321zm.627 0a.96.96 0 01.338-.049c.299 0 .521.068.666.206.145.139.214.366.214.69h-1.854a.937.937 0 01.338-.67.969.969 0 01.298-.177zm3.999-.286a.902.902 0 00-.521-.138c-.214 0-.416.04-.61.13-.201.079-.357.196-.481.374a1.05 1.05 0 00-.223.474v2.05h.358V18.82a.7.7 0 01.271-.55c.03-.02.048-.04.078-.06.163-.107.359-.165.579-.165.232 0 .395.08.503.246.096.157.145.384.145.68v1.724h.367v-1.912c0-.05.03-.148.097-.305.039-.089.144-.187.298-.286.154-.098.338-.147.551-.147.232 0 .395.08.492.236.096.157.145.394.145.701v1.716h.376v-1.735c0-.433-.087-.76-.25-.965-.163-.218-.425-.317-.763-.326-.213 0-.406.05-.59.138-.174.09-.338.237-.482.452-.09-.21-.195-.358-.34-.457zm4.345-.138c-.202 0-.386.04-.56.108a1.268 1.268 0 00-.733.797 1.896 1.896 0 00-.106.63c0 .237.03.443.097.63.067.188.163.355.28.493.126.129.271.237.443.305.184.068.395.107.627.107.214 0 .407-.018.56-.049.155-.03.32-.089.474-.178l-.115-.375c-.126.08-.262.138-.406.167-.145.03-.31.049-.483.049-.144 0-.28-.019-.406-.059a.895.895 0 01-.338-.197 1.08 1.08 0 01-.241-.335 1.419 1.419 0 01-.106-.483h2.173c.018-.068.03-.138.039-.197v-.217c0-.179-.03-.345-.078-.493a.964.964 0 00-.223-.375.995.995 0 00-.367-.255 1.901 1.901 0 00-.53-.073zm-.376.424a.96.96 0 01.337-.049c.299 0 .521.068.666.206.136.139.214.366.214.69h-1.865c.018-.148.057-.277.115-.385a.948.948 0 01.222-.286c.1-.077.196-.136.31-.176z" fill="#3C3F3F" fill-rule="nonzero"/><path d="M42.54 20.24a.272.272 0 00-.202-.08.25.25 0 00-.193.08.33.33 0 00-.078.219c0 .089.03.157.078.218.048.058.106.08.193.08.087 0 .154-.031.202-.08a.324.324 0 00.067-.218.36.36 0 00-.067-.218zm.802-1.755a1.898 1.898 0 00-.271.424 1.64 1.64 0 00-.088.542c0 .187.03.365.078.522.058.157.136.296.242.425.105.117.232.206.376.276.145.068.31.099.503.099.163 0 .32-.01.464-.04.136-.03.28-.09.416-.167l-.106-.295a1.783 1.783 0 01-.347.138c-.114.03-.25.05-.395.05a.806.806 0 01-.346-.068.816.816 0 01-.28-.197.94.94 0 01-.194-.317 1.09 1.09 0 01-.066-.414c0-.336.087-.582.25-.76.163-.166.395-.255.696-.255.115 0 .223.009.328.03a.855.855 0 01.3.117l.144-.295a1.304 1.304 0 00-.347-.129 2.628 2.628 0 00-.434-.04c-.184 0-.347.03-.492.099a.948.948 0 00-.431.255zm4.163-.01a1.176 1.176 0 00-.298-.217c-.03-.019-.067-.03-.097-.05a1.295 1.295 0 00-.482-.098c-.174 0-.337.03-.482.099-.145.058-.28.147-.386.267a1.133 1.133 0 00-.262.424 1.401 1.401 0 00-.096.541c0 .207.039.385.096.542.058.166.145.305.262.424.115.108.241.197.386.267a1.364 1.364 0 00.964 0c.04-.01.067-.03.097-.049.106-.059.202-.129.298-.218.115-.117.203-.255.271-.424.067-.157.097-.345.097-.542 0-.206-.03-.384-.097-.541a1.663 1.663 0 00-.27-.424zm-.039.552c.049.117.078.255.078.414a.967.967 0 01-.078.415.88.88 0 01-.183.326c-.019.03-.049.05-.078.08a.835.835 0 01-.223.129.873.873 0 01-.368.068.873.873 0 01-.367-.068.896.896 0 01-.473-.532 1.172 1.172 0 01-.067-.415c0-.157.019-.296.067-.415a.896.896 0 01.473-.532.902.902 0 01.367-.068.91.91 0 01.368.068c.078.04.154.08.223.138.03.019.048.05.078.068.078.087.135.197.183.324zm3.67-.591c.193 0 .329.068.407.197.087.138.126.335.126.602v1.47h.32v-1.48c0-.374-.067-.65-.214-.836-.115-.148-.271-.227-.482-.255a1.084 1.084 0 00-.184-.02c-.175 0-.347.04-.503.118a1.067 1.067 0 00-.386.354c-.01.01-.018.019-.03.04a.83.83 0 00-.298-.385.727.727 0 00-.271-.107 1.084 1.084 0 00-.184-.02c-.184 0-.358.04-.521.109a.827.827 0 00-.338.227c-.03.03-.057.059-.078.09-.106.147-.175.276-.193.414v1.765h.299v-1.606a.34.34 0 01.039-.178.624.624 0 01.202-.295c.018-.019.039-.03.057-.05a.847.847 0 01.503-.147h.018c.193 0 .329.068.407.206.087.139.135.335.135.59v1.48h.32v-1.627c0-.03.009-.068.03-.117 0-.01.009-.03.009-.03.009-.03.03-.068.048-.108.039-.08.126-.157.262-.246a.85.85 0 01.473-.13h.03v-.025h-.003z" fill="#999" fill-rule="nonzero"/><path d="M5.024 20.598c.006.026.03.043.055.043h3.253a.058.058 0 00.055-.043l.661-2.536a.058.058 0 00-.055-.074H4.414l-.015.002a.059.059 0 00-.04.072l.665 2.536zm-.333.09l-.665-2.535a.411.411 0 01.388-.516h4.579a.406.406 0 01.388.515l-.66 2.536a.403.403 0 01-.39.305H5.08a.403.403 0 01-.388-.304z" fill="#3C3F3F" fill-rule="nonzero"/><path d="M7.79 20.194l.91-.003-.002-.351-3.987.012.001.351.896-.003v.507h.344v-.508l.574-.001v.509h.345v-.51l.574-.002v.512h.344v-.513z" fill="#3C3F3F" fill-rule="nonzero"/><path d="M5.229 16.927v-.059c0-.417.145-.776.432-1.069.286-.293.638-.44 1.047-.44.409 0 .76.147 1.047.44.287.293.432.652.432 1.069v.059c0 .097.077.175.172.175a.174.174 0 00.172-.175v-.059c0-.51-.18-.958-.532-1.317a1.756 1.756 0 00-1.291-.544c-.5 0-.94.185-1.291.544a1.83 1.83 0 00-.533 1.317v.059c0 .097.077.175.172.175a.174.174 0 00.173-.175zm.829.126v-.03a.65.65 0 01.191-.48.613.613 0 01.456-.193c.183 0 .337.064.454.191.13.14.194.298.194.482v.03c0 .097.077.176.172.176a.174.174 0 00.173-.176v-.03c0-.276-.1-.52-.289-.723a.936.936 0 00-.704-.302c-.269 0-.507.1-.7.298a1.006 1.006 0 00-.292.727v.03c0 .097.077.176.173.176a.174.174 0 00.172-.176z" fill="#A0274D" fill-rule="nonzero"/><path d="M11.503 17.747c.175-.059.358-.08.53-.08.223 0 .407.05.552.138a.997.997 0 01.347.443c.144-.206.31-.365.482-.452.184-.089.377-.138.59-.138.347 0 .6.108.763.326.163.218.25.532.25.965v1.725h-.367V18.97c0-.304-.049-.541-.154-.7-.097-.158-.262-.237-.492-.237-.213 0-.395.049-.551.147-.163.099-.262.197-.299.286-.066.157-.096.256-.096.305v1.903h-.367V18.96c0-.296-.049-.523-.154-.68-.097-.157-.271-.237-.503-.246-.223 0-.416.058-.58.166-.029.019-.047.04-.077.059a.708.708 0 00-.271.55v1.873h-.358v-2.336c0-.06.078-.167.24-.305a1.64 1.64 0 01.515-.293zM24.21 16.366v4.318h-.491v-4.318h.492zm-1.554.08c.115 0 .202.04.27.108a.4.4 0 01.088.267c0 .099-.03.178-.087.256-.058.077-.154.107-.271.107a.33.33 0 01-.262-.107.373.373 0 01-.097-.256.37.37 0 01.097-.267.333.333 0 01.262-.108zm-2.926 3.675c.057.03.105.05.154.068.03.03.066.05.105.05l.154.03c.058.01.115.01.184.01.31 0 .551-.1.735-.287.184-.187.27-.464.27-.827 0-.354-.066-.621-.201-.788-.127-.178-.338-.267-.618-.267-.154 0-.31.019-.443.059-.058.019-.214.117-.464.286.135-.09.174-.108.126-.068l-.002 1.734zm3.17-2.395v2.955h-.513v-2.955h.512zm-6.81 1.479c0 .344.087.611.27.808.184.197.435.296.763.296.32 0 .57-.099.753-.296.184-.197.271-.464.271-.808 0-.345-.087-.612-.27-.809-.184-.197-.435-.295-.754-.295-.32 0-.579.098-.762.295-.175.197-.271.464-.271.809z"/></g></svg>