<?xml version="1.0" encoding="UTF-8"?><svg width="56" height="36" viewBox="0 0 56 36" xmlns="http://www.w3.org/2000/svg"><g fill="none" fill-rule="evenodd"><path d="M0 3.75A3.749 3.749 0 013.75 0h48.5A3.756 3.756 0 0156 3.75v28.5A3.749 3.749 0 0152.25 36H3.75A3.756 3.756 0 010 32.25V3.75z" fill="#000" fill-rule="nonzero"/><path d="M1.25 3.75v28.5c0 1.375 1.123 2.5 2.5 2.5h48.5c1.382 0 2.5-1.118 2.5-2.5V3.75c0-1.375-1.123-2.5-2.5-2.5H3.75a2.499 2.499 0 00-2.5 2.5z" fill="#FFF"/><g fill-rule="nonzero"><path d="M29.115 20.723c.4.014.722-.123.956-.409l1.326-1.563h-5.003v-4.779a.982.982 0 00-.275-.681.85.85 0 00-.587-.291H18.51c-.264.023-.466.119-.6.272l-1.213 1.54-.166.423v3.874l.31.617h-.306l-.31-.617h-.317a.385.385 0 01-.148-.028.4.4 0 01-.179-.123l-.008-.01a.517.517 0 01-.127-.31v-3.403a.96.96 0 00-.174-.423l-.976-1.54A.681.681 0 0013.76 13H6.93v.01a.85.85 0 00-.653.297 1.017 1.017 0 00-.275.707v5.742s0 .023.004.032v.014c.013.245.106.46.27.64a.86.86 0 00.652.298c.254 0 .475-.1.654-.298a.988.988 0 00.268-.64v-4.811h1.945v4.665c0 .018-.004.032-.004.051v.019c0 .018 0 .041.004.06v.014c.013.244.105.46.269.64.182.197.4.297.657.297.258 0 .475-.1.654-.297a.988.988 0 00.268-.64c0-.005 0-.005.005-.014V15.014h1.94v4.712c0 .018 0 .041.004.06v.014c.013.244.106.46.269.64.183.197.4.297.658.297.03 0 .064 0 .096-.004.009 0 .013 0 .022-.005h6.842c.222-.01.426-.128.621-.349l1.11-1.37c.186-.22.279-.49.274-.804v-3.55l-.31-.62h.306l.31.616h.317c.052 0 .106.01.153.023.064.024.127.06.178.119a.515.515 0 01.136.321v4.598c-.009.625.288.96.887 1.002h3.654v.01zm-7.451-2.679l-.832 1.049h-2.477v-3.426l.853-1.072h2.458v3.45h-.002z" fill="#808385"/><path d="M38.671 15.207a2.002 2.002 0 00-1.001-1.742c-.301-.174-.67-.286-1.113-.349-.314-.046-.77-.07-1.367-.07h-3.406v7.705h1.235v-3.277h2.276c1.279 0 2.162-.216 2.65-.653.483-.442.726-.98.726-1.614zM36.4 13.993c.313.07.565.221.76.442.187.22.284.49.284.8 0 .432-.161.767-.488 1.002-.322.235-.87.358-1.644.358h-2.271V13.93h2.25c.535 0 .909.019 1.109.063zm6.129 3.365c-.056.01-.119.014-.179.023-.33.042-.726.075-1.188.1-.466.024-.812.07-1.045.142a4.283 4.283 0 00-.666.254c-.208.104-.39.29-.548.57-.157.279-.234.55-.234.827 0 .47.187.856.565 1.159.378.302.922.446 1.627.446.426 0 .827-.06 1.201-.184.37-.123.757-.335 1.156-.63.06.428.362.682.905.758.314.042.621.005.922-.114v-.711c-.47.179-.73.093-.786-.258a20.16 20.16 0 01-.035-1.338v-1.27c0-.423-.017-.716-.056-.879a1.371 1.371 0 00-.335-.644c-.161-.174-.413-.316-.752-.428-.34-.114-.787-.17-1.335-.17-.552 0-1.035.066-1.452.203-.417.133-.74.32-.96.565-.222.244-.328.565-.323.96h1.005a1.08 1.08 0 01.458-.739c.252-.18.692-.258 1.318-.235.625.019 1.022.123 1.173.302.122.142.191.291.217.452 0 .467-.213.748-.653.84zm.436 1.949c-.153.24-.391.437-.726.593-.331.156-.71.23-1.122.23-.421 0-.744-.083-.96-.253-.222-.17-.336-.358-.345-.56a.912.912 0 01.106-.51c.077-.137.217-.272.425-.405.204-.132.621-.207 1.253-.225.63-.024 1.139-.137 1.534-.34.04.74-.013 1.228-.165 1.47zm8.024-4.172h-1.214L47.948 19.7l-1.783-4.565h-1.262l2.48 5.705c0 .037-.056.17-.165.386-.114.216-.196.39-.256.518s-.14.235-.23.321c-.097.084-.247.128-.458.133a3.279 3.279 0 01-.795-.11v.86c.527.052.922.057 1.189.01.264-.046.483-.128.662-.24.174-.113.326-.297.447-.555.126-.258.234-.496.335-.707l2.877-6.321z" fill="#92278E"/></g></g></svg>