<?xml version="1.0" encoding="UTF-8"?><svg width="56" height="36" viewBox="0 0 56 36" xmlns="http://www.w3.org/2000/svg"><defs><linearGradient x1="49.994%" y1="4.922%" x2="49.994%" y2="100.857%" id="a"><stop stop-color="#0F8ACA" offset="0%"/><stop stop-color="#32BAE5" offset="100%"/></linearGradient><linearGradient x1="49.833%" y1=".892%" x2="49.833%" y2="101.824%" id="b"><stop stop-color="#E2A400" offset="0%"/><stop stop-color="#F5DD0E" offset="48.6%"/><stop stop-color="#B27F04" offset="100%"/></linearGradient><linearGradient x1="49.965%" y1="-7.679%" x2="49.965%" y2="35.039%" id="c"><stop stop-color="#BD871B" offset="0%"/><stop stop-color="#F5DD0E" offset="100%"/></linearGradient><linearGradient x1="49.965%" y1="-2.102%" x2="49.965%" y2="40.436%" id="d"><stop stop-color="#BD871B" offset="0%"/><stop stop-color="#F5DD0E" offset="100%"/></linearGradient><linearGradient x1="49.965%" y1="2.298%" x2="49.965%" y2="50.519%" id="e"><stop stop-color="#BD871B" offset="0%"/><stop stop-color="#F5DD0E" offset="100%"/></linearGradient><linearGradient x1="49.965%" y1="7.172%" x2="49.965%" y2="55.578%" id="f"><stop stop-color="#BD871B" offset="0%"/><stop stop-color="#F5DD0E" offset="100%"/></linearGradient><linearGradient x1="49.965%" y1="-4.703%" x2="49.965%" y2="36.964%" id="g"><stop stop-color="#BD871B" offset="0%"/><stop stop-color="#F5DD0E" offset="100%"/></linearGradient><linearGradient x1="49.837%" y1="2.025%" x2="49.837%" y2="64.96%" id="h"><stop stop-color="#BD871B" offset="0%"/><stop stop-color="#F5DD0E" offset="100%"/></linearGradient><linearGradient x1="49.837%" y1="-8.29%" x2="49.837%" y2="42.37%" id="i"><stop stop-color="#BD871B" offset="0%"/><stop stop-color="#F5DD0E" offset="100%"/></linearGradient><linearGradient x1="49.965%" y1="-1.517%" x2="49.965%" y2="67.623%" id="j"><stop stop-color="#BD871B" offset="0%"/><stop stop-color="#F5DD0E" offset="100%"/></linearGradient><linearGradient x1="49.965%" y1="3.6%" x2="49.965%" y2="33.026%" id="k"><stop stop-color="#BD871B" offset="0%"/><stop stop-color="#F5DD0E" offset="100%"/></linearGradient><linearGradient x1="49.965%" y1="-4.847%" x2="49.965%" y2="42.688%" id="l"><stop stop-color="#BD871B" offset="0%"/><stop stop-color="#F5DD0E" offset="100%"/></linearGradient><linearGradient x1="49.867%" y1="-4.095%" x2="49.867%" y2="42.136%" id="m"><stop stop-color="#BD871B" offset="0%"/><stop stop-color="#F5DD0E" offset="100%"/></linearGradient><linearGradient x1="49.867%" y1="-1.267%" x2="49.867%" y2="40.056%" id="n"><stop stop-color="#BD871B" offset="0%"/><stop stop-color="#F5DD0E" offset="100%"/></linearGradient><linearGradient x1="49.867%" y1="-5.301%" x2="49.867%" y2="49.944%" id="o"><stop stop-color="#BD871B" offset="0%"/><stop stop-color="#F5DD0E" offset="100%"/></linearGradient><linearGradient x1="49.867%" y1="-2.764%" x2="49.867%" y2="49.879%" id="p"><stop stop-color="#BD871B" offset="0%"/><stop stop-color="#F5DD0E" offset="100%"/></linearGradient><linearGradient x1="49.867%" y1="-1.997%" x2="49.867%" y2="45.651%" id="q"><stop stop-color="#BD871B" offset="0%"/><stop stop-color="#F5DD0E" offset="100%"/></linearGradient><linearGradient x1="49.867%" y1="-6.157%" x2="49.867%" y2="46.477%" id="r"><stop stop-color="#BD871B" offset="0%"/><stop stop-color="#F5DD0E" offset="100%"/></linearGradient><linearGradient x1="49.867%" y1="-5.363%" x2="49.867%" y2="71.938%" id="s"><stop stop-color="#BD871B" offset="0%"/><stop stop-color="#F5DD0E" offset="100%"/></linearGradient><linearGradient x1="49.867%" y1="-8.975%" x2="49.867%" y2="79.915%" id="t"><stop stop-color="#BD871B" offset="0%"/><stop stop-color="#F5DD0E" offset="100%"/></linearGradient><linearGradient x1="49.867%" y1="-15.743%" x2="49.867%" y2="71.92%" id="u"><stop stop-color="#BD871B" offset="0%"/><stop stop-color="#F5DD0E" offset="100%"/></linearGradient><linearGradient x1="49.867%" y1="-21.969%" x2="49.867%" y2="56.678%" id="v"><stop stop-color="#BD871B" offset="0%"/><stop stop-color="#F5DD0E" offset="100%"/></linearGradient><linearGradient x1="49.867%" y1="-37.033%" x2="49.867%" y2="38.883%" id="w"><stop stop-color="#BD871B" offset="0%"/><stop stop-color="#F5DD0E" offset="100%"/></linearGradient></defs><g fill="none" fill-rule="evenodd"><path d="M0 3.75A3.749 3.749 0 013.75 0h48.5A3.756 3.756 0 0156 3.75v28.5A3.749 3.749 0 0152.25 36H3.75A3.756 3.756 0 010 32.25V3.75z" fill="#000" fill-rule="nonzero"/><path d="M1.25 3.75v28.5c0 1.375 1.123 2.5 2.5 2.5h48.5c1.382 0 2.5-1.118 2.5-2.5V3.75c0-1.375-1.123-2.5-2.5-2.5H3.75a2.499 2.499 0 00-2.5 2.5z" fill="#FFF"/><g fill-rule="nonzero"><path d="M1.032 10.718l-.114-.63H0v3.358h1.006v-2.162c.579-.367 1.044-.551 1.389-.551.389 0 .59.235.59.696v2.017h1.018v-1.683c.006-.172.006-.34-.006-.491l.342-.202c.415-.229.763-.34 1.038-.34.39 0 .585.235.585.696v2.017H6.98V11.76a3.955 3.955 0 00-.082-1.015c-.135-.506-.471-.762-1.006-.759-.453-.02-.968.145-1.553.5a5.37 5.37 0 00-.412.274c0-.006-.006-.012-.006-.018-.114-.425-.363-.669-.746-.735a1.201 1.201 0 00-.26-.02c-.561-.028-1.184.219-1.883.73zm9.392-.714a3.87 3.87 0 00-.427.027c-.482.06-.865.184-1.164.368-.459.346-.698.759-.719 1.237-.006.052-.006.106-.006.157 0 .49.228.913.676 1.265.453.352 1 .524 1.637.524.643 0 1.19-.172 1.637-.524.45-.346.676-.759.682-1.238v-.027a1.41 1.41 0 00-.012-.157c.012-.484-.196-.897-.617-1.237-.342-.202-.763-.323-1.266-.368a3.718 3.718 0 00-.421-.027zm-.933.91c.26-.223.567-.335.936-.335.362 0 .675.112.93.335.234.201.362.445.383.722 0 .028.006.06.006.09 0 .317-.129.591-.39.814a1.367 1.367 0 01-.93.334c-.362 0-.675-.111-.935-.334a1.048 1.048 0 01-.383-.813c0-.033 0-.06.006-.09.02-.28.146-.525.377-.723zm12.08-.91c-.147 0-.287.012-.422.027-.465.06-.848.202-1.152.413-.439.316-.667.714-.687 1.186-.006.052-.006.106-.006.157 0 .49.222.912.66 1.265.445.352.98.524 1.603.524.044 0 .088 0 .135-.006.745-.006 1.28-.09 1.602-.244l.173-.729c-.281.124-.714.196-1.304.217-.737.027-1.211-.06-1.433-.256-.228-.202-.369-.407-.433-.63h3.523c.006-.039.006-.078.006-.117v-.027c0-.051 0-.105-.006-.157-.038-.484-.234-.858-.579-1.132-.345-.268-.769-.428-1.26-.473-.14-.006-.28-.018-.42-.018zm-.91.91c.248-.223.552-.335.91-.335.356 0 .66.112.909.335.157.138.266.295.324.472h-2.468c.062-.177.17-.334.325-.472zm-2.483-.15c0-.007-.005-.013-.005-.019-.153-.506-.53-.762-1.126-.759-.623-.027-1.325.217-2.105.729l-.115-.63h-.918v3.358h1.006v-2.162c.65-.367 1.164-.551 1.559-.551.438 0 .655.235.655.696v2.017h1.12l.017-1.683c.006-.172.006-.34-.006-.491a2.716 2.716 0 00-.082-.506zm10.84-.525l-.097.675a9.612 9.612 0 011.79-.223c.529-.04.795.123.795.49v.245h-1.427c-.886.027-1.444.268-1.667.713-.166.452-.038.859.383 1.214.243.132.51.205.801.21.72 0 1.386-.288 2-.87v.296c.021.34.2.53.541.557.299.018.585-.012.854-.085l.196-.662c-.146.06-.313.084-.503.06-.09-.021-.14-.078-.134-.178v-1.644c.02-.479-.152-.78-.515-.891a4.874 4.874 0 00-1.605-.139 8.45 8.45 0 00-1.412.232zm2.488 1.72c-.108.13-.217.24-.325.34-.412.367-.854.551-1.336.551-.33-.018-.497-.157-.509-.419v-.05c.012-.242.299-.38.854-.42h1.313l.003-.002zm-4.143-1.214v-.63h-.995v-.942l-1.07.355v.585h-.763v.629h.763v1.837c.02.524.234.84.638.964a2.16 2.16 0 001.184-.09l.14-.69c-.19.078-.377.111-.567.093-.222-.027-.33-.178-.325-.458V10.74h.995v.006zm19.394-.662h-1.134v1.683a3.39 3.39 0 00.088 1.003c0 .006.005.012.005.018.152.506.53.762 1.132.759.623.027 1.319-.217 2.1-.73l.113.636h.919V10.09h-1.006v2.162c-.65.367-1.164.55-1.559.55-.438 0-.655-.234-.655-.695v-2.023h-.003zm-2.07.93v-.831c-.953-.241-1.745-.018-2.392.668l-.09-.767h-.828v3.357h1.006v-2.05c.541-.356 1-.537 1.38-.546.257 0 .567.052.924.17z" fill="url(#a)" transform="translate(3 8)"/><path d="M38.15.027h-2.434v18.99h2.433V.028zm-.077.018c-.032.035-.032.076 0 .124h-2.272c.02-.035.02-.076 0-.124h2.272zm0 .29c-.044.066-.044.132 0 .201h-2.272c.053-.066.053-.132 0-.202h2.272zm0 .454c-.088.1-.088.196 0 .29h-2.272c.097-.085.097-.185 0-.29h2.272zm0 .62c-.12.133-.12.268 0 .389h-2.272c.152-.13.152-.256 0-.389h2.272zm0 .807c-.184.166-.184.314 0 .44h-2.272c.173-.144.173-.295 0-.44h2.272zM35.801 3.66c.173-.172.173-.346 0-.524h2.272c-.184.196-.184.373 0 .524h-2.272zm0 1.147c.173-.195.173-.394 0-.596h2.272c-.184.223-.184.425 0 .596h-2.272zm0 .57h2.272c-.184.228-.184.433 0 .608h-2.272c.173-.202.173-.404 0-.608zm2.272 1.22c-.184.255-.184.478 0 .68h-2.272c.173-.223.173-.452 0-.68h2.272zm-2.272 3.351c.173-.223.173-.452 0-.68h2.272c-.184.255-.184.478 0 .68h-2.272zm0-2.015h2.272c-.184.256-.184.48 0 .68h-2.272c.173-.228.173-.45 0-.68zm-.026 2.702h2.272c-.173.216-.173.44 0 .656h-2.272c.181-.25.181-.467 0-.656zm2.269 1.298c-.173.216-.173.44 0 .662h-2.272c.184-.244.184-.467 0-.662h2.272zm0 1.252c-.173.202-.173.395 0 .597h-2.272c.184-.223.184-.425 0-.597h2.272zm-2.27 2.831c.185-.19.185-.361 0-.506h2.273c-.173.166-.173.335 0 .506h-2.272zm0-1.048c.185-.217.185-.412 0-.584h2.273c-.173.196-.173.388 0 .584h-2.272zm0 1.515h2.273c-.173.144-.173.283 0 .428h-2.272c.181-.16.181-.305 0-.428zm2.27 2.069c-.053.06-.053.13 0 .196h-2.272c.044-.067.044-.133 0-.196h2.272zm0-.53c-.097.084-.097.177 0 .277h-2.272c.088-.093.088-.19 0-.277h2.272zm0-.696c-.152.13-.152.25 0 .38h-2.272c.12-.133.12-.256 0-.38h2.272zm0 1.53c-.02.035-.02.076 0 .124h-2.272c.032-.029.032-.07 0-.124h2.272z" fill="url(#b)" transform="translate(3 8)"/><path d="M38.044 19.221a1.099 1.099 0 010-.366h-2.272a.702.702 0 010 .366h2.272z" fill="url(#c)" transform="translate(3 8)"/><path d="M38.044 17.702c-.152-.13-.152-.25 0-.38h-2.272c.12.124.12.244 0 .38h2.272z" fill="url(#d)" transform="translate(3 8)"/><path d="M38.044 18.387c-.097-.14-.097-.259 0-.366h-2.272c.088.12.088.242 0 .366h2.272z" fill="url(#e)" transform="translate(3 8)"/><path d="M38.044 18.914a.444.444 0 010-.366h-2.272a.525.525 0 010 .366h2.272z" fill="url(#f)" transform="translate(3 8)"/><path d="M38.044 16.482h-2.272c.184.13.184.268 0 .428h2.272c-.173-.142-.173-.287 0-.428z" fill="url(#g)" transform="translate(3 8)"/><path d="M35.775 14.389c.184.166.184.361 0 .584h2.272c-.173-.196-.173-.388 0-.584h-2.272z" fill="url(#h)" transform="translate(3 8)"/><path d="M35.775 15.512c.184.145.184.316 0 .506h2.272c-.173-.171-.173-.34 0-.506h-2.272z" fill="url(#i)" transform="translate(3 8)"/><path d="M38.044 13.78c-.173-.201-.173-.394 0-.596h-2.272c.184.172.184.374 0 .597h2.272z" fill="url(#j)" transform="translate(3 8)"/><path d="M38.044 12.594c-.173-.223-.173-.44 0-.662h-2.272c.184.195.184.412 0 .662h2.272z" fill="url(#k)" transform="translate(3 8)"/><path d="M38.044 10.634h-2.272c.184.19.184.412 0 .656h2.272c-.173-.223-.173-.44 0-.656z" fill="url(#l)" transform="translate(3 8)"/><path d="M38.073 7.932h-2.272c.173.23.173.452 0 .68h2.272c-.184-.2-.184-.424 0-.68z" fill="url(#m)" transform="translate(3 8)"/><path d="M35.801 9.27c.173.228.173.451 0 .68h2.272c-.184-.196-.184-.425 0-.68h-2.272z" fill="url(#n)" transform="translate(3 8)"/><path d="M38.073 7.276c-.184-.196-.184-.425 0-.68h-2.272c.173.228.173.45 0 .68h2.272z" fill="url(#o)" transform="translate(3 8)"/><path d="M38.073 5.376h-2.272c.173.204.173.406 0 .608h2.272c-.184-.175-.184-.38 0-.608z" fill="url(#p)" transform="translate(3 8)"/><path d="M35.801 4.216c.173.202.173.4 0 .596h2.272c-.184-.171-.184-.373 0-.596h-2.272z" fill="url(#q)" transform="translate(3 8)"/><path d="M35.801 3.135c.173.172.173.352 0 .524h2.272c-.184-.15-.184-.322 0-.524h-2.272z" fill="url(#r)" transform="translate(3 8)"/><path d="M38.073 2.662c-.184-.13-.184-.274 0-.44h-2.272c.173.145.173.296 0 .44h2.272z" fill="url(#s)" transform="translate(3 8)"/><path d="M38.073 1.798c-.12-.124-.12-.25 0-.389h-2.272c.152.13.152.256 0 .389h2.272z" fill="url(#t)" transform="translate(3 8)"/><path d="M38.073 1.158c-.088-.118-.088-.24 0-.366h-2.272c.097.133.097.26 0 .366h2.272z" fill="url(#u)" transform="translate(3 8)"/><path d="M38.073.697a.525.525 0 010-.366h-2.272a.444.444 0 010 .366h2.272z" fill="url(#v)" transform="translate(3 8)"/><path d="M38.073.408a.702.702 0 010-.366h-2.272c.02.14.02.263 0 .366h2.272z" fill="url(#w)" transform="translate(3 8)"/></g></g></svg>