<svg width="56" height="36" xmlns="http://www.w3.org/2000/svg"><defs><linearGradient x1="-3.13%" y1="96.35%" x2="103.93%" y2="3.33%" id="a"><stop stop-color="#140757" offset="25%"/><stop stop-color="#270953" offset="28.61%"/><stop stop-color="#6D1042" offset="42.66%"/><stop stop-color="#A41535" offset="55.33%"/><stop stop-color="#CC192C" offset="66.16%"/><stop stop-color="#E41B26" offset="74.74%"/><stop stop-color="#ED1C24" offset="80%"/></linearGradient></defs><g fill="none" fill-rule="evenodd"><path d="M0 3.75A3.75 3.75 0 0 1 3.75 0h48.5A3.76 3.76 0 0 1 56 3.75v28.5A3.75 3.75 0 0 1 52.25 36H3.75A3.76 3.76 0 0 1 0 32.25V3.75z" fill="#000" fill-rule="nonzero"/><path d="M1.25 3.75v28.5a2.5 2.5 0 0 0 2.5 2.5h48.5a2.5 2.5 0 0 0 2.5-2.5V3.75a2.5 2.5 0 0 0-2.5-2.5H3.75a2.5 2.5 0 0 0-2.5 2.5z" fill="#FFF"/><g fill-rule="nonzero"><path d="M44.88 15.77l-.92 1.4-.92-1.4v1.81h.27v-.96l.65 1.02.65-1.02v.96h.27v-1.81zm1.35.03a.89.89 0 0 0-.86.9c0 .5.38.91.86.91.49 0 .87-.41.87-.9 0-.5-.38-.91-.87-.91zm0 1.53c-.32 0-.58-.29-.58-.63 0-.35.26-.62.58-.62.33 0 .59.28.59.62a.6.6 0 0 1-.59.63zm1.36-1.56v1.81h.27v-1.2l1.34 1.26v-1.8h-.27v1.2l-1.34-1.27zm3.4.06h-1.22v1.75H51v-.26h-.95v-.5h.9v-.24h-.9v-.48H51v-.27zm1.94 0h-.3l-.52.8-.51-.8h-.3l.68 1.07v.68h.27v-.68l.68-1.07zm-9.02 2.6h-.86v1.75h.87c.3 0 .53-.24.53-.52 0-.2-.1-.35-.27-.42a.4.4 0 0 0 .2-.36c0-.26-.19-.45-.47-.45zm-.6.72v-.47h.54c.17 0 .26.11.26.24 0 .12-.1.23-.26.23h-.54zm0 .77v-.52h.57c.17 0 .28.11.28.26 0 .14-.1.26-.28.26h-.57zm2.32-1.56l-.96 1.82h.3l.22-.4h.9l.22.4h.3l-.98-1.82zm-.32 1.17l.32-.62.33.62h-.65zm1.7-1.17v1.8h.26v-1.18l1.34 1.25v-1.8h-.27v1.2L47 18.36zm3.65.07h-.38l-.83.8v-.8h-.28v1.74h.28v-.58l.29-.27.63.85h.33l-.77-1.05.73-.7zm-33.64-2.76l-2.33 3.27-2.33-3.27v4.49h.83v-1.97l1.5 2.14 1.5-2.14v1.97h.83v-4.5zm2.84.08A2.22 2.22 0 0 0 17.69 18c0 1.25.97 2.25 2.17 2.25s2.17-1.01 2.17-2.25c0-1.25-.97-2.25-2.17-2.25zm0 3.64c-.72 0-1.3-.63-1.3-1.39 0-.77.58-1.39 1.3-1.39.72 0 1.3.63 1.3 1.39 0 .77-.58 1.39-1.3 1.39zm2.71-3.72v4.49h.84v-2.67l3.22 2.84v-4.49h-.83v2.67l-3.23-2.84zm8.04.17h-3.16v4.32h3.16v-.8h-2.3v-.98h2.2v-.77h-2.2v-.97h2.3v-.8zm4.55 0h-4.08v.8h1.23v3.52h.85v-3.52h1.56l.44-.8zm.98-.17l-2.43 4.5h.94l.45-.83h2.1l.45.83h.94l-2.45-4.5zm-.67 2.95l.66-1.25.68 1.25h-1.34zm5.07-4.51h.25v7.78h-.25v-7.78z" fill="#140757"/><path d="M.79 2.13L2.62 4 .8 5.87V2.13zM6.47.08l-3.24 3.3L0 .12v7.78l3.2-3.27.62-.62 1.84-1.87v3.74L4.43 4.61l-.6.62L6.5 7.96V.08h-.03z" fill="url(#a)" transform="translate(3 14)"/></g></g></svg>