<?xml version="1.0" encoding="UTF-8"?><svg width="56" height="36" viewBox="0 0 56 36" xmlns="http://www.w3.org/2000/svg" xmlns:xlink="http://www.w3.org/1999/xlink"><defs><linearGradient x1="49.99%" y1="30%" x2="49.99%" y2="100%" id="a"><stop stop-color="#B5C234" offset="0%"/><stop stop-color="#98AE3B" offset="100%"/></linearGradient><rect id="b" x="0" y="0" width="19.932" height="20.427" rx="3.83"/></defs><g fill="none" fill-rule="evenodd"><path d="M0 3.75A3.749 3.749 0 013.75 0h48.5A3.756 3.756 0 0156 3.75v28.5A3.749 3.749 0 0152.25 36H3.75A3.756 3.756 0 010 32.25V3.75z" fill="#000" fill-rule="nonzero"/><path d="M1.25 3.75v28.5c0 1.375 1.123 2.5 2.5 2.5h48.5c1.382 0 2.5-1.118 2.5-2.5V3.75c0-1.375-1.123-2.5-2.5-2.5H3.75a2.499 2.499 0 00-2.5 2.5z" fill="#FFF"/><g transform="translate(18 5)"><rect fill="url(#a)" fill-rule="nonzero" width="19.932" height="20.427" rx="3.83"/><mask id="c" fill="#fff"><use xlink:href="#b"/></mask><path d="M18.067-1.638C10.607-3.553 5.066 3.714 5.066 3.714c-5.295 6.905.402 8.948.402 8.948 5.094 2.129 10.446-2.376 10.446-2.376.73-.482.526-.824.526-.824-.265-.411-.956.149-.956.149-5.673 4.175-9.562 1.82-9.562 1.82-4.476-2.697.727-8.235.727-8.235 4.23-4.279 8.345-3.575 8.345-3.575 6.524.696 3.893 5.584 3.893 5.584C17.54 7.577 16.13 7.37 16.13 7.37c-1.366.16.068-2.12.068-2.12l.197-.28s.634-.903.803-1.113c0 0 .828-.901.221-1.35-.317-.202-1.028-.297-2.41.98l-3.745 3.294-.024.025-.068.061.1-.115c.185-.321 1.033-1.787 1.535-2.536 0 0 1.065-1.619-.137-1.672-.28.037-.84.235-1.84 1.054 0 0-3.214 2.734-3.812 3.376a30.67 30.67 0 011.755-2.91s.856-1.207.298-1.627c0 0-.643-.498-1.366.502 0 0-3.922 5.431-1.889 6 0 0 .482.21 1.539-.63l3.057-2.837s-1.916 3.03-.875 3.392c0 0 .482.256 1.522-.51l3.58-2.85s-.157.268-.33.655c-.345.774-.75 2.014-.136 2.528.116.095.655.45 1.808.186 2.25-.359 3.921-3.369 3.921-3.369 2.728-5.55-1.836-7.143-1.836-7.143z" fill="#FFF" fill-rule="nonzero" mask="url(#c)"/><path d="M8.271 14.654a1.474 1.474 0 00-1.241-.54 4.673 4.673 0 00-1.382.206l-.08.025-1.11 4.891h.78l.321-1.4a1.6 1.6 0 00.651.128c1.105-.05 2.044-.842 2.302-1.943a1.63 1.63 0 00-.24-1.367zM6.32 17.23a1.792 1.792 0 01-.599-.099l.506-2.207c.23-.06.466-.089.703-.086a.822.822 0 01.687.296c.164.24.213.543.133.824a1.62 1.62 0 01-1.43 1.272zM12.05 14.562a1.298 1.298 0 00-1.066-.449 2.541 2.541 0 00-1.434.478l-.1.07.325.527.109-.066c.297-.18.635-.277.98-.284.201-.017.4.059.542.206.098.147.13.33.089.502a1.575 1.575 0 00-.711-.169h-.04a1.994 1.994 0 00-1.784.923c-.208.33-.226.75-.049 1.1.284.406.76.625 1.246.571h.028c.313-.008.619-.094.892-.25v.193h.63l.515-2.22a1.324 1.324 0 00-.173-1.132zm-.712 1.647l-.105.453-.056.251a1.424 1.424 0 01-.884.313c-.462 0-.75-.169-.75-.44 0-.272.4-.721 1.144-.725.226-.008.45.044.65.152v-.004zM15.412 14.11l-1.562 2.611-.402-2.61h-.804l.599 3.565-.273.453a.508.508 0 01-.482.289h-.225l-.161.7H12.443c.495.022.96-.24 1.206-.68l2.611-4.327h-.848z" fill="#E6E6E5" fill-rule="nonzero" style="mix-blend-mode:multiply"/><path d="M8.271 14.634a1.473 1.473 0 00-1.237-.519c-.468 0-.934.069-1.382.206l-.068.02-1.125 4.88h.779l.321-1.4c.206.09.428.135.651.132 1.107-.047 2.048-.84 2.306-1.944.128-.473.038-.98-.245-1.375zM6.323 17.21a1.858 1.858 0 01-.603-.094l.506-2.207c.23-.058.467-.086.703-.083a.822.822 0 01.687.297c.163.24.212.542.133.823a1.62 1.62 0 01-1.426 1.264zM11.667 14.527a1.292 1.292 0 00-1.06-.412 2.537 2.537 0 00-1.44.482l-.1.07.33.527.108-.066c.298-.186.637-.29.985-.3.201-.017.4.059.542.206a.635.635 0 01.084.498 1.576 1.576 0 00-.71-.181h-.04a1.994 1.994 0 00-1.789.926c-.207.331-.226.75-.048 1.1.286.407.763.626 1.25.572h.028c.31-.006.615-.09.888-.243v.194h.634l.507-2.224a1.32 1.32 0 00-.17-1.149zm-.707 1.647l-.153.601-.028.124a1.392 1.392 0 01-.888.313c-.462 0-.747-.169-.751-.437-.004-.267.402-.72 1.14-.724.235-.013.468.038.676.148l.004-.025zM14.887 14.119l-1.543 2.61-.402-2.61h-.803l.598 3.566-.273.453a.516.516 0 01-.486.284h-.225l-.16.696h.357c.488.017.944-.245 1.185-.68l2.632-4.327-.88.008z" fill="#FFF" fill-rule="nonzero"/><path d="M2.715 25.832a1.161 1.161 0 01-.425-.206.273.273 0 01-.082-.092.272.272 0 01-.025-.123.27.27 0 01.06-.173c.04-.05.084-.074.135-.074.028 0 .056.004.083.014a.51.51 0 01.097.049c.11.07.22.122.332.154.113.033.236.05.371.05.168 0 .297-.03.386-.087a.277.277 0 00.134-.247c0-.08-.042-.146-.124-.196-.083-.05-.23-.096-.442-.14a2.401 2.401 0 01-.567-.181.74.74 0 01-.31-.263.706.706 0 01-.097-.38c0-.165.046-.313.14-.445a.928.928 0 01.385-.31c.165-.074.35-.111.556-.111.362 0 .66.093.895.278a.31.31 0 01.082.096.262.262 0 01.025.12.27.27 0 01-.06.172c-.04.05-.084.075-.135.075a.253.253 0 01-.079-.012.539.539 0 01-.101-.051 1.593 1.593 0 00-.288-.153.937.937 0 00-.335-.051.639.639 0 00-.367.092.29.29 0 00-.134.253.23.23 0 00.052.155c.034.04.092.076.172.108.08.03.194.064.342.098.347.078.596.179.747.301a.615.615 0 01.228.506.748.748 0 01-.136.443.878.878 0 01-.382.298c-.165.07-.355.106-.572.106-.2 0-.388-.025-.561-.073zm2.726-.025a.297.297 0 01-.082-.22v-1.983H4.74c-.188 0-.283-.084-.283-.251 0-.165.095-.247.283-.247h1.835c.188 0 .282.082.282.247 0 .167-.094.25-.282.25h-.62v1.984a.3.3 0 01-.08.22.29.29 0 01-.218.082.292.292 0 01-.216-.082zm3.87-.185a.24.24 0 01-.086.187.288.288 0 01-.197.076.253.253 0 01-.237-.165l-.202-.462H7.293l-.203.462a.25.25 0 01-.237.165.295.295 0 01-.198-.076.238.238 0 01-.088-.187c0-.036.01-.078.03-.125l1.032-2.222a.304.304 0 01.126-.143.35.35 0 01.493.143l1.032 2.222c.02.047.03.089.03.125zm-1.815-.827h.89l-.443-1.019-.447 1.02zM10 25.807a.297.297 0 01-.083-.22v-1.983H9.3c-.188 0-.282-.084-.282-.251 0-.165.094-.247.282-.247h1.835c.188 0 .283.082.283.247 0 .167-.095.25-.283.25h-.62v1.984a.3.3 0 01-.08.22.29.29 0 01-.217.082.292.292 0 01-.216-.082zm1.752.004a.306.306 0 01-.08-.224v-2.199a.3.3 0 01.08-.22.29.29 0 01.218-.082.29.29 0 01.218.083.3.3 0 01.08.22v2.198a.306.306 0 01-.08.224.29.29 0 01-.218.082.29.29 0 01-.218-.082zm1.592-.08a1.167 1.167 0 01-.457-.495 1.652 1.652 0 01-.16-.75c0-.288.053-.538.16-.75.107-.214.26-.378.457-.493.197-.115.43-.172.697-.172.268 0 .5.057.697.172.198.115.35.28.457.492.107.213.16.463.16.75 0 .288-.053.538-.16.751-.107.213-.26.378-.457.494a1.35 1.35 0 01-.697.175c-.267 0-.5-.059-.697-.175zm1.226-.544c.129-.162.193-.396.193-.701 0-.306-.063-.54-.19-.7a.64.64 0 00-.532-.241.635.635 0 00-.53.241c-.125.16-.188.394-.188.7 0 .305.063.54.19.701a.634.634 0 00.528.243.64.64 0 00.53-.243zm3.501-2.016a.307.307 0 01.078.217v2.2a.312.312 0 01-.078.22.266.266 0 01-.204.085.273.273 0 01-.222-.102l-1.28-1.682v1.478a.322.322 0 01-.075.222.254.254 0 01-.2.084.26.26 0 01-.203-.084.317.317 0 01-.077-.222v-2.199c0-.089.027-.161.079-.217a.266.266 0 01.204-.085c.095 0 .167.034.218.102l1.28 1.67v-1.47c0-.089.026-.161.077-.217a.256.256 0 01.199-.085c.084 0 .152.029.204.085z" fill="#5C4F4A"/></g></g></svg>