<?xml version="1.0" encoding="UTF-8"?><svg width="56" height="36" viewBox="0 0 56 36" xmlns="http://www.w3.org/2000/svg" xmlns:xlink="http://www.w3.org/1999/xlink"><defs><linearGradient x1="49.99%" y1="30%" x2="49.99%" y2="100%" id="a"><stop stop-color="#B5C234" offset="0%"/><stop stop-color="#98AE3B" offset="100%"/></linearGradient><rect id="b" x="0" y="0" width="23.918" height="24.318" rx="4.596"/></defs><g fill="none" fill-rule="evenodd"><path d="M0 3.75A3.749 3.749 0 013.75 0h48.5A3.756 3.756 0 0156 3.75v28.5A3.749 3.749 0 0152.25 36H3.75A3.756 3.756 0 010 32.25V3.75z" fill="#000" fill-rule="nonzero"/><path d="M1.25 3.75v28.5c0 1.375 1.123 2.5 2.5 2.5h48.5c1.382 0 2.5-1.118 2.5-2.5V3.75c0-1.375-1.123-2.5-2.5-2.5H3.75a2.499 2.499 0 00-2.5 2.5z" fill="#FFF"/><g transform="translate(16 6)"><rect fill="url(#a)" fill-rule="nonzero" width="23.918" height="24.318" rx="4.596"/><mask id="c" fill="#fff"><use xlink:href="#b"/></mask><path d="M21.68-1.95c-8.952-2.28-15.6 6.372-15.6 6.372-6.355 8.22.481 10.652.481 10.652 6.114 2.534 12.535-2.829 12.535-2.829.878-.573.632-.98.632-.98-.318-.49-1.148.176-1.148.176-6.807 4.97-11.474 2.167-11.474 2.167-5.37-3.21.873-9.804.873-9.804C13.055-1.289 17.992-.45 17.992-.45c7.83.829 4.672 6.647 4.672 6.647-1.615 2.824-3.307 2.579-3.307 2.579-1.64.19.082-2.525.082-2.525l.236-.333s.762-1.074.964-1.324c0 0 .993-1.073.265-1.607-.38-.24-1.234-.353-2.892 1.166l-4.494 3.922-.029.03-.082.073.12-.138c.223-.382 1.24-2.127 1.843-3.02 0 0 1.277-1.926-.164-1.99-.338.045-1.008.28-2.208 1.256 0 0-3.857 3.254-4.576 4.02a36.456 36.456 0 012.107-3.467s1.027-1.436.357-1.936c0 0-.772-.593-1.64.598 0 0-4.705 6.466-2.265 7.142 0 0 .578.25 1.846-.75l3.67-3.377s-2.3 3.608-1.052 4.04c0 0 .579.303 1.827-.609l4.296-3.392s-.188.319-.395.78c-.415.921-.902 2.397-.164 3.01.14.112.786.534 2.17.22 2.7-.427 4.705-4.01 4.705-4.01C27.157-.054 21.68-1.95 21.68-1.95z" fill="#FFF" fill-rule="nonzero" mask="url(#c)"/><path d="M9.926 17.445a1.775 1.775 0 00-1.49-.642 5.65 5.65 0 00-1.659.245l-.096.029-1.33 5.823h.935l.385-1.666c.248.104.514.156.781.152a2.988 2.988 0 002.763-2.314 1.928 1.928 0 00-.29-1.627zm-2.343 3.068a2.166 2.166 0 01-.719-.117l.608-2.628c.275-.071.559-.106.843-.103a.99.99 0 01.825.353c.196.286.254.646.159.98a1.939 1.939 0 01-1.716 1.515zM14.459 17.336a1.564 1.564 0 00-1.278-.535 3.066 3.066 0 00-1.72.57l-.121.082.39.628.13-.079a2.38 2.38 0 011.177-.338c.241-.02.48.07.65.245a.755.755 0 01.107.598 1.902 1.902 0 00-.854-.2h-.048a2.398 2.398 0 00-2.14 1.097c-.25.394-.272.894-.058 1.31.34.484.912.744 1.494.68h.034c.375-.01.743-.112 1.07-.298v.23h.757l.617-2.642c.14-.458.064-.956-.207-1.348zm-.853 1.96l-.126.54-.067.299c-.304.24-.677.371-1.061.372-.554 0-.902-.2-.902-.524s.483-.858 1.375-.863c.27-.01.54.053.78.181v-.004zM18.495 16.798l-1.875 3.108-.483-3.108h-.964l.719 4.245-.328.54a.61.61 0 01-.579.343h-.27l-.193.833h.41a1.58 1.58 0 001.446-.809l3.134-5.152h-1.017z" fill="#E6E6E5" fill-rule="nonzero" style="mix-blend-mode:multiply"/><path d="M9.926 17.421a1.774 1.774 0 00-1.485-.617c-.562 0-1.12.082-1.659.245l-.082.024-1.35 5.809h.936l.385-1.667c.247.107.513.16.781.157 1.328-.055 2.458-1 2.768-2.314a1.938 1.938 0 00-.294-1.637zM7.587 20.49a2.246 2.246 0 01-.723-.113l.608-2.627c.276-.07.56-.102.843-.098a.99.99 0 01.825.353c.195.285.254.645.159.98a1.939 1.939 0 01-1.712 1.505zM14 17.294a1.558 1.558 0 00-1.273-.49 3.06 3.06 0 00-1.725.574l-.121.083.395.627.13-.078a2.382 2.382 0 011.182-.358c.242-.02.48.07.65.245a.75.75 0 01.102.593 1.903 1.903 0 00-.854-.215h-.048a2.399 2.399 0 00-2.145 1.103c-.25.394-.271.893-.058 1.308.342.486.915.746 1.5.682h.033a2.266 2.266 0 001.066-.29v.231h.761l.608-2.647A1.56 1.56 0 0014 17.294zm-.848 1.961l-.183.716-.034.147a1.68 1.68 0 01-1.066.372c-.554 0-.896-.2-.901-.52-.005-.318.482-.857 1.369-.862.28-.015.56.046.81.176l.005-.029zM17.864 16.808l-1.851 3.108-.482-3.108h-.964l.718 4.245-.328.54a.62.62 0 01-.583.338h-.27l-.193.828h.429c.585.02 1.133-.29 1.422-.809l3.158-5.152-1.056.01z" fill="#FFF" fill-rule="nonzero"/></g></g></svg>