<svg width="56" height="36" viewBox="0 0 56 36" xmlns="http://www.w3.org/2000/svg"><g fill="none" fill-rule="evenodd"><path d="M0 3.75A3.749 3.749 0 013.75 0h48.5A3.756 3.756 0 0156 3.75v28.5A3.749 3.749 0 0152.25 36H3.75A3.756 3.756 0 010 32.25V3.75z" fill="#000" fill-rule="nonzero"/><path d="M1.25 3.75v28.5c0 1.375 1.123 2.5 2.5 2.5h48.5c1.382 0 2.5-1.118 2.5-2.5V3.75c0-1.375-1.123-2.5-2.5-2.5H3.75a2.499 2.499 0 00-2.5 2.5z" fill="#FFF"/><g fill="#000"><path d="M27.167 5a2.394 2.394 0 012.394 2.394V28.94a2.394 2.394 0 01-2.394 2.394H16.394A2.394 2.394 0 0114 28.94V7.394A2.394 2.394 0 0116.394 5zm-5.386 21.546a1.796 1.796 0 100 3.592 1.796 1.796 0 000-3.592zm6.583-17.955H15.197v16.758h13.167V8.591zm12.226 3.58c.735 0 1.335.601 1.335 1.335v9.082c0 .734-.6 1.336-1.335 1.336H30.421v-1.068H40.59a.275.275 0 00.267-.268v-6.41c-.175.2-.367.384-.576.55a113.362 113.362 0 00-3.556 2.822c-.626.526-1.402 1.169-2.27 1.169h-.016c-.869 0-1.645-.643-2.271-1.169a86.952 86.952 0 00-1.747-1.414v-1.343c.73.576 1.463 1.151 2.19 1.73.441.36 1.243 1.128 1.828 1.128h.016c.584 0 1.385-.769 1.828-1.127 1.11-.886 2.228-1.77 3.347-2.647.543-.425 1.227-1.352 1.227-2.061 0-.209.05-.577-.267-.577H30.421v-1.068z"/></g></g></svg>