<?xml version="1.0" encoding="UTF-8"?><svg width="56" height="36" viewBox="0 0 56 36" xmlns="http://www.w3.org/2000/svg" xmlns:xlink="http://www.w3.org/1999/xlink"><defs><path id="a" d="M0 .012h4.087v5.659H0z"/><path id="c" d="M.032.035h8.429V9.88H.032z"/><path id="e" d="M.013.03h2.54V3.4H.013z"/></defs><g fill="none" fill-rule="evenodd"><path d="M0 3.75A3.749 3.749 0 013.75 0h48.5A3.756 3.756 0 0156 3.75v28.5A3.749 3.749 0 0152.25 36H3.75A3.756 3.756 0 010 32.25V3.75z" fill="#000" fill-rule="nonzero"/><path d="M1.25 3.75v28.5c0 1.375 1.123 2.5 2.5 2.5h48.5c1.382 0 2.5-1.118 2.5-2.5V3.75c0-1.375-1.123-2.5-2.5-2.5H3.75a2.499 2.499 0 00-2.5 2.5z" fill="#FFF"/><g><g transform="translate(4 15.36)"><mask id="b" fill="#fff"><use xlink:href="#a"/></mask><path d="M3.427 5.67a.671.671 0 01-.572-.305L.09.94A.595.595 0 01.328.096a.687.687 0 01.904.222l2.765 4.425a.595.595 0 01-.238.844.694.694 0 01-.332.084" fill="#F69220" mask="url(#b)"/></g><g transform="translate(5.924 13.025)"><mask id="d" fill="#fff"><use xlink:href="#c"/></mask><path d="M8.46 5.6a1.94 1.94 0 00-.31-.95c-.304-.495-.647-.834-1.111-1.039a2.58 2.58 0 00-1.293-.227c.16-.29.243-.607.275-.928.046-.47-.12-.885-.427-1.38A2.1 2.1 0 004.87.35a2.275 2.275 0 00-.937-.3 3.25 3.25 0 00-1.059.076 5.405 5.405 0 00-.368.1c-.048.015-.096.03-.15.05-.22.074-.799.374-.995.48l-.937.547-.02.011c-.354.189-.476.609-.275.939a.747.747 0 00.64.346c.124 0 .25-.03.365-.09l.017-.01L2.7 1.673a1.232 1.232 0 01.9-.111 1.253 1.253 0 01.726.534 1.23 1.23 0 01.168.858.938.938 0 01-.486.66l-.933.52-.398.214-.257.139c-.334.18-.449.579-.256.89.13.21.365.327.606.327a.734.734 0 00.349-.087l.517-.28 1.325-.675a1.01 1.01 0 01.425-.121c.146-.008.29.013.43.06a1.365 1.365 0 01.71.566 1.1 1.1 0 01.13.855 1.003 1.003 0 01-.198.38 1.155 1.155 0 01-.359.29L3.802 7.915l-.113.06-.414.225-.804.405c-.353.177-.486.59-.295.92a.736.736 0 00.64.356.765.765 0 00.345-.081L5.144 8.8l1.59-.812c.357-.19.667-.413.93-.666.263-.253.464-.525.603-.816.14-.29.204-.593.193-.907" fill="#606060" mask="url(#d)"/></g><path d="M36.151 19.027c.429 0 .633-.254.633-.56 0-.304-.204-.552-.633-.552h-.99v1.112h.99zm-.99-2.946v1.04h.929c.401 0 .626-.209.626-.52 0-.31-.225-.52-.626-.52h-.928zm-.373 3.733c-.14 0-.313 0-.446-.124-.132-.124-.132-.286-.132-.416v-3.441c0-.13 0-.292.132-.416.133-.124.306-.124.446-.124h1.377c.948 0 1.503.496 1.503 1.27 0 .502-.357.825-.606.933.296.127.674.413.674 1.016 0 .845-.623 1.302-1.49 1.302h-1.458zM40.483 17.493c-.096-.197-.296-.34-.595-.34-.296 0-.5.143-.592.34a.787.787 0 00-.078.359h1.343a.833.833 0 00-.078-.359zm-1.265.924c0 .429.268.737.782.737.22 0 .438-.058.612-.178.14-.092.224-.124.33-.124.17 0 .357.156.357.346 0 .156-.143.298-.347.425-.242.153-.575.229-.966.229-.84 0-1.639-.356-1.639-1.692 0-1.08.623-1.692 1.54-1.692.956 0 1.51.641 1.54 1.476.004.127-.013.27-.118.368-.112.105-.255.105-.388.105h-1.703zM42.298 17.236h-.088c-.167 0-.228-.01-.3-.044a.287.287 0 01-.163-.273c0-.124.058-.223.163-.273.072-.035.133-.045.3-.045h.088v-.441c0-.2.01-.28.058-.368.064-.12.204-.197.384-.197.18 0 .32.076.384.197.048.089.058.168.058.368v.441h.265c.167 0 .228.01.3.045.105.05.163.149.163.273a.287.287 0 01-.163.273c-.072.035-.133.044-.3.044h-.265v1.587c0 .156.061.28.286.292.112.007.19.016.265.051.109.051.177.146.177.295a.309.309 0 01-.177.296c-.078.038-.194.057-.364.057h-.047c-.735 0-1.024-.464-1.024-.946v-1.632zM44.678 17.236h-.088c-.167 0-.228-.01-.3-.044a.287.287 0 01-.163-.273c0-.124.058-.223.163-.273.072-.035.133-.045.3-.045h.088v-.441c0-.2.01-.28.058-.368.064-.12.204-.197.384-.197.18 0 .32.076.384.197.048.089.058.168.058.368v.441h.265c.167 0 .228.01.3.045.105.05.163.149.163.273a.287.287 0 01-.164.273c-.071.035-.132.044-.299.044h-.265v1.587c0 .156.061.28.286.292.112.007.19.016.265.051.109.051.177.146.177.295a.309.309 0 01-.177.296c-.078.038-.194.057-.364.057h-.048c-.734 0-1.023-.464-1.023-.946v-1.632zM48.81 17.493c-.096-.197-.297-.34-.596-.34-.296 0-.5.143-.592.34a.787.787 0 00-.078.359h1.343a.833.833 0 00-.078-.359zm-1.266.924c0 .429.269.737.782.737.221 0 .439-.058.612-.178.14-.092.225-.124.33-.124.17 0 .357.156.357.346 0 .156-.143.298-.347.425-.241.153-.574.229-.965.229-.84 0-1.64-.356-1.64-1.692 0-1.08.623-1.692 1.541-1.692.956 0 1.51.641 1.54 1.476.004.127-.013.27-.119.368-.112.105-.255.105-.387.105h-1.704z" fill="#606060"/><g transform="translate(50.435 16.438)"><mask id="f" fill="#fff"><use xlink:href="#e"/></mask><path d="M1.717.03c.275 0 .452.054.612.152.132.083.224.203.224.346 0 .121-.054.229-.133.302a.438.438 0 01-.295.114.708.708 0 01-.303-.086.775.775 0 00-.337-.085c-.295 0-.588.19-.588.61v1.453c0 .2-.01.28-.058.368-.064.121-.204.197-.384.197-.18 0-.32-.076-.384-.197-.048-.088-.058-.168-.058-.368V.605c0-.213.01-.277.065-.372.064-.114.214-.19.38-.19.12 0 .215.035.283.095.071.06.112.13.132.25.17-.19.493-.358.844-.358" fill="#606060" mask="url(#f)"/></g><path d="M19.554 18.621l-.783-1.44v2.033c0 .205-.007.277-.064.384-.07.123-.223.208-.408.208-.186 0-.338-.085-.409-.208-.057-.107-.064-.18-.064-.384v-3.4c0-.193.027-.319.142-.426a.446.446 0 01.317-.12c.112 0 .196.02.28.073a.753.753 0 01.24.27l1.202 2.137 1.201-2.136a.754.754 0 01.24-.271.487.487 0 01.28-.073c.128 0 .233.041.317.12.115.107.142.233.142.425v3.4c0 .206-.007.278-.064.385-.07.123-.223.208-.408.208-.186 0-.338-.085-.409-.208-.057-.107-.064-.18-.064-.384V17.18l-.783 1.44c-.118.218-.23.31-.452.31-.223 0-.335-.092-.453-.31" fill="#F69220"/><path d="M21.28 17.034v2.18c0 .205.007.27.06.369.067.115.21.188.375.188.164 0 .307-.073.375-.19.052-.098.06-.162.06-.367v-3.4c0-.177-.022-.3-.131-.401a.406.406 0 00-.29-.11c-.11 0-.186.02-.26.067a.708.708 0 00-.227.258l-1.235 2.196-1.235-2.196a.707.707 0 00-.227-.258.446.446 0 00-.26-.067.406.406 0 00-.29.11c-.11.102-.131.224-.131.4v3.4c0 .206.007.27.06.37.067.115.21.188.375.188.164 0 .307-.073.375-.19.052-.098.06-.162.06-.367v-2.18l.854 1.571c.12.22.22.29.419.29.197 0 .3-.07.418-.29l.855-1.571zm.435 2.808c-.192 0-.361-.087-.442-.227-.063-.118-.069-.199-.069-.401v-1.886l-.711 1.31c-.113.207-.229.327-.486.327-.258 0-.373-.12-.486-.328l-.712-1.309v1.886c0 .202-.006.283-.068.4a.5.5 0 01-.442.228c-.192 0-.362-.087-.442-.227-.063-.118-.069-.199-.069-.401v-3.4c0-.19.026-.332.153-.451a.487.487 0 01.344-.13c.125 0 .215.023.302.078.12.072.209.21.251.284l1.169 2.078 1.168-2.078a.807.807 0 01.253-.284.525.525 0 01.3-.078c.136 0 .252.044.344.13.127.119.153.26.153.45v3.4c0 .203-.006.284-.068.401a.501.501 0 01-.442.228zM24.28 19.819c-.351 0-.635-.107-.83-.29-.284-.265-.358-.574-.358-.933v-1.563c0-.199.01-.277.057-.366.064-.12.203-.195.382-.195.178 0 .317.076.381.195.047.089.057.167.057.366v1.45c0 .444.304.592.58.592.278 0 .588-.148.588-.592v-1.45c0-.199.01-.277.058-.366.064-.12.202-.195.381-.195.18 0 .317.076.382.195.047.089.057.167.057.366v2.216c0 .21-.01.274-.064.368-.064.114-.213.19-.378.19a.411.411 0 01-.28-.095c-.071-.06-.105-.13-.132-.24-.223.23-.557.347-.881.347" fill="#F69220"/><path d="M23.53 16.507c-.16 0-.287.064-.347.176-.043.08-.053.151-.053.35v1.563c0 .41.103.681.346.908.196.183.474.28.804.28.33 0 .65-.126.853-.335l.049-.05.016.065c.027.11.06.17.12.222a.376.376 0 00.255.085c.15 0 .286-.067.344-.17.05-.088.06-.144.06-.352v-2.216c0-.199-.01-.27-.053-.35-.06-.112-.187-.176-.348-.176-.16 0-.288.064-.348.176-.042.08-.053.151-.053.35v1.45c0 .463-.323.627-.625.627-.299 0-.618-.164-.618-.627v-1.45c0-.199-.011-.27-.054-.35-.059-.11-.189-.176-.347-.176m.749 3.347c-.35 0-.647-.104-.857-.3-.259-.241-.369-.528-.369-.958v-1.563c0-.197.01-.284.061-.381.072-.135.228-.215.416-.215.188 0 .343.08.415.215.052.097.061.184.061.381v1.45c0 .517.416.557.543.557.129 0 .55-.04.55-.557v-1.45c0-.197.009-.284.06-.381.073-.135.228-.215.416-.215.188 0 .343.08.415.215.052.097.062.184.062.381v2.216c0 .208-.009.28-.069.385-.071.126-.233.208-.411.208a.452.452 0 01-.306-.105.4.4 0 01-.126-.195 1.3 1.3 0 01-.861.312M28.979 16.62c.199.095.425.252.425.463 0 .104-.044.19-.125.268a.404.404 0 01-.27.107c-.101 0-.179-.028-.304-.113a.698.698 0 00-.422-.142.646.646 0 00-.496.214c-.135.158-.196.376-.196.719 0 .344.061.567.196.725a.62.62 0 00.496.214c.166 0 .28-.04.422-.138.118-.082.203-.12.304-.12.105 0 .21.05.27.11a.357.357 0 01.125.268c0 .208-.223.362-.425.466a1.447 1.447 0 01-.696.158c-.702 0-1.57-.353-1.57-1.683s.872-1.677 1.577-1.677c.284 0 .486.05.689.161" fill="#F69220"/><path d="M28.29 16.495c-.463 0-1.539.16-1.539 1.641 0 1.487 1.072 1.648 1.532 1.648.262 0 .465-.046.678-.154.272-.14.405-.282.405-.435a.322.322 0 00-.114-.243.37.37 0 00-.243-.1c-.086 0-.163.03-.281.113a.717.717 0 01-.445.145.662.662 0 01-.525-.227c-.142-.165-.205-.395-.205-.747 0-.347.063-.576.205-.74a.683.683 0 01.525-.228c.185 0 .307.057.444.148.118.08.189.107.282.107a.367.367 0 00.243-.096.328.328 0 00.114-.244c0-.208-.253-.36-.404-.431l-.002-.001c-.201-.11-.401-.156-.67-.156m-.007 3.36c-.297 0-.725-.062-1.073-.352-.354-.297-.534-.756-.534-1.367 0-.61.18-1.07.536-1.363.349-.288.779-.349 1.078-.349.283 0 .494.05.707.165.203.097.445.26.445.494a.397.397 0 01-.136.293.443.443 0 01-.297.118c-.11 0-.196-.032-.326-.12a.652.652 0 00-.4-.136.608.608 0 00-.467.202c-.13.15-.187.366-.187.696 0 .335.058.551.188.703.12.137.27.2.466.2.152 0 .26-.035.4-.13.112-.079.206-.127.326-.127.106 0 .223.047.297.12a.39.39 0 01.136.293c0 .18-.146.344-.445.497a1.486 1.486 0 01-.714.162M32.89 19.61c-.063.12-.202.196-.38.196-.18 0-.318-.075-.382-.195-.047-.088-.058-.167-.058-.366v-1.45c0-.444-.303-.592-.58-.592-.277 0-.587.148-.587.593v1.45c0 .198-.01.277-.058.365-.064.12-.202.195-.381.195-.18 0-.318-.075-.382-.195-.047-.088-.057-.167-.057-.366V15.83c0-.198.01-.277.057-.365.064-.12.203-.196.382-.196s.317.076.381.196c.047.088.058.167.058.365v.97c.222-.214.479-.34.857-.34.351 0 .635.108.83.29.284.265.358.574.358.933v1.563c0 .199-.01.278-.057.366" fill="#F69220"/><path d="M31.49 17.168c.299 0 .618.165.618.628v1.45c0 .198.011.27.054.35.06.11.186.175.347.175.159 0 .289-.066.348-.176.042-.079.053-.15.053-.35v-1.563c0-.41-.103-.68-.346-.908-.196-.183-.474-.28-.804-.28-.337 0-.593.102-.83.33l-.065.063v-1.058c0-.199-.011-.27-.054-.35-.059-.11-.189-.176-.347-.176-.161 0-.288.065-.348.176-.042.08-.053.151-.053.35v3.416c0 .2.01.271.053.35.06.112.187.176.348.176.158 0 .288-.066.347-.176.043-.08.054-.151.054-.35v-1.45c0-.462.323-.627.625-.627m1.02 2.674c-.189 0-.344-.08-.416-.215-.052-.098-.061-.185-.061-.382v-1.45c0-.516-.416-.557-.543-.557-.129 0-.55.04-.55.558v1.45c0 .196-.009.283-.061.38-.072.135-.227.216-.415.216-.188 0-.343-.08-.416-.215-.052-.098-.06-.185-.06-.382V15.83c0-.197.008-.284.06-.381.073-.135.228-.215.416-.215.188 0 .343.08.415.215.052.097.061.184.061.381v.887a1.18 1.18 0 01.82-.292c.35 0 .647.104.857.3.259.242.369.528.369.958v1.563c0 .197-.01.284-.062.382-.072.134-.227.215-.415.215" fill="#F69220"/></g></g></svg>