<?xml version="1.0" encoding="UTF-8"?><svg width="56" height="36" viewBox="0 0 56 36" xmlns="http://www.w3.org/2000/svg"><g fill="none" fill-rule="evenodd"><path d="M0 3.75A3.749 3.749 0 013.75 0h48.5A3.756 3.756 0 0156 3.75v28.5A3.749 3.749 0 0152.25 36H3.75A3.756 3.756 0 010 32.25V3.75z" fill="#000" fill-rule="nonzero"/><path d="M1.25 3.75v28.5c0 1.375 1.123 2.5 2.5 2.5h48.5c1.382 0 2.5-1.118 2.5-2.5V3.75c0-1.375-1.123-2.5-2.5-2.5H3.75a2.499 2.499 0 00-2.5 2.5z" fill="#FFF"/><g fill-rule="nonzero"><path d="M20.938 4.014H36.05c1.07 0 1.924.934 1.924 2.088v.994c0 1.414-1.866 1.414-1.866 0v-.538a.636.636 0 00-.623-.638h-15.13a.636.636 0 00-.624.638v.538c0 1.414-1.785 1.39-1.785.041V6.102c0-1.154.873-2.088 1.941-2.088h1.051zm6.933 23.332h9.791c2.236 0 2.253-2.426 2.04-3.639-.116-.816-1.456-.798-1.612 0v.935a.768.768 0 01-.757.775H18.529a.769.769 0 01-.757-.775v-.935c-.156-.798-1.496-.816-1.612 0-.231 1.195-.213 3.639 2.04 3.639h9.67z" fill="#1866AC"/><path d="M33.913 14.715h1.554v-.018a1.514 1.514 0 001.265-1.514c0-.834-.66-1.514-1.479-1.514h-3.148v7.957h3.981c.837 0 1.536-.716 1.536-1.573s-.699-1.573-1.536-1.573H33.91a.871.871 0 01-.855-.875c.004-.493.392-.89.86-.89zm3.691.794c1.051.497 1.768 1.55 1.768 2.745 0 1.691-1.438 3.064-3.184 3.064h-4.933c-.468 0-.837-.36-.837-.793v-9.612c0-.456.37-.835.815-.835h4.096c1.728 0 3.126 1.45 3.126 3.201a3.213 3.213 0 01-.85 2.23zM21.557 30.292c0-.16.116-.279.272-.279.155 0 .271.119.271.279v1.45c0 .337-.138.638-.352.857a1.16 1.16 0 01-.837.36c-.33 0-.623-.141-.837-.36a1.216 1.216 0 01-.352-.857v-1.45c0-.16.116-.279.272-.279.156 0 .272.119.272.279v1.45a.68.68 0 00.663.68.66.66 0 00.468-.202.704.704 0 00.196-.478v-1.45h-.036zm2.507 2.124c.156 0 .271.119.271.278 0 .16-.115.279-.271.279h-.717a.99.99 0 01-.7-.297 1.037 1.037 0 01-.289-.716v-1.65c0-.16.116-.278.272-.278.156 0 .272.118.272.278v1.65c0 .142.058.26.138.338a.472.472 0 00.33.141h.698v-.023h-.004zm5.575-12.074a1 1 0 01-.873 1.113.989.989 0 01-1.087-.894l-.814-7.62-2.877 7.442s-.33.456-.387.497l-.196.041s-.214.06-.312.06h-.107c-.115 0-.485-.06-.485-.06-.058-.04-.352-.515-.352-.515l-2.854-7.46-.815 7.62a.989.989 0 01-1.086.893 1 1 0 01-.873-1.112l.953-8.992c.018-.1.04-.2.058-.32.04-.1.075-.2.115-.296.254-.478.7-.793 1.225-.875h.058c.076 0 .174-.018.254 0 .098 0 .213.018.29.04a1.6 1.6 0 011.143 1.013l2.45 6.347 2.448-6.347a1.631 1.631 0 011.145-1.012c.098-.018.196-.041.29-.041h.31a1.59 1.59 0 011.225.875c.058.1.098.2.116.297.04.1.058.2.058.319l.98 8.987zM19.616 32.658a.262.262 0 01-.232.296.258.258 0 01-.29-.237l-.23-1.951-.798 1.91c-.058.142-.214.2-.352.142a.237.237 0 01-.138-.142l-.797-1.91-.231 1.951c-.018.142-.156.26-.29.237-.138-.018-.254-.16-.231-.296l.271-2.266a.42.42 0 01.232-.338c.018 0 .04-.018.058-.018h.018c.017 0 .04-.018.075-.018a.425.425 0 01.37.118l.058.06c.018.018.018.04.04.059 0 0 .018.018.018.041l.68 1.632.682-1.632a.452.452 0 01.312-.26c.018 0 .058 0 .076-.018h.075c.138.018.254.1.33.219.018.018.018.06.04.077 0 .019.018.041.018.06v.04l.236 2.244zm5.597.018c0 .16-.116.278-.272.278a.279.279 0 01-.272-.278v-2.13h-.757a.268.268 0 01-.271-.277c0-.16.116-.278.271-.278h2.022c.156 0 .272.118.272.278 0 .16-.116.278-.272.278h-.757v2.13h.036zm1.647 0c0 .16-.116.278-.272.278a.268.268 0 01-.271-.278V30.27c0-.16.116-.278.271-.278.156 0 .272.118.272.278v2.407zm5.401-.018a.262.262 0 01-.231.296.258.258 0 01-.29-.237l-.098-.757h-.913a.268.268 0 01-.271-.278c0-.16.116-.278.271-.278h.855l-.017-.2v-.019a.34.34 0 00-.04-.141c-.018-.06-.04-.1-.058-.141a.572.572 0 00-.526-.36c-.04 0-.098 0-.138.018a.238.238 0 00-.116.04c-.195.1-.33.338-.37.598l-.155 1.49c-.018.142-.156.26-.29.238-.133-.023-.253-.16-.231-.296l.156-1.491c.058-.438.29-.835.659-1.013.076-.04.156-.059.231-.077a1.18 1.18 0 01.254-.041c.468 0 .815.278 1.011.656.04.078.058.16.098.238.018.059.04.14.04.218v.019l.17 1.518zm.815.018c0 .16-.116.278-.272.278a.268.268 0 01-.271-.278v-2.27c0-.042.018-.06.018-.078 0-.018.017-.041.017-.041a.388.388 0 01.214-.178h.116c.116 0 .214.06.272.141l1.398 1.829v-1.77c0-.159.115-.277.271-.277.156 0 .272.118.272.278v2.23a.413.413 0 01-.138.296c-.018.018-.04.018-.058.04-.018 0-.018.02-.04.02h-.018c-.098.04-.196.017-.29-.02-.017 0-.017-.017-.04-.017-.017-.019-.04-.019-.057-.041-.018 0-.018-.019-.04-.041v-.019l-1.398-1.828v1.75h.044v-.004zm4.119-.26c.156 0 .271.119.271.278 0 .16-.115.279-.271.279h-.775c-.29 0-.543-.119-.74-.32a1.06 1.06 0 01-.31-.756v-.812c0-.296.115-.556.31-.757.197-.2.446-.32.74-.32h.775c.156 0 .271.12.271.279 0 .16-.115.278-.271.278h-.775a.52.52 0 00-.37.16.514.514 0 00-.155.378v.816c0 .142.058.278.155.379.098.1.214.16.37.16h.775v-.042zm1.536-2.407c.33 0 .641.141.873.36.231.219.37.538.37.857v.497c0 .338-.139.639-.37.876-.214.219-.526.36-.855.36-.33 0-.641-.141-.873-.36a1.16 1.16 0 01-.37-.857v-.498c0-.337.139-.638.37-.875.192-.219.503-.36.855-.36zm0 .538a.737.737 0 00-.503.2.704.704 0 00-.196.48v.496c0 .178.076.36.196.479.138.119.312.2.503.2.196 0 .37-.077.503-.2a.704.704 0 00.196-.479v-.497a.692.692 0 00-.196-.479.768.768 0 00-.503-.2zm-11.657.916v-1.171c0-.042 0-.078.018-.1.017-.042.04-.06.058-.101a.24.24 0 01.173-.078h1.029c.231 0 .445.1.6.26.157.16.255.379.255.616 0 .16-.04.319-.138.456.058.04.098.077.155.118l.018.019a.94.94 0 01.232.597.884.884 0 01-.254.615.843.843 0 01-.601.26h-1.282a.268.268 0 01-.272-.278v-1.213h.009zm.525-.916v1.87h1.011a.315.315 0 00.232-.101.338.338 0 00.098-.237c0-.078-.04-.16-.098-.237h-.018a.322.322 0 00-.232-.1h-.352a.279.279 0 010-.557h.116a.247.247 0 00.196-.1.33.33 0 00.098-.219.33.33 0 00-.098-.219.315.315 0 00-.214-.1H27.6z" fill="#373536"/></g></g></svg>