<?xml version="1.0" encoding="UTF-8"?><svg width="56" height="36" viewBox="0 0 56 36" xmlns="http://www.w3.org/2000/svg"><g fill="none" fill-rule="evenodd"><path d="M0 3.75A3.749 3.749 0 013.75 0h48.5A3.756 3.756 0 0156 3.75v28.5A3.749 3.749 0 0152.25 36H3.75A3.756 3.756 0 010 32.25V3.75z" fill="#000" fill-rule="nonzero"/><path d="M1.25 3.75v28.5c0 1.375 1.123 2.5 2.5 2.5h48.5c1.382 0 2.5-1.118 2.5-2.5V3.75c0-1.375-1.123-2.5-2.5-2.5H3.75a2.499 2.499 0 00-2.5 2.5z" fill="#FFF"/><g fill-rule="nonzero"><path d="M6 21.216h2.067l.234-2.496c.065-.221.065-.494.065-.715h.052c.065.221.065.494.169.715l.78 2.496h1.235l.845-2.6c.065-.169.104-.39.169-.559h.065l.286 3.224h2.041l-.949-5.876h-2.21l-.663 2.275c-.065.221-.104.559-.169.78h-.065l-.832-3.055H6.897L6 21.216zM17.986 15.34v3.276c0 .442-.065.832-.559.832-.559 0-.559-.39-.559-.832V15.34h-2.145v3.445c0 1.716 1.118 2.496 2.691 2.496 1.625 0 2.691-.78 2.691-2.496V15.34h-2.119zM21.119 21.216h3.965v-1.885h-1.846V15.34h-2.119zM24.993 17.225l1.222-.065v4.056h2.132V17.16l1.17.065V15.34h-4.524zM30.089 15.34h2.132v5.876h-2.132z" fill="#000"/><path d="M36.147 19.721c-.169.065-.455.169-.728.169-.39 0-.663-.325-.663-.949 0-1.222.663-2.106 1.404-2.106.169 0 .221.065.455.065l.455-1.391c-.169-.065-.39-.104-.78-.104-1.794 0-3.185 1.612-3.185 3.835 0 1.001.559 2.106 1.898 2.106.559 0 .949-.065 1.053-.169l.091-1.456zM41.217 21.216c0-.611.104-1.781.221-2.379l.624-3.159c-.455-.169-1.053-.221-1.742-.221-2.626 0-3.419 2.444-3.419 4.16 0 1.001.455 1.781 1.339 1.781.494 0 1.014-.325 1.456-1.001h.065c-.065.325-.065.611-.065.949l1.521-.13zm-1.391-2.834c-.221 1.001-.494 1.443-.78 1.443-.338 0-.39-.325-.39-.715 0-.663.455-2.496 1.287-2.496.065 0 .169.065.286.065l-.403 1.703zM41.62 23.491c.897 0 1.508-.325 1.846-.949.221-.39.455-.884.624-1.989l1.014-5.226H43.31l.013.104-1.014 5.382c-.221 1.105-.494 1.391-.949 1.391-.104 0-.169-.065-.286-.065l-.169 1.274M44.376 14.833c.494 0 .949-.39.949-1.001 0-.442-.221-.832-.78-.832-.624 0-.949.559-.949 1.001 0 .455.156.832.78.832zM49.563 21.216c0-.611.104-1.781.221-2.379l.624-3.159c-.455-.169-1.053-.221-1.742-.221-2.626 0-3.419 2.444-3.419 4.16 0 1.001.455 1.781 1.339 1.781.455 0 1.014-.325 1.456-1.001h.065c-.065.325-.065.611-.065.949l1.521-.13zm-1.378-2.834c-.221 1.001-.494 1.443-.78 1.443-.338 0-.39-.325-.39-.715 0-.663.455-2.496 1.287-2.496.065 0 .169.065.286.065l-.403 1.703z" fill="#C10000"/></g></g></svg>