<svg xmlns="http://www.w3.org/2000/svg" xmlns:xlink="http://www.w3.org/1999/xlink" width="56" height="36"><defs><path id="a" d="M0 .01h42.96V24H0z"/></defs><g fill="none" fill-rule="evenodd"><path fill="#000" fill-rule="nonzero" d="M0 3.75A3.75 3.75 0 0 1 3.75 0h48.5A3.76 3.76 0 0 1 56 3.75v28.5A3.75 3.75 0 0 1 52.25 36H3.75A3.76 3.76 0 0 1 0 32.25V3.75z"/><path fill="#FFF" d="M1.25 3.75v28.5a2.5 2.5 0 0 0 2.5 2.5h48.5a2.5 2.5 0 0 0 2.5-2.5V3.75a2.5 2.5 0 0 0-2.5-2.5H3.75a2.5 2.5 0 0 0-2.5 2.5z"/><path fill="#204256" d="M36.26 20.47s-1.07.21-1.06-.54c.01-.75 1.94-.71 2.14-.65 0 0 .06.86-1.08 1.19zm.32-4.76c-1.66-.01-2.43.93-2.43.93-.5.53-.18 1.24.31 1.3.7.06.7-.52 1.79-.78.95-.23 1 .64 1 .64-4.08-.1-3.88 3.28-2.5 4 1.33.68 2.57-.18 2.57-.18s.05.46.7.46c.76 0 .76-.74.76-.74v-3.28c-.05-2.41-2.2-2.35-2.2-2.35zm13.14 5.05l-1.66-2.47 1.22-1.14s.56-.52.1-1.03c-.51-.56-1.12 0-1.12 0l-1.54 1.4V14.7c0-.4-.33-.74-.74-.74a.74.74 0 0 0-.74.74v6.64a.74.74 0 1 0 1.48 0v-1.77l.28-.27 1.5 2.32s.5.81 1.21.3c.55-.39 0-1.16 0-1.16m-5.29-2.7c0-2.4-2.02-2.74-3.4-1.98a.76.76 0 0 0-1.47.25v5c0 .42.34.75.76.75s.76-.33.76-.75l-.01-3.37s.18-.22.47-.43c.71-.5 1.39-.32 1.39.53l.02 3.29c0 .4.33.73.74.73s.75-.33.75-.73v-3.3"/><path fill="#1CB9DE" d="M22.64 22.18c.17-.29.2-.49.2-.49l-1.7-4.42s-.32-.86.37-1.11c.72-.27.98.42 1.04.56l1.08 2.85.99-2.85s.28-.88 1.07-.56c.66.26.32 1.12.32 1.12S25 20.24 24.15 22.4c-.5 1.28-.94 1.41-1.43 1.53-.66.16-1.91.08-1.91-.73 0-.64.66-.68.96-.67.02 0 .63.05.87-.34"/><g transform="translate(7 6)"><mask id="b" fill="#fff"><use xlink:href="#a"/></mask><path fill="#1CB9DE" d="M11.67 8.75L10.1 13 8.4 8.77s-.26-.8-.97-.8c-.82 0-.8.64-.81.8-.02.16 0 6.63 0 6.63s-.01.68.75.68c.77 0 .73-.68.74-.68v-3.42l1.25 3.42s.19.67.77.66c.58-.01.74-.66.74-.66l1.05-3.41v3.4s0 .7.76.7c.74 0 .74-.7.74-.7v-6.6s0-.81-.8-.8c-.66 0-.91.62-.95.77l-.01.02" mask="url(#b)"/><path fill="#1CB9DE" d="M42.96 18.7h-22.9.01a10.46 10.46 0 0 1-7.94 3.64A10.4 10.4 0 0 1 1.68 12 10.4 10.4 0 0 1 12.13 1.67c3.2 0 6.06 1.42 7.97 3.66h2.1A12.15 12.15 0 0 0 12.13 0 12.08 12.08 0 0 0 0 12.01C0 18.62 5.43 24 12.13 24c3.51 0 6.67-1.48 8.89-3.85l20.95-.02 1-1.43" mask="url(#b)"/></g><path fill="#204256" d="M30.74 20.64h-2.11v-2h2.1c.52.03 1.01.3 1.01 1 0 .73-.45 1-1 1zm-2.11-5.1h1.96c.4 0 .81.21.81.8 0 .6-.36.8-.8.8h-1.97v-1.6zm3.77 2.2c.04-.06.54-.46.5-1.54-.08-2.17-1.99-2.15-2.41-2.16-.68-.02-1.1-.01-2.34 0-1.06 0-1.05.96-1.05.96v7.08h3.56c1.9 0 2.61-1.03 2.61-2.48 0-1.46-.87-1.87-.87-1.87z"/></g></svg>