<?xml version="1.0" encoding="UTF-8"?><svg width="56" height="36" viewBox="0 0 56 36" xmlns="http://www.w3.org/2000/svg"><g fill="none" fill-rule="evenodd"><path d="M0 3.75A3.749 3.749 0 013.75 0h48.5A3.756 3.756 0 0156 3.75v28.5A3.749 3.749 0 0152.25 36H3.75A3.756 3.756 0 010 32.25V3.75z" fill="#000" fill-rule="nonzero"/><path d="M1.25 3.75v28.5c0 1.375 1.123 2.5 2.5 2.5h48.5c1.382 0 2.5-1.118 2.5-2.5V3.75c0-1.375-1.123-2.5-2.5-2.5H3.75a2.499 2.499 0 00-2.5 2.5z" fill="#FFF"/><g fill-rule="nonzero"><path d="M11.772 14.84H9.338v5.48l-2.61-4.64a1.549 1.549 0 00-.308-.443 1.372 1.372 0 00-.956-.408h-.046c-.378 0-.709.14-.98.408-.261.268-.403.582-.414.944V25.3h2.34v-5.902l2.694 4.993a.916.916 0 00.177.327c.046.06.095.115.154.174.272.269.59.397.957.408h.035c.391 0 .72-.14.991-.408a1.33 1.33 0 00.413-.978v-.08c0-.025-.01-.036-.01-.046V14.84h-.003zm40.206 1.515v-1.877h-1.901c-1.714.094-2.59.922-2.624 2.483v8.186h2.363v-5.422h1.489V17.8h-1.489v-.56c.046-.512.318-.805.815-.888h1.347v.003zm-34.63 3.43l-1.735 1.096.98 1.365 3.709-2.405a3.938 3.938 0 00-.864-1.282c-.755-.77-1.68-1.156-2.766-1.156-1.075 0-1.996.386-2.765 1.156-.769.77-1.146 1.703-1.146 2.8 0 1.096.377 2.016 1.146 2.785.771.77 1.692 1.167 2.768 1.167 1.087 0 2.008-.386 2.765-1.167.142-.153.283-.303.402-.456.096-.128.177-.257.248-.386l.567-.852-1.678-.864-.438.606c-.06.094-.117.175-.176.268l-.117.116c-.367.372-.815.56-1.323.56-.519 0-.97-.188-1.334-.56a1.83 1.83 0 01-.543-1.341c0-.526.176-.968.543-1.34.367-.373.815-.561 1.334-.561.155 0 .296.01.437.045.152.148.152.263-.013.405zm10.255-1.226c-.755-.77-1.678-1.156-2.765-1.156-1.076 0-1.997.386-2.765 1.156-.77.77-1.147 1.703-1.147 2.8 0 1.096.378 2.016 1.147 2.785.768.77 1.69 1.167 2.765 1.167 1.087 0 2.008-.386 2.765-1.167.77-.77 1.147-1.702 1.147-2.786.013-1.096-.378-2.03-1.147-2.799zm-2.751 1.225c.426 0 .804.153 1.11.456.308.303.449.676.449 1.121a1.6 1.6 0 01-.448 1.12 1.488 1.488 0 01-1.111.467c-.438 0-.804-.152-1.111-.466a1.513 1.513 0 01-.462-1.121c0-.445.155-.815.462-1.12a1.492 1.492 0 011.11-.457zM37.445 17.8h-2.187v4.875c.095 1.504.921 2.322 2.505 2.472h1.347c1.43-.115 2.269-.933 2.505-2.472V17.8H39.3v4.408c.01.596-.297.91-.921.923-.579-.024-.9-.327-.935-.923V17.8zm-3.344 1.751v-1.748h-3.143c-1.016.14-1.583.77-1.69 1.9-.07.655.177 1.213.72 1.669l1.88.978c.117.06.166.164.166.338 0 .175-.095.303-.272.386h-2.74v2.076h3.001c1.665-.07 2.494-.78 2.48-2.145-.046-1.202-.899-2.1-2.575-2.706-.247-.198-.331-.373-.236-.525.095-.153.225-.234.39-.223h2.02zm10.48-1.75H42.54v7.346h2.314v-4.314c0-.62.638-.944 1.901-.968V17.8c-1.298.024-2.031.362-2.186 1.003V17.8h.013z" fill="#FFF"/><path d="M51.978 13.346v-3.325H4.022v4.293c8.6-2.542 15.524-3.38 20.78-2.507-1.05 1.446-.059 2.18 2.978 2.194 2.73 0 5.813-.293 9.263-.888 5.884-1.459 10.858-1.375 14.935.233z" fill="#83D1F0"/><path d="M51.978 14.478v-1.132c-4.077-1.608-9.051-1.692-14.935-.233-3.45.595-6.533.888-9.263.888-3.037-.011-4.029-.746-2.977-2.194-5.257-.874-12.18-.035-20.781 2.507v1.867c.01-.373.141-.69.413-.944.271-.268.603-.397.98-.408h.046c.378.01.699.14.957.408.13.128.236.279.307.442l2.61 4.642V14.84h2.434v8.942c0 .011 0 .035.011.046v.08c0 .386-.141.71-.413.98a1.365 1.365 0 01-.991.407h-.036a1.365 1.365 0 01-.956-.408c-.06-.059-.106-.115-.155-.174a.988.988 0 01-.176-.327l-2.695-4.993v5.902H4.019v1.702h47.957V16.355h-1.348c-.497.08-.769.373-.815.887v.56h1.489v1.926h-1.489v5.422H47.45v-8.19c.035-1.562.91-2.39 2.624-2.482h1.904zm-9.44 3.322h2.032v1.003c.166-.64.886-.979 2.187-1.003v2.065c-1.263.024-1.901.348-1.901.968v4.314H42.54V17.8h-.002zm-8.437 0v1.748h-2.02a.434.434 0 00-.392.223c-.095.153-.01.327.236.526 1.68.606 2.53 1.504 2.576 2.705.01 1.365-.815 2.075-2.48 2.145h-3.002v-2.075h2.743c.177-.08.261-.21.272-.386.01-.175-.046-.293-.166-.338l-1.88-.979c-.543-.456-.79-1.013-.72-1.668.117-1.131.674-1.761 1.69-1.9h3.143zm1.16 0h2.187v4.408c.035.596.342.899.934.923.639-.011.946-.314.921-.923V17.8h2.315v4.875c-.237 1.539-1.076 2.357-2.505 2.472h-1.347c-1.584-.153-2.41-.968-2.505-2.472V17.8zm-10.41-.397c1.087 0 2.008.386 2.766 1.156.769.77 1.146 1.703 1.146 2.8 0 1.096-.377 2.016-1.146 2.785-.755.77-1.679 1.167-2.765 1.167-1.076 0-1.997-.386-2.766-1.167-.769-.77-1.146-1.702-1.146-2.786 0-1.083.377-2.03 1.146-2.799.755-.78 1.679-1.156 2.766-1.156zm-9.238 3.478l1.736-1.097c.165-.128.165-.257 0-.386a1.793 1.793 0 00-.438-.045c-.518 0-.97.187-1.333.56a1.83 1.83 0 00-.544 1.34c0 .526.177.969.544 1.341.366.373.815.56 1.333.56.508 0 .957-.187 1.323-.56.036-.045.082-.08.117-.115.07-.094.13-.174.177-.268l.437-.606 1.679.863-.568.853c-.081.129-.166.258-.247.386a2.89 2.89 0 01-.402.456c-.755.77-1.679 1.166-2.766 1.166-1.075 0-1.996-.386-2.765-1.166-.769-.77-1.146-1.703-1.146-2.786s.377-2.03 1.146-2.8c.769-.769 1.69-1.155 2.765-1.155 1.087 0 2.008.386 2.766 1.156.377.386.674.815.864 1.281l-3.711 2.403-.967-1.38zm10.336-.643a1.52 1.52 0 00-1.111-.456 1.52 1.52 0 00-1.111.456 1.513 1.513 0 00-.462 1.12c0 .432.155.805.462 1.121.307.314.674.467 1.111.467.427 0 .804-.153 1.111-.467.307-.303.448-.676.448-1.12.003-.443-.141-.818-.448-1.121z" fill="#E10278"/></g></g></svg>