<?xml version="1.0" encoding="UTF-8"?><svg width="56" height="36" viewBox="0 0 56 36" xmlns="http://www.w3.org/2000/svg"><g fill="none" fill-rule="evenodd"><path d="M0 3.75A3.75 3.75 0 013.75 0h48.5A3.76 3.76 0 0156 3.75v28.5A3.75 3.75 0 0152.25 36H3.75A3.76 3.76 0 010 32.25V3.75z" fill="#000" fill-rule="nonzero"/><path d="M1.25 3.75v28.5a2.5 2.5 0 002.5 2.5h48.5a2.5 2.5 0 002.5-2.5V3.75a2.5 2.5 0 00-2.5-2.5H3.75a2.5 2.5 0 00-2.5 2.5z" fill="#FFF"/><g fill="#2E2E2E" fill-rule="nonzero"><path d="M19.4 24.25h3.62v-8.42H19.4zM26.63 24.25h3.6v-8.42h-3.6zM17 30.27h22.86v-3.6H17zM33.85 24.25h3.6v-8.42h-3.6zM17 11.02v2.4h22.86v-2.4L28.43 5z"/></g></g></svg>