<?xml version="1.0" encoding="UTF-8"?>
<svg width="56px" height="36px" viewBox="0 0 56 36" version="1.1" xmlns="http://www.w3.org/2000/svg" xmlns:xlink="http://www.w3.org/1999/xlink">
    <!-- Generator: Sketch 46.2 (44496) - http://www.bohemiancoding.com/sketch -->
    <title>PM/Neteller</title>
    <desc>Created with Sketch.</desc>
    <defs></defs>
    <g id="Page-1" stroke="none" stroke-width="1" fill="none" fill-rule="evenodd">
        <g id="PM/Neteller">
            <g id="Group-2">
                <path d="M0,3.75075247 C0,1.67926908 1.67596877,0 3.75035585,0 L52.2496442,0 C54.3209085,0 56,1.68806916 56,3.75075247 L56,32.2492475 C56,34.3207309 54.3240312,36 52.2496442,36 L3.75035585,36 C1.67909151,36 0,34.3119308 0,32.2492475 L0,3.75075247 Z" id="Rectangle-2" fill="#000000" fill-rule="nonzero"></path>
                <path d="M1.25,3.75075247 L1.25,32.2492475 C1.25,33.6250965 2.37296468,34.75 3.75035585,34.75 L52.2496442,34.75 C53.6324061,34.75 54.75,33.6316447 54.75,32.2492475 L54.75,3.75075247 C54.75,2.37490355 53.6270353,1.25 52.2496442,1.25 L3.75035585,1.25 C2.36759386,1.25 1.25,2.36835527 1.25,3.75075247 Z" id="Path" fill="#FFFFFF"></path>
                <g id="neteller-copy" transform="translate(4.000000, 14.000000)" fill-rule="nonzero" fill="#8DC640">
                    <g id="Group">
                        <path d="M43.140783,3.34615385 C42.8769984,3.52307692 42.5013051,3.60769231 41.9737357,3.60769231 L41.4621533,3.60769231 L41.8618271,1.54615385 L42.2375204,1.54615385 C42.669168,1.54615385 42.988907,1.61538462 43.2047308,1.74615385 C43.3725938,1.85384615 43.5804241,2.06153846 43.5804241,2.46153846 C43.5804241,2.95384615 43.3406199,3.21538462 43.140783,3.34615385 L43.140783,3.34615385 Z M12.3179445,5.93076923 L8.32120718,5.93076923 L8.57699837,4.58461538 L11.0869494,4.58461538 L11.3747145,3.06923077 L8.88874388,3.06923077 L9.12854812,1.73846154 L13.117292,1.73846154 L12.3179445,5.93076923 Z M45.2990212,0.584615385 C44.7075041,0.2 43.8202284,0 42.6531811,0 L39.5996737,0 L38.4646003,5.93076923 L34.4598695,5.93076923 L34.7156607,4.58461538 L37.12969,4.58461538 L37.4174551,3.06923077 L35.0034258,3.07692308 L35.259217,1.73846154 L37.7451876,1.73846154 L38.0809135,0 L33.037031,0 L31.9579119,5.63076923 L30.1114192,5.63076923 L31.1905383,0 L28.5526917,0 L27.4735726,5.63076923 L25.6670473,5.63076923 L26.7621533,0 L24.1243067,0 L22.9892333,5.93076923 L18.960522,5.93076923 L19.2163132,4.58461538 L21.6383361,4.58461538 L21.9261011,3.08461538 L19.5040783,3.08461538 L19.7598695,1.73846154 L22.2698206,1.73846154 L22.597553,0 L6.88238173,0 L5.98711256,4.7 L4.2045677,0 L1.47079935,0 L0,7.67692308 L2.61386623,7.67692308 L3.50114192,2.84615385 L5.22773246,7.67692308 L14.5880914,7.67692308 L15.7231648,1.74615385 L17.1859706,1.74615385 L16.0508972,7.67692308 L40.6867863,7.67692308 L41.3982055,3.93076923 L42.5572594,7.67692308 L45.1711256,7.67692308 L43.9721044,4.61538462 L44.2438825,4.56153846 C44.8433931,4.43846154 45.3150082,4.16923077 45.6427406,3.76923077 C45.9704731,3.36153846 46.1383361,2.84615385 46.1383361,2.22307692 C46.1383361,1.49230769 45.8665579,0.953846154 45.2990212,0.584615385 L45.2990212,0.584615385 Z" id="Shape"></path>
                        <path d="M47.4492659,6.76923077 L47.8089723,6.75384615 C47.8809135,6.75384615 47.9448613,6.73846154 47.9848287,6.72307692 C48.0247961,6.70769231 48.05677,6.67692308 48.0807504,6.64615385 C48.1047308,6.61538462 48.1127243,6.57692308 48.1047308,6.53846154 C48.1047308,6.48461538 48.0807504,6.43846154 48.0327896,6.4 C47.9848287,6.36153846 47.9208809,6.35384615 47.8249592,6.35384615 L47.4252855,6.37692308 L47.4492659,6.76923077 L47.4492659,6.76923077 Z M47.3213703,7.44615385 L47.2574225,6.23846154 L47.8169657,6.20769231 C47.9288744,6.2 48.0168026,6.20769231 48.0727569,6.23076923 C48.1287113,6.24615385 48.1766721,6.28461538 48.2166395,6.33846154 C48.2566069,6.39230769 48.2725938,6.45384615 48.2805873,6.51538462 C48.2885808,6.6 48.2566069,6.67692308 48.208646,6.73846154 C48.1526917,6.8 48.0647635,6.83846154 47.9448613,6.86153846 C47.9928222,6.87692308 48.0247961,6.9 48.0487765,6.91538462 C48.0967374,6.95384615 48.1446982,7.00769231 48.1926591,7.06923077 L48.4244698,7.38461538 L48.2166395,7.39230769 L48.040783,7.14615385 C47.9848287,7.07692308 47.9448613,7.02307692 47.9128874,6.98461538 C47.8809135,6.94615385 47.8489396,6.92307692 47.8249592,6.90769231 C47.8009788,6.89230769 47.7769984,6.88461538 47.7450245,6.87692308 L47.6491028,6.87692308 L47.4572594,6.88461538 L47.4812398,7.42307692 L47.3213703,7.44615385 L47.3213703,7.44615385 Z M46.777814,6.86153846 C46.7618271,6.61538462 46.8497553,6.36923077 47.0256117,6.18461538 C47.2014682,6 47.4412724,5.89230769 47.6970636,5.87692308 C48.2326264,5.85384615 48.6882545,6.24615385 48.7202284,6.76153846 L48.7202284,6.80769231 C48.7202284,7.3 48.3125612,7.71538462 47.7929853,7.74615385 C47.265416,7.77692308 46.8017945,7.37692308 46.777814,6.86153846 L46.777814,6.86153846 Z M47.6890701,5.69230769 C47.3773246,5.70769231 47.0895595,5.83846154 46.8817292,6.06153846 C46.6738989,6.28461538 46.5619902,6.57692308 46.5779772,6.87692308 C46.6099511,7.5 47.1615008,7.97692308 47.8089723,7.94615385 C48.4564437,7.91538462 48.9520392,7.38461538 48.9200653,6.76153846 C48.8880914,6.13846154 48.3365416,5.65384615 47.6890701,5.69230769 L47.6890701,5.69230769 Z" id="Shape"></path>
                    </g>
                </g>
            </g>
        </g>
    </g>
</svg>