<?xml version="1.0" encoding="UTF-8"?><svg width="56" height="36" viewBox="0 0 56 36" xmlns="http://www.w3.org/2000/svg"><g fill="none" fill-rule="evenodd"><path d="M0 3.75A3.749 3.749 0 013.75 0h48.5A3.756 3.756 0 0156 3.75v28.5A3.749 3.749 0 0152.25 36H3.75A3.756 3.756 0 010 32.25V3.75z" fill="#000" fill-rule="nonzero"/><path d="M1.25 3.75v28.5c0 1.375 1.123 2.5 2.5 2.5h48.5c1.382 0 2.5-1.118 2.5-2.5V3.75c0-1.375-1.123-2.5-2.5-2.5H3.75a2.499 2.499 0 00-2.5 2.5z" fill="#FFF"/><g fill-rule="nonzero"><path d="M49.978 10.686c0-.457-.214-.683-.654-.683H6.662c-.438 0-.655.223-.655.683v14.618c0 .457.214.683.655.683h42.662c.438 0 .654-.223.654-.683V10.686zm-5.726 5.146h1.53c-.904 3.05-1.754 5.418-2.548 7.114-.672.886-1.447 1.258-2.335 1.1l-.094-.975c.944-.203 1.355-.535 1.223-.974l-2.186-6.21h1.505l1.485 4.698 1.42-4.753zm-6.323 2.535v-.457c-.029-.322-.15-.518-.337-.586-.195-.067-.532-.118-1.009-.135-.476-.02-1.112.03-1.913.165l-.178-1.072a8.72 8.72 0 012.25-.291c1 0 1.69.135 2.092.399.383.264.58.779.58 1.56v4.044h-1.148l-.178-.82c-.496.41-.83.664-1.009.772-.178.108-.551.146-1.112.126-.56-.02-.972-.146-1.223-.38-.262-.233-.402-.71-.447-1.421-.039-.721.065-1.219.308-1.492.253-.274.69-.41 1.326-.41h1.998v-.002zm-6.761.565h-1.58v3.06h-1.54v-8.167l2.766-.135c.934-.01 1.625.125 2.072.41.448.283.7.876.746 1.823v.917c-.045 1.419-.866 2.12-2.464 2.092zm-8.435-1.736v-1.082h1.103v-1.706h1.44v1.706h1.689v1.082h-1.728v2.778c.038.43.149.691.337.771.178.078.402.108.671.088l.373-.03.169 1.083c-.85.263-1.596.284-2.241.047-.421-.263-.645-.612-.662-1.052-.029-.44-.038-.683-.038-.72v-2.965h-1.113zm-.635.781v.176c-.02 1.015-.467 1.54-1.336 1.56h-2.335c.056.487.195.799.422.955.223.155.625.253 1.205.283.58.03 1.206-.04 1.888-.203v1.14c-.691.146-1.401.224-2.13.224-.374 0-.72-.03-1.019-.078-.038-.01-.074-.01-.113-.02-.075-.02-.14-.03-.214-.04-.98-.274-1.495-1.033-1.54-2.271v-1.344c0-.088.009-.176.019-.254.113-1.1.7-1.783 1.774-2.047.262-.047.56-.067.888-.067.83 0 1.456.155 1.868.457.39.291.597.806.623 1.53zm-7.666-4.212h1.437v7.749c-.01.311-.188.467-.542.477h-1.466l-2.866-6.558v6.558h-1.56v-7.573c.038-.4.308-.633.813-.7h.83c.338.02.58.165.73.457l2.624 6.053v-6.463zm5.574 3.441h-.729a.857.857 0 00-.363.088 1.89 1.89 0 00-.299.224c-.113.098-.178.253-.204.447v.663h1.783c.383-.02.551-.244.506-.663-.049-.457-.282-.711-.694-.759zm11.657-2.105c-.178-.087-.512-.125-.998-.125H29.58v2.67h1.112c.458 0 .785-.058.973-.176a.828.828 0 00.363-.545c.113-.467.113-.907.01-1.316-.077-.254-.2-.43-.376-.508zm6.295 4.24h-1.13c-.774-.03-1.167.196-1.176.663.01.528.168.83.476.907.532.136 1.149-.088 1.832-.663v-.907h-.002z" fill="#1A365C"/><path d="M29.589 18.932h1.579c1.595.03 2.419-.673 2.464-2.095v-.917c-.045-.934-.298-1.54-.746-1.823-.447-.284-1.138-.41-2.072-.41l-2.766.136v8.168h1.54v-3.06zm1.076-3.956c.486 0 .82.04.998.125.179.088.299.254.354.508.104.41.104.849-.01 1.316a.83.83 0 01-.363.545c-.188.118-.512.176-.972.176H29.56v-2.67h1.105zm7.264 2.941v.457H35.93c-.635 0-1.073.136-1.326.41-.243.273-.347.77-.308 1.492.038.71.187 1.188.447 1.421.253.234.662.362 1.223.38.561.017.934-.02 1.112-.126.178-.105.513-.362 1.009-.771l.178.819h1.148v-4.052c0-.778-.195-1.296-.58-1.56-.392-.263-1.083-.399-2.092-.399-.765 0-1.514.098-2.25.291l.178 1.083c.804-.136 1.44-.186 1.913-.166.477.02.804.068 1.009.136.188.07.3.264.337.585zm-1.103 1.424h1.13v.907c-.682.575-1.288.789-1.832.663-.318-.078-.477-.38-.477-.907.012-.47.404-.683 1.18-.663zm8.957-3.509h-1.53l-1.411 4.765-1.486-4.697h-1.504l2.186 6.21c.13.439-.28.77-1.223.974l.094.974c.878.146 1.653-.213 2.335-1.1.784-1.708 1.634-4.076 2.539-7.126zM47.615 13.961a.897.897 0 00-.438-.118.898.898 0 00-.765.46c-.075.145-.121.301-.121.467a.927.927 0 00.185.555.88.88 0 00.7.37.84.84 0 00.448-.126.942.942 0 00.272-.244c.02-.03.046-.058.056-.098a1.01 1.01 0 00.12-.457.937.937 0 00-.12-.467 1.144 1.144 0 00-.337-.342zm-.085.166a.655.655 0 01.263.274.758.758 0 01.094.369.751.751 0 01-.094.37c-.039.077-.094.135-.15.195-.038.03-.074.058-.12.088a.68.68 0 01-.707 0 .587.587 0 01-.26-.284.74.74 0 01-.104-.37c0-.135.039-.253.104-.368a.655.655 0 01.262-.274.656.656 0 01.354-.098c.13 0 .245.03.358.098zm-.12.203a.492.492 0 00-.14-.04h-.495v.985h.187v-.4h.046c.055 0 .094.01.13.04.039.03.084.088.13.204l.075.156h.233l-.113-.204a.89.89 0 00-.075-.118c-.028-.04-.045-.068-.055-.078a.336.336 0 00-.075-.03.277.277 0 00.262-.274.223.223 0 00-.038-.135.132.132 0 00-.072-.106zm-.159.128c.03.01.046.02.065.048.01.02.02.048.02.078s-.01.048-.03.078c-.019.02-.038.04-.064.048-.03.01-.094.01-.205.01h-.084v-.274h.084c.12.002.185.002.214.012z" fill="#C1D2EC"/></g></g></svg>