<?xml version="1.0" encoding="UTF-8"?><svg width="56" height="36" viewBox="0 0 56 36" xmlns="http://www.w3.org/2000/svg"><g fill="none" fill-rule="evenodd"><path d="M0 3.75A3.749 3.749 0 013.75 0h48.5A3.756 3.756 0 0156 3.75v28.5A3.749 3.749 0 0152.25 36H3.75A3.756 3.756 0 010 32.25V3.75z" fill="#000" fill-rule="nonzero"/><path d="M1.25 3.75v28.5c0 1.375 1.123 2.5 2.5 2.5h48.5c1.382 0 2.5-1.118 2.5-2.5V3.75c0-1.375-1.123-2.5-2.5-2.5H3.75a2.499 2.499 0 00-2.5 2.5z" fill="#FFF"/><g fill-rule="nonzero"><path d="M10.232 21.399c0 2.104 1.378 3.573 3.351 3.573s3.35-1.469 3.35-3.573c0-2.105-1.377-3.577-3.35-3.577-1.973.003-3.35 1.472-3.35 3.577zm1.373 0c0-1.241.795-2.077 1.978-2.077 1.183 0 1.978.836 1.978 2.077 0 1.24-.795 2.076-1.978 2.076-1.183 0-1.978-.832-1.978-2.076zm7.23-2.863v-.533h-1.323v6.791h1.335v-3.617c0-.617.053-1.247.69-1.553.212-.102.424-.146.686-.146h.19v-1.656c.003 0-.859 0-1.578.714zm7.02-3.034v3.025c-.52-.452-1.249-.714-2.024-.714-1.973 0-3.351 1.469-3.351 3.573 0 2.105 1.378 3.573 3.35 3.573.774 0 1.469-.23 2.026-.651v.477h1.325v-9.283h-1.325zM21.854 21.4c0-1.241.795-2.077 1.978-2.077 1.182 0 1.975.836 1.975 2.077 0 1.24-.795 2.076-1.975 2.076-1.183 0-1.978-.832-1.978-2.076zm13.103-.003c0 2.139 1.338 3.576 3.327 3.576.81 0 1.545-.187 2.05-.649v.474h1.325v-3.364c0-2.16-1.347-3.61-3.351-3.61-1.973 0-3.35 1.468-3.35 3.573zm1.376 0c0-1.241.795-2.077 1.977-2.077 1.183 0 1.976.836 1.976 2.077 0 1.24-.795 2.076-1.976 2.076-1.185 0-1.977-.832-1.977-2.076zm-1.857.68c-.168 1.094-.735 1.855-1.37 2.31-.579.414-1.21.586-1.961.586-2.056-.003-3.342-1.637-3.342-3.536 0-2.136 1.416-3.632 3.342-3.614 2.558.022 3.324 2.102 3.381 3.402 0 .003-4.914 1.397-4.985 1.416.347.533.9.82 1.604.832.835.016 1.45-.415 1.737-.948l1.594-.449zm-5.266-.855c.167-.047 3.448-.98 3.627-1.029-.288-.496-.871-.88-1.69-.889-1.126.04-1.882.824-1.937 1.918zM8.386 24.79l1.282.016v-8.372H8.34v5.721L4.314 16.43H3l.002 8.384H4.33l-.002-5.603 4.058 5.581z" fill="#0065A4"/><path d="M44.166 15.736c-.328-1.559-.859-2.875-1.504-3.785 4.365-1.31 7.454-1.116 7.884.458.74 2.704-3.286 7.752-6.863 9.258.735-1.238 1.004-3.449.483-5.93zm6.77-1.047c.43-1.157.524-2.19.289-3.069a2.406 2.406 0 00-.25-.598c1.209.224 2.282 2.578 1.946 5.241-.257 2.043-.854 3.83-1.51 4.89-.84-.546-2.609-.677-4.589-.256-.45.093-.804.19-1.211.324 2.263-1.56 4.457-4.188 5.326-6.532z" fill="#FFF"/><path d="M44.166 15.736c.521 2.485.255 4.696-.483 5.93 3.577-1.505 7.604-6.55 6.863-9.257-.43-1.574-3.522-1.768-7.884-.458.645.91 1.176 2.226 1.504 3.785z" fill="#0065A4"/><path d="M50.937 14.689c.428-1.157.523-2.19.288-3.069a2.406 2.406 0 00-.25-.598c1.209.224 2.282 2.578 1.946 5.241-.257 2.043-.854 3.83-1.51 4.89-.84-.546-2.609-.677-4.589-.256-.45.093-.804.19-1.211.324 2.263-1.56 4.457-4.188 5.326-6.532z" fill="#0065A4"/></g></g></svg>