<svg width="56" height="36" viewBox="0 0 56 36" xmlns="http://www.w3.org/2000/svg"><defs><linearGradient x1="0%" y1="50%" x2="100%" y2="50%" id="a"><stop stop-color="#231F20" stop-opacity="0" offset="0%"/><stop stop-color="#231F20" stop-opacity=".81" offset="0%"/><stop stop-color="#000123" offset="0%"/><stop stop-color="#000523" offset="18.8%"/><stop stop-color="#001123" offset="100%"/></linearGradient></defs><g fill="none" fill-rule="evenodd"><path d="M0 3.75A3.75 3.75 0 013.75 0h48.5A3.76 3.76 0 0156 3.75v28.5A3.75 3.75 0 0152.25 36H3.75A3.76 3.76 0 010 32.25V3.75z" fill="#000" fill-rule="nonzero"/><path d="M1.25 3.75v28.5a2.5 2.5 0 002.5 2.5h48.5a2.5 2.5 0 002.5-2.5V3.75a2.5 2.5 0 00-2.5-2.5H3.75a2.5 2.5 0 00-2.5 2.5z" fill="#FFF"/><g transform="translate(6 4)" fill-rule="nonzero"><path d="M44.98 27.14c0 .66-.54 1.2-1.2 1.2H1.22a1.2 1.2 0 01-1.2-1.2V1.22c0-.66.54-1.2 1.2-1.2h42.57c.66 0 1.2.54 1.2 1.2v25.92z" fill="url(#a)"/><g fill="#FFF"><path d="M18.9 17.88a2.65 2.65 0 01-.2-.9l-.04-.88-.01-1.42a78.34 78.34 0 01.06-2.3 3.51 3.51 0 01.19-.9c.1-.22.22-.38.39-.47.17-.09.42-.13.74-.13.33 0 .58.05.75.13.17.09.3.25.4.48a3.08 3.08 0 01.19.9 19.36 19.36 0 01.06 2.3 77.73 77.73 0 01-.06 2.3 3.62 3.62 0 01-.2.9.88.88 0 01-.39.47c-.16.09-.42.13-.75.13s-.58-.05-.74-.13a.85.85 0 01-.39-.48zm1.55-.62l.06-.25a4 4 0 00.03-.4l.02-.73.01-1.22v-1.23c-.01-.3-.01-.55-.03-.73a4 4 0 00-.08-.64c-.03-.12-.08-.2-.14-.25-.07-.05-.16-.07-.29-.07-.13 0-.22.02-.28.07a.5.5 0 00-.13.24l-.05.25-.04.4-.02.73v1.23a64.87 64.87 0 00.02 1.95l.04.4.05.25c.03.12.08.2.13.25.06.04.15.06.28.06.13 0 .23-.02.29-.06.06-.05.1-.13.13-.25zM22.57 18.36v-7.35h1.53c.22 0 .4.03.56.08.16.06.28.16.37.3.1.15.16.36.2.61a6.7 6.7 0 01-.03 2.13.68.68 0 01-.13.25.77.77 0 01-.18.14v.06l.25.18c.06.05.1.14.14.26.03.11.05.27.06.49.02.21.02.5.02.86 0 .4-.02.72-.06.98-.05.26-.11.46-.21.6a.76.76 0 01-.36.32c-.15.05-.33.08-.53.08h-1.63v.01zm1.38-4.1c.1 0 .18-.02.25-.05a.29.29 0 00.14-.17 7.25 7.25 0 00.08-.95v-.44l-.02-.28c0-.07 0-.13-.02-.17 0-.05-.02-.1-.03-.13a.34.34 0 00-.15-.19.52.52 0 00-.23-.05h-.54v2.41l.52.01zm.1 3.27c.08 0 .15-.02.2-.05.06-.03.1-.09.15-.18.03-.09.06-.21.07-.38a8.4 8.4 0 000-1.36c-.03-.18-.05-.3-.1-.4-.03-.09-.08-.14-.14-.17a.64.64 0 00-.24-.04h-.56v2.58h.61zM28.49 11h.85v5.94l-.02.44a2 2 0 01-.05.32l-.11.27c-.1.2-.24.33-.42.4-.18.08-.44.12-.78.12a2.2 2.2 0 01-.8-.11.78.78 0 01-.4-.4 1.83 1.83 0 01-.16-.6 6.77 6.77 0 01-.03-.44l-.01-.62V11h.89v5.3a9.87 9.87 0 00.05.96c.01.05.04.1.06.14.04.07.1.11.15.13a.7.7 0 00.26.03c.11 0 .2-.01.25-.03.06-.02.1-.06.15-.13l.06-.14a3.47 3.47 0 00.05-.49v-5.77zM33.33 15.55c.02.1.02.22.02.33v.33c0 .38-.02.72-.06 1-.05.28-.12.52-.22.71a1 1 0 01-.4.43c-.17.09-.38.14-.64.14-.34 0-.6-.04-.78-.13a.85.85 0 01-.4-.47 4.16 4.16 0 01-.2-.95l-.04-.9-.01-1.42a33.52 33.52 0 01.1-2.46c.02-.21.04-.36.07-.45.04-.1.06-.17.1-.24.09-.21.2-.36.37-.46.16-.09.4-.13.75-.13.24 0 .43.02.58.06a.9.9 0 01.37.22c.13.13.22.36.3.68.07.33.11.73.11 1.2v.34l-.02.31h-.81v-.27-.35c0-.3 0-.54-.02-.72a1.41 1.41 0 00-.1-.41c-.05-.08-.1-.14-.15-.16a.63.63 0 00-.24-.04c-.13 0-.23.02-.28.06-.06.05-.1.13-.14.25l-.05.26c-.02.1-.03.23-.04.41l-.02.73v2.37l.02.74c.01.19.02.34.04.44l.05.27c.03.11.08.2.14.24.06.06.17.08.32.08.12 0 .2-.04.27-.1a.75.75 0 00.14-.3 7.62 7.62 0 00.1-1.05v-.3l-.02-.29h.8zM36.76 18.36l-.44-1.4-.31-.97-.2-.63c-.06-.16-.09-.28-.11-.36l-.06-.2-.02-.08h-.07l.02.24v3.4h-.88v-7.35h.88v2.95l-.02.23h.07l.04-.14.15-.4.32-.93.61-1.71h.9v.05l-1.23 3.32 1.29 3.94v.04h-.94zM39.4 15.9a2.4 2.4 0 00-.02.25v.33l.01.62c.02.13.04.23.1.32.03.07.08.12.13.15.05.02.13.04.25.04a.6.6 0 00.27-.04c.06-.04.1-.09.15-.17.05-.1.07-.2.1-.35l.01-.7v-.31a1.67 1.67 0 00-.03-.35l-.03-.14a.52.52 0 00-.1-.21l-.21-.18a5.7 5.7 0 00-.55-.37 3.06 3.06 0 01-.51-.4 1.06 1.06 0 01-.27-.54 12.46 12.46 0 01-.08-1.26c0-.4.02-.7.07-.92.04-.2.13-.36.24-.5.1-.1.23-.18.37-.23.13-.04.33-.06.58-.06.3 0 .52.03.67.1.15.06.27.15.36.25.09.13.15.28.19.46a10.43 10.43 0 010 1.6h-.74c.02-.07.02-.15.03-.24v-.37c0-.24 0-.42-.03-.55a.67.67 0 00-.1-.28.3.3 0 00-.14-.1.96.96 0 00-.46 0 .3.3 0 00-.13.12.64.64 0 00-.1.28l-.02.57v.59c0 .07.02.12.03.16l.03.13a.7.7 0 00.1.18c.03.05.1.1.2.19.11.09.26.18.42.27a5.83 5.83 0 01.73.5c.05.06.11.14.16.24l.07.18c.02.06.04.13.05.23l.02.38v.59a9.22 9.22 0 01-.07 1.1 2.31 2.31 0 01-.18.57.75.75 0 01-.37.33c-.17.08-.41.12-.72.12-.27 0-.47-.03-.63-.1a.68.68 0 01-.36-.33 1.37 1.37 0 01-.1-.22 1.36 1.36 0 01-.08-.27 4.1 4.1 0 01-.05-.37l-.01-.52a8.24 8.24 0 01.04-.77h.72z"/></g><circle fill="#FFF" cx="10.017" cy="14.18" r="6.41"/><path d="M10.02 20.58a6.4 6.4 0 01-6.38-5.86.6.6 0 00.1.01h1.3l2.25.01c.33 0 .63-.22.73-.53l.08-.34a1.93 1.93 0 011.9-1.6c.35 0 .69.09 1 .28l.04.02c.17.1.34.22.56.22a.8.8 0 00.27-.05c.3-.13.5-.45.47-.78-.04-.45-.45-.67-.74-.82a3.3 3.3 0 00-1.6-.4c-.62 0-1.23.17-1.76.49a3.59 3.59 0 00-1.56 2H3.67a6.4 6.4 0 016.34-5.45c3.28 0 5.97 2.4 6.36 5.63h-3.52a.77.77 0 00-.77.76l-.02.26a2.04 2.04 0 01-.7 1.4c-.35.3-.8.47-1.25.47h-.13a1.95 1.95 0 01-1.19-.53.76.76 0 00-1.07.02c-.3.3-.28.8.02 1.08.58.55 1.34.88 2.13.94h.25c.82 0 1.63-.29 2.25-.84a3.56 3.56 0 001.16-2.05h2.84a6.41 6.41 0 01-6.35 5.66z" fill="#FBBD16"/></g></g></svg>