<svg width="56" height="36" xmlns="http://www.w3.org/2000/svg"><g fill="none" fill-rule="evenodd"><path d="M0 3.75A3.75 3.75 0 0 1 3.75 0h48.5A3.76 3.76 0 0 1 56 3.75v28.5A3.75 3.75 0 0 1 52.25 36H3.75A3.76 3.76 0 0 1 0 32.25V3.75z" fill="#000" fill-rule="nonzero"/><path d="M1.25 3.75v28.5a2.5 2.5 0 0 0 2.5 2.5h48.5a2.5 2.5 0 0 0 2.5-2.5V3.75a2.5 2.5 0 0 0-2.5-2.5H3.75a2.5 2.5 0 0 0-2.5 2.5z" fill="#FFF"/><path d="M38 13.75c0 .08-.03.16-.1.23a.32.32 0 0 1-.23.1h-1v.52a.5.5 0 0 1-.15.36c-.1.1-.21.15-.35.15H19.83a.48.48 0 0 1-.35-.15.5.5 0 0 1-.15-.36v-.51h-1a.32.32 0 0 1-.23-.1.33.33 0 0 1-.1-.24v-.68c0-.14.07-.24.2-.3l9.68-3.73a.2.2 0 0 1 .25 0l9.66 3.73c.14.06.21.16.21.3v.68zm-1 12.21c.28 0 .51.1.7.3.2.2.3.44.3.72v.68c0 .09-.03.16-.1.23a.32.32 0 0 1-.23.11H18.33a.32.32 0 0 1-.23-.1.33.33 0 0 1-.1-.24v-.68a1 1 0 0 1 .3-.72c.19-.2.42-.3.7-.3h18zM21.33 15.8H24v8.14h2.67v-8.14h2.66v8.14H32v-8.14h2.67v8.14h1.5c.14 0 .25.05.35.15.1.1.15.22.15.36v.85H19.33v-.85a.5.5 0 0 1 .15-.36c.1-.1.21-.15.35-.15h1.5v-8.14z" fill="#2C2E31" opacity=".9"/></g></svg>