<svg width="56" height="36" viewBox="0 0 56 36" xmlns="http://www.w3.org/2000/svg"><g fill="none" fill-rule="evenodd"><path d="M0 3.75A3.749 3.749 0 013.75 0h48.5A3.756 3.756 0 0156 3.75v28.5A3.749 3.749 0 0152.25 36H3.75A3.756 3.756 0 010 32.25V3.75z" fill="#000" fill-rule="nonzero"/><path d="M1.25 3.75v28.5c0 1.375 1.123 2.5 2.5 2.5h48.5c1.382 0 2.5-1.118 2.5-2.5V3.75c0-1.375-1.123-2.5-2.5-2.5H3.75a2.499 2.499 0 00-2.5 2.5z" fill="#FFF"/><g fill="#0069B3" fill-rule="nonzero"><path d="M31.114 17.77v-.138c0-2.308 1.11-3.514 3.023-3.514.822 0 1.303.16 1.698.385v.245c-.427-.224-.93-.384-1.698-.384-1.741 0-2.746 1.078-2.746 3.236v.182c0 2.147.812 3.28 2.628 3.28.94 0 1.442-.247 1.859-.482v.257c-.353.192-.876.47-1.88.47-1.944 0-2.884-1.25-2.884-3.536zm8.235-3.577h.278l2.67 7.028h-.288l-.919-2.424h-3.215l-.93 2.424h-.266l2.67-7.028zm-1.388 4.347h3.034l-1.496-3.963h-.021L37.96 18.54zm4.945 2.275v-.245c.502.288 1.218.491 1.966.491 1.378 0 1.966-.598 1.966-1.602 0-1.005-.63-1.368-1.592-1.677l-.451-.15c-1.228-.417-1.741-.876-1.741-1.88 0-.919.662-1.634 2.019-1.634.769 0 1.324.181 1.687.384v.257c-.352-.214-.94-.396-1.698-.396-1.175 0-1.73.577-1.73 1.368 0 .887.395 1.24 1.559 1.655l.438.129c1.079.373 1.795.769 1.795 1.923 0 1.143-.673 1.87-2.243 1.87-.822-.001-1.548-.236-1.975-.493zm5.202-6.624h.277v3.26h4.337v-3.258H53v7.028h-.278v-3.536h-4.337v3.536h-.278v-7.03zm-41.683-.183L6.312 14v.983l.075.009c.632.076 1.692.527 1.692 2.703 0 1.14-.293 2.532-1.69 2.681l-.077.009v.978l.12-.011c1.713-.171 2.737-1.539 2.737-3.657 0-2.255-.975-3.565-2.744-3.687zm-.628 6.362C4.322 20.174 4.1 18.618 4.1 17.709c0-.748.166-2.509 1.696-2.712l.042-.006v-.983l-.094.01C4.053 14.214 3 15.651 3 17.768c0 2.137 1.003 3.447 2.753 3.59l.086.007v-.99l-.042-.005zm10.06-6.202H14.47l-3.09 3.323 2.983 3.734h1.378L12.72 17.5l3.137-3.331zM9.96 21.225h1.074v-7.057H9.957l.003 7.057zm6.968-7.057L15.9 15.244h2.478v5.983h1.077v-5.983h2.166v-1.076h-4.693zm7.76 6.202c-1.474-.196-1.695-1.752-1.695-2.661 0-.748.166-2.509 1.695-2.712l.053-.007v-.982l-.103.011c-1.694.195-2.746 1.632-2.746 3.75 0 2.136 1.003 3.446 2.753 3.59l.096.007v-.99l-.053-.006zm.629-6.362L25.212 14v.983l.067.008c.632.076 1.692.528 1.692 2.703 0 1.141-.293 2.533-1.69 2.682l-.069.007v.979l.111-.01c1.714-.172 2.738-1.54 2.738-3.658 0-2.254-.975-3.564-2.744-3.686zm3.203 6.134v1.084h1.083v-1.084H28.52z"/></g></g></svg>