<?xml version="1.0" encoding="UTF-8"?><svg width="56" height="36" viewBox="0 0 56 36" xmlns="http://www.w3.org/2000/svg"><g fill="none" fill-rule="evenodd"><path d="M0 3.75A3.75 3.75 0 013.75 0h48.5A3.76 3.76 0 0156 3.75v28.5A3.75 3.75 0 0152.25 36H3.75A3.76 3.76 0 010 32.25V3.75z" fill="#000" fill-rule="nonzero"/><path d="M1.25 3.75v28.5a2.5 2.5 0 002.5 2.5h48.5a2.5 2.5 0 002.5-2.5V3.75a2.5 2.5 0 00-2.5-2.5H3.75a2.5 2.5 0 00-2.5 2.5z" fill="#FFF"/><g fill-rule="nonzero"><g transform="translate(14 4)"><circle fill="#32903F" cx="14" cy="14" r="14"/><path d="M14.25 9.04h-3.68L7.3 19.36H11l3.26-10.32zm6.57 0h-3.69l-3.26 10.32h3.68l3.27-10.32z" fill="#8AC440"/><path d="M4.02 9.04H7.7l3.27 10.32H7.29L4.02 9.04zm6.56 0h3.69l3.26 10.32h-3.68L10.58 9.04zm6.57 0h3.68l3.27 10.32H20.4L17.15 9.04z" fill="#FFF"/></g></g></g></svg>