<?xml version="1.0" encoding="UTF-8"?>
<svg width="56px" height="36px" viewBox="0 0 56 36" version="1.1" xmlns="http://www.w3.org/2000/svg" xmlns:xlink="http://www.w3.org/1999/xlink">
    <!-- Generator: Sketch 46.2 (44496) - http://www.bohemiancoding.com/sketch -->
    <title>PM/OneCard</title>
    <desc>Created with Sketch.</desc>
    <defs></defs>
    <g id="Page-1" stroke="none" stroke-width="1" fill="none" fill-rule="evenodd">
        <g id="PM/OneCard">
            <path d="M0,3.75075247 C0,1.67926908 1.67596877,0 3.75035585,0 L52.2496442,0 C54.3209085,0 56,1.68806916 56,3.75075247 L56,32.2492475 C56,34.3207309 54.3240312,36 52.2496442,36 L3.75035585,36 C1.67909151,36 0,34.3119308 0,32.2492475 L0,3.75075247 Z" id="Rectangle-2" fill="#000000" fill-rule="nonzero"></path>
            <path d="M1.25,3.75075247 L1.25,32.2492475 C1.25,33.6250965 2.37296468,34.75 3.75035585,34.75 L52.2496442,34.75 C53.6324061,34.75 54.75,33.6316447 54.75,32.2492475 L54.75,3.75075247 C54.75,2.37490355 53.6270353,1.25 52.2496442,1.25 L3.75035585,1.25 C2.36759386,1.25 1.25,2.36835527 1.25,3.75075247 Z" id="Path" fill="#FFFFFF"></path>
            <g id="Page-1" transform="translate(12.000000, 5.000000)">
                <path d="M27.4210993,13.2694099 C27.4210993,11.4142088 27.4273431,9.55900763 27.4193466,7.7038065 C27.4108025,5.68802962 26.2275445,4.14386588 24.3210993,3.74259696 C23.6860922,3.60895429 23.0178943,3.61327268 22.364594,3.61065892 C19.2078519,3.5978174 16.0503431,3.6465697 12.8946965,3.58872607 C10.7208625,3.54895146 8.44581307,5.18834696 8.53936078,8.09337033 C8.65185901,11.5917171 8.63060813,15.0981325 8.55436784,18.5984112 C8.49751625,21.2085343 10.4576364,22.8895227 12.5605975,22.9233879 C16.1908837,22.9816861 19.8232512,22.9816861 23.4535375,22.9261153 C25.6494986,22.8924774 27.5693078,21.1310306 27.4373113,18.6067071 C27.3447495,16.8325325 27.4194562,15.048812 27.4210993,13.2694099 M1.09540636e-05,5.67825643 L1.09540636e-05,3.29178024 C0.0702265018,3.28416625 0.154572792,3.29984881 0.208904947,3.26530172 C1.65166466,2.34582654 3.10274947,1.43942016 4.5231629,0.484147833 C4.85901449,0.258341729 5.15707456,0.112993965 5.56357986,0.113675816 C11.843435,0.124699063 18.1233996,0.121289811 24.4033643,0.122994437 C24.6034951,0.123108079 24.8071311,0.121176169 25.0035375,0.155382328 C28.3496753,0.738364367 30.8433678,3.65566104 30.8880604,7.17798625 C30.9397636,11.2490873 30.9456788,15.3221203 30.8859792,19.3931078 C30.8285799,23.3079515 27.6900216,26.4458268 23.9245622,26.4554863 C19.9813184,26.4656004 16.0380746,26.4711689 12.0950498,26.4446903 C11.4468979,26.4401447 10.7799049,26.333776 10.1557424,26.1499037 C7.10065406,25.2499749 5.10197562,22.3877945 5.09584134,18.943882 C5.08915936,15.1750679 5.09310283,11.4061402 5.10613816,7.63732609 C5.10832898,7.0207061 5.18095442,6.4043134 5.22542792,5.71996294 C4.90140671,5.71996294 4.61200035,5.72234942 4.32259399,5.71962202 C2.88169647,5.70655322 1.44079894,5.69212072 1.09540636e-05,5.67825643" id="Fill-1" fill="#0A537F"></path>
                <path d="M17.2915919,19.9923633 C18.0653869,19.9970226 18.6283163,19.6716664 18.8549558,19.0885707 C19.0797332,18.5107025 18.8705106,18.0695454 18.2778958,17.9479487 C18.0158746,17.8940825 17.7357792,17.9006738 17.4671855,17.922493 C16.3804329,18.0107926 15.7101537,17.595773 15.2856837,16.5486782 C15.2082385,16.3579874 15.1746095,16.1172942 15.04097,15.9888791 C14.8454399,15.8010293 14.5696166,15.5705639 14.3433057,15.586701 C14.1172138,15.6029518 13.8199205,15.8573956 13.7181572,16.0861564 C13.6004011,16.3510552 13.5943763,16.7170952 13.6563763,17.012791 C14.0275,18.7829881 15.5098039,19.9815673 17.2915919,19.9923633 M17.3495389,10.0137109 L17.3427473,10.0137109 C17.3427473,9.71131027 17.3563304,9.40811415 17.3401184,9.1067363 C17.2945495,8.25624164 16.6837509,7.57416402 15.9203622,7.5051835 C15.0533481,7.42688435 14.2670654,7.93940852 14.1525954,8.81945002 C14.049189,9.61380567 14.0528039,10.4436175 14.1483233,11.2397914 C14.2500866,12.089377 15.0715318,12.6612221 15.8534329,12.5792864 C16.6850654,12.4920096 17.2955353,11.8451609 17.3465813,10.9773927 C17.3654223,10.657264 17.3495389,10.3350897 17.3495389,10.0137109 M23.0155283,10.0443942 C23.0155283,9.76142627 23.0226484,9.47811745 23.0142138,9.19537684 C22.9854046,8.23192232 22.3342951,7.52575265 21.4590654,7.50188789 C20.5536025,7.47711399 19.8126696,8.16044167 19.7582279,9.12082787 C19.7229558,9.74119804 19.7215318,10.3678185 19.7618428,10.9877341 C19.8217615,11.9082321 20.5924894,12.6169018 21.4381431,12.5839457 C22.3155636,12.5497396 22.9809134,11.8393652 23.0135565,10.8934115 C23.0234152,10.6106709 23.0150901,10.3274757 23.0155283,10.0443942 M27.4202668,13.2694326 C27.4195,15.0488347 27.3446837,16.8324416 27.4373551,18.6067298 C27.569242,21.1310534 25.6495424,22.8925001 23.4535813,22.9260244 C19.8231855,22.9817088 16.1909276,22.9817088 12.5606413,22.9234106 C10.4575707,22.8895454 8.49756007,21.208557 8.55430212,18.5983203 C8.63065194,15.0981552 8.65190283,11.5917399 8.53940459,8.09339306 C8.44585689,5.18825605 10.7209064,3.54897419 12.8946307,3.58874879 C16.0503869,3.64659243 19.2078958,3.59772649 22.3646378,3.61068165 C23.0178286,3.61329541 23.686136,3.60897702 24.3211431,3.74261969 C26.2275883,4.14388861 27.4108463,5.68805234 27.4193905,7.70382923 C27.4272774,9.55891672 27.4211431,11.4142315 27.4202668,13.2694326" id="Fill-4" fill="#FFFFFF"></path>
                <path d="M23.0152982,10.0443828 C23.0150792,10.3274643 23.0234042,10.6106595 23.0135456,10.8934001 C22.9809025,11.8393538 22.3155527,12.5497282 21.4381322,12.5839344 C20.5924784,12.6168905 19.8217505,11.9082207 19.7618318,10.9877227 C19.7215208,10.3678071 19.7229449,9.74118668 19.758217,9.12081651 C19.8126587,8.16043031 20.5535915,7.47710263 21.4590544,7.50187652 C22.3342841,7.52574128 22.9855032,8.23191095 23.0142028,9.19536548 C23.0226375,9.47821973 23.0155173,9.7614149 23.0152982,10.0443828" id="Fill-6" fill="#0A537F"></path>
                <path d="M17.3495717,10.0137563 C17.3495717,10.3350215 17.3654551,10.6573094 17.3466141,10.9773245 C17.2955682,11.8450927 16.6850982,12.492055 15.8534657,12.5792182 C15.0715647,12.6612676 14.2501194,12.0894224 14.1482466,11.2398369 C14.0527272,10.4435493 14.0492219,9.61373748 14.1525187,8.81938184 C14.2669887,7.93945398 15.0533809,7.42681616 15.9203951,7.50522895 C16.6837837,7.57409584 17.2945823,8.25617346 17.3401512,9.10678176 C17.3563633,9.40815961 17.3427802,9.71135572 17.3427802,10.0137563 L17.3495717,10.0137563 Z" id="Fill-8" fill="#0A537F"></path>
                <path d="M17.2915919,19.9923633 C15.5098039,19.9815673 14.0275,18.7829881 13.6563763,17.012791 C13.5943763,16.7170952 13.6004011,16.3510552 13.7181572,16.0861564 C13.8199205,15.8573956 14.1172138,15.6029518 14.3433057,15.586701 C14.5696166,15.5705639 14.8454399,15.8010293 15.04097,15.9888791 C15.1746095,16.1172942 15.2082385,16.3579874 15.2856837,16.5486782 C15.7101537,17.595773 16.3804329,18.0107926 17.4671855,17.922493 C17.7357792,17.9006738 18.0158746,17.8940825 18.2778958,17.9479487 C18.8705106,18.0695454 19.0797332,18.5107025 18.8549558,19.0885707 C18.6283163,19.6716664 18.0653869,19.9970226 17.2915919,19.9923633" id="Fill-10" fill="#0A537F"></path>
            </g>
        </g>
    </g>
</svg>