<?xml version="1.0" encoding="UTF-8"?><svg width="56" height="36" viewBox="0 0 56 36" xmlns="http://www.w3.org/2000/svg"><g fill="none" fill-rule="evenodd"><path d="M0 3.75A3.749 3.749 0 013.75 0h48.5A3.756 3.756 0 0156 3.75v28.5A3.749 3.749 0 0152.25 36H3.75A3.756 3.756 0 010 32.25V3.75z" fill="#000" fill-rule="nonzero"/><path d="M1.25 3.75v28.5c0 1.375 1.123 2.5 2.5 2.5h48.5c1.382 0 2.5-1.118 2.5-2.5V3.75c0-1.375-1.123-2.5-2.5-2.5H3.75a2.499 2.499 0 00-2.5 2.5z" fill="#FFF"/><path d="M27.186 27.196h-12.03c-1.73 0-3.156-1.324-3.156-2.99V8.99C12 7.324 13.427 6 15.157 6h25.686C42.573 6 44 7.324 44 8.99v15.217c0 1.665-1.427 2.989-3.157 2.989H28.817v2.174h2.439a.814.814 0 010 1.63h-6.509a.814.814 0 010-1.63h2.44v-2.174zm4.882-5.435v-5.978h-1.624v5.978h1.624zm1.63 0h.812a.814.814 0 010 1.63H21.493a.814.814 0 010-1.63h.812v-5.978h-.812c-.83 0-1.127-1.1-.41-1.52l6.508-3.804a.812.812 0 01.82 0l6.509 3.804c.717.42.42 1.52-.41 1.52h-.812v5.978zm-4.885 0v-5.978H27.19v5.978h1.624zm-3.254 0v-5.978h-1.624v5.978h1.624zm-1.057-7.609h6.999L28 12.107l-3.499 2.045zM40.843 7.63H15.157c-.858 0-1.53.623-1.53 1.36v15.217c0 .735.672 1.358 1.53 1.358h25.686c.858 0 1.53-.623 1.53-1.358V8.989c0-.736-.672-1.359-1.53-1.359z" fill="#0274DE" fill-rule="nonzero"/></g></svg>