<?xml version="1.0" encoding="UTF-8"?><svg width="56" height="36" viewBox="0 0 56 36" xmlns="http://www.w3.org/2000/svg"><defs><linearGradient x1="5.598%" y1="27.563%" x2="87.984%" y2="92.057%" id="a"><stop stop-color="#8DB64C" offset="0%"/><stop stop-color="#308C20" offset="100%"/></linearGradient></defs><g fill="none" fill-rule="evenodd"><path d="M0 3.75A3.749 3.749 0 013.75 0h48.5A3.756 3.756 0 0156 3.75v28.5A3.749 3.749 0 0152.25 36H3.75A3.756 3.756 0 010 32.25V3.75z" fill="#000" fill-rule="nonzero"/><path d="M1.25 3.75v28.5c0 1.375 1.123 2.5 2.5 2.5h48.5c1.382 0 2.5-1.118 2.5-2.5V3.75c0-1.375-1.123-2.5-2.5-2.5H3.75a2.499 2.499 0 00-2.5 2.5z" fill="#FFF"/><path d="M0 13.428c.003-.428.102-.844.183-1.258a9.494 9.494 0 01.472-1.561c.265-.691.606-1.345.973-1.99.241-.424.541-.803.817-1.2.257-.371.566-.71.88-1.04a15.64 15.64 0 011.847-1.682c.57-.434 1.144-.858 1.76-1.226.453-.27.908-.534 1.373-.78.185-.096.37-.202.569-.275.24-.089.455-.227.697-.312.296-.104.582-.24.875-.351.36-.138.72-.282 1.089-.393.338-.1.671-.22 1.019-.294.271-.057 3.961-1.292 9.296-.918.28.02.573.085.863.103.433.027.851.147 1.285.178.296.022.59.093.882.155.091.02.184.025.274.044.369.077.733.175 1.101.249.433.087.849.229 1.273.34.448.117.89.271 1.327.431.274.1.547.204.82.31.403.156.803.319 1.19.513.237.12.485.214.725.327.14.067.276.148.413.222.28.153.559.31.842.457.135.07.252.167.384.243.333.192.642.424.972.621.298.18.532.444.846.6.024.011.047.029.063.05.19.233.46.37.69.555.116.093.205.208.312.308.353.33.69.676 1.038 1.01.483.463.867 1.005 1.267 1.534.573.758 1.032 1.58 1.424 2.442.154.338.273.687.406 1.031.536.756.653 3.234.653 3.939 0 .16-.079 1.393-.342 2.026-.102.452-.262.885-.415 1.321-.142.408-.343.79-.522 1.182-.178.388-1.11 1.84-1.159 1.917-.065.103-.039.157.074.226.353.22 2.025.944 2.08.948.107.01.15.074.153.174.004.1-.054.128-.147.155-.247.073-6.395 2.927-6.637 3.096-.134.093-.259.058-.282-.1-.037-.253-1.565-5.573-1.633-5.71a.103.103 0 01.029-.133c.045-.04.1-.05.152-.023.224.12.473.162.715.222.198.05.403.008.604.02.566.03 1.069-.182 1.55-.435.211-.111.4-.283.563-.46.227-.246.458-.492.684-.738.307-.332.56-.701.806-1.071.263-.394.502-.808.675-1.253.127-.326.277-.645.364-.985.292-1.075.303-1.78.344-2.473.01-.886-.242-1.705-.33-2.058-.143-.572-.387-1.107-.644-1.634-.179-.365-.412-.704-.636-1.047-.224-.342-1.555-1.767-1.752-1.99-.222-.25-1.687-1.329-2.128-1.605a9.544 9.544 0 00-.54-.315c-.297-.16-.6-.32-.895-.482-.329-.181-2.328-.939-2.49-.98-.251-.066-1.811-.508-2.007-.558-.294-.075-.592-.134-.889-.202-1.978-.455-3.195-.442-4.224-.352-.341-.017-2.608.224-2.765.233-2.37.134-6.352 1.828-6.676 1.99-.295.146-.587.302-.886.442-.1.047-.18.13-.278.187-.267.155-.556.289-.79.478-.22.176-.465.312-.687.483-.359.279-.695.582-1.053.861-.385.302-.74.638-1.053 1.014-.224.27-.465.526-.684.798a11.035 11.035 0 00-1.114 1.683c-.239.444-.442.9-.603 1.375-.11.325-.222.654-.29.99-.127.64-.18 2.273-.166 2.34.105.51.167 1.03.314 1.53.11.371.248.735.412 1.089.115.25.221.505.37.736.124.195.211.41.359.593.11.137.2.292.3.437.442.64.965 1.208 1.526 1.745.286.273.594.522.912.76.138.103.128.19-.023.276-.17.096-.33.207-.495.311-.218.14-.45.261-.65.423-.207.168-.45.274-.667.427-.213.15-.444.288-.665.43-.256.164-.528.312-.76.513a.46.46 0 01-.052.039c-.256.168-.251.162-.486-.04-.168-.144-.354-.268-.526-.408-.19-.154-.346-.342-.523-.509a16.508 16.508 0 01-1.552-1.682c-.6-.745-1.096-1.55-1.535-2.393-.302-.58-.575-1.173-.756-1.8-.158-.546-.316-1.094-.394-1.663-.034-.25-.086-2.682-.085-2.753zm27.576-6.393c.016.265-.063.587-.166.914-.505 1.355-.22 3.747.374 5.414.1.172.174.188.343.092a3.88 3.88 0 00.493-.32.388.388 0 01.173-.087c.513-.092 1.05.181 1.2.677a.99.99 0 01-.097.82c-.173.283-.404.5-.686.651-.297.16-.607.287-.953.352-.3.057-.57.032-.863-.001-.263-.03-.478-.136-.692-.253-.226-.123-.453-.25-.633-.45-.267-.293-.437-.642-.623-.982-.21-.38-.294-.802-.4-1.217-.05-.203-.164-.788-.155-.878.005-.057.02-.13-.056-.15-.063-.017-.099.041-.124.087-.086.156-.162.317-.251.472-.321.561-1.62 3.203-2.027 3.588-.188.178-.399.394-.692.306-1.291-.359-1.291-.498-1.484-1.135-.009-.011-.016-.032-.012-.045.073-.252-.399-3.396-.451-3.925-.04-.406-.095-.817-.162-1.223a4.393 4.393 0 01-.07-.668c-.002-.257-.096-.517-.105-.779-.013-.38-.136-.755-.093-1.133.042-.368.306-.623.633-.748.344-.132.699-.28 1.088-.236.032.003.065-.005.098-.01.512-.073.677.115.864.47.285.403.487 4.42.545 4.443.056.023.09-.02.123-.057.086-.094.125-.214.188-.321.349-.595.706-1.186 1.039-1.79.312-.568.623-1.136.96-1.69.258-.425.558-.824 1.062-1.01a.726.726 0 01.252-.06c.186 0 .373.013.557-.003.272-.024.825.502.803.885zM11.151 8.623c.117-.244.26-.472.402-.701.208-.34.496-.612.788-.88.28-.257.613-.428.968-.554.222-.08.465-.092.694-.06.295.04.587.037.879.007.455-.046.888.015 1.309.194.74.317 1.292.841 1.74 1.491.267.385.426.815.545 1.254.136.497.2 1.01.152 1.529-.004.042-.068.74-.324 1.286-.122.395-.315.764-.516 1.128-.27.487-.63.896-1.031 1.28-.196.189-.395.373-.632.5-.304.161-.606.336-.952.408-.785.269-1.385.2-1.799.083-.349-.099-.683-.225-.974-.42-.31-.21-.608-.44-.839-.755-.326-.446-.554-.93-.757-1.44-.124-.312-.105-.64-.217-.95-.087-.238-.01-2.491.564-3.4zm5.023 2.294c-.034-.364-.03-.741-.152-1.114-.158-.487-.428-.872-.86-1.15-.078-.052-.154-.047-.22.023-.05.051-.095.105-.145.155-.209.207-.403.447-.758.35a.081.081 0 00-.048.006c-.157.067-.292.04-.42-.077-.09-.081-.185-.059-.244.05a3.151 3.151 0 00-.288.753c-.136.567-.093 1.145-.03 1.718.036.319.164.605.317.89.185.346.437.6.804.738.158.06.317.091.494.042.512-.142.845-.494 1.132-.902.31-.44.409-.941.418-1.482z" transform="translate(8 4.058)" fill="url(#a)"/><path d="M27.217 23.757c-.052.384-.034.773-.026 1.16.01.525.097 1.043.265 1.54.082.245.159.497.31.72.13.192.226.22.393.058.18-.173.267-.196.39-.104.338.253.415.437.26.69-.12.196-.253.388-.487.482-.118.048-.674.173-1.004-.034a2.856 2.856 0 01-.833-1.101c-.11-.263-.312-.99-.316-1.086-.001-.032.001-.07-.037-.083-.037-.012-.062.017-.078.045-.035.06-.902 2.24-1.042 2.635a.88.88 0 01-.417.479c-.16.08-.402.053-.591.008-.2-.048-.354-.372-.32-.58.043-.522.464-7.662.878-8.133.217-.186.47-.293.767-.264a.182.182 0 01.047.01c.206.082.365.586.238.763-.035.05-.594 4.577-.614 4.671-.008.04-.011.095.045.106.048.009.06-.04.073-.074.089-.231.177-.464.274-.69.102-.236.194-.478.313-.707.12-.23.208-.475.35-.69.104-.157.228-.22.444-.3a.776.776 0 01.47 0c.14.13.302.25.248.48M32.337 26.01c.035-.5-.08-.94-.457-1.308-.101-.099-.22-.13-.328-.197-.195-.122-.194.12-.294.18-.036.023-.063.06-.094.09-.173.164-.363.164-.53 0-.096-.093-.163-.084-.23.033-.035.061-.233.566-.263.753-.094.542-.067 1.188.19 1.568.118.2.288.375.487.46.278.117.562.125.85-.097.554-.383.64-.934.669-1.482m-2.016 2.75a1.642 1.642 0 01-.777-.587c-.274-.377-.442-.796-.56-1.245a3.037 3.037 0 01-.094-.744c-.005-.407.147-.777.25-1.16.062-.23.175-.448.307-.636.175-.25.325-.527.628-.684.212-.11.396-.264.646-.282.049-.004.105-.02.146-.003.221.092.441.015.661.005.176-.008.34.025.51.08.22.07.386.21.573.326.348.216.525.554.71.89.243.451.231 1.256.17 1.654-.053.302-.182.566-.29.841-.16.406-.464.703-.76 1.016-.595.69-1.744.666-2.12.53M21.938 28.329c-.274.001-.642-.094-.886-.16-.558-.122-1.882-.744-2.23-1.93a.381.381 0 01.037-.338c.093-.15.162-.31.29-.443.119-.123.259-.17.409-.216.071-.023.412.087.463.33.129.133.026.234-.022.35-.1.234.04.492.257.642.53.434.916.663 1.649.606.09-.007.068-.106.018-.166-.217-.262-.358-.572-.565-.845-.225-.298-.414-.627-.628-.936-.212-.306-.435-.607-.625-.925-.182-.303-.365-.61-.393-.979-.02-.266.188-.608.436-.722.287-.132.57-.173.868-.045.09.039.192.018.29.042.391.094.744.274 1.074.489.29.19.556.414.703.743.09.2.027.462-.162.628-.107.095-.236.155-.358.226-.12.07-.306-.014-.434-.184-.175-.231-.265-.747-.927-.865-.073-.03-.074.065-.038.109.3.708 1.096 1.685 1.557 2.356.09.165.198.32.301.476.118.179.137.38.133.553-.006.231-.1.464-.257.667-.192.248-.572.538-.96.537M35.518 26.043c.01.083.006.174.083.22.086.053.153-.014.22-.06.026-.02.053-.04.082-.052.429-.164.77-.46 1.091-.765.233-.222.422-.493.601-.762.154-.23.309-.463.407-.73.067-.182.091-.359.105-.546.006-.078.06-.157-.018-.22-.088-.07-.188-.051-.277-.001-.08.044-.565.242-.69.361-.227.217-1.274 1.034-1.398 1.282-.072.142-.188 1.148-.206 1.273m.071 3.707c-.015.053.015.107.067.137.054.032.102.013.152-.018.229-.143.43-.073.527.18.114.3-.033.643-.334.85-.267.184-.556.101-.838.105-.028 0-.06-.027-.082-.048a2.185 2.185 0 01-.625-1.109c-.226-.638-.02-6.667.265-7.652.096-.27.385-.31.632-.369.31-.073.534.078.713.313.071.093-.075.625-.146.794-.01.022.005.054.035.066.048.018.092-.005.116-.039.125-.18.311-.284.498-.383.258-.139.5-.299.79-.392.186-.06.374-.088.557-.116.32-.048.633.008.918.196.178.116.27.282.388.444.258.358.198.7.015 1.057-.25.685-.692 1.44-.976 1.767-.19.253-1.787 1.598-2.046 1.697-.179.068-.333.206-.549.173-.105-.016-.115.078-.116.157 0 .194.084 2.033.039 2.19" fill="#00276E"/></g></svg>