<?xml version="1.0" encoding="UTF-8"?><svg width="56" height="36" viewBox="0 0 56 36" xmlns="http://www.w3.org/2000/svg"><g fill="none" fill-rule="evenodd"><path d="M0 3.75A3.749 3.749 0 013.75 0h48.5A3.756 3.756 0 0156 3.75v28.5A3.749 3.749 0 0152.25 36H3.75A3.756 3.756 0 010 32.25V3.75z" fill="#000" fill-rule="nonzero"/><path d="M1.25 3.75v28.5c0 1.375 1.123 2.5 2.5 2.5h48.5c1.382 0 2.5-1.118 2.5-2.5V3.75c0-1.375-1.123-2.5-2.5-2.5H3.75a2.499 2.499 0 00-2.5 2.5z" fill="#FFF"/><g fill="#081F2C" fill-rule="nonzero"><path d="M18.782 24.384c-.998-.998-1.47-2.288-1.47-4.018 0-2.151 1.075-3.868 2.416-4.685 1.011-.622 2.022-.881 3.28-.881 1.03 0 1.976.259 2.824.797 1.258.797 2.074 2.495 2.074 4.406 0 1.581-.557 3.266-1.665 4.322-1.03.947-2.32 1.407-3.901 1.407-1.452.006-2.76-.532-3.558-1.348zm5.288-.7c.57-.732.784-1.944.784-3.298 0-1.322-.279-2.495-.667-3.247-.324-.635-.85-.946-1.452-.946-.667 0-1.127.246-1.503.7-.473.59-.83 1.75-.83 3.298 0 1.646.227 2.709.797 3.409.46.557.979.732 1.484.732.525.006.966-.078 1.387-.648zM29.228 24.241l.862-.052c.032 0 .065-.032.065-.084l.02-7.705-.966-.051c0-.422.019-.914.032-1.355.816-.02 2.43-.052 3.363-.052 1.581 0 2.76 0 3.707.422.732.343 1.386 1.192 1.386 2.021 0 1.108-.849 1.977-1.892 2.366v.13c1.374.226 2.463 1.27 2.463 2.643 0 1.71-1.679 3.052-4.491 3.052-.525 0-1.957-.02-2.287-.02h-2.288c.007-.401.007-.894.026-1.315zm3.61-.376c0 .357.343.441.719.441 1.043 0 1.846-.57 1.846-1.665 0-.914-.784-1.795-2.106-1.795-.162 0-.388 0-.42.02l-.04 3zm.032-4.341c.052.02.291.02.408.02 1.03 0 1.763-.655 1.763-1.666 0-.862-.668-1.646-1.601-1.646-.279 0-.44.02-.557.052l-.013 3.24zM15.341 30.365h25.83a.738.738 0 000-1.477H15.34a.738.738 0 100 1.477zM37.808 11.262l-9.552-4.795-9.552 4.795c-.162.084-.097.31.091.31h18.922c.188 0 .253-.226.09-.31zM17.007 12.597h22.498c.247 0 .447.2.447.447v.259c0 .246-.2.447-.447.447H17.007a.448.448 0 01-.447-.447v-.26c0-.245.2-.446.447-.446zM17.007 26.742h22.498c.247 0 .447.201.447.448v.259c0 .246-.2.447-.447.447H17.007a.448.448 0 01-.447-.447v-.26c0-.246.2-.447.447-.447z"/></g></g></svg>