<?xml version="1.0" encoding="UTF-8"?><svg width="56" height="36" viewBox="0 0 56 36" xmlns="http://www.w3.org/2000/svg" xmlns:xlink="http://www.w3.org/1999/xlink"><defs><path id="a" d="M.014.024h29.308V4.8H.014z"/><path id="c" d="M0 16.686h31.964V.004H0z"/></defs><g fill="none" fill-rule="evenodd"><path d="M0 3.75A3.749 3.749 0 013.75 0h48.5A3.756 3.756 0 0156 3.75v28.5A3.749 3.749 0 0152.25 36H3.75A3.756 3.756 0 010 32.25V3.75z" fill="#000" fill-rule="nonzero"/><path d="M1.25 3.75v28.5c0 1.375 1.123 2.5 2.5 2.5h48.5c1.382 0 2.5-1.118 2.5-2.5V3.75c0-1.375-1.123-2.5-2.5-2.5H3.75a2.499 2.499 0 00-2.5 2.5z" fill="#FFF"/><g><path fill="#E91C2E" d="M6 31.933h12.104v-7.98H6z"/><path d="M13.89 28.852c.022-.012.04-.01.06 0-.022.4-.008.796.034 1.18a8.521 8.521 0 00-.038 1.554c-.05.124-.092.123-.126-.002.034-.702.035-.889.02-1.384.026-.384.051-.953.05-1.348m-.688-2.388c-.088.063-.13.138-.127.225-.048.68-.064 1.36-.023 2.04l-.055.322a.456.456 0 00.077.308c.037.043.047-.02.032-.045-.087-.207-.049-.283.03-.275.017.118.04.147.068.088a.97.97 0 00-.023-.408c.143-.552.067-.85.2-1.648.023-.033.047-.052.07.02a4.08 4.08 0 010 .734c-.362 1.542-.007 1.566.062 2.486-.077.364.11.82.12 1.278a.488.488 0 00-.135.344l1.168.006c-.048-.037.01-.074-.146-.115-.133-.03-.374-.149-.363-.28.234-.81.079-.971.227-1.54.167-.645.293-1.307.05-2.129a3.437 3.437 0 01.065-.816l.304-.28c.03-.18.002-.347-.62-.56l-.026-.163c.093.006.163.016.173-.088-.013-.053.007-.106.011-.16-.012-.073.153.028-.036-.22.046-.466-.448-.366-.558-.314-.215.131-.208.403.001.65a.51.51 0 01-.024.319c-.18.036-.353.118-.522.221" fill="#FEFEFE"/><path d="M14.837 26.882l-.264.183c-.026.235-.017.46.015.677-.057.44.058.605.087.954.017.32.012.29-.024.41.022.052.053-.003.076-.034l.017-.053c.12.025.033.226-.016.317-.015.025 0 .063.029.031.063-.123.111-.212.096-.338l-.06-.336c.067-.309.07-.628.038-.954.035-.276.028-.565.006-.857M14.91 26.857l.006.392c.021.026-.021-.024 0 0 .131.151.275.28.427.392.27.351.469.387.736.613.238.216.213.197.272.308.053.02.036-.04.03-.078l-.025-.05c.103-.067.183.136.213.236.007.028.045.044.042.001-.043-.131-.072-.229-.172-.307l-.279-.195a3.055 3.055 0 00-.648-.701c-.17-.22-.379-.42-.602-.61M14.79 26.457l.136.28c.033.003.033-.003.066 0 .2.013.392.003.579-.025.439.057.605-.058.954-.087.32-.016.29-.012.41.025.052-.023-.003-.053-.034-.076l-.053-.017c.025-.121.225-.033.317.015.025.016.063 0 .03-.028-.123-.063-.212-.111-.338-.096l-.335.06a3.057 3.057 0 00-.954-.038 3.463 3.463 0 00-.777-.013" fill="#FEFEFE"/><g transform="translate(19.365 27.133)"><mask id="b" fill="#fff"><use xlink:href="#a"/></mask><path d="M26.854 4.166l.66-.34a.407.407 0 00.177.27c.095.067.214.1.357.1.14 0 .25-.026.33-.077.08-.05.12-.12.12-.211 0-.143-.143-.262-.427-.358a4.907 4.907 0 01-.21-.075c-.347-.13-.586-.262-.72-.393a.663.663 0 01-.2-.49c0-.289.113-.523.34-.7.227-.179.526-.268.896-.268.265 0 .493.053.686.159a.951.951 0 01.423.45l-.628.313a.456.456 0 00-.177-.251.556.556 0 00-.316-.085.544.544 0 00-.307.078c-.078.052-.117.12-.117.204 0 .147.194.283.583.41l.105.032c.322.106.552.23.689.372.136.14.204.32.204.538a.83.83 0 01-.34.698c-.226.172-.532.258-.916.258-.305 0-.565-.056-.78-.169a.86.86 0 01-.432-.465zm-.36-.746H24.28c.034.213.111.372.232.476.12.106.283.158.49.158.155 0 .29-.03.404-.09a.744.744 0 00.284-.273l.691.345c-.16.26-.355.451-.582.577-.23.125-.501.187-.815.187-.477 0-.855-.142-1.134-.426-.278-.285-.417-.667-.417-1.149 0-.462.145-.843.437-1.141.291-.299.665-.449 1.12-.449.47 0 .84.14 1.112.42.272.279.409.66.409 1.143l-.003.086-.013.136zm-.847-.517c-.024-.185-.091-.326-.203-.421-.111-.096-.263-.143-.456-.143-.192 0-.346.047-.46.143a.674.674 0 00-.222.421h1.34zm-2.87 1.78h-.83l.012-.423a1.113 1.113 0 01-.42.41c-.162.087-.361.13-.595.13-.391 0-.706-.145-.946-.436-.24-.29-.36-.674-.36-1.15 0-.5.119-.888.354-1.167.236-.278.563-.418.982-.418.214 0 .403.05.565.147.162.098.315.253.456.466a3.45 3.45 0 01-.03-.538V.024h.812v4.66zm-.782-1.48c0-.264-.066-.473-.2-.627a.673.673 0 00-.538-.232c-.233 0-.416.076-.55.227-.133.152-.2.361-.2.627 0 .267.066.476.198.626.131.15.313.225.546.225.236 0 .42-.074.55-.222.13-.149.194-.356.194-.623zM18.1 4.684h.853V1.735H18.1v2.948zM18.023.524c0-.136.05-.254.148-.352a.478.478 0 01.351-.148c.138 0 .257.049.357.146.099.098.148.216.148.354 0 .138-.049.257-.148.354a.49.49 0 01-.357.148.474.474 0 01-.351-.151.485.485 0 01-.148-.35zm-2.395 4.16l-1.2-2.95h.99l.499 1.534c.04.124.072.24.096.345.024.107.041.21.051.313.024-.155.048-.286.072-.394a2.49 2.49 0 01.084-.294l.503-1.503h.974l-1.212 2.948h-.857zm-1.532 0h-.83l.013-.424a1.113 1.113 0 01-.42.41c-.163.087-.362.13-.596.13-.39 0-.706-.145-.946-.436-.239-.29-.359-.674-.359-1.15 0-.497.118-.885.353-1.162.236-.278.563-.417.982-.417.218 0 .41.05.575.147.166.098.305.245.417.44v-.487h.811v2.948zm-.781-1.48c0-.265-.067-.474-.2-.628a.673.673 0 00-.539-.232c-.233 0-.416.077-.549.23-.133.154-.2.363-.2.63s.066.474.197.623c.131.148.313.222.546.222.236 0 .42-.074.55-.222.13-.149.195-.356.195-.623zm-5.98 1.48v-2.95h.839v.463c.154-.191.32-.334.497-.425.178-.092.375-.137.591-.137.229 0 .42.04.576.116a.86.86 0 01.462.631c.02.104.03.266.03.485v1.816h-.858V3.225c0-.362-.042-.602-.126-.718-.084-.116-.229-.174-.433-.174a.725.725 0 00-.326.074.672.672 0 00-.36.45 1.76 1.76 0 00-.035.41v1.416h-.857zM6.687 3.42H4.472c.034.213.11.372.232.476.12.106.283.158.49.158.155 0 .29-.03.403-.09a.744.744 0 00.285-.273l.691.345c-.16.26-.355.451-.583.577-.229.125-.5.187-.814.187-.477 0-.855-.142-1.134-.426-.278-.285-.418-.667-.418-1.149 0-.462.146-.843.437-1.141.292-.299.665-.449 1.12-.449.47 0 .84.14 1.113.42.272.279.408.66.408 1.143 0 .026 0 .054-.003.086l-.012.136zm-.848-.517c-.023-.185-.09-.326-.203-.421-.11-.096-.262-.143-.455-.143-.192 0-.346.047-.46.143a.674.674 0 00-.223.421H5.84zM.014 4.683V.024h.82v1.68a3.5 3.5 0 01-.038.54 1.46 1.46 0 01.456-.463c.164-.098.353-.146.566-.146.42 0 .749.139.985.417.235.277.353.665.353 1.161 0 .48-.12.863-.359 1.153-.238.29-.552.434-.94.434-.234 0-.433-.043-.596-.13a1.113 1.113 0 01-.42-.41l.006.423H.014zm.782-1.48c0 .268.065.475.197.624.131.148.314.222.548.222.235 0 .417-.074.549-.222.13-.149.197-.356.197-.623s-.067-.476-.2-.63c-.134-.153-.318-.23-.552-.23a.675.675 0 00-.54.232c-.133.154-.2.363-.2.628z" fill="#0068B0" mask="url(#b)"/></g><path d="M33.757 27.69l.14-.336c.058.04.111.07.16.09.048.02.09.03.124.03.028 0 .05-.005.064-.016a.054.054 0 00.022-.046c0-.027-.03-.047-.093-.06a1.028 1.028 0 01-.05-.01.448.448 0 01-.223-.112.274.274 0 01-.07-.196c0-.115.047-.208.142-.28a.6.6 0 01.372-.109c.077 0 .15.007.22.022.07.014.135.036.196.064l-.13.328a.83.83 0 00-.132-.074.272.272 0 00-.102-.025.1.1 0 00-.058.015.048.048 0 00-.022.04c0 .028.041.05.124.068l.046.01a.494.494 0 01.234.112c.05.048.075.112.075.19 0 .123-.05.222-.147.299a.615.615 0 01-.39.115 1.103 1.103 0 01-.502-.119zm-.895.078v-.164a.576.576 0 01-.165.155.372.372 0 01-.19.05.382.382 0 01-.315-.16.659.659 0 01-.124-.415c0-.177.04-.32.121-.427a.38.38 0 01.318-.162c.067 0 .128.015.183.044a.48.48 0 01.153.135v-.144h.506v1.088h-.487zm-.288-.547c0 .046.012.083.037.112a.125.125 0 00.099.043.125.125 0 00.098-.042.164.164 0 00.037-.113.17.17 0 00-.037-.115.124.124 0 00-.098-.043.123.123 0 00-.099.044.17.17 0 00-.037.114zm-1.53.547h.53V26.68h-.53v1.088zm.55-1.427c0 .078-.026.14-.077.186a.299.299 0 01-.207.069.303.303 0 01-.21-.07.236.236 0 01-.078-.185c0-.077.026-.138.077-.182a.31.31 0 01.21-.067c.09 0 .159.022.21.067a.23.23 0 01.075.182zm-1.036.804a.316.316 0 00-.086-.055.24.24 0 00-.092-.018.184.184 0 00-.128.042.144.144 0 00-.047.113c0 .045.015.082.046.11a.17.17 0 00.12.043c.03 0 .062-.007.093-.02a.394.394 0 00.094-.061v.432a.804.804 0 01-.158.06.625.625 0 01-.374-.022.538.538 0 01-.183-.12.584.584 0 01-.151-.58.573.573 0 01.274-.354.571.571 0 01.284-.07.78.78 0 01.146.015c.05.01.105.025.162.045v.44zm-1.832.623v-.164a.575.575 0 01-.166.155.372.372 0 01-.19.05.382.382 0 01-.314-.16.659.659 0 01-.125-.415c0-.177.04-.32.121-.427a.38.38 0 01.318-.162c.067 0 .128.015.184.044a.48.48 0 01.153.135v-.144h.506v1.088h-.487zm-.289-.547c0 .046.013.083.038.112a.125.125 0 00.098.043.125.125 0 00.099-.042.164.164 0 00.037-.113.17.17 0 00-.037-.115.124.124 0 00-.099-.043.123.123 0 00-.098.044.17.17 0 00-.038.114zm-2.816.547V26.68h.504v.153a.438.438 0 01.136-.142.325.325 0 01.172-.046c.076 0 .14.019.191.056a.39.39 0 01.124.175.462.462 0 01.152-.172.36.36 0 01.201-.059c.107 0 .192.035.255.106a.41.41 0 01.096.285v.732h-.51v-.547a.281.281 0 00-.016-.113c-.01-.02-.028-.03-.052-.03a.067.067 0 00-.063.036.218.218 0 00-.02.107v.547h-.503v-.547a.282.282 0 00-.015-.112c-.01-.02-.028-.03-.054-.03a.068.068 0 00-.063.035.218.218 0 00-.02.107v.547h-.515zm-1.351 0V26.68h.513v.153a.484.484 0 01.152-.141.376.376 0 01.187-.047h.023l.015.002v.529a.464.464 0 00-.082-.036.23.23 0 00-.067-.012c-.067 0-.12.019-.156.055a.206.206 0 00-.055.154v.431h-.53zm-1.01 0v-.164a.576.576 0 01-.165.155.372.372 0 01-.19.05.382.382 0 01-.314-.16.659.659 0 01-.125-.415c0-.177.04-.32.121-.427a.38.38 0 01.318-.162c.067 0 .128.015.184.044a.48.48 0 01.153.135v-.144h.506v1.088h-.487zm-.288-.547c0 .046.013.083.038.112a.125.125 0 00.098.043.125.125 0 00.099-.042.164.164 0 00.037-.113.17.17 0 00-.038-.115.124.124 0 00-.098-.043.123.123 0 00-.098.044.17.17 0 00-.038.114zm-1.609.547v-.687h-.142v-.4h.142v-.124c0-.15.04-.266.121-.346.08-.081.197-.122.347-.122a1.077 1.077 0 01.237.026v.41l-.023-.004a.477.477 0 00-.053-.005c-.036 0-.062.01-.078.03-.015.02-.023.053-.023.101v.033h.177v.401h-.177v.687h-.528z" fill="#0068B0"/><g><path fill="#1C3E93" d="M25.817 6.245h1.134v.571h-.564v.437h.564v.623h-.543v1.188h-.59z"/><g transform="translate(11.373 4.023)"><path d="M17.346 2.916h.448v.223s.086-.272.32-.23v.623s-.309-.022-.309.276v1.226l-.464-.001.005-2.117zM18.375 2.915h.408v.136s.014.036.036-.005c.02-.041.124-.175.288-.175.163 0 .304.175.304.175s.015.023.033.019c.02-.003.025-.022.025-.022s.103-.174.305-.174c.201 0 .374.24.374.482v1.683h-.383V3.55s.011-.212-.149-.212-.152.225-.152.225v1.469h-.39V3.551s.02-.212-.133-.212-.13.212-.13.212v1.483h-.435l-.001-2.119zM23.046 3.741h-.375v-.188s.005-.231-.133-.231c-.139 0-.148.236-.148.236v.849s.013.19.148.19c.133 0 .13-.171.13-.171v-.197h.387v.477s-.019.353-.545.353c-.527 0-.536-.4-.536-.4v-1.25s-.01-.535.55-.535c.559 0 .527.442.527.442l-.005.425zM23.341 2.91h.481v2.13h-.483z" fill="#1C3E93"/><mask id="d" fill="#fff"><use xlink:href="#c"/></mask><path fill="#1C3E93" mask="url(#d)" d="M23.353 2.768h.472v-.545h-.472zM26.33 3.637h.364v-.405s-.01-.358-.521-.358c-.514 0-.514.451-.514.451s-.05.53.218.72c.267.191.42.363.42.363s.106.312-.124.312c-.232 0-.158-.326-.158-.326h-.356v.373s.015.296.504.296c.49 0 .554-.279.554-.366 0-.09.07-.55-.194-.72 0 0-.48-.317-.48-.47 0-.154.01-.252.148-.252.138 0 .143.107.138.382M28.225 4.371V3.65s-.022-.208.135-.208.12.217.12.217v.74s.027.18-.125.18-.13-.208-.13-.208m.32.568v.098h.345v-2.8h-.396v.882s-.13-.306-.393-.241c-.345.085-.314.638-.314.638v1.127s0 .31.235.389c.267.088.522-.093.522-.093M29.691 3.551s.005-.171.153-.171.157.153.157.153v.25h-.314l.004-.232zm.264.77v.237s.025.162-.12.157c-.152-.005-.13-.13-.13-.13v-.444h.656v-.659s.028-.61-.526-.61-.568.605-.568.605v1.16s.009.423.559.423.55-.317.55-.317v-.421h-.421zM30.728 5.04h.463V2.237h-.463zM14.387 9.256l.46-1.043.05 1.043h-.51zm.624 2.037h1.19l-.18-4.928h-1.486l-2.473 4.926h1.19l.544-1.032h1.215v1.034zM17.234 6.365h1.159l-.14 1.47s0 .025.057 0c.058-.024.692-.226 1.076.025.403.264.427.452.385.764-.04.313-.365 2.667-.365 2.667H18.2l.316-2.413s.041-.262-.13-.262c-.174 0-.23.222-.23.222l-.354 2.455h-1.157l.59-4.928zM23.8 7.827h1.132l-.025.115s.047.05.085-.007c.039-.058.392-.288.835-.066l-.123 1.001s-.87-.074-.953.592c-.082.665-.201 1.829-.201 1.829h-1.191l.44-3.464zM26.16 7.827h1.135l-.026.115s.046.05.084-.007c.04-.058.393-.288.836-.066l-.123 1.001s-.87-.074-.953.592c-.082.665-.201 1.829-.201 1.829H25.72l.44-3.464zM21.34 10.496c-.24-.03-.166-.407-.166-.407l.156-1.05s.093-.387.344-.353c.25.035.186.408.186.408s-.096.888-.172 1.112c-.074.221-.107.32-.348.29m1.408.091c.19-.362.262-1.27.272-1.577.009-.279-.025-1.322-1.164-1.297-1.138.025-1.432.59-1.592.862-.217.367-.273 1.75-.273 1.75.033.401.323 1.09 1.362 1.09 1.04 0 1.205-.467 1.395-.828M29.439 10.496c-.24-.03-.166-.407-.166-.407l.157-1.05s.093-.387.344-.353c.249.035.185.408.185.408s-.096.888-.172 1.112c-.073.221-.108.32-.348.29m1.408.091c.19-.362.264-1.27.272-1.577.009-.279-.025-1.322-1.163-1.297-1.14.025-1.433.59-1.592.862-.217.367-.273 1.75-.273 1.75.033.401.321 1.09 1.361 1.09s1.206-.467 1.395-.828"/><path d="M1.733 3.706C4.031.542 8.555-.802 10.915 1.076c2.294 1.827 2.03 4.904-.268 8.067-2.297 3.162-6.708 4.167-8.646 2.719-2.417-1.806-2.566-4.994-.268-8.156" fill="#EE4135" mask="url(#d)"/><path d="M1.733 3.706C4.031.542 8.555-.802 10.915 1.076c2.294 1.827 2.03 4.904-.268 8.067-2.297 3.162-6.708 4.167-8.646 2.719-2.417-1.806-2.566-4.994-.268-8.156z" stroke="#EE4135" stroke-width=".5" mask="url(#d)"/><path d="M.48 9.981L5.244.801a7.019 7.019 0 013.46-.69l2.11 8.916c-.68.965-1.38 1.781-2.399 2.237L8.113 9.36H3.256l-1.218 2.527C1.348 11.42.662 10.551.479 9.981" fill="#FEFEFE" mask="url(#d)"/><path d="M.48 9.981L5.244.801a7.019 7.019 0 013.46-.69l2.11 8.916c-.68.965-1.38 1.781-2.399 2.237L8.113 9.36H3.256l-1.218 2.527C1.348 11.42.662 10.551.479 9.981z" stroke="#FEFEFE" stroke-width=".5" mask="url(#d)"/><path fill="#EE4135" mask="url(#d)" d="M4.425 7.38h3.374L6.787 2.59z"/><path stroke="#EE4135" stroke-width=".5" mask="url(#d)" d="M4.425 7.38h3.374L6.787 2.59z"/><path d="M16.536 4.431c-.002.133-.077.225-.258.213-.18-.012-.194-.194-.095-.353.126-.202.353-.235.353-.235v.375zm-.066-1.558c-.725 0-.65.702-.65.702h.463s-.027-.217.106-.23c.156-.013.145.085.145.085v.166s-.17.053-.4.213c-.229.16-.566.496-.326 1.002.24.506.8.095.8.095v.138h.456V3.439s.056-.566-.594-.566zM21.22 4.431c-.003.133-.078.225-.258.213-.18-.012-.194-.194-.096-.353.126-.202.354-.235.354-.235v.375zm-.111-1.558c-.724 0-.65.702-.65.702h.464s-.027-.217.105-.23c.156-.013.145.085.145.085v.166s-.17.053-.399.213c-.23.16-.567.496-.327 1.002.24.506.801.095.801.095v.138h.455V3.439s.055-.566-.594-.566zM24.93 4.431c-.003.133-.077.225-.257.213-.18-.012-.194-.194-.097-.353.126-.202.354-.235.354-.235v.375zm-.11-1.558c-.725 0-.65.702-.65.702h.463s-.027-.217.106-.23c.157-.013.144.085.144.085v.166s-.17.053-.4.213c-.228.16-.565.496-.325 1.002.239.506.8.095.8.095v.138h.456V3.439s.056-.566-.594-.566z" fill="#1C3E93" mask="url(#d)"/><path fill="#231F20" mask="url(#d)" d="M.378 13.875H1.51v.22h-.455v2.034h-.22v-2.033H.377zM3.289 15.163a.763.763 0 00-.228-.43.638.638 0 00-.433-.145.596.596 0 00-.418.158.659.659 0 00-.208.417H3.29zm.244.184H1.996c.01.183.077.331.2.447a.633.633 0 00.452.174.624.624 0 00.582-.377h.248a.98.98 0 01-.33.433.829.829 0 01-.494.151.855.855 0 01-.636-.257.88.88 0 01-.252-.642c0-.256.084-.47.252-.64a.848.848 0 01.63-.255c.266 0 .48.088.642.263.162.176.243.408.243.697v.006zM5.607 15.973c.177 0 .33-.069.456-.205a.71.71 0 00.19-.5.66.66 0 00-.192-.473.596.596 0 00-.444-.202.623.623 0 00-.468.203.697.697 0 00-.195.5c0 .19.065.35.193.481.129.13.282.196.46.196zm.861.713h-.22v-.505a13.156 13.156 0 01.015-.38.779.779 0 01-.285.277.746.746 0 01-.377.097.828.828 0 01-.623-.257.868.868 0 01-.249-.632.88.88 0 01.251-.637.831.831 0 01.62-.26.752.752 0 01.662.374l-.008-.331h.214v2.254zM6.971 14.427h.216v.967c0 .196.04.341.119.434.08.094.202.14.367.14.098 0 .186-.02.26-.06a.45.45 0 00.237-.329c.01-.06.015-.165.015-.315v-.837h.217v1.702h-.217l.01-.225a.596.596 0 01-.222.205.666.666 0 01-.306.066c-.219 0-.39-.066-.512-.2-.123-.134-.184-.322-.184-.562v-.986zM10.321 15.163a.764.764 0 00-.229-.43.634.634 0 00-.432-.145.598.598 0 00-.419.158.656.656 0 00-.207.417h1.287zm.244.184H9.028a.639.639 0 00.652.62.624.624 0 00.581-.376h.248a.968.968 0 01-.33.433.828.828 0 01-.493.151.854.854 0 01-.636-.257.878.878 0 01-.252-.642c0-.256.083-.47.252-.64a.849.849 0 01.63-.255c.266 0 .48.088.642.263.162.176.243.408.243.697v.006zM11.564 14.4v.239c-.137.012-.235.053-.294.123-.06.07-.088.183-.088.34v1.027h-.217v-1.702h.201v.196a.564.564 0 01.178-.169.448.448 0 01.22-.054M13.336 15.163a.762.762 0 00-.228-.43.635.635 0 00-.433-.145.597.597 0 00-.418.158.661.661 0 00-.207.417h1.286zm.244.184h-1.536a.64.64 0 00.652.62.623.623 0 00.581-.376h.248a.97.97 0 01-.33.433.83.83 0 01-.493.151.853.853 0 01-.636-.257.88.88 0 01-.253-.642c0-.256.085-.47.252-.64a.849.849 0 01.631-.255.83.83 0 01.64.263c.163.176.244.408.244.697v.006zM15.253 14.69c.07-.098.156-.174.258-.224a.765.765 0 01.343-.076c.213 0 .376.066.49.198.115.132.172.32.172.563v.978h-.211v-.963c0-.192-.04-.335-.117-.43-.078-.092-.197-.139-.358-.139-.096 0-.18.02-.253.06a.443.443 0 00-.175.172.523.523 0 00-.056.159 1.92 1.92 0 00-.017.312v.83h-.207v-.956c0-.197-.04-.342-.118-.436-.08-.094-.201-.14-.366-.14-.1 0-.186.02-.262.059a.443.443 0 00-.177.172.506.506 0 00-.058.167 1.837 1.837 0 00-.017.304v.83h-.212v-1.703h.214v.19a.626.626 0 01.23-.17.755.755 0 01.297-.057c.13 0 .248.027.356.081.108.055.189.128.244.22M17.724 14.583a.592.592 0 00-.447.199.695.695 0 00-.187.495c0 .196.062.361.187.493.124.132.28.198.467.198.186 0 .34-.067.463-.2a.721.721 0 00.185-.51.656.656 0 00-.668-.675m.006-.212c.246 0 .455.087.628.261a.854.854 0 01.26.625.914.914 0 01-.254.65.82.82 0 01-.618.268.845.845 0 01-.63-.263.873.873 0 01-.256-.634c0-.248.086-.462.258-.64a.823.823 0 01.612-.267M19.898 14.85h-.239a.268.268 0 00-.073-.187.251.251 0 00-.185-.066.237.237 0 00-.178.072.254.254 0 00-.07.185c0 .048.01.09.03.123.019.035.05.066.092.093.042.025.102.05.182.073.079.023.132.041.16.053a.517.517 0 01.234.182c.05.075.074.172.074.289 0 .146-.05.267-.154.363a.544.544 0 01-.388.145.512.512 0 01-.388-.156.613.613 0 01-.155-.424h.226v.006c0 .106.03.194.092.264.06.069.137.103.228.103.087 0 .159-.026.216-.08a.265.265 0 00.085-.203.281.281 0 00-.068-.197.633.633 0 00-.243-.14c-.192-.07-.316-.14-.374-.208a.424.424 0 01-.084-.274c0-.135.048-.25.144-.344a.483.483 0 01.352-.141c.147 0 .262.041.348.123.085.082.13.197.136.346M20.343 16.13h.217v-.415h-.217zM21.221 16.13h.217v-.415h-.217zM22.1 16.13h.216v-.415H22.1zM24.638 14.593a.6.6 0 00-.456.204.705.705 0 00-.19.498c0 .183.064.341.193.476a.601.601 0 00.446.202.623.623 0 00.467-.202.69.69 0 00.194-.5.662.662 0 00-.194-.481.622.622 0 00-.46-.197zm-.86-.718h.22v.509c0 .03 0 .078-.003.148-.003.07-.006.147-.012.231a.755.755 0 01.663-.374.83.83 0 01.625.26c.164.172.246.389.246.65a.847.847 0 01-.254.62.835.835 0 01-.618.256.762.762 0 01-.38-.095.787.787 0 01-.282-.276l.01.325h-.215v-2.254zM25.895 16.13h.222v-1.703h-.222v1.702zm0-1.901h.222v-.354h-.222v.354zM27.994 15.163a.768.768 0 00-.229-.43.637.637 0 00-.433-.145.594.594 0 00-.417.158.656.656 0 00-.208.417h1.287zm.244.184H26.7a.637.637 0 00.652.62.623.623 0 00.581-.376h.249a.977.977 0 01-.33.433.829.829 0 01-.494.151.852.852 0 01-.636-.257.879.879 0 01-.252-.642c0-.256.084-.47.252-.64a.847.847 0 01.63-.255c.265 0 .479.088.641.263.163.176.244.408.244.697v.006zM30.064 15.151v.978h-.216v-.955c0-.203-.038-.35-.115-.441-.077-.09-.2-.136-.368-.136a.55.55 0 00-.26.06.442.442 0 00-.23.324c-.01.057-.016.148-.016.272v.877h-.216v-1.703h.213v.19a.64.64 0 01.23-.171.779.779 0 01.305-.056c.217 0 .384.066.5.196.115.13.173.32.173.565M30.65 16.13h.217v-.415h-.216z"/><path d="M10.492 11.262h.087c.042 0 .071-.006.086-.018a.06.06 0 00.023-.05.06.06 0 00-.01-.035.066.066 0 00-.031-.023.231.231 0 00-.073-.007h-.082v.133zm-.073.25v-.443h.153c.053 0 .09.004.114.013a.11.11 0 01.056.042.118.118 0 01-.014.15.138.138 0 01-.093.04.122.122 0 01.038.024c.018.017.04.047.065.088l.054.087h-.087l-.04-.07a.372.372 0 00-.074-.103.094.094 0 00-.057-.016h-.042v.189h-.073zm.181-.57a.352.352 0 00-.169.044.346.346 0 00-.13.47.348.348 0 00.47.127.345.345 0 00.127-.47.317.317 0 00-.129-.127.353.353 0 00-.169-.045zm0-.07c.07 0 .137.018.204.054a.379.379 0 01.154.152.419.419 0 010 .412.384.384 0 01-.152.152.42.42 0 01-.411 0 .416.416 0 01-.152-.564.38.38 0 01.154-.152.425.425 0 01.203-.054z" fill="#EE4135" mask="url(#d)"/><path d="M31.443 11.611h.087c.042 0 .071-.006.086-.018a.06.06 0 00.023-.05.06.06 0 00-.01-.034.066.066 0 00-.031-.024.23.23 0 00-.073-.007h-.082v.133zm-.073.251v-.444h.153c.052 0 .09.004.114.013a.11.11 0 01.056.042.118.118 0 01-.014.15.138.138 0 01-.093.04.123.123 0 01.038.024.51.51 0 01.065.088l.054.087h-.087l-.04-.07a.371.371 0 00-.074-.103.094.094 0 00-.057-.016h-.042v.189h-.073zm.181-.572a.352.352 0 00-.169.045.346.346 0 00-.13.47.348.348 0 00.47.127.345.345 0 00.127-.47.317.317 0 00-.129-.127.353.353 0 00-.169-.045zm0-.068c.07 0 .137.017.203.053a.419.419 0 01.155.564.42.42 0 01-.564.153.416.416 0 01-.152-.564.38.38 0 01.155-.153.424.424 0 01.203-.053z" fill="#1C3E93" mask="url(#d)"/></g></g></g></g></svg>