<?xml version="1.0" encoding="UTF-8"?>
<svg width="56px" height="36px" viewBox="0 0 56 36" version="1.1" xmlns="http://www.w3.org/2000/svg" xmlns:xlink="http://www.w3.org/1999/xlink">
    <!-- Generator: Sketch 52.5 (67469) - http://www.bohemiancoding.com/sketch -->
    <title>PM/OTP_Banka</title>
    <desc>Created with Sketch.</desc>
    <defs>
        <polygon id="path-1" points="0.071584721 9.27588201 7.50067521 9.27588201 7.50067521 0.0932630006 0.071584721 0.0932630006"></polygon>
        <polygon id="path-3" points="4.09150407e-16 6.52268593 4.09150407e-16 0.0756407343 6.49574887 0.0756407343 6.49574887 6.52268593 0 6.52268593"></polygon>
    </defs>
    <g id="PM/OTP_Banka" stroke="none" stroke-width="1" fill="none" fill-rule="evenodd">
        <path d="M0,3.75075247 C0,1.67926908 1.67596877,0 3.75035585,0 L52.2496442,0 C54.3209085,0 56,1.68806916 56,3.75075247 L56,32.2492475 C56,34.3207309 54.3240312,36 52.2496442,36 L3.75035585,36 C1.67909151,36 0,34.3119308 0,32.2492475 L0,3.75075247 Z" id="Rectangle-2" fill="#000000" fill-rule="nonzero"></path>
        <path d="M1.25,3.75075247 L1.25,32.2492475 C1.25,33.6250965 2.37296468,34.75 3.75035585,34.75 L52.2496442,34.75 C53.6324061,34.75 54.75,33.6316447 54.75,32.2492475 L54.75,3.75075247 C54.75,2.37490355 53.6270353,1.25 52.2496442,1.25 L3.75035585,1.25 C2.36759386,1.25 1.25,2.36835527 1.25,3.75075247 Z" id="Path" fill="#FFFFFF"></path>
        <g id="Page-1" transform="translate(3.000000, 5.000000)">
            <path d="M24.9879226,1.0416956 C24.9879226,1.33402643 24.980043,1.62663835 24.9915043,1.918407 C24.9968052,2.05276674 24.9502436,2.09099462 24.8210172,2.09563256 C23.8890688,2.12894141 23.0741691,2.46146773 22.4148567,3.10037924 C21.3523926,4.13028323 20.9853438,5.38070023 21.412851,6.78796397 C21.8415043,8.19846021 22.83649,9.07868519 24.3145702,9.34824795 C26.4586963,9.73924043 28.4270344,8.29599751 28.6990974,6.18011261 C28.712851,6.07442377 28.725745,5.96676732 28.7200143,5.86107848 C28.7139971,5.74878409 28.7639971,5.73402701 28.8621347,5.73458918 C29.4751719,5.73824332 30.0884957,5.74035147 30.701533,5.73332429 C30.8298997,5.73177831 30.849384,5.77703337 30.8466619,5.88750069 C30.8132808,7.15871816 30.4001003,8.29824621 29.6022493,9.2972306 C26.9488109,12.6192612 21.6747421,12.1002335 19.7394986,8.32986854 C17.9796132,4.9010247 20.130616,0.719007345 23.9829083,0.0816418161 C24.2708739,0.033997513 24.5612751,0.00645095431 24.8541117,0.0001264893 C24.9575501,-0.0019816657 24.9930802,0.0244405437 24.9905014,0.131113187 C24.9831948,0.43440642 24.9879226,0.738121284 24.9879226,1.0416956" id="Fill-1" fill="#016E51"></path>
            <path d="M24.8755731,8.30562475 C23.4368911,8.30534367 22.2666905,7.14979364 22.2742837,5.73718924 C22.2818768,4.33554725 23.4563754,3.17971614 24.887894,3.19517594 C26.4019341,3.21133846 27.4828797,4.39064037 27.4868911,5.74885437 C27.4909026,7.16398855 26.3222779,8.30590584 24.8755731,8.30562475" id="Fill-3" fill="#7AC042"></path>
            <path d="M29.6712321,2.51857062 C29.674957,3.32430746 29.0016046,3.98725194 28.1781089,3.98823574 C27.3488825,3.98921955 26.6826934,3.33990781 26.6783954,2.52644106 C26.6740974,1.71943933 27.344298,1.05775975 28.1697994,1.05368398 C28.9898567,1.04960821 29.6675072,1.71058508 29.6712321,2.51857062" id="Fill-5" fill="#016E52"></path>
            <g id="Group-9" transform="translate(10.601719, 17.407176)">
                <mask id="mask-2" fill="white">
                    <use xlink:href="#path-1"></use>
                </mask>
                <g id="Clip-8"></g>
                <path d="M5.44429799,2.580452 C5.44429799,2.51875333 5.45002865,2.45635194 5.44329513,2.39535599 C5.40088825,2.00857981 5.24616046,1.68659427 4.85747851,1.53326113 C4.46005731,1.37655495 4.12237822,1.53452603 3.80647564,1.76459601 C3.75561605,1.80169954 3.74100287,1.85356015 3.72810888,1.9090749 C3.4930086,2.92618942 3.26077364,3.94386611 3.01808023,4.9592941 C2.98641834,5.09168623 3.03570201,5.11684355 3.14157593,5.12302747 C3.67352436,5.15408762 4.15504298,5.01874407 4.55203438,4.66527675 C5.17681948,4.10900492 5.37452722,3.36819925 5.44429799,2.580452 L5.44429799,2.580452 Z M3.97595989,0.594148352 C4.30418338,0.400198091 4.63383954,0.213696645 5.01879656,0.139630133 C6.18054441,-0.0835532099 7.20131805,0.511649219 7.41578797,1.6515989 C7.6934384,3.12744795 7.29501433,4.44054743 6.14630372,5.47284066 C5.5622063,5.99763071 4.82008596,6.20690023 4.04959885,6.31947571 C3.63527221,6.38005003 3.2182235,6.40745604 2.80002865,6.40113158 C2.6895702,6.39944505 2.65232092,6.44090544 2.63054441,6.53619404 C2.43512894,7.38999682 2.23441261,8.2425347 2.0417192,9.09675911 C2.01277937,9.22465385 1.97065903,9.2789037 1.82166189,9.27581174 C1.28899713,9.2644277 0.755759312,9.26681695 0.222951289,9.27426576 C0.0816905444,9.27637392 0.0508882521,9.24432996 0.0834097421,9.10687825 C0.574383954,7.02500492 1.06106017,4.94214777 1.54773639,2.85929063 C1.72653295,2.09388982 1.90661891,1.32862955 2.07681948,0.561401677 C2.10704871,0.424933777 2.16808023,0.371948814 2.30532951,0.353678138 C2.84401146,0.282000868 3.38183381,0.203296414 3.9186533,0.119532389 C4.04487106,0.099996819 4.05303725,0.14258155 4.02567335,0.241243204 C3.99573066,0.349321284 3.97409742,0.459788606 3.94888252,0.568991035 C3.94673352,0.582623771 3.94458453,0.596115963 3.94243553,0.609608155 L3.97595989,0.594148352 Z" id="Fill-7" fill="#016E51" mask="url(#mask-2)"></path>
            </g>
            <g id="Group-12" transform="translate(0.000000, 17.407176)">
                <mask id="mask-4" fill="white">
                    <use xlink:href="#path-3"></use>
                </mask>
                <g id="Clip-11"></g>
                <path d="M4.49234957,2.47834702 C4.49234957,2.37729612 4.50022923,2.27568305 4.49106017,2.17533488 C4.43060172,1.50803355 3.96040115,1.1873129 3.30438395,1.36313302 C3.03074499,1.43649682 2.81885387,1.60233835 2.67644699,1.83240833 C2.18676218,2.62395026 1.95352436,3.48899653 1.9913467,4.41349277 C2.00567335,4.76358704 2.14951289,5.07713997 2.51512894,5.21838635 C2.89206304,5.36384905 3.2452149,5.30018276 3.55939828,5.04804743 C3.73031519,4.91087681 3.85810888,4.73716484 3.95868195,4.54686871 C4.30137536,3.89868132 4.46068768,3.20355234 4.49234957,2.47834702 M2.82830946,6.52010179 C2.41899713,6.53246964 2.02687679,6.48904164 1.6469341,6.37492019 C0.700802292,6.09074089 0.150659026,5.4502834 0.0343266476,4.50006767 C-0.118968481,3.24669925 0.242492837,2.11911741 1.0708596,1.15414459 C1.62573066,0.507643725 2.37873926,0.213907461 3.21799427,0.113699826 C3.73318052,0.0521417004 4.24664756,0.0559363794 4.75037249,0.194934066 C5.72573066,0.464075188 6.38232092,1.20066455 6.47558739,2.21609254 C6.58518625,3.41001099 6.2465043,4.49781897 5.4947851,5.44241296 C4.98232092,6.08638404 4.2674212,6.39361249 3.45065903,6.48763621 C3.24005731,6.51195026 3.02916905,6.52951822 2.82830946,6.52010179" id="Fill-10" fill="#016E52" mask="url(#mask-4)"></path>
            </g>
            <path d="M20.1621203,22.8807198 C20.4890544,22.8899957 20.7675645,22.8592166 21.0443553,22.8146643 C22.7589685,22.5386365 23.5245845,20.958504 23.4669914,19.8716799 C23.4191404,18.9667192 22.802808,18.4611836 21.8880516,18.550991 C21.4771633,18.5914676 21.1201433,18.7546388 20.7732951,18.9577244 C20.6860458,19.0087418 20.6429226,19.0722675 20.6215759,19.1653074 C20.3675645,20.2643589 20.1104011,21.3624265 19.857106,22.461478 C19.8261605,22.5954161 19.7159885,22.7663172 19.7944986,22.8554219 C19.872149,22.9438239 20.0654155,22.871725 20.1621203,22.8807198 M20.9284527,18.058526 C21.2452149,17.9189662 21.546361,17.7424433 21.8909169,17.668939 C22.7780229,17.4797672 23.5773066,17.6132837 24.2171347,18.2960448 C24.5473639,18.6486689 24.7142693,19.0821056 24.7374785,19.5516619 C24.7916332,20.6525405 24.4999427,21.6543357 23.7535244,22.4985816 C23.2271633,23.0940651 22.5283095,23.4046666 21.7638395,23.5906058 C21.1664183,23.7357874 20.5573926,23.7866643 19.9439255,23.7928482 C19.4456447,23.7979078 18.9473639,23.7932698 18.4492264,23.8009997 C18.3152722,23.8031079 18.2771633,23.7848372 18.3118338,23.6375474 C18.8952149,21.1629951 19.4715759,18.6871778 20.0492264,16.2113606 C20.1513754,15.7741293 20.2546705,15.337179 20.3515186,14.8988233 C20.3770201,14.7830153 20.4175645,14.7182247 20.554384,14.7027649 C20.8891977,14.6649586 21.222149,14.6100061 21.5548138,14.554913 C21.6982235,14.5311611 21.7035244,14.5911732 21.6777364,14.7017811 C21.4326074,15.7510801 21.189914,16.8009413 20.9476504,17.8508025 C20.9317479,17.91995 20.8995129,17.9889569 20.9308883,18.0620396 C20.9234384,18.0618991 20.9159885,18.061618 20.9085387,18.0614774 C20.9088252,18.0661154 20.9091117,18.0706128 20.9093983,18.0752507 C20.915702,18.0697695 20.9220057,18.0641478 20.9284527,18.058526" id="Fill-13" fill="#7AC143"></path>
            <path d="M40.348639,20.0027368 C40.7974928,19.5870087 41.2462034,19.1709994 41.6952006,18.7555523 C42.0368911,18.4396102 42.3794413,18.1245113 42.7212751,17.8088502 C42.7668338,17.7666871 42.807235,17.7249456 42.8810172,17.7255078 C43.3154011,17.7284592 43.7497851,17.7270538 44.2338825,17.7270538 C44.0298711,17.9180526 43.8575215,18.0823482 43.6818768,18.2431301 C42.9781519,18.8866796 42.275,19.5306507 41.5671203,20.1694216 C41.4858883,20.2425043 41.5068052,20.2940839 41.5462034,20.3699774 C42.0969198,21.4300983 42.6459169,22.4910625 43.1934814,23.5527293 C43.2313037,23.625812 43.2838825,23.6943973 43.2956304,23.7936212 C42.8446275,23.7936212 42.399212,23.7909508 41.9539398,23.7953077 C41.8484957,23.796432 41.837894,23.717306 41.8076648,23.6571533 C41.3085244,22.6658988 40.812106,21.67352 40.3129656,20.682406 C40.283596,20.6240804 40.2674069,20.5554951 40.1953438,20.5008236 C40.0639685,21.0641226 39.9343123,21.6175836 39.8058023,22.1714662 C39.6890401,22.6746125 39.5718481,23.1776183 39.4582378,23.6813268 C39.4367479,23.777037 39.3979226,23.8199028 39.2874642,23.8172325 C38.9553725,23.809081 38.6227077,23.8092215 38.290616,23.8168109 C38.1536533,23.8197623 38.1450573,23.7716964 38.1719914,23.6571533 C38.6983524,21.416325 39.2211318,19.1743725 39.7450573,16.9329821 C39.9023639,16.2604806 40.0641117,15.5891035 40.2165473,14.9156183 C40.2424785,14.8014968 40.2871777,14.7469659 40.4098138,14.7310844 C40.7612464,14.6855483 41.1123926,14.6346715 41.4611032,14.5715674 C41.5997851,14.5464101 41.5989255,14.5818271 41.5715616,14.6951053 C41.2712751,15.9453817 40.9758596,17.196642 40.6795845,18.4477617 C40.5579513,18.960465 40.4376074,19.4733088 40.3165473,19.9862932 C40.3274355,19.9917744 40.3380372,19.9972556 40.348639,20.0027368" id="Fill-15" fill="#7BC143"></path>
            <path d="M10.6818481,22.4328774 C10.5626504,22.8701087 10.4490401,23.2795124 10.341447,23.6903216 C10.3249713,23.753004 10.2867192,23.7715558 10.2357163,23.7826588 C9.63786533,23.9111157 9.03743553,23.9601654 8.4324212,23.8317085 C7.77067335,23.6911648 7.41924069,23.2803557 7.38686246,22.6162869 C7.3606447,22.0799722 7.51465616,21.572188 7.63729226,21.0594847 C7.79259312,20.4098918 7.94488539,19.7595963 8.11351003,19.113236 C8.15333811,18.9607461 8.09818052,18.9590596 7.98098854,18.9631353 C7.79803725,18.9693193 7.61422636,18.9601839 7.43127507,18.9666489 C7.33815186,18.9698814 7.32697708,18.9354482 7.34574499,18.8584303 C7.43901146,18.4768543 7.532851,18.0952782 7.61838109,17.7118751 C7.6380086,17.6236136 7.68929799,17.6257218 7.75434097,17.6260029 C7.93772206,17.6267056 8.12124642,17.6209433 8.30434097,17.6282516 C8.4127937,17.6326084 8.4627937,17.6061862 8.48944126,17.4909404 C8.59087393,17.0537091 8.70964183,16.6202724 8.81594556,16.1840249 C8.83385387,16.1105205 8.8572063,16.0640006 8.93686246,16.0454488 C9.57640401,15.8966131 10.2152292,15.7452475 10.854341,15.5951469 C10.8698138,15.5914928 10.8867192,15.5947253 10.9223926,15.5947253 C10.8011891,16.0788982 10.6818481,16.5552007 10.5623639,17.0312221 C10.5228223,17.1891932 10.4861461,17.347867 10.4420201,17.5045732 C10.415086,17.6000023 10.4398711,17.6303597 10.5438825,17.6282516 C10.8587822,17.6223488 11.1741117,17.629657 11.4891547,17.6243164 C11.5904441,17.6224893 11.6126504,17.6427276 11.5862894,17.7449028 C11.4937393,18.1035703 11.4100716,18.4644864 11.3292693,18.8258242 C11.3077794,18.9222371 11.2610745,18.9462701 11.1647994,18.944443 C10.8497564,18.9381186 10.5345702,18.945989 10.2195272,18.9396645 C10.1259742,18.9376969 10.0881519,18.9712869 10.0695272,19.0550509 C9.85534384,20.0134182 9.57554441,20.9570283 9.39388252,21.9227039 C9.32095989,22.3103233 9.52038682,22.537723 9.92325215,22.5467178 C10.172106,22.5523395 10.4120774,22.5076466 10.6818481,22.4328774" id="Fill-17" fill="#016E52"></path>
            <path d="M48.0770487,18.604229 C47.8824928,18.597764 47.6887966,18.6059155 47.4946705,18.6255916 C46.0069914,18.776395 44.8671633,20.0436772 44.8999713,21.5154505 C44.9140115,22.1436807 45.240659,22.6672058 45.7759026,22.8419016 C46.4322063,23.0559496 47.0246132,22.883362 47.5655874,22.487591 C47.6635817,22.4159138 47.7188825,22.3301821 47.7446705,22.2147958 C47.8175931,21.8862047 47.8962464,21.5587379 47.9738968,21.2311307 C48.1695989,20.4067015 48.3641547,19.5819913 48.5635817,18.7582648 C48.5920917,18.6402082 48.5687393,18.5925639 48.4376504,18.6024019 C48.3181662,18.6112562 48.1973926,18.604229 48.0770487,18.604229 M47.5082808,23.3224204 C47.1687393,23.5439172 46.8141547,23.7233915 46.407851,23.8089826 C44.7546991,24.1565471 43.3618625,22.8877189 43.6154441,21.2470121 C43.7568481,20.3323539 44.1079943,19.5077842 44.7813467,18.8403423 C45.4067049,18.2204042 46.1876504,17.9114892 47.0534097,17.7904811 C47.9882235,17.6599161 48.9291977,17.7448045 49.8673066,17.7254094 C50.0110029,17.7223175 49.9565616,17.8091735 49.942808,17.8684829 C49.7508309,18.6940364 49.5558453,19.5190277 49.3615759,20.344019 C49.1001146,21.4534707 48.8366476,22.5622197 48.5800573,23.6725147 C48.5545559,23.7831226 48.5118625,23.8191017 48.3985387,23.816853 C48.073467,23.8102475 47.7479656,23.8146043 47.4226074,23.8146043 C47.425616,23.6442654 47.5254728,23.491635 47.5059885,23.319469 C47.5117192,23.3165176 47.5174499,23.3135662 47.5233238,23.3106147 C47.5203152,23.3107553 47.5163037,23.3096309 47.5150143,23.3110364 C47.5120057,23.3141283 47.5104298,23.3184852 47.5082808,23.3224204" id="Fill-19" fill="#7BC143"></path>
            <path d="M29.7512607,18.603203 C29.5624355,18.5994083 29.3741834,18.603203 29.1855014,18.6228791 C27.6283381,18.7847854 26.5065616,20.0545975 26.5681662,21.5907397 C26.5956734,22.2723765 27.066447,22.8328647 27.6942407,22.9118502 C28.287937,22.9864789 28.8141547,22.8219023 29.2743266,22.4473534 C29.3387966,22.3947901 29.3746132,22.3360428 29.3940974,22.2529815 C29.6518338,21.1542111 29.9145845,20.0567056 30.1754728,18.9587785 C30.2569914,18.6157114 30.2562751,18.6154303 29.8886533,18.6033436 C29.8429513,18.6019381 29.7969628,18.603203 29.7512607,18.603203 M29.1855014,23.3367137 C28.7620057,23.6228606 28.3118625,23.7777397 27.8203152,23.8467467 C26.5059885,24.0308589 25.3170201,23.0729132 25.2591404,21.7714789 C25.173467,19.8478577 26.5764756,18.1499497 28.5084241,17.820937 C29.3284814,17.6812366 30.1526934,17.734081 30.9760458,17.7246645 C31.1478223,17.7226969 31.3200287,17.7328161 31.4913754,17.7246645 C31.6184527,17.7187617 31.6300573,17.7607843 31.603553,17.8719543 C31.3598567,18.893004 31.1218911,19.9151781 30.8822063,20.9369306 C30.6706017,21.8386588 30.4558453,22.7398248 30.2502579,23.6428178 C30.2197421,23.7773181 30.1693123,23.8242597 30.0251862,23.8182163 C29.7624355,23.8069728 29.4978223,23.8095026 29.2353582,23.8265084 C29.0781948,23.8366275 29.0657307,23.7870156 29.1084241,23.6608074 C29.1438109,23.5559618 29.1604298,23.4449323 29.1855014,23.3367137" id="Fill-21" fill="#7AC143"></path>
            <path d="M34.1655158,18.2667977 C34.5933095,17.9807913 35.0360029,17.7778463 35.5233954,17.6758116 C35.9594986,17.5845987 36.3964613,17.5594414 36.8314183,17.6783414 C37.4296991,17.8417936 37.7799857,18.275933 37.8486103,18.8962928 C37.9173782,19.5187607 37.767235,20.1118549 37.6281232,20.7080412 C37.4011891,21.6811655 37.1731089,22.6541493 36.9503295,23.6281169 C36.9202436,23.7603685 36.8756877,23.8264241 36.7176648,23.8186942 C36.4090688,23.803656 36.0990401,23.8105426 35.7898711,23.8161644 C35.6696705,23.8184131 35.6304155,23.7977532 35.6619341,23.6649394 C35.9295559,22.5455091 36.1901576,21.4246733 36.4503295,20.3035565 C36.5281232,19.9685004 36.5834241,19.6309145 36.5132235,19.2863014 C36.4314183,18.8854709 36.1825645,18.6472494 35.7732521,18.6033998 C35.1189542,18.533409 34.5630802,18.774863 34.0510458,19.1461794 C33.991447,19.1891858 33.9901576,19.252571 33.9768338,19.3101939 C33.6496132,20.7038249 33.3236819,22.097737 32.9996132,23.4922112 C32.9249713,23.8136346 32.9288395,23.8144778 32.5907307,23.8143373 C32.332851,23.8143373 32.0749713,23.8104021 31.817235,23.8163049 C31.7037679,23.8188347 31.6864327,23.7877746 31.7119341,23.6796965 C32.1589255,21.7778596 32.6029083,19.8754605 33.0410172,17.971656 C33.0696705,17.8479776 33.130702,17.8091875 33.2431662,17.7956953 C33.5496132,17.7587323 33.8567765,17.7241586 34.1612178,17.6744061 C34.2888682,17.6534651 34.2821347,17.7065906 34.26351,17.7904952 C34.2296991,17.9410175 34.1743983,18.0876045 34.1655158,18.2667977" id="Fill-23" fill="#7AC143"></path>
            <path d="M47.5173961,23.3677644 C47.5275313,23.3497396 47.534288,23.328377 47.5491529,23.3136902 C47.555234,23.3070144 47.5741529,23.312355 47.5876664,23.3116874 C47.5599637,23.3263743 47.5329367,23.3397259 47.5059096,23.3537451 C47.505234,23.3537451 47.5173961,23.3677644 47.5173961,23.3677644" id="Fill-25" fill="#FEFEFE"></path>
        </g>
    </g>
</svg>