<svg width="56" height="36" viewBox="0 0 56 36" xmlns="http://www.w3.org/2000/svg"><g fill="none" fill-rule="evenodd"><path d="M0 3.75A3.749 3.749 0 013.75 0h48.5A3.756 3.756 0 0156 3.75v28.5A3.749 3.749 0 0152.25 36H3.75A3.756 3.756 0 010 32.25V3.75z" fill="#000" fill-rule="nonzero"/><path d="M1.25 3.75v28.5c0 1.375 1.123 2.5 2.5 2.5h48.5c1.382 0 2.5-1.118 2.5-2.5V3.75c0-1.375-1.123-2.5-2.5-2.5H3.75a2.499 2.499 0 00-2.5 2.5z" fill="#FFF"/><path fill="#1B4F72" d="M28.187 22.438h.488V12.022h-.488zM36.652 16.958c-.293.312-.41.362-.583.383-.312.038-1.257 0-1.257 0l.544-1.79s.805-.042 1.07 0a.628.628 0 01.508.412c.093.282.044.648-.282.995zm2.532-1.764c-.018-.432-.394-.901-.863-1.126-.47-.225-.732-.225-.732-.225h-3.922l-1.933 6.887h2.177l.525-1.914c.507.15 1.933.019 2.515-.17.582-.187 1.089-.356 1.69-1.36.6-1.004.562-1.66.543-2.092zM45.509 13.898l1.388 4.447-.694 2.365h2.27l.639-2.365 3.847-4.447h-2.496l-1.839 2.346-.732-2.346H45.51"/><path d="M32.015 23.15c0 .059.016.105.049.138.032.033.07.05.114.05a.188.188 0 00.11-.038.268.268 0 00.087-.123.43.43 0 00.034-.16c0-.057-.015-.101-.045-.132a.157.157 0 00-.116-.046.19.19 0 00-.12.043.268.268 0 00-.083.124.431.431 0 00-.03.143zm-.138-.44h.217l-.018.078a.527.527 0 01.13-.074.375.375 0 01.13-.023c.09 0 .161.028.215.083.054.056.081.138.081.248a.481.481 0 01-.14.35.385.385 0 01-.283.122.291.291 0 01-.255-.123l-.092.397h-.23l.245-1.059zM33.374 23.088a.201.201 0 00-.054-.147.186.186 0 00-.139-.055.234.234 0 00-.15.051.332.332 0 00-.1.15.527.527 0 00-.037.182c0 .068.019.122.056.162.038.04.085.06.142.06.07 0 .13-.03.179-.09a.483.483 0 00.103-.313zm-.741.184c0-.176.05-.318.15-.423a.524.524 0 01.397-.158c.142 0 .253.04.333.117.08.077.12.182.12.313 0 .155-.05.289-.15.401a.508.508 0 01-.4.17.52.52 0 01-.242-.055.353.353 0 01-.157-.152.452.452 0 01-.051-.213z" fill="#2A4F74"/><path fill="#2A4F74" d="M34.307 23.476h-.195l-.038-.488-.234.488h-.192l-.096-.767h.184l.054.514.239-.514h.188l.026.514.238-.514h.207l-.381.767M35.424 23.114a.47.47 0 00.001-.026c0-.07-.017-.124-.052-.16a.187.187 0 00-.14-.052c-.058 0-.11.02-.156.06a.312.312 0 00-.094.178h.441zm.238.157h-.708v.024c0 .063.02.115.059.154.04.039.088.058.145.058.094 0 .167-.044.219-.133l.253.039a.503.503 0 01-.197.209.553.553 0 01-.277.07.484.484 0 01-.342-.122.418.418 0 01-.132-.323c0-.13.04-.247.119-.349a.554.554 0 01.463-.207c.128 0 .23.037.305.109a.4.4 0 01.113.303.659.659 0 01-.02.168z"/><path d="M35.626 22.71h.193l-.03.148c.072-.111.15-.167.234-.167.03 0 .062.008.096.023l-.08.17a.177.177 0 00-.06-.01.184.184 0 00-.108.04.271.271 0 00-.086.108c-.021.045-.041.116-.062.214l-.05.24h-.207l.16-.767M36.822 23.114a.47.47 0 000-.026c0-.07-.017-.124-.052-.16a.187.187 0 00-.14-.052c-.058 0-.11.02-.156.06a.312.312 0 00-.094.178h.442zm.237.157h-.707l-.001.024c0 .063.02.115.06.154.039.039.087.058.144.058.094 0 .167-.044.22-.133l.252.039a.502.502 0 01-.197.209.552.552 0 01-.277.07.484.484 0 01-.342-.122.418.418 0 01-.132-.323.554.554 0 01.582-.556c.128 0 .23.037.305.109a.4.4 0 01.113.303.659.659 0 01-.02.168z" fill="#2A4F74"/><path d="M37.126 23.164c0 .055.016.098.046.129.031.03.069.046.114.046.041 0 .08-.013.116-.039a.262.262 0 00.087-.118.403.403 0 00.032-.152c0-.055-.016-.1-.05-.134a.155.155 0 00-.114-.052c-.067 0-.122.034-.166.101a.397.397 0 00-.065.22zm.532.312h-.218l.019-.083a.425.425 0 01-.123.078.375.375 0 01-.137.023.292.292 0 01-.214-.081c-.055-.054-.082-.134-.082-.24a.53.53 0 01.115-.333.368.368 0 01.305-.149c.115 0 .2.041.258.123l.092-.396h.23l-.245 1.058zM38.517 23.164c0 .05.017.093.052.125a.175.175 0 00.123.048.212.212 0 00.119-.037.277.277 0 00.094-.12.396.396 0 00.037-.166.165.165 0 00-.172-.175.212.212 0 00-.16.073.355.355 0 00-.093.252zm-.334.312l.264-1.058h.248l-.089.354a.432.432 0 01.256-.08c.098 0 .175.026.233.08.058.055.088.134.088.237 0 .07-.014.138-.041.203a.438.438 0 01-.11.16.483.483 0 01-.144.092.426.426 0 01-.159.03c-.131 0-.228-.048-.29-.144l-.031.126h-.225z" fill="#2A4F74"/><path d="M39.155 22.71h.207l.052.381c.013.098.02.167.022.207.026-.079.063-.162.11-.249l.184-.34h.22l-.474.842c-.04.07-.07.119-.092.147a.243.243 0 01-.081.065.25.25 0 01-.114.024.554.554 0 01-.148-.023l.018-.155c.025.008.05.011.073.011.064 0 .116-.048.157-.144l-.134-.767M41.555 23.115l.151.038a.51.51 0 01-.171.285.472.472 0 01-.302.098.543.543 0 01-.301-.076.47.47 0 01-.177-.218.778.778 0 01.008-.618.467.467 0 01.194-.202.568.568 0 01.278-.07c.114 0 .21.03.289.088.078.058.132.14.163.246l-.15.035a.354.354 0 00-.115-.182.308.308 0 00-.19-.057.37.37 0 00-.22.063.334.334 0 00-.125.17.685.685 0 00-.036.22c0 .097.014.182.043.254a.317.317 0 00.132.163.37.37 0 00.194.054.325.325 0 00.215-.073.375.375 0 00.12-.218M42.003 22.961c0 .138.037.247.111.326.074.08.167.119.279.119.114 0 .208-.04.281-.12a.486.486 0 00.11-.341.586.586 0 00-.047-.244.364.364 0 00-.342-.219c-.107 0-.2.037-.276.11-.078.074-.116.197-.116.37zm-.156-.002c0-.19.05-.339.153-.446a.52.52 0 01.395-.161c.105 0 .2.025.285.075.085.05.15.121.194.211.045.09.067.193.067.308 0 .116-.024.22-.07.31a.48.48 0 01-.2.209.568.568 0 01-.277.07.541.541 0 01-.289-.078.502.502 0 01-.193-.213.645.645 0 01-.065-.285zM43.134 23.516v-1.144h.156l.6.898v-.898h.146v1.144h-.156l-.6-.899v.899h-.146M44.293 23.516v-1.144h.827v.135h-.676v.35h.633v.135h-.633v.389h.703v.135h-.854M45.35 23.516v-1.144h.151v.567l.568-.567h.205l-.48.464.501.68h-.2l-.407-.579-.187.183v.396h-.151M46.713 23.516v-1.009h-.377v-.135h.907v.135h-.379v1.009h-.151M47.484 23.046h.388l-.12-.317a3.12 3.12 0 01-.08-.237 1.465 1.465 0 01-.062.219l-.126.335zm-.33.47l.44-1.144h.162l.468 1.144h-.172l-.133-.346h-.479l-.125.346h-.161z" fill="#2A4F74"/><path d="M41.099 18.29l1.2-1.844.263 1.844H41.1zm3.058-4.447h-2.233l-4.729 6.812h2.327l.657-.976h2.515l.094 1.05h2.308l-.939-6.886z" fill="#1B4F72"/><path fill="#249096" d="M48.985 22.066l.683.885-.683.846h.591l.62-.846-.704-.885h-.507"/><path fill="#DD5B44" d="M49.236 22.39l-.485.561.493.525.22-.288-.225-.237.222-.268-.225-.293"/><path d="M3 12.726c0-.387.317-.704.704-.704h21.19c.388 0 .704.317.704.704v9.008a.706.706 0 01-.703.704H3.704A.706.706 0 013 21.734v-9.008" fill="#E39E39"/><path fill="#FFFFFE" d="M3 21.415h22.598v-8.37H3z"/><path d="M22.151 15.219a1.88 1.88 0 00-1.876 1.877 1.88 1.88 0 001.876 1.876 1.88 1.88 0 001.877-1.876 1.88 1.88 0 00-1.877-1.877M6.683 15.219a1.88 1.88 0 00-1.877 1.877 1.88 1.88 0 001.877 1.876 1.88 1.88 0 001.876-1.876 1.88 1.88 0 00-1.876-1.877" fill="#D8232A"/><path d="M22.151 20.06a2.97 2.97 0 01-2.965-2.964 2.97 2.97 0 012.965-2.966 2.97 2.97 0 012.965 2.966 2.97 2.97 0 01-2.965 2.965zM9.647 17.097a2.97 2.97 0 01-2.964 2.965 2.97 2.97 0 01-2.966-2.965 2.97 2.97 0 012.966-2.966 2.97 2.97 0 012.964 2.966zm12.357-3.529c-1.737-.04-2.554 1.074-3.74 2.448l-1.118 1.296 1.771 2.12c.422.651-.383 1.298-.883.702l-1.637-1.953-1.595 1.85c-.508.588-1.304-.07-.873-.715l1.731-2.014-1.134-1.353.73-.904 1.154 1.386.994-1.157c.488-.568.986-1.32 1.631-1.706H3v7.326h3.75c1.737 0 2.525-1.039 3.679-2.44l1.088-1.322-1.82-2.078c-.436-.641.354-1.306.867-.722l1.682 1.915 1.552-1.886c.495-.6 1.305.04.89.694l-1.685 2.054 1.165 1.327-.734.87-1.16-1.309-.968 1.18c-.475.578-.956 1.316-1.592 1.717h15.884v-7.326h-3.594z" fill="#D8232A"/></g></svg>