<?xml version="1.0" encoding="UTF-8"?><svg width="56" height="36" viewBox="0 0 56 36" xmlns="http://www.w3.org/2000/svg"><g fill="none" fill-rule="evenodd"><path d="M0 3.75A3.749 3.749 0 013.75 0h48.5A3.756 3.756 0 0156 3.75v28.5A3.749 3.749 0 0152.25 36H3.75A3.756 3.756 0 010 32.25V3.75z" fill="#000" fill-rule="nonzero"/><path d="M1.25 3.75v28.5c0 1.375 1.123 2.5 2.5 2.5h48.5c1.382 0 2.5-1.118 2.5-2.5V3.75c0-1.375-1.123-2.5-2.5-2.5H3.75a2.499 2.499 0 00-2.5 2.5z" fill="#FFF"/><g fill-rule="nonzero"><path fill="#FFF" d="M6 9.525V27.38h44.989V9.524z"/><path d="M43.834 11.12c-3.459-.08-5.085 2.162-7.445 4.925l-2.226 2.607 3.525 4.264c.84 1.31-.763 2.61-1.758 1.411L32.671 20.4l-3.176 3.72c-1.011 1.184-2.596-.138-1.738-1.436l3.448-4.051-2.259-2.722L30.4 14.09l2.298 2.788 1.98-2.327c.971-1.141 1.962-2.653 3.247-3.43H6v14.735h7.464c3.459 0 5.03-2.09 7.325-4.908l2.167-2.658-3.623-4.18c-.869-1.29.704-2.628 1.726-1.453l3.348 3.852 3.091-3.793c.984-1.208 2.598.078 1.77 1.396l-3.355 4.13 2.32 2.67-1.462 1.749-2.31-2.632-1.926 2.372c-.945 1.163-1.902 2.647-3.169 3.455H50.99V11.12h-7.155zm-24.6 7.098c0 3.285-2.651 5.964-5.903 5.964s-5.903-2.679-5.903-5.964c0-3.285 2.651-5.964 5.903-5.964s5.903 2.679 5.903 5.964zm24.893 5.964c-3.251 0-5.903-2.679-5.903-5.964 0-3.285 2.651-5.964 5.903-5.964s5.903 2.679 5.903 5.964c0 3.285-2.651 5.964-5.903 5.964z" fill="#E21C2A"/><path d="M6 26.892h44.989V10.057H6v-.642C6 8.637 6.63 8 7.401 8h42.187c.77 0 1.401.637 1.401 1.415v18.12c0 .778-.63 1.415-1.4 1.415H7.4c-.77 0-1.401-.637-1.401-1.416v-.642z" fill="#F0A929"/><path d="M44.116 14.466c-2.059 0-3.737 1.695-3.737 3.775 0 2.079 1.678 3.775 3.737 3.775 2.058 0 3.736-1.696 3.736-3.775 0-2.08-1.678-3.775-3.736-3.775zm-30.796 0c-2.058 0-3.736 1.695-3.736 3.775 0 2.079 1.678 3.775 3.736 3.775 2.058 0 3.736-1.696 3.736-3.775 0-2.08-1.678-3.775-3.736-3.775z" fill="#E21C2A"/></g></g></svg>