<?xml version="1.0" encoding="UTF-8"?><svg width="56" height="36" viewBox="0 0 56 36" xmlns="http://www.w3.org/2000/svg"><g fill="none" fill-rule="evenodd"><path d="M0 3.75A3.749 3.749 0 013.75 0h48.5A3.756 3.756 0 0156 3.75v28.5A3.749 3.749 0 0152.25 36H3.75A3.756 3.756 0 010 32.25V3.75z" fill="#000" fill-rule="nonzero"/><path d="M1.25 3.75v28.5c0 1.375 1.123 2.5 2.5 2.5h48.5c1.382 0 2.5-1.118 2.5-2.5V3.75c0-1.375-1.123-2.5-2.5-2.5H3.75a2.499 2.499 0 00-2.5 2.5z" fill="#FFF"/><g fill-rule="nonzero" fill="#E8593C"><path d="M23.724 15.407h1.003c.045 0 .113.068.157.113.044.068.089.157.112.222.445-.133.847-.267 1.291-.356.29-.067.625-.067.913-.089a.895.895 0 01.846.445c.445-.133.847-.29 1.27-.379.335-.068.69-.089 1.025-.089.4 0 .713.222.846.602.09.267.178.58.178.869.024 1.227 0 2.43.024 3.658 0 .178-.068.201-.223.201h-1.113c-.178 0-.222-.044-.222-.222v-3.167c0-.4-.178-.557-.58-.445-.267.068-.512.178-.78.267-.156.045-.2.157-.2.312v3.033c0 .178-.045.246-.222.246a8.497 8.497 0 00-1.093 0c-.177 0-.222-.068-.222-.246v-3.145c0-.424-.178-.558-.58-.469-.267.068-.536.178-.802.267-.157.045-.178.134-.178.29v3.033c0 .202-.044.246-.246.246-.355-.023-.734 0-1.113 0-.112 0-.201-.023-.201-.157v-4.972c.087-.002.087-.023.11-.068zm22.36-2.386v7.337c0 .202-.045.29-.267.267-.355-.023-.734 0-1.113 0-.133 0-.178-.044-.178-.178v-7.114c0-.024 0-.045.024-.09.51-.067.998-.156 1.534-.222zm-3.808 2.386h1.359c.044 0 .089.068.112.113.024.044 0 .089 0 .157v4.684c0 .29 0 .29-.29.29H42.41c-.112 0-.177-.023-.177-.178v-4.927c.02-.05.044-.094.044-.139zm-.023-2.341h1.38c.044 0 .112.089.112.133v1.337c0 .045-.089.134-.157.157-.4.024-.802.024-1.18 0-.045 0-.158-.089-.158-.133.003-.492.003-.982.003-1.494zm-23.965.199v-.246c-.535.068-1.024.133-1.536.222v2.185c-.113-.023-.201-.023-.267-.044-.444-.024-.912-.09-1.359-.068-.734.023-1.27.424-1.38 1.16a9.342 9.342 0 000 3.144c.112.626.536 1.005 1.181 1.115.468.089.891 0 1.315-.157.222-.089.444-.201.69-.311.023.068.068.112.068.157.044.201.156.245.334.222.222-.023.468-.023.69 0 .222.023.267-.068.267-.267-.003-2.384-.003-4.747-.003-7.112zm-1.513 5.576c0 .068-.023.178-.068.201a1.6 1.6 0 01-.935.38c-.356 0-.557-.202-.557-.537v-1.74c0-.311.157-.513.468-.536.334 0 .669.044 1.003.112.045 0 .09.113.09.178v1.942zm-8.13-1.806a2.784 2.784 0 00-.222-.937c-.311-.735-1.025-.913-1.848-.758-.4.089-.802.267-1.225.423-.024-.067-.068-.156-.113-.245-.023-.045-.089-.113-.156-.113H4.01v7.583a37.512 37.512 0 001.516-.222v-2.164c.09 0 .134 0 .201.023.445.045.892.113 1.336.113.758 0 1.27-.38 1.469-1.07.068-.223.112-.446.112-.67 0-.647.021-1.317 0-1.963zM7.108 18.91c0 .29-.2.513-.488.513-.312 0-.646-.045-.957-.113-.044 0-.133-.133-.133-.201-.024-.335 0-.647 0-.982v-.957c0-.09.067-.202.133-.267.29-.223.624-.356 1.003-.312.267.045.424.202.445.469a28.66 28.66 0 01-.003 1.85zm34.567-2.387a1.243 1.243 0 00-1.092-1.182c-.335-.045-.69-.024-1.025 0-.31.044-.6.133-.912.201v-2.52c-.468.068-.891.134-1.314.178-.134.023-.201.068-.201.223v6.957c0 .178.088.223.222.246l.645.068c.758.045 1.516.134 2.25-.023.714-.157 1.247-.513 1.425-1.272a1.87 1.87 0 00.068-.49c-.022-.803-.022-1.606-.066-2.386zm-1.492 2.342c-.024.335-.311.536-.735.558-.2.023-.423 0-.624 0-.133 0-.201-.068-.201-.202v-2.143c0-.068.044-.178.089-.222.334-.178.69-.312 1.069-.246.245.044.4.157.4.424.023.625.023 1.227.002 1.831zm-3.61-.848v-.803c-.022-.937-.556-1.606-1.447-1.829a3.521 3.521 0 00-1.871.023c-.779.202-1.291.78-1.336 1.584-.044.69-.044 1.381 0 2.075.068.758.468 1.271 1.203 1.517a3.412 3.412 0 002.16.024c.69-.202 1.138-.691 1.27-1.406.022-.384.022-.784.022-1.185zm-2.54 1.45c-.444-.044-.668-.311-.668-.78V17.35c0-.513.311-.78.847-.78.535 0 .823.267.823.78v1.25c.047.734-.466.933-1.001.867zm16.483-.133c-.58.112-1.137.222-1.738.156-.467-.067-.6-.2-.645-.67-.024-.2.044-.266.245-.266h2.34c.088 0 .177 0 .29-.024-.024-.602 0-1.182-.09-1.74-.112-.803-.6-1.316-1.424-1.426-.356-.044-.713-.044-1.069-.044-1.048.044-1.759.758-1.782 1.829a23.845 23.845 0 000 1.829c.023.803.512 1.426 1.27 1.65.98.291 1.936.134 2.895-.156.045-.024.113-.113.113-.178-.045-.335-.113-.647-.178-.982a.566.566 0 00-.227.022zm-2.072-2.766c.245-.134.69-.134.89.044.247.202.223.49.202.804h-1.27c-.044 0-.112-.068-.112-.134a.669.669 0 01.29-.714zm-27.906 1.962h2.405c.133 0 .222-.023.2-.201-.022-.469 0-.913-.022-1.382-.045-.869-.557-1.47-1.404-1.606a5.07 5.07 0 00-1.181-.045c-1.003.068-1.67.714-1.714 1.696-.045.67-.024 1.337 0 2.007.044.803.512 1.381 1.29 1.606.957.267 1.916.113 2.852-.157.044-.023.112-.133.089-.178-.045-.267-.113-.536-.157-.803-.023-.133-.068-.157-.222-.133-.58.112-1.158.245-1.76.156-.443-.067-.624-.29-.624-.735.047-.18.092-.225.248-.225zm-.2-1.34c.023-.266.067-.512.334-.625a.833.833 0 01.823.024c.201.112.334.557.246.759-.024.044-.113.068-.157.089H20.58c-.175 0-.264-.045-.243-.246zm-7.104 1.874c0-.824 0-1.627-.044-2.452-.045-.67-.4-1.07-1.048-1.204-.735-.177-1.493-.133-2.227-.023-.267.045-.512.112-.779.157.068.356.134.67.178.981.023.157.068.157.222.134.512-.045 1.025-.09 1.56-.113.335 0 .557.134.601.38.045.246 0 .49 0 .758h-1.335c-.69 0-1.158.312-1.27.87-.068.29-.068.601-.045.892.045.803.58 1.271 1.38 1.271.513 0 .98-.201 1.448-.424.178.312.178.312.557.312h.645c.134 0 .178-.045.178-.202-.021-.421-.021-.89-.021-1.337zm-2.007.469c-.133.023-.29.023-.423.023-.222-.023-.335-.157-.335-.424 0-.246.113-.38.335-.38h.891c0 .09 0 .134.023.202 0 .469-.023.49-.49.579zM52.432 13.934a.683.683 0 01.29.202.843.843 0 01.2.29c.045.113.069.246.069.38 0 .133-.024.267-.068.379a.684.684 0 01-.201.29.842.842 0 01-.29.202 1.048 1.048 0 01-.38.068c-.133 0-.266-.024-.378-.068a.683.683 0 01-.29-.202c-.068-.089-.157-.178-.201-.29a1.052 1.052 0 01-.068-.38c0-.133.023-.245.068-.379a.684.684 0 01.2-.29.842.842 0 01.29-.202c.113-.044.246-.067.38-.067.156.002.266.023.379.067zm-.69.134c-.09.044-.178.089-.246.178a.59.59 0 00-.157.246.716.716 0 00-.067.311c0 .11.023.223.067.312a.918.918 0 00.157.246.985.985 0 00.246.178.713.713 0 00.31.068c.11 0 .223-.024.312-.068a.643.643 0 00.245-.178.986.986 0 00.178-.246.716.716 0 00.068-.312.716.716 0 00-.068-.311.643.643 0 00-.178-.246.985.985 0 00-.245-.178.713.713 0 00-.311-.068.818.818 0 00-.311.068zm-.024 1.295v-1.094h.424c.133 0 .222.024.266.068.068.045.09.134.09.223 0 .044 0 .089-.024.133a.292.292 0 01-.068.09c-.023.023-.045.044-.089.067-.023.024-.068.024-.112.024l.334.489h-.156l-.312-.49h-.222v.49h-.13zm.447-.604c.044 0 .068 0 .112-.024.024-.023.045-.023.068-.068.023-.023.023-.067.023-.112 0-.044 0-.068-.023-.089l-.068-.068c-.023-.023-.044-.023-.089-.023h-.334v.38h.178c.042.004.089.004.133.004z"/></g></g></svg>