<?xml version="1.0" encoding="UTF-8"?><svg width="56" height="36" viewBox="0 0 56 36" xmlns="http://www.w3.org/2000/svg"><g fill="none" fill-rule="evenodd"><path d="M0 3.75A3.749 3.749 0 013.75 0h48.5A3.756 3.756 0 0156 3.75v28.5A3.749 3.749 0 0152.25 36H3.75A3.756 3.756 0 010 32.25V3.75z" fill="#000" fill-rule="nonzero"/><path d="M1.25 3.75v28.5c0 1.375 1.123 2.5 2.5 2.5h48.5c1.382 0 2.5-1.118 2.5-2.5V3.75c0-1.375-1.123-2.5-2.5-2.5H3.75a2.499 2.499 0 00-2.5 2.5z" fill="#FFF"/><g><path d="M14.498 12.138h15.115c.977 0 .787.122.787-.932 0-.32.024-.442.238-.614.167-.122.477-.122.74-.122.214.024 7.27 5.47 8.701 6.647.19.147.835.564.882.81.048.294-.167.49-.334.588-.254.164-3.162 2.33-8.725 6.5-.191.123-.263.27-.573.27-1.072 0-.93-.27-.93-1.643 0-.417.096-.442-.285-.442H15.308c-.381 0-1.335.098-1.62-.147-.12-.098-.215-.22-.215-.417l.023-9.787c0-.711.358-.711 1.002-.711zM30.304 6.25v1.472c0 .368.167.27-.882.27-3.075 0-18.628.049-18.787 0-.158-.05-.62-.025-.62.515s.064 17.44.024 18.003c-.039.564.2.81.596.81l18.787-.196c1.05 0 .882-.099.882.27 0 .49-.071 2.207.024 2.575.048.147.048.122.12.245.095.147.214.27.333.368l.143.074c.334.122.882.28 1.097.073 1.12-1.08 13.502-12.24 13.74-12.485.239-.245.196-.535 0-.736-.238-.245-13.589-12.264-13.764-12.386-.175-.123-.918-.051-1.255.122-.477.246-.438.81-.438 1.006z" fill="#AD1F24"/><path d="M22.15 18.54c.168-.123.477-.27.549-.466-.31-.025-.5.024-.787.024-.381 0-.357-.024-.62.172-.19.147-.691.638-.953.711l.095-.883c-1.359 0-1.144-.147-1.144.711 0 1.202.167.883-.644 1.448-.381.27-1.669 1.275-2.003 1.349.143-.197.263-.442.358-.736h-1.073l.334-.54h1.144l.501-.81-1.049-.024.334-.54h1.24l.5-.809h-2.289l-2.312 3.606c1.049.049 1.764.049 2.145 0l.191.024h1.025l1.192-.907c.12-.123.287-.27.453-.295 0 .221-.143.883-.119 1.08.024.171.215.122.5.122.573 0 .43.05.645-.147l.023-1.79 1.765-1.3z" fill="#1D417C"/><path d="M24.51 16.7c-.571.245-1.167-.22-1.143-1.104 0-1.3 1.144-1.447 1.502-.785.39-.245.39-.245.81-.441-.048-.172-.262-.393-.381-.515a1.423 1.423 0 00-.572-.295c-2.337-.564-2.98 2.772-1.407 3.778.334.22.954.319 1.43.147.406-.147.74-.442.93-.785.167-.343.31-1.006.215-1.52h-1.74v.833h.834c-.112.36-.27.589-.477.687zM28.874 15.228c.12.589-.215 1.178-.548 1.325-1.145.49-1.598-1.644-.525-2.11.572-.245.977.344 1.073.785zm.882.638c.071-.589.024-1.055-.286-1.545-.882-1.398-2.837-.957-3.171.834a2.347 2.347 0 00.31 1.57c.882 1.447 2.909.858 3.147-.859z" fill="#AD1F24"/><path d="M25.974 19.717l.659-.81h.238c.533.074.295.81-.42.81h-.477zm-.319.76l-.143 1.227c1.24.073 1.025.122 1.073-1.03v-.172c.024-.294 0-.123.095-.196.024-.074.191-.074.31-.123.62-.22 1.67-1.104 1.383-1.913-.015-.025-.238-.123-.477-.147h-1.62c-.12.049-2.456 3.335-2.456 3.58h.858c.127-.195.453-.604.977-1.226z" fill="#1D417C"/><path d="M20.695 14.595l.335 1.394h-.667l.332-1.394zm-.833 2.939l.214-.736h1.193l.19.736h.859l-1.073-3.925h-1.097l-1.144 3.925h.858z" fill="#AD1F24"/><path d="M23.533 18.908c.515-.115.692-.009.533.318-.238.491-.485.491-1.033.466l.5-.784zm-1.192 1.667c.732.017 1.264-.081 1.598-.294.548-.343 1.12-.932 1.287-1.545.072-.27-.048-.515-.286-.589-.159-.049-.77-.057-1.836-.024l-2.503 3.58h1.073l.667-1.128zM31.091 18.935l.5-.812h-2.097l-2.551 3.605 2.368-.049.54-.834h-1.287l.262-.515 1.24-.024.477-.81h-1.05l.392-.561z" fill="#1D417C"/><path d="M18.265 15.18c-.191.195-.334.195-.668.17v-.833c.572-.05.763.049.668.662zm-.636 2.378l-.016-1.273c.157.024.382.015.675-.027 1.145-.171 1.169-1.986.31-2.477-.262-.147-1.454-.098-1.86-.098l.025 3.875h.866z" fill="#AD1F24"/><path d="M33.714 18.932c.166-.049.762-.564.786-.736-.643-.883-3.17.344-3.099 1.62.286.269.405.269.787.44 0 .369-.262.565-.549.663-.524.172-.548-.196-.739-.417-.397.196-.915.6-.913.73.001.056.04.12.127.202.739.785 2.01.172 2.535-.49.215-.27.794-.835.755-1.276-.04-.442-.525-.27-.763-.442-.024-.22.246-.49.405-.49.453-.123.668.196.668.196zM36.646 18.957c.12-.099.715-.614.74-.687-.096-.172-.12-.172-.31-.245-.382-.148-1.169-.025-1.384.098-.42.122-.659.368-.897.613-.191.196-.533.589-.485 1.03.047.319.524.368.763.54.132.098.12.229-.04.392-.024.025-.914.785-1.153-.22-.166.024-.119.024-.262.147l-.691.515c0 .907 1.868 1.079 3.06-.442.715-.932.135-1.177-.461-1.472 0-.441.5-.564.834-.466.19.05.048.123.286.197z" fill="#1D417C"/></g></g></svg>