<?xml version="1.0" encoding="UTF-8"?><svg width="56" height="36" viewBox="0 0 56 36" xmlns="http://www.w3.org/2000/svg"><g fill="none" fill-rule="evenodd"><path d="M0 3.75A3.749 3.749 0 013.75 0h48.5A3.756 3.756 0 0156 3.75v28.5A3.749 3.749 0 0152.25 36H3.75A3.756 3.756 0 010 32.25V3.75z" fill="#000" fill-rule="nonzero"/><path d="M1.25 3.75v28.5c0 1.375 1.123 2.5 2.5 2.5h48.5c1.382 0 2.5-1.118 2.5-2.5V3.75c0-1.375-1.123-2.5-2.5-2.5H3.75a2.499 2.499 0 00-2.5 2.5z" fill="#FFF"/><g><path d="M6.217 12.13c1.669-.968 10.383 3.73 10.383 5.848 0 2.119-8.807 6.77-10.383 5.895-1.576-.875-1.669-10.776 0-11.743z" fill="#FCCE0D"/><path d="M9.52 15.113c-1.183.074-1.563.152-1.618.327-.042.134-.167.75-.167.825 0 .064.777.064 2.331 0 .071-.415.115-.62.13-.618.012.007.487.61 1.423 1.81L9.62 19.138l.107-.773c0-.003-.811.001-2.434.013l-.361 1.764c-.283 1.377-.348 1.783-.306 1.833.042.05.2.065.69.065.547 0 .645-.01.705-.083.037-.042.12-.318.19-.608.065-.29.176-.76.246-1.046l.12-.515.793.004c.825 0 1.604-.096 2.072-.262.95-.336 1.631-1.437 1.64-2.671.005-.415-.009-.484-.125-.723-.222-.447-.755-.788-1.469-.935-.343-.074-1.432-.12-1.97-.088z" fill="#000" fill-rule="nonzero"/><g fill="#000" fill-rule="nonzero"><path d="M35.99 15.592c-.384.097-.584.346-.704.87l-.074.328h-.292c-.325 0-.367.027-.413.29-.042.235.014.294.325.336.19.023.25.046.25.106-.005.18-.505 2.855-.552 2.947-.046.083-.07.19-.329.19-.119 0-.237-.008-.353-.021l-.087.545.185.042c.264.055.784 0 1.001-.106.195-.102.371-.337.455-.6.023-.087.153-.764.282-1.496.13-.737.246-1.386.255-1.45.024-.111.037-.116.316-.102.366.019.445-.05.463-.41l.01-.248-.311-.014c-.302-.014-.315-.019-.315-.13 0-.059.027-.183.064-.266.06-.148.084-.161.339-.19.148-.013.301-.031.338-.036.088-.014.176-.474.107-.543-.07-.07-.737-.092-.96-.042zM45.32 16.403l.527.015a.138.138 0 00.141-.123l.062-.55a.138.138 0 00-.137-.153h-.506a.138.138 0 00-.137.117l-.083.534a.138.138 0 00.133.16zM19.09 15.73c-.32.046-.407.083-.44.18-.06.193-.75 4.223-.732 4.274.032.083.783.083.834 0 .019-.028.102-.396.177-.815l.139-.76.579-.028c.32-.018.686-.064.82-.106.524-.166.904-.557 1.08-1.119.227-.728.042-1.225-.551-1.506-.297-.133-.33-.143-.978-.152-.371-.004-.788.01-.927.032zm1.484.82c.176.134.209.318.116.636-.144.488-.454.663-1.177.663h-.311l.294-1.358c.533-.046.893-.027 1.078.06zM32.579 15.749c-.427.11-.7.368-.853.801-.097.276-.491 2.52-.491 2.8 0 .346.148.594.463.774.241.133.288.143.816.156.547.019 1.154-.041 1.228-.115.023-.023.06-.152.088-.285.07-.373.07-.373-.815-.373-.747 0-.76 0-.83-.11-.065-.097-.065-.153.005-.6l.083-.488h.844c.616 0 .852-.013.89-.06.064-.078.152-.52.12-.603-.023-.06-.167-.073-.871-.083l-.849-.014.084-.437c.125-.645.125-.645 1.084-.645.608 0 .775-.014.825-.069.084-.083.153-.52.093-.58-.13-.13-1.51-.18-1.914-.07zM43.348 16.27l-.132.497h-.65l-.068.483.583.115c-.237 1.508-.348 2.304-.333 2.39.07.36.348.535.858.535.473 0 .537-.037.598-.332.06-.318.023-.36-.32-.36-.185 0-.274-.018-.274-.059 0-.028.08-.507.172-1.06l.176-1.114.672-.023.065-.575h-.602l.055-.406.025-.2a.046.046 0 00-.054-.052l-.734.128a.046.046 0 00-.037.033zM22.868 16.771c-.408.06-.81.17-.876.244-.041.046-.088.207-.106.373l-.028.29.134-.027c.074-.014.292-.065.482-.102.376-.082.802-.073.895.019.037.037.04.222.01.557-.134.03-.271.046-.413.046-.974 0-1.395.221-1.576.825-.19.64.009 1.054.584 1.225.454.133 1.7.05 1.872-.125.075-.073.436-2.104.436-2.427 0-.405-.167-.658-.514-.806-.181-.073-.668-.124-.9-.092zm.255 2.828c-.144.03-.278.046-.403.046-.213 0-.436-.07-.487-.152-.055-.088-.041-.364.024-.493.088-.17.25-.23.648-.23h.367l-.149.829zM25.96 16.794c-.348.06-.533.148-.77.364-.268.249-.417.557-.533 1.138-.12.589-.125 1.119-.009 1.372.195.428.668.65 1.312.612.399-.023.422-.004.292.245a.441.441 0 01-.19.18c-.176.068-.69.054-1.145-.028-.232-.042-.426-.06-.45-.037-.023.023-.05.138-.07.258-.032.207-.027.22.112.304.26.156.793.253 1.293.23.737-.028 1.08-.249 1.284-.82.042-.115.209-.962.371-1.888.246-1.373.292-1.69.241-1.736-.144-.148-1.288-.272-1.738-.194zm.788.71c.037.015-.062.695-.297 2.04l-.315.032c-.357.037-.621-.028-.695-.161-.07-.134-.056-.456.046-.972.153-.797.306-.963.89-.963.167 0 .338.01.37.023zM29.33 16.79c-.339.06-.621.202-.853.437-.274.267-.408.562-.538 1.17-.195.93-.032 1.464.538 1.768.157.088.26.102.672.102.44 0 .514-.014.75-.13.525-.257.807-.722.97-1.62.115-.645.088-.921-.14-1.28-.231-.36-.825-.553-1.4-.447zm.746 1.23c0 .27-.167 1.012-.264 1.178a.965.965 0 01-.246.249c-.255.175-.677.124-.793-.083-.115-.216 0-1.11.186-1.47a.664.664 0 01.612-.368c.32 0 .505.185.505.493zM37.905 16.79c-.515.092-.913.377-1.127.806-.167.34-.315 1.022-.32 1.455-.004.599.279 1.022.793 1.174.301.092.816.078 1.238-.027.5-.13.56-.175.625-.489.075-.35.042-.373-.357-.267-.208.06-.468.088-.769.088-.445 0-.459-.005-.57-.13-.083-.1-.111-.183-.111-.358v-.226h1.038c.95 0 1.043-.01 1.066-.083.14-.451.125-1.078-.037-1.377a1.281 1.281 0 00-.552-.497c-.213-.088-.635-.12-.917-.07zm.746 1.197v.23h-1.185a.66.66 0 01.072-.327c.13-.248.334-.364.64-.364.287 0 .473.272.473.461zM41.052 16.803c-.524.12-.913.48-1.108 1.023-.153.437-.273 1.252-.222 1.52.06.327.26.617.523.782.195.116.288.143.589.157.362.014.765-.064.936-.189.084-.06.214-.608.158-.663-.014-.018-.162.005-.33.046-.38.092-.764.097-.894.005-.153-.106-.176-.346-.083-.87.185-1.055.38-1.226 1.191-1.06.26.05.426.065.454.037.023-.023.056-.161.074-.309l.033-.262-.25-.11a1.802 1.802 0 00-1.071-.107zM50.398 16.772c-.324.056-.695.249-.89.47-.236.253-.384.594-.49 1.128-.21.995.008 1.58.671 1.833.167.065.301.079.621.06.89-.05 1.368-.506 1.59-1.524.07-.3.093-.548.079-.843-.014-.368-.028-.442-.153-.645-.246-.391-.825-.585-1.428-.479zm.612.825c.144.142.162.386.079.875-.134.746-.366 1.063-.788 1.063-.273 0-.413-.087-.487-.303-.06-.17-.055-.24.037-.714.116-.585.19-.751.422-.903.204-.138.607-.147.737-.018zM45.08 16.89c-.065.107-.589 2.985-.589 3.225v.129h.366c.25 0 .38-.019.417-.065.065-.078.626-3.228.59-3.32-.02-.051-.107-.07-.372-.07-.315 0-.357.01-.412.102zM46.218 16.948c.148 1.932.25 2.95.308 3.056.218.405.987.373 1.326-.05.1-.12.55-1.101 1.35-2.942a.092.092 0 00-.083-.129l-.638-.014c-.036 0-.07.02-.085.053-.166.354-.323.717-.47 1.088-.237.58-.482 1.179-.547 1.322-.067.147-.12.234-.154.257-.029.019-.046-.005-.05-.073 0-.027-.061-.889-.184-2.586a.092.092 0 00-.092-.085l-.59.004a.092.092 0 00-.09.099z"/></g></g></g></svg>