<?xml version="1.0" encoding="UTF-8"?><svg width="56" height="36" viewBox="0 0 56 36" xmlns="http://www.w3.org/2000/svg"><g fill="none" fill-rule="evenodd"><path d="M0 3.75A3.749 3.749 0 013.75 0h48.5A3.756 3.756 0 0156 3.75v28.5A3.749 3.749 0 0152.25 36H3.75A3.756 3.756 0 010 32.25V3.75z" fill="#000" fill-rule="nonzero"/><path d="M1.25 3.75v28.5c0 1.375 1.123 2.5 2.5 2.5h48.5c1.382 0 2.5-1.118 2.5-2.5V3.75c0-1.375-1.123-2.5-2.5-2.5H3.75a2.499 2.499 0 00-2.5 2.5z" fill="#FFF"/><g transform="translate(14 4)"><circle fill="#FEDC01" cx="14" cy="14" r="14"/><path d="M12.516 11.573c.164-.88.616-1.5 1.33-1.93.499-.301 1.058-.444 1.618-.574.963-.223 1.909-.242 2.772.35.128.088.152-.006.193-.085.188-.365.434-.68.777-.909.134-.089.156-.203.12-.341-.199-.771-.4-1.542-.597-2.313-.029-.111-.083-.144-.195-.113-.236.067-.475.128-.714.19-3.585.921-7.17 1.844-10.756 2.763-.123.032-.175.061-.132.212.218.784.423 1.57.628 2.358.03.114.073.177.201.206.296.067.588.158.841.335.101.071.142.044.161-.068.027-.162.07-.322.089-.485.03-.257.174-.384.42-.445.541-.136 1.08-.282 1.616-.437.273-.08.472-.012.654.202.303.355.623.695.974 1.084zm7.074.99c0 .07-.005.11 0 .15.051.427.005.5-.404.608-.325.086-.652.167-.977.252-.098.026-.208.057-.286-.01-.135-.115-.226-.048-.34.033-.798.568-1.683.798-2.657.651-.165-.025-.298-.016-.401.144a.432.432 0 01-.23.177c-.598.147-1.189.324-1.798.42-.212.034-.398-.04-.501-.235-.07-.131-.151-.147-.28-.11-.354.101-.71.198-1.068.292-.097.025-.152.061-.158.177-.016.313-.198.486-.496.561-.334.084-.666.177-.998.27-.072.02-.185.015-.166.137.03.188-.093.209-.229.243-1.28.325-2.56.654-3.84.986-.091.024-.204.02-.284.112.038.02.058.034.08.044 4.07 1.817 8.14 3.632 12.208 5.453.15.067.21.023.295-.09 2.419-3.19 4.842-6.377 7.263-9.566.297-.39.59-.782.892-1.182-.103-.031-.171.002-.242.02-1.358.355-2.717.705-4.073 1.067-.161.043-.23.02-.246-.145-.014-.131-.079-.194-.223-.198-.292-.008-.563-.106-.841-.262zm-5.614 1.104c1.333.503 3.134.162 3.912-.74.044.031.058.08.06.129.011.183.096.203.259.152.274-.086.555-.149.834-.216.136-.032.21-.068.153-.243-.098-.3-.16-.611-.239-.92.107-.017.132.071.18.12.272.281.6.45.985.518.41.073.82.058 1.227-.007.814-.13 1.626-.288 2.328-.744.752-.49 1.06-1.228.955-2.103-.108-.9-.631-1.483-1.521-1.695-1.135-.27-2.201-.02-3.218.49-.86.43-1.285 1.145-1.284 2.105 0 .14-.06.158-.168.182-.696.158-1.39.324-2.086.486-.333.077-.335.076-.25.399.05.19.048.454.172.545.13.095.368-.056.56-.088.077-.013.177-.077.227-.001.045.067-.022.155-.067.225-.206.318-.545.377-.877.432-.7.114-1.186-.238-1.312-.935-.093-.512.103-.971.517-1.209.44-.253 1.003-.211 1.375.119.074.065.123.052.196.032.467-.128.932-.262 1.403-.376.197-.048.165-.125.08-.249a1.636 1.636 0 00-1.132-.72c-1.186-.192-2.285.071-3.303.689a2.022 2.022 0 00-.997 1.509c-.05.347-.03.691.025 1.098-.596-.663-1.153-1.275-1.7-1.897-.107-.122-.203-.158-.358-.115-.419.116-.836.252-1.264.317-.365.056-.507.223-.543.58-.038.377-.14.747-.223 1.16-.285-.546-.563-.766-1.084-.857a3.208 3.208 0 00-.786-.04c-1.206.088-2.336.522-3.506.772-.115.024-.14.082-.11.193.327 1.271.652 2.544.974 3.817.026.105.056.128.166.099a47.55 47.55 0 011.574-.401c.147-.035.164-.095.13-.22-.077-.286-.141-.575-.22-.86-.038-.133-.002-.189.133-.223.438-.109.873-.231 1.309-.347.406-.107.765-.291 1.045-.614.032-.036.041-.11.134-.088l-.34 1.789c.58-.147 1.11-.29 1.645-.412.183-.042.28-.112.257-.307-.019-.173.074-.238.236-.277.415-.099.829-.206 1.235-.335.235-.075.407-.058.539.166.043.073.095.154.215.122.624-.165 1.25-.327 1.899-.496l-.384-.47.033-.04zm10.19-1.84l1.173-.264c.166-.038.357-.128.474.052.118.183-.022.342-.131.486-1.48 1.943-2.962 3.883-4.437 5.829-1.241 1.638-2.474 3.283-3.71 4.925-.372.495-.555.547-1.13.302-3.834-1.639-7.64-3.342-11.446-5.042l-1.103-.491c-.093-.042-.18-.087-.184-.207-.004-.118.069-.185.168-.216.154-.047.14-.135.106-.264-.386-1.486-.763-2.974-1.15-4.46-.037-.143-.034-.213.134-.252 1.16-.266 2.317-.544 3.477-.812.183-.042.373-.071.56-.076.178-.005.198-.063.153-.222-.2-.703-.387-1.408-.58-2.113-.14-.52-.038-.702.49-.838 1.86-.477 3.72-.951 5.581-1.427 1.885-.481 3.77-.961 5.654-1.445.523-.135.77.004.905.534.163.644.33 1.288.476 1.937.052.228.11.288.349.184.75-.332 1.54-.521 2.365-.513.84.009 1.61.248 2.164.898.79.928.753 2.24-.135 3.209-.077.083-.172.15-.258.225l.034.061z" fill="#FCFAFB"/><path d="M16.997 17.679c.047.137.13.245.26.316.195.212.497.206.75-.04.232-.226.444-.475.665-.713a.622.622 0 00.26.258c.174.214.454.194.72-.047.497-.454.838-1.028 1.206-1.58.09-.135.06-.22-.12-.203.015-.056.035-.119-.03-.153-.073-.039-.1.036-.133.074-.28.31-.553.628-.838.934-.16.173-.319.355-.545.452a.411.411 0 01.091-.344c.217-.266.437-.53.65-.798.412-.521.777-1.073 1.044-1.684.063-.146.162-.31-.074-.408-.176-.248-.284-.268-.518-.082a4.988 4.988 0 00-1.695 2.527c-.028.093-.037.192-.109.27-.3.322-.585.66-.923.946a.753.753 0 01.04-.313c.073-.246.2-.466.308-.696.053-.113.103-.228-.1-.23.021-.099.002-.158-.12-.147-.205.019-.353.113-.432.307-.1.243-.226.468-.436.636-.016-.078.016-.146.05-.212.077-.152.052-.268-.113-.34-.098-.237-.28-.221-.47-.146-.548.217-.948.605-1.243 1.105a1.758 1.758 0 01-.42.505c-.02-.207.104-.367.177-.542.051-.121.083-.225-.106-.233.013-.12-.077-.178-.162-.178-.24.001-.483-.057-.703.129a3.633 3.633 0 00-1.18 1.804c-.056.197-.006.354.172.464.196.212.382.209.572-.017.148-.175.287-.357.43-.535.052.093.092.2.22.215.066.206.183.174.312.064.225-.191.376-.448.578-.66l.205.2c.173.197.442.2.746.013.395-.243.69-.596 1.014-.918m-2.461-2.27c.038-.082-.009-.115-.075-.149a1.405 1.405 0 00-.735-.153c-1.127.061-2.062.724-3.124.994-.21.054-.397.227-.578.366-.255.196-.244.296.022.481.09.176.24.184.401.129.394-.136.786-.28 1.18-.42-.322.45-.507 1.02-1.113 1.216-.147.048-.139.184-.026.27.154.118.125.23.053.378-.141.29-.21.6-.22.925-.005.145.043.253.178.316.055.17.22.149.345.19.057.019.093-.024.095-.082.014-.464.26-.857.39-1.287a.59.59 0 01.343-.392l1.57-.707c.216-.097.217-.113.018-.282-.08-.145-.205-.193-.367-.202-.287-.014-.546.103-.819.154.015-.111.1-.185.152-.276.073-.128.212-.255.21-.38-.004-.186.092-.205.213-.256.621-.255 1.27-.429 1.903-.65.05-.016.13-.012.13-.089.001-.095-.09-.073-.146-.094m.692.261c-.164-.234-.349-.286-.403-.111-.111.352-.298.65-.526.934-.08.098-.058.187.095.19.013.115.045.199.187.13.309-.15.588-.335.75-.648.095-.184.097-.364-.103-.495m2.669-.041c.022.207.155.166.26.094a.847.847 0 00.293-.356c.063-.138.037-.22-.116-.25-.052-.134-.122-.248-.285-.144a.662.662 0 00-.31.42c-.028.132 0 .228.158.236m1.693-3.067c.278.156.549.254.84.262.145.004.21.067.224.198.016.166.085.188.246.145 1.356-.362 2.715-.712 4.073-1.067.071-.018.139-.051.242-.02-.301.4-.595.792-.892 1.182-2.421 3.189-4.844 6.376-7.263 9.566-.086.113-.145.157-.295.09-4.068-1.821-8.138-3.636-12.208-5.453-.022-.01-.042-.023-.08-.044.08-.092.193-.088.285-.112a676.03 676.03 0 013.84-.986c.135-.034.257-.055.228-.243-.019-.122.094-.117.166-.137.332-.093.664-.186.998-.27.298-.075.48-.248.496-.561.006-.116.06-.152.158-.177.358-.094.714-.19 1.069-.292.128-.037.21-.021.279.11.103.196.29.269.501.236.609-.097 1.2-.274 1.797-.42.088-.022.18-.1.23-.178.104-.16.237-.169.402-.144.974.147 1.859-.083 2.658-.651.113-.081.204-.148.34-.033.077.067.187.035.285.01.325-.085.652-.166.977-.252.41-.109.455-.18.404-.607-.005-.04 0-.082 0-.152" fill="#EA028B"/><path d="M11.454 13.377l-.938-1.204-.166 1.47 1.104-.266M7.032 13.3c.016-.176-.162-.368-.384-.392a1.469 1.469 0 00-.51.054c-.676.166-.676.166-.469.83.005.015.013.03.016.046.017.088.062.123.155.097.276-.076.556-.139.83-.222a.499.499 0 00.362-.413m13.429-3.282c-.002.729.442 1.232 1.086 1.231.694-.001 1.198-.449 1.2-1.065.002-.693-.457-1.196-1.097-1.2-.698-.007-1.187.42-1.189 1.034m-6.518 3.689l.384.47c-.65.17-1.275.33-1.9.496-.119.032-.17-.049-.214-.122-.132-.224-.304-.241-.539-.166-.406.13-.82.236-1.235.335-.162.039-.255.104-.236.277.022.195-.074.265-.257.307-.535.122-1.066.265-1.644.412l.34-1.79c-.094-.02-.103.053-.135.089-.28.323-.64.507-1.045.614-.436.116-.87.238-1.309.347-.135.034-.171.09-.134.224.08.284.144.573.22.858.035.126.018.186-.13.22-.526.124-1.05.26-1.573.402-.11.029-.14.006-.166-.1a806.129 806.129 0 00-.975-3.816c-.028-.11-.004-.169.11-.193 1.171-.25 2.3-.684 3.507-.771.264-.02.527-.006.786.039.521.091.8.311 1.084.857.082-.413.185-.783.223-1.16.036-.357.178-.524.543-.58.428-.065.845-.2 1.264-.317.155-.043.251-.007.358.115.547.622 1.104 1.234 1.7 1.897-.055-.407-.074-.751-.025-1.098a2.022 2.022 0 01.997-1.509c1.018-.618 2.117-.881 3.303-.69.473.077.859.316 1.132.721.085.124.117.201-.08.25-.47.113-.936.247-1.403.375-.073.02-.122.033-.196-.032-.372-.33-.934-.372-1.375-.119-.414.238-.61.697-.517 1.209.126.697.612 1.05 1.312.935.332-.055.671-.114.877-.432.045-.07.112-.158.067-.225-.05-.076-.15-.012-.227.001-.192.032-.43.183-.56.088-.124-.091-.122-.356-.172-.545-.085-.323-.083-.322.25-.4.696-.161 1.39-.327 2.086-.485.108-.024.168-.042.168-.182-.001-.96.424-1.674 1.284-2.105 1.017-.51 2.083-.76 3.218-.49.89.212 1.413.794 1.52 1.695.105.875-.202 1.613-.954 2.103-.702.456-1.514.614-2.328.744-.408.065-.817.08-1.227.007a1.763 1.763 0 01-.986-.518c-.047-.049-.072-.136-.179-.12.078.309.141.62.239.92.057.175-.017.21-.153.243-.28.067-.56.13-.834.216-.163.05-.248.03-.258-.152-.003-.05-.017-.098-.061-.13-.778.903-2.58 1.244-3.912.741-.037-.02-.074-.033-.11 0l.077.04" fill="#025EA9"/><path d="M12.516 11.573c-.35-.389-.671-.729-.974-1.084-.182-.214-.381-.282-.654-.202-.536.155-1.075.3-1.616.437-.246.061-.39.188-.42.445-.02.163-.062.323-.089.485-.019.112-.06.14-.16.068-.254-.177-.546-.268-.842-.335-.128-.029-.172-.092-.201-.206-.205-.787-.41-1.574-.628-2.358-.043-.15.009-.18.132-.212 3.586-.92 7.171-1.842 10.756-2.764.239-.061.478-.122.714-.189.112-.031.166.002.195.113.197.771.398 1.542.597 2.313.036.138.014.252-.12.341-.343.229-.59.544-.777.909-.04.08-.065.173-.193.085-.863-.592-1.809-.573-2.772-.35-.56.13-1.12.273-1.619.574-.713.43-1.165 1.05-1.329 1.93" fill="#EA028B"/><path d="M14.225 17.318c-.539.317-.845.799-.984 1.397.399-.415.696-.901.984-1.397zm6.146-3.226l.007-.014a.938.938 0 01-.003.018c-.042-.02-.051.009-.06.04-.426.44-.71.97-.933 1.538.401-.451.702-.968.963-1.51l.026-.072zm-5.648 3.78c.175-.138.305-.312.419-.504.295-.5.695-.888 1.242-1.105.191-.075.373-.09.471.146-.047.386-.305.593-.63.743l-.193-.008c.036-.225.324-.31.326-.594-.54.33-.831.792-.943 1.372-.015.08-.06.277.162.17.545-.148.872-.565 1.207-.973h-.005c.033-.005.05-.024.052-.057l-.005.005c.034-.005.046-.029.048-.06l-.005.005c.033-.004.048-.025.05-.057v.006c.209-.168.335-.393.435-.636.08-.194.227-.288.433-.307.121-.011.14.048.118.147-.22.37-.409.752-.45 1.19-.014.134.02.196.153.092l.051-.048-.001.005c.338-.286.623-.624.923-.947.072-.077.08-.176.109-.269a4.989 4.989 0 011.695-2.527c.234-.186.342-.166.518.082-.07.175-.127.355-.21.522-.37.747-.874 1.4-1.424 2.022-.131.148-.263.302-.235.519.01.084-.007.22.159.171.225-.097.383-.279.544-.452.285-.306.558-.623.838-.934.034-.038.06-.113.133-.074.065.034.045.097.03.153-.336.513-.668 1.028-1.082 1.485-.195.214-.418.366-.724.345a.622.622 0 01-.26-.258l-.105-.27c-.209.266-.394.515-.61.74-.195.2-.418.31-.7.283a.547.547 0 01-.26-.316l-.026-.272.019-.028a3.75 3.75 0 00-.027.018c-.095.027-.132.116-.188.181-.23.266-.47.52-.754.73-.232.17-.475.32-.784.276l-.205-.2-.085-.28c-.086.116-.142.203-.21.28-.182.214-.317.477-.594.596-.13-.015-.169-.122-.222-.215-.033-.103-.001-.224-.086-.334-.156.264-.304.51-.505.717-.113.118-.235.206-.41.17-.178-.11-.228-.268-.171-.465a3.633 3.633 0 011.179-1.804c.22-.186.464-.128.703-.129.085 0 .175.058.162.178-.187.382-.39.758-.515 1.237.175-.138.29-.235.369-.372.036-.02.07-.042.074-.09h.002zM10.499 19.762c-.135-.063-.183-.17-.179-.316.01-.324.08-.635.22-.925.073-.148.102-.26-.052-.378-.113-.086-.121-.222.026-.27.606-.196.79-.767 1.112-1.216l.209-.272c-.222.044-.406.131-.597.2-.391.14-.763.348-1.192.363-.266-.185-.277-.285-.022-.481.181-.14.368-.312.578-.366 1.062-.27 1.997-.933 3.124-.994.26-.014.503.034.735.153.066.034.113.067.075.15-.668.188-1.328.401-1.975.652-.136.052-.365.032-.287.306.013.043-.06.11-.094.166l-.481.789.375-.169c.273-.05.532-.168.82-.154.16.009.286.057.366.202-.032.107-.137.107-.215.142-.484.218-.97.431-1.453.65-.135.06-.283.121-.343.263-.18.42-.375.842-.448 1.293-.037.23-.114.265-.302.212" fill="#FCFAFB"/><path d="M10.499 19.762c.188.053.265.018.302-.212.073-.451.268-.873.448-1.293.06-.142.208-.203.343-.264.483-.218.97-.43 1.453-.649.078-.035.183-.035.215-.142.2.169.198.185-.018.282l-1.57.707a.59.59 0 00-.344.392c-.128.43-.375.823-.39 1.287 0 .058-.037.1-.094.082-.126-.041-.29-.02-.345-.19M19.193 16.977c-.166.049-.148-.087-.159-.171-.028-.217.104-.37.235-.519.55-.621 1.054-1.275 1.424-2.022.083-.167.14-.347.21-.522.236.097.137.262.074.408-.267.611-.632 1.163-1.044 1.684-.213.269-.433.532-.65.798a.412.412 0 00-.09.344M12.074 17.154l-.375.169.48-.79c.035-.055.108-.122.095-.165-.078-.274.151-.254.287-.306.647-.25 1.307-.464 1.975-.653.057.02.147-.001.146.094 0 .077-.08.073-.13.09-.633.22-1.282.394-1.903.65-.121.05-.217.07-.214.255.003.125-.136.252-.209.38-.052.091-.137.165-.152.276M18.932 17.5c.306.021.529-.13.724-.345.414-.457.746-.972 1.082-1.485.18-.016.21.068.12.202-.368.553-.709 1.127-1.207 1.581-.265.241-.545.26-.719.047" fill="#A90881"/><path d="M14.394 16.684c-.153-.004-.175-.093-.095-.191.228-.283.415-.582.526-.934.054-.175.24-.123.403.111.038.204-.047.367-.172.516-.182.217-.416.366-.662.498" fill="#FCFAFB"/><path d="M16.972 17.408l.025.27c-.324.323-.62.676-1.014.92-.304.187-.573.183-.746-.014.31.045.552-.105.784-.276.283-.21.524-.464.754-.73.056-.065.093-.154.188-.181l.009.01zM17.257 17.995c.282.027.505-.083.7-.284.216-.224.401-.473.61-.739l.105.27c-.221.238-.433.487-.666.713-.252.246-.554.252-.75.04M10.046 16.948c.43-.015.8-.223 1.192-.363.191-.068.375-.156.597-.2l-.209.272c-.393.14-.785.284-1.179.42-.16.055-.31.047-.401-.129M14.394 16.684c.246-.132.48-.281.662-.498.125-.15.21-.312.172-.516.2.13.198.311.103.495-.162.313-.441.499-.75.648-.142.069-.174-.015-.187-.13M17.608 17.447c-.132.104-.167.042-.154-.092.042-.438.231-.82.451-1.19.204.002.154.117.101.23-.108.23-.235.45-.308.696a.753.753 0 00-.04.313l.001-.005-.051.048M12.92 19.317c.175.037.297-.051.41-.169.2-.208.349-.453.505-.717.085.11.053.231.086.334-.142.178-.281.36-.429.535-.19.226-.376.229-.572.017" fill="#A90881"/><path d="M17.897 15.629c-.158-.008-.186-.104-.157-.236a.662.662 0 01.309-.42c.163-.104.233.01.285.144-.096.213-.21.41-.437.512" fill="#FCFAFB"/><path d="M14.647 17.963c-.078.137-.194.234-.37.372.127-.48.329-.855.516-1.237.189.008.157.112.106.233-.073.175-.197.335-.176.542h-.002c-.086-.02-.067.046-.074.09M14.143 18.98c.277-.12.412-.382.595-.595.067-.078.123-.165.209-.281l.085.28c-.202.212-.353.469-.578.66-.129.11-.246.142-.311-.064M16.224 17.152c.326-.15.584-.357.631-.743.165.072.19.188.113.34-.034.066-.066.134-.05.212l.001-.006c-.016.02-.033.038-.05.057l.005-.005c-.032.007-.049.026-.048.06l.005-.005c-.036.002-.054.02-.052.056l.005.001c-.165-.008-.26.152-.41.17-.092.013-.241.061-.15-.137M17.897 15.629c.227-.102.341-.299.437-.512.153.03.179.112.116.25a.846.846 0 01-.293.356c-.105.072-.238.113-.26-.094" fill="#A90881"/><path d="M20.461 10.018c.002-.615.491-1.04 1.19-1.035.64.005 1.098.508 1.096 1.201-.002.616-.506 1.064-1.2 1.065-.644.001-1.088-.502-1.086-1.231" fill="#FEFEFE"/><path d="M7.032 13.3a.499.499 0 01-.362.414c-.274.082-.554.146-.83.221-.093.026-.138-.009-.155-.097-.003-.016-.011-.03-.016-.046-.207-.664-.207-.664.468-.83a1.47 1.47 0 01.51-.054c.223.024.401.216.385.392M11.454 13.377l-1.104.266.166-1.47.938 1.204M13.954 13.748l-.089-.067c.043-.056.085-.034.127 0l-.038.067" fill="#FCFAFB"/><path d="M16.224 17.152c-.091.198.058.15.15.138.15-.02.245-.18.41-.17-.335.407-.662.824-1.206.972.035-.372.194-.684.454-.948l.192.008" fill="#EA028B"/><path d="M16.032 17.144c-.26.264-.42.576-.454.948-.224.107-.178-.09-.163-.17.112-.58.404-1.042.943-1.372-.002.284-.29.369-.326.594M14.225 17.318c-.288.496-.585.982-.984 1.397.14-.598.445-1.08.984-1.397M20.345 14.164c-.26.542-.561 1.059-.963 1.51.223-.568.507-1.097.934-1.539l.03.03" fill="#A90881"/><path d="M14.647 17.978c.01-.052-.016-.128.101-.104-.005.055-.052.08-.101.104M16.779 17.164c-.003-.066.031-.099.101-.102-.004.06-.037.095-.101.102" fill="#EA028B"/><path d="M16.826 17.108c-.002-.056.032-.09.099-.101-.005.053-.028.093-.099.101" fill="#EA028B"/><path d="M20.38 14.116l.005-.038-.014.03.008.008M16.963 17.416l.056-.037-.038.058-.018-.021" fill="#A90881"/><path d="M16.87 17.057l.1-.102c-.004.058-.034.094-.1.102M17.608 17.497l.101-.098-.101.098" fill="#EA028B"/><path d="M20.316 14.151c.014-.041.03-.08.101-.052l-.006-.006-.045.098a.783.783 0 01-.05-.04" fill="#A90881"/></g></g></svg>