<?xml version="1.0" encoding="UTF-8"?><svg width="56" height="36" viewBox="0 0 56 36" xmlns="http://www.w3.org/2000/svg"><g fill="none" fill-rule="evenodd"><path d="M0 3.75A3.749 3.749 0 013.75 0h48.5A3.756 3.756 0 0156 3.75v28.5A3.749 3.749 0 0152.25 36H3.75A3.756 3.756 0 010 32.25V3.75z" fill="#000" fill-rule="nonzero"/><path d="M1.25 3.75v28.5c0 1.375 1.123 2.5 2.5 2.5h48.5c1.382 0 2.5-1.118 2.5-2.5V3.75c0-1.375-1.123-2.5-2.5-2.5H3.75a2.499 2.499 0 00-2.5 2.5z" fill="#FFF"/><g><path d="M31.505 12.978v5.855l-5.457-5.855h-.178v7.638h.847v-5.783l5.413 5.783h.183v-7.638zM6.98 23.55l-.567-1.216h-.041l-.564 1.216-.542-1.216H5.03l.756 1.675h.042l.565-1.2.565 1.2h.043l.768-1.675h-.237l-.552 1.216zm.889.459h.227v-1.675H7.87v1.675zm.113-2.365a.182.182 0 00-.13.052.169.169 0 00-.056.127c0 .048.018.09.055.124.037.035.08.053.131.053a.184.184 0 00.133-.053.167.167 0 00.055-.124.167.167 0 00-.055-.127.186.186 0 00-.133-.052zm.88.068h-.228v.622h-.31v.186h.31v1.489h.228V22.52h.36v-.186h-.36v-.622zm1.811.674a.655.655 0 00-.352-.095.773.773 0 00-.359.085.956.956 0 00-.304.258v-.947H9.43v2.322h.228v-.614c0-.222.01-.374.032-.456a.6.6 0 01.215-.32.581.581 0 01.37-.13c.12 0 .218.029.292.085.074.056.125.14.154.25.016.064.024.193.024.386v.8h.227v-.863c0-.229-.024-.397-.073-.504a.57.57 0 00-.226-.257zm2.101 1.238l-.608-1.29h-.24l.725 1.548-.34.74h.24l1.055-2.289h-.243l-.589 1.29zm1.83-1.333c-.274 0-.5.093-.679.281a.844.844 0 00-.244.604c0 .234.086.438.258.613a.892.892 0 00.665.263.89.89 0 00.663-.263.848.848 0 00.258-.613.847.847 0 00-.244-.605.9.9 0 00-.677-.28zm.598 1.228a.64.64 0 01-.252.243.718.718 0 01-.347.085.718.718 0 01-.347-.085.644.644 0 01-.252-.243.653.653 0 01-.093-.338c0-.188.068-.348.204-.48a.674.674 0 01.488-.2c.188 0 .35.067.487.2a.644.644 0 01.205.48c0 .12-.031.234-.093.338zm1.896-.403c0 .21-.011.346-.034.411a.448.448 0 01-.183.229.577.577 0 01-.324.087.588.588 0 01-.327-.09.444.444 0 01-.187-.243 1.578 1.578 0 01-.032-.394v-.783h-.228v.807c0 .238.029.417.086.535.057.119.143.211.258.278.115.066.26.099.431.099a.849.849 0 00.43-.1.628.628 0 00.257-.274c.057-.117.085-.291.085-.522v-.822h-.232v.782zm.97-.754a.785.785 0 00-.219.217v-.245h-.232v1.675h.232v-.567c0-.29.015-.483.043-.579a.551.551 0 01.16-.274.337.337 0 01.22-.089c.032 0 .073.01.12.03l.119-.182a.432.432 0 00-.202-.057.447.447 0 00-.24.071zm1.96 1.193l-.594-1.221h-.242l.814 1.675h.042l.81-1.675h-.244l-.587 1.22zm1.121-1.91a.184.184 0 00-.131.051.169.169 0 00-.055.127c0 .048.018.09.055.124.036.035.08.053.131.053a.184.184 0 00.133-.053.167.167 0 00.055-.124.167.167 0 00-.055-.127.186.186 0 00-.133-.052zm-.113 2.364h.228v-1.675h-.228v1.675zm1.023-.953a.91.91 0 01-.273-.177.233.233 0 01-.066-.156.21.21 0 01.08-.161.278.278 0 01.189-.07c.116 0 .235.057.357.169l.146-.143c-.165-.15-.328-.226-.491-.226a.493.493 0 00-.348.126.413.413 0 00-.137.317c0 .097.028.184.086.26.057.076.166.153.325.23.15.072.245.132.287.18a.243.243 0 01.064.164c0 .074-.032.14-.097.195a.345.345 0 01-.233.083c-.13 0-.253-.062-.37-.186l-.142.154c.06.074.137.132.23.174.092.042.19.063.292.063.153 0 .28-.048.382-.143a.46.46 0 00.064-.613c-.06-.077-.175-.157-.345-.24zm2.24-.414a.885.885 0 00-.31-.264.875.875 0 00-.393-.087.898.898 0 00-.645.257.827.827 0 00-.268.619c0 .246.088.455.266.627.177.172.39.258.64.258.142 0 .271-.028.39-.083a.967.967 0 00.32-.248v.288h.225v-1.675H24.3v.308zm-.075.88a.645.645 0 01-.257.242.739.739 0 01-.7 0 .68.68 0 01-.257-.251.653.653 0 01-.001-.677.665.665 0 01.256-.248.717.717 0 01.35-.089c.197 0 .363.066.498.196s.202.292.202.485c0 .127-.031.241-.09.343zm2.365-1.028a.77.77 0 01.637.294l.18-.106a.732.732 0 00-.192-.208.967.967 0 00-.278-.132 1.141 1.141 0 00-.338-.051c-.187 0-.355.039-.506.117a.893.893 0 00-.355.325.842.842 0 00-.13.452.8.8 0 00.277.614.992.992 0 00.696.253c.182 0 .344-.033.487-.1a.841.841 0 00.34-.28l-.18-.113a.793.793 0 01-.637.294.816.816 0 01-.383-.09.676.676 0 01-.368-.594c0-.188.071-.347.213-.478a.762.762 0 01.537-.197zm2.66.148a.885.885 0 00-.31-.264.875.875 0 00-.394-.087.898.898 0 00-.645.257.827.827 0 00-.268.619c0 .246.088.455.265.627.178.172.391.258.641.258.141 0 .27-.028.39-.083a.967.967 0 00.32-.248v.288h.225v-1.675h-.224v.308zm-.076.88a.645.645 0 01-.258.242.74.74 0 01-.353.09.7.7 0 01-.604-.341.653.653 0 010-.677.665.665 0 01.255-.248.717.717 0 01.35-.089c.197 0 .363.066.498.196s.202.292.202.485a.66.66 0 01-.09.343zm1.284-1.231a.449.449 0 00-.24.071.785.785 0 00-.22.217v-.245h-.232v1.675h.232v-.567c0-.29.014-.483.043-.579a.551.551 0 01.16-.274.337.337 0 01.22-.089c.032 0 .072.01.12.03l.119-.182a.432.432 0 00-.202-.057zm1.802-.604v.955a.885.885 0 00-.31-.264.875.875 0 00-.393-.087.898.898 0 00-.645.257.827.827 0 00-.268.619c0 .246.088.455.266.627.177.172.39.258.64.258.141 0 .271-.028.39-.083a.967.967 0 00.32-.248v.288h.225v-2.322h-.225zm-.075 1.836a.645.645 0 01-.257.241.739.739 0 01-.7 0 .68.68 0 01-.257-.251.653.653 0 01-.001-.677.665.665 0 01.256-.248.717.717 0 01.35-.089c.197 0 .363.066.498.196.134.13.201.292.201.485 0 .127-.03.241-.09.343z" fill="#ADBED5"/><path d="M9.782 13.656a2.128 2.128 0 00-1.152-.676c-.328-.077-.962-.116-1.9-.116H5.09v7.799h.822v-3.627H6.5c1.022 0 1.719-.042 2.092-.128.51-.116.91-.343 1.202-.68.29-.338.436-.767.436-1.286 0-.516-.15-.945-.448-1.286zm-.626 2.016c-.149.217-.354.374-.615.47-.26.098-.672.146-1.235.146l-1.392-.016v-2.645h1.453c.556 0 .956.046 1.2.138.244.091.44.246.59.463.149.217.224.456.224.717-.001.267-.076.51-.225.727zm9.69 1.709c-.48-.234-.793-.437-.942-.61a.801.801 0 01-.225-.536c0-.212.091-.398.272-.557a.957.957 0 01.653-.238c.4 0 .81.193 1.228.578l.503-.493c-.567-.52-1.131-.78-1.69-.78-.483 0-.881.145-1.197.435a1.42 1.42 0 00-.473 1.092c0 .336.099.635.297.896.198.262.572.527 1.12.796.512.247.841.452.987.615a.838.838 0 01.218.567c0 .258-.11.483-.33.673-.221.191-.488.287-.802.287-.448 0-.873-.214-1.272-.642l-.492.53c.209.255.473.455.792.6.32.145.654.217 1.005.217.526 0 .965-.164 1.316-.493.351-.329.526-.73.526-1.204 0-.335-.102-.638-.308-.906-.208-.265-.604-.541-1.187-.827zm-3.415-1.427a3.037 3.037 0 00-1.065-.906 3.002 3.002 0 00-1.355-.302 3.09 3.09 0 00-2.22.885c-.615.59-.923 1.3-.923 2.131 0 .849.305 1.569.914 2.16a3.05 3.05 0 002.206.889c.484 0 .93-.096 1.339-.287a3.33 3.33 0 001.104-.853v.991h.772v-5.768h-.772v1.06zm-.259 3.034c-.207.35-.502.627-.885.832-.384.205-.79.307-1.218.307-.425 0-.822-.103-1.193-.31a2.333 2.333 0 01-.885-.866 2.25 2.25 0 01-.33-1.165c0-.41.11-.798.327-1.165.218-.367.511-.652.88-.855a2.46 2.46 0 011.206-.304c.678 0 1.249.224 1.712.672.464.448.696 1.006.696 1.674 0 .437-.104.831-.31 1.18zm9.306-.78c-.21-.266-.605-.541-1.188-.827-.478-.234-.792-.437-.941-.61a.801.801 0 01-.225-.536c0-.212.091-.398.272-.557a.957.957 0 01.653-.238c.4 0 .81.193 1.228.578l.503-.493c-.567-.52-1.131-.78-1.69-.78-.483 0-.881.145-1.197.435a1.42 1.42 0 00-.473 1.092c0 .336.099.635.297.896.198.262.572.527 1.12.796.512.247.841.452.987.615a.838.838 0 01.218.567c0 .258-.11.483-.33.673-.221.191-.488.287-.802.287-.448 0-.873-.214-1.272-.642l-.492.53c.209.255.473.455.792.6.32.145.654.217 1.005.217.526 0 .965-.164 1.316-.493.351-.329.526-.73.526-1.204.001-.335-.101-.638-.307-.906zM50.088 12.432S46.86 12 42.247 12c-4.643 0-7.933.432-7.933.432-.504 0-.912.386-.912.864v10.408c0 .478.408.864.912.864 0 0 3.26.432 7.887.432 4.628 0 7.887-.432 7.887-.432.504 0 .912-.386.912-.864V13.296c0-.478-.408-.864-.912-.864zm-8.376 8.103c-.33.54-.756.952-1.28 1.236-.524.283-1.139.426-1.843.426-.755 0-1.428-.156-2.019-.466a3.508 3.508 0 01-1.403-1.328 3.552 3.552 0 01-.517-1.858c0-.911.318-1.704.954-2.379.754-.802 1.736-1.203 2.945-1.203.632 0 1.224.111 1.774.333.464.187.919.509 1.364.964l-.974.913c-.617-.618-1.336-.927-2.157-.927-.715 0-1.315.225-1.798.675-.483.45-.724.995-.724 1.638 0 .665.25 1.228.752 1.69.501.462 1.12.693 1.855.693.478 0 .88-.095 1.21-.286.327-.19.592-.488.793-.894H38.54v-1.23h3.657l.01.29c0 .602-.165 1.173-.494 1.713zm7.257.618c-.73.696-1.617 1.044-2.658 1.044-1.092 0-1.998-.358-2.72-1.072-.722-.715-1.083-1.564-1.083-2.547 0-.659.168-1.264.504-1.817.337-.552.799-.99 1.388-1.313a3.89 3.89 0 011.901-.485c1.029 0 1.913.353 2.653 1.058.74.706 1.11 1.566 1.11 2.58 0 1.005-.366 1.856-1.095 2.552zm-2.683-4.907c-.673 0-1.24.222-1.697.665-.459.443-.688 1.007-.688 1.69 0 .761.289 1.364.866 1.807.449.346.963.52 1.543.52.656 0 1.216-.225 1.677-.675.462-.45.692-1.003.692-1.661 0-.656-.232-1.21-.697-1.665a2.338 2.338 0 00-1.696-.68z" fill="#5C9AEC" fill-rule="nonzero"/></g></g></svg>