<svg width="56" height="36" viewBox="0 0 56 36" xmlns="http://www.w3.org/2000/svg"><g fill="none" fill-rule="evenodd"><path d="M0 3.75A3.749 3.749 0 013.75 0h48.5A3.756 3.756 0 0156 3.75v28.5A3.749 3.749 0 0152.25 36H3.75A3.756 3.756 0 010 32.25V3.75z" fill="#000" fill-rule="nonzero"/><path d="M1.25 3.75v28.5c0 1.375 1.123 2.5 2.5 2.5h48.5c1.382 0 2.5-1.118 2.5-2.5V3.75c0-1.375-1.123-2.5-2.5-2.5H3.75a2.499 2.499 0 00-2.5 2.5z" fill="#FFF"/><g><path d="M20.95 27.109c.051-.204.056-.416.012-.622l-3.84-17.159c-.147-.698-1.228-1.151-1.883-1.012L4.473 10.722c-.655.139-1.067.96-.92 1.66l3.2 14.728s13.534-.014 14.196-.001z" fill="#FFF"/><path d="M21.742 27.098l-1.978-8.468c.102-.023.084-.099.084-.099l-.816-3.49c-.017-.074-.116-.053-.116-.053l-.082-.351s-.138-.577-.135-.578c.116-.027.081-.098.081-.098l-.34-1.456c-.02-.083-.118-.053-.118-.053l-.59-2.522c-.471-2.02-1.844-2.043-3.129-1.844-1.392.165-4.75.94-4.994.996-.245.057-3.19.74-4.512 1.203-1.242.384-2.463 1.008-1.991 3.028l1.713 7.332.03.126.392 1.678.043.186 1.008 4.313h.002l.035.148h.976L4.079 13.29l12.769-2.953 3.917 16.766.977-.004z" fill="#757575"/><path d="M15.314 9.654a.556.556 0 11-1.11 0 .556.556 0 011.11 0zm-.555-.256a.255.255 0 100 .51.255.255 0 000-.51zM6.854 10.84l5.413-1.245a.318.318 0 01.381.238l.022.094a.318.318 0 01-.24.381l-5.412 1.245a.318.318 0 01-.381-.24l-.022-.092a.318.318 0 01.24-.382zm.12.189l5.26-1.21a.17.17 0 11.076.332l-5.259 1.21a.17.17 0 01-.076-.332z" fill="#FFF"/><g><path d="M13.417 21.851c-.216-1.303-1.295-1.511-2.39-2.465C9.44 21.323 8.6 22.07 8.95 23.817c.328 1.256 1.314 1.755 2.377 1.518 1.45-.324 2.435-1.946 2.09-3.484zM8.38 17.898c.88-.155 1.099.445 2.171 1.103-1.256 1.435-2.038 3.178-3.52 2.656-.627-.28-.792-1.276-.368-2.224.424-.948 1.114-1.354 1.716-1.535z" fill="#EF4136"/><path d="M10.108 19.069l-.282.389s-1.884.585-3.1 1.133c-.036-.984.598-2.055 1.674-2.412.401-.1.708.094 1.089.372.216.16.423.333.619.518z" fill="#F7A09B"/><path d="M15.07 15.646c-2.178.454-3.234 2.816-3.64 3.161 2.11 1.351 2.289 1.866 3.81 1.498 2.112-.557 2.858-2.251 2.619-3.313-.229-1.013-1.39-1.642-2.789-1.346z" fill="#EF4136"/><path d="M11.908 18.713c-.012.038.017.078.017.078s4.005-1.036 5.678-1.294c.016-.812-.478-1.825-2.472-1.578-1.123.209-1.872 1.06-2.415 1.772-.355.466-.666.826-.808 1.022z" fill="#F7A09B"/><path d="M9.263 17.09c.198.834 1.116.901 1.64 1.559 1.468-1.997 2.338-2.293 2.065-3.72-.037-.256-.363-.933-1.438-.707-1.012.212-2.533 1.634-2.267 2.869z" fill="#EF4136"/><path d="M10.856 18.201c.173-.233.585-.689.985-1.17.493-.59 1.052-1.234.83-2.08-.152-.685-1.403-.61-2.248.247-.546.553-1.064 1.167-.823 1.94.027.11.12.266.545.555.466.355.515.366.71.508z" fill="#F7A09B"/></g><path d="M30.882 13.8c.66 0 1.171-.151 1.537-.453.364-.301.547-.706.547-1.212 0-.499-.183-.901-.547-1.207-.365-.305-.878-.458-1.537-.458h-2.364v5.56h.836V13.8h1.528zm-1.528-2.738h1.528c.416 0 .728.103.936.309.208.206.312.462.312.77 0 .307-.103.562-.31.764-.207.202-.52.303-.938.303h-1.528v-2.146zm7.561 4.967a2.005 2.005 0 01-.093-.404 3.478 3.478 0 01-.026-.428v-1.99c0-.447-.158-.79-.475-1.028-.317-.238-.736-.357-1.257-.357-.526 0-.955.125-1.288.374-.332.25-.49.524-.473.825l.009.023h.797c0-.173.085-.322.253-.445.168-.124.387-.185.656-.185.3 0 .532.07.696.212a.718.718 0 01.246.574v.409h-.908c-.609 0-1.09.111-1.446.334-.355.222-.532.531-.532.926 0 .387.125.69.375.91.25.22.615.33 1.093.33.283.002.56-.067.81-.2.25-.134.452-.3.608-.498.003.096.012.193.028.288.015.096.037.206.065.33h.862zm-2.814-.713a.536.536 0 01-.191-.434c0-.206.101-.385.303-.537.203-.152.472-.229.809-.228h.938v.67c-.073.18-.232.34-.475.48-.244.139-.517.209-.82.209-.249 0-.437-.054-.564-.16zm3.63-3.418h-.933l1.706 4.047-.2.432c-.073.17-.169.328-.284.473a.533.533 0 01-.437.214 4.75 4.75 0 01-.223-.011c-.117-.008-.167-.01-.15-.008l-.085.592a2.98 2.98 0 00.5.06c.368 0 .66-.102.877-.308a2.12 2.12 0 00.499-.726l1.931-4.765h-.93l-1.129 3.12h-.025l-.148-.52-.968-2.6zm8.714 2.142c0-.664-.159-1.2-.476-1.607-.316-.408-.758-.611-1.324-.611-.286 0-.535.048-.75.145-.21.094-.394.238-.536.42v-2.314h-.836v5.956h.683l.102-.546c.142.202.333.363.556.468.224.106.487.159.79.159.557 0 .995-.183 1.313-.548.319-.366.478-.846.478-1.442v-.08zm-.836.08c0 .415-.097.749-.289 1-.192.253-.485.379-.879.379-.266 0-.486-.058-.66-.172a1.265 1.265 0 01-.422-.477v-1.791c.1-.186.245-.343.422-.456.177-.114.394-.17.652-.17.396 0 .691.15.885.448.194.3.29.686.29 1.16v.08zm1.593-2.222h-.934l1.707 4.047-.2.432c-.074.17-.17.328-.284.473a.533.533 0 01-.438.214c-.03 0-.105-.004-.222-.011-.118-.008-.168-.01-.151-.008l-.085.592a2.977 2.977 0 00.501.06c.368 0 .66-.102.876-.308.216-.205.385-.452.5-.726l1.93-4.765h-.93l-1.128 3.12h-.026l-.148-.52-.968-2.6z" fill="#333"/><path d="M25.767 19.78v5.558H26.8v-1.893l-.102-2.398.025-.004 1.825 4.295h.692l1.834-4.306.026.003-.103 2.41v1.893h1.032V19.78h-1.337l-1.783 4.277h-.025l-1.779-4.277h-1.337zm11.78 2.279c0-.678-.237-1.24-.712-1.688-.476-.448-1.091-.672-1.847-.672-.738 0-1.34.224-1.802.672-.462.448-.694 1.01-.694 1.688v1c0 .68.232 1.243.694 1.69.463.446 1.065.67 1.806.67.756 0 1.37-.224 1.845-.67.473-.447.71-1.01.71-1.69v-1zm-1.027 1c0 .47-.136.855-.41 1.153-.272.298-.645.447-1.118.447-.455 0-.815-.15-1.078-.449-.263-.3-.395-.683-.395-1.151V22.05c0-.463.132-.844.395-1.142.263-.298.621-.446 1.074-.446.47 0 .843.149 1.118.446.276.298.414.679.414 1.142v1.008zm3.822 2.28c.668 0 1.191-.136 1.57-.407.38-.271.57-.668.57-1.19 0-.323-.1-.607-.298-.851-.198-.244-.48-.403-.849-.477.286-.097.51-.245.67-.443.159-.19.245-.43.243-.676 0-.504-.193-.883-.577-1.136-.385-.253-.92-.38-1.605-.38h-2.054v5.56h2.33zm.115-2.528c.342 0 .594.081.755.244.161.162.242.39.242.685 0 .277-.096.489-.289.635-.192.146-.466.219-.823.219h-1.299V22.81h1.414zm-1.414-2.287h1.023c.377 0 .662.066.858.2.195.134.292.338.292.613 0 .25-.092.442-.278.578-.185.137-.437.205-.757.205h-1.138v-1.596zm4.977-.745h-1.032v5.56h1.032v-5.56zm1.788 0h-1.031v5.56h3.87v-.745h-2.839v-4.815zm6.755 2.314h-2.704v-1.57h3.107v-.744h-4.138v5.56h4.168v-.745h-3.137v-1.757h2.704v-.744z" fill="#EC3A2E"/></g></g></svg>