<svg width="56" height="36" viewBox="0 0 56 36" xmlns="http://www.w3.org/2000/svg" xmlns:xlink="http://www.w3.org/1999/xlink"><defs><path id="a" d="M.01.04h2.3V2.8H.01z"/><path id="c" d="M.06.02h5.06v7.73H.06z"/></defs><g fill="none" fill-rule="evenodd"><path d="M0 3.75A3.75 3.75 0 013.75 0h48.5A3.76 3.76 0 0156 3.75v28.5A3.75 3.75 0 0152.25 36H3.75A3.76 3.76 0 010 32.25V3.75z" fill="#000" fill-rule="nonzero"/><path d="M1.25 3.75v28.5a2.5 2.5 0 002.5 2.5h48.5a2.5 2.5 0 002.5-2.5V3.75a2.5 2.5 0 00-2.5-2.5H3.75a2.5 2.5 0 00-2.5 2.5z" fill="#FFF"/><g><path d="M12.56 25.27h-.26l.16-.8h.25c.25 0 .4.1.4.33 0 .3-.2.47-.55.47m1.22-.57c0-.56-.43-.76-.98-.76h-.91l-.56 2.77h.68l.18-.9h.29c.7 0 1.3-.3 1.3-1.11M15.34 25.57l.14-.33c.12-.26.22-.52.33-.8h.01l.02.8.01.33h-.51zm.18-1.63l-1.46 2.77h.76l.28-.63h.77l.01.63h.72l-.26-2.77h-.82z" fill="#F29001"/><g transform="translate(17.575 23.904)"><mask id="b" fill="#fff"><use xlink:href="#a"/></mask><path d="M1.24.64l-.32.63H.9L.8.65.73.04H0l.44 1.8-.2.97h.69l.2-.97L2.3.04h-.73l-.34.6z" fill="#F29001" mask="url(#b)"/></g><path fill="#F29001" d="M23.55 26.71h.69l.21-1.06h.86l.12-.57h-.87l.11-.57h1.02l.11-.57h-1.69zM27.66 26.14c-.25 0-.4-.22-.4-.6 0-.62.38-1.03.68-1.03.25 0 .4.22.4.6 0 .62-.38 1.03-.68 1.03m.31-2.2c-.7 0-1.38.64-1.38 1.64 0 .72.42 1.13 1.04 1.13.7 0 1.38-.64 1.38-1.63 0-.73-.42-1.14-1.04-1.14M30.9 25.22h-.25l.15-.75h.25c.25 0 .4.1.4.3 0 .27-.18.45-.55.45m1.22-.55c0-.54-.42-.73-.98-.73h-.91l-.56 2.77h.68l.2-.95h.28l.32.95h.72l-.42-1.06a.98.98 0 00.67-.98M35.49 26.71h.68l.22-1.06h.86l.11-.57h-.86l.1-.57h1.02l.12-.57h-1.7zM40.57 23.94l-.31 1.54c-.1.47-.23.65-.47.65-.28 0-.36-.14-.36-.42l.03-.3.3-1.47h-.68l-.27 1.33c-.02.14-.05.34-.05.46 0 .67.33.98 1.01.98.62 0 .97-.4 1.14-1.25l.31-1.52h-.65zM44 23.94l-.18.88c-.07.34-.08.76-.11 1.05h-.02l-.13-.62-.39-1.31h-.66l-.55 2.77h.65l.18-.9c.07-.33.1-.72.12-1.04h.01l.13.63.39 1.31h.65l.56-2.77H44zM8.6 15.85a1.93 1.93 0 01-.96 1.27c-.24.13-.51.2-.8.2-.24 0-.44-.06-.61-.16a.97.97 0 01-.38-.4 1.26 1.26 0 01-.12-.58c0-.12 0-.23.03-.33.05-.25.16-.49.33-.72.17-.23.38-.41.63-.56.24-.14.5-.21.76-.21.38 0 .67.1.87.3.2.2.3.47.3.8 0 .12-.02.25-.05.39m.66-2.77c-.34-.2-.72-.25-1.16-.25-.7 0-1.35.23-1.94.8l.1-.55a.22.22 0 00-.22-.25H4.61c-.1 0-.2.07-.21.18L3 20.9c-.02.13.08.25.22.25h1.43c.1 0 .19-.08.2-.18l.49-2.7c.14.19.4.33.65.45.25.11.52.17.81.17a3.36 3.36 0 002.8-1.44 4.14 4.14 0 00.75-2.3c0-.48-.1-.89-.29-1.25a2.07 2.07 0 00-.8-.83M24.7 12.83h-1.44a.22.22 0 00-.19.1L21 16.56l-.63-3.54a.22.22 0 00-.21-.18h-1.28a.22.22 0 00-.21.25l1 5.67c0 .05 0 .1-.03.15l-1.12 1.94c-.08.14.02.32.19.32h1.43c.08 0 .15-.04.2-.1l4.55-7.9a.22.22 0 00-.19-.33M15.48 15.85a2 2 0 01-.98 1.28c-.25.13-.5.2-.76.2-.23 0-.43-.05-.6-.14a1 1 0 01-.4-.4 1.2 1.2 0 01-.13-.59 1.8 1.8 0 01.4-1.11c.17-.23.38-.4.62-.53.24-.12.49-.19.74-.19.22 0 .42.06.6.16.17.1.3.24.4.41a1.44 1.44 0 01.1.9m2.42-3H16.7a.22.22 0 00-.2.1l-.36.64c-.34-.53-.85-.75-1.54-.75a3.7 3.7 0 00-1.68.34c-.51.26-.94.61-1.28 1.07a3.85 3.85 0 00-.75 2.2c0 .5.1.92.33 1.3.22.37.53.67.91.87.38.21.8.32 1.27.32.3 0 .8-.07 1.07-.18.31-.13.46-.15.74-.39l.23.45c.04.07.11.11.19.11h1.01a.5.5 0 00.5-.4l.95-5.43a.22.22 0 00-.21-.25M46.26 12.83h-1.43c-.1 0-.2.08-.22.18l-.53 3.06c-.13.7-.64 1.12-1.2 1.13-.1 0-.18 0-.27-.02-.45-.06-.75-.42-.67-.86l.55-3.1a.32.32 0 00-.32-.39h-1.21c-.16 0-.3.12-.32.27l-.7 3.94c-.16.96 1.06 1.84 2.04 1.84 1.37 0 1.7-.62 1.7-.62l-.05.36c-.03.14.07.26.2.26h1.44c.1 0 .2-.08.21-.18l.99-5.61a.22.22 0 00-.21-.26M46.62 18.88h1.43c.1 0 .2-.08.21-.18l.54-3.06c.12-.7.63-1.12 1.2-1.13.1 0 .18 0 .26.02.45.06.75.42.68.86l-.55 3.1c-.04.2.12.39.32.39h1.2c.16 0 .3-.12.33-.27l.7-3.94c.16-.96-1.07-1.84-2.04-1.84-1.37 0-1.71.62-1.71.62l.06-.36a.22.22 0 00-.21-.26H47.6c-.1 0-.2.08-.21.18l-1 5.61c-.02.14.08.26.22.26M39.65 12.83h-1c-1.13 0-2.1.81-2.3 1.93l-.13.76H35.2c-.1 0-.2.07-.22.17l-.2 1.21c-.03.13.07.25.2.25h.94l-.35 1.95a.54.54 0 01-.53.44h-.56c-.1 0-.2.08-.21.18l-.21 1.18c-.03.14.07.26.2.26h.83c1.15 0 2.13-.82 2.33-1.95l.36-2.05h1.18c.1 0 .2-.08.2-.18l.22-1.21a.22.22 0 00-.21-.25h-1.1l.1-.5a.6.6 0 01.59-.5h.66c.1 0 .2-.08.21-.18l.23-1.26a.22.22 0 00-.22-.25M32.7 17.84h-5.91v1.67h2.63c.12 0 .22.1.22.22v1.22c0 .12.1.22.22.22h1.56c.12 0 .22-.1.22-.22v-1.22c0-.13.1-.22.22-.22h.83c.12 0 .22-.1.22-.23v-1.21c0-.13-.1-.23-.22-.23M31.96 13.38l-.39.67-.28-.17.5-.86.09.05c.1.07.14.2.08.3zm-.61 1.05c-.06.11-.2.15-.3.09l-1.06-.61a.22.22 0 01-.08-.3l.05-.1 1.44.83-.05.1zm-.83-1.88c.06-.11.2-.15.3-.09l.1.06-.5.86-.29-.16.39-.67zm.68.14l.3.17-.5.86-.3-.17.5-.86zm1.12-.73l-1.4-.81a.44.44 0 00-.6.16l-2.82 4.87c-.17.3.04.67.38.67h2.73c.16 0 .3-.09.38-.22l1.77-3.06c.32-.56.13-1.29-.44-1.61z"/><g transform="translate(24.438 10.048)"><mask id="d" fill="#fff"><use xlink:href="#c"/></mask><path d="M.18 6.4L3.6.46A.89.89 0 014.81.14l.2.11c.1.06.14.2.08.3L1 7.64c-.06.1-.2.14-.3.08l-.2-.11A.89.89 0 01.18 6.4" fill="#F29001" mask="url(#d)"/></g></g></g></svg>