<?xml version="1.0" encoding="UTF-8"?><svg width="56" height="36" viewBox="0 0 56 36" xmlns="http://www.w3.org/2000/svg"><g fill="none" fill-rule="evenodd"><path d="M0 3.75A3.75 3.75 0 013.75 0h48.5A3.76 3.76 0 0156 3.75v28.5A3.75 3.75 0 0152.25 36H3.75A3.76 3.76 0 010 32.25V3.75z" fill="#000" fill-rule="nonzero"/><path d="M1.25 3.75v28.5a2.5 2.5 0 002.5 2.5h48.5a2.5 2.5 0 002.5-2.5V3.75a2.5 2.5 0 00-2.5-2.5H3.75a2.5 2.5 0 00-2.5 2.5z" fill="#FFF"/><g fill-rule="nonzero"><path d="M27.55 5.2v.02h.84a2.68 2.68 0 012.66 2.97 3.34 3.34 0 01-3.32 2.97h-1.46l-.82 3.82h-2.28l2.11-9.77h2.27zm.06 1.74h-.44l-.53 2.5h.7c.75 0 1.38-.61 1.4-1.37a1.12 1.12 0 00-1.13-1.13zM33.21 17.7h.81a2.55 2.55 0 012.53 2.84 3.19 3.19 0 01-3.16 2.83h-1.4l-.78 3.64h-2.18l2.03-9.32h2.15zm.06 1.65h-.41l-.51 2.38H33c.72 0 1.32-.58 1.33-1.31 0-.6-.47-1.07-1.07-1.07zM40.18 17.7h.8a2.55 2.55 0 012.54 2.84 3.19 3.19 0 01-3.16 2.83h-1.4l-.78 3.64H36l2.02-9.32h2.16zm.06 1.65h-.41l-.51 2.38h.66c.72 0 1.32-.58 1.33-1.31 0-.6-.48-1.07-1.07-1.07zM36.44 5.2l.05 6.18h.03V13h-.01l.02 1.98h-2.14l.01-1.99h-2.42l-.8 1.99h-2.3l4.6-9.77h2.96zm-1.99 1.76l-1.8 4.42h1.77l.03-4.42zM28.01 17.7l.06 5.88h.02v1.54l.01 1.89h-2.03v-1.89h-2.3L23 27.01h-2.18l4.38-9.32h2.81zm-1.9 1.66l-1.71 4.22h1.69l.03-4.22zM15.9 8.45h2.97l-.6 3h-2.96z" fill="#00337E"/><path d="M13.76 10.58l-.58 2.71h2.65l-.37 1.76H11l.96-4.47h1.8zm8.24 0l-.96 4.47h-4.48l.37-1.76h2.69l.58-2.71H22zM17.58 5l-.37 1.76h-2.64l-.58 2.72h-1.8L13.14 5h4.44zm5.6 0l-.95 4.48h-1.8L21 6.76h-2.7L18.68 5h4.5z" fill="red"/><path fill="#00337E" d="M39.88 5.2l.3 3.62.05-.08 1.85-3.53h2.49l-3.78 6.08-.81 3.69h-2.29l.83-3.84L37.4 5.2h2.48z"/><path fill="red" d="M11.55 18.73l13.8-2.96-7.04 12.59h21.86l-27.43 3.56 7.15-13.19z"/></g></g></svg>