<svg width="56" height="36" viewBox="0 0 56 36" xmlns="http://www.w3.org/2000/svg"><g fill="none" fill-rule="evenodd"><path d="M0 3.75A3.749 3.749 0 013.75 0h48.5A3.756 3.756 0 0156 3.75v28.5A3.749 3.749 0 0152.25 36H3.75A3.756 3.756 0 010 32.25V3.75z" fill="#000" fill-rule="nonzero"/><path d="M1.25 3.75v28.5c0 1.375 1.123 2.5 2.5 2.5h48.5c1.382 0 2.5-1.118 2.5-2.5V3.75c0-1.375-1.123-2.5-2.5-2.5H3.75a2.499 2.499 0 00-2.5 2.5z" fill="#FFF"/><path d="M33.507 18.244c-.946 0-1.69.635-1.69 1.689 0 1.038.744 1.673 1.69 1.673 1.038 0 1.672-.712 1.672-1.673 0-.976-.634-1.689-1.672-1.689zM48.765 18.244c-1.008 0-1.674.775-1.674 1.689s.666 1.673 1.674 1.673c1.022 0 1.688-.76 1.688-1.673 0-.914-.666-1.689-1.688-1.689z"/><path d="M8.533 22.932c-.178 0-.353-.011-.524-.031v1.11a6.33 6.33 0 00.95.017v-1.116c-.14.013-.282.02-.426.02zM4.296 18.521c0-2.146 1.377-3.912 3.339-4.329V12.88c-2.74.426-4.615 2.67-4.615 5.55 0 2.834 1.832 5.057 4.52 5.52v-1.132c-1.91-.45-3.244-2.185-3.244-4.297zM8.533 14.099c.127 0 .253.005.376.016v-1.301a6.258 6.258 0 00-.806.01v1.295a4.49 4.49 0 01.43-.02z" fill="#35BFAE" fill-rule="nonzero"/><path d="M8.533 14.537c-2.18 0-3.806 1.767-3.806 3.984 0 2.218 1.626 3.984 3.806 3.984 1.17 0 2.205-.499 2.92-1.316.046-.056.212-.241.28-.34l-.843-.56a.56.56 0 00-.682.062c-.403.372-.945.589-1.611.589-1.487 0-2.37-1.1-2.37-2.51 0-1.425.883-2.51 2.37-2.51.666 0 1.208.217 1.611.589.186.17.465.201.682.062l.751-.5a3.875 3.875 0 00-3.108-1.534zM12.749 14.588c-.837-.928-2.004-1.558-3.37-1.733v1.326c.956.188 1.796.69 2.419 1.391.038.046.13.16.205.26l.637-.423a.54.54 0 00.109-.821zM9.427 22.841v1.143c1.346-.18 2.495-.795 3.322-1.712a.54.54 0 00-.109-.82l-.551-.367a6.361 6.361 0 01-.291.385 4.328 4.328 0 01-2.371 1.371zM18.666 15.859a3.028 3.028 0 00-1.999 1.332v-.635a.552.552 0 00-.542-.558H14.7a.552.552 0 00-.543.558v6.74c0 .309.248.557.543.557h1.425a.552.552 0 00.542-.558v-2.54c0-1.24.217-2.418 2.045-2.294.233.016.45-.17.45-.418V16.26a.417.417 0 00-.496-.402zM27.604 15.998h-1.58a.685.685 0 00-.651.465l-1.44 3.98-1.426-3.98a.685.685 0 00-.65-.465h-1.55c-.31 0-.511.31-.388.573.713 1.689 2.774 6.538 2.882 6.817-.294.836-.681 1.27-1.44 1.286a.435.435 0 00-.403.418v1.301c0 .217.155.388.356.419.186.015.387.03.62.03 1.812 0 2.54-1.518 3.16-2.99.418-.975 2.247-5.654 2.897-7.281a.417.417 0 00-.387-.573zM33.956 15.812c-1.054 0-1.751.387-2.216.96v-.356a.417.417 0 00-.418-.418h-1.55a.552.552 0 00-.542.558V26.3c0 .294.248.542.543.542h1.41c.31 0 .557-.248.557-.542v-3.223c.465.573 1.162.96 2.216.96 2.448 0 3.765-2.06 3.765-4.105 0-2.06-1.317-4.121-3.765-4.121zm-.45 5.794c-.945 0-1.688-.635-1.688-1.673 0-1.054.743-1.689 1.689-1.689 1.038 0 1.672.713 1.672 1.689 0 .96-.634 1.673-1.672 1.673zM42.987 15.998h-.992v-1.1a.549.549 0 00-.542-.543h-1.426a.549.549 0 00-.541.543v1.1h-.558a.555.555 0 00-.558.558v.96c0 .31.248.558.558.558h.558V20.8c0 1.55.557 3.192 2.974 3.192.31 0 .542-.031.744-.062a.4.4 0 00.34-.403v-1.332a.395.395 0 00-.418-.403h-.046c-.79 0-1.085-.418-1.085-1.24v-2.478h.992c.31 0 .558-.248.558-.559v-.96a.555.555 0 00-.558-.557zM48.765 15.812c-2.448 0-4.215 1.782-4.215 4.121 0 2.324 1.767 4.121 4.215 4.121 2.463 0 4.214-1.797 4.214-4.121 0-2.34-1.751-4.121-4.214-4.121zm0 5.794c-1.008 0-1.674-.76-1.674-1.673 0-.914.666-1.689 1.674-1.689 1.022 0 1.688.775 1.688 1.689s-.666 1.673-1.688 1.673z" fill="#35BFAE" fill-rule="nonzero"/><g fill="#081F2C" fill-rule="nonzero"><path d="M14.383 14.035v-3.92h1.863c.867 0 1.338.576 1.338 1.263 0 .682-.478 1.258-1.338 1.258h-1.015v1.399h-.848zm2.335-2.657c0-.329-.257-.529-.591-.529h-.896v1.052h.896c.334 0 .591-.2.591-.523zM19.71 14.035v-.3c-.197.235-.537.37-.913.37-.46 0-.998-.305-.998-.94 0-.67.538-.917.998-.917.388 0 .722.124.913.347v-.359c0-.288-.25-.476-.633-.476-.304 0-.59.118-.83.335l-.298-.523c.352-.311.806-.447 1.26-.447.663 0 1.266.26 1.266 1.076v1.834h-.765zm0-.682V13c-.125-.164-.364-.252-.609-.252-.298 0-.543.158-.543.428 0 .271.245.424.543.424.245 0 .484-.082.61-.247zM21.234 14.476a.67.67 0 00.239.047c.197 0 .328-.053.4-.206l.107-.247-1.17-2.874h.812l.752 1.975.759-1.975h.812l-1.356 3.303c-.215.535-.597.676-1.093.688-.083 0-.28-.018-.37-.047l.108-.664zM28.884 14.035l-.699-2.692-.693 2.692h-.901l-1.14-3.92h.949l.698 2.833.759-2.833h.663l.752 2.833.699-2.833h.95l-1.135 3.92zM31.231 10.444c0-.247.225-.441.497-.441.278 0 .503.194.503.44 0 .248-.225.448-.503.448-.272 0-.497-.2-.497-.447zm.08 3.591v-2.84h.84v2.84h-.84zM32.97 13.324v-1.476h-.478v-.652h.477v-.776h.759v.776h.585v.652h-.585v1.276c0 .182.096.317.263.317.113 0 .22-.04.263-.088l.16.57c-.113.1-.316.182-.632.182-.532 0-.813-.27-.813-.781zM36.785 14.035v-1.728c0-.394-.209-.518-.531-.518a.837.837 0 00-.657.33v1.916h-.764v-3.92h.764v1.446a1.348 1.348 0 011.009-.435c.633 0 .937.34.937.893v2.016h-.758z"/></g></g></svg>