<?xml version="1.0" encoding="UTF-8"?><svg width="56" height="36" viewBox="0 0 56 36" xmlns="http://www.w3.org/2000/svg"><g fill="none" fill-rule="evenodd"><path d="M0 3.75A3.749 3.749 0 013.75 0h48.5A3.756 3.756 0 0156 3.75v28.5A3.749 3.749 0 0152.25 36H3.75A3.756 3.756 0 010 32.25V3.75z" fill="#000" fill-rule="nonzero"/><path d="M1.25 3.75v28.5c0 1.375 1.123 2.5 2.5 2.5h48.5c1.382 0 2.5-1.118 2.5-2.5V3.75c0-1.375-1.123-2.5-2.5-2.5H3.75a2.499 2.499 0 00-2.5 2.5z" fill="#FFF"/><g fill-rule="nonzero"><path fill="#14007C" d="M6 17.61L7.018 12h.7L6.7 17.61zM7.062 17.61L8.085 12h.285l-1.017 5.61zM8.124 17.61L9.142 12h.506L8.63 17.61zM12.98 17.61L13.996 12h.511l-1.017 5.61zM11.917 17.61L12.935 12h.506l-1.018 5.61z"/><path fill="#14007C" d="M8.58 17.61L9.596 12h.285l-1.017 5.61zM14.041 17.61L15.06 12h.285l-1.017 5.61zM9.641 17.61L10.66 12h.285l-1.017 5.61zM10.248 17.61L11.266 12h.808l-1.023 5.61zM9.186 17.61L10.204 12h.2l-1.019 5.61zM13.434 17.61L14.452 12h.2l-1.018 5.61zM11.31 17.61L12.328 12h.2l-1.018 5.61zM32.225 15.574l-.043.147a.898.898 0 00-.032.193.382.382 0 000 .17.123.123 0 00.13.074.41.41 0 00.22-.074c.084-.054.16-.121.226-.198.079-.091.15-.19.21-.295a2.665 2.665 0 00.29-.76 2.079 2.079 0 00-.032-.976 1.863 1.863 0 00-.926-1.152 2.023 2.023 0 00-2.067.097 2.288 2.288 0 00-.776.873 2.704 2.704 0 00-.21 1.872 2.541 2.541 0 00.571 1.05c.271.289.609.498.98.607a2.096 2.096 0 001.098.023 2.307 2.307 0 00.92-.47c.136-.114.257-.244.362-.387h.538a2.865 2.865 0 01-.447.567 2.711 2.711 0 01-.538.431 2.54 2.54 0 01-.635.267c-.227.06-.46.091-.695.09a2.658 2.658 0 01-1.4-.38 2.762 2.762 0 01-.99-1.009 2.95 2.95 0 01-.275-.692 3.123 3.123 0 01-.097-.789 2.98 2.98 0 01.371-1.452c.119-.207.262-.398.426-.567a2.79 2.79 0 01.538-.448A2.588 2.588 0 0131.31 12a2.664 2.664 0 011.244.306 2.437 2.437 0 01.899.84c.11.175.198.366.258.567.062.213.093.435.092.658 0 .211-.027.421-.08.624-.05.198-.123.388-.216.568a2.378 2.378 0 01-.307.448c-.109.121-.23.23-.361.323-.122.09-.254.162-.393.216a1.06 1.06 0 01-.372.073.448.448 0 01-.312-.113.669.669 0 01-.183-.352 1.946 1.946 0 01-.183.182 1.382 1.382 0 01-.452.26.938.938 0 01-.684-.057 1.036 1.036 0 01-.334-.266 1.246 1.246 0 01-.22-.391 1.469 1.469 0 01-.081-.482 2.589 2.589 0 01.473-1.498c.1-.138.215-.262.345-.369a1.55 1.55 0 01.42-.244c.157-.06.323-.09.49-.09.082-.01.165-.01.248 0 .08.018.156.05.226.096.074.049.14.11.194.182.062.085.111.181.145.283l.14-.437h.538l-.619 2.247zm-.845-1.804a.742.742 0 00-.323.074c-.1.048-.194.113-.275.193-.086.084-.162.179-.226.283a2.044 2.044 0 00-.167.34 2.152 2.152 0 00-.108.364 1.79 1.79 0 00-.037.346c0 .096.014.192.043.283.025.083.065.16.118.227a.542.542 0 00.436.199c.102 0 .201-.025.291-.074.098-.054.186-.122.264-.204a1.69 1.69 0 00.22-.29 2.353 2.353 0 00.286-.697c.025-.11.037-.222.038-.335a.767.767 0 00-.167-.482.649.649 0 00-.178-.153.41.41 0 00-.215-.074z"/><path d="M37.26 12.011c.25-.005.497.035.733.12.194.068.368.187.506.346.133.16.222.357.259.567.046.247.046.501 0 .749-.044.26-.13.512-.253.743-.116.217-.27.41-.453.567a1.924 1.924 0 01-.624.352c-.25.082-.513.12-.776.113h-1.195l-.355 2.105h-1.185L34.881 12l2.38.011zm-.742 2.457a1.09 1.09 0 00.651-.154.722.722 0 00.286-.499.536.536 0 00-.113-.505.855.855 0 00-.598-.164h-.878l-.226 1.322h.878zM38.818 15.299c.054-.316.156-.62.302-.902.138-.26.32-.49.538-.68a2.36 2.36 0 011.53-.596c.275-.007.55.043.807.147.211.093.397.242.538.431.146.2.242.433.28.681a2.61 2.61 0 010 .902 3.02 3.02 0 01-.301.908c-.139.26-.321.49-.539.68-.208.186-.447.33-.705.426-.272.1-.558.15-.845.147a1.995 1.995 0 01-.797-.147 1.366 1.366 0 01-.539-.426 1.532 1.532 0 01-.285-.68 2.687 2.687 0 01.016-.891zm1.217 0c-.025.15-.036.302-.032.454.002.133.025.266.07.391.038.11.105.207.193.278a.52.52 0 00.318.102.718.718 0 00.377-.096c.113-.068.211-.159.29-.267.089-.119.16-.25.21-.391.057-.152.098-.31.125-.471.04-.156.065-.316.075-.477a1.13 1.13 0 00-.065-.391.6.6 0 00-.199-.278.57.57 0 00-.36-.102.668.668 0 00-.367.102 1.055 1.055 0 00-.29.278c-.087.12-.158.252-.21.391a2.466 2.466 0 00-.124.477h-.011zM44.171 15.924a.65.65 0 000 .283c.02.073.06.138.113.188.055.048.12.082.189.102.08.02.16.03.242.028a.925.925 0 00.205 0 .547.547 0 00.34-.21c.041-.06.069-.13.08-.204a.273.273 0 00-.033-.187.42.42 0 00-.161-.142 1.53 1.53 0 00-.296-.12l-.442-.118-.274-.085a1.985 1.985 0 01-.27-.12 1.414 1.414 0 01-.236-.158.814.814 0 01-.28-.466.908.908 0 010-.323c.026-.162.077-.32.15-.465a1.35 1.35 0 01.571-.567c.119-.065.243-.116.372-.154a2.38 2.38 0 01.403-.079c.137-.007.273-.007.41 0 .14-.01.28-.01.42 0 .128.015.254.044.376.085.111.038.216.091.313.159.09.065.17.148.231.244a.98.98 0 01.135.335c.022.146.022.295 0 .442h-1.125a.393.393 0 00-.108-.357.61.61 0 00-.393-.108h-.172a.55.55 0 00-.151.05.39.39 0 00-.119.092.267.267 0 00-.059.136c-.016.07 0 .143.043.198.054.062.12.11.194.142.1.045.202.081.307.108l.382.108.28.085c.093.032.183.072.27.119.083.046.163.102.236.164a.792.792 0 01.275.482c.02.113.02.228 0 .341a1.937 1.937 0 01-.156.505 1.421 1.421 0 01-.587.64 1.963 1.963 0 01-.393.171c-.141.044-.285.074-.431.09a3.925 3.925 0 01-.447 0 3.038 3.038 0 01-.436-.027 1.877 1.877 0 01-.377-.108 1.391 1.391 0 01-.334-.182.972.972 0 01-.247-.272 1.07 1.07 0 01-.14-.369 1.47 1.47 0 010-.482l1.13.006zM49.957 13.231l-.103.828h-.667l-.307 2.1a.335.335 0 000 .084.209.209 0 000 .08.16.16 0 00.06.062c.03.01.064.01.096 0h.382l-.102 1.021h-.705a2.508 2.508 0 01-.496-.045.725.725 0 01-.344-.16.574.574 0 01-.178-.317 1.44 1.44 0 010-.516l.366-2.32h-.538l.134-.828h.539l.188-1.22h1.228l-.189 1.237.636-.006z" fill="#E32226"/><path d="M18.282 12a2.15 2.15 0 01.759.12c.19.066.36.186.49.346.123.163.202.36.226.567.031.248.02.5-.032.743-.05.257-.14.504-.264.732a1.817 1.817 0 01-1.072.862c-.26.078-.53.114-.802.108h-1.265l-.426 2.127h-1.4l1.126-5.604h2.66zm-.7 2.661c.136.006.272-.011.404-.05a.925.925 0 00.307-.165.84.84 0 00.21-.256c.055-.104.095-.217.118-.334a.997.997 0 000-.335.529.529 0 00-.113-.255.536.536 0 00-.242-.165 1.093 1.093 0 00-.383-.057H16.85l-.307 1.611 1.039.006zM22.47 16.91c-.099.094-.209.174-.328.238a2.09 2.09 0 01-.743.232 2.95 2.95 0 01-.366 0 1.54 1.54 0 01-.49-.074.86.86 0 01-.36-.226.809.809 0 01-.195-.386c-.04-.187-.04-.38 0-.567.036-.205.113-.398.226-.568.098-.14.22-.257.361-.346.141-.087.294-.152.452-.193.162-.041.327-.077.496-.107l.479-.086c.139-.023.275-.057.41-.102.107-.033.209-.085.3-.153a.4.4 0 00.151-.244.525.525 0 000-.266.27.27 0 00-.113-.148.473.473 0 00-.199-.068h-.258c-.095 0-.189.01-.28.034a.698.698 0 00-.415.3.983.983 0 00-.124.284h-1.033c.043-.165.108-.324.193-.47.084-.119.182-.225.291-.318.105-.103.223-.19.35-.261.127-.07.26-.127.399-.17.139-.044.28-.077.425-.097.143-.019.287-.028.43-.028h.383c.125.01.25.031.371.062.112.028.22.07.324.125.094.05.177.122.242.21a.724.724 0 01.124.312c.027.142.027.289 0 .431l-.63 3.132h-.964l.091-.483zm.205-1.532a.712.712 0 01-.183.108 1.776 1.776 0 01-.232.079l-.253.057-.258.045-.237.051a.85.85 0 00-.21.08.477.477 0 00-.258.352.525.525 0 000 .255.265.265 0 00.107.147c.058.037.122.06.189.068h.237c.12.002.24-.015.355-.051a.99.99 0 00.264-.13c.07-.05.132-.111.183-.182a1.205 1.205 0 00.188-.397c0-.06.011-.112.033-.153l.075-.33zM25.712 17.982c-.264.47-.367.618-.636.618h-1.324l.199-.993h.738c.199 0 .371-.42.371-.624l-.581-3.863h.985l.307 2.916 1.459-2.916h1.077l-2.595 4.862zM6.232 18.524l-.114.034H6l.027-.17h.183a.203.203 0 00.06-.057.346.346 0 00.048-.091h.204l-.215 1.078H6.08l.15-.794zM8.336 19.017a.323.323 0 000 .068.101.101 0 000 .046h.043a.102.102 0 00.054 0l.08-.029a.263.263 0 000-.056.526.526 0 000-.074.598.598 0 000-.068.18.18 0 000-.063.08.08 0 00-.026-.045.087.087 0 00-.06 0h.017-.065l-.032.04h-.205l.189-.596h.538l-.038.193h-.317l-.033.113v.034H8.584a.263.263 0 01.134.029.21.21 0 01.081.08.472.472 0 01-.043.442l-.065.085a.408.408 0 01-.08.068l-.097.045a.368.368 0 01-.113 0 .378.378 0 01-.135 0 .216.216 0 01-.092-.068.216.216 0 01-.043-.108.382.382 0 010-.147l.205.011zM10.218 18.24h.22l-.129.67h.075l-.037.18h-.097l-.049.25H9.97l.048-.25h-.377l.038-.18.539-.67zm-.14.67l.037-.205v-.09l-.043.062-.188.232h.194zM12.183 19.017a.323.323 0 000 .068.101.101 0 000 .046h.043a.102.102 0 00.054 0l.043-.04a.24.24 0 00.054-.045.526.526 0 000-.074.598.598 0 000-.068.18.18 0 000-.063.08.08 0 00-.027-.045.087.087 0 00-.06 0H12.2l-.032.04h-.2l.189-.596h.538l-.037.193h-.34l-.032.113v.034h.092a.263.263 0 01.134.029.21.21 0 01.081.08.472.472 0 01-.043.442l-.065.085a.408.408 0 01-.08.068l-.097.045a.368.368 0 01-.113 0 .378.378 0 01-.135 0 .216.216 0 01-.091-.068.216.216 0 01-.044-.108.382.382 0 010-.147l.259.011zM19.547 23.112h-.302l.205-1.27v-.046a.347.347 0 000-.045.313.313 0 00-.113-.256.467.467 0 00-.307-.096.885.885 0 00-.442.125.447.447 0 00-.253.306l-.231 1.27h-.27l.356-1.945h.301l-.037.198c.193-.15.427-.231.667-.232a.757.757 0 01.485.147.48.48 0 01.183.397v.137l-.242 1.31zM19.338 23.944h-.301l.059-.34h-.2l.044-.244h.5zM21.67 23.101h-.3l.236-1.282a.155.155 0 000-.04v-.04a.287.287 0 00-.134-.254.615.615 0 00-.35-.091.82.82 0 00-.593.221l-.269 1.48h-.301l.28-1.554c.243-.274.585-.427.942-.42a.925.925 0 01.538.137.47.47 0 01.216.402v.114L21.67 23.1zM23.812 22.436a.728.728 0 01-.345.477c-.19.125-.41.19-.635.187-.1.001-.2-.012-.296-.04a.722.722 0 01-.237-.12.558.558 0 01-.156-.18.46.46 0 01-.06-.227v-.052a.46.46 0 010-.05l.243-1.311h.301l-.22 1.316a.25.25 0 000 .057.28.28 0 00.14.244.63.63 0 00.35.09.8.8 0 00.409-.107.545.545 0 00.145-.125.357.357 0 00.06-.159l.242-1.31h.301l-.242 1.31zM25.914 23.126h-.302l.14-.783a.406.406 0 00-.199-.22.722.722 0 00-.366-.086.8.8 0 00-.474.148.493.493 0 00-.226.414.283.283 0 00.29.29c.122-.002.24-.035.345-.097l.14.21a.866.866 0 01-.506.153.501.501 0 01-.55-.516.764.764 0 01.34-.636c.21-.16.463-.243.722-.238a.78.78 0 01.554.176l.054-.29a.316.316 0 00-.167-.181.624.624 0 00-.307-.074.758.758 0 00-.651.295h-.323a1.064 1.064 0 011.023-.567.85.85 0 01.538.153.443.443 0 01.21.323l-.285 1.526zM28.183 22.103a1.14 1.14 0 01-.479.76 1.48 1.48 0 01-.98.267l-.06-.976h-.22l.049-.272h.463l.059.976a.952.952 0 00.57-.233.86.86 0 00.297-.527.693.693 0 000-.142.53.53 0 00-.156-.403.594.594 0 00-.431-.153c-.276.006-.541.11-.754.295l-.21-.182a1.623 1.623 0 011.028-.391.864.864 0 01.614.204.723.723 0 01.221.567c.004.07 0 .14-.01.21z" fill="#14007C"/><path d="M28.975 23.102h-.307l.226-1.186v-.068-.063c0-.253-.137-.38-.41-.38a.993.993 0 00-.484.137l.06-.307c.156-.077.327-.116.5-.113a.722.722 0 01.495.153c.11.099.172.245.167.397a.842.842 0 010 .153l-.247 1.277zM31.397 22.788a1.293 1.293 0 01-.904.323 1.034 1.034 0 01-.62-.159.454.454 0 01-.204-.391.528.528 0 01.038-.187.654.654 0 01.097-.17.872.872 0 01.145-.148.626.626 0 01.178-.102.372.372 0 01-.194-.142.295.295 0 01-.054-.227.413.413 0 01.08-.187c.045-.06.1-.11.162-.147a.906.906 0 01.48-.13.945.945 0 01.317.05l-.043.267a1.632 1.632 0 00-.312-.051c-.223 0-.347.066-.372.198-.025.133.094.204.356.216h.264l-.049.272h-.226a.665.665 0 00-.372.12.383.383 0 00-.188.323.273.273 0 00.15.238.794.794 0 00.41.09c.2-.003.395-.057.57-.158l.28-1.543h.302l-.29 1.645zM33.5 23.066h-.242l-.248-1.47-.797 1.47h-.237l-.183-1.946h.662l-.048.272h-.28l.102 1.09.733-1.362h.269l.231 1.361.63-1.361h.307zM35.515 23.09h-.323l.226-1.185v-.068-.063c0-.253-.136-.38-.41-.38a.993.993 0 00-.484.136l.06-.306c.153-.072.32-.107.49-.102a.722.722 0 01.495.153c.11.099.171.245.167.397a.842.842 0 010 .153l-.221 1.265z" fill="#14007C"/><path d="M37.186 23.071h-.302l.038-.198c-.192.15-.424.232-.662.232a.768.768 0 01-.49-.147.48.48 0 01-.184-.397v-.068-.068l.243-1.305h.301l-.231 1.27v.063a.335.335 0 000 .045c-.004.1.038.195.113.256a.467.467 0 00.307.096.88.88 0 00.436-.125.475.475 0 00.253-.306l.237-1.27h.301l-.36 1.922zM38.448 20.987l-.382 2.048h-.302l.366-1.997a.89.89 0 01.345-.567l-.07-.085-.285.204-.41-.386.226-.204.248.25.34-.222.28.392a.82.82 0 00-.356.567z" fill="#14007C"/><path d="M40.046 22.437a.717.717 0 01-.344.477c-.19.125-.411.19-.636.187-.1.001-.2-.012-.296-.04a.722.722 0 01-.237-.119.558.558 0 01-.156-.182.46.46 0 01-.059-.226v-.052a.46.46 0 010-.05l.242-1.311h.302l-.226 1.316a.25.25 0 000 .057.28.28 0 00.14.244.63.63 0 00.35.09.825.825 0 00.409-.107.547.547 0 00.14-.125.353.353 0 00.075-.159l.35-1.957h.302l-.356 1.957zM41.985 21.71c-.036-.193-.2-.29-.49-.29a.805.805 0 00-.36.086.327.327 0 00-.19.198c-.024.136.155.218.54.244.47.034.705.187.705.46v.09a.695.695 0 01-.345.488 1.184 1.184 0 01-.635.17.885.885 0 01-.539-.147.5.5 0 01-.226-.437.693.693 0 010-.142h.302v.068.046c0 .238.165.357.495.357a.825.825 0 00.398-.09.386.386 0 00.259-.313c.029-.17-.138-.27-.501-.3-.495-.05-.743-.185-.743-.409a.568.568 0 01.318-.493 1.114 1.114 0 01.904-.136.746.746 0 01.243.113.48.48 0 01.21.408l-.345.029z" fill="#14007C"/><path d="M43.935 22.175h-.199l-.043.255a.717.717 0 01-.345.477c-.19.125-.41.19-.635.187a.896.896 0 01-.538-.153.489.489 0 01-.216-.408v-.052a.426.426 0 01.033-.034l.242-1.31h.296l-.248 1.31a.25.25 0 000 .057.28.28 0 00.14.244.63.63 0 00.35.09.825.825 0 00.41-.107.547.547 0 00.14-.125.353.353 0 00.075-.159l.043-.255h-.592l.07-.369.15.057h.431l.108-.76h.301l-.123.76h.199l-.049.295zM47.25 23.107h-.302l.038-.193a.985.985 0 01-.62.227.67.67 0 01-.452-.142.488.488 0 01-.167-.391v-.068-.068l.114-.647a.215.215 0 000-.04v-.034c0-.234-.16-.351-.48-.351a.8.8 0 00-.592.226l-.22 1.209h.3l-.048.266h-.587l.28-1.554c.241-.275.582-.43.937-.425a.925.925 0 01.539.136.47.47 0 01.215.402v.114l-.145.715a.155.155 0 000 .04v.04c0 .21.129.317.387.317a.716.716 0 00.404-.125.48.48 0 00.226-.306l.237-1.271h.302l-.366 1.923zM49.15 22.788a1.293 1.293 0 01-.905.323 1.034 1.034 0 01-.62-.159.454.454 0 01-.204-.391.528.528 0 01.037-.187.654.654 0 01.097-.17.872.872 0 01.146-.148.626.626 0 01.177-.102.372.372 0 01-.193-.142.295.295 0 01-.054-.227.413.413 0 01.08-.187c.045-.06.1-.11.162-.147a.906.906 0 01.48-.13.945.945 0 01.317.05l-.043.267a1.632 1.632 0 00-.312-.051c-.223 0-.347.066-.372.198-.025.133.093.204.355.216h.264l-.048.272h-.216a.665.665 0 00-.371.12.383.383 0 00-.189.323.273.273 0 00.151.238.794.794 0 00.41.09c.2-.003.395-.057.57-.158l.28-1.555h.302l-.302 1.657z" fill="#14007C"/><path d="M6.455 21.12l6.052 1.316c.399.08.539-.136.442-.318l-.539-.975-5.955-.023z" fill="#2E3192"/><path fill="#ED1C24" d="M16.125 21.12l-3.349.703-.404-.703z"/><path fill="#BCBDC0" d="M6.455 21.12l5.89 1.265.663 1.3z"/></g></g></svg>