<?xml version="1.0" encoding="UTF-8"?><svg width="56" height="36" viewBox="0 0 56 36" xmlns="http://www.w3.org/2000/svg"><g fill="none" fill-rule="evenodd"><path d="M0 3.75A3.75 3.75 0 013.75 0h48.5A3.76 3.76 0 0156 3.75v28.5A3.75 3.75 0 0152.25 36H3.75A3.76 3.76 0 010 32.25V3.75z" fill="#000" fill-rule="nonzero"/><path d="M1.25 3.75v28.5a2.5 2.5 0 002.5 2.5h48.5a2.5 2.5 0 002.5-2.5V3.75a2.5 2.5 0 00-2.5-2.5H3.75a2.5 2.5 0 00-2.5 2.5z" fill="#FFF"/><g fill-rule="nonzero"><path d="M12.44 7.58l-.56.85.04.03c.53-.48 1.05-.97 1.59-1.43.07-.06.25 0 .38 0a3.46 3.46 0 01-1.05 1.9c-2.19 2.01-3.7 4.52-4.89 7.21-.7 1.58-1.17 3.25-1.77 4.88-.07.2-.26.36-.39.54l-.24-.06L4 15.51c.58 0 1.13-.15 1.48.05.3.17.4.73.6 1.16.46-.87.9-1.75 1.38-2.62a32.9 32.9 0 013.9-5.87c.27-.3.6-.56.9-.83l.18.18M15.8 15.23c1.11.1 1.76.78 1.84 1.74.09 1.26-.47 2.19-1.57 2.5a4.2 4.2 0 01-1.28.14c-.49-.02-.62.16-.59.62.03.5 0 1.01 0 1.56h-1.58v-6.57c1.08 0 2.13-.07 3.18.01zm-1.5 1.15c-.05.08-.08.12-.08.15l-.01 1.18c0 .78.06.84.83.72.68-.1.99-.48.95-1.15-.03-.57-.34-.86-1-.9-.23-.02-.45 0-.7 0z" fill="#E22426"/><path d="M13.86 8.82c-.1.59.26.36.45.33-.97 2.15-2.73 3.74-3.81 5.78-1.13 2.13-2 4.33-2.49 6.7-.06.31-.33.58-.5.86a5.4 5.4 0 00-.16-.17l-.33.75-.56-.18a22.42 22.42 0 017.4-14.07" fill="#135191"/><path d="M29.15 24.52l.67-1.64h.31v2.02h-.2v-1.74l-.73 1.74h-.1l-.73-1.74v1.74h-.21v-2.02h.31l.68 1.64zm2.17-.29l-.17.01c-.07 0-.14.02-.2.03a.45.45 0 00-.17.09.2.2 0 00-.07.15.22.22 0 00.1.2c.03.01.06.03.1.03.1.03.2.02.28-.02.1-.04.17-.12.2-.22a.56.56 0 00.03-.17v-.1h-.1zm.1-.15v-.03c0-.23-.11-.35-.34-.35-.15 0-.3.06-.4.16l-.12-.14c.13-.12.31-.19.56-.19.07 0 .13.01.19.03.11.04.2.12.26.23.02.06.04.13.04.21v.6c0 .1 0 .2.02.3h-.18a1.07 1.07 0 01-.02-.22.5.5 0 01-.2.19.59.59 0 01-.27.06.6.6 0 01-.17-.03.43.43 0 01-.15-.07.36.36 0 01-.14-.29c0-.1.03-.2.09-.25a.51.51 0 01.2-.14l.27-.06.27-.01h.09zm.77.08l.62-.6h.28l-.66.61.73.72h-.29l-.68-.7v.7H32v-2.14h.19v1.41zm1.44-1.1c0 .05-.02.09-.05.12a.15.15 0 01-.1.04.15.15 0 01-.1-.04.14.14 0 01-.05-.11c0-.04.01-.08.04-.11a.15.15 0 01.1-.04c.04 0 .08.01.1.04.04.03.06.07.06.1zm.04 1.84h-.3v-1.33h.3v1.33zm.47-1.33l.01.2c.08-.1.2-.19.32-.22a.49.49 0 01.13-.02c.17 0 .3.05.38.14.08.09.12.22.12.38v.85h-.19v-.74a.63.63 0 00-.07-.34c-.05-.08-.15-.12-.29-.12l-.08.01a.34.34 0 00-.13.06c-.06.05-.1.1-.13.16a.6.6 0 00-.06.28v.68h-.18v-1.03c0-.1 0-.2-.02-.3h.2zm1.5.64c0 .2.11.39.3.47.18.08.4.04.55-.1a.52.52 0 00.14-.37.57.57 0 00-.03-.2.47.47 0 00-.47-.3.46.46 0 00-.2.03.5.5 0 00-.3.47zm-.04.95a.6.6 0 00.22.18c.09.04.19.07.29.07.08 0 .16-.02.24-.04a.42.42 0 00.25-.28.74.74 0 00.02-.2v-.25a.51.51 0 01-.22.2.71.71 0 01-.77-.14.65.65 0 01-.2-.48.7.7 0 01.2-.49.68.68 0 01.87-.07l.12.13v-.22h.19v1.31c0 .08 0 .16-.03.23a.57.57 0 01-.32.4.82.82 0 01-.36.07.82.82 0 01-.64-.27l.14-.15zm2.61-.45h.93v.19H38v-2.02h.21v1.83zm1.4-1.64c0 .04-.01.08-.04.1a.15.15 0 01-.1.05.15.15 0 01-.11-.04.14.14 0 01-.05-.11c0-.04.02-.08.05-.11a.15.15 0 01.1-.04c.04 0 .08.01.1.04.04.03.05.07.05.1zm.05 1.83h-.3v-1.33h.3v1.33zm.91-1.16h-.31v1.16h-.19v-1.16h-.28v-.17h.28v-.37c0-.18.04-.3.12-.38.09-.07.2-.11.32-.1l.16.01-.03.17a.78.78 0 00-.14-.02c-.05 0-.09 0-.13.03a.18.18 0 00-.07.07.32.32 0 00-.03.11 1 1 0 00-.01.13v.34h.31v.17zm1.21.39a.43.43 0 00-.11-.31.42.42 0 00-.32-.12.5.5 0 00-.42.27.35.35 0 00-.04.16h.9zm-.9.15c0 .07.02.13.05.19.05.11.14.2.26.25.05.03.12.04.18.04a.48.48 0 00.42-.23l.15.12a.72.72 0 01-.26.21.73.73 0 01-.58.02.64.64 0 01-.36-.37.77.77 0 010-.56c.06-.16.19-.3.35-.37a.66.66 0 01.26-.05c.1 0 .2.02.27.06.15.06.27.2.32.35.03.08.05.17.05.26v.08h-1.1zm3.17-1.06a.44.44 0 00-.39-.2c-.05 0-.1 0-.15.02a.43.43 0 00-.14.07.33.33 0 00-.13.27c0 .1.02.16.07.22.06.05.12.09.2.12l.24.09c.09.02.17.06.25.1.07.04.14.1.19.17.05.08.08.18.07.28a.5.5 0 01-.06.25.56.56 0 01-.15.18.72.72 0 01-.45.16.9.9 0 01-.35-.07.67.67 0 01-.28-.23l.19-.14c.04.08.1.14.18.18.17.1.4.09.56-.03a.4.4 0 00.1-.11.3.3 0 00.04-.16.32.32 0 00-.16-.29.73.73 0 00-.16-.08l-.2-.06a2.06 2.06 0 01-.18-.07.65.65 0 01-.17-.1.45.45 0 01-.11-.15.54.54 0 01-.05-.24c0-.16.07-.32.2-.43a.63.63 0 01.22-.1.84.84 0 01.54.02c.1.03.18.1.26.19l-.18.14zm.82-.15c0 .04-.02.08-.05.1a.15.15 0 01-.1.05.15.15 0 01-.1-.04.14.14 0 01-.05-.11c0-.04.02-.08.05-.11a.15.15 0 01.1-.04c.04 0 .07.01.1.04s.05.07.05.1zm.04 1.83h-.3v-1.33h.3v1.33zm.3-1.04l-.01-.3h.2v.2c.05-.07.11-.13.19-.17a.53.53 0 01.47 0 .4.4 0 01.19.22.49.49 0 01.44-.28c.17 0 .3.05.37.14.08.09.12.22.12.38v.85H47v-.78c0-.1-.02-.22-.07-.31-.05-.07-.14-.1-.26-.1a.34.34 0 00-.18.03.33.33 0 00-.11.11.48.48 0 00-.07.16.8.8 0 00-.02.18v.7h-.18v-.77c0-.1-.02-.22-.07-.31-.05-.07-.14-.1-.27-.1h-.08a.3.3 0 00-.12.06.45.45 0 00-.12.16.63.63 0 00-.05.28v.68h-.19v-1.03zm3.58.37a.6.6 0 00-.04-.2.47.47 0 00-.46-.33.53.53 0 00-.38.16.54.54 0 000 .75c.1.1.24.15.38.15.2 0 .4-.12.47-.32a.6.6 0 00.03-.21zm-1.2-.66h.18v.22a.49.49 0 01.11-.12c.12-.1.26-.14.41-.14a.66.66 0 01.65.42c.04.1.06.19.05.28a.67.67 0 01-.7.7.67.67 0 01-.4-.14.49.49 0 01-.12-.12v1.04h-.19v-2.14zm2.02 1.33h-.3v-2.15h.3v2.15zm1.33-.77a.43.43 0 00-.11-.31.42.42 0 00-.32-.12.5.5 0 00-.42.27.35.35 0 00-.04.16h.9zm-.9.15c0 .07.02.13.05.19.05.11.14.2.26.25.05.03.12.04.18.04.1 0 .19-.02.26-.07.06-.04.12-.1.16-.16l.15.12a.72.72 0 01-.26.21.73.73 0 01-.58.02.64.64 0 01-.36-.37.77.77 0 010-.56c.06-.16.19-.3.35-.37a.66.66 0 01.26-.05c.1 0 .2.02.27.06.15.06.27.2.32.35.03.08.05.17.05.26v.08h-1.1zm1.75.48c0 .04-.02.07-.04.1a.14.14 0 01-.11.05.14.14 0 01-.11-.04.15.15 0 010-.22.14.14 0 01.1-.04c.05 0 .09.01.12.04.02.03.04.07.04.1zm.04-.41h-.3v-1.47h.3v1.47z" fill="#1351AA"/><path d="M47.33 14.9h1.44v2.45l.56-.34c1.24-.77 2.46-.21 2.57 1.24.08.97.03 1.96.03 2.94v.6h-1.52v-1.34c0-.6 0-1.2-.04-1.8-.03-.53-.32-.76-.82-.72-.56.05-.78.26-.78.8v3.07h-1.44v-6.9zM39.22 16.85c.51.15 1 .44 1.03 1 .07 1.3.02 2.61.02 3.92-1.04.18-1.3.12-1.45-.27-.54.15-1.05.39-1.59.44-.74.06-1.3-.43-1.47-1.14-.18-.82.07-1.5.79-1.79.53-.21 1.12-.28 1.69-.4.18-.04.36-.04.55-.06.12-.51-.19-.72-.56-.75-.48-.03-.96.03-1.45.08-.2.02-.38.12-.65.2 0-.33-.03-.62.01-.88.02-.13.17-.3.29-.32.92-.24 1.86-.3 2.79-.03zm-.47 2.58c-.37.08-.78.08-1.11.26-.2.1-.39.47-.37.7.01.2.33.5.53.51.77.07 1.29-.15.95-1.47zM22.28 16.92c.57.1.88.56.97 1.13.03.18.04.37.04.56v3.3l-.11-.04c-.57-.15-1.19.3-1.46-.36-.52.15-1.02.38-1.54.43-.7.06-1.32-.4-1.48-1.07-.2-.81.06-1.57.77-1.86.52-.21 1.09-.28 1.64-.4.2-.03.4-.04.62-.06.1-.54-.23-.75-.62-.76-.66 0-1.33.1-2.04.16.02.04-.02-.01-.02-.06.03-1.03-.26-1.02.95-1.12.75-.07 1.53.02 2.28.15zm-.59 2.52c-.36.06-.76.06-1.07.23-.22.12-.44.48-.42.72.01.2.37.51.59.52.78.03 1.22-.22.9-1.47zM25.5 23.68c.2-.56.42-1.03.55-1.51.08-.28.08-.58 0-.86-.45-1.3-.95-2.58-1.43-3.87l-.2-.62c.49 0 .92-.03 1.34.02.12.01.28.22.33.38.26.7.48 1.43.72 2.14.06.2.16.37.31.5.24-.76.53-1.5.7-2.28.15-.6.42-.88 1.05-.77.2.03.4 0 .68 0-.05.2-.06.34-.11.47-.72 1.97-1.46 3.93-2.16 5.9-.13.39-.31.54-.72.5-.31-.03-.63 0-1.06 0M41.72 20.36c.51.2.92.4 1.34.52.28.08.6.08.89.01.18-.04.31-.25.47-.4-.14-.14-.26-.35-.44-.43-.3-.12-.65-.16-.98-.25-.84-.25-1.22-.68-1.24-1.4-.02-.7.37-1.22 1.13-1.52a3.8 3.8 0 012.38-.04c.35.09.52.26.48.63-.03.22 0 .45 0 .76-.28-.14-.47-.27-.67-.32-.34-.1-.7-.22-1.04-.2-.25.03-.64.22-.7.41-.12.4.3.44.58.52.36.11.73.17 1.09.3.5.17.87.5.94 1.08.07.61-.12 1.14-.64 1.46-1.09.68-2.23.58-3.37.15-.1-.04-.2-.22-.2-.34-.04-.3-.02-.6-.02-.94M34.79 20.26c0 .43.02.77-.01 1.1a.43.43 0 01-.2.3c-1.03.53-3.3.49-3.97-1.13-.44-1.07-.2-2.51.58-3.2.8-.7 2.5-.9 3.35-.32.2.14.19.58.25.9.02.11-.02.25-.04.44-.87-.48-1.74-1.1-2.55-.04-.41.55-.37 1.7.06 2.14.83.82 1.64.4 2.53-.2" fill="#E22426"/></g></g></svg>