<?xml version="1.0" encoding="UTF-8"?><svg width="56" height="36" viewBox="0 0 56 36" xmlns="http://www.w3.org/2000/svg"><defs><linearGradient x1="50%" y1="0%" x2="50%" y2="100%" id="a"><stop stop-color="#14307A" offset="0%"/><stop stop-color="#0D4A8B" offset="45.879%"/><stop stop-color="#057FC6" offset="100%"/></linearGradient><linearGradient x1="50%" y1="0%" x2="50%" y2="100%" id="b"><stop stop-color="#14307A" offset="0%"/><stop stop-color="#0D4A8B" offset="47.461%"/><stop stop-color="#057FC6" offset="100%"/></linearGradient><linearGradient x1="49.72%" y1="-361.627%" x2="50%" y2="99.56%" id="c"><stop stop-color="#14307A" offset="0%"/><stop stop-color="#0D4A8B" offset="47.461%"/><stop stop-color="#057FC6" offset="100%"/></linearGradient></defs><g fill="none" fill-rule="evenodd"><path d="M0 3.75A3.749 3.749 0 013.75 0h48.5A3.756 3.756 0 0156 3.75v28.5A3.749 3.749 0 0152.25 36H3.75A3.756 3.756 0 010 32.25V3.75z" fill="#000" fill-rule="nonzero"/><path d="M1.25 3.75v28.5c0 1.375 1.123 2.5 2.5 2.5h48.5c1.382 0 2.5-1.118 2.5-2.5V3.75c0-1.375-1.123-2.5-2.5-2.5H3.75a2.499 2.499 0 00-2.5 2.5z" fill="#FFF"/><g fill-rule="nonzero"><path d="M32.924 0c1.157 0 2.088.407 2.793 1.221.696.799 1.043 1.843 1.043 3.134 0 1.43-.387 2.556-1.162 3.375-.727.772-1.66 1.157-2.801 1.157-1.13 0-2.05-.401-2.762-1.205-.71-.809-1.066-1.864-1.066-3.166 0-1.35.374-2.445 1.122-3.287C30.829.41 31.773 0 32.924 0zm-2.132 6.991c.504.702 1.172 1.053 2.005 1.053.849 0 1.525-.351 2.03-1.053.472-.67.708-1.513.708-2.531 0-.938-.226-1.733-.677-2.387-.498-.74-1.18-1.109-2.045-1.109s-1.547.362-2.045 1.085c-.457.664-.685 1.5-.685 2.507 0 .965.236 1.776.709 2.435z" fill="url(#a)" transform="translate(5 14)"/><path d="M26.9 0c-1.321 0-2.393.415-3.216 1.246-.827.835-1.241 1.925-1.241 3.27 0 1.377.403 2.459 1.21 3.247.764.744 1.766 1.117 3.008 1.117.483 0 .936-.043 1.36-.13.372-.069.67-.163.892-.28l-.23-.876a3.47 3.47 0 01-.812.257c-.324.064-.65.096-.98.096-1.029 0-1.835-.313-2.419-.94-.573-.616-.86-1.457-.86-2.523 0-1.12.306-1.993.916-2.62.594-.621 1.398-.932 2.411-.932.664 0 1.24.12 1.727.362l.263-.908a3.065 3.065 0 00-.724-.257A6.134 6.134 0 0026.9 0zM18.36.16L16.8 3.36 15.225.16h-2.332l2.88 5.175v3.503h2.07V5.336L20.7.16zM8.746.16h2.603l3.016 8.68h-2.348l-.589-1.97H8.667L8.07 8.84H5.73L8.746.16zm1.29 2.25l-.804 2.58h1.6l-.796-2.58zM44.026.16l-1.52 4.171c-.408 1.147-.708 2.114-.9 2.901h-.039c-.19-.782-.477-1.749-.86-2.9L39.252.16h-1.4l-.605 8.614h1.05l.239-3.696c.085-1.474.138-2.74.16-3.801h.023c.207.884.536 2 .987 3.35l1.385 4.099h.835l1.496-4.187a48.985 48.985 0 001.083-3.262h.04c-.01.739.031 1.98.127 3.72l.215 3.777h1.074v-.002L45.427.16h-1.4zM0 .338C.743.22 1.634.16 2.674.16c1.2 0 2.09.23 2.674.69.287.226.512.507.677.845.175.353.262.739.262 1.157 0 .423-.071.811-.215 1.165a2.26 2.26 0 01-.597.884c-.641.6-1.575.903-2.801.908h-.04l-.573.008V8.87H0V.337zM2.07 1.84v2.338h.604c.472 0 .844-.11 1.114-.329.276-.23.414-.544.414-.94 0-.36-.12-.638-.358-.836-.244-.203-.589-.305-1.035-.305-.318 0-.565.024-.74.072z" fill="url(#b)" transform="translate(5 14)"/><path d="M21.114 7.071a.88.88 0 00-.637.266.888.888 0 00-.262.634c0 .247.087.461.262.643.18.188.393.282.637.282h.016c.042 0 .085-.003.127-.009a.882.882 0 00.494-.273.897.897 0 00.262-.643.888.888 0 00-.262-.634.874.874 0 00-.494-.25.516.516 0 00-.127-.016h-.016z" fill="url(#c)" transform="translate(5 14)"/></g></g></svg>