<?xml version="1.0" encoding="UTF-8"?>
<svg width="56px" height="36px" viewBox="0 0 56 36" version="1.1" xmlns="http://www.w3.org/2000/svg" xmlns:xlink="http://www.w3.org/1999/xlink">
    <!-- Generator: Sketch 47.1 (45422) - http://www.bohemiancoding.com/sketch -->
    <title>PM/Paymentwall</title>
    <desc>Created with Sketch.</desc>
    <defs></defs>
    <g id="Page-1" stroke="none" stroke-width="1" fill="none" fill-rule="evenodd">
        <g id="PM/Paymentwall">
            <g id="Group-3">
                <path d="M0,3.75075247 C0,1.67926908 1.67596877,0 3.75035585,0 L52.2496442,0 C54.3209085,0 56,1.68806916 56,3.75075247 L56,32.2492475 C56,34.3207309 54.3240312,36 52.2496442,36 L3.75035585,36 C1.67909151,36 0,34.3119308 0,32.2492475 L0,3.75075247 Z" id="Rectangle-2" fill="#000000" fill-rule="nonzero"></path>
                <path d="M1.25,3.75075247 L1.25,32.2492475 C1.25,33.6250965 2.37296468,34.75 3.75035585,34.75 L52.2496442,34.75 C53.6324061,34.75 54.75,33.6316447 54.75,32.2492475 L54.75,3.75075247 C54.75,2.37490355 53.6270353,1.25 52.2496442,1.25 L3.75035585,1.25 C2.36759386,1.25 1.25,2.36835527 1.25,3.75075247 Z" id="Path" fill="#FFFFFF"></path>
            </g>
            <g id="test" transform="translate(4.000000, 15.000000)" fill-rule="nonzero">
                <path d="M10.3486239,5.25 L10.3486239,0.125 L12.6165138,0.125 C13.6293578,0.125 14.1798165,0.9 14.1798165,1.825 C14.1798165,2.75 13.6293578,3.525 12.6165138,3.525 L11.5155963,3.525 L11.5155963,5.25 L10.3486239,5.25 Z M12.9908257,1.825 C12.9908257,1.475 12.7706422,1.275 12.440367,1.275 L11.493578,1.275 L11.493578,2.375 L12.440367,2.375 C12.7706422,2.375 12.9908257,2.175 12.9908257,1.825 Z M16.3376147,5.25 L16.3376147,4.875 C16.1394495,5.15 15.7431193,5.325 15.3247706,5.325 C14.8183486,5.325 14.2018349,4.95 14.2018349,4.1 C14.2018349,3.2 14.8183486,2.9 15.3247706,2.9 C15.7651376,2.9 16.1394495,3.05 16.3376147,3.325 L16.3376147,2.875 C16.3376147,2.55 16.0954128,2.35 15.6770642,2.35 C15.346789,2.35 15.0165138,2.5 14.7522936,2.75 L14.3779817,2 C14.7963303,1.6 15.3688073,1.425 15.853211,1.425 C16.6458716,1.425 17.3724771,1.75 17.3724771,2.9 L17.3724771,5.25 L16.3376147,5.25 Z M16.3376147,4.275 L16.3376147,3.95 C16.2275229,3.775 15.9853211,3.7 15.7651376,3.7 C15.4788991,3.7 15.2366972,3.85 15.2366972,4.125 C15.2366972,4.425 15.4788991,4.55 15.7651376,4.55 C15.9853211,4.55 16.2275229,4.475 16.3376147,4.275 L16.3376147,4.275 Z M17.8788991,5.625 C17.9449541,5.675 18.0550459,5.7 18.1431193,5.7 C18.3853211,5.7 18.5394495,5.65 18.5834862,5.5 L18.6495413,5.3 L17.3504587,1.55 L18.4513761,1.55 L19.1779817,3.9 L19.9266055,1.55 L21.0275229,1.55 L19.5522936,5.8 C19.2880734,6.575 18.8036697,6.75 18.1651376,6.775 C18.0770642,6.775 17.8348624,6.75 17.7247706,6.725 L17.8788991,5.625 Z M25.3431193,5.25 L25.3431193,3 C25.3431193,2.725 25.2110092,2.5 24.9027523,2.5 C24.6165138,2.5 24.4183486,2.7 24.3082569,2.85 L24.3082569,5.25 L23.2733945,5.25 L23.2733945,3 C23.2733945,2.725 23.1633028,2.5 22.8330275,2.5 C22.546789,2.5 22.3706422,2.7 22.2605505,2.85 L22.2605505,5.25 L21.2256881,5.25 L21.2256881,1.525 L22.2605505,1.525 L22.2605505,1.975 C22.3926606,1.75 22.8110092,1.425 23.3394495,1.425 C23.8018349,1.425 24.1321101,1.65 24.2642202,2.075 C24.4623853,1.75 24.8807339,1.425 25.387156,1.425 C25.9816514,1.425 26.3779817,1.775 26.3779817,2.55 L26.3779817,5.25 L25.3431193,5.25 Z M26.7082569,3.375 C26.7082569,2.3 27.4348624,1.425 28.4477064,1.425 C29.4165138,1.425 30.1211009,2.225 30.1211009,3.5 L30.1211009,3.75 L27.787156,3.75 C27.853211,4.1 28.1394495,4.4 28.6018349,4.4 C28.8220183,4.4 29.240367,4.275 29.4165138,4.075 L29.8568807,4.8 C29.5266055,5.125 28.9981651,5.3 28.4917431,5.3 C27.5009174,5.325 26.7082569,4.575 26.7082569,3.375 L26.7082569,3.375 Z M28.4477064,2.35 C27.9853211,2.35 27.8091743,2.725 27.787156,2.975 L29.1302752,2.975 C29.1082569,2.725 28.9321101,2.35 28.4477064,2.35 Z M32.653211,5.25 L32.653211,3.1 C32.653211,2.65 32.4330275,2.475 32.1247706,2.475 C31.8165138,2.475 31.6183486,2.675 31.4862385,2.825 L31.4862385,5.25 L30.4513761,5.25 L30.4513761,1.525 L31.4862385,1.525 L31.4862385,1.975 C31.6844037,1.725 32.0587156,1.425 32.6091743,1.425 C33.3577982,1.425 33.6880734,1.925 33.6880734,2.6 L33.6880734,5.25 L32.653211,5.25 Z M34.4146789,4.25 L34.4146789,2.575 L33.8642202,2.575 L33.8642202,1.525 L34.4146789,1.525 L34.4146789,0.525 L35.4495413,0.525 L35.4495413,1.55 L36.1100917,1.55 L36.1100917,2.575 L35.4495413,2.575 L35.4495413,3.925 C35.4495413,4.15 35.559633,4.3 35.7357798,4.3 C35.8458716,4.3 35.9559633,4.25 36,4.2 L36.1981651,5.1 C36.066055,5.25 35.8018349,5.35 35.4275229,5.35 C34.7889908,5.325 34.4146789,4.95 34.4146789,4.25 Z M39.5889908,5.25 L38.9724771,2.95 L38.3559633,5.25 L37.2330275,5.25 L36.2642202,1.55 L37.3431193,1.55 L37.8715596,3.825 L38.5100917,1.55 L39.4348624,1.55 L40.0733945,3.825 L40.6018349,1.55 L41.6807339,1.55 L40.7119266,5.25 L39.5889908,5.25 Z M43.7724771,5.25 L43.7724771,4.875 C43.5743119,5.15 43.1779817,5.325 42.759633,5.325 C42.253211,5.325 41.6366972,4.95 41.6366972,4.1 C41.6366972,3.2 42.253211,2.9 42.759633,2.9 C43.2,2.9 43.5743119,3.05 43.7724771,3.325 L43.7724771,2.875 C43.7724771,2.55 43.5302752,2.35 43.1119266,2.35 C42.7816514,2.35 42.4513761,2.5 42.187156,2.75 L41.812844,2 C42.2311927,1.6 42.8036697,1.425 43.2880734,1.425 C44.0807339,1.425 44.8073394,1.75 44.8073394,2.9 L44.8073394,5.25 L43.7724771,5.25 L43.7724771,5.25 Z M43.7724771,4.275 L43.7724771,3.95 C43.6623853,3.775 43.4201835,3.7 43.2,3.7 C42.9137615,3.7 42.6715596,3.85 42.6715596,4.125 C42.6715596,4.425 42.9137615,4.55 43.2,4.55 C43.4201835,4.55 43.6623853,4.475 43.7724771,4.275 L43.7724771,4.275 Z M45.3577982,5.25 L45.3577982,0.125 L46.3926606,0.125 L46.3926606,5.25 L45.3577982,5.25 Z M46.8770642,5.25 L46.8770642,0.125 L47.9119266,0.125 L47.9119266,5.25 L46.8770642,5.25 Z" id="Shape" fill="#4A4E51"></path>
                <g id="Group" fill="#FCBF14">
                    <path d="M5.98899083,5.25 L6.49541284,3.7 L8.36697248,3.7 L8.8733945,5.25 L5.98899083,5.25 Z M3.01651376,5.25 L3.52293578,3.7 L5.39449541,3.7 L5.90091743,5.25 L3.01651376,5.25 Z M4.51376147,3.4 L4.99816514,1.85 L6.86972477,1.85 L7.37614679,3.4 L4.51376147,3.4 Z M1.49724771,3.4 L2.00366972,1.85 L3.87522936,1.85 L4.35963303,3.4 L1.49724771,3.4 Z M0,5.25 L0.506422018,3.7 L2.37798165,3.7 L2.88440367,5.25 L0,5.25 Z" id="Shape"></path>
                    <polygon id="Shape" points="3.01651376 1.575 3.52293578 0 5.37247706 0 5.87889908 1.575"></polygon>
                </g>
            </g>
        </g>
    </g>
</svg>