<?xml version="1.0" encoding="UTF-8"?><svg width="56" height="36" viewBox="0 0 56 36" xmlns="http://www.w3.org/2000/svg"><g fill="none" fill-rule="evenodd"><path d="M0 3.75A3.749 3.749 0 013.75 0h48.5A3.756 3.756 0 0156 3.75v28.5A3.749 3.749 0 0152.25 36H3.75A3.756 3.756 0 010 32.25V3.75z" fill="#000" fill-rule="nonzero"/><path d="M1.25 3.75v28.5c0 1.375 1.123 2.5 2.5 2.5h48.5c1.382 0 2.5-1.118 2.5-2.5V3.75c0-1.375-1.123-2.5-2.5-2.5H3.75a2.499 2.499 0 00-2.5 2.5z" fill="#FFF"/><g fill="#2D3844" fill-rule="nonzero"><path d="M7.576 13.167h2.852c1.288 0 2.116.25 2.76.75.46.416.644.916.644 1.583 0 1.917-1.932 2.917-4.324 2.917H7.852l-.736 2.333H5.184l2.392-7.583zm2.116 3.75c1.288 0 2.208-.5 2.208-1.334 0-.25-.092-.5-.276-.666-.368-.167-.736-.25-1.288-.25H9.048L8.312 17h1.38v-.083zM13.28 19.25c0-1.333 1.288-2.083 2.944-2.083.736 0 1.38.083 1.932.25v-.084c0-.166.092-.25.092-.416 0-.417-.368-.667-1.288-.667-.644 0-1.288.167-1.84.333l-.276-1.333a7.824 7.824 0 012.576-.417c1.84 0 2.76.667 2.76 1.75 0 .334-.092.584-.184.917l-1.012 3.167h-1.84l.184-.667c-.552.5-1.196.75-2.024.75-1.196.083-2.024-.583-2.024-1.5m4.508-.75l.092-.167a5.958 5.958 0 00-1.288-.166c-.828 0-1.38.333-1.38.916 0 .334.368.584.92.584.736 0 1.472-.5 1.656-1.167M19.168 22.083l1.012-1.166c.184.166.46.25.736.25.276 0 .46-.084.736-.334L20.824 15h1.932l.276 3.917L25.608 15h2.116l-4.232 5.917c-.92 1.166-1.656 1.583-2.852 1.583-.644-.083-1.104-.167-1.472-.417M28.552 14.917h1.932l-.184.583c.46-.333 1.012-.75 1.84-.75.92 0 1.564.417 1.84 1.083.644-.583 1.38-1.083 2.484-1.083 1.196 0 1.932.667 1.932 1.667 0 .333-.092.75-.184 1.083L37.2 20.583h-1.932l1.012-3.166c.092-.167.092-.417.092-.5 0-.5-.276-.75-.92-.75-.736 0-1.196.5-1.472 1.166l-1.012 3.25h-1.932l1.012-3.166c.092-.167.092-.417.092-.5 0-.5-.276-.75-.92-.75-.736 0-1.196.5-1.472 1.166l-1.012 3.25h-1.932l1.748-5.666zM38.396 19.25c0-1.333 1.288-2.083 2.944-2.083.736 0 1.38.083 1.932.25v-.084c0-.166.092-.25.092-.416 0-.417-.368-.667-1.288-.667-.644 0-1.288.167-1.84.333l-.276-1.333a7.824 7.824 0 012.576-.417c1.84 0 2.76.667 2.76 1.75 0 .334-.092.584-.184.917L44.1 20.667h-1.84l.184-.667c-.552.5-1.196.75-2.024.75-1.196.083-2.024-.583-2.024-1.5m4.508-.75l.092-.167a5.958 5.958 0 00-1.288-.166c-.828 0-1.38.333-1.38.916 0 .334.368.584.92.584.736 0 1.472-.5 1.656-1.167M45.848 19.667c0-.25.092-.5.092-.75l.828-2.667h-.828l.46-1.417h.828l.46-1.5h1.932l-.46 1.5h1.564l-.368 1.5h-1.564l-.736 2.417c0 .083-.092.167-.092.25 0 .25.184.333.552.333.276 0 .644-.083 1.012-.166l-.46 1.416c-.368.167-.92.25-1.38.25-1.288 0-1.84-.5-1.84-1.166"/></g></g></svg>