<svg width="56" height="36" viewBox="0 0 56 36" xmlns="http://www.w3.org/2000/svg" xmlns:xlink="http://www.w3.org/1999/xlink"><defs><path id="a" d="M.02 0h2.54v1.68H.02z"/><path id="c" d="M0 0h1.9v1.97H0z"/><path id="e" d="M0 0h2.95V1H0z"/></defs><g fill="none" fill-rule="evenodd"><path d="M0 3.75A3.75 3.75 0 013.75 0h48.5A3.76 3.76 0 0156 3.75v28.5A3.75 3.75 0 0152.25 36H3.75A3.76 3.76 0 010 32.25V3.75z" fill="#000" fill-rule="nonzero"/><path d="M1.25 3.75v28.5a2.5 2.5 0 002.5 2.5h48.5a2.5 2.5 0 002.5-2.5V3.75a2.5 2.5 0 00-2.5-2.5H3.75a2.5 2.5 0 00-2.5 2.5z" fill="#FFF"/><g><path d="M44 22.3a.6.6 0 10-1.02.44c-.06.07-.1.14-.15.22a.35.35 0 01.19.63c.1.13.17.35.17.6l-.01.15c.35-.1.65-.32.86-.61a1.71 1.71 0 00-.29-.94.6.6 0 00.25-.48" fill="#E87F2C"/><path d="M42.73 21.18a1.62 1.62 0 00-1.34 2.53v-.07c0-.32.1-.6.23-.77a.43.43 0 01.3-.74.43.43 0 01.26.77c.12.17.2.44.2.74 0 .27-.06.52-.16.69l.18.05-.02-.2c0-.26.08-.49.2-.62a.35.35 0 01.24-.6h.01l.15-.22a.6.6 0 11.78.04c.16.22.27.56.28.95a1.62 1.62 0 00-1.31-2.55" fill="#DB422D"/><path d="M42.39 23.64c0-.3-.09-.57-.21-.74a.43.43 0 00-.26-.77.43.43 0 00-.3.74c-.14.16-.23.45-.23.77v.06c.2.3.49.51.83.63.1-.17.17-.42.17-.69M43.19 24.18c0-.24-.07-.46-.17-.6a.35.35 0 00-.19-.62h-.02a.35.35 0 00-.24.6.98.98 0 00-.19.62c0 .07 0 .13.02.2a1.62 1.62 0 00.78-.04v-.16" fill="#FFFFFE"/><path d="M42.63 23.79a.28.28 0 10-.47.2.63.63 0 00-.12.27c.18.08.39.14.6.15a.76.76 0 00-.12-.4.28.28 0 00.1-.22" fill="#E87F2C"/><g fill="#D9362C"><path d="M45.56 22.8h-.55v-1.62h.86v.42h-.35v.16h.35v.48h-.3v.55M47.59 22.8l-.25-.63.14-1h.45l.27.4h.05l.24-.4h.44l.23 1.62h-.52l-.04-.7h-.1l-.27.51h-.04l-.28-.51h-.1l-.05.7h-.17M49.19 22.8h.53v-1.62h-.53zM49.82 21.18h.51v1.13h.36v.48h-.87v-1.61"/><path d="M50.44 21.18h.53l.12.2h.05l.13-.2h.59l-.44.74v.87h-.62v-.87l-.36-.57v-.17M46.88 21.18h-.56l-.4 1.05-.15.35v.21h.52l.3-.9h.05l.08.22h-.13l-.12.41h.4l.11.27h.49l-.59-1.61"/></g><g transform="translate(44.844 23.346)"><mask id="b" fill="#fff"><use xlink:href="#a"/></mask><path d="M.02.23C.02.14.09.09.2.09h.49c.4 0 .68.38.7.67 0 .37-.3.83-.58.83H.62v-.53C.75 1.06.85.9.85.82.85.72.75.57.55.6v1H.03V.22" fill="#EB9031" mask="url(#b)"/><path d="M1.73 0c-.2 0-.37.07-.51.17.12.1.2.24.26.39a.33.33 0 11-.01.55.84.84 0 01-.28.37A.84.84 0 101.73 0" fill="#EB9031" mask="url(#b)"/></g><path fill="#EB9031" d="M47.52 24.94v-1.52h.54v1.03h.33v.5h-.87M50.1 23.42h-.54l-.36.96h.24v.56h.1l.28-.85h.04l.08.2h-.1l-.14.4h.38l.1.25h.46l-.55-1.52"/><path fill="#EB9031" d="M48.49 24.94v-1.52h.53v1.03h.34v.5h-.87M50.7 24.94l-.17-.44v-.95c.1-.13.45-.16.53-.16.07 0 .66 0 .66.33 0 0 .04.17-.1.34 0 0 .15.07.15.2v.68h-.55v-.57h-.13v-.34c.09-.02.11-.16.01-.16s-.1.06-.1.1v.97h-.3"/><g fill="#C00"><path d="M30.92 23.92h.18v.1a.3.3 0 01.26-.12c.21 0 .36.17.36.43 0 .27-.14.44-.36.44a.28.28 0 01-.25-.12v.4h-.18v-1.13zm.61.42c0-.17-.06-.3-.2-.3-.16 0-.23.14-.23.3 0 .16.07.28.23.28.13 0 .2-.11.2-.28zm.49-.31a.28.28 0 01.25-.13c.17 0 .28.11.28.3v.55h-.18v-.54c0-.1-.06-.15-.16-.15-.11 0-.2.08-.2.2v.49h-.17V23.6h.18v.43zm1.18.61a.3.3 0 01-.25.12c-.17 0-.28-.08-.28-.24 0-.19.15-.24.34-.27.12-.02.2-.03.2-.1s-.06-.12-.16-.12c-.11 0-.17.05-.17.15h-.18c0-.16.11-.28.34-.28.23 0 .34.1.34.29v.36c0 .06.01.08.07.07v.12a.16.16 0 01-.08.02c-.1 0-.15-.04-.17-.12zm0-.2v-.12a.55.55 0 01-.16.05c-.12.03-.19.05-.19.15 0 .09.06.11.14.11.14 0 .22-.1.22-.18zm.54-.39c.05-.08.12-.14.22-.14h.05v.17h-.04c-.13 0-.23.08-.23.24v.43h-.18v-.83h.18v.13zm.36-.13h.18v.11a.28.28 0 01.24-.13c.1 0 .19.05.23.14.06-.09.15-.14.25-.14.17 0 .27.1.27.28v.57h-.19v-.54c0-.1-.05-.16-.13-.16-.1 0-.18.08-.18.2v.5h-.18v-.55c0-.1-.05-.15-.13-.15-.1 0-.18.08-.18.2v.5h-.18v-.83zm1.82.72a.3.3 0 01-.26.12c-.16 0-.28-.08-.28-.24 0-.19.15-.24.34-.27.12-.02.2-.03.2-.1s-.06-.12-.16-.12c-.11 0-.17.05-.17.15h-.17c0-.16.1-.28.34-.28.22 0 .33.1.33.29v.36c0 .06.02.08.07.07v.12a.16.16 0 01-.08.02c-.1 0-.15-.04-.16-.12zm0-.2v-.12a.55.55 0 01-.17.05c-.11.03-.19.05-.19.15 0 .09.07.11.14.11.15 0 .22-.1.22-.18zm.3-.1c0-.25.16-.44.41-.44.21 0 .34.11.37.3h-.18a.17.17 0 00-.18-.16c-.15 0-.23.12-.23.29 0 .17.07.29.23.29.1 0 .17-.06.19-.17H37c-.01.19-.15.32-.36.32-.25 0-.41-.2-.41-.44zm.89.71v-.15l.07.01c.07 0 .1-.02.13-.09l.03-.1-.3-.8h.18l.16.43.05.17.06-.17.14-.43h.2l-.34.91c-.06.18-.13.23-.27.23a.4.4 0 01-.11 0zm.97-1.13c-.1 0-.18-.09-.18-.2 0-.1.08-.18.18-.18.1 0 .19.07.19.19 0 .11-.09.19-.19.19zm0-.35c-.08 0-.14.07-.14.16 0 .08.05.15.14.15.08 0 .15-.06.15-.15 0-.1-.07-.16-.15-.16zm-.03.26H38v-.2h.08c.05 0 .08.02.08.06 0 .04-.03.05-.06.05l.06.1h-.04l-.05-.1h-.03v.1zm.04-.07c.03 0 .05 0 .05-.06 0-.04-.02-.04-.05-.04h-.05v.1h.05zM37.3 22.37c.02.14.1.19.26.19.14 0 .22-.05.22-.13 0-.12-.1-.13-.32-.18a1.8 1.8 0 01-.5-.18.48.48 0 01-.2-.42c0-.36.27-.59.76-.59.47 0 .75.21.78.58h-.56c-.01-.11-.09-.16-.23-.16-.12 0-.19.04-.19.12 0 .1.1.12.27.16.23.06.41.1.53.18.16.1.23.24.23.43 0 .4-.28.63-.81.63-.5 0-.78-.23-.82-.63h.57zM35.13 22.23c-.03.48-.35.77-.87.77-.59 0-.94-.37-.94-.97s.36-.97.93-.97c.53 0 .84.27.87.75h-.55c-.02-.19-.12-.29-.31-.29-.24 0-.35.17-.35.51 0 .33.13.5.36.5.18 0 .3-.1.31-.3h.55zM35 21.12h.6l.31 1.18.33-1.18h.58l-.61 1.83h-.59zM31.44 21.07a.26.26 0 00-.2.08l-.38.38c-.1.1-.1.28 0 .38L31.95 23l1.08-1.09c.1-.1.1-.27 0-.38l-.39-.38a.27.27 0 00-.38 0l-.31.31-.32-.31a.27.27 0 00-.2-.08z"/></g><g fill-rule="nonzero"><path d="M10.25 10.03c-2.46 0-4.47 2-4.47 4.47v4.47h4.47a4.47 4.47 0 000-8.94" fill="#FFF"/><path d="M10.25 16.73H8.02V14.5a2.24 2.24 0 112.23 2.23m0-6.7c-2.46 0-4.47 2-4.47 4.47v4.47h4.47a4.47 4.47 0 000-8.94" fill="#009940"/><path d="M8.02 16.73V14.5a2.24 2.24 0 013.81-1.58l2.74 2.74a4.48 4.48 0 00-4.32-5.63c-2.46 0-4.47 2-4.47 4.47v4.47h4.47l-2.23-2.23z" fill="#00CC5C"/><g fill="#4A5969"><path d="M19.25 14.58c.3 0 .53-.07.7-.22a.72.72 0 00.26-.58c0-.27-.09-.47-.26-.6-.18-.14-.41-.2-.7-.2h-.92v1.6h.92zm-1.7-2.31h1.76c.26 0 .5.03.7.1.22.07.4.17.54.3.15.14.26.3.34.48.07.18.11.38.11.6v.02a1.37 1.37 0 01-.52 1.13 1.7 1.7 0 01-.57.29c-.21.06-.44.1-.69.1h-.89v1.43h-.77v-4.45zM23.4 15.31a1.99 1.99 0 00-.77-.13.99.99 0 00-.56.14c-.14.1-.2.22-.2.38v.01c0 .16.06.29.18.37a.8.8 0 00.46.13c.13 0 .25-.02.36-.05.1-.04.2-.08.28-.15a.63.63 0 00.25-.51v-.19zm-.02 1.4v-.4c-.11.13-.26.24-.43.34-.18.09-.4.14-.65.14-.16 0-.32-.02-.46-.07a1.12 1.12 0 01-.38-.2.98.98 0 01-.36-.77v-.01c0-.19.04-.35.1-.49a.95.95 0 01.29-.34c.12-.1.26-.16.43-.2a2.95 2.95 0 011.47.07v-.06c0-.24-.07-.42-.21-.54-.14-.12-.35-.18-.62-.18-.19 0-.36.02-.5.05-.15.04-.3.1-.46.16l-.2-.62a2.82 2.82 0 011.28-.28c.5 0 .86.12 1.1.37.25.25.37.6.37 1.05v1.99h-.77zM25.36 17.75a1.55 1.55 0 01-.8-.2l.27-.57c.07.04.14.07.22.09.07.02.15.04.23.04.11 0 .2-.03.27-.09a.76.76 0 00.2-.3l-1.4-3.36h.83l.95 2.5.87-2.5h.8l-1.33 3.45c-.07.18-.14.32-.21.44-.07.12-.15.22-.24.3a.86.86 0 01-.3.15c-.1.04-.22.05-.36.05M28.17 12.27h.72l2.38 3.07v-3.07h.78v4.45h-.66l-2.44-3.17v3.17h-.78zM35.02 14.8a1.3 1.3 0 00-.08-.34.9.9 0 00-.18-.28.8.8 0 00-.6-.26.78.78 0 00-.58.25 1.1 1.1 0 00-.28.63h1.72zm-.76 2c-.25 0-.47-.05-.68-.13a1.65 1.65 0 01-1.05-1.62v-.01c0-.24.04-.47.12-.68a1.6 1.6 0 011.52-1.07c.27 0 .5.05.7.15.2.1.37.23.5.4.14.16.24.35.31.57a2.31 2.31 0 01.09.9H33.3c.04.28.15.49.33.64.18.14.39.21.64.21.19 0 .35-.03.5-.1.13-.06.27-.16.4-.3l.46.4a1.73 1.73 0 01-1.37.63M38.47 15.31a1.99 1.99 0 00-.77-.13.99.99 0 00-.57.14c-.13.1-.2.22-.2.38v.01c0 .16.06.29.19.37a.8.8 0 00.46.13c.12 0 .24-.02.35-.05a.9.9 0 00.28-.15.63.63 0 00.25-.51v-.19zm-.02 1.4v-.4a1.39 1.39 0 01-1.09.48c-.16 0-.31-.02-.46-.07a1.13 1.13 0 01-.38-.2.98.98 0 01-.36-.77v-.01c0-.19.04-.35.1-.49a.95.95 0 01.29-.34c.12-.1.26-.16.43-.2a2.95 2.95 0 011.47.07v-.06c0-.24-.07-.42-.21-.54-.14-.12-.35-.18-.61-.18-.2 0-.36.02-.51.05-.15.04-.3.1-.45.16l-.21-.62a2.82 2.82 0 011.28-.28c.5 0 .86.12 1.1.37.25.25.37.6.37 1.05v1.99h-.76zM39.9 13.36h.78v.76c.1-.26.25-.46.45-.61.2-.15.44-.22.74-.21v.81h-.05c-.17 0-.32.03-.46.08a.98.98 0 00-.36.25c-.1.11-.18.25-.24.42-.05.17-.08.36-.08.58v1.28h-.78v-3.36zM42.39 12.27h.88l1.44 2.1 1.43-2.1h.88v4.45h-.82v-3.2l-1.49 2.1h-.02l-1.48-2.08v3.18h-.82zM50.02 14.8a1.3 1.3 0 00-.08-.34.9.9 0 00-.17-.28.8.8 0 00-.6-.26.78.78 0 00-.59.25 1.1 1.1 0 00-.28.63h1.72zm-.76 2c-.24 0-.47-.05-.68-.13a1.65 1.65 0 01-1.04-1.62v-.01c0-.24.04-.47.12-.68a1.6 1.6 0 012.72-.53c.13.17.23.36.3.58a2.31 2.31 0 01.1.9H48.3c.05.28.16.49.33.64.18.14.39.21.64.21.2 0 .36-.03.5-.1.14-.06.27-.16.4-.3l.46.4a1.72 1.72 0 01-1.37.63"/></g></g><path fill="#EC1D24" fill-rule="nonzero" d="M25.77 24.93h.98v-.98h-.98z"/><path d="M27.26 21h-2.48V22h1.31c.3-.43.7-.77 1.17-.98" fill="#F4811F" fill-rule="nonzero"/><g transform="translate(25.835 21.001)"><mask id="d" fill="#fff"><use xlink:href="#c"/></mask><path d="M1 1.97c.16-.43.48-.79.9-.98V.01A2.68 2.68 0 000 1.97h1z" fill="#ED2525" fill-rule="nonzero" mask="url(#d)"/></g><path d="M27.4 24.44c.06 0 .1-.03.1-.08 0-.06-.04-.09-.1-.09h-.07v.17h.07zm-.07.29h-.1v-.55h.18c.1 0 .19.08.19.17 0 .08-.05.14-.12.17l.12.2h-.12l-.11-.2h-.04v.2zm.06.13a.4.4 0 00.39-.4c0-.23-.17-.4-.4-.4-.21 0-.38.17-.38.4s.17.4.39.4zm0-.9c.28 0 .5.23.5.5a.5.5 0 11-.5-.5z" fill="#007F5F" fill-rule="nonzero"/><g transform="translate(24.784 23.116)"><mask id="f" fill="#fff"><use xlink:href="#e"/></mask><path d="M.66 0h-.2v1h.39V.8H.66V0zm1.3 1h.39V.8h-.18v-.2h.18v-.2h-.18V.24h.18V0h-.39v1zM.91 1h.4V.8h-.19v-.2h.18v-.2h-.18V.24h.18V0H.91v1zM0 1h.39V.8H.2v-.2h.18v-.2H.2V.24h.18V0H0v1zm2.77-1c-.07 0-.1.02-.15.06V0h-.2v1h.2V.32c0-.04.03-.07.06-.07s.06.03.06.07V1h.2V.32C2.95.1 2.89 0 2.78 0zM1.9 0l-.15 1H1.5l-.15-1h.19l.08.68.08-.68h.2z" fill="#008062" fill-rule="nonzero" mask="url(#f)"/></g><path d="M3.3 24.05l.28-.65h1.3l.28.65h.3l-1.1-2.51H4.1L3 24.04h.3zm1.48-.89h-1.1l.55-1.28.55 1.28zm1.74.91a1 1 0 00.34-.06.8.8 0 00.28-.16l-.1-.22a.79.79 0 01-.5.2.52.52 0 01-.4-.17.71.71 0 01-.16-.48c0-.21.05-.38.15-.5.1-.1.24-.17.42-.17.17 0 .33.07.5.2l.1-.21a.74.74 0 00-.28-.17.97.97 0 00-.34-.06.85.85 0 00-.45.12.77.77 0 00-.3.31c-.06.14-.1.3-.1.48s.04.34.1.47c.07.13.17.24.3.31.12.07.27.11.44.11zm1.7 0a1 1 0 00.35-.06.8.8 0 00.27-.16l-.1-.22a.79.79 0 01-.49.2.52.52 0 01-.42-.17.71.71 0 01-.14-.48c0-.21.04-.38.14-.5.1-.1.24-.17.42-.17.17 0 .33.07.5.2l.1-.21a.74.74 0 00-.28-.17.97.97 0 00-.34-.06.85.85 0 00-.44.12.77.77 0 00-.3.31c-.07.14-.1.3-.1.48s.03.34.1.47c.07.13.16.24.29.31.12.07.27.11.44.11zm1.74 0c.12 0 .24-.02.36-.06.12-.04.22-.1.3-.17l-.1-.21a.86.86 0 01-.56.2c-.18 0-.32-.05-.42-.15-.1-.1-.15-.25-.16-.46h1.26v-.1a.92.92 0 00-.2-.62.68.68 0 00-.53-.23.77.77 0 00-.71.43c-.08.14-.11.3-.11.48 0 .27.08.5.23.65.16.16.37.24.64.24zm.43-1.03h-1c.01-.17.06-.3.16-.4.09-.1.2-.14.36-.14.15 0 .27.04.35.14.08.09.13.22.13.4zm.96 1.65v-.96c.06.1.13.2.23.25.1.06.22.1.36.1a.74.74 0 00.67-.42c.06-.14.1-.3.1-.48s-.04-.34-.1-.48a.72.72 0 00-.67-.43.68.68 0 00-.36.1.57.57 0 00-.23.24v-.3h-.28v2.38h.28zm.53-.86a.47.47 0 01-.39-.17.77.77 0 01-.14-.49c0-.2.05-.37.14-.49.1-.1.22-.17.39-.17s.3.06.4.18c.08.12.13.28.13.49 0 .2-.05.37-.14.48a.48.48 0 01-.39.17zm1.98.24l.17-.01.02-.23-.16.01c-.25 0-.38-.14-.38-.4v-.9h.5v-.23h-.5v-.52h-.28v.52h-.34v.23h.34v.91c0 .2.05.35.16.46.1.1.26.16.47.16zm1.25 0c.12 0 .24-.02.36-.06.12-.04.22-.1.3-.17l-.1-.21a.86.86 0 01-.56.2c-.18 0-.32-.05-.42-.15-.1-.1-.16-.25-.17-.46h1.27v-.1a.92.92 0 00-.2-.62.68.68 0 00-.54-.23.77.77 0 00-.71.43c-.07.14-.1.3-.1.48 0 .27.07.5.23.65.15.16.37.24.64.24zm.43-1.03h-1c0-.17.06-.3.15-.4.1-.1.22-.14.37-.14s.26.04.35.14c.08.09.12.22.13.4zm1.34 1.03c.13 0 .25-.03.35-.09.1-.06.18-.14.23-.25v.32h.29v-2.51h-.29v1.07a.57.57 0 00-.23-.25.68.68 0 00-.35-.09.74.74 0 00-.4.11.73.73 0 00-.27.32c-.07.13-.1.29-.1.46 0 .18.03.34.1.48a.72.72 0 00.67.43zm.05-.24a.47.47 0 01-.39-.17.77.77 0 01-.14-.5c0-.2.05-.36.14-.48.1-.1.23-.17.4-.17.16 0 .3.06.38.17.1.12.14.28.14.5 0 .2-.05.37-.14.48a.47.47 0 01-.39.17zm2.82.24a.6.6 0 00.32-.08.5.5 0 00.2-.24v.3h.29v-1.1c0-.23-.06-.4-.16-.5-.11-.12-.28-.18-.5-.18a1.25 1.25 0 00-.69.22l.1.2c.2-.12.39-.18.59-.18.13 0 .23.03.29.1.06.06.09.17.09.31v.12h-.08c-.27 0-.48.02-.63.05a.6.6 0 00-.33.15.43.43 0 00-.1.3c0 .1.03.2.08.28.05.08.13.14.22.18.1.05.2.07.31.07zm.04-.23a.37.37 0 01-.26-.09.3.3 0 01-.1-.23c0-.08.03-.14.07-.18a.46.46 0 01.24-.09c.1-.02.26-.03.47-.03h.07v.1c0 .16-.05.28-.14.38-.1.1-.2.14-.35.14zm2.02.23l.18-.01.01-.23-.16.01c-.25 0-.37-.14-.37-.4v-.9h.49v-.23h-.5v-.52h-.28v.52h-.34v.23h.34v.91c0 .2.05.35.16.46.1.1.26.16.47.16z" fill="#68727C" fill-rule="nonzero"/><path stroke="#979797" stroke-width=".1" stroke-linecap="square" d="M29.28 20.5v5M40.28 20.5v5"/></g></g></svg>