<?xml version="1.0" encoding="UTF-8"?>
<svg width="56px" height="36px" viewBox="0 0 56 36" version="1.1" xmlns="http://www.w3.org/2000/svg" xmlns:xlink="http://www.w3.org/1999/xlink">
    <!-- Generator: Sketch 46.2 (44496) - http://www.bohemiancoding.com/sketch -->
    <title>PM/paypal</title>
    <desc>Created with Sketch.</desc>
    <defs></defs>
    <g id="Page-1" stroke="none" stroke-width="1" fill="none" fill-rule="evenodd">
        <g id="PM/paypal">
            <path d="M0,3.75075247 C0,1.67926908 1.67596877,0 3.75035585,0 L52.2496442,0 C54.3209085,0 56,1.68806916 56,3.75075247 L56,32.2492475 C56,34.3207309 54.3240312,36 52.2496442,36 L3.75035585,36 C1.67909151,36 0,34.3119308 0,32.2492475 L0,3.75075247 Z" id="Rectangle-2" fill="#000000" fill-rule="nonzero"></path>
            <path d="M1.25,3.75075247 L1.25,32.2492475 C1.25,33.6250965 2.37296468,34.75 3.75035585,34.75 L52.2496442,34.75 C53.6324061,34.75 54.75,33.6316447 54.75,32.2492475 L54.75,3.75075247 C54.75,2.37490355 53.6270353,1.25 52.2496442,1.25 L3.75035585,1.25 C2.36759386,1.25 1.25,2.36835527 1.25,3.75075247 Z" id="Path" fill="#FFFFFF"></path>
            <g id="Group-3" transform="translate(18.000000, 6.000000)" fill-rule="nonzero">
                <path d="M17.7541244,2.48904067 C16.6147631,1.20017789 14.5552007,0.647615132 11.9205128,0.647615132 L4.27372392,0.647615132 C3.73467125,0.647615132 3.2766126,1.03670578 3.19221547,1.56427487 L0.00826548043,21.6058208 C-0.0550323711,22.000991 0.253289422,22.3590085 0.656898297,22.3590085 L5.3776929,22.3590085 L6.56333653,14.8953582 L6.52658293,15.1290827 C6.61098007,14.6015137 7.06563561,14.212423 7.60400765,14.212423 L9.84733796,14.212423 C14.2543658,14.212423 17.7051196,12.4358459 18.7131209,7.29660691 C18.7430683,7.14461837 18.7689319,6.99668287 18.7913924,6.85212488 C18.6641161,6.78524993 18.6641161,6.78524993 18.7913924,6.85212488 C19.0915468,4.95260595 18.7892144,3.65969014 17.7541244,2.48904067" id="path14499" fill="#003087"></path>
                <path d="M17.7541244,2.48904067 C16.6147631,1.20017789 14.5552007,0.647615132 11.9205128,0.647615132 L4.27372392,0.647615132 C3.73467125,0.647615132 3.2766126,1.03670578 3.19221547,1.56427487 L0.00826548043,21.6058208 C-0.0550323711,22.000991 0.253289422,22.3590085 0.656898297,22.3590085 L5.3776929,22.3590085 L6.56333653,14.8953582 L6.52658293,15.1290827 C6.61098007,14.6015137 7.06563561,14.212423 7.60400765,14.212423 L9.84733796,14.212423 C14.2543658,14.212423 17.7051196,12.4358459 18.7131209,7.29660691 C18.7430683,7.14461837 18.7689319,6.99668287 18.7913924,6.85212488 C18.6641161,6.78524993 18.6641161,6.78524993 18.7913924,6.85212488 C19.0915468,4.95260595 18.7892144,3.65969014 17.7541244,2.48904067" id="path14527" fill="#003087"></path>
                <path d="M8.36970793,6.16783872 C8.49562302,6.10839432 8.63583116,6.07529459 8.78284552,6.07529459 L14.7777646,6.07529459 C15.4876534,6.07529459 16.1498987,6.1212289 16.7549717,6.21782606 C16.9285303,6.24549473 17.096644,6.27727047 17.2599933,6.31374772 C17.4233426,6.34952244 17.5819275,6.39007974 17.7357481,6.43466304 C17.8126584,6.45692767 17.8882074,6.47994887 17.9623952,6.50424001 C18.2598271,6.60286368 18.5368403,6.71769947 18.7913929,6.85212488 C19.0915472,4.95193044 18.7892149,3.65969014 17.7541249,2.48904067 C16.6140829,1.20017789 14.5552012,0.647615132 11.9205132,0.647615132 L4.27304376,0.647615132 C3.73467171,0.647615132 3.27661307,1.03670578 3.19221593,1.56427487 L0.00826594506,21.6051453 C-0.0550319064,22.000991 0.253289886,22.358333 0.65621814,22.358333 L5.37769336,22.358333 L6.56333699,14.8946826 L7.83746148,6.87711855 C7.88782752,6.55963139 8.09337538,6.29956212 8.36970793,6.16783872 Z" id="path14531" fill="#002F86"></path>
                <path d="M18.647373,6.59205561 L18.647373,6.59205561 C18.6242319,6.7372891 18.5990216,6.8845491 18.5691015,7.03653764 C17.5611002,12.1751011 14.1103464,13.9523537 9.70331856,13.9523537 L7.45930763,13.9523537 C6.92093558,13.9523537 6.46628004,14.3414444 6.38256353,14.8690135 L5.23367349,22.0982637 L4.90765553,24.1490957 C4.85252514,24.494954 5.12205148,24.8083882 5.4746137,24.8083882 L9.45421088,24.8083882 C9.92520135,24.8083882 10.3260877,24.4679338 10.3995949,24.0065642 L10.4384176,23.8052638 L11.1884631,19.0875397 L11.2368145,18.8267949 C11.3103217,18.3654253 11.7112081,18.024971 12.1821985,18.024971 L12.7777428,18.024971 C16.6327862,18.024971 19.651345,16.4706349 20.5334312,11.9751518 C20.9016477,10.0965735 20.7110736,8.52805179 19.7371034,7.42630379 C19.4417134,7.09260452 19.0748581,6.81699864 18.6474275,6.59205561" id="path14535" fill="#009CDE"></path>
                <path d="M17.7922368,6.07365416 C17.6384162,6.02907086 17.4798313,5.98854058 17.316482,5.95273884 C17.1531327,5.91691007 16.9843384,5.88518838 16.8114604,5.85749269 C16.2057068,5.76022003 15.5441421,5.71428571 14.8335727,5.71428571 L8.83933423,5.71428571 C8.69163924,5.71428571 8.5514311,5.74741246 8.42619664,5.80750535 C8.14918346,5.93922875 7.94431622,6.19862251 7.89395019,6.51678518 L6.61982569,14.5343493 L6.5830721,14.7680739 C6.66678861,14.2405048 7.12144415,13.8514141 7.6598162,13.8514141 L9.90382713,13.8514141 C14.310855,13.8514141 17.7616088,12.074837 18.7696101,6.93559803 C18.7995574,6.7836095 18.8247405,6.63634949 18.8478816,6.491116 C18.5926483,6.35736609 18.3163158,6.24185481 18.0188839,6.14390664 C17.9446961,6.11958847 17.8691471,6.09591879 17.7922368,6.07365416" id="path14539" fill="#012069"></path>
            </g>
        </g>
    </g>
</svg>