<svg width="56" height="36" xmlns="http://www.w3.org/2000/svg"><defs><linearGradient x1="27.29%" y1="11.1%" x2="66.62%" y2="67.09%" id="a"><stop stop-color="#8DB73C" offset="0%"/><stop stop-color="#408033" offset="100%"/></linearGradient></defs><g fill="none" fill-rule="evenodd"><path d="M0 3.75A3.75 3.75 0 0 1 3.75 0h48.5A3.76 3.76 0 0 1 56 3.75v28.5A3.75 3.75 0 0 1 52.25 36H3.75A3.76 3.76 0 0 1 0 32.25V3.75z" fill="#000" fill-rule="nonzero"/><path d="M1.25 3.75v28.5a2.5 2.5 0 0 0 2.5 2.5h48.5a2.5 2.5 0 0 0 2.5-2.5V3.75a2.5 2.5 0 0 0-2.5-2.5H3.75a2.5 2.5 0 0 0-2.5 2.5z" fill="#FFF"/><g><path d="M39.82 7.16c-1.11.08-2.24.3-2.98.57-2.21.82-4.13 2.26-5.32 4.03-.19.27-.54.86-.54.9l1.26.01h1.26l.13-.2a7.62 7.62 0 0 1 4.2-2.99 9.84 9.84 0 0 1 3.08-.3c.85.04 1.4.15 2.01.37a5.22 5.22 0 0 1 3.5 5.8 5.5 5.5 0 0 1-1.12 2.78c-.8.99-2.21 1.62-3.43 1.54-1.01-.06-1.8-.44-2.22-1.07l-.14-.22.08-.06a214.52 214.52 0 0 1 2.24-1.92c.5-.42.83-.76 1-1.04.34-.54.51-1.31.44-1.94a2.86 2.86 0 0 0-1.6-2.27 3.78 3.78 0 0 0-1.78-.36c-1.52 0-2.63.4-3.44 1.27-.2.22-.52.63-.52.68 0 .01.97.02 2.16.02 2.26 0 2.3 0 2.53.12.14.08.32.27.4.45a.9.9 0 0 1-.07.92c-.07.1-.57.55-2.2 1.93l-2.13 1.8 1.46-4.17c.02-.05-.05-.05-1.23-.05h-1.24l-1.24 3.75-1.24 3.8c-.01.06.02.06 1.27.06h1.27l.05-.14a264.85 264.85 0 0 1 .82-2.78l.15.22a7.04 7.04 0 0 0 1.23 1.6c.81.76 1.62 1.14 2.85 1.33a6.8 6.8 0 0 0 6.91-3.16c.44-.74.77-1.69.95-2.7.05-.3.06-.5.07-1.16 0-.52 0-.9-.02-1.07a6.79 6.79 0 0 0-2.76-4.73 8.46 8.46 0 0 0-5.35-1.63l-.75.01z" fill="#8DB73C" fill-rule="nonzero"/><path d="M8.75 3.9c1.75-.12 3.2.21 4.34 1.01a5.37 5.37 0 0 1 2.39 4.47 5.22 5.22 0 0 1-1.28 3.64 4.76 4.76 0 0 1-2.72 1.4l1.02.05c.43.01 2.98-.64 3.92-2.06.9-1.34 1.3-2.1 1.3-4a6.5 6.5 0 0 0-1.3-3.36 9.87 9.87 0 0 0-1.66-1.67 10.35 10.35 0 0 0-4.06-1.42H8.75v1.95z" fill="url(#a)" transform="translate(30.98 5.24)"/><path d="M8.8 21.32l.9-.01a260.23 260.23 0 0 1 .58-3c0-.01.48-.02 1.06-.02 1.12 0 1.5-.02 1.95-.12.76-.15 1.44-.5 1.97-1.02.69-.7 1.1-1.78 1.1-2.91 0-.57-.1-1.04-.34-1.52-.45-.92-1.18-1.39-2.44-1.6-.24-.03-.62-.04-2.4-.05l-2.11-.01-1 5.05-1.03 5.13-.02.08h1.79zm1.78-5l.37-1.74.37-1.72.74.02c.65 0 .76.01.94.07a1.39 1.39 0 0 1 1.09 1.45 1.87 1.87 0 0 1-1.75 1.91c-.28.04-1.76.04-1.76.01zm8.9 5.08a4.33 4.33 0 0 0 1.48-.83s-.02.16-.07.36l-.08.4H22.96l.69-3.76c.37-2.07.67-3.76.66-3.77a10.93 10.93 0 0 0-3.06-.26c-1.4.07-2.65.55-3.49 1.34a4.79 4.79 0 0 0-1.48 3.16c-.17 1.7.68 3.13 2.03 3.4.31.07.87.05 1.17-.04zm7.14 3l1.2-.01 2.56-5.19L33 13.9l.06-.13h-2.43l-.98 2.04-1 2.05c-.01.01-.29-.75-.61-1.68l-.72-2.06-.12-.35h-1.15c-.64 0-1.15 0-1.15.02l1.26 3.43c.7 1.87 1.26 3.41 1.26 3.44 0 .02-.44.85-.98 1.84l-1 1.86c-.02.05.04.05 1.18.05zm-7.1-4.65c-.22 0-.27-.01-.41-.08-.43-.2-.65-.65-.64-1.33 0-1.11.63-2.18 1.55-2.62.46-.22.88-.32 1.48-.32h.4l-.02.07-.32 1.78-.3 1.7-.11.08c-.16.14-.55.4-.78.51-.27.14-.55.2-.85.2zm-3.2 10.82l.15-.33.14-.32h.74l.05.32.06.33h.44l-.02-.08c0-.04-.1-.6-.23-1.25l-.21-1.17h-.45l-.55 1.2-.56 1.25c-.02.04 0 .05.13.05h.32zm-1.99 0l.02-.16.07-.48.04-.32.3-.02c.56-.03.84-.26.88-.7.02-.33-.1-.58-.38-.71-.12-.06-.18-.07-.58-.08h-.45l-.02.08-.32 2.34c0 .04.02.05.15.05h.3zm4.97 0l.08-.56.08-.57.43-.63.44-.68c.01-.03-.04-.03-.23-.03h-.23l-.29.43c-.15.23-.28.43-.3.43l-.18-.43-.17-.42h-.45l.26.65c.14.35.26.67.26.7l-.07.55-.06.52c0 .03.03.04.14.04h.3zm-4.65-1.33h-.06c-.08 0-.07-.05-.01-.45l.04-.34.17.02c.1 0 .2.03.24.06.04.03.1.1.12.16.14.27-.11.55-.5.55zm2.36.32h-.25l.18-.46c.1-.24.2-.44.2-.43l.09.45.05.44H17z" fill="#0474BC" fill-rule="nonzero"/><path d="M28.04 30.57h.24l.24-.01.14-.33.14-.33h.74a17.29 17.29 0 0 0 .1.66h.16l.3.01-.03-.1-.23-1.23-.21-1.16h-.22l-.23-.01-.48 1.05-.57 1.25-.1.2zm13.24-.04a.68.68 0 0 0 .38-.64c0-.28-.1-.44-.48-.72-.32-.24-.36-.3-.36-.44 0-.08.05-.13.1-.19.05-.05.18-.08.29-.08.1 0 .25.03.34.08a.4.4 0 0 0 .15.05l.07-.36a.17.17 0 0 0-.05-.04 1.57 1.57 0 0 0-.86-.07c-.33.11-.5.35-.5.67 0 .3.11.44.6.8.24.18.32.39.18.52-.15.15-.65.01-.75-.04a.78.78 0 0 0-.14-.06l-.07.4.22.11c.22.09.71.1.88 0zm-20.07-.04l.13-.92c0-.01.06-.03.13-.03.22 0 .28.07.53.59l.21.44h.49l-.26-.52a5.13 5.13 0 0 0-.3-.56c-.06-.05-.07-.09-.02-.09.09 0 .3-.17.37-.3.07-.1.08-.16.08-.32 0-.3-.11-.48-.38-.6-.13-.06-.2-.07-.62-.08h-.47l-.16 1.16-.17 1.21-.02.1h.22c.22 0 .22 0 .24-.08zm16.82.08l.07-.5.06-.51.13-.01c.2-.02.28.07.54.59l.2.43h.25l.23-.01a12 12 0 0 0-.6-1.14l.12-.06c.15-.06.3-.24.35-.39a.9.9 0 0 0-.04-.5.7.7 0 0 0-.33-.3c-.1-.05-.2-.06-.6-.07h-.48l-.01.06-.15 1.03-.02.16-.17 1.17c0 .04.01.05.14.05h.3zm-12.89 0l.02-.13.03-.18c.01-.04-.02-.05-.38-.05h-.86l.02-.1.04-.36.04-.25h.43c.49-.02.45 0 .48-.24l.02-.14h-.64c-.22 0-.22 0-.22-.06l.07-.51.01-.1h1l.01-.12c.03-.24.1-.24-.55-.23h-.85l-.01.06a62.6 62.6 0 0 0-.34 2.35l-.01.06h1.7zm1.71-.06a130.37 130.37 0 0 0 .28-1.96c.01-.06.02-.06.27-.06h.27c.23 0 .21-.03.24-.25l.02-.14h-1.92l-.02.14c0 .08-.02.17-.03.2-.01.04.01.04.25.05h.1c.34 0 .36 0 .36.05l-.14 1.03-.13 1h.22c.2 0 .22 0 .23-.06zm4.64.06l.34-2.47h-.45l-.35 2.47h.46zm2.68 0l.07-.36h-1.07l.31-2.1c0-.02-.44-.02-.44 0l-.34 2.46h1.47zm2.62 0l.03-.36H35.6l.09-.72h.88l.05-.35-.87-.01.08-.67h.99l.06-.36h-1.43a753.7 753.7 0 0 0-.34 2.38l-.02.09h1.7zm1.43-1.38l.02-.15.05-.37.03-.22.2.02c.1 0 .23.04.27.06.22.13.17.46-.07.58-.06.03-.2.06-.3.06l-.2.02zm-16.82-.05l.05-.32.04-.31c.02-.06.13-.07.34-.02.2.04.27.13.27.3 0 .23-.16.36-.5.38-.2.02-.21.02-.2-.03zm8.08.42h-.53l.38-.93.15.93z" fill="#4A8835" fill-rule="nonzero"/></g></g></svg>