<?xml version="1.0" encoding="UTF-8"?>
<svg width="56px" height="36px" viewBox="0 0 56 36" version="1.1" xmlns="http://www.w3.org/2000/svg" xmlns:xlink="http://www.w3.org/1999/xlink">
    <!-- Generator: Sketch 46.2 (44496) - http://www.bohemiancoding.com/sketch -->
    <title>PM/paysafecard</title>
    <desc>Created with Sketch.</desc>
    <defs></defs>
    <g id="Page-1" stroke="none" stroke-width="1" fill="none" fill-rule="evenodd">
        <g id="PM/paysafecard">
            <g id="Group-2">
                <path d="M0,3.75075247 C0,1.67926908 1.67596877,0 3.75035585,0 L52.2496442,0 C54.3209085,0 56,1.68806916 56,3.75075247 L56,32.2492475 C56,34.3207309 54.3240312,36 52.2496442,36 L3.75035585,36 C1.67909151,36 0,34.3119308 0,32.2492475 L0,3.75075247 Z" id="Rectangle-2" fill="#000000" fill-rule="nonzero"></path>
                <path d="M1.25,3.75075247 L1.25,32.2492475 C1.25,33.6250965 2.37296468,34.75 3.75035585,34.75 L52.2496442,34.75 C53.6324061,34.75 54.75,33.6316447 54.75,32.2492475 L54.75,3.75075247 C54.75,2.37490355 53.6270353,1.25 52.2496442,1.25 L3.75035585,1.25 C2.36759386,1.25 1.25,2.36835527 1.25,3.75075247 Z" id="Path" fill="#FFFFFF"></path>
                <g id="paysafecard" transform="translate(3.000000, 14.000000)" fill-rule="nonzero">
                    <g id="Group">
                        <path d="M9.01666667,4.0247191 C9.01190476,3.84016854 8.92857143,3.74662921 8.77142857,3.73904494 L7.92380952,3.73904494 C7.72380952,3.75168539 7.62142857,3.86797753 7.61428571,4.08792135 L7.61428571,5.70589888 C7.61904762,5.93342697 7.73333333,6.0497191 7.95714286,6.05477528 L8.73333333,6.05477528 C8.80952381,6.05477528 8.88095238,6.0244382 8.93095238,5.95870787 C8.98571429,5.91067416 9.01190476,5.84747191 9.01190476,5.76910112 L9.01190476,4.02724719 L9.01666667,4.0247191 L9.01666667,4.0247191 Z M6.52619048,3.79466292 C6.53095238,3.38764045 6.61666667,3.07921348 6.78095238,2.87191011 C6.86904762,2.77837079 6.97857143,2.71011236 7.10952381,2.64438202 C7.2452381,2.58117978 7.37857143,2.54578652 7.50952381,2.54578652 L9.06904762,2.54578652 C9.75714286,2.5508427 10.102381,2.94522472 10.1142857,3.74157303 L10.1142857,6.17359551 C10.1095238,6.45168539 10.0047619,6.69691011 9.80714286,6.8991573 C9.60952381,7.11404494 9.37619048,7.21769663 9.0952381,7.2252809 L7.61904762,7.2252809 L7.61904762,8.97977528 L6.53095238,8.97977528 L6.53095238,3.79719101 L6.52619048,3.79466292 Z M12.0761905,5.82219101 C12.0761905,5.89044944 12.1095238,5.94353933 12.1642857,5.98398876 C12.2190476,6.03202247 12.2785714,6.05730337 12.3619048,6.05730337 L13.197619,6.05730337 C13.3857143,6.05730337 13.4833333,5.97893258 13.4904762,5.82219101 L13.4904762,5.49101124 C13.4904762,5.30898876 13.3928571,5.21797753 13.1904762,5.21797753 L12.3571429,5.21797753 C12.247619,5.21797753 12.1714286,5.23820225 12.1285714,5.27359551 C12.0904762,5.31657303 12.0690476,5.40252809 12.0690476,5.52640449 L12.0690476,5.82219101 L12.0761905,5.82219101 L12.0761905,5.82219101 Z M13.4928571,3.99691011 C13.497619,3.81994382 13.4,3.73651685 13.197619,3.73904494 L11.0047619,3.73904494 L11.0047619,2.55337079 L13.4714286,2.55337079 C14.1880952,2.56601124 14.5547619,2.93511236 14.5642857,3.66320225 L14.5642857,6.14578652 C14.5595238,6.45926966 14.4666667,6.71713483 14.2904762,6.9244382 C14.1047619,7.13932584 13.8690476,7.24550562 13.5785714,7.24550562 L12.0857143,7.24550562 C11.3595238,7.24044944 10.9928571,6.88651685 10.9809524,6.18876404 L10.9809524,5.23061798 C10.9857143,4.5 11.3357143,4.12837079 12.0309524,4.11573034 L13.4785714,4.11573034 L13.4785714,3.9994382 L13.4928571,3.99691011 Z M17.6142857,7.81179775 C17.7,7.80674157 17.7761905,7.7738764 17.8357143,7.71320225 C17.8952381,7.65505618 17.9238095,7.59185393 17.9238095,7.52106742 L17.9238095,7.23539326 L16.5333333,7.23539326 C16.352381,7.23539326 16.2047619,7.21264045 16.097619,7.15955056 C15.9833333,7.11404494 15.8690476,7.03061798 15.7547619,6.90926966 C15.6452381,6.78033708 15.5666667,6.65393258 15.5190476,6.51488764 C15.4690476,6.38595506 15.4452381,6.22921348 15.4452381,6.03960674 L15.4452381,2.55337079 L16.5333333,2.55337079 L16.5333333,5.68061798 C16.5333333,5.93089888 16.6285714,6.05730337 16.8238095,6.05730337 L17.5904762,6.05730337 C17.6809524,6.05730337 17.7619048,6.02696629 17.8285714,5.96123596 C17.8928571,5.90561798 17.9238095,5.83988764 17.9238095,5.76404494 L17.9238095,2.55337079 L19.002381,2.55337079 L19.002381,7.72078652 C18.997619,8.10505618 18.9047619,8.40842697 18.7261905,8.64101124 C18.5452381,8.87359551 18.297619,8.99241573 17.9833333,8.99747191 L15.4428571,8.99747191 L15.4428571,7.81179775 L17.6142857,7.81179775 L17.6142857,7.81179775 Z M19.8571429,6.06235955 L21.7952381,6.06235955 C21.9714286,6.05730337 22.0642857,5.98146067 22.0714286,5.83483146 L22.0714286,5.72359551 C22.0714286,5.69578652 22.0619048,5.66039326 22.0452381,5.625 C22.002381,5.53904494 21.95,5.49101124 21.8857143,5.49101124 L20.9238095,5.49101124 C20.6404762,5.48595506 20.3952381,5.37977528 20.1904762,5.17752809 C19.9833333,4.99297753 19.8785714,4.76544944 19.8714286,4.49747191 L19.8714286,3.60252809 C19.8833333,2.91235955 20.2357143,2.56095506 20.9333333,2.54831461 L23.1809524,2.54831461 L23.1809524,3.73651685 L21.2761905,3.73651685 C21.052381,3.73651685 20.9404762,3.80983146 20.9404762,3.95393258 L20.9404762,4.06769663 C20.9404762,4.21938202 21.0547619,4.29522472 21.2857143,4.29522472 L22.2428571,4.29522472 C22.4952381,4.3002809 22.7142857,4.40646067 22.8928571,4.60870787 C23.0738095,4.81095506 23.1714286,5.05365169 23.1761905,5.33679775 L23.1761905,6.20140449 C23.1714286,6.44410112 23.0619048,6.68679775 22.8595238,6.92949438 C22.7547619,7.04831461 22.6571429,7.12921348 22.552381,7.17724719 C22.447619,7.22022472 22.3,7.24044944 22.1214286,7.24044944 L19.847619,7.24044944 L19.847619,6.05477528 L19.8571429,6.06235955 Z M25.0309524,5.81966292 C25.0309524,5.88792135 25.0571429,5.94101124 25.1190476,5.98146067 C25.1690476,6.02949438 25.2333333,6.05477528 25.3166667,6.05477528 L26.1595238,6.05477528 C26.347619,6.05477528 26.4452381,5.97893258 26.45,5.82219101 L26.45,5.49101124 C26.45,5.31151685 26.35,5.21797753 26.15,5.21797753 L25.3238095,5.21797753 C25.2142857,5.21797753 25.1404762,5.24073034 25.1,5.2761236 C25.0595238,5.32162921 25.0404762,5.40505618 25.0404762,5.53146067 L25.0404762,5.82724719 L25.0309524,5.81966292 L25.0309524,5.81966292 Z M26.4404762,3.99438202 C26.4452381,3.81741573 26.347619,3.73398876 26.1452381,3.73651685 L23.9571429,3.73651685 L23.9571429,2.55337079 L26.4285714,2.55337079 C27.147619,2.56601124 27.5119048,2.93511236 27.5214286,3.66320225 L27.5214286,6.14578652 C27.5166667,6.45926966 27.4261905,6.71713483 27.25,6.9244382 C27.0690476,7.13932584 26.8309524,7.24550562 26.5404762,7.24550562 L25.047619,7.24550562 C24.3214286,7.24044944 23.9547619,6.88651685 23.9428571,6.18876404 L23.9428571,5.23061798 C23.947619,4.5 24.297619,4.12837079 24.997619,4.11573034 L26.4404762,4.11573034 L26.4404762,3.9994382 L26.4404762,3.99438202 Z M28.4095238,1.88089888 C28.4142857,1.56235955 28.5238095,1.30449438 28.7428571,1.11235955 C28.95,0.915168539 29.2285714,0.816573034 29.5738095,0.811516854 L30.2619048,0.811516854 L30.2619048,1.95674157 L29.8404762,1.95674157 C29.6119048,1.96179775 29.4904762,2.07808989 29.4857143,2.30561798 L29.4857143,2.55589888 L30.2571429,2.55589888 L30.2571429,3.74410112 L29.4904762,3.74410112 L29.4904762,7.24550562 L28.4047619,7.24550562 L28.4047619,1.88089888 L28.4095238,1.88089888 Z M33.3547619,3.9741573 L33.3547619,3.94634831 C33.3547619,3.88567416 33.3309524,3.83258427 33.2833333,3.79466292 C33.2333333,3.75674157 33.1714286,3.73904494 33.097619,3.73904494 L32.3428571,3.73904494 C32.2452381,3.73904494 32.1690476,3.76685393 32.1071429,3.82752809 C32.0309524,3.88314607 31.9928571,3.95646067 31.9928571,4.04241573 L31.9928571,4.52022472 L33.3547619,3.9741573 L33.3547619,3.9741573 Z M32.0095238,5.65280899 L32.0095238,5.7261236 C32.0095238,5.82219101 32.0309524,5.89803371 32.0809524,5.9511236 C32.1142857,6.02696629 32.1595238,6.06235955 32.2214286,6.06235955 L34.4642857,6.06235955 L34.4642857,7.25308989 L32.0904762,7.25308989 C31.8738095,7.25308989 31.7047619,7.23539326 31.5857143,7.18988764 C31.4547619,7.14438202 31.3380952,7.06853933 31.2357143,6.96994382 C31.1142857,6.84859551 31.0333333,6.71966292 30.9952381,6.58567416 C30.95,6.45168539 30.9261905,6.26713483 30.9261905,6.03960674 L30.9142857,3.66573034 C30.9261905,2.9502809 31.2761905,2.58623596 31.9690476,2.57359551 L33.4357143,2.57359551 C34.1142857,2.59129213 34.4595238,2.96797753 34.4690476,3.71123596 L34.4690476,4.64662921 L32.0142857,5.66797753 L32.0095238,5.65280899 Z M36.7714286,7.25814607 C36.6071429,7.25814607 36.4547619,7.24550562 36.3166667,7.21769663 C36.1690476,7.19241573 36.0261905,7.12162921 35.8857143,7.00280899 C35.7333333,6.86376404 35.6333333,6.70955056 35.5738095,6.53764045 C35.5142857,6.36825843 35.4857143,6.18117978 35.4857143,5.96629213 L35.4857143,3.73398876 C35.4809524,3.55449438 35.497619,3.39522472 35.5357143,3.25870787 C35.5690476,3.12219101 35.65,2.98820225 35.7642857,2.85421348 C35.8952381,2.71769663 36.0333333,2.6241573 36.1738095,2.57865169 C36.3095238,2.54325843 36.4642857,2.52303371 36.6380952,2.52303371 L38.3071429,2.52303371 L38.3071429,2.8011236 L36.6785714,2.8011236 C36.3880952,2.8011236 36.1642857,2.86432584 36,2.98820225 C35.8309524,3.12219101 35.7428571,3.35983146 35.7428571,3.69101124 L35.7428571,5.90308989 C35.7428571,6.05983146 35.7642857,6.21151685 35.8095238,6.35561798 C35.852381,6.49466292 35.9309524,6.62359551 36.0380952,6.73230337 C36.1595238,6.8258427 36.2738095,6.88398876 36.3904762,6.91179775 C36.5119048,6.93960674 36.6380952,6.95224719 36.7738095,6.95224719 L38.3261905,6.95224719 L38.3261905,7.23033708 L36.7642857,7.23033708 L36.7714286,7.25814607 Z M42.6071429,4.36601124 L40.4261905,4.36601124 C40.1642857,4.37106742 39.9595238,4.45955056 39.8119048,4.6238764 C39.6595238,4.79325843 39.5833333,5.02078652 39.5833333,5.31404494 L39.5833333,6.02191011 C39.5833333,6.16095506 39.5952381,6.28483146 39.6214286,6.39859551 C39.647619,6.51994382 39.7142857,6.6261236 39.8238095,6.71713483 C40.0095238,6.88651685 40.2238095,6.96741573 40.447619,6.96741573 L41.7714286,6.96741573 C42.3238095,6.96235955 42.602381,6.65393258 42.602381,6.03960674 L42.602381,4.37359551 L42.6071429,4.36601124 L42.6071429,4.36601124 Z M42.8666667,5.96123596 C42.8666667,6.14073034 42.8547619,6.29494382 42.8333333,6.43398876 C42.797619,6.58567416 42.7261905,6.72977528 42.6166667,6.86629213 C42.3880952,7.12162921 42.1047619,7.24550562 41.7666667,7.24044944 L40.4714286,7.24044944 C40.1380952,7.24044944 39.8595238,7.13426966 39.65,6.91938202 C39.4357143,6.70955056 39.3261905,6.41629213 39.3261905,6.03960674 L39.3261905,5.32668539 C39.3380952,4.52022472 39.7142857,4.10814607 40.4571429,4.09044944 L42.6166667,4.09044944 L42.6166667,3.77949438 C42.6166667,3.52162921 42.5452381,3.29662921 42.4071429,3.10196629 C42.3190476,2.9755618 42.2142857,2.89213483 42.0952381,2.84662921 C41.9738095,2.81123596 41.8404762,2.79353933 41.6904762,2.79353933 L39.3285714,2.79353933 L39.3285714,2.51544944 L41.5714286,2.51544944 C41.7785714,2.51544944 41.9595238,2.52808989 42.1285714,2.55589888 C42.2166667,2.57359551 42.2928571,2.60898876 42.3690476,2.65955056 C42.4452381,2.70505618 42.5166667,2.78089888 42.5880952,2.8744382 C42.7904762,3.14747191 42.8880952,3.46601124 42.8833333,3.81994382 L42.8833333,5.94606742 L42.8666667,5.96123596 Z M45.3190476,2.79101124 C44.7119048,2.80365169 44.4119048,3.15 44.4285714,3.84269663 L44.4285714,7.23286517 L44.1714286,7.23286517 L44.1714286,3.85533708 C44.1595238,2.96797753 44.5595238,2.52303371 45.3690476,2.52303371 L45.652381,2.52303371 L45.652381,2.8011236 L45.3238095,2.8011236 L45.3190476,2.79101124 Z M49.7285714,2.8011236 L47.6666667,2.8011236 C47.5190476,2.8011236 47.3857143,2.81882022 47.2666667,2.85168539 C47.1404762,2.87949438 47.0214286,2.96292135 46.9047619,3.09438202 C46.7952381,3.21320225 46.7285714,3.33202247 46.7,3.4508427 C46.6619048,3.56966292 46.6452381,3.71376404 46.65,3.88061798 L46.65,6.04213483 C46.65,6.4011236 46.747619,6.64634831 46.95,6.77780899 C47.047619,6.83848315 47.1571429,6.88398876 47.2785714,6.91432584 C47.4,6.9497191 47.5333333,6.96741573 47.6833333,6.96741573 L48.5785714,6.96741573 C48.9142857,6.96741573 49.1904762,6.88651685 49.4,6.7247191 C49.6142857,6.56797753 49.7238095,6.3 49.7285714,5.91825843 L49.7285714,2.8011236 Z M49.9880952,5.93089888 C49.9642857,6.8258427 49.5166667,7.26320225 48.65,7.24550562 L47.6880952,7.24550562 C47.4857143,7.24550562 47.302381,7.22275281 47.1404762,7.18735955 C46.9738095,7.14185393 46.8142857,7.03061798 46.6619048,6.86123596 C46.547619,6.70955056 46.4714286,6.56039326 46.4428571,6.40365169 C46.402381,6.24691011 46.3857143,6.07247191 46.3904762,5.88792135 L46.3904762,3.88061798 C46.402381,2.97303371 46.8333333,2.52050562 47.6809524,2.52808989 L49.7238095,2.52808989 L49.7238095,0.996067416 L49.9809524,0.996067416 L49.9809524,5.93342697 L49.9880952,5.93089888 Z" id="Shape" fill="#008AC9"></path>
                        <path d="M0.483333333,2.37640449 C0.569047619,2.33595506 0.654761905,2.30561798 0.74047619,2.28539326 C0.897619048,1.48904494 1.56190476,0.89241573 2.35714286,0.89241573 C3.15238095,0.89241573 3.81666667,1.49157303 3.97380952,2.28539326 C4.21904762,2.33595506 4.41904762,2.43960674 4.57857143,2.59634831 C4.58571429,2.44466292 4.57857143,2.29550562 4.56190476,2.15898876 C4.46190476,0.958146067 3.51190476,0.0126404494 2.35238095,0.0126404494 C1.15952381,0.0126404494 0.19047619,1.01629213 0.14047619,2.27022472 C0.133333333,2.37893258 0.130952381,2.49016854 0.135714286,2.60898876 C0.235714286,2.51797753 0.35,2.43707865 0.483333333,2.37640449 M3.65238095,2.55337079 L0.995238095,2.55337079 C0.866666667,2.55337079 0.735714286,2.58370787 0.597619048,2.6494382 C0.466666667,2.71011236 0.357142857,2.78342697 0.271428571,2.87191011 C0.107142857,3.08174157 0.0214285714,3.39016854 0.0166666667,3.79466292 L0.0166666667,5.9991573 C0.0214285714,6.40617978 0.107142857,6.71207865 0.271428571,6.92191011 C0.35952381,7.01292135 0.466666667,7.08370787 0.597619048,7.14691011 C0.733333333,7.21011236 0.866666667,7.24297753 0.995238095,7.24297753 L3.65238095,7.24297753 C4.33809524,7.23792135 4.68809524,6.83595506 4.69761905,6.04719101 L4.69761905,3.74662921 C4.68571429,2.95786517 4.33809524,2.55842697 3.65238095,2.55337079" id="Shape" fill="#E3001B"></path>
                    </g>
                </g>
            </g>
        </g>
    </g>
</svg>