<?xml version="1.0" encoding="UTF-8"?><svg width="56" height="36" viewBox="0 0 56 36" xmlns="http://www.w3.org/2000/svg"><g fill="none" fill-rule="evenodd"><path d="M0 3.75A3.749 3.749 0 013.75 0h48.5A3.756 3.756 0 0156 3.75v28.5A3.749 3.749 0 0152.25 36H3.75A3.756 3.756 0 010 32.25V3.75z" fill="#000" fill-rule="nonzero"/><path d="M1.25 3.75v28.5c0 1.375 1.123 2.5 2.5 2.5h48.5c1.382 0 2.5-1.118 2.5-2.5V3.75c0-1.375-1.123-2.5-2.5-2.5H3.75a2.499 2.499 0 00-2.5 2.5z" fill="#FFF"/><g transform="translate(3 14)" fill-rule="nonzero"><circle fill="#7887E6" cx="30.296" cy="2.72" r="1"/><circle fill="#FF5073" cx="30.296" cy="5.52" r="1"/><path d="M28.512 4.392v-.344c0-1.28-.896-2.224-2.12-2.224-1.216 0-2.16.968-2.16 2.32 0 1.384.896 2.264 2.32 2.264.4 0 1.184-.072 1.792-.488l-.384-.848a2.443 2.443 0 01-1.2.336h-.12c-.032 0-.056-.008-.088-.008h-.016c-.024 0-.048-.008-.072-.016-.008 0-.016 0-.024-.008-.024-.008-.048-.008-.072-.016-.016 0-.024-.008-.04-.008-.016-.008-.032-.008-.048-.016s-.032-.016-.056-.024c-.008 0-.008-.008-.016-.008-.024-.016-.056-.024-.08-.04a.717.717 0 01-.152-.12l-.056-.056c-.008-.008-.016-.016-.016-.024a.14.14 0 00-.032-.04c-.016-.024-.032-.04-.048-.064a1.322 1.322 0 01-.168-.552h2.856v-.016zM26.4 2.784c.376 0 .68.304.728.88h-1.456c.048-.576.344-.88.728-.88zm-11.944.384c0-.208.208-.336.552-.336.36 0 .736.128 1.016.248l.384-.904a3.402 3.402 0 00-1.464-.352c-1.024 0-1.848.464-1.848 1.392 0 1.456 2.056 1.192 2.056 1.84 0 .24-.24.36-.64.36-.408 0-.808-.136-1.112-.288l-.44.88c.512.272 1.112.4 1.672.4.992 0 1.856-.512 1.856-1.456-.008-1.44-2.032-1.2-2.032-1.784zM6.52 1.824c-.848 0-1.52.264-1.928.52l.376.784c.248-.112.776-.312 1.216-.312.32 0 .6.112.6.448v.288c-1.896-.136-2.44.696-2.44 1.464 0 .752.64 1.384 1.472 1.384.328 0 .688-.128.96-.296v.192h1.376v-3.04c.008-.984-.624-1.432-1.632-1.432zm.312 3.52a.935.935 0 01-.544.168c-.344 0-.576-.2-.576-.512 0-.36.28-.712 1.112-.576l.008.92zm12.224-3.52c-.848 0-1.52.264-1.928.52l.376.784c.248-.112.776-.312 1.216-.312.32 0 .6.112.6.448v.288c-1.896-.136-2.44.696-2.44 1.464 0 .752.64 1.384 1.472 1.384.328 0 .688-.128.96-.296v.192h1.376v-3.04c.008-.984-.616-1.432-1.632-1.432zm.264 3.52a.935.935 0 01-.544.168c-.344 0-.576-.2-.576-.512 0-.36.288-.712 1.112-.576v.92h.008zm2.496-3.592v.184h-.728v.936h.728v3.44h1.368v-3.44h.944v-.944h-.944v-.232c0-.384.152-.664.576-.664.128 0 .288.024.4.064V.12a2.603 2.603 0 00-.656-.088c-1.104 0-1.688.68-1.688 1.72zm-10.144.176l-.944 2.616L9.64 1.928H8.232l1.848 4.168-.576 1.432h1.304l2.216-5.608-1.352.008zM2.272.384H0v5.92h1.408v-2.16h.864c1.144 0 2-.712 2-1.92 0-1.048-.64-1.84-2-1.84zM2.12 3.112h-.712V1.416h.712c.504 0 .792.352.792.856 0 .544-.32.84-.792.84z" fill="#2D2341"/><path d="M38.928 1.824c-.848 0-1.52.264-1.928.52l.376.784c.248-.112.776-.312 1.216-.312.32 0 .6.112.6.448v.288c-1.896-.136-2.44.696-2.44 1.464 0 .752.64 1.384 1.472 1.384.328 0 .688-.128.96-.296v.192h1.384v-3.04c0-.984-.624-1.432-1.64-1.432zm.272 3.52a.935.935 0 01-.544.168c-.344 0-.576-.2-.576-.512 0-.36.288-.712 1.112-.576l.008.92zm2.36-.224c.312.152.704.288 1.112.288.4 0 .64-.12.64-.36 0-.64-2.056-.376-2.056-1.84 0-.928.824-1.392 1.848-1.392.56 0 1.104.168 1.464.352l-.384.912c-.272-.12-.656-.248-1.016-.248-.344 0-.552.128-.552.336 0 .584 2.024.344 2.024 1.784 0 .944-.856 1.456-1.856 1.456-.56 0-1.16-.128-1.672-.4l.448-.888zm6.304 1.184V3.376c0-.328-.144-.544-.472-.544-.336 0-.688.224-.864.368v3.096h-1.376V.392h1.376V2.4c.352-.28.84-.576 1.4-.576.56 0 1.312.288 1.312 1.488v2.992h-1.376zM35.08 4.752c-.112.4-.36.656-.776.656-.608 0-.848-.568-.848-1.288 0-.752.264-1.296.848-1.296.4 0 .648.248.768.648h1.32c-.248-1.056-1.12-1.656-2.088-1.656-1.344 0-2.312.848-2.312 2.288s.96 2.288 2.312 2.288c.976 0 1.84-.6 2.088-1.656H35.08v.016z" fill="#7887E6"/></g></g></svg>