<?xml version="1.0" encoding="UTF-8"?><svg width="56" height="36" viewBox="0 0 56 36" xmlns="http://www.w3.org/2000/svg"><g fill="none" fill-rule="evenodd"><path d="M0 3.75A3.75 3.75 0 013.75 0h48.5A3.76 3.76 0 0156 3.75v28.5A3.75 3.75 0 0152.25 36H3.75A3.76 3.76 0 010 32.25V3.75z" fill="#000" fill-rule="nonzero"/><path d="M1.25 3.75v28.5a2.5 2.5 0 002.5 2.5h48.5a2.5 2.5 0 002.5-2.5V3.75a2.5 2.5 0 00-2.5-2.5H3.75a2.5 2.5 0 00-2.5 2.5z" fill="#FFF"/><g fill-rule="nonzero"><path d="M52.28 14.57a3.3 3.3 0 00-3.1-2.2h-.04c-.93 0-1.77.38-2.37 1a3.29 3.29 0 00-2.38-1h-.03c-.82 0-1.57.3-2.15.8v-.26a.49.49 0 00-.48-.45h-2.2a.49.49 0 00-.49.49v11.97c0 .27.22.48.49.48h2.2c.25 0 .45-.18.48-.41V16.3a.8.8 0 01.76-.74h.41c.44.02.77.39.76.82l.01 8.55c0 .27.22.5.5.5h2.2c.25 0 .47-.21.48-.47v-8.59c-.01-.44.32-.8.76-.83h.4a.8.8 0 01.77.83v8.54c0 .27.23.48.5.48h2.2a.49.49 0 00.49-.48v-9.18c0-.63-.07-.9-.17-1.17M37.36 12.5H36.1v-2.05a.44.44 0 00-.53-.44c-1.4.38-1.11 2.32-3.67 2.48h-.24l-.11.01a.49.49 0 00-.38.48v2.2c0 .27.22.5.49.5h1.33v9.34c0 .26.21.48.48.48h2.18c.26 0 .48-.22.48-.48v-9.35h1.23c.27 0 .49-.22.49-.49v-2.2a.49.49 0 00-.49-.49" fill="#54C1F0"/><path d="M29.43 12.5h-2.2a.49.49 0 00-.49.48v4.55c0 .29-.23.51-.51.51h-.93a.52.52 0 01-.51-.51l-.01-4.55a.49.49 0 00-.49-.49h-2.2a.49.49 0 00-.5.5v4.99c0 1.9 1.36 3.25 3.26 3.25h1.47a.51.51 0 010 1.02l-.03.01-3.22.01a.49.49 0 00-.5.49v2.2c0 .27.23.49.5.49h3.6c1.9 0 3.25-1.35 3.25-3.25v-9.22a.49.49 0 00-.49-.49M8.3 12.5c1.76 0 2.99 1.22 2.99 3v3.1c0 1.77-1.23 3-3 3H6.2l-.01 3.35c0 .26-.22.48-.49.48H3.44c-.24 0-.44-.22-.44-.49V12.97c0-.26.22-.48.48-.48H8.3zm-.72 3.18h-1.4v2.73h1.4c.29 0 .52-.23.52-.52V16.2a.52.52 0 00-.52-.52zM16.9 12.5c2.5 0 3.54 1.29 3.54 3.31v8.37c0 .66-.58 1.2-1.3 1.2h-4c-1.9 0-3.08-1.26-3.08-3.04v-2.56c0-1.8 1.37-3.06 3.29-3.06h1.44c.22-.02.4-.2.43-.46v-.28a.5.5 0 00-.44-.47h-2.92c-.28 0-.51-.21-.51-.48v-2.07c0-.25.22-.46.49-.46zm-.17 7.18h-.92c-.29 0-.52.22-.52.48v1.89c0 .27.23.48.52.48h.92c.21 0 .4-.13.49-.33l.03-.15v-1.88c0-.27-.24-.5-.52-.5z" fill="#233266"/></g></g></svg>