<?xml version="1.0" encoding="UTF-8"?><svg width="56" height="36" viewBox="0 0 56 36" xmlns="http://www.w3.org/2000/svg"><g fill="none" fill-rule="evenodd"><path d="M0 3.75A3.749 3.749 0 013.75 0h48.5A3.756 3.756 0 0156 3.75v28.5A3.749 3.749 0 0152.25 36H3.75A3.756 3.756 0 010 32.25V3.75z" fill="#000" fill-rule="nonzero"/><path d="M1.25 3.75v28.5c0 1.375 1.123 2.5 2.5 2.5h48.5c1.382 0 2.5-1.118 2.5-2.5V3.75c0-1.375-1.123-2.5-2.5-2.5H3.75a2.499 2.499 0 00-2.5 2.5z" fill="#FFF"/><g fill-rule="nonzero"><path d="M16.445 11.762c0-1.828-.908-2.75-2.706-2.75h-5.01c-1.799 0-2.707.922-2.707 2.75v7.882h1.855v-2.077c.256.054.54.082.852.082h5.007c1.799 0 2.706-.923 2.706-2.75v-3.137h.003zm-2.79-.755c.54 0 .813.274.813.826v2.93c0 .548-.27.826-.813.826H8.69c-.53 0-.8-.26-.813-.77V11.83c0-.549.27-.826.813-.826h4.965v.003zm11.395.068c.46.067.69.302.69.701v.963a4.294 4.294 0 00-.866-.082h-5.006c-1.8 0-2.707.922-2.707 2.75v1.486c0 .77.161 1.376.473 1.829.42.591 1.136.908 2.139.922h5.101c1.042 0 1.788-.302 2.22-.922.326-.453.487-1.059.487-1.829V11.83c0-1.828-.908-2.75-2.707-2.75h-5.953v1.995h6.129zm-.12 3.659c.53 0 .8.26.813.784v1.333c0 .549-.27.826-.813.826h-4.968c-.54 0-.813-.274-.813-.826v-1.28c0-.548.27-.826.813-.826h4.968v-.011zm14.319 2.284V9.04h-1.813v4.18c-.014.523-.284.77-.813.77H31.52c-.54 0-.813-.275-.813-.827v-1.265c0-.042 0-.096.014-.139l-.014-2.722h-1.882v4.4c0 1.829.908 2.752 2.706 2.752h5.007c.312 0 .61-.029.866-.097v.963c0 .399-.23.634-.69.702h-6.132v1.998h5.954c1.804.014 2.712-.909 2.712-2.737z" fill="#1C3E95"/><path d="M35.851 20.785l1.056 1.293c-2.206 2.202-5.049 3.329-8.527 3.385-4.425-.235-7.66-1.788-9.69-4.675h-2.111c2.49 3.852 6.427 5.915 11.801 6.19 5.21-.083 9.053-2.146 11.532-6.19l-4.06-.003zm14.67-1.939c.326-.453.473-1.058.473-1.828V9.01h-1.84v7.868c0 .55-.27.827-.813.827h-4.968c-.54 0-.813-.275-.813-.827V9.011H40.57v8.007c0 .77.162 1.375.488 1.828.434.62 1.178.923 2.22.923h5.006c1.044 0 1.79-.303 2.236-.923z" fill="#08AFEF"/></g></g></svg>