<?xml version="1.0" encoding="UTF-8"?>
<svg width="56px" height="36px" viewBox="0 0 56 36" version="1.1" xmlns="http://www.w3.org/2000/svg" xmlns:xlink="http://www.w3.org/1999/xlink">
    <!-- Generator: Sketch 53.2 (72643) - https://sketchapp.com -->
    <title>pekao-bank</title>
    <desc>Created with Sketch.</desc>
    <g id="pekao-bank" stroke="none" stroke-width="1" fill="none" fill-rule="evenodd">
        <g id="Base">
            <path d="M0,3.75075247 C0,1.67926908 1.67596877,0 3.75035585,0 L52.2496442,0 C54.3209085,0 56,1.68806916 56,3.75075247 L56,32.2492475 C56,34.3207309 54.3240312,36 52.2496442,36 L3.75035585,36 C1.67909151,36 0,34.3119308 0,32.2492475 L0,3.75075247 Z" id="Rectangle-2" fill="#000000" fill-rule="nonzero"></path>
            <path d="M1.25,3.75075247 L1.25,32.2492475 C1.25,33.6250965 2.37296468,34.75 3.75035585,34.75 L52.2496442,34.75 C53.6324061,34.75 54.75,33.6316447 54.75,32.2492475 L54.75,3.75075247 C54.75,2.37490355 53.6270353,1.25 52.2496442,1.25 L3.75035585,1.25 C2.36759386,1.25 1.25,2.36835527 1.25,3.75075247 Z" id="Path" fill="#FFFFFF"></path>
        </g>
        <g id="Group-29" transform="translate(3.000000, 14.000000)">
            <polygon id="path40513" fill="#D71A20" points="12.750898 0.0745493002 12.750898 7.36046362 13.0227333 7.36046362 13.028239 0.0774595775 12.7509021 0.0745476688"></polygon>
            <path d="M3.86336746,8.1111049e-05 C3.24034054,-0.00452737203 2.53689209,0.186736085 1.76271794,0.703792365 C1.76261191,0.703792365 1.99485392,1.29238532 1.50998344,1.91281109 C1.50988556,1.91281109 1.52266697,1.91914878 1.52311248,1.91901011 C1.99312879,1.65874584 4.23223287,-0.305682349 6.65985685,2.04301175 C6.65985685,2.04301175 10.4925759,1.70841794 9.47604078,5.04695873 C9.47604078,5.04695873 10.8316509,5.53340653 10.6675024,7.36269445 C10.6675024,7.36269445 10.683469,7.36351011 10.6839135,7.36269445 C10.7408091,7.24567977 11.5345628,5.65081599 10.2801949,4.91365612 C10.2801949,4.91365693 10.787385,3.7372646 9.84037194,2.64752153 C9.35876917,2.09303866 8.4763124,1.56346607 6.86007545,1.78570832 C6.85999388,1.78570832 5.73244494,0.0139114534 3.86336746,8.02953884e-05 L3.86336746,8.1111049e-05 Z M0.000141380941,0.068282579 C0.000141380941,0.0682817634 -0.000176726726,0.0835019901 0.000141380941,0.0837825774 C0.213014951,0.195745057 1.5075823,0.97257863 0.0559399128,1.9004106 L0.955280098,5.55536819 C0.955280098,5.55536737 2.21602137,4.58964144 3.26271248,5.03145873 C3.93059829,5.31347096 4.10286746,6.09226786 3.9749637,7.30379478 C3.9749637,7.30379478 3.9940624,7.30491223 3.99465701,7.30379478 C4.09062276,7.09109331 5.32835114,4.92011289 3.44323695,4.26264796 C3.08760644,4.1384783 2.58655424,4.09969445 1.68722545,4.41144976 L0.853530506,2.15151501 C0.853530506,2.15151501 2.17671362,0.457346199 0.000141380941,0.068282579 Z M7.87757708,4.62845302 C7.17005261,4.66205334 6.74519454,5.14926052 6.74519535,5.14926052 C5.629427,4.12012838 4.64454608,5.24846281 4.64454608,5.24846281 C5.36917904,5.93539266 5.0187239,7.36269608 5.0187239,7.36269608 C5.01839763,7.36188042 5.03454201,7.36371566 5.03513499,7.36269608 C5.63676794,6.43332007 5.56357953,5.51816754 5.56358034,5.51816672 C6.16565946,5.34447015 6.52200122,5.96767325 6.52200122,5.96767406 C7.27500775,5.18688042 8.02824918,5.1367801 8.43884502,5.37866509 C9.4576093,5.97916835 9.10842822,7.30379478 9.10842741,7.30379478 C9.10842741,7.30420261 9.12797227,7.30436574 9.12812072,7.30379478 C9.98095269,5.74206639 9.20787194,5.00512268 8.67516803,4.78035595 C8.38144535,4.65629152 8.11341721,4.61725318 7.87757708,4.62845302 L7.87757708,4.62845302 Z" id="path40517" fill="#D71A20" fill-rule="nonzero"></path>
            <path d="M40.3740962,4.55677031 C40.3740962,4.51914878 40.406633,4.52641305 40.4527953,4.52641305 L40.5612912,4.52641305 C40.5712423,4.52633148 40.5814013,4.52539347 40.6095016,4.52752235 C40.6095016,4.52752235 40.7107227,4.54188124 40.7960098,4.62823442 L42.0494266,6.18077684 L42.8804674,6.18151093 L41.6045946,4.54249788 L41.358416,4.2542646 C41.3483736,4.23924829 41.3521272,4.22054927 41.3961525,4.17603377 L42.6338483,2.84091876 L42.7485367,2.72478744 C42.7605237,2.70988042 42.790394,2.68868793 42.7235465,2.68868793 L42.1352496,2.68868793 L42.0380693,2.68868793 C41.9408866,2.68868793 41.9443744,2.68155905 41.8863312,2.74033148 L40.7512129,3.97691631 C40.7512129,3.97691631 40.6856166,4.06620669 40.6024396,4.06620669 L40.4604437,4.06620669 C40.452646,4.06596199 40.4398475,4.06604356 40.41919,4.06604356 C40.4067626,4.06402887 40.3819625,4.06603132 40.37673,4.03535106 C40.3748785,4.02317569 40.3735816,4.01510228 40.373394,3.9817491 L40.373394,1.13402887 L39.6020392,1.13402887 L39.6020392,6.18106476 L40.3730212,6.18106476 L40.3730212,4.59185024 L40.3740962,4.55677031 Z M48.251544,2.61027276 C48.2045783,2.61203458 47.7727961,2.6186602 47.4748605,2.72381028 C47.4011591,2.74288858 46.7843899,2.98097504 46.5253434,3.68236819 C46.4752765,3.79689347 46.3226248,4.34692202 46.4504951,4.91934617 C46.6550987,5.71968874 46.9562757,5.94237145 47.5045122,6.14366917 C48.6444551,6.44363899 49.7905522,5.82703622 49.935801,4.87957292 C49.935801,4.87957292 50.1434437,3.59735269 49.5264869,2.97077194 C49.5264869,2.97077194 49.2021117,2.61027276 48.251544,2.61027276 L48.251544,2.61027276 Z M48.201283,3.2227956 C49.0193214,3.2227956 49.124407,3.83097912 49.124407,3.83097912 C49.2338434,4.24577765 49.1739445,4.7226447 49.1739445,4.7226447 C49.1213891,5.34771811 48.6382863,5.60856721 48.5082675,5.62118059 C48.1986574,5.70487635 47.8305367,5.59413409 47.8313817,5.59550767 C47.319137,5.45611207 47.2640587,4.76205742 47.2640587,4.76205742 C47.2160759,4.40978662 47.2529315,4.06508026 47.3164869,3.84978173 C47.3793834,3.63674013 47.4869763,3.52592936 47.4632904,3.55255987 C47.744,3.21385677 48.201283,3.2227956 48.201283,3.2227956 Z M37.4582675,2.61461289 C37.4582675,2.61461289 36.441314,2.62959168 36.0083165,3.3949106 C36.0083165,3.3949106 35.2004502,4.71013246 36.3901493,5.81896852 C36.5680334,5.96105824 36.853239,6.21458515 37.7619992,6.20152398 C37.9559576,6.19171566 38.3183287,6.24386493 39.0275424,5.65661697 L38.7957651,5.32649054 L38.7711778,5.29539429 C38.7528883,5.26530701 38.6506639,5.2422907 38.5654372,5.29249869 L38.3539119,5.43604845 C38.2357316,5.52226215 38.0891974,5.56031843 37.7428336,5.58972055 C37.2456794,5.61370832 36.8899364,5.47742936 36.6620604,5.01227194 C36.6620604,5.01227194 36.5843197,4.88276705 36.5843197,4.46881109 C36.5848091,4.45086493 36.580894,4.42650604 36.6222863,4.42650604 L38.953779,4.42650604 L39.0018703,4.42650604 C39.0237162,4.42650604 39.0405481,4.42715856 39.0459837,4.4181863 C39.0525171,4.40748891 39.0535693,4.36822219 39.0535693,4.33357537 C39.0535693,4.17666101 39.0548662,3.99690979 39.0452594,3.86279315 C39.0345954,3.70299951 38.9908989,3.52077684 38.891947,3.32041794 C38.891947,3.32041794 38.5910612,2.61460636 37.4582675,2.61460636 L37.4582675,2.61461289 Z M37.6061558,3.13854763 C38.3678295,3.19268874 38.3634038,4.00195383 38.3470416,3.99658597 L36.594084,3.99658597 C36.594084,3.04784454 37.6061558,3.13854763 37.6061558,3.13854763 Z M32.0815179,1.25107129 L32.0815179,6.15126297 L32.9005049,6.15126297 L32.9005049,4.39324339 L32.9005049,4.36937798 L32.9189445,4.36828499 L33.90173,4.36828499 C33.9053597,4.36604192 34.0388728,4.38202153 34.4448271,4.29994568 C34.8411688,4.22183719 35.3574046,3.80109494 35.4945049,3.55942202 C35.5853768,3.39924176 35.776102,2.81615204 35.6604723,2.42404927 C35.5909413,2.15584127 35.5216786,1.99758352 35.3932618,1.83828336 C35.3932618,1.83828336 34.9770498,1.25107129 33.9161925,1.25107129 L32.0815179,1.25107129 L32.0815179,1.25107129 Z M32.90846,1.90518467 L33.9534364,1.90518467 C34.829354,1.90518467 34.8364258,2.71151664 34.8364258,2.71151664 C34.8364258,3.37785188 34.3938467,3.59595057 34.3938467,3.59595057 C34.1616493,3.73266509 34.0768931,3.74603622 34.0351558,3.74781599 C34.0119584,3.74879478 33.9885669,3.74830538 33.9653703,3.74781599 L32.90846,3.74781599 L32.90846,1.90518467 Z M27.5651803,4.53420506 C27.5651803,4.49658352 27.597717,4.50384698 27.6438793,4.50384698 L27.7523752,4.50384698 C27.7623263,4.50376542 27.7724853,4.50282741 27.8005856,4.50495628 C27.8005856,4.50495628 27.9018059,4.51931517 27.9870938,4.60566917 L29.2405106,6.15821158 L30.0715514,6.15894568 L28.7956778,4.51993263 L28.5495,4.23169935 C28.5394568,4.21668303 28.5432113,4.19798401 28.5872365,4.15346933 L29.8249315,2.81835432 L29.9396199,2.702223 C29.9516077,2.68731517 29.981478,2.66612349 29.9146297,2.66612349 L29.326332,2.66612349 L29.2291525,2.66612349 C29.1319706,2.66612349 29.1354584,2.65899462 29.0774152,2.71776623 L27.9422969,3.95438777 C27.9422969,3.95438777 27.8766998,4.04367896 27.7935228,4.04367896 L27.6515277,4.04367896 C27.64373,4.04343426 27.6309315,4.04359739 27.6102741,4.04359739 C27.5978458,4.04158271 27.5730457,4.04358515 27.5678132,4.01290489 C27.5659535,4.00073034 27.5646648,3.99265612 27.5644772,3.95930294 L27.5644772,1.11158271 L26.7931223,1.11158271 L26.7931223,6.1586186 L27.5641036,6.1586186 L27.5641036,4.56940489 L27.5651803,4.53420506 Z M23.7091631,3.68495057 C23.7091631,3.68309902 23.7091631,3.68093752 23.7092447,3.67850685 C23.7087553,3.67059494 23.7150767,3.64709168 23.7234535,3.63105171 C23.7234535,3.63105171 23.9332072,3.22346933 24.5979845,3.22346933 C24.5979845,3.22346933 25.3009315,3.20545628 25.3009315,3.74814715 L25.3009315,6.12946036 L26.0353295,6.12946036 L26.0353295,3.83382496 C26.0353295,3.76698401 26.038894,3.70734209 26.0353295,3.63330375 C26.0353295,3.63330375 26.0142243,2.90508597 25.2649992,2.7037956 C25.0965326,2.64732577 24.8090685,2.6385615 24.6104551,2.6574783 C24.6104551,2.6574783 24.1602781,2.67547259 23.7170465,3.11988532 L23.700199,3.14127928 C23.6833532,3.16267162 23.6318768,3.17167896 23.6318768,3.09567977 L23.6318768,2.95090326 L23.6318768,2.87771403 C23.6294543,2.82967162 23.613133,2.71922545 23.4892814,2.71922545 L22.9525179,2.71922545 L22.9525179,6.12946281 L23.7086183,6.12946281 L23.7086183,3.69450114 L23.7091631,3.68495057 Z M44.508429,2.61533475 C44.4221256,2.61868711 44.3286281,2.62687227 44.227478,2.641369 C44.227478,2.641369 43.7618458,2.69195873 43.1456191,3.17362023 C43.1456191,3.17362023 43.0565065,3.21728091 43.1521362,3.31246852 L43.41319,3.57208597 C43.4377292,3.59435432 43.5043271,3.63596525 43.6540049,3.54785922 C43.7440073,3.49239592 44.083124,3.29618385 44.3395685,3.22568874 C44.3395685,3.22568874 44.9130392,3.06327276 45.1401142,3.61475237 C45.1401142,3.61475237 45.1907365,3.68922219 45.1907365,4.0942124 C45.1931591,4.18096444 45.1911444,4.18243915 45.1223972,4.18243915 C45.1223972,4.18243915 43.5065082,4.0983584 43.0704103,4.85028418 C43.0704103,4.85028418 42.6540808,5.37380946 43.2349299,5.95202969 C43.2349299,5.95202969 43.6294274,6.35004274 44.4397268,6.13390734 C44.4397268,6.13390734 44.8550677,6.06252153 45.1545783,5.76436819 C45.1562423,5.76175808 45.1663157,5.75160555 45.1686852,5.7488217 C45.1935759,5.71962675 45.2576827,5.6858429 45.2746297,5.75135024 C45.2776966,5.76323524 45.2791077,5.76912838 45.2803964,5.78570016 C45.2816933,5.80264878 45.2832104,5.80448891 45.2840098,5.85223197 C45.2844992,5.9385509 45.2715873,6.10280865 45.5063834,6.10280865 L45.862544,6.10280865 C45.884469,6.10305334 45.9236525,6.09966835 45.9236525,6.05688858 L45.9236525,3.81976949 C45.9251289,3.74262268 45.8804046,3.44382007 45.8549502,3.38333801 C45.8560595,3.38582577 45.7228956,3.05354682 45.3780212,2.81673605 C45.3617667,2.80910962 45.112531,2.5918845 44.5084135,2.61533393 L44.508429,2.61533475 Z M45.1068499,4.65069038 C45.1260832,4.65117977 45.1802504,4.65071648 45.1802504,4.70022708 L45.1802504,5.27116835 C45.1802504,5.29005334 45.0745563,5.47166183 44.8063728,5.56079641 C44.6452349,5.61979641 44.1196395,5.79036493 43.8814421,5.59876297 C43.8814421,5.59876297 43.5607121,5.36851746 43.7505498,5.04120098 C43.7505498,5.04120098 43.8261754,4.86958515 44.2781003,4.74904029 C44.2781003,4.74904029 44.6044176,4.65069038 45.1068499,4.65069038 L45.1068499,4.65069038 Z M20.8373483,2.61497341 C20.7510457,2.61832577 20.6575473,2.6268739 20.5563972,2.641369 C20.5563972,2.641369 20.0907651,2.69195954 19.4745383,3.17362023 C19.4745383,3.17362023 19.3854258,3.21728091 19.4810555,3.31246852 L19.7421175,3.57208597 C19.7666566,3.59435432 19.8328923,3.63596525 19.9825701,3.54786003 C20.0725726,3.49239592 20.4120506,3.29618385 20.6684951,3.22568874 C20.6684951,3.22568874 21.2419666,3.06327276 21.4690424,3.61475318 C21.4690424,3.61475318 21.5196623,3.689223 21.5196623,4.0942124 C21.5220848,4.18096444 21.5196444,4.18207781 21.4509625,4.18207781 C21.4509625,4.18207781 19.8354364,4.0983584 19.3993361,4.85028418 C19.3993361,4.85028418 18.9826436,5.37380946 19.5634959,5.95202969 C19.5634959,5.95202969 19.9583532,6.34968222 20.7686533,6.13354519 C20.7686533,6.13354519 21.1839967,6.0621602 21.4835041,5.76400685 C21.485168,5.76138858 21.4952235,5.75124421 21.4976126,5.74845954 C21.5225024,5.71926623 21.5866101,5.6858429 21.6035563,5.75135514 C21.6066232,5.76324013 21.6076672,5.76913328 21.6089804,5.78570587 C21.6102773,5.80265367 21.612137,5.80413328 21.6129527,5.85187635 C21.6134421,5.93819445 21.600531,6.10281517 21.8353263,6.10281517 L22.1914869,6.10281517 C22.2134127,6.10305987 22.2525946,6.09967488 22.2525946,6.05689347 L22.2525946,3.81977439 C22.254071,3.74262838 22.2089878,3.44382496 22.1835318,3.3833429 C22.1846411,3.38583883 22.0518393,3.05355253 21.7069649,2.81674095 C21.6907096,2.80911452 21.4414731,2.59152887 20.8373564,2.61497749 L20.8373483,2.61497341 Z M21.4354086,4.65032822 C21.4546419,4.65081762 21.5091697,4.65073605 21.5091697,4.70022708 L21.5091697,5.2708062 C21.5091697,5.28969119 21.4034755,5.47166183 21.135292,5.56079641 C20.9741566,5.61979641 20.4481982,5.79036574 20.2100008,5.59876297 C20.2100008,5.59876297 19.8896321,5.36851746 20.079469,5.04120098 C20.079469,5.04120098 20.1550954,4.86922382 20.6070196,4.74867977 C20.6070196,4.74867977 20.9329755,4.65032822 21.4354086,4.65032822 L21.4354086,4.65032822 Z M15.1467431,1.25975889 L15.1467431,6.1292075 L16.9550228,6.1292075 C16.9550228,6.1292075 17.538637,6.16207781 18.0433907,5.9560093 C18.0433907,5.9560093 18.5314013,5.75710065 18.7882537,5.30696607 C18.7882537,5.30696607 19.0050416,4.88556884 18.8699698,4.37552643 C18.8271215,4.28676623 18.8084682,4.12337471 18.4299241,3.84978336 C18.4211762,3.84495465 18.2149853,3.68494486 17.8933336,3.69864144 C17.8829372,3.69823361 17.8251623,3.70117814 17.815593,3.66573687 C17.8151036,3.66573687 17.7988768,3.61818222 17.8853785,3.5926969 C18.0693254,3.54323442 18.2849421,3.43102969 18.5275506,3.18555416 C18.5275506,3.18555416 18.7672822,2.97990082 18.7672822,2.51734698 C18.7672822,2.51734698 18.7650799,2.17781028 18.5651558,1.82744568 C18.5651558,1.82744568 18.4034959,1.50990816 17.7982365,1.34581599 C17.7581093,1.33474339 17.4342284,1.25975889 15.1930253,1.25975889 L15.1467431,1.25975889 Z M15.9816403,1.90482414 L17.1126737,1.90482414 C17.6194103,1.90482414 17.7826892,2.21723279 17.7826892,2.21723279 C17.9162871,2.45136737 17.9204519,2.65944976 17.9204519,2.65944976 C17.9204519,3.00355824 17.6893997,3.17217569 17.6893997,3.17217569 C17.4893564,3.33849462 17.1923091,3.41899869 17.0833858,3.42094486 C16.9584739,3.42788613 16.366898,3.42094486 16.0087586,3.42094486 C15.9888393,3.42092936 15.9775848,3.42231517 15.9776623,3.41624666 L15.9780701,3.40286737 L15.9780701,1.91061126 C15.9781517,1.90760962 15.9767325,1.90521158 15.9816917,1.90482822 L15.9816403,1.90482414 Z M15.9725962,4.00345628 L17.1777545,4.00345628 C17.7175033,4.00345628 17.8911599,4.32056558 17.8911599,4.32056558 C18.0334617,4.55813736 18.0379625,4.76929152 18.0379625,4.76929152 C18.0379625,5.11845628 17.7917235,5.28961044 17.7917235,5.28961044 C17.5786476,5.45837471 17.2623173,5.53964796 17.1462961,5.54163409 C17.013248,5.5486814 16.3833556,5.54163409 16.0018834,5.54163409 C15.9806672,5.54161778 15.9685416,5.54309413 15.9686183,5.53693589 L15.9686183,5.52355742 L15.9686183,4.00960555 C15.9686998,4.00654682 15.9673214,4.00384698 15.9725987,4.00346362 L15.9725962,4.00345628 Z" id="path4152-9-1" fill="#000000"></path>
        </g>
    </g>
</svg>