<?xml version="1.0" encoding="UTF-8"?><svg width="56" height="36" viewBox="0 0 56 36" xmlns="http://www.w3.org/2000/svg"><g fill="none" fill-rule="evenodd"><path d="M0 3.75A3.75 3.75 0 013.75 0h48.5A3.76 3.76 0 0156 3.75v28.5A3.75 3.75 0 0152.25 36H3.75A3.76 3.76 0 010 32.25V3.75z" fill="#000" fill-rule="nonzero"/><path d="M1.25 3.75v28.5a2.5 2.5 0 002.5 2.5h48.5a2.5 2.5 0 002.5-2.5V3.75a2.5 2.5 0 00-2.5-2.5H3.75a2.5 2.5 0 00-2.5 2.5z" fill="#FFF"/><g fill="#673AB7" fill-rule="nonzero"><path d="M28.2 3a15.2 15.2 0 110 30.4 15.2 15.2 0 010-30.4zm-1.26 3.8h-1.48c-.12 0-.2.03-.27.1-.06.05-.09.14-.09.26 0 .13.04.25.1.36l1.35 2.01a28.05 28.05 0 002.89 3.6h-7.11c-.16 0-.27.04-.35.1-.07.08-.11.19-.11.33v1.02c0 .16.04.28.11.36.08.08.2.12.34.12h1.4c.07 0 .13.03.17.08.04.05.05.12.05.21v5.27c0 .56.09 1.06.25 1.5a3.16 3.16 0 001.93 1.9c.44.16.94.24 1.5.24h.7c.54 0 1-.08 1.37-.25.36-.16.66-.42.85-.76h.1v4.47c0 .15.03.27.1.34.08.08.2.12.35.12h1.28c.16 0 .27-.04.35-.12.07-.07.11-.19.11-.34V15.35c0-.1.02-.17.07-.22.04-.05.1-.07.2-.07h1.6c.15 0 .26-.04.34-.11.07-.08.11-.2.11-.35v-1.04c0-.14-.04-.25-.11-.32-.08-.08-.2-.11-.35-.11h-3.04a.6.6 0 01-.34-.1 1.01 1.01 0 01-.29-.31l-3.45-5.56a.67.67 0 00-.26-.27.75.75 0 00-.37-.09zm3.43 8.26c.09 0 .15.02.2.07.04.05.06.13.06.22v5c0 .3-.04.56-.12.8a1.53 1.53 0 01-1 1c-.28.1-.58.14-.88.13h-.65c-.61 0-1.07-.15-1.38-.47-.3-.31-.46-.78-.46-1.41v-5.05c0-.1.02-.17.07-.22.04-.05.1-.07.2-.07h3.96z"/></g></g></svg>