<?xml version="1.0" encoding="UTF-8"?><svg width="56" height="36" viewBox="0 0 56 36" xmlns="http://www.w3.org/2000/svg"><defs><linearGradient x1="-.031%" y1="49.977%" x2="99.974%" y2="49.977%" id="a"><stop stop-color="#107BA8" offset="0%"/><stop stop-color="#1580AE" offset="1.905%"/><stop stop-color="#1D8EBE" offset="7.626%"/><stop stop-color="#29C" offset="14.32%"/><stop stop-color="#26A1D6" offset="22.51%"/><stop stop-color="#26A6DD" offset="33.76%"/><stop stop-color="#26A8E0" offset="62.61%"/><stop stop-color="#26A8E0" offset="100%"/></linearGradient></defs><g fill="none" fill-rule="evenodd"><path d="M0 3.75A3.749 3.749 0 013.75 0h48.5A3.756 3.756 0 0156 3.75v28.5A3.749 3.749 0 0152.25 36H3.75A3.756 3.756 0 010 32.25V3.75z" fill="#000" fill-rule="nonzero"/><path d="M1.25 3.75v28.5c0 1.375 1.123 2.5 2.5 2.5h48.5c1.382 0 2.5-1.118 2.5-2.5V3.75c0-1.375-1.123-2.5-2.5-2.5H3.75a2.499 2.499 0 00-2.5 2.5z" fill="#FFF"/><g fill-rule="nonzero"><g transform="translate(4 5)"><path d="M9.05.02C4.062.02.02 4.137.02 9.214v9.019l.008.257c.1 1.153 1.048 2.057 2.207 2.057 1.16 0 2.107-.904 2.208-2.057l.008-.2v-1.161a8.874 8.874 0 004.6 1.28c4.988 0 9.03-4.117 9.03-9.199 0-5.073-4.042-9.19-9.03-9.19zm0 13.88c-2.536 0-4.6-2.102-4.6-4.686 0-2.583 2.064-4.684 4.6-4.684 2.537 0 4.6 2.1 4.6 4.684S11.586 13.9 9.05 13.9z" fill="#26A8E0"/><ellipse fill="#26A8E0" cx="2.235" cy="23.707" rx="2.215" ry="2.257"/><path d="M4.45 9.23v7.907a8.939 8.939 0 004.624 1.28v-4.51c-2.552 0-4.623-2.097-4.623-4.676z" fill="url(#a)"/></g><g fill="#464646"><path d="M30.95 17.653c0 .49-.068.936-.205 1.332a2.982 2.982 0 01-.566 1.01 2.432 2.432 0 01-1.87.858c-.357 0-.662-.057-.911-.167a1.87 1.87 0 01-.602-.405v2.731l-.92.27v-7.077c0-.204-.023-.42-.067-.654a1.94 1.94 0 00-.253-.654l.827-.245c.06.086.12.196.172.327.052.13.097.27.125.409.176-.172.413-.335.71-.495a2.1 2.1 0 011.007-.241c.39 0 .739.073 1.052.217.313.143.582.347.807.609.224.261.397.576.513.948.12.364.18.777.18 1.227zm-1.012-.017a3.15 3.15 0 00-.132-.96 2.004 2.004 0 00-.357-.687 1.43 1.43 0 00-.522-.41 1.52 1.52 0 00-.63-.134c-.177 0-.337.024-.482.078-.144.049-.28.114-.405.192-.124.077-.24.163-.337.261-.1.099-.193.188-.277.274v2.494c0 .155.024.315.076.47.048.16.133.303.245.425.116.123.265.225.454.303.188.077.417.114.694.114.305 0 .566-.07.778-.204.213-.135.386-.315.518-.536.129-.22.225-.478.285-.776a4.18 4.18 0 00.092-.904zM33.049 13.27c0 .155-.056.29-.165.409a.543.543 0 01-.799 0 .563.563 0 010-.814.55.55 0 01.402-.167.571.571 0 01.562.572zm-1.02 7.444v-5.796l.92-.27v6.062h-.92v.004zM38.346 20.714v-3.74c0-.56-.084-.957-.256-1.186-.173-.229-.474-.343-.9-.343-.184 0-.389.045-.613.135-.225.09-.434.208-.626.356a2.076 2.076 0 00-.482.515 1.096 1.096 0 00-.197.609v3.659h-.919v-5.801l.92-.27v.98c.108-.11.232-.22.376-.338.145-.119.306-.221.482-.315.177-.094.365-.172.574-.233.205-.061.425-.094.654-.094.297 0 .566.037.803.106.237.07.437.188.602.356.164.167.289.388.373.662.084.274.125.613.125 1.018v3.924h-.916zM45.322 20.154c0 1.06-.225 1.848-.67 2.36-.45.514-1.072.772-1.867.772-.43 0-.822-.041-1.176-.119a4.602 4.602 0 01-.935-.302l-.068-.83c.26.11.558.217.895.323.337.106.734.16 1.196.16.542 0 .963-.172 1.264-.516.297-.343.45-.846.45-1.508v-.34c-.177.148-.398.29-.667.426a2.069 2.069 0 01-.939.204c-.389 0-.742-.074-1.055-.217a2.28 2.28 0 01-.803-.609 2.896 2.896 0 01-.518-.94 3.771 3.771 0 01-.184-1.214c0-.544.076-1.018.237-1.415.156-.396.365-.723.63-.98.265-.258.566-.45.907-.573a3.112 3.112 0 011.06-.188c.276 0 .545.033.806.098.265.065.498.151.706.25l.735-.21v5.368h-.004zm-.915-4.382c-.201-.11-.402-.196-.606-.258a2.254 2.254 0 00-.65-.094c-.598 0-1.064.197-1.401.585-.333.388-.502.969-.502 1.742 0 .707.149 1.259.442 1.651.297.393.718.589 1.272.589.168 0 .337-.033.506-.098.168-.066.32-.156.461-.262.137-.11.253-.233.341-.368a.75.75 0 00.133-.413v-3.074h.004zM47.525 13.27c0 .155-.056.29-.164.409a.543.543 0 01-.799 0 .563.563 0 010-.814.55.55 0 01.401-.167.571.571 0 01.562.572zm-1.02 7.444v-5.796l.92-.27v6.062h-.92v.004zM51.747 15.49h-1.413v3.45c0 .43.04.72.117.88.076.159.233.236.47.236.128 0 .264-.016.4-.045.137-.032.266-.07.378-.118l.217.72a5.173 5.173 0 01-.598.167c-.221.049-.446.07-.666.07-.422 0-.73-.127-.936-.385-.204-.257-.305-.666-.305-1.226v-3.753h-1.16l.253-.703h.907v-1.484l.92-.27v1.754h1.64l-.224.707z"/></g></g></g></svg>