<?xml version="1.0" encoding="UTF-8"?>
<svg width="56px" height="36px" viewBox="0 0 56 36" version="1.1" xmlns="http://www.w3.org/2000/svg" xmlns:xlink="http://www.w3.org/1999/xlink">
    <defs>
        <polygon id="path-1" points="0.02109375 0.061171875 10.2761719 0.061171875 10.2761719 12.0898828 0.02109375 12.0898828"></polygon>
    </defs>
    <g id="PM/PlayPlus" stroke="none" stroke-width="1" fill="none" fill-rule="evenodd">
        <g id="base">
            <path d="M0,3.75075247 C0,1.67926908 1.67596877,0 3.75035585,0 L52.2496442,0 C54.3209085,0 56,1.68806916 56,3.75075247 L56,32.2492475 C56,34.3207309 54.3240312,36 52.2496442,36 L3.75035585,36 C1.67909151,36 0,34.3119308 0,32.2492475 L0,3.75075247 Z" id="Rectangle-2" fill="#000000" fill-rule="nonzero"></path>
            <path d="M1.25,3.75075247 L1.25,32.2492475 C1.25,33.6250965 2.37296468,34.75 3.75035585,34.75 L52.2496442,34.75 C53.6324061,34.75 54.75,33.6316447 54.75,32.2492475 L54.75,3.75075247 C54.75,2.37490355 53.6270353,1.25 52.2496442,1.25 L3.75035585,1.25 C2.36759386,1.25 1.25,2.36835527 1.25,3.75075247 Z" id="Path" fill="#FFFFFF"></path>
        </g>
        <g id="Play+Color" transform="translate(6.000000, 7.000000)">
            <g id="Group-3" transform="translate(0.000000, 5.976562)">
                <mask id="mask-2" fill="white">
                    <use xlink:href="#path-1"></use>
                </mask>
                <g id="Clip-2"></g>
                <path d="M2.68066406,6.23003906 L5.67070312,6.23003906 C6.95953125,6.23003906 7.59515625,5.38804687 7.59515625,4.42582031 C7.59515625,3.46359375 6.94230469,2.604375 5.67070312,2.604375 L2.68066406,2.604375 L2.68066406,6.23003906 Z M2.68066406,8.68746094 L2.68066406,12.0898828 L0,12.0898828 L0,0.061171875 C1.92445312,0.061171875 3.763125,0.061171875 5.67070312,0.061171875 C8.74652344,0.061171875 10.2761719,2.05453125 10.2761719,4.37449219 C10.2761719,6.78023437 8.72929688,8.65300781 5.67070312,8.68746094 L2.68066406,8.68746094 L2.68066406,8.68746094 Z" id="Fill-1" fill="#171623" mask="url(#mask-2)"></path>
            </g>
            <polygon id="Fill-4" fill="#171623" points="11.5808203 18.0664453 14.0382422 18.0664453 14.0382422 6.05496094 11.5808203 6.05496094"></polygon>
            <path d="M17.9894531,13.8220313 C17.9894531,15.2310937 18.9861328,16.0558594 20.2232812,16.0558594 C21.6151172,16.0558594 22.4743359,14.9733984 22.4743359,13.9081641 C22.4743359,12.6878906 21.70125,11.5709766 20.2232812,11.5709766 C18.9861328,11.5709766 17.9894531,12.4129688 17.9894531,13.8220313 Z M22.5604687,9.57761719 L24.8800781,9.57761719 C24.8800781,12.3957422 24.8800781,15.2483203 24.8800781,18.0664453 L22.64625,18.0664453 L22.5087891,17.0012109 C21.9417187,17.8945312 20.7217969,18.2383594 19.8966797,18.2555859 C17.3534766,18.2728125 15.5148047,16.6229297 15.5148047,13.8220313 C15.5148047,11.0039062 17.4568359,9.354375 19.9655859,9.38847656 C21.0308203,9.38847656 22.0275,9.80085937 22.4743359,10.5570703 L22.5604687,9.57761719 L22.5604687,9.57761719 Z" id="Fill-5" fill="#171623"></path>
            <path d="M29.1406641,9.57761719 L29.1406641,13.9081641 C29.1406641,15.0078516 29.6905078,15.9700781 30.8763281,15.9700781 C32.0276953,15.9700781 32.8007812,14.9733984 32.8007812,13.8220313 L32.8007812,9.57761719 L35.2582031,9.57761719 L35.2582031,18.3072656 C35.2582031,21.2283984 33.1273828,22.5 31.1340234,22.5 C28.9346484,22.5 27.1473047,21.4688672 26.8379297,19.0975781 L29.2264453,19.0975781 C29.4672656,20.0425781 30.2403516,20.2317187 31.0651172,20.2317187 C31.9246875,20.2317187 32.9041406,19.5788672 32.9041406,18.3241406 L32.9041406,17.0525391 C32.0617969,18.1525781 31.2542578,18.2039063 30.0687891,18.2039063 C28.1095312,18.2039063 26.6660156,16.6401563 26.6660156,13.9250391 L26.6660156,9.57761719 L29.1406641,9.57761719" id="Fill-6" fill="#171623"></path>
            <path d="M37.6495313,4.31789062 L37.6495313,1.60277344 C37.6495313,0.808242187 38.2992188,0.158203125 39.09375,0.158203125 C39.8879297,0.158203125 40.5379688,0.808242187 40.5379688,1.60277344 L40.5379688,4.31789062 L39.09375,5.76210938" id="Fill-7" fill="#C8D733"></path>
            <path d="M40.5379688,7.20667969 L40.5379688,9.92179688 C40.5379688,10.7163281 39.8879297,11.3660156 39.09375,11.3660156 C38.2992188,11.3660156 37.6495313,10.7163281 37.6495313,9.92179688 L37.6495313,7.20667969 L39.09375,5.76210938" id="Fill-8" fill="#D7226A"></path>
            <path d="M37.6495312,7.20667969 L34.9340625,7.20667969 C34.1395312,7.20667969 33.4898437,6.55664062 33.4898437,5.76210938 C33.4898437,4.96792969 34.1395312,4.31789062 34.9340625,4.31789062 L37.6495312,4.31789062 L39.09375,5.76210938" id="Fill-9" fill="#009DCD"></path>
            <path d="M40.5379688,4.31789062 L43.2534375,4.31789062 C44.0476172,4.31789062 44.6976563,4.96792969 44.6976563,5.76210938 C44.6976563,6.55664062 44.0476172,7.20667969 43.2534375,7.20667969 L40.5379688,7.20667969 L39.09375,5.76210938" id="Fill-10" fill="#ED9A2D"></path>
        </g>
    </g>
</svg>