<?xml version="1.0" encoding="UTF-8"?><svg width="56" height="36" viewBox="0 0 56 36" xmlns="http://www.w3.org/2000/svg"><g fill="none" fill-rule="evenodd"><path d="M0 3.75A3.749 3.749 0 013.75 0h48.5A3.756 3.756 0 0156 3.75v28.5A3.749 3.749 0 0152.25 36H3.75A3.756 3.756 0 010 32.25V3.75z" fill="#000" fill-rule="nonzero"/><path d="M1.25 3.75v28.5c0 1.375 1.123 2.5 2.5 2.5h48.5c1.382 0 2.5-1.118 2.5-2.5V3.75c0-1.375-1.123-2.5-2.5-2.5H3.75a2.499 2.499 0 00-2.5 2.5z" fill="#FFF"/><path d="M40.703 29H16.296C14.477 29 13 27.482 13 25.61V10.389C13 8.52 14.476 7 16.296 7h24.407C42.523 7 44 8.52 44 10.388v15.223C44 27.48 42.523 29 40.703 29zm-.505-20.643c1.23.048 2.294 1.134 2.342 2.41.06 4.821.06 9.645 0 14.468-.047 1.265-1.103 2.36-2.343 2.408-7.797.102-15.597.102-23.395 0-1.23-.048-2.295-1.134-2.342-2.41-.06-4.821-.06-9.645 0-14.467.047-1.266 1.102-2.36 2.342-2.409a893.871 893.871 0 0123.396 0zm-23.33.979c-.76.01-1.427.67-1.457 1.455-.059 4.819-.176 9.641.002 14.456.046.738.654 1.368 1.376 1.416 7.802.305 15.62.305 23.42 0 .72-.048 1.332-.675 1.377-1.416.18-4.828.18-9.666 0-14.494-.045-.738-.654-1.368-1.376-1.416-7.775-.304-15.562-.001-23.343-.001zm13.9 7.95c.43-.03.972-1.38.413-1.492l-4.796-.007c.682-1.813 2.6-2.677 4.284-2.322.683.143 1.122.191 1.4.163l.033.014v-.018c.679-.09.303-.68.252-1.442-.028-.142-.195-.22-.195-.22-.795-.189-1.603-.326-2.42-.35-1.447-.014-2.95.36-3.982 1.396-.84.844-1.255 1.982-1.452 2.783h-.97c-.443.03-.954 1.381-.412 1.492l1.162.002s-.033.605-.021 1.019h-.728c-.43.03-.971 1.37-.413 1.483l1.32.002s.288 1.332.74 2.142c1.408 2.519 4.677 2.768 7.235 1.83.323-.17.191-.988.151-1.62-.05-.268-.338-.213-.338-.213-1.192.441-2.58.823-3.812.313-.998-.413-1.6-1.414-1.92-2.452h3.478c.442-.029.963-1.446.38-1.485H26.04c-.01-.34.001-.68.022-1.019h4.705z" fill="#000"/></g></svg>