<?xml version="1.0" encoding="UTF-8"?><svg width="56" height="36" viewBox="0 0 56 36" xmlns="http://www.w3.org/2000/svg"><g fill="none" fill-rule="evenodd"><path d="M0 3.75A3.749 3.749 0 013.75 0h48.5A3.756 3.756 0 0156 3.75v28.5A3.749 3.749 0 0152.25 36H3.75A3.756 3.756 0 010 32.25V3.75z" fill="#000" fill-rule="nonzero"/><path d="M1.25 3.75v28.5c0 1.375 1.123 2.5 2.5 2.5h48.5c1.382 0 2.5-1.118 2.5-2.5V3.75c0-1.375-1.123-2.5-2.5-2.5H3.75a2.499 2.499 0 00-2.5 2.5z" fill="#FFF"/><g fill-rule="nonzero"><path d="M19.027 26.326c-.013 0-.035-.013-.045-.013-.012 0-.035-.013-.057-.013a.314.314 0 00-.225.082.568.568 0 00-.17.22l-.035-.276h-.26v1.886h.282v-1.345a.43.43 0 01.125-.184.252.252 0 01.18-.068l.148.013.057-.302zm1.383 1.033v-.22c0-.252-.057-.459-.17-.61-.112-.15-.27-.22-.484-.22-.18 0-.337.092-.472.266-.135.174-.202.404-.202.666v.07c0 .275.067.504.202.678a.65.65 0 00.517.266.736.736 0 00.337-.069.889.889 0 00.215-.16l-.103-.22a.698.698 0 01-.193.137.595.595 0 01-.26.046.333.333 0 01-.304-.174c-.08-.114-.113-.265-.126-.45l.013-.012 1.03.006zm-.372-.656c.058.092.09.207.09.335v.046h-.719v-.013a.82.82 0 01.112-.358c.068-.092.158-.151.26-.151.1.016.19.062.257.141zm-6.174-.125c-.135.174-.202.404-.202.667v.068c0 .276.067.506.202.68.125.174.292.252.517.265a.668.668 0 00.327-.068.893.893 0 00.225-.161l-.113-.22a.55.55 0 01-.192.138.595.595 0 01-.26.046.36.36 0 01-.314-.174c-.08-.115-.113-.266-.126-.45l.013-.013h1.011v-.22c0-.252-.058-.46-.157-.61-.1-.151-.27-.22-.485-.22-.154.007-.311.099-.446.272zm.103.516a.72.72 0 01.125-.368c.067-.092.157-.15.247-.15.112 0 .202.045.26.127.067.092.09.207.09.335v.046h-.719l-.003.01zm2.317-.598a.572.572 0 00-.45-.183.596.596 0 00-.516.265c-.122.174-.18.404-.18.667v.068c0 .276.058.496.18.68a.578.578 0 00.516.265c.17 0 .315-.068.44-.183a.587.587 0 00.18-.437v-.013h-.26a.394.394 0 01-.103.266.376.376 0 01-.26.105c-.147 0-.247-.069-.314-.197-.068-.128-.09-.289-.09-.472v-.07c0-.183.035-.344.09-.482.067-.128.17-.183.314-.183.113 0 .193.046.26.128a.434.434 0 01.103.288h.26v-.013a.667.667 0 00-.17-.499zm.66-.147h-.291v1.106c0 .275.045.482.147.61a.46.46 0 00.395.197.425.425 0 00.27-.082.65.65 0 00.192-.243l.023.289h.26v-1.887h-.293v1.358a.639.639 0 01-.147.22.438.438 0 01-.26.07c-.112 0-.18-.037-.238-.116-.044-.082-.067-.22-.067-.413v-1.106l.01-.003zm-4.229-.693c-.215 0-.394.07-.516.197a.676.676 0 00-.202.496c0 .197.057.344.192.472.125.128.305.22.53.276.18.059.314.128.381.207a.428.428 0 01.103.288c0 .128-.045.22-.125.299a.502.502 0 01-.337.105.577.577 0 01-.372-.128c-.103-.082-.148-.207-.148-.368h-.282v.014c0 .23.08.413.237.55.158.139.35.208.562.208a.808.808 0 00.539-.184.646.646 0 00.202-.496.662.662 0 00-.18-.472 1.198 1.198 0 00-.507-.289c-.18-.059-.314-.115-.404-.197a.376.376 0 01-.112-.275.43.43 0 01.102-.299.492.492 0 01.328-.105c.147 0 .27.046.35.138.08.092.125.207.125.357h.27v-.01c.012-.196-.059-.367-.203-.528-.115-.174-.305-.256-.533-.256zm5.366-13.305h-2.227v9.962h2.227V12.35zm-3.068 3.885v-1.024a2.922 2.922 0 00-.966-1.818c-.584-.528-1.36-.827-2.317-.886v-.013H8.476v9.811h2.227V18.94h1.024v-.013c.956-.06 1.733-.345 2.317-.863.539-.483.866-1.09.969-1.828zm-2.567-1.562c.247.276.372.633.372 1.07 0 .426-.125.78-.372 1.046s-.597.404-1.06.414h-.673v-2.957h.674c.452.01.802.148 1.059.427zm25.559 13.02a.547.547 0 01-.157.22.438.438 0 01-.26.069c-.103 0-.18-.036-.225-.115-.058-.082-.08-.22-.08-.413v-1.106H37v1.106c0 .275.045.482.148.61a.48.48 0 00.404.197.45.45 0 00.27-.082.524.524 0 00.192-.243l.013.289h.26v-1.887h-.282v1.355zm-1.32-2.175h-.281v2.713h.282V25.52zm2.286.83v-.45h-.292v.45h-.247v.252h.247v1.139c0 .174.035.312.112.39a.343.343 0 00.282.128c.045 0 .09-.013.125-.013.045-.013.068-.036.103-.046l-.045-.242c-.013 0-.022.013-.045.013-.022 0-.045.013-.057.013-.058 0-.103-.013-.126-.046-.035-.036-.045-.105-.045-.184v-1.138h.293v-.253h-.305v-.013zm.853 0h-.292v1.886h.292V26.35zm0-.486v-.344h-.292v.344h.292zm-5.096 1.404v.046c0 .276.058.506.18.69a.616.616 0 00.517.265.628.628 0 00.516-.265c.126-.174.18-.404.18-.69v-.046c0-.275-.058-.505-.18-.679a.596.596 0 00-.516-.265.608.608 0 00-.517.265c-.122.174-.18.39-.18.68zm.7-.689c.135 0 .237.07.315.197.067.128.112.299.112.496v.046a.964.964 0 01-.112.495.335.335 0 01-.315.197.345.345 0 01-.314-.197 1.072 1.072 0 01-.113-.495v-.046c0-.197.036-.358.113-.496.077-.128.18-.197.314-.197zm-1.091-.692a.724.724 0 00-.562-.23c-.215 0-.394.07-.516.197a.676.676 0 00-.202.496.64.64 0 00.18.472c.124.128.304.22.529.276.18.059.314.128.382.207a.434.434 0 01.102.288c0 .128-.045.22-.125.299a.538.538 0 01-.337.105.577.577 0 01-.372-.128c-.103-.082-.148-.207-.148-.368h-.27v.014c0 .23.068.413.226.55.17.139.35.208.561.208a.87.87 0 00.552-.184.656.656 0 00.215-.496.662.662 0 00-.18-.472c-.112-.128-.282-.22-.507-.289-.18-.059-.314-.115-.394-.197a.391.391 0 01-.126-.275c0-.128.036-.22.113-.299a.492.492 0 01.327-.105c.157 0 .27.046.35.138.08.092.125.207.125.357h.27v-.01c-.004-.22-.058-.403-.193-.554zm-2.994.463v.252h.247v1.139c0 .174.035.312.103.39a.343.343 0 00.282.128c.045 0 .08-.013.125-.013.045-.013.068-.036.103-.046l-.045-.242c-.013 0-.035.013-.045.013-.022 0-.045.013-.058.013a.16.16 0 01-.125-.046c-.035-.036-.045-.105-.045-.184v-1.138h.292v-.253h-.292v-.45h-.292v.45h-.247l-.003-.013zm-1.64 1.01v-.22c0-.252-.057-.459-.157-.61-.1-.15-.26-.22-.484-.22-.18 0-.337.092-.472.266-.135.174-.202.404-.202.666v.07c0 .275.067.504.202.678.125.174.292.253.516.266a.736.736 0 00.562-.23l-.112-.22a.55.55 0 01-.193.138.595.595 0 01-.26.046.36.36 0 01-.314-.174.795.795 0 01-.113-.45v-.006h1.027zm-.282-.311v.046h-.732v-.014a.684.684 0 01.125-.357c.068-.092.158-.151.248-.151.112 0 .202.046.27.128.054.095.089.21.089.348zm1.235-.735a.425.425 0 00-.27.082.7.7 0 00-.201.23l-.023-.276h-.26v1.886h.283v-1.38a.416.416 0 01.157-.185.345.345 0 01.215-.069c.112 0 .192.037.247.105.058.07.08.184.09.358v1.181h.282v-1.197c0-.243-.045-.427-.135-.542-.08-.134-.215-.193-.385-.193zm-7.826.137a.826.826 0 00-.193-.55c-.125-.139-.305-.207-.53-.207H21.3v2.53h.292v-1.024h.517c.224 0 .404-.07.53-.207.134-.128.192-.312.192-.542zm-.395-.357c.068.105.103.22.103.357a.568.568 0 01-.103.345c-.067.092-.18.138-.327.138h-.517v-.978h.517c.147 0 .26.046.327.138zm1.666.38a.575.575 0 00-.427-.16c-.18 0-.328.059-.44.16a.484.484 0 00-.157.39v.014h.27c0-.082.035-.15.09-.207a.307.307 0 01.224-.082c.103 0 .18.036.237.092.058.056.09.151.09.266v.197h-.314c-.202 0-.372.046-.494.15a.507.507 0 00-.18.414c0 .17.045.312.125.414.08.101.202.15.372.15a.454.454 0 00.27-.091.85.85 0 00.215-.23c0 .046 0 .082.013.128 0 .046.013.105.022.16h.292c-.013-.058-.022-.127-.035-.183 0-.069-.013-.138-.013-.207v-.895c.006-.214-.048-.375-.16-.48zm-.755 1.428a.275.275 0 01-.067-.197.35.35 0 01.112-.253c.068-.069.158-.092.27-.092h.327v.299a.429.429 0 01-.17.22.408.408 0 01-.27.092c-.09 0-.157-.023-.202-.07zm1.765-.138l-.057-.243-.337-1.184h-.315l.584 1.84-.067.197c-.023.082-.058.151-.09.22a.174.174 0 01-.148.092h-.138l-.035.266c.023.013.058.013.09.023h.09a.384.384 0 00.305-.138c.08-.092.134-.207.18-.335l.65-2.162h-.314l-.398 1.424zm1.114-1.414h-.26v1.886h.292v-1.39a.342.342 0 01.35-.253c.102 0 .18.046.224.128.058.082.09.206.09.39v1.129h.283V27.03a.674.674 0 01.102-.311.298.298 0 01.247-.128c.103 0 .18.036.238.114.058.08.08.207.08.39v1.13h.292v-1.13c0-.265-.045-.459-.135-.586a.436.436 0 00-.372-.197.532.532 0 00-.292.092.868.868 0 00-.202.252.63.63 0 00-.157-.266.438.438 0 00-.27-.082.47.47 0 00-.27.07.56.56 0 00-.202.206l-.038-.236zm-.979-11.33H23.02v5.28a1.17 1.17 0 01-.462.298c-.18.069-.382.105-.62.105a.792.792 0 01-.65-.299c-.158-.207-.238-.505-.238-.919v-4.462h-2.224v4.44c0 1.023.215 1.771.63 2.267.416.482.987.725 1.732.725.417 0 .786-.092 1.126-.266.328-.174.607-.426.831-.748l.148.863h1.945v-7.284h.01zm6.784 2.24l.013-.035c.022-.69-.238-1.244-.8-1.68-.56-.437-1.315-.644-2.271-.657-.899 0-1.608.23-2.137.666-.53.45-.787.988-.787 1.634 0 .61.215 1.093.63 1.438.426.344 1.045.61 1.877.78.529.115.888.243 1.103.381.193.138.292.299.292.483 0 .22-.08.39-.237.505-.157.115-.382.174-.674.174-.36 0-.642-.082-.831-.23-.202-.15-.305-.403-.314-.748h-2.012l-.013.036c-.023.62.247 1.185.808 1.69.562.505 1.329.758 2.295.758.934 0 1.688-.207 2.262-.633.562-.427.854-.965.854-1.621 0-.634-.215-1.13-.63-1.483-.426-.345-1.068-.61-1.944-.781-.552-.105-.92-.23-1.104-.368-.18-.138-.27-.298-.27-.495s.08-.368.238-.496a.894.894 0 01.584-.197c.315 0 .54.07.687.22.147.151.215.368.215.656l2.166.004zm9.46 10.008c0-.275-.058-.505-.18-.679a.59.59 0 00-.507-.265.608.608 0 00-.517.265c-.125.184-.18.404-.18.68v.045c0 .276.058.506.18.69a.616.616 0 00.517.265.595.595 0 00.507-.265c.125-.174.18-.404.18-.69v-.046zm-.28.037c0 .196-.035.367-.102.495a.335.335 0 01-.315.197.345.345 0 01-.314-.197 1.076 1.076 0 01-.103-.495v-.046c0-.197.035-.358.103-.496a.33.33 0 01.314-.197c.135 0 .238.07.315.197.067.128.102.299.102.496v.046zm1.797-.266c0-.243-.044-.427-.147-.542a.483.483 0 00-.395-.183.425.425 0 00-.27.082.666.666 0 00-.202.23l-.012-.276h-.26v1.886h.282v-1.38a.488.488 0 01.157-.185.345.345 0 01.215-.069.34.34 0 01.26.105c.058.07.08.184.08.358v1.181h.283v-1.207h.01zm1.297-.597c-.103-.092-.238-.128-.404-.128-.167 0-.315.046-.418.16a.542.542 0 00-.17.39c0 .139.045.254.148.336.09.082.237.15.427.206a.774.774 0 01.282.128.248.248 0 01.067.184c0 .079-.035.138-.09.197a.368.368 0 01-.237.069.37.37 0 01-.247-.082.353.353 0 01-.112-.276h-.27v.013a.559.559 0 00.157.427c.113.128.27.184.472.184a.635.635 0 00.395-.115c.013-.013.035-.023.045-.036a.534.534 0 00.17-.404.447.447 0 00-.148-.358.206.206 0 00-.067-.046 1.151 1.151 0 00-.372-.15c-.135-.037-.225-.07-.27-.115a.248.248 0 01-.067-.184c0-.069.022-.138.08-.184.045-.059.125-.082.215-.082.103 0 .18.036.237.105.058.06.09.128.09.22h.27l.013-.013a.56.56 0 00-.158-.414.205.205 0 01-.038-.032z" fill="#3271B9"/><path d="M9.083 10.451a.243.243 0 00-.193-.082H6.866V8.3a.254.254 0 00-.08-.197.243.243 0 00-.193-.082.243.243 0 00-.193.082.254.254 0 00-.08.197v2.07H4.295a.243.243 0 00-.192.082.254.254 0 00-.08.197c0 .082.022.138.08.197.057.059.112.082.192.082H6.32v2.07c0 .082.023.138.08.197.058.06.113.082.193.082s.135-.023.192-.082a.254.254 0 00.08-.197v-2.07H8.89c.08 0 .135-.023.193-.082a.254.254 0 00.08-.197.254.254 0 00-.08-.197zm26.22 2.06h-2.644v9.812h1.607v-3.741h1.047c.92-.046 1.665-.322 2.204-.827.597-.551.889-1.3.889-2.221 0-.91-.292-1.644-.889-2.199-.549-.502-1.29-.777-2.214-.823zm-1.033 4.762V13.81h.83c.553.013.98.184 1.271.505.305.335.45.749.45 1.244s-.148.909-.45 1.23c-.292.312-.709.483-1.27.496h-.831v-.013zm12.562-2.254H45.27l2.182 7.199-.27.666a2.566 2.566 0 01-.427.702c-.17.207-.404.299-.696.299-.058 0-.135 0-.237-.014-.103-.013-.18-.013-.238-.023l-.18 1.267c.148.036.293.069.45.092.147.023.292.046.427.046.628 0 1.113-.184 1.463-.542.337-.357.606-.794.786-1.299l2.51-8.397h-1.576l-1.293 5.096h-.045l-1.294-5.092zm-5.792 1.414c.215-.184.507-.276.876-.276.405 0 .72.105.944.322.157.15.26.344.305.574-.315.702-.754 1.024-1.306.965-.944.013-1.675.206-2.218.597-.539.39-.821.942-.821 1.644 0 .679.202 1.22.606 1.61.395.391.957.588 1.698.588.45 0 .853-.115 1.216-.344.36-.23.642-.519.866-.863.013.174.045.357.08.528.036.174.09.358.148.541h1.62a5.314 5.314 0 01-.192-.804 6.824 6.824 0 01-.058-.872v-3.255c0-.804-.26-1.428-.763-1.864-.507-.427-1.181-.643-2.012-.643-.854 0-1.553.22-2.08.666-.539.45-.786.955-.763 1.529l.012.036h1.554a.744.744 0 01.288-.68zm-.224 2.966c.247-.23.597-.404 1.033-.518.844-.184 1.293-.519 1.338-1.024v2.267c-.103.266-.314.496-.642.712a1.992 1.992 0 01-1.09.312c-.328 0-.585-.082-.764-.243-.18-.16-.27-.39-.27-.666 0-.331.135-.61.395-.84zm11.979-6.543l-.023.804h.215v-1.093h-.282l-.283.804-.27-.804h-.282v1.093h.215l-.022-.804.282.804h.148l.302-.804zm-.98-.115v-.174h-.808v.174h.305v.92h.215v-.92h.289z" fill="#61A0C3"/></g></g></svg>