<svg width="56" height="36" viewBox="0 0 56 36" xmlns="http://www.w3.org/2000/svg"><g fill="none" fill-rule="evenodd"><path d="M0 3.75A3.749 3.749 0 013.75 0h48.5A3.756 3.756 0 0156 3.75v28.5A3.749 3.749 0 0152.25 36H3.75A3.756 3.756 0 010 32.25V3.75z" fill="#000" fill-rule="nonzero"/><path d="M1.25 3.75v28.5c0 1.375 1.123 2.5 2.5 2.5h48.5c1.382 0 2.5-1.118 2.5-2.5V3.75c0-1.375-1.123-2.5-2.5-2.5H3.75a2.499 2.499 0 00-2.5 2.5z" fill="#FFF"/><g><path d="M31.725 18.504v1.354c0 .013 0 .026.004.038.003.009.01.017.017.022.01.007.023.013.035.015.064.008.127.016.19.02.062.005.122-.003.182-.013a.607.607 0 00.375-.214c.104-.121.167-.264.21-.417.045-.163.075-.33.081-.5 0-.013 0-.026.003-.038.014-.06.012-.121.012-.182v-.307c-.001-.032-.006-.064-.008-.096-.002-.019-.006-.038-.006-.057a2.025 2.025 0 00-.04-.342 1.721 1.721 0 00-.095-.331.76.76 0 00-.225-.306.56.56 0 00-.33-.115h-.144a.665.665 0 00-.207.038c-.045.015-.052.024-.053.067V18.504zM31.721 14c.002.042.004.083.004.125v1.969c0 .032.003.064.004.096 0 .01.018.021.03.017l.081-.026c.098-.032.198-.052.3-.07.069-.011.139-.015.209-.02.057-.005.114-.015.172-.011.029.001.057.004.086.006l.057.006c.139.002.274.028.407.063.197.05.381.131.549.247.202.14.37.315.498.526.137.223.227.465.279.721.016.078.026.157.039.236.013.086.014.172.018.258l.008.115c0 .013.003.026.001.038-.014.093-.007.186-.012.278-.003.051-.005.102-.013.153-.01.06-.014.12-.023.18a2.81 2.81 0 01-.152.594 2.44 2.44 0 01-.248.487 1.98 1.98 0 01-.408.443c-.196.16-.415.275-.654.356a2.745 2.745 0 01-.474.116c-.133.02-.266.037-.401.037l-.557-.005c-.032 0-.064-.006-.096-.01-.012 0-.025-.004-.038-.004-.087.001-.172-.013-.257-.025a3.906 3.906 0 01-.573-.118 2.541 2.541 0 01-.395-.148l-.034-.017c-.042-.016-.057-.048-.055-.091v-.077-6.34c0-.035.005-.07-.005-.105h1.653z" fill="#38B8EA"/><path d="M47.523 14l-.001.144v4.074c0 .012-.004.025.01.034.006.005.017-.002.027-.02.03-.054.06-.107.088-.16l.333-.618.383-.709.252-.464c.023-.042.044-.085.072-.12.035-.013.067-.008.1-.008h1.547c.019 0 .038.002.057.005.003 0 .008.012.006.016a.147.147 0 01-.017.034l-.126.192a2558.702 2558.702 0 00-1.24 1.886c-.01.016-.018.033-.027.05.005.01.007.02.012.028l.32.513.337.537.213.343.366.586.25.399c.014.021.03.042.034.068.003.012-.007.028-.018.028-.02.002-.038.003-.058.003h-1.682l-.06-.002c-.025-.012-.032-.03-.04-.047-.14-.27-.278-.541-.417-.812l-.43-.838c-.071-.14-.144-.278-.216-.418l-.039-.077c-.01-.019-.02-.025-.028-.02-.009.006-.009.015-.009.024v2.066l-.003.096c0 .012-.013.024-.025.025l-.028.003h-1.48c-.029 0-.058-.002-.086-.003-.011 0-.023-.014-.024-.026l-.003-.029v-.086-6.63L45.87 14h1.653z" fill="#39B8EA"/><path d="M6.497 18.481v1.451c0 .029 0 .058.002.086 0 .013.008.025.021.03.03.008.062.018.093.024.19.038.382.038.572-.001a.917.917 0 00.552-.342c.072-.09.125-.193.168-.3.055-.141.09-.287.11-.437.027-.184.038-.37.034-.555-.003-.15-.007-.3-.027-.45a2.612 2.612 0 00-.061-.33 1.325 1.325 0 00-.155-.371.831.831 0 00-.485-.37 1.423 1.423 0 00-.722-.01c-.114.029-.102.013-.102.135v1.44m-1.476-2.077c.133-.064.272-.11.414-.15.194-.056.391-.095.591-.124a6.306 6.306 0 011.226-.053c.348.019.685.09 1.006.229a1.989 1.989 0 011.105 1.14c.067.173.111.353.14.537.032.213.042.427.031.641-.016.335-.077.66-.21.97a2.052 2.052 0 01-1.293 1.189c-.155.05-.314.082-.477.1-.189.023-.377.02-.566.01a2.751 2.751 0 01-.456-.06c-.006-.002-.013-.001-.022-.002-.004.006-.01.014-.011.022-.002.022-.002.044-.002.067v1.709l.003.076H5.001v-6.171-.067c-.002-.024.01-.043.02-.063" fill="#61BB46"/><path d="M40.473 16.414c.045-.02.087-.037.129-.052.235-.083.476-.15.722-.193.104-.018.208-.04.312-.05.092-.01.184-.027.277-.026.013 0 .026 0 .039-.002.082-.018.165-.015.248-.016.221-.005.442-.006.663.001.039.002.077.001.115.011.012.004.025.004.038.005.195.013.387.05.575.102.208.057.405.14.583.264.144.1.267.22.362.367.095.147.163.305.197.477.026.131.04.265.04.4v3.035c0 .026-.001.052-.003.077 0 .011-.013.024-.025.024l-.048.003h-1.5l-.047-.002c-.012-.001-.025-.013-.026-.024l-.003-.029v-2.978c0-.045-.002-.09 0-.134a.805.805 0 00-.024-.21.473.473 0 00-.134-.25.457.457 0 00-.164-.097.68.68 0 00-.216-.041c-.055-.001-.11-.003-.163.001-.087.006-.172.02-.255.045a.072.072 0 00-.026.013.055.055 0 00-.015.022c-.003.009-.003.019-.003.028v3.527c0 .143.015.129-.128.13H40.59c-.032 0-.064-.003-.096-.004-.01 0-.022-.014-.024-.026l-.002-.028v-.077-4.17c0-.038-.003-.077.005-.123" fill="#38B7EA"/><path d="M14.703 17.834v1.508c0 .044 0 .09.004.134a.53.53 0 00.342.47.8.8 0 00.433.056.876.876 0 00.212-.056.534.534 0 00.342-.47c.005-.048.004-.097.004-.145v-3.054l.003-.096c0-.012.013-.023.025-.024a.827.827 0 01.048-.002h1.383c.042.001.05.009.05.051v.067l.001 2.968c0 .112-.005.224-.017.336-.019.16-.057.315-.122.462a1.236 1.236 0 01-.486.555c-.15.094-.313.16-.484.208-.129.036-.26.062-.394.08a4.924 4.924 0 01-.805.041c-.067-.001-.135-.002-.202-.006a3.45 3.45 0 01-.738-.115 1.838 1.838 0 01-.484-.208 1.23 1.23 0 01-.497-.582 1.672 1.672 0 01-.113-.464 3.122 3.122 0 01-.015-.335v-2.94c0-.132-.013-.118.118-.118h1.278c.029 0 .058 0 .086.002.012 0 .024.012.025.025l.002.028V17.834z" fill="#62BB47"/><path d="M37.82 19.253v-.634c0-.025-.003-.05-.004-.076 0-.01-.017-.023-.028-.022-.025.004-.05.01-.076.012a1.984 1.984 0 00-.393.083c-.117.037-.226.09-.324.165a.554.554 0 00-.096.093.683.683 0 00-.117.22c-.028.088-.031.182-.038.274l.002.019.011.105a.564.564 0 00.413.501c.089.027.18.043.274.04h.087c.065.002.127-.016.19-.024.022-.003.043-.013.064-.021.018-.008.032-.021.033-.043l.001-.077v-.615m-.013-1.49c.007-.01.01-.014.01-.016.007-.087.009-.174-.002-.26a.397.397 0 00-.192-.295.54.54 0 00-.149-.065.894.894 0 00-.246-.037c-.112.002-.224 0-.336.005a1.313 1.313 0 00-.19.023 3.518 3.518 0 00-.783.222c-.018.007-.035.015-.053.021-.025.01-.042 0-.054-.025-.009-.02-.018-.04-.026-.062l-.18-.496-.106-.298a.116.116 0 01-.009-.037c0-.008.005-.02.012-.024a.391.391 0 01.069-.033 4.77 4.77 0 01.84-.235c.09-.017.181-.036.273-.05.075-.012.152-.018.228-.026.016-.002.033 0 .048-.004.066-.015.134-.015.2-.015.135-.002.27-.002.404-.001.203.001.402.03.598.08.213.053.412.137.593.264.17.12.302.275.402.457.073.133.122.275.155.422.02.087.032.176.044.265.018.127.016.255.016.383v2.545c0 .032 0 .064-.002.096a.038.038 0 01-.02.031.488.488 0 01-.05.027c-.21.09-.427.156-.65.2a4.79 4.79 0 01-.34.059c-.115.014-.229.026-.343.038-.265.026-.531.017-.797.017-.041 0-.083-.001-.124-.004-.036-.002-.07-.006-.105-.01-.013-.001-.026-.004-.038-.004a2.886 2.886 0 01-.576-.101 1.89 1.89 0 01-.582-.265 1.205 1.205 0 01-.401-.47 1.353 1.353 0 01-.128-.508c-.004-.05-.013-.1-.013-.152 0-.055.01-.109.013-.163a1.241 1.241 0 01.24-.628c.12-.158.271-.28.44-.38.184-.107.38-.183.583-.246.177-.055.357-.096.54-.13.12-.021.239-.043.36-.057.073-.008.145-.02.218-.03.028-.004.057-.004.086-.006.02-.001.039-.002.058-.005.022-.004.043-.01.065-.017" fill="#38B8EA"/><path d="M10.521 14.024c.039-.002.077-.004.115-.004h1.277l.105-.002c.003.009.009.018.009.027l.001.086v6.59c0 .136.012.119-.116.119h-1.288a.998.998 0 01-.086-.004c-.005 0-.01-.007-.013-.012a.04.04 0 01-.004-.019l-.001-.086v-6.59l.001-.105" fill="#62BB47"/><path d="M20.304 16.069c.08.003.16.003.24.008.344.021.679.087.995.23.058.026.115.057.172.086.015.007.02.025.014.04l-.016.035-.305.642-.026.051c-.004.007-.018.01-.026.006a1.415 1.415 0 00-.628-.221.985.985 0 00-.344.013.588.588 0 00-.202.086.435.435 0 00-.187.29c-.03.16.013.297.12.417.04.046.088.083.138.118.072.049.148.09.227.124.064.029.13.055.195.08.176.07.349.146.512.242.114.066.222.14.32.229a1.105 1.105 0 01.374.754c.004.083.005.166 0 .25a1.183 1.183 0 01-.084.362c-.096.246-.258.44-.467.598a1.89 1.89 0 01-.581.29 2.65 2.65 0 01-.527.104 3.58 3.58 0 01-.843-.02 3.44 3.44 0 01-.498-.1 2.164 2.164 0 01-.446-.174.247.247 0 01-.04-.027c-.003-.004-.006-.012-.005-.018a568.801 568.801 0 01.355-.797.163.163 0 01.02-.033c.003-.004.011-.006.016-.005.01.003.018.008.026.013a1.826 1.826 0 00.83.244.91.91 0 00.349-.05.578.578 0 00.198-.115.47.47 0 00.154-.424.506.506 0 00-.198-.35 1.062 1.062 0 00-.17-.108 2.505 2.505 0 00-.318-.134 3.054 3.054 0 01-.404-.177 1.822 1.822 0 01-.357-.243 1.226 1.226 0 01-.186-.206 1.05 1.05 0 01-.189-.506c-.01-.1-.012-.198-.002-.297.024-.242.11-.46.254-.654.148-.2.338-.348.56-.456.184-.09.376-.146.578-.173.146-.02.238-.025.402-.024" fill="#61BB46"/><path d="M25.42 18.407v-.212c0-.054-.001-.108.01-.162.004-.022.002-.045.003-.068.004-.099 0-.198.018-.296.004-.022.002-.045.004-.067.002-.039.002-.077.012-.115.004-.018.004-.038.006-.057a7.47 7.47 0 01.013-.095c.006-.047.013-.095.008-.143-.001-.004-.008-.009-.013-.01a.03.03 0 00-.019.003.294.294 0 01-.187.018 11.31 11.31 0 00-.228-.034l-.247-.031-.01-.001a3.138 3.138 0 00-.413 0c-.085.007-.171.019-.255.043-.04.012-.081.018-.12.03-.066.02-.133.022-.2.032a.429.429 0 01-.142-.01.148.148 0 01-.11-.083.317.317 0 01-.037-.138c-.003-.086 0-.172.018-.257.023-.1.052-.198.095-.292a.59.59 0 01.312-.298c.08-.035.162-.059.248-.073.076-.012.153-.018.23-.018.124 0 .25.002.374.005.032 0 .064.006.096.01l.047.005a.766.766 0 01.27.064c.08.033.16.063.247.076.059.01.107.04.144.087.016.02.029.043.044.063.003.004.011.007.016.006.005 0 .01-.008.01-.013.02-.07.039-.142.057-.213.039-.152.083-.302.128-.452l.03-.101a.974.974 0 01.087-.213.565.565 0 01.298-.26.804.804 0 01.27-.063l.019-.001c.083-.023.165-.008.247.004a.36.36 0 01.143.054.29.29 0 01.128.184c.017.07.018.138.006.209-.022.131-.07.252-.122.373-.122.289-.244.578-.352.872-.052.145-.105.289-.155.434a8.995 8.995 0 00-.256.924c-.027.122-.05.244-.068.368-.01.073-.023.145-.036.217a.354.354 0 01-.18.25.39.39 0 01-.269.042c-.018-.004-.038-.005-.056-.009a.17.17 0 01-.142-.139.855.855 0 01-.022-.18v-.27z" fill="#39B8EA"/><path d="M25.683 20.918c-.307-.001-.605-.056-.895-.155a2.88 2.88 0 01-1.036-.608 2.662 2.662 0 01-.66-.946.57.57 0 01-.012-.412.841.841 0 01.233-.359c.047-.044.1-.08.16-.105.067-.029.135-.06.207-.073.013-.003.025-.007.038-.008.067-.007.12.016.154.075.02.034.03.07.041.107a.95.95 0 01.019.085c.05.277.17.521.349.738.24.292.54.496.895.624.15.055.307.09.466.108.115.013.23.011.346-.001.095-.01.19-.02.286-.033a2.88 2.88 0 00.34-.06c.147-.037.285-.097.413-.177.11-.067.215-.14.316-.218l.344-.263a1.7 1.7 0 00.193-.173c.051-.053.106-.102.165-.147a.406.406 0 01.116-.066.063.063 0 01.055.008c.055.031.08.08.084.142a.282.282 0 01-.03.13.75.75 0 01-.081.13 8.268 8.268 0 01-.556.699 3.944 3.944 0 01-.458.438 2.525 2.525 0 01-.332.228c-.23.132-.477.218-.74.257-.139.02-.279.036-.42.035" fill="#EB2131"/><path d="M26.663 17.32a.528.528 0 01.054-.25c.066-.151.158-.285.28-.398a.553.553 0 01.261-.133.84.84 0 01.314-.008c.14.022.274.065.405.116.131.05.26.106.39.16.105.043.2.1.288.172.042.034.088.063.133.094l.049.031a.304.304 0 01.128.301c-.017.148-.069.286-.145.414a.603.603 0 01-.12.149.365.365 0 01-.113.07.218.218 0 01-.185-.007 7.4 7.4 0 01-.17-.092 3.695 3.695 0 00-.566-.259 1.811 1.811 0 00-.335-.081c-.056-.009-.115-.005-.172-.009a1.36 1.36 0 01-.256-.033.876.876 0 01-.144-.054.157.157 0 01-.096-.144v-.04" fill="#39B8EA"/></g></g></svg>