<?xml version="1.0" encoding="UTF-8"?><svg width="56" height="36" viewBox="0 0 56 36" xmlns="http://www.w3.org/2000/svg"><defs><linearGradient x1="47.369%" y1="82.164%" x2="59.373%" y2=".92%" id="a"><stop stop-color="#30469D" offset="0%"/><stop stop-color="#30469D" stop-opacity="0" offset="100%"/></linearGradient></defs><g fill="none" fill-rule="evenodd"><path d="M0 3.75A3.749 3.749 0 013.75 0h48.5A3.756 3.756 0 0156 3.75v28.5A3.749 3.749 0 0152.25 36H3.75A3.756 3.756 0 010 32.25V3.75z" fill="#000" fill-rule="nonzero"/><path d="M1.25 3.75v28.5c0 1.375 1.123 2.5 2.5 2.5h48.5c1.382 0 2.5-1.118 2.5-2.5V3.75c0-1.375-1.123-2.5-2.5-2.5H3.75a2.499 2.499 0 00-2.5 2.5z" fill="#FFF"/><g fill-rule="nonzero"><path d="M13.343 12.404H8.018v11.962h3.555v-3.478c3.867.251 5.732-1.224 5.62-4.431-.097-2.44-1.375-3.793-3.85-4.053zm-1.77 2.318c1.448.01 2.132.705 2.038 2.087-.047 1.316-.73 1.9-2.038 1.761v-3.848zm36.425 8.539h-.37l-.274.817h-.009l-.267-.817h-.37v1.178h.275l-.03-.826h.01l.283.826h.19l.283-.826h.009l-.03.826h.284V23.26h.016zm-7.667 1.103v-3.69h-3.98v-8.27h-4.027v11.962h8.007v-.002zm6-1.103h-.91v.214h.323v.964h.283v-.964h.313v-.214h-.01zm-1.499-6.685h-3.79v7.788h3.79v-7.788zm-3.79-.927h3.79v-3.245h-3.79v3.245z" fill="#000"/><path d="M24.98 11.013l-.103.75c-1.649.13-3.165.771-4.528 1.912-1.535 1.298-2.446 2.855-2.72 4.682-.275 1.827.162 3.394 1.316 4.682 1.1 1.241 2.549 1.882 4.34 1.937l-.673-3.218a3.048 3.048 0 01-1.165-.826c-.635-.713-.873-1.567-.72-2.578.15-1.01.643-1.864 1.498-2.577.682-.566 1.43-.91 2.236-1.02l-.085.612 3.032-1.76-2.427-2.596z" fill="#30469D"/><path d="M22.108 2.675c-.522-.584-1.11-1.04-1.782-1.354l-1.07 3.123c.123.102.236.214.341.344.635.713.882 1.576.73 2.577-.152 1.002-.655 1.865-1.508 2.578-.844.713-1.79 1.076-2.844 1.076-.501 0-.956-.083-1.365-.25l.672 3.218c.077 0 .162.009.248.009 1.905 0 3.629-.65 5.174-1.938 1.546-1.29 2.446-2.857 2.73-4.684.274-1.844-.172-3.403-1.326-4.7z" fill="url(#a)" transform="translate(8 11)"/></g></g></svg>