<?xml version="1.0" encoding="UTF-8"?><svg width="56" height="36" viewBox="0 0 56 36" xmlns="http://www.w3.org/2000/svg"><g fill="none" fill-rule="evenodd"><path d="M0 3.75A3.749 3.749 0 013.75 0h48.5A3.756 3.756 0 0156 3.75v28.5A3.749 3.749 0 0152.25 36H3.75A3.756 3.756 0 010 32.25V3.75z" fill="#000" fill-rule="nonzero"/><path d="M1.25 3.75v28.5c0 1.375 1.123 2.5 2.5 2.5h48.5c1.382 0 2.5-1.118 2.5-2.5V3.75c0-1.375-1.123-2.5-2.5-2.5H3.75a2.499 2.499 0 00-2.5 2.5z" fill="#FFF"/><path fill="#F5E11C" d="M4 25.988h47.978V11H4z"/><path d="M12.502 16.12a1.793 1.793 0 00-.624-.446c-.244-.11-.529-.16-.859-.16-.34 0-.641.06-.906.19-.264.118-.52.356-.774.705h-.028l.18-.774h-.794l-1.463 7.378h.812l.537-2.839h.027a.988.988 0 00.237.447c.113.118.245.218.387.289a2 2 0 00.472.15c.16.028.322.039.472.039.445 0 .841-.1 1.199-.297.35-.2.642-.457.879-.785.236-.329.424-.696.556-1.093.123-.396.19-.803.19-1.21a2.94 2.94 0 00-.132-.893 1.93 1.93 0 00-.368-.7zm-.643.557c.207.258.312.596.312 1.032 0 .297-.048.596-.133.904a2.962 2.962 0 01-.377.845c-.17.26-.387.467-.632.625-.245.16-.539.239-.878.239-.415 0-.727-.129-.944-.389-.217-.257-.33-.596-.33-.992 0-.278.047-.575.132-.893.085-.307.218-.596.387-.864.17-.258.377-.478.624-.646a1.47 1.47 0 01.85-.257c.461.01.791.139.989.396zm6.243 1.053c0-.725-.18-1.27-.547-1.649-.36-.378-.878-.567-1.568-.567-.444 0-.84.09-1.19.279a2.87 2.87 0 00-.897.745 3.163 3.163 0 00-.556 1.074c-.123.407-.19.824-.19 1.26 0 .328.047.625.142.893.095.279.237.507.425.696.18.2.406.347.679.467.265.11.567.168.896.168.445 0 .842-.089 1.181-.278.35-.189.642-.436.879-.754.245-.307.424-.675.557-1.082.122-.398.19-.814.19-1.252zm-.916-.525c.047.189.075.388.075.585 0 .258-.037.547-.122.846a3.502 3.502 0 01-.36.824c-.16.25-.36.457-.594.625-.237.168-.5.25-.812.25-.462 0-.811-.13-1.048-.397-.237-.268-.36-.625-.36-1.074 0-.278.048-.567.133-.864.075-.307.197-.586.36-.835.169-.249.368-.457.603-.625.245-.168.53-.249.85-.249.227 0 .424.04.594.129.17.079.302.178.414.317.125.13.21.29.267.468zm4.287-1.61a2.718 2.718 0 00-.7-.079c-.236 0-.461.03-.688.1a1.919 1.919 0 00-.604.297c-.18.129-.322.289-.435.486-.105.2-.16.417-.16.656a1.185 1.185 0 00.415.922c.132.108.274.208.424.297.16.08.33.16.5.229.16.079.322.15.482.207.16.069.302.14.424.218.123.08.227.16.302.25.075.1.123.207.123.338 0 .15-.038.278-.105.388a.746.746 0 01-.274.25 1.266 1.266 0 01-.37.15c-.142.028-.274.039-.406.039-.18 0-.35-.021-.51-.05a.93.93 0 01-.414-.179.835.835 0 01-.293-.318.974.974 0 01-.085-.486h-.821c0 .339.057.626.16.864.105.229.255.418.424.547.18.139.397.238.642.297a3.424 3.424 0 001.558 0c.245-.06.462-.16.662-.29.2-.128.359-.296.481-.506.123-.208.18-.467.18-.764 0-.208-.037-.388-.122-.536a1.276 1.276 0 00-.302-.407 2.135 2.135 0 00-.435-.307 6.762 6.762 0 00-.5-.25c-.16-.068-.321-.139-.481-.199a2.71 2.71 0 01-.435-.218 1.153 1.153 0 01-.302-.25.502.502 0 01-.122-.327c0-.14.037-.25.105-.328a.655.655 0 01.254-.208c.095-.05.217-.09.34-.11.132-.02.255-.04.387-.04.292 0 .547.08.756.24.207.16.302.388.292.685h.832c0-.308-.058-.576-.17-.785a1.635 1.635 0 00-.435-.526c-.14-.128-.347-.228-.574-.297zm4.042-1.53h-.831l-.312 1.578h-.86l-.151.785h.86l-.67 3.298c-.02.09-.029.16-.038.228-.01.069-.01.14-.01.218 0 .169.027.308.095.428.057.11.142.2.244.258.105.068.218.11.36.139.132.02.282.029.444.029.105 0 .197-.01.292-.02.105-.011.198-.022.302-.03l.152-.804c-.075.03-.16.05-.237.069-.077.019-.16.029-.244.029a.792.792 0 01-.35-.079c-.105-.05-.152-.15-.152-.289 0-.068 0-.128.01-.178.01-.05.01-.11.028-.179l.624-3.138h1.01l.16-.785h-1.01l.284-1.557zm5.57 3.815c0-.754-.17-1.332-.52-1.749-.339-.417-.888-.617-1.632-.625-.35 0-.68.079-1.001.25a2.599 2.599 0 00-.841.705 3.517 3.517 0 00-.567 1.093 4.705 4.705 0 00-.217 1.4c0 .228.027.477.094.724a1.837 1.837 0 001.011 1.213c.275.129.624.2 1.049.2.274 0 .539-.04.784-.12.245-.068.472-.178.68-.327.197-.15.376-.339.518-.567.143-.229.245-.486.322-.785h-.84c-.113.328-.293.585-.548.764-.245.179-.547.258-.926.258-.17 0-.33-.03-.492-.08-.16-.06-.302-.149-.424-.249a1.23 1.23 0 01-.292-.396 1.301 1.301 0 01-.113-.557c0-.16.01-.307.028-.457h3.834c.01-.079.028-.178.048-.297.037-.12.045-.26.045-.398zm-.867-.636c.038.19.048.368.038.557H27.32c.057-.208.132-.397.227-.586.094-.178.217-.338.359-.478.142-.139.312-.249.51-.328.189-.079.406-.128.651-.128.227 0 .425.05.587.139.16.079.282.2.377.338.083.148.148.308.187.486zm5.203-1.748c-.322 0-.614.068-.888.199a1.422 1.422 0 00-.642.625l-.02-.02.133-.665h-1.351l-1.453 7.21h1.388l.52-2.581h.037a1.204 1.204 0 00.576.635c.132.069.265.119.415.16.142.03.292.05.434.05.472 0 .879-.1 1.219-.289.35-.2.631-.467.859-.803.227-.329.396-.707.509-1.122a4.96 4.96 0 00.17-1.292c0-.645-.17-1.162-.5-1.538-.32-.37-.794-.57-1.406-.57zm-.472 1.102c.16 0 .312.03.435.1.122.069.227.16.312.268.075.1.142.228.19.378.047.139.064.297.064.457 0 .228-.027.477-.084.745a2.356 2.356 0 01-.283.725 1.712 1.712 0 01-.462.546c-.19.15-.415.218-.689.218-.34 0-.594-.1-.764-.317-.16-.208-.245-.497-.245-.846 0-.228.028-.477.095-.735a2.94 2.94 0 01.292-.735c.122-.228.282-.417.472-.567a.987.987 0 01.667-.237zm7.468 1.203c.075-.339.105-.636.105-.893.01-.297-.057-.546-.19-.725a1.41 1.41 0 00-.519-.428 2.533 2.533 0 00-.69-.207 6.067 6.067 0 00-.708-.05c-.292 0-.567.029-.841.089-.265.06-.51.16-.727.297a1.82 1.82 0 00-.547.546c-.152.229-.245.507-.292.845h1.303c.048-.268.16-.467.36-.585.197-.129.424-.2.67-.2.086 0 .18.01.283.03.105.02.198.05.283.1a.64.64 0 01.227.198.556.556 0 01.085.329c0 .168-.038.297-.123.388a.639.639 0 01-.36.2c-.16.039-.368.078-.603.099-.245.02-.53.05-.85.1-.614.079-1.095.268-1.435.575-.33.307-.5.725-.5 1.242 0 .189.028.367.095.536.065.168.17.317.312.446s.312.228.51.297c.207.079.454.118.726.118.293 0 .577-.05.85-.16.274-.11.509-.278.698-.506v.525h1.398a1.404 1.404 0 01-.047-.307c0-.1 0-.229.01-.368.01-.139.028-.257.057-.357l.46-2.174zm-3.35 1.082c.094-.06.207-.11.33-.14.122-.029.254-.06.386-.068.198-.01.407-.03.604-.05.198-.02.387-.09.567-.207l-.132.517a4.47 4.47 0 01-.152.436c-.058.15-.142.278-.237.388a1.323 1.323 0 01-.377.289c-.152.068-.33.1-.547.1a.96.96 0 01-.54-.15.507.507 0 01-.236-.447.79.79 0 01.094-.417.973.973 0 01.24-.251zm9.669-3.248h-1.473l-2.068 3.823h-.02l-.444-3.823h-1.425l.896 5.293c-.027.03-.434.696-1.228 1.977h1.388l4.374-7.27z" fill-rule="nonzero" fill="#0356A2"/></g></svg>