<?xml version="1.0" encoding="UTF-8"?>
<svg width="56px" height="36px" viewBox="0 0 56 36" version="1.1" xmlns="http://www.w3.org/2000/svg" xmlns:xlink="http://www.w3.org/1999/xlink">
    <!-- Generator: Sketch 55.2 (78181) - https://sketchapp.com -->
    <title>PM/PostFinance_eFinance</title>
    <desc>Created with Sketch.</desc>
    <defs>
        <polygon id="path-1" points="0.0510874058 0.0649198796 0.151087406 0.0649198796 0.151087406 0.15051988 0.0510874058 0.15051988"></polygon>
        <polygon id="path-3" points="0.0297175675 0.065580536 0.129717567 0.065580536 0.129717567 0.140970536 0.0297175675 0.140970536"></polygon>
        <polygon id="path-5" points="0.0545083209 0.065580536 0.197525202 0.065580536 0.197525202 0.140970536 0.0545083209 0.140970536"></polygon>
    </defs>
    <g id="PM/PostFinance_eFinance" stroke="none" stroke-width="1" fill="none" fill-rule="evenodd">
        <g id="Group-2">
            <path d="M0,3.75075247 C0,1.67926908 1.67596877,0 3.75035585,0 L52.2496442,0 C54.3209085,0 56,1.68806916 56,3.75075247 L56,32.2492475 C56,34.3207309 54.3240312,36 52.2496442,36 L3.75035585,36 C1.67909151,36 0,34.3119308 0,32.2492475 L0,3.75075247 Z" id="Rectangle-2" fill="#000000" fill-rule="nonzero"></path>
            <path d="M1.25,3.75075247 L1.25,32.2492475 C1.25,33.6250965 2.37296468,34.75 3.75035585,34.75 L52.2496442,34.75 C53.6324061,34.75 54.75,33.6316447 54.75,32.2492475 L54.75,3.75075247 C54.75,2.37490355 53.6270353,1.25 52.2496442,1.25 L3.75035585,1.25 C2.36759386,1.25 1.25,2.36835527 1.25,3.75075247 Z" id="Path" fill="#FFFFFF"></path>
        </g>
        <g id="Group-147" transform="translate(6.000000, 4.000000)">
            <g id="Group-146">
                <g id="Group-22" transform="translate(0.000000, 0.022901)">
                    <path d="M41.4780932,0.107437037 L2.48923373,0.107437037 C1.141049,0.107437037 0.0441413655,1.18059753 0.0441413655,2.49936296 L0.0441413655,25.4788074 C0.0441413655,26.7979185 1.141049,27.8703877 2.48923373,27.8703877 L41.4780932,27.8703877 C42.8260129,27.8703877 43.9230088,26.7979185 43.9230088,25.4788074 L43.9230088,2.49936296 C43.9230088,1.18059753 42.8260129,0.107437037 41.4780932,0.107437037" id="Fill-1" fill="#FFCC00"></path>
                    <path d="M41.4780932,0.107437037 L2.48923373,0.107437037 C1.141049,0.107437037 0.0441413655,1.18059753 0.0441413655,2.49936296 L0.0441413655,25.4788074 C0.0441413655,26.7979185 1.141049,27.8703877 2.48923373,27.8703877 L41.4780932,27.8703877 C42.8260129,27.8703877 43.9230088,26.7979185 43.9230088,25.4788074 L43.9230088,2.49936296 C43.9230088,1.18059753 42.8260129,0.107437037 41.4780932,0.107437037 Z" id="Stroke-3" stroke="#FFCC00" stroke-width="0.5"></path>
                    <path d="M43.9229912,25.4788074 L43.9229912,2.49936296 C43.9229912,1.18059753 42.8259952,0.107437037 41.4780755,0.107437037 L31.9557863,0.107437037 C33.3880835,4.46005432 34.3513124,13.6548568 28.8317863,20.3847951 C25.3161157,24.6664617 19.8466859,27.1689185 12.51671,27.8703877 L14.6136016,27.8703877 C20.9835293,26.9141531 25.811955,24.4655358 29.0325253,20.5425975 C33.9162602,14.5922519 33.799457,6.76564691 32.7262281,1.94938765 C33.9904771,6.50777037 34.5935775,14.3685111 30.0956819,20.5801901 C27.661457,23.938116 24.1029349,26.3706593 19.4564289,27.8703877 L20.7470956,27.8703877 C24.9209992,26.3239062 28.1648948,23.9735481 30.4470635,20.8243259 C32.7052,17.7074247 33.9633526,13.7688444 34.0815695,9.4435358 C34.1262763,7.83846173 34.016188,6.37105432 33.8334731,5.08331358 C34.7097622,9.55830123 34.6657622,15.5200543 31.3721237,20.6958198 C29.4406297,23.7305358 26.6421237,26.1241037 23.0053205,27.8703877 L24.3209028,27.8703877 C27.5553446,26.1304988 30.081457,23.8408938 31.8843084,21.0082272 C34.635192,16.686116 35.1836016,11.8348568 34.8127823,7.70520247 C35.3697622,11.6682395 35.0729831,16.369042 32.6577542,20.7280543 C31.0664209,23.597363 28.7448466,25.9803012 25.7053124,27.8703877 L27.0959952,27.8703877 C29.7728386,26.0212642 31.8596578,23.7600049 33.3401076,21.0896346 C34.9601558,18.165363 35.6612402,15.0973753 35.7965092,12.1785481 C35.7870554,14.9843383 35.2661237,17.9066222 33.9442683,20.6755975 C32.611192,23.4675605 30.6159068,25.8682148 27.9748466,27.8703877 L29.4447823,27.8703877 C31.7759871,25.9203259 33.5740675,23.6434247 34.8043004,21.0682025 C35.4605896,19.6927457 35.9536016,18.2257704 36.2804209,16.6935481 C36.0538827,17.9728198 35.698702,19.2570173 35.1868707,20.5222889 C34.0695534,23.2809802 32.2938265,25.7437704 29.8956498,27.8703877 L31.6440755,27.8703877 C33.7088948,25.8300173 35.2716016,23.5178568 36.3063084,20.9630296 C35.3579229,23.4881284 33.8729671,25.8011531 31.8714088,27.8703877 L41.4780755,27.8703877 C42.8259952,27.8703877 43.9229912,26.7979185 43.9229912,25.4788074" id="Fill-5" fill="#FFE47D"></path>
                    <g id="Group-9" transform="translate(31.277108, 0.000000)">
                        <mask id="mask-2" fill="white">
                            <use xlink:href="#path-1"></use>
                        </mask>
                        <g id="Clip-8"></g>
                        <path d="M0.117937406,0.0862516574 L0.0799374058,0.0917516574 C0.0810374058,0.0995516574 0.0818374058,0.108051657 0.0829374058,0.116651657 L0.122237406,0.116651657 C0.120837406,0.106651657 0.118937406,0.0962516574 0.117937406,0.0862516574" id="Fill-7" fill="#FFE666" mask="url(#mask-2)"></path>
                    </g>
                    <g id="Group-12" transform="translate(31.542169, 0.000000)">
                        <mask id="mask-4" fill="white">
                            <use xlink:href="#path-3"></use>
                        </mask>
                        <g id="Clip-11"></g>
                        <path d="M0.119915494,0.0671629701 L0.0297175675,0.0858629701 C0.0316968323,0.0961629701 0.0343358521,0.10726297 0.0365036184,0.11796297 L0.129717567,0.11796297 C0.125947539,0.10106297 0.122460263,0.0832629701 0.119915494,0.0671629701" id="Fill-10" fill="#FFE666" mask="url(#mask-4)"></path>
                    </g>
                    <g id="Group-15" transform="translate(31.718876, 0.000000)">
                        <mask id="mask-6" fill="white">
                            <use xlink:href="#path-5"></use>
                        </mask>
                        <g id="Clip-14"></g>
                        <path d="M0.186296245,0.0671629701 L0.0545083209,0.10606297 C0.0545083209,0.10976297 0.0555528751,0.11446297 0.0562492446,0.11796297 L0.197525202,0.11796297 C0.193608124,0.10156297 0.190039231,0.0832629701 0.186296245,0.0671629701" id="Fill-13" fill="#FFE666" mask="url(#mask-6)"></path>
                    </g>
                    <path d="M25.1052691,19.2443481 C30.9753815,14.2592247 32.1476546,5.73858272 31.3917912,0.107471605 L31.3571566,0.107471605 C32.1123133,5.72994074 30.9446345,14.2414222 25.083004,19.2196321 C19.6118072,23.8597679 11.1961446,24.8516074 0.0441767068,22.1771753 L0.0441767068,22.2120889 C11.2030361,24.8870395 19.6269157,23.8916568 25.1052691,19.2443481" id="Fill-16" fill="#FFE666"></path>
                    <path d="M26.3678482,19.7547605 C29.0614787,17.1778099 30.8351735,13.7624148 31.6401614,9.61392099 C32.4772217,5.2923284 31.9405631,1.5110321 31.666049,0.107402469 L31.5787558,0.107402469 C31.850796,1.49331605 32.3931976,5.27418025 31.5547237,9.59793333 C30.7537116,13.729316 28.9888522,17.1296741 26.3073261,19.6947852 C20.8603382,24.9058963 12.0259687,26.3326864 0.0441855422,23.942316 L0.0441855422,24.0289086 C12.0472618,26.4196247 20.9004506,24.9844519 26.3678482,19.7547605" id="Fill-18" fill="#FFE666"></path>
                    <path d="M27.6707165,20.1818815 C33.5069896,13.8795481 33.0828048,4.58691852 31.9193671,0.107437037 L31.7759695,0.107437037 C32.9404675,4.54794321 33.3795839,13.8160296 27.5670779,20.0915728 C22.2667566,25.8106593 13.2147727,27.7471531 0.667881124,25.8454 L0.0609815261,25.7504247 C0.0660176707,25.7988198 0.074853012,25.8471284 0.0835116466,25.8946593 L0.646499598,25.979437 C13.2422506,27.8875852 22.3364675,25.9367457 27.6707165,20.1818815" id="Fill-20" fill="#FFE666"></path>
                </g>
                <g id="Group-145" transform="translate(0.265060, 5.813025)">
                    <path d="M14.2202876,10.527179 L14.2596048,10.5155123 C14.2607534,10.5136975 14.2618137,10.5114506 14.2618137,10.5092901 L14.2618137,10.5085988 C11.5123438,8.42233951 9.23432771,5.5610679 7.43536386,1.94664815 L7.39834378,1.9626358 C9.19704257,5.57567284 11.4730265,8.43841358 14.2202876,10.527179" id="Fill-23" fill="#FFEA80"></path>
                    <path d="M14.2202876,10.527179 L14.2596048,10.5155123 C14.2607534,10.5136975 14.2618137,10.5114506 14.2618137,10.5092901 L14.2618137,10.5085988 C11.5123438,8.42233951 9.23432771,5.5610679 7.43536386,1.94664815 L7.39834378,1.9626358 C9.19704257,5.57567284 11.4730265,8.43841358 14.2202876,10.527179 Z" id="Stroke-25" stroke="#FFEA80" stroke-width="0.5"></path>
                    <path d="M8.58654699,10.2503593 C9.55118956,10.6662111 10.5236956,10.9990136 11.4945229,11.2648407 C11.5296876,11.256458 11.5643221,11.2480753 11.5989566,11.239779 C11.6013422,11.2377049 11.6027558,11.2348531 11.6027558,11.2314827 C11.6024024,11.2280259 11.6004586,11.2249148 11.597808,11.2231864 C10.6018884,10.954421 9.60358313,10.6154827 8.61411325,10.1883099 C5.37719759,8.79263086 2.56384819,6.64319877 0.185904418,3.76343333 L0.132273896,3.80586543 C2.51693253,6.69392716 5.33947068,8.84958148 8.58654699,10.2503593" id="Fill-27" fill="#FFF0A6"></path>
                    <path d="M8.58654699,10.2503593 C9.55118956,10.6662111 10.5236956,10.9990136 11.4945229,11.2648407 C11.5296876,11.256458 11.5643221,11.2480753 11.5989566,11.239779 C11.6013422,11.2377049 11.6027558,11.2348531 11.6027558,11.2314827 C11.6024024,11.2280259 11.6004586,11.2249148 11.597808,11.2231864 C10.6018884,10.954421 9.60358313,10.6154827 8.61411325,10.1883099 C5.37719759,8.79263086 2.56384819,6.64319877 0.185904418,3.76343333 L0.132273896,3.80586543 C2.51693253,6.69392716 5.33947068,8.84958148 8.58654699,10.2503593 Z" id="Stroke-29" stroke="#FFEEAE" stroke-width="0.5"></path>
                    <path d="M13.5427052,10.7238963 C13.5580787,10.7197481 13.5731871,10.7153407 13.5885606,10.7110198 C13.5905044,10.7093778 13.5920064,10.7061802 13.5920064,10.7031556 C13.5920064,10.7016 13.5912996,10.7000444 13.5905044,10.6986617 C13.5873237,10.6967605 13.5843197,10.6943407 13.5807855,10.6926123 C9.81118715,8.40248889 6.79162088,4.84856296 4.54178956,0.0763777778 L4.49946827,0.0970320988 C6.75009478,4.8714642 9.77142811,8.42867407 13.5427052,10.7238963" id="Fill-31" fill="#FFEC8C"></path>
                    <path d="M13.5427052,10.7238963 C13.5580787,10.7197481 13.5731871,10.7153407 13.5885606,10.7110198 C13.5905044,10.7093778 13.5920064,10.7061802 13.5920064,10.7031556 C13.5920064,10.7016 13.5912996,10.7000444 13.5905044,10.6986617 C13.5873237,10.6967605 13.5843197,10.6943407 13.5807855,10.6926123 C9.81118715,8.40248889 6.79162088,4.84856296 4.54178956,0.0763777778 L4.49946827,0.0970320988 C6.75009478,4.8714642 9.77142811,8.42867407 13.5427052,10.7238963 Z" id="Stroke-33" stroke="#FFEC8C" stroke-width="0.5"></path>
                    <path d="M10.322294,10.3042074 C10.9394426,10.6020099 11.5592418,10.8629111 12.1794827,11.091837 C12.2049285,11.0849235 12.2303743,11.0785284 12.2556434,11.0718741 C12.2584707,11.0695407 12.2604145,11.066516 12.2604145,11.0625407 C12.2599727,11.0593432 12.2584707,11.0567506 12.2556434,11.0549358 C12.253788,11.0542444 12.2519325,11.0537259 12.2503422,11.0530346 C12.2494586,11.0530346 12.2492819,11.0526025 12.2488402,11.0526025 L12.2488402,11.0521704 C11.6142859,10.8199605 10.9799084,10.5542198 10.3493301,10.2496765 C6.15961124,8.22503457 2.73971566,4.85267654 0.121450602,0.181775309 L0.0664064257,0.209602469 C2.69120964,4.89294815 6.12020562,8.27360247 10.322294,10.3042074" id="Fill-35" fill="#FFEEAE"></path>
                    <path d="M10.322294,10.3042074 C10.9394426,10.6020099 11.5592418,10.8629111 12.1794827,11.091837 C12.2049285,11.0849235 12.2303743,11.0785284 12.2556434,11.0718741 C12.2584707,11.0695407 12.2604145,11.066516 12.2604145,11.0625407 C12.2599727,11.0593432 12.2584707,11.0567506 12.2556434,11.0549358 C12.253788,11.0542444 12.2519325,11.0537259 12.2503422,11.0530346 C12.2494586,11.0530346 12.2492819,11.0526025 12.2488402,11.0526025 L12.2488402,11.0521704 C11.6142859,10.8199605 10.9799084,10.5542198 10.3493301,10.2496765 C6.15961124,8.22503457 2.73971566,4.85267654 0.121450602,0.181775309 L0.0664064257,0.209602469 C2.69120964,4.89294815 6.12020562,8.27360247 10.322294,10.3042074 Z" id="Stroke-37" stroke="#FFEEAE" stroke-width="0.5"></path>
                    <path d="M12.0016096,10.4745148 C12.2884932,10.6294654 12.5764369,10.7749963 12.863939,10.9124901 C12.8839952,10.9069593 12.9036096,10.9021198 12.9232241,10.8971074 C12.9259631,10.8947741 12.9279068,10.8912309 12.9279068,10.8880333 C12.9279068,10.8855272 12.9266699,10.8834531 12.9251679,10.8820704 C12.9224289,10.880342 12.9198667,10.8790457 12.9166859,10.8778358 L12.9164209,10.8774901 C12.6195534,10.7359346 12.3231277,10.5872062 12.0274972,10.427416 C8.03772209,8.27202099 4.80999518,4.80702099 2.37214779,0.0778728395 L2.32134458,0.0992185185 C4.76475823,4.84011975 8.00061365,8.31402099 12.0016096,10.4745148" id="Fill-39" fill="#FFEEAE"></path>
                    <path d="M12.0016096,10.4745148 C12.2884932,10.6294654 12.5764369,10.7749963 12.863939,10.9124901 C12.8839952,10.9069593 12.9036096,10.9021198 12.9232241,10.8971074 C12.9259631,10.8947741 12.9279068,10.8912309 12.9279068,10.8880333 C12.9279068,10.8855272 12.9266699,10.8834531 12.9251679,10.8820704 C12.9224289,10.880342 12.9198667,10.8790457 12.9166859,10.8778358 L12.9164209,10.8774901 C12.6195534,10.7359346 12.3231277,10.5872062 12.0274972,10.427416 C8.03772209,8.27202099 4.80999518,4.80702099 2.37214779,0.0778728395 L2.32134458,0.0992185185 C4.76475823,4.84011975 8.00061365,8.31402099 12.0016096,10.4745148 Z" id="Stroke-41" stroke="#FFEEAE" stroke-width="0.5"></path>
                    <path d="M14.8954932,10.3263136 L14.8982321,10.3284741 L14.9348988,10.3168074 C12.8054932,8.29648642 10.9901839,5.70251111 9.54233655,2.59330123 C9.53544498,2.59044938 9.50390281,2.60254815 9.50390281,2.60254815 L9.49851325,2.60462222 L9.50081044,2.60998025 C10.9490112,5.71979506 12.7643205,8.31584444 14.8954932,10.3263136" id="Fill-43" fill="#FFE14D"></path>
                    <path d="M14.8954932,10.3263136 L14.8982321,10.3284741 L14.9348988,10.3168074 C12.8054932,8.29648642 10.9901839,5.70251111 9.54233655,2.59330123 C9.53544498,2.59044938 9.50390281,2.60254815 9.50390281,2.60254815 L9.49851325,2.60462222 L9.50081044,2.60998025 C10.9490112,5.71979506 12.7643205,8.31584444 14.8954932,10.3263136 Z" id="Stroke-45" stroke="#FFE14D" stroke-width="0.5"></path>
                    <path d="M15.5738442,10.113479 C15.5830329,10.1158988 15.6107759,10.1069111 15.6107759,10.1069111 C13.9515871,8.15356543 12.524061,5.77814568 11.3722859,3.03319506 C11.3614185,3.02878765 11.3359727,3.03855309 11.3359727,3.03855309 L11.3282859,3.04175062 L11.3313783,3.04926914 C12.4832418,5.79421975 13.9107679,8.17084938 15.5738442,10.113479" id="Fill-47" fill="#FFE14D"></path>
                    <path d="M15.5738442,10.113479 C15.5830329,10.1158988 15.6107759,10.1069111 15.6107759,10.1069111 C13.9515871,8.15356543 12.524061,5.77814568 11.3722859,3.03319506 C11.3614185,3.02878765 11.3359727,3.03855309 11.3359727,3.03855309 L11.3282859,3.04175062 L11.3313783,3.04926914 C12.4832418,5.79421975 13.9107679,8.17084938 15.5738442,10.113479 Z" id="Stroke-49" stroke="#FFE14D" stroke-width="0.5"></path>
                    <path d="M32.2901952,5.20759383 L32.2888699,5.20551975 L32.6129502,5.01971728 C34.7389984,3.81364321 36.774661,2.48295185 38.7100426,1.03663086 L38.6491671,0.962396296 C36.7175847,2.40595185 34.6861631,3.7343963 32.5647092,4.93761852 L32.2371831,5.1252358 L32.2387735,5.12679136 C32.1116329,5.20240864 23.7483639,10.1164951 13.6381711,11.4894457 C13.5219863,11.5086309 13.4098659,11.5268654 13.3058739,11.5425938 L12.804645,11.6069765 L12.5695365,11.645779 C12.5634402,11.645779 12.5589236,11.6509642 12.5589236,11.6565815 C12.5589236,11.6615074 12.5625566,11.6652235 12.5672394,11.6664333 C12.6761791,11.6698901 12.7866209,11.6736926 12.8998016,11.6771494 L12.9814402,11.6698901 C13.0621952,11.6600383 13.1427735,11.6496679 13.2235285,11.6395568 L14.0662434,11.5256556 C24.0185486,10.0731123 32.1754241,5.27586543 32.2901952,5.20759383" id="Fill-51" fill="#FFEEAE"></path>
                    <path d="M32.2901952,5.20759383 L32.2888699,5.20551975 L32.6129502,5.01971728 C34.7389984,3.81364321 36.774661,2.48295185 38.7100426,1.03663086 L38.6491671,0.962396296 C36.7175847,2.40595185 34.6861631,3.7343963 32.5647092,4.93761852 L32.2371831,5.1252358 L32.2387735,5.12679136 C32.1116329,5.20240864 23.7483639,10.1164951 13.6381711,11.4894457 C13.5219863,11.5086309 13.4098659,11.5268654 13.3058739,11.5425938 L12.804645,11.6069765 L12.5695365,11.645779 C12.5634402,11.645779 12.5589236,11.6509642 12.5589236,11.6565815 C12.5589236,11.6615074 12.5625566,11.6652235 12.5672394,11.6664333 C12.6761791,11.6698901 12.7866209,11.6736926 12.8998016,11.6771494 L12.9814402,11.6698901 C13.0621952,11.6600383 13.1427735,11.6496679 13.2235285,11.6395568 L14.0662434,11.5256556 C24.0185486,10.0731123 32.1754241,5.27586543 32.2901952,5.20759383 Z" id="Stroke-53" stroke="#FFEEAE" stroke-width="0.5"></path>
                    <path d="M32.3610369,3.43311975 L32.2989245,3.34298395 C29.9917518,4.73563827 22.4538803,9.0027 13.4769968,11.1249099 C13.0441534,11.2274901 12.6149325,11.3205642 12.1875671,11.409663 C11.9403542,11.4660951 11.7163783,11.5165642 11.5673261,11.5467247 L11.2806193,11.6089469 L11.2801775,11.6092062 C11.2745229,11.6092062 11.2693984,11.6143049 11.2693984,11.6200086 C11.2693984,11.6258852 11.2745229,11.6306383 11.2806193,11.6306383 L11.2806193,11.6308975 C11.3448522,11.6323667 11.413061,11.6344407 11.4800329,11.6358235 L11.7860892,11.5828481 C12.364539,11.468342 13.3952699,11.2548852 13.7702418,11.1648358 C22.6477277,9.01765062 30.0742739,4.81307037 32.3610369,3.43311975" id="Fill-55" fill="#FFF2B3"></path>
                    <path d="M32.6892522,4.0951037 L32.6874851,4.09311605 L32.7293647,4.06857284 C33.5257823,3.59395556 34.8002803,2.8079679 36.343196,1.76289383 L36.2840876,1.67906667 C34.7433807,2.72241235 33.4705614,3.50762222 32.6751157,3.98146173 L32.6322643,4.00704198 L32.64269,4.02415309 L32.6329711,4.00920247 C32.5092763,4.08628889 23.6430112,9.55994321 12.8835976,11.435079 L12.3865213,11.5345481 L11.9523526,11.6285728 C11.9489068,11.6306469 11.9465213,11.6341037 11.9465213,11.6378198 C11.9465213,11.6432642 11.9507622,11.6475852 11.9558867,11.6481037 C11.9962643,11.6495728 12.0377904,11.650437 12.0786096,11.6517333 L12.4493406,11.604116 L14.4716618,11.2345852 C24.5328185,9.13147407 32.571212,4.16864691 32.6892522,4.0951037" id="Fill-57" fill="#FFF0A6"></path>
                    <path d="M12.8073221,11.1624938 L13.1196514,11.0846296 C19.4896675,9.3384321 25.1419888,6.63833333 28.8665269,4.61118519 L28.805298,4.51214815 C25.0816434,6.5384321 19.4285269,9.23879012 13.0592177,10.9810988 C12.226045,11.2089012 11.4029446,11.4121605 10.5871775,11.5958889 L10.5871775,11.5962346 C10.5809928,11.5962346 10.5763984,11.6011605 10.5763984,11.6073827 C10.5763984,11.6112716 10.5787839,11.6147284 10.5822297,11.616284 C10.649555,11.6179259 10.7199727,11.618963 10.7927759,11.6201728 C11.0745349,11.567716 11.4676193,11.4903704 11.8172337,11.4077531 L12.8073221,11.1624938 Z" id="Fill-59" fill="#FFF0A6"></path>
                    <path d="M16.3141486,9.8649358 C15.0422129,7.99559012 13.9380602,5.79171358 13.0330562,3.3146642 L12.9953293,3.32702222 C13.8995382,5.80597284 15.0036908,8.01183704 16.2764217,9.88394815 L16.3141486,9.8649358 Z" id="Fill-61" fill="#FFE14D"></path>
                    <path d="M16.3141486,9.8649358 C15.0422129,7.99559012 13.9380602,5.79171358 13.0330562,3.3146642 L12.9953293,3.32702222 C13.8995382,5.80597284 15.0036908,8.01183704 16.2764217,9.88394815 L16.3141486,9.8649358 Z" id="Stroke-63" stroke="#FFE14D" stroke-width="0.5"></path>
                    <path d="M27.9440554,17.4136667 L27.9042964,17.4088272 C27.8686016,17.4104691 24.3455092,17.4014815 20.4084811,14.3165556 L20.3792361,14.3452469 L20.3994691,14.3664198 C24.323951,17.4327654 27.8688667,17.4514321 27.9042964,17.4514321 L27.8932522,17.4243827 C27.8969631,17.4471975 27.9305373,17.453679 27.9373406,17.4548889 C28.9496056,17.5983457 32.6410112,17.7399012 37.6549791,13.5303951 L37.6282964,13.4995432 C32.6267863,17.6985062 28.9515494,17.5571235 27.9440554,17.4136667" id="Fill-65" fill="#FFD500"></path>
                    <path d="M27.9440554,17.4136667 L27.9042964,17.4088272 C27.8686016,17.4104691 24.3455092,17.4014815 20.4084811,14.3165556 L20.3792361,14.3452469 L20.3994691,14.3664198 C24.323951,17.4327654 27.8688667,17.4514321 27.9042964,17.4514321 L27.8932522,17.4243827 C27.8969631,17.4471975 27.9305373,17.453679 27.9373406,17.4548889 C28.9496056,17.5983457 32.6410112,17.7399012 37.6549791,13.5303951 L37.6282964,13.4995432 C32.6267863,17.6985062 28.9515494,17.5571235 27.9440554,17.4136667 Z" id="Stroke-67" stroke="#FFD500" stroke-width="0.5"></path>
                    <path d="M29.4846297,12.9465864 L29.4866618,12.9625741 L29.4826859,12.9487469 C29.4183647,12.9682778 24.2363486,14.4806235 18.2511116,12.739179 C18.2476659,12.7395247 18.2445735,12.7411667 18.2425414,12.7441914 C18.2406859,12.7475617 18.2406859,12.7513642 18.2425414,12.7541296 C18.2945815,12.7796235 18.3461799,12.8046852 18.3977783,12.8306975 C24.3299149,14.5032654 29.4327663,13.0128704 29.4970876,12.9933395 L29.4969108,12.9921296 C29.6736177,12.9661173 35.4213606,12.040821 42.096196,4.68969753 L42.0595293,4.6593642 C35.3359229,12.0640679 29.5577863,12.936821 29.4846297,12.9465864" id="Fill-69" fill="#FFDF40"></path>
                    <path d="M29.4846297,12.9465864 L29.4866618,12.9625741 L29.4826859,12.9487469 C29.4183647,12.9682778 24.2363486,14.4806235 18.2511116,12.739179 C18.2476659,12.7395247 18.2445735,12.7411667 18.2425414,12.7441914 C18.2406859,12.7475617 18.2406859,12.7513642 18.2425414,12.7541296 C18.2945815,12.7796235 18.3461799,12.8046852 18.3977783,12.8306975 C24.3299149,14.5032654 29.4327663,13.0128704 29.4970876,12.9933395 L29.4969108,12.9921296 C29.6736177,12.9661173 35.4213606,12.040821 42.096196,4.68969753 L42.0595293,4.6593642 C35.3359229,12.0640679 29.5577863,12.936821 29.4846297,12.9465864 Z" id="Stroke-71" stroke="#FFDF40" stroke-width="0.5"></path>
                    <path d="M10.7885261,11.4328062 C10.8341165,11.422263 10.8797952,11.4113741 10.9256506,11.4001395 C10.9283012,11.3978926 10.9298916,11.3946951 10.9295231,11.3912383 C10.9290964,11.3873494 10.9266225,11.384584 10.9239719,11.3831148 C9.56085542,11.1286086 8.1910241,10.7568309 6.83638956,10.2377074 C4.41020482,9.30860864 2.20340161,7.98050988 0.220927711,6.26732469 L0.171184739,6.32367037 C2.16028514,8.04290494 4.3747751,9.37471975 6.80908835,10.3071025 C8.12793976,10.8123123 9.46119277,11.1782136 10.7885261,11.4328062" id="Fill-73" fill="#FFF2B3"></path>
                    <path d="M10.7885261,11.4328062 C10.8341165,11.422263 10.8797952,11.4113741 10.9256506,11.4001395 C10.9283012,11.3978926 10.9298916,11.3946951 10.9295231,11.3912383 C10.9290964,11.3873494 10.9266225,11.384584 10.9239719,11.3831148 C9.56085542,11.1286086 8.1910241,10.7568309 6.83638956,10.2377074 C4.41020482,9.30860864 2.20340161,7.98050988 0.220927711,6.26732469 L0.171184739,6.32367037 C2.16028514,8.04290494 4.3747751,9.37471975 6.80908835,10.3071025 C8.12793976,10.8123123 9.46119277,11.1782136 10.7885261,11.4328062 Z" id="Stroke-75" stroke="#FFEEAE" stroke-width="0.5"></path>
                    <path d="M41.0278707,7.88808395 C39.0638627,9.94798519 37.0221036,11.6189975 34.9515414,12.8548 C31.291943,15.0400963 28.7195333,15.1762074 28.6939992,15.1772444 C28.6502643,15.1864914 24.3621197,15.8743926 19.4961438,13.4886025 L19.4784731,13.5119358 L19.5272442,13.5501333 C24.4086819,15.9237383 28.6584811,15.2292691 28.7007141,15.2223556 C28.8063847,15.215442 31.3445133,15.0591086 34.9721277,12.8942938 C37.0469309,11.6557259 39.0928426,9.98160247 41.0542,7.91720741 C41.0538466,7.90951605 41.0278707,7.88808395 41.0278707,7.88808395" id="Fill-77" fill="#FFDB26"></path>
                    <path d="M41.0278707,7.88808395 C39.0638627,9.94798519 37.0221036,11.6189975 34.9515414,12.8548 C31.291943,15.0400963 28.7195333,15.1762074 28.6939992,15.1772444 C28.6502643,15.1864914 24.3621197,15.8743926 19.4961438,13.4886025 L19.4784731,13.5119358 L19.5272442,13.5501333 C24.4086819,15.9237383 28.6584811,15.2292691 28.7007141,15.2223556 C28.8063847,15.215442 31.3445133,15.0591086 34.9721277,12.8942938 C37.0469309,11.6557259 39.0928426,9.98160247 41.0542,7.91720741 C41.0538466,7.90951605 41.0278707,7.88808395 41.0278707,7.88808395 Z" id="Stroke-79" stroke="#FFDB26" stroke-width="0.5"></path>
                    <path d="M30.2723092,10.7105617 L30.2784056,10.7317346 L30.2708956,10.7133272 C30.1912892,10.745216 24.0819157,13.173784 16.9307671,12.1988827 L16.7770321,12.1853148 C16.7739398,12.1864383 16.7712892,12.1885988 16.7701406,12.1917963 C16.7686386,12.1954259 16.7694394,12.1988827 16.7719076,12.2019938 C16.8440924,12.2232531 16.9155703,12.2458951 16.9873133,12.2680185 C24.1288313,13.2214877 30.2152329,10.8010432 30.294751,10.7691543 L30.2939558,10.7680309 C30.4672169,10.7185988 36.3820361,8.9897716 42.8840522,1.85210494 L42.8368715,1.81278395 C36.290502,8.99832716 30.3440522,10.6910309 30.2723092,10.7105617" id="Fill-81" fill="#FFE14D"></path>
                    <path d="M30.2723092,10.7105617 L30.2784056,10.7317346 L30.2708956,10.7133272 C30.1912892,10.745216 24.0819157,13.173784 16.9307671,12.1988827 L16.7770321,12.1853148 C16.7739398,12.1864383 16.7712892,12.1885988 16.7701406,12.1917963 C16.7686386,12.1954259 16.7694394,12.1988827 16.7719076,12.2019938 C16.8440924,12.2232531 16.9155703,12.2458951 16.9873133,12.2680185 C24.1288313,13.2214877 30.2152329,10.8010432 30.294751,10.7691543 L30.2939558,10.7680309 C30.4672169,10.7185988 36.3820361,8.9897716 42.8840522,1.85210494 L42.8368715,1.81278395 C36.290502,8.99832716 30.3440522,10.6910309 30.2723092,10.7105617 Z" id="Stroke-83" stroke="#FFE14D" stroke-width="0.5"></path>
                    <path d="M29.878253,11.8287037 L29.8828474,11.8471975 L29.8766627,11.831037 C29.8048313,11.8568765 24.1110723,13.8361481 17.510012,12.4278519 C17.5065663,12.4281975 17.5034739,12.4300123 17.5015301,12.4329506 C17.5000281,12.4365802 17.5000281,12.4398642 17.5015301,12.4428025 C17.5728313,12.4687284 17.6431606,12.4950864 17.7133133,12.5233457 C24.239008,13.8472963 29.8242691,11.9066543 29.8959237,11.8813333 L29.8950402,11.8802963 C30.0520442,11.842358 35.8977711,10.3708889 42.3048072,3.45782716 L42.2630161,3.42325926 C35.8214337,10.3732222 29.9521165,11.8117654 29.878253,11.8287037" id="Fill-85" fill="#FFE14D"></path>
                    <path d="M29.878253,11.8287037 L29.8828474,11.8471975 L29.8766627,11.831037 C29.8048313,11.8568765 24.1110723,13.8361481 17.510012,12.4278519 C17.5065663,12.4281975 17.5034739,12.4300123 17.5015301,12.4329506 C17.5000281,12.4365802 17.5000281,12.4398642 17.5015301,12.4428025 C17.5728313,12.4687284 17.6431606,12.4950864 17.7133133,12.5233457 C24.239008,13.8472963 29.8242691,11.9066543 29.8959237,11.8813333 L29.8950402,11.8802963 C30.0520442,11.842358 35.8977711,10.3708889 42.3048072,3.45782716 L42.2630161,3.42325926 C35.8214337,10.3732222 29.9521165,11.8117654 29.878253,11.8287037 Z" id="Stroke-87" stroke="#FFE14D" stroke-width="0.5"></path>
                    <path d="M39.9923863,10.0942333 C38.2200169,11.8546901 36.4146032,13.2693815 34.6159928,14.3003691 C30.9157518,16.4211963 28.4050129,16.2991716 28.3004024,16.2930358 C28.2597598,16.2979617 24.366555,16.6324062 19.9573663,13.8757889 L19.9365149,13.9057765 L19.9616956,13.9290235 C24.3517116,16.6608383 28.2634707,16.3407395 28.3026996,16.3366778 C28.4068683,16.3422086 30.922555,16.4658753 34.6353422,14.3379617 C36.4389004,13.3048136 38.2488201,11.8870111 40.0138562,10.123184 C40.013061,10.1111716 39.9923863,10.0942333 39.9923863,10.0942333" id="Fill-89" fill="#FFD91A"></path>
                    <path d="M39.9923863,10.0942333 C38.2200169,11.8546901 36.4146032,13.2693815 34.6159928,14.3003691 C30.9157518,16.4211963 28.4050129,16.2991716 28.3004024,16.2930358 C28.2597598,16.2979617 24.366555,16.6324062 19.9573663,13.8757889 L19.9365149,13.9057765 L19.9616956,13.9290235 C24.3517116,16.6608383 28.2634707,16.3407395 28.3026996,16.3366778 C28.4068683,16.3422086 30.922555,16.4658753 34.6353422,14.3379617 C36.4389004,13.3048136 38.2488201,11.8870111 40.0138562,10.123184 C40.013061,10.1111716 39.9923863,10.0942333 39.9923863,10.0942333 Z" id="Stroke-91" stroke="#FFD91A" stroke-width="0.5"></path>
                    <path d="M29.0893719,14.0649877 L29.0897253,14.0721605 L29.0890185,14.0665432 C29.0313237,14.080284 24.3250908,15.1620864 18.9206008,13.1004568 C18.9179502,13.1004568 18.9147695,13.1019259 18.9128257,13.104 C18.9098217,13.1080617 18.9098217,13.1130741 18.9125606,13.1166173 C18.9460466,13.1371852 18.9791791,13.1575802 19.0121349,13.1785802 C24.3847293,15.191037 29.0411309,14.1191728 29.0982956,14.1053457 L29.0982956,14.1040494 C29.2524723,14.0853827 34.8996691,13.3179753 41.5866972,6.13519753 L41.5553317,6.10875309 C34.8311068,13.3315432 29.1628819,14.0566914 29.0893719,14.0649877" id="Fill-93" fill="#FFDD33"></path>
                    <path d="M29.0893719,14.0649877 L29.0897253,14.0721605 L29.0890185,14.0665432 C29.0313237,14.080284 24.3250908,15.1620864 18.9206008,13.1004568 C18.9179502,13.1004568 18.9147695,13.1019259 18.9128257,13.104 C18.9098217,13.1080617 18.9098217,13.1130741 18.9125606,13.1166173 C18.9460466,13.1371852 18.9791791,13.1575802 19.0121349,13.1785802 C24.3847293,15.191037 29.0411309,14.1191728 29.0982956,14.1053457 L29.0982956,14.1040494 C29.2524723,14.0853827 34.8996691,13.3179753 41.5866972,6.13519753 L41.5553317,6.10875309 C34.8311068,13.3315432 29.1628819,14.0566914 29.0893719,14.0649877 Z" id="Stroke-95" stroke="#FFDD33" stroke-width="0.5"></path>
                    <path d="M30.6654112,9.59326667 L30.6727446,9.61331605 L30.6647044,9.59551358 C30.5782948,9.63474815 24.0436763,12.5267852 16.3291863,11.9990198 L16.3298932,11.9991926 C16.3298932,11.9991926 16.1601663,11.9931432 15.9953871,11.9880444 C15.9919414,11.9889086 15.9892024,11.9915012 15.9884072,11.9950444 C15.9869936,12.0000568 15.9895558,12.0050691 15.994592,12.007316 C16.0735799,12.0240815 16.1529213,12.0413654 16.2318209,12.0602914 C24.005596,12.6183037 30.6068329,9.69627901 30.6935076,9.65704444 L30.6928892,9.65566173 C30.8423831,9.60043951 37.1411863,7.25051358 43.3054273,0.53422963 L43.2532104,0.490674074 C37.0635237,7.23305679 30.7405116,9.56621728 30.6654112,9.59326667" id="Fill-97" fill="#FFE14D"></path>
                    <path d="M30.6654112,9.59326667 L30.6727446,9.61331605 L30.6647044,9.59551358 C30.5782948,9.63474815 24.0436763,12.5267852 16.3291863,11.9990198 L16.3298932,11.9991926 C16.3298932,11.9991926 16.1601663,11.9931432 15.9953871,11.9880444 C15.9919414,11.9889086 15.9892024,11.9915012 15.9884072,11.9950444 C15.9869936,12.0000568 15.9895558,12.0050691 15.994592,12.007316 C16.0735799,12.0240815 16.1529213,12.0413654 16.2318209,12.0602914 C24.005596,12.6183037 30.6068329,9.69627901 30.6935076,9.65704444 L30.6928892,9.65566173 C30.8423831,9.60043951 37.1411863,7.25051358 43.3054273,0.53422963 L43.2532104,0.490674074 C37.0635237,7.23305679 30.7405116,9.56621728 30.6654112,9.59326667 Z" id="Stroke-99" stroke="#FFE14D" stroke-width="0.5"></path>
                    <path d="M31.8895036,6.31784568 C31.9665478,6.27791975 35.849592,4.2236358 40.3223952,0.557709877 L40.2625799,0.491339506 C35.7857124,4.16141358 31.8997526,6.21319136 31.8455036,6.2413642 L31.856106,6.26072222 L31.845857,6.24335185 C31.7375357,6.30514198 23.8640096,10.6858457 14.3827165,11.5732901 C14.0689735,11.6089815 13.7374715,11.6440679 13.4014635,11.676821 C13.3982827,11.6792407 13.3960739,11.682179 13.3960739,11.6860679 C13.3960739,11.6901296 13.3988129,11.6935 13.4020819,11.6954877 C13.4253189,11.696179 13.4483791,11.6968704 13.4717928,11.6980802 C13.5627968,11.7018827 13.6577767,11.7090556 13.7510779,11.7147593 C23.5370137,10.9691296 31.779857,6.38266049 31.8905639,6.32009259 L31.8895036,6.31784568 Z" id="Fill-101" fill="#FFEE99"></path>
                    <path d="M31.8895036,6.31784568 C31.9665478,6.27791975 35.849592,4.2236358 40.3223952,0.557709877 L40.2625799,0.491339506 C35.7857124,4.16141358 31.8997526,6.21319136 31.8455036,6.2413642 L31.856106,6.26072222 L31.845857,6.24335185 C31.7375357,6.30514198 23.8640096,10.6858457 14.3827165,11.5732901 C14.0689735,11.6089815 13.7374715,11.6440679 13.4014635,11.676821 C13.3982827,11.6792407 13.3960739,11.682179 13.3960739,11.6860679 C13.3960739,11.6901296 13.3988129,11.6935 13.4020819,11.6954877 C13.4253189,11.696179 13.4483791,11.6968704 13.4717928,11.6980802 C13.5627968,11.7018827 13.6577767,11.7090556 13.7510779,11.7147593 C23.5370137,10.9691296 31.779857,6.38266049 31.8905639,6.32009259 L31.8895036,6.31784568 Z" id="Stroke-103" stroke="#FFEE99" stroke-width="0.5"></path>
                    <path d="M10.1337213,11.5250506 C8.4336249,11.3242975 6.7200988,10.9629765 5.02883775,10.391137 C3.66174538,9.92844568 2.35985783,9.34597654 1.12167309,8.64891481 L1.07820321,8.71865556 C2.32133574,9.41856914 3.62896627,10.0037173 5.00224337,10.4682235 C6.5880988,11.0039395 8.19339197,11.3537667 9.78914297,11.5618654 C9.86583373,11.5692975 9.9427012,11.5762975 10.0135606,11.5832111 C10.0378578,11.5853716 10.1972474,11.5871864 10.2198659,11.5892605 C10.271906,11.5785444 10.324388,11.5673963 10.3770466,11.5559025 C10.3815526,11.5541741 10.3843799,11.5489889 10.3832313,11.5442358 C10.3827896,11.5417296 10.3812876,11.5390506 10.378902,11.5375815 C10.3423237,11.5333469 10.1702996,11.5298901 10.1337213,11.5250506" id="Fill-105" fill="#FFF0A6"></path>
                    <path d="M10.1337213,11.5250506 C8.4336249,11.3242975 6.7200988,10.9629765 5.02883775,10.391137 C3.66174538,9.92844568 2.35985783,9.34597654 1.12167309,8.64891481 L1.07820321,8.71865556 C2.32133574,9.41856914 3.62896627,10.0037173 5.00224337,10.4682235 C6.5880988,11.0039395 8.19339197,11.3537667 9.78914297,11.5618654 C9.86583373,11.5692975 9.9427012,11.5762975 10.0135606,11.5832111 C10.0378578,11.5853716 10.1972474,11.5871864 10.2198659,11.5892605 C10.271906,11.5785444 10.324388,11.5673963 10.3770466,11.5559025 C10.3815526,11.5541741 10.3843799,11.5489889 10.3832313,11.5442358 C10.3827896,11.5417296 10.3812876,11.5390506 10.378902,11.5375815 C10.3423237,11.5333469 10.1702996,11.5298901 10.1337213,11.5250506 Z" id="Stroke-107" stroke="#FFEEAE" stroke-width="0.5"></path>
                    <path d="M31.4908795,7.4305 C31.6144859,7.3727716 36.5158032,5.07668519 41.5863173,0.478895062 L41.5280924,0.421339506 C36.4361968,5.03745062 31.5158835,7.32921605 31.4521807,7.35851235 L31.4617229,7.37899383 L31.4518273,7.36084568 C31.3503092,7.41511728 23.8231285,11.3447963 14.8543735,11.6983395 C14.7265261,11.7066358 14.5347108,11.7206358 14.3560602,11.737142 L14.3560602,11.7374877 C14.3542048,11.7374877 14.352261,11.7374877 14.3508474,11.7380062 C14.3469598,11.7389568 14.3442209,11.7421543 14.3431632,11.7458704 C14.3422771,11.7507099 14.3450161,11.7552037 14.3493454,11.7570185 C14.4370803,11.7666975 14.5259639,11.7774136 14.6141406,11.7874383 C23.710743,11.4954259 31.3888313,7.4865 31.4919398,7.43248765 L31.4908795,7.4305 Z" id="Fill-109" fill="#FFEC8C"></path>
                    <path d="M31.4908795,7.4305 C31.6144859,7.3727716 36.5158032,5.07668519 41.5863173,0.478895062 L41.5280924,0.421339506 C36.4361968,5.03745062 31.5158835,7.32921605 31.4521807,7.35851235 L31.4617229,7.37899383 L31.4518273,7.36084568 C31.3503092,7.41511728 23.8231285,11.3447963 14.8543735,11.6983395 C14.7265261,11.7066358 14.5347108,11.7206358 14.3560602,11.737142 L14.3560602,11.7374877 C14.3542048,11.7374877 14.352261,11.7374877 14.3508474,11.7380062 C14.3469598,11.7389568 14.3442209,11.7421543 14.3431632,11.7458704 C14.3422771,11.7507099 14.3450161,11.7552037 14.3493454,11.7570185 C14.4370803,11.7666975 14.5259639,11.7774136 14.6141406,11.7874383 C23.710743,11.4954259 31.3888313,7.4865 31.4919398,7.43248765 L31.4908795,7.4305 Z" id="Stroke-111" stroke="#FFEC8C" stroke-width="0.5"></path>
                    <path d="M31.0920787,8.54458889 L31.0915486,8.54320617 C31.2229301,8.4855642 36.9867534,5.93790988 42.5290747,0.454835802 L42.4710265,0.4067 C36.9111229,5.90550247 31.1298056,8.44537901 31.058151,8.47614444 L31.064159,8.48979877 L31.0585044,8.4785642 C30.9645847,8.52453951 23.9523277,11.9186753 15.6289944,11.8294037 L15.6277574,11.8306136 C15.6277574,11.8306136 15.3774522,11.8278481 15.1692032,11.8318235 L15.136159,11.8337247 C15.1327133,11.8351074 15.1303277,11.8379593 15.129497,11.8418481 C15.1291791,11.8468605 15.1314763,11.8510086 15.1358056,11.8526506 C15.2369703,11.8682926 15.3385767,11.8842802 15.4402715,11.9011321 C23.8665365,12.0445025 30.9979823,8.5914284 31.0920787,8.54458889" id="Fill-113" fill="#FFEA80"></path>
                    <path d="M31.0920787,8.54458889 L31.0915486,8.54320617 C31.2229301,8.4855642 36.9867534,5.93790988 42.5290747,0.454835802 L42.4710265,0.4067 C36.9111229,5.90550247 31.1298056,8.44537901 31.058151,8.47614444 L31.064159,8.48979877 L31.0585044,8.4785642 C30.9645847,8.52453951 23.9523277,11.9186753 15.6289944,11.8294037 L15.6277574,11.8306136 C15.6277574,11.8306136 15.3774522,11.8278481 15.1692032,11.8318235 L15.136159,11.8337247 C15.1327133,11.8351074 15.1303277,11.8379593 15.129497,11.8418481 C15.1291791,11.8468605 15.1314763,11.8510086 15.1358056,11.8526506 C15.2369703,11.8682926 15.3385767,11.8842802 15.4402715,11.9011321 C23.8665365,12.0445025 30.9979823,8.5914284 31.0920787,8.54458889 Z" id="Stroke-115" stroke="#FFEA80" stroke-width="0.5"></path>
                    <polygon id="Fill-117" fill="#FFFFFF" points="35.2634996 9.2727358 35.6390016 7.54001975 5.1052988 7.54001975 4.73094538 9.2727358"></polygon>
                    <polygon id="Stroke-119" stroke="#FFFFFF" stroke-width="0.5" points="35.2634996 9.2727358 35.6390016 7.54001975 5.1052988 7.54001975 4.73094538 9.2727358"></polygon>
                    <path d="M38.9413783,5.17307778 C38.9413783,5.17307778 39.3512498,3.33769506 39.356551,3.32023827 L36.7558683,3.32023827 C36.7558683,3.33190494 36.2167357,5.75649753 36.2167357,5.7677321 L36.883539,5.7677321 C36.8889285,5.7677321 37.2928803,3.93813951 37.2928803,3.93813951 L38.555539,3.93813951 C38.555539,3.93813951 38.1577719,5.77369506 38.146551,5.78562099 L40.069298,5.78562099 L39.8190811,6.92134938 L37.9064948,6.92134938 C37.9064948,6.93344815 37.521539,8.64931235 37.521539,8.64931235 L36.0767839,8.64931235 C36.0767839,8.65492963 35.9478763,9.26704074 35.9425751,9.27274444 L38.0701253,9.27274444 C38.0701253,9.26704074 38.4509285,7.5400284 38.4509285,7.5400284 L40.3622779,7.5400284 C40.3622779,7.53415185 40.8656273,5.1845716 40.8656273,5.17307778 L38.9413783,5.17307778 Z" id="Fill-121" fill="#FF0000"></path>
                    <path d="M38.9413783,5.17307778 C38.9413783,5.17307778 39.3512498,3.33769506 39.356551,3.32023827 L36.7558683,3.32023827 C36.7558683,3.33190494 36.2167357,5.75649753 36.2167357,5.7677321 L36.883539,5.7677321 C36.8889285,5.7677321 37.2928803,3.93813951 37.2928803,3.93813951 L38.555539,3.93813951 C38.555539,3.93813951 38.1577719,5.77369506 38.146551,5.78562099 L40.069298,5.78562099 L39.8190811,6.92134938 L37.9064948,6.92134938 C37.9064948,6.93344815 37.521539,8.64931235 37.521539,8.64931235 L36.0767839,8.64931235 C36.0767839,8.65492963 35.9478763,9.26704074 35.9425751,9.27274444 L38.0701253,9.27274444 C38.0701253,9.26704074 38.4509285,7.5400284 38.4509285,7.5400284 L40.3622779,7.5400284 C40.3622779,7.53415185 40.8656273,5.1845716 40.8656273,5.17307778 L38.9413783,5.17307778 Z" id="Stroke-123" stroke="#FF0000" stroke-width="0.5"></path>
                    <path d="M34.2339703,5.71645062 C34.5082193,5.71645062 34.6950867,5.89940123 34.6950867,6.20282099 C34.6950867,6.25380864 34.6891671,6.29961111 34.6836892,6.35094444 L33.4971028,6.35094444 C33.6205325,5.96819136 33.8838257,5.71645062 34.2339703,5.71645062 L34.2339703,5.71645062 Z M34.8247896,7.99775926 L34.9759622,7.31737654 C34.7185004,7.40232716 34.4674884,7.47137654 34.1463237,7.47137654 C33.7717052,7.47137654 33.4449743,7.34529012 33.4270386,6.9042037 L35.3559703,6.9042037 C35.4269181,6.67873457 35.4672956,6.45447531 35.4672956,6.24870988 C35.4672956,5.61914198 35.0935606,5.10468519 34.2928137,5.10468519 C33.251392,5.10468519 32.6202835,5.93967284 32.6202835,6.86427778 C32.6202835,7.65372222 33.157649,8.11796914 33.9937373,8.11796914 C34.3335446,8.11796914 34.6016972,8.06594444 34.8247896,7.99775926 L34.8247896,7.99775926 Z M31.6496329,7.41961111 C31.2690948,7.41961111 31.0130466,7.25990741 31.0130466,6.79488272 C31.0130466,6.24870988 31.3628378,5.79647531 31.9191992,5.79647531 C32.0943157,5.79647531 32.2927574,5.8480679 32.4927896,5.92238889 L32.6316811,5.27061111 C32.4035526,5.19058642 32.1350466,5.13303086 31.8658337,5.13303086 C30.9482835,5.13303086 30.1646771,5.80226543 30.1646771,6.83515432 C30.1646771,7.68301852 30.696388,8.08340123 31.4627655,8.08340123 C31.7196088,8.08340123 31.935898,8.03733951 32.0943157,7.97503086 L32.2461952,7.30545062 C32.0701952,7.36870988 31.8775847,7.41961111 31.6496329,7.41961111 L31.6496329,7.41961111 Z M27.6098498,8.03154938 L27.9314562,6.58133951 C28.0602755,5.99696914 28.3526369,5.79647531 28.6561309,5.79647531 C29.04789,5.79647531 29.0949823,6.08235185 29.0192635,6.4089321 L28.668412,8.03154938 L29.5039703,8.03154938 L29.8726691,6.36866049 C30.0538819,5.53929012 29.6618578,5.10468519 29.04789,5.10468519 C28.709143,5.10468519 28.3816169,5.23612963 28.100653,5.52770988 L28.1769904,5.19058642 L27.3994803,5.19058642 L26.7749984,8.03154938 L27.6098498,8.03154938 Z M24.6050386,7.21427778 C24.6050386,6.92762346 24.8616169,6.76610494 25.2886289,6.76610494 C25.3701791,6.76610494 25.5518337,6.7720679 25.7152876,6.79488272 L25.6812715,6.95596914 C25.5804602,7.29430247 25.3003799,7.52305556 24.9673759,7.52305556 C24.727143,7.52305556 24.6050386,7.40854938 24.6050386,7.21427778 L24.6050386,7.21427778 Z M25.4119703,5.12188272 C25.0262193,5.12188272 24.6340185,5.20735185 24.5051108,5.24745062 L24.3656892,5.9053642 C24.5521149,5.85368519 24.9202835,5.75654938 25.2482514,5.75654938 C25.6870145,5.75654938 25.8449904,5.88790741 25.8449904,6.11112963 C25.8449904,6.15070988 25.8449904,6.1967716 25.8327976,6.24257407 L25.8206932,6.29961111 C25.6106771,6.2772284 25.4119703,6.26003086 25.3175205,6.26003086 C24.4883237,6.26003086 23.8215205,6.57554938 23.8215205,7.32308025 C23.8215205,7.80901852 24.2077133,8.09964815 24.7095606,8.09964815 C25.0664201,8.09964815 25.3701791,7.9637963 25.5695044,7.73417901 L25.504388,8.03154938 L26.2471751,8.03154938 L26.6100426,6.40314198 C26.6393759,6.28215432 26.6513036,6.1569321 26.6513036,6.03698148 C26.6513036,5.55052469 26.3759944,5.12188272 25.4119703,5.12188272 L25.4119703,5.12188272 Z M21.358404,8.03154938 L21.6800988,6.58133951 C21.8106851,5.99696914 22.1024281,5.79647531 22.406894,5.79647531 C22.7977695,5.79647531 22.8461871,6.08235185 22.7692313,6.4089321 L22.4189984,8.03154938 L23.2537614,8.03154938 L23.6221068,6.36866049 C23.8038498,5.53929012 23.4120908,5.10468519 22.7977695,5.10468519 C22.4592876,5.10468519 22.1317614,5.23612963 21.8517695,5.52770988 L21.9273116,5.19058642 L21.1481229,5.19058642 L20.5220506,8.03154938 L21.358404,8.03154938 Z M19.8623157,4.40710494 C19.8439382,4.66429012 20.0367253,4.86426543 20.2948056,4.86426543 C20.5805406,4.86426543 20.7852554,4.66429012 20.8028378,4.40710494 C20.8207735,4.14957407 20.6270145,3.94933951 20.3707896,3.94933951 C20.0835526,3.94933951 19.8791912,4.14957407 19.8623157,4.40710494 L19.8623157,4.40710494 Z M19.7439221,5.19058642 L19.11891,8.03154938 L19.9497855,8.03154938 L20.5748859,5.19058642 L19.7439221,5.19058642 Z M17.3822353,8.03154938 L17.7100265,6.54642593 L18.9727735,6.54642593 L19.124388,5.81954938 L17.8678257,5.81954938 L18.0605245,4.91024074 L19.3882996,4.91024074 L19.5518418,4.18370988 L17.3593518,4.18370988 L16.5291831,8.03154938 L17.3822353,8.03154938 Z M16.5579863,5.81358642 L16.6925486,5.19058642 L15.7977936,5.19058642 L15.9735285,4.40114198 L15.1020104,4.59014198 L14.5585486,7.01914198 C14.4069341,7.70591975 14.7925084,8.08340123 15.4939462,8.08340123 C15.639906,8.08340123 15.8855285,8.05496914 16.0618819,7.99775926 L16.201657,7.37415432 C16.0618819,7.40854938 15.8855285,7.44268519 15.7339141,7.44268519 C15.4939462,7.44268519 15.3245727,7.36300617 15.3833277,7.07712963 L15.6583719,5.81358642 L16.5579863,5.81358642 Z M13.3895446,7.19690741 C13.3895446,7.42617901 13.1031028,7.46575926 12.8634,7.46575926 C12.559641,7.46575926 12.2202755,7.38590741 12.0390627,7.32852469 L11.8984924,7.9690679 C12.1623157,8.03154938 12.4948779,8.08340123 12.8104763,8.08340123 C13.5591831,8.08340123 14.1667012,7.80901852 14.1667012,7.12224074 C14.1667012,6.23108025 13.0798659,6.38568519 13.0798659,5.99074691 C13.0798659,5.81358642 13.2549823,5.75058642 13.5297614,5.75058642 C13.7926129,5.75058642 14.1616651,5.85368519 14.2844763,5.88790741 L14.4245165,5.24226543 C14.1727976,5.17304321 13.8751349,5.13303086 13.6057454,5.13303086 C12.7932474,5.13303086 12.3024442,5.48804321 12.3024442,6.07664815 C12.3024442,6.94490741 13.3895446,6.80067284 13.3895446,7.19690741 L13.3895446,7.19690741 Z M10.243898,8.11796914 C11.1619783,8.11796914 11.7817775,7.46575926 11.9218177,6.6102037 C12.0683076,5.75654938 11.5829823,5.10468519 10.6652554,5.10468519 C9.74735181,5.10468519 9.1273759,5.75654938 8.98715904,6.6102037 C8.84084578,7.46575926 9.32617108,8.11796914 10.243898,8.11796914 L10.243898,8.11796914 Z M10.3205004,7.46031481 C9.98687791,7.46031481 9.72376145,7.20330247 9.84666104,6.6102037 C9.96947229,6.01952469 10.2619221,5.76242593 10.594661,5.76242593 C10.9279301,5.76242593 11.1914,6.02514198 11.0624924,6.6102037 C10.9402112,7.19690741 10.6534161,7.46031481 10.3205004,7.46031481 L10.3205004,7.46031481 Z M6.79493414,6.8582284 L7.16310281,6.8582284 C8.33837992,6.8582284 8.99325542,6.28854938 8.99325542,5.34475926 C8.99325542,4.64104321 8.48451647,4.18370988 7.6131751,4.18370988 L6.52633976,4.18370988 L5.69581767,8.03154938 L6.53729558,8.03154938 L6.79493414,6.8582284 Z M6.94080562,6.15070988 L7.21540803,4.88699383 L7.56661285,4.88699383 C7.95254056,4.88699383 8.13914297,5.04142593 8.13914297,5.40205556 C8.13914297,5.86509259 7.84130361,6.15070988 7.2922755,6.15070988 L6.94080562,6.15070988 Z" id="Fill-125" fill="#000000"></path>
                    <polygon id="Fill-127" fill="#000000" points="16.5395647 14.1953691 18.8636129 14.1953691 18.7448659 14.8037642 17.201155 14.8037642 16.9975888 15.7550728 18.3773157 15.7550728 18.2529141 16.3634679 16.8675325 16.3634679 16.6356932 17.4475173 18.1963679 17.4475173 18.060657 18.0559123 16.5056369 18.0559123 15.7083357 18.0559123"></polygon>
                    <polygon id="Fill-129" fill="#000000" points="19.1406803 16.2638778 20.627845 16.2638778 20.4977888 16.8722728 19.0106241 16.8722728"></polygon>
                    <polygon id="Fill-131" fill="#000000" points="21.8831349 14.1953691 24.0602514 14.1953691 23.9244522 14.8037642 22.5447253 14.8037642 22.3355044 15.7550728 23.6529422 15.7550728 23.5286289 16.3634679 22.2054482 16.3634679 21.8435526 18.0559123 21.051906 18.0559123"></polygon>
                    <path d="M24.7217446,13.9796568 L25.4794635,13.9796568 L25.3211341,14.6876074 L24.5634153,14.6876074 L24.7217446,13.9796568 Z M24.4446683,15.2075086 L25.2023871,15.2075086 L24.5802908,18.0559037 L23.8226602,18.0559037 L24.4446683,15.2075086 Z" id="Fill-133" fill="#000000"></path>
                    <path d="M25.9318594,15.6168272 C25.9506787,15.5320494 25.9657871,15.4535802 25.9770964,15.381679 C25.9884056,15.3097778 25.9977711,15.2517037 26.0053695,15.2075432 L26.7461245,15.2075432 L26.6952329,15.4840864 L26.7065422,15.4840864 C26.8120361,15.3881605 26.9345823,15.3070988 27.0740924,15.240642 C27.2135141,15.174358 27.3661888,15.1411728 27.5320281,15.1411728 C27.8185582,15.1411728 28.0485422,15.222321 28.2219799,15.3845309 C28.3953293,15.5467407 28.482004,15.7698765 28.482004,16.0537654 C28.482004,16.1607531 28.4707831,16.2686049 28.4480763,16.377321 C28.4255462,16.4861235 28.4046948,16.584642 28.3858755,16.6732222 L28.0806145,18.0559383 L27.3228956,18.0559383 L27.6055382,16.7119383 C27.6243574,16.6160988 27.6431767,16.5192222 27.6621727,16.4215679 C27.680992,16.3239136 27.6904458,16.2215926 27.6904458,16.1146049 C27.6904458,15.996642 27.651747,15.900716 27.5745261,15.827 C27.4972169,15.753284 27.398261,15.7162963 27.2775703,15.7162963 C27.1456586,15.7162963 27.0335382,15.744037 26.9412088,15.7992593 C26.8487028,15.8546543 26.7715703,15.9256049 26.7093695,16.0121975 C26.6471687,16.098963 26.5962771,16.1956667 26.5566948,16.3026543 C26.5170241,16.409642 26.4859237,16.5164568 26.4633936,16.623358 L26.1523896,18.0559383 L25.3946707,18.0559383 L25.9318594,15.6168272 Z" id="Fill-135" fill="#000000"></path>
                    <path d="M29.5733277,17.2815914 C29.5733277,17.3811469 29.61291,17.4558136 29.6920747,17.5055914 C29.7712394,17.5553691 29.8597695,17.580258 29.9579301,17.580258 C30.0972635,17.580258 30.2151269,17.5581346 30.3113438,17.5138877 C30.4073839,17.4696407 30.488404,17.4088012 30.554404,17.3313691 C30.620404,17.253937 30.673151,17.164579 30.7127333,17.0631222 C30.7523157,16.9617519 30.7871269,16.8539 30.8173438,16.7395667 L30.5515767,16.7395667 C30.4611912,16.7395667 30.3583478,16.7450975 30.2434,16.7561593 C30.1283639,16.767221 30.021898,16.7921099 29.9240024,16.8308259 C29.8258418,16.869542 29.7429663,16.9239864 29.6751108,16.9939864 C29.6073438,17.0640728 29.5733277,17.1599123 29.5733277,17.2815914 L29.5733277,17.2815914 Z M30.6985968,17.6189741 L30.6872876,17.6189741 C30.5552876,17.7812704 30.4186932,17.9057148 30.2774161,17.9923074 C30.1359622,18.0789 29.9596972,18.1222827 29.7486209,18.1222827 C29.4847976,18.1222827 29.2689502,18.0531469 29.1011671,17.9148753 C28.9334723,17.7766037 28.8496249,17.5747272 28.8496249,17.3092457 C28.8496249,17.0733198 28.90891,16.8880358 29.027657,16.7533938 C29.146404,16.6188383 29.2953679,16.5174679 29.4744602,16.4491963 C29.6533759,16.3810111 29.8475767,16.338579 30.0568859,16.3219864 C30.2660185,16.3053938 30.459159,16.2970975 30.636396,16.2970975 L30.9022514,16.2970975 C30.9134723,16.2565667 30.9200104,16.2160358 30.9219542,16.1754185 C30.9238096,16.1348877 30.9248699,16.0943568 30.9248699,16.0537395 C30.9248699,15.9837395 30.9069341,15.9247148 30.8710627,15.8767519 C30.8351912,15.8288753 30.7890707,15.7901593 30.7325245,15.7606037 C30.6759783,15.7311346 30.6137775,15.7108259 30.5459221,15.6997642 C30.4780667,15.6887025 30.4102996,15.6831716 30.3424442,15.6831716 C30.1727173,15.6831716 30.0087333,15.7025296 29.8504924,15.7412457 C29.6920747,15.7799617 29.5374562,15.8344062 29.3868137,15.9043198 L29.4941631,15.3126037 C29.6562032,15.2572951 29.8193036,15.2149494 29.9833759,15.1853938 C30.1472715,15.1559247 30.3141711,15.1411469 30.4838096,15.1411469 C30.6308297,15.1411469 30.7721068,15.1559247 30.9078177,15.1853938 C31.0436169,15.2149494 31.163159,15.2637765 31.2668859,15.3319617 C31.3706129,15.4001469 31.4544602,15.490542 31.5185165,15.6029741 C31.5825727,15.7154926 31.614645,15.8546284 31.614645,16.0205543 C31.614645,16.0832951 31.6071349,16.1653074 31.5920265,16.2666778 C31.5770064,16.3681346 31.5581871,16.4787519 31.5355687,16.5985296 C31.5128618,16.7183938 31.4882996,16.8456037 31.4620586,16.9801593 C31.4355526,17.1148012 31.4091349,17.2465914 31.3828056,17.375616 C31.3564763,17.5047272 31.3319141,17.628221 31.3092956,17.746184 C31.2867655,17.8642333 31.2697133,17.9674185 31.258404,18.0559123 L30.6194321,18.0559123 L30.6985968,17.6189741 Z" id="Fill-137" fill="#000000"></path>
                    <path d="M32.530755,15.6168272 C32.5495743,15.5320494 32.5646827,15.4535802 32.575992,15.381679 C32.5873012,15.3097778 32.5966667,15.2517037 32.6042651,15.2075432 L33.3450201,15.2075432 L33.2941285,15.4840864 L33.3054378,15.4840864 C33.4109317,15.3881605 33.5334779,15.3070988 33.672988,15.240642 C33.8124096,15.174358 33.9650843,15.1411728 34.1309237,15.1411728 C34.4174538,15.1411728 34.6474378,15.222321 34.8208755,15.3845309 C34.9942249,15.5467407 35.0808996,15.7698765 35.0808996,16.0537654 C35.0808996,16.1607531 35.0696787,16.2686049 35.0469719,16.377321 C35.0244418,16.4861235 35.0035904,16.584642 34.9847711,16.6732222 L34.67951,18.0559383 L33.9217912,18.0559383 L34.2044337,16.7119383 C34.223253,16.6160988 34.2420723,16.5192222 34.2610683,16.4215679 C34.2798876,16.3239136 34.2893414,16.2215926 34.2893414,16.1146049 C34.2893414,15.996642 34.2506426,15.900716 34.1734217,15.827 C34.0961124,15.753284 33.9971566,15.7162963 33.8764659,15.7162963 C33.7445542,15.7162963 33.6324337,15.744037 33.5401044,15.7992593 C33.4475984,15.8546543 33.3704659,15.9256049 33.3082651,16.0121975 C33.2460643,16.098963 33.1951727,16.1956667 33.1555904,16.3026543 C33.1159197,16.409642 33.0848193,16.5164568 33.0622892,16.623358 L32.7512851,18.0559383 L31.9935663,18.0559383 L32.530755,15.6168272 Z" id="Fill-139" fill="#000000"></path>
                    <path d="M37.8516361,15.8601333 C37.7008169,15.7643802 37.5161582,15.7163309 37.2975719,15.7163309 C37.1466643,15.7163309 37.0128088,15.7477012 36.8960056,15.8103556 C36.7791141,15.8730963 36.6802466,15.9560593 36.5991382,16.0593309 C36.5180297,16.162516 36.4568008,16.2796148 36.4153631,16.4104543 C36.3738369,16.5413802 36.3532506,16.6731704 36.3532506,16.8059111 C36.3532506,16.898121 36.3625277,16.988516 36.3814353,17.0769235 C36.400343,17.1654173 36.4332988,17.2447506 36.4803912,17.3147506 C36.5275719,17.3849235 36.5926,17.4410963 36.6755639,17.483442 C36.7584394,17.5258741 36.8657888,17.5471333 36.9977888,17.5471333 C37.0919735,17.5471333 37.193845,17.535121 37.3032265,17.5110963 C37.4124313,17.487158 37.5161582,17.4512074 37.6141422,17.4032444 L37.5294996,17.9896025 C37.4124313,18.0448247 37.2927124,18.0807753 37.170343,18.0974543 C37.0477968,18.1139605 36.9242787,18.1222568 36.7998771,18.1222568 C36.6114193,18.1222568 36.4408972,18.0927012 36.2882225,18.033763 C36.1354594,17.9748247 36.0054032,17.8918617 35.8980538,17.7848741 C35.7905277,17.6779728 35.7075639,17.5489481 35.6491622,17.3977136 C35.5906723,17.2465654 35.5615157,17.0789111 35.5615157,16.8944049 C35.5615157,16.6474173 35.6020699,16.4169358 35.6831783,16.2030469 C35.76411,15.9892444 35.8790578,15.8030099 36.0280217,15.6444296 C36.1768972,15.4859358 36.3579333,15.3623556 36.5708651,15.2738617 C36.7837968,15.1853679 37.0204072,15.1412074 37.280608,15.1412074 C37.4238289,15.1412074 37.5605116,15.1522691 37.6904795,15.1743062 C37.8205357,15.1964296 37.9365438,15.2222691 38.0383269,15.2517383 L37.8516361,15.8601333 Z" id="Fill-141" fill="#000000"></path>
                    <path d="M40.130359,16.3524062 C40.1416683,16.2859494 40.1473229,16.2215667 40.1473229,16.1588259 C40.1473229,16.0039617 40.1067687,15.8859988 40.0257486,15.8048506 C39.9446402,15.7237889 39.8250096,15.6831716 39.6666803,15.6831716 C39.4328972,15.6831716 39.2558369,15.7458259 39.1351462,15.871221 C39.0144554,15.996616 38.9183269,16.1570111 38.8467606,16.3524062 L40.130359,16.3524062 Z M38.7449775,16.8612457 C38.7449775,17.1267272 38.8146884,17.3129617 38.9541984,17.419863 C39.0936201,17.5268506 39.2934755,17.580258 39.553588,17.580258 C39.7119173,17.580258 39.864592,17.5618506 40.011612,17.5249494 C40.1586321,17.4881346 40.3037084,17.4382704 40.4470177,17.375616 L40.3508892,17.9618877 C40.2038691,18.0061346 40.0520779,18.0439864 39.8956924,18.0752704 C39.7392185,18.1065543 39.581861,18.1221963 39.4235317,18.1221963 C39.2123671,18.1221963 39.0210819,18.0973938 38.849588,18.047616 C38.678094,17.9978383 38.5309855,17.9213568 38.4085277,17.8180852 C38.2859815,17.7149 38.1908249,17.5849247 38.1229695,17.4281593 C38.0551141,17.2714802 38.0211863,17.0880111 38.0211863,16.8778383 C38.0211863,16.6566037 38.0626241,16.4418506 38.145588,16.2334926 C38.2284635,16.025221 38.3434996,15.839937 38.4905197,15.6776407 C38.6375398,15.5153444 38.8128329,15.3854556 39.0163992,15.2877148 C39.2199655,15.1900605 39.4404956,15.1411469 39.6779896,15.1411469 C39.8589373,15.1411469 40.0219494,15.1632704 40.1671141,15.2075173 C40.3121904,15.2517642 40.4376522,15.3190852 40.5431462,15.4093938 C40.6486402,15.4997889 40.7297486,15.6131716 40.7862948,15.7494556 C40.842841,15.8859988 40.8711141,16.0444926 40.8711141,16.2251963 C40.8711141,16.332184 40.8644876,16.4381346 40.8513229,16.543221 C40.8380699,16.6483074 40.8202225,16.7543444 40.797604,16.8612457 L38.7449775,16.8612457 Z" id="Fill-143" fill="#000000"></path>
                </g>
            </g>
        </g>
    </g>
</svg>