<?xml version="1.0" encoding="UTF-8"?>
<svg width="56px" height="36px" viewBox="0 0 56 36" version="1.1" xmlns="http://www.w3.org/2000/svg" xmlns:xlink="http://www.w3.org/1999/xlink">
    <!-- Generator: Sketch 52.5 (67469) - http://www.bohemiancoding.com/sketch -->
    <title>PM/Postova_Banka</title>
    <desc>Created with Sketch.</desc>
    <defs>
        <linearGradient x1="14.64%" y1="14.64%" x2="85.36%" y2="85.36%" id="linearGradient-1">
            <stop stop-color="#FFB30C" offset="0%"></stop>
            <stop stop-color="#FF8E0F" offset="24%"></stop>
            <stop stop-color="#FF2021" offset="86%"></stop>
        </linearGradient>
    </defs>
    <g id="PM/Postova_Banka" stroke="none" stroke-width="1" fill="none" fill-rule="evenodd">
        <path d="M0,3.75075247 C0,1.67926908 1.67596877,0 3.75035585,0 L52.2496442,0 C54.3209085,0 56,1.68806916 56,3.75075247 L56,32.2492475 C56,34.3207309 54.3240312,36 52.2496442,36 L3.75035585,36 C1.67909151,36 0,34.3119308 0,32.2492475 L0,3.75075247 Z" id="Rectangle-2" fill="#000000" fill-rule="nonzero"></path>
        <g id="Page-1" transform="translate(1.000000, 1.000000)" fill="#FFFFFF">
            <path d="M0.25,2.75075247 L0.25,31.2492475 C0.25,32.6250965 1.37296468,33.75 2.75035585,33.75 L51.2496442,33.75 C52.6324061,33.75 53.75,32.6316447 53.75,31.2492475 L53.75,2.75075247 C53.75,1.37490355 52.6270353,0.25 51.2496442,0.25 L2.75035585,0.25 C1.36759386,0.25 0.25,1.36835527 0.25,2.75075247 Z" id="Path"></path>
        </g>
        <g id="Asset-1" transform="translate(5.000000, 9.000000)" fill-rule="nonzero">
            <path d="M22.9793846,6.3432 C22.8616603,6.79569173 22.4351197,7.09906715 21.9670769,7.0632 C21.5008143,7.09842549 21.0766816,6.79459247 20.962,6.3432 C20.8699112,6.02776118 20.8308202,5.69933434 20.8463077,5.3712 C20.8327635,5.04028315 20.8742988,4.70941504 20.9692308,4.392 C21.0839124,3.94060753 21.5080451,3.63677451 21.9743077,3.672 C22.4423505,3.63613285 22.8688911,3.93950827 22.9866154,4.392 C23.067704,4.71181374 23.1018022,5.04164388 23.0878462,5.3712 C23.1015091,5.69837047 23.0674101,6.02578346 22.9866154,6.3432 M22.0610769,3.1104 C21.5894156,3.07728251 21.1327357,3.28299666 20.8463077,3.6576 L20.8463077,3.348 C20.8482898,3.30857732 20.8339331,3.27007275 20.8065947,3.24148954 C20.7792562,3.21290633 20.741333,3.19675063 20.7016923,3.1968 L20.4052308,3.1968 C20.3213685,3.1968 20.2533846,3.26449455 20.2533846,3.348 L20.2533846,8.8704 C20.253335,8.90987202 20.2695598,8.94763388 20.2982651,8.97485598 C20.3269705,9.00207808 20.3656396,9.01637363 20.4052308,9.0144 L20.7016923,9.0144 C20.7406555,9.01650186 20.7786783,9.00200667 20.8062698,8.97453252 C20.8338614,8.94705836 20.8484185,8.90919743 20.8463077,8.8704 L20.8463077,7.0776 C21.1327357,7.45220334 21.5894156,7.65791749 22.0610769,7.6248 C22.7292055,7.64939807 23.3271693,7.21474203 23.5072308,6.5736 C23.6167003,6.18236565 23.6678617,5.77724138 23.6590769,5.3712 C23.669942,4.96219548 23.616263,4.55402763 23.5,4.1616 C23.3344085,3.5105947 22.7269999,3.06907329 22.0538462,3.1104" id="Shape" fill="#575756"></path>
            <path d="M27.2455385,6.3 C27.1035782,6.75127624 26.6711479,7.04823498 26.1970769,7.02 C25.7251821,7.04058395 25.2969846,6.74653192 25.1486154,6.3 C25.0617442,5.99591747 25.0251122,5.67979166 25.0401538,5.364 C25.0252552,5.05058393 25.0618918,4.73684981 25.1486154,4.4352 C25.2948963,3.9871135 25.7244649,3.69211997 26.1970769,3.7152 C26.6718898,3.68430224 27.1058141,3.982287 27.2455385,4.4352 C27.3347031,4.73644791 27.3737831,5.05018973 27.3612308,5.364 C27.374578,5.6802104 27.3354899,5.99644918 27.2455385,6.3 M26.1970769,3.1104 C25.4610945,3.07618705 24.79622,3.54525944 24.5846154,4.248 C24.4779608,4.61015225 24.4291597,4.98675164 24.44,5.364 C24.4298719,5.74121264 24.4786589,6.11770228 24.5846154,6.48 C24.8226274,7.16418515 25.4699122,7.62302621 26.1970769,7.62302621 C26.9242416,7.62302621 27.5715265,7.16418515 27.8095385,6.48 C27.916241,6.11539379 27.9650354,5.73641694 27.9541538,5.3568 C27.9649941,4.97955164 27.916193,4.60295225 27.8095385,4.2408 C27.6024543,3.53483877 26.9346121,3.06367258 26.1970769,3.1032" id="Shape" fill="#575756"></path>
            <path d="M31.9238462,6.2496 C31.9238462,5.5296 31.49,5.1336 30.6656923,5.0544 L30.2463077,5.04 C29.5232308,4.9608 29.3352308,4.7304 29.3352308,4.392 C29.3352308,4.0536 29.6606154,3.672 30.2463077,3.672 C30.642547,3.68493732 31.0296776,3.79366336 31.3743077,3.9888 C31.3990152,4.01669646 31.4345688,4.03267766 31.4719231,4.03267766 C31.5092773,4.03267766 31.544831,4.01669646 31.5695385,3.9888 L31.7286154,3.7728 C31.7757427,3.70502379 31.7596613,3.61214853 31.6924615,3.564 C31.2626153,3.28518871 30.7592657,3.13983847 30.2463077,3.1464 C29.2918462,3.1464 28.7206154,3.6288 28.7206154,4.4352 C28.7206154,5.112 29.1689231,5.5368 29.986,5.616 L30.4053846,5.6592 C31.1284615,5.7528 31.302,5.9688 31.302,6.3792 C31.302,6.8616 30.9332308,7.1352 30.2824615,7.1352 C29.8010874,7.13013817 29.3362306,6.9597378 28.9664615,6.6528 C28.9102288,6.59791543 28.8202328,6.59791543 28.764,6.6528 L28.5687692,6.8688 C28.5127593,6.92722733 28.5127593,7.01917267 28.5687692,7.0776 C29.0345062,7.46757541 29.6233284,7.68170841 30.2318462,7.6824 C31.2658462,7.6824 31.8876923,7.164 31.8876923,6.3072 L31.9238462,6.2496 Z" id="Path" fill="#575756"></path>
            <path d="M29.9787692,2.4984 C30.0209356,2.56536009 30.0946275,2.60612584 30.174,2.6064 L30.3692308,2.6064 C30.4455059,2.60867178 30.5161189,2.5664843 30.55,2.4984 L31.3453846,1.44 C31.3702372,1.40034401 31.3702372,1.35005599 31.3453846,1.3104 C31.3272473,1.27183558 31.2867287,1.2487806 31.2441538,1.2528 L31.0272308,1.2528 C30.9474937,1.25165699 30.8731506,1.29278293 30.832,1.3608 L30.2535385,2.0808 L29.6750769,1.3608 C29.6339263,1.29278293 29.5595832,1.25165699 29.4798462,1.2528 L29.2629231,1.2528 C29.2208036,1.25077253 29.1813218,1.27323752 29.1616923,1.3104 C29.1411244,1.34862988 29.1411244,1.39457012 29.1616923,1.4328 L29.9787692,2.4984 Z" id="Path" fill="#575756"></path>
            <path d="M34.2087692,7.56 L34.4401538,7.56 C34.4791171,7.56210186 34.5171398,7.54760667 34.5447314,7.52013252 C34.5723229,7.49265836 34.5868801,7.45479743 34.5847692,7.416 L34.5847692,7.128 C34.5868801,7.08920257 34.5723229,7.05134164 34.5447314,7.02386748 C34.5171398,6.99639333 34.4791171,6.98189814 34.4401538,6.984 L34.2738462,6.984 C33.8472308,6.984 33.6592308,6.8904 33.6592308,6.336 L33.6592308,3.744 L34.4401538,3.744 C34.4797946,3.74404937 34.5177178,3.72789367 34.5450562,3.69931046 C34.5723947,3.67072725 34.5867513,3.63222268 34.5847692,3.5928 L34.5847692,3.348 C34.5867513,3.30857732 34.5723947,3.27007275 34.5450562,3.24148954 C34.5177178,3.21290633 34.4797946,3.19675063 34.4401538,3.1968 L33.6592308,3.1968 L33.6592308,1.9944 C33.6612128,1.95497732 33.6468562,1.91647275 33.6195178,1.88788954 C33.5921793,1.85930633 33.5542561,1.84315063 33.5146154,1.8432 L33.2181538,1.8432 C33.1785131,1.84315063 33.1405899,1.85930633 33.1132515,1.88788954 C33.085913,1.91647275 33.0715564,1.95497732 33.0735385,1.9944 L33.0735385,3.1968 L32.6469231,3.1968 C32.6072824,3.19675063 32.5693591,3.21290633 32.5420207,3.24148954 C32.5146823,3.27007275 32.5003256,3.30857732 32.5023077,3.348 L32.5023077,3.6 C32.5003256,3.63942268 32.5146823,3.67792725 32.5420207,3.70651046 C32.5693591,3.73509367 32.6072824,3.75124937 32.6469231,3.7512 L33.0807692,3.7512 L33.0807692,6.3576 C33.0807692,7.2216 33.3989231,7.56 34.216,7.56" id="Path" fill="#575756"></path>
            <path d="M37.8530769,6.3 C37.7111166,6.75127624 37.2786863,7.04823498 36.8046154,7.02 C36.3327206,7.04058395 35.904523,6.74653192 35.7561538,6.3 C35.6692826,5.99591747 35.6326507,5.67979166 35.6476923,5.364 C35.6327936,5.05058393 35.6694302,4.73684981 35.7561538,4.4352 C35.9024348,3.9871135 36.3320034,3.69211997 36.8046154,3.7152 C37.2786863,3.68696502 37.7111166,3.98392376 37.8530769,4.4352 C37.9398005,4.73684981 37.9764371,5.05058393 37.9615385,5.364 C37.9765801,5.67979166 37.9399481,5.99591747 37.8530769,6.3 M38.4243077,6.4872 C38.5283363,6.12216262 38.5746857,5.74322941 38.5616923,5.364 C38.57488,4.98713113 38.5285198,4.61053917 38.4243077,4.248 C38.1825567,3.56564237 37.5348968,3.10929386 36.8082308,3.10929386 C36.0815647,3.10929386 35.4339048,3.56564237 35.1921538,4.248 C35.0854993,4.61015225 35.0366982,4.98675164 35.0475385,5.364 C35.0374104,5.74121264 35.0861973,6.11770228 35.1921538,6.48 C35.4339048,7.16235763 36.0815647,7.61870614 36.8082308,7.61870614 C37.5348968,7.61870614 38.1825567,7.16235763 38.4243077,6.48" id="Shape" fill="#575756"></path>
            <path d="M42.4663077,3.1968 L42.1409231,3.1968 C42.0396923,3.1968 42.0035385,3.2616 41.9746154,3.3264 L40.796,6.5664 L39.5884615,3.3264 C39.5884615,3.2616 39.5233846,3.1968 39.4221538,3.1968 L39.0967692,3.1968 C39.0547798,3.19621119 39.0148258,3.21477703 38.9883077,3.2472 C38.9663496,3.28507069 38.9663496,3.33172931 38.9883077,3.3696 L40.4923077,7.4088 C40.5064258,7.48489032 40.5736866,7.53968774 40.6513846,7.5384 L40.9333846,7.5384 C41.0091628,7.53447656 41.0735938,7.48198463 41.0924615,7.4088 L42.6036923,3.3696 C42.621973,3.3308303 42.621973,3.2859697 42.6036923,3.2472 C42.5749208,3.21363613 42.5322824,3.19506125 42.488,3.1968" id="Path" fill="#575756"></path>
            <path d="M44.6283077,2.6064 L44.8307692,2.6064 C44.9247692,2.6064 44.9681538,2.5632 45.0332308,2.4912 L45.8141538,1.44 C45.8396138,1.40313814 45.8396138,1.35446186 45.8141538,1.3176 C45.7907295,1.2797268 45.7502758,1.25555788 45.7056923,1.2528 L45.3730769,1.2528 C45.2872014,1.25007463 45.2078034,1.29807543 45.1706154,1.3752 L44.4981538,2.4552 C44.4778346,2.49313639 44.4789947,2.53890674 44.5012097,2.57577428 C44.5234248,2.61264182 44.5634371,2.6352 44.6066154,2.6352" id="Path" fill="#575756"></path>
            <path d="M45.7707692,6.1776 C45.7707692,6.7104 45.3296923,7.0632 44.6355385,7.0632 C44.1944615,7.0632 43.6666154,6.9336 43.6666154,6.3072 C43.6666154,5.6808 44.0136923,5.5368 44.7873846,5.5368 L45.7707692,5.5368 L45.7707692,6.1776 Z M44.7729231,3.1104 C44.2745492,3.07683637 43.7809762,3.22530208 43.3846154,3.528 C43.3149423,3.57387246 43.295558,3.66716442 43.3412308,3.7368 L43.4930769,3.96 C43.5205297,3.99099606 43.5600338,4.00875295 43.6015385,4.00875295 C43.6430432,4.00875295 43.6825472,3.99099606 43.71,3.96 C43.998972,3.73937945 44.3590944,3.63180246 44.7223077,3.6576 C45.5827692,3.6576 45.7418462,3.9672 45.7418462,4.572 L45.7418462,5.04 L44.7223077,5.04 C43.6521538,5.04 43.0809231,5.4936 43.0809231,6.3432 C43.0670503,6.71815366 43.2198211,7.08014135 43.4985128,7.33267168 C43.7772046,7.585202 44.1534938,7.70261022 44.5270769,7.6536 C44.9910977,7.6860305 45.4451526,7.50888301 45.7635385,7.1712 L45.7635385,7.416 C45.7615564,7.45542268 45.775913,7.49392725 45.8032515,7.52251046 C45.8305899,7.55109367 45.8685131,7.56724937 45.9081538,7.5672 L46.1901538,7.5672 C46.230426,7.5672 46.2690486,7.55127005 46.2975253,7.52291455 C46.326002,7.49455904 46.342,7.45610073 46.342,7.416 L46.342,4.5648 C46.342,3.5208 45.8936923,3.1248 44.7584615,3.1248 L44.7729231,3.1104 Z" id="Shape" fill="#575756"></path>
            <path d="M22.9793846,14.6376 C22.8591209,15.0883485 22.4342873,15.3905098 21.9670769,15.3576 C21.5016607,15.3898445 21.079251,15.0872458 20.962,14.6376 C20.8714849,14.3267703 20.8324094,14.0033372 20.8463077,13.68 C20.8311494,13.3442839 20.8727013,13.008416 20.9692308,12.6864 C21.0839124,12.2350075 21.5080451,11.9311745 21.9743077,11.9664 C22.4423505,11.9305328 22.8688911,12.2339083 22.9866154,12.6864 C23.0671986,13.0111359 23.0988778,13.3459921 23.0806154,13.68 C23.0937723,14.0071547 23.0596807,14.3344955 22.9793846,14.652 M22.0610769,11.4192 C21.588692,11.3820096 21.1301414,11.5885664 20.8463077,11.9664 L20.8463077,9.9648 C20.8484185,9.92600257 20.8338614,9.88814164 20.8062698,9.86066748 C20.7786783,9.83319333 20.7406555,9.81869814 20.7016923,9.8208 L20.4052308,9.8208 C20.3656396,9.81882637 20.3269705,9.83312192 20.2982651,9.86034402 C20.2695598,9.88756612 20.253335,9.92532798 20.2533846,9.9648 L20.2533846,15.6816 C20.2533846,15.7651055 20.3213685,15.8328 20.4052308,15.8328 L20.7016923,15.8328 C20.741333,15.8328494 20.7792562,15.8166937 20.8065947,15.7881105 C20.8339331,15.7595272 20.8482898,15.7210227 20.8463077,15.6816 L20.8463077,15.372 C21.1327357,15.7466033 21.5894156,15.9523175 22.0610769,15.9192 C22.7292055,15.9437981 23.3271693,15.509142 23.5072308,14.868 C23.6250844,14.4828376 23.6859798,14.0826383 23.688,13.68 C23.6983204,13.2686578 23.6446599,12.8582022 23.5289231,12.4632 C23.346108,11.8249228 22.7488437,11.3937489 22.0827692,11.4192" id="Shape" fill="#575756"></path>
            <path d="M27.1153846,14.472 C27.1153846,15.0048 26.6670769,15.3576 25.9801538,15.3576 C25.5318462,15.3576 25.004,15.2208 25.004,14.6376 C25.004,14.0544 25.3510769,13.8672 26.1247692,13.8672 L27.1153846,13.8672 L27.1153846,14.472 Z M26.1175385,11.4048 C25.6266301,11.3778128 25.142125,11.5258643 24.7509231,11.8224 C24.6983351,11.8821508 24.6983351,11.9714492 24.7509231,12.0312 L24.9027692,12.2544 C24.9313298,12.2834255 24.9704214,12.299782 25.0112308,12.299782 C25.0520401,12.299782 25.0911317,12.2834255 25.1196923,12.2544 C25.4048409,12.0317806 25.7635282,11.9238615 26.1247692,11.952 C26.9924615,11.952 27.1515385,12.2616 27.1515385,12.8664 L27.1515385,13.2912 L26.0669231,13.2912 C24.9895385,13.2912 24.4255385,13.7376 24.4255385,14.5944 C24.4116657,14.9693537 24.5644364,15.3313413 24.8431282,15.5838717 C25.12182,15.836402 25.4981092,15.9538102 25.8716923,15.9048 C26.3373703,15.9385919 26.7929501,15.7581965 27.1081538,15.4152 L27.1081538,15.6672 C27.1061718,15.7066227 27.1205284,15.7451272 27.1478669,15.7737105 C27.1752053,15.8022937 27.2131285,15.8184494 27.2527692,15.8184 L27.5347692,15.8184 C27.5744099,15.8184494 27.6123332,15.8022937 27.6396716,15.7737105 C27.66701,15.7451272 27.6813667,15.7066227 27.6793846,15.6672 L27.6793846,12.8592 C27.6793846,11.8152 27.2383077,11.4192 26.1030769,11.4192 L26.1175385,11.4048 Z" id="Shape" fill="#575756"></path>
            <path d="M30.5861538,11.4048 C30.1277841,11.3796962 29.6865869,11.5818372 29.4075385,11.9448 L29.4075385,11.6424 C29.4075385,11.5588945 29.3395546,11.4912 29.2556923,11.4912 L28.9664615,11.4912 C28.8825992,11.4912 28.8146154,11.5588945 28.8146154,11.6424 L28.8146154,15.6816 C28.8146154,15.7651055 28.8825992,15.8328 28.9664615,15.8328 L29.2556923,15.8328 C29.3395546,15.8328 29.4075385,15.7651055 29.4075385,15.6816 L29.4075385,13.0968 C29.3846313,12.8039164 29.4884597,12.5152372 29.6928895,12.3034249 C29.8973193,12.0916126 30.1828793,11.9768414 30.4776923,11.988 C31.2007692,11.988 31.5116923,12.3768 31.5116923,13.1904 L31.5116923,15.6816 C31.5095917,15.722306 31.524914,15.7619916 31.5538586,15.7908131 C31.5828033,15.8196346 31.6226585,15.8348917 31.6635385,15.8328 L31.9527692,15.8328 C32.0366315,15.8328 32.1046154,15.7651055 32.1046154,15.6816 L32.1046154,13.0752 C32.1046154,12.0096 31.5478462,11.4048 30.5861538,11.4048" id="Path" fill="#575756"></path>
            <path d="M35.0258462,13.1256 L36.2261538,11.6856 C36.2427995,11.6545664 36.2442906,11.6176599 36.2302025,11.585395 C36.2161143,11.5531302 36.1879915,11.5290446 36.1538462,11.52 L35.7995385,11.52 C35.7198014,11.518857 35.6454583,11.5599829 35.6043077,11.628 L33.8255385,13.788 L33.8255385,9.9648 C33.825588,9.92532798 33.8093633,9.88756612 33.7806579,9.86034402 C33.7519526,9.83312192 33.7132835,9.81882637 33.6736923,9.8208 L33.3772308,9.8208 C33.3382675,9.81869814 33.3002448,9.83319333 33.2726532,9.86066748 C33.2450617,9.88814164 33.2305045,9.92600257 33.2326154,9.9648 L33.2326154,15.6816 C33.2306333,15.7210227 33.24499,15.7595272 33.2723284,15.7881105 C33.2996668,15.8166937 33.3375901,15.8328494 33.3772308,15.8328 L33.6736923,15.8328 C33.7575546,15.8328 33.8255385,15.7651055 33.8255385,15.6816 L33.8255385,14.58 L34.6498462,13.6008 L35.9296923,15.7104 C35.9803077,15.7896 36.0164615,15.8328 36.1104615,15.8328 L36.472,15.8328 C36.5152584,15.8317503 36.5543124,15.8067509 36.5732308,15.768 C36.5951889,15.7301293 36.5951889,15.6834707 36.5732308,15.6456 L35.0258462,13.1256 Z" id="Path" fill="#575756"></path>
            <path d="M39.7692308,14.472 C39.7692308,15.0048 39.3281538,15.3576 38.634,15.3576 C38.1929231,15.3576 37.6650769,15.2208 37.6650769,14.6376 C37.6650769,14.0544 38.0121538,13.8672 38.7858462,13.8672 L39.7692308,13.8672 L39.7692308,14.472 Z M38.7786154,11.4048 C38.2876291,11.3771746 37.8029069,11.5252924 37.412,11.8224 C37.3484775,11.8722387 37.3301689,11.9603541 37.3686154,12.0312 L37.5276923,12.2544 C37.5549948,12.2830172 37.5928977,12.2992202 37.6325385,12.2992202 C37.6721792,12.2992202 37.7100821,12.2830172 37.7373846,12.2544 C38.0266651,12.0343808 38.3865538,11.9268737 38.7496923,11.952 C39.6173846,11.952 39.7692308,12.2616 39.7692308,12.8664 L39.7692308,13.2912 L38.7135385,13.2912 C37.6433846,13.2912 37.0793846,13.7376 37.0793846,14.5944 C37.0629313,14.9701236 37.2149298,15.3337135 37.4942697,15.5868311 C37.7736096,15.8399488 38.1514282,15.9564407 38.5255385,15.9048 C38.9917886,15.9478147 39.451559,15.7721419 39.7692308,15.4296 L39.7692308,15.6816 C39.7692308,15.7651055 39.8372146,15.8328 39.9210769,15.8328 L40.2030769,15.8328 C40.2427176,15.8328494 40.2806409,15.8166937 40.3079793,15.7881105 C40.3353177,15.7595272 40.3496744,15.7210227 40.3476923,15.6816 L40.3476923,12.8592 C40.3476923,11.8152 39.9066154,11.4192 38.7713846,11.4192 L38.7786154,11.4048 Z" id="Shape" fill="#575756"></path>
            <path d="M2.16923077,9 C2.17322433,5.22822623 5.24574415,2.1730787 9.03363848,2.17440422 C12.8215328,2.17572974 15.8918953,5.23302689 15.8932265,9.00480253 C15.8945577,12.7765782 12.826354,15.8360234 9.03846154,15.84 C7.21603992,15.8419132 5.46770762,15.1218868 4.17906022,13.838723 C2.89041282,12.5555592 2.1673094,10.8146666 2.16923077,9 M3.21110659e-16,9 C2.82812624e-15,13.9705627 4.04665707,18 9.03846154,18 C14.030266,18 18.0769231,13.9705627 18.0769231,9 C18.0769231,4.02943725 14.030266,-1.9030141e-15 9.03846154,0 C4.04665707,7.99327454e-16 6.11319737e-16,4.02943725 0,9" id="Shape" fill="url(#linearGradient-1)"></path>
        </g>
    </g>
</svg>