<?xml version="1.0" encoding="UTF-8"?><svg width="56" height="36" viewBox="0 0 56 36" xmlns="http://www.w3.org/2000/svg"><g fill="none" fill-rule="evenodd"><path d="M0 3.75A3.749 3.749 0 013.75 0h48.5A3.756 3.756 0 0156 3.75v28.5A3.749 3.749 0 0152.25 36H3.75A3.756 3.756 0 010 32.25V3.75z" fill="#000" fill-rule="nonzero"/><path d="M1.25 3.75v28.5c0 1.375 1.123 2.5 2.5 2.5h48.5c1.382 0 2.5-1.118 2.5-2.5V3.75c0-1.375-1.123-2.5-2.5-2.5H3.75a2.499 2.499 0 00-2.5 2.5z" fill="#FFF"/><g><g fill-rule="nonzero"><path d="M11.418 13.582c.146-.038.473-.077.727-.096.182-.02.4-.039.6-.02.237 0 .528.058.782.174.4.193.746.578.8 1.233.018.308-.018.597-.109.808-.127.27-.29.482-.509.636-.145.096-.309.173-.473.231-.2.058-.4.096-.6.135l.11 1.406-.964.096-.364-4.603zm1.91 1.368a.612.612 0 00-.292-.501.716.716 0 00-.418-.077c-.036 0-.09.02-.163.02l.109 1.347c.018 0 .127-.019.181-.019a.65.65 0 00.382-.173.49.49 0 00.164-.25.703.703 0 00.036-.347zM15.382 17.164l-.2.675-1.055.096 1.564-4.854.145-.019 2.31 4.488-1.164.096-.291-.636-1.31.154zm.945-.982l-.436-.982-.273 1.06.71-.078zm5.582-1.367c.073.886-.218 1.598-.818 2.1-.364.307-.855.48-1.436.538-.273.02-.546.039-.728.058h-.4l-.382-4.545c.11-.02.255-.058.51-.096.254-.039.472-.058.672-.077.655-.058 1.146.038 1.528.23.727.386 1 1.118 1.054 1.792zm-1.054.115c-.037-.423-.2-.79-.491-.982a1.167 1.167 0 00-.8-.173c-.11 0-.2.038-.273.038l.218 2.62c0 .019 0 .019.018.019h.255c.254-.02.49-.116.673-.289.254-.27.436-.674.4-1.233zm5.181-.5c.073.886-.218 1.598-.818 2.08-.363.308-.854.481-1.436.539-.273.02-.546.038-.727.058h-.4l-.382-4.546c.4-.077.982-.154 1.182-.173.654-.058 1.145.039 1.527.231.727.405 1 1.137 1.054 1.81zm-1.054.134c-.037-.423-.2-.79-.491-.982a1.167 1.167 0 00-.8-.173c-.11.02-.218.038-.291.038l.218 2.62c0 .019 0 .019.018.019h.255c.254-.02.49-.116.673-.289.272-.289.454-.693.418-1.233zm3.49.077l.164 1.946-1.018.096-.163-1.887-1.673-2.562 1.145-.115.946 1.521.709-1.676 1.09-.096-1.2 2.773zm1.51-2.773c.145-.038.473-.077.727-.096.164-.02.4-.039.618-.02.237 0 .528.058.764.174.4.193.745.578.8 1.233.018.308-.018.597-.11.808-.108.27-.29.482-.508.617-.146.096-.291.173-.473.23-.2.059-.4.097-.6.136l.11 1.406-.965.096-.363-4.584zm1.636.867a.685.685 0 00-.4-.077.53.53 0 00-.163.019l.109 1.329c.036 0 .127-.02.181-.02a.776.776 0 00.382-.153.49.49 0 00.164-.25c0-.116.018-.213.018-.347a.612.612 0 00-.29-.501zm4.218 3.255c-1.29.115-2.363-.829-2.472-2.138-.11-1.329.8-2.446 2.109-2.58 1.309-.116 2.327.808 2.436 2.118.11 1.348-.764 2.484-2.073 2.6zm-.272-3.717c-.728.077-1.2.693-1.128 1.463.055.77.619 1.31 1.364 1.233.71-.039 1.127-.693 1.073-1.464-.055-.75-.618-1.29-1.31-1.232zm6.836 3.139l-.145.02-1.491-2.6-1.055 2.83-.127.02-1.727-4.546 1.054-.096.782 2.119.89-2.235.146-.019 1.237 2.022.418-2.214.963-.097-.945 4.796zm1.29-4.834l2.31-.212.073.905-1.291.116.073.905 1.127-.096.073.905-1.128.096.073.944 1.31-.116.072.925-2.327.211-.364-4.583zm3.02-.27c.09-.02.254-.038.4-.058.126-.019.38-.057.545-.057.363-.039.636-.02.89.019.382.077.91.366.982 1.194.037.5-.163.886-.309 1.06-.09.095-.2.192-.254.23v.02c.036.057 1.4 1.848 1.4 1.848l-1.164.116s-.764-1.098-1.164-1.676h-.109l.146 1.753-.982.096-.382-4.545zm1.835 1.29c-.036-.365-.254-.558-.581-.52-.091 0-.146.02-.2.039l.09 1.175H48a.71.71 0 00.364-.154c.09-.116.2-.29.181-.54z" fill="#004833"/><path d="M51.873 13.91c0 .346-.273.635-.6.635a.627.627 0 01-.618-.635c0-.347.272-.636.618-.636.327 0 .6.289.6.636" fill="#31953E"/></g><g fill="#31953E"><path d="M12.304 22.982c.125.061.297.113.514.156.218.042.43.054.638.036.208-.018.356-.062.445-.13.089-.07.127-.173.116-.309a.377.377 0 00-.104-.235.883.883 0 00-.26-.175 11.123 11.123 0 00-.575-.241 2.204 2.204 0 01-.788-.505c-.2-.208-.316-.482-.346-.822a1.2 1.2 0 01.131-.703 1.16 1.16 0 01.5-.47c.224-.114.49-.185.797-.212.286-.025.537-.019.751.018.214.036.376.082.486.137l-.092.872a1.278 1.278 0 00-.43-.166 1.758 1.758 0 00-.55-.041c-.198.017-.343.064-.436.14a.325.325 0 00-.124.295c.007.09.04.168.096.234a.804.804 0 00.248.182c.11.056.262.121.46.197.28.104.51.212.69.323.18.111.323.246.428.405.105.159.168.354.188.586.024.274-.016.518-.12.731a1.206 1.206 0 01-.495.518 1.996 1.996 0 01-.837.24 3.624 3.624 0 01-.574.006 3.487 3.487 0 01-.501-.068 1.28 1.28 0 01-.311-.1l.055-.9zm4.078-3.825l.162 1.85 1.477-.13-.162-1.849 1.076-.094.399 4.563-1.075.094-.166-1.892-1.477.13.165 1.891-1.084.095-.399-4.563 1.084-.095zm11.805 2.435c.125.062.296.114.514.156.217.043.43.055.638.037.207-.019.355-.062.444-.131.09-.07.128-.172.116-.308a.377.377 0 00-.103-.236.883.883 0 00-.26-.175 11.123 11.123 0 00-.575-.241 2.204 2.204 0 01-.789-.505c-.2-.208-.316-.482-.345-.822a1.2 1.2 0 01.13-.703 1.16 1.16 0 01.501-.47c.223-.114.488-.184.796-.211.287-.025.537-.02.752.017.214.037.376.083.485.137l-.092.872a1.278 1.278 0 00-.43-.166 1.758 1.758 0 00-.55-.04c-.197.016-.343.063-.436.14a.325.325 0 00-.124.295c.008.09.04.167.096.233a.804.804 0 00.248.182c.11.056.263.122.46.197.28.104.511.212.691.323.18.111.322.247.428.405.105.16.167.355.188.587.024.273-.016.517-.12.73a1.206 1.206 0 01-.495.518 1.996 1.996 0 01-.838.241 3.624 3.624 0 01-.574.005 3.487 3.487 0 01-.5-.068 1.28 1.28 0 01-.312-.1l.056-.899zM22.31 23.143c-1.276.228-2.427-.619-2.65-1.914-.225-1.314.584-2.506 1.876-2.754 1.294-.23 2.389.603 2.612 1.898.226 1.333-.544 2.541-1.838 2.77zm-.596-3.679c-.718.14-1.135.796-.995 1.557.121.762.73 1.25 1.465 1.109.703-.1 1.063-.79.942-1.552-.12-.743-.729-1.231-1.412-1.114z"/></g><path d="M24.545 18.212c.146-.038.473-.077.728-.096.182-.02.4-.038.6-.02.236 0 .527.059.782.174.4.193.745.578.8 1.233.018.308-.019.597-.11.809-.127.27-.29.481-.509.635-.145.097-.309.174-.472.231-.2.058-.4.097-.6.135l.109 1.406-.964.096-.364-4.603zm1.91 1.368a.612.612 0 00-.291-.5.716.716 0 00-.419-.078c-.036 0-.09.02-.163.02l.109 1.347c.018 0 .127-.019.182-.019a.65.65 0 00.382-.173.49.49 0 00.163-.25.703.703 0 00.037-.347z" fill="#31953E" fill-rule="nonzero"/><g><g transform="rotate(-4 278.238 -49.476)"><ellipse fill="#31953E" cx="3.273" cy="3.467" rx="3.273" ry="3.467"/><path d="M4.844 3.738v1.29a.17.17 0 01-.048.121.152.152 0 01-.114.051h-.974V4.168h-.65V5.2h-.974a.152.152 0 01-.114-.051.17.17 0 01-.048-.121v-1.29l.001-.008.002-.008L3.383 2.45l1.459 1.273a.04.04 0 01.002.016zm.566-.185l-.157.199a.085.085 0 01-.054.03h-.007a.075.075 0 01-.054-.02l-1.755-1.55-1.755 1.55a.09.09 0 01-.061.02.085.085 0 01-.053-.03l-.158-.199a.09.09 0 01-.017-.063.08.08 0 01.028-.058l1.823-1.61a.286.286 0 01.193-.07c.075 0 .139.024.193.07l.619.549v-.524c0-.025.007-.046.023-.062a.077.077 0 01.058-.024h.487c.024 0 .043.008.058.024a.086.086 0 01.023.062v1.096l.556.49a.08.08 0 01.028.057.09.09 0 01-.018.063z" fill="#FFF"/></g></g></g></g></svg>