<?xml version="1.0" encoding="UTF-8"?>
<svg width="56px" height="36px" viewBox="0 0 56 36" version="1.1" xmlns="http://www.w3.org/2000/svg" xmlns:xlink="http://www.w3.org/1999/xlink">
    <!-- Generator: Sketch 48.2 (47327) - http://www.bohemiancoding.com/sketch -->
    <title>CC/pp_shops_mobile</title>
    <desc>Created with Sketch.</desc>
    <defs></defs>
    <g id="Page-1" stroke="none" stroke-width="1" fill="none" fill-rule="evenodd">
        <g id="CC/pp_shops_mobile">
            <g id="Group-3">
                <path d="M0,3.75075247 C0,1.67926908 1.67596877,0 3.75035585,0 L52.2496442,0 C54.3209085,0 56,1.68806916 56,3.75075247 L56,32.2492475 C56,34.3207309 54.3240312,36 52.2496442,36 L3.75035585,36 C1.67909151,36 0,34.3119308 0,32.2492475 L0,3.75075247 Z" id="Rectangle-2" fill="#000000" fill-rule="nonzero"></path>
                <path d="M1.25,3.75075247 L1.25,32.2492475 C1.25,33.6250965 2.37296468,34.75 3.75035585,34.75 L52.2496442,34.75 C53.6324061,34.75 54.75,33.6316447 54.75,32.2492475 L54.75,3.75075247 C54.75,2.37490355 53.6270353,1.25 52.2496442,1.25 L3.75035585,1.25 C2.36759386,1.25 1.25,2.36835527 1.25,3.75075247 Z" id="Path" fill="#FFFFFF"></path>
            </g>
            <g id="pp-sports-t" transform="translate(7.000000, 13.000000)" fill-rule="nonzero">
                <path d="M0.446144378,6.07923077 L0.795266272,9.96153844 L0.797254435,9.98384612 L1.72811361,9.905 L2.8080852,9.81346156 L2.80609704,9.79115387 L2.59574911,7.46038462 L2.56672189,7.13692306 C2.98337173,7.09614069 3.39489522,7.01601525 3.79540828,6.89769231 C4.13679297,6.79693112 4.46259778,6.65216925 4.76404261,6.46730769 C5.22035654,6.17302141 5.58137054,5.75996055 5.80544378,5.27576923 C6.01784051,4.78693354 6.10119491,4.25467284 6.048,3.72692308 C5.99357572,2.70653582 5.34669106,1.80387915 4.37794083,1.39653846 C3.86980693,1.18958549 3.32517693,1.07936757 2.77388876,1.07192308 C2.35416089,1.06799422 1.93450173,1.08493966 1.51657278,1.12269231 C0.999649702,1.16653846 0.313334911,1.25846154 0.017495858,1.31730769 L0.0194840237,1.33961539 L0.345940828,4.96384616 L0.446144378,6.07923077 Z M3.99144142,3.92538461 C4.01606821,4.14419554 3.98887217,4.36555798 3.9119148,4.57269231 C3.83841425,4.75497303 3.71697302,4.91552687 3.55961184,5.03846154 C3.33018646,5.20471749 3.06122684,5.31250896 2.77746746,5.35192308 C2.68640947,5.37076923 2.46810888,5.39038461 2.4108497,5.39423077 L2.18181301,2.85192308 C2.31859882,2.82923077 2.4335148,2.81923077 2.52536805,2.81153846 C2.81732539,2.78085748 3.11214249,2.83438453 3.37272426,2.96538461 C3.72988821,3.16114468 3.96189764,3.51697211 3.99064615,3.91307693 L3.99144142,3.92538461 Z M6.9494343,5.52807692 L7.29935149,9.40884613 L7.30133964,9.43115387 L8.23219882,9.35230769 L9.31217041,9.26076925 L9.31018226,9.23846156 L9.0998343,6.90769231 L9.07080707,6.58423075 C9.48745696,6.54344838 9.89898045,6.46332294 10.2994935,6.345 C10.6408885,6.24426511 10.9666969,6.0995016 11.2681278,5.91461539 C11.723288,5.62053729 12.0834243,5.20820111 12.3071432,4.725 C12.5195561,4.23616871 12.6029111,3.70390404 12.5496994,3.17615384 C12.4952751,2.15576659 11.8483905,1.25310992 10.8796403,0.845769231 C10.37163,0.638864625 9.82713984,0.528647684 9.27598579,0.521153846 C8.85625795,0.51722499 8.4365988,0.534170431 8.01866985,0.571923077 C7.50174678,0.615769231 6.81543195,0.707692306 6.51959293,0.766538463 L6.52158108,0.788846156 L6.84843548,4.41307693 L6.9494343,5.52807692 Z M10.4947314,3.37423077 C10.5193721,3.59304176 10.4921757,3.81440724 10.4152047,4.02153846 C10.3422893,4.20456976 10.2211019,4.36594606 10.063697,4.48961539 C9.83427163,4.65587134 9.56531203,4.76366281 9.28155267,4.80307693 C9.19049466,4.82192308 8.97219411,4.84153846 8.91493493,4.84538461 L8.6858982,2.30269231 C8.82268399,2.28 8.9376,2.27 9.02945322,2.26230769 C9.32141151,2.23160352 9.61623555,2.28513182 9.87680949,2.41615384 C10.2339734,2.61191391 10.4659828,2.96774134 10.4947314,3.36384616 L10.4947314,3.37423077 Z" id="Shape" fill="#004833"></path>
                <path d="M12.8336095,6.82076925 C12.1620084,6.87037706 11.6571859,7.43419113 11.7023432,8.08423075 C11.7378162,8.39247256 11.8990978,8.67424369 12.1503496,8.86693131 C12.4016013,9.059619 12.7220105,9.14726188 13.0403787,9.11038463 C13.3599235,9.09474394 13.6593024,8.95461125 13.8702637,8.72193363 C14.081225,8.48925606 14.1857877,8.18386563 14.1601136,7.87538463 C14.1323078,7.56646431 13.9780361,7.28109856 13.7316097,7.08275506 C13.4851832,6.88441156 13.1670352,6.7895365 12.8479243,6.81923075 L12.8336095,6.82076925 Z" id="Shape" fill="#31953E"></path>
                <path d="M19.4086202,5.77069163 C19.4086202,5.11069163 19.0984663,4.68319163 18.6177279,4.24819163 C18.2920663,3.95569163 18.0284356,3.75319163 17.8966202,3.61069163 C17.7648048,3.46819163 17.6795125,3.34819163 17.6795125,3.15319163 C17.6795125,2.83069163 17.9741586,2.64319163 18.3851125,2.64319163 C18.5324356,2.64319163 18.6487432,2.65819163 18.7572971,2.68069163 C18.8580971,2.70319163 18.9821586,2.74069163 19.0596971,2.77069163 L19.0752048,2.77069163 C19.0907125,2.12569163 19.0984663,1.99819163 19.113974,1.54069163 C18.8968663,1.47319163 18.5324356,1.43569163 18.2532971,1.43569163 C16.7800663,1.43569163 16.1752663,2.28319163 16.1752663,3.16069163 C16.1752663,3.80569163 16.5241894,4.26319163 16.8576048,4.58569163 C17.0204356,4.74319163 17.2220356,4.92319163 17.4624048,5.11069163 C17.7105279,5.30569163 17.8578509,5.49319163 17.8578509,5.69569163 C17.8578509,6.03319163 17.5864663,6.19819163 17.2142817,6.19819163 C16.9428971,6.19819163 16.7180356,6.16069163 16.5319432,6.10069163 C16.4233894,6.06319163 16.3225894,6.02569163 16.2217894,5.97319163 L16.2062817,5.97319163 C16.1830202,6.62569161 16.1752663,6.77569161 16.1675125,7.21069161 C16.4621586,7.34569161 16.9584048,7.41319161 17.3771125,7.41319161 C18.5556971,7.41319161 19.4086202,6.75319161 19.4086202,5.77819163 L19.4086202,5.77069163 Z M25.4333586,7.32319161 L25.4333586,1.47319163 L23.9988971,1.47319163 L23.9988971,3.78319163 L21.7192663,3.78319163 L21.7192663,1.47319163 L20.2848048,1.47319163 L20.2848048,7.32319161 L21.7192663,7.32319161 L21.7192663,4.96819163 L23.9988971,4.96819163 L23.9988971,7.32319161 L25.4333586,7.32319161 Z M32.5746509,4.36069163 L32.5746509,4.36819163 C32.5746509,6.09319163 31.2332356,7.41319161 29.4033279,7.41319161 C27.6044356,7.41319161 26.2242509,6.09319163 26.2242509,4.40569163 C26.2242509,2.71819163 27.6121894,1.39819163 29.4576048,1.39819163 C31.2720048,1.39819163 32.5746509,2.68069163 32.5746509,4.36069163 Z M31.109174,4.39819163 L31.109174,4.39069163 C31.109174,3.43069163 30.403574,2.67319163 29.4265894,2.67319163 C28.4108356,2.67319163 27.6897279,3.40819163 27.6897279,4.40569163 C27.6897279,5.38069163 28.3953279,6.13819163 29.4265894,6.13819163 C30.4500971,6.13819163 31.109174,5.37319163 31.109174,4.39819163 Z M33.3655432,1.49569163 C33.5671432,1.47319163 34.032374,1.45069163 34.3812971,1.45069163 C34.6216663,1.45069163 34.939574,1.45819163 35.2264663,1.48819163 C35.5598817,1.52569163 35.947574,1.61569163 36.2809894,1.79569163 C36.8160048,2.08819163 37.257974,2.61319163 37.257974,3.44569163 C37.257974,3.84319163 37.157174,4.18819163 37.0020971,4.46569163 C36.8082509,4.79569163 36.5368663,5.04319163 36.2344663,5.20069163 C36.0328663,5.30569163 35.8002509,5.38069163 35.5598817,5.43319163 C35.2884971,5.49319163 35.0016048,5.51569163 34.7224663,5.52319163 L34.7224663,7.32319161 L33.3655432,7.32319161 L33.3655432,1.49569163 Z M35.8700356,3.46069163 L35.8700356,3.45319163 C35.8700356,3.16819163 35.7304663,2.92819163 35.5133586,2.78569163 C35.3582817,2.68819163 35.1721894,2.63569163 34.9550817,2.63569163 C34.8930509,2.63569163 34.8155125,2.63569163 34.7224663,2.64319163 L34.7224663,4.35319163 C34.7612356,4.35319163 34.9085586,4.35319163 34.9705894,4.34569163 C35.1799432,4.33069163 35.3737894,4.27069163 35.5133586,4.18069163 C35.6141586,4.11319163 35.7149586,4.01569163 35.7769894,3.88819163 C35.8390202,3.76069163 35.8700356,3.62569163 35.8700356,3.46069163 Z M41.1581586,5.77069163 C41.1581586,5.11069163 40.8480048,4.68319163 40.3672663,4.24819163 C40.0416048,3.95569163 39.777974,3.75319163 39.6461586,3.61069163 C39.5143432,3.46819163 39.4290509,3.34819163 39.4290509,3.15319163 C39.4290509,2.83069163 39.7236971,2.64319163 40.1346509,2.64319163 C40.281974,2.64319163 40.3982817,2.65819163 40.5068356,2.68069163 C40.6076356,2.70319163 40.7316971,2.74069163 40.8092356,2.77069163 L40.8247432,2.77069163 C40.8402509,2.12569163 40.8480048,1.99819163 40.8635125,1.54069163 C40.6464048,1.47319163 40.281974,1.43569163 40.0028356,1.43569163 C38.5296048,1.43569163 37.9248048,2.28319163 37.9248048,3.16069163 C37.9248048,3.80569163 38.2737279,4.26319163 38.6071432,4.58569163 C38.769974,4.74319163 38.971574,4.92319163 39.2119432,5.11069163 C39.4600663,5.30569163 39.6073894,5.49319163 39.6073894,5.69569163 C39.6073894,6.03319163 39.3360048,6.19819163 38.9638202,6.19819163 C38.6924356,6.19819163 38.467574,6.16069163 38.2814817,6.10069163 C38.1729279,6.06319163 38.0721279,6.02569163 37.9713279,5.97319163 L37.9558202,5.97319163 C37.9325586,6.62569161 37.9248048,6.77569161 37.9170509,7.21069161 C38.2116971,7.34569161 38.7079432,7.41319161 39.1266509,7.41319161 C40.3052356,7.41319161 41.1581586,6.75319161 41.1581586,5.77819163 L41.1581586,5.77069163 Z" id="SHOPS" fill="#31953E" transform="translate(28.662836, 4.405692) rotate(-5.000000) translate(-28.662836, -4.405692) "></path>
            </g>
        </g>
    </g>
</svg>