<?xml version="1.0" encoding="UTF-8"?><svg width="56" height="36" viewBox="0 0 56 36" xmlns="http://www.w3.org/2000/svg"><g fill="none" fill-rule="evenodd"><path d="M0 3.75A3.749 3.749 0 013.75 0h48.5A3.756 3.756 0 0156 3.75v28.5A3.749 3.749 0 0152.25 36H3.75A3.756 3.756 0 010 32.25V3.75z" fill="#000" fill-rule="nonzero"/><path d="M1.25 3.75v28.5c0 1.375 1.123 2.5 2.5 2.5h48.5c1.382 0 2.5-1.118 2.5-2.5V3.75c0-1.375-1.123-2.5-2.5-2.5H3.75a2.499 2.499 0 00-2.5 2.5z" fill="#FFF"/><g fill-rule="nonzero"><path d="M6.153 17.307h2.95s1.118-.02 1.508.393c.39.414.277.993.277.993s-.085.635-.163 1.128c-.05.315-.114.564-.114.564s-.148.685-.715.985c-.566.3-1.359.272-1.359.272l-2.044-.008-.418 2.548H5.02l1.133-6.875zm.891 1.028l-.375 2.283 1.712.008s.39.015.75-.063c.22-.051.41-.178.453-.43.129-.657.22-1.206.22-1.221 0-.015.055-.28-.071-.435-.129-.157-1.138-.134-1.138-.134l-1.55-.008zm7.86.887l3.869-.008-.141.891-3.233 3.12 2.717-.006-.164.963h-3.995l.161-.993 3.107-2.997h-2.478l.156-.97zm-3.749 0h.997l-.043.248s.332-.37 1.31-.3c.805.057 1.067.47 1.102 1.014.028.45-.093 1.006-.093 1.006h-1.032l.093-.544s.055-.32-.106-.442c-.164-.121-.68-.157-1.027.056-.348.214-.453.694-.453.694l-.317 1.84-.22 1.385h-1.032l.529-3.131.292-1.826zm12.877-1.915h1.012l-1.14 6.875H22.89l1.14-6.875zm5.412 1.915h.977l.34 3.49 1.497-3.498 1.204.008.355 3.504 1.493-3.504h1.012l-2.145 4.96H32.98l-.347-3.477-1.513 3.477h-1.184l-.493-4.96zm8.043 0l.652 3.626 1.84-3.626 1.033.007-2.654 5.181s-.48.935-.778 1.179c-.297.236-.48.342-.722.37-.242.02-.34.044-.574 0l-.247-.043.156-.927s.41.079.652-.02c.247-.1.438-.513.438-.513l.121-.208-.954-5.019 1.037-.007z" fill="#D92231"/><path d="M41.394 19.714h1.068l.062-.421s.114-.757.368-.9a.988.988 0 01.36-.114c.277-.05.637-.056.919-.043.445.015.61.02 1.062.071.453.051.34.493.34.493l-.086.658s-.035.292-.14.477c-.094.165-.348.272-.489.32-.355.115-1.556.422-1.556.422l-.949.28s-.579.17-.906.535a2.286 2.286 0 00-.503.993 181.48 181.48 0 00-.298 1.7h5.108l.169-1.03-4.04.008.07-.421s.05-.435.219-.572c.055-.043.086-.107.403-.22.191-.072.848-.245.848-.245l1.52-.421s.829-.214 1.161-.67c.325-.458.453-1.337.453-1.337s.086-.848.02-1.12c-.062-.264-.317-.584-.621-.72-.305-.135-.622-.214-1.543-.21-.92.016-1.372.057-1.84.23-.466.17-.736.485-.907.926-.166.425-.272 1.331-.272 1.331zM12.91 17.87h3.247s.728-.591 1.246-.977c.516-.379 1.458-.986 1.458-.986l-1.833-.863s-1.55.97-2.208 1.427c-.644.422-1.91 1.4-1.91 1.4zm6.983-2.575l-1.508-1.02s1.364-.785 3.177-1.514c1.813-.73 2.782-1.037 2.782-1.037l.304 1.45s-1.747.592-2.744 1.065c-1.037.45-2.011 1.056-2.011 1.056zm5.87-2.435l-.261-1.486s1.86-.5 3.567-.82c1.707-.32 3.97-.47 3.97-.47l-.75 2.298s-1.99-.272-3.857-.02c-1.45.178-2.668.498-2.668.498zm7.706-.285l1.26-2.555s2.758-.056 5.13.315c2.376.371 4.548.942 4.498.963L38.33 14.48s-1.407-.899-3.154-1.45c-.984-.29-1.707-.455-1.707-.455zm5.952 2.606l1.324 1.013h10.887c.008 0-.77-2.776-4.662-3.946l-7.55 2.933z" fill="#BEC0C2"/><g fill="#D92231"><path d="M25.68 22.782c0 .035 0 .07-.026.104-.025.381.025-.104.025-.104z"/><path d="M28.39 19.27c-.283-.094-.779-.114-1.197-.107-.402.008-.586.02-.742.056 0 0-.723.107-1.125.615-.41.508-.532 1.628-.532 1.628s-.241 1.234-.168 1.64c.07.414.199.793.657.97.46.178.848.17.848.17s.82.064 1.443-.086c.621-.15.949-.584.949-.584s.148-.193.246-.414c.106-.228.134-.386.141-.399l.063-.264h-1.055s-.055.699-.621.765a5.213 5.213 0 01-.985.035c-.113-.007-.725.02-.667-.5 0-.005 0-.013.003-.02.027-.585.093-.734.093-.734l3.31-.02.141-.821c.166-.937.046-1.65-.803-1.93zm-.235 1.8h-2.263l.098-.363s.078-.284.234-.406c.156-.122.355-.135.544-.158.184-.02.687-.055 1.098.028.133.028.261.107.297.221.078.265-.008.678-.008.678z"/></g><g fill="#D92231"><path d="M19.438 22.775c0 .034 0 .069-.025.104-.025.38.025-.104.025-.104z"/><path d="M22.149 19.262c-.282-.094-.778-.114-1.196-.106-.403.007-.587.02-.743.055 0 0-.722.107-1.125.615-.41.508-.531 1.628-.531 1.628s-.242 1.234-.169 1.64c.07.415.199.793.657.97.46.179.848.17.848.17s.821.064 1.443-.085c.622-.15.949-.585.949-.585s.149-.193.247-.414c.105-.228.133-.386.14-.398l.064-.264h-1.055s-.056.698-.622.764a5.213 5.213 0 01-.984.036c-.114-.008-.725.02-.667-.5 0-.006 0-.013.002-.021.028-.584.093-.734.093-.734l3.31-.02.142-.82c.166-.938.045-1.651-.803-1.93zm-.22 1.808h-2.263l.099-.363s.078-.284.234-.406c.156-.122.355-.135.543-.158.184-.02.688-.055 1.098.028.133.028.262.107.297.221.078.265-.007.678-.007.678z"/></g><path d="M51 21.627l.716-4.325h-1.267l-3.947 4.276-.176 1.085h3.454l-.255 1.521h1.063l.246-1.521h.977l.176-1.036h-.986zm-1.052 0H47.72l2.717-2.921-.489 2.92z" fill="#BEC0C2"/></g></g></svg>