<?xml version="1.0" encoding="UTF-8"?><svg width="56" height="36" viewBox="0 0 56 36" xmlns="http://www.w3.org/2000/svg" xmlns:xlink="http://www.w3.org/1999/xlink"><defs><radialGradient cx="50%" cy="50.86%" fx="50%" fy="50.86%" r="49.14%" id="a"><stop stop-color="#1CAFCE" offset="0%"/><stop stop-color="#353B58" offset="100%"/></radialGradient><radialGradient cx="71.979%" cy="71.656%" fx="71.979%" fy="71.656%" r="92.497%" gradientTransform="matrix(-.69098 -.1664 .1166 -.98606 1.134 1.543)" id="j"><stop stop-color="#F7E840" offset="0%"/><stop stop-color="#F4A031" offset="100%"/></radialGradient><radialGradient cx="31.391%" cy="64.415%" fx="31.391%" fy="64.415%" r="80.793%" gradientTransform="matrix(.67792 -.42156 .31516 .9068 -.102 .192)" id="k"><stop stop-color="#F7E840" offset="0%"/><stop stop-color="#F4A031" offset="100%"/></radialGradient><radialGradient cx="71.979%" cy="71.656%" fx="71.979%" fy="71.656%" r="92.497%" gradientTransform="matrix(-.74069 -.17837 .13427 -.98396 1.157 1.55)" id="l"><stop stop-color="#F7E840" offset="0%"/><stop stop-color="#F4A031" offset="100%"/></radialGradient><radialGradient cx="71.979%" cy="71.656%" fx="71.979%" fy="71.656%" r="92.497%" gradientTransform="scale(-.74864 -1) rotate(10.22 7.892 -9.4)" id="m"><stop stop-color="#F7E840" offset="0%"/><stop stop-color="#F4A031" offset="100%"/></radialGradient><radialGradient cx="71.979%" cy="71.656%" fx="71.979%" fy="71.656%" r="92.497%" id="n"><stop stop-color="#F7E840" offset="0%"/><stop stop-color="#F4A031" offset="100%"/></radialGradient><path id="b" d="M.026.013h1.093v1.312H.026z"/><path d="M.088 12.038c-.064-.16-.108-.322-.079-.496l1.97-9.246c.02-.305.14-.817-.207-.996.23-.248.56-.597.993-1.048l.664.316c.108-.032.258-.095.45-.191.21-.094.484-.29 1.012-.29.431 0 .96-.113 1.637.29.265.19.586.52.708 1.204.122.684-.49 4.543-.585 4.7-.631 1.953-1.484 2.104-3.06 2.104-.188.02-.856-.085-.997-.15-.298-.138-.307-.13-.378.202-.022.107-.736 3.373-.749 3.402-.082.172-.205.31-.355.427a.58.58 0 01-.255.1 4.274 4.274 0 01-.045-.004c-.306.037-.563-.036-.724-.324zM4.886 1.294A1.326 1.326 0 003.33 2.343l-.648 3.335c-.14.718.33 1.414 1.049 1.554l.04.008c.718.14 1.414-.33 1.554-1.049l.648-3.334a1.326 1.326 0 00-1.049-1.555l-.04-.008z" id="e"/><path d="M15.024 1.236c.05-.044.606-.78 1.224-.948.115-.056.236-.098.358-.138.224-.08.83-.145.899-.137.23.054.673 0 1.133.354.25.204.47.433.64.71.066.119.107.249.156.375.144.45-.183 2.323-.273 2.642-.035.125-.043.266-.172.345-.148.062-3.309.025-3.424.075a.29.29 0 00-.123.146c-.046.104-.255 1.132-.237 1.4a.924.924 0 00.425.774c.177.097.359.181.566.184.14 0 .279.013.415-.028.087-.021.177-.033.262-.063.055-.02.108-.045.16-.07.187-.087.358-.2.51-.338.199-.152.38-.331.635-.391a.583.583 0 01.632.388c.073.24-.034.43-.166.615-.019.027-.765.832-1.8 1.111a1.342 1.342 0 01-.343.075c-.17-.007-.791.19-1.733-.274-.13-.086-.286-.14-.37-.285-.336-.394-.616-.831-.616-1.976.025-.477.413-2.053.468-2.385.259-1.24.517-1.96.774-2.16zm2.117.007c-.643 0-1.193.461-1.306 1.094l-.178 1.01h2.415l.17-.907a1.012 1.012 0 00-.995-1.197h-.106z" id="g"/><path d="M11.234 8.028c-1.047.468-2.018.508-3.25-.24-.508-.584-.57-1.08-.601-1.263.015-.135.116-.199.22-.26.227-.118.475-.193.694-.332a.43.43 0 01.193-.024c.17.023.224.157.28.291.385.912 1.235 1.123 2.02.492.24-.193.468-.405.525-.734.028-.17.099-.335.03-.51-.114-.452-.462-.617-.87-.7-.445-.091-.88-.203-1.259-.47-.29-.204-.555-.432-.715-.76-.053-.181-.094-.366-.144-.548-.063-.256.015-.5.053-.749C8.77.993 9.38.76 9.563.616c.341-.237.745-.323 1.126-.463l.98-.02c.527.096.985.315 1.324.744.358.41.39.764.102 1.16-.294.219-.595.273-.908.04a.977.977 0 01-.135-.144c-.553-.707-1.105-.796-1.865-.3-.036.024-.07.052-.104.08-.14.138-.231.304-.281.494a.768.768 0 00-.034.337c.007.055.023.109.038.162.017.053.036.105.06.154.059.122.164.19.277.251.34.19.73.224 1.09.345.913.294 1.468.885 1.552 1.867C12.617 7 12.36 7.16 11.234 8.028z" id="i"/><filter x="-20.7%" y="-12.2%" width="141.4%" height="124.4%" filterUnits="objectBoundingBox" id="d"><feOffset in="SourceAlpha" result="shadowOffsetOuter1"/><feGaussianBlur stdDeviation=".5" in="shadowOffsetOuter1" result="shadowBlurOuter1"/><feColorMatrix values="0 0 0 0 0 0 0 0 0 0 0 0 0 0 0 0 0 0 0.2 0" in="shadowBlurOuter1"/></filter><filter x="-26.4%" y="-18%" width="152.7%" height="136%" filterUnits="objectBoundingBox" id="f"><feOffset in="SourceAlpha" result="shadowOffsetOuter1"/><feGaussianBlur stdDeviation=".5" in="shadowOffsetOuter1" result="shadowBlurOuter1"/><feColorMatrix values="0 0 0 0 0 0 0 0 0 0 0 0 0 0 0 0 0 0 0.2 0" in="shadowBlurOuter1"/></filter><filter x="-25.4%" y="-18.2%" width="150.8%" height="136.4%" filterUnits="objectBoundingBox" id="h"><feOffset in="SourceAlpha" result="shadowOffsetOuter1"/><feGaussianBlur stdDeviation=".5" in="shadowOffsetOuter1" result="shadowBlurOuter1"/><feColorMatrix values="0 0 0 0 0 0 0 0 0 0 0 0 0 0 0 0 0 0 0.2 0" in="shadowBlurOuter1"/></filter></defs><g fill="none" fill-rule="evenodd"><path d="M0 3.75A3.749 3.749 0 013.75 0h48.5A3.756 3.756 0 0156 3.75v28.5A3.749 3.749 0 0152.25 36H3.75A3.756 3.756 0 010 32.25V3.75z" fill="#000" fill-rule="nonzero"/><path d="M1.25 3.75v28.5c0 1.375 1.123 2.5 2.5 2.5h48.5c1.382 0 2.5-1.118 2.5-2.5V3.75c0-1.375-1.123-2.5-2.5-2.5H3.75a2.499 2.499 0 00-2.5 2.5z" fill="#FFF"/><g><g transform="translate(14 4)"><circle fill="url(#a)" cx="14" cy="14" r="14"/><g opacity=".097" transform="translate(2.071 2.071)" stroke="#FFF" stroke-width=".51"><circle cx="11.929" cy="11.929" r="11.929"/><circle cx="11.97" cy="11.97" r="9.568"/><circle cx="12.012" cy="12.012" r="6.876"/></g></g><path d="M21.631 23.274a1.14 1.14 0 00-.166.012v.564a.568.568 0 00.116.01h.03a.715.715 0 00.133-.012.329.329 0 00.118-.046.24.24 0 00.084-.093.34.34 0 00.03-.157c0-.055-.01-.1-.029-.135a.246.246 0 00-.078-.086.307.307 0 00-.111-.045.65.65 0 00-.127-.012zm-.507-.251a2.813 2.813 0 01.48-.042c.086 0 .173.006.26.02a.649.649 0 01.235.085c.07.042.126.101.17.176a.58.58 0 01.066.295.61.61 0 01-.058.277.53.53 0 01-.151.185.612.612 0 01-.215.105.96.96 0 01-.25.032h-.04a1.244 1.244 0 01-.156-.01v.599h-.34v-1.722zM22.82 24.499a.248.248 0 00.153-.044.305.305 0 00.085-.093v-.161a.898.898 0 00-.148-.003.54.54 0 00-.126.022.212.212 0 00-.087.05.112.112 0 00-.032.082c0 .047.014.083.041.108a.158.158 0 00.113.039zm-.41-.925c.065-.03.144-.053.235-.07.091-.018.187-.027.286-.027.086 0 .158.01.216.031.058.021.104.05.138.089a.33.33 0 01.072.136.698.698 0 01.021.18c0 .072-.002.146-.007.22a3.908 3.908 0 00-.009.217c0 .071.001.14.006.207.005.067.018.13.038.19h-.264l-.052-.171h-.012a.442.442 0 01-.138.133.42.42 0 01-.228.056.445.445 0 01-.156-.026.339.339 0 01-.224-.337c0-.076.017-.14.051-.193a.368.368 0 01.147-.126.725.725 0 01.228-.068c.089-.012.188-.016.297-.01.012-.094.005-.16-.02-.2-.024-.041-.08-.062-.166-.062-.065 0-.133.007-.205.02a.75.75 0 00-.178.052l-.077-.24zM24.104 24.506a.222.222 0 00.145-.042.267.267 0 00.079-.127v-.559a.496.496 0 00-.192-.032.228.228 0 00-.193.093c-.047.062-.07.161-.07.297 0 .12.02.213.06.276a.19.19 0 00.171.094zm.547.239c0 .18-.049.313-.147.399-.098.085-.234.128-.41.128-.12 0-.213-.009-.282-.025a.715.715 0 01-.155-.052l.067-.256c.038.015.082.03.133.044.05.015.113.023.187.023.113 0 .19-.025.23-.074a.313.313 0 00.061-.205v-.08h-.01c-.058.079-.16.118-.308.118-.16 0-.28-.05-.36-.15-.078-.099-.117-.255-.117-.467 0-.222.053-.39.159-.504.106-.114.26-.172.462-.172.106 0 .201.008.285.023.083.015.152.032.205.052v1.198zM25.155 24.124c0 .054.005.105.015.151a.42.42 0 00.045.122c.02.035.046.062.078.08.033.02.071.03.116.03.084 0 .147-.031.189-.093.041-.06.062-.158.062-.29a.581.581 0 00-.057-.278c-.039-.07-.103-.105-.194-.105a.22.22 0 00-.187.09c-.044.059-.067.157-.067.293m-.333 0c0-.21.052-.373.154-.486.103-.114.247-.17.433-.17.1 0 .185.015.258.047a.483.483 0 01.182.133.569.569 0 01.108.207c.024.081.036.17.036.269 0 .21-.051.372-.153.485-.102.114-.246.17-.431.17a.65.65 0 01-.259-.047.494.494 0 01-.182-.133.56.56 0 01-.11-.207.943.943 0 01-.036-.268M26.681 24.402a.093.093 0 00-.042-.08.509.509 0 00-.105-.054 3.3 3.3 0 00-.136-.051.512.512 0 01-.137-.072.352.352 0 01-.147-.3c0-.122.037-.216.11-.28.073-.065.178-.098.315-.098.095 0 .18.01.256.03.077.02.136.043.18.067l-.073.234a1.626 1.626 0 00-.144-.047.64.64 0 00-.176-.025c-.096 0-.144.037-.144.112 0 .03.014.054.042.072a.563.563 0 00.104.05l.137.052c.05.018.095.042.137.07a.372.372 0 01.104.114.341.341 0 01.042.179c0 .125-.04.224-.12.297-.08.072-.201.108-.362.108a.879.879 0 01-.435-.112l.09-.241a.863.863 0 00.151.063c.063.02.128.031.194.031a.215.215 0 00.116-.027c.029-.018.043-.049.043-.092M28.503 24.278a.162.162 0 00-.059-.13.65.65 0 00-.146-.09 6.08 6.08 0 00-.192-.085.967.967 0 01-.191-.107.452.452 0 01-.205-.399.53.53 0 01.042-.22.413.413 0 01.12-.155.517.517 0 01.186-.092c.071-.02.15-.03.239-.03.1 0 .196.009.285.026a.73.73 0 01.221.076l-.106.286a.603.603 0 00-.164-.063.931.931 0 00-.236-.029c-.08 0-.141.016-.183.047a.15.15 0 00-.064.127c0 .05.02.091.059.124a.674.674 0 00.147.092c.058.029.122.057.19.087.07.03.133.066.192.108a.55.55 0 01.147.157.43.43 0 01.058.232.573.573 0 01-.046.24.455.455 0 01-.129.168.546.546 0 01-.201.1.982.982 0 01-.26.032c-.124 0-.234-.012-.328-.035a1.008 1.008 0 01-.209-.07l.11-.29a.677.677 0 00.169.064c.036.01.075.018.115.025.04.007.082.01.126.01a.438.438 0 00.232-.051.17.17 0 00.08-.155M29.544 23.726c-.084 0-.147.025-.188.076a.374.374 0 00-.073.202h.462c.007-.09-.007-.158-.04-.206-.035-.048-.088-.072-.161-.072zm.462.912a.632.632 0 01-.202.1.887.887 0 01-.272.042c-.2 0-.347-.059-.44-.176-.093-.116-.14-.277-.14-.48 0-.22.053-.383.157-.493.105-.109.251-.164.44-.164.063 0 .124.009.184.025a.403.403 0 01.27.236.604.604 0 01.043.241 1.086 1.086 0 01-.025.237h-.745c.005.104.032.183.08.236.05.053.128.08.238.08a.504.504 0 00.305-.095l.107.211zM30.717 24.506a.222.222 0 00.145-.042.267.267 0 00.079-.127v-.559a.496.496 0 00-.192-.032.228.228 0 00-.193.093c-.047.062-.07.161-.07.297 0 .12.02.213.06.276a.19.19 0 00.171.094zm.547.239c0 .18-.05.313-.147.399-.098.085-.234.128-.41.128-.12 0-.213-.009-.282-.025a.715.715 0 01-.155-.052l.067-.256c.038.015.082.03.133.044.05.015.113.023.187.023.113 0 .19-.025.23-.074a.313.313 0 00.061-.205v-.08h-.01c-.058.079-.16.118-.308.118-.16 0-.28-.05-.359-.15-.079-.099-.118-.255-.118-.467 0-.222.053-.39.159-.504.106-.114.26-.172.462-.172.106 0 .201.008.285.023.083.015.152.032.205.052v1.198zM31.806 23.502v.706a.49.49 0 00.036.219c.024.044.07.067.14.067a.22.22 0 00.153-.055.336.336 0 00.09-.134v-.803h.324v.865c0 .068.003.135.01.2.006.066.016.125.03.178h-.244l-.057-.184h-.01a.454.454 0 01-.4.219.535.535 0 01-.17-.025.277.277 0 01-.124-.082.383.383 0 01-.075-.154.955.955 0 01-.027-.244v-.773h.324zM33.468 23.805a.421.421 0 00-.14-.027.221.221 0 00-.224.164l.001.803h-.323v-1.243h.251l.038.164h.01a.34.34 0 01.114-.141.29.29 0 01.169-.05.47.47 0 01.146.027l-.042.303zM33.878 24.124c0 .054.005.105.015.151.01.047.025.087.045.122.02.035.046.062.078.08.032.02.071.03.116.03.084 0 .147-.031.189-.093.041-.06.062-.158.062-.29a.581.581 0 00-.057-.278c-.039-.07-.103-.105-.194-.105a.22.22 0 00-.187.09c-.044.059-.067.157-.067.293m-.333 0c0-.21.052-.373.154-.486.103-.114.247-.17.433-.17.1 0 .185.015.258.047a.483.483 0 01.182.133.569.569 0 01.108.207c.024.081.036.17.036.269 0 .21-.051.372-.153.485-.102.114-.246.17-.431.17a.65.65 0 01-.259-.047.493.493 0 01-.182-.133.56.56 0 01-.11-.207.943.943 0 01-.036-.268M35.404 24.402a.093.093 0 00-.042-.08.513.513 0 00-.105-.054 3.391 3.391 0 00-.136-.051.513.513 0 01-.137-.072.352.352 0 01-.147-.3c0-.122.037-.216.11-.28.073-.065.178-.098.315-.098.095 0 .18.01.256.03.077.02.136.043.18.067l-.073.234a1.62 1.62 0 00-.144-.047.64.64 0 00-.176-.025c-.096 0-.144.037-.144.112 0 .03.014.054.042.072a.563.563 0 00.104.05l.137.052c.05.018.095.042.137.07a.37.37 0 01.104.114.341.341 0 01.042.179c0 .125-.04.224-.12.297-.08.072-.201.108-.362.108a.88.88 0 01-.435-.112l.09-.241a.86.86 0 00.151.063c.063.02.128.031.194.031a.214.214 0 00.116-.027c.029-.018.043-.049.043-.092M24.236 25.739h1.031v.303h-.69v.405h.628v.303h-.629v.425h.704v.304h-1.044zM26.296 27.479v-.706a.418.418 0 00-.043-.219c-.03-.045-.079-.067-.148-.067a.233.233 0 00-.156.053.297.297 0 00-.09.133v.806h-.324v-1.243h.256l.038.164h.01a.535.535 0 01.151-.14.449.449 0 01.244-.059c.061 0 .116.009.164.025a.28.28 0 01.122.082c.033.038.058.09.074.155.017.066.025.147.025.243v.773h-.323zM27.872 27.061c0 .058.007.1.022.127.015.026.039.04.072.04.02 0 .04-.002.058-.005a.354.354 0 00.071-.023l.035.254a.714.714 0 01-.29.06c-.095 0-.167-.023-.217-.067-.05-.043-.074-.116-.074-.217v-1.491h.323v1.322zM29.718 27.479v-.706a.418.418 0 00-.043-.219c-.03-.045-.079-.067-.148-.067a.233.233 0 00-.156.053.297.297 0 00-.09.133v.806h-.324v-1.243h.256l.038.164h.01a.535.535 0 01.151-.14.45.45 0 01.244-.059c.061 0 .116.009.164.025a.279.279 0 01.122.082c.033.038.058.09.074.155.017.066.025.147.025.243v.773h-.323z" fill="#F1E431"/><g transform="translate(30.237 26.188)"><mask id="c" fill="#fff"><use xlink:href="#b"/></mask><path d="M.617.272C.533.272.47.297.429.348A.374.374 0 00.356.55h.462C.825.46.811.392.778.344.742.296.69.272.616.272zm.462.912a.632.632 0 01-.202.1.887.887 0 01-.272.041c-.2 0-.348-.058-.44-.175C.072 1.033.025.873.025.67c0-.22.053-.383.157-.493C.286.068.433.013.622.013c.063 0 .124.009.184.025a.403.403 0 01.27.236.604.604 0 01.043.241 1.086 1.086 0 01-.025.236H.35c.005.105.032.183.08.236.05.053.128.08.238.08A.504.504 0 00.972.973l.107.21z" fill="#F1E431" mask="url(#c)"/></g><path d="M31.997 27.233a.248.248 0 00.154-.044.305.305 0 00.085-.093v-.162a.898.898 0 00-.148-.002.539.539 0 00-.126.022.212.212 0 00-.087.05.112.112 0 00-.032.082c0 .046.014.082.04.108a.158.158 0 00.114.039zm-.41-.925a1.06 1.06 0 01.236-.07c.091-.018.186-.027.286-.027.086 0 .158.01.216.031.058.02.104.05.138.088a.332.332 0 01.072.137.701.701 0 01.021.18c0 .072-.002.145-.007.219a3.83 3.83 0 00-.009.217c0 .072.001.14.006.208.005.067.018.13.037.19h-.263l-.052-.171h-.013a.443.443 0 01-.138.133.42.42 0 01-.227.055.446.446 0 01-.157-.026.339.339 0 01-.223-.336c0-.077.017-.14.05-.193a.368.368 0 01.147-.127.725.725 0 01.23-.067c.088-.012.187-.016.296-.011.012-.093.005-.16-.02-.2-.025-.04-.08-.06-.166-.06-.065 0-.133.006-.205.019a.75.75 0 00-.178.052l-.077-.24z" fill="#F1E431"/><g><g transform="translate(17.976 12.698)"><use fill="#000" filter="url(#d)" xlink:href="#e"/><use fill="#FEFEFE" xlink:href="#e"/></g><g transform="translate(17.976 12.698)"><use fill="#000" filter="url(#f)" xlink:href="#g"/><use fill="#FEFEFE" xlink:href="#g"/></g><g transform="translate(17.976 12.698)"><use fill="#000" filter="url(#h)" xlink:href="#i"/><use fill="#FEFEFE" xlink:href="#i"/></g></g><g><g fill-rule="nonzero"><path fill="url(#j)" d="M.04.843L.152.62.87.98l-.111.222z" transform="translate(26.26 7.48)"/><path fill="url(#k)" d="M.91 1.693l.131.21-.906.566-.132-.211z" transform="translate(26.26 7.48)"/><path fill="url(#l)" d="M3.146.45l.132.21-.874.547-.131-.211z" transform="translate(26.26 7.48)"/><path fill="url(#m)" d="M3.134 2.293l-.133.21-.982-.626.134-.21z" transform="translate(26.26 7.48)"/></g><g fill="url(#n)" transform="translate(24.852 6.485)"><circle cx="2.982" cy="2.402" r="1"/><circle cx="5.385" cy="1.16" r="1"/><circle cx=".87" cy="1.367" r="1"/><circle cx="3.355" cy=".621" r="1"/><circle cx="1.284" cy="3.521" r="1"/><circle cx="2.775" cy="4.515" r="1"/><circle cx="4.763" cy="3.438" r="1"/></g></g></g></g></svg>