<?xml version="1.0" encoding="UTF-8"?><svg width="56" height="36" viewBox="0 0 56 36" xmlns="http://www.w3.org/2000/svg"><g fill="none" fill-rule="evenodd"><path d="M0 3.75A3.749 3.749 0 013.75 0h48.5A3.756 3.756 0 0156 3.75v28.5A3.749 3.749 0 0152.25 36H3.75A3.756 3.756 0 010 32.25V3.75z" fill="#000" fill-rule="nonzero"/><path d="M1.25 3.75v28.5c0 1.375 1.123 2.5 2.5 2.5h48.5c1.382 0 2.5-1.118 2.5-2.5V3.75c0-1.375-1.123-2.5-2.5-2.5H3.75a2.499 2.499 0 00-2.5 2.5z" fill="#FFF"/><g fill-rule="nonzero"><path d="M23.947 23.296c-.213-.962-.668-1.711-1.292-2.245-.214-.235-.474-.385-.775-.557-.15-.087-.257-.15-.45-.212-.324-.13-.755-.279-1.293-.212.257-.13.668-.15 1.075-.13.344.044.625.13.925.212.237.13.494.255.731.408.562-1.797.324-4.191-.324-5.753-.644-1.625-1.573-2.971-2.778-4.019a9.194 9.194 0 00-4.522-2.308 7.718 7.718 0 00-2.972.02 6.944 6.944 0 00-2.304 1.091c-.605.534-1.186 1.091-1.593 1.817-.15.15-.213.365-.324.534a5.591 5.591 0 01-.28.6c-.13.428-.3.836-.388 1.303-.213.876-.257 2.096-.107 3.038.107 1.028.411 1.84.732 2.653.193.385.367.77.604 1.134.214.365.475.664.712.985.537.577 1.118 1.135 1.81 1.582 1.38.899 2.972 1.582 5.126 1.688.044-.087-.063-.255-.087-.385-.043-.13-.043-.279-.087-.408-.02-.298-.043-.62 0-.918.087.02.087.129.13.192.044.043.064.13.131.172.063.15.174.236.237.385.194.212.368.471.625.62.213.212.474.342.73.514.258.13.495.322.819.408.537.28 1.249.385 1.98.491.731.106 1.423.212 2.09.385.605.212 1.23.408 1.724.726.257.149.518.298.755.49.107.087.257.15.344.279.15.063.213.192.344.235.41.409.841.793 1.185 1.26.15.255.344.471.45.77.108.105.131.278.214.408 0 .149.15.341.02.447-.194.02-.15-.173-.237-.279-.063-.106-.15-.192-.194-.321-.324-.322-.605-.683-.948-.985-.344-.303-.688-.601-1.075-.836a7.885 7.885 0 00-2.648-1.197c-1.012-.28-2.13-.409-3.423-.322a7.035 7.035 0 00-1.593.341c-.518.13-1.075.192-1.66.279-2.154.13-4.632-.408-6.268-1.197-.882-.408-1.68-.875-2.368-1.476-.367-.279-.687-.62-.992-.942-.28-.341-.604-.683-.818-1.09-.28-.366-.45-.837-.711-1.241-.15-.471-.388-.899-.494-1.413-.174-.47-.257-1.028-.324-1.605 0-.173-.087-.471-.087-.726 0-.02.02-.043.02-.086-.02-.236-.064-.577 0-.77 0-.557.086-1.197.193-1.71a7.912 7.912 0 01.411-1.496c.15-.49.368-.919.561-1.37.13-.192.238-.408.344-.62.107-.212.257-.365.344-.6.107-.063.13-.193.214-.28.043-.129.15-.172.193-.297.087-.063.15-.173.214-.279.087-.086.174-.15.213-.279.324-.321.605-.663.949-.961.343-.322.711-.577 1.055-.875.213-.106.387-.279.605-.385.173-.15.41-.235.56-.385.451-.192.843-.447 1.313-.62.43-.212.925-.341 1.4-.514 1.035-.255 2.09-.447 3.378-.408.044 0 .064-.043.087 0 2.455.063 4.241.812 5.75 1.798 1.507 1.004 2.673 2.33 3.51 3.999.819 1.648 1.27 3.893.882 6.244a13.349 13.349 0 01-.882 2.865c-.213.408-.41.836-.667 1.197a3.282 3.282 0 01-.388.557.827.827 0 01-.193.279c-.02.043-.064.086-.107.13-.02.019-.02.042-.063.062.07.137.027.137.027.114z" fill="#F78F20"/><path d="M23.3 24.002c-.325-.13-.368-.514-.519-.812-.02-.106-.043-.279 0-.385.02 0 .02-.02.064-.02.087-.042.15.02.28.064.15.172.257.408.324.663-.02.212.004.428-.15.49zm-2.388-.47c0-.02.02-.02.02 0 .474.062.687.384.73.875-.019.298-.193.447-.45.514-.644.02-1.012-.577-.774-1.178.126-.106.213-.231.474-.212z" fill="#F78F20"/><path d="M34.864 21.306c-1.186-.384-2.154-.836-2.953-1.346-.324.043-.58.043-.755.043a3.378 3.378 0 01-1.743-.49c-.537-.318-.948-.793-1.229-1.39-.28-.6-.41-1.283-.41-2.01 0-.725.13-1.412.41-2.009.28-.6.668-1.067 1.206-1.389.537-.322 1.162-.49 1.873-.49.711 0 1.336.172 1.873.49a2.95 2.95 0 011.206 1.39c.257.6.41 1.283.41 2.009 0 .769-.15 1.456-.45 2.076-.3.62-.774 1.11-1.466 1.456.862.385 1.743.64 2.672.812l-.644.848zm-3.593-2.072c.755 0 1.336-.279 1.743-.836.41-.557.624-1.303.624-2.288 0-.985-.213-1.73-.624-2.288-.411-.557-.992-.836-1.743-.836-.751 0-1.336.279-1.743.836-.411.557-.625 1.303-.625 2.268 0 .962.214 1.731.625 2.288.407.558.988.856 1.743.856zm4.972.596v-7.417h1.055v7.421h-1.055v-.004zm3.964 0L38.27 12.41h1.012l1.53 5.86 1.399-5.86h1.035l1.336 5.773 1.66-5.773h.862l-2.091 7.421h-1.055l-1.316-5.706-1.38 5.71h-1.055v-.004zm7.861 0v-7.417h1.055v7.421h-1.055v-.004z" fill="#0769B3"/><path d="M36.587 20.772v1.154h.106l.905-1.154h.412l-.992 1.197c.43.063.604.322.73.664.107.255.175.514.281.726h-.367a4.065 4.065 0 01-.237-.62c-.13-.342-.281-.577-.732-.577h-.106v1.197h-.324v-2.587h.324zm3.92 1.284c0 .898-.537 1.37-1.205 1.37-.688 0-1.186-.534-1.186-1.327 0-.836.518-1.37 1.206-1.37.735.024 1.185.557 1.185 1.327zm-2.023.043c0 .557.3 1.048.842 1.048.541 0 .841-.49.841-1.068 0-.514-.28-1.048-.841-1.048-.562-.023-.842.491-.842 1.068zm2.798-1.327v2.308h.842v-2.308h.324v2.308h.842v-2.308h.344v2.587h-2.692v-2.587h.34zm4.308 1.39h-1.012v.942h1.142v.278h-1.466v-2.61h1.423v.299h-1.075v.812h1.012v.279h-.024zm2.367-1.39v2.587h-.343V21.07h-.862v.792c0 .558-.02 1.197-.387 1.433a.847.847 0 01-.411.13l-.044-.28a.843.843 0 00.28-.129c.214-.212.238-.706.238-1.134v-1.087h1.53v-.024zm1.941 1.39h-1.012v.942h1.142v.278h-1.466v-2.61h1.423v.299H48.91v.812h1.012v.279h-.024zm.881-1.39v1.154h.107l.905-1.154h.411l-.992 1.197c.431.063.605.322.731.664.107.255.174.514.281.726h-.368a4.065 4.065 0 01-.237-.62c-.13-.342-.28-.577-.73-.577h-.108v1.197h-.324v-2.587h.324z" fill="#F7941E"/></g></g></svg>