<?xml version="1.0" encoding="UTF-8"?><svg width="56" height="36" viewBox="0 0 56 36" xmlns="http://www.w3.org/2000/svg"><g fill="none" fill-rule="evenodd"><path d="M0 3.75A3.749 3.749 0 013.75 0h48.5A3.756 3.756 0 0156 3.75v28.5A3.749 3.749 0 0152.25 36H3.75A3.756 3.756 0 010 32.25V3.75z" fill="#000" fill-rule="nonzero"/><path d="M1.25 3.75v28.5c0 1.375 1.123 2.5 2.5 2.5h48.5c1.382 0 2.5-1.118 2.5-2.5V3.75c0-1.375-1.123-2.5-2.5-2.5H3.75a2.499 2.499 0 00-2.5 2.5z" fill="#FFF"/><path d="M8.82 21.768v1.152l4.5 3.047V23.51l-4.5-3.049v1.308zm-.761-1.824l-4.052-2.747v2.46l4.052 2.747v-2.46zm5.112-2.963v-.828l-.112-.061-3.964-2.04v.683l3.066 1.692v.864l.661-.493.349.183z" fill="#8D9090" fill-rule="nonzero"/><path d="M12.146 16.812l-.3.228-3.8 2.904v2.46l.761-.636v-2.003l3.33-2.495v-.455l.01-.003zm1.186 6.71l-.012 2.46 3.665-3.733V19.92l-3.653 3.601zm-.161-7.33l-.112-.1.112.1zm0-.04v.83l.76.42 2.457-1.944V13.49l-3.217 2.662z" fill="#626768" fill-rule="nonzero"/><path d="M12.146 16.43L9.08 14.737l-1.073-.587-4 2.542 4.052 2.592 4.087-2.854zm1.025-.768l3.217-2.423-4.088-1.824-3.217 2.04.012.12 4.076 2.087zm.746 1.74l-.76-.42-.362-.193-.66.493-3.328 2.495 4.5 2.892 3.666-3.563v-.012L13.917 17.4z" fill="#B8BDBE" fill-rule="nonzero"/><path d="M12.146 16.8v-.385l-4.1 2.869-4.039-2.592v.517l4.04 2.746h.012l3.802-2.903.285-.252zm4.84 3.12v-.817L13.32 22.67l-4.5-2.892v.695l4.5 3.047h.012l3.653-3.599zm-.613-6.43v-.25l-3.217 2.422-4.063-2.087v.479l3.966 2.04.112.047v.012l3.202-2.662z" fill="#FFF" fill-rule="nonzero"/><path fill="#0F30A9" fill-rule="nonzero" d="M17.346 18.254v-2.388l-4.375-2.028v2.256z"/><path fill="#054F9C" fill-rule="nonzero" d="M17.407 15.254l3.727-2.677-4.424-1.558-3.74 2.232 4.437 2.003z"/><path fill="#092D75" fill-rule="nonzero" d="M21.137 15.326v-2.314l-3.79 2.854v2.388z"/><path fill="#FFF" fill-rule="nonzero" d="M21.137 13.01v-.444l-3.73 2.688-4.439-2.017h-.012v.601l4.376 2.028z"/><path d="M43.215 16.965c.634.054.936.374.947 1.016-.032.598-.285.884-.79.904h-.928a.15.15 0 00-.107.255l1.807 1.836a.15.15 0 10.214-.21l-1.556-1.58h.576c.675-.028 1.044-.444 1.084-1.2-.013-.807-.435-1.253-1.235-1.32l-3.33-.001-.15.15v4.162a.15.15 0 00.3 0v-4.012h3.168zm-8.553 1.81h3.728a.15.15 0 000-.3h-3.878l-.15.15v2.22l.15.15h4.176a.15.15 0 000-.3h-4.026v-1.92zm5.236.396h2.543a.15.15 0 000-.3h-2.543a.15.15 0 000 .3zm-1.247-2.22a.15.15 0 000-.3H34.5l-.15.15v1.823a.15.15 0 00.3 0V16.95h4.001zm7.892-.259a.15.15 0 00-.3 0v4.15l.15.15h4.587a.15.15 0 000-.3h-4.437v-4zm-1.122 4.153v-4.091a.15.15 0 00-.3 0v4.091a.15.15 0 00.3 0zm-23.762-3.88c.634.054.936.374.947 1.016-.032.598-.286.884-.79.904h-.928a.15.15 0 00-.107.255l1.807 1.836a.15.15 0 10.214-.21l-1.556-1.58h.576c.674-.028 1.043-.444 1.084-1.2-.013-.807-.435-1.253-1.235-1.32l-3.34-.001-.15.15v4.162a.15.15 0 00.3 0v-4.012h3.178zm-3.327 2.206h2.544a.15.15 0 000-.3h-2.544a.15.15 0 000 .3zm14.248-.397h.125c.542.105.81.42.81.977.023.527-.22.83-.765.945l-3.622-.003v-1.919h3.452c.01 0 .019 0 .027-.002a.15.15 0 00-.021-.297h-3.608l-.15.15v2.218l.15.15h3.802c.719-.148 1.064-.58 1.036-1.248 0-.553-.235-.942-.685-1.146a1.744 1.744 0 00-.398-.122l-.153-.003v.15l.024.149c.207-.034.382-.092.527-.174.326-.185.497-.492.497-.911 0-.607-.333-.967-.955-1.037h-3.695l-.15.15v1.823a.15.15 0 00.3 0V16.95h3.528c.456.052.672.286.672.738 0 .447-.24.7-.76.786-.194.032-.172.3.012.3zm-8.837 2.071v-3.143c.04-.41.38-.661 1.064-.738h2.176c.69.022.996.262.996.738v3.143a.15.15 0 00.3 0v-3.143c0-.66-.45-1.012-1.292-1.037H24.79c-.827.092-1.29.435-1.347 1.022v3.158a.15.15 0 00.3 0zm4.374-1.7H23.58a.15.15 0 000 .3h4.537a.15.15 0 000-.3z" fill="#092D75" fill-rule="nonzero"/><path d="M34.3 25.404v-3.888h3.43c.572.012.86.29.872.84v2.207c.013.517-.287.791-.873.84H34.3h0zm6.32-4.054v.995c.012-.648.36-.972 1.034-.995h2.817c.597.023.922.347.946.995v3.07m2.534-1.823h2.83v.18c.075 1.033-.437 1.573-1.559 1.643h-1.17c-.986.036-1.496-.347-1.535-1.152v-1.357c-.012-.972.524-1.488 1.62-1.559h1.158c.873.012 1.298.42 1.283 1.235m-17.1 2.822v-1.547h-4.537v1.547m10.683 0v-4.068 4.068zm.996-3.07v3.07-3.07zM28.95 23.868V22.26c.049-.505.449-.803 1.198-.888h2.192c.774.024 1.147.324 1.147.888v1.608H28.95zm-8.514 1.678v-4.174h-2.28m4.523 0h-2.256 2.256zm1.01 4.174v-4.174h3.33c.721.061 1.085.444 1.097 1.153-.037.683-.349 1.033-.934 1.056h-.934l1.807 1.836M23.69 23.58h2.544-2.544z" stroke="#B8BDBE" stroke-width=".3" stroke-linecap="round" stroke-linejoin="round"/></g></svg>