<svg width="56" height="36" xmlns="http://www.w3.org/2000/svg"><g fill="none" fill-rule="evenodd"><path d="M0 3.75A3.75 3.75 0 0 1 3.75 0h48.5A3.76 3.76 0 0 1 56 3.75v28.5A3.75 3.75 0 0 1 52.25 36H3.75A3.76 3.76 0 0 1 0 32.25V3.75z" fill="#000" fill-rule="nonzero"/><path d="M1.25 3.75v28.5a2.5 2.5 0 0 0 2.5 2.5h48.5a2.5 2.5 0 0 0 2.5-2.5V3.75a2.5 2.5 0 0 0-2.5-2.5H3.75a2.5 2.5 0 0 0-2.5 2.5z" fill="#FFF"/><path fill="#000" fill-rule="nonzero" d="M4 12.22h12.6V25H4z"/><path fill="#FFF200" d="M4.36 12.59h11.87v12.04H4.36z"/><path d="M5 22.2l1.54 1.6 3.63-3.74 3.75 3.81 1.57-1.57-3.71-3.77.71-.7v-1.49l.45-.38v1.16l.58.48 1.72-1.75.55.44c.33-1.23-1.56-4-3.12-2.47l-1.83 1.83.38.46-.93.91-.9-.89.48-.43-2-1.95c-1.5-1.26-3.04.65-3.1 2.51l.55-.46L7 17.63l.6-.5V16l.37.29v1.47l.73.73L5 22.2zM18.48 12.65h1.96c1.7.03 2.31 2.21.69 3.01l1.4 2.01h-1.58l-1.13-1.63v1.63h-1.34v-5.02zm1.34 1.1v1.11h.47c.64-.12.47-1.06 0-1.1h-.47zm4.56.3c.36 0 .7.13.98.33v-.2h1.3l.02 3.5h-1.33l.01-.22c-.28.2-.62.31-.98.31-.98 0-1.77-.83-1.77-1.85 0-1.03.8-1.87 1.77-1.87zm.28 1.11a.78.78 0 0 0-.8.76c0 .41.36.75.8.75.44 0 .8-.34.8-.75a.78.78 0 0 0-.8-.76zm2.7-.98h1.4v3.5h-1.4v-3.5zm.7-1.99c.4 0 .73.34.73.75 0 .4-.32.74-.73.74a.74.74 0 0 1-.73-.74c0-.41.32-.75.73-.75zm10.55 2h1.38v3.48h-1.38v-3.49zm.69-2c.4 0 .73.34.73.75 0 .4-.32.74-.73.74a.74.74 0 0 1-.73-.74c0-.41.32-.75.73-.75zM29 14.2l.43-.01v-.62c-.01-1.23 1.17-1.78 2.28-1.45v1.14c-.33-.23-.9-.11-.9.17v.76h1.19v-.61c0-1.13 1.03-1.86 2.3-1.46v1.14c-.23-.23-.89-.11-.87.17v.78h.9v1.08h-.86v2.4H32.1v-2.39h-1.26v2.38H29.5V15.3h-.48v-1.1zm7.32 3.58c-1.06 0-1.93-.8-1.93-1.83s.75-1.88 1.93-1.88 1.93.67 1.93 2.09H35.7c-.04.57.76 1.09 1.3.38h1.2c-.25.73-.69 1.23-1.88 1.24zm-.45-2.45h.99c-.06-.42-.97-.42-.99 0zm9.9 2.45c-1.06 0-1.92-.8-1.92-1.83s.74-1.88 1.92-1.88c1.2 0 1.93.67 1.93 2.09h-2.55c-.04.57.76 1.09 1.3.38h1.22c-.26.73-.7 1.23-1.9 1.24zm-.44-2.45h.98c-.06-.42-.97-.42-.98 0zm-1.85-1.07l-.4.85c-.52-.16-1.02-.13-1 .02 0 .09-.08.25.73.37 1.2.19 1.1 2.45-.91 2.28-.56-.04-1-.18-1.38-.4l.45-.92c.63.32 1.24.5 1.28.19.06-.4-.66-.25-1.09-.59-.77-.48-.33-1.98.93-2 .45-.03.91.05 1.4.2zm4.75-.07h1.25v.27c1.14-.78 2.41-.19 2.44 1.04v2.18h-1.31v-2.13c0-.62-1.04-.53-1.08 0v2.13h-1.3v-3.49zm-29 5.62l2.16-.02c1.09.02 1.6 1.44.6 2.39 1.18.71.5 2.8-1.17 2.8h-2.45l.87-5.17zm1 3.09l-.17.85h.56c.65.03.57-.85.2-.85h-.59zm.29-1.86l-.15.7h.18c.52.04.83-.7.2-.7h-.23zm2.02 3.95l2.65-5.15h1.4L27.8 25h-1.38l-.25-.93h-1.69l-.45.91h-1.48zm2.42-2h.92l-.3-1.35-.62 1.36zm3.3 2.02h1.37l.34-3.24 1.97 3.22h1.47l.62-5.18h-1.38l-.38 3.24-1.97-3.25h-1.42l-.63 5.2zm6.75-5.21l-.96 5.2h1.45l.39-1.95 1.3 1.94h1.9l-1.86-2.72 2.37-2.48h-1.84l-1.62 1.83.25-1.83h-1.38z" fill="#000" fill-rule="nonzero"/></g></svg>