<?xml version="1.0" encoding="UTF-8"?><svg width="56" height="36" viewBox="0 0 56 36" xmlns="http://www.w3.org/2000/svg"><g fill="none" fill-rule="evenodd"><path d="M0 3.75A3.749 3.749 0 013.75 0h48.5A3.756 3.756 0 0156 3.75v28.5A3.749 3.749 0 0152.25 36H3.75A3.756 3.756 0 010 32.25V3.75z" fill="#000" fill-rule="nonzero"/><path d="M1.25 3.75v28.5c0 1.375 1.123 2.5 2.5 2.5h48.5c1.382 0 2.5-1.118 2.5-2.5V3.75c0-1.375-1.123-2.5-2.5-2.5H3.75a2.499 2.499 0 00-2.5 2.5z" fill="#FFF"/><path d="M39.495 9.993c.506 1.173-.446 2.705-2.126 3.422-1.68.718-3.453.35-3.959-.823-.505-1.173.447-2.705 2.126-3.422 1.68-.718 3.453-.349 3.96.823" fill="#E83F2E"/><path d="M30.406 19.797l-.503 1.133s-.096.308-.58.308l-1.139-.039.734-1.825h1.236s.348 0 .252.423m1.1-1.71l-4.693.019-.483 1.21h.522s.29.096.173.404l-1.796 4.457h1.777l.696-1.671h2.143s1.043-.02 1.623-1.019l.965-2.382s.31-.807-.926-1.018" fill="#373379"/><path d="M30.154 19.374h-1.236l-.734 1.825 1.14.039c.483 0 .58-.308.58-.308l.502-1.133c.096-.423-.252-.423-.252-.423" fill="#FEFEFE"/><path d="M35.543 21.238H34.25s-.27-.04-.135-.5c0 0 .405-1.383.985-1.422l1.14.039-.696 1.883zm1.99-.673l1.004-2.46h-3.709s-1.487.155-1.893 1.115l-.791 1.883s-.387 1.23.676 1.326h4.79l.502-1.191s-.908.115-.58-.673z" fill="#373379"/><path d="M34.114 20.738c-.135.461.135.5.135.5h1.294l.696-1.883-1.14-.039c-.58.039-.985 1.422-.985 1.422" fill="#FEFEFE"/><path d="M42.092 20.027l-1.338.844c-.203.107-.322-.036-.322-.036l-.538-.606c-.144-.178.083-.44.083-.44l1.028-.653c.454-.19.633.012.633.012l.454.44c.155.237 0 .44 0 .44m1.863-.643l-.657-.7c-.274-.25.024-.5.024-.5l.323-.225-.825-.88c-2.472 1.236-4.491 2.603-4.491 2.603-.383.463-.024.998-.024.998l1.565 1.616c.155.44-.299.535-.299.535l-1.11-.012-.55 1.2c.286 0 1.983-.024 1.983-.024 1.54-.772 1.97-1.39 1.97-1.39.275-.38-.011-.773-.011-.773-.204-.25.131-.356.131-.356 1.278-.701 1.876-1.271 1.876-1.271.322-.393.095-.82.095-.82" fill="#373379"/><path d="M41.638 19.148s-.18-.202-.633-.012l-1.028.653s-.227.262-.083.44l.538.606s.119.143.322.036l1.338-.844s.155-.202 0-.44l-.454-.44z" fill="#FEFEFE"/><path d="M48.613 20.415c-.012.06-1.206.69-1.206.69-.383.201-.657.023-.657.023-.192-.107-.574-.57-.574-.57-.143-.155.012-.38.012-.38.239-.239 1.255-.75 1.255-.75.239-.154.62.036.62.036l.55.5c.227.213 0 .45 0 .45m1.983-.878s-1.338-1.32-1.66-1.45c0 0-.717-.321-1.41.012 0 0-2.102 1.045-3.082 1.699 0 0-.609.463-.382 1.058 0 0 1.242 1.438 1.624 1.616 0 0 .478.332 1.314.083 0 0 2.39-.915 3.585-2.044 0 0 .358-.404.011-.974" fill="#373379"/><path d="M48.063 19.464s-.381-.19-.62-.035c0 0-1.016.51-1.255.748 0 0-.156.226-.012.38 0 0 .382.464.574.571 0 0 .274.178.657-.024 0 0 1.194-.63 1.206-.689 0 0 .227-.238 0-.452l-.55-.499z" fill="#FEFEFE"/><path d="M26.07 18.11h-1.768s-1.123 2.72-1.23 3.09c0 0-.215.664.107.926 0 0 .347.345.729.345l1.23-.012.526-1.212h-.394s-.454-.095-.263-.523l1.063-2.614zM25.258 16.35s.657-.213 1.027.037c0 0 .478.285.096.796 0 0-.299.499-1.123.51 0 0-.693.084-.74-.487 0 0-.037-.582.74-.855M21.136 19.82c0 .238-.454 1.094-.454 1.094-.226.309-.597.309-.597.309H18.95l.765-1.842h1.183c.406.012.238.44.238.44m1.828-1.438s-.239-.262-.836-.31l-4.504.013-.466 1.236h.382s.419 0 .18.606l-1.673 4.254 1.756.012.645-1.747 2.282.012s.657.071 1.255-.654c0 0 .908-1.438 1.146-2.519 0 0 .227-.594-.167-.903" fill="#E83F2E"/><path d="M20.898 19.381h-1.183l-.765 1.842h1.135s.37 0 .597-.31c0 0 .454-.855.454-1.093 0 0 .168-.427-.238-.439" fill="#FEFEFE"/><path d="M14.112 21.2l-1.183.023s-.43-.024-.239-.582c0 0 .215-.749.454-.999 0 0 .155-.285.622-.285l1.039.024-.693 1.818zm2.007-.678l.992-2.436-3.56-.012c-.538 0-1.135.273-1.135.273-.693.333-.849.808-.849.808-.262.393-.8 1.902-.8 1.902-.31.748 0 1.01 0 1.01.299.415.872.404.872.404l4.563.011.502-1.2-.561-.095c-.275-.13-.024-.665-.024-.665zM11.46 18.098l-.526 1.26H9.537s-.383-.072-.622.463l-1.04 2.638-1.791.024 1.744-4.397 3.632.012z" fill="#E83F2E"/><path d="M35.938 8.033s-1.732.582-2.317 1.26c0 0-.992.878-1.315 2.269 0 0-.155 1.307.49 1.949 0 0 .598.76 1.183.962 0 0 .836.345 2.078.226 0 0 2.08-.261 3.166-1.45 0 0-.525 1.105-2.198 2.235 0 0-1.147.831-2.987 1.247 0 0-1.684.44-3.154.071 0 0-1.504-.297-2.21-1.188 0 0-.764-.749-.776-1.818 0 0-.096-1.2.896-2.555 0 0 1.015-1.236 2.031-1.83 0 0 1.326-.749 2.33-1.046 0 0 1.35-.428 2.783-.332" fill="#373379"/><g fill="#231F20" fill-rule="nonzero"><path d="M6.524 26.761l.939-1.658.237.132-1.33 2.352-.351-2.423.269-.038zM9.125 27.114a.582.582 0 00.255-.099.996.996 0 00.14-.105l.186.197c-.038.035-.1.086-.18.136a.833.833 0 01-.381.141c-.276.02-.481-.166-.57-.551l-.003-.03a1.98 1.98 0 01.09-.566c.115-.364.332-.602.661-.618a.664.664 0 01.242.012c.23.057.348.246.266.537a.625.625 0 01-.157.257.746.746 0 01-.255.171l-.038.01a10.192 10.192 0 01-.302.026c-.093.006-.167.01-.224.01a2.068 2.068 0 00-.01.146c.06.253.153.335.28.326zm-.065-.752a8.135 8.135 0 00.272-.023.47.47 0 00.146-.102.37.37 0 00.091-.142c.04-.14.015-.18-.07-.201a.403.403 0 00-.125-.008l-.024.002c-.206.01-.344.162-.429.43l-.015.052c.041-.001.094-.004.154-.008zM11.636 25.878a2.35 2.35 0 01.135-.094c.162-.104.293-.157.409-.136.05.001.111.013.174.044.147.073.226.222.196.444l-.252 1.14-.265-.058.25-1.13c.012-.096-.008-.133-.05-.154a.16.16 0 00-.066-.016l-.035-.004c-.02-.005-.105.028-.213.097a3.426 3.426 0 00-.351.274l-.17 1.006-.269-.044.259-1.53.268.044-.02.117zM14.388 25.523l-.14-.231.524-.316.141.231zM14.222 25.724l.265.06-.347 1.537-.266-.06zM16.528 26.943c.047-.05.06-.097.058-.126l.001-.032c.005-.032-.06-.101-.19-.173a1.522 1.522 0 00-.25-.11c-.155-.07-.237-.19-.245-.334a.648.648 0 01.126-.379.555.555 0 01.369-.186.898.898 0 01.397.058c.063.023.112.046.142.063l-.133.236a.752.752 0 00-.102-.045.639.639 0 00-.276-.043.282.282 0 00-.185.085.429.429 0 00-.034.06.297.297 0 00-.033.136c.003.044.024.074.073.098a1.79 1.79 0 01.283.125c.216.12.348.256.329.434a.444.444 0 01-.13.316c-.106.114-.27.197-.507.24a.926.926 0 01-.346-.025.544.544 0 01-.269-.16l.204-.178a.28.28 0 00.139.078c.071.02.15.024.22.019l.011-.001c.174-.032.285-.088.348-.156zM17.652 27.099a.063.063 0 00-.014-.002v.005l.017.01-.003-.013zm-.036.002a.038.038 0 00-.007.006l.01-.007-.003.001zm.045.001zm-.14.234a.274.274 0 01-.062-.053.38.38 0 01-.052-.076l-.017-.032.002-.036a.344.344 0 01.03-.128c.056-.123.178-.188.335-.144l.03.008.023.02c.014.013.032.032.049.056.054.077.075.17.023.263a.259.259 0 01-.053.065.816.816 0 01-.09.227.59.59 0 01-.304.265l-.096-.253a.323.323 0 00.164-.148.545.545 0 00.019-.034zM21.637 25.852c.08-.057.158-.103.235-.134a.581.581 0 01.201-.048h.01a.577.577 0 01.237.04c.18.073.287.234.27.46v.006c.001.131-.012.301-.053.47-.046.191-.121.343-.239.44a.64.64 0 01-.16.129c-.202.119-.469.163-.799.097l-.114.558-.266-.054.422-2.067.266.054-.01.049zm-.088.433l-.156.762c.264.053.462.02.606-.065a.357.357 0 00.094-.074l.025-.025c.067-.052.12-.156.155-.3.035-.143.046-.293.045-.404v-.016c.009-.119-.027-.173-.1-.202a.316.316 0 00-.125-.021h-.006c-.031 0-.069.01-.112.028-.07.029-.15.078-.231.142a1.956 1.956 0 00-.195.175zM24.828 26.694l.162-.682v-.004a.15.15 0 00-.004-.065c-.021-.06-.108-.086-.366-.007a1.142 1.142 0 00-.205.196.975.975 0 00-.211.46.81.81 0 00-.027.273c.008.107.043.166.128.196l-.006-.003c.092.024.256-.033.499-.274l.013.013c.004-.037.01-.07.017-.103zm-.598.625c-.02-.005-.037-.012-.03-.01-.186-.06-.277-.217-.294-.42a1.069 1.069 0 01.033-.356 1.22 1.22 0 01.265-.572c.105-.128.21-.216.284-.263l.032-.015c.396-.124.644-.054.722.171a.409.409 0 01.013.218l-.162.682a1.334 1.334 0 000 .453l-.266.05a1.339 1.339 0 01-.017-.123c-.229.176-.425.225-.58.185zM27.922 26.64a5.83 5.83 0 01-.092.531c-.05.217-.109.388-.188.512a.704.704 0 01-.17.148c-.285.187-.657.206-1.092-.04l.134-.235c.345.194.608.181.81.05a.542.542 0 00.095-.078c.048-.075.095-.207.136-.376a1.092 1.092 0 01-.553.192c-.247-.026-.379-.197-.414-.437a1.097 1.097 0 01.012-.353c.011-.188.106-.37.253-.542a1.61 1.61 0 01.247-.236c.322-.23.6-.205.795-.015.055.054.09.107.11.148l.005.013c.039.108.025.264-.023.474a3.66 3.66 0 01-.065.245zm-.218-.686c-.1-.099-.232-.11-.443.04a1.478 1.478 0 00-.2.193c-.114.132-.183.265-.193.405a.839.839 0 00-.01.277c.018.13.07.196.151.206a.979.979 0 00.59-.317 4.252 4.252 0 00.123-.421c.035-.153.046-.271.034-.318a.308.308 0 00-.052-.065zM30.23 26.806c.005-.033.01-.065.018-.1l.161-.68.001-.004a.15.15 0 00-.005-.066c-.02-.06-.108-.085-.365-.007a1.14 1.14 0 00-.205.195.974.974 0 00-.212.462.81.81 0 00-.027.273c.009.106.043.166.128.195l-.005-.003c.092.024.255-.032.498-.274l.013.013v-.004zm-.58.527l-.03-.01c-.187-.06-.278-.218-.295-.421a1.068 1.068 0 01.033-.355c.037-.217.131-.408.266-.573.104-.128.21-.215.283-.262l.032-.015c.396-.124.644-.054.723.17a.409.409 0 01.018.189l-.005.029-.162.682a1.34 1.34 0 000 .454l-.267.05a1.342 1.342 0 01-.016-.124c-.23.177-.426.226-.58.186zM32.777 26.941c.046-.05.059-.096.057-.125l.001-.032c.005-.032-.06-.102-.19-.173a1.524 1.524 0 00-.25-.11c-.154-.07-.237-.19-.245-.334a.646.646 0 01.126-.379.556.556 0 01.369-.186.898.898 0 01.397.058c.063.023.112.046.142.063l-.133.235a.75.75 0 00-.102-.044.638.638 0 00-.276-.043.282.282 0 00-.185.085.428.428 0 00-.034.06.296.296 0 00-.033.135c.003.044.024.075.074.098l.09.034c.065.027.13.057.193.092.215.119.347.256.328.434a.444.444 0 01-.13.316c-.105.114-.27.196-.506.24a.926.926 0 01-.346-.024.543.543 0 01-.27-.16l.204-.18a.279.279 0 00.139.079c.071.02.151.024.22.018h.012c.173-.033.284-.088.348-.157zM36.782 26.91c.057-.105.125-.232.2-.376l.013-.025a107.526 107.526 0 00.369-.706l.034-.067.242.124-.035.066a120.269 120.269 0 01-.369.709l-.013.025c-.174.33-.303.57-.365.673-.04.089-.119.217-.236.345a1.159 1.159 0 01-.328.256l-.124-.24a.892.892 0 00.25-.198 1.28 1.28 0 00.166-.228l-.03.004-.2-1.515.27-.036.156 1.19zM40.924 27.158l-.051.266a.317.317 0 01-.167-.098c-.12-.128-.163-.339-.103-.642l.333-1.677.266.052-.333 1.677c-.043.224-.019.347.035.404.014.014.023.019.02.018zM42.682 25.672l.265.06-.37 1.597-.265-.06zM44.94 26.939c.046-.05.059-.097.057-.126l.001-.032c.005-.032-.06-.102-.19-.173a1.524 1.524 0 00-.25-.11c-.154-.07-.237-.19-.245-.334a.647.647 0 01.126-.379.555.555 0 01.369-.186.898.898 0 01.397.058c.063.023.112.046.142.063l-.133.235a.75.75 0 00-.102-.044.638.638 0 00-.276-.043.282.282 0 00-.185.085.428.428 0 00-.034.06.296.296 0 00-.033.135c.003.044.024.075.074.098l.09.034c.065.027.13.057.193.092.215.12.347.256.328.434a.444.444 0 01-.13.316c-.106.114-.27.197-.506.24a.927.927 0 01-.346-.025.544.544 0 01-.27-.16L44.22 27a.28.28 0 00.138.078c.072.02.152.024.221.019h.012c.173-.033.284-.09.347-.157zM47.274 25.665l.277.005-.005.27-.345-.006a17.3 17.3 0 00-.089.351 6.184 6.184 0 00-.124.636.408.408 0 00-.002.119c.014.087.052.11.225.056l.082.258c-.33.103-.536-.02-.575-.273a.666.666 0 01.008-.233c.02-.163.062-.375.122-.625a14.272 14.272 0 01.073-.295l-.152-.003.005-.27.22.004a21.155 21.155 0 01.106-.37l.26.077a15.215 15.215 0 00-.086.299zM49.55 25.918c-.103-.007-.205.044-.3.14a.753.753 0 00-.119.151l-.017.024a.505.505 0 00-.104.287c-.011.112-.005.236.013.355.007.047.014.08.01.076.045.103.106.136.204.126a.63.63 0 00.214-.07c.056-.029.1-.057.11-.063a.82.82 0 00.165-.252c.039-.084.07-.176.094-.268.015-.055.024-.097.026-.103.01-.208-.045-.316-.14-.368a.282.282 0 00-.139-.035h-.016zm.287-.202c.19.104.296.31.279.634-.006.03-.016.08-.033.143-.028.106-.064.211-.109.31a1.068 1.068 0 01-.237.346 1.175 1.175 0 01-.163.099.887.887 0 01-.31.098c-.212.02-.387-.072-.487-.31a1.703 1.703 0 01-.037-.543.768.768 0 01.161-.428 1.03 1.03 0 01.156-.197c.144-.145.312-.23.504-.22a.544.544 0 01.276.068z"/></g></g></svg>