<?xml version="1.0" encoding="UTF-8"?><svg width="56" height="36" viewBox="0 0 56 36" xmlns="http://www.w3.org/2000/svg"><g fill="none" fill-rule="evenodd"><path d="M0 3.75A3.749 3.749 0 013.75 0h48.5A3.756 3.756 0 0156 3.75v28.5A3.749 3.749 0 0152.25 36H3.75A3.756 3.756 0 010 32.25V3.75z" fill="#000" fill-rule="nonzero"/><path d="M1.25 3.75v28.5c0 1.375 1.123 2.5 2.5 2.5h48.5c1.382 0 2.5-1.118 2.5-2.5V3.75c0-1.375-1.123-2.5-2.5-2.5H3.75a2.499 2.499 0 00-2.5 2.5z" fill="#FFF"/><g fill-rule="nonzero"><path fill="#231F20" d="M49.05 11.618h3.701V11h.207v1.453h-.207v-.623h-3.7zM50.35 14.15h-1.3v-.21h1.295c.33 0 .486-.158.486-.483v-.423h-1.78v-.212h3.909v.7c0 .417-.218.623-.637.623h-.764c-.374 0-.536-.152-.62-.38-.063.238-.23.386-.588.386zm2.401-.633v-.483h-1.713v.423c0 .32.162.477.485.477h.81c.279 0 .418-.136.418-.417zM49.05 16.195v-.2l.832-.141v-.906l-.832-.136v-.206l3.925.684v.215l-3.925.69zm1.04-1.21v.829l2.48-.418-2.48-.41zM49.05 17.871l3.366-1.041-2.668.021h-.698v-.198h3.91v.217l-3.372 1.036 2.674-.016h.698v.2h-3.91zM50.25 19.991h-.608c-.409 0-.62-.211-.62-.623v-.12c0-.412.213-.623.615-.623h.792v.211h-.798c-.268 0-.402.141-.402.418v.103c0 .282.134.423.402.423h.609c.24 0 .357-.07.49-.244l.464-.586c.182-.239.374-.32.676-.32h.496c.409 0 .62.206.62.624v.103c0 .412-.212.623-.614.623h-.676v-.211h.682c.268 0 .402-.136.402-.418v-.092c0-.277-.136-.418-.402-.418h-.5c-.234 0-.352.07-.491.244l-.458.586c-.187.233-.366.32-.679.32zM52.958 21.591h-.207v-.857h-1.607v.83h-.207v-.83H49.05v-.211h3.91zM52.958 23.137h-.207v-.88h-1.607v.852h-.207v-.851h-1.682v.89h-.206v-1.101h3.909zM50.35 24.991h-1.3v-.212h1.295c.33 0 .486-.157.486-.483v-.422h-1.78v-.212h3.909v.7c0 .417-.218.623-.637.623h-.764c-.374 0-.536-.151-.62-.38-.063.24-.23.386-.588.386zm2.401-.634v-.483h-1.713v.423c0 .32.162.477.485.477h.81c.279 0 .418-.135.418-.417z"/><path fill="#66C18F" d="M47.243 24.991v-8.685l-3.39 8.685z"/><path d="M46.38 11.486c-.227-.314-.607-.486-1.072-.486h-3.93l-5.246 13.991h4.091c.941 0 1.968-.706 2.29-1.575l3.974-10.738c.165-.446.127-.869-.107-1.192zM40.54 23.42h-1.847l4.052-10.85h1.825l-.911 2.454-3.12 8.396zM14.58 12.68c.173-.441.143-.877-.084-1.196-.226-.319-.598-.484-1.061-.484H9.551L4 24.991h1.976l2.176-5.504h1.003l-1.068 5.504h2.028l1.021-5.716c.644-.284 1.176-.808 1.4-1.381l2.044-5.214zm-1.923-.088l-2.12 5.386H8.748l2.13-5.388 1.779.002zM36.03 11l-5.288 13.991h1.974L37.984 11zM23.44 11.486c-.223-.312-.601-.486-1.065-.486h-2.333c-.93 0-1.96.707-2.3 1.573l-4.85 12.418h1.977l2.141-5.504h1.905l-2.131 5.504h1.997l4.749-12.313c.17-.44.137-.875-.09-1.192zm-1.85 1.084l-2.067 5.347H17.62l2.08-5.344 1.89-.003zM32.217 11.486c-.224-.314-.603-.486-1.067-.486h-3.773L22 24.991h1.975l1.67-4.363h1.953c.937 0 1.967-.707 2.297-1.574l2.42-6.376c.168-.446.134-.87-.098-1.192zM30.39 12.59l-2.44 6.404h-1.677l2.448-6.404h1.67z" fill="#231F20"/></g></g></svg>