<?xml version="1.0" encoding="UTF-8"?><svg width="56" height="36" viewBox="0 0 56 36" xmlns="http://www.w3.org/2000/svg"><g fill="none" fill-rule="evenodd"><path d="M0 3.75A3.749 3.749 0 013.75 0h48.5A3.756 3.756 0 0156 3.75v28.5A3.749 3.749 0 0152.25 36H3.75A3.756 3.756 0 010 32.25V3.75z" fill="#000" fill-rule="nonzero"/><path d="M1.25 3.75v28.5c0 1.375 1.123 2.5 2.5 2.5h48.5c1.382 0 2.5-1.118 2.5-2.5V3.75c0-1.375-1.123-2.5-2.5-2.5H3.75a2.499 2.499 0 00-2.5 2.5z" fill="#FFF"/><g fill-rule="nonzero"><path fill="#FFF" d="M3.233 12.044h50.534v11.911H3.233z"/><g fill="#054EA9"><path d="M29.477 20.34c0 .339.311.507.622.507.916 0 1.2-.647 1.392-1.426h-.43c-.595 0-1.584.104-1.584.92zM41.912 17.685c-.97 0-1.456 1.098-1.456 1.97 0 .639.256 1.136.962 1.136.951 0 1.428-1.126 1.428-1.951 0-.63-.21-1.155-.934-1.155z"/><path d="M4.623 15.392v7.453h17.832l1.088-5.394c.045-.235.082-.422.1-.629h1.163l-.137.638h.018c.358-.516.797-.75 1.42-.75 1.171 0 1.73.816 1.73 1.96 0 1.512-.814 3.097-2.454 3.097-.54 0-1.098-.188-1.3-.863h-.018l-.386 1.94h9.743l.14-.458c.485.207.952.376 1.483.376 1.3 0 1.492-.93 1.785-2.027h-.018c-.312.582-.907.92-1.584.92-1.145 0-1.64-.985-1.64-2.046 0-1.445.862-2.9 2.39-2.9.623 0 1.145.31 1.438.817l.137-.704h1.181a11.01 11.01 0 00-.155.676l-.752 3.63c-.133.695-.345 1.275-.678 1.717h15.228v-7.453H4.623zm27.582 6.262h-1.034l.127-.74h-.018c-.42.543-.842.853-1.52.853-.851 0-1.455-.488-1.455-1.38 0-1.594 1.739-1.716 2.893-1.716h.43c.037-.132.037-.273.037-.414 0-.487-.514-.628-.944-.628-.54 0-1.062.141-1.547.375l.174-1.003a4.697 4.697 0 011.602-.291c.943 0 1.831.356 1.831 1.492.001.647-.466 2.542-.576 3.452zm9.112.113c-1.337 0-2.142-.845-2.142-2.206 0-1.613 1.209-2.852 2.792-2.852 1.273 0 2.161.788 2.161 2.121 0 1.698-1.144 2.937-2.81 2.937zm6.859-3.913c-.32-.122-.66-.225-1.007-.225-.366 0-.824.103-.824.488 0 .61 1.593.835 1.593 2.017 0 1.257-1.071 1.633-2.124 1.633-.494 0-.989-.075-1.437-.291l.265-1.004c.349.197.696.375 1.172.375.412 0 .842-.14.842-.534 0-.779-1.593-.854-1.593-2.065 0-1.135 1.072-1.539 2.042-1.539.449 0 .906.085 1.337.197l-.266.948z"/><path d="M34.87 19.6c0 .581.23 1.079.78 1.079.978 0 1.381-1.06 1.381-1.98 0-.563-.32-1.014-.888-1.014-.888 0-1.272 1.192-1.272 1.914zM25.2 20.79c1.025 0 1.355-1.312 1.355-2.072 0-.592-.293-1.033-.86-1.033-.834 0-1.301 1.126-1.301 1.97 0 .62.21 1.136.806 1.136z"/></g><g fill="#A8C701"><path d="M52.377 13.228H4.623v2.164h16.93l-.429 2.002c-.384-.45-.851-.685-1.456-.685-1.602 0-2.37 1.605-2.37 3.05 0 1.05.503 2.008 1.62 2.008.714 0 1.172-.3 1.538-.826h.019l-.12.713H21.5c.027-.244.1-.657.174-1.07l1.107-5.193h29.596v-2.163zM19.33 20.791c-.604 0-.75-.657-.75-1.145 0-.722.411-1.96 1.29-1.96.623 0 .888.581.888 1.144 0 .891-.53 1.96-1.428 1.96z"/><path d="M11.83 16.71c-.568 0-1.172.497-1.392 1.022h-.018l.165-.91H9.412c-.036.225-.072.44-.11.648l-.841 4.184h1.226l.44-2.167c.155-.779.577-1.577 1.446-1.577.156 0 .33.029.467.075l.257-1.228a1.923 1.923 0 00-.467-.047zM14.806 16.71c-1.547 0-2.683 1.445-2.683 2.945 0 1.436.916 2.112 2.27 2.112.504 0 1.027-.122 1.502-.272l.156-.994a3.39 3.39 0 01-1.446.346c-.843 0-1.31-.328-1.31-1.22h3.324c.073-.356.119-.713.119-1.079 0-1.229-.77-1.838-1.932-1.838zm.732 2.054H13.46c.238-.665.567-1.135 1.328-1.135.512 0 .778.291.778.807 0 .113-.01.216-.028.328z"/></g></g></g></svg>