<?xml version="1.0" encoding="UTF-8"?><svg width="56" height="36" viewBox="0 0 56 36" xmlns="http://www.w3.org/2000/svg"><g fill="none" fill-rule="evenodd"><path d="M0 3.75A3.749 3.749 0 013.75 0h48.5A3.756 3.756 0 0156 3.75v28.5A3.749 3.749 0 0152.25 36H3.75A3.756 3.756 0 010 32.25V3.75z" fill="#000" fill-rule="nonzero"/><path d="M1.25 3.75v28.5c0 1.375 1.123 2.5 2.5 2.5h48.5c1.382 0 2.5-1.118 2.5-2.5V3.75c0-1.375-1.123-2.5-2.5-2.5H3.75a2.499 2.499 0 00-2.5 2.5z" fill="#FFF"/><g><path fill="#019D41" d="M5 8h46v20H5z"/><path d="M48.961 10.891c.834.478.743 1.912-.166 2.559-.349.257-.978.368-1.425.257-.629-.154-.917-.544-.917-1.257 0-.794.402-1.36 1.152-1.625.47-.162 1-.132 1.356.066zM14.928 12.372c.44.051.977.14 1.19.183l.4.089-.045.301c-.06.427-.37 1.574-.515 1.897l-.114.272-.666-.132c-.97-.199-2.183-.316-2.676-.272-.894.073-1.364.53-1.364 1.301 0 .67.266.963 1.493 1.655 1.705.963 2.213 1.39 2.63 2.242.197.412.235.581.258 1.22.015.405-.008.92-.053 1.14-.304 1.405-1.5 2.53-3.19 3.015-.44.125-.842.162-1.79.191-1.371.045-2.31-.066-3.349-.382-.69-.213-.652-.11-.379-1.03.137-.455.569-1.58.63-1.639.014-.015.264.059.56.162 1.387.485 3.16.632 3.797.316.409-.199.606-.449.69-.868.143-.772-.243-1.257-1.6-2.014-1.212-.677-1.788-1.11-2.182-1.618-.978-1.287-.804-3.39.379-4.632 1.19-1.243 3.289-1.743 5.896-1.397zM23.4 14.713c-1.19-.243-2.387-.096-3.425.412-.63.308-1.516 1.183-1.88 1.867-.81 1.493-1.205 3.794-.902 5.213.304 1.398 1.289 2.346 2.774 2.648 1.076.22 3.1.088 4.312-.287l.538-.162-.023-.735c-.03-.72-.128-1.706-.181-1.758-.016-.014-.296.067-.63.177a6.346 6.346 0 01-2.462.367c-.91-.036-1.22-.154-1.47-.573-.152-.25-.205-1.059-.092-1.25.038-.059.887-.08 2.85-.08h2.789l.12-.5c.744-3.052-.052-4.89-2.318-5.34zm-1.273 1.89c.859-.098 1.238.662 1.137 2.28H20.308c.162-.785.313-1.275.455-1.471.19-.272.53-.81 1.364-.81zM34.328 14.706c.098.11-.5 2.53-.667 2.684-.03.03-.296.015-.591-.022-.606-.088-1.41.03-2.016.294l-.326.14-.599 3.338a394.483 394.483 0 01-.629 3.508c-.037.161-.053.161-1.394.161H26.75l.045-.272c.023-.154.424-2.375.887-4.941l.848-4.67.228-.058c.129-.03.75-.08 1.387-.103l1.16-.051-.039.176c-.106.478-.197.963-.197 1.037 0 .044.228-.132.516-.397.5-.47.97-.765 1.417-.875.28-.074 1.242-.037 1.326.051z" fill="#FFF" fill-rule="nonzero"/><path d="M38.291 17.839c.197 1.713.372 3.338.402 3.61l.045.5.205-.574c.114-.316.864-1.94 1.675-3.61l1.47-3.03.69.008c.727 0 1.834.096 1.902.162.166.154-2.478 5.404-4.441 8.816l-.622 1.088h-2.925l-.31-1.566c-.364-1.845-.554-2.978-.758-4.573-.19-1.471-.402-3.721-.356-3.772.06-.052 1.159-.14 1.947-.155l.72-.007.356 3.103z" fill="#FEDA1D" fill-rule="nonzero"/><path d="M48.878 14.839c0 .051-1.743 9.64-1.78 9.801-.039.17-.054.17-1.403.17h-1.364l.038-.17c.045-.176 1.78-9.735 1.78-9.794 0-.022.615-.037 1.365-.037s1.364.015 1.364.03z" fill="#FFF" fill-rule="nonzero"/><g fill="#FEDA1D"><path d="M18.414 10.574h2.046c.96.44.985 1.029.075 1.764l.53 1.397H19.93l-.455-1.103h-.378l-.304 1.103h-.985l.607-3.161zm.909.661l-.152.662h.455c.227 0 .682-.368.227-.662h-.53z"/><path fill-rule="nonzero" d="M23.87 10.5h2.576l-.151.735h-1.667l-.076.441h1.364l-.076.736h-1.364l-.076.514h1.516l-.152.81h-2.576z"/><path d="M28.796 10.5h2.122c2.046.882.454 3.015-.758 3.235h-1.97l.606-3.235zm.91.662L29.401 13h.606c.682-.074 1.137-1.47.303-1.838h-.606z"/></g></g></g></svg>