<?xml version="1.0" encoding="UTF-8"?><svg width="56" height="36" viewBox="0 0 56 36" xmlns="http://www.w3.org/2000/svg"><g fill="none" fill-rule="evenodd"><path d="M0 3.75A3.749 3.749 0 013.75 0h48.5A3.756 3.756 0 0156 3.75v28.5A3.749 3.749 0 0152.25 36H3.75A3.756 3.756 0 010 32.25V3.75z" fill="#000" fill-rule="nonzero"/><path d="M1.25 3.75v28.5c0 1.375 1.123 2.5 2.5 2.5h48.5c1.382 0 2.5-1.118 2.5-2.5V3.75c0-1.375-1.123-2.5-2.5-2.5H3.75a2.499 2.499 0 00-2.5 2.5z" fill="#FFF"/><g><path fill="#D8232A" d="M3 13h24.033l-2.801 10.055H3V13"/><path fill="#292D78" d="M52.839 13l-2.837 10.055h-25.77L27.033 13H52.84"/><path d="M30.638 17.774c.054-.33.076-.61.064-.845a1.766 1.766 0 00-.113-.58.883.883 0 00-.575-.546 1.251 1.251 0 00-.375-.053 1.709 1.709 0 00-.715.154c-.23.102-.448.262-.65.476a3.428 3.428 0 00-.565.832c-.172.339-.32.744-.45 1.218s-.205.885-.223 1.228c-.018.347.014.63.096.851.08.223.205.39.374.494.167.107.372.16.613.16a1.85 1.85 0 00.609-.093c.199-.065.39-.178.577-.34a2.77 2.77 0 00.535-.679c.172-.29.335-.658.49-1.103h-.857c-.072.212-.16.395-.261.548a1.345 1.345 0 01-.338.357.65.65 0 01-.368.127c-.172 0-.302-.062-.39-.182-.09-.12-.133-.298-.134-.528-.001-.23.042-.51.131-.84.09-.33.197-.608.322-.835a1.63 1.63 0 01.414-.519.771.771 0 01.483-.178.467.467 0 01.283.079c.076.056.128.147.16.275.032.128.033.302.01.522h.853zm.106.656c-.123.474-.19.885-.2 1.228-.012.347.028.63.12.851a.97.97 0 00.402.494c.179.107.395.16.648.16.252 0 .496-.053.727-.16.233-.105.452-.271.655-.494.204-.22.388-.504.553-.85.167-.344.308-.755.429-1.23.115-.472.177-.878.182-1.216.007-.34-.037-.617-.13-.833a.962.962 0 00-.4-.476 1.218 1.218 0 00-.636-.154 1.706 1.706 0 00-.715.154 2.036 2.036 0 00-.644.476 3.356 3.356 0 00-.554.833 6.479 6.479 0 00-.437 1.217zm.857 0c.085-.33.189-.608.31-.835.122-.228.26-.401.409-.519a.768.768 0 01.482-.178c.17 0 .3.06.389.178.091.118.137.291.143.52.007.226-.032.504-.115.834a3.75 3.75 0 01-.308.84c-.122.23-.257.408-.41.528a.764.764 0 01-.485.182.462.462 0 01-.395-.182c-.09-.12-.138-.297-.141-.528a3.23 3.23 0 01.12-.84zm6.256 2.54h.835l.397-1.724.393-1.706c.075-.327.11-.602.105-.824a1.274 1.274 0 00-.1-.534.619.619 0 00-.25-.29.686.686 0 00-.348-.086 1.076 1.076 0 00-.658.245 2.55 2.55 0 00-.595.69 1.598 1.598 0 00-.057-.495.633.633 0 00-.203-.323.595.595 0 00-.381-.117.995.995 0 00-.358.074c-.12.05-.232.113-.342.195a2.121 2.121 0 00-.528.581h-.009l.177-.72h-.795l-.617 2.494-.629 2.541h.838l.337-1.38.334-1.368c.049-.196.108-.368.174-.513a1.67 1.67 0 01.224-.36.922.922 0 01.253-.215.554.554 0 01.264-.07.351.351 0 01.166.039.314.314 0 01.126.138c.033.064.05.153.054.263.003.112-.017.25-.055.418l-.364 1.517-.368 1.531h.835l.328-1.38.324-1.368c.047-.196.105-.368.172-.513.066-.144.14-.266.22-.36a.878.878 0 01.249-.215.528.528 0 01.256-.07.38.38 0 01.173.039.326.326 0 01.13.138.607.607 0 01.055.263c.005.112-.012.25-.052.418l-.353 1.516-.357 1.531zm2.78-2.512c.054-.24.123-.45.205-.63.082-.18.173-.333.271-.453.099-.122.201-.212.308-.274a.638.638 0 01.314-.091.45.45 0 01.278.091c.08.062.142.152.187.274.047.12.07.272.071.453.001.18-.025.39-.076.63a3.43 3.43 0 01-.202.633 2.055 2.055 0 01-.273.46c-.1.123-.202.215-.31.278a.641.641 0 01-.322.093.437.437 0 01-.277-.093.604.604 0 01-.186-.278 1.4 1.4 0 01-.067-.46c0-.18.025-.393.08-.633zm-1.812 4.43h.844l.281-1.25.279-1.24h.009c.02.154.062.288.13.401a.722.722 0 00.272.268.849.849 0 00.404.095c.203-.001.406-.067.605-.196.2-.13.391-.315.571-.557.181-.24.345-.528.487-.863a6.01 6.01 0 00.35-1.116c.096-.44.14-.826.138-1.153-.004-.33-.047-.601-.131-.82a1.061 1.061 0 00-.354-.487.887.887 0 00-.535-.164.909.909 0 00-.338.06 1.133 1.133 0 00-.358.24 3.124 3.124 0 00-.417.504h-.008l.151-.674h-.794l-.783 3.432-.803 3.52zm4.135-1.918h.835l.233-1.1.232-1.092c.069-.328.16-.606.267-.835.108-.229.238-.404.387-.526a.786.786 0 01.503-.184c.076 0 .15.016.219.044.07.026.138.063.205.105l.317-1.53a.525.525 0 00-.143-.037c-.05-.006-.1-.009-.147-.009a.797.797 0 00-.323.065c-.102.044-.2.11-.294.2a2.55 2.55 0 00-.293.343c-.1.14-.206.304-.322.494h-.009c.07-.325.138-.649.206-.972h-.792l-.536 2.494-.545 2.54zm5.035-2.06c-.034.17-.081.323-.143.456-.06.136-.13.254-.21.354-.079.101-.164.184-.253.25a1.042 1.042 0 01-.27.15.776.776 0 01-.264.05.397.397 0 01-.258-.085.405.405 0 01-.135-.24.972.972 0 01.011-.387c.03-.15.074-.27.124-.362a.553.553 0 01.45-.299l.498-.085c.085-.012.172-.033.26-.062a.913.913 0 00.272-.154l-.082.414zm-1.04-1.453c.063-.17.126-.307.185-.407.059-.1.12-.175.181-.224a.488.488 0 01.199-.095c.07-.013.148-.02.236-.018.158 0 .281.022.368.065.084.042.14.11.163.198a.706.706 0 01-.003.331 1.283 1.283 0 01-.093.306.35.35 0 01-.137.156.572.572 0 01-.212.062l-.902.121a1.712 1.712 0 00-.316.069 1.288 1.288 0 00-.608.427 1.89 1.89 0 00-.25.43 3.25 3.25 0 00-.19.627c-.061.296-.085.549-.074.76.012.21.053.38.127.513.073.132.172.23.297.292.126.062.271.092.438.092a1.545 1.545 0 00.663-.153c.118-.056.236-.13.354-.226.115-.096.222-.214.322-.357-.013.09-.026.181-.034.272-.008.091-.012.182-.016.272h.84a2.961 2.961 0 01.014-.443c.017-.168.047-.365.088-.586l.245-1.257.243-1.245c.039-.188.06-.366.07-.534a1.638 1.638 0 00-.039-.464.864.864 0 00-.181-.364.866.866 0 00-.364-.24 1.708 1.708 0 00-.583-.087c-.135-.002-.27.01-.406.032-.14.021-.274.065-.407.128-.134.065-.26.157-.386.284-.122.125-.238.29-.345.496-.105.205-.2.461-.283.767h.797zM13.193 15.443h1.412c.069 0 .133.01.194.036.061.026.11.072.149.134.04.064.058.151.06.262 0 .11-.023.251-.075.42-.05.16-.109.296-.174.408a1.21 1.21 0 01-.208.27.756.756 0 01-.217.15.507.507 0 01-.202.045h-1.47l.531-1.725zm-1.342.761H3v.83h8.594l-.143.462L3 17.49v.835h8.194l-.142.461H3v.83h7.795l-.171.554H3.003l-.001.83h8.478l.83-2.526h1.33c.086 0 .16.017.221.054.06.036.104.097.13.187a.98.98 0 01.008.369 3.64 3.64 0 01-.138.594c-.056.18-.102.334-.14.466a6.83 6.83 0 00-.093.346c-.023.1-.04.19-.05.27a1.66 1.66 0 00-.014.24h1.218c-.02-.09-.026-.2-.014-.332.012-.132.034-.273.064-.42a9.869 9.869 0 01.194-.744c.043-.136.084-.281.124-.438.04-.156.07-.31.095-.463.025-.155.036-.299.035-.43a.845.845 0 00-.062-.331.296.296 0 00-.19-.175l.005-.02c.273-.14.505-.344.695-.617a3.69 3.69 0 00.473-1.033c.044-.142.082-.295.113-.46.03-.167.043-.331.04-.496a1.207 1.207 0 00-.09-.45.696.696 0 00-.283-.323c-.13-.082-.306-.126-.531-.127h-2.962l-.637 2.062zm6.53 3.254c-.14.221-.298.39-.474.504a1.024 1.024 0 01-.569.17.638.638 0 01-.407-.125.65.65 0 01-.212-.311 1.156 1.156 0 01-.055-.405c.005-.144.027-.277.065-.402l.006-.02h2.958l.047-.153c.196-.65.29-1.202.284-1.658-.006-.455-.118-.803-.337-1.042-.22-.24-.549-.36-.99-.362a2.426 2.426 0 00-.877.159c-.279.106-.543.27-.788.493-.248.224-.472.51-.675.86-.203.349-.38.766-.528 1.252-.148.483-.226.903-.236 1.253-.01.352.04.64.15.863.111.226.274.393.49.5.216.107.476.16.783.16.308 0 .607-.059.896-.179a2.59 2.59 0 00.824-.562c.26-.258.502-.589.723-.995H18.38zm-1.342-1.588c.002-.006.005-.013.006-.02.008-.026.032-.082.074-.166.043-.086.1-.182.174-.29.073-.11.164-.216.268-.32.104-.104.222-.19.356-.26a.94.94 0 01.437-.107c.146 0 .265.031.355.091.09.06.156.137.2.231a.92.92 0 01.085.298c.012.106.013.205.005.298a1.083 1.083 0 01-.042.226l-.005.019h-1.913zm4.198.576c.073-.245.164-.461.27-.647.107-.186.223-.34.348-.466a1.4 1.4 0 01.387-.282.909.909 0 01.392-.094c.126 0 .238.03.332.094a.594.594 0 01.216.282c.05.125.073.28.068.466a2.546 2.546 0 01-.117.647 3.092 3.092 0 01-.27.647 2.198 2.198 0 01-.347.469c-.126.125-.254.219-.386.282a.9.9 0 01-.39.095.592.592 0 01-.336-.095.584.584 0 01-.219-.282 1.196 1.196 0 01-.066-.47c.005-.184.044-.4.118-.646zm1.132 2.555h.979l1.042-3.496 1.036-3.478H24.42l-.366 1.224-.366 1.226h-.012a.886.886 0 00-.146-.403.777.777 0 00-.318-.267 1.135 1.135 0 00-.485-.096c-.244 0-.489.067-.734.196a2.75 2.75 0 00-.71.558 4.35 4.35 0 00-.624.872c-.189.339-.35.718-.475 1.138-.135.45-.209.844-.224 1.185-.014.339.022.622.11.85.088.227.218.398.391.512.174.114.38.171.621.172.154 0 .309-.02.469-.069.158-.048.322-.135.488-.257.167-.123.337-.293.512-.514h.012l-.194.647z" fill="#FFFFFE"/></g></g></svg>