<?xml version="1.0" encoding="UTF-8"?><svg width="56" height="36" viewBox="0 0 56 36" xmlns="http://www.w3.org/2000/svg"><g fill="none" fill-rule="evenodd"><path d="M0 3.75A3.749 3.749 0 013.75 0h48.5A3.756 3.756 0 0156 3.75v28.5A3.749 3.749 0 0152.25 36H3.75A3.756 3.756 0 010 32.25V3.75z" fill="#000" fill-rule="nonzero"/><path d="M1.25 3.75v28.5c0 1.375 1.123 2.5 2.5 2.5h48.5c1.382 0 2.5-1.118 2.5-2.5V3.75c0-1.375-1.123-2.5-2.5-2.5H3.75a2.499 2.499 0 00-2.5 2.5z" fill="#FFF"/><g fill-rule="nonzero"><path fill="#E43534" d="M9 18.96h37.843v10.98H9z"/><path d="M17.369 27.468h-1.383l-.36-1.044H13.74l-.36 1.044h-1.346l1.9-5.148h1.527l1.908 5.148zm-2.06-1.98l-.626-1.814-.626 1.814h1.253zM21.569 24.688v2.758H20.33v-1.944-.483a.828.828 0 00-.079-.324.367.367 0 00-.187-.18.871.871 0 00-.353-.057.9.9 0 00-.353.072c-.106.045-.21.098-.31.158v2.758h-1.266v-3.88h1.252v.417c.192-.154.4-.287.62-.396a1.44 1.44 0 01.647-.144c.238-.005.471.055.677.172.2.12.36.294.461.504.221-.191.462-.358.72-.496.222-.119.469-.18.72-.18.36-.024.713.116.958.381.238.31.355.697.33 1.087v2.535H22.88v-1.944-.483a.828.828 0 00-.072-.324.36.36 0 00-.187-.18.893.893 0 00-.36-.057.907.907 0 00-.303.057 2.16 2.16 0 00-.36.18M30.476 25.885a1.44 1.44 0 01-.151.67 1.346 1.346 0 01-.41.49 1.9 1.9 0 01-.67.323 3.6 3.6 0 01-.922.101h-2.239v-5.148h1.994c.303-.005.606.01.908.043.198.03.39.09.568.18.182.086.335.224.44.396.21.389.191.862-.05 1.231-.14.198-.332.353-.555.447.301.051.579.198.792.417.202.227.308.525.295.828m-1.685-2.116a.576.576 0 00-.065-.26.396.396 0 00-.223-.187 1.066 1.066 0 00-.36-.065h-.72v1.088h.72a.936.936 0 00.346-.072.425.425 0 00.237-.21.72.72 0 00.058-.294m.302 2.102a.648.648 0 00-.093-.382.562.562 0 00-.317-.201 1.634 1.634 0 00-.425-.05h-.835v1.288h.886c.15-.001.3-.033.439-.093a.526.526 0 00.28-.23.72.72 0 00.08-.332M33.497 26.874l-.244.18a1.807 1.807 0 01-1.087.338c-.341.01-.672-.114-.922-.346a1.145 1.145 0 01-.367-.878 1.18 1.18 0 01.187-.72c.135-.188.32-.334.533-.425a2.96 2.96 0 01.85-.223c.338-.043.72-.08 1.05-.1a.46.46 0 00-.259-.454 1.829 1.829 0 00-.77-.123 2.16 2.16 0 00-.655.108l-.497.166H31.2v-.915c.13-.033.343-.074.64-.122a5.68 5.68 0 01.893-.072 2.75 2.75 0 011.534.331c.327.237.507.627.475 1.03v2.642h-1.246v-.417zm0-.598v-.806l-.54.057a2.376 2.376 0 00-.439.087.598.598 0 00-.28.172.44.44 0 00-.094.296.72.72 0 000 .201.295.295 0 00.1.144c.055.046.12.08.188.101.112.015.226.015.338 0a.972.972 0 00.375-.08c.12-.047.232-.115.33-.2l.022.028zM39.247 27.271h-1.26v-1.93a4.435 4.435 0 000-.468.965.965 0 00-.08-.345.403.403 0 00-.2-.187.907.907 0 00-.368-.058 1.08 1.08 0 00-.338.058 1.836 1.836 0 00-.375.18v2.757h-1.281V23.39h1.252v.425c.195-.156.408-.29.634-.396.213-.093.444-.14.677-.137.363-.021.72.112.979.367.258.304.387.697.36 1.095v2.527zM43.774 27.218h-1.44l-1.087-1.684-.339.417v1.267h-1.253V21.84h1.253v3.211l1.332-1.713h1.426l-1.383 1.677z" fill="#FDE500"/><path d="M26.136 12.832a2.16 2.16 0 11.519-1.397V16.9h3.319v-5.443a5.458 5.458 0 10-3.838 5.213v-3.838" fill="#E43534"/><path d="M31.077 16.886c.239.03.48.045.72.044a5.465 5.465 0 10-3.478-9.677c.839.85 1.4 1.935 1.613 3.11a2.16 2.16 0 111.116 3.103v3.42" fill="#E43534"/></g></g></svg>