<?xml version="1.0" encoding="UTF-8"?><svg width="56" height="36" viewBox="0 0 56 36" xmlns="http://www.w3.org/2000/svg" xmlns:xlink="http://www.w3.org/1999/xlink"><defs><linearGradient x1="16.885%" y1="0%" x2="72.937%" y2="111.836%" id="b"><stop stop-color="#EC3942" offset="0%"/><stop stop-color="#9F2127" offset="100%"/></linearGradient><path id="a" d="M.02.011h22.166V11.66H.02z"/></defs><g fill="none" fill-rule="evenodd"><path d="M0 3.75A3.749 3.749 0 013.75 0h48.5A3.756 3.756 0 0156 3.75v28.5A3.749 3.749 0 0152.25 36H3.75A3.756 3.756 0 010 32.25V3.75z" fill="#000" fill-rule="nonzero"/><path d="M1.25 3.75v28.5c0 1.375 1.123 2.5 2.5 2.5h48.5c1.382 0 2.5-1.118 2.5-2.5V3.75c0-1.375-1.123-2.5-2.5-2.5H3.75a2.499 2.499 0 00-2.5 2.5z" fill="#FFF"/><g><g transform="translate(27.521 12.056)"><mask id="c" fill="#fff"><use xlink:href="#a"/></mask><path d="M11.323 6.647c-.402.177-.717.38-1.026.607A2.493 2.493 0 009.284 8.84c-.119.606.183.931.741.84.303-.05.525-.233.752-.427.123-.105.162-.216.096-.385-.141-.365-.093-.73.008-1.102.1-.368.296-.687.442-1.119M5.132.836c-.015 1.168-.197 1.144-.418 1.671C4.258 3.6 3.716 4.643 3.17 5.681c-.052.098-.083.208-.124.313l-.209.323c.182-.022.263-.152.34-.287.85-1.062 1.701-2.122 2.546-3.188.78-.985 1.71-1.757 2.735-2.398.179-.112.332-.104.491.006.356.246.654.555.83.985.17.415.03.794-.16 1.136-.426.764-.892 1.501-1.343 2.248-.68 1.125-1.36 2.26-1.815 3.534-.085.235-.169.448-.152.704.03.446.31.647.661.432.443-.27.821-.642 1.182-1.032a.51.51 0 00.113-.275c.101-1.002.661-1.66 1.347-2.226a4.695 4.695 0 012.228-1.028c.241-.042.475-.028.7.077.324.152.386.412.173.719-.048.07-.143.135-.026.217.442.307.35.776.31 1.229-.037.417-.28.747-.395 1.13-.027.087-.163.276.036.291.152.012.408.1.447-.21.115-.908.544-1.612 1.126-2.232.385-.41.755-.834 1.19-1.185.378-.306.77-.235 1.143-.071.246.108.257.39.144.65-.214.489-.551.87-.896 1.242-.415.45-.836.891-1.294 1.29-.182.158-.296.994-.172 1.199.134.22.286.064.397-.022.439-.336.851-.71 1.22-1.138.768-.89 1.579-1.735 2.297-2.679.108-.141.242-.298.449-.247.484.12.688.176.379.77-.364.699-.731 1.395-1.086 2.099-.145.288-.268.591-.303.925-.015.145-.03.286.109.396.137.108.248.055.372-.011.442-.24.738-.669 1.09-1.025.073-.073.043-.173.034-.26-.042-.407.075-.76.28-1.09.336-.541.672-1.083 1.162-1.476.396-.317.739-.146.803.39.084.711-.236 1.267-.557 1.824-.039.067-.09.125-.128.192-.076.137-.29.267-.165.426.108.137.326.151.515.12.332-.056.564-.313.825-.508a.383.383 0 01.156-.08c.076.6-.2 1.032-.781 1.299-.473.216-.932.288-1.393-.012-.138-.09-.223-.055-.344.067-.505.508-.977 1.06-1.561 1.464-.762.528-1.376.19-1.452-.81-.023-.295-.004-.593-.004-.948-.278.212-.459.468-.655.7-.212.248-.444.47-.67.7-.71.722-1.539.277-1.921-.368-.022-.038-.057-.074-.064-.115-.08-.46-.313-.537-.664-.333-.027.016-.06.03-.089.027-.752-.079-1.168.614-1.747.931-1.096.6-1.977.453-2.46-.974-.011-.032-.026-.062-.055-.132-.366.388-.7.79-1.08 1.137-.484.44-.978.856-1.586 1.076-.752.273-1.213-.28-1.274-1.045-.066-.821.206-1.568.54-2.273.754-1.59 1.535-3.166 2.307-4.746.049-.1.143-.219.056-.303-.11-.106-.183.066-.245.13A52.29 52.29 0 004.63 6.016c-1.176 1.4-2.138 2.988-3.173 4.51-.276.407-.394.433-.792.172a2.194 2.194 0 01-.255-.189c-.479-.425-.495-.525-.178-1.1a65.104 65.104 0 002.802-5.687c.155-.357.322-.723.34-1.131.018-.395-.114-.513-.452-.384-.514.195-.91.611-1.353.936-.215.157-.42.333-.635.487-.357.255-.486.19-.581-.305.497.121.691-.33.957-.629.671-.752 1.277-1.576 2.04-2.225.144-.122.416-.395.589-.388 0 0 1.206-.415 1.192.753" fill="url(#b)" mask="url(#c)"/></g><path d="M17.12 18.814c-.185.01-.392-.033-.549.047-.187.095-.062.353-.102.536-.142.662-.17 1.345-.278 2.015-.104.649-.489.959-.962 1.206-.44.23-.915.098-1.374.125-.11.007-.147-.033-.127-.185.158-1.238.305-2.477.448-3.717.113-.98.212-1.961.325-2.94.09-.79.146-1.59.305-2.362.15-.726.889-1.346 1.652-1.171.36.083.708.665.708 1.163 0 .663-.133 1.31-.207 1.964-.074.652-.188 1.298-.276 1.947-.02.151.033.269.202.268.29-.003.58-.005.87 0 .15.003.198-.102.213-.234.088-.767.168-1.534.257-2.3.059-.508.103-1.02.2-1.518.152-.779 1.063-1.358 1.761-1.156.43.125.773.84.7 1.456-.122 1.002-.244 2.004-.363 3.007-.188 1.587-.373 3.175-.56 4.762-.1.851-.954 1.202-1.537 1.054-.563-.142-.936-.503-.936-.968 0-.451.087-.902.13-1.353.04-.43.063-.864.112-1.293.03-.273-.052-.381-.3-.342-.102.016-.208.002-.311.002v-.013M10.862 14.069c-.305.014-.51.196-.573.514-.173.882-.253 1.781-.316 2.68-.03.43.316.677.664.531.243-.101.387-.306.423-.585.108-.836.214-1.672.304-2.51.04-.37-.183-.627-.502-.63m2.038-1.381c.395.298.653.674.723 1.197.106.795.086 1.587-.107 2.365-.217.87-.598 1.618-1.359 2.034-.273.149-.249.29-.1.516.372.566.749 1.129.969 1.795.227.692-.028 1.257-.41 1.77a.878.878 0 01-.304.271c-.614.302-.864.22-1.241-.44-.454-.793-.911-1.585-1.364-2.38-.044-.076-.065-.182-.172-.156-.118.029-.061.148-.077.228-.143.707-.161 1.44-.357 2.136-.122.435-.388.702-.797.718-.373.015-.746 0-1.118.006-.164.003-.202-.048-.18-.24.105-.924.253-1.839.383-2.757.121-.863.192-1.737.34-2.594.158-.91.129-1.86.466-2.729.313-.808.551-1.195 1.452-1.794 1.197-.767 2.857-.245 3.253.054M24.263 16.949c.359-.002.657-.202.716-.517.111-.602.204-1.208.302-1.812.038-.233-.05-.423-.24-.5-.377-.15-.947-.041-1.034.568-.074.516-.164 1.03-.256 1.543-.087.484.076.72.512.718m-.103.918a.708.708 0 00-.687.608c-.103.672-.233 1.34-.292 2.02-.039.456.075.658.422.717.344.057.723-.204.778-.552.112-.706.222-1.413.318-2.121.057-.423-.157-.674-.54-.672m-1.485 4.879h-1.709c-.168.001-.248-.006-.209-.267.285-1.913.55-3.83.806-5.748.083-.617.123-1.242.308-1.836.346-1.113 1.077-1.819 2.03-2.257.364-.166.74-.293 1.155-.286 1.15.021 1.999.638 2.366 1.843.21.69-.01 1.344-.295 1.959-.14.3-.29.597-.499.851-.175.214-.179.437-.052.69.24.484.387 1.012.398 1.558.025 1.19-.482 2.1-1.299 2.83-.552.493-1.161.745-1.883.67-.369-.039-.745-.007-1.117-.007" fill="#0068B3"/></g></g></svg>