<?xml version="1.0" encoding="UTF-8"?><svg width="56" height="36" viewBox="0 0 56 36" xmlns="http://www.w3.org/2000/svg"><g fill="none" fill-rule="evenodd"><path d="M0 3.75A3.749 3.749 0 013.75 0h48.5A3.756 3.756 0 0156 3.75v28.5A3.749 3.749 0 0152.25 36H3.75A3.756 3.756 0 010 32.25V3.75z" fill="#000" fill-rule="nonzero"/><path d="M1.25 3.75v28.5c0 1.375 1.123 2.5 2.5 2.5h48.5c1.382 0 2.5-1.118 2.5-2.5V3.75c0-1.375-1.123-2.5-2.5-2.5H3.75a2.499 2.499 0 00-2.5 2.5z" fill="#FFF"/><g transform="translate(15 5)" fill-rule="nonzero"><circle fill="#00AAC4" cx="13.466" cy="13.503" r="13.393"/><path d="M17.833 11.411c.073.514.55.844 1.064.771.513-.073.844-.55.77-1.064-.073-.514-.587-.844-1.1-.77a.935.935 0 00-.771.77c-.477 0-2.605 0-4 1.651v-.147c.184-.954.844-2.972 3.67-3.302.22.477.734.66 1.21.477.478-.22.661-.734.478-1.21-.22-.478-.734-.661-1.211-.478-.33.147-.514.44-.55.807-.441.037-2.532.294-3.707 1.798v-.33a4.529 4.529 0 012.826-3.156c.22.477.77.66 1.247.44.477-.22.66-.77.44-1.247-.22-.477-.77-.66-1.247-.44a.89.89 0 00-.514.88 6.513 6.513 0 00-2.568 1.505c.037-.294.22-2.055 1.284-2.972.147.22.404.33.66.367.514.073.955-.294 1.028-.807.073-.514-.294-.955-.807-1.028-.514-.073-.954.294-1.028.807v.294a4.05 4.05 0 00-1.43 1.614c-.147-.954-.037-1.908.366-2.788.11.073.22.11.33.11a.912.912 0 00.991-.844c.147-.514-.22-.99-.734-1.028a.968.968 0 00-1.027.844.874.874 0 00.183.66c-.183.258-.33.588-.44.882a3.298 3.298 0 00-.44-.881.89.89 0 00-.147-1.284.89.89 0 00-1.284.146c-.294.404-.257.991.146 1.285.184.146.404.22.661.183.11 0 .257-.037.33-.11.404.844.514 1.798.404 2.715v.22a4.456 4.456 0 00-1.468-1.724v-.294c-.073-.513-.514-.844-1.027-.807-.514.073-.844.514-.808 1.028.074.513.514.843 1.028.807a.974.974 0 00.66-.404c1.064.917 1.285 2.679 1.285 2.972-.698-.697-1.578-1.247-2.569-1.504v-.11c-.037-.514-.477-.918-.99-.88-.514.036-.918.476-.881.99.073.514.513.88 1.027.88a.965.965 0 00.77-.513c1.468.55 2.532 1.834 2.863 3.375v.22c-1.138-1.54-3.303-1.797-3.743-1.834-.037-.514-.477-.917-.99-.88-.514.036-.918.476-.881.99.036.514.477.917.99.88.367 0 .66-.256.808-.586 3.008.367 3.596 2.678 3.706 3.485-1.395-1.65-3.56-1.687-4.037-1.687-.073-.514-.55-.844-1.064-.771-.513.073-.844.55-.77 1.064.073.514.55.844 1.064.77a.98.98 0 00.77-.77c.66.037 1.321.22 1.945.514a2.63 2.63 0 00-1.578.807.946.946 0 00-1.284.294.946.946 0 00.294 1.284c.44.257.99.147 1.284-.294.11-.146.147-.367.147-.55a.877.877 0 00-.184-.514c.624-.587 1.578-.697 2.349-.33.33.33.587.734.77 1.137-.55-.33-1.137 0-1.43.22a.836.836 0 00-.405-.11.908.908 0 00-.917.918c0 .514.404.917.917.917a.908.908 0 00.918-.917c0-.184-.074-.367-.184-.55.881-.514 1.174.33 1.285.587-.11 1.394-.257 2.531-.404 2.898.33.22.697.33 1.1.33.404 0 .771-.11 1.102-.33-.147-.367-.294-1.578-.404-3.045.11-.33.477-.88 1.21-.44a.901.901 0 00-.183.55c0 .514.404.917.918.917a.908.908 0 00.917-.917.908.908 0 00-.917-.917.977.977 0 00-.44.11c-.294-.22-.845-.55-1.432-.22.184-.44.44-.808.77-1.138a2.133 2.133 0 012.35.33.877.877 0 00-.184.514.887.887 0 00.88.954.887.887 0 00.954-.88.887.887 0 00-.88-.955c-.184 0-.367.037-.55.147a2.97 2.97 0 00-1.578-.807c.66-.33 1.32-.477 2.018-.55zm.88-.513c.22 0 .367.183.367.367a.395.395 0 01-.367.367.368.368 0 010-.734zm-.367-2.312c.22 0 .367.184.367.404 0 .22-.183.367-.403.367-.22 0-.367-.184-.367-.404.036-.22.22-.404.403-.367zm-.954-2.201c.22.036.367.22.33.403-.036.22-.22.367-.403.33-.22-.036-.367-.183-.33-.403 0-.184.183-.33.403-.33zM15.558 4.77c.036-.22.22-.367.403-.33.22.037.367.22.33.403a.4.4 0 01-.403.33c-.184 0-.33-.183-.33-.403zm-1.505-1.798c.037-.22.22-.367.404-.33.22.037.367.22.33.403a.4.4 0 01-.403.33c-.184 0-.33-.183-.33-.403zm-1.908.404c-.22 0-.403-.147-.403-.33 0-.22.146-.404.33-.404.22 0 .403.147.403.33.037.22-.11.404-.33.404zm-1.54 1.798a.4.4 0 01-.404-.33.4.4 0 01.33-.404.43.43 0 01.403.33.35.35 0 01-.33.404zM9.172 7.155a.4.4 0 01-.403-.33.4.4 0 01.33-.404.4.4 0 01.403.33c.037.184-.146.367-.33.404zM8.146 9.32a.4.4 0 01-.404-.33c-.037-.184.147-.367.33-.404a.4.4 0 01.404.33c.037.22-.11.404-.33.404zm-.367 2.348c-.22 0-.367-.147-.404-.367 0-.22.147-.367.367-.403.22 0 .367.146.404.367 0 .22-.184.403-.367.403zm2.752 3.56a.368.368 0 010-.734c.22 0 .367.183.367.367 0 .22-.147.366-.367.366zm5.797-.367c0 .22-.183.366-.367.366a.395.395 0 01-.367-.366c0-.184.184-.367.367-.367.184 0 .367.183.367.367zm-3.522-6.312l.073.037-.073-.037zm-4.257 5.358c-.22 0-.367-.184-.367-.404 0-.184.147-.33.33-.367.22 0 .368.183.368.404 0 .183-.147.33-.33.367zm9.43-.771c.22 0 .367.183.367.404 0 .22-.183.367-.403.367-.22 0-.367-.184-.367-.404 0-.22.183-.367.403-.367zM9.687 19.374c.44 0 .734.11.954.33.22.22.293.514.293.844 0 .11 0 .257-.036.367l-.11.33c-.074.11-.147.183-.22.257-.074.073-.184.11-.33.147.146 0 .293.036.366.11.11.073.184.146.257.257.073.11.11.22.147.33.036.11.036.257.036.367 0 .183-.036.403-.073.55a.88.88 0 01-.257.44c-.11.11-.257.22-.44.294-.184.073-.404.11-.624.11H7.852v-4.733h1.835zm-.33 1.834c.11 0 .22-.036.293-.146.074-.11.11-.22.11-.33 0-.147-.036-.258-.11-.33-.073-.111-.147-.148-.293-.148h-.294v.954h.294zm.073 1.982c.11 0 .22-.037.294-.147a.783.783 0 00.11-.44c0-.184-.037-.33-.11-.404a.334.334 0 00-.294-.147H9.1v1.138h.33zM13.503 20.585c0-.147-.037-.257-.073-.367-.074-.11-.147-.147-.257-.147-.147 0-.22.037-.294.11-.073.073-.073.183-.073.293 0 .147.036.257.146.367.11.074.22.184.367.22.147.074.294.147.477.184.184.073.33.147.477.257.147.11.257.257.367.44.11.184.147.404.147.697 0 .514-.147.881-.44 1.101-.294.22-.697.33-1.248.33-.257 0-.477-.036-.66-.073-.184-.037-.367-.11-.477-.22a.829.829 0 01-.294-.404 1.581 1.581 0 01-.11-.624v-.146h1.174v.146c0 .22.037.33.11.44.074.074.184.11.294.11.11 0 .22-.036.294-.146.073-.073.11-.183.11-.33 0-.147-.037-.294-.147-.367-.11-.073-.22-.184-.367-.22-.147-.074-.294-.11-.477-.184a1.977 1.977 0 01-.477-.257c-.147-.11-.257-.256-.367-.403-.11-.184-.147-.404-.147-.66 0-.478.11-.845.367-1.101.257-.257.624-.367 1.138-.367.55 0 .917.11 1.137.33.22.22.367.587.367 1.1H13.43v-.11h.073zM16.695 19.337l.77 2.899v-2.899h1.138v4.697h-1.32l-.771-2.899v2.899h-1.138v-4.697z" fill="#FFF"/></g></g></svg>