<?xml version="1.0" encoding="UTF-8"?><svg width="56" height="36" viewBox="0 0 56 36" xmlns="http://www.w3.org/2000/svg"><g fill="none" fill-rule="evenodd"><path d="M0 3.75A3.749 3.749 0 013.75 0h48.5A3.756 3.756 0 0156 3.75v28.5A3.749 3.749 0 0152.25 36H3.75A3.756 3.756 0 010 32.25V3.75z" fill="#000" fill-rule="nonzero"/><path d="M1.25 3.75v28.5c0 1.375 1.123 2.5 2.5 2.5h48.5c1.382 0 2.5-1.118 2.5-2.5V3.75c0-1.375-1.123-2.5-2.5-2.5H3.75a2.499 2.499 0 00-2.5 2.5z" fill="#FFF"/><g fill-rule="nonzero"><path d="M38.195 13.667c-1.605-.519-2.842-1.362-3.752-2.439a7.164 7.164 0 01-1.237-2.098 6.068 6.068 0 01-.219-.702 3.287 3.287 0 01-.06-.29L33.832 8c.005.03.018.098.042.199.043.176.104.375.185.59.233.62.584 1.24 1.074 1.82.803.95 1.902 1.698 3.352 2.164.21.084.51.228.89.448.628.364 1.256.814 1.844 1.358 1.693 1.565 2.716 3.573 2.716 6.046v.472h-3.693v-.472c0-2.156-.9-3.917-2.413-5.325a9.689 9.689 0 00-2.235-1.55 4.549 4.549 0 00-.18-.083c-1.603-.52-2.84-1.362-3.75-2.439a7.164 7.164 0 01-1.236-2.098 6.068 6.068 0 01-.22-.702 3.287 3.287 0 01-.059-.29L31.054 8c.004.03.017.098.042.199.043.176.103.375.185.59.233.62.583 1.24 1.073 1.82.803.95 1.903 1.698 3.353 2.164.213.087.512.234.892.457.628.37 1.255.824 1.842 1.37 1.583 1.472 2.58 3.318 2.703 5.554h1.862c-.12-1.965-.996-3.577-2.398-4.874a9.48 9.48 0 00-2.232-1.53 4.394 4.394 0 00-.181-.083z" fill="#00529B"/><path d="M22.748 14.579a10.389 10.389 0 011.845-1.358c.38-.22.679-.364.858-.436 1.481-.478 2.58-1.225 3.384-2.176.49-.58.84-1.2 1.073-1.82.081-.215.142-.414.185-.59.025-.101.038-.17.042-.199l.905.138c-.009.06-.028.158-.06.29a6.068 6.068 0 01-.219.702 7.164 7.164 0 01-1.237 2.098c-.91 1.077-2.147 1.92-3.752 2.44a8.134 8.134 0 00-.731.375 9.48 9.48 0 00-1.682 1.237c-1.512 1.4-2.412 3.165-2.412 5.345v.472h-3.693v-.472c0-2.449 1.023-4.45 2.715-6.025a10.597 10.597 0 011.843-1.37c.38-.223.678-.37.857-.444 1.485-.48 2.584-1.226 3.387-2.177.49-.58.84-1.2 1.074-1.82.081-.215.142-.414.185-.59.024-.101.037-.17.041-.199l.905.138c-.008.06-.027.158-.06.29a6.068 6.068 0 01-.218.702 7.164 7.164 0 01-1.237 2.098c-.91 1.077-2.146 1.92-3.75 2.439a8.326 8.326 0 00-.73.382 9.689 9.689 0 00-1.684 1.251c-1.402 1.304-2.277 2.91-2.399 4.854h1.862c.121-2.258 1.12-4.11 2.703-5.575z" fill="#00529B"/><path d="M29.03 11.228a7.164 7.164 0 01-1.237-2.098 6.068 6.068 0 01-.219-.702 3.287 3.287 0 01-.06-.29L28.42 8c.005.03.018.098.042.199.043.176.104.375.185.59.233.62.584 1.24 1.074 1.82.803.95 1.902 1.698 3.352 2.164.21.084.51.228.89.448.628.364 1.256.814 1.844 1.358 1.693 1.565 2.716 3.573 2.716 6.046v.472H34.83v-.472c0-2.156-.9-3.917-2.413-5.325a9.689 9.689 0 00-2.235-1.55 4.549 4.549 0 00-.18-.083c-1.603-.52-2.84-1.362-3.75-2.439a7.164 7.164 0 01-1.236-2.098 6.068 6.068 0 01-.22-.702 3.287 3.287 0 01-.059-.29L25.641 8c.004.03.017.098.042.199.043.176.104.375.185.59.233.62.583 1.24 1.073 1.82.803.95 1.903 1.698 3.353 2.164.213.087.512.234.892.457.628.37 1.255.824 1.843 1.37 1.582 1.472 2.58 3.318 2.702 5.554h1.862c-.12-1.965-.996-3.577-2.398-4.874a9.48 9.48 0 00-2.232-1.53 4.394 4.394 0 00-.181-.083c-1.605-.519-2.842-1.362-3.752-2.439z" fill="#00529B"/><path d="M17.441 14.579a10.389 10.389 0 011.845-1.358c.38-.22.679-.364.858-.436 1.481-.478 2.58-1.225 3.383-2.176.49-.58.84-1.2 1.074-1.82.081-.215.142-.414.185-.59.024-.101.037-.17.042-.199l.904.138c-.008.06-.027.158-.06.29a6.068 6.068 0 01-.218.702 7.164 7.164 0 01-1.237 2.098c-.91 1.077-2.147 1.92-3.752 2.44a8.134 8.134 0 00-.731.375 9.48 9.48 0 00-1.682 1.237c-1.513 1.4-2.412 3.165-2.412 5.345v.472H12v-.472c0-2.449 1.023-4.45 2.715-6.025a10.597 10.597 0 011.843-1.37c.38-.223.679-.37.857-.444 1.485-.48 2.585-1.226 3.388-2.177.49-.58.84-1.2 1.073-1.82.081-.215.142-.414.185-.59.025-.101.038-.17.042-.199l.905.138c-.009.06-.028.158-.06.29a6.068 6.068 0 01-.219.702 7.164 7.164 0 01-1.236 2.098c-.91 1.077-2.147 1.92-3.75 2.439a8.326 8.326 0 00-.73.382 9.689 9.689 0 00-1.685 1.251c-1.401 1.304-2.277 2.91-2.399 4.854h1.808c.122-2.258 1.12-4.11 2.704-5.575z" fill="#00529B"/><path d="M26.528 15.3c-1.402 1.304-2.278 2.91-2.4 4.854h8.14c-.12-1.965-.996-3.577-2.399-4.874a9.479 9.479 0 00-1.664-1.228 9.688 9.688 0 00-1.677 1.248zm3.952-.721c1.693 1.565 2.717 3.573 2.717 6.046v.472h-9.998v-.472c0-2.449 1.024-4.45 2.716-6.025.413-.384.846-.723 1.286-1.02-1.481-.523-2.636-1.333-3.497-2.352a7.164 7.164 0 01-1.236-2.098 6.068 6.068 0 01-.22-.702 3.287 3.287 0 01-.059-.29L23.094 8c.004.03.017.098.042.199.043.176.103.375.184.59.234.62.584 1.24 1.074 1.82.803.95 1.903 1.698 3.352 2.164.135.054.28.12.456.21.171-.09.311-.155.412-.197l.035-.013c1.45-.466 2.55-1.213 3.353-2.164.49-.58.84-1.2 1.074-1.82.08-.215.141-.414.184-.59.025-.101.038-.17.042-.199l.905.138c-.009.06-.027.158-.06.29a6.068 6.068 0 01-.219.702 7.164 7.164 0 01-1.236 2.098c-.859 1.017-2.01 1.825-3.485 2.348.435.291.864.624 1.273 1.003z" fill="#00529B"/><path d="M43.125 23.297l.267-.384s.588 1.206-1.122 1.37c-.053-.054-.107-.164-.107-.164s-.534.384-1.015.274v-.548s-1.656 1.316-2.083-.055c.107-.932.961-1.261 1.068-1.261.107 0 .535 1.042-.427 1.042v-.33c.588.056.267-.383.267-.383s-.48.274-.695.603c.16 1.042 1.764.165 1.817.055v-1.042l.267-.274v1.755s.374.164.641-.165c-.16-.767 1.015-.767.481 0 .48.165.801-.329.801-.329M41.771 22.311l.267-.274.214.22c.267 0 .16-.385.16-.385s-.053-.164-.32-.164c0 .11-.32.603-.32.603M38.071 23.735s-.267-.658.428-.438c.64.712-1.39.987-1.39.987l-.106-.11s-.642.384-1.122.274V22.42l.267-.219v1.864c.48.11.748-.164.748-.164s-.32-.548.213-.603c.535-.055.374.493.268.548.267.055.694-.11.694-.11M33.776 23.79V22.2l-.32.165s-.108 1.096-2.352 2.028c1.764.055 2.298-1.48 2.405-1.425v1.425c.855-.055 1.923-.548 1.656-1.041-.534-.275-.534.328-.534.383-.588.22-.855.055-.855.055" fill="#004B92"/><path d="M31.51 23.295l.213-.439c.428.494.16 1.865-1.923 1.48-.534-.273-.16-1.096-.16-1.096s.053.548.16.603c.48.22 1.656 0 1.817-.274.053 0-.107-.274-.107-.274M12 25.536c.214-.055.588-.055.962-.055.48 0 .748.055.961.22.214.11.428.383.428.658 0 .329-.16.603-.534.712.374.11.64.384.64.823 0 .329-.16.548-.32.713-.267.219-.641.329-1.336.329-.374 0-.64 0-.801-.055v-3.345zm.748 1.316h.267c.374 0 .588-.164.588-.439 0-.274-.214-.383-.534-.383h-.321v.822zm0 1.535h.267c.32 0 .641-.11.641-.493 0-.33-.32-.494-.694-.494h-.214v.987zM16.897 28.22c0 .22 0 .494.053.604h-.694l-.054-.22a.853.853 0 01-.694.33.786.786 0 01-.802-.768c0-.658.588-.932 1.443-.932v-.055c0-.11-.053-.33-.427-.33-.268 0-.535.11-.695.165l-.16-.493c.16-.11.48-.22.961-.22.802 0 1.069.494 1.069 1.097v.823zm-.748-.548c-.374 0-.695.11-.695.384 0 .22.107.274.321.274.214 0 .32-.11.374-.274v-.384zM17.254 27.124v-.768h.64l.054.33c.107-.165.32-.384.748-.384.481 0 .855.329.855 1.041v1.48h-.748v-1.37c0-.329-.107-.548-.374-.548-.214 0-.32.164-.374.274 0 .055-.053.11-.053.22v1.425h-.748M20.708 27.346c.054-.11.107-.219.16-.274l.481-.767h.909l-.855.987 1.015 1.48h-.908l-.642-1.042-.16.274v.768h-.748v-3.619h.748" fill="#004B92"/><path d="M26.401 27.51c0-.439-.053-.932-.053-1.426-.107.44-.267.933-.374 1.316l-.428 1.371h-.587l-.374-1.316c-.107-.384-.214-.877-.32-1.316 0 .439-.054.987-.054 1.426l-.054 1.316h-.694l.213-3.4h1.016l.32 1.152c.107.384.214.822.267 1.206.107-.384.214-.822.32-1.206l.375-1.152h.961l.16 3.4h-.747M29.581 28.001v.823h-.641l-.054-.33c-.106.165-.32.385-.748.385-.48 0-.854-.33-.854-1.097v-1.48h.748v1.316c0 .383.106.603.374.603.213 0 .32-.165.374-.274v-1.645h.748M32.021 28.22c0 .22 0 .494.054.604h-.695l-.053-.22a.853.853 0 01-.695.33.786.786 0 01-.801-.768c0-.658.588-.932 1.442-.932v-.055c0-.11-.053-.33-.427-.33-.267 0-.534.11-.641.165l-.16-.493c.16-.11.48-.22.961-.22.802 0 1.069.494 1.069 1.097l-.054.823zm-.694-.548c-.374 0-.695.11-.695.384 0 .22.107.274.32.274.215 0 .321-.11.375-.274v-.384zM32.537 26.96v-.768h.641l.054.33c.107-.165.32-.384.748-.384.32 0 .534.164.641.438.107-.11.214-.22.32-.274.16-.055.268-.11.481-.11.481 0 .802.33.802 1.097v1.48h-.748V27.4c0-.384-.107-.549-.374-.549-.16 0-.32.11-.32.275 0 .054-.054.164-.054.219v1.48h-.748v-1.37c0-.33-.107-.549-.32-.549-.214 0-.321.165-.375.274 0 .055-.053.11-.053.22v1.425h-.695M38.549 28.22c0 .22 0 .494.053.604h-.694l-.054-.22a.853.853 0 01-.694.33.786.786 0 01-.802-.768c0-.658.588-.932 1.443-.932v-.055c0-.11-.054-.33-.428-.33-.267 0-.534.11-.694.165l-.16-.493c.16-.11.48-.22.961-.22.802 0 1.069.494 1.069 1.097v.823zm-.748-.548c-.374 0-.695.11-.695.384 0 .22.107.274.32.274.214 0 .321-.11.375-.274v-.384zM38.905 25.317h1v3.619h-1zM42.21 28.22c0 .22 0 .494.054.604h-.695l-.053-.22a.853.853 0 01-.695.33.786.786 0 01-.801-.768c0-.658.588-.932 1.442-.932v-.055c0-.11-.053-.33-.427-.33-.267 0-.534.11-.695.165l-.16-.493c.16-.11.481-.22.962-.22.801 0 1.068.494 1.068 1.097v.823zm-.748-.548c-.374 0-.694.11-.694.384 0 .22.107.274.32.274.214 0 .321-.11.374-.274v-.384zM43.317 25.81v.657h.535v.549h-.535v.877c0 .274.054.439.32.439h.215v.603c-.107.055-.268.055-.481.055-.267 0-.428-.11-.588-.22-.16-.164-.214-.384-.214-.712v-1.042h-.32v-.549h.32v-.438" fill="#F18B00"/></g></g></svg>