<?xml version="1.0" encoding="UTF-8"?><svg width="56" height="36" viewBox="0 0 56 36" xmlns="http://www.w3.org/2000/svg"><g fill="none" fill-rule="evenodd"><path d="M0 3.75A3.749 3.749 0 013.75 0h48.5A3.756 3.756 0 0156 3.75v28.5A3.749 3.749 0 0152.25 36H3.75A3.756 3.756 0 010 32.25V3.75z" fill="#000" fill-rule="nonzero"/><path d="M1.25 3.75v28.5c0 1.375 1.123 2.5 2.5 2.5h48.5c1.382 0 2.5-1.118 2.5-2.5V3.75c0-1.375-1.123-2.5-2.5-2.5H3.75a2.499 2.499 0 00-2.5 2.5z" fill="#FFF"/><g><path fill="#F16F24" fill-rule="nonzero" d="M36.867 15.799L32.62 8.444l1.842-3.325h-4.656l-4.196 7.405h4.656l4.299 7.355z"/><path fill="#F16F24" fill-rule="nonzero" d="M24.256 5.12l-4.4 7.404-3.94.05 2.353 3.98 8.7-.05-2.355-4.03 4.35-7.355z"/><path fill="#F16F24" fill-rule="nonzero" d="M21.254 21.358h8.596l1.996 3.274 2.303-3.98-4.452-7.304-2.303 3.98h-8.597z"/><path d="M13.121 28.514l.665-2.468h1.075c.205 0 .41 0 .512.05.102.05.204.151.255.252.052.1.052.201.052.302-.052.1-.103.202-.205.302a.828.828 0 01-.358.202c.153.05.256.1.358.201.051.101.102.252.051.353l-.153.302-.256.252c-.103.05-.205.1-.358.1-.154.051-.307.051-.461.051h-1.177v.101zm.768-1.46h.614c.153 0 .307 0 .358-.051.102-.05.205-.05.256-.101.05-.05.102-.151.153-.202V26.5l-.153-.151c-.103 0-.205-.05-.46-.05h-.564l-.204.755zm-.307 1.158h.972c.102 0 .153-.05.256-.05.05-.051.153-.101.204-.152a.38.38 0 00.103-.201v-.252a.705.705 0 00-.205-.151c-.102-.05-.256-.05-.41-.05h-.716l-.204.856zM15.48 28.514l1.79-2.468h.41l.511 2.468h-.41l-.153-.756H16.4l-.511.756h-.41zm1.125-1.008h.972l-.102-.705c-.051-.201-.051-.403-.051-.504-.103.152-.154.303-.307.454l-.512.755zM18.492 28.514l.665-2.468h.41l1.023 1.964.512-1.964h.358l-.665 2.468h-.41l-1.023-1.965-.512 1.965zM21.505 28.514l.666-2.468h.409l-.307 1.209 1.79-1.21h.513l-1.484 1.008.87 1.461h-.512l-.717-1.26-.562.404-.256.856zM24.256 28.514l.666-2.468h1.484c.256 0 .511 0 .614.05.153.05.256.1.307.201.05.101.05.252.05.403a.809.809 0 01-.204.353c-.102.1-.204.202-.358.252-.102.05-.205.05-.358.1.102.051.153.051.205.101.05 0 .05.05.102.152.051.05.051.1.102.15l.256.706H26.1l-.307-.756c-.052-.1-.052-.15-.103-.201-.05-.05-.102-.05-.204-.05h-.103l-.256 1.007h-.87zm1.28-1.511h.358c.051 0 .102 0 .256-.05.051 0 .102-.051.153-.101.051-.05.103-.101.103-.152 0-.1 0-.15-.052-.201-.05-.05-.153-.05-.307-.05h-.409l-.102.554zM29.339 28.111h-1.024l-.255.403h-.921l1.74-2.468h.972l.46 2.468h-.92l-.052-.403zm-.051-.554l-.103-.907-.562.907h.665zM31.21 26.046h.87l-.256.957L33 26.046h1.177l-1.33.957.716 1.561h-1.126l-.358-1.007-.563.403-.154.604h-.818zM34.344 26.046h1.023l.358.856.82-.856h.971l-1.535 1.46-.256 1.008h-.92l.255-1.058zM38.64 28.111h-1.023l-.256.403h-.921l1.74-2.468h.972l.41 2.468h-.922v-.403zm-.05-.554l-.103-.907-.563.907h.665zM40.13 26.046h2.764l-.154.604h-.92l-.513 1.864h-.92l.511-1.864h-.921z" fill="#262626" fill-rule="nonzero"/><path d="M28.633 31.726l.204.201.205-.201-.205-.202-.204.202zm10.234-1.663l-.205-.201-.204.201.204.202.205-.202zm-7.062 1.008h-.716c-.154-.302.256-.353.256-.353.205 0 .358-.201.358-.201-.205-.151-.205-.504-.205-.504-.05.353-.511.403-.511.403-.563.05-.307.655-.307.655h-.614v-.655c-.103.302-.461.403-.461.403l.102.1v.152h-1.279v-.856c-.102.201-.41.251-.41.251l.052.101v.05c-.717-.2-.768.454-.768.454h-.307c0 .1-.46.302-.46.302h5.833a1.401 1.401 0 01-.563-.302zm-3.991 0s-.256-.151.051-.252c0 0 .205-.05.256.151 0-.05-.051.151-.307.101zm-.921-.756l-.205-.201-.205.201.205.202.205-.202zm.563 0l-.205-.201-.205.201.205.202.205-.202zm10.644-.252l-.205-.201-.205.201.205.202.205-.202zm-5.578.454s-.256.201-.205.403c0 0 .41 0 .41.352 0 0 0 .454-.615.504 0 0 .973.101 1.024-.604 0 0-.051-.706-.614-.655zm7.624 1.209l.205.201.205-.201-.205-.202-.205.202zm.563-.907l.103.1v.152h-.87v-.655c-.103.302-.46.403-.46.403l.102.1v.152h-.922v-.202s.205-.15.307-.15v-.051s-.204-.1-.307-.1c0 0-.05-.202-.307-.202-.255 0-.307.201-.307.201-.102 0-.307.101-.307.101v.05c.103 0 .307.151.307.151v.202h-.972s.102-.605-.665-.605h-1.382s.051-.15.205-.15c0 0 .665-.152.46-.605 0 0-.255-.504-1.023-.252 0 0 .256.252.256.302 0 0 .358-.05.41.1 0 0 .102.152-.359.253 0 0-.665.15-.46.655h1.893s.256 0 .256.15c0 0 0 .152-.307.152h-2.457v.302h7.37v-.957a2.452 2.452 0 01-.564.403zm-2.354.1c-.102 0-.153-.05-.153-.15 0-.101.051-.151.153-.151.103 0 .154.05.154.15 0 .101-.102.152-.154.152zm-9.16.807l.205.201.205-.201-.205-.202-.204.202zm9.98 0l.204.201.205-.201-.205-.202-.205.202zm-.564 0l.205.201.205-.201-.205-.202-.205.202z" fill="#262626"/></g></g></svg>