<?xml version="1.0" encoding="UTF-8"?><svg width="56" height="36" viewBox="0 0 56 36" xmlns="http://www.w3.org/2000/svg"><g fill="none" fill-rule="evenodd"><path d="M0 3.75A3.749 3.749 0 013.75 0h48.5A3.756 3.756 0 0156 3.75v28.5A3.749 3.749 0 0152.25 36H3.75A3.756 3.756 0 010 32.25V3.75z" fill="#000" fill-rule="nonzero"/><path d="M1.25 3.75v28.5c0 1.375 1.123 2.5 2.5 2.5h48.5c1.382 0 2.5-1.118 2.5-2.5V3.75c0-1.375-1.123-2.5-2.5-2.5H3.75a2.499 2.499 0 00-2.5 2.5z" fill="#FFF"/><g fill="#C22C2C" fill-rule="nonzero"><path d="M31.61 6h-6.5l-4.533 4.577v4.718l.733.654-.733.654v4.717l4.486 4.484h6.638l4.394-4.437v-4.811l-.64-.607.64-.607V10.53L31.61 6zm-3.25 18.45l-5.356-5.465.595-.607 1.464 1.4h6.638l1.464-1.494.641.654-5.447 5.512zm-2.381-8.501l2.38-2.43 2.472 2.43-2.472 2.429-2.38-2.43zm7.14-2.43l-1.51-1.494h-6.5l-1.51 1.542-.595-.654 5.355-5.418 5.402 5.464-.641.56zM19.982 29.851h-1.098c-.595 0-.595-.467-.595-.467V28.03h.64v1.074s0 .28.55.28.55-.28.55-.28V28.03h.594v1.354s0 .467-.64.467zM23.746 29.851V28.03h.55v1.354h1.281v.467z"/><path d="M26.056 28.03v1.821h-.549V28.03zM34.113 29.057h-.641l.32-.607.32.607zm-1.099.794l.229-.373h1.099l.183.373h.686l-1.053-1.821h-.732l-1.053 1.821h.641zM35.542 29.851V28.03h.778l1.053 1.401V28.03h.504v1.821h-.778l-1.053-1.4v1.4zM38.36 29.851V28.03h.548v.747l1.007-.747h.779l-1.053.747 1.19 1.074h-.824l-.87-.794-.274.187v.607h-.504zM28.035 29.198c0 .093-.091.186-.229.186h-.778c-.137 0-.229-.093-.229-.186v-.561c0-.093.092-.187.23-.187h.777c.138 0 .23.094.23.187h.457v-.233a.365.365 0 00-.366-.374h-1.373a.365.365 0 00-.367.374v1.074c0 .233.183.373.367.373h1.373a.365.365 0 00.366-.373v-.234h-.458v-.046zM17.144 28.544h-.549v.327h.87s.137 0 .137-.187c0-.14-.137-.187-.137-.187h-.412v-.467h.64s.458 0 .458.654-.457.7-.457.7h-1.099v.467H16V28.03h1.099v.514h.045zM21.89 29.853h-.96V28.03h1.007v.374h-.504v.373h.961s.138 0 .138-.187c0-.14-.138-.186-.138-.186h-.503v-.374h.732s.458-.047.458.467c0 0 0 .42-.183.42 0 0 .183.047.183.467 0 0 0 .468-.458.468h-.732l-.046-.42h.55s.137 0 .137-.188c0-.14-.138-.186-.138-.186h-.96v.373h.457v.42zM31.046 29.853h-.961V28.03h1.007v.374h-.504v.373h.961s.138 0 .138-.187c0-.14-.138-.186-.138-.186h-.503v-.374h.732s.458-.047.458.467c0 0 0 .42-.183.42 0 0 .183.047.183.467 0 0 0 .468-.458.468h-.732v-.42h.55s.136 0 .136-.188c0-.14-.137-.186-.137-.186h-.961v.373h.458v.42h-.046z"/></g></g></svg>