<?xml version="1.0" encoding="UTF-8"?><svg width="56" height="36" viewBox="0 0 56 36" xmlns="http://www.w3.org/2000/svg"><g fill="none" fill-rule="evenodd"><path d="M0 3.75A3.749 3.749 0 013.75 0h48.5A3.756 3.756 0 0156 3.75v28.5A3.749 3.749 0 0152.25 36H3.75A3.756 3.756 0 010 32.25V3.75z" fill="#000" fill-rule="nonzero"/><path d="M1.25 3.75v28.5c0 1.375 1.123 2.5 2.5 2.5h48.5c1.382 0 2.5-1.118 2.5-2.5V3.75c0-1.375-1.123-2.5-2.5-2.5H3.75a2.499 2.499 0 00-2.5 2.5z" fill="#FFF"/><g fill-rule="nonzero"><path d="M20.526 6h15.876v16.346H20.525V6zm2.114 3.069c1.236 1.703 2.49 3.392 3.731 5.09-1.23 1.706-2.492 3.387-3.725 5.092 2.818.011 5.635 0 8.453.006 1.268-1.69 2.49-3.416 3.767-5.1l-.024.001c-1.244-1.698-2.494-3.393-3.736-5.091-2.822.002-5.644-.003-8.466.002z" fill="#790008"/><path d="M22.464 9.069c2.862-.005 5.725 0 8.587-.002 1.26 1.698 2.528 3.393 3.79 5.091-2.864.006-5.728.003-8.593.001-1.259-1.698-2.53-3.387-3.784-5.09z" fill="#FFF"/><path d="M26.254 14.114c2.873.002 5.746.005 8.618-.001l.025-.001c-1.3 1.713-2.543 3.469-3.833 5.188-2.867-.006-5.733.006-8.6-.006 1.254-1.734 2.538-3.445 3.79-5.18z" fill="#ED3024"/><path d="M20.557 25.749a2.507 2.507 0 011.81-.975 2.456 2.456 0 011.836.645c-.225.236-.45.47-.677.704a1.519 1.519 0 00-1.392-.309c-.533.146-.96.619-1.079 1.177-.145.605.065 1.293.543 1.676.547.465 1.395.442 1.932-.028.225.235.455.465.674.706a2.478 2.478 0 01-1.612.652 2.505 2.505 0 01-1.975-.906 2.638 2.638 0 01-.604-1.45 2.66 2.66 0 01.544-1.892zM25.073 24.906h.968v4.944h-.968v-4.944zM27.21 24.907c.313 0 .627.002.941-.001.56 1.047 1.105 2.103 1.671 3.147.55-1.05 1.107-2.096 1.656-3.146h.95c-.002 1.649.003 3.297-.003 4.946-.322-.005-.644 0-.966-.004.002-.975 0-1.95.001-2.926-.555.986-1.084 1.989-1.648 2.968-.54-.992-1.094-1.976-1.635-2.967v2.927h-.967v-4.944zM33.53 24.906h1.959c.302.006.612.073.87.243.624.397.767 1.426.246 1.972a1.548 1.548 0 01-.224.194c.297.163.524.464.58.812.08.468-.023 1.007-.372 1.337-.279.278-.675.378-1.05.383-.67.007-1.34.001-2.01.003v-4.944zm.967.903v1.077h.855c.166-.004.346-.04.467-.167a.587.587 0 00.024-.717c-.118-.148-.313-.194-.49-.193h-.856zm0 1.98v1.146l.944.001a.568.568 0 00.412-.144c.22-.22.224-.631 0-.85-.121-.12-.295-.15-.455-.153h-.901z" fill="#790008"/></g></g></svg>