<?xml version="1.0" encoding="UTF-8"?><svg width="56" height="36" viewBox="0 0 56 36" xmlns="http://www.w3.org/2000/svg"><g fill="none" fill-rule="evenodd"><path d="M0 3.75A3.749 3.749 0 013.75 0h48.5A3.756 3.756 0 0156 3.75v28.5A3.749 3.749 0 0152.25 36H3.75A3.756 3.756 0 010 32.25V3.75z" fill="#000" fill-rule="nonzero"/><path d="M1.25 3.75v28.5c0 1.375 1.123 2.5 2.5 2.5h48.5c1.382 0 2.5-1.118 2.5-2.5V3.75c0-1.375-1.123-2.5-2.5-2.5H3.75a2.499 2.499 0 00-2.5 2.5z" fill="#FFF"/><g fill-rule="nonzero"><path fill="#1F2D5C" d="M29.144 12.784v1.99h-4.508v1.99h4.117v1.99h-4.117v4.009h-2.14v-9.979zM35.068 12.785c.466-.009.93.06 1.373.206.377.123.724.327 1.015.597.28.269.496.597.631.96.292.839.292 1.75 0 2.588a2.615 2.615 0 01-.63.968c-.292.272-.638.478-1.016.604a3.918 3.918 0 01-1.373.199h-2.154v3.863h-2.128v-9.985h4.282zm-.576 4.248c.391.04.785-.052 1.118-.26.252-.214.385-.536.357-.865a1.05 1.05 0 00-.357-.872 1.784 1.784 0 00-1.118-.288h-1.578v2.285h1.578zM45.326 17.458l3.548 5.305h-2.697l-2.512-3.912-2.511 3.912H38.67l3.52-5.243-3.273-4.736h2.649l2.182 3.28 2.1-3.28h2.648zM14.473 24.927a1.091 1.091 0 01-.474-.954v-2.629a.981.981 0 01.254-.514c.522-.687 1.057-1.421 1.592-2.128a1.009 1.009 0 000-1.434c-.398-.535-.885-1.146-1.2-1.585-.193-.268-.639-.687-.639-1.153v-2.546a1.05 1.05 0 01.467-.94c.089-.056.432-.131.768.288.206.247 3.603 4.803 4.117 5.53a1.75 1.75 0 010 2.266s-2.827 3.939-3.884 5.236c-.123.15-.35.336-.562.542a.535.535 0 01-.44.02z"/><path d="M12.274 24.934c.313-.215.492-.576.473-.954V21.35a.981.981 0 00-.254-.515c-.521-.686-1.056-1.42-1.591-2.127a1.009 1.009 0 010-1.434c.398-.536.885-1.146 1.2-1.586.192-.267.639-.686.639-1.153V11.99a1.05 1.05 0 00-.44-.947c-.089-.055-.432-.13-.768.289-.206.247-3.603 4.803-4.117 5.53a1.75 1.75 0 000 2.266s2.861 3.939 3.904 5.243c.124.15.35.336.563.542a.535.535 0 00.39.02z" fill="#1B89CA"/></g></g></svg>