<?xml version="1.0" encoding="UTF-8"?><svg width="56" height="36" viewBox="0 0 56 36" xmlns="http://www.w3.org/2000/svg" xmlns:xlink="http://www.w3.org/1999/xlink"><defs><path d="M1.96.014A1.7 1.7 0 00.57.72a2.898 2.898 0 00-.567 1.858 2.955 2.955 0 00.543 1.857c.329.442.85.698 1.4.688.415.034.827-.084 1.16-.335v-.006l-.259-.687a1.004 1.004 0 01-.666.223.87.87 0 01-.778-.477 2.57 2.57 0 01-.277-1.313c0-1.145.364-1.764 1.08-1.764.237-.01.47.065.66.21L3.1.354a1.724 1.724 0 00-1.142-.34z" id="a"/><path d="M1.888.019A4.417 4.417 0 000 .353v4.57h1.098V.83c.24-.094.496-.14.753-.136.574 0 .864.272.864.804v3.425H3.8v-3.43A1.302 1.302 0 003.38.463 2.124 2.124 0 001.888.02zm1.913 4.904v.012-.012z" id="c"/><path d="M1.851.018A4.363 4.363 0 000 .371v4.563h1.105V.842c.232-.088.479-.132.727-.13.58 0 .87.272.87.805V4.94h1.093l-.025-.007V1.492A1.32 1.32 0 003.344.464 2.136 2.136 0 001.851.018z" id="e"/><path d="M2.19.015A1.848 1.848 0 00.683.67a2.77 2.77 0 00-.55 1.858c-.036.675.184 1.34.618 1.857.423.448 1.02.687 1.635.657a3.267 3.267 0 001.585-.34l-.259-.688c-.383.19-.806.284-1.234.272-.781 0-1.217-.448-1.308-1.343l2.95-.428-.007-.024A2.763 2.763 0 003.652.634a1.755 1.755 0 00-1.463-.62zm-.81 1.077A.87.87 0 012.147.69c.635 0 .95.458.95 1.374l-1.993.304a2.197 2.197 0 01.278-1.276z" id="g"/><path d="M.56.662a2.83 2.83 0 00-.555 1.857c-.04.662.147 1.318.531 1.858.614.76 1.71.91 2.505.347l.025-.031-.253-.675a.954.954 0 01-.648.217.839.839 0 01-.765-.465 2.484 2.484 0 01-.272-1.282c0-1.151.358-1.727 1.056-1.727.222-.003.44.069.617.204l.228-.619A1.846 1.846 0 00.56.662z" id="i"/><path d="M.55.32v1.127H0v.731h.55v2.923c-.014.337.095.667.308.928a1.544 1.544 0 001.61.31v-.694c-.087.02-.176.03-.265.031-.358 0-.537-.198-.537-.619V2.178h.796v-.7H1.66V.011L.55.32z" id="k"/></defs><g fill="none" fill-rule="evenodd"><path d="M0 3.75A3.749 3.749 0 013.75 0h48.5A3.756 3.756 0 0156 3.75v28.5A3.749 3.749 0 0152.25 36H3.75A3.756 3.756 0 010 32.25V3.75z" fill="#000" fill-rule="nonzero"/><path d="M1.25 3.75v28.5c0 1.375 1.123 2.5 2.5 2.5h48.5c1.382 0 2.5-1.118 2.5-2.5V3.75c0-1.375-1.123-2.5-2.5-2.5H3.75a2.499 2.499 0 00-2.5 2.5z" fill="#FFF"/><g><g transform="translate(14 25.835)"><mask id="b" fill="#fff"><use xlink:href="#a"/></mask><path fill="#142349" mask="url(#b)" d="M-.639 5.773h4.385V-.634H-.64z"/></g><g transform="translate(23.198 25.835)"><mask id="d" fill="#fff"><use xlink:href="#c"/></mask><path fill="#142349" mask="url(#d)" d="M-.639 5.58h5.08V-.635h-5.08z"/></g><g transform="translate(28.18 25.835)"><mask id="f" fill="#fff"><use xlink:href="#e"/></mask><path fill="#142349" mask="url(#f)" d="M-.639 5.585h5.072V-.634H-.639z"/></g><g transform="translate(32.396 25.835)"><mask id="h" fill="#fff"><use xlink:href="#g"/></mask><path fill="#142349" mask="url(#h)" d="M-.511 5.69h5.28V-.634H-.51z"/></g><g transform="translate(36.74 25.835)"><mask id="j" fill="#fff"><use xlink:href="#i"/></mask><path fill="#142349" mask="url(#j)" d="M-.639 5.708h4.344V-.634H-.64z"/></g><g transform="translate(40.445 24.546)"><mask id="l" fill="#fff"><use xlink:href="#k"/></mask><path fill="#142349" mask="url(#l)" d="M-.639 7.088h3.746V-.634H-.64z"/></g><path d="M36.156 10.395a11.086 11.086 0 01-1.53-.291 10.63 10.63 0 01-5.843-3.975l-1.684.966a12.617 12.617 0 007.021 4.873c.667.171 1.346.291 2.03.359v-1.932" fill="#132348"/><path d="M36.156 15.888v-1.932c-.804-.077-1.6-.22-2.381-.427a13.88 13.88 0 01-4.844-2.371 14.102 14.102 0 01-3.01-3.096l-1.673.966a15.926 15.926 0 0011.908 6.86" fill="#122347"/><path d="M23.082 9.48a16.904 16.904 0 003.868 4.098 17.18 17.18 0 005.967 2.923c1.061.28 2.145.465 3.24.551v1.926a18.448 18.448 0 01-3.703-.62 19.098 19.098 0 01-6.645-3.238 19.027 19.027 0 01-4.4-4.681l1.673-.96" fill="#122347"/><path d="M23.082 19.886a17.13 17.13 0 019.835-7.028 17.71 17.71 0 013.24-.545v-1.932a19.365 19.365 0 00-10.367 3.87 19.204 19.204 0 00-4.374 4.663l1.672.966" fill="#E12C27"/><path d="M36.156 13.99v1.931c-.804.066-1.602.205-2.381.415a14.037 14.037 0 00-7.849 5.486l-1.672-.972a16.006 16.006 0 019.015-6.384 15.95 15.95 0 012.887-.476" fill="#E02A27"/><path d="M36.156 19.008a9.583 9.583 0 00-1.53.297 10.568 10.568 0 00-5.843 3.975l-1.684-.978a12.678 12.678 0 012.647-2.718 12.396 12.396 0 014.374-2.142 10.568 10.568 0 012.03-.36v1.926" fill="#E02A27"/><path d="M21.269 25.786l-.129-.005-.18.414h.147a2.173 2.173 0 011.257 2.419 2.166 2.166 0 01-2.114 1.732c-1.02 0-1.91-.729-2.114-1.732a2.174 2.174 0 011.257-2.42h.153l-.206-.413h-.102l-.025.005a2.622 2.622 0 00-1.518 2.924 2.612 2.612 0 002.546 2.082 2.612 2.612 0 002.546-2.082 2.621 2.621 0 00-1.518-2.924" fill="#1481C2"/></g></g></svg>