<?xml version="1.0" encoding="UTF-8"?><svg width="56" height="36" viewBox="0 0 56 36" xmlns="http://www.w3.org/2000/svg"><g fill="none" fill-rule="evenodd"><path d="M0 3.75A3.749 3.749 0 013.75 0h48.5A3.756 3.756 0 0156 3.75v28.5A3.749 3.749 0 0152.25 36H3.75A3.756 3.756 0 010 32.25V3.75z" fill="#000" fill-rule="nonzero"/><path d="M1.25 3.75v28.5c0 1.375 1.123 2.5 2.5 2.5h48.5c1.382 0 2.5-1.118 2.5-2.5V3.75c0-1.375-1.123-2.5-2.5-2.5H3.75a2.499 2.499 0 00-2.5 2.5z" fill="#FFF"/><g><path d="M27.296 22.746c-4.76 0-8.62-3.77-8.62-8.42 0-4.648 3.86-8.426 8.62-8.426 4.763 0 8.62 3.778 8.62 8.427 0 4.65-3.857 8.42-8.62 8.42z" fill="#231F20"/><path d="M27.401 23.838c-5.326 0-9.643-4.217-9.643-9.419C17.758 9.217 22.075 5 27.4 5c5.326 0 9.643 4.217 9.643 9.42 0 5.201-4.317 9.418-9.643 9.418z" fill="#000" fill-rule="nonzero"/><path d="M27.418 23.232c4.973 0 9.004-3.937 9.004-8.794 0-4.858-4.03-8.795-9.004-8.795-4.973 0-9.004 3.937-9.004 8.795 0 4.857 4.031 8.794 9.004 8.794z" fill="#FFCF01"/><path d="M28.81 28.525a1.05 1.05 0 00-.34.06v1.528c.065.02.19.035.314.035.445 0 .707-.3.707-.832 0-.504-.25-.79-.68-.79zm-.097 2.304c-.524 0-1.028-.096-1.323-.206V26.6h1.08v1.353c.138-.049.373-.085.556-.085.916 0 1.544.497 1.544 1.373 0 1.074-.66 1.588-1.857 1.588zm4.016-1.38c-.581.023-1.02.075-1.02.415 0 .233.242.36.627.36.151 0 .322-.02.393-.043v-.732zm-.36 1.38c-1.111 0-1.662-.333-1.662-.945 0-.758.956-.935 2.022-.98v-.112c0-.228-.196-.336-.563-.336-.34 0-.745.092-1 .176l-.262-.584c.314-.1.75-.227 1.395-.227.961 0 1.445.316 1.445 1.076v1.726c-.268.11-.812.205-1.375.205zm3.77-.064v-1.857c0-.24-.14-.397-.525-.397-.201 0-.38.073-.38.073v2.18h-1.078v-2.716a4.748 4.748 0 011.472-.227c1.106 0 1.59.364 1.59.987v1.957h-1.08zm3.657 0l-1.08-1.428h-.013v1.428h-1.066V26.6h1.066v2.532h.013l.975-1.227h1.217l-1.099 1.332L41 30.765h-1.204zm-14.437 1.143h-1.131l.53-1.143-1.33-2.86h1.175l.717 2.031.71-2.031h1.175l-1.846 4.003zm-5.616-4.984h-1.257l-.83 2.373-.83-2.373h-1.257L15 30.764h1.027l.327-2.64.962 2.64h.68l.963-2.64.327 2.64h1.027l-.57-3.84zm2.728 2.525c-.582.023-1.02.075-1.02.415 0 .233.242.36.628.36.15 0 .32-.02.392-.043v-.732zm-.36 1.38c-1.113 0-1.661-.333-1.661-.945 0-.758.955-.935 2.021-.98v-.112c0-.228-.196-.336-.563-.336-.34 0-.746.092-1 .176l-.263-.584c.314-.1.844-.227 1.394-.227.962 0 1.446.316 1.446 1.076v1.727c-.267.11-.811.204-1.374.204zM23.548 13.883c-.67-.168-1.26.598-1.588 1.177.114-.792 1.11-2.09 1.588-1.177m-1.474.009c.225-.752.758-1.028 1.043-.806-.388.117-.669.341-1.043.806m1.712 1.208c.345-.285.31-.705-.226-.844-.395-.098-1.25.602-1.343 1.372.344-.428 1.331-1.217 1.569-.528m5.38 2.005c.062-.991-.924-1.454-1.113-2.47-.185-1.016 1.538-2.64.45-4.302 2.056 1.62.445 2.58 1.483 3.926-.403-.12-.8-.468-.92-.65-.578.742 1.416 1.763.1 3.496m-3.309-7.99c.243.001.662.169.491.36-.57.517-1.34.304-1.951.83.25-.651 1.367-.745 1.46-1.19" fill="#231F20" fill-rule="nonzero"/><path d="M25.058 11.428c-.074 0-.142-.101-.162-.234.098.242.344.127.204-.223.088.002.227.013.486-.002-.271.138-.39.462-.528.459m2.551-1.454c.239-.264.02-.622-.96-.74 1.021.484-.62.591-.677 1.43-.535.204-.964-.136-1.23.098-.257.227-.554.07-.468-.19-.309.154-.247.565.054.693.06.025.112.08.067.121-.33.305-.485.572-.14.87.19-.337.285-.46.495-.625.197.127.543.037 1.01-.457.022-.029.054-.018.042.013-.37 1.246-1.317 1.447-1.62 1.388.18.27 1.386.434 1.539-.091.342-1.186 1.51-1.703.5-1.68.274-.313 1.191-.605 1.388-.83m.51-.639c.489.31.72.513 1.038.884.06-.506-.233-1.508-.67-1.738-.187-.1-.457.601-.368.854" fill="#231F20" fill-rule="nonzero"/><path d="M20.384 13.316c.315-.812 1.082-1.78 2.327-2.498.288-.726.193-1.216 3.208-2.36.077-.433.063-.957.189-.957.13 0 .574.197.893.641.132-.01.248-.022.329-.039.054-.252.235-.948.47-1.308.217-.33.636-.366 1.178.072.56.446.957.63 1.726 1.591.65.285 1.667.65 2.548 1.707-.383-.25-.816-.342-1.172-.38.718.614 1.192 1.63.833 3.113-.143-1.386-1.186-1.969-1.824-2.407.345 1.168-1.154.762-1.612-.117.15.047.308.041.402-.016-.052-1.79-.91-2.817-1.294-3.124-.493-.4-.756.56-.923 1.277a.514.514 0 01-.53.405c.06-.087.126-.32.137-.395-.758.063-1.613.499-2.137.73-1.334.588-1.668.883-1.963 1.87-1.056.438-2.275 1.626-2.785 2.195" fill="#231F20" fill-rule="nonzero"/><path d="M27.004 13.09c.148.166 1.027 1.463.009 3.112.278-1.213-.496-3.537-1.35-2.347.58.243.768.706.613 1.156-.237-.435-.84-.903-1.438-.71-.298.104-.693.106-.989-.326-.385-.545.261-1.23-.839-1.175 1.33-.658.945.62 1.587.778.746.17.834-.276 1.091-.565.207-.247.588-.431.989-.17.19-.567-.088-1.469.457-1.944.201-.176.842-.151 1.173.103-.471-.006-1.026.544-1.303 2.088" fill="#231F20" fill-rule="nonzero"/><path d="M24.112 18.292c-.064-.05-.24-.275-.224-.515.224.14.528.212.528.212s-.144.238-.304.303m1.338-1.429c.132.02.246.124.366.037.118-.085-.005-.43-.098-.547.117-.02.58.026.556.187-.054.432-.329.567-.99.877.112-.102.094-.329.166-.554m-2.65-.348c.057-.133.31-.305.424-.316-.045.373.095.882.095.882s-.514-.318-.519-.566m-1.69-1.654c-.242-.165-.621-.551-.661-.691.047-.053.25-.265.508-.338.187-.048.31.054.282.109-.026.066-.193.066-.242.205-.075.212.166.279.216.374.028.062.094.22-.103.342m12.847-4.076c.679 2.309.489 4.533-.21 5.864.087-.833-.662-2.051-.36-3.474-1.419 1.344.797 4.643-2.418 6.809.48-.757.698-2.634.527-3.318.171.069.345.273.455.45.266-.864.3-2.084-.206-3.322.176.025.537.18.702.33.08-1.908-1.35-2.05-1.618-2.569 0 .558.667 1.027.79 1.756-.47-.217-.81-.239-1.051-.217.362.26 1.165 1.782.928 3-.346-.285-.667-.416-1.014-.446.426.634.599 2.283.068 3.043-.015-.173-.078-.668-.278-.873-.252.925-.99 1.313-1.499 1.432.631-.644.508-1.787-.415-2.09-.829-.277-1.885.274-2.314 2.203-.598.173-2.398-.202-1.322-1.339.656.217 2.323-.87 2.212-1.637-.162-1.064-1.153-1.437-1.942-1.431-.973.017-1.63.904-2.426 1.287-.663-.098-.89-.19-1.228-1.057-.043-.526.533-.898.524-1.444-.473.095-.59-.598-1.51.123-.072-.131.05-.442.05-.442-.34.302-.405.657-.412.731.167.322.4.612.852.899.543 1.419 1.1 1.576 1.676 1.63.098.134.524.632 1.065.712-.092-.267-.106-1.017-.051-1.204 1.178-1.154 2.053-.452 2.167-.145-1.047.206-.307 2.392-2.043 1.42-.07.224.027.782.247 1.108.177 1.493 2.104 1.132 2.702 1.39-.067-1.452.758-2.513 1.466-2.426.711.087.894 1.218-.316 2.287.297.159 1.595-.057 2.257-.525.06.371-.428 1.458-1.036 2.232 5.092-1.143 7.366-6.534 4.981-10.747" fill="#231F20" fill-rule="nonzero"/></g></g></svg>