<?xml version="1.0" encoding="UTF-8"?><svg width="56" height="36" viewBox="0 0 56 36" xmlns="http://www.w3.org/2000/svg" xmlns:xlink="http://www.w3.org/1999/xlink"><defs><path id="a" d="M0 5.694V.052h3.832v5.642z"/></defs><g fill="none" fill-rule="evenodd"><path d="M0 3.75A3.749 3.749 0 013.75 0h48.5A3.756 3.756 0 0156 3.75v28.5A3.749 3.749 0 0152.25 36H3.75A3.756 3.756 0 010 32.25V3.75z" fill="#000" fill-rule="nonzero"/><path d="M1.25 3.75v28.5c0 1.375 1.123 2.5 2.5 2.5h48.5c1.382 0 2.5-1.118 2.5-2.5V3.75c0-1.375-1.123-2.5-2.5-2.5H3.75a2.499 2.499 0 00-2.5 2.5z" fill="#FFF"/><path d="M42.047 17.441c.012-.56-.091-1.065-.637-1.324-.54-.257-1.044-.097-1.47.269-.64.55-.92 1.291-.888 2.151.039 1.042.833 1.554 1.748 1.108.887-.434 1.218-1.234 1.247-2.204zm-4.731 5.38c.193-1.433 1.434-7.67 1.434-7.67h.802l-.105.586c.182.091.263-.066.372-.152.662-.524 1.389-.65 2.156-.32.765.33 1.05 1.021 1.084 1.82.055 1.283-.33 2.39-1.37 3.16-1.028.76-2.026.644-2.944-.321-.137.981-.34 1.816-.446 2.896h-.983z" fill="#23A2CC"/><path d="M24.42 22.82c-.341-.19-.571-.4-.571-.4s.185-.306.377-.646c.248.328.818.727 1.376-.094.471-.526.441-1.179.441-1.179s-.032-.196-.077-.303c-.618-1.49-2.021-5.077-2.021-5.077h.906s1.269 2.979 1.702 4.153c.404-1.145 1.594-4.153 1.594-4.153h.938s-2.31 6.101-2.415 6.403c-.224.643-.674 1.044-1.266 1.296-.49.119-.569.148-.984 0" fill="#3161A0"/><path d="M47.916 22.82c-.194-.134-.485-.291-.391-.443.121-.197.149-.25.289-.475.133-.197.16-.08.308-.043.903.232 1.874-.814 1.664-1.768-.33-1.492-1.095-4.933-1.095-4.933h.959s.858 4.1.894 4.25c.633-1.196 2.413-4.25 2.413-4.25h.94s-2.766 4.856-3.466 6.138c-.37.677-.833 1.22-1.531 1.524h-.984z" fill="#23A2CC"/><g transform="translate(3 15.042)"><mask id="b" fill="#fff"><use xlink:href="#a"/></mask><path d="M.442 4.217l.477.251c.439.274.925.442 1.451.24.24-.093.41-.267.442-.529.03-.25-.12-.44-.323-.546-.437-.228-.892-.42-1.33-.647-.766-.4-1.048-.88-.962-1.598C.276.725.744.265 1.537.104 2.163-.022 2.76.087 3.335.382c.33.17.331.35.175.665-.15.303-.252.375-.552.168a1.509 1.509 0 00-1.258-.21c-.256.066-.469.214-.503.526-.032.288.119.472.345.585.441.221.898.409 1.334.638.718.377 1.027.91.942 1.56-.089.68-.603 1.173-1.38 1.328C1.513 5.826.723 5.508 0 4.938c0-.038.203-.349.442-.721" fill="#3161A0" mask="url(#b)"/></g><path d="M22.582 13.048c-.006.548 0 2.073 0 2.073h1.17v.818h-1.17s-.012 2.19 0 2.719c.016.718.256 1.146.927 1.18.118.006.34 0 .34 0v.772s-.246.002-.408 0c-1.18-.013-1.858-.973-1.889-1.811-.014-.832 0-2.86 0-2.86h-.784v-.818h.784v-2.073h1.03zM14.575 15.093h.576v.844h-1.103v4.799c-.247 0-.873-.006-.998-.006v-4.793h-.598l.014-.844h.687s0-.063.005-.24c.024-.982.472-1.503 1.317-1.805.422-.107.874 0 .874 0v.912s-.188-.01-.437 0c-.261.012-.383.091-.574.282-.19.192-.246.448-.272.71-.014.14.015.106.04.141M16.554 17.298h2.934s-.205-1.346-1.395-1.358c-.558-.005-1.45.294-1.54 1.358m.407.758c-.469-.034-.465.193-.356.546.29.935 1.199 1.425 2.19 1.15.242-.067.478-.182.694-.315.207-.128.353-.242.5.081.118.262.287.451-.067.695-1.098.758-2.67.678-3.597-.222-.898-.872-1.095-2.43-.454-3.604a2.471 2.471 0 012.863-1.195c.994.293 1.576 1.23 1.562 2.445-.004.36-.122.45-.445.434-.49-.026-2.42.02-2.89-.015M9.15 19.887c.712.01 1.225-.485 1.431-1.265.107-.404.091-.645-.42-.597-.417.04-.835.044-1.231.202-.414.166-.685.447-.601.944.087.517.448.694.82.716m1.576-.115c-.555.694-1.207 1.135-2.13.907-.738-.183-1.207-.69-1.29-1.423-.082-.709.282-1.336.99-1.656a4.199 4.199 0 011.92-.348c.404.017.464-.139.364-.503-.127-.46-.413-.694-.853-.751-.51-.067-.986.067-1.406.347-.324.215-.367-.053-.466-.231-.102-.184-.282-.376.039-.548.823-.441 1.674-.64 2.577-.313.733.266 1.135.925 1.147 1.878.014 1.06-.012 2.12.012 3.179.01.372-.123.453-.441.43-.294-.021-.566-.017-.49-.453.025-.149.032-.3.048-.45a.064.064 0 00-.021-.065" fill="#3161A0"/><path d="M32.63 17.935c-.688.746-1.542 1.277-2.356 2.036v-2.04c.785 0 1.57.003 2.356.004" fill="#23A2CC"/><path d="M32.63 17.935l-2.356-.005v-1.99c.81.703 1.643 1.27 2.356 1.995" fill="#3161A0"/><path d="M46.167 18.03a2.767 2.767 0 00-1.275.278c-.47.232-.696.706-.546 1.097.15.387.64.572 1.126.404.55-.192.898-.615 1.147-1.14.302-.638.28-.672-.452-.64m.325 1.838c-.425.408-.828.747-1.375.834-.76.121-1.493-.23-1.735-.861-.245-.637.013-1.458.622-1.903.713-.521 1.54-.64 2.384-.697.237-.016.586.147.596-.339.01-.447-.118-.792-.58-.888-.523-.108-1.008.046-1.48.268-.154.072-.36.305-.452-.065-.063-.254-.348-.54.122-.732.723-.296 1.45-.513 2.23-.318.905.224 1.328.916 1.156 1.929-.181 1.06-.434 2.11-.577 3.175-.03.23 0 .23 0 .425 0 .2-.984.083-1.013 0-.076-.22.102-.726.102-.828" fill="#23A2CC"/><path d="M42.047 17.441c-.03.97-.36 1.77-1.247 2.204-.915.446-1.71-.066-1.748-1.108-.031-.86.248-1.6.888-2.151.426-.366.93-.526 1.47-.269.546.259.65.765.637 1.324M9.15 19.887c-.373-.022-.734-.2-.821-.716-.084-.497.187-.778.6-.944.397-.158.815-.162 1.231-.202.512-.048.528.193.421.597-.206.78-.719 1.275-1.431 1.265M46.167 18.03c.733-.033.754.001.452.638-.249.526-.597.95-1.147 1.14-.485.17-.977-.016-1.126-.403-.15-.39.077-.865.546-1.097a2.767 2.767 0 011.275-.279" fill="#FCFCFD"/><path d="M31.198 13.048v1.257c1.927 0 3.49 1.625 3.49 3.629h1.21c0-2.699-2.105-4.886-4.7-4.886" fill="#3161A0"/><path d="M31.198 21.563v1.257c2.595 0 4.7-2.187 4.7-4.886h-1.21c0 2.004-1.563 3.63-3.49 3.63" fill="#23A2CC"/></g></svg>