<?xml version="1.0" encoding="UTF-8"?><svg width="56" height="36" viewBox="0 0 56 36" xmlns="http://www.w3.org/2000/svg"><defs><linearGradient x1="50%" y1="-.048%" x2="50%" y2="100.001%" id="a"><stop stop-color="#119BD7" offset="0%"/><stop stop-color="#2C81C3" offset="100%"/></linearGradient><linearGradient x1="49.92%" y1=".088%" x2="49.92%" y2="100.004%" id="b"><stop stop-color="#0661AB" offset="0%"/><stop stop-color="#1E4C9F" offset="100%"/></linearGradient><linearGradient x1="1221%" y1="3666%" x2="1221%" y2="5765%" id="c"><stop stop-color="#0661AB" offset="0%"/><stop stop-color="#1E4C9F" offset="100%"/></linearGradient><linearGradient x1="50%" y1="-.048%" x2="50%" y2="100.001%" id="d"><stop stop-color="#EC1D2F" offset="0%"/><stop stop-color="#C7202F" offset="100%"/></linearGradient></defs><g fill="none" fill-rule="evenodd"><path d="M0 3.75A3.749 3.749 0 013.75 0h48.5A3.756 3.756 0 0156 3.75v28.5A3.749 3.749 0 0152.25 36H3.75A3.756 3.756 0 010 32.25V3.75z" fill="#000" fill-rule="nonzero"/><path d="M1.25 3.75v28.5c0 1.375 1.123 2.5 2.5 2.5h48.5c1.382 0 2.5-1.118 2.5-2.5V3.75c0-1.375-1.123-2.5-2.5-2.5H3.75a2.499 2.499 0 00-2.5 2.5z" fill="#FFF"/><g fill-rule="nonzero"><path d="M8.058 9.948L3.12 7.705a.528.528 0 01-.311-.476v-6.7A.533.533 0 013.56.053L8.5 2.29c.187.086.309.271.31.477v6.7c0 .18-.091.347-.243.444a.533.533 0 01-.508.037z" fill="url(#a)" transform="translate(9 8)"/><path d="M12.882 12.105l-2.47-1.167a.276.276 0 01-.152-.252V7.205a.27.27 0 01.378-.252l2.469 1.166a.276.276 0 01.153.252v3.481a.27.27 0 01-.378.252z" fill="url(#b)" transform="translate(9 8)"/><path d="M5.245 15.148L.31 12.905A.528.528 0 010 12.429v-6.7a.533.533 0 01.751-.476L5.69 7.494c.188.085.309.271.31.476v6.696c.001.18-.091.35-.244.447a.533.533 0 01-.511.034z" fill="url(#c)" transform="translate(9 8)"/><path d="M10.145 19.724L5.206 17.48a.528.528 0 01-.31-.476v-6.7a.533.533 0 01.751-.476l4.938 2.242c.188.086.31.271.311.477v6.695a.533.533 0 01-.751.481z" fill="url(#d)" transform="translate(9 8)"/><path d="M25.643 20.214c-.316.829.029 1.6.866 1.524 1.12-.105 1.522-.724 1.498-1.395-.024-.672-.234-.648-1.435-1.481-.642-.438-1.044-.8-1.053-1.467 0-.952.67-2.21 2.46-2.38 1.11-.1 1.799.661 1.799 1.347.004.256-.022.512-.077.762h-1.01c.211-.657 0-1.372-.875-1.29-1.02.1-1.374.737-1.374 1.323 0 .767 1.522 1.4 1.522 1.4.594.237.996.794 1.034 1.429 0 .838-.287 2.314-2.283 2.466-2.531.196-2.134-1.795-2.005-2.257l.933.02zM33.434 15.267h1.139l.832 7.071-1.014.038-.153-1.728h-2.776l-.9 1.68h-.851l3.723-7.061zm-1.541 4.647h2.316l-.35-3.757-1.966 3.757zM44.794 15.267l-1.383 7.062h-1.053l1.33-6.215-3.277 6.215h-.929L38.78 16.1l-1.168 6.229h-.957l1.565-7.062h1.435l.513 5.923 3.12-5.923zM45.272 20.981h1.044l-.024.162h-.417l-.272 1.267h-.206l.253-1.234h-.392zM47.79 20.981l-.273 1.429h-.206l.263-1.224-.646 1.224h-.182l-.139-1.229-.253 1.229h-.187l.326-1.429h.282l.1 1.167.618-1.167z" fill="#000"/></g></g></svg>