<?xml version="1.0" encoding="UTF-8"?><svg width="56" height="36" viewBox="0 0 56 36" xmlns="http://www.w3.org/2000/svg"><g fill="none" fill-rule="evenodd"><path d="M0 3.75A3.749 3.749 0 013.75 0h48.5A3.756 3.756 0 0156 3.75v28.5A3.749 3.749 0 0152.25 36H3.75A3.756 3.756 0 010 32.25V3.75z" fill="#000" fill-rule="nonzero"/><path d="M1.25 3.75v28.5c0 1.375 1.123 2.5 2.5 2.5h48.5c1.382 0 2.5-1.118 2.5-2.5V3.75c0-1.375-1.123-2.5-2.5-2.5H3.75a2.499 2.499 0 00-2.5 2.5z" fill="#FFF"/><g><path d="M32.437 20.487h-1.588a.865.865 0 00-.577.231.985.985 0 00-.286.539c-.265.818-.53 1.614-.788 2.465-.133.414-.265.812-.392 1.227a2.825 2.825 0 00-.175.646.407.407 0 00.13.293c.08.076.19.114.299.105h17.635c.44 0 .868.059 1.17-.43.106-.173 1.228-3.795 1.392-4.306.074-.232.159-.447 0-.64-.159-.195-.413-.135-.678-.135H33.31c-.058.043-.71.963-.831 1.124-.185.259-.667.985-.9 1.077a.34.34 0 01-.36-.117.355.355 0 01-.037-.384c.19-.457 1.191-1.49 1.25-1.679l.005-.016z" fill="#D0271F"/><path d="M26.668 19.873c-.075.131-.16.255-.254.372l-.26.355c-.185.248-.365.463-.529.7a17.018 17.018 0 01-2.482 2.486c-.117.092-1.366 1.077-1.588.85-.222-.226.826-1.399.926-1.501a19.279 19.279 0 012.705-2.26l.73-.539c.132-.091.64-.452.746-.5l.006.037zm-10.83-1.84a3.495 3.495 0 01-.338 1.873 4.144 4.144 0 01-2.488 1.959c-.402.129-1.534.355-1.873.07-.704-.592 1.514-2.04 1.884-2.282a30.146 30.146 0 012.837-1.615l-.021-.005zm24.718-1.157c.386-.124.232.274.137.435a2.718 2.718 0 01-.391.474c-.773.77-1.625.985-1.154.28.116-.168.247-.325.391-.468.29-.305.635-.55 1.017-.721zm4.424.936a2.965 2.965 0 011.122-1.265c.059-.043.456-.29.53-.194.074.097-.207.485-.244.539-.132.131-.275.25-.429.355a5.686 5.686 0 01-1 .576l.021-.011zm-28.146-3.11a5.248 5.248 0 011.127-1.336c.43-.392.899-.74 1.397-1.038.112-.07.985-.582 1.122-.458.292.264-1.44 1.4-1.672 1.556-.328.22-.651.425-.98.65l-.497.324c-.156.11-.318.211-.487.301h-.01zm15.603 5.785c-.059.188-1.059 1.227-1.25 1.68a.355.355 0 00.037.382.34.34 0 00.36.118c.233-.07.715-.797.9-1.077.122-.167.773-1.076.831-1.125a3.23 3.23 0 01.286-.414c.423-.538 1.403-2.013 1.789-2.395.32-.394.73-.701 1.196-.894.873-.28-.09 1.045-.593 1.41-.592.431-.72.216-1.058.329a.344.344 0 00.02.297c.052.09.142.152.244.166.763.145 3.176-1.572 3.705-1.615-.078.11-.165.212-.259.307-.26.323-.471.904-.08 1.179.392.274 1.303-.27 1.588-.48.286-.21.434-.312.651-.478.403-.313 1.678-1.254 2.075-1.319l.249.178c.143.156-.175.382-.286.484-.323.29-.91.689-.91 1.254 0 1.076 1.89.13 2.429 0 .058.075.106.188.164.264.836 1.076 4.393.409 5.208-.092.286-.177.143-.371-.18-.36-.233.04-.463.098-.688.172-.952.306-1.944.47-2.943.484-.476 0-1.058-.177-1.058-.673.549-.25 1.08-.54 1.588-.866.246-.165.458-.377.624-.624a.545.545 0 00-.18-.835c-.778-.452-1.91.625-2.297 1.217-.18.284-.286.61-.307.947-.32.153-.653.276-.995.366-.137.038-.434.118-.556.027-.354-.258.63-.974.794-1.109.132-.096.248-.212.344-.344a.349.349 0 00-.074-.49c-.121-.08-.38-.135-.45-.22-.142-.168.106-.334.085-.539-.048-.387-.609-.274-.725.183-.058.232 0 .167-.302.366a14.19 14.19 0 01-1.238.824.503.503 0 00.047-.318c-.031-.113-.116-.118-.164-.22-.047-.103.133-.151.037-.291-.27-.393-1.794.387-2.064.511-.36.167-.73.366-1.058.538-.159.092-.942.538-1.059.57.085-.14.313-.328.466-.586a.906.906 0 00.138-.823c-.291-.539-1.36.14-1.535.145 0-.119.354-.603.434-.721a2.3 2.3 0 00.217-.356.23.23 0 00-.03-.23.22.22 0 00-.214-.082c-.185 0-.608.36-.725.458-.836.7-1.64 1.448-2.567 2.083a9.697 9.697 0 01-.344.231c-.116.075-.27.194-.407.15-.064-.241.248-.607.36-.758.09-.107.165-.227.222-.355a.217.217 0 00-.071-.204.209.209 0 00-.21-.038.895.895 0 00-.333.236 6.39 6.39 0 01-1.667 1.206c-.561.242-.387-.237-.207-.484.403-.539 1.435-1.287 2.25-1.158.164 0 .423.081.365-.172-.027-.118-.207-.199-.344-.237-1.217-.301-2.26.786-3.15 1.367-.153.097-1.259.83-1.412.878.205-.385.381-.784.529-1.195.053-.194.127-.598-.132-.598-.138 0-.186.103-.25.173a7.532 7.532 0 01-1.058 1.076c-.153.124-.847.678-1.117.57-.142-.435.879-1.194 1.16-1.377a3.11 3.11 0 011.64-.592c.117 0 .201.037.286-.043.117-.237-.37-.334-.572-.35a3.962 3.962 0 00-2.159.726c-.429.237-.804.469-1.212.722-.143.091-1.127.72-1.265.624-.138-.097 0-.178.042-.242.143-.275.614-.797.53-1.077a.38.38 0 00-.418-.258c-.445.032-1.461.883-1.731.92.042-.263.81-.796.783-1.34-.042-.91-2.599.84-2.763.953-.41.308-.856.565-1.328.764 0-.328 1.62-1.372 1.455-1.921-.1-.334-.56-.14-.788-.06-.577.151-1.106.388-1.636.614l-1.587.667a4.963 4.963 0 010-1.873c0-.086 0-.053.063-.091.291-.21.651-.414.958-.614a36.173 36.173 0 003.287-2.32c.243-.21.942-.742.53-1.113-.53-.485-2.25.538-2.647.818-.506.311-.981.672-1.419 1.076a5.849 5.849 0 00-1.355 1.77l-.09.221c-.11.313-.121.232-.481.458l-.387.248c-.529.333-1.016.645-1.53.98-1.01.656-2.021 1.307-2.968 2.05l-.35.263-2.01 1.744c-.112.113-.191.215-.308.328-.1.106-.193.218-.28.334-.26.35-.657.829-.556 1.335a.648.648 0 00.257.426c.138.101.31.142.479.112.164-.022.32-.085.455-.183.08-.054.307-.237.19-.366-.116-.129-.238.086-.333.135-.434.199-.418-.307-.085-.824.264-.388.565-.749.9-1.076l.254-.248a39.893 39.893 0 015.34-4.182l.598-.393c.203-.145.415-.277.635-.392v.893c0 .296.075.57.08.834-.14.08-.286.152-.434.216l-.45.22a21.467 21.467 0 00-3.705 2.24l-.18.15a1.756 1.756 0 00-.667 1 .886.886 0 00.577.765 3.35 3.35 0 002.234 0 5.6 5.6 0 001.81-.866c.512-.37.937-.852 1.244-1.41.343-.701.463-1.493.344-2.266.338-.146 2.762-1.324 3.011-1.19.032.086-.058.172-.106.22l-.529.54c-.246.226-.48.466-.699.72-.153.183-.529.592-.322.937.206.344.714-.06.931-.21.826-.576 1.662-1.19 2.525-1.728.164-.102.746-.511.968-.43.074.247-.725 1.076-.878 1.275-.154.2-.636.727-.561 1.028a.22.22 0 00.126.16.214.214 0 00.202-.014c.402-.227 2.064-1.841 2.546-1.771.031.167-.503.872-.614 1.076-.313.538-.239.937.46.62a15.944 15.944 0 001.62-.91c.169-.115.346-.217.529-.307-.053.124-.164.242-.238.382-.254.468-.18 1.184.56.953.435-.17.836-.416 1.186-.727.08-.065.275-.248.37-.248a2.774 2.774 0 01-.407.942c-.09.156-.069.14-.227.237l-1.117.7a25.098 25.098 0 00-3.705 2.69l-.471.453c-.075.073-.145.15-.212.231a2.95 2.95 0 00-.206.253c-.53.738-.656 1.653.44 1.416a4.285 4.285 0 001.243-.576c.369-.233.723-.49 1.058-.77a17.105 17.105 0 001.752-1.679l.53-.619c.137-.172.27-.339.397-.538.259-.355.486-.71.735-1.076.117-.183.223-.366.334-.539a1.96 1.96 0 01.529-.387c.371-.25.759-.475 1.159-.673 0 .323-.032.538.175.694.423.318 1.233-.226 1.614-.468.09-.065.186-.123.286-.172-.28.743.407.791.905.538.889-.457 2.895-2.298 3.228-2.298 0 .167-.28.42-.38.538-.265.328-2.806 3.515-2.89 3.552l.02-.005z" fill="#0056A3"/><path d="M45.78 21.655h-2.118l-.158.538h.714l-.815 2.61h.646l.841-2.615h.73l.16-.539v.006zm-12.105.49c.381 0 .693-.065.53.425a.58.58 0 01-.53.468h-.286l.28-.888.006-.005zm-.44 1.372c.394.057.794-.009 1.15-.188a1.45 1.45 0 00.529-.824c.127-.463.047-.786-.408-.845a10.712 10.712 0 00-1.318 0c-.037.065-1 3.036-1.01 3.143h.645l.413-1.28v-.006zm4.235-1.432c.614-.134.233.813.116 1.174-.116.36-.301 1.028-.666 1.103-.636.13-.265-.775-.133-1.179.133-.403.291-1.011.678-1.076l.005-.022zm1 .393c.096-.538-.074-.812-.571-.866-.953-.097-1.376.43-1.662 1.243a7.206 7.206 0 00-.334 1.13c-.095.538.096.797.583.856.91.102 1.386-.425 1.656-1.232.138-.368.25-.746.334-1.13h-.006zm1.196 1.346c-.063.264-.222.592 0 .834.232.176.526.244.81.188a1.198 1.198 0 001.17-.855c.275-.765-.36-.9-.693-1.217a.403.403 0 01.116-.646c.111-.053.312-.086.392 0 .079.087 0 .286 0 .404h.63a.71.71 0 000-.786 1.309 1.309 0 00-1.133-.07c-.37.15-.653.46-.773.845-.19.722.53.85.783 1.195.175.253-.058.57-.264.63-.207.06-.328 0-.376-.092-.048-.091.032-.317.053-.441l-.715.01zM16.834 14.701c.168-.09.33-.19.487-.301l.497-.323c.328-.226.657-.425.98-.651.232-.156 1.963-1.292 1.672-1.556-.138-.124-1.011.393-1.122.458a8.678 8.678 0 00-1.397 1.038 5.248 5.248 0 00-1.127 1.335h.01z" fill="#FFF"/><path d="M21.618 13.835c-.219.092-.414.233-.571.414-.154.194-.138.689.217.452l.587-.414c.096-.07.212-.151.122-.329a.263.263 0 00-.333-.129l-.022.006z" fill="#0070B3"/></g></g></svg>