<?xml version="1.0" encoding="UTF-8"?><svg width="56" height="36" viewBox="0 0 56 36" xmlns="http://www.w3.org/2000/svg"><g fill="none" fill-rule="evenodd"><path d="M0 3.75A3.749 3.749 0 013.75 0h48.5A3.756 3.756 0 0156 3.75v28.5A3.749 3.749 0 0152.25 36H3.75A3.756 3.756 0 010 32.25V3.75z" fill="#000" fill-rule="nonzero"/><path d="M1.25 3.75v28.5c0 1.375 1.123 2.5 2.5 2.5h48.5c1.382 0 2.5-1.118 2.5-2.5V3.75c0-1.375-1.123-2.5-2.5-2.5H3.75a2.499 2.499 0 00-2.5 2.5z" fill="#FFF"/><g fill="#EA1D25" fill-rule="nonzero"><path d="M8.243 15.251c-.096.228-.1.248-.1.653 0 .506-.023.442.6 1.641.514.992.571 1.143.571 1.541 0 .292-.078.647-.177.79-.042.06-.045.06-.063-.02-.037-.137-.244-.559-.864-1.755-.325-.623-.614-1.209-.64-1.302l-.052-.171-.072.157a1.775 1.775 0 00-.084 1.213c.027.09.267.586.532 1.098.268.52.509 1.025.542 1.139.099.355.042.944-.12 1.23l-.046.08-.054-.168c-.027-.094-.183-.425-.343-.737l-.578-1.112c-.303-.586-.379-.784-.412-1.088-.015-.128-.036-.191-.063-.191-.07 0-.562.204-.752.308-.56.315-.92.737-1.026 1.196-.226 1.001.806 1.932 2.428 2.197a7.6 7.6 0 001.561.017c1.189-.165 2.142-.72 2.458-1.43.1-.222.112-.279.112-.51a.958.958 0 00-.097-.482c-.213-.512-.73-.941-1.459-1.212l-.307-.114-.02-.178c-.03-.258-.079-.365-.699-1.56-.307-.597-.586-1.17-.62-1.273l-.057-.191-.099.234zm5.632 1.705c-.538.13-.857.482-.933 1.011-.078.563.118 1.045.545 1.354.093.067.352.21.572.318.499.244.716.382.836.536.114.144.135.23.117.475-.015.174-.027.205-.138.312a.787.787 0 01-.25.164c-.337.114-.884.074-1.36-.097-.183-.067-.267-.084-.276-.057-.03.104-.073.325-.09.479l-.022.174.166.067c.409.17 1.278.234 1.7.124.418-.11.749-.372.9-.714.074-.174.083-.224.083-.559 0-.335-.009-.385-.084-.56-.156-.358-.487-.626-1.18-.95-.499-.235-.766-.456-.815-.67-.03-.138.003-.399.067-.493a.69.69 0 01.207-.174c.307-.167.776-.144 1.447.07.057.017.07-.003.115-.2.027-.121.048-.278.048-.349 0-.13 0-.13-.172-.184a3.835 3.835 0 00-.37-.09c-.259-.044-.905-.037-1.113.013zm29.754-.027l-.298.05c-.123.02-.243.044-.264.054-.034.013-.04.459-.04 2.375v2.358h.692V19.99H44l.277.004.511.884.512.888h.4c.217 0 .397-.007.397-.014s-.247-.419-.55-.91c-.301-.497-.56-.919-.572-.942-.015-.027.033-.07.144-.127.346-.184.626-.573.707-.992.021-.107.033-.321.024-.502-.015-.405-.11-.657-.34-.898-.321-.338-.61-.438-1.308-.455a5.465 5.465 0 00-.572.003zm.918.704c.255.073.421.19.511.365.16.298.127.753-.069.994-.199.245-.442.329-.954.329h-.316v-.851c0-.784.003-.854.055-.868.126-.036.607-.02.773.03zm2.47-.67a.794.794 0 00-.235.073c-.018.02-.265.854-.265.901 0 0 .073-.013.16-.037.397-.107.722-.418.872-.85l.051-.14-.19.002c-.101 0-.279.024-.393.05zm-23.304-.004c-.024.007-.145.03-.265.05l-.22.04.01 2.017.009 2.013.099.218c.174.392.448.546.954.549.15 0 .34-.017.427-.044.174-.046.162-.023.216-.465l.024-.215-.078.024c-.042.01-.207.027-.364.037-.265.02-.292.013-.388-.06a.654.654 0 01-.165-.195c-.06-.11-.064-.17-.064-1.072v-.954l.512-.017.511-.017.021-.167c.01-.094.021-.231.021-.312l.003-.14H23.893v-1.306l-.066.003c-.039.003-.09.01-.114.013zm11.026.004c-.048.006-.162.03-.247.05l-.16.033v1.126l-.402-.017c-.47-.017-.746.037-1.044.201-.35.194-.617.59-.722 1.065-.063.278-.054 1.038.015 1.286.111.419.286.717.511.888.229.174.455.248.77.248.253.003.307-.007.476-.094a.932.932 0 00.31-.248l.117-.154v.104c0 .057.009.154.018.21l.021.105h.623l-.006-2.405-.01-2.402-.09-.003c-.048-.003-.129 0-.18.007zm-.472 1.875l.066.02V20.99l-.1.067a1.005 1.005 0 01-.634.167c-.361-.027-.578-.204-.713-.586-.057-.164-.07-.258-.07-.596 0-.335.01-.432.064-.583.186-.506.46-.687 1.017-.657.165.007.33.024.37.037zm-16.923-.64c-.25.06-.575.255-.746.446-.16.18-.322.536-.38.827-.056.288-.047.921.013 1.19.156.662.484 1.034 1.026 1.161.394.09.749-.003.99-.26.084-.091.156-.165.162-.165.006 0 .009.06.009.13 0 .239 0 .239.349.239h.313V18.326l-.112-.037c-.415-.137-1.239-.184-1.624-.09zm.905.607l.139.023-.006 1.092-.01 1.089-.177.1c-.367.201-.806.147-1.056-.13-.328-.366-.367-1.257-.078-1.766.193-.335.64-.492 1.188-.408zm2.32-.633a12.94 12.94 0 00-.427.08l-.34.07v3.444h.692v-1.454c0-.87.012-1.464.027-1.477.018-.01.177-.027.358-.04.53-.034.788.067.914.351.07.154.07.178.079 1.387l.009 1.233h.659v-1.303c0-1.206-.003-1.32-.06-1.518-.109-.395-.383-.643-.828-.746-.195-.047-.842-.06-1.083-.027zm5.791.03a1.427 1.427 0 00-.983.824c-.142.325-.175.526-.172 1.048 0 .422.01.496.084.737.097.308.22.543.367.687.274.268.737.412 1.092.341a.87.87 0 00.536-.295c.138-.154.16-.144.16.09v.132h.631v-3.447l-.126-.04c-.445-.134-1.204-.17-1.589-.077zm1.017.63c.027.016.036.294.036 1.085v1.061l-.102.074c-.168.12-.424.188-.647.171-.346-.03-.565-.211-.698-.586-.057-.164-.069-.258-.069-.596 0-.335.012-.432.066-.59.118-.328.34-.55.65-.636.111-.034.713-.02.764.017zm2.037-.633a7.284 7.284 0 00-.412.087l-.175.04v3.44h.662v-1.457c0-1.36.003-1.46.054-1.48.027-.014.229-.024.443-.028.436 0 .607.047.743.211.138.165.144.245.144 1.534v1.22h.695l-.012-1.35c-.006-.941-.021-1.383-.045-1.47-.1-.332-.337-.573-.701-.714-.217-.08-1.047-.1-1.396-.033zm7.178.003c-.526.157-.875.61-.98 1.276-.157.961.12 1.802.704 2.15.442.261 1.2.302 1.744.094l.199-.077.054-.328c.03-.181.051-.335.045-.342a.956.956 0 00-.222.067 2.217 2.217 0 01-.933.147c-.38-.016-.587-.113-.743-.355-.081-.12-.202-.442-.202-.532 0-.007.488-.01 1.08-.01.668 0 1.09-.014 1.102-.034.036-.063.027-.824-.016-1.004-.12-.553-.43-.921-.887-1.052-.223-.067-.725-.067-.945 0zm.8.653c.22.117.328.308.386.673l.02.128h-1.521a.814.814 0 01.03-.289c.126-.408.34-.579.73-.582.169 0 .26.016.356.07zm2.236-.67c-.09.017-.256.054-.367.084l-.205.053v3.444h.692v-2.941l.199-.024c.108-.013.337-.016.508-.01l.31.017.018-.12c.01-.067.018-.215.018-.332v-.208l-.502.004a6.3 6.3 0 00-.671.033zm9.266.017a1.39 1.39 0 00-.7.449c-.28.338-.401.686-.431 1.256-.054 1.011.421 1.751 1.221 1.912.286.057.41.057.707-.003.632-.124 1.09-.616 1.222-1.306.05-.268.05-.861 0-1.089-.145-.643-.56-1.109-1.11-1.236-.22-.05-.71-.043-.909.017zm.78.636c.2.064.396.262.48.483.205.529.124 1.3-.174 1.627-.144.164-.292.228-.55.241-.455.027-.753-.167-.897-.582-.096-.268-.105-.868-.018-1.166.153-.519.644-.774 1.158-.603zm-3.157 1.152v1.776h.692v-3.551h-.692v1.775z"/></g></g></svg>