<?xml version="1.0" encoding="UTF-8"?><svg width="56" height="36" viewBox="0 0 56 36" xmlns="http://www.w3.org/2000/svg"><g fill="none" fill-rule="evenodd"><path d="M0 3.75A3.749 3.749 0 013.75 0h48.5A3.756 3.756 0 0156 3.75v28.5A3.749 3.749 0 0152.25 36H3.75A3.756 3.756 0 010 32.25V3.75z" fill="#000" fill-rule="nonzero"/><path d="M1.25 3.75v28.5c0 1.375 1.123 2.5 2.5 2.5h48.5c1.382 0 2.5-1.118 2.5-2.5V3.75c0-1.375-1.123-2.5-2.5-2.5H3.75a2.499 2.499 0 00-2.5 2.5z" fill="#FFF"/><g fill="#EA1D25" fill-rule="nonzero"><path d="M10.326 17.714a1.72 1.72 0 00-.26-.819L8.7 14.63c-.1-.172-.181-.362-.221-.553l-.06.095a1.726 1.726 0 000 1.81l1.104 1.81a1.726 1.726 0 010 1.809l-.06.095c-.04-.19-.12-.38-.221-.552l-1.004-1.657-.643-1.067c-.1-.171-.18-.362-.22-.552l-.061.095a1.726 1.726 0 000 1.81l1.104 1.809a1.726 1.726 0 010 1.81l-.06.095c-.04-.19-.12-.381-.22-.553L6.75 18.667a1.93 1.93 0 01-.26-.99C5.023 18.037 4 18.818 4 19.713c0 1.257 1.968 2.267 4.398 2.267 2.43 0 4.399-1.01 4.399-2.267.02-.857-.984-1.638-2.47-2zm4.158 3.867c.02-.324.06-.533.16-.8.462.21 1.065.305 1.507.305.763 0 1.205-.229 1.205-.705 0-.457-.322-.667-1.085-.99l-.422-.153c-.783-.324-1.305-.743-1.305-1.562 0-.895.663-1.466 1.988-1.466.542 0 1.045.076 1.506.228-.02.305-.08.552-.16.781a4.57 4.57 0 00-1.366-.229c-.723 0-1.044.267-1.044.686 0 .4.321.648.904.876l.441.172c1.045.419 1.487.876 1.487 1.638 0 .895-.723 1.524-2.13 1.524-.662 0-1.224-.096-1.686-.305zm8.254-3.752v3.923h-.843l-.04-.476c-.242.343-.583.572-1.165.572-1.085 0-1.828-.762-1.828-2.077 0-1.371.783-2.171 2.31-2.171.602.019 1.104.076 1.566.229zm-.904 3.028V18.4c-.18-.038-.401-.038-.662-.038-.944 0-1.386.552-1.386 1.428 0 .8.341 1.372 1.145 1.372a1.63 1.63 0 00.903-.305zm5.563-1.733v2.628h-.903v-2.476c0-.628-.221-.914-1.125-.914-.22 0-.462.019-.723.057v3.333h-.904V17.83c.583-.134 1.225-.229 1.647-.229 1.526.019 2.008.571 2.008 1.524zm2.531 2c.261 0 .522-.038.703-.114-.02.228-.06.495-.1.723a2.15 2.15 0 01-.764.134c-.883 0-1.446-.381-1.446-1.334V16.4a2.97 2.97 0 01.904-.133v1.485h1.446c-.02.267-.04.515-.08.743h-1.366v1.924c0 .495.261.705.703.705zm4.88-3.295v3.923h-.843l-.04-.476c-.241.343-.583.572-1.165.572-1.085 0-1.828-.762-1.828-2.077 0-1.371.783-2.171 2.31-2.171.602.019 1.084.076 1.566.229zm-.923 3.028V18.4c-.181-.038-.402-.038-.663-.038-.944 0-1.386.552-1.386 1.428 0 .8.341 1.372 1.145 1.372.381-.02.683-.133.904-.305zm5.583-1.733v2.628h-.924v-2.476c0-.628-.221-.914-1.125-.914-.22 0-.462.019-.723.057v3.333h-.904V17.83c.583-.134 1.226-.229 1.647-.229 1.527.019 2.029.571 2.029 1.524zm4.599-2.857v5.485h-.844l-.04-.495c-.24.362-.582.59-1.185.59-1.084 0-1.827-.761-1.827-2.076 0-1.371.783-2.171 2.31-2.171.24 0 .461.019.682.057v-1.295a3.55 3.55 0 01.904-.095zm-.904 4.59v-2.419c-.24-.038-.482-.076-.723-.076-.904 0-1.325.533-1.325 1.428 0 .8.341 1.372 1.144 1.372.362-.02.663-.133.904-.305zm5.483-.78h-2.912c.12.704.542 1.028 1.366 1.028.502 0 1.004-.095 1.446-.305-.04.229-.08.533-.141.781a3.44 3.44 0 01-1.346.248c-1.526 0-2.249-.8-2.249-2.134 0-1.162.562-2.095 2.008-2.095 1.306 0 1.868.8 1.868 1.79 0 .267 0 .458-.04.686zm-2.912-.725h2.048c0-.647-.361-1.028-.984-1.028-.662.019-1.004.362-1.064 1.028zm6.105-1.695c0 .267-.04.572-.08.743-.22-.019-.422-.038-.683-.038-.22 0-.442.019-.663.038v3.352h-.903V17.83c.381-.134 1.044-.229 1.546-.229.261.019.582.019.783.057z"/></g></g></svg>