<?xml version="1.0" encoding="UTF-8"?><svg width="56" height="36" viewBox="0 0 56 36" xmlns="http://www.w3.org/2000/svg"><g fill="none" fill-rule="evenodd"><path d="M0 3.75A3.749 3.749 0 013.75 0h48.5A3.756 3.756 0 0156 3.75v28.5A3.749 3.749 0 0152.25 36H3.75A3.756 3.756 0 010 32.25V3.75z" fill="#000" fill-rule="nonzero"/><path d="M1.25 3.75v28.5c0 1.375 1.123 2.5 2.5 2.5h48.5c1.382 0 2.5-1.118 2.5-2.5V3.75c0-1.375-1.123-2.5-2.5-2.5H3.75a2.499 2.499 0 00-2.5 2.5z" fill="#FFF"/><g fill="#FE0000" fill-rule="nonzero"><path d="M8.544 14.739c0 1.059 1.836 2.232 1.836 3.441 0 0 0 .116-.05.24 1.716.35 2.932 1.176 2.932 2.142 0 1.3-2.167 2.367-4.855 2.375-.016.008-.035 0-.051 0-2.662 0-4.821-1.033-4.821-2.325 0-.966 1.318-1.748 2.909-2.165 0 .533 1.812 2.224 1.855 2.908 0 0 .008.058.008.124 0 .034 0 .066-.008.1.39-.2.39-.824.39-.824 0-1.482-1.76-2.142-1.76-3.597 0-.565.273-.982.518-1.099v.41c0 1.059 1.906 2.24 1.906 3.206v.317c.442-.167.442-.959.442-.959 0-1.334-1.768-2.073-1.768-3.597 0-.565.272-.982.517-1.099v.402M17.131 22.527c-.927 0-1.598-.259-1.598-.259v-1.574h.229c.118.832.765 1.466 1.504 1.466s1.26-.399 1.26-1.033c0-.673-.691-.982-1.15-1.206l-.663-.325c-.628-.31-1.137-.808-1.137-1.508 0-.874.663-1.625 1.93-1.625.868 0 1.583.283 1.583.283v1.408h-.23c-.134-.75-.56-1.342-1.428-1.342-.648 0-1.03.433-1.03.874 0 .576.407.832.884 1.067l.663.325c.604.301 1.351.8 1.351 1.65 0 1.084-.763 1.8-2.168 1.8zm4.287-1.716c-.178.074-.493.216-.493.615 0 .216.126.568.569.568.213 0 .51-.116.722-.283v-1.233l-.798.333zm-.35 1.685c-.577 0-.952-.375-.952-.933 0-.399.296-.708.952-.94l1.148-.41v-.348c0-.525-.245-.85-.62-.85-.256 0-.51.124-.639.325a.486.486 0 00-.06.266c0 .143.095.31.095.31l-.56.25c-.068-.116-.154-.29-.154-.467 0-.035.008-.066.008-.093.043-.3.307-.499.663-.708.348-.208.647-.266.86-.266 1.07 0 1.26.832 1.26 1.109v1.725c0 .274.023.449.255.449.068 0 .11 0 .205-.035l.205-.066v.251l-1.192.433c-.178-.124-.264-.348-.296-.541-.283.23-.769.539-1.178.539zm2.925-.085v-.2l.28-.05c.17-.035.289-.16.289-.326v-2.223c0-.19-.095-.291-.264-.291a.53.53 0 00-.195.034l-.11.043v-.251l1.224-.518h.178v.615c.375-.406.817-.615 1.208-.615.868 0 1.283.608 1.283 1.315v1.891c0 .167.127.301.297.325l.288.05v.201h-2.025v-.2l.28-.05c.17-.035.308-.16.308-.326v-1.883c0-.25-.067-.808-.75-.808-.374 0-.687.225-.876.391v2.3c0 .167.135.29.308.325l.28.05v.201h-2.003zm7.417-3.275h-1.192v2.068c0 .457.245.708.604.708.146 0 .375-.042.588-.159l.094.201-.766.476s-.153.023-.229.023c-.738 0-1.14-.425-1.14-1.323V19.14h-.62v-.209s.935-.348 1.302-1.207h.17v1.06h1.342l-.153.353zm1.782 1.675c-.178.074-.493.216-.493.615 0 .216.126.568.568.568.213 0 .51-.116.723-.283v-1.233l-.798.333zm-.348 1.685c-.577 0-.952-.375-.952-.933 0-.399.297-.708.952-.94l1.149-.41v-.348c0-.525-.246-.85-.62-.85-.257 0-.51.124-.64.325a.486.486 0 00-.059.266c0 .143.095.31.095.31l-.561.25c-.068-.116-.154-.29-.154-.467 0-.035.008-.066.008-.093.043-.3.308-.499.663-.708.348-.208.648-.266.86-.266 1.07 0 1.26.832 1.26 1.109v1.725c0 .274.024.449.256.449.067 0 .11 0 .205-.035l.205-.066v.251l-1.192.433c-.178-.124-.264-.348-.297-.541-.285.23-.77.539-1.178.539zm2.925-.085v-.2l.28-.05c.17-.035.29-.16.29-.326v-2.223c0-.19-.095-.291-.265-.291a.553.553 0 00-.197.034l-.11.043v-.251l1.224-.518h.178v.615c.374-.406.817-.615 1.207-.615.869 0 1.284.608 1.284 1.315v1.891c0 .167.127.301.296.325l.289.05v.201H38.22v-.2l.28-.05c.17-.035.308-.16.308-.326v-1.883c0-.25-.068-.808-.75-.808-.374 0-.69.225-.876.391v2.3c0 .167.135.29.307.325l.28.05v.201h-2zm7.024-3.43c-.612 0-1.24.382-1.24 1.5 0 .932.477 1.5 1.224 1.5.45 0 .73-.26.8-.391v-2.166c-.113-.277-.428-.444-.784-.444zm-.383 3.515c-.798 0-1.76-.584-1.76-1.85 0-1.108.876-2.014 2.048-2.014.391 0 .672.074.877.158v-1.907c0-.2-.111-.258-.246-.258a.75.75 0 00-.237.042l-.17.058v-.251l1.327-.55h.178v5.489c0 .317.05.499.28.499.067 0 .11 0 .205-.034l.205-.066v.25l-1.192.434c-.186-.125-.28-.36-.323-.55-.222.233-.623.55-1.192.55zm5.689-2.575v-.016c0-.624-.356-.925-.782-.925-.477 0-.833.31-.936.94H48.1zm-1.745.34v.042c-.008 1.107.64 1.667 1.445 1.667.407 0 .782-.15 1.081-.375v.333c-.34.309-.86.565-1.496.565-1.326 0-1.914-.975-1.914-1.899 0-1.083.841-1.965 1.93-1.965.893 0 1.591.615 1.591 1.524v.108h-2.637zm3.138 2.15v-.2l.28-.05c.163-.035.29-.16.29-.326v-2.223c0-.19-.095-.291-.265-.291a.53.53 0 00-.194.034l-.11.043v-.251l1.207-.518h.178v.808c.305-.583.672-.824 1.09-.824.34 0 .425.085.425.085v.882h-.17c-.043-.233-.204-.349-.458-.349-.272 0-.612.074-.849.557v2.05c0 .166.17.301.332.325l.41.05v.2l-2.166-.002z"/></g></g></svg>