<svg width="56" height="36" xmlns="http://www.w3.org/2000/svg"><g fill="none" fill-rule="evenodd"><path d="M0 3.75A3.75 3.75 0 0 1 3.75 0h48.5A3.76 3.76 0 0 1 56 3.75v28.5A3.75 3.75 0 0 1 52.25 36H3.75A3.76 3.76 0 0 1 0 32.25V3.75z" fill="#000" fill-rule="nonzero"/><path d="M1.25 3.75v28.5a2.5 2.5 0 0 0 2.5 2.5h48.5a2.5 2.5 0 0 0 2.5-2.5V3.75a2.5 2.5 0 0 0-2.5-2.5H3.75a2.5 2.5 0 0 0-2.5 2.5z" fill="#FFF"/><g fill="#00A10B" fill-rule="nonzero"><path d="M12.9 17.72c0 2.82-2.2 5.13-4.9 5.13a5.03 5.03 0 0 1-4.88-5.48l2.97 1.78 6.27-3.76c.33.7.54 1.5.54 2.33zm-6.8.15l-2.77-1.65c-.06.17-.1.37-.12.56l2.88 1.74 6-3.6-.31-.46-5.69 3.41zm5.3-3.83c-.14-.13-.27-.26-.43-.39L6.09 16.6l-2.34-1.42-.25.5 2.57 1.55 5.33-3.18zm-5.3 1.9l4.37-2.64c-.19-.1-.37-.21-.58-.3l-3.8 2.3-1.7-1.02c-.12.13-.23.29-.33.44l2.03 1.21zM16.8 17.26c-.56-.22-1.2-.54-1.2-1.5 0-.89.57-1.54 1.94-1.54.8 0 1.23.2 1.37.26-.02.35-.02.67 0 1.04h-.29l-.06-.26c-.12-.39-.35-.67-.93-.67-.77 0-1 .37-1 .82 0 .48.23.66.73.87l.7.29c.75.3 1.14.73 1.14 1.56 0 .78-.5 1.65-2.03 1.65-.79 0-1.33-.17-1.47-.24.02-.34.02-.78 0-1.15h.3l.1.37c.1.4.34.67 1.03.67.64 0 1.04-.32 1.04-.93 0-.46-.21-.76-.65-.93l-.72-.3zm4.84-2.96c1.01 0 1.88.16 1.88 1.24 0 .74-.48 1.07-1.04 1.18.67.04 1.2.52 1.2 1.32 0 1.3-.85 1.61-2.11 1.61h-1.93v-.17c.25-.07.29-.13.29-.44v-4.13c0-.28-.04-.37-.3-.43v-.18h2zm-.59 2.27h.48c.58 0 .89-.22.89-.94s-.3-.98-.85-.98h-.2c-.28 0-.32.09-.32.3v1.62zm0 .34v1.96c0 .35.06.43.44.43h.18c.58 0 .92-.39.92-1.21 0-.8-.3-1.2-1.08-1.2h-.46v.02zM26 14.65c-.2 0-.26.09-.26.26v1.66h.68c.3 0 .73-.03.9-.16v.68c-.17-.13-.63-.16-.9-.16h-.68v1.98c0 .33.12.44.79.44h.14c.67 0 .83-.05.98-.72l.04-.2H28c-.02.42-.02.83 0 1.24h-3.65v-.17c.25-.07.29-.13.29-.43v-4.14c0-.28-.04-.36-.3-.43v-.17h3.56c-.02.39-.02.76 0 1.15h-.27l-.07-.22c-.16-.54-.33-.6-1-.6H26zm6.96 5h-1.4c-.07-.28-.47-1.35-.61-1.74l-.27-.71h-.6v1.84c0 .29.04.37.29.44v.17H28.7v-.17c.24-.07.29-.13.29-.44v-4.13c0-.28-.05-.37-.3-.43v-.18h2.04c1.08 0 1.85.29 1.85 1.4 0 .78-.44 1.13-.9 1.32.09.22.87 2 1.27 2.63zm-1.5-3.89c0-.76-.33-1.09-.8-1.09h-.25c-.21 0-.31.05-.31.29v1.91h.45c.7 0 .91-.37.91-1.1zm5.83-.22c0 .74-.47 1.07-1.03 1.18.66.04 1.2.52 1.2 1.32 0 1.3-.85 1.61-2.12 1.61h-1.93v-.17c.25-.07.3-.13.3-.44v-4.13c0-.28-.05-.37-.3-.43v-.18h2c1.01 0 1.88.16 1.88 1.24zm-1.99 1.03c.58 0 .9-.22.9-.94s-.3-.98-.86-.98h-.2c-.27 0-.31.09-.31.3v1.62h.47zm-.47.34v1.96c0 .35.06.43.43.43h.19c.58 0 .91-.39.91-1.21 0-.8-.29-1.2-1.08-1.2h-.45v.02zm6.37 2.74c-.05-.28-.21-.82-.34-1.24l-.2-.67h-1.62c-.17.52-.3.96-.36 1.26-.06.3-.1.52-.1.65h-.93c.12-.2.35-.67.7-1.56l.94-2.42c.2-.54.25-.71.25-.87 0-.1-.03-.26-.3-.3v-.17h1.46c.02.15.04.34.18.78l1.06 3.2c.2.62.44 1.15.54 1.34H41.2zm-.67-2.28l-.68-2.15-.7 2.15h1.38zm3.15-2.09v3.76c0 .29.07.37.36.44v.17H42.8v-.17c.3-.07.36-.13.36-.44v-4.13c0-.28-.09-.39-.36-.43v-.18h1.54c.1.2.31.53.77 1.22l1.53 2.22V14.9c0-.28-.08-.37-.35-.43v-.18h1.22v.18c-.29.06-.35.13-.35.43v4.76h-.48l-3-4.39zm4.84-.35c0-.28-.04-.36-.3-.43v-.17h1.67v.17c-.25.07-.3.13-.3.43v4.14c0 .28.05.36.3.43v.17h-1.66v-.17c.25-.07.29-.13.29-.43v-4.14zm2.7 2.4c.35.52 1.18 1.7 1.78 2.32h-1.7c-.13-.28-.31-.74-.83-1.58l-.77-1.22.67-.92c.39-.54.9-1.26 1.05-1.63h1.19a8.42 8.42 0 0 0-1.52 1.42l-.54.58.67 1.03zM15.66 20.98H53v1H15.66z"/></g></g></svg>