<?xml version="1.0" encoding="UTF-8"?><svg width="56" height="36" viewBox="0 0 56 36" xmlns="http://www.w3.org/2000/svg"><g fill="none" fill-rule="evenodd"><path d="M0 3.75A3.749 3.749 0 013.75 0h48.5A3.756 3.756 0 0156 3.75v28.5A3.749 3.749 0 0152.25 36H3.75A3.756 3.756 0 010 32.25V3.75z" fill="#000" fill-rule="nonzero"/><path d="M1.25 3.75v28.5c0 1.375 1.123 2.5 2.5 2.5h48.5c1.382 0 2.5-1.118 2.5-2.5V3.75c0-1.375-1.123-2.5-2.5-2.5H3.75a2.499 2.499 0 00-2.5 2.5z" fill="#FFF"/><g><g transform="translate(20 6)"><rect fill="#662F8E" width="16" height="16.737" rx=".173"/><path d="M7.54 12.443V14.641c0 .135 0 .135-.132.135H5.033c-.066 0-.132 0-.165-.034l-3.101-1.454c-.132-.067-.132-.067-.1-.236.232-.846.43-1.69.628-2.502.264-1.049.527-2.13.791-3.179l.297-1.116c0-.067.033-.101.1-.135l3.2-2.975 1.319-1.251.033-.034.33.304 1.98 1.86L12.62 6.12c.033.034.066.102.1.135.296 1.184.593 2.333.89 3.517l.792 3.144c0 .034 0 .068.033.102.033.169.033.169-.1.237-.989.473-1.946.946-2.935 1.42-.165.067-.33.101-.495.101h-2.21c-.165 0-.165 0-.165-.135V12.443l.363.17c.461.202.956.337 1.484.405.429.068.89-.034 1.254-.27.363-.271.594-.71.66-1.15a4.29 4.29 0 000-1.59 13.403 13.403 0 00-.231-1.115 6.695 6.695 0 00-.924-1.894c-.297-.44-.627-.879-.957-1.285A8.594 8.594 0 009.09 4.6c-.263-.237-.593-.44-.857-.677a.294.294 0 00-.33 0c-.429.27-.825.609-1.188.98a12.135 12.135 0 00-1.748 2.165c-.43.608-.726 1.319-.924 2.029-.132.473-.198.98-.23 1.487-.034.372 0 .744.065 1.116.066.372.231.744.528 1.015.297.236.66.405 1.056.405.626 0 1.253-.135 1.814-.405l.264-.27z" fill="#F5A71C" fill-rule="nonzero"/><path d="M6.195 24.364c.492.382 1.067.467 1.64.509.452 0 .903-.085 1.355-.212.246-.085.246-.085.205-.381-.041-.17-.041-.382-.082-.594-.575.212-1.149.297-1.764.212-.493-.084-.82-.296-.985-.805-.246-.635-.205-1.313-.04-1.991.122-.424.41-.678.82-.805.369-.085.738-.085 1.107-.043.287.043.534.085.82.17.042-.255.083-.509.124-.805 0-.043-.041-.085-.082-.085a5.591 5.591 0 00-1.149-.254 3.27 3.27 0 00-1.108.084 2.163 2.163 0 00-1.6 1.399c-.246.678-.246 1.398-.123 2.076.164.678.41 1.186.862 1.525zM3.118 23.898c-.451.17-.944.127-1.395 0-.328-.084-.615-.212-.944-.296-.04.296-.082.593-.123.847.041 0 .041.043.041.043.041 0 .082.042.124.042.615.254 1.23.381 1.887.339.328-.042.656-.085.943-.212.698-.339.985-.847.903-1.61-.082-.509-.328-.89-.78-1.06-.369-.169-.78-.254-1.148-.38-.247-.086-.493-.17-.739-.297-.164-.085-.205-.255-.164-.424.041-.212.205-.34.37-.424.45-.17.943-.127 1.435-.042.246.042.493.127.739.17.04-.213.04-.467.082-.679.04-.212.04-.17-.123-.212-.37-.084-.698-.17-1.067-.211-.492-.085-.944 0-1.395.127-.861.296-1.19 1.059-.985 1.822.083.423.41.72.78.847.328.127.697.212 1.067.34.287.084.615.169.861.38a.45.45 0 01.041.678 1.268 1.268 0 00-.41.212zM14.03 22.034c-.04 0-.081-.042-.163-.042v-.043c.04 0 .04-.042.082-.042a.826.826 0 00.574-.593c.082-.212.123-.467.082-.72-.04-.382-.205-.679-.533-.848-.37-.254-.82-.297-1.231-.297H10.462v5.297H13.046c.287 0 .575-.043.82-.127.903-.255 1.15-.975.985-1.738-.123-.423-.41-.678-.82-.847zm-2.584-1.695h1.395c.123 0 .287.042.41.085.246.084.37.296.37.508v.297c-.042.254-.247.424-.575.466h-1.6v-1.356zm2.38 3.05c-.082.34-.247.51-.616.51h-1.723-.04v-1.441h1.23c.205 0 .451 0 .656.042.329.042.493.297.493.636v.254z" fill="#662F8E" fill-rule="nonzero"/></g></g></g></svg>