<?xml version="1.0" encoding="UTF-8"?><svg width="56" height="36" viewBox="0 0 56 36" xmlns="http://www.w3.org/2000/svg"><g fill="none" fill-rule="evenodd"><path d="M0 3.75A3.749 3.749 0 013.75 0h48.5A3.756 3.756 0 0156 3.75v28.5A3.749 3.749 0 0152.25 36H3.75A3.756 3.756 0 010 32.25V3.75z" fill="#000" fill-rule="nonzero"/><path d="M1.25 3.75v28.5c0 1.375 1.123 2.5 2.5 2.5h48.5c1.382 0 2.5-1.118 2.5-2.5V3.75c0-1.375-1.123-2.5-2.5-2.5H3.75a2.499 2.499 0 00-2.5 2.5z" fill="#FFF"/><path d="M46 3H10v30h36V3" fill-rule="nonzero" fill="#00CF03"/><path d="M38.663 21.564c0-.282-.08-.524-.202-.765-.12-.242-.322-.443-.604-.604-.283-.161-.645-.242-1.048-.242H33.22v6.322h3.708c.404 0 .766-.08 1.008-.241.282-.162.484-.363.645-.645a1.87 1.87 0 00.202-.845c0-.282-.04-.524-.161-.725-.121-.242-.242-.403-.444-.524a1.371 1.371 0 00-.605-.282c.202-.04.363-.12.565-.241a1.1 1.1 0 00.363-.483c.08-.202.16-.443.16-.725zm-2.258-.161c.162 0 .323.04.404.12.12.081.16.202.16.363 0 .161-.04.282-.16.362a.682.682 0 01-.404.121h-1.572v-.966h1.572zm-1.572 3.463v-1.047h1.653c.202 0 .363.04.484.12.12.081.161.242.161.403 0 .161-.04.322-.161.403a.813.813 0 01-.444.12h-1.693zm-4.475-3.463v-1.41h-4.636v6.282h4.636v-1.41h-2.983V23.82h2.943v-1.41h-2.943v-.966h2.983v-.04zm-8.869-1.33c-.443-.16-.927-.2-1.41-.2-.525 0-1.008.12-1.371.281-.363.202-.645.403-.847.725a1.816 1.816 0 00-.282 1.007c0 .403.12.725.282.966.161.242.403.443.645.604.282.161.565.242.887.323.323.08.605.12.847.16.282.04.483.121.685.162.161.08.242.201.242.322 0 .16-.08.282-.242.362-.161.08-.363.121-.645.121a2.76 2.76 0 01-1.17-.242 3.73 3.73 0 01-.886-.563l-.847 1.248c.323.322.686.564 1.17.725a4.872 4.872 0 001.652.282c.565 0 1.048-.121 1.452-.282.362-.161.685-.403.887-.725.201-.322.282-.685.282-1.087 0-.403-.08-.725-.242-.967a1.575 1.575 0 00-.686-.563c-.282-.162-.564-.242-.846-.323-.323-.08-.605-.16-.887-.2-.282-.041-.484-.122-.645-.162-.161-.08-.282-.161-.282-.282 0-.12.04-.242.161-.322.121-.08.282-.12.524-.12.323 0 .645.04.968.16.322.121.604.282.887.524l.886-1.208c-.362-.322-.725-.564-1.169-.725z" fill="#FFF" fill-rule="nonzero"/><path d="M31.77 18.544v9.14m-7.54-9.14v9.14" stroke="#FFF" stroke-width=".5" stroke-linejoin="round"/></g></svg>