<?xml version="1.0" encoding="UTF-8"?><svg width="56" height="36" viewBox="0 0 56 36" xmlns="http://www.w3.org/2000/svg"><g fill="none" fill-rule="evenodd"><path d="M0 3.75A3.749 3.749 0 013.75 0h48.5A3.756 3.756 0 0156 3.75v28.5A3.749 3.749 0 0152.25 36H3.75A3.756 3.756 0 010 32.25V3.75z" fill="#000" fill-rule="nonzero"/><path d="M1.25 3.75v28.5c0 1.375 1.123 2.5 2.5 2.5h48.5c1.382 0 2.5-1.118 2.5-2.5V3.75c0-1.375-1.123-2.5-2.5-2.5H3.75a2.499 2.499 0 00-2.5 2.5z" fill="#FFF"/><g fill-rule="nonzero"><path d="M16.857 15.803c0-.756-.271-1.386-.789-1.919-.541-.533-1.182-.804-1.922-.804H10.72c-.753 0-1.394.273-1.922.793-.529.52-.79 1.188-.79 1.93v.967c0 .643.198 1.212.592 1.709.06.074.123.149.198.223.53.533 1.17.804 1.922.804h2.71a.96.96 0 01.666.285.954.954 0 01.283.707v.347c0 .273-.099.508-.283.707a.958.958 0 01-.703.298H11.64a.909.909 0 01-.69-.298.967.967 0 01-.297-.707v-.347H8.008v.643c0 .756.258 1.4.789 1.92.53.532 1.17.803 1.922.803h3.76c.753 0 1.394-.273 1.922-.804.529-.53.79-1.176.79-1.919v-.966c0-.644-.199-1.213-.592-1.71-.061-.074-.124-.135-.185-.21-.011-.01-.011-.01-.011-.024a2.607 2.607 0 00-1.922-.793h-2.698a.964.964 0 01-.58-.284.967.967 0 01-.296-.707v-.348c0-.273.099-.508.296-.706a.95.95 0 01.69-.298h1.257c.272 0 .506.1.69.298a.967.967 0 01.297.706v.174h2.71v-.47h.01zm22.99 8.111l.567-1.894h4.192l.567 1.894h2.81l-3.266-10.908H40.29l-3.255 10.908h2.812zm4.117-4.012h-2.922l1.468-4.904 1.454 4.904zm-5.905-1.597v-2.502c0-.756-.272-1.386-.789-1.919-.53-.533-1.245-.792-2.17-.792h-6.138v10.897h2.76v-2.96h3.365c.913 0 1.64-.26 2.17-.805.074-.074.135-.148.197-.223l.16-.199a2.62 2.62 0 00.445-1.497zm-3.192-2.761a.967.967 0 01.296.706v1.375a.967.967 0 01-.296.707c-.16.16-.394.26-.69.284h-2.453v-3.37h2.453c.272 0 .506.1.69.298z" fill="#152784"/><path d="M27.78 15.69l.074.075.555-1.226c-1.036-1.002-2.293-1.499-3.747-1.499-1.504 0-2.774.533-3.835 1.597a5.465 5.465 0 00-1.158 1.684c-.025.036-.036.086-.05.124H18.3l-.678 1.387h1.638a6.124 6.124 0 00-.011 1.2h-.764l-.679 1.487h1.787c.259.681.679 1.3 1.232 1.858 1.06 1.065 2.342 1.596 3.835 1.596 1.196 0 2.243-.334 3.156-1.002v-1.71l-.05.05c-.776.78-1.701 1.163-2.798 1.163s-2.021-.384-2.785-1.163a4.317 4.317 0 01-.63-.804h4.143l.679-1.486h-5.326a3.69 3.69 0 01-.036-.52c0-.234.012-.457.05-.667h5.842l.63-1.375h-5.957c.025-.05.06-.086.085-.125.149-.223.322-.433.518-.632.764-.779 1.701-1.163 2.785-1.163 1.099-.011 2.036.384 2.813 1.152z" fill="#FEC100"/></g></g></svg>