<?xml version="1.0" encoding="UTF-8"?><svg width="56" height="36" viewBox="0 0 56 36" xmlns="http://www.w3.org/2000/svg"><g fill="none" fill-rule="evenodd"><path d="M0 3.75A3.749 3.749 0 013.75 0h48.5A3.756 3.756 0 0156 3.75v28.5A3.749 3.749 0 0152.25 36H3.75A3.756 3.756 0 010 32.25V3.75z" fill="#000" fill-rule="nonzero"/><path d="M1.25 3.75v28.5c0 1.375 1.123 2.5 2.5 2.5h48.5c1.382 0 2.5-1.118 2.5-2.5V3.75c0-1.375-1.123-2.5-2.5-2.5H3.75a2.499 2.499 0 00-2.5 2.5z" fill="#FFF"/><g fill-rule="nonzero"><path d="M18.566 4.35h17.666c-1.74.652-7.035 4.238-8.357 6.648h-9.293l-.016-6.648z" fill="#F5821F"/><path d="M32.645 23.398c-.252 2.407-.262 5.339-.262 8.418h-7.657c0-3.08.128-6.01.38-8.418h7.54z" fill="#ED1B2D"/><path fill="#008061" d="M20.8 19.92v.932h-1.225v.934h1.224v1.07H18v-4.978h2.8v1.109h-1.225v.932zM27.309 19.92v.932h-1.22v.934h1.22v1.07h-2.794v-4.978h2.794v1.109h-1.22v.932zM34.482 19.92v.932h-1.225v.934h1.225v1.07h-2.8v-4.978h2.8v1.109h-1.225v.932zM22.899 17.878v3.908h1.225v1.07h-2.8v-4.978zM29.568 21.242l-.597-3.364h-1.374l.782 4.977h2.022l.947-4.977H30.18zM36.66 18.088c1.078-.678 2.371-.313 2.371.549v4.218h-1.518v-3.587c0-.31-.772-.457-.854.088v-.005 3.504h-1.513v-4.977h1.513z"/><path d="M33.355 17.179c.155-1.905 2.764-5.015 5.29-5.832V4c-6.952 3.11-11.47 7.814-12.448 13.16l7.158.019z" fill="#ED1B2D"/></g></g></svg>