<?xml version="1.0" encoding="UTF-8"?><svg width="56" height="36" viewBox="0 0 56 36" xmlns="http://www.w3.org/2000/svg" xmlns:xlink="http://www.w3.org/1999/xlink"><defs><path id="a" d="M0 .017h21.99v20.885H0z"/><path id="c" d="M.084.077H7.04v6.826H.084z"/></defs><g fill="none" fill-rule="evenodd"><path d="M0 3.75A3.749 3.749 0 013.75 0h48.5A3.756 3.756 0 0156 3.75v28.5A3.749 3.749 0 0152.25 36H3.75A3.756 3.756 0 010 32.25V3.75z" fill="#000" fill-rule="nonzero"/><path d="M1.25 3.75v28.5c0 1.375 1.123 2.5 2.5 2.5h48.5c1.382 0 2.5-1.118 2.5-2.5V3.75c0-1.375-1.123-2.5-2.5-2.5H3.75a2.499 2.499 0 00-2.5 2.5z" fill="#FFF"/><g transform="translate(17 8.08)"><mask id="b" fill="#fff"><use xlink:href="#a"/></mask><path d="M21.714 10.207c.399-.43.36-1.09-.086-1.471L11.8.299a1.241 1.241 0 00-1.597.018L.342 9.185a1.01 1.01 0 00-.047 1.47l.247.252c.41.42 1.073.47 1.48.112l.737-.648v9.48c0 .58.48 1.052 1.073 1.052h3.843c.593 0 1.073-.471 1.073-1.052v-6.632h4.903v6.632c-.009.58.415 1.051 1.007 1.051h4.074c.592 0 1.073-.47 1.073-1.052v-9.345l.455.392c.25.215.776.042 1.175-.388l.28-.302z" fill="#020203" mask="url(#b)"/></g><path d="M27.995 17.836c1.174 0 2.125-.933 2.125-2.085s-.951-2.085-2.125-2.085-2.125.933-2.125 2.085.951 2.085 2.125 2.085" fill="#FEFEFE"/><g transform="translate(24.432 12.26)"><mask id="d" fill="#fff"><use xlink:href="#c"/></mask><path d="M5.38 3.49c0 .984-.814 1.783-1.817 1.783-1.004 0-1.817-.799-1.817-1.783 0-.984.813-1.782 1.817-1.782 1.003 0 1.816.798 1.816 1.782m1.662 0c0-1.884-1.557-3.413-3.478-3.413C1.64.077.083 1.606.083 3.49c0 1.885 1.558 3.413 3.48 3.413 1.92 0 3.478-1.528 3.478-3.413" fill="#FFDC00" mask="url(#d)"/></g></g></svg>