<svg xmlns="http://www.w3.org/2000/svg" width="56" height="36"><g fill="none" fill-rule="evenodd"><path fill="#000" fill-rule="nonzero" d="M0 3.8C0 1.7 1.7 0 3.8 0h48.4C54.3 0 56 1.7 56 3.8v28.4c0 2.1-1.7 3.8-3.8 3.8H3.8A3.8 3.8 0 0 1 0 32.2V3.8z"/><path fill="#FFF" d="M1.3 3.8v28.4c0 1.4 1 2.5 2.5 2.5h48.4c1.4 0 2.5-1 2.5-2.5V3.8c0-1.4-1-2.5-2.5-2.5H3.8a2.5 2.5 0 0 0-2.5 2.5z"/><path fill="#E9A22E" d="M6 29.9h44V7H6z"/><path fill="#FFFFFE" d="M39.6 20.8c-.3.4-1 .7-1.5.6-.6 0-1.2-.5-1.3-1.1-.2-.5 0-1.1.4-1.5.4-.4 1.1-.6 1.7-.4l.8.8c.3.4.2 1.1 0 1.6zm1.7-2.4a3.4 3.4 0 0 0-4.8-1.2c-1.2.7-1.7 2-1.4 3.4a3.3 3.3 0 0 0 2.3 2.4c1.3.3 2.7 0 3.5-1.1.8-1 1-2.5.4-3.5z"/><path fill="#DC3944" d="M45 20.7c.3.4.4 1.2 0 1.7a1.7 1.7 0 0 1-2.9-.2 2 2 0 0 1 .4-1.8c.4-.4 1-.6 1.6-.4.4.1.7.3 1 .7"/><path fill="#FFFFFE" d="M32.4 14.8h-.2l-2.7 3v.3h1v2.7c0 .7.1 1.3.6 1.7.4.4 1 .6 1.8.6a5 5 0 0 0 1.8-.4v-1.4a3 3 0 0 1-1.3.4 1 1 0 0 1-.7-.3 1 1 0 0 1-.3-.7V18h2.3v-1.3h-2.3v-2m-15 1.6a7.4 7.4 0 0 0-3-.9c-.7 0-1.3.3-1.3.8 0 1.4 4.8 1 4.8 4.1 0 1.8-1.5 2.8-3.6 2.8-1.6 0-2.4-.4-3.4-.9v-2c1.4 1 2.2 1.2 3.2 1.2.9 0 1.4-.3 1.4-.8 0-1.5-4.8-1-4.8-4.2 0-1.6 1.4-2.6 3.6-2.6 1 0 2 .2 3.1.7v1.8m1 6.7h2v-6.2h-2V23zm2-8.1c0 .5-.4 1-1 1a1 1 0 0 1-1.1-1c0-.6.5-1.1 1-1.1.7 0 1.2.5 1.2 1zm.9 8.1h2v-6.2h-2V23zm2-8.1c0 .5-.5 1-1 1a1 1 0 0 1-1.1-1c0-.6.4-1.1 1-1.1s1.1.5 1.1 1zm2.8 3.7c.6-1.3 1.3-1.9 2-1.9.4 0 .8.2 1.3.6L29 19c-.5-.3-.9-.5-1.2-.5-.7 0-1.2.7-1.6 1.8V23h-2v-6.2h2v1.8"/></g></svg>