<?xml version="1.0" encoding="UTF-8"?>
<svg width="56px" height="36px" viewBox="0 0 56 36" version="1.1" xmlns="http://www.w3.org/2000/svg" xmlns:xlink="http://www.w3.org/1999/xlink">
    <!-- Generator: Sketch 46.2 (44496) - http://www.bohemiancoding.com/sketch -->
    <title>PM/Skrill</title>
    <desc>Created with Sketch.</desc>
    <defs></defs>
    <g id="Page-1" stroke="none" stroke-width="1" fill="none" fill-rule="evenodd">
        <g id="PM/Skrill">
            <g id="Group">
                <path d="M0,3.75075247 C0,1.67926908 1.67596877,0 3.75035585,0 L52.2496442,0 C54.3209085,0 56,1.68806916 56,3.75075247 L56,32.2492475 C56,34.3207309 54.3240312,36 52.2496442,36 L3.75035585,36 C1.67909151,36 0,34.3119308 0,32.2492475 L0,3.75075247 Z" id="Rectangle-2" fill="#000000" fill-rule="nonzero"></path>
                <path d="M1.25,3.75075247 L1.25,32.2492475 C1.25,33.6250965 2.37296468,34.75 3.75035585,34.75 L52.2496442,34.75 C53.6324061,34.75 54.75,33.6316447 54.75,32.2492475 L54.75,3.75075247 C54.75,2.37490355 53.6270353,1.25 52.2496442,1.25 L3.75035585,1.25 C2.36759386,1.25 1.25,2.36835527 1.25,3.75075247 Z" id="Path" fill="#FFFFFF"></path>
                <g id="skrill" transform="translate(6.000000, 10.000000)" fill-rule="nonzero" fill="#862165">
                    <path d="M35.7837473,1.47867299 L39.5256479,0.82464455 L39.5256479,14.8364929 L35.7837473,14.8364929 L35.7837473,1.47867299 Z M41.2483801,1.47867299 L41.2483801,14.8364929 L44.9927106,14.8364929 L44.9927106,0.827014218 L41.2483801,1.47867299 L41.2483801,1.47867299 Z M30.4527538,14.8388626 L34.1970842,14.8388626 L34.1970842,4.59004739 L30.4527538,4.59004739 L30.4527538,14.8388626 L30.4527538,14.8388626 Z M5.70761339,6.03791469 C5.2338013,6.007109 4.13795896,5.93838863 4.13795896,4.97630332 C4.13795896,3.81516588 5.71490281,3.81516588 6.30777538,3.81516588 C7.34773218,3.81516588 8.6962743,4.11374408 9.65847732,4.3957346 C9.65847732,4.3957346 10.1954644,4.58056872 10.6522678,4.77014218 L10.6960043,4.78199052 L10.6960043,1.60189573 L10.637689,1.58530806 C9.50296976,1.19668246 8.18115551,0.82464455 5.73434125,0.82464455 C1.5137689,0.82464455 0.0170086393,3.22274882 0.0170086393,5.27725118 C0.0170086393,6.46208531 0.536987041,9.24881517 5.37230022,9.56872038 C5.78293737,9.59241706 6.86906048,9.65402844 6.86906048,10.6492891 C6.86906048,11.4691943 5.97975162,11.9549763 4.48056156,11.9549763 C2.84044276,11.9549763 1.24649028,11.5473934 0.281857451,11.1587678 L0.281857451,14.4336493 C1.7300216,14.8033175 3.36042117,14.9881517 5.27267819,14.9881517 C9.39848812,14.9881517 11.2475702,12.7203791 11.2475702,10.471564 C11.2475702,7.92180095 9.17737581,6.26540284 5.70761339,6.03791469 L5.70761339,6.03791469 Z M28.3412527,4.43838863 C24.8812095,4.54739336 23.12446,6.06161137 23.12446,9.07109005 L23.12446,14.8364929 L26.900378,14.8364929 L26.900378,10.1350711 C26.900378,8.33175355 27.1433585,7.55924171 29.3350432,7.48578199 L29.3350432,4.492891 C28.9657127,4.41706161 28.3412527,4.43838863 28.3412527,4.43838863 Z M18.1846652,4.57819905 C18.1020518,4.78199052 17.5018898,6.43364929 16.0512959,8.14691943 L16.0512959,0.827014218 L12.187905,1.57109005 L12.187905,14.8388626 L16.0512959,14.8388626 L16.0512959,10.7369668 C17.1714363,12.3744076 17.7230022,14.8388626 17.7230022,14.8388626 L22.3517819,14.8388626 C21.8949784,12.9834123 19.8903888,9.56161137 19.8903888,9.56161137 C21.6884449,7.33886256 22.4781317,4.97156398 22.6020518,4.58056872 L18.1846652,4.57819905 Z M32.3237041,3.60663507 C33.3442225,3.60663507 34.1703564,2.80094787 34.1703564,1.80805687 C34.1703564,0.815165877 33.3442225,0.00710900474 32.3237041,0.00710900474 C31.3056156,0.00710900474 30.4794816,0.812796209 30.4794816,1.80805687 C30.4794816,2.80094787 31.3056156,3.60663507 32.3237041,3.60663507 Z" id="Shape"></path>
                </g>
            </g>
        </g>
    </g>
</svg>