<?xml version="1.0" encoding="UTF-8"?><svg width="56" height="36" viewBox="0 0 56 36" xmlns="http://www.w3.org/2000/svg"><g fill="none" fill-rule="evenodd"><path d="M0 3.75A3.749 3.749 0 013.75 0h48.5A3.756 3.756 0 0156 3.75v28.5A3.749 3.749 0 0152.25 36H3.75A3.756 3.756 0 010 32.25V3.75z" fill="#000" fill-rule="nonzero"/><path d="M1.25 3.75v28.5c0 1.375 1.123 2.5 2.5 2.5h48.5c1.382 0 2.5-1.118 2.5-2.5V3.75c0-1.375-1.123-2.5-2.5-2.5H3.75a2.499 2.499 0 00-2.5 2.5z" fill="#FFF"/><g fill-rule="nonzero" fill="#862165"><path d="M46.14 22.956h.833v-2.962h.943v-.642h-2.712v.642h.936v2.962zm-.786-1.236v-.642h-1.47v.642h1.47zm4.52-1.242c-.206-.164-.472-.244-.803-.244-.35 0-.633.082-.84.244-.215.165-.318.367-.306.61l.007.016h.803c0-.094.023-.165.07-.207.046-.047.119-.07.212-.07.11 0 .194.03.252.093.051.06.08.146.08.261v.19h-.306c-.404 0-.703.071-.896.215-.199.143-.299.348-.299.618 0 .242.08.437.236.585.156.148.364.221.62.221a.75.75 0 00.402-.103.88.88 0 00.282-.261c.016.059.035.113.056.167.016.052.035.1.056.143h.826a2.404 2.404 0 01-.11-.364 2.339 2.339 0 01-.03-.395v-1.013c-.005-.308-.107-.543-.313-.706zm-.824 1.338h.298v.42a.533.533 0 01-.392.174.32.32 0 01-.205-.063.262.262 0 01-.08-.19c0-.101.031-.181.094-.245.058-.065.154-.096.285-.096zm2.89-1.584c-.13 0-.249.028-.354.087a.785.785 0 00-.259.254l-.03-.294h-.78v3.707h.833v-1.267a.705.705 0 00.26.214c.1.051.212.08.338.08a.907.907 0 00.763-.365c.177-.249.268-.573.268-.973v-.047c0-.416-.089-.755-.268-1.013-.182-.256-.439-.383-.77-.383zm-.202.641c.147 0 .252.069.315.207.067.137.102.32.102.546v.047c0 .216-.03.388-.093.515-.063.115-.168.173-.315.173a.625.625 0 01-.236-.04.302.302 0 01-.156-.126v-1.117a.388.388 0 01.15-.158.551.551 0 01.233-.047zM43.2 22.956v-3.604l-1.626.254v.586h.802v2.764h.824zM35.117 11.687l-2.945.532V23.08h2.945zM39.42 11.688l-2.946.53v10.863h2.947zM30.923 14.748h-2.947v8.335h2.947zM5.022 12.87c-.34.333-.595.722-.768 1.167a3.477 3.477 0 00-.113 2.185c.113.408.3.773.557 1.094.32.398.743.719 1.27.962.62.285 1.375.458 2.265.519.13.008.237.019.32.032.15.023.28.06.39.111.312.143.468.388.468.736 0 .333-.166.593-.498.781-.331.187-.792.28-1.382.28a8.835 8.835 0 01-1.852-.204 8.382 8.382 0 01-1.454-.443v2.663c.573.151 1.182.264 1.828.338.652.076 1.352.113 2.101.113.782 0 1.484-.105 2.105-.316a4.179 4.179 0 001.465-.834c.375-.336.66-.729.855-1.177.186-.426.278-.875.278-1.345a3.31 3.31 0 00-.297-1.412 3.116 3.116 0 00-.858-1.099 4.345 4.345 0 00-1.372-.745 7.089 7.089 0 00-1.834-.35 4.344 4.344 0 01-.35-.035 1.656 1.656 0 01-.407-.113c-.319-.14-.478-.378-.478-.715 0-.406.226-.681.679-.826.16-.052.349-.086.566-.104.121-.01.276-.015.463-.015.377 0 .824.05 1.342.15.427.083.86.19 1.296.323l.256.094c.2.076.376.146.526.21l.035.01v-2.586l-.046-.014a10.408 10.408 0 00-1.543-.427 12.623 12.623 0 00-2.317-.19c-.794 0-1.495.11-2.105.33a3.796 3.796 0 00-1.39.852zM27.096 17.103V14.67a2.793 2.793 0 00-.5-.045l-.282.001c-1.367.045-2.392.378-3.075 1-.688.626-1.032 1.548-1.032 2.768v4.688h2.972v-3.823c0-.407.02-.722.057-.947.047-.276.131-.495.255-.658.132-.175.325-.307.578-.394.256-.09.599-.141 1.027-.156zM16.64 11.688l-3.042.605v10.79h3.041v-3.336c.368.555.697 1.278.989 2.167.146.445.255.835.327 1.169h3.644c-.15-.629-.518-1.533-1.104-2.712a38.225 38.225 0 00-.582-1.122l-.252-.458c.6-.765 1.12-1.627 1.562-2.584.246-.533.437-1.022.573-1.466l-3.478-.002-.129.328a10.44 10.44 0 01-1.55 2.575v-5.954zM30.014 11.137a1.432 1.432 0 00-1.13 0 1.45 1.45 0 00-.887 1.35 1.451 1.451 0 00.425 1.033 1.451 1.451 0 001.026.429 1.431 1.431 0 001.028-.429 1.457 1.457 0 00.426-1.034 1.455 1.455 0 00-.426-1.035 1.442 1.442 0 00-.462-.314z"/></g></g></svg>