<?xml version="1.0" encoding="UTF-8"?><svg width="56" height="36" viewBox="0 0 56 36" xmlns="http://www.w3.org/2000/svg"><g fill="none" fill-rule="evenodd"><path d="M0 3.75A3.749 3.749 0 013.75 0h48.5A3.756 3.756 0 0156 3.75v28.5A3.749 3.749 0 0152.25 36H3.75A3.756 3.756 0 010 32.25V3.75z" fill="#000" fill-rule="nonzero"/><path d="M1.25 3.75v28.5c0 1.375 1.123 2.5 2.5 2.5h48.5c1.382 0 2.5-1.118 2.5-2.5V3.75c0-1.375-1.123-2.5-2.5-2.5H3.75a2.499 2.499 0 00-2.5 2.5z" fill="#FFF"/><g fill-rule="nonzero"><path d="M26.626 16.57c.568.436 1.099.619 1.602.578.687.013 1.307-.183 1.89-.578l5.589-4.381h-14.51l5.43 4.38zm16.735-4.381h-5.665l-7.758 5.99c-.567.355-1.138.502-1.706.449-.619.012-1.162-.13-1.618-.449l-7.334-5.99h-6.184l13.27 10.343c.568.423 1.18.62 1.862.578.584.094 1.359-.118 2.33-.66L43.36 12.19z" fill="#21B2E2"/><path d="M43.36 19.89v-6.279l-13.438 10.66c-.491.302-1.046.437-1.694.396-.647.04-1.214-.094-1.693-.395l-13.44-10.608v6.227l12.469 10.025c.89.725 1.773 1.08 2.664 1.055a4.14 4.14 0 002.82-1.055l12.313-10.025z" fill="#475858"/><path d="M13.032 8.851l1.075-.106c.063.371.195.632.387.803.196.171.467.265.803.265.348 0 .62-.078.803-.224.18-.16.272-.33.272-.542 0-.13-.04-.237-.116-.33-.076-.094-.208-.172-.4-.237-.128-.04-.427-.13-.879-.236-.595-.147-1.01-.33-1.242-.554a1.46 1.46 0 01-.503-1.121c0-.29.076-.554.231-.79.156-.253.388-.437.688-.567.295-.13.659-.2 1.074-.2.687 0 1.203.16 1.55.46.348.302.531.714.543 1.227l-1.098.053c-.052-.289-.144-.489-.296-.62-.156-.13-.387-.182-.699-.182-.323 0-.567.065-.75.2-.117.093-.18.199-.18.342 0 .13.051.252.167.342.144.118.48.236 1.01.37.532.135.932.266 1.191.396.26.13.452.33.607.566.144.237.22.542.22.885 0 .318-.092.62-.26.896a1.498 1.498 0 01-.739.62c-.323.13-.71.2-1.19.2-.687 0-1.214-.16-1.59-.49-.38-.334-.6-.806-.679-1.426zm5.353 1.805V5.09h1.654l.995 3.798.982-3.798h1.654v5.566h-1.022v-4.38l-1.087 4.38h-1.059l-1.086-4.38v4.38h-1.03zm6.092-1.805l1.075-.106c.064.371.196.632.387.803.196.171.468.265.803.265.348 0 .62-.078.803-.224.18-.16.272-.33.272-.542 0-.13-.04-.237-.116-.33-.076-.094-.208-.172-.4-.237-.127-.04-.427-.13-.878-.236-.596-.147-1.011-.33-1.243-.554a1.46 1.46 0 01-.503-1.121c0-.29.076-.554.232-.79.155-.253.387-.437.687-.567.295-.13.659-.2 1.074-.2.687 0 1.203.16 1.55.46.348.302.532.714.544 1.227l-1.103.053c-.052-.289-.144-.489-.296-.62-.155-.13-.387-.182-.699-.182-.323 0-.567.065-.75.2-.117.093-.18.199-.18.342 0 .13.052.252.167.342.144.118.48.236 1.011.37.531.131.93.266 1.19.396.26.13.452.33.608.566.144.237.22.542.22.885 0 .318-.092.62-.26.896a1.498 1.498 0 01-.74.62c-.323.13-.71.2-1.19.2-.687 0-1.214-.16-1.59-.49-.375-.334-.595-.806-.675-1.426z" fill="#21B2E2"/><path d="M31.824 10.656V5.09h1.098v5.566h-1.098zm3.555 0L33.426 5.09h1.19l1.382 4.128 1.33-4.128h1.163l-1.941 5.566h-1.17zm3.7 0V5.09h2.312c.584 0 1.011.053 1.267.146.26.106.48.277.635.526.156.253.232.554.232.884 0 .424-.116.767-.364 1.031-.248.278-.595.449-1.087.514.232.147.44.301.596.46.156.172.363.477.635.91l.671 1.08h-1.318l-.803-1.215c-.284-.436-.48-.713-.583-.82a.942.942 0 00-.336-.236c-.116-.04-.296-.065-.555-.065h-.208v2.323h-1.099v.028h.004zm1.102-3.219h.815c.531 0 .855-.024.995-.065a.58.58 0 00.311-.237.725.725 0 00.116-.423.682.682 0 00-.144-.449.75.75 0 00-.415-.224c-.092-.012-.364-.012-.803-.012h-.88v1.41h.005z" fill="#475858"/></g></g></svg>