<?xml version="1.0" encoding="UTF-8"?><svg width="56" height="36" viewBox="0 0 56 36" xmlns="http://www.w3.org/2000/svg"><g fill="none" fill-rule="evenodd"><path d="M0 3.75A3.749 3.749 0 013.75 0h48.5A3.756 3.756 0 0156 3.75v28.5A3.749 3.749 0 0152.25 36H3.75A3.756 3.756 0 010 32.25V3.75z" fill="#000" fill-rule="nonzero"/><path d="M1.25 3.75v28.5c0 1.375 1.123 2.5 2.5 2.5h48.5c1.382 0 2.5-1.118 2.5-2.5V3.75c0-1.375-1.123-2.5-2.5-2.5H3.75a2.499 2.499 0 00-2.5 2.5z" fill="#FFF"/><g fill-rule="nonzero"><path d="M26.183 22.535c.56.42 1.159.62 1.837.58.575.093 1.34-.12 2.294-.662l12.619-10.27H13.106l13.077 10.352z" fill="#E57B12"/><path d="M42.921 19.894v-6.282L29.675 24.278c-.484.302-1.032.436-1.671.395-.639.041-1.198-.093-1.672-.395L13.087 13.665v6.229l12.288 10.033c.879.726 1.746 1.081 2.625 1.057a4.042 4.042 0 002.78-1.057L42.92 19.894z" fill="#475858"/><path d="M13.028 8.849l1.056-.106c.063.371.193.633.382.804.194.171.458.265.789.265.343 0 .611-.077.788-.224.178-.16.268-.33.268-.543 0-.13-.039-.237-.114-.33-.075-.095-.205-.172-.394-.237-.126-.041-.422-.131-.867-.237-.588-.147-.994-.33-1.222-.555a1.472 1.472 0 01-.497-1.123c0-.29.075-.555.228-.792.154-.249.383-.436.675-.567.291-.13.65-.2 1.056-.2.674 0 1.187.16 1.53.461.343.302.524.715.536 1.229l-1.084.053c-.052-.29-.142-.49-.292-.62-.15-.131-.382-.184-.69-.184-.32 0-.56.065-.741.2a.428.428 0 00-.012.686c.142.118.473.236.994.371.524.13.918.265 1.17.396.257.13.446.33.6.567.142.237.216.543.216.886 0 .318-.09.62-.256.898-.165.277-.406.49-.725.62-.32.131-.702.2-1.171.2-.674 0-1.198-.159-1.569-.49-.359-.334-.576-.808-.654-1.428zm5.278 1.808V5.086h1.632l.982 3.8.97-3.8h1.632v5.571h-1.006V6.273l-1.072 4.384H20.4l-1.072-4.384v4.384h-1.02zM24.31 8.85l1.057-.106c.063.371.193.633.382.804.193.171.457.265.788.265.343 0 .611-.077.789-.224.177-.16.268-.33.268-.543 0-.13-.04-.237-.114-.33-.075-.095-.205-.172-.395-.237-.126-.041-.421-.131-.867-.237-.587-.147-.993-.33-1.222-.555a1.472 1.472 0 01-.497-1.123c0-.29.075-.555.229-.792.154-.249.382-.436.674-.567.292-.13.65-.2 1.057-.2.674 0 1.186.16 1.53.461.342.302.523.715.535 1.229l-1.084.053c-.051-.29-.142-.49-.292-.62-.153-.131-.382-.184-.69-.184-.319 0-.56.065-.74.2a.428.428 0 00-.012.686c.142.118.473.236.993.371.524.13.919.265 1.175.396.256.13.445.33.6.567.141.237.216.543.216.886 0 .318-.09.62-.256.898-.166.277-.406.49-.726.62-.319.131-.701.2-1.174.2-.675 0-1.199-.159-1.57-.49-.362-.334-.579-.808-.654-1.428z" fill="#E57B12"/><path d="M31.591 10.657V5.086h1.747c.662 0 1.096.024 1.289.077.307.078.56.266.776.543.205.278.308.645.308 1.082 0 .343-.063.632-.177.857-.115.237-.269.42-.458.555-.193.13-.37.224-.56.265-.256.053-.638.078-1.123.078h-.722v2.098h-1.084v.016h.004zm1.08-4.633v1.584h.6c.433 0 .713-.024.855-.094a.7.7 0 00.343-.277.809.809 0 00.126-.437.745.745 0 00-.61-.751c-.127-.025-.395-.04-.777-.04h-.537v.015zm3.903 4.633V5.086h1.084v5.571h-1.084zm2.129 0V5.086h1.057l2.203 3.722V5.086h1.005v5.571h-1.095L39.704 7.03v3.628h-1.001z" fill="#475858"/></g></g></svg>