<?xml version="1.0" encoding="UTF-8"?><svg width="56" height="36" viewBox="0 0 56 36" xmlns="http://www.w3.org/2000/svg"><g fill="none" fill-rule="evenodd"><path d="M0 3.75A3.749 3.749 0 013.75 0h48.5A3.756 3.756 0 0156 3.75v28.5A3.749 3.749 0 0152.25 36H3.75A3.756 3.756 0 010 32.25V3.75z" fill="#000" fill-rule="nonzero"/><path d="M1.25 3.75v28.5c0 1.375 1.123 2.5 2.5 2.5h48.5c1.382 0 2.5-1.118 2.5-2.5V3.75c0-1.375-1.123-2.5-2.5-2.5H3.75a2.499 2.499 0 00-2.5 2.5z" fill="#FFF"/><g fill-rule="nonzero"><path d="M50.167 9.546c.083-.41-.167-.821-.584-.821-.416 0-.916.329-1 .821l-1.75 6.325c-.083.411.167.822.584.822.416 0 .916-.329 1-.822l1.75-6.325zM20.5 15.871c.083-.41.583-.821 1-.821h5.25c.417 0 .917-.329 1-.821.083-.411-.167-.822-.583-.822h-3.584c-1.333 0-2.083-1.068-1.75-2.382.334-1.314 1.75-2.382 3.084-2.382H29.5c.417 0 .667.328.583.821-.083.411-.583.822-1 .822H24.5c-.417 0-.917.328-1 .821-.083.41.167.822.583.822h3.584c1.333 0 2.083 1.067 1.75 2.382-.334 1.314-1.75 2.382-3.084 2.382h-5.25c-.416-.082-.75-.41-.583-.822zM38.667 8.725c-.417 0-.917.329-1 .821l-1.25 4.765c-.084.41-.584.821-1 .821-.417 0-.667-.328-.584-.821l.834-3.204c.333-1.314-.5-2.382-1.834-2.382-1.333 0-2.666 1.068-3.083 2.382l-1.25 4.764c-.083.411.167.822.583.822.417 0 .917-.329 1-.822l1.334-4.764c.083-.41.583-.821 1-.821.416 0 .666.328.583.821l-.833 3.204c-.334 1.314.416 2.382 1.75 2.382 1.333 0 2.666-1.068 3.083-2.382l1.25-4.765c.167-.492-.083-.821-.583-.821zM45.75 8.725H41.5c-.417 0-.917.329-1 .821-.083.411.167.822.583.822h4.25c.417 0 .667.328.584.821l-.25.822h-4c-1.334 0-2.667 1.068-3.084 2.382-.333 1.314.417 2.382 1.75 2.382h4.834c.416 0 .916-.329 1-.821l1.333-4.847c.333-1.314-.417-2.382-1.75-2.382zm-5.583 5.586c.083-.411.583-.822 1-.822h4l-.417 1.561h-4c-.417 0-.667-.329-.583-.74zM11.333 7.575c-2.833.246-5 2.71-4.75 5.586.25 2.875 2.75 4.928 5.667 4.682 2.917-.247 5-2.71 4.75-5.586-.25-2.875-2.75-4.928-5.667-4.682m.834 9.036C10 16.775 8 15.214 7.833 12.996a3.89 3.89 0 013.584-4.189c2.166-.164 4.166 1.397 4.333 3.614.25 2.054-1.417 4.025-3.583 4.19" fill="#2D3844"/><path d="M16.917 10.204c.5.328.75.657.833 1.15.083 1.314-2.417 2.628-5.583 2.957-1.25.082-2.417.082-3.417-.165 1.083.493 2.75.74 4.583.575 3.084-.246 5.5-1.56 5.417-2.875-.083-.739-.75-1.314-1.833-1.642" fill="#E48941"/><g fill="#2D3844"><path d="M27.25 24.414c.417-1.478-.083-2.382-1.5-2.382s-2.417.822-2.917 2.464l-.5 1.89c-.416 1.396.167 2.3 1.584 2.3 1.416 0 2.416-.904 2.833-2.382h.833c-.5 1.889-1.916 3.039-3.833 3.039-1.917 0-2.667-1.232-2.167-3.122l.5-1.807c.5-1.889 1.917-3.121 3.834-3.121 1.916 0 2.666 1.15 2.166 3.121h-.833zM29.167 26.304l.5-1.89c.5-1.971 1.916-3.039 3.583-3.039 1.25 0 1.917.657 2.083 1.396l.334-1.314h.75l-2.084 7.804h-.75l.334-1.315c-.584.74-1.584 1.397-2.834 1.397-1.666.082-2.416-1.15-1.916-3.04zm5.25-.083l.5-1.807c.416-1.478-.167-2.382-1.5-2.382-1.417 0-2.417.904-2.834 2.464l-.5 1.725c-.416 1.561.084 2.547 1.5 2.547 1.334-.082 2.417-.986 2.834-2.547zM41.417 21.293l-.25.821c-1.5 0-2.75.822-3.167 2.382l-1.25 4.765H36l2.083-7.804h.75l-.333 1.397c.5-.822 1.583-1.561 2.833-1.561h.084zM40.917 26.304l.5-1.89c.5-1.889 1.916-3.039 3.666-3.039 1.25 0 1.917.657 2 1.396l1.084-3.942H49L46.167 29.26h-.75l.333-1.315c-.583.74-1.583 1.397-2.833 1.397-1.75.082-2.5-1.068-2-3.04zm5.25-.083l.5-1.807c.416-1.478-.167-2.382-1.5-2.382-1.417 0-2.5.986-2.917 2.464l-.5 1.725c-.417 1.561.083 2.465 1.5 2.465s2.5-.904 2.917-2.465z"/></g></g></g></svg>