<svg width="56" height="36" viewBox="0 0 56 36" xmlns="http://www.w3.org/2000/svg"><g fill="none" fill-rule="evenodd"><path d="M0 3.75A3.75 3.75 0 013.75 0h48.5A3.76 3.76 0 0156 3.75v28.5A3.75 3.75 0 0152.25 36H3.75A3.76 3.76 0 010 32.25V3.75z" fill="#000" fill-rule="nonzero"/><path d="M1.25 3.75v28.5a2.5 2.5 0 002.5 2.5h48.5a2.5 2.5 0 002.5-2.5V3.75a2.5 2.5 0 00-2.5-2.5H3.75a2.5 2.5 0 00-2.5 2.5z" fill="#FFF"/><g fill-rule="nonzero"><path fill="#393A41" d="M46.67 27.33H5L8.17 9H50z"/><g fill="#EDEDED"><path d="M18.82 15.33c-1.87 0-3.3 1.41-3.3 3.1 0 1.51 1.17 2.57 2.76 2.57a3.2 3.2 0 003.29-3.13c0-1.53-1.16-2.54-2.75-2.54zm-.42 4.24c-.72 0-1.22-.48-1.22-1.22 0-.82.62-1.6 1.51-1.6.72 0 1.22.5 1.22 1.24 0 .83-.62 1.58-1.51 1.58zM30.08 15.33c-1.87 0-3.28 1.41-3.28 3.1 0 1.51 1.17 2.57 2.75 2.57a3.2 3.2 0 003.29-3.13c0-1.53-1.16-2.54-2.76-2.54zm-.4 4.24c-.72 0-1.22-.48-1.22-1.22 0-.82.61-1.6 1.5-1.6.72 0 1.22.5 1.22 1.24 0 .83-.62 1.58-1.5 1.58zM38.34 17.12c0-1.02-.77-1.67-2.18-1.67h-1.98l-.87 5.43h1.66l.28-1.7h.08l.88 1.7h1.9l-1.22-1.9c.92-.32 1.45-1 1.45-1.86zm-2.66.9h-.25l.19-1.14h.23c.51 0 .79.16.79.51 0 .41-.4.63-.96.63zM13.62 17.62c-.64-.33-.78-.4-.78-.59 0-.22.26-.33.6-.33.4 0 1.01.05 1.6.63.15-.47.4-.89.71-1.26a4.74 4.74 0 00-2.34-.74c-1.42 0-2.24.78-2.24 1.72 0 .81.6 1.23 1.3 1.6.64.33.8.44.8.64 0 .22-.27.34-.62.34-.61 0-1.32-.39-1.74-.79l-.24 1.51c.43.32 1.06.65 2 .65 1.48 0 2.27-.76 2.27-1.73 0-.8-.51-1.23-1.32-1.65zM25.97 17.83H24l.15-.95h2.1c.27-.57.7-1.06 1.22-1.43h-3.43a1.5 1.5 0 00-1.52 1.25l-.67 4.19h1.67l.27-1.7h1.98l.15-.94c0-.15.02-.28.04-.42zM38.38 15.45c.45.35.73.84.79 1.43h1.39l-.64 4h1.67l.64-4h1.54l.23-1.43h-5.62z"/></g></g></g></svg>