<svg xmlns="http://www.w3.org/2000/svg" width="56" height="36" viewBox="0 0 56 36"><g fill="none" fill-rule="evenodd"><path fill="#000" fill-rule="nonzero" d="M0 3.75A3.75 3.75 0 0 1 3.75 0h48.5A3.76 3.76 0 0 1 56 3.75v28.5A3.75 3.75 0 0 1 52.25 36H3.75A3.76 3.76 0 0 1 0 32.25V3.75Z"/><path fill="#FFF" d="M1.25 3.75v28.5a2.5 2.5 0 0 0 2.5 2.5h48.5a2.5 2.5 0 0 0 2.5-2.5V3.75a2.5 2.5 0 0 0-2.5-2.5H3.75a2.5 2.5 0 0 0-2.5 2.5Z"/><g fill-rule="nonzero" transform="translate(8 7)"><rect width="40" height="22.222" fill="#FFB3C7" rx="4.321"/><path fill="#0A0B09" d="M36.26 13.04a.95.95 0 0 0-.95.96c0 .53.42.96.95.96.52 0 .94-.43.94-.96a.95.95 0 0 0-.94-.96Zm-3.12-.74c0-.72-.61-1.3-1.37-1.3-.76 0-1.37.58-1.37 1.3 0 .73.61 1.31 1.37 1.31.76 0 1.37-.58 1.37-1.3Zm0-2.54h1.51v5.09h-1.5v-.33c-.43.3-.95.47-1.5.47a2.67 2.67 0 0 1-2.66-2.69 2.67 2.67 0 0 1 4.15-2.21v-.33Zm-12.08.66v-.66h-1.54v5.09h1.54v-2.38c0-.8.87-1.23 1.46-1.23h.02V9.76c-.61 0-1.18.27-1.48.66Zm-3.85 1.88c0-.72-.61-1.3-1.37-1.3-.75 0-1.37.58-1.37 1.3 0 .73.62 1.31 1.37 1.31.76 0 1.37-.58 1.37-1.3Zm0-2.54h1.52v5.09h-1.51v-.33c-.43.3-.95.47-1.5.47a2.67 2.67 0 0 1-2.66-2.69 2.67 2.67 0 0 1 4.16-2.21v-.33Zm9.1-.14c-.61 0-1.18.2-1.56.71v-.57h-1.5v5.09h1.52v-2.68c0-.77.51-1.15 1.13-1.15.66 0 1.04.4 1.04 1.14v2.69h1.51V11.6c0-1.18-.93-1.99-2.15-1.99Zm-15.45 5.23h1.58V7.49h-1.58v7.36Zm-6.94 0h1.67V7.49H3.92v7.36Zm5.85-7.36c0 1.6-.62 3.08-1.71 4.18l2.31 3.18H8.3L5.8 11.4l.64-.49a4.24 4.24 0 0 0 1.7-3.4h1.63Z"/></g></g></svg>