<?xml version="1.0" encoding="UTF-8"?><svg width="56" height="36" viewBox="0 0 56 36" xmlns="http://www.w3.org/2000/svg"><g fill="none" fill-rule="evenodd"><path d="M0 3.75A3.749 3.749 0 013.75 0h48.5A3.756 3.756 0 0156 3.75v28.5A3.749 3.749 0 0152.25 36H3.75A3.756 3.756 0 010 32.25V3.75z" fill="#000" fill-rule="nonzero"/><path d="M1.25 3.75v28.5c0 1.375 1.123 2.5 2.5 2.5h48.5c1.382 0 2.5-1.118 2.5-2.5V3.75c0-1.375-1.123-2.5-2.5-2.5H3.75a2.499 2.499 0 00-2.5 2.5z" fill="#FFF"/><g fill-rule="nonzero"><path d="M7.476 20.169l3.836-.193s.112 1.73 1.568 2.032c1.484.302 2.436-.11 2.548-.96.112-.88-.392-1.346-2.548-1.923-2.156-.576-5.04-1.207-4.844-4.172.196-2.965 3.696-3.843 6.524-3.459 2.828.384 4.004 1.62 4.312 3.843l-3.836.11s0-1.73-1.848-1.62c-1.848.11-1.652 1.455-.98 1.73.7.302 2.548.686 3.92 1.043 1.372.384 3.248 1.455 3.248 3.651 0 2.196-1.652 4.42-5.852 4.42s-5.712-1.867-6.048-4.502z" fill="#333287"/><path d="M13.3 11.412c.42 0 .868.027 1.288.082 2.828.384 4.004 1.62 4.312 3.843l-3.836.11s0-1.62-1.708-1.62h-.14c-1.848.11-1.652 1.455-.98 1.73.7.302 2.548.686 3.92 1.043 1.372.384 3.248 1.455 3.248 3.651 0 2.196-1.652 4.42-5.852 4.42-4.284-.055-5.74-1.867-6.076-4.502l3.836-.193s.112 1.73 1.568 2.032c.336.055.616.11.896.11.952 0 1.568-.385 1.652-1.043.112-.879-.392-1.346-2.548-1.922-2.156-.577-5.04-1.235-4.844-4.2.14-2.553 2.716-3.541 5.264-3.541zm0-.357c-1.428 0-2.744.302-3.696.878-1.204.66-1.876 1.702-1.932 2.965-.224 3.13 2.688 3.926 4.788 4.475l.308.082c2.24.604 2.352 1.016 2.296 1.565-.056.631-.84.74-1.288.74-.252 0-.532-.027-.84-.082-1.176-.247-1.288-1.647-1.288-1.702-.028-.192-.168-.329-.336-.329h-.028l-3.836.192a.358.358 0 00-.252.11.26.26 0 00-.056.247c.392 3.267 2.408 4.777 6.356 4.777 2.016 0 3.64-.522 4.732-1.455.952-.824 1.484-2.004 1.484-3.294 0-2.773-2.66-3.761-3.472-3.98-.532-.166-1.12-.303-1.708-.44-.896-.22-1.764-.44-2.156-.604a.494.494 0 01-.28-.522c.056-.329.476-.521 1.12-.549h.112c1.316 0 1.372 1.18 1.372 1.29 0 .083.028.193.112.248a.42.42 0 00.252.11h.028l3.78-.11a.358.358 0 00.252-.11c.056-.055.084-.165.084-.275-.336-2.47-1.764-3.733-4.592-4.117-.448-.055-.868-.11-1.316-.11z" fill="#FFF"/><path d="M27.076 11.769h-6.86V24.34h4.004v-4.694h2.66c1.96 0 4.312-.878 4.312-4.118 0-3.239-2.268-3.76-4.116-3.76zm-1.344 5.38h-1.484v-2.882h1.484c.98 0 1.652.576 1.652 1.455 0 .878-.784 1.427-1.652 1.427z" fill="#333287"/><path d="M27.076 11.769c1.848 0 4.116.466 4.116 3.76 0 3.267-2.352 4.118-4.312 4.118h-2.66v4.694h-3.976V11.77h6.832zm-2.828 5.38h1.484c.896 0 1.652-.576 1.652-1.455 0-.878-.7-1.455-1.652-1.455h-1.484v2.91zm2.828-5.71h-6.832a.337.337 0 00-.336.33V24.34c0 .192.168.33.336.33h4.004a.337.337 0 00.336-.33v-4.365h2.296c.868 0 2.1-.164 3.108-.905 1.036-.769 1.568-1.977 1.568-3.569 0-1.565-.504-2.718-1.512-3.377-.728-.439-1.708-.686-2.968-.686zm-2.492 3.157h1.12c.784 0 1.316.412 1.316 1.098 0 .714-.672 1.098-1.316 1.098h-1.12v-2.196z" fill="#FFF"/><path fill="#F18B1A" d="M32.172 11.769h10.752v2.964h-6.636v2.032h6.16v2.498h-6.16v2.306h6.86v2.772H32.172z"/><path d="M42.924 11.769v2.964H36.26v2.032h6.16v2.498h-6.16v2.278h6.86v2.773H32.144V11.769h10.78zm0-.33H32.172a.337.337 0 00-.336.33V24.34c0 .192.168.33.336.33h10.976a.337.337 0 00.336-.33V21.57a.337.337 0 00-.336-.33h-6.496v-1.62h5.824a.337.337 0 00.336-.329v-2.525a.337.337 0 00-.336-.33h-5.824V15.09h6.3a.337.337 0 00.336-.33V11.77c0-.193-.168-.33-.364-.33z" fill="#FFF"/><g><path fill="#F18B1A" d="M44.576 11.769v4.913h1.484V15.09l2.548 2.608v-5.93z"/><path d="M48.608 11.769v5.902l-2.548-2.58v1.564h-1.484v-4.886h4.032zm0-.33h-4.004a.337.337 0 00-.336.33v4.913c0 .193.168.33.336.33h1.484a.337.337 0 00.336-.33v-.74l1.96 1.976a.42.42 0 00.252.11c.056 0 .084 0 .112-.028a.331.331 0 00.224-.33V11.77c-.028-.193-.168-.33-.364-.33z" fill="#FFF"/></g><g><path fill="#333287" d="M44.576 24.341v-5.078h1.484v1.564l2.548-2.58v6.094z"/><path d="M48.608 18.247v6.094h-4.004v-5.078h1.484v1.564l2.52-2.58zm0-.33c-.084 0-.196.028-.252.11l-1.96 1.977v-.741a.337.337 0 00-.336-.33h-1.484a.337.337 0 00-.336.33v5.078c0 .192.168.33.336.33h4.004a.337.337 0 00.336-.33v-6.094c0-.137-.084-.247-.224-.33h-.084z" fill="#FFF"/></g></g></g></svg>