<?xml version="1.0" encoding="UTF-8"?><svg width="56" height="36" viewBox="0 0 56 36" xmlns="http://www.w3.org/2000/svg"><g fill="none" fill-rule="evenodd"><path d="M0 3.75A3.749 3.749 0 013.75 0h48.5A3.756 3.756 0 0156 3.75v28.5A3.749 3.749 0 0152.25 36H3.75A3.756 3.756 0 010 32.25V3.75z" fill="#000" fill-rule="nonzero"/><path d="M1.25 3.75v28.5c0 1.375 1.123 2.5 2.5 2.5h48.5c1.382 0 2.5-1.118 2.5-2.5V3.75c0-1.375-1.123-2.5-2.5-2.5H3.75a2.499 2.499 0 00-2.5 2.5z" fill="#FFF"/><g fill-rule="nonzero"><path d="M8.585 15.813c.021-.532-.225-.96-.73-1.283-.507-.335-1.18-.501-2.034-.501-.81 0-1.449.166-1.921.512-.473.345-.707.76-.707 1.252 0 .47.191.833.573 1.095.382.27.943.47 1.685.593.473.094.797.189.988.293.18.104.27.23.27.366a.472.472 0 01-.213.405c-.133.084-.336.135-.606.135-.324 0-.573-.062-.742-.177-.179-.115-.27-.312-.282-.574h-1.83l-.012.031c-.022.479.224.906.73 1.292s1.191.574 2.067.574c.842 0 1.516-.166 2.033-.49.506-.323.764-.74.764-1.252 0-.49-.19-.864-.56-1.126-.383-.27-.967-.478-1.74-.616-.495-.084-.831-.177-.989-.27-.17-.104-.248-.23-.248-.374 0-.158.067-.293.213-.397a.946.946 0 01.527-.146c.282 0 .494.062.618.166.124.115.18.281.18.5H8.56l.024-.008zm6.143 3.264c.437-.512.651-1.188.651-2.023v-.104c0-.876-.212-1.574-.651-2.117-.44-.543-1.055-.802-1.843-.802-.324 0-.606.062-.854.188-.248.124-.46.302-.652.521l-.066-.605H9.449v7.748h2v-2.65c.179.196.382.343.627.447.237.104.506.157.819.157.788 0 1.394-.25 1.833-.76zm-2.349-3.7c.349 0 .607.145.764.427.158.281.248.667.248 1.148v.104c0 .448-.078.802-.224 1.064-.157.25-.415.374-.764.374-.236 0-.427-.03-.584-.084a.835.835 0 01-.37-.262v-2.355a.88.88 0 01.37-.313 1.3 1.3 0 01.56-.104zm9.096-.47c-.033-.032-.057-.063-.09-.085-.562-.532-1.35-.793-2.359-.793-1 0-1.773.261-2.336.793-.561.532-.843 1.219-.843 2.066v.104c0 .844.282 1.533.843 2.065.56.52 1.348.782 2.358.782 1 0 1.773-.261 2.336-.782a.91.91 0 00.09-.093c.495-.52.743-1.179.743-1.97v-.104c0-.805-.248-1.463-.742-1.984zm-2.458.47c.415 0 .706.134.888.416.179.27.257.636.257 1.095v.104c0 .47-.09.833-.257 1.106-.17.27-.461.396-.864.396-.416 0-.707-.135-.876-.396-.18-.27-.27-.648-.27-1.106v-.104c0-.448.09-.814.27-1.095.167-.282.446-.417.852-.417zm7.656.29l.191-1.585c-.079-.011-.158-.031-.258-.042a2.57 2.57 0 00-.291-.02 1.34 1.34 0 00-.776.24c-.224.165-.393.396-.539.688l-.067-.813h-1.885v5.598h1.997v-3.68a.718.718 0 01.325-.293c.146-.074.336-.105.56-.105l.743.011zm6.48 1.721c.012-.124.021-.261.021-.405v-.104c0-.136-.012-.27-.021-.397-.079-.667-.349-1.219-.819-1.658-.56-.531-1.358-.793-2.38-.793-1.009 0-1.796.262-2.357.793-.561.532-.855 1.22-.855 2.066v.104c0 .844.282 1.533.855 2.065.56.521 1.358.783 2.38.783 1 0 1.784-.262 2.357-.783.458-.452.74-1.004.819-1.67zm-2.043-.407c0 .47-.09.833-.27 1.105-.179.27-.46.397-.864.397-.415 0-.718-.135-.888-.397-.179-.27-.27-.647-.27-1.105v-.105c0-.447.091-.813.27-1.094.17-.27.46-.417.864-.417.416 0 .707.135.888.417.18.27.27.636.27 1.094v.105z" fill="#005DA5"/><path d="M39.79 17.054v-.104c0-.876-.212-1.574-.652-2.117-.436-.532-1.054-.802-1.842-.802-.325 0-.606.062-.854.188-.249.127-.461.302-.64.532l-.079-.616h-1.876v7.748h2.01v-2.65c.179.196.382.343.627.447.237.104.506.157.82.157.784 0 1.402-.25 1.83-.76.43-.512.656-1.188.656-2.023zm-3.573-1.574c.158-.073.349-.115.573-.115.348 0 .606.146.764.428.157.281.236.667.236 1.148v.104c0 .448-.079.802-.224 1.064-.158.25-.416.374-.764.374-.236 0-.427-.03-.573-.084a.95.95 0 01-.382-.262v-2.344a.96.96 0 01.37-.313zm7.838.532v.397h-.776c-1.021 0-1.785.157-2.279.459-.506.301-.752.729-.752 1.283 0 .512.203.917.606 1.23.394.301.922.458 1.561.458.404 0 .743-.073 1.022-.208.281-.135.527-.324.73-.552.033.115.067.23.124.344.046.115.1.208.158.292l2.088.011c-.124-.25-.212-.5-.282-.76a3.23 3.23 0 01-.1-.824v-2.117c0-.636-.258-1.136-.776-1.48-.515-.343-1.19-.512-2.021-.512-.888 0-1.606.166-2.146.512-.539.344-.797.771-.775 1.283l.021.031h2.034c0-.197.057-.343.179-.439.112-.093.29-.146.539-.146.282 0 .494.062.628.197.15.122.217.3.217.541zm0 1.334v.876a1.152 1.152 0 01-.427.261c-.18.073-.37.104-.573.104a.827.827 0 01-.506-.146.463.463 0 01-.203-.397c0-.208.079-.374.224-.5.146-.136.394-.209.73-.209h.753l.002.011zm8.938-3.21h-2.134l-1.055 3.168h-.033l-.012-.042-.955-3.127h-2.121l2.212 5.662-.158.355a.682.682 0 01-.324.365c-.146.085-.382.125-.697.125h-.112a.604.604 0 00-.124-.031l-.237 1.24c.237.054.404.085.516.105.112.02.248.03.427.03.673 0 1.167-.134 1.482-.396a3.04 3.04 0 00.764-1.022l2.56-6.433z" fill="#74C3EF"/></g></g></svg>