<?xml version="1.0" encoding="UTF-8"?><svg width="56" height="36" viewBox="0 0 56 36" xmlns="http://www.w3.org/2000/svg"><g fill="none" fill-rule="evenodd"><path d="M0 3.75A3.749 3.749 0 013.75 0h48.5A3.756 3.756 0 0156 3.75v28.5A3.749 3.749 0 0152.25 36H3.75A3.756 3.756 0 010 32.25V3.75z" fill="#000" fill-rule="nonzero"/><path d="M1.25 3.75v28.5c0 1.375 1.123 2.5 2.5 2.5h48.5c1.382 0 2.5-1.118 2.5-2.5V3.75c0-1.375-1.123-2.5-2.5-2.5H3.75a2.499 2.499 0 00-2.5 2.5z" fill="#FFF"/><path d="M46.46 15.706h2.089V13.83l2.209 2.472v-5.064H46.46v4.468zm-3.994-1.936v-2.413H32.328v13.107h10.29v-2.86h-6.931v-2.77h6.204V16.6h-6.204v-2.83h6.779z" fill="#EA7924" fill-rule="nonzero"/><path d="M46.46 18.387v6.196h4.268v-6.672l-2.21 2.323v-1.877h-2.057v.03zm-37.647-7.06a4.812 4.812 0 00-1.695.745 3.907 3.907 0 00-1.21 1.222c-.303.476-.454 1.072-.454 1.727 0 .596.121 1.102.363 1.55.242.416.575.774.938 1.042a4.33 4.33 0 001.332.685 9.891 9.891 0 001.543.417c.515.149.999.268 1.513.357.515.12.939.239 1.332.388.393.149.726.327.968.536.243.238.364.536.364.864 0 .327-.091.595-.273.834-.181.208-.423.357-.696.476-.272.15-.575.209-.908.239-.333.06-.605.089-.877.089-.394 0-.787-.06-1.18-.15a3.04 3.04 0 01-1-.416 1.905 1.905 0 01-.665-.715c-.182-.328-.272-.685-.272-1.132H5c0 .804.151 1.49.454 2.085a4.648 4.648 0 001.332 1.43c.544.357 1.21.655 1.936.834a9.466 9.466 0 002.27.268c.938 0 1.786-.119 2.542-.328.727-.208 1.332-.476 1.816-.863.484-.388.878-.834 1.12-1.34a3.87 3.87 0 00.393-1.669c0-.745-.181-1.34-.514-1.787a4.228 4.228 0 00-1.18-1.132 5.603 5.603 0 00-1.393-.596c-.454-.119-.817-.208-1.09-.268-.877-.208-1.603-.387-2.148-.506-.545-.15-.968-.268-1.27-.387-.304-.12-.515-.269-.636-.447a1.195 1.195 0 01-.152-.626c0-.268.06-.506.182-.685.12-.179.302-.328.514-.447a1.75 1.75 0 01.696-.238c.242-.06.515-.09.757-.09.363 0 .726.03 1.029.09.333.06.605.149.878.328.242.149.453.357.605.595.151.239.242.566.272.983h2.996c0-.744-.151-1.4-.454-1.936a3.543 3.543 0 00-1.27-1.31 5.627 5.627 0 00-1.786-.745c-.666-.15-1.392-.209-2.119-.238-.696.03-1.331.119-1.967.268zm19.066.447c-.605-.238-1.362-.357-2.24-.357h-6.325v12.868h3.39v-4.617h2.966c.877 0 1.634-.12 2.24-.357a4.499 4.499 0 001.512-.954c.394-.387.666-.834.848-1.31a4.23 4.23 0 00.272-1.52c0-.536-.09-1.042-.272-1.548a3.627 3.627 0 00-.848-1.31c-.423-.358-.908-.686-1.543-.895zm-1.634 2.175c.242.149.423.328.575.596.151.238.242.566.242.983 0 .417-.09.744-.242.983a1.308 1.308 0 01-.575.566 2.021 2.021 0 01-.878.268c-.272.03-.575.06-.847.089h-1.877v-3.813h1.877c.272 0 .575.03.847.09.333.03.636.119.878.238z" fill="#2D276D" fill-rule="nonzero"/><path stroke="#EA7924" stroke-width=".5" d="M32.328 11.387v13.107h10.29v-2.86h-6.931v-2.77h6.204V16.63h-6.204V13.8h6.779v-2.413H32.328z"/><path d="M19.314 11.417v12.868h3.39v-4.617h2.966c.877 0 1.634-.12 2.24-.357a4.499 4.499 0 001.512-.954c.394-.387.666-.834.848-1.31a4.23 4.23 0 00.272-1.52c0-.536-.09-1.042-.272-1.548a3.627 3.627 0 00-.848-1.31c-.393-.388-.877-.686-1.513-.924-.605-.239-1.362-.358-2.24-.358h-6.355v.03zm3.36 6.047V13.62h1.876c.272 0 .575.03.847.09.333.06.606.149.878.268.242.149.424.327.575.595.151.239.242.566.242.983 0 .417-.09.745-.242.983a1.308 1.308 0 01-.575.566 2.021 2.021 0 01-.878.268c-.272.03-.575.06-.847.09h-1.876zm-14.678 2.65H5c0 .805.151 1.49.454 2.086a4.648 4.648 0 001.332 1.43c.544.357 1.21.655 1.936.834a9.466 9.466 0 002.27.268c.938 0 1.786-.12 2.542-.328.727-.208 1.332-.476 1.816-.864.484-.387.878-.834 1.12-1.34a3.87 3.87 0 00.393-1.668c0-.745-.181-1.34-.514-1.787a4.228 4.228 0 00-1.18-1.132 5.603 5.603 0 00-1.393-.596c-.454-.12-.817-.208-1.09-.268-.877-.209-1.603-.387-2.148-.506-.545-.15-.968-.269-1.27-.388-.304-.119-.515-.268-.636-.446a1.195 1.195 0 01-.152-.626c0-.268.06-.506.182-.685.12-.179.302-.328.514-.447a1.75 1.75 0 01.696-.238c.242-.06.515-.09.757-.09.363 0 .726.03 1.029.09.333.06.605.149.878.327.242.15.453.358.605.596.151.238.242.566.272.983h2.996c0-.745-.151-1.4-.454-1.936a3.543 3.543 0 00-1.27-1.31 5.627 5.627 0 00-1.786-.745c-.666-.15-1.392-.209-2.119-.239-.635 0-1.27.09-1.906.239a4.812 4.812 0 00-1.695.744 3.907 3.907 0 00-1.21 1.222c-.303.476-.455 1.072-.455 1.727 0 .596.122 1.102.364 1.55.242.416.575.774.938 1.042a4.33 4.33 0 001.331.685 9.891 9.891 0 001.544.417c.514.149.998.268 1.513.357.514.12.938.239 1.332.388.393.149.726.327.968.536.242.238.363.536.363.864 0 .327-.09.595-.272.834-.182.208-.424.357-.696.476-.273.15-.575.209-.908.239-.333.06-.605.089-.878.089-.393 0-.787-.06-1.18-.15a3.04 3.04 0 01-.999-.416 1.905 1.905 0 01-.666-.715c-.211-.328-.272-.685-.272-1.102h0z" stroke="#2D276D" stroke-width=".5"/></g></svg>