<?xml version="1.0" encoding="UTF-8"?><svg width="56" height="36" viewBox="0 0 56 36" xmlns="http://www.w3.org/2000/svg"><g fill="none" fill-rule="evenodd"><path d="M0 3.75A3.749 3.749 0 013.75 0h48.5A3.756 3.756 0 0156 3.75v28.5A3.749 3.749 0 0152.25 36H3.75A3.756 3.756 0 010 32.25V3.75z" fill="#000" fill-rule="nonzero"/><path d="M1.25 3.75v28.5c0 1.375 1.123 2.5 2.5 2.5h48.5c1.382 0 2.5-1.118 2.5-2.5V3.75c0-1.375-1.123-2.5-2.5-2.5H3.75a2.499 2.499 0 00-2.5 2.5z" fill="#FFF"/><g><path d="M32.963 22.816c.144 0 .269.049.35.171.084.129.096.29.081.438a.757.757 0 01-.177.434.492.492 0 01-.384.179.532.532 0 01-.27-.055l-.049.497h-.254l.143-1.444c.004-.053.006-.106.007-.16v-.043h.243l.003.042v.015c.046-.02.092-.037.139-.05a.611.611 0 01.168-.024zm9.704.196c.065.1.09.237.073.41a.723.723 0 01-.162.408.428.428 0 01-.34.164.55.55 0 01-.185-.026.357.357 0 01-.112-.062l-.05.53h-.16l.13-1.358c.004-.088.14-.143.22-.169.173-.055.456-.102.586.103zm-8.604-.198c.106 0 .214.023.295.096.08.071.105.168.094.272l-.04.399c-.015.344-.365.455-.657.455a.35.35 0 01-.247-.084c-.067-.064-.085-.153-.076-.243a.394.394 0 01.134-.265.685.685 0 01.287-.143c.11-.028.223-.04.336-.042l.004-.046c.004-.04.007-.116-.026-.147a.178.178 0 00-.121-.037.445.445 0 00-.2.044.743.743 0 00-.135.08l-.037.03-.127-.18.03-.026a.79.79 0 01.486-.163zm2.003 0c.106 0 .214.023.295.096.08.071.105.168.094.272l-.04.399c-.014.344-.365.455-.656.455a.35.35 0 01-.248-.084c-.067-.064-.084-.153-.075-.243a.394.394 0 01.133-.265.685.685 0 01.287-.143c.11-.028.223-.04.336-.042l.004-.046c.004-.04.007-.116-.026-.147a.178.178 0 00-.121-.037.445.445 0 00-.2.044.743.743 0 00-.135.08l-.037.03-.127-.18.03-.026a.79.79 0 01.486-.163zm-.713.009l.05.007-.076.258-.042-.011c-.127-.036-.34-.024-.37.135l-.077.808h-.247l.083-.872c.03-.313.435-.363.679-.325zm-11.224-.032a.89.89 0 01.117.007.53.53 0 01.195.068c.03.02.057.043.081.068l.029.03-.161.176-.033-.032a.389.389 0 00-.11-.079.313.313 0 00-.127-.024.312.312 0 00-.15.033c-.033.018-.052.042-.055.078a.074.074 0 00.033.074.424.424 0 00.128.06l.087.03.087.03c.076.03.16.072.211.137a.295.295 0 01.054.215.343.343 0 01-.155.26.548.548 0 01-.317.092.747.747 0 01-.245-.037.48.48 0 01-.202-.147l-.027-.031.18-.18.03.038c.034.042.073.08.118.107a.298.298 0 00.154.035.3.3 0 00.161-.04.122.122 0 00.063-.096.09.09 0 00-.018-.067.317.317 0 00-.117-.066c-.051-.02-.103-.037-.152-.055a.604.604 0 01-.218-.111.266.266 0 01-.095-.247.319.319 0 01.145-.24.534.534 0 01.31-.086zm6.032 0c.157 0 .294.052.385.183.09.13.112.283.097.437a.712.712 0 01-.184.423.524.524 0 01-.401.18c-.159 0-.309-.045-.405-.179a.658.658 0 01-.097-.453.674.674 0 01.189-.42.56.56 0 01.416-.17zm-4.866 0c.12 0 .239.03.324.121.084.09.11.21.109.33a1.502 1.502 0 01-.012.155l-.005.04h-.72a.48.48 0 00.049.246c.037.07.092.107.172.107a.338.338 0 00.163-.038.5.5 0 00.141-.12l.03-.035.17.153-.027.033a.707.707 0 01-.2.165.6.6 0 01-.292.066.427.427 0 01-.361-.171c-.098-.132-.112-.305-.097-.463a.737.737 0 01.165-.42.491.491 0 01.391-.169zm5.956 0a.89.89 0 01.117.007.53.53 0 01.195.068c.03.02.057.043.081.068l.029.03-.161.176-.033-.032a.389.389 0 00-.11-.079.313.313 0 00-.127-.024.312.312 0 00-.15.033c-.033.018-.052.042-.055.078a.074.074 0 00.033.074.424.424 0 00.128.06l.087.03.087.03c.076.03.16.072.211.137a.295.295 0 01.054.215.343.343 0 01-.155.26.548.548 0 01-.317.092.747.747 0 01-.245-.037.48.48 0 01-.202-.147l-.027-.031.18-.18.03.038c.034.042.073.08.118.107a.298.298 0 00.154.035.3.3 0 00.161-.04.122.122 0 00.063-.096.09.09 0 00-.018-.067.317.317 0 00-.117-.066c-.051-.02-.103-.037-.152-.055a.604.604 0 01-.218-.111.266.266 0 01-.095-.247.319.319 0 01.145-.24.534.534 0 01.31-.086zm-2.523 0c.077 0 .16.01.232.043.06.028.112.068.153.12l.026.034-.179.152-.028-.036a.306.306 0 00-.096-.082.266.266 0 00-.118-.024.268.268 0 00-.218.104.516.516 0 00-.107.284.5.5 0 00.055.303c.042.071.1.114.184.114.05 0 .118-.006.162-.033a.48.48 0 00.114-.106l.028-.034.163.132-.026.034a.542.542 0 01-.457.216.442.442 0 01-.377-.178.626.626 0 01-.101-.44.708.708 0 01.183-.43.535.535 0 01.407-.173zm-.654.018l-.113 1.186h-.247l.113-1.186h.247zm1.422 0l-.113 1.186h-.247l.113-1.186h.247zm-2.886-.01l.05.007-.076.258-.042-.012c-.127-.035-.34-.023-.37.135l-.077.808h-.247l.083-.872c.03-.312.436-.362.68-.325zm.386.01l.176.823.324-.823h.268l-.517 1.186h-.218l-.296-1.186h.263zm22.904.051c.04 0 .077.002.112.007a.496.496 0 01.095.022.39.39 0 01.157.1l-.103.111a.36.36 0 00-.271-.115.357.357 0 00-.174.039.138.138 0 00-.078.113.117.117 0 00.052.113c.039.028.086.05.142.067a4.709 4.709 0 01.173.06.44.44 0 01.195.122.246.246 0 01.045.183.298.298 0 01-.138.227.512.512 0 01-.295.085.722.722 0 01-.232-.034.44.44 0 01-.185-.134l.117-.116c.04.05.084.089.13.117a.34.34 0 00.178.041.347.347 0 00.187-.047.165.165 0 00.084-.13.132.132 0 00-.027-.097.324.324 0 00-.138-.081l-.157-.056a.573.573 0 01-.204-.104c-.062-.049-.088-.118-.08-.207a.275.275 0 01.128-.207.498.498 0 01.287-.079zm-6.417 0c.129 0 .227.036.295.107.067.071.1.17.097.298 0 .048-.005.098-.011.151h-.73a.54.54 0 00.052.313c.047.087.118.13.213.13.07 0 .132-.014.186-.043a.545.545 0 00.156-.13l.106.093a.56.56 0 01-.462.214.388.388 0 01-.33-.152c-.077-.102-.106-.246-.088-.432a.686.686 0 01.156-.396.452.452 0 01.36-.153zm1.929 0c.04 0 .077.002.112.007a.497.497 0 01.095.022.393.393 0 01.157.1l-.103.111a.36.36 0 00-.271-.115.357.357 0 00-.173.039.138.138 0 00-.078.113.117.117 0 00.051.113c.039.028.086.05.142.067l.087.03.087.03a.442.442 0 01.194.122.247.247 0 01.045.183.298.298 0 01-.138.227.512.512 0 01-.295.085.722.722 0 01-.232-.034.44.44 0 01-.185-.134l.117-.116c.041.05.084.089.13.117a.34.34 0 00.178.041.346.346 0 00.187-.047.165.165 0 00.084-.13.132.132 0 00-.026-.097.323.323 0 00-.139-.081l-.157-.056a.574.574 0 01-.204-.104c-.062-.049-.088-.118-.08-.207a.275.275 0 01.128-.207.498.498 0 01.287-.079zm1.11 0c.159 0 .276.055.352.164a.593.593 0 01.09.408.665.665 0 01-.174.396.487.487 0 01-.372.166c-.17 0-.294-.054-.372-.16-.076-.107-.107-.247-.09-.423a.627.627 0 01.178-.393.524.524 0 01.388-.158zm2.318-.004c.114 0 .203.028.265.084.064.057.09.135.08.235l-.04.4c-.014.31-.333.414-.613.414-.094 0-.166-.023-.216-.071-.05-.048-.072-.117-.062-.207a.348.348 0 01.118-.236.637.637 0 01.269-.133c.11-.028.231-.042.365-.042l.008-.085c.01-.09-.004-.152-.04-.184a.217.217 0 00-.152-.049.486.486 0 00-.219.049.78.78 0 00-.143.085l-.077-.108a.605.605 0 01.186-.103.742.742 0 01.27-.049zm-9.258-.09c.106 0 .214.024.295.096.08.071.105.169.095.273l-.04.398c-.015.344-.366.456-.657.456-.09 0-.18-.02-.248-.084-.067-.065-.084-.154-.075-.244a.394.394 0 01.133-.264.685.685 0 01.287-.143c.11-.028.223-.04.336-.043l.004-.046c.004-.04.008-.116-.026-.146a.178.178 0 00-.121-.038.445.445 0 00-.2.044.743.743 0 00-.135.08l-.037.03-.126-.179.029-.026a.79.79 0 01.486-.163zm1.135 0c.041 0 .082.002.123.007a.58.58 0 01.108.024.455.455 0 01.181.112l.031.03-.168.174-.032-.03a.412.412 0 00-.118-.078.353.353 0 00-.135-.025.349.349 0 00-.161.034c-.033.017-.054.04-.058.078-.003.032.008.054.035.072.04.028.088.048.136.062l.092.03.092.03c.078.028.168.07.222.135a.285.285 0 01.057.217.34.34 0 01-.164.26.598.598 0 01-.332.09.826.826 0 01-.257-.035.505.505 0 01-.213-.147l-.03-.032.189-.178.03.036c.036.041.077.08.124.107.049.028.11.036.165.036.06 0 .121-.01.173-.041.037-.023.062-.052.066-.096a.085.085 0 00-.018-.066.345.345 0 00-.125-.067l-.162-.055a.65.65 0 01-.228-.11.26.26 0 01-.1-.248.318.318 0 01.153-.24.585.585 0 01.324-.086zm-19.278 0c.106 0 .214.024.295.096.08.072.105.169.095.273l-.04.398c-.015.345-.366.456-.657.456a.35.35 0 01-.248-.084c-.067-.064-.084-.153-.075-.243a.394.394 0 01.133-.265.685.685 0 01.287-.143c.11-.028.223-.04.336-.043l.005-.046c.004-.04.007-.116-.027-.146a.178.178 0 00-.121-.037.445.445 0 00-.2.044.742.742 0 00-.135.08l-.036.03-.127-.18.029-.026a.79.79 0 01.486-.163zm1.135 0c.041 0 .082.003.123.008a.58.58 0 01.108.023.455.455 0 01.181.112l.031.03-.168.174-.032-.03a.412.412 0 00-.118-.078.353.353 0 00-.135-.025.349.349 0 00-.161.034c-.033.017-.054.04-.058.078-.003.032.008.054.035.072.04.029.088.048.136.062l.092.03.092.03c.078.028.168.07.222.135a.285.285 0 01.057.217.34.34 0 01-.164.26.598.598 0 01-.332.091.827.827 0 01-.257-.036.505.505 0 01-.213-.147l-.03-.032.189-.178.03.036c.036.042.077.08.124.107.049.028.11.036.165.036.06 0 .121-.01.173-.041.037-.022.062-.052.066-.096a.085.085 0 00-.018-.065.345.345 0 00-.125-.067c-.055-.02-.109-.037-.162-.055a.65.65 0 01-.228-.111.26.26 0 01-.1-.248.318.318 0 01.153-.24.585.585 0 01.324-.085zm25.172.094a.35.35 0 01.134.027c.042.017.078.05.107.096.046.079.048.125.038.216l-.077.776h-.167l.076-.762c.008-.076-.004-.132-.035-.168-.088-.1-.407-.06-.46.048l-.089.882h-.166l.086-.864c.083-.252.389-.25.553-.25zm-2.949.006l-.05.168c-.152-.042-.389-.018-.426.173l-.073.768h-.157l.078-.823c.022-.227.309-.334.628-.286zm-6.297-.1c.053 0 .107.008.156.03a.275.275 0 01.163.21c.01.047.011.096.006.145l-.082.82h-.256l.081-.814a.229.229 0 00-.004-.08.122.122 0 00-.026-.051.105.105 0 00-.042-.029.183.183 0 00-.063-.01.634.634 0 00-.258.057.657.657 0 01-.003.11l-.082.816h-.256l.081-.81c.004-.042.005-.102-.024-.135-.062-.07-.332-.045-.383.032l-.092.913h-.256l.094-.922c.085-.26.365-.282.595-.282.051 0 .102.01.15.03a.259.259 0 01.104.08.871.871 0 01.397-.11zm-18.143 0c.053 0 .107.009.156.03a.275.275 0 01.163.21c.01.048.011.097.006.145l-.082.82h-.256l.082-.814a.229.229 0 00-.004-.08.122.122 0 00-.026-.051.105.105 0 00-.043-.029.183.183 0 00-.063-.01.634.634 0 00-.258.057.658.658 0 01-.003.11l-.082.817h-.256l.081-.812c.005-.04.005-.1-.024-.134-.062-.07-.332-.044-.383.033l-.092.913h-.256l.094-.923c.085-.26.365-.281.595-.281.051 0 .103.01.15.03a.259.259 0 01.104.08.871.871 0 01.397-.11zm26.149.223c-.11 0-.198.04-.266.122a.572.572 0 00-.12.32c-.01.112.003.2.04.261a.384.384 0 00.116.133c.04.026.09.04.148.04a.284.284 0 00.15-.04.49.49 0 00.138-.144.588.588 0 00.09-.281.466.466 0 00-.059-.283c-.049-.085-.128-.128-.237-.128zm-4.191.009a.59.59 0 00-.265.062c-.047.037-.044.486-.067.73-.003.036.033.023.08.04a.503.503 0 00.17.025c.099 0 .177-.04.235-.123a.647.647 0 00.105-.316c.013-.135-.004-.238-.05-.31a.23.23 0 00-.208-.108zm6.68.403c-.193.002-.53.029-.555.28-.005.057.006.1.036.126.03.027.073.041.13.041.07 0 .14-.015.21-.046.215-.095.155-.16.18-.401zm-16.083-.359a.574.574 0 00-.262.061l-.063.644a.28.28 0 00.08.04c.05.018.106.024.16.024a.24.24 0 00.207-.105.598.598 0 00.1-.294c.009-.09.007-.203-.045-.282-.042-.063-.102-.088-.177-.088zm3.262.407c-.173.006-.443.039-.463.238-.003.03-.002.068.021.09.027.023.066.03.1.03a.47.47 0 00.191-.043c.182-.08.144-.152.151-.315zm-2.003 0c-.174.006-.443.039-.463.238-.003.03-.003.068.021.09.027.023.065.03.1.03a.47.47 0 00.191-.043c.182-.08.144-.152.151-.315zm-4.026-.44a.28.28 0 00-.229.106.539.539 0 00-.109.295.41.41 0 00.033.236c.025.042.059.09.101.117.037.024.08.033.122.033.045 0 .088-.01.126-.034a.464.464 0 00.124-.13.56.56 0 00.08-.26.428.428 0 00-.052-.258c-.043-.076-.111-.105-.196-.105zm9.545.392c-.173.006-.443.04-.463.239-.003.03-.002.068.022.09.026.023.065.029.1.029a.47.47 0 00.19-.042c.182-.08.144-.152.151-.316zm-18.143 0c-.173.006-.443.04-.463.239-.003.03-.002.068.022.09.026.023.065.029.1.029a.47.47 0 00.19-.042c.182-.08.144-.152.151-.316zm21.922-.415a.278.278 0 00-.224.098.431.431 0 00-.1.222h.567a.404.404 0 00-.043-.225c-.034-.063-.101-.095-.2-.095zm-21.795-.763l.173.2-.483.335-.115-.12.425-.415zm18.143 0l.173.2-.483.334-.115-.12.425-.414zm-2.262-7.668c.968 0 1.657.792 1.532 1.76l-.132 1.028c-.074.572-.417 1.083-.886 1.405l1.085 3.306h-2.009l-.97-2.953h-.784l-.278 2.475h-2.01l.79-7.02zm6.016.676c.996 0 1.732.778 1.694 1.756l-.011.141c-.118 1.044-1.069 1.898-2.113 1.898h-1.988c-.129.317-.018.713.175.86.193.147.928.21 1.967.027a8.476 8.476 0 001.344-.347l-.351 1.652c-.526.171-2.522.335-3.318.335-2.284 0-1.817-2.941-1.5-4.425.22-1.027 1.07-1.897 2.113-1.897h1.988zm-16.097.004l-.338 3.076-.112 1.053a.57.57 0 00.576.644h.614c.354 0 .675-.29.713-.644l.216-2.033.22-2.069.007.002.003-.029h2.01l-.242 2.196c-.001.06-.006.121-.012.183l-.17 1.554c-.142 1.308-1.329 2.379-2.637 2.379h-1.168c-1.308 0-2.262-1.07-2.12-2.379h-.001l.432-3.933h2.01zm21.96 0c.968 0 1.625 1.097 1.46 2.437l-.175 1.425c-.164 1.34-1.09 2.436-2.057 2.436h-3.604l.74-6.298zm-24.78.207l-.089 1.69c-.826-.334-1.744-.514-2.98-.463-.301.002-.439.193-.43.408-.044.893 1.848.185 2.763.81.742.388.845.895.845 1.583 0 1.135-1.112 1.931-2.165 1.994-1.282.078-2.073.05-3.334-.208l.224-1.52c.826.336 1.67.35 2.906.299.436-.015.488-.31.48-.525-.009-.216-.111-.398-.4-.412-.721-.036-1.682.062-2.394-.306-.743-.388-.815-.987-.815-1.676 0-1.1 1.07-1.928 2.165-1.994 1.283-.077 1.962.062 3.223.32zm23.938 1.26h-1.06l-.347 3.264h.945c.373 0 .627-.243.71-.961l.144-1.246c.088-.755.004-1.057-.392-1.057zm-5.856-.06h-.633c-.333 0-.618.277-.706.605-.025.095-.054.21-.077.332h1.655a.488.488 0 00.266-.332l.008-.09a.496.496 0 00-.513-.515zm-6.064-.649h-.957l-.193 1.582h.95c.324 0 .627-.324.669-.648l.044-.344a.508.508 0 00-.513-.59z" fill="#00427C"/><path d="M13.888 15.21c1.756.048 3.18 1.487 3.18 3.216a3.027 3.027 0 01-1.963 2.838c-1.188.452-2.556.147-3.465-.772-.91-.92-1.181-2.273-.69-3.429.493-1.156 1.652-1.887 2.938-1.852z" fill="#E5271E"/><path d="M9.863 12.062c.617 0 1.178.212 1.56.59.382.377.554.889.477 1.423-.16 1.111-1.33 2.012-2.615 2.012-1.285 0-2.197-.9-2.037-2.012.16-1.112 1.33-2.013 2.615-2.013z" fill="#55A929"/><path d="M9.896 23.668c.552 0 1.024-.21 1.312-.582.289-.373.37-.878.227-1.405-.298-1.097-1.472-1.987-2.62-1.987-1.15 0-1.838.89-1.54 1.987.299 1.097 1.472 1.987 2.62 1.987z" fill="#FFD800"/><path d="M6.392 15.748c.76.028 1.378.885 1.378 1.915 0 .754-.336 1.422-.85 1.691-.516.27-1.109.088-1.503-.46-.394-.547-.512-1.354-.299-2.042.214-.69.716-1.125 1.274-1.104z" fill="#0074BC"/></g></g></svg>