<?xml version="1.0" encoding="UTF-8"?><svg width="56" height="36" viewBox="0 0 56 36" xmlns="http://www.w3.org/2000/svg"><g fill="none" fill-rule="evenodd"><path d="M0 3.75A3.749 3.749 0 013.75 0h48.5A3.756 3.756 0 0156 3.75v28.5A3.749 3.749 0 0152.25 36H3.75A3.756 3.756 0 010 32.25V3.75z" fill="#000" fill-rule="nonzero"/><path d="M1.25 3.75v28.5c0 1.375 1.123 2.5 2.5 2.5h48.5c1.382 0 2.5-1.118 2.5-2.5V3.75c0-1.375-1.123-2.5-2.5-2.5H3.75a2.499 2.499 0 00-2.5 2.5z" fill="#FFF"/><g fill-rule="nonzero"><path d="M8.314 22.575c0 .302.077.54.24.728.164.176.393.265.684.265.229 0 .418-.051.57-.14a1.15 1.15 0 00.392-.414h.025l-.042.48h.948l.746-3.477h-1.201l-.353 1.68c-.063.276-.14.503-.24.665-.1.163-.215.239-.329.239a.265.265 0 01-.163-.063c-.052-.05-.063-.113-.063-.201 0-.125.025-.264.063-.427l.403-1.896H8.793L8.4 21.86a2.937 2.937 0 00-.087.716zm-.658-2.385l.507-.915a3.963 3.963 0 00-1.617-.327c-.367 0-.707.063-.999.176-.303.114-.544.29-.707.503-.163.213-.24.452-.24.728 0 .239.063.464.203.665.126.202.34.401.632.591.24.163.392.276.455.327.051.051.089.088.126.14.026.05.051.099.051.15a.331.331 0 01-.14.276c-.1.062-.24.1-.429.1-.229 0-.467-.038-.747-.114a5.674 5.674 0 01-.732-.302v1.08c.177.1.392.163.644.228.24.05.506.076.784.076.658 0 1.176-.125 1.554-.378a1.23 1.23 0 00.555-1.066c0-.25-.077-.477-.215-.679a2.549 2.549 0 00-.67-.566c-.24-.15-.403-.264-.48-.352-.089-.088-.14-.176-.14-.29 0-.113.051-.187.14-.25.089-.063.215-.088.366-.088.315.012.67.1 1.1.287zm15.685-.213a1.144 1.144 0 00-.24-.025c-.252 0-.455.05-.607.15a1.57 1.57 0 00-.443.49h-.026l.051-.578h-.947l-.747 3.477h1.188l.329-1.532c.063-.301.163-.515.292-.665a.626.626 0 01.506-.227.92.92 0 01.38.076l.264-1.166zm-7.798.327a.911.911 0 00-.455-.301 1.097 1.097 0 00-.303-.037c-.33 0-.595.15-.796.452h-.026l.038-.39h-.962L11.978 25h1.201l.164-.753c.088-.415.151-.805.163-1.143h.026c.177.301.417.452.707.452.277 0 .543-.1.784-.29.025-.011.037-.037.063-.05.214-.189.392-.464.518-.791a3.29 3.29 0 00.214-1.18c-.009-.401-.098-.716-.275-.941zm-1.024 1.657c-.063.202-.14.353-.229.478-.089.113-.189.176-.292.176-.088 0-.151-.037-.203-.125-.051-.077-.063-.188-.063-.313 0-.202.026-.401.089-.603.051-.201.126-.352.229-.477.088-.114.189-.176.291-.176.178 0 .266.15.266.44-.011.2-.037.399-.088.6zm4.109-1.995c-.392 0-.733.088-1.036.275-.304.177-.532.44-.707.79a2.561 2.561 0 00-.266 1.169c0 .426.126.765.366 1.018.24.238.581.363 1.01.363a2.833 2.833 0 001.34-.315v-.841c-.203.1-.38.188-.532.239a1.505 1.505 0 01-.481.062c-.34 0-.506-.15-.506-.452v-.05h.177c.607 0 1.073-.114 1.402-.328.315-.227.481-.54.481-.955a.847.847 0 00-.34-.702c-.213-.185-.516-.273-.908-.273zm-.481 1.003c.114-.139.229-.213.355-.213.088 0 .151.025.189.063.037.037.063.1.063.162 0 .139-.063.25-.19.338-.125.088-.303.125-.531.125h-.089c.026-.162.089-.324.203-.475zm15.267-1.003c-.229 0-.418.037-.555.139-.038.025-.089.05-.126.076-.1.088-.19.202-.278.339h-.026l.038-.478h-.962l-.746 3.477h1.201l.355-1.694c.063-.313.14-.54.24-.68a.493.493 0 01.164-.162.258.258 0 01.163-.05c.063 0 .114.025.163.076.052.037.077.1.077.187 0 .126-.011.276-.051.44l-.404 1.897h1.188l.392-1.845c.051-.25.077-.49.077-.703 0-.3-.077-.54-.24-.727-.152-.204-.392-.292-.67-.292zm-7.48.074a2.434 2.434 0 00-.633-.088c-.455 0-.81.1-1.062.29-.252.19-.366.463-.366.815 0 .227.051.415.152.552.1.15.252.29.48.415.215.125.355.213.392.264.052.051.089.114.089.176a.193.193 0 01-.1.162.73.73 0 01-.315.051c-.164 0-.33-.025-.493-.062a2.296 2.296 0 01-.532-.213v.952c.278.125.644.202 1.1.202.506 0 .884-.114 1.161-.327.266-.227.392-.54.392-.94 0-.427-.228-.754-.695-.981-.14-.077-.252-.126-.315-.177-.063-.05-.1-.1-.1-.162 0-.139.077-.213.24-.213.1 0 .229.025.366.088.152.051.292.114.43.213l.366-.779c-.18-.1-.369-.187-.558-.238zm3.537-.026a1.81 1.81 0 00-.467-.05c-.392 0-.747.099-1.036.289a1.843 1.843 0 00-.684.804c-.163.339-.24.728-.24 1.168 0 .427.114.754.355.993.228.227.555.352.998.352.392 0 .747-.1 1.036-.29.012-.011.038-.025.052-.037.266-.188.48-.452.632-.779.163-.352.252-.741.252-1.168 0-.426-.114-.765-.355-.992a1.198 1.198 0 00-.543-.29zm-.607.83c.089 0 .152.037.189.1.051.062.077.162.077.301 0 .364-.063.69-.177.98-.126.29-.278.427-.43.427-.177 0-.266-.14-.266-.415 0-.364.063-.69.178-.98.114-.262.266-.413.429-.413zm7.861-.816h-1.202l-.746 3.477h1.187l.761-3.477zm.229-.98c0-.14-.052-.25-.152-.313a.795.795 0 00-.43-.114c-.214 0-.391.051-.517.162-.126.112-.178.265-.178.478 0 .29.203.426.595.426.229 0 .392-.05.518-.162a.707.707 0 00.164-.477zm1.934.918c-.366 0-.684.1-.961.29-.292.187-.507.44-.67.778-.163.339-.24.702-.24 1.117 0 .452.114.805.354 1.043.229.25.544.378.948.378.24 0 .455-.025.644-.076.177-.051.354-.114.518-.214v-.94c-.152.076-.304.15-.444.201-.14.051-.277.077-.429.077-.14 0-.229-.038-.292-.14-.063-.088-.1-.227-.1-.414 0-.188.037-.378.114-.578a.936.936 0 01.266-.44.52.52 0 01.355-.15c.189 0 .418.062.695.176l.38-.879a2.816 2.816 0 00-1.138-.23zm-3.68-4.634l3.034-4.318-5.005 1.555.81.955a13.252 13.252 0 01-2.061 1.57l.518.602a24.12 24.12 0 001.946-1.368l.758 1.004z" fill="#221F1F"/><path d="M44.271 19.01h-1.668l-2.15 4.483h1.34l.355-.841h1.49l.09.841h1.264l-.721-4.482zm-1.099 1.231c.077-.162.126-.338.177-.514 0 .113 0 .25.012.4l.163 1.558h-.961l.609-1.444zm-10.668-4.545l-.518-.603c-3.274 2.348-7.28 3.429-12.007 3.264 4.538.58 8.708-.313 12.525-2.661zm17.152 6.717v.955c.315.125.721.202 1.24.202.555 0 .986-.114 1.301-.327.292-.227.444-.54.444-.941 0-.427-.252-.753-.77-.98-.164-.077-.278-.126-.355-.177-.063-.05-.1-.1-.1-.162 0-.139.088-.213.252-.213.114 0 .252.025.417.088.164.05.315.114.481.213l.418-.779a1.952 1.952 0 00-.619-.238 3.071 3.071 0 00-.707-.088c-.518 0-.91.1-1.187.29-.278.19-.418.463-.418.815 0 .227.051.415.163.552.115.15.292.29.532.415.24.125.392.213.444.264a.222.222 0 01.088.176c0 .063-.037.125-.114.162-.077.037-.203.051-.355.051-.189 0-.38-.025-.555-.062a2.913 2.913 0 01-.6-.216zm.201-3.692h-1.328l-.38 1.694h-.026a1.457 1.457 0 00-.443-.364 1.11 1.11 0 00-.492-.1c-.341 0-.644.1-.91.29-.266.202-.481.49-.633.867a2.488 2.488 0 00-.189 1.106c.038.426.164.753.38.98.23.228.533.339.936.339.215 0 .404-.037.556-.1.151-.062.291-.176.429-.338h.037l-.011.378h1.176l.898-4.752zm-2.919 3.442c-.012-.202.012-.39.077-.591.063-.202.14-.364.252-.478.114-.125.229-.187.355-.187.203 0 .315.15.329.44.011.188 0 .39-.052.591-.051.202-.14.364-.24.478-.114.113-.229.176-.355.176-.214.009-.329-.142-.366-.43z" fill="#ED412E"/></g></g></svg>