<?xml version="1.0" encoding="UTF-8"?><svg width="56" height="36" viewBox="0 0 56 36" xmlns="http://www.w3.org/2000/svg"><g fill="none" fill-rule="evenodd"><path d="M0 3.75A3.749 3.749 0 013.75 0h48.5A3.756 3.756 0 0156 3.75v28.5A3.749 3.749 0 0152.25 36H3.75A3.756 3.756 0 010 32.25V3.75z" fill="#000" fill-rule="nonzero"/><path d="M1.25 3.75v28.5c0 1.375 1.123 2.5 2.5 2.5h48.5c1.382 0 2.5-1.118 2.5-2.5V3.75c0-1.375-1.123-2.5-2.5-2.5H3.75a2.499 2.499 0 00-2.5 2.5z" fill="#FFF"/><g fill-rule="nonzero"><path d="M10.281 15.073c.06.014.138.014.216.046.771.138 1.338.262 1.709.4l.23-2.815c-.555-.046-1.093-.078-1.6-.124-.523-.046-1.245-.032-2.186.014a5.303 5.303 0 00-2.586.817c-.786.492-1.277 1.185-1.462 2.062-.155.707-.092 1.29.156 1.754.262.445.785.862 1.585 1.216a4.9 4.9 0 01.385.184c.538.276.754.6.63.969-.092.431-.538.584-1.355.477-.215-.046-.414-.092-.63-.123-.092-.015-.17-.046-.261-.078-.51-.138-1.08-.34-1.678-.57l-.431 2.908c.446.17.97.276 1.553.322.584.046 1.401.06 2.449.046 1.03-.015 1.956-.294 2.756-.817.8-.523 1.309-1.291 1.524-2.323.107-.51.124-.938.046-1.291a1.762 1.762 0 00-.523-.923c-.276-.262-.722-.538-1.338-.817-.046-.014-.092-.046-.124-.06a4.59 4.59 0 00-.307-.124c-.262-.184-.354-.477-.262-.891.106-.308.523-.414 1.277-.308.072.017.15.034.227.049zm8.234 7.31l2.94-5.723.478 5.722h3.432l5.912-9.538H27.55l-2.862 5.2-.51-5.185h-3.647l-2.664 5.615-.829-5.615h-3.233l1.323 9.537h3.386v-.014zm11.669 0H34l2.17-9.539h-3.818l-2.17 9.538zm14.53-10.74l.415-2.554c-1.57-.031-2.417-.06-2.54-.077-.124-.015-.432.014-.924.077-.492.06-1.047.368-1.677.923-.63.555-1.079 1.446-1.338 2.709l-.046.17h-1.37l-.462 2.43h1.263l-1.48 7.075h3.295l1.479-7.076h2.03l.524-2.461h-2.03l.045-.262c.078-.354.184-.6.34-.739.138-.155.34-.247.6-.247.37 0 1 .017 1.877.031zm5.959-.032c.385 0 1.015.014 1.893.031l.414-2.553c-1.57-.031-2.417-.06-2.54-.077-.124-.015-.432.014-.924.077-.492.063-1.047.368-1.677.923-.63.555-1.079 1.446-1.338 2.709l-.046.17H45.1l-.477 2.43h1.263l-1.48 7.075h3.295l1.479-7.076h2.03l.524-2.461h-2.03l.06-.262c.077-.354.184-.6.339-.739.12-.17.322-.247.57-.247z" fill="#0A578A"/><path d="M25.057 24.119h-.247v1.97h.307v-1.047c0-.262.046-.431.124-.555.092-.124.23-.17.414-.17.138 0 .248.046.323.124.06.078.106.201.106.354v1.276h.293v-1.107c0-.23.046-.4.124-.509.078-.106.23-.155.414-.155.139 0 .248.046.308.124.06.077.107.2.107.353v1.277h.293v-1.291c0-.247-.06-.431-.17-.538-.106-.123-.276-.184-.509-.184a.812.812 0 00-.385.092.529.529 0 00-.248.248h-.014c-.092-.23-.294-.34-.601-.34a.908.908 0 00-.354.078.615.615 0 00-.248.23h-.014l-.023-.23zm-2.445 0h-.323l.8 1.984-.106.276c-.092.23-.23.354-.446.354a.812.812 0 01-.216-.032v.247c.092.015.184.032.276.032a.61.61 0 00.415-.138c.106-.092.215-.247.293-.463l.846-2.263h-.322c-.277.77-.446 1.216-.492 1.369-.046.155-.092.261-.107.307h-.014c-.015-.106-.078-.293-.184-.555l-.42-1.118zm-2.247-.046a.908.908 0 00-.354.077.483.483 0 00-.23.23h-.015l-.046-.276h-.247v1.984h.293v-1.046c0-.262.046-.431.124-.555.092-.124.23-.17.414-.17.138 0 .248.046.308.124s.107.201.107.354v1.276h.29v-1.107c0-.23.046-.4.138-.509.092-.106.23-.155.415-.155.138 0 .247.046.322.124.06.077.092.2.092.353v1.277h.308v-1.291c0-.247-.06-.431-.17-.538-.107-.123-.276-.184-.51-.184a.812.812 0 00-.385.092.656.656 0 00-.262.248h-.014c-.057-.199-.27-.308-.578-.308zm8.357 2.062c.294 0 .51-.093.662-.277.17-.184.247-.43.247-.753 0-.308-.077-.57-.247-.753a.852.852 0 00-.662-.276c-.293 0-.51.092-.676.276-.155.184-.247.431-.247.753 0 .216.031.385.106.538a.805.805 0 00.322.353.93.93 0 00.495.139zm0-1.8c.201 0 .354.06.446.2.106.124.155.323.155.57 0 .262-.046.446-.155.584a.557.557 0 01-.446.201c-.198 0-.34-.06-.446-.201-.106-.124-.155-.322-.155-.584 0-.247.046-.446.155-.57.107-.137.245-.2.446-.2zm4.664.816v-.201a.996.996 0 00-.216-.647c-.138-.17-.34-.247-.584-.247-.262 0-.478.092-.63.276-.156.184-.248.445-.248.753s.092.555.248.739c.17.184.4.276.693.276.138 0 .247-.014.34-.032a.808.808 0 00.293-.106v-.276a1.509 1.509 0 01-.63.138.635.635 0 01-.478-.184c-.106-.124-.17-.293-.17-.523h1.387l-.005.034zm-.46-.661c.091.092.137.247.137.431h-1.047a.734.734 0 01.17-.431c.092-.11.216-.155.385-.155.153 0 .277.046.354.155zm2.183 1.167c-.015.107-.046.262-.078.446-.046.184-.078.34-.106.463h.215c.06-.138.124-.293.185-.446.06-.155.106-.293.138-.414l-.032-.046h-.322v-.003zm2.155-1.584a.908.908 0 00-.354.077.483.483 0 00-.23.23h-.015l-.046-.276h-.247v1.984h.293v-1.046c0-.262.046-.431.124-.555.092-.124.23-.17.414-.17.138 0 .248.046.308.124s.106.201.106.354v1.276h.294v-1.107c0-.23.046-.4.138-.509.092-.106.23-.155.414-.155.138 0 .248.046.322.124.06.077.092.2.092.353v1.277h.294v-1.291c0-.247-.06-.431-.17-.538-.106-.123-.276-.184-.51-.184a.812.812 0 00-.385.092.656.656 0 00-.261.248h-.015c-.043-.199-.259-.308-.566-.308zm-3.677.046h-.322l.8 1.984-.107.276c-.092.23-.23.354-.446.354a.812.812 0 01-.216-.032v.247c.092.015.17.032.276.032a.61.61 0 00.415-.138c.106-.092.216-.247.293-.463l.846-2.263h-.308c-.276.77-.446 1.216-.492 1.369-.046.155-.092.261-.092.307h-.014c-.015-.106-.078-.293-.17-.555l-.463-1.118zm-3.481 0h-.248v1.97h.294v-1.047c0-.262.046-.446.155-.555.092-.106.248-.17.446-.17.156 0 .276.046.354.124.078.078.106.201.106.354v1.276h.294v-1.29c0-.248-.06-.432-.17-.539-.124-.123-.308-.184-.538-.184a.924.924 0 00-.368.078.549.549 0 00-.262.23h-.014l-.05-.247zM36.94 9.043h-3.849l-.601 2.663h3.849l.601-2.663zm9.083 15.076H45.7l.8 1.984-.106.276c-.092.23-.23.354-.446.354a.812.812 0 01-.216-.032v.247c.092.015.17.032.276.032a.61.61 0 00.414-.138c.107-.092.216-.247.294-.463l.846-2.263h-.322c-.277.77-.446 1.216-.492 1.369-.046.155-.092.261-.107.307h-.014c-.015-.106-.078-.293-.184-.555l-.42-1.118zm-1.002-.046c-.123 0-.23.014-.353.046-.124.031-.23.077-.323.123l.092.23a1.19 1.19 0 01.556-.155c.155 0 .261.046.322.124.06.078.092.184.092.34v.123h-.34c-.63.014-.955.23-.955.63 0 .184.06.322.17.43.107.107.262.156.463.156.138 0 .262-.032.368-.06a.753.753 0 00.294-.262h.014l.06.276h.23V24.72c0-.23-.06-.4-.169-.51a.97.97 0 00-.52-.137zm.078 1.06l.308-.014v.185c0 .184-.046.322-.155.43-.107.107-.262.156-.446.156-.124 0-.216-.032-.277-.092-.06-.06-.092-.138-.092-.262 0-.138.046-.23.156-.293.106-.063.273-.11.506-.11zm-3.357-1.014h-.322l.538 1.97h.353l.386-1.154c.032-.106.078-.276.124-.491h.014c.06.247.106.414.138.477l.368 1.17h.354l.538-1.97h-.308c-.23.878-.354 1.37-.368 1.447a1.35 1.35 0 01-.046.201h-.032a8.2 8.2 0 00-.138-.509l-.354-1.138h-.322l-.368 1.138c-.014.06-.046.138-.078.248-.031.106-.046.2-.06.276h-.014a4.008 4.008 0 00-.124-.524c-.046-.279-.155-.65-.28-1.141zm-.708 0h-.308c-.276.77-.446 1.216-.492 1.369-.046.155-.092.261-.092.307h-.014c-.015-.106-.078-.293-.17-.555l-.431-1.124h-.323l.8 1.984-.106.276c-.092.23-.23.354-.446.354a.812.812 0 01-.216-.032v.247c.092.015.17.032.276.032a.61.61 0 00.415-.138c.106-.092.215-.247.293-.463l.814-2.257z" fill="#229D55"/><path d="M35.463 9.124c-.138-.051-.308-.112-.478-.112-.17 0-.34.05-.492.112h.97z" fill="#E57B12"/></g></g></svg>