<?xml version="1.0" encoding="UTF-8"?>
<svg width="56px" height="36px" viewBox="0 0 56 36" version="1.1" xmlns="http://www.w3.org/2000/svg" xmlns:xlink="http://www.w3.org/1999/xlink">
    <!-- Generator: Sketch 52.5 (67469) - http://www.bohemiancoding.com/sketch -->
    <title>PM/Tatra_Banka</title>
    <desc>Created with Sketch.</desc>
    <defs>
        <polygon id="path-1" points="30.9767953 0.00309082061 30.9767953 20.0817382 0.0402583519 20.0817382 0.0402583519 0.00309082061"></polygon>
        <polygon id="path-3" points="0 3.17902128 0 0.0464362936 2.72313674 0.0464362936 2.72313674 3.17902128 1.52407084e-17 3.17902128"></polygon>
    </defs>
    <g id="PM/Tatra_Banka" stroke="none" stroke-width="1" fill="none" fill-rule="evenodd">
        <path d="M0,3.75075247 C0,1.67926908 1.67596877,0 3.75035585,0 L52.2496442,0 C54.3209085,0 56,1.68806916 56,3.75075247 L56,32.2492475 C56,34.3207309 54.3240312,36 52.2496442,36 L3.75035585,36 C1.67909151,36 0,34.3119308 0,32.2492475 L0,3.75075247 Z" id="Rectangle-2" fill="#000000" fill-rule="nonzero"></path>
        <path d="M1.25,3.75075247 L1.25,32.2492475 C1.25,33.6250965 2.37296468,34.75 3.75035585,34.75 L52.2496442,34.75 C53.6324061,34.75 54.75,33.6316447 54.75,32.2492475 L54.75,3.75075247 C54.75,2.37490355 53.6270353,1.25 52.2496442,1.25 L3.75035585,1.25 C2.36759386,1.25 1.25,2.36835527 1.25,3.75075247 Z" id="Path" fill="#FFFFFF"></path>
        <g id="Page-1" transform="translate(13.000000, 3.000000)">
            <path d="M6.32896725,23.3631496 C7.09594532,21.9917158 7.83813246,20.6634186 8.58136199,19.3357729 C11.6533532,13.8480836 14.7257523,8.360627 17.7978795,2.87298426 C18.304938,1.96725727 18.8121325,1.06153027 19.3176953,0.154872615 C19.3681836,0.0643650624 19.4134599,-0.000549094662 19.5376865,9.30668926e-06 C20.8669702,0.00587252087 22.1962991,0.00382504925 23.5256734,0.00452305094 C23.5456602,0.00456958439 23.5656924,0.0120614692 23.6130082,0.0215077587 C23.3976851,0.407828427 23.1900667,0.781631598 22.9813152,1.15482983 C18.886188,8.47519234 14.7902904,15.795043 10.6999219,23.1181975 C10.5972684,23.3020511 10.4890857,23.3705018 10.2808327,23.368594 C9.04980643,23.357519 7.81859883,23.3631496 6.58748187,23.3631496 L6.32896725,23.3631496 Z" id="Fill-1" fill="#013975"></path>
            <path d="M11.7452791,23.355788 C12.2290423,22.4901728 12.6890569,21.666019 13.1501139,20.8424235 C16.3160569,15.1876791 19.482861,9.53340013 22.6449063,3.87628258 C22.7263946,3.73044676 22.8089253,3.67423436 22.9757089,3.67535116 C24.2293507,3.68354105 25.4830379,3.67977184 26.7366797,3.67977184 L26.9345539,3.67977184 C26.9584838,3.77139619 26.8987952,3.82197805 26.867342,3.87823698 C23.275149,10.2985961 19.6805086,16.7176058 16.0913069,23.1397332 C16.0014794,23.3005062 15.9101563,23.3619304 15.7275101,23.3606275 C14.4890057,23.3514138 13.2504107,23.355788 12.011861,23.355788 L11.7452791,23.355788 Z" id="Fill-3" fill="#013975"></path>
            <path d="M1.02609094,23.355788 C1.83186433,21.9149264 2.61552076,20.5130598 3.39972105,19.1115189 C5.5316962,15.3011277 7.66480439,11.4913879 9.79288187,7.67871658 C9.87396228,7.53343916 9.95789795,7.47480702 10.1252254,7.47587729 C11.3712079,7.48388104 12.617281,7.4802049 13.8633088,7.4802049 L14.0856114,7.4802049 C14.0908234,7.60319279 14.021436,7.67173656 13.9785164,7.74851675 C11.1041275,12.8875774 8.22742719,18.0252421 5.3551231,23.1655127 C5.27898275,23.3017626 5.20438333,23.3611859 5.04394474,23.3602086 C3.77530146,23.3522514 2.50661287,23.355788 1.23787895,23.355788 L1.02609094,23.355788 Z" id="Fill-5" fill="#013975"></path>
            <g id="Group-9" transform="translate(0.000000, 5.327568)">
                <mask id="mask-2" fill="white">
                    <use xlink:href="#path-1"></use>
                </mask>
                <g id="Clip-8"></g>
                <path d="M15.5089873,20.0757803 C10.4410765,20.0757803 5.37316564,20.0739655 0.305254825,20.0817366 C0.0790545322,20.0821089 0.0403045322,20.016962 0.0404858187,19.8002093 C0.0465589181,13.301767 0.0467402047,6.80332474 0.0402592105,0.304882484 C0.0400326023,0.0763567314 0.0845384503,0.0129316446 0.318398099,0.0133039122 C5.21254576,0.0215403321 10.1067841,0.0190740595 15.000977,0.0237739375 C15.0758031,0.023820471 15.2037007,-0.0617545361 15.2300326,0.114886425 C15.2584946,0.305487419 15.1527592,0.301345942 15.0188338,0.301159809 C12.9116042,0.298274735 10.8043747,0.299112337 8.69714518,0.299112337 C5.98573289,0.299112337 3.27427529,0.301159809 0.56281769,0.294738193 C0.372466813,0.294272859 0.312007749,0.328521475 0.312234357,0.542714926 C0.319032602,6.87833665 0.318896637,13.2139118 0.312732895,19.549487 C0.312506287,19.7569797 0.363175877,19.8011865 0.560234357,19.8010934 C10.5223382,19.7956024 20.4843966,19.7955559 30.4465004,19.8014657 C30.6566115,19.8016053 30.7017972,19.7429266 30.7016159,19.5357131 C30.6961773,13.207816 30.6958601,6.87996533 30.7026583,0.552114682 C30.7029303,0.328800675 30.6343133,0.293156056 30.4394303,0.294738193 C29.3216627,0.303765682 28.2037592,0.299717272 27.0859917,0.297995534 C26.9982943,0.297855934 26.8888879,0.343365644 26.8854434,0.167562285 C26.881863,-0.0167101604 26.9929463,0.0198651281 27.0931525,0.0198185946 C28.3167007,0.0193997936 29.540249,0.0234947368 30.7637519,0.0150256497 C30.9357022,0.0138623135 30.9750867,0.0606284267 30.9749507,0.233127911 C30.9706452,6.77810361 30.9702826,13.3231258 30.9768089,19.868055 C30.9770355,20.0818297 30.8852139,20.0778743 30.7353806,20.0777813 C25.6599463,20.0753615 20.5844215,20.0757803 15.5089873,20.0757803" id="Fill-7" fill="#033B76" mask="url(#mask-2)"></path>
            </g>
            <path d="M28.2931879,18.7136207 C28.2941849,18.5868636 28.2905592,18.3856065 28.19697,18.2016132 C28.0606425,17.9335806 27.8215256,17.8652229 27.551182,17.8652695 C27.3687624,17.865316 27.2518326,17.9611284 27.2046981,18.138002 C27.0380051,18.7631788 26.8767507,19.3898913 26.7086075,20.0146493 C26.683318,20.1086004 26.6999963,20.1337284 26.7951718,20.1389867 C27.6852434,20.1883587 28.2138297,19.7118562 28.2931879,18.7136207 M26.5144042,23.0401609 C26.5783984,23.0314592 26.6762931,23.0238277 26.7718765,23.0042836 C27.6683385,22.8208488 27.99053,21.4422954 27.7068165,20.8873376 C27.5573458,20.5948749 27.1309598,20.4041343 26.6985461,20.4668148 C26.4593385,20.5014822 26.5275475,20.7468531 26.4834496,20.8951087 C26.3188414,21.4488567 26.18197,22.0114926 26.0379832,22.5716622 C25.9528692,22.9028407 26.0316835,23.0092627 26.3677887,23.0308542 C26.4054057,23.033274 26.443068,23.0356472 26.5144042,23.0401609 M28.1121279,20.2813325 C28.1950665,20.3169771 28.2220782,20.3294016 28.2495885,20.3402904 C28.7108721,20.5231668 29.0777961,20.8011111 29.1341308,21.3495543 C29.2017507,22.0084214 29.0082273,22.5609595 28.4441542,22.9299232 C27.9031045,23.2839031 27.2895402,23.3666861 26.6672741,23.3770631 C25.8675285,23.3903716 25.0674656,23.3817164 24.2676294,23.3776215 C24.1922595,23.3772492 24.0787288,23.4342527 24.0637273,23.2742241 C24.0501308,23.1289933 24.1148048,23.0914873 24.2412069,23.0741303 C24.5530651,23.0312265 24.6671396,22.789113 24.7403341,22.5156824 C24.9516689,21.726196 25.1641367,20.9370353 25.3718004,20.1465251 C25.5304715,19.542521 25.6910914,18.9388891 25.8341265,18.3308831 C25.9167025,17.9798813 25.8074773,17.8462838 25.4505241,17.8215746 C25.333549,17.8134312 25.2418633,17.8124075 25.2556864,17.6494473 C25.2632551,17.5592655 25.2926689,17.5281346 25.378508,17.5304148 C26.3432244,17.5558686 27.3098443,17.4756449 28.2729291,17.5840678 C28.4831308,17.6077068 28.6862171,17.6668974 28.8804656,17.7546595 C29.6895928,18.1201797 29.8471308,19.1490342 29.1883355,19.7604836 C28.9593253,19.9730019 28.6844949,20.0950591 28.3955241,20.1902666 C28.319701,20.215255 28.243606,20.2391267 28.1121279,20.2813325" id="Fill-10" fill="#033B76"></path>
            <path d="M21.8398535,17.9069634 C21.2508082,17.9071961 20.8099193,18.1663409 20.4489325,18.5948208 C20.320219,18.7475436 20.2024281,18.9118997 20.1248374,19.0965444 C20.0574895,19.2568987 19.9290933,19.2477316 19.8255787,19.2098534 C19.7265509,19.1736038 19.8032804,19.0601553 19.8182365,18.9883542 C19.9091064,18.5496834 20.0157029,18.114363 20.1021313,17.6748546 C20.1260158,17.5534023 20.1756883,17.5295772 20.2810611,17.5297168 C21.7455392,17.5319504 23.2099719,17.5317643 24.67445,17.5301356 C24.776469,17.5300425 24.8480319,17.5267852 24.8184822,17.6764367 C24.7255728,18.1464245 24.6364705,18.6175757 24.5651342,19.0913327 C24.5407965,19.253083 24.4469354,19.213483 24.3557029,19.2226501 C24.2440304,19.2339577 24.2409939,19.1656466 24.2377307,19.0790479 C24.230298,18.8847707 24.1930436,18.6946351 24.1262395,18.5123636 C23.9849719,18.126834 23.6844442,17.9256233 23.274102,17.9019844 C23.1171079,17.8929103 23.1034208,17.9864891 23.075548,18.0901656 C22.7689471,19.230235 22.4620743,20.370351 22.156833,21.5108392 C22.0690904,21.8388069 21.9758637,22.1657509 21.9033038,22.4973948 C21.804548,22.9490019 21.8824105,23.0435113 22.3299164,23.0935813 C22.4044705,23.1019573 22.5026371,23.0510497 22.5561167,23.1458849 C22.6210626,23.2612413 22.543336,23.3794363 22.4010713,23.3796224 C21.5631649,23.3809719 20.7252585,23.3799481 19.887352,23.3803669 C19.7941254,23.3804135 19.7126825,23.3913954 19.7105523,23.2437913 C19.7081956,23.0805519 19.8025099,23.1013524 19.9014924,23.0978159 C20.2766196,23.0844608 20.4690099,22.9596581 20.569624,22.5948358 C20.9979588,21.0415494 21.4136488,19.4845868 21.8398535,17.9069634" id="Fill-12" fill="#033B76"></path>
            <path d="M12.3189015,27.8685736 C12.2503751,28.0462849 12.2055067,28.1601522 12.1624965,28.2747641 C11.9393781,28.8694615 11.9395594,28.8695081 12.5572026,28.8268834 C12.5646807,28.8263716 12.5722494,28.8264181 12.5797728,28.8267904 C12.674767,28.8316764 12.6998751,28.7966367 12.6600374,28.7024995 C12.5506763,28.4441458 12.4471164,28.1832793 12.3189015,27.8685736 M9.21368947,27.7232962 C9.21368947,27.8853722 9.21826696,28.0476343 9.21205789,28.2094311 C9.20802427,28.3152482 9.25230351,28.3464721 9.34639123,28.3341408 C9.56280205,28.3058484 9.80509152,28.3041732 9.8879848,28.0438651 C9.97844678,27.7597784 10.0040988,27.4621505 9.80500088,27.2081244 C9.67628743,27.0439079 9.47641901,27.0427911 9.30428743,27.0953739 C9.15817047,27.140046 9.22447602,27.3066823 9.21518509,27.4224575 C9.20711784,27.5221321 9.21346287,27.6229701 9.21368947,27.7232962 M9.22021579,28.5693208 L9.22021579,29.4847733 C9.22021579,29.6558768 9.31267193,29.7336341 9.46966608,29.7556445 C9.5304424,29.7641136 9.60884883,29.7571335 9.60295702,29.8679297 C9.59670263,29.9849148 9.5176617,29.9551799 9.45688538,29.9554591 C9.04160322,29.9574135 8.62632105,29.9578323 8.21103889,29.9549472 C8.15270994,29.954575 8.07017924,29.991569 8.05884883,29.8748632 C8.04847018,29.7684412 8.11708713,29.7642532 8.1842538,29.7577385 C8.38978743,29.7377756 8.43370409,29.608273 8.43189123,29.4186958 C8.42536491,28.74424 8.42545556,28.0697377 8.43180058,27.3953285 C8.43374942,27.1860211 8.38063246,27.0437218 8.15148626,27.0375328 C8.08699357,27.0358111 8.05726257,27.0135681 8.0585769,26.9416274 C8.05993655,26.8662897 8.09800673,26.8507476 8.15905497,26.8526554 C8.77710614,26.8716876 9.39900965,26.7955589 10.0129365,26.9004918 C10.5645009,26.9948151 10.8299044,27.3597769 10.7415725,27.8493088 C10.6908576,28.1303708 10.5129702,28.2971932 10.2674629,28.3931917 C10.1382509,28.443727 10.1048942,28.4879338 10.1976675,28.6158542 C10.436286,28.9449388 10.6607187,29.2848656 10.8936719,29.6183708 C11.0364351,29.8227457 11.2296412,29.8201398 11.3608927,29.6017118 C11.4392085,29.4714182 11.4925974,29.3242794 11.5492494,29.1814217 C11.8418006,28.4440528 12.1305901,27.7051016 12.4246368,26.9683376 C12.4527816,26.8977929 12.4500623,26.794256 12.5704819,26.7895096 C12.7015067,26.7843443 12.7040901,26.8917435 12.7371749,26.9711296 C13.0657567,27.7596388 13.3912567,28.5495441 13.7215608,29.3373088 C13.7971573,29.5176724 13.8417085,29.7298649 14.0793298,29.7756073 C14.1412392,29.7875199 14.1270988,29.8463382 14.1232012,29.8897073 C14.1158591,29.9706755 14.0508225,29.9554126 14.0015579,29.9556918 C13.6995798,29.9572274 13.3975564,29.9563898 13.095533,29.9563432 C13.042688,29.9563432 12.9874863,29.966441 12.9374512,29.9542027 C12.8381515,29.9300518 12.6766251,30.0324254 12.647438,29.8853332 C12.6090506,29.6919867 12.8112304,29.8007354 12.8884585,29.7405676 C12.9113459,29.7226988 12.9550813,29.7186504 12.9632845,29.6976173 C13.0306778,29.5249782 12.9117085,29.3894728 12.8678371,29.2391232 C12.8424117,29.1520126 12.8205213,29.0610397 12.6928503,29.0698345 C12.5425184,29.0802115 12.3910082,29.0722543 12.2399965,29.0722543 C11.8497319,29.0723008 11.8584336,29.0756047 11.7258678,29.4434981 C11.6537611,29.6436385 11.7041135,29.7367984 11.9038912,29.7629037 C11.9646675,29.7708144 12.0477874,29.7518287 12.0416237,29.8661614 C12.0355959,29.9792842 11.9563737,29.9553195 11.8938751,29.9555056 C11.3653342,29.9570412 10.836748,29.9530393 10.3082977,29.9589491 C10.1982567,29.960159 10.1482216,29.9034812 10.0961471,29.8214893 C9.85304181,29.4390309 9.60703596,29.0584804 9.35980643,28.6787675 C9.33306667,28.6376319 9.32101111,28.5754167 9.22021579,28.5693208" id="Fill-14" fill="#073E78"></path>
            <path d="M29.1601409,27.872394 C29.0975971,28.029584 29.0487404,28.1485235 29.0026936,28.2685798 C28.7678822,28.8810995 28.7680181,28.8797501 29.4141687,28.8283306 C29.4961102,28.8217694 29.5467345,28.8185586 29.5026819,28.7133465 C29.3906921,28.4460584 29.2836424,28.1765832 29.1601409,27.872394 M25.8197096,28.2451735 C26.1548178,27.9084109 26.4678091,27.5985912 26.7749991,27.2828618 C26.8894816,27.1651787 26.8594333,27.0790453 26.6978164,27.0490312 C26.6608339,27.0421443 26.6229904,27.0395384 26.5854187,27.0369325 C26.5293105,27.0330703 26.4808164,27.0260903 26.4820401,26.9477745 C26.4833997,26.8590817 26.5367886,26.8520552 26.6031848,26.8522413 C26.9656219,26.853172 27.3280591,26.8525205 27.6904509,26.8526601 C27.7526322,26.8527066 27.8124114,26.8507522 27.8140883,26.9445637 C27.8154933,27.0221814 27.7698544,27.0280912 27.7140181,27.0371652 C27.1487213,27.1285104 26.8522725,27.5988239 26.4801365,27.9623432 C26.4173208,28.0236743 26.4606936,28.0686721 26.5003047,28.1187421 C26.9040751,28.6303773 27.3045371,29.1448511 27.7108456,29.6543458 C27.8409187,29.8174455 28.0448208,29.8119081 28.1729904,29.6396878 C28.2400664,29.549599 28.2843909,29.438989 28.3268573,29.3325205 C28.6406643,28.5457795 28.9506643,27.7574564 29.2645167,26.970762 C29.2930693,26.8992866 29.287948,26.7988674 29.4059655,26.7893281 C29.5398003,26.7784858 29.544831,26.8903987 29.5770547,26.9678304 C29.9025547,27.7494992 30.2203953,28.5346115 30.5499743,29.3144655 C30.6276556,29.4983192 30.6688076,29.7252162 30.9154026,29.7780317 C30.974774,29.7907819 30.9536541,29.8535555 30.9514787,29.8963197 C30.948986,29.9453194 30.9116409,29.9555568 30.8710327,29.9555568 C30.4406585,29.9557429 30.0102842,29.9554172 29.5799099,29.956534 C29.5104319,29.9567201 29.489448,29.9200983 29.4895386,29.8555099 C29.4895839,29.7989718 29.5121088,29.7765892 29.5676731,29.7676082 C29.6938032,29.7472266 29.8559187,29.7718893 29.8167155,29.5430843 C29.7593836,29.2080435 29.6516541,29.0728173 29.4168427,29.0724451 C29.2884918,29.0722124 29.1572404,29.0902674 29.0324246,29.0686759 C28.7636673,29.0222355 28.643157,29.1394067 28.5788456,29.4005524 C28.5099567,29.6802649 28.5029319,29.7020891 28.7696044,29.7647697 C28.8310152,29.7792416 28.8908851,29.7744021 28.8864889,29.8657007 C28.8812316,29.9756127 28.8038222,29.9558825 28.738831,29.9560221 C28.3537784,29.9569063 27.9686804,29.956534 27.5836278,29.9565805 C27.2514202,29.9565805 26.9191673,29.9590468 26.587005,29.9543935 C26.5237813,29.9535559 26.4262038,30.0022299 26.4151,29.8713778 C26.4037696,29.7376407 26.4993982,29.7776129 26.5666102,29.7681201 C26.630695,29.7590926 26.7143135,29.7729596 26.7413251,29.6984595 C26.7643032,29.6352206 26.7017594,29.5881753 26.6645503,29.5404319 C26.4383953,29.2501098 26.2133281,28.95895 25.9854962,28.6700704 C25.9554933,28.6319595 25.9345547,28.5600188 25.868657,28.5849607 C25.808062,28.6079947 25.8198003,28.6741188 25.8197096,28.7274461 C25.8191658,28.9755159 25.8238792,29.2237253 25.8179874,29.4716555 C25.8141804,29.6298227 25.8752287,29.7165145 26.0297301,29.7462494 C26.098755,29.7595114 26.2165912,29.7396416 26.1941117,29.8781252 C26.1717681,30.0152592 26.0620898,29.9521599 25.9935181,29.9533232 C25.6085561,29.9597914 25.2234129,29.9588141 24.8384056,29.9541143 C24.7742754,29.9533697 24.6773778,30.003114 24.6564845,29.8804518 C24.6353646,29.7565798 24.7336673,29.7633737 24.8010605,29.7565333 C24.9842506,29.738106 25.044483,29.6163745 25.0451629,29.4542985 C25.0480181,28.748898 25.0467944,28.043451 25.044483,27.3380505 C25.0439392,27.155779 24.9572389,27.0478679 24.7717374,27.0377701 C24.7104626,27.0344663 24.6493237,27.0338148 24.654445,26.9392588 C24.6596117,26.8443306 24.7235605,26.8529858 24.7829772,26.8528928 C25.2133515,26.8523809 25.6437257,26.8531254 26.0741,26.8527066 C26.1377316,26.8526601 26.1936132,26.8516364 26.1971482,26.9440983 C26.2008646,27.041772 26.135964,27.0331633 26.0775444,27.0390731 C25.8926322,27.0576865 25.8168091,27.1673658 25.8188485,27.352057 C25.8220664,27.6387496 25.8197096,27.9254887 25.8197096,28.2451735" id="Fill-16" fill="#083E78"></path>
            <path d="M16.7683895,27.6642174 C16.7683895,27.7880429 16.778043,27.9129386 16.7659874,28.0355077 C16.7503515,28.1950709 16.8238178,28.216011 16.9530751,28.1990263 C17.1551643,28.1724557 17.3232623,28.1067039 17.3613325,27.8723615 C17.4052038,27.6023279 17.4443164,27.3261053 17.204293,27.123871 C17.108755,27.0433216 16.9801775,27.0266161 16.8610722,27.0782217 C16.7330839,27.1336895 16.7748251,27.2599348 16.7695225,27.3623549 C16.7643558,27.462681 16.7683895,27.5635655 16.7683895,27.6642174 M16.7696585,29.0131754 C16.7696585,29.1674803 16.7718339,29.3217852 16.7691146,29.4760436 C16.7655795,29.6768354 16.863157,29.7507771 17.0514684,29.7352349 C17.2853281,29.715877 17.4378354,29.5845596 17.4823865,29.3390957 C17.5085371,29.1949816 17.511755,29.0488666 17.4887316,28.9026585 C17.4467637,28.6363941 17.2920357,28.4743646 17.0343822,28.4308093 C16.7867447,28.3889292 16.7699304,28.4038199 16.7695678,28.6660359 C16.7693865,28.7817646 16.7695225,28.8974933 16.7696585,29.0131754 M17.6262374,28.2657087 C17.7158383,28.3076818 17.7902111,28.3411394 17.8634056,28.3770167 C18.1448529,28.5149883 18.3170751,28.7376044 18.3241,29.0630127 C18.3311702,29.3903755 18.1588573,29.617133 17.8883778,29.768041 C17.6372506,29.9081532 17.3590664,29.9473343 17.0797944,29.9537094 C16.650236,29.9634815 16.2203149,29.9578509 15.7905751,29.9548728 C15.7259012,29.9544074 15.6324026,29.9960549 15.6271,29.8627365 C15.6226132,29.7495207 15.7056424,29.7637599 15.764198,29.7568264 C15.9566789,29.734025 16.0033149,29.6195528 16.0012754,29.435606 C15.9937974,28.7545425 15.992483,28.0731533 16.0017287,27.3920432 C16.0045839,27.178129 15.9492462,27.0447641 15.7230912,27.0369 C15.6630401,27.0347594 15.6249246,27.0201945 15.627236,26.9444845 C15.629502,26.8725438 15.6609553,26.850487 15.7248135,26.8526275 C16.3192067,26.8722646 16.9173617,26.7967409 17.507676,26.9015342 C17.9734465,26.9841776 18.2107506,27.2832015 18.1689187,27.6878098 C18.1351994,28.0138231 17.9059626,28.1537957 17.6262374,28.2657087" id="Fill-18" fill="#063D78"></path>
            <path d="M22.1039518,27.6834869 C22.1039518,28.3251831 22.1021842,28.9103877 22.1050848,29.4955923 C22.1059006,29.6570634 22.2151257,29.7168123 22.3517705,29.7514332 C22.4143143,29.7673011 22.5196871,29.7402186 22.5095804,29.8667896 C22.4978874,30.0129512 22.3862602,29.9514805 22.3181418,29.9535279 C22.0690994,29.9609268 21.8197851,29.9572041 21.5706067,29.9559012 C21.5131842,29.9555754 21.4458363,29.9706523 21.4371798,29.8754448 C21.4293392,29.7895906 21.4761564,29.7691624 21.5444108,29.7637646 C21.7950395,29.7439413 21.8364635,29.580097 21.8329737,29.3576206 C21.8239094,28.7840029 21.8140746,28.2095009 21.836826,27.6366742 C21.8474766,27.3693396 21.7542047,27.1911165 21.552614,27.0563556 C21.496098,27.018617 21.4551272,26.991488 21.4701287,26.9167553 C21.4890731,26.8224785 21.5625848,26.8629161 21.6156111,26.8527252 C21.6229079,26.8513758 21.6308845,26.8537024 21.6382266,26.8523995 C22.1964985,26.7520269 22.6048012,26.9328558 22.9193787,27.4460267 C23.1818363,27.8742275 23.5353904,28.2435169 23.8532763,28.6448213 C23.9208056,28.5894 23.8965585,28.5234156 23.8970117,28.4681338 C23.8995044,28.1347682 23.8920716,27.8012165 23.9000936,27.468037 C23.9056681,27.2384875 23.8510556,27.0671514 23.5970731,27.0400224 C23.5325351,27.0331354 23.5042091,27.0083331 23.5067924,26.9385329 C23.5097383,26.8620319 23.5538363,26.8526322 23.6121652,26.8527252 C23.876481,26.8533302 24.1407515,26.8526787 24.4050673,26.8533767 C24.451114,26.8535163 24.4973874,26.8570994 24.5032792,26.9215482 C24.5088538,26.9809714 24.5024181,27.0297385 24.4295409,27.0377422 C24.1561608,27.0678028 24.1548012,27.2688739 24.1557982,27.482695 C24.1595146,28.2580353 24.1589254,29.0333756 24.1546652,29.8087159 C24.1542573,29.8831694 24.2079181,29.9920111 24.0981491,30.0289587 C23.9910541,30.0650221 23.9384357,29.9690701 23.8813304,29.8976878 C23.3642558,29.2508264 22.8471813,28.6038719 22.3297442,27.9572897 C22.2679254,27.8799976 22.2039313,27.8045669 22.1039518,27.6834869" id="Fill-20" fill="#073E78"></path>
            <path d="M6.54109971,26.852111 C6.92588041,26.8521575 7.31079708,26.8577416 7.69544181,26.8491794 C7.83244912,26.8461082 7.88361725,26.8840329 7.87545936,27.0307994 C7.86390234,27.2392227 7.87622982,27.4489955 7.87119912,27.6579772 C7.86970351,27.7199598 7.93265526,27.8196809 7.79202222,27.825963 C7.6828424,27.8307559 7.6706962,27.7624448 7.65746228,27.6826399 C7.60561433,27.3701679 7.44241111,27.1627218 7.13145936,27.0921305 C6.98488918,27.0588591 6.89850614,27.0638382 6.90222251,27.269516 C6.91464064,27.9586763 6.90226784,28.6483951 6.9091114,29.3377416 C6.9118307,29.6140572 6.9057576,29.7584504 7.24127368,29.7677106 C7.30422544,29.7694323 7.33663041,29.7869289 7.33690234,29.8603121 C7.33721959,29.9497029 7.28845351,29.9576601 7.2207883,29.957474 C6.76054708,29.9563106 6.30035117,29.9572413 5.84010994,29.9564502 C5.78150906,29.9563106 5.71629123,29.9672925 5.70976491,29.8724108 C5.70373713,29.7849745 5.75137018,29.7674314 5.81985117,29.7659889 C6.08099444,29.7606375 6.1368307,29.5991199 6.13420205,29.3638003 C6.12654269,28.6666362 6.12377807,27.969286 6.13606023,27.2722615 C6.13959532,27.0710974 6.05942135,27.0569512 5.90931608,27.0908741 C5.6091962,27.1586733 5.4443614,27.3554633 5.38562456,27.6574654 C5.37012456,27.7371771 5.38000468,27.8375033 5.25065673,27.8237759 C5.10639795,27.8084664 5.17098129,27.695297 5.16925906,27.6270325 C5.16440965,27.4261476 5.18539357,27.224332 5.17632924,27.0238194 C5.16934971,26.8692818 5.23502076,26.8470854 5.36414211,26.8494586 C5.75635556,26.8567643 6.14879561,26.852111 6.54109971,26.852111" id="Fill-22" fill="#0B417A"></path>
            <g id="Group-26" transform="translate(0.000000, 26.779486)">
                <mask id="mask-4" fill="white">
                    <use xlink:href="#path-3"></use>
                </mask>
                <g id="Clip-25"></g>
                <path d="M1.37556155,0.0731691904 C1.76809225,0.0732157238 2.16062295,0.0776829346 2.55301769,0.0705633174 C2.67747091,0.068329712 2.72872968,0.100065522 2.72265658,0.237246121 C2.71268582,0.46153733 2.721025,0.686666141 2.71916681,0.911376152 C2.7187136,0.968007355 2.74037734,1.03724912 2.64239196,1.04539248 C2.54912003,1.05316356 2.53362003,1.00509451 2.52038611,0.926313388 C2.46173991,0.577359077 2.27968289,0.348833324 1.9204636,0.301136542 C1.82143582,0.28801411 1.75558348,0.285082503 1.75721506,0.432453926 C1.76555424,1.17633759 1.76220044,1.92031433 1.76115804,2.66433759 C1.76088611,2.85875433 1.84595482,2.96675846 2.03879839,2.98509264 C2.10510395,2.99142118 2.20517412,2.96378032 2.19089781,3.09491157 C2.17906886,3.20366023 2.09730863,3.17574016 2.03494605,3.17597283 C1.59718436,3.17764803 1.15937734,3.17769457 0.721615643,3.17615896 C0.65925307,3.1759263 0.580755994,3.20156623 0.573867105,3.08769888 C0.567023538,2.97508794 0.646698977,2.9854649 0.708744298,2.98127689 C0.933086404,2.96629312 0.993500146,2.8322768 0.991732602,2.62143376 C0.985614181,1.90072375 0.984163889,1.17987413 0.993454825,0.459303725 C0.995494298,0.299833605 0.941470906,0.279545023 0.811125877,0.301369209 C0.48707617,0.355766807 0.308690205,0.556372493 0.235903655,0.874847397 C0.219225292,0.947532639 0.244696053,1.06070198 0.108096637,1.04371727 C-0.0384282164,1.02556923 0.0327267544,0.910212815 0.0345849415,0.845484792 C0.0417457602,0.593133915 -0.076226462,0.255906032 0.0867954678,0.113048354 C0.228244298,-0.010870213 0.546628801,0.0766591988 0.78683348,0.0736810583 C0.983030848,0.0712613191 1.17931886,0.0731691904 1.37556155,0.0731691904" id="Fill-24" fill="#063D78" mask="url(#mask-4)"></path>
            </g>
            <path d="M3.67605614,27.8650324 C3.60907076,28.0402774 3.56021404,28.167686 3.51167456,28.2952807 C3.29820965,28.8565671 3.29807368,28.8520534 3.89101667,28.8296708 C4.04139386,28.8239937 4.05054883,28.7797404 3.99489386,28.6528437 C3.88766287,28.4081708 3.79343918,28.1574021 3.67605614,27.8650324 M4.72534269,29.9564316 C4.52175789,29.9563851 4.31812778,29.95699 4.11454298,29.9560594 C4.05512632,29.9557802 3.98936462,29.9649938 3.98859415,29.8688092 C3.98786901,29.7820708 4.04066871,29.7666682 4.10652105,29.7664356 C4.36245234,29.765598 4.36902398,29.6865376 4.29682661,29.4128279 C4.2274845,29.1497278 4.10212485,29.0147808 3.82416725,29.0701556 C3.75147135,29.0846741 3.67374474,29.0723427 3.59832953,29.0723427 C3.19410585,29.0723427 3.20208246,29.0751812 3.07395819,29.4596871 C3.00864971,29.6556394 3.07704006,29.732978 3.25447427,29.7625268 C3.31203275,29.7721127 3.39714678,29.7415867 3.39388363,29.8600609 C3.39021257,29.9928673 3.29839094,29.9540119 3.23240263,29.9551287 C3.01381637,29.9588048 2.79504883,29.9581068 2.57641725,29.9553148 C2.52330029,29.9546168 2.45114825,29.984026 2.4399538,29.8841187 C2.43134269,29.8072919 2.46379298,29.7765799 2.53095965,29.7536854 C2.72883392,29.6862584 2.77977544,29.4968673 2.84730468,29.3268341 C3.15662485,28.5479108 3.46109561,27.7669399 3.77222865,26.9887146 C3.80263947,26.9126324 3.79511608,26.7956939 3.92623158,26.7901098 C4.07039971,26.7840605 4.06876813,26.9114225 4.10294064,26.9932283 C4.42912047,27.773222 4.74637193,28.5572175 5.07409269,29.3365596 C5.14891871,29.5145035 5.1939231,29.7299999 5.43299474,29.7738809 C5.49544795,29.7854212 5.47618626,29.8454959 5.47491725,29.888074 C5.47246988,29.9718807 5.40815848,29.9556406 5.35880322,29.9559198 C5.14764971,29.9572692 4.9364962,29.9564782 4.72534269,29.9564316" id="Fill-27" fill="#083E78"></path>
            <path d="M19.4955193,27.8671218 C19.3793599,28.1739168 19.2845018,28.4332477 19.1824827,28.6896005 C19.1400617,28.7962086 19.1710164,28.8299453 19.275664,28.8276187 C19.4265851,28.8241286 19.5778687,28.8216624 19.7286085,28.8283167 C19.8439067,28.8334819 19.8812518,28.8014203 19.8311713,28.6836907 C19.7229433,28.4290597 19.6203351,28.1719159 19.4955193,27.8671218 M20.5481143,29.9564735 C20.3518263,29.95652 20.1555383,29.9572181 19.9592956,29.9561012 C19.9016918,29.9557755 19.8335281,29.973086 19.8212912,29.8802983 C19.807876,29.7780178 19.871145,29.7660121 19.9453819,29.7635458 C20.1791509,29.7557748 20.1912064,29.6347878 20.1225442,29.4391612 C19.9948278,29.0751766 20.0023058,29.072338 19.6250939,29.072338 C19.5571567,29.072338 19.4892196,29.072338 19.4212825,29.0723846 C19.0193249,29.0724776 19.0262137,29.0749439 18.8955515,29.458333 C18.8306962,29.6486082 18.8868497,29.7348347 19.0706289,29.761638 C19.1376596,29.77141 19.2331977,29.7489809 19.2162927,29.8781112 C19.2016085,29.9901637 19.1190325,29.9539607 19.0596611,29.9549379 C18.8408029,29.9587537 18.6218541,29.957823 18.4029959,29.9556824 C18.3475675,29.955124 18.2783161,29.9769482 18.2648102,29.8814616 C18.2534345,29.801331 18.2948132,29.7705259 18.3584447,29.7501907 C18.5427678,29.6912329 18.5932108,29.5181285 18.6548936,29.363777 C18.9719637,28.5705679 19.2820544,27.7744737 19.5977649,26.9806596 C19.6286743,26.9030884 19.6236436,26.7894072 19.7566173,26.7896399 C19.8878687,26.7898725 19.88805,26.9043913 19.9198658,26.9802874 C20.2587357,27.7894575 20.5907167,28.6015592 20.929224,29.4108689 C20.9931728,29.5637312 21.0425281,29.7390693 21.2439827,29.7710377 C21.3085661,29.7812751 21.2924769,29.8377202 21.2929301,29.8812755 C21.2937459,29.9634535 21.2342839,29.9561012 21.182164,29.9562408 C20.9708292,29.9567062 20.7594491,29.956427 20.5481143,29.9564735" id="Fill-29" fill="#083E78"></path>
        </g>
    </g>
</svg>