<?xml version="1.0" encoding="UTF-8"?><svg width="56" height="36" viewBox="0 0 56 36" xmlns="http://www.w3.org/2000/svg"><g fill="none" fill-rule="evenodd"><path d="M0 3.75A3.749 3.749 0 013.75 0h48.5A3.756 3.756 0 0156 3.75v28.5A3.749 3.749 0 0152.25 36H3.75A3.756 3.756 0 010 32.25V3.75z" fill="#000" fill-rule="nonzero"/><path d="M1.25 3.75v28.5c0 1.375 1.123 2.5 2.5 2.5h48.5c1.382 0 2.5-1.118 2.5-2.5V3.75c0-1.375-1.123-2.5-2.5-2.5H3.75a2.499 2.499 0 00-2.5 2.5z" fill="#FFF"/><g fill-rule="nonzero"><path d="M42.29 7.247c0 .051-.052.051-.052.102a6.85 6.85 0 01-2.134 2.715 8.7 8.7 0 01-2.343 1.281c-.833.308-1.666.564-2.499.666-.677.103-1.353.205-2.03.205H18.603l.156-.307c.469-.974 1.146-1.845 1.979-2.46a10.983 10.983 0 012.759-1.485c.728-.256 1.457-.461 2.238-.564.52-.05.99-.102 1.51-.153l.52-.052h14.473c0 .052.052.052.052.052z" fill="#EB7223"/><path d="M28.807 13.292c-.313.154-.625.256-.937.41a5.67 5.67 0 00-2.239 1.896 15.633 15.633 0 00-1.041 1.844 13.396 13.396 0 01-1.562 2.613c-.312.41-.625.768-1.041 1.127-.156.102-.364.205-.573.307 0 0-.052 0-.052.051l.417.052a12.223 12.223 0 004.893-.718 5.786 5.786 0 003.176-2.664c.312-.512.573-1.076.833-1.64.364-.768.833-1.485 1.301-2.202.209-.307.469-.615.781-.871.104-.102.313-.154.469-.154 1.041.154 2.03.513 2.863 1.127.781.513 1.145 1.435.99 2.357a4.1 4.1 0 01-.886 1.998c-.52.666-1.145 1.23-1.822 1.742-.729.564-1.562 1.025-2.395 1.434a20.452 20.452 0 01-5.778 1.794c-1.093.153-2.187.256-3.228.256-1.041 0-2.03-.103-3.02-.359a5.098 5.098 0 01-1.874-.82c-.624-.41-.989-1.075-1.093-1.793-.104-.717.052-1.485.52-2.049a8.62 8.62 0 011.875-1.998c.625-.512 1.354-.973 2.082-1.383a22.582 22.582 0 013.8-1.537c1.094-.461 2.291-.717 3.54-.82z" fill="#211C1B"/><path d="M42.29 7.247c0 .051-.052.051-.052.102a6.85 6.85 0 01-2.134 2.715 8.7 8.7 0 01-2.343 1.281c-.833.308-1.666.564-2.499.666-.677.103-1.353.205-2.03.205H18.603l.156-.307c.469-.974 1.146-1.845 1.979-2.46a10.983 10.983 0 012.759-1.485c.728-.256 1.457-.461 2.238-.564.52-.05.99-.102 1.51-.153l.52-.052h14.473c0 .052.052.052.052.052z" fill="#EB7223"/><path d="M28.807 13.292c-.313.154-.625.256-.937.41a5.67 5.67 0 00-2.239 1.896 15.633 15.633 0 00-1.041 1.844 13.396 13.396 0 01-1.562 2.613c-.312.41-.625.768-1.041 1.127-.156.102-.364.205-.573.307 0 0-.052 0-.052.051l.417.052a12.223 12.223 0 004.893-.718 5.786 5.786 0 003.176-2.664c.312-.512.573-1.076.833-1.64.364-.768.833-1.485 1.301-2.202.209-.307.469-.615.781-.871.104-.102.313-.154.469-.154 1.041.154 2.03.513 2.863 1.127.781.513 1.145 1.435.99 2.357a4.1 4.1 0 01-.886 1.998c-.52.666-1.145 1.23-1.822 1.742-.729.564-1.562 1.025-2.395 1.434a20.452 20.452 0 01-5.778 1.794c-1.093.153-2.187.256-3.228.256-1.041 0-2.03-.103-3.02-.359a5.098 5.098 0 01-1.874-.82c-.624-.41-.989-1.075-1.093-1.793-.104-.717.052-1.485.52-2.049a8.62 8.62 0 011.875-1.998c.625-.512 1.354-.973 2.082-1.383a22.582 22.582 0 013.8-1.537c1.094-.461 2.291-.717 3.54-.82z" fill="#211C1B"/><path fill="#FFF" d="M23.497 21.284l4.06-1.076 1.822-1.434 1.198-2.408 1.093-1.742.937-1.383.26-.615h-2.342l-1.666.973-1.354.666-1.093 1.281-1.041 1.435-.729 1.485-.573 1.128z"/><path fill="#EB7223" d="M14.756 28.867v-2.152h-.729v-.41h2.083v.41h-.781v2.152zM16.89 26.305v.922c.157-.205.365-.256.573-.256a.67.67 0 01.313.051c.104.051.156.103.208.154a.386.386 0 01.104.205V28.815h-.52v-.973c0-.205 0-.307-.053-.359 0-.051-.052-.102-.104-.102-.052-.051-.104-.051-.156-.051-.104 0-.156 0-.208.05-.052.052-.104.103-.156.206-.052.102-.052.205-.052.358v.923h-.521v-2.562h.573zM18.921 27.535l-.469-.103c.053-.205.157-.307.26-.41.105-.102.313-.154.573-.154.209 0 .365.052.521.103.156.051.208.102.208.205.052.102.052.205.052.461V28.559c0 .103.052.154.104.256h-.52c0-.05-.052-.102-.052-.153v-.052a.912.912 0 01-.26.205c-.105.052-.209.052-.313.052-.208 0-.364-.052-.468-.154a.576.576 0 01-.157-.41c0-.102 0-.205.052-.256a.403.403 0 01.209-.205c.104-.051.208-.103.416-.103a4.3 4.3 0 01.469-.102v-.051c0-.103 0-.154-.052-.205-.052-.051-.156-.051-.26-.051-.105 0-.157 0-.209.05-.052.052-.052.103-.104.155zm.677.41c-.052 0-.156.05-.313.05-.156.052-.208.052-.26.103-.052.051-.104.103-.104.154 0 .051.052.153.104.153.052.052.104.052.208.052.105 0 .157-.052.26-.103.053-.051.105-.102.105-.153v-.257zM22.253 28.867h-.52v-.974c0-.205 0-.307-.053-.41-.052-.102-.052-.102-.104-.153-.052-.052-.104-.052-.156-.052-.104 0-.156 0-.208.052a.709.709 0 00-.157.205c0 .102-.052.204-.052.41v.82h-.52V26.92h.468v.256a.746.746 0 01.625-.308c.104 0 .208 0 .312.052.105.051.157.102.209.153a.386.386 0 01.104.205c0 .103.052.205.052.308v1.28zM23.138 27.535l-.469-.103c.052-.205.156-.307.26-.41.105-.102.313-.154.573-.154.209 0 .365.052.52.103.157.051.21.102.21.205.051.102.051.205.051.461V28.559c0 .103.052.154.104.256h-.52c0-.05-.052-.102-.052-.153v-.052c-.104.103-.157.154-.26.205-.105.052-.209.052-.313.052-.208 0-.364-.052-.469-.154a.576.576 0 01-.156-.41c0-.102 0-.205.052-.256a.403.403 0 01.209-.205c.104-.051.208-.103.416-.103.208-.05.417-.102.469-.102v-.051c0-.103 0-.154-.052-.205-.053-.051-.157-.051-.26-.051-.105 0-.157 0-.209.05-.052.052-.104.103-.104.155zm.625.41c-.052 0-.157.05-.313.05-.156.052-.208.052-.26.103-.052.051-.104.103-.104.154 0 .051.052.153.104.153.052.052.104.052.208.052s.156-.052.26-.103c.053-.051.105-.102.105-.153v-.257zM26.366 27.535l-.469.102c0-.102-.052-.154-.104-.205-.052-.051-.156-.051-.208-.051-.104 0-.209.051-.313.102a.784.784 0 00-.104.41c0 .205.052.359.104.461.052.103.156.154.313.154.104 0 .156-.051.208-.103a.388.388 0 00.104-.256l.469.103c-.053.205-.157.41-.313.512a1.062 1.062 0 01-.572.154.999.999 0 01-.677-.256c-.156-.154-.26-.41-.26-.718 0-.307.104-.563.26-.717.156-.154.364-.256.677-.256.208 0 .416.051.572.154.156.05.26.205.313.41zM27.199 26.305v.922c.156-.205.364-.256.572-.256a.67.67 0 01.313.051.718.718 0 01.208.154.386.386 0 01.104.205c0 .051.052.205.052.358v1.076h-.52v-.973c0-.205 0-.307-.053-.359 0-.051-.052-.102-.104-.102-.052-.051-.104-.051-.156-.051-.104 0-.156 0-.208.05-.052.052-.104.103-.156.206-.052.102-.052.205-.052.358v.923h-.521v-2.562h.52zM29.28 27.535l-.468-.103c.052-.205.157-.307.26-.41.105-.102.313-.154.573-.154.209 0 .365.052.52.103.157.051.21.102.21.205.051.102.051.205.051.461V28.559c0 .103.052.154.104.256h-.52c0-.05-.052-.102-.052-.153v-.052a.912.912 0 01-.26.205c-.105.052-.209.052-.313.052-.208 0-.364-.052-.469-.154a.576.576 0 01-.156-.41c0-.102 0-.205.052-.256a.403.403 0 01.209-.205c.104-.051.208-.103.416-.103a4.3 4.3 0 01.469-.102v-.051c0-.103 0-.154-.052-.205-.053-.051-.157-.051-.26-.051-.105 0-.157 0-.209.05-.052.052-.052.103-.104.155zm.678.41c-.052 0-.157.05-.313.05-.156.052-.208.052-.26.103-.052.051-.104.103-.104.154 0 .051 0 .153.104.153.052.052.104.052.208.052s.156-.052.26-.103c.053-.051.105-.102.105-.153v-.257zM31.363 28.867h-.52v-1.845h.468v.256c.104-.102.156-.205.208-.256.053-.051.157-.051.209-.051.104 0 .208.051.312.102l-.156.41c-.104-.051-.156-.102-.26-.102-.052 0-.105 0-.157.051-.052.051-.104.103-.104.205s-.052.307-.052.615v.615h.052zM33.133 26.971v.41h-.364v1.024s0 .052.052.052h.104c.052 0 .104 0 .208-.052l.052.36c-.104.05-.26.05-.416.05-.104 0-.156 0-.26-.05-.052-.052-.105-.052-.157-.103-.052-.052-.052-.103-.052-.205V27.278h-.208v-.41h.208v-.358l.521-.308v.666h.312v.103z"/><path d="M34.435 26.305H35.945c.104 0 .208.051.26.102a.403.403 0 01.208.205c.052.103.104.205.104.308 0 .102-.052.256-.104.307-.052.103-.156.154-.26.205.156.051.26.103.364.256.104.154.104.256.104.41a.938.938 0 01-.104.359c-.052.102-.156.205-.208.256-.052.051-.208.102-.364.102h-1.51v-2.51zm.52.41v.615h.729c.104 0 .156-.052.208-.103.053-.051.053-.102.053-.205 0-.102 0-.154-.053-.205-.052-.051-.104-.102-.208-.102h-.728zm0 1.024v.666h.833c.104 0 .157-.05.209-.102.052-.051.052-.102.052-.205 0-.102 0-.154-.052-.205-.052-.051-.105-.102-.157-.102-.052 0-.208-.052-.468-.052h-.417zM37.402 27.535l-.468-.103c.052-.205.156-.307.26-.41.104-.102.312-.154.573-.154.208 0 .364.052.52.103.156.051.208.102.208.205.053.102.053.205.053.461V28.559c0 .103.052.154.104.256h-.521c0-.05-.052-.102-.052-.153v-.052c-.104.103-.156.154-.26.205-.104.052-.209.052-.313.052-.208 0-.364-.052-.468-.154a.576.576 0 01-.156-.41c0-.102 0-.205.052-.256a.403.403 0 01.208-.205c.104-.051.208-.103.416-.103.209-.05.417-.102.469-.102v-.051c0-.103 0-.154-.052-.205-.052-.051-.156-.051-.26-.051-.105 0-.157 0-.209.05-.052.052-.052.103-.104.155zm.677.41c-.052 0-.156.05-.312.05-.157.052-.209.052-.26.103-.053.051-.105.103-.105.154 0 .051 0 .153.104.153.052.052.104.052.209.052.104 0 .156-.052.26-.103.052-.051.104-.102.104-.153v-.257zM40.734 28.867h-.52v-.974c0-.205 0-.307-.053-.41-.052-.102-.052-.102-.104-.153-.052-.052-.104-.052-.156-.052-.104 0-.156 0-.208.052a.709.709 0 00-.156.205c-.052.102-.052.204-.052.41v.82h-.521V26.92h.469v.256a.746.746 0 01.624-.308.67.67 0 01.313.052.718.718 0 01.208.153.386.386 0 01.104.205c0 .052.052.205.052.308v1.28zM41.203 28.867v-2.562h.52v1.383l.573-.666h.625l-.625.666.677 1.179h-.521l-.469-.82-.208.256v.615h-.572z" fill="#000"/></g></g></svg>