<?xml version="1.0" encoding="UTF-8"?><svg width="56" height="36" viewBox="0 0 56 36" xmlns="http://www.w3.org/2000/svg"><defs><linearGradient x1="1.284%" y1="2.861%" x2="98.656%" y2="100.618%" id="a"><stop stop-color="#285140" offset="0%"/><stop stop-color="#29A172" offset="48.6%"/><stop stop-color="#0A4F31" offset="100%"/></linearGradient><linearGradient x1="50.013%" y1="7.595%" x2="50.013%" y2="92.05%" id="b"><stop stop-color="#5DB890" offset="0%"/><stop stop-color="#007945" offset="49.8%"/><stop stop-color="#06915B" offset="100%"/></linearGradient></defs><g fill="none" fill-rule="evenodd"><path d="M0 3.75A3.749 3.749 0 013.75 0h48.5A3.756 3.756 0 0156 3.75v28.5A3.749 3.749 0 0152.25 36H3.75A3.756 3.756 0 010 32.25V3.75z" fill="#000" fill-rule="nonzero"/><path d="M1.25 3.75v28.5c0 1.375 1.123 2.5 2.5 2.5h48.5c1.382 0 2.5-1.118 2.5-2.5V3.75c0-1.375-1.123-2.5-2.5-2.5H3.75a2.499 2.499 0 00-2.5 2.5z" fill="#FFF"/><g fill-rule="nonzero"><path d="M.028 21.969h21.879V.003H.027V21.97zM20.34.229C21.31.132 21.744.6 21.68 1.621v18.814c-.031.84-.418 1.277-1.175 1.312H1.462C.674 21.715.27 21.26.252 20.404V1.62C.283.763.753.295 1.638.229h18.703z" fill="url(#a)" transform="translate(5 7)"/><path d="M21.679 1.62C21.744.587 21.292.116 20.34.23H1.638C.753.295.283.763.252 1.621V20.4c.018.874.436 1.325 1.21 1.342h19.042c.757-.031 1.16-.468 1.175-1.311V1.62zM17.7 3.82c.691-.128 1.258-.176 1.676-.114-.484.357-.822.68-1.016.937.163 1.652-.066 3.317-.643 4.966-.08-1.506-.29-2.797-.611-3.866-1.435.597-2.658 1.391-3.657 2.394.37-.905.999-1.828 1.884-2.734A14.908 14.908 0 0010.952 6c1.271-.889 2.74-1.458 4.399-1.683-.726-.791-1.645-1.472-2.772-2.023a17.92 17.92 0 015.122 1.527zM8.937 6.539l-.37 1.148c1.355.26 2.464.68 3.352 1.263a18.276 18.276 0 00-3.995-.194 15.02 15.02 0 00-.5 3.106c-.533-.646-.823-1.458-.885-2.426a15.843 15.843 0 00-3.045 2.523c.162-.76.853-1.891 2.077-3.397-.467-.42-1.03-.663-1.707-.743.757-.226 1.804-.309 3.141-.243.657-.454 1.303-.812 1.932-1.037zm-7.009 9.22c.66.048 1.144-.05 1.466-.292-.322-1.02-.322-1.94 0-2.783.162.937.483 1.763.95 2.474l1.452-.225-.581 1.294a7.11 7.11 0 001.707 1.214c.08.032.145.066.225.098-.74.242-1.434.097-2.095-.455-.114.632-.114 1.214 0 1.745-.74-.614-1.21-1.294-1.434-2.037-.577-.142-1.144-.5-1.69-1.034zm9.345 1.294a16.99 16.99 0 001.562-.875c-.273.597-.757 1.1-1.451 1.489l.307.76c-.5.177-.95.163-1.386-.031-.466.468-1.078.76-1.804.857l.806-.986c-.467-.048-.854-.211-1.161-.486a6.188 6.188 0 002.142-.322l.823-1.312.162.906z" fill="url(#b)" transform="translate(5 7)"/><path d="M17.818 23.177c-.55.34-1.065.632-1.562.875l-.176-.906-.823 1.312a5.7 5.7 0 01-2.143.322c.308.26.692.42 1.162.486l-.806.986c.726-.097 1.338-.389 1.804-.857.436.194.885.211 1.386.03l-.307-.76c.708-.388 1.192-.887 1.465-1.488zm-9.424-.711c-.322.243-.806.34-1.466.291.55.535 1.113.889 1.69 1.052.225.742.691 1.423 1.434 2.037-.114-.535-.114-1.118 0-1.746.66.535 1.355.68 2.095.455-.08-.031-.145-.066-.225-.097a7.016 7.016 0 01-1.707-1.215l.58-1.294-1.451.225a6.71 6.71 0 01-.95-2.474c-.322.826-.322 1.75 0 2.766zm5.173-7.78l.37-1.148c-.63.225-1.272.583-1.932 1.034-1.337-.066-2.384.017-3.141.243.677.08 1.24.322 1.707.742-1.223 1.506-1.918 2.637-2.077 3.397a15.843 15.843 0 013.045-2.522c.065.971.355 1.78.884 2.425.066-1.083.225-2.12.501-3.106a18.266 18.266 0 013.995.195c-.888-.58-2-1-3.352-1.26zm10.81-3.98c-.418-.066-.981-.017-1.676.115a17.69 17.69 0 00-5.122-1.52c1.127.551 2.046 1.228 2.772 2.023-1.659.225-3.124.79-4.4 1.683 1.435-.42 2.9-.615 4.383-.597-.885.905-1.514 1.828-1.884 2.734.999-1.003 2.222-1.794 3.657-2.394.321 1.069.532 2.363.611 3.865.58-1.651.806-3.317.643-4.965.194-.264.532-.587 1.016-.944z" fill="#FFF"/><path d="M34.413 15.446h2.353v-.972H30.16v.972h2.094v5.955l2.16-.018v-5.937zm9.473-.972h-6.09v6.91l6.314-.018v-.937h-4.382v-2.072h2.803v-.971h-2.803v-1.94h4.158v-.972zm5.09 0H45.11v6.86h2.803c.065.018.757 0 2.063-.03 1.306-.05 1.98-.615 2.015-1.732.03-1.117-.595-1.763-1.884-1.957 1.113-.163 1.645-.712 1.58-1.617-.15-.972-1.051-1.475-2.71-1.524zm.871 1.75c.031.79-.58 1.197-1.835 1.214l-.29.583c1.645.097 2.498.468 2.56 1.148 0 1.034-.55 1.506-1.61 1.423h-1.756V15.19h1.386c1.013.014 1.528.354 1.545 1.034z" fill="#222"/></g></g></svg>