<?xml version="1.0" encoding="UTF-8"?><svg width="56" height="36" viewBox="0 0 56 36" xmlns="http://www.w3.org/2000/svg"><g fill="none" fill-rule="evenodd"><path d="M0 3.75A3.749 3.749 0 013.75 0h48.5A3.756 3.756 0 0156 3.75v28.5A3.749 3.749 0 0152.25 36H3.75A3.756 3.756 0 010 32.25V3.75z" fill="#000" fill-rule="nonzero"/><path d="M1.25 3.75v28.5c0 1.375 1.123 2.5 2.5 2.5h48.5c1.382 0 2.5-1.118 2.5-2.5V3.75c0-1.375-1.123-2.5-2.5-2.5H3.75a2.499 2.499 0 00-2.5 2.5z" fill="#FFF"/><path d="M11.952 20.588c.041.341.17.623.396.864.225.241.495.356.791.356a.861.861 0 00.722-.356c.184-.24.27-.525.225-.864a1.39 1.39 0 00-.38-.864c-.227-.24-.482-.355-.778-.355a.907.907 0 00-.736.355 1.22 1.22 0 00-.24.864zM3.563 18.86a.91.91 0 00-.114-.367c-.056-.1-.126-.141-.199-.141-.07 0-.126.056-.184.156a.766.766 0 00-.042.367.693.693 0 00.114.355c.056.1.127.141.212.141.07 0 .126-.04.17-.14.043-.103.058-.23.043-.37zm.37-.993a1.063 1.063 0 00-.115-.382c-.07-.1-.14-.155-.21-.14-.071 0-.142.055-.185.155-.042.114-.056.24-.042.382a.92.92 0 00.114.382c.07.115.141.17.212.17.07 0 .14-.055.184-.17.042-.112.056-.24.042-.397zm.255-1.46c-.085 0-.156.07-.212.185a.8.8 0 00-.07.426c0 .17.041.312.114.426.07.114.14.17.226.17.085 0 .155-.056.211-.185.056-.126.085-.255.085-.425-.014-.17-.041-.312-.114-.426-.085-.112-.155-.17-.24-.17zm.947-.482c-.07-.126-.156-.2-.255-.2-.1 0-.185.071-.24.2a1.181 1.181 0 00-.086.482c0 .185.042.356.114.468.07.126.156.2.27.2.1 0 .17-.071.226-.213a.95.95 0 00.1-.467 1.16 1.16 0 00-.13-.47zm.58-.793c-.114 0-.211.07-.296.2a.92.92 0 00-.126.496c0 .2.029.355.114.482.07.127.17.2.281.2.112 0 .212-.071.297-.212a1.18 1.18 0 00.126-.497.95.95 0 00-.114-.496c-.085-.117-.17-.173-.282-.173zm2.9-.212c.029-.27 0-.482-.114-.681-.1-.185-.226-.282-.396-.27-.17 0-.311.1-.452.297a1.47 1.47 0 00-.24.681c-.03.27 0 .497.1.694.099.185.225.282.38.282.17 0 .311-.1.452-.297.156-.212.24-.438.27-.706zm-2.193-.143a1.42 1.42 0 00-.185.567c-.014.226.015.411.1.567.085.156.199.24.34.24.14 0 .255-.084.354-.255.115-.156.17-.34.2-.567a1.098 1.098 0 00-.115-.581c-.085-.156-.199-.227-.34-.227-.128.015-.24.1-.354.256zm2.615-.509c-.155.212-.24.453-.27.738-.028.282.015.525.127.708.114.2.27.297.466.282.185 0 .355-.1.51-.297.156-.2.255-.426.282-.708.027-.282-.014-.526-.14-.723-.115-.185-.256-.282-.44-.282-.21-.003-.377.097-.535.282zm3.199.99a1.188 1.188 0 00-.255-.822.8.8 0 00-.666-.34c-.27 0-.495.126-.692.355-.199.226-.296.51-.31.822-.015.326.07.596.24.823a.813.813 0 00.68.326c.27 0 .495-.114.68-.34.194-.227.308-.51.323-.823zm1.938-.126a.907.907 0 00-.736-.355c-.296 0-.551.126-.777.367-.211.27-.326.582-.34.935-.015.355.07.667.27.908.199.24.439.367.75.367.296 0 .551-.141.765-.397a1.44 1.44 0 00.354-.922c.01-.336-.075-.647-.286-.903zm1.47 3.926c-.355 0-.666.126-.921.367a1.264 1.264 0 00-.382.922c0 .356.127.667.382.923.255.255.566.382.92.382.355 0 .666-.127.906-.382a1.24 1.24 0 00.381-.923 1.281 1.281 0 00-1.287-1.29zm3.834-.623c-.255-.27-.58-.397-.962-.397-.381 0-.692.126-.962.397-.255.27-.395.596-.395.963 0 .382.126.694.395.964.27.27.595.397.962.397.381 0 .692-.127.962-.397s.396-.582.396-.964a1.221 1.221 0 00-.396-.963zm-2.604-2.013a1.267 1.267 0 00-.932-.382c-.367 0-.68.126-.947.382a1.38 1.38 0 00-.367.949c0 .367.126.681.381.935.255.255.58.382.947.396.367 0 .68-.126.933-.396.255-.256.396-.568.396-.935a1.423 1.423 0 00-.41-.95zm2.8-1.034a1.259 1.259 0 00-.92-.382c-.367 0-.68.126-.947.382-.255.27-.381.581-.381.949 0 .367.126.681.381.934.255.256.566.397.947.397.367 0 .68-.127.92-.397.256-.255.382-.567.396-.934a1.396 1.396 0 00-.395-.95zm.13-2.113c0-.355-.127-.652-.382-.893a1.213 1.213 0 00-.891-.367c-.355 0-.651.126-.892.367-.24.256-.366.553-.366.893 0 .356.126.652.366.908.255.255.552.382.892.382.354 0 .65-.127.891-.382.253-.241.381-.552.381-.908zm2.899 3.97h-.425v1.078h-.636v.425h.636v2.92h.425v-2.907h.636v-.426h-.636v-1.09zm3.72 4.236c.27-.2.481-.481.651-.849h-.48c-.115.226-.255.411-.467.538-.199.126-.425.185-.68.185-.354 0-.65-.115-.891-.326-.24-.227-.367-.526-.396-.893h3.014v-.03c0-.552-.155-1.007-.466-1.36-.311-.355-.722-.526-1.232-.526s-.932.17-1.258.497c-.325.326-.495.752-.495 1.26 0 .482.17.908.51 1.249.34.34.75.526 1.246.526.335.014.66-.071.945-.27zm-.17-2.55c.212.185.367.467.452.837h-2.533c.056-.34.2-.608.41-.822a1.2 1.2 0 01.822-.312c.354.012.636.112.85.297zm4.54-.694c-.51 0-.933.17-1.258.497-.326.326-.496.752-.496 1.26 0 .482.17.908.496 1.249.34.34.75.526 1.245.526.367 0 .693-.1.977-.297.27-.2.48-.482.65-.85h-.483c-.114.227-.27.412-.466.538a1.23 1.23 0 01-.68.185c-.355 0-.65-.114-.891-.326-.24-.226-.367-.526-.396-.893h3.014v-.03c0-.552-.156-1.007-.481-1.36-.326-.33-.736-.499-1.231-.499zm-.07.41c.354 0 .635.099.847.282.211.184.366.467.44.837h-2.534c.056-.341.2-.609.41-.823.244-.197.51-.297.836-.297zm-2.405-1.403h-.44v4.437h.44v-4.437z" fill="#1EA2E5" fill-rule="nonzero"/><path d="M37.131 18.79a1.249 1.249 0 00-.452-.397c-.199-.085-.41-.141-.65-.141-.226 0-.425.03-.595.114-.17.07-.326.185-.467.341v-.382h-.41v3.346h.41v-1.616c0-.282.015-.496.042-.608a.727.727 0 01.114-.312.92.92 0 01.354-.34c.141-.085.311-.115.51-.115.34 0 .58.085.736.27.156.185.226.468.226.85v1.871h.41V19.93c0-.312-.014-.553-.04-.708a1.473 1.473 0 00-.188-.431zm-3.465-.47h-.44v3.346h.44V18.32zm-.44-.382h.44v-.694h-.44v.694zm7.286.467a1.69 1.69 0 00-.736-.155c-.481 0-.891.17-1.217.496-.325.34-.48.752-.48 1.248 0 .512.17.923.495 1.261.34.34.75.511 1.246.511.255 0 .48-.056.692-.17.211-.115.396-.283.551-.511v.1c0 .425-.114.752-.34 1.02-.226.255-.537.381-.92.381-.24 0-.452-.056-.622-.17a.888.888 0 01-.355-.453h-.495c.085.312.255.567.524.752.27.185.595.283.977.283.51 0 .92-.17 1.216-.497.282-.326.425-.779.425-1.36v-2.82h-.425v.552a1.531 1.531 0 00-.536-.468zm.155.653c.255.27.367.596.367.978 0 .355-.126.667-.367.934-.255.256-.551.397-.877.397-.354 0-.65-.127-.89-.397a1.383 1.383 0 01-.382-.993c0-.382.126-.693.381-.949.255-.255.551-.382.891-.382.34 0 .637.144.877.412zm2.87-.312l-.014-.467c-.17 0-.31.041-.425.114-.126.07-.24.185-.354.326v-.396h-.396v3.346h.425V19.67c0-.312.056-.538.184-.667.114-.144.299-.229.58-.258zm2.15-.509c-.51 0-.933.17-1.258.497-.325.326-.495.752-.495 1.26 0 .482.17.908.495 1.249.34.34.75.526 1.246.526.367 0 .692-.1.976-.297.27-.2.496-.482.636-.85h-.48c-.115.227-.27.412-.467.538-.199.127-.425.185-.68.185-.354 0-.65-.114-.891-.326-.24-.226-.367-.526-.396-.893h3.014v-.03c0-.552-.155-1.007-.48-1.36-.3-.33-.71-.499-1.22-.499zm-.07.41c.354 0 .636.099.847.282.211.184.367.467.44.837H44.37c.056-.341.199-.609.425-.823a1.23 1.23 0 01.82-.297zm3.353.028c.156 0 .282.042.382.142.085.085.14.211.14.367h.467c-.015-.297-.114-.526-.282-.681-.17-.17-.396-.256-.68-.256-.27 0-.495.1-.692.282a.921.921 0 00-.282.667c0 .227.056.412.17.553.114.14.355.282.722.396.225.086.395.185.48.283a.58.58 0 01.127.396.513.513 0 01-.17.397.626.626 0 01-.425.156.557.557 0 01-.44-.2.808.808 0 01-.184-.525v-.015h-.44c.015.355.114.623.296.837.185.2.44.312.765.312.311 0 .566-.1.765-.283a.925.925 0 00.297-.708c0-.226-.042-.426-.141-.567-.1-.156-.255-.27-.467-.355-.055-.015-.155-.056-.296-.1a1.56 1.56 0 01-.354-.141.64.64 0 01-.2-.185.497.497 0 01-.055-.256c0-.14.04-.255.14-.355a.437.437 0 01.357-.16zm3.281-.452c-.466 0-.862.17-1.202.525-.34.356-.495.767-.495 1.261 0 .482.17.908.495 1.249.326.34.75.525 1.232.525.48 0 .876-.17 1.216-.525.326-.356.496-.78.496-1.29 0-.468-.17-.879-.51-1.22a1.635 1.635 0 00-1.232-.525zm-.014.423c.381 0 .692.127.932.382.24.256.367.582.367.964 0 .397-.126.723-.367.978-.24.256-.536.382-.89.382-.368 0-.68-.126-.921-.382-.24-.255-.367-.581-.367-.978 0-.382.126-.708.367-.964.243-.253.539-.382.879-.382z" fill="#434343" fill-rule="nonzero"/><path d="M32.01 19.768c-.086-.367-.227-.652-.44-.837-.212-.185-.496-.282-.848-.282-.325 0-.595.1-.82.311-.227.2-.367.467-.411.823h2.518v-.015zm-4.13 1.913v-4.437h.44v4.437h-.44 0zm4.61-1.545h-3.014c.03.367.156.666.396.893.24.226.537.326.891.326.255 0 .481-.056.68-.185.2-.127.355-.312.467-.538h.48c-.155.368-.366.652-.65.85-.282.199-.607.296-.977.296-.495 0-.905-.17-1.245-.525a1.726 1.726 0 01-.496-1.249c0-.51.17-.934.496-1.26.325-.341.75-.497 1.258-.497.507 0 .92.17 1.23.526.314.343.484.796.484 1.363h0zm-5.318 0h-3.014c.029.367.155.666.396.893.24.226.536.326.89.326.256 0 .482-.056.68-.185.2-.13.355-.312.467-.538h.481c-.155.368-.367.652-.65.85-.283.199-.608.296-.963.296-.495 0-.905-.17-1.245-.525a1.74 1.74 0 01-.51-1.249c0-.51.17-.934.495-1.26.325-.341.75-.497 1.258-.497s.92.17 1.231.526c.311.34.467.793.467 1.36h.017v.003zm-.467-.368c-.085-.367-.226-.652-.451-.837-.212-.185-.496-.282-.848-.282-.325 0-.595.1-.82.311-.227.2-.368.467-.411.823h2.533v-.015h-.003zm-4.427 1.913v-2.92h-.636v-.426h.636v-1.078h.425v1.078h.636v.426h-.636v2.92h-.425 0z" stroke="#1EA2E5" stroke-width=".5" stroke-linecap="round" stroke-linejoin="round"/></g></svg>