<?xml version="1.0" encoding="UTF-8"?><svg width="56" height="36" viewBox="0 0 56 36" xmlns="http://www.w3.org/2000/svg"><g fill="none" fill-rule="evenodd"><path d="M0 3.75A3.749 3.749 0 013.75 0h48.5A3.756 3.756 0 0156 3.75v28.5A3.749 3.749 0 0152.25 36H3.75A3.756 3.756 0 010 32.25V3.75z" fill="#000" fill-rule="nonzero"/><path d="M1.25 3.75v28.5c0 1.375 1.123 2.5 2.5 2.5h48.5c1.382 0 2.5-1.118 2.5-2.5V3.75c0-1.375-1.123-2.5-2.5-2.5H3.75a2.499 2.499 0 00-2.5 2.5z" fill="#FFF"/><g fill-rule="nonzero"><path d="M41.05 9.236c.47 0 .936.066 1.389.195.521.146 1 .43 1.388.825.23.243.418.527.555.839.143.33.23.682.26 1.044a3.435 3.435 0 01-.107 1.258 3.437 3.437 0 01-.245.59 2.79 2.79 0 01-.847.976 3.833 3.833 0 01-1.097.547 4.647 4.647 0 01-1.582.214 8.301 8.301 0 01-.977-.132 3.08 3.08 0 01-1.194-.487 2.287 2.287 0 01-.726-.776 7.71 7.71 0 01-.366-.717 1.256 1.256 0 01-.088-.337 3.849 3.849 0 01-.041-1.151c.11-.887.59-1.676 1.31-2.151a3.934 3.934 0 011.017-.488c.273-.088.554-.147.838-.176l.513-.073zm1.907 3.307a3.727 3.727 0 00-.167-1.043 2.129 2.129 0 00-.61-.908 1.757 1.757 0 00-1.481-.42 1.561 1.561 0 00-.69.254 3.3 3.3 0 00-.462.43 1.852 1.852 0 00-.408.795 3.163 3.163 0 00-.046 1.444c.03.187.084.37.162.541.095.203.215.391.356.561.304.348.723.56 1.171.59.363.04.73-.031 1.055-.204.476-.266.83-.723.981-1.269.066-.252.112-.51.139-.77zM24.665 14.08c.296.147.578.308.874.43.38.155.779.252 1.185.287.357.051.719.06 1.078.025.3-.025.59-.124.847-.288a.6.6 0 00.088-.902 1.107 1.107 0 00-.588-.352c-.463-.102-.953-.17-1.43-.268a8.04 8.04 0 01-.99-.244 1.77 1.77 0 01-.856-.58 1.378 1.378 0 01-.287-.688 2.093 2.093 0 01.079-.976c.097-.255.257-.48.462-.649.29-.241.63-.408.99-.488a5.402 5.402 0 012.037-.122c.463.049.925.147 1.388.23.148.032.293.076.435.131a.112.112 0 01.06.083v1.225a.31.31 0 01-.037.078 1.956 1.956 0 00-.222-.176 6.613 6.613 0 00-.643-.346 3.348 3.348 0 00-.671-.225 6.767 6.767 0 00-1.037-.146 1.811 1.811 0 00-1.207.298.552.552 0 00-.227.497.54.54 0 00.305.449c.283.142.586.233.898.268.296.049.592.083.888.147.297.063.56.146.843.214.257.07.503.184.726.337.227.153.406.374.514.634.137.326.186.686.139 1.04a1.63 1.63 0 01-.801 1.268c-.38.215-.8.345-1.23.38-.19 0-.385.044-.575.044h-1.194c-.273 0-.55-.059-.819-.103-.268-.043-.43-.078-.643-.121a2.222 2.222 0 01-.328-.098.127.127 0 01-.06-.098v-1.16a.06.06 0 01.009-.035zM23.985 14.08V15.353c0 .098-.028.127-.12.127h-5.128c.057-.09.105-.187.143-.288.05-.157.08-.321.088-.487V10.27a1.122 1.122 0 00-.17-.673.37.37 0 01-.033-.107.69.69 0 01.106 0h4.65c.153 0 .163 0 .163.166V10.884c-.093-.049-.162-.093-.24-.127a3.68 3.68 0 00-.584-.234 7.22 7.22 0 00-1.004-.166c-.398-.03-.796 0-1.194 0-.088 0-.134.039-.13.141v1.313c0 .156.028.185.176.19h.81c.287-.024.573-.064.856-.122.236-.044.236-.059.236.19v.883c0 .073 0 .103-.092.083a4.765 4.765 0 00-1.25-.146h-.606c-.093 0-.13.044-.13.141v1.396c0 .141.033.175.167.175h1.222c.491-.009.98-.086 1.453-.23.213-.087.412-.194.61-.292zM36.816 10.914a1.243 1.243 0 01-.11-.083 2.307 2.307 0 00-.704-.488 2.345 2.345 0 00-.833-.185 2.755 2.755 0 00-.926.102c-.447.13-.847.399-1.147.771-.205.245-.348.54-.417.859a3.551 3.551 0 00-.032.858c.044.6.343 1.148.814 1.488.342.267.744.433 1.167.483a2.9 2.9 0 00.925-.034c.305-.056.596-.181.851-.366.14-.102.269-.22.403-.332l.13-.092v1.41a.123.123 0 01-.051.087.405.405 0 01-.148.064c-.463.073-.884.156-1.328.21a4.941 4.941 0 01-.838.044 7.845 7.845 0 01-1.032-.113 3.925 3.925 0 01-.805-.229 4.872 4.872 0 01-.777-.415 2.568 2.568 0 01-.782-.814 2.57 2.57 0 01-.292-.65 2.882 2.882 0 01-.12-1.194c.032-.28.096-.556.19-.82a2.992 2.992 0 011.207-1.463c.38-.249.796-.432 1.231-.542.305-.075.614-.132.926-.17.46-.059.925-.069 1.388-.03.342.025.685.088 1.027.142a.106.106 0 01.065.083v1.278c.028.039.023.078.018.141zM15.734 15.466H13.6l.101-.156a1.22 1.22 0 00.158-.65v-4.19c0-.097-.037-.136-.125-.132-.384.03-.768.054-1.148.093-.331.037-.657.12-.967.249-.127.06-.25.126-.37.2a1.07 1.07 0 010-.137v-1.16c0-.093.023-.128.125-.128h6.594c.06 0 .097 0 .097.093v1.249a.365.365 0 010 .073c-.092-.049-.18-.102-.273-.136a3.574 3.574 0 00-.578-.21 15.632 15.632 0 00-1.065-.176 4.704 4.704 0 00-.495-.029c-.143 0-.166 0-.166.17v3.903c.001.227.018.454.05.679.028.097.07.19.125.273.021.042.044.083.07.122z" fill="#E4342D"/><path d="M37.566 24.383V27.037c0 .151 0 .17.162.18.162.01.162 0 .24 0 .08 0 .12.04.112.137a1.702 1.702 0 000 .278c0 .098-.037.122-.12.117h-1.796c-.074 0-.102-.029-.097-.107v-.488a.462.462 0 00-.033-.117.557.557 0 00-.083.049c-.157.127-.305.259-.463.376a2.73 2.73 0 01-.38.21c-.11.053-.226.097-.342.146h-.027a3.116 3.116 0 01-1.102.063 4.582 4.582 0 01-.546-.117 2.354 2.354 0 01-.578-.278 1.5 1.5 0 01-.514-.585 2.62 2.62 0 01-.222-.571 4.054 4.054 0 01-.088-.8v-2.986a.458.458 0 00-.055-.23c-.098-.16-.264-.14-.417-.14-.153 0-.139 0-.139-.147v-.332c0-.112 0-.083.07-.083h2.013c.046 0 .083 0 .083.074v4.2c-.016.434.193.843.546 1.068.141.086.3.133.463.137.225.015.45-.029.657-.127.215-.11.406-.265.564-.454.193-.218.35-.468.463-.741a2.81 2.81 0 00.097-.376 7.52 7.52 0 00.06-1.58v-1.269a.339.339 0 00-.071-.251.304.304 0 00-.225-.115.852.852 0 00-.222 0c-.078 0-.097-.029-.097-.092v-.405s.06-.059.088-.059h1.943c.051 0 .088 0 .088.073v2.688h-.032zM26.479 24.774a5.442 5.442 0 01-.111.765c-.08.268-.189.525-.324.766-.206.37-.49.685-.829.922-.386.26-.81.454-1.254.576a3.58 3.58 0 01-.462.068 2.491 2.491 0 01-.99 0h-.181l-.24-.058h-.038a2.64 2.64 0 01-.842-.376 2.998 2.998 0 01-.736-.556 2.938 2.938 0 01-.634-.976 2.752 2.752 0 01-.203-.79 6.551 6.551 0 010-.927c.021-.167.063-.331.125-.488a6.45 6.45 0 01.157-.42c.152-.355.38-.669.666-.916.167-.153.347-.288.537-.405.202-.106.41-.198.625-.273.125-.054.259-.088.389-.132h.027a3.594 3.594 0 011.453-.03h.12l.551.147c.087.023.173.054.255.093.185.085.366.181.541.287a2.907 2.907 0 011.13 1.405c.083.206.148.42.194.64.037.224.062.45.074.678zm-5.09-.122c0 .287.037.57.069.858.004.21.03.42.079.625.074.198.17.386.287.56.181.298.477.498.81.547l.106.03c.08.019.16.033.24.043.157.007.314-.016.463-.068.083-.03.167-.044.245-.078a1.31 1.31 0 00.648-.547 2.14 2.14 0 00.31-.839 5.96 5.96 0 00.097-.975 5.01 5.01 0 00-.226-1.669 1.794 1.794 0 00-.463-.697 1.59 1.59 0 00-.926-.376 1.449 1.449 0 00-.522.068 1.22 1.22 0 00-.579.298 1.984 1.984 0 00-.574 1.112 3.022 3.022 0 00-.092.883c.018.069.014.147.014.244l.014-.02zM38.792 26.75v-.898c0-.073 0-.093.088-.088.08.01.16.01.24 0 .121 0 .177.049.232.137.246.394.572.728.953.975.174.115.362.203.56.259.3.099.615.129.926.088.183-.05.361-.119.532-.205.188-.078.35-.214.463-.39a.725.725 0 00.078-.548.687.687 0 00-.328-.433 2.097 2.097 0 00-.773-.337c-.134-.03-.264-.092-.403-.127-.138-.034-.328-.063-.49-.102a5.853 5.853 0 01-.463-.132c-.148-.049-.231-.068-.347-.107a3.509 3.509 0 01-.347-.146c-.12-.05-.236-.11-.347-.181a1.347 1.347 0 01-.518-.6 1.494 1.494 0 01-.14-.663c.02-.518.27-.996.677-1.288a3.63 3.63 0 01.462-.298c.116-.058.25-.068.37-.117.244-.078.496-.122.75-.132.188-.018.377-.018.565 0 .14.009.28.03.416.064.138.037.274.082.407.136.135.054.269.117.408.171a.176.176 0 00.155.005.192.192 0 00.104-.122.704.704 0 01.07-.132.114.114 0 01.078-.044h.365c.12 0 .125.03.125.127V23.061c0 .059 0 .093-.083.083a1.014 1.014 0 00-.25 0 .245.245 0 01-.236-.107 3.37 3.37 0 00-.745-.693 1.8 1.8 0 00-.43-.19 6.4 6.4 0 00-.602-.151.576.576 0 00-.213 0 1.322 1.322 0 00-.874.39.615.615 0 00-.107.644.757.757 0 00.287.302c.126.078.262.137.403.176.208.068.416.117.63.17.212.054.462.098.67.157.153.039.3.093.463.136l.356.103c.087.028.172.063.255.102.214.097.414.226.592.386.165.154.293.348.37.566.08.318.1.65.056.975a.94.94 0 01-.084.293 1.83 1.83 0 01-.564.795c-.21.182-.45.32-.708.405-.125.04-.245.093-.366.137h-.027c-.35.068-.705.098-1.06.087-.245-.029-.495-.043-.74-.097a3.953 3.953 0 01-.584-.21c-.125-.049-.245-.117-.374-.17a.216.216 0 00-.255.082.558.558 0 00-.097.205c0 .073-.051.108-.125.108h-.342c-.112 0-.102 0-.098-.103v-.898l.014.005zM16.118 27.745h-2.87c-.166 0-.166 0-.161-.176v-.254c0-.083 0-.102.093-.097a.973.973 0 00.462-.05c.167-.067.236-.13.24-.316v-1.069-4.927c0-.288-.193-.395-.402-.429a1.638 1.638 0 00-.291 0c-.065 0-.093-.024-.088-.093.004-.068 0-.229 0-.341 0-.112.028-.098.097-.098h2.813c.241 0 .223-.034.218.234v.205c0 .069-.023.093-.083.093a2.51 2.51 0 00-.273 0 .425.425 0 00-.394.263.51.51 0 00-.037.176v5.898a.5.5 0 00.147.358c.094.092.22.14.348.13.36.008.72-.004 1.079-.034.236-.048.468-.117.694-.205.201-.07.383-.192.527-.356.133-.146.247-.31.338-.488.08-.17.15-.344.208-.522a.19.19 0 000-.044c.023-.161.023-.161.18-.161h.255c.047 0 .079 0 .074.068-.004.069 0 .269 0 .405 0 .244-.046.488-.06.727-.014.24 0 .527 0 .79 0 .264 0 .308-.296.308h-2.818v.005zM28.927 24.569v2.166c.006.213.129.403.314.488a.443.443 0 00.315.068.833.833 0 00.296-.112.828.828 0 00.287-.352c.088-.16.145-.338.167-.522a.09.09 0 01.064-.063h.597s.056.03.056.044a2.503 2.503 0 01-.033.258c0 .05-.032.093-.041.142-.054.39-.27.735-.588.941a1.79 1.79 0 01-.518.196 3.48 3.48 0 01-.981.058 1.922 1.922 0 01-.296-.049h-.088a1.187 1.187 0 01-.88-.6 2.234 2.234 0 01-.157-.434 2.943 2.943 0 01-.06-.897v-3.542c0-.161 0-.18-.176-.18h-.777a.095.095 0 01-.065-.064v-.44s.042-.058.06-.058c.252.014.504-.02.745-.097.128-.041.248-.107.352-.195.195-.169.332-.4.389-.659.069-.239.143-.488.208-.717.014-.066.023-.133.028-.2 0-.068.05-.093.115-.093h.588c.074 0 .083.034.083.098v1.683c0 .17 0 .175.162.175h1.324c.083 0 .125 0 .11.117-.007.11-.007.222 0 .332 0 .073-.022.112-.096.112h-1.356c-.12 0-.144.025-.144.161v2.23l-.004.005z" fill="#00987A"/><path d="M38.168 18.876c.134-.093.25-.166.356-.259.217-.19.463-.385.643-.595.236-.257.515-.465.824-.615a1.4 1.4 0 01.375-.112 18.667 18.667 0 012.392-.054h1.99c.028-.01.06-.01.088 0l-.18.127c-.232.18-.464.366-.69.551-.227.186-.495.43-.755.635-.245.171-.53.27-.823.283a4.17 4.17 0 01-.505 0H38.27l-.101.039zM24.59 18.876c.167-.127.325-.23.463-.352.227-.2.463-.414.658-.624a2.3 2.3 0 01.823-.546c.3-.096.613-.14.926-.127h3.753v.029l-.158.117-.856.698c-.208.17-.402.366-.625.517-.237.15-.505.238-.782.253h-4.09l-.111.035zM24.447 17.276l-.18.131c-.162.127-.333.254-.49.386-.288.244-.556.512-.852.741a1.616 1.616 0 01-.643.283 4.06 4.06 0 01-.926.059H17.97a.536.536 0 01-.176 0c.077-.046.151-.096.222-.152.296-.263.597-.517.88-.795.212-.205.456-.37.721-.488.233-.104.483-.159.736-.16h4.095v-.005zM31.388 18.876c.298-.204.576-.436.833-.693.153-.142.287-.298.463-.434.186-.17.4-.304.63-.395.29-.1.596-.144.902-.132h3.794l.033.049-.084.039c-.413.27-.797.59-1.143.951-.231.227-.51.394-.814.488-.202.06-.41.09-.62.092h-3.55l-.444.035zM17.677 17.28l-.07.04a5.324 5.324 0 00-.901.707c-.21.192-.428.374-.653.546a1.5 1.5 0 01-.8.273c-.209 0-.417.025-.625.025H11c.125-.093.24-.166.342-.254.102-.088.334-.288.496-.434.162-.146.36-.342.578-.512.251-.2.545-.333.856-.386.32-.042.644-.056.967-.044h3.434l.004.04z" fill="#0F559F"/></g></g></svg>