<?xml version="1.0" encoding="UTF-8"?><svg width="56" height="36" viewBox="0 0 56 36" xmlns="http://www.w3.org/2000/svg"><g fill="none" fill-rule="evenodd"><path d="M0 3.75A3.749 3.749 0 013.75 0h48.5A3.756 3.756 0 0156 3.75v28.5A3.749 3.749 0 0152.25 36H3.75A3.756 3.756 0 010 32.25V3.75z" fill="#000" fill-rule="nonzero"/><path d="M1.25 3.75v28.5c0 1.375 1.123 2.5 2.5 2.5h48.5c1.382 0 2.5-1.118 2.5-2.5V3.75c0-1.375-1.123-2.5-2.5-2.5H3.75a2.499 2.499 0 00-2.5 2.5z" fill="#FFF"/><path d="M7.447 11.007h45.541V21.59c0 .11 0 .202-.016.31-.063.803-.407 1.5-1 2.102-.67.664-1.483.988-2.421.988H4.009V14.406c0-.942.328-1.745 1-2.411.671-.666 1.483-.988 2.438-.988z" stroke="#0CF" stroke-width=".5" stroke-linecap="round" stroke-linejoin="round"/><path d="M52.972 21.9c0-.11.016-.202.016-.31V11.006H7.447c-.953 0-1.765.324-2.422 1.004-.658.68-1.016 1.467-1.016 2.395v10.585h45.542c.952 0 1.75-.34 2.422-.988.594-.607.938-1.3.999-2.104zm-13.514-6.244h1.28l-.36 5.762h-1.343v-1.004c-.719.895-1.53 1.22-2.439.974-.828-.248-1.202-.928-1.092-2.009l.561-3.74h1.297l-.454 3.754c0 .588.217.912.671 1.004.798.017 1.33-.571 1.61-1.777l.27-2.964zm6.796 1.608a6.429 6.429 0 001.546.076l-.437 3.833c-.124 1.127-.688 1.652-1.687 1.545l.578-5.454zm2.017 3.337c0-.278.093-.525.313-.727.204-.2.454-.294.735-.294.281 0 .531.093.719.294.203.202.313.45.313.727a.91.91 0 01-.313.71.988.988 0 01-.719.31c-.28 0-.531-.108-.735-.31a.93.93 0 01-.313-.71zm-15.093-7.43c.515.046.968.155 1.376.31.407.155.702.31.875.462l-.36 1.361a9.29 9.29 0 00-1.033-.618 2.922 2.922 0 00-1.7-.233 1.37 1.37 0 00-.61.277c-.17.14-.25.34-.266.602 0 .294.124.525.36.71.234.17.562.34.953.51.36.138.702.31 1.032.495.33.185.608.432.828.726.218.31.328.694.328 1.16 0 .324-.047.634-.157.927a2.11 2.11 0 01-.548.803 2.732 2.732 0 01-1.032.542c-.42.123-.952.169-1.577.123a6.18 6.18 0 01-1.453-.294c-.407-.14-.718-.294-.905-.463l.437-1.5c.171.232.438.433.812.634.36.202.812.324 1.343.37.468.047.845 0 1.126-.154.297-.14.437-.417.454-.803 0-.248-.063-.45-.171-.618-.124-.17-.297-.31-.531-.45a8.676 8.676 0 00-.798-.432 6.189 6.189 0 01-.859-.449 2.52 2.52 0 01-.702-.634c-.187-.247-.28-.571-.297-.958 0-.277.047-.555.17-.85.125-.293.298-.57.548-.834.25-.264.562-.45.97-.588.34-.12.825-.18 1.387-.134zm-5.813 4.447v.803h-1.062v1.592c0 .17 0 .31.016.433a.407.407 0 00.11.248c.063.046.157.062.28.062.078 0 .172 0 .251-.016h.25c.078 0 .11-.016.125-.016l.046.756s-.046.017-.14.03c-.094.017-.204.03-.328.063-.124.016-.234.016-.327.016-.297 0-.531-.03-.702-.123a.815.815 0 01-.375-.462c-.063-.216-.093-.496-.093-.866v-1.715h-.5v-.587l.5-.216.157-1.113h.734v1.111h1.058zm-9.765-1.59h.892v3.09h.267l1.109-1.5h1.202l-1.343 1.731 1.547 2.131h-1.203l-1.329-1.93h-.267v1.933h-.891v-5.455h.016zm-1.951 1.514c.093 0 .203 0 .297.016.437.062.765.201 1.015.433l-.437.68a1.35 1.35 0 00-.218-.155c-.124-.093-.313-.139-.531-.139a1.01 1.01 0 00-.484.109.61.61 0 00-.298.356 2.501 2.501 0 00-.077.664c0 .31.03.556.077.74a.57.57 0 00.281.387c.14.077.344.11.609.11.11 0 .234 0 .374-.017.14-.016.267-.03.36-.046.11 0 .171-.017.171-.017l.03.757s-.046 0-.123.03c-.078.016-.188.03-.314.047-.124.016-.267.03-.407.046-.14.016-.267.03-.36.03-.391 0-.702-.063-.939-.201-.234-.14-.407-.357-.515-.665-.11-.31-.156-.694-.156-1.189 0-.694.124-1.19.374-1.513.271-.308.693-.463 1.27-.463zm8.499.433c.28.293.42.726.42 1.328l-.062.634h-2.39c0 .278.064.495.204.618.14.139.36.201.672.201h.374c.39-.03.625-.139.702-.31l.36.588c-.156.264-.484.416-.952.495h-.094c-.187.016-.36.03-.53.03-.579 0-1-.155-1.267-.479-.25-.324-.374-.82-.374-1.5 0-.694.157-1.219.437-1.56.281-.34.702-.508 1.25-.508.562.03.985.169 1.25.463zm-16.654-.958v-.882h3.905v.882H9.916v4.466h-.922v-4.466h-1.5zm5.78-.496a.564.564 0 01-.188.433.609.609 0 01-.454.185.639.639 0 01-.454-.185.585.585 0 01-.187-.433c0-.169.063-.324.187-.449a.617.617 0 01.454-.169c.173 0 .328.063.454.17.11.124.187.28.187.448zm-1.046 1.097h.891v3.865h-.891v-3.865zm34.276-2.008c.17-.958.484-1.685.938-2.148.532-.433 1.313-.555 2.343-.37l-.204 1.16c-.671-.278-1.172-.17-1.516.31-.14.31-.218.663-.234 1.08.952.046 1.67-.093 2.125-.433-.078.974-.642 1.5-1.688 1.546-.124.016-.266.03-.407.03-.407.016-.858 0-1.376-.062-.046-.017-.266-.047-.624-.11-.358-.062-.75-.015-1.156.124-.735.277-1.187.789-1.39 1.545l-.342 3.108h-1.36l.735-5.732h1.173l-.094.942c.328-.449.608-.727.845-.865.234-.14.515-.202.844-.202l1.388.077zM23.68 19.24c0-.324-.064-.571-.188-.71s-.313-.215-.594-.201c-.28 0-.468.062-.594.215-.124.155-.204.386-.204.694h1.58v.002zm24.949.697a.895.895 0 00-.281.664c0 .248.094.463.28.648a.915.915 0 00.672.278c.25 0 .468-.093.656-.278a.886.886 0 00.28-.648.892.892 0 00-.28-.664.905.905 0 00-.656-.278c-.264.014-.484.093-.671.278zm1.235.123l.064.062-.204.201-.063-.062a.497.497 0 00-.36-.139.5.5 0 00-.36.139.564.564 0 00-.158.356c0 .139.047.264.157.357a.497.497 0 00.36.138.5.5 0 00.424-.215l.204.202-.064.062a.744.744 0 01-.561.231.714.714 0 01-.548-.231.753.753 0 01-.234-.555c0-.216.077-.403.234-.542a.735.735 0 01.548-.231c.157 0 .297.046.421.122.047.012.094.058.14.105z" fill="#0185BD" fill-rule="nonzero"/><path d="M47.442 13.462c-.454.48-.765 1.19-.938 2.148l-1.406-.077c-.328 0-.609.063-.845.202-.234.138-.515.416-.845.865l.094-.942H42.33l-.73 5.732h1.359l.344-3.105c.187-.757.655-1.266 1.39-1.546a2.583 2.583 0 011.156-.123c.36.063.578.093.625.109.514.062.968.076 1.376.062.14 0 .28-.016.407-.03 1.046-.062 1.61-.587 1.687-1.545-.454.34-1.172.479-2.125.432.017-.402.094-.773.234-1.08.344-.48.845-.588 1.517-.31l.203-1.16c-1.018-.171-1.8-.065-2.33.368zm-34.325 4.156h-.892v3.865h.892v-3.865zm-.03-.664a.585.585 0 00.186-.433.625.625 0 00-.187-.449c-.124-.122-.266-.169-.454-.169a.7.7 0 00-.454.17.617.617 0 00-.187.448c0 .17.063.324.187.433.124.123.281.185.454.185a.524.524 0 00.454-.185zm-5.593-.803v.882h1.5v4.466h.922v-4.482h1.483v-.882H7.494v.016zm17.075 3.152c0-.602-.14-1.035-.421-1.328-.281-.294-.702-.433-1.25-.433s-.969.169-1.25.509c-.297.34-.437.865-.437 1.56 0 .68.124 1.173.374 1.5.267.323.688.478 1.266.478.171 0 .36-.016.531-.03h.094c.468-.076.782-.231.952-.495l-.36-.588c-.077.185-.314.278-.702.31h-.374c-.314 0-.532-.062-.672-.201s-.204-.34-.204-.618h2.392l.06-.664zm-1.063-.757c.124.139.188.387.188.71h-1.578c0-.323.064-.555.204-.694.124-.155.328-.215.594-.215.265-.016.468.044.592.2zm-7.56-.988c-.11-.016-.204-.016-.297-.016-.578 0-1 .155-1.266.463-.267.31-.391.819-.375 1.513 0 .495.047.882.157 1.19.11.31.28.525.515.664.234.138.547.215.938.2.11 0 .234-.015.36-.03l.408-.045c.124-.017.234-.03.313-.047.078-.016.124-.03.124-.03l-.03-.757s-.063 0-.17.017c-.109.016-.235.03-.361.046-.14.016-.267.016-.375.016-.266 0-.484-.03-.608-.109a.526.526 0 01-.28-.386 3.085 3.085 0 01-.078-.74c0-.278.03-.496.077-.665a.538.538 0 01.297-.356c.11-.063.281-.093.485-.109.234 0 .407.046.53.139.031.016.11.076.218.155l.438-.68c-.239-.232-.583-.373-1.02-.433zm2.546-1.53H17.6v5.455h.892V19.55h.267l1.329 1.933h1.202l-1.546-2.132 1.343-1.73h-1.203l-1.11 1.499h-.266v-3.092h-.016zm8.873 2.395v-.805h-1.062v-1.11h-.735l-.157 1.112-.5.216v.587h.5v1.715c0 .37.03.664.094.866a.862.862 0 00.374.462c.171.093.407.123.702.123.094 0 .204 0 .328-.016.124-.016.217-.046.327-.063.11-.016.14-.03.14-.03l-.046-.756s-.047 0-.124.016h-.25c-.094 0-.171.016-.25.016a.612.612 0 01-.282-.062c-.063-.047-.093-.123-.11-.248-.016-.109-.016-.248-.016-.433v-1.592h1.067v.002zm7.189-4.945a5.104 5.104 0 00-1.376-.31c-.562-.046-1.046.016-1.437.155-.407.14-.718.324-.969.588-.25.248-.421.525-.547.835-.11.294-.171.572-.171.85.016.386.11.71.297.958.187.247.421.463.702.634.28.169.562.324.859.449.313.155.578.294.798.432.234.14.407.278.53.45.125.168.172.37.172.617 0 .387-.157.648-.454.803-.281.155-.655.201-1.126.155-.531-.046-.985-.169-1.343-.37-.374-.185-.641-.403-.812-.634l-.438 1.5c.188.168.501.323.906.462.405.14.892.232 1.453.294.625.046 1.156.016 1.577-.123.422-.122.766-.31 1.032-.541.25-.231.438-.51.548-.803.11-.294.17-.602.157-.928 0-.479-.11-.865-.328-1.16a2.482 2.482 0 00-.828-.726 7.823 7.823 0 00-1.032-.495 4.186 4.186 0 01-.953-.51c-.234-.184-.36-.416-.36-.71 0-.263.094-.462.267-.601a1.37 1.37 0 01.608-.278c.25-.046.485-.046.702-.03.344.03.688.109 1 .264a7.7 7.7 0 011.031.618l.36-1.361c-.123-.174-.42-.329-.825-.484zm14.014 6.382a1.002 1.002 0 00-.314.727c0 .278.094.51.314.71.204.202.454.31.735.31.28 0 .531-.108.718-.31a.967.967 0 00.314-.71.942.942 0 00-.314-.727.972.972 0 00-.718-.293c-.281 0-.534.092-.735.293zm-.204.741c0-.264.094-.479.281-.664a.915.915 0 01.672-.278c.25 0 .468.093.655.278.187.185.28.403.28.664a.882.882 0 01-.28.648.905.905 0 01-.655.278.912.912 0 01-.672-.278.882.882 0 01-.28-.648zm1.561-.495l-.063-.063c-.047-.046-.094-.076-.14-.108a.8.8 0 00-.422-.123.714.714 0 00-.547.231.745.745 0 00-.234.542.75.75 0 00.234.555.735.735 0 00.547.232c.22 0 .408-.077.562-.232l.063-.062-.203-.202c-.017.03-.047.047-.064.077a.497.497 0 01-.36.139.5.5 0 01-.36-.14.5.5 0 01-.157-.356c0-.138.047-.263.157-.356a.497.497 0 01.36-.139.5.5 0 01.36.139c.017.03.047.046.064.062l.203-.196zM47.8 17.34a5.79 5.79 0 01-1.546-.076l-.562 5.454c1 .11 1.563-.416 1.687-1.545l.421-3.833zm-7.06-1.684h-1.28l-.266 2.983c-.267 1.205-.812 1.79-1.61 1.777-.438-.093-.672-.417-.672-1.004l.454-3.754H36.07l-.562 3.74c-.11 1.08.267 1.76 1.093 2.008.892.248 1.704-.076 2.438-.974v1.004h1.344l.358-5.78z" fill="#FFF" fill-rule="nonzero"/></g></svg>