<?xml version="1.0" encoding="UTF-8"?><svg width="56" height="36" viewBox="0 0 56 36" xmlns="http://www.w3.org/2000/svg"><g fill="none" fill-rule="evenodd"><path d="M0 3.75A3.749 3.749 0 013.75 0h48.5A3.756 3.756 0 0156 3.75v28.5A3.749 3.749 0 0152.25 36H3.75A3.756 3.756 0 010 32.25V3.75z" fill="#000" fill-rule="nonzero"/><path d="M1.25 3.75v28.5c0 1.375 1.123 2.5 2.5 2.5h48.5c1.382 0 2.5-1.118 2.5-2.5V3.75c0-1.375-1.123-2.5-2.5-2.5H3.75a2.499 2.499 0 00-2.5 2.5z" fill="#FFF"/><g fill-rule="nonzero"><path d="M3.093 22.625v-7.313c.062-.406.155-.812.435-1.124.31-.407.714-.75 1.18-.938.217-.094.435-.063.652-.125h47.298c.156 0 .187.031.187.188v7.156c-.062.343-.093.656-.31.968-.529.782-1.243 1.282-2.237 1.282H3.342c-.062-.094-.156-.063-.249-.094z" fill="#D44D12"/><path d="M44.925 16.844c.125-.125.218-.25.311-.344.217-.219.497-.375.807-.375.466-.031.777.188.901.656.031.063.031.157.062.25.155-.218.31-.437.497-.593.217-.188.497-.313.777-.313.559-.031.9.25.993.813.062.406 0 .78-.062 1.187l-.186 1.594c-.062.5-.435.875-.932 1-.124.031-.155 0-.124-.125.093-.75.186-1.5.248-2.25.031-.344.094-.657.094-1 0-.375-.218-.532-.56-.375-.217.093-.341.281-.465.468-.249.407-.31.875-.342 1.313-.062.438-.093.875-.155 1.313 0 .093-.062.125-.155.125h-.684c-.124 0-.155-.032-.124-.157l.28-2.343a1.353 1.353 0 000-.5c-.031-.22-.156-.313-.373-.282-.249.032-.404.188-.56.375-.216.344-.372.719-.403 1.125-.062.563-.124 1.094-.186 1.657 0 .125-.062.156-.186.156h-.622c-.155 0-.155-.032-.155-.188.093-.843.218-1.718.31-2.562.063-.375.094-.782.125-1.157 0-.125.062-.156.186-.156.652 0 .652-.031.683.688zM41.882 19.5c-.248.281-.528.531-.87.656-.807.282-1.428-.187-1.428-1.031 0-.5.093-.969.124-1.438.031-.468.124-.906.155-1.375 0-.125.062-.218.218-.187h.62c.125 0 .156.031.156.156l-.28 2.344c0 .125-.03.281-.03.406.03.282.186.407.465.344.249-.031.404-.156.56-.344.31-.343.496-.75.527-1.218.031-.5.125-1 .156-1.5.03-.157.062-.22.248-.22.217.032.435 0 .621 0 .093 0 .156 0 .124.126-.155 1.25-.31 2.5-.434 3.718-.031.157-.094.188-.218.188h-.217c-.31 0-.404-.094-.404-.438-.03-.125-.03-.125-.093-.187zM26.199 17c.124-.25.28-.438.497-.625.217-.188.465-.281.745-.219.124.032.186.063.155.219-.062.219-.093.438-.124.656-.031.125-.062.094-.155.094-.404-.094-.683 0-.9.344-.311.468-.405 1-.467 1.562-.03.344-.093.719-.124 1.063 0 .093-.031.125-.124.125h-.714c-.094 0-.125-.032-.125-.125.156-1.25.31-2.5.466-3.719.031-.156.062-.188.218-.188.652 0 .652 0 .62.688-.03.094-.03.094.032.125zM14.708 17.625c-.28.344-.59.688-.87 1.031-.062.063-.062.094 0 .188.311.437.622.875.932 1.343a2.066 2.066 0 01-.62 0c-.094 0-.156-.093-.187-.156-.187-.281-.342-.531-.528-.812-.031-.032-.062-.094-.093-.125-.062-.094-.156-.094-.249-.063-.093.032-.062.125-.062.188v.812c0 .125-.031.188-.155.188-.466 0-.466 0-.466-.438v-3.093c0-.157.031-.22.186-.22.435 0 .435 0 .435.438v1.5c0 .063-.062.157.062.188.093.031.155 0 .218-.094.155-.188.31-.344.434-.563.187-.25.404-.375.715-.343.062 0 .155-.032.248.031zM37.969 20.188c-.466 0-.466 0-.435-.47.124-1.124.28-2.28.404-3.405 0-.125.03-.157.186-.157h.621c.156 0 .187.032.156.188-.094.718-.187 1.437-.249 2.156l-.186 1.5c0 .156-.062.219-.218.219-.062-.032-.155-.032-.28-.032zM7.161 18.656V20c0 .125-.03.156-.155.156-.528 0-.528 0-.528-.531V17.25c0-.125-.03-.188-.186-.188h-.745c-.125 0-.187-.03-.187-.156 0-.406 0-.406.404-.406h2.267c.186 0 .217.063.217.219 0 .343 0 .343-.341.343h-.59c-.124 0-.156.032-.156.157v1.437zM17.814 18.906v-.687c0-.125-.031-.157-.156-.157-.186.032-.248-.062-.248-.25 0-.125.031-.156.155-.156.218 0 .31-.125.342-.312 0-.094.03-.219.062-.313.031-.156.093-.218.248-.218.187 0 .28.03.249.25-.031.187-.062.406.03.53.094.126.343.032.498.032.124 0 .155.031.155.156 0 .313 0 .313-.28.313-.403 0-.403 0-.403.406v.938c0 .25.124.343.373.25.248-.125.248.156.341.25.093.125-.062.156-.124.187a.946.946 0 01-.714.094.577.577 0 01-.466-.594c-.062-.25-.062-.5-.062-.719zM11.012 20.219c-.683 0-1.18-.5-1.18-1.282 0-.5.125-.968.59-1.218.435-.25.901-.219 1.367.031.062.031.248.063.155.25-.155.25-.217.25-.404.156-.528-.281-.931-.093-1.056.5a1.35 1.35 0 000 .5c.125.563.56.75 1.025.438.156-.094.249-.094.373.062.124.125.093.219-.031.313-.249.156-.528.25-.839.25z" fill="#FEFEFE"/><path d="M8.683 18.875V17.75c0-.125.031-.156.156-.156.465 0 .465 0 .465.437V20c0 .156-.03.188-.186.188-.435 0-.435 0-.435-.438v-.875z" fill="#FEFDFD"/><path d="M39.18 15c0 .344-.28.625-.59.625-.31 0-.621-.281-.621-.594 0-.344.28-.625.59-.625.373-.031.621.25.621.594z" fill="#FEFEFE"/><path d="M32.41 18.531c-.062.5-.124 1.032-.186 1.532 0 .093-.031.125-.125.125h-.714c-.093 0-.124-.032-.124-.125.03-.188.062-.344.186-.47.342-.343.621-.75.9-1.155.094 0 .063.062.063.093zM8.994 17.25a.412.412 0 01-.404-.406c0-.219.186-.407.404-.407.217 0 .404.188.404.407a.412.412 0 01-.404.406z" fill="#FEFDFD"/><path d="M36.913 17.063c-.062-.688-.497-1.032-1.149-.938-.28.031-.528.188-.745.375-.156.156-.28.313-.435.5 0-.063-.031-.094-.031-.125-.124-.656-.59-.906-1.211-.688-.342.125-.59.375-.839.688-.062-.688-.062-.688-.621-.688-.186 0-.217.063-.248.22-.063.593-.156 1.218-.218 1.812 0 .093-.03.156-.062.218-.559.688-1.242 1.063-2.112 1.063-.466 0-.683-.188-.776-.656-.062-.313-.062-.313.248-.344.093 0 .156-.031.249-.031.497-.094.994-.188 1.428-.438.373-.218.528-.531.497-.937-.03-.407-.28-.688-.652-.844-.59-.219-1.149-.125-1.677.188-.839.53-1.304 1.843-.994 2.812.187.594.621.938 1.242 1.031.373.032.715 0 1.056-.125a4.497 4.497 0 001.926-1.468c.341-.438.62-.907.931-1.344.156-.188.311-.344.56-.407.186-.03.31.063.341.25a.766.766 0 010 .375 68.648 68.648 0 01-.31 2.5c0 .125 0 .157.155.157h.683c.093 0 .155-.032.155-.125.062-.5.125-.969.156-1.469.03-.5.155-1 .497-1.406a.735.735 0 01.465-.282c.218-.03.342.063.373.25.031.22 0 .407-.031.625-.093.75-.155 1.5-.248 2.22-.032.124.03.155.155.155h.62c.156 0 .187-.03.187-.187.062-.531.124-1.094.187-1.625.186-.438.28-.875.248-1.313zm-7.92 0a.91.91 0 01.684-.282c.155 0 .31.063.373.25.062.157 0 .313-.125.438a.676.676 0 01-.248.156c-.342.125-.714.188-1.087.25.062-.313.186-.594.404-.813zM23.28 14.563c-.684-.063-1.367 0-2.02-.032-.123 0-.123.094-.123.156l-.094.844c-.155 1.406-.341 2.781-.496 4.188-.031.156-.125.375-.031.468.093.094.31.032.434.032h.342c.124 0 .186-.032.186-.188l.187-1.687c0-.125.062-.157.186-.157.31 0 .652 0 .963-.03 1.025-.095 1.677-.72 1.832-1.75.186-1.032-.342-1.75-1.366-1.845zm-.777 2.812h-.31c-.373 0-.373 0-.342-.375.062-.531.124-1.031.186-1.563 0-.093.031-.156.156-.156.248 0 .527 0 .776.031.373.032.621.282.652.626.155.78-.248 1.468-1.118 1.437zM16.727 19.531c-.093.063-.218.094-.31.157-.467.156-.87-.094-.933-.532-.03-.125 0-.187.156-.187h1.335c.155 0 .218-.063.218-.219.03-.531-.249-.969-.684-1.125a1.284 1.284 0 00-1.428.406c-.373.532-.31 1.375.124 1.813.404.437 1.242.5 1.77.125.218-.157.218-.188.031-.407-.093-.093-.186-.062-.28-.03zm-1.243-1.125c.094-.281.311-.437.622-.406.248.031.434.188.465.438.031.093 0 .156-.124.156h-.869c-.125 0-.125-.063-.094-.188z" fill="#FEFEFE"/><path d="M50.267 19.063c-.342 0-.59.28-.59.625 0 .343.28.625.621.625a.625.625 0 00.621-.625c-.03-.375-.31-.625-.652-.625zm0 1.125c-.28 0-.497-.22-.528-.532 0-.312.218-.531.528-.531.28 0 .497.219.497.531 0 .313-.217.532-.497.532z" fill="#FDF8F7"/><path d="M50.547 19.906c-.031-.062-.063-.031-.125-.031-.124.063-.248.063-.31-.063a.285.285 0 010-.312c.093-.125.186-.125.31-.094.031 0 .094.032.125-.031.03-.063-.031-.094-.094-.094-.062-.031-.093-.031-.124-.031-.186 0-.341.063-.372.219-.063.156-.063.312.093.437.124.125.28.125.434.063 0 .031.063 0 .063-.063z" fill="#FDF9F7"/></g></g></svg>