<?xml version="1.0" encoding="UTF-8"?><svg width="56" height="36" viewBox="0 0 56 36" xmlns="http://www.w3.org/2000/svg"><g fill="none" fill-rule="evenodd"><path d="M0 3.75A3.749 3.749 0 013.75 0h48.5A3.756 3.756 0 0156 3.75v28.5A3.749 3.749 0 0152.25 36H3.75A3.756 3.756 0 010 32.25V3.75z" fill="#000" fill-rule="nonzero"/><path d="M1.25 3.75v28.5c0 1.375 1.123 2.5 2.5 2.5h48.5c1.382 0 2.5-1.118 2.5-2.5V3.75c0-1.375-1.123-2.5-2.5-2.5H3.75a2.499 2.499 0 00-2.5 2.5z" fill="#FFF"/><g fill-rule="nonzero"><path d="M37.08 26.949V14.818h5.696a4.924 4.924 0 011.98.366 2.446 2.446 0 011.506 2.11c.062.45.04.908-.064 1.35a2.529 2.529 0 01-1.271 1.593l-.206.115.163.058a2.786 2.786 0 011.91 2.411 3.712 3.712 0 01-.22 2.01 3.277 3.277 0 01-2.13 1.838 5.246 5.246 0 01-1.655.265h-5.71v.015zm2.556-2.068h2.699c.238 0 .476-.021.71-.064a1.361 1.361 0 001.186-1.055 2.35 2.35 0 000-1.099 1.297 1.297 0 00-.71-.918 2.252 2.252 0 00-.98-.216h-2.748c-.135 0-.164.043-.164.173v3.014c0 .05.007.1.007.158v.007zm0-5.16h2.67c.13 0 .258-.012.384-.036a1.211 1.211 0 001.08-.948 2.43 2.43 0 00.035-.675 1.126 1.126 0 00-.689-.983 2.357 2.357 0 00-.987-.187h-2.493v2.828zM16.38 17.063v9.863h-2.635v-9.863h-3.65v-.158-1.93c0-.115 0-.159.149-.159h9.636c.079 0 .15 0 .15.108v2.06a.37.37 0 010 .058l-3.65.021z" fill="#BE1E2D"/><path d="M24.07 18.443v8.32c0 .136 0 .179-.17.179h-2.251c-.192 0-.192 0-.192-.194v-9.583-2.153c0-.13 0-.172.17-.172h3.466a.178.178 0 01.206.143c.8 2.393 1.605 4.786 2.414 7.178l.306.883a.23.23 0 00.078.115c.035-.108.078-.208.106-.316l1.946-6.123c.185-.588.376-1.177.561-1.766a.158.158 0 01.06-.105.155.155 0 01.118-.03h3.493c.121 0 .15.042.15.157V26.719c0 .209 0 .209-.206.209h-2.216c-.199 0-.199 0-.199-.194V18.508h-.028l-.235.674-2.599 7.674a.15.15 0 01-.17.122H27.11c-.1 0-.135-.036-.17-.13l-1.712-5.11-1.051-3.116c-.036-.114-.036-.114-.036-.186l-.07.007zM21.457 10.976a1.91 1.91 0 011.176-1.76 1.874 1.874 0 012.059.428c.537.55.692 1.375.392 2.087a1.888 1.888 0 01-3.088.596 1.906 1.906 0 01-.539-1.35zM35.177 10.99a1.9 1.9 0 01-1.896 1.903 1.9 1.9 0 01-1.882-1.917 1.9 1.9 0 011.896-1.902c.5.002.98.205 1.333.564.353.36.55.846.549 1.353z" fill="#0C57A1"/></g></g></svg>