<?xml version="1.0" encoding="UTF-8"?><svg width="56" height="36" viewBox="0 0 56 36" xmlns="http://www.w3.org/2000/svg"><g fill="none" fill-rule="evenodd"><path d="M0 3.75A3.749 3.749 0 013.75 0h48.5A3.756 3.756 0 0156 3.75v28.5A3.749 3.749 0 0152.25 36H3.75A3.756 3.756 0 010 32.25V3.75z" fill="#000" fill-rule="nonzero"/><path d="M1.25 3.75v28.5c0 1.375 1.123 2.5 2.5 2.5h48.5c1.382 0 2.5-1.118 2.5-2.5V3.75c0-1.375-1.123-2.5-2.5-2.5H3.75a2.499 2.499 0 00-2.5 2.5z" fill="#FFF"/><g fill-rule="nonzero"><path d="M5.926 21.395l-.153.818a2.379 2.379 0 01-.645.094c-.37 0-.664-.097-.882-.292-.165-.148-.246-.348-.246-.603 0-.13.044-.424.132-.89l.661-3.404H4.06l.149-.773h.733l.28-1.44 1.061-.69-.415 2.13h.911l-.153.772H5.72l-.629 3.24c-.078.413-.118.658-.118.74 0 .118.033.208.095.27.063.063.167.095.311.095.204-.002.388-.022.548-.067zm.911-1.412c0-1.145.314-2.093.938-2.843.515-.618 1.192-.928 2.028-.928.656 0 1.183.22 1.584.663.401.442.601 1.038.601 1.787 0 .673-.125 1.3-.378 1.88-.253.58-.613 1.026-1.079 1.333-.466.31-.958.463-1.473.463a2.31 2.31 0 01-1.156-.293 1.937 1.937 0 01-.793-.827 2.716 2.716 0 01-.272-1.235zm.928-.1c0 .552.123.97.37 1.255.245.284.559.427.937.427.197 0 .394-.043.589-.13a1.7 1.7 0 00.543-.395c.167-.178.31-.378.427-.605.118-.228.213-.47.285-.733a3.73 3.73 0 00.158-1.047c0-.53-.123-.94-.371-1.235a1.176 1.176 0 00-.935-.44c-.29 0-.555.075-.794.222-.239.15-.454.368-.647.655-.193.288-.334.62-.425 1.003a4.406 4.406 0 00-.137 1.022zm8.41 1.475c-.528.655-1.083.982-1.658.982-.515 0-.944-.205-1.288-.615-.343-.41-.515-1.005-.515-1.785 0-.715.137-1.365.409-1.958.271-.59.61-1.032 1.018-1.327.408-.295.817-.442 1.227-.442.676 0 1.186.352 1.532 1.055l.614-3.153h.922l-1.569 8.093h-.856l.165-.85zm-2.54-1.608c0 .407.037.73.114.965.074.235.204.433.385.588a.954.954 0 00.65.235c.42 0 .8-.235 1.141-.708.457-.625.687-1.397.687-2.317 0-.463-.114-.825-.339-1.088a1.072 1.072 0 00-.851-.392c-.223 0-.425.052-.608.16-.183.107-.364.287-.543.542-.179.255-.33.58-.452.975-.121.395-.184.743-.184 1.04zm4.673 2.457l1.137-5.862h.928l-1.137 5.862h-.928zm1.353-6.962l.22-1.132h.921l-.22 1.132h-.921zm3.18 6.15l-.153.818a2.379 2.379 0 01-.645.094c-.369 0-.663-.097-.881-.292-.165-.148-.246-.348-.246-.603 0-.13.044-.424.132-.89l.661-3.404h-.733l.148-.773h.734l.28-1.44 1.06-.69-.415 2.13h.914l-.153.772h-.907l-.63 3.24c-.08.413-.12.658-.12.74 0 .118.033.208.096.27.063.063.167.095.31.095.205-.002.388-.022.548-.067zm.912-1.412c0-1.145.313-2.093.937-2.843.515-.618 1.193-.928 2.028-.928.657 0 1.183.22 1.585.663.401.442.6 1.038.6 1.787 0 .673-.125 1.3-.377 1.88-.253.58-.613 1.026-1.08 1.333-.466.31-.958.463-1.473.463a2.31 2.31 0 01-1.155-.293 1.937 1.937 0 01-.793-.827c-.181-.355-.272-.768-.272-1.235zm.926-.1c0 .552.123.97.369 1.255.246.284.559.427.937.427.197 0 .394-.043.59-.13a1.7 1.7 0 00.542-.395c.167-.178.311-.378.427-.605.118-.228.214-.47.285-.733a3.73 3.73 0 00.158-1.047c0-.53-.123-.94-.37-1.235a1.176 1.176 0 00-.936-.44c-.29 0-.554.075-.793.222-.24.15-.455.368-.648.655-.192.288-.334.62-.424 1.003-.09.385-.137.725-.137 1.022z" fill="#000"/><path d="M35.683 19.343l.986.147c-.31.928-.766 1.628-1.362 2.103a3.138 3.138 0 01-2.007.712c-.905 0-1.621-.297-2.15-.893-.53-.594-.796-1.447-.796-2.554 0-1.445.403-2.64 1.209-3.585.716-.843 1.61-1.265 2.677-1.265.789 0 1.429.227 1.919.685.49.455.772 1.07.851 1.84l-.93.092c-.098-.58-.302-1.012-.608-1.3-.306-.287-.703-.43-1.186-.43-.912 0-1.647.435-2.208 1.308-.488.752-.731 1.645-.731 2.677 0 .825.188 1.455.564 1.888.375.432.865.652 1.468.652.515 0 .982-.18 1.397-.542.415-.363.717-.875.907-1.535zm5.222 2.102c-.317.295-.624.512-.918.647-.295.138-.61.206-.945.206-.498 0-.9-.158-1.204-.473-.304-.315-.457-.72-.457-1.213 0-.325.07-.612.207-.862.137-.25.32-.45.545-.603.227-.152.503-.26.833-.325.206-.045.598-.077 1.176-.105.578-.025.99-.092 1.241-.197a2.71 2.71 0 00.107-.673c0-.23-.079-.41-.234-.542-.214-.183-.525-.273-.935-.273-.385 0-.703.093-.947.278-.246.185-.424.445-.536.785l-.93-.088c.19-.577.49-1.017.902-1.325.411-.307.93-.46 1.557-.46.666 0 1.195.173 1.585.515.3.255.448.588.448.995 0 .31-.042.67-.128 1.078l-.3 1.445c-.094.46-.14.835-.14 1.123 0 .182.036.444.11.787h-.93a3.872 3.872 0 01-.107-.72zm.341-2.223a1.963 1.963 0 01-.412.125c-.149.03-.395.06-.74.093-.537.05-.912.115-1.133.195a.952.952 0 00-.499.375c-.111.173-.167.36-.167.57a.93.93 0 00.267.685c.179.18.432.268.759.268.304 0 .598-.088.88-.26.28-.173.503-.415.665-.725.162-.31.288-.753.38-1.325zm9.265-4.927h-.984L48.012 22.3h.884s.47-2.508.666-3.245c.195-.735.742-1.847 1.858-1.805.9.035.733.728.659 1.37-.058.513-.784 3.677-.784 3.677h.93s.15-1.09.376-2.205c.225-1.114.712-2.734.093-3.322-.817-.772-1.914-.305-2.722.397.283-1.435.539-2.872.539-2.872zm-3.622 4.003l.705-.19s-.137-1.248-1.2-1.588v-.71h-.712l-.009.562c-1.48.018-1.816.888-1.932 1.255-.237.74.11 1.468 1.222 1.995.914.433 1.501.675 1.406 1.26-.093.588-.712.755-1.378.715-.919-.055-1.146-.95-1.165-1.362h-.932s-.11 1.945 1.508 2.06v.695l.84.01.002-.68s1.218.037 1.71-.785c.564-.942.295-1.777-.506-2.28-.434-.272-.756-.37-1.086-.495-.39-.148-.782-.255-.758-.818.044-.977 2.19-1 2.285.355z" fill="#4EAA4F"/></g></g></svg>