<?xml version="1.0" encoding="UTF-8"?><svg width="56" height="36" viewBox="0 0 56 36" xmlns="http://www.w3.org/2000/svg"><g fill="none" fill-rule="evenodd"><path d="M0 3.75A3.749 3.749 0 013.75 0h48.5A3.756 3.756 0 0156 3.75v28.5A3.749 3.749 0 0152.25 36H3.75A3.756 3.756 0 010 32.25V3.75z" fill="#000" fill-rule="nonzero"/><path d="M1.25 3.75v28.5c0 1.375 1.123 2.5 2.5 2.5h48.5c1.382 0 2.5-1.118 2.5-2.5V3.75c0-1.375-1.123-2.5-2.5-2.5H3.75a2.499 2.499 0 00-2.5 2.5z" fill="#FFF"/><g fill="#052554" fill-rule="nonzero"><path d="M21.012 13.873c.373-.475.84-.867 1.372-1.153a3.75 3.75 0 011.797-.425 3.34 3.34 0 011.53.323c.417.21.78.515 1.057.89.288.4.496.85.612 1.329a6.42 6.42 0 01.196 1.611 7.463 7.463 0 01-.366 2.344 6.348 6.348 0 01-1.01 1.937c-.412.54-.934.988-1.53 1.316a4.053 4.053 0 01-1.963.482 3.953 3.953 0 01-1.824-.389 3.296 3.296 0 01-1.298-1.278l-1.057 4.965h-2.111l2.803-13.23h2.057l-.265 1.278zm-.908 4.707c-.03.591.17 1.171.556 1.62.37.408.926.612 1.668.612a2.33 2.33 0 001.287-.362 3.11 3.11 0 00.955-.972c.273-.435.475-.91.6-1.408a6.592 6.592 0 00.204-1.64c0-.777-.173-1.37-.52-1.779a1.686 1.686 0 00-1.352-.612 2.768 2.768 0 00-1.091.211c-.34.142-.654.342-.927.592-.281.256-.519.557-.703.89a3.95 3.95 0 00-.419 1.102 10.51 10.51 0 00-.258 1.746zM30.986 22.471c-.853 0-1.533-.226-2.04-.68-.508-.453-.76-1.105-.759-1.955-.023-.598.131-1.19.444-1.7.3-.447.71-.81 1.19-1.056a5.71 5.71 0 011.7-.555 15.04 15.04 0 012.001-.204l1.76-.075.056-.296c.036-.208.055-.42.056-.63a1.36 1.36 0 00-.39-1.038c-.26-.246-.68-.37-1.278-.37-.669 0-1.175.09-1.52.268-.344.18-.61.528-.797 1.047l-1.91-.204c.31-.987.83-1.688 1.558-2.102.729-.415 1.692-.622 2.89-.62 1.124 0 1.983.255 2.576.767.592.513.895 1.232.907 2.16 0 .18-.013.359-.037.537-.026.185-.056.377-.094.574l-1.249 5.89h-2.006l.26-1.259a6.53 6.53 0 01-1.41 1.085c-.59.3-1.247.443-1.908.416zm3.985-4.821l-1.427.073c-.523.025-1.044.09-1.557.196a3.06 3.06 0 00-1.001.379c-.229.14-.412.343-.527.585a1.86 1.86 0 00-.158.787c-.003.31.12.607.34.824.226.227.566.34 1.02.34a3.386 3.386 0 002.028-.651 2.805 2.805 0 001.103-1.715l.178-.818zM38.665 12.594h2.334l1.224 6.95 3.857-6.95h2.409l-6.212 10.23c-.296.493-.57.929-.824 1.306a4.938 4.938 0 01-.796.935c-.27.242-.58.433-.918.565a3.244 3.244 0 01-1.19.195 4.027 4.027 0 01-1.6-.314l.556-1.595c.136.05.29.095.464.14.182.044.369.065.556.064.327.015.648-.094.898-.306a4.42 4.42 0 00.77-1.028l.556-.945-2.084-9.247zM13.681 19.154l-.064.323c-.02.095-.029.191-.03.288 0 .359.091.607.27.741.214.147.472.219.732.204a3.87 3.87 0 001.15-.17l.314 1.576a6.134 6.134 0 01-1.947.294c-.85 0-1.505-.192-1.963-.575-.458-.383-.685-.963-.68-1.74 0-.345.043-.687.13-1.02l1.02-4.818H8l.352-1.668h4.607L13.515 10h2.111l-.556 2.594h2.584l-.352 1.668h-2.584l-1.037 4.893z"/></g></g></svg>