<svg width="56" height="36" viewBox="0 0 56 36" xmlns="http://www.w3.org/2000/svg"><g fill="none" fill-rule="evenodd"><path d="M0 3.75A3.749 3.749 0 013.75 0h48.5A3.756 3.756 0 0156 3.75v28.5A3.749 3.749 0 0152.25 36H3.75A3.756 3.756 0 010 32.25V3.75z" fill="#000" fill-rule="nonzero"/><path d="M1.25 3.75v28.5c0 1.375 1.123 2.5 2.5 2.5h48.5c1.382 0 2.5-1.118 2.5-2.5V3.75c0-1.375-1.123-2.5-2.5-2.5H3.75a2.499 2.499 0 00-2.5 2.5z" fill="#FFF"/><g><path fill="#FFF" fill-rule="nonzero" d="M5 17.239h45v12.834H5z"/><path d="M34.864 28.916h-2.24a.599.599 0 01-.598-.599v-2.24c0-.33.268-.598.599-.598h2.24c.33 0 .598.268.598.599v2.24c0 .33-.268.598-.599.598z" fill="#DC0432" fill-rule="nonzero"/><path d="M40.92 28.916h-2.242a.599.599 0 01-.6-.599v-2.24c0-.33.269-.598.6-.598h2.24c.33 0 .598.268.598.599v2.24a.594.594 0 01-.595.598z" fill="#00579E" fill-rule="nonzero"/><path fill="#FFF" d="M40.308 26.781l-.317-.557h-.662l.37.589z"/><path fill="#00ABE8" d="M39.702 26.816l-.314.463h.29l.142-.216h.33l.161-.275-.003-.007-.61.032z"/><path fill="#FFF" d="M40.788 27.628v-.004l-.271-.474-.659-.003.262.463.01.018zM39.796 27.648l-.15-.289-.293-.003-.17-.24-.335-.004.3.53z"/><path fill="#00ABE8" d="M38.81 28.17h.655l.16-.246.181.247h.655l.327-.543h-.658l-.289.452-.164-.233.119-.199-.648-.006.003.003z"/><g fill="#F9C32F" fill-rule="nonzero"><path d="M46.907 28.916H44.8a.667.667 0 01-.665-.665v-2.107c0-.366.3-.665.665-.665h2.107c.366 0 .666.3.666.665v2.107a.663.663 0 01-.666.665zm-2.103-3.239a.467.467 0 00-.467.467v2.107c0 .258.21.467.467.467h2.107a.467.467 0 00.467-.467v-2.107a.467.467 0 00-.467-.467h-2.107z"/><path d="M45.856 27.86a.062.062 0 01-.063-.062v-1.201c0-.035.028-.063.063-.063.034 0 .062.028.062.063v1.201a.062.062 0 01-.062.063z"/><path d="M46.458 27.258h-1.205a.062.062 0 01-.063-.062c0-.035.028-.063.063-.063h1.205c.035 0 .063.028.063.063a.062.062 0 01-.063.062z"/></g><g fill-rule="nonzero"><path d="M16.691 28.916h-2.239a.599.599 0 01-.599-.599v-2.24c0-.33.268-.598.6-.598h2.238c.331 0 .6.268.6.599v2.24c0 .33-.269.598-.6.598z" fill="#D9001D"/><path d="M15.977 27.116a.51.51 0 00-.052-.202l-.292-.554a.458.458 0 01-.046-.132l-.01.024a.473.473 0 000 .442l.233.443a.473.473 0 010 .442l-.014.024a.458.458 0 00-.045-.132l-.216-.408-.136-.257a.604.604 0 01-.048-.133l-.01.025a.473.473 0 000 .442l.236.446a.473.473 0 010 .442l-.014.024a.398.398 0 00-.049-.135l-.292-.554a.479.479 0 01-.056-.24c-.313.09-.53.278-.53.498 0 .306.419.553.934.553.515 0 .933-.247.933-.553.004-.227-.212-.415-.526-.505" fill="#FFF"/></g><path d="M28.804 28.916h-2.24a.599.599 0 01-.598-.599v-2.24c0-.33.268-.598.599-.598h2.24c.33 0 .598.268.598.599v2.24a.597.597 0 01-.599.598z" fill="#006BAC" fill-rule="nonzero"/><path fill="#FFF" d="M27.293 27.258h.71l.488.808h-.71z"/><path fill="#EF7D1A" d="M27.366 27.137h.735l.637-.805h-.735zM26.635 28.07h.73l.638-.812h-.731z"/><path fill="#FFF" d="M26.9 26.325h.682l.47.812h-.686z"/><path d="M20.54 25.479h2.183c.345 0 .627.282.624.627v2.183a.629.629 0 01-.627.627h-2.187a.629.629 0 01-.627-.627l.003-2.183a.63.63 0 01.63-.627z" fill="#312782"/><path d="M22.997 27.046H22.7l-.126.195h.21l.213-.195zm.2.317h-.292v.522c0 .16-.13.206-.226.206-.092 0-.193-.028-.189-.167v-.565h-.292v.6c0 .23.159.334.376.334.15 0 .272-.052.34-.15h.003v.129h.28v-.91zM22.01 27.603c0-.226-.237-.264-.366-.264-.188 0-.387.038-.415.316h.237c.007-.052.032-.125.15-.125.063 0 .16.007.16.105 0 .052-.049.066-.087.073l-.22.031c-.156.02-.271.111-.271.29 0 .187.143.264.282.264.167 0 .244-.077.3-.133.003.05.01.063.024.108h.209v-.174l-.003-.49zM20.975 27.046h-.244v.317h-.125v.17h.125v.55c0 .12.039.196.248.196h.031c.038 0 .077-.004.115-.004v-.18c-.018 0-.035.003-.049.003-.097 0-.1-.021-.1-.073v-.491h.152v-.171h-.153v-.317zM20.495 27.046h-.265v1.222h.261z" fill="#FFEC00"/><path d="M21.773 27.945v-.115c-.025.017-.066.034-.167.048-.091.014-.168.039-.168.14 0 .083.067.108.112.108.111 0 .223-.07.223-.181z" fill="#312782"/><path d="M10.635 28.916h-2.24a.599.599 0 01-.598-.599v-2.24c0-.33.268-.598.599-.598h2.239c.33 0 .599.268.599.599v2.24c0 .33-.268.598-.599.598z" fill="#FFFF01" fill-rule="nonzero"/><path fill="#0027F8" fill-rule="nonzero" d="M5 6h43.927v18.319H5z"/><path fill="#001BA9" fill-rule="nonzero" d="M30.298 24.319l-5.276-5.315V6.028H50v18.291z"/><g fill="#F9C32F" fill-rule="nonzero"><path d="M28.662 18.858a.489.489 0 01-.353.143c-.271 0-.497-.178-.497-.404 0-.226.226-.4.497-.4.145 0 .267.052.353.139v-.477h.15v1.121h-.15v-.122zm-.353.031c.154 0 .281-.073.353-.17v-.25a.436.436 0 00-.353-.165c-.19 0-.343.122-.343.29 0 .174.153.295.343.295z"/><path d="M29.241 19.193a.5.5 0 11-.004-1c.294 0 .49.228.49.517h-.852c.013.211.16.345.362.345.125 0 .263-.065.317-.19h.147c-.058.216-.26.328-.46.328zm-.348-.604h.67c-.032-.155-.143-.254-.322-.254a.333.333 0 00-.348.254zM30.159 18.322v.658h-.118v-.658h-.16v-.105h.16v-.216h.115v.216h.16v.105zM30.871 19.196a.497.497 0 01-.5-.502c0-.277.217-.498.5-.498.284 0 .5.226.5.498a.497.497 0 01-.5.502zm0-.138c.209 0 .359-.16.359-.368a.35.35 0 00-.359-.36.35.35 0 00-.358.36c0 .208.15.368.358.368z"/><path d="M32.183 18.858a.489.489 0 01-.353.143c-.271 0-.497-.178-.497-.404 0-.226.226-.4.497-.4.145 0 .267.052.353.139v-.477h.15v1.121h-.15v-.122zm-.353.031c.154 0 .281-.073.353-.17v-.25a.436.436 0 00-.353-.165c-.19 0-.343.122-.343.29 0 .174.153.295.343.295z"/><path d="M32.752 19.196a.497.497 0 01-.5-.502c0-.277.217-.498.5-.498.283 0 .5.226.5.498a.494.494 0 01-.5.502zm0-.138c.208 0 .358-.16.358-.368a.35.35 0 00-.358-.36.35.35 0 00-.358.36c0 .208.15.368.358.368z"/><path d="M33.2 18.98v-.104h.302c.122 0 .171-.067.171-.14 0-.066-.038-.125-.167-.125h-.087c-.132 0-.227-.08-.227-.195s.095-.199.227-.199h.33v.105h-.323c-.077 0-.115.042-.115.094s.038.09.115.09h.087c.191 0 .275.105.275.23 0 .133-.087.244-.279.244h-.31zM34.692 19.196a.497.497 0 01-.5-.502c0-.277.217-.498.5-.498.283 0 .5.226.5.498a.497.497 0 01-.5.502zm0-.138c.208 0 .358-.16.358-.368a.35.35 0 00-.358-.36.35.35 0 00-.358.36c0 .208.15.368.358.368z"/><path d="M35.14 18.98v-.104h.302c.122 0 .171-.067.171-.14 0-.066-.038-.125-.167-.125h-.087c-.133 0-.227-.08-.227-.195s.094-.199.227-.199h.33v.105h-.323c-.077 0-.115.042-.115.094s.038.09.115.09h.087c.191 0 .275.105.275.23 0 .133-.087.244-.279.244h-.31zM36.683 18.98h-.506v-1.121h.473c.282 0 .4.118.4.26 0 .098-.05.175-.156.217.199.042.283.16.283.296 0 .184-.148.348-.494.348zm-.367-1.02v.348h.338c.19 0 .262-.09.262-.181 0-.087-.055-.17-.262-.17h-.338v.003zm0 .445v.467h.376c.245 0 .346-.115.346-.24 0-.119-.076-.227-.346-.227h-.376z"/><path d="M37.95 19.019a.446.446 0 01-.352.177.5.5 0 010-1c.145 0 .267.065.353.174v-.148h.15v.948h-.15v-.151zm-.352.039c.154 0 .28-.091.353-.212v-.312a.41.41 0 00-.353-.203.346.346 0 00-.344.359c0 .216.154.368.344.368z"/><path d="M38.159 18.45v.527h-.115v-.763h.115v.115a.357.357 0 01.271-.136c.195 0 .31.129.31.313v.47h-.115v-.46c0-.118-.062-.212-.205-.212a.324.324 0 00-.261.147zM39.294 19a.408.408 0 01-.418-.403c0-.223.181-.4.418-.4.174 0 .328.097.38.264h-.126a.276.276 0 00-.254-.153.286.286 0 00-.296.289.29.29 0 00.296.296c.119 0 .216-.063.254-.153h.126a.387.387 0 01-.38.26zM40.26 18.196c.284 0 .5.226.5.498a.497.497 0 01-.5.502.497.497 0 01-.5-.502c0-.277.218-.498.5-.498zm0 .135a.35.35 0 00-.357.359c0 .208.15.368.358.368s.358-.16.358-.368a.35.35 0 00-.358-.36z"/><path d="M40.708 18.98v-.104h.303c.122 0 .17-.067.17-.14 0-.066-.038-.125-.166-.125h-.084c-.132 0-.223-.08-.223-.195s.094-.199.223-.199h.33v.105h-.323c-.077 0-.115.042-.115.094s.038.09.115.09h.087c.192 0 .275.105.275.23 0 .133-.083.244-.278.244h-.314z"/></g><path fill="#F9C32F" fill-rule="nonzero" d="M28.247 10.524V8.769h-.446v-.362h1.33v.362h-.449v1.755z"/><path d="M29.731 9.629v.895h-.4V9.075h.404v.234a.563.563 0 01.47-.276v.446a.819.819 0 00-.474.15zM31.56 10.28a.563.563 0 01-.484.286c-.376 0-.672-.328-.672-.77 0-.435.296-.763.672-.763.202 0 .376.105.484.283v-.244h.393v1.449h-.393v-.24zm-.39-.076c.174 0 .32-.112.39-.24v-.328a.456.456 0 00-.39-.24c-.206 0-.373.167-.373.4 0 .24.167.408.373.408zM32.556 9.566v.958h-.404V9.075h.404v.247a.624.624 0 01.512-.285c.32 0 .516.216.516.55v.94h-.404V9.7c0-.171-.087-.3-.282-.3a.433.433 0 00-.342.167zM33.8 10.524v-.327h.613c.146 0 .206-.063.206-.154 0-.08-.053-.142-.202-.142h-.178c-.279 0-.456-.171-.456-.415 0-.237.202-.41.463-.41h.676v.323h-.627c-.084 0-.13.042-.13.101 0 .063.05.101.13.101h.195c.344 0 .505.202.505.45 0 .257-.174.473-.523.473H33.8zM35.194 11.088v-.313h.15c.076 0 .118-.039.118-.126V9.392h-.251v-.32h.25v-.244c0-.258.158-.425.485-.425h.184v.314h-.146c-.076 0-.122.038-.122.125v.23h.268v.32h-.268v1.271c0 .258-.156.422-.484.422l-.184.003zM37.096 10.566a.752.752 0 01-.767-.777.75.75 0 01.76-.756c.487 0 .748.404.748.819h-1.152c.028.233.188.376.41.376.157 0 .307-.08.366-.212h.359c-.08.337-.376.55-.724.55zm-.39-.94h.745c-.045-.168-.17-.269-.359-.269-.184.004-.334.105-.386.268zM38.44 9.629v.895h-.404V9.075h.404v.234a.563.563 0 01.47-.276v.446a.807.807 0 00-.47.15zM39.876 10.566a.752.752 0 01-.767-.777.75.75 0 01.76-.756c.487 0 .748.404.748.819h-1.152c.028.233.188.376.41.376.157 0 .307-.08.366-.212h.359c-.08.337-.38.55-.724.55zm-.021-1.93l-.14.171h-.323l.327-.418h.292l.324.418h-.334l-.146-.17zm-.37.99h.746c-.045-.168-.17-.269-.359-.269-.188.004-.334.105-.386.268zM41.22 9.566v.958h-.404V9.075h.404v.247a.624.624 0 01.512-.285c.32 0 .516.216.516.55v.94h-.404V9.7c0-.171-.087-.3-.282-.3a.433.433 0 00-.342.167zM43.24 10.566c-.466 0-.793-.335-.793-.77 0-.428.33-.763.794-.763.372 0 .672.223.742.582h-.377a.393.393 0 00-.362-.223.398.398 0 00-.414.404.4.4 0 00.414.411c.17 0 .3-.087.362-.216h.38c-.073.359-.376.575-.745.575zM46.04 10.28a.563.563 0 01-.484.286c-.376 0-.672-.328-.672-.77 0-.435.296-.763.672-.763.202 0 .376.105.484.283v-.244h.394v1.449h-.394v-.24zm-.39-.076c.174 0 .32-.112.39-.24v-.328a.456.456 0 00-.39-.24c-.205 0-.373.167-.373.4 0 .24.168.408.373.408z" fill="#FFF" fill-rule="nonzero"/><path fill="#F9C32F" fill-rule="nonzero" d="M29.271 13.38h-1.358v-2.118h1.327v.363h-.888v.477h.85v.324h-.85v.592h.919z"/><path fill="#FFF" fill-rule="nonzero" d="M29.553 13.38v-2.118h.404v2.118h-.404z"/><g fill="#FFF" fill-rule="nonzero"><path d="M37.553 13.38v-1h.5v1h-.5zM37.553 11.88v-.5h.5v.5h-.5z"/></g><g fill="#FFF" fill-rule="nonzero"><path d="M44.185 10.38v-1h.5v1h-.5zM44.185 8.88v-.5h.5v.5h-.5z"/></g><path d="M31.012 13.422a.752.752 0 01-.766-.777.75.75 0 01.76-.756c.487 0 .748.404.748.819h-1.153c.028.233.188.376.411.376.157 0 .307-.08.366-.213h.359c-.077.338-.376.55-.725.55zm-.39-.94h.746c-.046-.168-.171-.269-.36-.269a.394.394 0 00-.386.268zM32.552 12.248v1.132h-.404v-1.132h-.251v-.317h.25v-.407h.405v.407h.254v.317zM33.422 12.485v.895h-.404V11.93h.404v.233a.563.563 0 01.47-.275v.446a.807.807 0 00-.47.15zM34.808 13.422c-.466 0-.797-.335-.797-.77 0-.428.33-.763.797-.763s.798.335.798.763c0 .439-.33.77-.798.77zm-.007-1.93l-.139.17h-.324l.328-.417h.292l.324.418h-.334l-.147-.17zm.007 1.57a.403.403 0 00.418-.41.401.401 0 00-.418-.404.401.401 0 00-.417.404c0 .233.174.41.417.41zM36.292 12.422v.958h-.4V11.93h.404v.247a.624.624 0 01.512-.285c.32 0 .515.216.515.55v.94h-.404v-.829c0-.17-.087-.3-.282-.3a.446.446 0 00-.345.168zM39.127 13.422c-.467 0-.794-.335-.794-.77 0-.428.33-.763.794-.763.373 0 .672.223.742.582h-.376a.395.395 0 00-.366-.223.398.398 0 00-.414.404.4.4 0 00.414.41c.17 0 .3-.086.362-.212h.38c-.07.356-.373.572-.742.572zM41.227 13.136a.563.563 0 01-.484.286c-.376 0-.672-.328-.672-.77 0-.435.296-.763.672-.763.202 0 .376.105.484.282v-.243h.394v1.448h-.394v-.24zm-.39-.077c.174 0 .32-.111.39-.24v-.327a.456.456 0 00-.39-.24c-.205 0-.373.167-.373.4 0 .24.168.407.373.407z" fill="#FFF" fill-rule="nonzero"/><path d="M27.913 16.236v-2.118h.69c.717 0 1.135.432 1.135 1.052 0 .63-.422 1.062-1.132 1.062h-.693v.004zm.425-1.728v1.33h.26c.495 0 .7-.292.7-.665 0-.372-.205-.665-.703-.665h-.257z" fill="#F9C32F" fill-rule="nonzero"/><path d="M30.53 16.236v-.328h.613c.147 0 .206-.062.206-.153 0-.084-.052-.143-.202-.143h-.178c-.278 0-.456-.17-.456-.414 0-.237.202-.411.463-.411h.676v.324h-.627c-.084 0-.129.042-.129.1 0 .063.049.102.129.102h.195c.345 0 .505.202.505.449 0 .258-.174.474-.522.474h-.673zM32.304 15.992v.808h-.393v-2.013h.393v.247a.567.567 0 01.484-.289c.376 0 .676.327.676.766 0 .436-.3.766-.676.766a.58.58 0 01-.484-.285zm0-.637v.316a.441.441 0 00.39.244c.21 0 .376-.167.376-.4 0-.237-.167-.408-.376-.408a.448.448 0 00-.39.248zM34.447 16.277c-.47 0-.797-.334-.797-.77 0-.428.33-.762.797-.762s.798.334.798.763c0 .439-.331.77-.798.77zm0-.358a.403.403 0 00.418-.411.401.401 0 00-.418-.404.401.401 0 00-.418.404c0 .233.174.41.418.41zM35.834 15.278v.958h-.404v-1.45h.404v.245a.624.624 0 01.512-.286c.32 0 .516.216.516.55v.94h-.404v-.828c0-.17-.087-.3-.282-.3a.446.446 0 00-.342.17zM37.048 14.522l.434-.418h.566l-.53.418h-.47zm.02 1.714v-1.45h.586v1.45h-.586zM38.592 16.236l-.359-1.45h.408l.23 1.119h.111l.23-1.118h.407l-.358 1.449zM40.571 16.277a.752.752 0 01-.766-.776.75.75 0 01.76-.756c.487 0 .748.404.748.819H40.16c.028.233.188.376.411.376.157 0 .307-.08.366-.213h.359c-.077.338-.377.55-.725.55zm-.386-.94h.745c-.045-.167-.17-.268-.359-.268a.388.388 0 00-.386.268zM41.499 16.236v-2.118h.404v2.118z" fill="#FFF" fill-rule="nonzero"/><g fill="#FFF" fill-rule="nonzero"><path d="M29.923 16.236v-1h.5v1zM29.923 14.736v-.5h.5v.5z"/></g><g fill-rule="nonzero"><path fill="#001BA9" d="M13.926 9.674H9.054L7.797 8.407h6.13zM8.713 18.506h4.868l1.261 1.268h-6.13z"/><path fill="#001BA9" d="M13.923 7.741h.003v2.536h-.003l1.26-1.268zM7.797 8.406H9.06v11.368H7.797z"/><path fill="#F9C32F" d="M15.967 17.841h4.872l1.258 1.268h-6.13zM21.18 9.01h-4.868l-1.26-1.269h6.129z"/><path fill="#F9C32F" d="M15.97 19.774h-.003V17.24h.004l-1.258 1.267zM20.836 7.741H22.1V19.11h-1.264z"/></g><g fill="#FFF" fill-rule="nonzero"><path d="M11.377 15.515v-3.051h-.773v-.627h2.309v.627h-.773v3.05zM15.73 15.515h-2.358v-3.678h2.306v.627h-1.546v.829h1.476v.564h-1.476v1.03h1.598zM16.26 15.515v-3.678h1.201c1.247 0 1.971.752 1.971 1.828 0 1.094-.731 1.85-1.967 1.85H16.26zM17 12.516v2.316h.453c.857 0 1.216-.508 1.216-1.156 0-.648-.36-1.156-1.223-1.156l-.446-.004z"/></g><g fill="#FFF" fill-rule="nonzero"><path d="M33.666 28.258h-.15v-.77h.15zM34.05 28.258h-.245v-1.055h.244z"/><path d="M33.384 26.464s.247-.243.665-.163c0 0 .185.028.324.153 0 0 .021.02.038.003 0 0 .021-.017-.003-.041 0 0-.122-.168-.362-.244 0 0-.328-.119-.665.042 0 0-.21.087-.324.32 0 0-.164.052-.29.122 0 0-.034.014-.024.042 0 0 .01.02.045.003 0 0 .115-.038.227-.063 0 0-.087.23.003.516a.833.833 0 00.23.362s.018.021.039.007c0 0 .017-.014.006-.035 0 0-.09-.139-.128-.334a.796.796 0 01.094-.557s.425-.06.783.076c0 0 .613.199.46.571 0 0-.045.13-.212.244 0 0-.028.018-.014.042 0 0 .014.017.041.007 0 0 .258-.084.37-.293 0 0 .226-.348-.307-.63 0 0-.146-.08-.338-.122.007.007-.334-.076-.658-.028"/></g><path d="M8.49 27.941l.212-.143.213.143-.429.286v-.286h.004zm2.054-1.487l-.212.143-.212-.143.428-.286v.286h-.004zm0 1.087l-1.027.686-1.027-.686 1.222-.815.213.142-.986.659.599.4.279-.184-.213-.143.516-.342.424.283zm-2.054-.687l1.027-.686 1.027.686-1.218.815-.213-.142.986-.659-.6-.4-.278.184.212.143-.515.342-.428-.283z" fill="#0059A2"/></g></g></svg>