<?xml version="1.0" encoding="UTF-8"?><svg width="56" height="36" viewBox="0 0 56 36" xmlns="http://www.w3.org/2000/svg"><g fill="none" fill-rule="evenodd"><path d="M0 3.75A3.749 3.749 0 013.75 0h48.5A3.756 3.756 0 0156 3.75v28.5A3.749 3.749 0 0152.25 36H3.75A3.756 3.756 0 010 32.25V3.75z" fill="#000" fill-rule="nonzero"/><path d="M1.25 3.75v28.5c0 1.375 1.123 2.5 2.5 2.5h48.5c1.382 0 2.5-1.118 2.5-2.5V3.75c0-1.375-1.123-2.5-2.5-2.5H3.75a2.499 2.499 0 00-2.5 2.5z" fill="#FFF"/><g fill-rule="nonzero"><path d="M37.118 13.213a5.176 5.176 0 00-.85-.63c.296.195.58.405.85.63z" fill="#FFF"/><path d="M25.265 25.217a18.348 18.348 0 01-4.018-3.15 16.074 16.074 0 01-.615-.681l.037.072c2.71 4.727 7.758 8.422 7.758 8.422a35.255 35.255 0 003.437-3.024 13.324 13.324 0 01-6.599-1.639z" fill="#E1282B"/><path d="M35.604 18.61c-1.222 2.743-4.045 4.524-7.17 4.525-.225 0-.446 0-.661-.029a11.578 11.578 0 01-7.243-1.928c.233.315.472.612.717.892a18.348 18.348 0 004.018 3.15 12.85 12.85 0 006.56 1.396l.2.088a29.173 29.173 0 003.332-3.95l.059-.256c-.043.041.572-2.063.188-3.888zM22.01 9.86c-.611.98-.869 2.484-.975 3.517 1.055-3.043 4.038-5.098 7.399-5.098h.016l.103-.079a4.43 4.43 0 01.35-.214c.204-.12.417-.226.638-.315.31-.151.66-.315.961-.441-2.592-.553-5.308-.04-7.484 1.412A5.76 5.76 0 0022.01 9.86z" fill="#F3A41F"/><path d="M25.265 25.217a13.323 13.323 0 006.609 1.648l.162-.164-.202-.088a12.85 12.85 0 01-6.569-1.396zM20.632 21.395c.162.19.367.423.615.681-.245-.28-.484-.579-.717-.898l.102.217z" fill="#F3A41F"/><path d="M28.903 7.99c-.144.089-.282.187-.413.292 2.712.023 5.215 1.39 6.609 3.608.31.173.733.419 1.153.7.305.18.59.392.85.63.142.118.277.245.402.38-.898-3.085-3.447-5.484-6.694-6.3a5.68 5.68 0 00-1.286.365 10.89 10.89 0 00-.62.324zM27.766 23.11c-2.374-.196-4.523-1.417-5.835-3.314a7.14 7.14 0 01-.896-6.419c.106-1.033.364-2.52.975-3.516a5.75 5.75 0 01.992-1.232c-2.514 1.685-4.008 4.433-4.002 7.363 0 1.768.601 3.526 1.497 5.17l.033.022a11.578 11.578 0 007.236 1.925z" fill="#EA7025"/><path d="M37.858 15.992c0 1.708-.578 3.422-1.45 5.041 2.217-3.78 1.364-6.802 1.205-7.284l-.079-.098c.215.763.324 1.55.324 2.341z" fill="#E1282B"/><path d="M37.534 13.645a4.498 4.498 0 00-.416-.432 9.459 9.459 0 00-.85-.63 5.884 5.884 0 00-1.017-.476 7.134 7.134 0 01.43 6.327 11.485 11.485 0 01-.265 4.045c-.018.084-.037.17-.06.256.381-.554.732-1.126 1.051-1.714.873-1.614 1.45-3.328 1.45-5.042 0-.788-.108-1.573-.323-2.334z" fill="#E1282B"/><path d="M35.247 12.11c.355.127.696.286 1.018.476-.423-.28-.846-.526-1.153-.7l.135.224z" fill="#E1282B"/><path d="M28.434 8.018c-3.36 0-6.343 2.053-7.399 5.094a7.914 7.914 0 00-.393 2.464c-.005 3.87 3.083 7.107 7.124 7.467.219.02.44.06.661.06 3.126.01 5.953-1.767 7.177-4.508a7.119 7.119 0 00-.357-6.484l-.135-.224c-1.351-2.146-3.81-3.85-6.609-3.87" fill="#FFF"/><path d="M34.147 18.122c-.033-.028-.08-.047-.099-.082-.053-.091-.026-.158.07-.211a1.263 1.263 0 00.406-.432c.033-.056 0-.11-.02-.16-.04-.108-.083-.212-.126-.315-.043-.104-.082-.19-.122-.284-.04-.095-.099-.255-.149-.384a.232.232 0 010-.161.128.128 0 01.075-.086.138.138 0 01.117.004c.03.02.053.047.066.079.03.063.053.132.083.198l.149.369.092.233.023.047v-.025c.033-.082.07-.164.103-.249l.119-.315c.04-.104.062-.167.099-.249a.294.294 0 01.066-.088c.056-.054.175 0 .191.066a.39.39 0 00.037.06v.031l-.063.161-.172.429c-.053.129-.102.258-.155.387-.063.176-.14.347-.231.51-.06.089-.127.173-.199.253a.939.939 0 01-.086.069.566.566 0 01-.208.126.22.22 0 00-.05.032l-.016-.013zM28.203 16.168a.409.409 0 01.39-.195c.147.026.271.12.33.252l.096-.104a.476.476 0 01.452-.138.44.44 0 01.33.315.94.94 0 01.05.334v.674a.214.214 0 01-.046.139.14.14 0 01-.185.025c-.08-.044-.073-.11-.073-.177v-.63a.454.454 0 00-.056-.261.234.234 0 00-.181-.101.272.272 0 00-.278.205.669.669 0 00-.023.173v.662a.174.174 0 01-.116.163.135.135 0 01-.152-.063.264.264 0 01-.03-.113v-.668a.462.462 0 00-.042-.224.225.225 0 00-.215-.132.236.236 0 00-.232.135.505.505 0 00-.04.196v.687a.186.186 0 01-.088.173.148.148 0 01-.123.011.139.139 0 01-.086-.084.213.213 0 010-.075v-1.179a.181.181 0 01.136-.163.161.161 0 01.165.113l.017.05z" fill="#EC7F2B"/><path d="M33.582 16.852h-.403c-.053 0-.056 0-.046.05a.397.397 0 00.079.177c.107.125.29.164.443.095a.913.913 0 00.185-.126.14.14 0 01.182-.02c.039.039.054.094.04.146a.383.383 0 01-.186.208.834.834 0 01-.215.097.619.619 0 01-.664-.186.733.733 0 01-.178-.353.701.701 0 01-.02-.28 1.32 1.32 0 01.066-.262.667.667 0 01.33-.356.61.61 0 01.694.098.766.766 0 01.222.416c.01.057.016.115.016.173a.12.12 0 01-.036.092.132.132 0 01-.096.037l-.413-.006zm-.109-.258h.297c.02 0 .047 0 .04-.029a.34.34 0 00-.211-.274.322.322 0 00-.33.054.383.383 0 00-.12.202c0 .04 0 .047.04.047h.284zM31.345 16.72a.8.8 0 01-.106.428.589.589 0 01-.172.205.6.6 0 01-.532.142.543.543 0 01-.254-.117.846.846 0 01-.221-.264.89.89 0 01-.083-.347.825.825 0 01.152-.526.644.644 0 01.516-.284.596.596 0 01.24.048c.201.082.352.247.41.447a.652.652 0 01.05.268zm-1.054 0v.05a.45.45 0 00.149.315.342.342 0 00.452 0 .544.544 0 00.03-.7.336.336 0 00-.263-.123c-.103 0-.2.046-.262.124a.46.46 0 00-.106.343v-.01zM31.761 16.165l.04-.031v-.02a.547.547 0 01.268-.138.486.486 0 01.373.089.625.625 0 01.241.387c.012.092.018.185.017.277v.57c0 .052-.021.1-.06.136a.13.13 0 01-.171 0 .162.162 0 01-.083-.157v-.63a.456.456 0 00-.07-.262.259.259 0 00-.185-.117.304.304 0 00-.33.174.433.433 0 00-.043.198v.665a.197.197 0 01-.132.167.147.147 0 01-.162-.082.446.446 0 01-.02-.123v-1.106a.303.303 0 01.03-.123.134.134 0 01.086-.07.141.141 0 01.112.017.235.235 0 01.086.135l.003.044z" fill="#EC7F2B"/><path d="M22.288 15.507v.375c0 .031.02.028.043.028h.528c.006.088.006.177 0 .265a.233.233 0 01-.244.173h-.31v.507a.249.249 0 00.077.186c.05.05.12.077.193.076h.291v.385c0 .018 0 .037-.026.037-.16.008-.32 0-.48-.022a.698.698 0 01-.502-.36.58.58 0 01-.066-.264v-.51-.029h-.241v-.434h.205c.026 0 .036 0 .036-.035v-.369l.496-.01zM26.313 16.89a.29.29 0 00.211.258c.14.049.298.01.397-.097a.045.045 0 01.033 0l.426.104a.808.808 0 01-.212.24.898.898 0 01-1.126-.042.763.763 0 01-.228-.472.87.87 0 01.132-.63.805.805 0 01.756-.366.758.758 0 01.737.63 2.684 2.684 0 01.037.378l-1.163-.003zm0-.33h.63c.034 0 .047 0 .034-.042a.43.43 0 00-.043-.1.373.373 0 00-.512-.066.267.267 0 00-.11.207zM25.212 15.923h.502v.923a.793.793 0 01-.072.34c-.094.2-.29.34-.519.369a1.07 1.07 0 01-.46-.02.64.64 0 01-.478-.522 1.149 1.149 0 01-.017-.211v-.873c.102-.005.205-.005.307 0a.22.22 0 01.199.227v.73c0 .092.05.176.133.222a.279.279 0 00.268 0 .253.253 0 00.134-.221v-.908c.003-.012.003-.034.003-.056zM24.042 15.92v.44h-.24a.575.575 0 00-.113 0 .248.248 0 00-.208.253v.879c0 .038 0 .05-.053.05h-.45v-.047-.91c0-.37.314-.669.701-.669l.363.004z" fill="#E4342B"/><path d="M24.297 14.37a.382.382 0 01-.139.315.536.536 0 01-.387.11l-.099-.4h-.092v-.117h.182l.099.4a.344.344 0 00.122-.028.297.297 0 00.159-.164.302.302 0 00.023-.12.28.28 0 00-.08-.204.285.285 0 00-.211-.08.409.409 0 00-.29.124l-.103-.073a.565.565 0 01.396-.16.404.404 0 01.3.11c.08.076.123.18.12.286zM24.98 14.782v-.602a.211.211 0 00-.194-.097.273.273 0 00-.218.1.349.349 0 00-.083.221.303.303 0 00.046.192c.03.054.089.087.152.085.047 0 .091-.021.12-.056l.089.072a.263.263 0 01-.209.095.29.29 0 01-.24-.104.435.435 0 01-.083-.284.444.444 0 01.119-.315.385.385 0 01.294-.13.351.351 0 01.33.171v.63l-.122.022zM25.923 14.53a.23.23 0 01-.11.199.435.435 0 01-.25.069.396.396 0 01-.248-.073.263.263 0 01-.113-.223h.126a.165.165 0 00.076.145c.048.029.105.043.162.04.03.004.06.004.089 0a.238.238 0 00.073-.028.175.175 0 00.05-.047.104.104 0 00.019-.06c0-.067-.077-.108-.231-.123a.82.82 0 01-.238-.047.158.158 0 01-.11-.148.2.2 0 01.1-.17.393.393 0 01.235-.073.45.45 0 01.237.06.24.24 0 01.12.167h-.133c-.028-.077-.103-.116-.224-.116a.301.301 0 00-.076 0 .279.279 0 00-.067.025.154.154 0 00-.046.038.07.07 0 00-.016.044c0 .056.08.09.24.1.223.011.335.085.335.221zM26.626 14.72a.4.4 0 01-.247.078.413.413 0 01-.252-.079.236.236 0 01-.105-.195v-.539h.125v.539c0 .05.028.095.073.12.101.06.23.06.33 0a.134.134 0 00.07-.117v-.542h.115v.539a.234.234 0 01-.109.195zM27.535 14.467a.287.287 0 01-.102.23.457.457 0 01-.301.095.772.772 0 01-.278-.048v-.759h.126v.68l.076.016h.076a.341.341 0 00.198-.063.191.191 0 00.066-.15c0-.146-.11-.235-.33-.269l.277-.227.103.054-.152.132a.317.317 0 01.241.31zM27.971 14.782v-.491a.217.217 0 00-.053-.152.197.197 0 00-.152-.056.342.342 0 00-.191.056v-.126a.42.42 0 01.195-.04.34.34 0 01.244.085c.054.054.081.127.076.201v.523h-.119zM28.91 14.53a.23.23 0 01-.11.199.435.435 0 01-.25.069.396.396 0 01-.248-.073.263.263 0 01-.113-.223h.126a.165.165 0 00.076.145c.048.029.105.043.162.04.03.004.06.004.09 0a.238.238 0 00.072-.028.175.175 0 00.05-.047.104.104 0 00.02-.06c0-.067-.078-.108-.232-.123a.82.82 0 01-.238-.047.158.158 0 01-.11-.148.2.2 0 01.1-.17.393.393 0 01.235-.073.45.45 0 01.238.06.24.24 0 01.119.167h-.133c-.028-.077-.103-.116-.224-.116a.301.301 0 00-.076 0 .279.279 0 00-.066.025.154.154 0 00-.047.038.07.07 0 00-.016.044c0 .056.08.09.241.1.222.011.334.085.334.221zM29.911 14.782v-.52a.166.166 0 00-.056-.132.222.222 0 00-.149-.047.342.342 0 00-.175.05.144.144 0 00-.083.126v.523h-.125v-.797h.125v.082a.384.384 0 01.258-.095.41.41 0 01.132.02.335.335 0 01.103.056c.03.024.053.054.07.088a.267.267 0 01.029.11v.536h-.129zM30.85 14.53a.23.23 0 01-.11.199.435.435 0 01-.25.069.396.396 0 01-.249-.073.263.263 0 01-.112-.223h.126a.165.165 0 00.076.145c.048.029.104.043.162.04.03.004.06.004.089 0a.238.238 0 00.072-.028.175.175 0 00.05-.047.104.104 0 00.02-.06c0-.067-.077-.108-.231-.123a.82.82 0 01-.238-.047.158.158 0 01-.11-.148.2.2 0 01.1-.17.393.393 0 01.234-.073.45.45 0 01.238.06.24.24 0 01.12.167H30.7c-.029-.077-.104-.116-.225-.116a.301.301 0 00-.076 0 .279.279 0 00-.066.025.154.154 0 00-.046.038.07.07 0 00-.017.044c0 .056.08.09.241.1.225.011.337.085.337.221zM31.57 14.722a.34.34 0 01-.235.076.384.384 0 01-.258-.095v.082h-.125v-.8h.125v.523a.148.148 0 00.083.126c.052.032.113.05.175.05a.222.222 0 00.149-.047.166.166 0 00.056-.132v-.52h.126v.536a.25.25 0 01-.096.201zM32.373 14.782V14.7a.38.38 0 01-.258.095.34.34 0 01-.235-.076.25.25 0 01-.092-.201v-.536h.125v.52a.166.166 0 00.057.132c.041.033.094.05.148.047a.342.342 0 00.175-.05.148.148 0 00.083-.126v-.52h.126v.797h-.13zM33.176 14.782V14.7a.38.38 0 01-.258.095.34.34 0 01-.235-.076.25.25 0 01-.092-.201v-.536h.125v.52a.166.166 0 00.057.132c.041.033.094.05.148.047a.342.342 0 00.175-.05.148.148 0 00.083-.126v-.52h.126v.797h-.13z" fill="#4F4E4E"/></g></g></svg>