<svg width="56" height="36" xmlns="http://www.w3.org/2000/svg"><g fill="none" fill-rule="evenodd"><path d="M0 3.75075C0 1.67927 1.67597 0 3.75036 0h48.49928C54.32091 0 56 1.68807 56 3.75075v28.4985C56 34.32073 54.32403 36 52.24964 36H3.75036C1.67909 36 0 34.31193 0 32.24925V3.75075z" fill="#000" fill-rule="nonzero"/><path d="M1.25 3.75075v28.4985C1.25 33.6251 2.37296 34.75 3.75036 34.75h48.49928c1.38277 0 2.50036-1.11836 2.50036-2.50075V3.75075C54.75 2.3749 53.62704 1.25 52.24964 1.25H3.75036C2.36759 1.25 1.25 2.36836 1.25 3.75075z" fill="#FFF"/><g fill-rule="nonzero"><g fill="#000"><path d="M6.3027 27.8441v-3.46897a.13924.13924 0 01.13016-.14832h.12109a.1453.1453 0 01.15135.13924v3.47806a.14227.14227 0 01-.14227.14832h-.10595a.13924.13924 0 01-.15438-.1241v-.02422zM8.74551 25.15913c.67806 0 .87481.34509.87481 1.05038v1.6467c-.00639.07834-.07278.13809-.15135.13622H9.3812c-.07893.0091-.15101-.04563-.16346-.1241V26.2973c0-.53579-.01514-.74768-.47222-.74768-.53578 0-.94746.18465-.94746.73557v1.57405c-.00798.08084-.0795.14022-.16043.1332h-.0908a.1453.1453 0 01-.15439-.13622v-2.49125a.13924.13924 0 01.13925-.1453h.10594c.08254-.0052.15398.0568.16043.13925v.11805a1.25016 1.25016 0 01.94746-.31784zM10.06227 27.70184a.14227.14227 0 01-.01513-.20281c.11805-.12411.15437-.17557.2694-.08779a.98984.98984 0 00.69924.24822c.27244 0 .50552-.112.50552-.39654a.4359.4359 0 00-.24822-.3814l-.16951-.06963c-.16043-.06357-.23308-.09384-.22703-.08778-.40562-.16043-.52973-.22703-.67805-.43892a.66897.66897 0 01-.10898-.38443c0-.49946.39049-.73557.92627-.73557a1.14422 1.14422 0 01.75676.26032c.06091.04938.07039.13873.02119.19979l-.06054.0666c-.07265.0575-.13016.08778-.2119 0a.80519.80519 0 00-.5267-.16952c-.3027 0-.50854.09989-.50854.3814 0 .28152.21492.3027.6054.46314.49947.1907.83244.43892.83244.9081.0139.2945-.16325.56449-.43892.66898a1.06854 1.06854 0 01-.47524.09384 1.34097 1.34097 0 01-.94746-.336zM12.92584 26.99654c0 .52368.08778.6387.56908.69016.10897 0 .16043.05146.16043.15438v.05449c0 .10292-.04238.1453-.14832.1453-.71135 0-.97773-.3027-.97773-.98379v-1.4106h-.20281c-.10292 0-.13622-.05448-.13622-.14226v-.07265c0-.08779.0333-.1453.13622-.1453h.2028v-.5479a.13924.13924 0 01.13017-.1241h.12108a.1453.1453 0 01.13622.13622v.54789h.5388c.09385 0 .1332.05146.1332.1453v.0787c0 .08173-.03633.14227-.1332.14227h-.52972v1.33189zM13.92173 27.25384c-.05458-.39314.21387-.75824.6054-.82335a5.44865 5.44865 0 011.1079-.08779h.10292v-.16648a.75978.75978 0 00-.11503-.47222.69924.69924 0 00-.54184-.15438h-.05751a3.02703 3.02703 0 00-.71438.13319c-.10292.03632-.24519-.2361-.16346-.31784a1.91005 1.91005 0 01.94746-.20584 1.57708 1.57708 0 01.50249.07265.69319.69319 0 01.3027.20584c.1633.2101.24308.47319.224.7386v1.3228a.5267.5267 0 00.01816.13622.57816.57816 0 00.04238.1574.13319.13319 0 010 .11806.25427.25427 0 01-.22097.08779.13016.13016 0 01-.07568-.0212.25124.25124 0 01-.05751-.06961 2.25816 2.25816 0 01-.0787-.24217 1.02919 1.02919 0 01-.87482.39049c-.58119 0-.95351-.30876-.95351-.80216zm1.72843 0a.66595.66595 0 00.0999-.3027v-.21795h-.0999a5.06422 5.06422 0 00-.9081.05449c-.3572.06356-.4147.1695-.4147.4601 0 .2906.18767.45103.57815.45103a.86573.86573 0 00.74465-.44195v-.00302zM18.15049 25.15913c.67805 0 .8748.34509.8748 1.05038v1.6467c-.00639.07834-.07277.13809-.15134.13622h-.08779c-.08098.00887-.15397-.04924-.16346-.13016V26.2973c0-.53579-.01513-.74768-.47221-.74768-.53579 0-.94746.18465-.94746.73557v1.57405c-.00799.08084-.0795.14022-.16044.1332h-.0908a.1453.1453 0 01-.15438-.13622v-2.49125a.13924.13924 0 01.1453-.13924h.09988c.08254-.00521.15399.0568.16044.13924v.11806a1.25319 1.25319 0 01.94746-.3239zM20.12108 26.99654c0 .52368.08778.6387.5721.69016.10898 0 .16044.05146.16044.15438v.05449c0 .10292-.04238.1453-.15135.1453-.70832 0-.97773-.3027-.97773-.98379v-1.4106h-.19978c-.10292 0-.13925-.05448-.13925-.14226v-.07265c0-.08779.03633-.1453.13925-.1453h.19978v-.5479a.14227.14227 0 01.13924-.1241h.12411a.14227.14227 0 01.1332.13622v.54789h.54183c.09081 0 .13319.05146.13319.1453v.0787c0 .08173-.03633.14227-.1332.14227h-.54183v1.33189zM22.37622 27.99243a.14832.14832 0 01-.15438-.14227v-3.47503a.13924.13924 0 01.13016-.14832h1.02314a1.31676 1.31676 0 01.9081.25427.88995.88995 0 01.28454.70227 1.0413 1.0413 0 01-.37535.80822c.35277.18212.55813.5616.51762.95654 0 .7053-.36324 1.04432-1.14724 1.04432h-1.1866zm1.05946-2.16735a.63568.63568 0 00.72648-.53276v-.10291c0-.39655-.24216-.57514-.784-.57514h-.75373v1.21081h.81125zm.09383 1.78595c.35417 0 .62054-.0787.71438-.35114a1.0201 1.0201 0 00.0454-.3027c.05243-.3485-.18734-.67362-.53578-.72649a.6599.6599 0 00-.17254 0h-.95654v1.4106l.90508-.03027zM25.04 27.25384c-.05458-.39314.21387-.75824.6054-.82335a5.44865 5.44865 0 011.1079-.08779h.10292v-.16648a.75978.75978 0 00-.11503-.47222.69924.69924 0 00-.52973-.15438h-.05751a3.02703 3.02703 0 00-.71438.13319c-.10292.03632-.2452-.2361-.16346-.31784a1.8919 1.8919 0 01.94443-.20584 1.58616 1.58616 0 01.50551.07265.69319.69319 0 01.3027.20584c.1633.2101.2431.47319.224.7386v1.3228a.5267.5267 0 00.01817.13622.57816.57816 0 00.04238.1574.13319.13319 0 010 .11806.25427.25427 0 01-.22098.08779.13016.13016 0 01-.07567-.0212.25124.25124 0 01-.05751-.06961 2.25816 2.25816 0 01-.0787-.24217 1.02919 1.02919 0 01-.87482.39049c-.59632 0-.96562-.30876-.96562-.80216zm1.72843 0a.66595.66595 0 00.0999-.3027v-.21795h-.0999a5.06422 5.06422 0 00-.9081.05449c-.35417.06356-.41168.1695-.41168.4601 0 .2906.18767.45103.57816.45103a.85968.85968 0 00.74162-.44195v-.00302zM29.26876 25.15913c.67805 0 .8748.34509.8748 1.05038v1.6467c-.00639.07834-.07277.13809-.15134.13622h-.0787c-.07894.0091-.15102-.04563-.16347-.1241V26.2973c0-.53579 0-.74768-.47221-.74768-.53579 0-.94746.18465-.94746.73557v1.57405c-.00799.08084-.0795.14022-.16043.1332h-.09081a.1453.1453 0 01-.15438-.13622v-2.49125a.13924.13924 0 01.1453-.13924h.09989c.08254-.00521.15398.0568.16043.13924v.11806a1.2562 1.2562 0 01.93838-.3239zM31.69643 26.38205l1.09579 1.4106a.13622.13622 0 01.03632.08778.1241.1241 0 01-.13622.112h-.13318a.17254.17254 0 01-.15741-.08173l-.9747-1.27135-.35417.42378v.77795a.13924.13924 0 01-.12713.15135h-.1241a.13924.13924 0 01-.15439-.1241v-3.55676a.13924.13924 0 01.12714-.15135h.13016a.14227.14227 0 01.14832.14227v2.22183l1.11092-1.24108a.21492.21492 0 01.15136-.06356c.17556 0 .26335 0 .26335.10897a.15135.15135 0 01-.03633.08778l-.86573.96562zM35.88886 24.22678a.14244.14244 0 01.1015.03955.14227.14227 0 01.0438.09972v.09687a.16346.16346 0 01-.04238.10897.17557.17557 0 01-.10292.04238h-1.01708v3.22984c0 .09686-.07567.14832-.1786.14832h-.04842c-.10595 0-.18465-.05146-.18465-.14832v-3.22984h-1.00497c-.07259.00706-.13736-.04556-.1453-.11805a.06357.06357 0 010-.0333c0-.15438 0-.23614.1453-.23614h2.43372zM36.21578 25.36497v.1574a1.14724 1.14724 0 01.83546-.3027c.08779 0 .12714.04238.12714.13017v.1241c0 .09687-.05146.12411-.1332.12411a.83546.83546 0 00-.77491.32692.5146.5146 0 00-.05146.23308v1.7012a.12714.12714 0 01-.12108.13318h-.13016a.13016.13016 0 01-.14227-.11805v-2.5094a.12713.12713 0 01.10594-.1453h.15135c.06914-.00347.12834.049.1332.11805a.08173.08173 0 010 .02724zM37.35395 27.25384c-.05459-.39314.21387-.75824.6054-.82335a5.4093 5.4093 0 011.10487-.08779h.10292v-.16648a.76281.76281 0 00-.112-.47222.69924.69924 0 00-.52973-.15438h-.05752a3.02703 3.02703 0 00-.71438.13319c-.10292.03632-.24821-.2361-.16346-.31784a1.8919 1.8919 0 01.94444-.20584 1.58616 1.58616 0 01.50551.07265.72043.72043 0 01.3027.20584 1.05946 1.05946 0 01.22098.7386v1.3228c.0249.10125.05114.20216.0787.3027a.13319.13319 0 010 .11806.25427.25427 0 01-.22097.08779.1453.1453 0 01-.0787-.0212.39351.39351 0 01-.0545-.06961 2.25817 2.25817 0 01-.0787-.24217 1.02919 1.02919 0 01-.8748.3905c-.61147-.00909-.98076-.31785-.98076-.81125zm1.72843 0a.6387.6387 0 00.09686-.3027v-.21795h-.09686a5.06422 5.06422 0 00-.90811.05449c-.35416.06356-.41168.1695-.41168.4601 0 .2906.18768.45103.57817.45103a.85968.85968 0 00.74162-.44195v-.00302zM41.57968 25.15913c.68108 0 .8748.34509.8748 1.05038v1.6467c-.00485.07787-.07033.138-.14832.13622h-.08778c-.07893.0091-.15101-.04563-.16346-.1241V26.2973c0-.53579 0-.74768-.47524-.74768-.53276 0-.94444.18465-.94444.73557v1.57405c-.00798.08084-.0795.14022-.16043.1332h-.09384a.1453.1453 0 01-.15438-.13622v-2.49125a.13924.13924 0 01.1453-.13924h.10292c.08254-.00521.15398.0568.16043.13924v.11806a1.26227 1.26227 0 01.94444-.3239zM42.89946 27.70184a.14227.14227 0 01-.01514-.20281c.11806-.12411.15438-.17557.26941-.08779a.98984.98984 0 00.69924.24822c.27244 0 .50249-.112.50249-.39654a.42984.42984 0 00-.24519-.3814l-.16951-.06963c-.16044-.06357-.23308-.09384-.22703-.08778-.40562-.16043-.52973-.22703-.67805-.43892a.66897.66897 0 01-.10898-.38443c0-.49946.39049-.73557.92627-.73557a1.14422 1.14422 0 01.75676.26032c.05462.0554.05462.1444 0 .19979l-.06357.0666c-.06962.0575-.12713.08778-.20886 0a.80519.80519 0 00-.52065-.1665c-.3027 0-.50854.0999-.50854.38141 0 .28151.21492.3027.6054.46314.49946.1907.83244.43891.83244.9081.0144.29032-.15701.55779-.42681.66595a1.05643 1.05643 0 01-.47222.09384 1.34097 1.34097 0 01-.94746-.336zM45.04865 25.61622a.16346.16346 0 01-.03935-.112v-.07265a.13924.13924 0 01.13016-.14833h.16346v-.09383a1.59222 1.59222 0 01.05449-.47828 1.2986 1.2986 0 01.0787-.17556c.18465-.3027.41773-.3027.74162-.3027h.0454a.14227.14227 0 01.14833.13621v.09687c0 .08526-.06912.15437-.15438.15437h-.2361c-.19071 0-.24217.17254-.26336.3027a1.41967 1.41967 0 00-.01816.2785v.07264h.44195a.14227.14227 0 01.14832.13622v.08475a.14227.14227 0 01-.13016.15438h-.46011v2.19157c0 .07857-.0637.14227-.14227.14227h-.0999c-.07495.009-.14342-.04336-.15437-.11805v-2.2067h-.13924a.17254.17254 0 01-.11503-.04238zM46.56216 26.59395c0-.90811.34811-1.43482 1.25016-1.43482.78098 0 1.08065.56 1.08065 1.42876a.16649.16649 0 01-.1574.17557h-1.76173c.02119.6054.26335.88995.9081.88995a1.35308 1.35308 0 00.43892-.09082c.23611-.10291.3027-.2694.42076-.10291.05752.07567.08173.10594.08173.15437 0 .1786-.46616.3693-.672.39957a1.97968 1.97968 0 01-.2694.02724c-.94746 0-1.31979-.48432-1.31979-1.44691zm1.96152-.16952c-.04238-.67805-.21795-.9081-.72044-.9081-.55697 0-.784.2815-.8294.9081h1.54984zM49.792 25.36497v.1574a1.14119 1.14119 0 01.83243-.3027c.06265-.00902.12082.03427.13016.09687a.06357.06357 0 010 .0333v.1241c0 .09687-.05145.12411-.13318.12411a.83546.83546 0 00-.77795.34811.47827.47827 0 00-.05146.23308v1.7012a.13016.13016 0 01-.12714.13318h-.1241c-.07313.00532-.13735-.0482-.1453-.12108v-2.52757c-.00708-.06925.04284-.13131.112-.13924a.06357.06357 0 01.0333 0h.112a.12714.12714 0 01.13924.11503v.02421z"/></g><path d="M16.93362 11.34984H15.4413v-.9626c-.05472-1.82882-1.55306-3.28301-3.3827-3.28301-1.82965 0-3.328 1.45419-3.3827 3.28301v.96865H7.2108c-.4934 0-.98378.23914-.87481.81125l1.10184 4.94616c.07754.43408.46797.74122.9081.71438h7.47676c.4397.02545.82932-.28105.90811-.71438l1.11092-4.95222c.09081-.56303-.39957-.81124-.9081-.81124zm-2.68497 0H9.8988v-1.06249c-.02971-.79637.3782-1.5453 1.06336-1.95232.68515-.40702 1.53797-.40702 2.22312 0 .68516.40701 1.09307 1.15595 1.06336 1.95232v1.06249zm-2.53968 4.78875c-.17556 0-.23913-.0454-.23913-.17254v-2.3308c0-.0787-.03027-.09384-.10898-.09384h-.6841c-.12714 0-.12714-.06357-.12714-.12714v-.5721c0-.112.0787-.12714.20584-.12714h2.55784c.12713 0 .20584 0 .20584.12713v.57211c0 .06357 0 .12714-.12714.12714h-.6841c-.07871 0-.10898 0-.10898.09383v2.352c0 .12714-.06357.1574-.23914.1574l-.6508-.00605zM11.14595 19.432c.00122.5402-.32324 1.02789-.82197 1.23546-.49873.20757-1.0734.09411-1.4558-.28743-.38242-.38155-.49719-.95596-.29074-1.45515.20644-.4992.69339-.82478 1.23359-.82478a1.3319 1.3319 0 011.33492 1.3319zM15.68649 19.432c.00122.54047-.32357 1.02835-.82267 1.23575-.4991.2074-1.074.09338-1.45618-.2888-.38217-.38217-.49619-.95708-.2888-1.45617.2074-.4991.69528-.8239 1.23575-.82268a1.3319 1.3319 0 011.3319 1.3319z" fill="#3C3"/><path d="M28.2547 13.06616c.06357 0 .20887 0 .20887.14227v1.03222a.18465.18465 0 01-.20887.20584 2.72432 2.72432 0 00-.82335.09686c-.31575.07232-.53164.36403-.50854.68714v2.11892c0 .224 0 .47524-.31784.47524h-1.19265c-.33297 0-.4268-.18768-.4268-.41168v-3.29946c0-.55697.22097-1.03221 1.33189-1.03221l1.9373-.01514zM30.3373 17.84584c-.62054 0-1.28649-.3027-1.28649-1.41362V13.5414c0-.25427.09384-.47525.3481-.47525h1.23806a.39654.39654 0 01.42984.36325v2.30356c0 .20584.06357.44498.3481.44498.28455 0 .36628-.224.36628-.42984v-2.2067c0-.23914 0-.47525.3027-.47525h1.18962c.336 0 .42984.1907.42984.41168v2.92108c0 1.25622-.76281 1.42876-1.09578 1.42876l-2.27027.01816zM36.4973 17.95481a6.15697 6.15697 0 01-1.96757-.28454c-.09687-.04843-.17557-1.30162.09384-1.23805a4.19546 4.19546 0 001.25621.1574c.39654 0 .6054-.0454.6054-.2361 0-.12714-.20583-.20887-.47523-.336-.57211-.25428-1.4772-.58725-1.4772-1.6346s1.21082-1.49233 2.38228-1.49233c.93535 0 1.2108.09384 1.33189.14227.17557.06357 0 1.1745-.25427 1.1745-.1574-.01514-.69622-.10898-.98379-.10898-.28756 0-.42983.0454-.42983.20584 0 .0787.17556.17556.42983.3027.60541.27243 1.57103.73254 1.57103 1.79503.01514 1.38032-1.24108 1.55286-2.0826 1.55286zM42.02162 14.38292h-.5388v1.92216c0 .17557.1241.23914.33296.23914a.28151.28151 0 00.12714-.01817c.12713-.01513.2694 1.21081.17254 1.25622a3.42054 3.42054 0 01-1.09578.17254c-1.1745 0-1.49233-.74465-1.49233-1.28346v-2.3187h-.28454c-.224 0-.2694-.1453-.2694-.36627v-.57211c0-.25427.0787-.3481.33297-.3481h.33297v-.62055c0-.22097.22097-.33297.42984-.36627l1.01405-.17254c.35114-.04843.35114.06357.35114.31784v.84151h.55394c.224 0 .28757.20584.28757.42681v.50854c-.0121.25427-.0121.3814-.25427.3814zM44.59762 17.82768h-1.27135c-.3027 0-.3481-.03027-.3481-.3027V11.4921a.25427.25427 0 01.2694-.25427h1.27135c.37838 0 .41167.112.41167.3027V17.416c-.01513.2361-.01513.41168-.33297.41168zM48.20281 19.2413a.5146.5146 0 01-.4147.35113h-.99892c-.31784 0-.36627-.112-.2694-.3027l.66594-1.57103-1.7466-4.33773c-.0787-.20583 0-.31783.26941-.31783h1.45903a.5146.5146 0 01.39957.35113l.63567 1.81622.72951-1.81622a.5146.5146 0 01.41168-.35113h1.09578c.31784 0 .36627.112.27244.31783l-2.5094 5.86033zM21.18962 17.82768c-.3027 0-.44497-.06357-.44497-.28454V13.0813c0-.14227-.06357-.17557-.20584-.17557h-1.28649c-.25427 0-.25427-.112-.25427-.23914v-1.09578c0-.20584.1574-.2361.41168-.2361h4.8614c.25428 0 .41168.03026.41168.2361v1.09578c0 .12714 0 .23914-.25427.23914h-1.28649c-.14227 0-.20583.0333-.20583.17557v4.46184c0 .23913-.12714.28454-.44498.28454h-1.30162z" fill="#000"/></g></g></svg>