<?xml version="1.0" encoding="UTF-8"?><svg width="56" height="36" viewBox="0 0 56 36" xmlns="http://www.w3.org/2000/svg"><g fill="none" fill-rule="evenodd"><path d="M0 3.75A3.749 3.749 0 013.75 0h48.5A3.756 3.756 0 0156 3.75v28.5A3.749 3.749 0 0152.25 36H3.75A3.756 3.756 0 010 32.25V3.75z" fill="#000" fill-rule="nonzero"/><path d="M1.25 3.75v28.5c0 1.375 1.123 2.5 2.5 2.5h48.5c1.382 0 2.5-1.118 2.5-2.5V3.75c0-1.375-1.123-2.5-2.5-2.5H3.75a2.499 2.499 0 00-2.5 2.5z" fill="#FFF"/><g fill-rule="nonzero"><path d="M10.332 14.03v-2.016H4.007v2.015h2.035v7.067h2.264V14.03h2.026zm4.571 2.52l.195-2.15-.12-.033a2.596 2.596 0 00-.518-.045c-.325 0-.638.111-.954.325a2.189 2.189 0 00-.736.844h-.098l-.325-1.055h-1.56v6.606h2.102v-3.253c0-.428.107-.754.304-.991.206-.226.542-.338.997-.338.302 0 .54.036.713.09zm6.973 4.558v-6.615h-2.102v2.892c0 .743-.075 1.27-.226 1.575-.151.304-.412.45-.768.45-.261 0-.444-.113-.554-.326-.107-.226-.174-.552-.174-.991v-3.6h-2.09v4.298c0 .777.185 1.374.563 1.79.368.427.887.641 1.56.641.422 0 .79-.078 1.104-.235.313-.169.553-.395.736-.708h.12l.26.822h1.57v.007zm4.452-5.097c.314.09.606.202.878.338l.574-1.464a6.318 6.318 0 00-1.093-.416 4.113 4.113 0 00-1.136-.147c-.791 0-1.409.168-1.852.518-.433.337-.65.822-.65 1.428 0 .484.108.888.336 1.214.217.316.606.596 1.169.844.606.259.985.44 1.116.539.13.09.185.192.194.316 0 .226-.226.35-.681.35-.304 0-.65-.058-1.04-.158a5.93 5.93 0 01-1.073-.382v1.801c.347.136.681.235 1.017.292.336.057.725.079 1.169.079.835 0 1.461-.18 1.907-.54.444-.36.66-.9.66-1.599 0-.361-.043-.653-.14-.9a1.824 1.824 0 00-.467-.654c-.206-.18-.53-.37-.965-.563-.563-.235-.91-.404-1.03-.485-.118-.08-.185-.18-.185-.304 0-.18.174-.27.52-.27.198.016.46.06.772.163zm6.39.09v-1.259h-1.279V12.76l-1.765.856v1.34h-.93v1.136h.736v2.723c0 .777.15 1.362.466 1.732.185.226.432.383.748.473.226.067.487.09.78.09.336 0 .638-.033.898-.09.012 0 .032-.012.055-.012.13-.033.27-.066.412-.123.107-.045.226-.09.347-.148v-1.653c-.118.045-.237.09-.347.123-.25.067-.476.112-.661.112-.38 0-.574-.214-.574-.642v-2.576h1.114z" fill="#1377C4"/><path d="M35.176 17.34h1.29c1.006 0 1.786-.236 2.34-.709.541-.46.811-1.136.811-2.015 0-1.732-.997-2.6-2.977-2.6h-2.047V21.1h.585v-3.76h-.002zm3.218-4.245c.388.338.594.856.594 1.555 0 .753-.206 1.304-.629 1.641-.423.338-1.093.507-2.035.507h-1.148v-4.209h1.386c.823 0 1.431.169 1.832.506zm6.14 2.163c.237.325.356.81.356 1.452v.44l-1.18.044c-.953.022-1.69.214-2.188.576-.51.37-.768.876-.768 1.53 0 .608.173 1.081.51 1.418.336.338.811.507 1.417.507.444 0 .835-.09 1.169-.271.325-.18.65-.495.965-.922h.055l.142 1.069h.423V16.61c0-.81-.174-1.419-.499-1.801-.336-.383-.844-.575-1.528-.575-.672 0-1.342.168-2.026.518l.218.54c.617-.35 1.212-.53 1.786-.53.519 0 .91.158 1.148.496zm-3.163 4.06c0-.53.185-.921.553-1.17.369-.248.997-.395 1.864-.45l1.093-.045v.663c0 .732-.194 1.305-.574 1.723-.38.404-.91.618-1.57.618-.433 0-.77-.112-1.007-.35-.24-.233-.36-.56-.36-.988zm10.615-4.973h-.585l-1.31 3.748a81.307 81.307 0 00-.78 2.397h-.032c-.108-.404-.357-1.193-.76-2.364l-1.31-3.78h-.585l2.371 6.753c-.043.135-.15.427-.304.888-.011.034-.032.079-.043.112-.433.618-.943 1.036-1.517 1.26l.13.617c.792-.18 1.453-.81 1.96-1.88l2.765-7.75z" fill="#181818"/></g></g></svg>