<?xml version="1.0" encoding="UTF-8"?><svg width="56" height="36" viewBox="0 0 56 36" xmlns="http://www.w3.org/2000/svg"><g fill="none" fill-rule="evenodd"><path d="M0 3.75A3.749 3.749 0 013.75 0h48.5A3.756 3.756 0 0156 3.75v28.5A3.749 3.749 0 0152.25 36H3.75A3.756 3.756 0 010 32.25V3.75z" fill="#000" fill-rule="nonzero"/><path d="M1.25 3.75v28.5c0 1.375 1.123 2.5 2.5 2.5h48.5c1.382 0 2.5-1.118 2.5-2.5V3.75c0-1.375-1.123-2.5-2.5-2.5H3.75a2.499 2.499 0 00-2.5 2.5z" fill="#FFF"/><g fill-rule="nonzero"><path d="M14.048 15.748c.058 0 .104.012.15.012h1.562c.183 0 .368.033.54.126.322.16.435.421.368.75-.116.545-.241 1.08-.369 1.626-.219.978-.435 1.955-.655 2.933-.057.274-.127.557-.183.831-.07.284-.207.512-.472.66-.16.09-.332.114-.505.126H6.25c-.219 0-.435-.045-.62-.172a.947.947 0 01-.381-.557c-.08-.352-.162-.704-.241-1.069a543.769 543.769 0 01-.886-3.924c-.034-.147-.07-.295-.092-.442a1.003 1.003 0 010-.329.593.593 0 01.31-.41c.184-.102.391-.147.61-.147h1.553c.15 0 .15 0 .15-.148v-.921c-.034-1.705 1.16-3.183 2.829-3.581a3.582 3.582 0 011.254-.07 3.46 3.46 0 011.91.787 3.652 3.652 0 011.31 2.092c.057.25.079.5.079.75v.955c.012.02.012.064.012.122zm-3.715 0h2.333c.07 0 .08-.012.08-.079v-1.033c0-.16-.013-.32-.034-.479a2.32 2.32 0 00-.84-1.421 2.382 2.382 0 00-1.84-.534 2.335 2.335 0 00-.99.34c-.737.48-1.115 1.148-1.139 2.013-.012.34 0 .693 0 1.035 0 .148 0 .148.15.148.775.01 1.521.01 2.28.01zm-.01 1.478H8.898c-.162 0-.207.057-.207.205v.488c0 .205.033.229.23.229h.552c.173 0 .173 0 .173.171v2.343c0 .045 0 .09.012.148.013.114.046.147.174.147.286.012.575.012.874.012.034 0 .08 0 .115-.012.08-.012.128-.057.15-.136.012-.045.012-.09.012-.147v-2.388c0-.136 0-.136.15-.148h.632c.046 0 .092-.012.138-.012.045-.012.07-.033.08-.078.011-.034.011-.058.011-.09v-.534c0-.16-.046-.205-.207-.217h-.08c-.488.02-.936.02-1.384.02z" fill="#62CE02"/><path d="M34.216 19.75v1.683c0 .229-.045.455-.149.672-.195.443-.54.683-1.035.716h-2.519c-.15 0-.31-.011-.46-.045-.506-.114-.816-.443-.932-.933a2.528 2.528 0 01-.058-.5v-3.207c0-.09.012-.181.046-.262.058-.181.174-.262.369-.262H30.8c.079 0 .16.012.24.045a.397.397 0 01.265.398v2.41c0 .09 0 .18.024.261.034.172.15.274.323.274.195.012.344-.069.402-.238a.893.893 0 00.034-.25v-2.4c0-.09 0-.181.024-.262.024-.136.103-.205.24-.229.046-.011.092-.011.138-.011h1.23c.058 0 .128 0 .183.011a.368.368 0 01.323.34v.149c-.01.55-.01 1.095-.01 1.64zm-13.062-4.014h2.634c.08 0 .161 0 .24.024.128.023.184.09.184.228v1.217c0 .18-.046.238-.241.25-.253.012-.506 0-.77 0H22.5c-.183 0-.22.045-.22.216v4.731c0 .058 0 .115-.012.172-.012.102-.07.171-.173.205a.65.65 0 01-.219.033h-1.669c-.07 0-.127-.012-.195-.024a.211.211 0 01-.149-.16c-.012-.057-.012-.114-.012-.17V17.59c-.012-.078-.034-.114-.116-.126-.045-.012-.091-.012-.137-.012h-1.23c-.058 0-.116 0-.174-.012-.091-.011-.137-.069-.149-.159 0-.045-.012-.079-.012-.126v-1.09c0-.239.07-.308.31-.32h.15c.913-.01 1.787-.01 2.66-.01zm29.034 4.195c.115-.274.219-.545.332-.831.15-.364.286-.717.436-1.081a.853.853 0 01.24-.329.434.434 0 01.265-.09h1.185c.07 0 .15.012.22.033.103.034.136.09.115.193-.012.045-.024.09-.046.136-.908 2.114-1.818 4.228-2.726 6.345a.732.732 0 01-.195.295.463.463 0 01-.332.136h-1.035c-.058 0-.128-.012-.183-.012-.162-.024-.207-.102-.162-.25.012-.045.034-.078.046-.126.231-.524.448-1.057.679-1.581a.212.212 0 000-.171c-.621-1.524-1.254-3.048-1.873-4.584-.024-.045-.034-.09-.046-.135-.034-.136.024-.229.161-.262a.99.99 0 01.183-.024h1.517c.137 0 .253.045.357.147.08.079.137.181.173.284.207.602.426 1.193.643 1.797l.034.103c0 .007 0 .007.012.007zM37.32 22.945c-.737-.024-1.358-.078-1.955-.228-.07-.012-.128-.046-.195-.057-.07-.012-.092-.058-.104-.127a3.1 3.1 0 01-.058-.647c0-.126.025-.25.034-.376 0-.024.012-.058.024-.079.046-.16.08-.171.241-.136.494.126.99.16 1.495.148.092 0 .174-.024.265-.045a.3.3 0 00.137-.07c.092-.068.092-.18.012-.261a1.362 1.362 0 00-.195-.127l-.38-.171c-.207-.102-.426-.193-.633-.307a1.583 1.583 0 01-.564-.467c-.356-.455-.426-.966-.219-1.5.092-.25.287-.443.506-.59.298-.205.633-.329.99-.41.426-.09.85-.114 1.276-.102.322.012.643.024.953.078.07.012.15.046.22.058.079.023.115.069.115.135 0 .126.012.25 0 .376a1.67 1.67 0 01-.128.524c-.012.024-.024.046-.034.079-.079.171-.127.193-.31.171l-.862-.102c-.092-.012-.183 0-.265 0a.435.435 0 00-.161.033c-.07.024-.128.07-.138.148-.012.078.034.126.092.16.091.057.183.114.277.159.207.102.426.205.643.307.253.136.484.295.69.5.37.364.53.807.494 1.32a2.821 2.821 0 01-.07.442c-.103.376-.344.648-.69.83a2.293 2.293 0 01-.863.263 3.04 3.04 0 01-.64.071zm3.29-3.924h-.381a.207.207 0 01-.183-.147.345.345 0 01-.034-.16V17.895c.012-.171.104-.262.277-.274h.438v-.647c0-.16.07-.274.207-.34.08-.034.162-.07.241-.091.402-.07.816-.136 1.218-.193.058-.012.116 0 .162 0 .08.012.127.069.137.136.01.066.012.147.012.216v.91c.034 0 .058.012.091.012h.506c.15 0 .231.057.277.193.024.078.034.16.034.238v.75c-.012.171-.07.228-.241.238h-.518a.18.18 0 00-.08.012v2.035c0 .193.07.274.266.296.07.012.127.012.195 0 .07 0 .091 0 .115.069.034.102.07.205.08.319.045.274.08.533.08.819 0 .16 0 .16-.162.205a4.17 4.17 0 01-1.404.126c-.344-.045-.667-.16-.932-.41a1.334 1.334 0 01-.39-.83c-.024-.182-.024-.365-.024-.546v-2.057c.012-.002.012-.024.012-.06zm3.806.217V15.883a.248.248 0 01.24-.238h1.426c.092 0 .183 0 .265.024.137.033.195.09.207.229v6.516c0 .057 0 .115-.012.16-.012.136-.091.216-.231.238-.046.012-.092.012-.137.012H44.77c-.07 0-.137 0-.207-.012-.08-.012-.128-.057-.137-.136-.012-.045-.012-.09-.012-.136v-1.933c.002-.471.002-.926.002-1.369zm-19.848 1.229v-1.672c0-.126.012-.25.034-.376a.868.868 0 01.53-.66c.194-.078.39-.126.597-.135.24-.012.484-.024.724-.024h1.748c.162 0 .208.045.208.205v1.114c-.013.102-.07.16-.174.171-.08.012-.161 0-.24.012-.174.012-.345.024-.53.046-.15.012-.277.078-.402.147-.232.126-.333.32-.357.57v2.478c0 .069 0 .147-.024.217-.024.147-.116.228-.265.238h-1.38a.94.94 0 01-.183-.024c-.16-.034-.24-.148-.276-.295-.012-.07-.012-.136-.012-.205.002-.59.002-1.205.002-1.807z" fill="#000"/><path d="M11.38 24.536c-.012-.75.643-1.434 1.471-1.434.783.012 1.45.66 1.438 1.455a1.466 1.466 0 01-1.508 1.433c-.722-.021-1.413-.645-1.4-1.454zm-2.092.012c.012.785-.655 1.442-1.46 1.442-.804 0-1.459-.671-1.459-1.442 0-.796.68-1.443 1.46-1.434.792.003 1.47.638 1.459 1.434z" fill="#62CE02"/></g></g></svg>