<?xml version="1.0" encoding="UTF-8"?>
<svg width="56px" height="36px" viewBox="0 0 56 36" version="1.1" xmlns="http://www.w3.org/2000/svg" xmlns:xlink="http://www.w3.org/1999/xlink">
    <!-- Generator: Sketch 51.3 (57544) - http://www.bohemiancoding.com/sketch -->
    <title>cc/uatp</title>
    <desc>Created with Sketch.</desc>
    <defs>
        <path d="M15.1677222,2.09410526 C18.1672302,0.478947368 21.2466772,0.0310526316 23.7405185,0.0312631579 C26.8452381,0.0313684211 29.0416667,0.725473684 29.0416667,0.725473684 L29.0418836,0.896 C27.7114444,0.709157895 24.1294762,0.115263158 19.1154365,2.33305263 C14.9020899,4.19652632 9.66450265,8.96168421 0.0697433862,9.48368421 L0.0705026455,9.28315789 C3.09647619,8.69642105 5.52415344,7.74810526 7.58554233,6.69326316 C8.38026984,6.28684211 9.12043915,5.86431579 9.81971693,5.44063158" id="path-1"></path>
        <linearGradient x1="0.0711320098%" y1="50.0700465%" x2="100.04193%" y2="50.0700465%" id="linearGradient-3">
            <stop stop-color="#74B943" offset="0%"></stop>
            <stop stop-color="#009D49" offset="100%"></stop>
        </linearGradient>
    </defs>
    <g id="cc/uatp" stroke="none" stroke-width="1" fill="none" fill-rule="evenodd">
        <path d="M0,3.75075247 C0,1.67926908 1.67596877,0 3.75035585,0 L52.2496442,0 C54.3209085,0 56,1.68806916 56,3.75075247 L56,32.2492475 C56,34.3207309 54.3240312,36 52.2496442,36 L3.75035585,36 C1.67909151,36 0,34.3119308 0,32.2492475 L0,3.75075247 Z" id="Rectangle-2" fill="#000000" fill-rule="nonzero"></path>
        <path d="M1.25,3.75075247 L1.25,32.2492475 C1.25,33.6250965 2.37296468,34.75 3.75035585,34.75 L52.2496442,34.75 C53.6324061,34.75 54.75,33.6316447 54.75,32.2492475 L54.75,3.75075247 C54.75,2.37490355 53.6270353,1.25 52.2496442,1.25 L3.75035585,1.25 C2.36759386,1.25 1.25,2.36835527 1.25,3.75075247 Z" id="Path" fill="#FFFFFF"></path>
        <g id="UATP_CMYK_RegisteredMark" transform="translate(8.000000, 12.000000)">
            <path d="M17.9404286,9.79273684 L18.6557593,11.7533684 L21.5689286,11.7533684 L19.8406376,7.44073684 C19.0814868,7.78515789 18.282746,8.11442105 17.4363889,8.41715789 L17.9404286,9.79273684 Z" id="Fill-1" fill="#0D2217"></path>
            <g id="Group-4" transform="translate(9.219577, 0.000000)">
                <mask id="mask-2" fill="white">
                    <use xlink:href="#path-1"></use>
                </mask>
                <g id="Clip-3"></g>
                <path d="M9.81971693,5.44063158 C9.12043915,5.86431579 8.38026984,6.28684211 7.58554233,6.69326316 C5.52415344,7.74810526 3.09647619,8.69642105 0.0705026455,9.28315789 L0.0697433862,9.48368421 C9.66450265,8.96168421 14.9020899,4.19652632 19.1154365,2.33305263 C24.1294762,0.115263158 27.7114444,0.709157895 29.0418836,0.896 L29.0416667,0.725473684 C29.0416667,0.725473684 26.8452381,0.0313684211 23.7405185,0.0312631579 C21.2466772,0.0310526316 18.1672302,0.478947368 15.1677222,2.09410526 C13.5139471,2.98494737 11.8379365,4.21768421 9.81971693,5.44063158 Z" id="Fill-2" fill="url(#linearGradient-3)" mask="url(#mask-2)"></path>
            </g>
            <path d="M0.0296111111,1.44852632 L2.69320106,1.44852632 L2.69320106,7.48515789 C2.69320106,9.18557895 3.40712169,9.77547368 4.60566667,9.77547368 C5.33856878,9.77547368 5.80280159,9.70568421 6.28482275,9.63642105 L6.28482275,1.44852632 L8.94906349,1.44852632 L8.94906349,11.3889474 C8.03784392,11.666 5.96387302,11.9266316 4.60566667,11.9266316 C2.17386772,11.9266316 0.0296111111,10.9897895 0.0296111111,8.05831579 L0.0296111111,1.44852632" id="Fill-5" fill="#0D2217"></path>
            <path d="M35.677918,6.53126316 C35.8035212,6.54863158 36.1790291,6.56568421 36.4832751,6.56568421 C37.5736799,6.56568421 38.3059312,6.13252632 38.3059312,5.07410526 C38.3059312,3.98105263 37.448619,3.58210526 36.4832751,3.58210526 C36.2684048,3.58210526 35.8932222,3.60010526 35.677918,3.63421053 L35.677918,6.53126316 Z M35.677918,11.7532632 L33.0150873,11.7532632 L33.0150873,1.53484211 C33.9089524,1.39621053 35.3028439,1.27452632 36.4832751,1.27452632 C39.1112884,1.27452632 40.9877434,2.45452632 40.9877434,5.07410526 C40.9877434,7.76294737 38.8604074,8.76915789 36.6251481,8.76915789 C36.3043069,8.76915789 35.8932222,8.75221053 35.677918,8.73421053 L35.677918,11.7532632 Z" id="Fill-6" fill="#0D2217"></path>
            <path d="M19.0394021,5.44052632 C18.3400159,5.86431579 17.5997381,6.28684211 16.8052275,6.69326316 L15.8309894,4.03336842 L12.9174947,11.7533684 L10.1105132,11.7533684 L14.2401243,1.44852632 L17.4398598,1.44852632 L19.0394021,5.44052632" id="Fill-7" fill="#0D2217"></path>
            <polyline id="Fill-8" fill="#0D2217" points="27.5605688 11.7533684 24.9147672 11.7533684 24.9147672 3.72115789 21.7333624 3.72115789 21.7333624 1.44852632 30.7426243 1.44852632 30.7426243 3.72115789 27.5605688 3.72115789 27.5605688 11.7533684"></polyline>
            <path d="M40.0581931,0.692526316 C40.1622116,0.692526316 40.254082,0.685263158 40.254082,0.564842105 C40.254082,0.467263158 40.1635132,0.449894737 40.0784762,0.449894737 L39.9116561,0.449894737 L39.9116561,0.692526316 L40.0581931,0.692526316 Z M39.9116561,1.13347368 L39.7891984,1.13347368 L39.7891984,0.348631579 L40.0970238,0.348631579 C40.2886825,0.348631579 40.3826138,0.417157895 40.3826138,0.571368421 C40.3826138,0.711578947 40.2909603,0.773052632 40.173709,0.787368421 L40.4031138,1.13347368 L40.2661217,1.13347368 L40.0532037,0.793263158 L39.9116561,0.793263158 L39.9116561,1.13347368 Z M40.0603624,1.30768421 C40.3764312,1.30768421 40.626336,1.06663158 40.626336,0.739368421 C40.626336,0.417157895 40.3764312,0.174105263 40.0603624,0.174105263 C39.7395212,0.174105263 39.4888571,0.417157895 39.4888571,0.739368421 C39.4888571,1.06663158 39.7395212,1.30768421 40.0603624,1.30768421 Z M39.3482857,0.739368421 C39.3482857,0.348631579 39.6753095,0.0612631579 40.0603624,0.0612631579 C40.4421614,0.0612631579 40.768209,0.348631579 40.768209,0.739368421 C40.768209,1.13347368 40.4421614,1.42073684 40.0603624,1.42073684 C39.6753095,1.42073684 39.3482857,1.13347368 39.3482857,0.739368421 Z" id="Fill-9" fill="#0D2217"></path>
        </g>
    </g>
</svg>