<?xml version="1.0" encoding="UTF-8"?><svg width="56" height="36" viewBox="0 0 56 36" xmlns="http://www.w3.org/2000/svg"><defs><linearGradient x1="53.316%" y1="-1.044%" x2="46.694%" y2="97.582%" id="a"><stop stop-color="#A21B1F" offset="0%"/><stop stop-color="#6F1214" offset="100%"/></linearGradient><linearGradient x1="41.23%" y1="6.742%" x2="60.094%" y2="95.132%" id="b"><stop stop-color="#BB2024" offset="0%"/><stop stop-color="#841618" offset="100%"/></linearGradient></defs><g fill="none" fill-rule="evenodd"><path d="M0 3.75A3.749 3.749 0 013.75 0h48.5A3.756 3.756 0 0156 3.75v28.5A3.749 3.749 0 0152.25 36H3.75A3.756 3.756 0 010 32.25V3.75z" fill="#000" fill-rule="nonzero"/><path d="M1.25 3.75v28.5c0 1.375 1.123 2.5 2.5 2.5h48.5c1.382 0 2.5-1.118 2.5-2.5V3.75c0-1.375-1.123-2.5-2.5-2.5H3.75a2.499 2.499 0 00-2.5 2.5z" fill="#FFF"/><g fill-rule="nonzero"><path d="M15.842 8.495C16.45 3.8 13.41.005 9.054.005 4.7.005.69 3.801.092 8.495c-.597 4.683 2.434 8.489 6.788 8.489 4.351-.011 8.366-3.806 8.962-8.49z" fill="url(#a)" transform="translate(5 10)"/><path d="M15.597 8.232c.55-4.26-2.21-7.715-6.18-7.715-3.956 0-7.608 3.454-8.157 7.715-.55 4.26 2.21 7.715 6.18 7.715 3.956.003 7.608-3.451 8.157-7.715z" fill="url(#b)" transform="translate(5 10)"/><path d="M11.141 14.266h.692s.563 0 .42.601c-.128.601-1.134 5.227-1.134 5.227s-.362 1.386 1.16 1.51c1.522.125 2.107-.817 2.47-2.487.362-1.648 1.028-4.726 1.028-4.726s0-.125.128-.125h1.79s.55.035.421.58c-.117.557-1.135 5.227-1.135 5.227s-.373 2.647-2.48 3.205c-1.043.376-2.412.284-2.412.284s-3.195.01-3.451-2.444c0-1.113.187-1.695.187-1.695L9.9 14.47s.01-.192.153-.192c.14-.01 1.087-.01 1.087-.01z" fill="#FFF"/><path d="M24.168 14.437s.011-.17.14-.17h1.415s.714.056.55.806c-.165.75-.853 3.933-.853 3.933l2.341-2.25h2.576s.128.058 0 .171l-3.71 3.273 2.2 3.035s.08.16-.096.16h-2.177s-.036.034-.117-.093c-.095-.113-1.486-2.16-1.486-2.16l-.34 1.546s-.08.704-.644.704H22.34s-.14.056-.08-.228c.083-.306 1.909-8.727 1.909-8.727zm10.872 2.228c-1.112-.217-2.141-.068-2.141-.068s-1.64.114-2.2 1.183c-.303.558-.362.828-.362.828s-.058.217.059.217h1.906s.117.01.154-.192c.047-.193.304-.615.736-.647.432-.036.468-.036.468-.036s1.112-.056.948.715c-.165.772-.89.74-1.336.76-.446.022-2.4.022-3.3.854-.421.34-.527.955-.527.955s-.176 1.126.351 1.66c.527.533 1.065.646 1.603.646s1.698.079 2.328-.841l-.117.557s-.036.125.07.114c.105-.01 1.452 0 1.452 0s.527.022.725-.671c.198-.683.736-2.943.736-2.943s.175-1.102.175-1.695c-.008-.565-.63-1.19-1.728-1.396zm-1.617 5.33c-.808.547-1.815.16-1.79-.466.025-.625.55-.796 1.018-.874.468-.079 1.335-.057 1.58-.284 0 0-.07 1.09-.808 1.624zm3.64-.796h1.86s.095 0 .106.135c.011.136.036.547.538.74.505.191 1.146.056 1.394-.15.234-.205.373-.739-.14-.93-.504-.193-1.708-.477-1.708-.477s-1.076-.206-1.394-1.091c-.165-.558-.059-1.013-.059-1.013s.023-.568.667-1.126c.702-.59 1.976-.693 1.976-.693s1.522-.113 2.317.25c.794.362 1.16.998 1.123 1.794.011.079-.08.079-.08.079l-1.838-.011s-.095.021-.106-.16c-.011-.17-.106-.647-.89-.647-.782 0-.97.42-.958.647.011.227.153.476 1.463.728 1.31.25 1.885.704 2.013 1.365.128.67-.022 1.637-.446 2.046-.42.409-.853.693-2.188.874-1.428.057-1.966-.102-1.966-.102s-1.672-.263-1.756-2.16c-.01-.02.003-.098.073-.098zm8.684-6.852s.011-.078.106-.078h1.614s.55 0 .41.658l-.574 2.647s.677-1.08 2.492-.988c1.815.092 1.918 1.649 1.8 2.16-.116.523-.866 4.001-.866 4.001s-.198.626-.655.626h-1.662s-.106.021-.047-.217c.058-.249.794-3.635.794-3.635s.34-1.308-.772-1.297c-1.112.01-1.438 1.012-1.51 1.353-.07.341-.678 3.124-.678 3.124s-.198.672-.666.672c-.469.01-1.614 0-1.614 0s-.129.046-.081-.16c.025-.195 1.91-8.866 1.91-8.866zm5.16 1.045v-.75h.33c.08 0 .139.011.175.022.036.011.07.035.095.068a.227.227 0 01.036.114c0 .056-.011.102-.048.135a.258.258 0 01-.153.068c.036.021.059.046.081.067.022.022.047.068.095.125l.095.149h-.187l-.117-.16c-.037-.057-.07-.092-.081-.114-.011-.01-.036-.021-.048-.035-.01 0-.047-.01-.08-.01h-.037v.319l-.156.002zm.165-.433h.117c.07 0 .117 0 .14-.01.021-.011.035-.011.047-.036.01-.01.01-.035.01-.057a.089.089 0 00-.022-.056c-.01-.011-.036-.022-.058-.036h-.234v.195z" fill="#000"/><path d="M51.189 15.78a.773.773 0 01-.784-.761c0-.42.352-.76.784-.76.432 0 .783.34.783.76s-.351.76-.783.76zm0-1.343a.59.59 0 00-.597.58c0 .316.27.578.597.578a.59.59 0 00.596-.579c0-.317-.27-.58-.596-.58z" fill="#000"/></g></g></svg>