<svg width="56" height="36" xmlns="http://www.w3.org/2000/svg"><g fill="none" fill-rule="evenodd"><path d="M0 3.75A3.75 3.75 0 0 1 3.75 0h48.5A3.76 3.76 0 0 1 56 3.75v28.5A3.75 3.75 0 0 1 52.25 36H3.75A3.76 3.76 0 0 1 0 32.25V3.75z" fill="#000" fill-rule="nonzero"/><path d="M1.25 3.75v28.5a2.5 2.5 0 0 0 2.5 2.5h48.5a2.5 2.5 0 0 0 2.5-2.5V3.75a2.5 2.5 0 0 0-2.5-2.5H3.75a2.5 2.5 0 0 0-2.5 2.5z" fill="#FFF"/><g fill-rule="nonzero"><path d="M20.15 13.94v6.1c0 1.36-1.12 2.38-2.6 2.38s-2.6-1.02-2.6-2.37v-4.68c0-.79.6-1.43 1.35-1.43h.1v6.1c0 .72.61 1.17 1.2 1.17.57 0 1.19-.42 1.19-1.17v-4.75c0-.74.58-1.35 1.29-1.35h.07zm2.86 2.16c1.97 0 2.29 1.16 2.29 1.87v4.36h-.06a1.4 1.4 0 0 1-1.36-1.41v-2.93c0-.41-.16-.9-.93-.9-.36 0-.57.04-.8.13v5.11h-1.42v-5.78a6.2 6.2 0 0 1 2.28-.45zm3.62-2.16c.42 0 .76.33.76.74 0 .4-.34.73-.76.73-.43 0-.77-.33-.77-.73 0-.41.34-.74.77-.74zm.7 2.16v4.83c0 .76-.6 1.4-1.34 1.4h-.06V16.1h1.4zm4.02-2.29c.67 0 1.3.16 1.8.5v1.46a1.73 1.73 0 0 0-1.5-.73c-1.43 0-2.32 1.49-2.32 3.04 0 1.46.93 3.05 2.33 3.05.61 0 1.17-.2 1.5-.66v1.45c-.41.32-1.06.5-1.82.5-2.28 0-3.49-2.2-3.49-4.33 0-2.1 1.2-4.28 3.5-4.28zm4.31 2.29c.24 0 .53.02.8.06v1.2c-.49-.37-1.13-.25-1.42-.1v3.67c0 .76-.6 1.4-1.33 1.4h-.08v-5.76a4.1 4.1 0 0 1 2.03-.47zm5.7 3.18l-3.52.51c.12 1.02.6 1.55 1.5 1.55.98 0 1.47-.33 1.83-.6v1.23a4.1 4.1 0 0 1-1.97.45c-1.73 0-2.75-1.22-2.75-3.18 0-1.9.95-3.14 2.51-3.14 1.55 0 2.4 1.08 2.4 2.95v.23zm-1.22-.85c-.05-1.23-.77-1.37-1.17-1.37h-.05c-.8.03-1.16.62-1.16 1.72l2.38-.35zm6.3-4.5v8.32c-.34.08-1.45.17-1.91.17h-.1c-1.72-.02-2.66-1.07-2.66-2.95 0-1.9.98-3.13 2.5-3.13.3 0 .55.03.78.09v-1.08c0-.78.59-1.41 1.33-1.41h.06zm-1.38 3.37c-.15-.05-.31-.07-.49-.07-1.16 0-1.4 1.18-1.4 2.16 0 1.37.43 2.05 1.3 2.05.15 0 .48-.03.59-.06V17.3zm2.74-3.36c.42 0 .76.33.76.74 0 .4-.34.73-.76.73s-.77-.33-.77-.73c0-.41.35-.74.77-.74zm.7 2.16v4.83c0 .76-.6 1.4-1.33 1.4h-.07V16.1h1.4zm2.47-2.16v2.16h.91v1.19h-.9v3.3c0 .4.12.53.53.53.1 0 .26-.04.37-.08v1.23c-.06.03-.34.15-.7.15-1.04 0-1.62-.54-1.62-1.5v-3.63h-.6v-1.2h.6v-.75c0-.77.6-1.4 1.33-1.4h.08z" fill="#3F3B3C"/><path d="M13.35 18.05c0 2.73-2.1 4.94-4.68 4.94A4.81 4.81 0 0 1 4 18.05c0-2.73 2.1-4.94 4.67-4.94a4.81 4.81 0 0 1 4.68 4.94" fill="#E51E26"/><path d="M8.38 16.68s.54-.74.59-.83c.05-.1.07-.17-.07-.26-.15-.1-.64-.4-.74-.48-.1-.08-.08-.37.2-.43.3-.06 2.78-.28 3.75-.17.97.1.83.4.84.64 0 .23-.39.57-.92 1.07 0 0-.87.86-1.5 1.44-.64.6-2.67 2.4-3.07 2.73L5.44 22c-.1.08-.38.32-.53.15-.15-.16 0-.35.08-.46.07-.11 3.16-4.72 3.39-5.01" fill="#FFF"/><path d="M12.89 14.79c.04.1.07.3.06.36-.06.22-.39.57-.92 1.07 0 0-.87.86-1.5 1.44-.64.6-2.67 2.4-3.07 2.73L5.44 22c-.08.06-.42.11-.56.1.04.08.13.16.22.25.15.16.43-.07.53-.15.1-.08 1.63-1.28 2.02-1.61.4-.33 2.43-2.14 3.07-2.73.63-.58 1.5-1.44 1.5-1.44.53-.5.82-.77.87-1 .03-.1.06-.44-.2-.63" fill="#E51E26"/></g></g></svg>