<?xml version="1.0" encoding="UTF-8"?><svg width="56" height="36" viewBox="0 0 56 36" xmlns="http://www.w3.org/2000/svg"><g fill="none" fill-rule="evenodd"><path d="M0 3.75A3.749 3.749 0 013.75 0h48.5A3.756 3.756 0 0156 3.75v28.5A3.749 3.749 0 0152.25 36H3.75A3.756 3.756 0 010 32.25V3.75z" fill="#000" fill-rule="nonzero"/><path d="M1.25 3.75v28.5c0 1.375 1.123 2.5 2.5 2.5h48.5c1.382 0 2.5-1.118 2.5-2.5V3.75c0-1.375-1.123-2.5-2.5-2.5H3.75a2.499 2.499 0 00-2.5 2.5z" fill="#FFF"/><path d="M9.6 15.19c-.11 0-.231.013-.355.04l-.49 3.433c-.054.379-.11.69-.177.963-.067.272-.15.488-.26.664-.11.176-.246.299-.396.395a1.294 1.294 0 01-.6.122c-.246 0-.437-.04-.573-.122a.683.683 0 01-.3-.395 2.292 2.292 0 01-.083-.664c.013-.272.04-.584.096-.963l.49-3.433-.34-.04c-.11 0-.217-.014-.327-.014-.123 0-.23 0-.354.013-.11.014-.217.027-.34.04l-.517 3.732a5.382 5.382 0 00-.054 1.222c.014.366.11.691.273.95.15.258.381.461.681.61.3.15.694.23 1.2.23s.914-.082 1.24-.23c.341-.149.628-.352.858-.61.231-.272.41-.584.544-.95.124-.365.218-.787.274-1.222l.503-3.731-.34-.04c-.11-.014-.217-.014-.327-.014-.11 0-.217.013-.327.013zm7.78 1.899H16.1l-.41 2.931c-.04.203-.097.366-.177.475l-.083.083a.449.449 0 01-.3.096c-.11 0-.204-.027-.26-.096a.211.211 0 01-.054-.096.884.884 0 01-.053-.352c0-.054.013-.11.027-.163 0-.054.013-.11.026-.163l.15-1.003c.027-.216.04-.408.04-.584-.013-.339-.109-.61-.259-.814-.23-.299-.627-.448-1.158-.448-.163 0-.326.027-.477.067-.15.04-.286.11-.41.176-.122.067-.23.15-.34.245-.096.096-.19.19-.26.286v-.15c0-.067 0-.122-.013-.19 0-.066 0-.122-.027-.175a.298.298 0 00-.027-.136l-.246-.04c-.083-.014-.163-.014-.273-.014-.11 0-.204 0-.287.014l-.273.04-.667 4.761c.217.04.437.054.654.054.217 0 .436-.013.654-.054l.353-2.496c.04-.259.097-.462.177-.625.08-.162.164-.285.273-.379a.638.638 0 01.327-.176c.11-.026.218-.04.327-.04.26 0 .423.096.49.272.083.176.097.435.04.76l-.15 1.126c-.013.19 0 .38.028.558.04.23.123.434.246.597.123.176.287.312.49.408l.083.04c.19.067.41.11.681.11.26 0 .504-.04.723-.11l.083-.04c.23-.096.437-.23.614-.408.177-.176.313-.366.41-.597a2.83 2.83 0 00.163-.475l.425-3.275zm.343-1.723v-.312a1.32 1.32 0 00-.34-.04c-.11-.014-.231-.014-.34-.014-.097 0-.218 0-.328.013l-.34.04a3.814 3.814 0 00-.15.625c-.027.203-.04.408-.027.624.096.013.217.027.327.04.123 0 .23.013.34.013.11 0 .218 0 .34-.013.124 0 .231-.013.341-.04l.083-.326c.027-.109.04-.202.054-.298.01-.107.024-.217.04-.312zm4.47 1.683c-.124 0-.231-.014-.328-.014-.123 0-.23 0-.353.014-.124.013-.231.026-.34.04l-1.528 3.556-.56-3.556a1.287 1.287 0 00-.327-.04c-.123 0-.246-.014-.367-.014-.096 0-.204 0-.327.014-.123.013-.273.026-.423.053l1.13 4.749c.097.026.205.04.328.04.123.013.23.013.313.013.083 0 .19 0 .314-.013.136 0 .26-.014.38-.04l2.481-4.749c-.147-.027-.284-.053-.394-.053zm3.515.122a2.446 2.446 0 00-.994-.19c-.397 0-.737.068-1.037.19a2.527 2.527 0 00-.79.529c-.218.23-.397.488-.531.8-.137.312-.23.638-.287.99-.056.352-.04.678.014.976.053.299.15.558.313.787.164.23.367.408.64.529.274.12.6.189.995.189.394 0 .736-.067 1.05-.19.3-.122.573-.298.804-.528.217-.23.396-.488.53-.787a3.75 3.75 0 00.287-.976c.054-.352.04-.678-.013-.99-.04-.312-.15-.57-.314-.8a1.99 1.99 0 00-.667-.529zm-2.302 2.321c.067-.488.19-.854.38-1.112.177-.259.45-.38.791-.38.34 0 .587.123.694.38.11.258.137.624.067 1.112-.067.475-.19.84-.38 1.1-.19.258-.464.378-.804.378s-.573-.123-.68-.379c-.11-.259-.138-.624-.068-1.099zm8.258-2.403a3.594 3.594 0 00-.654-.054c-.204 0-.423.014-.654.054l-.53 3.745c-.164.04-.354.067-.587.067-.164 0-.314-.013-.423-.054a.705.705 0 01-.287-.202.792.792 0 01-.123-.38 2.707 2.707 0 01.027-.637l.354-2.524a3.594 3.594 0 00-.654-.053c-.217 0-.437.013-.654.053l-.367 2.564c-.067.515-.054.923.027 1.235.082.312.23.542.436.691.19.163.423.272.723.312.287.054.587.083.9.083.354 0 .695-.04 1.037-.11.327-.066.6-.135.804-.202l.625-4.588zm4.062.136a2.837 2.837 0 00-.34-.123c-.097-.027-.204-.053-.3-.082l-.328-.04c-.11 0-.246-.014-.38-.014-.38 0-.737.067-1.037.19a2.406 2.406 0 00-.804.541c-.217.23-.41.489-.544.8a3.75 3.75 0 00-.287.977c-.053.352-.04.691.014.99.054.312.163.57.313.8.164.217.397.395.668.515.27.12.613.19 1.02.19.231 0 .464-.014.681-.054.218-.026.464-.096.724-.19a2.12 2.12 0 000-.583 1.75 1.75 0 00-.123-.435c-.11.04-.204.067-.287.096-.083.027-.15.04-.246.053-.068.014-.15.014-.218.014h-.26c-.353 0-.626-.11-.803-.34-.177-.215-.23-.583-.164-1.085.068-.461.204-.813.437-1.059.23-.245.544-.365.927-.379.177 0 .327.014.464.04.136.014.286.054.463.123.11-.163.19-.325.26-.502.08-.144.123-.307.15-.443zm3.079-.243c-.19 0-.368.027-.518.067-.163.053-.3.109-.41.19-.11.066-.203.149-.286.215-.083.083-.15.136-.19.203l.353-2.537-.326-.04c-.11-.013-.204-.013-.314-.013-.11 0-.217 0-.327.013-.11 0-.217.014-.327.04l-.954 6.757.327.04h.64c.11-.013.231-.026.341-.04l.354-2.51c.04-.258.096-.461.177-.624.08-.163.177-.285.273-.379a.638.638 0 01.327-.176c.11-.027.217-.04.327-.04.246 0 .423.096.49.272.083.176.096.434.04.76l-.38 2.7.327.04h.653c.11-.014.218-.027.34-.04l.424-3.052c.083-.638.013-1.1-.217-1.398-.23-.299-.611-.448-1.144-.448zm5.792.65a1.544 1.544 0 00-.586-.474c-.247-.123-.531-.176-.874-.176-.38 0-.723.067-1.02.203a2.986 2.986 0 00-.805.528c-.23.23-.41.502-.544.814-.15.312-.246.637-.286.99a3.054 3.054 0 000 .99c.053.298.163.557.34.786.164.217.41.38.71.515.3.123.667.19 1.117.19.6 0 1.158-.096 1.677-.286.014-.19.014-.379-.013-.541a1.863 1.863 0 00-.123-.448 4.661 4.661 0 01-.654.176c-.23.04-.45.067-.654.067-.38 0-.68-.083-.9-.246-.204-.162-.3-.434-.273-.8h3.094c.014-.067.04-.163.068-.272.026-.11.04-.23.067-.352.04-.312.04-.611-.014-.896a1.605 1.605 0 00-.327-.767zm-2.344.598c.19-.162.437-.258.75-.258.273 0 .464.082.587.272.123.19.177.421.15.72h-1.881c.067-.315.204-.558.394-.734zm4.595-.61c0-.067 0-.137-.014-.19 0-.067 0-.123-.013-.19a.347.347 0 00-.027-.136c-.083-.013-.164-.04-.26-.053-.083-.013-.177-.013-.273-.013-.096 0-.19 0-.273.013-.083.013-.177.027-.273.04l-.668 4.775.327.04h.654c.11-.013.23-.026.34-.04l.327-2.265c.04-.325.124-.597.218-.787.096-.176.217-.325.34-.421.137-.096.26-.15.396-.176a1.81 1.81 0 01.354-.04h.164c.082 0 .15 0 .217.013.04-.11.067-.23.096-.352.027-.123.054-.23.067-.339.014-.082.027-.176.027-.259a.583.583 0 000-.216.544.544 0 00-.177-.027c-.083 0-.15-.013-.217-.013-.3 0-.544.083-.764.23-.217.15-.41.325-.573.515.005.01.005-.043.005-.11zm3.488-2.268l.027-.298H49.22l-.027.298h.396l-.15 1.289h.354l.15-1.289h.394zm1.281.19l-.136 1.099h.34l.177-1.6h-.464l-.463 1.18h-.014l-.217-1.165h-.45l-.177 1.6h.34l.083-1.085h.014l.217 1.085h.287l.463-1.114z" fill-rule="nonzero" fill="#44E4A4"/></g></svg>