<?xml version="1.0" encoding="UTF-8"?><svg width="56" height="36" viewBox="0 0 56 36" xmlns="http://www.w3.org/2000/svg"><g fill="none" fill-rule="evenodd"><path d="M0 3.75A3.749 3.749 0 013.75 0h48.5A3.756 3.756 0 0156 3.75v28.5A3.749 3.749 0 0152.25 36H3.75A3.756 3.756 0 010 32.25V3.75z" fill="#000" fill-rule="nonzero"/><path d="M1.25 3.75v28.5c0 1.375 1.123 2.5 2.5 2.5h48.5c1.382 0 2.5-1.118 2.5-2.5V3.75c0-1.375-1.123-2.5-2.5-2.5H3.75a2.499 2.499 0 00-2.5 2.5z" fill="#FFF"/><g fill-rule="nonzero"><path d="M29.783 22.673c-.512 0-.702-.381-.702-.795v-5.955c0-.33 0-.33-.332-.33h-.831c-.208 0-.291.082-.25.248v5.996c.042.33-.166.62-.457.785a.716.716 0 01-.955-.372c-.042-.041-.042-.124-.042-.206v-.414-5.748c0-.29 0-.29-.29-.29h-.832c-.249 0-.29 0-.29.29v6.079c0 .29-.167.537-.416.661a.624.624 0 01-.748-.04c-.124-.125-.207-.29-.29-.456-.042-.124-.042-.29-.042-.413v-5.748c0-.331 0-.331-.332-.331h-1.662a.677.677 0 01-.748-.662c0-.455.332-.785.748-.744h1.662c.373 0 .373 0 .373-.331v-5.79c0-.206.042-.454.167-.661a.655.655 0 01.79-.248c.29.083.456.372.456.662V13.856c0 .33 0 .33.332.33h.748c.333 0 .333 0 .333-.33V8.108v-.373c.041-.413.415-.661.79-.62.331.042.622.29.622.62v6.121c0 .33 0 .33.333.33h.747c.333 0 .333 0 .333-.33V7.984c0-.124.041-.29.083-.414.083-.29.415-.496.748-.455.332 0 .623.207.665.538 0 .124.041.207 0 .33v5.79c0 .372 0 .372.373.372h.707c.332 0 .332 0 .332-.33v-5.79c0-.124 0-.248.042-.372a.76.76 0 01.748-.58c.332.042.623.29.664.621v6.121c0 .33 0 .33.333.33h1.578c.416-.041.79.207.831.62.042.414-.207.786-.623.828H33.61c-.291 0-.333 0-.333.33v5.914a.725.725 0 01-.457.785c-.374.166-.79-.04-.955-.413-.042-.083-.042-.165-.042-.248v-.331-5.707c0-.33 0-.33-.332-.33h-.79c-.249 0-.29.082-.29.289v3.019a364.173 364.173 0 00-.053 2.977c0 .29 0 .795-.575.795z" fill="#E22E2B"/><path d="M34.69 28.99c.665 0 .955-.247.955-.785 0-.496-.29-.786-.872-.786h-1.33v1.613h1.247v-.041zm-.042-2.48c.499 0 .79-.248.79-.703 0-.455-.291-.745-.665-.745h-1.247v1.448h1.122zm1.745.537c.374.248.582.703.582 1.2 0 .537-.208.95-.582 1.24-.374.29-.79.414-1.495.414h-2.452c-.124 0-.207-.083-.207-.207V24.4c0-.124.083-.207.207-.207h2.368c.707 0 .998.083 1.33.33.332.249.54.704.54 1.117 0 .58-.208.993-.665 1.2.125.04.208.082.374.206zm-13.918 2.854c-.748 0-1.246-.125-1.662-.455-.54-.414-.665-.827-.665-1.778v-3.35c0-.124.083-.207.208-.207h.873c.124 0 .207.083.207.207v3.308c0 .62.083.786.291.951.208.166.416.248.748.248s.54-.082.748-.248c.25-.206.29-.372.29-.95v-3.31c0-.123.084-.206.208-.206h.873c.125 0 .208.083.208.207v3.35c0 .95-.167 1.364-.665 1.778-.374.33-.914.455-1.662.455zm6.066-5.873c1.62 0 2.659 1.158 2.659 2.937 0 1.778-1.039 2.936-2.66 2.936-1.62 0-2.658-1.158-2.658-2.936 0-1.779.997-2.937 2.659-2.937zm0 4.839c.872 0 1.412-.662 1.412-1.902 0-1.241-.54-1.903-1.412-1.903-.831 0-1.413.703-1.413 1.903 0 1.24.499 1.902 1.413 1.902z" fill="#223D79"/></g></g></svg>