<?xml version="1.0" encoding="UTF-8"?><svg width="56" height="36" viewBox="0 0 56 36" xmlns="http://www.w3.org/2000/svg"><g fill="none" fill-rule="evenodd"><path d="M0 3.75A3.75 3.75 0 013.75 0h48.5A3.76 3.76 0 0156 3.75v28.5A3.75 3.75 0 0152.25 36H3.75A3.76 3.76 0 010 32.25V3.75z" fill="#000" fill-rule="nonzero"/><path d="M1.25 3.75v28.5a2.5 2.5 0 002.5 2.5h48.5a2.5 2.5 0 002.5-2.5V3.75a2.5 2.5 0 00-2.5-2.5H3.75a2.5 2.5 0 00-2.5 2.5z" fill="#FFF"/><g fill-rule="nonzero"><path d="M5.37 24.1h.35l-.33 1.35c-.04.2-.03.35.03.45.07.1.19.15.37.15s.33-.05.44-.15c.12-.1.2-.25.25-.45l.32-1.35h.36l-.34 1.38c-.07.3-.2.53-.38.68-.18.15-.43.22-.73.22s-.5-.07-.6-.22c-.12-.15-.14-.37-.07-.67l.33-1.4zM7.1 26.32l.56-2.31 1.05 1.36.08.12.09.15.37-1.54h.32l-.55 2.3-1.07-1.38-.08-.12a.6.6 0 01-.07-.13l-.37 1.55h-.32zM9.55 26.32l.53-2.22h.35l-.53 2.22zM10.4 26.32l.53-2.22h1.21l-.07.3h-.86l-.13.56h.86l-.08.31H11l-.25 1.05h-.35zM12 26.32l.53-2.22h.36l-.53 2.22zM12.86 26.32l.53-2.22h1.2l-.07.3h-.85l-.13.56h.85l-.07.32h-.86l-.17.72h.85l-.07.32zM14.48 26.32L15 24.1h.47c.3 0 .52.01.64.05.12.03.22.08.3.16.1.1.16.22.19.37.02.16.01.33-.03.53-.05.2-.12.37-.22.52a1.28 1.28 0 01-.74.54c-.13.03-.32.05-.58.05H14.48zm.43-.33h.3c.15 0 .28-.01.37-.03a.72.72 0 00.24-.11.9.9 0 00.24-.27c.07-.1.12-.23.15-.38a.98.98 0 00.03-.37.5.5 0 00-.12-.27.37.37 0 00-.2-.1 1.65 1.65 0 00-.39-.04h-.25l-.37 1.57zM18.2 25.32l-.24 1h-.33l.53-2.22h.54c.16 0 .27 0 .34.03.07.01.13.04.17.08.06.05.1.13.11.21.02.1.01.19 0 .3-.04.1-.08.2-.14.28a.76.76 0 01-.2.21.74.74 0 01-.22.1l-.35.02H18.2zm.1-.3h.08a.9.9 0 00.41-.06c.08-.04.13-.12.16-.23.02-.12 0-.2-.05-.25-.06-.05-.18-.07-.36-.07h-.09l-.16.62zM20.5 26.32l-.1-.57h-.86l-.39.57h-.37l1.6-2.31.5 2.31h-.37zm-.75-.88h.6l-.1-.5a.68.68 0 01-.01-.11v-.14l-.08.14-.07.11-.34.5zM21.39 26.32l.24-1.01-.44-1.2h.37l.27.75.03.08.02.1.07-.1.07-.1.64-.74h.35l-1.03 1.2-.24 1.02h-.35zM24.75 25.22l.01-.14.02-.16a3.6 3.6 0 01-.17.31l-.85 1.19-.28-1.21a1.63 1.63 0 01-.03-.28l-.05.15-.07.16-.5 1.09h-.32L23.58 24l.3 1.4.02.11.03.2c.03-.07.08-.15.15-.25l.04-.06.96-1.4-.03 2.32h-.33l.03-1.1zM25.33 26.32l.53-2.22h1.21l-.07.3h-.86l-.13.56h.86l-.08.32h-.86l-.17.72h.86l-.08.32zM26.94 26.32l.56-2.31 1.05 1.36.08.12.09.15.37-1.54h.32l-.55 2.3-1.07-1.38-.08-.12a.6.6 0 01-.07-.13l-.37 1.55h-.33zM30.54 24.4l-.46 1.92h-.35l.46-1.92h-.58l.07-.3h1.5l-.07.3zM30.9 25.88l.32-.14c0 .1.04.18.1.23.06.05.14.08.25.08a.42.42 0 00.42-.33c.03-.13-.04-.25-.23-.35l-.06-.03a1.06 1.06 0 01-.4-.33.47.47 0 01-.03-.35.77.77 0 01.28-.44.83.83 0 01.52-.17.7.7 0 01.38.1c.1.05.14.15.16.26l-.31.15a.33.33 0 00-.1-.16.27.27 0 00-.17-.05.4.4 0 00-.24.08.35.35 0 00-.14.2c-.03.14.06.26.28.38l.04.02c.19.1.31.2.37.3.05.1.06.21.03.36a.88.88 0 01-.88.7.62.62 0 01-.43-.14c-.1-.09-.16-.21-.15-.37zM33.5 26.32l.54-2.22h.35l-.53 2.22zM34.37 26.32l.55-2.31 1.05 1.36c.03.04.06.07.08.12l.1.15.36-1.54h.33l-.56 2.3-1.07-1.38-.08-.12a.6.6 0 01-.07-.13l-.37 1.55h-.32zM37.96 24.4l-.46 1.92h-.35l.46-1.92h-.57l.07-.3h1.5l-.07.3zM38.34 26.32l.53-2.22h1.22l-.07.3h-.86l-.13.56h.85l-.07.32h-.86l-.17.72h.86l-.08.32zM40.52 25.32l-.23 1h-.33l.53-2.23h.49c.14 0 .25.01.32.03.08.02.14.05.18.1.06.05.1.12.1.2a.7.7 0 010 .29.81.81 0 01-.23.41.75.75 0 01-.41.19l.5 1h-.4l-.48-.99h-.04zm.1-.28h.06c.19 0 .31-.02.38-.06.08-.05.13-.13.15-.24.03-.12.02-.21-.03-.26-.06-.05-.18-.08-.35-.08h-.07l-.15.64zM41.66 26.32l.53-2.22h1.2l-.07.3h-.85l-.14.56h.86l-.08.31h-.85L42 26.32h-.35zM44.57 26.32l-.11-.57h-.86l-.39.57h-.37l1.6-2.31.5 2.31h-.37zm-.77-.88h.6l-.1-.5a.68.68 0 010-.11l-.01-.14-.07.14-.07.11-.35.5zM47.24 24.64a.81.81 0 00-.6-.26.97.97 0 00-.65.23c-.18.16-.3.36-.37.6-.05.25-.03.44.08.6.1.16.27.24.5.24.12 0 .25-.03.37-.08.13-.04.26-.11.39-.2l-.1.4c-.1.08-.23.13-.35.16a1.4 1.4 0 01-.37.05 1.1 1.1 0 01-.44-.08.79.79 0 01-.47-.62c-.03-.15-.02-.3.02-.47a1.53 1.53 0 011.43-1.17c.13 0 .25.02.36.06.1.04.2.1.29.17l-.1.37zM47.27 26.32l.53-2.22H49l-.06.3h-.86l-.13.56h.85l-.07.32h-.86l-.17.72h.86l-.08.32z" fill="#3D3D3C"/><path fill="#70706E" d="M40.84 22.16h-2.42L41.8 10h2.42zM39.59 10.38c-.17-.23-.43-.35-.78-.35H25.49l-.65 2.39h12.11l-.7 2.54H24.12l-2.01 7.26h2.42l1.35-4.87h10.9c.33 0 .65-.12.95-.35.3-.23.5-.52.6-.86l1.34-4.87c.1-.36.07-.66-.1-.89zM20.7 21.4c-.13.48-.57.82-1.06.82H7.14c-.34 0-.6-.12-.76-.35-.16-.23-.2-.52-.1-.86l3.04-10.98h2.43l-2.72 9.8h9.69l2.72-9.8h2.42L20.71 21.4z"/><path fill="#098041" d="M48.4 10.02l3.06 6.1-6.44 6.09z"/><path fill="#E97626" d="M46.24 10.02l3.07 6.1-6.45 6.09z"/></g></g></svg>