<?xml version="1.0" encoding="UTF-8"?><svg width="56" height="36" viewBox="0 0 56 36" xmlns="http://www.w3.org/2000/svg"><g fill="none" fill-rule="evenodd"><path d="M0 3.75A3.749 3.749 0 013.75 0h48.5A3.756 3.756 0 0156 3.75v28.5A3.749 3.749 0 0152.25 36H3.75A3.756 3.756 0 010 32.25V3.75z" fill="#000" fill-rule="nonzero"/><path d="M1.25 3.75v28.5c0 1.375 1.123 2.5 2.5 2.5h48.5c1.382 0 2.5-1.118 2.5-2.5V3.75c0-1.375-1.123-2.5-2.5-2.5H3.75a2.499 2.499 0 00-2.5 2.5z" fill="#FFF"/><g fill-rule="nonzero"><path d="M15.081 22.274l.205-.465a3.075 3.075 0 00-1.178-.248c-.435 0-.767.09-1.019.272a.814.814 0 00-.378.714c0 .17.035.318.103.43.067.126.183.227.332.329.149.09.4.203.743.329.368.136.606.259.733.363a.468.468 0 01.194.374c0 .193-.08.34-.24.43-.16.092-.39.137-.687.137-.194 0-.389-.021-.594-.067a3.437 3.437 0 01-.584-.214v.522c.275.157.665.238 1.157.238.47 0 .835-.091 1.1-.284.262-.181.389-.451.389-.79a.831.831 0 00-.24-.613c-.16-.158-.458-.329-.893-.487a8.41 8.41 0 01-.651-.272.972.972 0 01-.251-.203.364.364 0 01-.081-.249c0-.147.067-.26.205-.35.138-.09.343-.126.605-.126.322-.008.665.073 1.03.23zm3.481 1.313v-.35c0-.498-.138-.896-.41-1.211-.276-.305-.641-.465-1.111-.465-.503 0-.892.181-1.19.531-.297.35-.446.826-.446 1.428 0 .588.16 1.053.481 1.382.322.329.757.497 1.306.497.251 0 .47-.021.64-.056a3.59 3.59 0 00.573-.182v-.497c-.389.17-.789.26-1.202.26-.379 0-.676-.113-.892-.34-.206-.228-.322-.556-.333-.997h2.584zm-1.535-1.55c.297 0 .527.09.687.283.159.181.24.451.24.815h-1.957c.035-.34.138-.612.322-.805.17-.192.41-.294.708-.294zM9.13 20.405h-.584v3.17c0 .567.16 1.008.492 1.336.332.33.789.487 1.397.487s1.065-.158 1.408-.487c.343-.318.516-.759.516-1.323v-3.18h-.583v3.202c0 .42-.114.735-.333.951-.23.214-.548.329-.973.329-.446 0-.778-.112-1.008-.329-.23-.227-.343-.542-.343-.951v-3.205h.01zm25.248 1.62c-.275-.305-.64-.465-1.11-.465-.503 0-.892.181-1.19.531-.297.35-.446.826-.446 1.428 0 .588.16 1.053.482 1.382.321.329.756.497 1.305.497.251 0 .47-.021.651-.056.173-.035.368-.102.562-.182v-.497c-.389.17-.789.26-1.189.26-.378 0-.675-.113-.892-.34-.216-.228-.321-.556-.332-.997h2.576v-.35c-.014-.498-.14-.907-.417-1.211zm-.446.294c.16.181.241.451.241.815h-1.957c.035-.34.138-.612.322-.805.173-.192.41-.294.721-.294.295 0 .525.091.673.284zm3.514-.68l-.035-.034c-.138-.021-.287-.045-.446-.045-.24 0-.446.066-.64.203-.195.125-.355.318-.503.556h-.036l-.067-.68h-.47v3.692h.573v-1.98c0-.364.102-.669.321-.907.22-.238.47-.363.779-.363.092 0 .194.01.308.035l.01.02.206-.496zm-6.387-.542l.184-.497c-.41-.182-.87-.26-1.362-.26-.47 0-.86.113-1.143.33a1.107 1.107 0 00-.435.906v.066c.021.35.127.623.297.826.195.228.527.42.995.578.332.112.583.227.743.318a.92.92 0 01.343.304.793.793 0 01.103.42c0 .26-.103.465-.298.599-.194.147-.491.214-.87.214-.24 0-.48-.022-.721-.08a3.103 3.103 0 01-.676-.204v.556c.322.147.778.228 1.362.228.549 0 .984-.126 1.305-.364.322-.249.47-.588.47-1.018 0-.34-.091-.612-.286-.826-.194-.214-.562-.407-1.086-.599-.308-.112-.538-.203-.687-.305a.933.933 0 01-.321-.294.793.793 0 01-.103-.42c0-.237.092-.42.262-.542.173-.136.41-.192.722-.203a3.46 3.46 0 011.202.267zm11.025.543h-.573v3.691h.573v-3.691zm-1.079 0H40.4c-.457 1.256-.757 2.071-.892 2.445a6.011 6.011 0 00-.24.749h-.022a10.22 10.22 0 00-.322-.997l-.8-2.184h-.573l1.384 3.691h.665l1.405-3.704zm4.398.123a1.454 1.454 0 00-.425-.137 2.827 2.827 0 00-.537-.056c-.563 0-.984.171-1.282.51-.297.34-.456.816-.456 1.439 0 .599.148 1.064.446 1.392.297.33.71.498 1.26.498.377 0 .686-.067.95-.193v-.497a2.521 2.521 0 01-.962.203c-.367 0-.64-.126-.824-.374-.184-.238-.276-.588-.276-1.043 0-.962.379-1.438 1.133-1.438.113 0 .24.022.389.057.149.034.286.066.41.112l.174-.473zm3.592.783c0 .17.035.318.102.43.068.126.184.227.333.329.148.09.4.203.743.329.368.136.619.259.743.363a.457.457 0 01.184.374c0 .193-.081.34-.24.43-.16.092-.39.137-.687.137-.195 0-.39-.021-.595-.067a3.437 3.437 0 01-.583-.214v.522c.275.157.664.238 1.156.238.47 0 .835-.091 1.1-.284.263-.181.39-.451.39-.79a.831.831 0 00-.241-.613c-.16-.158-.457-.329-.892-.487a8.41 8.41 0 01-.651-.272.755.755 0 01-.24-.203.364.364 0 01-.082-.249c0-.147.068-.26.206-.35.137-.08.343-.126.605-.126.308 0 .64.08 1.019.238l.205-.465a3.075 3.075 0 00-1.178-.248c-.435 0-.768.09-1.019.272a.789.789 0 00-.378.706zm-.673-.521c-.276-.305-.64-.465-1.111-.465-.503 0-.892.181-1.19.531-.297.35-.445.826-.445 1.428 0 .588.16 1.053.48 1.382.322.329.758.497 1.306.497.252 0 .47-.021.64-.056a3.59 3.59 0 00.574-.182v-.497c-.39.17-.79.26-1.203.26-.378 0-.676-.113-.892-.34-.205-.228-.322-.556-.332-.997h2.575v-.35c.008-.498-.13-.907-.402-1.211zm-.436.294c.16.181.241.451.241.815H46.17c.035-.34.138-.612.322-.805.173-.192.41-.294.722-.294.283 0 .51.091.672.284zm-6.089-2.061a.372.372 0 00-.24.09c-.057.057-.092.148-.092.273 0 .126.035.228.092.284.067.056.148.09.24.09a.372.372 0 00.24-.09c.068-.056.104-.158.104-.284 0-.125-.036-.214-.103-.272a.358.358 0 00-.24-.091z" fill="#31373A"/><path d="M27.9 21.64h-.573A139.277 139.277 0 0026.4 24.2c-.092.272-.16.476-.184.588h-.021c-.046-.214-.16-.556-.333-1.043l-.813-2.106h-.63l1.5 3.713-.205.532c-.16.43-.446.644-.836.644a1.6 1.6 0 01-.424-.046v.452c.173.035.332.056.503.056.308 0 .573-.09.789-.259.205-.171.39-.465.562-.882l1.592-4.207zm-3.822-1.234h-.87l-1.592 4.063h-.035l-1.578-4.063h-.87v4.923h.537v-3.135c0-.476-.01-.882-.046-1.235h.035l1.695 4.37h.47l1.706-4.357h.021c-.035.43-.046.826-.046 1.19v3.17h.584v-4.926h-.01z" fill="#1998CC"/><path d="M3.019 21.732v3.53c4.154-5.91 10.21-9.927 18.176-12.033 5.08-1.358 10.85-1.28 17.305.227 6.535 2.026 11.365 4.948 14.49 8.751-3.433-4.482-8.025-7.912-13.771-10.29-6.273-2.083-12.338-2.446-18.165-1.088-7.884 1.676-13.892 5.31-18.035 10.903z" fill="#1998CC"/></g></g></svg>