<svg width="56" height="36" xmlns="http://www.w3.org/2000/svg"><g fill="none" fill-rule="evenodd"><path d="M0 3.75A3.749 3.749 0 013.75 0h48.5A3.756 3.756 0 0156 3.75v28.5A3.749 3.749 0 0152.25 36H3.75A3.756 3.756 0 010 32.25V3.75z" fill="#000" fill-rule="nonzero"/><path d="M1.25 3.75v28.5c0 1.375 1.123 2.5 2.5 2.5h48.5c1.382 0 2.5-1.118 2.5-2.5V3.75c0-1.375-1.123-2.5-2.5-2.5H3.75a2.499 2.499 0 00-2.5 2.5z" fill="#FFF"/><g><path d="M12.902 11.11c0-.623.495-1.113 1.12-1.11a1.12 1.12 0 011.11 1.112 1.123 1.123 0 01-1.12 1.119 1.106 1.106 0 01-1.11-1.121" fill="#00794D"/><path d="M21.187 18.685a1.9 1.9 0 00.435.303.954.954 0 00.414.095c.312 0 .557-.137.734-.411.177-.275.265-.656.265-1.143 0-.484-.087-.859-.263-1.124a.842.842 0 00-.745-.399.923.923 0 00-.413.1 1.721 1.721 0 00-.427.32v2.259zm0 .77v2.174H20.09v-6.473h.814l.12.518c.203-.218.404-.375.603-.47.199-.094.427-.14.683-.14.546 0 .99.228 1.333.685.344.458.516 1.051.516 1.78 0 .738-.17 1.334-.507 1.787-.337.453-.773.68-1.306.68-.24 0-.45-.043-.633-.129a1.654 1.654 0 01-.526-.412zM24.853 19.907v-4.751h1.07v.788c.154-.29.329-.507.527-.653a1.068 1.068 0 01.74-.217c.02.002.038.005.055.011v1.169h-.053c-.25 0-.48.065-.69.195-.209.13-.378.313-.508.549v2.909h-1.14zM28.577 16.914h1.733c0-.316-.077-.562-.23-.74-.153-.177-.364-.265-.632-.265a.764.764 0 00-.608.263c-.152.176-.24.423-.263.742zm2.781 2.059c-.18.336-.43.59-.752.763-.321.173-.701.26-1.14.26-.634 0-1.128-.216-1.482-.647-.354-.43-.53-1.035-.53-1.811s.176-1.383.528-1.82c.352-.437.84-.655 1.466-.655.622 0 1.105.211 1.448.633.344.422.515 1.016.515 1.78 0 .027-.001.067-.004.122a2.45 2.45 0 00-.004.122l-2.844.004c.006.449.093.786.26 1.012.169.226.418.338.748.338a.985.985 0 00.538-.143c.151-.096.295-.252.43-.468l.823.51zM32.168 19.907v-3.835h-.664v-.916h.664v-.735c0-.384.118-.679.353-.886.236-.206.574-.31 1.013-.31a4.166 4.166 0 01.668.054v.943a1.927 1.927 0 00-.14-.014 3.84 3.84 0 00-.214-.004c-.215 0-.364.04-.447.12-.082.08-.123.23-.123.451v.381h.897v.916h-.866v3.835h-1.141zM35.422 16.914h1.734c0-.316-.077-.562-.23-.74-.153-.177-.364-.265-.632-.265a.764.764 0 00-.608.263c-.152.176-.24.423-.264.742zm2.782 2.059c-.18.336-.43.59-.752.763-.321.173-.701.26-1.14.26-.634 0-1.128-.216-1.482-.647-.354-.43-.53-1.035-.53-1.811s.175-1.383.528-1.82c.352-.437.84-.655 1.466-.655.622 0 1.104.211 1.448.633.343.422.515 1.016.515 1.78 0 .027-.001.067-.004.122a2.64 2.64 0 00-.005.122l-2.843.004c.006.449.093.786.26 1.012.169.226.418.338.748.338a.985.985 0 00.537-.143c.152-.096.296-.252.431-.468l.823.51zM38.938 19.907v-4.751h1.07v.788c.154-.29.33-.507.527-.653a1.068 1.068 0 01.74-.217c.02.002.038.005.056.011v1.169h-.053c-.251 0-.48.065-.69.195-.21.13-.38.313-.509.549v2.909h-1.14zM41.875 19.907v-4.751h1.07v.788c.153-.29.329-.507.526-.653a1.068 1.068 0 01.74-.217c.02.002.038.005.056.011v1.169h-.053c-.25 0-.48.065-.69.195-.21.13-.379.313-.508.549v2.909h-1.141zM45.598 16.914h1.734c0-.316-.077-.562-.23-.74-.153-.177-.364-.265-.632-.265a.764.764 0 00-.609.263c-.151.176-.239.423-.263.742zm2.782 2.059c-.18.336-.43.59-.752.763-.321.173-.702.26-1.14.26-.635 0-1.128-.216-1.482-.647-.354-.43-.53-1.035-.53-1.811s.175-1.383.528-1.82c.352-.437.84-.655 1.466-.655.621 0 1.104.211 1.448.633.343.422.515 1.016.515 1.78l-.004.122a2.45 2.45 0 00-.005.122l-2.843.004c.006.449.093.786.26 1.012.169.226.418.338.748.338a.985.985 0 00.537-.143c.152-.096.296-.252.431-.468l.823.51zM51.767 18.645v-2.258a1.828 1.828 0 00-.43-.306.945.945 0 00-.41-.093.832.832 0 00-.734.408c-.177.271-.265.65-.265 1.133 0 .487.088.863.265 1.127a.845.845 0 00.743.396.943.943 0 00.411-.093c.13-.062.27-.166.42-.314zm.164.753a1.63 1.63 0 01-.564.451 1.664 1.664 0 01-.714.147c-.545 0-.991-.23-1.338-.687-.346-.457-.52-1.05-.52-1.78 0-.735.17-1.33.507-1.784.338-.455.773-.682 1.307-.682.239 0 .45.043.632.128.183.086.358.225.526.417v-2.294h1.097V18.8c0 .115.005.266.013.452.01.185.023.404.04.655h-.867l-.119-.51z" fill="#1B75BC"/><path d="M14.31 16.182a.922.922 0 00-.413.1 1.729 1.729 0 00-.427.32v2.258c.157.14.302.24.436.303a.956.956 0 00.414.096c.312 0 .557-.138.734-.412.176-.275.265-.655.265-1.142 0-.484-.088-.86-.263-1.125a.842.842 0 00-.745-.398" fill="#14477D"/><path d="M15.936 19.491c-.338.453-.773.68-1.307.68-.239 0-.45-.043-.632-.129a1.654 1.654 0 01-.527-.411v2.174h-1.096V15.33h.814l.119.518c.203-.218.404-.374.603-.469.2-.094.427-.142.684-.142.545 0 .99.23 1.333.687.343.457.515 1.05.515 1.78 0 .737-.169 1.333-.506 1.786zm-5.148-4.679a.786.786 0 01-.799-.797c0-.459.35-.81.806-.81.449.001.796.35.797.8a.786.786 0 01-.804.807zm-.55 5.27h1.123v-4.75h-1.123v4.75zm-2.04 0H7.094l-1.565-4.75h1.114l.779 2.563c.023.068.053.18.088.334.035.155.078.364.128.627a4.736 4.736 0 01.23-.96l.778-2.565H9.76l-1.561 4.751zm7.083-8.255c-.563.7-1.193.905-1.853.605-.673-.305-.94-.907-.792-1.79a7.787 7.787 0 00-9.138 4.87c-1.475 3.907.435 8.305 4.283 9.932a7.817 7.817 0 0010.133-3.908c1.707-3.676.276-7.774-2.633-9.709z" fill="#14477D"/><path d="M23.517 24.574h1.69c-.004-.307-.08-.549-.23-.726a.748.748 0 00-.602-.267c-.259 0-.463.087-.612.26-.149.174-.23.418-.246.733m1.924.999l.353.204a1.34 1.34 0 01-.544.57c-.227.124-.508.185-.842.185-.452 0-.797-.142-1.035-.427-.239-.285-.358-.699-.358-1.242 0-.518.12-.924.361-1.22.24-.296.572-.444.993-.444.427 0 .76.143.996.428.236.284.354.682.354 1.194v.135H23.51v.105c0 .333.086.598.258.794.172.197.4.295.685.295.218 0 .412-.05.581-.149.17-.099.305-.242.407-.428M27.246 25.073h1.62v-.412h-1.62zM33.142 25.702c-.14.279-.32.487-.539.624-.22.138-.479.206-.779.206-.453 0-.799-.142-1.036-.427-.238-.285-.357-.699-.357-1.242 0-.524.123-.933.37-1.228.246-.294.587-.442 1.023-.442.298 0 .556.076.772.227.217.152.378.366.481.643l-.479.141a.956.956 0 00-.306-.46.753.753 0 00-.481-.163c-.287 0-.507.11-.66.331-.154.22-.23.538-.23.95 0 .426.076.747.23.963.155.217.384.325.686.325a.865.865 0 00.512-.168c.157-.112.287-.272.388-.478l.405.198zM34.863 26.478v-4.455h.477v1.709c.194-.187.384-.322.57-.406.185-.085.387-.127.605-.127.298 0 .529.078.692.234.163.155.244.375.244.66v2.385h-.473v-2.217c0-.242-.046-.415-.137-.519-.092-.103-.243-.155-.452-.155-.186 0-.366.041-.54.122a1.873 1.873 0 00-.51.366v2.403h-.476zM39.742 24.574h1.69c-.004-.307-.08-.549-.23-.726a.748.748 0 00-.601-.267c-.26 0-.464.087-.613.26-.149.174-.23.418-.246.733m1.924.999l.353.204a1.342 1.342 0 01-.544.57c-.227.124-.507.185-.842.185-.451 0-.796-.142-1.035-.427-.239-.285-.358-.699-.358-1.242 0-.518.12-.924.361-1.22.241-.296.572-.444.993-.444.428 0 .76.143.996.428.236.284.355.682.355 1.194v.135h-2.21v.105c0 .333.087.598.258.794.172.197.4.295.685.295.218 0 .412-.05.582-.149.17-.099.305-.242.406-.428M46.156 25.702c-.14.279-.32.487-.539.624-.219.138-.479.206-.779.206-.453 0-.799-.142-1.036-.427-.238-.285-.356-.699-.356-1.242 0-.524.123-.933.369-1.228.246-.294.587-.442 1.023-.442.298 0 .556.076.773.227.217.152.377.366.48.643l-.479.141a.956.956 0 00-.306-.46.753.753 0 00-.48-.163c-.288 0-.508.11-.662.331-.153.22-.23.538-.23.95 0 .426.078.747.232.963.154.217.383.325.685.325a.865.865 0 00.512-.168c.157-.112.287-.272.389-.478l.404.198zM47.878 26.478v-4.455h.482v2.879l1.542-1.646h.528l-1.114 1.17 1.234 2.052h-.532l-1.026-1.705-.632.646v1.06z" fill="#1D1D1B"/></g></g></svg>