<svg width="56" height="36" viewBox="0 0 56 36" xmlns="http://www.w3.org/2000/svg"><g fill="none" fill-rule="evenodd"><path d="M0 3.75A3.75 3.75 0 013.75 0h48.5A3.76 3.76 0 0156 3.75v28.5A3.75 3.75 0 0152.25 36H3.75A3.76 3.76 0 010 32.25V3.75z" fill="#000" fill-rule="nonzero"/><path d="M1.25 3.75v28.5a2.5 2.5 0 002.5 2.5h48.5a2.5 2.5 0 002.5-2.5V3.75a2.5 2.5 0 00-2.5-2.5H3.75a2.5 2.5 0 00-2.5 2.5z" fill="#FFF"/><path d="M32.78 26.41c2.6 0 2.02.28 4.08-2.06 1.7-1.94 3.2-4.1 4.87-6.1.47-.55.41-.9-.03-1.43-2.1-2.55-4.14-5.14-6.2-7.71l-.07-.1c-.46-.53-.84-1.15-.2-1.74.64-.6 1.16-.1 1.6.45l4.84 5.82c.86 1.05 1.72 2.1 2.6 3.13.55.64.57 1.21.01 1.86-2.56 3.01-5.11 6.04-7.66 9.06-.4.47-.86.57-1.42.56-1.56-.02-3.11 0-4.66 0-.46 0-.96.06-1.2-.46-.27-.58.01-1.05.38-1.5 2.12-2.62 4.22-5.27 6.37-7.87.47-.56.47-.9 0-1.45-1.8-2.15-3.6-4.29-5.26-6.53-.8-1.09-1.64-1.4-2.95-1.4H26.6l3.72 4.45c.93 1.1 1.84 2.21 2.77 3.3.51.59.58 1.12.05 1.75-2.35 2.8-4.66 5.61-7.01 8.4a3.64 3.64 0 01-2.93 1.31h-7.4c-2.2-.02-3.78-1.66-3.8-3.95-.01-4.43-.02-8.85 0-13.28.02-2.23 1.5-3.82 3.61-3.88 1.56-.04 3.11 0 4.66-.02.61 0 1.06.17 1.08.9.02.79-.45 1.02-1.1 1.02h-4.2c-1.37.03-2.17.75-2.19 2.17-.04 4.34-.04 8.7 0 13.04.02 1.4.77 2.07 2.11 2.09 2.35.02 4.7-.01 7.05.01.8 0 1.37-.35 1.86-.95 1.9-2.36 3.79-4.72 5.72-7.05.4-.49.37-.76-.02-1.24-2.16-2.65-4.28-5.33-6.4-8-.34-.41-.79-.8-.48-1.45.3-.61.86-.56 1.4-.56 1.5 0 2.9 0 4.43.02.7.02 1.2.25 1.67.8 2.44 2.91 4.89 5.82 7.36 8.7.66.76.68 1.38.02 2.15-2.08 2.43-4.35 5.18-6.48 7.74h.67z" fill="#060606" fill-rule="nonzero"/></g></svg>