<?xml version="1.0" encoding="UTF-8"?>
<svg width="56px" height="36px" viewBox="0 0 56 36" version="1.1" xmlns="http://www.w3.org/2000/svg" xmlns:xlink="http://www.w3.org/1999/xlink">
    <!-- Generator: Sketch 46.2 (44496) - http://www.bohemiancoding.com/sketch -->
    <title>PM/Visa</title>
    <desc>Created with Sketch.</desc>
    <defs></defs>
    <g id="Page-1" stroke="none" stroke-width="1" fill="none" fill-rule="evenodd">
        <g id="PM/Visa">
            <g id="Group">
                <path d="M0,3.75075247 C0,1.67926908 1.67596877,0 3.75035585,0 L52.2496442,0 C54.3209085,0 56,1.68806916 56,3.75075247 L56,32.2492475 C56,34.3207309 54.3240312,36 52.2496442,36 L3.75035585,36 C1.67909151,36 0,34.3119308 0,32.2492475 L0,3.75075247 Z" id="Rectangle-2" fill="#000000" fill-rule="nonzero"></path>
                <path d="M1.25,3.75075247 L1.25,32.2492475 C1.25,33.6250965 2.37296468,34.75 3.75035585,34.75 L52.2496442,34.75 C53.6324061,34.75 54.75,33.6316447 54.75,32.2492475 L54.75,3.75075247 C54.75,2.37490355 53.6270353,1.25 52.2496442,1.25 L3.75035585,1.25 C2.36759386,1.25 1.25,2.36835527 1.25,3.75075247 Z" id="Path" fill="#FFFFFF"></path>
                <g id="visa" transform="translate(8.000000, 12.000000)" fill-rule="nonzero" fill="#1A1F71">
                    <g id="d11c4685-0de7-43a5-9036-eaab5538fd4b">
                        <path d="M15.1752287,0.23558952 L9.88318086,12.8694323 L6.44053483,12.8694323 L3.91273751,2.78449782 C3.79732583,2.08908297 3.68472906,1.85917031 3.22308234,1.62641921 C2.41801548,1.280131 1.15693174,0.814628821 0.00562983814,0.584716157 L0.12104152,0.238427948 L5.63546798,0.238427948 C6.32512315,0.238427948 7.01196341,0.701091703 7.13019001,1.51004367 L8.50668543,8.81331878 L11.8395496,0.238427948 L15.1752287,0.23558952 L15.1752287,0.23558952 Z M28.6192822,8.69126638 C28.6192822,5.33056769 24.0225194,5.21703057 24.137931,3.70982533 C24.137931,3.24716157 24.5967628,2.78449782 25.5144265,2.66812227 C25.9732583,2.55174672 27.2371569,2.55174672 28.731879,3.24716157 L29.1907108,0.579039301 C28.3856439,0.349126638 27.4679803,0 26.2012667,0 C22.9838142,0 20.799437,1.7371179 20.6840253,4.16965066 C20.6840253,6.0231441 22.2913441,6.94847162 23.5580577,7.64388646 C24.8191414,8.22292576 25.2807882,8.68558952 25.2807882,9.26462882 C25.2807882,10.0764192 24.2477129,10.5362445 23.3244194,10.5362445 C21.7171006,10.5362445 20.7938072,10.0735808 19.9915552,9.72445415 L19.3019001,12.2762009 C20.1069669,12.6224891 21.4862773,12.9716157 22.8655876,12.9716157 C26.3194933,12.980131 28.6192822,11.3593886 28.6192822,8.69126638 L28.6192822,8.69126638 Z M37.0049261,12.8665939 L39.9943702,12.8665939 L37.3483462,0.23558952 L34.5925405,0.23558952 C34.018297,0.23558952 33.4440535,0.581877729 33.216045,1.16091703 L28.3912738,12.860917 L31.8367347,12.860917 L32.5263899,11.0074236 L36.661506,11.0074236 L37.0049261,12.8665939 Z M33.4412386,8.34497817 L35.163969,3.59344978 L36.1998593,8.34497817 L33.4412386,8.34497817 Z M19.7719916,0.23558952 L17.1259676,12.8665939 L13.91133,12.8665939 L16.557354,0.23558952 L19.7719916,0.23558952 L19.7719916,0.23558952 Z" id="Shape"></path>
                    </g>
                </g>
            </g>
        </g>
    </g>
</svg>