<svg width="56" height="36" viewBox="0 0 56 36" xmlns="http://www.w3.org/2000/svg"><g fill="none" fill-rule="evenodd"><path d="M0 3.75A3.75 3.75 0 013.75 0h48.5A3.76 3.76 0 0156 3.75v28.5A3.75 3.75 0 0152.25 36H3.75A3.76 3.76 0 010 32.25V3.75z" fill="#000" fill-rule="nonzero"/><path d="M1.25 3.75v28.5a2.5 2.5 0 002.5 2.5h48.5a2.5 2.5 0 002.5-2.5V3.75a2.5 2.5 0 00-2.5-2.5H3.75a2.5 2.5 0 00-2.5 2.5z" fill="#FFF"/><g fill="#1A1F71" fill-rule="nonzero"><path d="M23.39 16.61l-4.77 11.4h-3.1l-2.27-9.1c-.1-.63-.2-.83-.62-1.04-.73-.32-1.86-.74-2.9-.94l.1-.32h4.97c.62 0 1.24.42 1.34 1.15l1.24 6.59 3-7.74h3zm12.1 7.63c0-3.03-4.14-3.14-4.04-4.5 0-.41.42-.83 1.24-.93.42-.11 1.55-.11 2.9.52l.41-2.4c-.72-.22-1.55-.53-2.69-.53-2.9 0-4.86 1.57-4.97 3.76 0 1.67 1.45 2.5 2.6 3.13 1.13.53 1.54.94 1.54 1.47 0 .73-.93 1.14-1.76 1.14-1.45 0-2.28-.42-3-.73l-.62 2.3c.73.31 1.97.63 3.2.63 3.12 0 5.19-1.46 5.19-3.86zM43.04 28h2.69l-2.38-11.39h-2.48c-.52 0-1.04.31-1.24.84L35.28 28h3.1l.63-1.67h3.72l.3 1.67zm-3.21-4.07l1.55-4.29.93 4.29h-2.48zm-12.3-7.32l-2.39 11.4h-2.9l2.39-11.4h2.9zM5.16 11.04c.39 0 .7-.08.9-.24a.78.78 0 00.33-.67.66.66 0 00-.25-.54 2.09 2.09 0 00-.82-.33 2.89 2.89 0 01-.38-.1.47.47 0 01-.19-.12.24.24 0 01-.05-.16c0-.12.05-.2.14-.27.1-.07.24-.1.4-.1.3 0 .6.1.86.3l.21-.47c-.11-.1-.27-.19-.46-.25a2 2 0 00-.6-.09c-.24 0-.45.04-.63.12a1 1 0 00-.42.33.8.8 0 00-.15.48c0 .16.04.3.11.4.07.12.19.21.34.29.16.07.37.14.63.19.23.05.39.1.48.16.1.05.14.12.14.22s-.05.19-.15.25a.83.83 0 01-.43.09c-.35 0-.67-.1-.96-.3L4 10.7c.14.1.3.19.52.25.2.06.42.09.64.09zM8.9 11v-.5H7.5v-.75h1.32v-.51H7.5v-.7h1.4v-.5H6.86V11H8.9zm1.84.04c.2 0 .38-.03.56-.1.18-.05.33-.14.44-.24l-.2-.47c-.13.1-.26.17-.39.21-.13.05-.26.07-.4.07a.75.75 0 01-.6-.25c-.14-.17-.22-.42-.22-.74 0-.33.08-.57.22-.74a.75.75 0 01.6-.25c.14 0 .27.02.4.06.13.05.26.12.38.22l.21-.47a1.2 1.2 0 00-.44-.25 1.76 1.76 0 00-1.34.1c-.22.12-.4.3-.51.53-.12.23-.18.5-.18.8 0 .3.06.56.18.8.11.22.29.4.5.53.23.12.5.19.8.19zm2.71 0c.42 0 .74-.11.95-.33.22-.21.33-.52.33-.93V8.04h-.64V9.8c0 .23-.06.4-.17.53-.1.13-.26.19-.47.19-.2 0-.36-.06-.46-.19-.11-.12-.17-.3-.17-.53V8.04h-.64v1.74c0 .4.11.72.33.94.21.2.53.32.94.32zm2.5-.04V9.85h.32c.1 0 .17.01.22.05.06.03.11.08.16.15l.5.95h.72l-.48-.88c-.1-.18-.23-.3-.39-.33a.9.9 0 00.53-.3.86.86 0 00.19-.56c0-.29-.1-.51-.27-.66-.18-.16-.44-.23-.79-.23H15.3V11h.65zm.62-1.65h-.63v-.81h.63c.18 0 .32.03.4.1.09.06.13.16.13.3 0 .15-.04.25-.13.31-.08.07-.22.1-.4.1zM20.29 11v-.5h-1.4v-.75h1.31v-.51h-1.32v-.7h1.4v-.5h-2.03V11h2.04zm3.12 0l1.33-2.96h-.66l-.93 2.14-.92-2.14h-.68L22.88 11h.53zm2.92.04c.3 0 .55-.07.76-.19.22-.12.39-.3.5-.53.12-.23.18-.5.18-.8 0-.31-.06-.58-.17-.8-.12-.24-.29-.41-.5-.54a1.53 1.53 0 00-.77-.18c-.3 0-.55.06-.77.18-.22.13-.38.3-.5.53-.12.23-.18.5-.18.8 0 .31.06.58.18.81.12.23.28.4.5.53.22.12.47.19.77.19zm0-.51a.7.7 0 01-.58-.26 1.17 1.17 0 01-.21-.75c0-.33.07-.58.2-.75a.7.7 0 01.59-.26c.25 0 .44.08.58.26.14.17.21.42.21.75 0 .32-.07.57-.21.75a.71.71 0 01-.58.26zm3.2.5c.41 0 .73-.1.95-.32.22-.21.32-.52.32-.93V8.04h-.64V9.8c0 .23-.05.4-.16.53s-.27.19-.47.19c-.2 0-.36-.06-.47-.19-.1-.12-.16-.3-.16-.53V8.04h-.64v1.74c0 .4.1.72.32.94.22.2.53.32.95.32zm3.24 0c.2 0 .38-.02.56-.08.18-.06.32-.15.44-.25l-.21-.47c-.13.1-.26.17-.38.21-.13.05-.26.07-.4.07a.75.75 0 01-.6-.25c-.15-.17-.22-.42-.22-.74 0-.33.07-.57.21-.74a.75.75 0 01.6-.25c.15 0 .28.02.4.06.13.05.26.12.39.22l.21-.47a1.2 1.2 0 00-.44-.25 1.76 1.76 0 00-1.35.1c-.22.12-.4.3-.51.53-.12.23-.18.5-.18.8 0 .3.06.56.18.8.12.22.29.4.51.53.23.12.49.19.79.19zm2.1-.03V9.76h1.36V11h.64V8.04h-.64v1.2h-1.36v-1.2h-.65V11h.65zm4.63 0v-.5h-1.4v-.75h1.32v-.51H38.1v-.7h1.4v-.5h-2.04V11h2.04zm1.1 0V9.85h.32c.1 0 .17.01.22.05.06.03.11.08.16.15l.5.95h.72l-.48-.88c-.1-.18-.23-.3-.39-.33a.9.9 0 00.53-.3.86.86 0 00.19-.56c0-.29-.1-.51-.27-.66-.18-.16-.44-.23-.79-.23h-1.36V11h.65zm.62-1.65h-.63v-.81h.63c.18 0 .32.03.4.1.09.06.13.16.13.3 0 .15-.04.25-.13.31-.08.07-.22.1-.4.1zm2.71 1.69c.39 0 .7-.08.9-.24a.78.78 0 00.33-.67.66.66 0 00-.25-.54 2.09 2.09 0 00-.82-.33 2.89 2.89 0 01-.38-.1.47.47 0 01-.19-.12.24.24 0 01-.05-.16c0-.12.05-.2.14-.27.1-.07.24-.1.4-.1.3 0 .6.1.86.3l.21-.47c-.11-.1-.27-.19-.46-.25a2 2 0 00-.6-.09c-.24 0-.45.04-.63.12a1 1 0 00-.42.33.8.8 0 00-.15.48c0 .16.04.3.11.4.07.12.19.21.34.29.16.07.37.14.63.19.23.05.39.1.48.16.1.05.14.12.14.22s-.05.19-.15.25a.83.83 0 01-.43.09c-.35 0-.67-.1-.96-.3l-.21.47c.14.1.31.19.52.25.2.06.42.09.64.09zm4.1 0c.17 0 .33-.05.47-.14a.9.9 0 00.32-.39c.08-.16.12-.35.12-.56 0-.21-.04-.4-.12-.56a.87.87 0 00-.32-.37.87.87 0 00-.47-.13.83.83 0 00-.38.08.63.63 0 00-.26.24V8.04h-.64V11h.63v-.3c.06.1.15.18.26.24.12.06.25.1.39.1zm-.19-.5a.41.41 0 01-.34-.14.7.7 0 01-.12-.44c0-.19.04-.34.12-.44.08-.1.2-.15.34-.15.15 0 .27.05.35.15.08.1.12.24.12.43s-.04.34-.12.44c-.08.1-.2.16-.35.16zm2.3 1.21l1.24-2.8h-.63l-.53 1.3-.52-1.3h-.66l.84 1.94-.39.86h.64z"/></g></g></svg>