<?xml version="1.0" encoding="UTF-8"?>
<svg width="56px" height="36px" viewBox="0 0 56 36" version="1.1" xmlns="http://www.w3.org/2000/svg" xmlns:xlink="http://www.w3.org/1999/xlink">
    <!-- Generator: Sketch 52.5 (67469) - http://www.bohemiancoding.com/sketch -->
    <title>PM/Vseobecna_uverova_Banka</title>
    <desc>Created with Sketch.</desc>
    <g id="PM/Vseobecna_uverova_Banka" stroke="none" stroke-width="1" fill="none" fill-rule="evenodd">
        <path d="M0,3.75075247 C0,1.67926908 1.67596877,0 3.75035585,0 L52.2496442,0 C54.3209085,0 56,1.68806916 56,3.75075247 L56,32.2492475 C56,34.3207309 54.3240312,36 52.2496442,36 L3.75035585,36 C1.67909151,36 0,34.3119308 0,32.2492475 L0,3.75075247 Z" id="Rectangle-2" fill="#000000" fill-rule="nonzero"></path>
        <path d="M1.25,3.75075247 L1.25,32.2492475 C1.25,33.6250965 2.37296468,34.75 3.75035585,34.75 L52.2496442,34.75 C53.6324061,34.75 54.75,33.6316447 54.75,32.2492475 L54.75,3.75075247 C54.75,2.37490355 53.6270353,1.25 52.2496442,1.25 L3.75035585,1.25 C2.36759386,1.25 1.25,2.36835527 1.25,3.75075247 Z" id="Path" fill="#FFFFFF"></path>
        <g id="Group" transform="translate(14.000000, 4.000000)">
            <path d="M27.3430343,25.3646538 C27.1833047,24.9065663 27.0330319,24.4755624 26.8745531,24.0210562 C26.8470977,24.0641278 26.8337055,24.0786129 26.8274823,24.0959439 C26.6865749,24.4877452 26.5469488,24.8800262 26.4059194,25.2717317 C26.3720577,25.3658049 26.4249857,25.3745983 26.4915193,25.3745344 C26.7108882,25.3744064 26.9303181,25.3751739 27.149687,25.3742785 C27.2055436,25.3740547 27.2613391,25.3688746 27.3430343,25.3646538 Z M15.830118,24.0529362 C15.8168174,24.0514973 15.8034862,24.0500584 15.7902161,24.0486194 C15.6356115,24.4822773 15.4810069,24.9159352 15.3203622,25.3666043 L16.2892948,25.3666043 C16.1324938,24.9179497 15.9813059,24.4854429 15.830118,24.0529362 Z M20.7196251,25.9515724 C20.7196251,25.8198954 20.7217301,25.6881545 20.7191981,25.5565095 C20.7124867,25.2092506 20.7052873,24.8619598 20.6954339,24.5147969 C20.6856109,24.1678578 20.6788996,23.8206309 20.6580335,23.4743633 C20.645526,23.2666155 20.5542824,23.1930069 20.3574575,23.187475 C20.2970251,23.1857803 20.2368977,23.1747806 20.1766177,23.1680336 C20.1776549,23.15163 20.1787227,23.1352263 20.1797904,23.1188546 L22.8495564,23.1188546 C22.8514478,23.130366 22.8533087,23.1418453 22.8552306,23.1533887 C22.7995571,23.1650599 22.7443716,23.1824868 22.6881795,23.1872512 C22.5746666,23.1969079 22.4972728,23.2640894 22.4924528,23.373735 C22.4717697,23.8434617 22.462984,24.313796 22.4489207,24.8182487 C22.5017877,24.7777991 22.5243316,24.7655523 22.5407439,24.7472301 C22.9052605,24.3414872 23.269411,23.9353606 23.6325548,23.5283067 C23.6639455,23.4931651 23.6905773,23.4525557 23.7153787,23.4118183 C23.7878915,23.2926759 23.7783737,23.2501799 23.6667216,23.1700161 C23.6577528,23.163589 23.6499433,23.1539003 23.6447267,23.1439557 C23.6414626,23.1378483 23.6441166,23.1283515 23.6441166,23.1132269 L24.8421801,23.1132269 C24.8437969,23.1242266 24.8454137,23.1352263 24.8470305,23.146226 C24.8212224,23.1560107 24.7958109,23.1727661 24.7695452,23.1744928 C24.4843748,23.1931348 24.2548169,23.336387 24.0575039,23.5373879 C23.6926822,23.9091084 23.3347244,24.2882792 22.9742346,24.6646042 C22.9583715,24.6812317 22.9454979,24.7009929 22.920544,24.7329049 C23.1041293,24.9476234 23.2806372,25.1656994 23.469073,25.3718803 C23.8207465,25.756711 24.1754402,26.1387277 24.5369672,26.5133899 C24.6887042,26.6706157 24.8743029,26.7814444 25.0858013,26.8340128 C25.2584654,26.8769565 25.4133141,26.8202951 25.504283,26.6610229 C25.5749655,26.537212 25.6307001,26.4027212 25.6821942,26.2683902 C26.0767288,25.2391162 26.4677856,24.2084033 26.8632964,23.179577 C26.8886774,23.1135786 26.9425205,23.0595712 26.9830936,23 C27.0274798,23.0604026 27.0874547,23.1141542 27.1139034,23.182231 C27.5076143,24.1948775 27.8954985,25.2099541 28.2886603,26.2228564 C28.3420764,26.3604489 28.4102268,26.4929253 28.4824346,26.621053 C28.5735867,26.7827554 28.7128467,26.8648057 28.8961575,26.8586983 C28.9309648,26.8575471 28.9661383,26.8693463 29,26.897581 C28.5806335,26.9859945 28.1613281,26.9196125 27.7312235,26.9110109 C27.9236251,26.8061618 27.8137424,26.6764993 27.7733829,26.5602667 C27.6747264,26.2759685 27.5673146,25.9949958 27.4696953,25.7103138 C27.4441312,25.6357459 27.407341,25.6122756 27.3350112,25.613043 C27.0149724,25.6163365 26.6948725,25.6124035 26.3748642,25.6178714 C26.3350234,25.6185429 26.272547,25.6499113 26.259948,25.6833901 C26.1525058,25.9683598 26.0445144,26.2539051 25.9560774,26.5457176 C25.8830155,26.7868803 25.9392381,26.8525589 26.1792901,26.8593378 C26.201956,26.8599773 26.224561,26.8634307 26.2471965,26.8655731 C26.2524435,26.8769246 26.2577211,26.888244 26.2629681,26.8995635 C26.2320045,26.9153596 26.2010104,26.9444897 26.1700467,26.9444897 C26.0662042,26.9445537 25.9623006,26.9279582 25.8585191,26.9289494 C25.4769801,26.9325627 25.0949836,26.9301006 24.7140852,26.9501495 C24.3273603,26.9705182 24.0125685,26.8333413 23.7604666,26.531904 C23.3642542,26.0581163 22.9704519,25.5821222 22.5758258,25.1068956 C22.5487059,25.0742482 22.5230504,25.0402258 22.4789386,24.9842998 C22.47058,25.0386909 22.4622213,25.0667978 22.4625569,25.0947767 C22.4682615,25.5836251 22.4728069,26.0725375 22.4827214,26.5613219 C22.4868397,26.7644971 22.5658198,26.8424225 22.7600517,26.8558524 C22.821796,26.8601372 22.8836317,26.8631109 22.9454369,26.8667242 C22.9468402,26.8848866 22.9482435,26.9030809 22.9496162,26.9212752 C22.9075179,26.9299087 22.8653586,26.9461845 22.8232907,26.9459287 C22.5113055,26.9440421 22.1993508,26.937551 21.8873351,26.9354405 C21.7873363,26.9347691 21.687246,26.945513 21.5871557,26.945513 C21.5488097,26.945545 21.5104026,26.9301645 21.472026,26.9217868 C21.4714158,26.908229 21.4708057,26.8947032 21.4701956,26.8811774 C21.5095789,26.873727 21.5487791,26.8614802 21.5883455,26.8597215 C21.7647009,26.8519833 21.8174458,26.8143156 21.8419726,26.6309016 C21.8654318,26.4555454 21.8805628,26.2775033 21.881478,26.1005484 C21.8855963,25.3123411 21.88401,24.5241019 21.8824236,23.7358626 C21.8822101,23.6311734 21.8735769,23.5261004 21.8629303,23.4218588 C21.8485314,23.2806529 21.785811,23.2050618 21.6520116,23.1924952 C21.5262352,23.1807281 21.3979878,23.1826147 21.2719674,23.1933906 C21.1530549,23.2035589 21.0802065,23.2873359 21.0722749,23.4352247 C21.0565033,23.7294035 21.0516528,24.0243177 21.0461312,24.3189761 C21.0301461,25.1710714 21.0167539,26.0232625 20.999274,26.8753258 C20.9984198,26.9172462 20.9682798,26.9584632 20.9517761,27 C20.9077864,26.980111 20.8534246,26.9713815 20.8214238,26.9386381 C20.4876268,26.597039 20.1527925,26.2563672 19.8272931,25.9061666 C19.2948713,25.3333173 18.7692219,24.7535293 18.2403082,24.1770029 C18.2230723,24.158233 18.2016571,24.143588 18.1661176,24.1134027 C18.1661176,24.2157258 18.1644397,24.2981278 18.1663921,24.38037 C18.1809435,24.9981454 18.1947017,25.6159528 18.2124867,26.2336643 C18.2160559,26.3580827 18.2287159,26.4833006 18.2495821,26.6058644 C18.2806982,26.7886389 18.3444253,26.8423905 18.5203231,26.8609046 C18.583013,26.8675236 18.6453674,26.8772443 18.7185818,26.8869011 C18.6400288,26.9693351 16.8035655,26.9751227 16.6753182,26.900235 C16.8318141,26.8535501 16.7948408,26.7561194 16.7531696,26.6457384 C16.6399617,26.3458999 16.5311162,26.0441428 16.4269686,25.740723 C16.396249,25.6512543 16.3539371,25.6139383 16.2601311,25.615633 C15.9517456,25.6211329 15.6431465,25.6193103 15.3346695,25.6160807 C15.259045,25.6152813 15.2166722,25.6373447 15.1901929,25.718148 C15.0940684,26.0114954 14.980952,26.2990551 14.8926981,26.5948327 C14.8324182,26.7967289 14.8948945,26.8678434 15.0974241,26.8783954 C15.1336652,26.880282 15.1698454,26.8833517 15.218167,26.8867412 C15.1516333,26.9607655 14.1174177,26.9727245 14,26.9008745 C14.0584496,26.8852383 14.0986565,26.8680992 14.1398702,26.8645499 C14.3072873,26.8502566 14.4229357,26.7548404 14.4876695,26.6019953 C14.6062769,26.3219179 14.7165867,26.0378435 14.8254933,25.7533535 C15.1538602,24.8955985 15.4788715,24.0364366 15.8088553,23.1793212 C15.8342058,23.1134827 15.88811,23.0596352 15.9287135,23.0002238 C15.9735574,23.059827 16.0345694,23.1125554 16.0608046,23.1801205 C16.4692194,24.2304027 16.8725702,25.2828273 17.2787885,26.3340688 C17.3235409,26.4498857 17.37232,26.5650311 17.4311052,26.6734296 C17.4618247,26.730059 17.511031,26.7850257 17.5647826,26.8166499 C17.6687472,26.8777879 17.7495577,26.8449806 17.7742065,26.7238237 C17.8060243,26.5671095 17.8289649,26.405599 17.8316494,26.2457192 C17.8457737,25.3973332 17.8516309,24.5488513 17.8620944,23.7004333 C17.8643824,23.5147809 17.8717953,23.3291285 17.8814047,23.1437319 C17.8834486,23.1035381 17.9049249,23.0644635 17.9174629,23.0248773 C17.9566936,23.0450861 18.0051372,23.0559579 18.0337214,23.0869746 C18.320234,23.3977489 18.6016827,23.7137672 18.8881649,24.0247014 C19.4129602,24.5942891 19.9407146,25.160967 20.4659065,25.7301709 C20.5400971,25.8105265 20.6070274,25.8982365 20.6773438,25.9825891 L20.7196251,25.9515724 Z" id="Fill-4" fill="#007437"></path>
            <path d="M8.32084636,23.9389496 C8.32084636,24.0128602 8.32081663,24.0867382 8.32084636,24.1606488 C8.32090582,24.2345268 8.32108419,24.3084374 8.32111392,24.3823154 C8.32120311,24.6530279 8.32102474,24.6608388 8.56557451,24.6668271 C8.82136181,24.6731084 9.02244796,24.6180742 9.10851308,24.2250561 C9.15955757,23.9919986 9.12626122,23.7682165 9.0282451,23.5567691 C8.91393755,23.3101727 8.72982658,23.1901453 8.47448522,23.1932697 C8.36493429,23.1946366 8.3181113,23.2402978 8.32019233,23.3600973 C8.32352196,23.5529938 8.32108419,23.745988 8.32084636,23.9389496 M8.32147067,25.5890657 L8.33386761,25.5890657 C8.33386761,25.8517721 8.33172713,26.1145436 8.33470002,26.3772499 C8.33645402,26.5331749 8.38776607,26.6248552 8.52547025,26.6567171 C8.6698337,26.6900762 8.82484009,26.7177072 8.96825221,26.6950882 C9.19692677,26.6589628 9.36388417,26.5058042 9.39878587,26.2425446 C9.41935826,26.087238 9.41834748,25.9229489 9.39729943,25.7675446 C9.3206881,25.2021011 8.94105029,24.8611231 8.4247488,24.8705287 C8.34451055,24.8719933 8.31933019,24.9016096 8.32054907,24.9847305 C8.32343277,25.1861213 8.32147067,25.3876098 8.32147067,25.5890657 M0.00184319065,23.0179802 L1.4764849,23.0179802 L1.48275769,23.0494516 C1.44892622,23.0580436 1.41548123,23.0708665 1.38120383,23.0744465 C1.20821147,23.0924766 1.15413464,23.1626119 1.21038168,23.3403097 C1.33185389,23.7240199 1.46349338,24.1038896 1.59388425,24.4841499 C1.75602557,24.9569693 1.92105059,25.4285844 2.08512429,25.9006227 C2.09544021,25.9303367 2.10834254,25.9589441 2.12936086,26.0113421 C2.15870327,25.940263 2.18150532,25.890436 2.20026425,25.8388516 C2.48025085,25.0684047 2.76023746,24.2978926 3.03858897,23.5267297 C3.07016105,23.4392477 3.09340903,23.3479905 3.11763807,23.2575468 C3.14159955,23.168047 3.10678703,23.1134684 3.02527044,23.097033 C2.95014555,23.0818668 2.87409907,23.071973 2.78943122,23.058304 C2.855905,22.9929203 4.98178758,22.9788281 5.11741074,23.0489635 C5.05816108,23.0616887 5.02697548,23.0711269 4.99522504,23.0747394 C4.76857204,23.1004503 4.70637922,23.1708134 4.70420902,23.4184838 C4.69885782,24.0311832 4.68536091,24.644143 4.69618222,25.256517 C4.70090911,25.5246259 4.72986504,25.7999599 4.7958037,26.0572311 C4.91284631,26.5140056 5.28332763,26.762034 5.73077702,26.7287075 C6.1712104,26.6958692 6.48291772,26.3944339 6.55631833,25.9178392 C6.58239056,25.748408 6.59886036,25.5751689 6.6001387,25.403492 C6.60489532,24.7659929 6.6016846,24.1283637 6.60079274,23.4907996 C6.60073328,23.4498575 6.59657124,23.4086225 6.59104166,23.3680059 C6.5641073,23.1688932 6.52795698,23.1276582 6.34631351,23.0911423 C6.2767182,23.0771478 6.20649858,23.0670912 6.13654653,23.0552447 C6.13690327,23.0421289 6.13723029,23.0290782 6.13755731,23.015995 C6.17144823,23.0110155 6.20533916,23.0017401 6.23923008,23.0017076 C7.05451493,23.0008939 7.8698295,22.9970536 8.68502516,23.004539 C8.83631544,23.0059385 8.99435417,23.0309008 9.13702307,23.0842752 C9.58123202,23.250517 9.75291631,23.7225879 9.53289286,24.1785813 C9.46106788,24.3274439 9.34197398,24.4492612 9.24232277,24.581428 C9.21711268,24.6149173 9.18351904,24.6407908 9.14915246,24.6747357 C9.26833554,24.744155 9.38056207,24.7992218 9.48297807,24.8710494 C9.89180964,25.1579045 10.0613535,25.5581151 9.9802828,26.0283308 C9.9063768,26.4570837 9.56048126,26.8189559 9.10985088,26.8917599 C8.86333899,26.931628 8.60906787,26.9169175 8.35821557,26.9205951 C8.06963731,26.924826 7.78096987,26.9229059 7.49236189,26.9217668 C7.45080092,26.921604 7.4092994,26.9112546 7.36776815,26.9055917 C7.36634116,26.8902954 7.36488445,26.874999 7.36339801,26.8596702 C7.40516708,26.8500042 7.44663887,26.8340244 7.48870524,26.8318113 C7.65471131,26.8229915 7.71503122,26.7730669 7.72956864,26.5912684 C7.74889241,26.3502698 7.76420279,26.108067 7.76577842,25.8663199 C7.77041612,25.146481 7.76818646,24.4265771 7.76687838,23.7067383 C7.76664055,23.5876872 7.75980291,23.468506 7.75180584,23.3497479 C7.74166829,23.1995835 7.68256728,23.1175366 7.548163,23.0986277 C7.43825533,23.0831361 7.32495856,23.0878877 7.21374282,23.0946897 C7.09289491,23.1020775 7.03403173,23.1871186 7.02656978,23.3138504 C7.01667006,23.4818822 7.00602712,23.6502069 7.00501634,23.8184666 C7.00213264,24.2997477 7.01705654,24.7816473 6.99877327,25.2620497 C6.98842762,25.5341291 6.95807444,25.8150609 6.88149284,26.0722346 C6.72009474,26.6143105 6.34036774,26.8912066 5.8368794,26.9734163 C5.52865036,27.023764 5.22158074,27.0051806 4.92518379,26.8954375 C4.48085593,26.7309206 4.23484944,26.3731817 4.14934917,25.8813559 C4.11522042,25.684977 4.10270456,25.4819263 4.09999923,25.281642 C4.09197243,24.6895113 4.09402372,24.0971527 4.09125894,23.5049569 C4.09102111,23.4599791 4.08046735,23.415099 4.08034844,23.3701539 C4.08005115,23.2409161 4.03206874,23.1484547 3.91707742,23.1053972 C3.79946997,23.0613307 3.66557108,23.094885 3.59318126,23.2075571 C3.52462646,23.3142734 3.46570381,23.430851 3.41745384,23.5503251 C2.98668235,24.6171954 2.55927022,25.685693 2.13055002,26.7535397 C2.10941278,26.8062306 2.08824582,26.8592796 2.06202495,26.909009 C2.0009321,27.0249031 1.93936358,27.0268558 1.88831909,26.9058846 C1.8050485,26.7083992 1.73069656,26.5063575 1.65485819,26.3051944 C1.30985452,25.390246 0.959975311,24.477413 0.624365968,23.5583638 C0.513536698,23.2549107 0.349790019,23.0653012 0.0368340841,23.0718754 C0.0246452427,23.0721358 0.012278028,23.0609076 0,23.0550169 C0.000624306511,23.0426822 0.00121888414,23.0303149 0.00184319065,23.0179802" id="Fill-6" fill="#007437"></path>
            <path d="M12.1485975,23.9493251 C12.1485975,24.0907531 12.1486303,24.2321482 12.1485975,24.3735762 C12.1484993,24.7134516 12.1484993,24.7134516 12.4897982,24.6975983 C12.7758345,24.6843487 12.9373007,24.5640145 12.9999295,24.2827735 C13.029918,24.1481351 13.0345996,24.0017962 13.0197035,23.8641585 C12.9740988,23.4430386 12.6707439,23.1807162 12.2790277,23.2019419 C12.1880147,23.2068858 12.1448653,23.2392188 12.1473207,23.3379646 C12.1523952,23.5416526 12.1488594,23.7455053 12.1485975,23.9493251 M12.1488594,25.7088859 L12.149416,25.7088859 C12.149416,25.9337337 12.1464041,26.1586474 12.1502672,26.3834952 C12.1541958,26.6122322 12.2238633,26.6966078 12.4433095,26.7513201 C12.4912714,26.7632843 12.5403792,26.7729413 12.5895197,26.7774568 C12.9610689,26.8115366 13.3152995,26.6478281 13.3541273,26.2030105 C13.3637852,26.0925642 13.3610024,25.9782616 13.3443712,25.8687382 C13.2726412,25.3958063 12.9431282,24.8527043 12.2546375,24.9008248 C12.1751812,24.9063949 12.1460439,24.9276536 12.1474517,25.0092936 C12.1514785,25.2424141 12.1488594,25.4756665 12.1488594,25.7088859 M13.0705137,24.7085078 C13.201304,24.7808532 13.3322907,24.8420915 13.4515571,24.9212925 C13.8565323,25.1901738 14.0699546,25.5637335 13.9793672,26.0572319 C13.8883214,26.5534989 13.5524572,26.8392223 13.0805317,26.9447577 C12.8420644,26.9980858 12.5889304,26.9947239 12.3421475,26.9985142 C11.9869348,27.0039195 11.6314274,26.9932737 11.2761165,26.987407 C11.2126366,26.9863852 11.149353,26.975245 11.0859386,26.9687521 C11.0863314,26.9529316 11.0866588,26.9370782 11.0870189,26.9212908 C11.1449988,26.9144682 11.2028477,26.9063273 11.2609913,26.9011527 C11.3973144,26.8889578 11.4722856,26.812031 11.4836131,26.6780518 C11.5024705,26.4545223 11.5281047,26.2305644 11.5289559,26.0067054 C11.5320988,25.1902397 11.5262714,24.3737739 11.523194,23.5572752 C11.5230958,23.5158125 11.5136016,23.474251 11.5147147,23.4328871 C11.5221136,23.1579743 11.3894899,23.0956484 11.1410375,23.080619 C11.0951708,23.0778504 11.0495334,23.0713575 11.0037977,23.0666114 C11.0025209,23.0529662 11.0012441,23.0392882 11,23.025643 C11.0384677,23.0166781 11.077001,22.9998689 11.115436,23.0000008 C11.6406597,23.0014839 12.1659162,23.0021431 12.6910417,23.0111739 C12.7965579,23.0130197 12.9046277,23.0387938 13.0061171,23.0707313 C13.5840825,23.2526332 13.7679747,23.8727938 13.3882408,24.3654682 C13.2952308,24.4861319 13.1810716,24.5902501 13.0705137,24.7085078" id="Fill-10" fill="#007437"></path>
            <path d="M6,21.264442 C5.93711527,21.454424 5.09322868,22.0746455 5,21.9925608 C5.22041694,21.6942048 5.43939221,21.4027985 5.60072313,21 C5.73134397,21.0865324 5.86228518,21.1732236 6,21.264442" id="Fill-12" fill="#007437"></path>
            <g id="Group-2" transform="translate(5.000000, 0.000000)">
                <path d="M0.914683738,18.8349168 L1.53526887,18.8348984 C6.940629,18.8348984 12.3461008,18.8350134 17.7514609,18.8346685 C18.2964079,18.8345536 18.2971896,18.8328295 18.2971896,18.2607605 C18.2977479,12.6823697 18.2979713,7.10386395 18.2980829,1.52558808 C18.2981946,0.915473141 18.2977479,0.913519118 17.673069,0.913519118 C12.5500092,0.912944405 7.42683782,0.913404175 2.30366641,0.912944405 C1.96497294,0.912944405 1.62616781,0.913863945 1.28758601,0.904553601 C1.04347657,0.897771991 0.931360438,0.985013371 0.937725597,1.25972601 C0.948334195,1.723749 0.916173391,2.18880647 0.916061722,2.65340418 C0.914051672,7.83949613 0.914833358,13.025703 0.914833358,18.211795 L0.914683738,18.8349168 Z M19.2452633,9.86685245 C19.2451516,12.975818 19.24571,16.0848984 19.2447049,19.1939789 C19.2444816,19.8082318 19.2388981,19.8105306 18.6661455,19.8104157 C12.6250511,19.8101858 6.58395675,19.8100708 0.542750723,19.8100708 C-0.00286625118,19.8100708 0,19.8104178 0.000260493651,19.2591513 C0.000707171485,13.1571973 -0.00119120931,7.0553582 0.00137718824,0.953404175 C0.00182386607,-0.106021112 -0.0440722813,0.00340417535 0.91226496,0.00305934776 C6.8404615,0.00133520983 12.768658,0.00305934776 18.6968546,0.00374900293 C19.2461566,0.00374900293 19.2455983,0.00386394546 19.2454866,0.58317429 C19.245375,3.67765705 19.2454866,6.77225475 19.2452633,9.86685245 Z" id="Fill-8" fill="#FF6700"></path>
                <path d="M13.2259551,14.5838875 C13.2658211,14.5814737 13.3057987,14.578945 13.3457764,14.5765312 C13.3457764,14.3406691 13.3414213,14.1046921 13.3465581,13.868945 C13.3771555,12.4510139 13.381064,11.0317036 13.4517507,9.61572657 C13.5012203,8.62342772 14.2409188,7.95354266 15.2095397,7.91480703 C16.0332136,7.88158864 16.5862007,8.39549668 16.7451064,9.43216335 C16.8432638,10.0729679 16.8778814,10.7279105 16.8921751,11.3776806 C16.9136156,12.3560714 16.8850282,13.3356116 16.8984286,14.3142323 C16.9001036,14.4369909 17.0284118,14.5576806 17.0979819,14.6794047 C17.1726887,14.5492898 17.3133923,14.4184852 17.3120522,14.2891748 C17.2976469,12.8673358 17.275313,11.4452668 17.2216,10.0246921 C17.2065246,9.62572657 17.1328227,9.21204841 16.9985961,8.83837025 C16.4725212,7.37388749 14.8548775,7.21814036 13.7556033,8.30480703 C13.4786631,8.57860013 13.2004944,9.00997944 13.1864241,9.37951967 C13.1231075,11.0410139 13.1535933,12.7064162 13.1549333,14.3704392 C13.1549333,14.4415886 13.2011645,14.5127381 13.2259551,14.5838875 Z M2.5764855,14.6233128 C2.6203716,14.614807 2.66436937,14.6061863 2.70836713,14.5975656 C2.70836713,14.2872208 2.70423536,13.976876 2.70914882,13.6665312 C2.72891431,12.404922 2.72891431,11.1423932 2.78285066,9.88227829 C2.80808796,9.29193347 2.93594949,8.72434726 3.41958991,8.28756565 C4.12210248,7.65285301 5.74532972,7.56722082 5.99491096,9.01078404 C6.18184564,10.092853 6.2255084,11.2051519 6.27441962,12.306876 C6.30345368,12.958945 6.20697127,13.6163013 6.1977027,14.2715886 C6.19602766,14.3803243 6.35247657,14.4914737 6.43578199,14.6014737 C6.51696568,14.5110139 6.66961783,14.4196346 6.66850114,14.3302093 C6.64951733,12.7346921 6.64181214,11.1377955 6.55962341,9.54503691 C6.53606116,9.08974956 6.36397852,8.59434726 6.12176747,8.20928979 C5.62818846,7.4244622 4.85186239,7.37055416 4.0869266,7.55193347 C3.15013151,7.77400243 2.48145479,8.64285301 2.46794279,9.55400243 C2.44460387,11.1118185 2.45867422,12.6703243 2.46626775,14.2283702 C2.46693776,14.3602093 2.53807121,14.4915886 2.5764855,14.6233128 Z M7.91048885,14.6475656 C7.97670884,14.6396346 8.04292883,14.6318185 8.10914882,14.6240024 C8.10914882,14.2872208 8.10311867,13.9503243 8.11015384,13.6137725 C8.13929957,12.2406691 8.14019293,10.8659565 8.21400644,9.49549668 C8.27765803,8.31181852 9.22517339,7.80584151 10.0820131,7.85641622 C10.5994894,7.88687599 11.0900533,8.10630128 11.2471723,8.69549668 C11.3869824,9.21951967 11.5076971,9.75538174 11.5664353,10.2941174 C11.6257317,10.8392898 11.6068596,11.3943473 11.6076413,11.9450369 C11.6085346,12.666876 11.5910025,13.38883 11.5912259,14.1105542 C11.5913375,14.254807 11.6143414,14.40883 11.6709579,14.5377955 C11.690165,14.5814737 11.9061337,14.5998645 11.9270159,14.5642323 C11.9931243,14.4518185 12.0410304,14.3081404 12.0404721,14.1766461 C12.0355586,12.8295197 12.0616893,11.4799794 11.9880991,10.1364162 C11.9541516,9.51687599 11.8073063,8.86699094 11.5535933,8.30664611 C11.2348886,7.60239324 10.4190316,7.35262312 9.52913765,7.51860013 C8.79703268,7.65515186 8.00149946,8.44181852 7.8803381,9.20997944 C7.7951343,9.74997944 7.74008126,10.3012438 7.73784787,10.8477955 C7.73338109,11.8850369 7.7710137,12.9227381 7.80440287,13.9596346 C7.81177305,14.1898645 7.87363793,14.4183702 7.91048885,14.6475656 Z M1.11111111,19.0418369 L1.11127054,18.4187151 C1.11127054,13.2326231 1.11048885,8.04641622 1.11238723,2.86032427 C1.11261057,2.39572657 1.14465971,1.9306691 1.13416278,1.46664611 C1.12779762,1.19193347 1.23991376,1.10469209 1.48402319,1.1114737 C1.82249332,1.12078404 2.16129846,1.1198645 2.50010359,1.1198645 C7.62327501,1.12032427 12.7464464,1.1198645 17.8695062,1.12043921 C18.4940734,1.12043921 18.4946318,1.12239324 18.4945201,1.73250818 C18.4944085,7.31089898 18.4940734,12.8892898 18.4936268,18.4676806 C18.4935151,19.0398645 18.4928451,19.0414737 17.9478981,19.0415886 C12.542538,19.0419335 7.13706618,19.0418185 1.73159438,19.0418185 L1.11111111,19.0418369 Z" id="Fill-22" fill="#FFFFFF"></path>
                <path d="M7.95076522,14.9560768 C7.9139143,14.7268814 7.85204942,14.4984906 7.84467924,14.2682607 C7.81129007,13.2312492 7.77376913,12.1935481 7.77812424,11.1563067 C7.78035763,10.609755 7.83541067,10.0586056 7.92061447,9.51849063 C8.04177583,8.75044465 8.83730905,7.96366304 9.56941402,7.82722626 C10.4593079,7.6611343 11.2752767,7.91090442 11.5939813,8.61515729 C11.8475826,9.17550212 11.994428,9.82538718 12.0283755,10.4449274 C12.1019657,11.7884906 12.075835,13.1381458 12.0807485,14.4851573 C12.0813068,14.6166515 12.0335123,14.7603297 11.9672923,14.8727435 C11.9464101,14.9083757 11.7304414,14.8899849 11.7112342,14.8463067 C11.6546178,14.7173412 11.6316139,14.5633182 11.6315022,14.4190653 C11.6312789,13.6973412 11.648811,12.9755021 11.6479177,12.2535481 C11.6472476,11.7028584 11.6661198,11.147801 11.6067116,10.6026286 C11.5479735,10.0638929 11.4272588,9.52803086 11.2874486,9.00412281 C11.1303297,8.41481247 10.6398774,8.19550212 10.1222895,8.16492741 C9.26544976,8.11446764 8.31804607,8.62032971 8.25428281,9.80412281 C8.1804693,11.1745826 8.17957594,12.5492952 8.15054188,13.9222837 C8.14339504,14.2589504 8.14942519,14.595732 8.14942519,14.9325136 C8.0832052,14.9403297 8.01698521,14.9482607 7.95076522,14.9560768" id="Fill-28" fill="#006B36"></path>
                <path d="M2.3436233,14.9355267 C2.30520901,14.8038026 2.23418724,14.6724233 2.23351722,14.5405842 C2.22581203,12.9825382 2.21174167,11.4240325 2.23508059,9.86621638 C2.2485926,8.95518189 2.91738098,8.08621638 3.8540644,7.86414741 C4.61900019,7.6827681 5.39532626,7.73667615 5.88901694,8.52150373 C6.13111633,8.9065612 6.30331063,9.4019635 6.32676122,9.85725086 C6.40894994,11.4500095 6.4167668,13.046906 6.43575061,14.6424233 C6.43675563,14.7319635 6.28410348,14.8232279 6.20303146,14.9138026 C6.11961437,14.8038026 5.96327713,14.6926532 5.9648405,14.5838026 C5.97410907,13.9285152 6.07070315,13.2712738 6.04166909,12.6192049 C5.9926462,11.5174807 5.94909511,10.405067 5.76204877,9.32299799 C5.51246753,7.87943477 3.88924028,7.96506695 3.18672772,8.59977959 C2.70308729,9.03667615 2.57522576,9.60414741 2.54998846,10.1944922 C2.49616379,11.4546072 2.49605212,12.7171359 2.47628662,13.9787451 C2.47148483,14.2890899 2.4756166,14.5994348 2.4756166,14.9097796 C2.43161884,14.9185152 2.38762107,14.927021 2.3436233,14.9355267" id="Fill-30" fill="#004C97"></path>
                <path d="M13.4128574,14.764239 C13.3880668,14.6930896 13.3418356,14.6219401 13.3418356,14.5507907 C13.3404956,12.8867677 13.3100098,11.2213654 13.3733264,9.55987118 C13.3873968,9.19033095 13.6655654,8.75895164 13.9425057,8.48515853 C15.0417798,7.39849187 16.6594236,7.55423899 17.1854984,9.01872175 C17.3197251,9.39239991 17.3934269,9.80607807 17.4085023,10.2050436 C17.4622153,11.6256183 17.4845492,13.0476873 17.4989546,14.4695263 C17.5002946,14.5988367 17.3595911,14.7296413 17.2848842,14.8597562 C17.2153141,14.7380321 17.0870059,14.6173424 17.0853309,14.4945838 C17.0719306,13.5159631 17.1005179,12.5364229 17.0790774,11.5580321 C17.0647837,10.908262 17.0301662,10.2533195 16.9320087,9.61251485 C16.7731031,8.57584819 16.2201159,8.06194014 15.396442,8.09515853 C14.4278211,8.13389416 13.6881226,8.80377922 13.6386531,9.79607807 C13.5679663,11.2120551 13.5640579,12.6313654 13.5334604,14.0492965 C13.5283236,14.2850436 13.5326787,14.5210206 13.5326787,14.7568827 C13.4927011,14.7592965 13.4527234,14.7618252 13.4128574,14.764239" id="Fill-32" fill="#FD6700"></path>
                <path d="M2.27185309,5.78560574 C2.27185309,5.78560574 15.907029,5.40776336 17.34723,5.62054533 C17.9055773,5.70307554 17.5705689,6.03308409 17.34723,6.03308409 C17.1238911,6.03308409 2.37179726,6.18062789 2.27185309,6.03308409 C2.16018363,5.86802367 2.27185309,5.78560574 2.27185309,5.78560574" id="Fill-34" fill="#E3B300"></path>
            </g>
        </g>
    </g>
</svg>