<?xml version="1.0" encoding="UTF-8"?><svg width="56" height="36" viewBox="0 0 56 36" xmlns="http://www.w3.org/2000/svg"><g fill="none" fill-rule="evenodd"><path d="M0 3.75A3.749 3.749 0 013.75 0h48.5A3.756 3.756 0 0156 3.75v28.5A3.749 3.749 0 0152.25 36H3.75A3.756 3.756 0 010 32.25V3.75z" fill="#000" fill-rule="nonzero"/><path d="M1.25 3.75v28.5c0 1.375 1.123 2.5 2.5 2.5h48.5c1.382 0 2.5-1.118 2.5-2.5V3.75c0-1.375-1.123-2.5-2.5-2.5H3.75a2.499 2.499 0 00-2.5 2.5z" fill="#FFF"/><g fill-rule="nonzero" fill="#1D70BF"><path d="M46.696 12.007c.981 0 1.91.237 2.738.658.13.064.26.134.39.212l-.576.534-.864-.927-1.458 1.35-.867-.98-2.717 2.541 1.742 1.993-.684.625 1.716 1.995-.68.624 2.45 2.833 1.456-1.391 1.258 1.49a6.64 6.64 0 01-.823.567 6.026 6.026 0 01-3.08.847c-3.442 0-6.249-2.913-6.249-6.485 0-3.573 2.807-6.486 6.248-6.486"/><path d="M45.558 18.083l1.485-1.389 1.338 1.543-1.485 1.388-1.338-1.542zm1.056 2.665l1.486-1.389 1.338 1.543-1.486 1.388-1.338-1.542zm-2.12-5.299l1.486-1.388 1.338 1.542-1.486 1.389-1.337-1.543zm2.727-.747l1.114-1.042 1.003 1.157-1.114 1.042-1.003-1.157zm1.98 4.77l1.115-1.042 1.003 1.157-1.114 1.042-1.004-1.157zm.98 2.337l1.114-1.042 1.004 1.157-1.114 1.041-1.004-1.156zm.45-5.355l.742-.695.669.772-.743.694-.669-.771zm-.95-2.292l.743-.694.669.771-.743.694-.67-.77zm1.9 4.583l.742-.694.669.77-.743.695-.669-.771zm-3.333-1.717l1.114-1.042 1.004 1.157-1.114 1.041-1.004-1.156zm-42.318.347h-.05l-.941 3.693h-.77L3.014 15.82h.799l.798 3.914h.05l.927-3.914h.634l.991 3.914h.05l.727-3.914h.835L7.67 21.068H6.9l-.97-3.693zm6.054 2.879v.562c-.321.193-.749.34-1.262.34-1.198 0-1.69-.77-1.69-1.939 0-1.124.55-1.939 1.619-1.939.89 0 1.44.6 1.44 1.806v.274H9.767c0 .888.35 1.28 1.083 1.28.385 0 .742-.14 1.134-.384zM9.78 18.863h1.632c-.035-.778-.399-1.088-.784-1.088-.435 0-.77.347-.848 1.088zm3.7-1.31c.213-.119.577-.274.962-.274.884 0 1.361.637 1.361 1.82 0 1.384-.64 2.058-1.675 2.058-.378 0-.962-.126-1.39-.363v-5.165l.742-.185v2.109zm-.008 2.967c.228.104.478.119.656.119.528 0 .927-.34.927-1.54 0-.94-.328-1.243-.805-1.243-.286 0-.492.082-.778.245v2.42zm5.575-.562h.036l1.526-4.137h.884v5.247h-.77v-3.804h-.064l-1.455 3.804h-.456l-1.455-3.715h-.064v3.715h-.641V15.82h.862l1.597 4.137zm3.23-.74c0-1.296.685-1.94 1.625-1.94.942 0 1.626.644 1.626 1.94 0 1.265-.649 1.939-1.626 1.939-.976 0-1.625-.674-1.625-1.94zm2.502 0c0-1-.392-1.421-.877-1.421-.47 0-.877.421-.877 1.42 0 1.014.371 1.421.877 1.421.507 0 .877-.406.877-1.42zm1.426-1.392c.321-.2.998-.547 1.818-.547.856 0 1.176.348 1.176 1.11v2.679h-.741v-2.509c0-.584-.278-.688-.641-.688-.286 0-.65.134-.87.267v2.93h-.742v-3.242zm6.608 2.428v.562a2.44 2.44 0 01-1.261.34c-1.198 0-1.69-.77-1.69-1.939 0-1.124.549-1.939 1.618-1.939.892 0 1.44.6 1.44 1.806v.274h-2.323c0 .888.35 1.28 1.083 1.28.385 0 .741-.14 1.133-.384zm-2.202-1.391h1.632c-.035-.778-.4-1.088-.784-1.088-.435 0-.77.347-.848 1.088zm5.083-1.458h.763l-1.29 3.7c-.357 1.021-.792 1.554-1.612 1.554v-.607c.485 0 .784-.4.956-.947l-1.37-3.7h.785l.912 2.723h.043l.813-2.723z"/></g></g></svg>