<?xml version="1.0" encoding="UTF-8"?><svg width="56" height="36" viewBox="0 0 56 36" xmlns="http://www.w3.org/2000/svg"><g fill="none" fill-rule="evenodd"><path d="M0 3.75A3.749 3.749 0 013.75 0h48.5A3.756 3.756 0 0156 3.75v28.5A3.749 3.749 0 0152.25 36H3.75A3.756 3.756 0 010 32.25V3.75z" fill="#000" fill-rule="nonzero"/><path d="M1.25 3.75v28.5c0 1.375 1.123 2.5 2.5 2.5h48.5c1.382 0 2.5-1.118 2.5-2.5V3.75c0-1.375-1.123-2.5-2.5-2.5H3.75a2.499 2.499 0 00-2.5 2.5z" fill="#FFF"/><g fill-rule="nonzero"><g fill="#000"><path d="M4.06 16.166h1.4l1.124 4.52 1.082-4.307H8.81l1.102 4.308 1.103-4.52h1.401l-1.813 6.496H9.335l-1.113-4.39-1.082 4.39H5.873z"/><path d="M13.087 19.93c.067 1.04.941 1.62 1.781 1.609.717 0 1.199-.343 1.479-.876h1.512c-.291.722-.728 1.266-1.244 1.633a2.933 2.933 0 01-1.758.568c-1.893 0-3.248-1.621-3.248-3.432 0-1.846 1.366-3.467 3.226-3.467.918 0 1.725.367 2.296.994.75.817 1.03 1.834.907 2.97h-4.95zm3.506-1.184c-.056-.615-.672-1.48-1.747-1.467-1.087 0-1.68.828-1.736 1.467h3.483z"/><path d="M17.825 13.906h1.467v3.065c.605-.793 1.49-1.006 2.05-1.006 1.456 0 3.07 1.124 3.07 3.42 0 2.201-1.457 3.48-3.137 3.48-.964 0-1.714-.498-2.039-1.137v.935h-1.411v-8.757zm5.119 5.49c0-1.064-.773-1.987-1.848-1.987-1.143 0-1.86.947-1.86 2 0 1.088.717 2.011 1.826 2.011 1.199 0 1.882-1.005 1.882-2.011v-.012z"/></g><g fill="#FFA817"><path d="M24.412 16.178h1.378v.947c.437-.651 1.154-1.148 2.173-1.148 2.15 0 3.058 1.929 3.058 3.503 0 1.845-1.243 3.396-3.047 3.396-1.198 0-1.848-.651-2.094-1.065V24.947h-1.468v-8.769zm5.142 3.242c0-.934-.639-2-1.882-2-.538 0-.997.225-1.333.592-.325.355-.527.864-.527 1.432 0 .556.202 1.053.538 1.408s.807.58 1.333.58c1.12 0 1.87-.935 1.87-2v-.012z"/><path d="M37.36 22.675h-1.467v-.935c-.392.757-1.21 1.136-2.072 1.136-1.972 0-3.125-1.621-3.125-3.456 0-2.047 1.4-3.443 3.125-3.443 1.12 0 1.803.627 2.072 1.148v-.947h1.467v6.497zm-5.197-3.22c0 .806.549 1.977 1.87 1.977.818 0 1.356-.45 1.636-1.041.146-.284.213-.592.235-.911a2.122 2.122 0 00-.168-.912c-.257-.615-.829-1.147-1.714-1.147-1.187 0-1.859 1.017-1.859 2.023v.012z"/><path d="M39.141 22.426l-2.319-6.248h1.569l1.5 4.32 1.48-4.32h1.567l-3.237 8.769h-1.568z"/></g><g><path d="M47.467 12.082a.174.174 0 00-.256 0L43.43 16.08l-.128.135V21.003c0 .105.081.19.18.19h4.353c.1 0 .238-.06.308-.134l3.783-3.997a.2.2 0 000-.27l-4.458-4.71z" fill="#FF0005"/><g fill="#FFF"><path d="M43.906 16.564h.362v.367a.854.854 0 01.76-.429c.684 0 1.006.602 1.006 1.124 0 .594-.406 1.1-1.002 1.1-.413 0-.658-.24-.745-.41v1.113h-.38v-2.865zm1.744 1.046c0-.343-.23-.733-.695-.733a.66.66 0 00-.493.216.771.771 0 00-.194.525c0 .208.073.39.198.521.124.132.3.213.493.213.402 0 .69-.329.69-.738v-.004zM48.581 18.664h-.358v-.324c-.095.216-.318.39-.672.386-.64-.004-.804-.494-.804-.93v-1.232h.38v1.139c0 .378.139.649.53.649.373-.004.544-.255.544-.614v-1.174h.38v2.1zM49.682 17.112c0-.162-.095-.286-.29-.282-.186 0-.288.132-.284.27.007.167.15.244.362.306.303.088.636.181.646.633.008.41-.314.687-.709.687-.314 0-.705-.19-.723-.668h.376c.015.255.208.34.351.34a.314.314 0 00.325-.313c-.003-.208-.153-.278-.508-.401-.277-.09-.497-.228-.5-.545 0-.397.307-.637.668-.637.275 0 .633.143.662.61h-.376z"/></g></g></g></g></svg>