<?xml version="1.0" encoding="UTF-8"?><svg width="56" height="36" viewBox="0 0 56 36" xmlns="http://www.w3.org/2000/svg" xmlns:xlink="http://www.w3.org/1999/xlink"><defs><path id="a" d="M0 10.949h13.43V.006H0z"/><path id="c" d="M0 10.961h43.967V.02H0z"/></defs><g fill="none" fill-rule="evenodd"><path d="M0 3.75A3.749 3.749 0 013.75 0h48.5A3.756 3.756 0 0156 3.75v28.5A3.749 3.749 0 0152.25 36H3.75A3.756 3.756 0 010 32.25V3.75z" fill="#000" fill-rule="nonzero"/><path d="M1.25 3.75v28.5c0 1.375 1.123 2.5 2.5 2.5h48.5c1.382 0 2.5-1.118 2.5-2.5V3.75c0-1.375-1.123-2.5-2.5-2.5H3.75a2.499 2.499 0 00-2.5 2.5z" fill="#FFF"/><g transform="translate(6.002 12.004)"><g transform="translate(0 .013)"><mask id="b" fill="#fff"><use xlink:href="#a"/></mask><path d="M4.884 6.928a.476.476 0 01-.201.045.454.454 0 01-.39-.212l-.03-.06-1.222-2.477a.2.2 0 01-.022-.087c0-.114.1-.206.224-.206.05 0 .097.015.134.04l1.443.95a.708.708 0 00.596.062L12.2 2.195C10.984.87 8.981.006 6.715.006 3.006.006 0 2.32 0 5.174 0 6.731.904 8.133 2.32 9.08a.405.405 0 01.188.337c0 .046-.01.088-.023.131l-.303 1.043c-.014.049-.036.1-.036.151 0 .114.1.207.224.207a.267.267 0 00.129-.039l1.47-.783a.725.725 0 01.554-.068 8.557 8.557 0 002.192.283c3.709 0 6.715-2.314 6.715-5.168 0-.864-.277-1.679-.765-2.395L4.933 6.902l-.049.026z" fill="#00C800" mask="url(#b)"/></g><mask id="d" fill="#fff"><use xlink:href="#c"/></mask><path fill="#020202" mask="url(#d)" d="M26.01 6.007h3.765v-.256H26.01zM26.01 7.008h3.765V6.73H26.01zM26.45 9.49h2.884V8.203h-2.883V9.49zm-.344.293h3.573V7.91h-3.573v1.873zM25.187 3.94c-.336 1.093-.813 2.056-1.431 2.889l.189.302c.22-.3.44-.638.66-1.012v3.685h.344V5.457c.218-.434.404-.883.558-1.347l-.32-.17zM27.919 4.747l.27-.144c-.053-.114-.279-.54-.35-.687l-.317.17c.113.195.22.392.317.588a.185.185 0 01.027.073h-2.227v.319h4.534v-.319h-2.254zM19.416 4.025h.318v1.568h.663V4.49h.318v1.396h-2.307V4.49h.319v1.103h.689zM18.514 6.779h2.042v-.256h-2.042zM20.846 8.228l-.528.419V7.454h-1.724v.465c.05.659-.126 1.123-.528 1.394l.184.295c.494-.376.724-.898.689-1.567v-.294h1.06v.71c-.012.242-.025.322-.118.441l.199.318c.176-.13.485-.375.926-.733l-.16-.255zM17.924 3.965c-.33.62-.726 1.132-1.19 1.534l.194.31c.528-.489.96-1.05 1.294-1.685l-.298-.16zM17.878 5.568a6.478 6.478 0 01-1.237 1.9l.184.295c.21-.225.41-.46.602-.701v2.742h.318V6.572a8.12 8.12 0 00.443-.84l-.31-.164z"/><path d="M21.96 7.87c-.23-.54-.398-1.266-.504-2.18.035-.098.08-.196.133-.294h.928c-.071 1.045-.257 1.87-.557 2.473zm1.246-2.474v-.294h-1.511c.128-.357.282-.784.334-1.15h-.334c-.222.96-.551 1.769-.987 2.425l.202.322.148-.274c.07-.114.124-.204.16-.27.106.866.291 1.551.556 2.057-.252.405-.636.817-1.145 1.236l.191.306c.548-.473.919-.88 1.113-1.224.23.384.62.837 1.053 1.243l.193-.31c-.452-.4-.844-.842-1.06-1.226.389-.653.627-1.6.716-2.84h.371z" fill="#020202" mask="url(#d)"/><path d="M41.35 8.278a19.628 19.628 0 00-1.096-1.69l.288-.132c.393.535.877 1.248 1.109 1.644l-.302.178zM32.373 6.7h3.425c-.393.733-1.003 1.294-1.754 1.737-.723-.456-1.292-1.03-1.671-1.737m4.688 3.05l.09-.278c-1.08-.15-2.016-.434-2.799-.857.843-.515 1.524-1.195 1.945-2.1l-.225-.139-.07.014h-1.818V5.228h2.759V4.91h-2.76V3.82h-.336v1.09h-2.751v.317h2.751V6.39h-1.872v.31c.4.78 1.016 1.42 1.753 1.902-.828.431-1.803.71-2.808.884l.098.295c.002.005.006.011.007.016 1.074-.198 2.12-.515 3.011-.997.836.482 1.846.805 3.012.97l.013-.02M39.531 3.867c-.416 1.039-1.083 2.037-1.803 2.711l.144.336.01.017c.302-.277.582-.607.849-.97v3.83h.337V5.47a9.78 9.78 0 00.786-1.511l-.323-.093z" fill="#000" mask="url(#d)"/><path d="M43.02 5.313V3.9h-.337v1.413h-2.941v.317h2.94v3.672c0 .151-.055.191-.217.204-.128.006-.266.034-.631.036v.277c.499.003.666-.005.856-.055.225-.053.33-.159.33-.469V5.63h.947v-.317h-.947z" fill="#000" mask="url(#d)"/></g></g></svg>