<?xml version="1.0" encoding="UTF-8"?>
<svg width="56px" height="36px" viewBox="0 0 56 36" version="1.1" xmlns="http://www.w3.org/2000/svg" xmlns:xlink="http://www.w3.org/1999/xlink">
    <!-- Generator: Sketch 59.1 (86144) - https://sketch.com -->
    <title>PM/Marca-Wire-Transfer </title>
    <desc>Created with Sketch.</desc>
    <g id="PM/Marca-Wire-Transfer-" stroke="none" stroke-width="1" fill="none" fill-rule="evenodd">
        <g id="base">
            <path d="M0,3.75075247 C0,1.67926908 1.67596877,0 3.75035585,0 L52.2496442,0 C54.3209085,0 56,1.68806916 56,3.75075247 L56,32.2492475 C56,34.3207309 54.3240312,36 52.2496442,36 L3.75035585,36 C1.67909151,36 0,34.3119308 0,32.2492475 L0,3.75075247 Z" id="Rectangle-2" fill="#000000" fill-rule="nonzero"></path>
            <path d="M1.25,3.75075247 L1.25,32.2492475 C1.25,33.6250965 2.37296468,34.75 3.75035585,34.75 L52.2496442,34.75 C53.6324061,34.75 54.75,33.6316447 54.75,32.2492475 L54.75,3.75075247 C54.75,2.37490355 53.6270353,1.25 52.2496442,1.25 L3.75035585,1.25 C2.36759386,1.25 1.25,2.36835527 1.25,3.75075247 Z" id="Path" fill="#FFFFFF"></path>
        </g>
        <g id="WT-logo" transform="translate(3.000000, 12.000000)" fill-rule="nonzero">
            <path d="M5.78635015,11.2841246 L3.0111276,11.2841246 L3.0111276,4.14836795 L5.69732938,4.14836795 C6.93991098,4.14836795 7.80192878,4.85979228 7.80192878,6.05267062 C7.81789994,6.74372655 7.39679053,7.36989277 6.75074184,7.615727 C7.43249258,7.86646884 7.91320475,8.45771513 7.91320475,9.31008902 C7.91172107,10.6031157 7.04747774,11.2841246 5.78635015,11.2841246 Z M5.6379822,4.83011869 L3.77225519,4.83011869 L3.77225519,7.30637982 L5.6379822,7.30637982 C6.43026706,7.30637982 7.04154303,6.91543027 7.04154303,6.06305638 C7.04154303,5.21068249 6.42878338,4.82937685 5.6379822,4.82937685 L5.6379822,4.83011869 Z M5.71884273,7.98738872 L3.77225519,7.98738872 L3.77225519,10.6038576 L5.71735905,10.6038576 C6.59866469,10.6038576 7.15059347,10.09273 7.15059347,9.29080119 C7.15059347,8.4888724 6.60237389,7.98664688 5.71735905,7.98664688 L5.71884273,7.98738872 Z" id="Shape" fill="#3A5A78"></path>
            <path d="M13.8649852,11.2841246 L13.2937685,9.67062315 L10.1780415,9.67062315 L9.60682493,11.2841246 L8.79376855,11.2841246 L11.4198813,4.14836795 L12.0608309,4.14836795 L14.6772997,11.2841246 L13.8649852,11.2841246 Z M11.75,5.24035608 L10.40727,9.00890208 L13.0734421,9.00890208 L11.75,5.24035608 Z" id="Shape" fill="#3A5A78"></path>
            <polygon id="Path" fill="#3A5A78" points="20.379822 11.2841246 16.5912463 5.56379822 16.5912463 11.2863501 15.8293769 11.2863501 15.8293769 4.14836795 16.5511869 4.14836795 20.3397626 9.85089021 20.3397626 4.14836795 21.1008902 4.14836795 21.1008902 11.2841246"></polygon>
            <path d="M25.3909496,11.3442136 C24.7079514,11.3518733 24.0505683,11.0845358 23.5667656,10.6023739 C22.8946588,9.93026706 22.8946588,9.22922849 22.8946588,7.71513353 C22.8946588,6.20103858 22.8946588,5.50074184 23.5667656,4.82863501 C24.0505683,4.34647314 24.7079514,4.07913558 25.3909496,4.08679525 C26.6735905,4.08679525 27.6253709,4.86869436 27.8664688,6.21142433 L27.0845697,6.21142433 C26.8939169,5.33976261 26.2826409,4.76780415 25.3909496,4.76780415 C24.9292678,4.76243093 24.4848695,4.94318499 24.1580119,5.26928783 C23.7069733,5.72997033 23.6565282,6.22106825 23.6565282,7.71735905 C23.6565282,9.21364985 23.7069733,9.70252226 24.1580119,10.1654303 C24.4848695,10.4915331 24.9292678,10.6722872 25.3909496,10.6669139 C26.2811573,10.6669139 26.9139466,10.0956973 27.1045994,9.22329377 L27.8664688,9.22329377 C27.6357567,10.5630564 26.6632047,11.3442136 25.3909496,11.3442136 Z" id="Path" fill="#3A5A78"></path>
            <path d="M33.6090504,11.2841246 L33.0378338,9.67062315 L29.9221068,9.67062315 L29.3508902,11.2841246 L28.537092,11.2841246 L31.1632047,4.14836795 L31.8048961,4.14836795 L34.421365,11.2841246 L33.6090504,11.2841246 Z M31.4940653,5.24035608 L30.1513353,9.00890208 L32.8167656,9.00890208 L31.4940653,5.24035608 Z" id="Shape" fill="#3A5A78"></path>
            <path d="M39.6721068,11.2841246 L38.0482196,8.11721068 L36.3345697,8.11721068 L36.3345697,11.2841246 L35.5727003,11.2841246 L35.5727003,4.14836795 L38.3093472,4.14836795 C39.5519288,4.14836795 40.4235905,4.89985163 40.4235905,6.13278932 C40.4235905,7.17507418 39.7922849,7.85682493 38.870178,8.04673591 L40.5637982,11.2841246 L39.6721068,11.2841246 Z M38.2388724,4.83011869 L36.3345697,4.83011869 L36.3345697,7.44658754 L38.2388724,7.44658754 C39.0704748,7.44658754 39.6617211,7.01557864 39.6617211,6.14317507 C39.6617211,5.27077151 39.0704748,4.82937685 38.2388724,4.82937685 L38.2388724,4.83011869 Z" id="Shape" fill="#3A5A78"></path>
            <polygon id="Path" fill="#3A5A78" points="42.1476261 11.2841246 42.1476261 4.14836795 42.9087537 4.14836795 42.9087537 11.2841246"></polygon>
            <path d="M49.1327893,11.2841246 L48.5615727,9.67062315 L45.4458457,9.67062315 L44.8746291,11.2841246 L44.0652819,11.2841246 L46.6913947,4.14836795 L47.3293769,4.14836795 L49.9458457,11.2841246 L49.1327893,11.2841246 Z M47.018546,5.24035608 L45.6750742,9.00890208 L48.3412463,9.00890208 L47.018546,5.24035608 Z" id="Shape" fill="#3A5A78"></path>
            <path d="M11.9169139,0.394658754 L11.1224036,0.394658754 L11.1224036,3.02225519 C11.1242837,3.04305875 11.1173061,3.06369094 11.1031849,3.07908301 C11.0890637,3.09447507 11.0691078,3.10320051 11.0482196,3.10311634 L10.8256677,3.10311634 C10.8047795,3.10320051 10.7848235,3.09447507 10.7707023,3.07908301 C10.7565812,3.06369094 10.7496036,3.04305875 10.7514837,3.02225519 L10.7514837,0.394658754 L9.95697329,0.394658754 C9.91246291,0.394658754 9.87537092,0.37388724 9.87537092,0.329376855 L9.87537092,0.148367953 C9.87633157,0.127701108 9.88547472,0.108265489 9.90078346,0.0943484546 C9.9160922,0.0804314202 9.93630868,0.0731764634 9.95697329,0.0741839763 L11.9169139,0.0741839763 C11.9578846,0.0741839763 11.9910979,0.107397274 11.9910979,0.148367953 L11.9910979,0.327893175 C11.9940653,0.370919881 11.9614243,0.394658754 11.9169139,0.394658754 Z" id="Path" fill="#24384C"></path>
            <path d="M14.4710682,3.10313908 L14.2099407,3.10313908 C14.1609792,3.10313908 14.1357567,3.10313908 14.1038576,3.0504451 L13.3746291,1.83679525 L13.2692878,1.83679525 C13.134273,1.83679525 13.037092,1.83234421 12.824184,1.82418398 L12.824184,3.02225519 C12.8260641,3.04305875 12.8190865,3.06369094 12.8049653,3.07908301 C12.7908442,3.09447507 12.7708882,3.10320051 12.75,3.10313908 L12.5274481,3.10313908 C12.5065599,3.10320051 12.4866039,3.09447507 12.4724828,3.07908301 C12.4583616,3.06369094 12.451384,3.04305875 12.4532641,3.02225519 L12.4532641,0.170623145 C12.4532641,0.113501484 12.4777448,0.0890207715 12.5511869,0.0808605341 C12.7262611,0.0600890208 13.0318991,0.0482195846 13.268546,0.0482195846 C13.9117211,0.0482195846 14.4087537,0.264094955 14.4087537,0.924332344 L14.4087537,0.952522255 C14.4087537,1.40875371 14.1402077,1.6772997 13.7692878,1.77522255 L14.5111276,3.01409496 C14.5187076,3.02471307 14.5228502,3.0373998 14.522997,3.0504451 C14.5236227,3.06446683 14.5183783,3.07811529 14.5085242,3.08811015 C14.4986701,3.09810501 14.4850974,3.1035425 14.4710682,3.10313908 L14.4710682,3.10313908 Z M14.0430267,0.924332344 C14.0430267,0.516320475 13.7781899,0.382047478 13.2692878,0.382047478 C13.1424332,0.382047478 12.9183976,0.382047478 12.824184,0.394658754 L12.824184,1.5074184 C13.0029674,1.51186944 13.1780415,1.51557864 13.2692878,1.51557864 C13.7700297,1.51557864 14.0430267,1.38946588 14.0430267,0.949554896 L14.0430267,0.924332344 Z" id="Shape" fill="#24384C"></path>
            <path d="M17.074184,3.10311573 L16.8338279,3.10311573 C16.7995714,3.10085622 16.7713404,3.07538695 16.7655786,3.04154303 L16.5007418,2.10459941 L15.444362,2.10459941 L15.1839763,3.04154303 C15.1748333,3.07561838 15.1449985,3.1000829 15.1097923,3.10237389 L14.8694362,3.10237389 C14.8466225,3.10263246 14.8251562,3.09159563 14.8120924,3.07289074 C14.7990287,3.05418585 14.7960571,3.03023209 14.8041543,3.00890208 L15.5578635,0.356824926 C15.6126137,0.174145234 15.7807314,0.0490252639 15.9714392,0.0490252639 C16.1621469,0.0490252639 16.3302647,0.174145234 16.3850148,0.356824926 L17.1364985,3.00964392 C17.1401283,3.01883331 17.1416493,3.02872019 17.1409496,3.03857567 C17.1413957,3.05621834 17.1344278,3.07324056 17.1217389,3.08550653 C17.10905,3.0977725 17.0918014,3.1041595 17.074184,3.10311573 Z M16.0511869,0.445103858 C16.0393175,0.399851632 16.0148368,0.370919881 15.977003,0.370919881 C15.9391691,0.370919881 15.9080119,0.399109792 15.8954006,0.445103858 L15.5244807,1.78486647 L16.4250742,1.78486647 L16.0511869,0.445103858 Z" id="Shape" fill="#24384C"></path>
            <path d="M19.5956973,3.10311573 L19.34273,3.10311573 C19.2914737,3.1089359 19.2413808,3.08504101 19.2136499,3.04154303 L17.9525223,0.646884273 C17.9480712,0.638724036 17.944362,0.635014837 17.939911,0.635014837 C17.9354599,0.635014837 17.939911,0.635014837 17.939911,0.646884273 L17.939911,3.02596439 C17.939911,3.06693507 17.9066977,3.10014837 17.865727,3.10014837 L17.6557864,3.10014837 C17.6149852,3.10014837 17.5816024,3.09198813 17.5816024,3.05192878 L17.5816024,0.190652819 C17.5817863,0.159632089 17.5944965,0.130001734 17.6168469,0.108489454 C17.6391973,0.086977173 17.6692916,0.0754082637 17.7002967,0.0764094955 L17.9228487,0.0764094955 C18.0363501,0.0764094955 18.0571217,0.0971810089 18.0897626,0.158011869 L19.3390208,2.53709199 L19.347181,2.54970326 C19.3508902,2.54970326 19.3508902,2.54154303 19.3508902,2.53709199 L19.3508902,0.154302671 C19.3508902,0.113331992 19.3841035,0.0801186944 19.4250742,0.0801186944 L19.6409496,0.0801186944 C19.6819202,0.0801186944 19.7151335,0.113331992 19.7151335,0.154302671 L19.7151335,2.9851632 C19.7151335,3.01670493 19.7025055,3.04693367 19.6800631,3.06909721 C19.6576208,3.09126074 19.6272366,3.10351248 19.5956973,3.10311573 Z" id="Path" fill="#24384C"></path>
            <path d="M21.0615727,3.13204748 C20.8351086,3.13173049 20.6090612,3.1126244 20.3857567,3.07492582 C20.3160237,3.06305638 20.3078635,3.04673591 20.3078635,3.00074184 L20.3078635,2.83902077 C20.3071112,2.82069014 20.3143796,2.80294076 20.3277726,2.79040261 C20.3411656,2.77786447 20.3593552,2.77178092 20.3775964,2.77373887 L20.3894659,2.77373887 C20.5771513,2.79005935 20.8746291,2.79821958 21.0615727,2.79821958 C21.5504451,2.79821958 21.6810089,2.60237389 21.6810089,2.31750742 C21.6810089,2.11350148 21.5630564,1.99925816 21.1921365,1.77151335 L20.7967359,1.53115727 C20.425816,1.30267062 20.2351632,1.09495549 20.2351632,0.769287834 C20.2351632,0.275964392 20.5890208,0.0482195846 21.208457,0.0482195846 C21.4456628,0.0492913181 21.6825531,0.0656456704 21.9176558,0.0971810089 C21.958457,0.105341246 21.9866469,0.12537092 21.9866469,0.166172107 L21.9866469,0.341246291 C21.9873715,0.35943406 21.9802012,0.377047705 21.9669798,0.38955828 C21.9537584,0.402068856 21.9357758,0.408255766 21.9176558,0.40652819 L21.9094955,0.40652819 C21.7299703,0.394658754 21.4451039,0.382047478 21.208457,0.382047478 C20.7885757,0.382047478 20.6097923,0.471810089 20.6097923,0.769287834 C20.6097923,0.960682493 20.7440653,1.07492582 21.0548961,1.26186944 L21.4302671,1.48442136 C21.902819,1.76557864 22.0697329,1.98961424 22.0697329,2.31602374 C22.0682493,2.70845697 21.8642433,3.13204748 21.0615727,3.13204748 Z" id="Path" fill="#24384C"></path>
            <path d="M24.2106825,1.68991098 L22.9599407,1.68991098 L22.9599407,3.02522255 C22.9599416,3.04679725 22.9513206,3.06747767 22.9359955,3.08266347 C22.9206704,3.09784927 22.8999121,3.10628102 22.8783383,3.10608649 L22.6706231,3.10608649 C22.6259651,3.10608649 22.5897626,3.06988059 22.5897626,3.02522255 L22.5897626,0.805637982 C22.5897626,0.264094955 22.8864985,0.0482195846 23.4569733,0.0482195846 C23.6973294,0.0482195846 24.0801187,0.056379822 24.2514837,0.0727002967 C24.2765593,0.0801519573 24.2933686,0.103684997 24.2922849,0.129821958 L24.2922849,0.333086053 C24.2937951,0.345694494 24.2897551,0.358337316 24.2812131,0.367733498 C24.2726711,0.37712968 24.2604694,0.382352839 24.2477745,0.382047478 L23.4614243,0.382047478 C23.0296736,0.382047478 22.9599407,0.496290801 22.9599407,0.805637982 L22.9599407,1.37240356 L24.2106825,1.37240356 C24.2322563,1.37220563 24.2530146,1.38063738 24.2683397,1.39582318 C24.2836648,1.41100897 24.2922858,1.43168939 24.2922849,1.45326409 L24.2922849,1.60830861 C24.2922849,1.65337635 24.2557502,1.68991098 24.2106825,1.68991098 Z" id="Path" fill="#24384C"></path>
            <path d="M26.4962908,3.11127596 C26.3412463,3.12759644 25.9421365,3.13204748 25.7017804,3.13204748 C25.1313056,3.13204748 24.8338279,2.91617211 24.8338279,2.37388724 L24.8338279,0.805637982 C24.8338279,0.264094955 25.1305638,0.0482195846 25.7017804,0.0482195846 C25.9421365,0.0482195846 26.3249258,0.056379822 26.4962908,0.0727002967 C26.5213664,0.0801519573 26.5381758,0.103684997 26.537092,0.129821958 L26.537092,0.333086053 C26.5386254,0.345827088 26.5344899,0.358599165 26.5257796,0.368023402 C26.5170693,0.37744764 26.5046619,0.382574433 26.4918398,0.382047478 L25.7054896,0.382047478 C25.2737389,0.382047478 25.2047478,0.496290801 25.2047478,0.805637982 L25.2047478,1.37240356 L26.4554896,1.37240356 C26.5002692,1.37240171 26.5366849,1.40848632 26.537092,1.45326409 L26.537092,1.60830861 C26.5366893,1.65320848 26.5003895,1.68950827 26.4554896,1.68991098 L25.2047478,1.68991098 L25.2047478,2.37388724 C25.2047478,2.68397626 25.2737389,2.79821958 25.7054896,2.79821958 L26.4918398,2.79821958 C26.5045175,2.79772273 26.516787,2.80275157 26.5254693,2.81200312 C26.5341515,2.82125467 26.538392,2.83381846 26.537092,2.84643917 L26.537092,3.05489614 C26.5380973,3.08084276 26.5212515,3.1041206 26.4962908,3.11127596 Z" id="Path" fill="#24384C"></path>
            <path d="M29.0949555,3.10313791 L28.8345697,3.10313791 C28.7856083,3.10313791 28.7603858,3.10313791 28.7284866,3.0504451 L27.9992582,1.83679525 L27.8931751,1.83679525 C27.7589021,1.83679525 27.6609792,1.83234421 27.4480712,1.82418398 L27.4480712,3.02225519 C27.4499513,3.04305875 27.4429737,3.06369094 27.4288526,3.07908301 C27.4147314,3.09447507 27.3947754,3.10320051 27.3738872,3.10313791 L27.1513353,3.10313791 C27.1304471,3.10320051 27.1104912,3.09447507 27.09637,3.07908301 C27.0822488,3.06369094 27.0752712,3.04305875 27.0771513,3.02225519 L27.0771513,0.170623145 C27.0771513,0.113501484 27.101632,0.0890207715 27.1750742,0.0808605341 C27.3501484,0.0600890208 27.6557864,0.0482195846 27.8916914,0.0482195846 C28.5356083,0.0482195846 29.0326409,0.264094955 29.0326409,0.924332344 L29.0326409,0.952522255 C29.0326409,1.40875371 28.7633531,1.6772997 28.3931751,1.77522255 L29.1350148,3.01409496 C29.1427749,3.0246696 29.1471696,3.0373366 29.1476261,3.0504451 C29.1480409,3.06453728 29.1426249,3.07817659 29.132656,3.08814557 C29.122687,3.09811456 29.1090477,3.10353047 29.0949555,3.10313791 L29.0949555,3.10313791 Z M28.6676558,0.924332344 C28.6676558,0.516320475 28.402819,0.382047478 27.8931751,0.382047478 C27.7670623,0.382047478 27.5430267,0.382047478 27.4480712,0.394658754 L27.4480712,1.5074184 C27.6275964,1.51186944 27.8026706,1.51557864 27.8931751,1.51557864 C28.3946588,1.51557864 28.6676558,1.38946588 28.6676558,0.949554896 L28.6676558,0.924332344 Z" id="Shape" fill="#24384C"></path>
            <path d="M31.2863501,3.11127596 C31.1320475,3.12759644 30.7329377,3.13204748 30.4925816,3.13204748 C29.9221068,3.13204748 29.6246291,2.91617211 29.6246291,2.37388724 L29.6246291,0.805637982 C29.6246291,0.264094955 29.921365,0.0482195846 30.4925816,0.0482195846 C30.7329377,0.0482195846 31.115727,0.056379822 31.2863501,0.0727002967 C31.3114258,0.0801519573 31.3282351,0.103684997 31.3271513,0.129821958 L31.3271513,0.333086053 C31.3286616,0.345694494 31.3246215,0.358337316 31.3160795,0.367733498 C31.3075376,0.37712968 31.2953358,0.382352839 31.2826409,0.382047478 L30.4962908,0.382047478 C30.0645401,0.382047478 29.995549,0.496290801 29.995549,0.805637982 L29.995549,1.37240356 L31.2462908,1.37240356 C31.2909488,1.37240356 31.3271513,1.40860606 31.3271513,1.45326409 L31.3271513,1.60830861 C31.3271532,1.65308823 31.2910686,1.68950389 31.2462908,1.68991098 L29.995549,1.68991098 L29.995549,2.37388724 C29.995549,2.68397626 30.0645401,2.79821958 30.4962908,2.79821958 L31.2826409,2.79821958 C31.2951915,2.79794141 31.3072572,2.80306563 31.3157721,2.81229005 C31.3242869,2.82151447 31.3284311,2.83395098 31.3271513,2.84643917 L31.3271513,3.05489614 C31.3281567,3.08084276 31.3113109,3.1041206 31.2863501,3.11127596 L31.2863501,3.11127596 Z" id="Path" fill="#24384C"></path>
            <path d="M33.8857567,3.10311573 L33.6327893,3.10311573 C33.5805872,3.10901286 33.529778,3.08375341 33.5029674,3.03857567 L32.2418398,0.646884273 C32.2373887,0.638724036 32.2336795,0.635014837 32.2292285,0.635014837 C32.2247774,0.635014837 32.2255193,0.635014837 32.2255193,0.646884273 L32.2255193,3.02596439 C32.2255193,3.06693507 32.192306,3.10014837 32.1513353,3.10014837 L31.9391691,3.10014837 C31.898368,3.10014837 31.8649722,3.09198813 31.8649722,3.05192878 L31.8649722,0.190652819 C31.8645041,0.15857008 31.8774501,0.127745581 31.9006951,0.105627623 C31.9239401,0.0835096636 31.9553695,0.0721102825 31.9873887,0.0741839763 L32.2099407,0.0741839763 C32.324184,0.0741839763 32.3442136,0.0949554896 32.3768546,0.15578635 L33.6290801,2.53709199 L33.6372404,2.54970326 C33.6409496,2.54970326 33.6409496,2.54154303 33.6409496,2.53709199 L33.6409496,0.154302671 C33.6409496,0.113331992 33.6741629,0.0801186944 33.7151335,0.0801186944 L33.9310089,0.0801186944 C33.9719796,0.0801186944 34.0051929,0.113331992 34.0051929,0.154302671 L34.0051929,2.9851632 C34.0051929,3.01670493 33.9925648,3.04693367 33.9701225,3.06909721 C33.9476802,3.09126074 33.9172959,3.10351248 33.8857567,3.10311573 Z" id="Path" fill="#24384C"></path>
            <path d="M36.3175074,3.07937685 C36.0946739,3.12034103 35.8681809,3.13799307 35.6416914,3.13204748 C35.1402077,3.13204748 34.5660237,2.86275964 34.5660237,1.87091988 L34.5660237,1.30712166 C34.5660237,0.308605341 35.1402077,0.0459940653 35.6416914,0.0459940653 C35.8710498,0.0496563682 36.0997575,0.071485304 36.3256677,0.111275964 C36.3627596,0.111275964 36.3909496,0.127596439 36.3909496,0.163946588 L36.3909496,0.370919881 C36.3909496,0.395400593 36.3827893,0.416172107 36.3419881,0.416172107 L36.3301187,0.416172107 C36.1817507,0.403560831 35.8850148,0.379080119 35.6454006,0.379080119 C35.2462908,0.379080119 34.9369436,0.611275964 34.9369436,1.3041543 L34.9369436,1.87017804 C34.9369436,2.55489614 35.2462908,2.79525223 35.6454006,2.79525223 C35.8775964,2.79525223 36.1706231,2.77448071 36.3175074,2.76261128 L36.3338279,2.76261128 C36.3783383,2.76261128 36.3991098,2.78264095 36.3991098,2.82789318 L36.3991098,2.99480712 C36.3991098,3.04673591 36.3627596,3.07121662 36.3175074,3.07937685 Z" id="Path" fill="#24384C"></path>
            <path d="M37.1973294,3.10311634 L36.9747774,3.10311634 C36.9538893,3.10320051 36.9339333,3.09447507 36.9198121,3.07908301 C36.905691,3.06369094 36.8987133,3.04305875 36.9005935,3.02225519 L36.9005935,0.154302671 C36.9005935,0.113331992 36.9338068,0.0801186944 36.9747774,0.0801186944 L37.1973294,0.0801186944 C37.2383001,0.0801186944 37.2715134,0.113331992 37.2715134,0.154302671 L37.2715134,3.02225519 C37.2733935,3.04305875 37.2664159,3.06369094 37.2522947,3.07908301 C37.2381735,3.09447507 37.2182175,3.10320051 37.1973294,3.10311634 Z" id="Path" fill="#24384C"></path>
            <path d="M40.0207715,3.10313361 L39.7804154,3.10313361 C39.7458231,3.10159767 39.7168818,3.07635101 39.7106825,3.04228487 L39.4458457,2.10534125 L38.3909496,2.10534125 L38.1305638,3.04154303 C38.1214208,3.07561838 38.091586,3.1000829 38.0563798,3.10237389 L37.8160237,3.10237389 C37.79321,3.10263246 37.7717437,3.09159563 37.75868,3.07289074 C37.7456162,3.05418585 37.7426447,3.03023209 37.7507418,3.00890208 L38.504451,0.356824926 C38.5592012,0.174145234 38.7273189,0.0490252639 38.9180267,0.0490252639 C39.1087345,0.0490252639 39.2768522,0.174145234 39.3316024,0.356824926 L40.0853116,3.01261128 C40.0872104,3.02216173 40.0872104,3.03199257 40.0853116,3.04154303 C40.0849227,3.05826815 40.0779033,3.07415319 40.0657987,3.08570129 C40.053694,3.0972494 40.0374964,3.10351389 40.0207715,3.10313361 Z M38.9977745,0.445103858 C38.985905,0.399851632 38.9614243,0.370919881 38.9235905,0.370919881 C38.8857567,0.370919881 38.8545994,0.399109792 38.8419881,0.445103858 L38.4710682,1.78486647 L39.3716617,1.78486647 L38.9977745,0.445103858 Z" id="Shape" fill="#24384C"></path>
            <path d="M0.0244807122,9.44510386 L2.0541543,10.9666172 L2.0541543,10.2054896 L3.76632047,10.2054896 L3.76632047,9.82492582 L1.6735905,9.82492582 L1.6735905,10.2054896 L0.658753709,9.44510386 L1.6735905,8.68397626 L1.6735905,9.06454006 L7.89836795,9.06454006 C7.89836795,9.06454006 7.87833828,8.92581602 7.86869436,8.87462908 C7.85459941,8.8041543 7.81379822,8.68397626 7.81379822,8.68397626 L2.0541543,8.68397626 L2.0541543,7.92284866 L0.0244807122,9.44510386 Z" id="Path" fill="#24384C"></path>
            <rect id="Rectangle" fill="#24384C" x="4.14688427" y="9.82492582" width="1" height="1"></rect>
            <polygon id="Path" fill="#24384C" points="7.85608309 4.57863501 7.85608309 5.33976261 3.0111276 5.33976261 3.0111276 5.72032641 8.23664688 5.72032641 8.23664688 5.33976261 9.25074184 6.10089021 8.23664688 6.86127596 8.23664688 6.48071217 6.14391691 6.48071217 6.14391691 6.86127596 7.85608309 6.86127596 7.85608309 7.62240356 9.88501484 6.10089021"></polygon>
            <rect id="Rectangle" fill="#24384C" x="5.38278932" y="6.48071217" width="1" height="1"></rect>
        </g>
    </g>
</svg>