<?xml version="1.0" encoding="UTF-8"?><svg width="56" height="36" viewBox="0 0 56 36" xmlns="http://www.w3.org/2000/svg"><defs><linearGradient x1="0%" y1="49.998%" x2="100%" y2="49.998%" id="a"><stop stop-color="#41E700" stop-opacity="0" offset="0%"/><stop stop-color="#3ACD00" offset="73.62%"/><stop stop-color="#36BE00" offset="78.11%"/><stop stop-color="#299100" offset="92.65%"/><stop stop-color="#248000" offset="100%"/></linearGradient><linearGradient x1="0%" y1="49.999%" x2="100%" y2="49.999%" id="b"><stop stop-color="#41E700" stop-opacity="0" offset="0%"/><stop stop-color="#3ACD00" offset="73.62%"/><stop stop-color="#36BE00" offset="78.11%"/><stop stop-color="#299100" offset="92.65%"/><stop stop-color="#248000" offset="100%"/></linearGradient></defs><g fill="none" fill-rule="evenodd"><path d="M0 3.75A3.749 3.749 0 013.75 0h48.5A3.756 3.756 0 0156 3.75v28.5A3.749 3.749 0 0152.25 36H3.75A3.756 3.756 0 010 32.25V3.75z" fill="#000" fill-rule="nonzero"/><path d="M1.25 3.75v28.5c0 1.375 1.123 2.5 2.5 2.5h48.5c1.382 0 2.5-1.118 2.5-2.5V3.75c0-1.375-1.123-2.5-2.5-2.5H3.75a2.499 2.499 0 00-2.5 2.5z" fill="#FFF"/><g fill-rule="nonzero"><g fill="#00AFD8"><path d="M7.57 26.347v-4.691H6.204v-1.452h4.4v1.452H9.235v4.691zM11.416 26.347v-6.143h1.74c.68 0 1.155.031 1.423.094.269.063.5.169.695.317.22.168.388.382.507.642.118.26.177.547.177.86 0 .476-.116.863-.348 1.16-.233.298-.571.496-1.016.594l1.664 2.476h-1.88l-1.402-2.405v2.405h-1.56zm1.56-3.24h.308c.36 0 .621-.06.787-.184.165-.123.248-.316.248-.58 0-.307-.077-.526-.232-.656-.154-.13-.413-.195-.777-.195h-.334v1.616z"/><path d="M16.175 26.347l2.106-6.143h2.085l2.11 6.143h-1.655l-.309-1.1h-2.365l-.317 1.1h-1.655zm2.331-2.295h1.656l-.622-2.027a5.147 5.147 0 01-.079-.298l-.129-.529c-.036.152-.072.296-.106.433-.035.137-.07.268-.107.394l-.613 2.027zM23.06 26.347v-6.143h1.606l2.306 3.16c.045.064.118.193.22.388.1.194.213.426.335.694a12.913 12.913 0 01-.073-.68 6.97 6.97 0 01-.023-.528v-3.034h1.597v6.143h-1.597l-2.306-3.172a3.497 3.497 0 01-.223-.388 14.319 14.319 0 01-.332-.686c.033.257.058.485.073.684.015.198.023.374.023.528v3.034H23.06zM30.61 24.362c.247.283.49.494.731.634.24.14.48.21.72.21.222 0 .405-.06.548-.18a.572.572 0 00.215-.458c0-.204-.062-.362-.186-.472-.124-.11-.404-.225-.84-.342-.598-.162-1.02-.374-1.268-.634s-.371-.617-.371-1.07c0-.587.195-1.066.586-1.437.39-.37.897-.556 1.52-.556.336 0 .655.045.957.136.302.091.587.229.857.414l-.521 1.204a2.19 2.19 0 00-.582-.367 1.534 1.534 0 00-.59-.124c-.2 0-.363.048-.488.145a.449.449 0 00-.188.371c0 .154.055.277.165.37.11.091.322.18.636.264l.075.02c.678.185 1.125.388 1.339.61.144.15.254.331.33.543.074.21.112.445.112.702 0 .652-.213 1.176-.638 1.572-.426.396-.993.594-1.702.594-.425 0-.812-.073-1.161-.219a3.288 3.288 0 01-1.008-.683l.751-1.247zM35.3 26.347v-6.143h3.742v1.347h-2.119v1.066h1.998v1.317h-1.998v2.413h-1.622zM39.947 26.347v-6.143h3.741v1.347h-2.119v1.066h1.998v1.317H41.57v1.037h2.119v1.376h-3.741zM44.789 26.347v-6.143h1.74c.68 0 1.155.031 1.423.094.269.063.5.169.695.317.22.168.388.382.507.642.118.26.177.547.177.86 0 .476-.116.863-.348 1.16-.233.298-.571.496-1.016.594l1.664 2.476h-1.88l-1.402-2.405v2.405h-1.56zm1.56-3.24h.309c.358 0 .62-.06.785-.184.166-.123.249-.316.249-.58 0-.307-.078-.526-.232-.656-.154-.13-.413-.195-.778-.195h-.333v1.616z"/></g><g fill="#006E90"><path d="M25.288 10.217l1.108 4.218c.052.19.1.388.144.594.045.206.09.443.139.71.06-.316.111-.575.154-.78.042-.204.083-.378.123-.524l1.036-4.218h2.428l-2.494 8.873h-2.229l-1.09-3.788c-.04-.133-.107-.394-.199-.782-.04-.173-.072-.309-.096-.406l-.085.358c-.092.392-.162.668-.21.83l-1.073 3.788H20.71l-2.488-8.873h2.428l1.012 4.242.141.655c.047.218.09.443.13.673a39.317 39.317 0 01.307-1.328l1.109-4.242h1.94zM31.312 19.09v-8.873h2.427v8.873zM35.68 19.09v-8.873h2.511c.984 0 1.67.045 2.057.136.388.091.722.244 1.003.458.318.242.562.551.732.927.171.376.256.79.256 1.243 0 .687-.167 1.245-.503 1.675-.335.43-.824.717-1.466.858l2.403 3.576h-2.717l-2.024-3.473v3.473H35.68zm2.252-4.679h.446c.518 0 .896-.089 1.136-.267.238-.177.358-.456.358-.836 0-.444-.111-.76-.334-.949-.223-.187-.598-.281-1.124-.281h-.482v2.333zM43.589 19.09v-8.873h5.404v1.945h-3.06v1.54h2.885v1.903h-2.886v1.497h3.06v1.988z"/></g><path fill="url(#a)" d="M.155.023h11.003V1.78H.155z" transform="translate(6.12 10.13)"/><path fill="url(#b)" d="M.155 3.433h11.003V5.19H.155zM.155 7.154h11.003v1.757H.155z" transform="translate(6.12 10.13)"/></g></g></svg>