<?xml version="1.0" encoding="UTF-8"?>
<svg width="56px" height="36px" viewBox="0 0 56 36" version="1.1" xmlns="http://www.w3.org/2000/svg" xmlns:xlink="http://www.w3.org/1999/xlink">
    <!-- Generator: Sketch 45.2 (43514) - http://www.bohemiancoding.com/sketch -->
    <title>Group 2</title>
    <desc>Created with Sketch.</desc>
    <defs></defs>
    <g id="Page-1" stroke="none" stroke-width="1" fill="none" fill-rule="evenodd">
        <g id="PM/wire-transfe">
            <g id="Group-2">
                <path d="M0,3.75075247 C0,1.67926908 1.67596877,0 3.75035585,0 L52.2496442,0 C54.3209085,0 56,1.68806916 56,3.75075247 L56,32.2492475 C56,34.3207309 54.3240312,36 52.2496442,36 L3.75035585,36 C1.67909151,36 0,34.3119308 0,32.2492475 L0,3.75075247 Z" id="Rectangle-2" fill="#000000" fill-rule="nonzero"></path>
                <path d="M1.25,3.75075247 L1.25,32.2492475 C1.25,33.6250965 2.37296468,34.75 3.75035585,34.75 L52.2496442,34.75 C53.6324061,34.75 54.75,33.6316447 54.75,32.2492475 L54.75,3.75075247 C54.75,2.37490355 53.6270353,1.25 52.2496442,1.25 L3.75035585,1.25 C2.36759386,1.25 1.25,2.36835527 1.25,3.75075247 Z" id="Path" fill="#FFFFFF"></path>
                <g id="Group" transform="translate(5.000000, 9.000000)" fill="#0274DE">
                    <path d="M5.74267578,4.48120117 L6.51733398,0.24609375 L8.1315918,0.24609375 L6.69824219,7 L5.00976562,7 L4.10522461,3.14990234 L3.21923828,7 L1.53540039,7 L0.0974121094,0.24609375 L1.71630859,0.24609375 L2.4909668,4.48120117 L3.41870117,0.24609375 L4.80102539,0.24609375 L5.74267578,4.48120117 Z M10.5019531,7 L8.87841797,7 L8.87841797,0.24609375 L10.5019531,0.24609375 L10.5019531,7 Z M14.1433105,4.61572266 L13.2619629,4.61572266 L13.2619629,7 L11.6337891,7 L11.6337891,0.24609375 L14.291748,0.24609375 C15.0926961,0.24609375 15.7189105,0.423907727 16.1704102,0.779541016 C16.6219098,1.1351743 16.8476562,1.63769207 16.8476562,2.28710937 C16.8476562,2.75716381 16.7525644,3.14680835 16.5623779,3.45605469 C16.3721914,3.76530103 16.0745463,4.0157868 15.6694336,4.20751953 L17.0795898,6.93041992 L17.0795898,7 L15.3354492,7 L14.1433105,4.61572266 Z M13.2619629,3.35864258 L14.291748,3.35864258 C14.6009944,3.35864258 14.8336988,3.27746663 14.9898682,3.1151123 C15.1460376,2.95275798 15.2241211,2.72623843 15.2241211,2.43554688 C15.2241211,2.14485532 15.1452645,1.91678956 14.9875488,1.75134277 C14.8298332,1.58589598 14.5979019,1.50317383 14.291748,1.50317383 L13.2619629,1.50317383 L13.2619629,3.35864258 Z M22.0197754,4.13793945 L19.4592285,4.13793945 L19.4592285,5.74755859 L22.4836426,5.74755859 L22.4836426,7 L17.8310547,7 L17.8310547,0.24609375 L22.4929199,0.24609375 L22.4929199,1.50317383 L19.4592285,1.50317383 L19.4592285,2.92724609 L22.0197754,2.92724609 L22.0197754,4.13793945 Z M5.43652344,11.7331543 L3.12182617,11.7331543 L3.12182617,18 L2.55126953,18 L2.55126953,11.7331543 L0.241210938,11.7331543 L0.241210938,11.2460938 L5.43652344,11.2460938 L5.43652344,11.7331543 Z M9.05004883,15.1889648 L7.08789062,15.1889648 L7.08789062,18 L6.51269531,18 L6.51269531,11.2460938 L8.70678711,11.2460938 C9.42733108,11.2460938 9.99015097,11.4208153 10.3952637,11.7702637 C10.8003764,12.119712 11.0029297,12.6083139 11.0029297,13.236084 C11.0029297,13.6690289 10.8761406,14.0509424 10.6225586,14.3818359 C10.3689766,14.7127295 10.0288107,14.9415684 9.60205078,15.0683594 L11.2905273,17.9396973 L11.2905273,18 L10.6828613,18 L9.05004883,15.1889648 Z M7.08789062,14.7019043 L8.83666992,14.7019043 C9.31600175,14.7019043 9.70100766,14.5658379 9.99169922,14.2937012 C10.2823908,14.0215644 10.4277344,13.6690289 10.4277344,13.236084 C10.4277344,12.7598446 10.2762059,12.3903008 9.97314453,12.1274414 C9.67008312,11.864582 9.24487578,11.7331543 8.69750977,11.7331543 L7.08789062,11.7331543 L7.08789062,14.7019043 Z M16.2028809,16.1074219 L13.1367188,16.1074219 L12.440918,18 L11.8425293,18 L14.3984375,11.2460938 L14.9411621,11.2460938 L17.4970703,18 L16.9033203,18 L16.2028809,16.1074219 Z M13.3129883,15.6203613 L16.0219727,15.6203613 L14.6674805,11.9418945 L13.3129883,15.6203613 Z M23.5180664,18 L22.9475098,18 L19.0649414,12.2202148 L19.0649414,18 L18.4897461,18 L18.4897461,11.2460938 L19.0649414,11.2460938 L22.9521484,17.0305176 L22.9521484,11.2460938 L23.5180664,11.2460938 L23.5180664,18 Z M29.0566406,16.3393555 C29.0566406,15.9651674 28.9252129,15.6690685 28.6623535,15.4510498 C28.3994941,15.2330311 27.9186233,15.0258392 27.2197266,14.8294678 C26.5208298,14.6330963 26.010581,14.4189465 25.6889648,14.1870117 C25.2312803,13.8592106 25.0024414,13.4293646 25.0024414,12.8974609 C25.0024414,12.3810196 25.2150451,11.9612239 25.6402588,11.6380615 C26.0654725,11.3148991 26.6089648,11.1533203 27.270752,11.1533203 C27.7191591,11.1533203 28.1204002,11.239908 28.4744873,11.4130859 C28.8285744,11.5862639 29.1030264,11.8274724 29.2978516,12.1367188 C29.4926768,12.4459651 29.5900879,12.7907696 29.5900879,13.1711426 L29.0148926,13.1711426 C29.0148926,12.7103655 28.8571793,12.3400486 28.541748,12.0601807 C28.2263168,11.7803127 27.8026557,11.6403809 27.270752,11.6403809 C26.7543106,11.6403809 26.3430191,11.7555734 26.0368652,11.9859619 C25.7307114,12.2163504 25.5776367,12.517088 25.5776367,12.8881836 C25.5776367,13.231447 25.7152493,13.5113108 25.9904785,13.7277832 C26.2657078,13.9442556 26.7063772,14.1352124 27.3125,14.3006592 C27.9186228,14.466106 28.3778467,14.6377351 28.6901855,14.8155518 C29.0025243,14.9933684 29.237548,15.2059721 29.3952637,15.4533691 C29.5529793,15.7007662 29.6318359,15.9929996 29.6318359,16.3300781 C29.6318359,16.8619818 29.4192323,17.2887354 28.9940186,17.6103516 C28.5688048,17.9319678 28.0083043,18.0927734 27.3125,18.0927734 C26.8362606,18.0927734 26.3994567,18.007732 26.0020752,17.8376465 C25.6046937,17.667561 25.303183,17.4294449 25.0975342,17.123291 C24.8918854,16.8171371 24.7890625,16.4661478 24.7890625,16.0703125 L25.3596191,16.0703125 C25.3596191,16.5465519 25.5374331,16.9222805 25.8930664,17.1975098 C26.2486997,17.472739 26.7218395,17.6103516 27.3125,17.6103516 C27.8382188,17.6103516 28.2603337,17.4943859 28.5788574,17.2624512 C28.8973811,17.0305164 29.0566406,16.7228209 29.0566406,16.3393555 Z M34.5812988,14.8457031 L31.4316406,14.8457031 L31.4316406,18 L30.861084,18 L30.861084,11.2460938 L35.045166,11.2460938 L35.045166,11.7331543 L31.4316406,11.7331543 L31.4316406,14.3586426 L34.5812988,14.3586426 L34.5812988,14.8457031 Z M39.9343262,14.762207 L36.7753906,14.762207 L36.7753906,17.5175781 L40.4074707,17.5175781 L40.4074707,18 L36.204834,18 L36.204834,11.2460938 L40.3842773,11.2460938 L40.3842773,11.7331543 L36.7753906,11.7331543 L36.7753906,14.2797852 L39.9343262,14.2797852 L39.9343262,14.762207 Z M44.1323242,15.1889648 L42.170166,15.1889648 L42.170166,18 L41.5949707,18 L41.5949707,11.2460938 L43.7890625,11.2460938 C44.5096065,11.2460938 45.0724264,11.4208153 45.4775391,11.7702637 C45.8826518,12.119712 46.0852051,12.6083139 46.0852051,13.236084 C46.0852051,13.6690289 45.958416,14.0509424 45.704834,14.3818359 C45.451252,14.7127295 45.1110861,14.9415684 44.6843262,15.0683594 L46.3728027,17.9396973 L46.3728027,18 L45.7651367,18 L44.1323242,15.1889648 Z M42.170166,14.7019043 L43.9189453,14.7019043 C44.3982771,14.7019043 44.7832831,14.5658379 45.0739746,14.2937012 C45.3646662,14.0215644 45.5100098,13.6690289 45.5100098,13.236084 C45.5100098,12.7598446 45.3584813,12.3903008 45.0554199,12.1274414 C44.7523585,11.864582 44.3271512,11.7331543 43.7797852,11.7331543 L42.170166,11.7331543 L42.170166,14.7019043 Z" id="WIRE-transfer"></path>
                </g>
            </g>
        </g>
    </g>
</svg>