<?xml version="1.0" encoding="UTF-8"?><svg width="56" height="36" viewBox="0 0 56 36" xmlns="http://www.w3.org/2000/svg"><g fill="none" fill-rule="evenodd"><path d="M0 3.75A3.749 3.749 0 013.75 0h48.5A3.756 3.756 0 0156 3.75v28.5A3.749 3.749 0 0152.25 36H3.75A3.756 3.756 0 010 32.25V3.75z" fill="#000" fill-rule="nonzero"/><path d="M1.25 3.75v28.5c0 1.375 1.123 2.5 2.5 2.5h48.5c1.382 0 2.5-1.118 2.5-2.5V3.75c0-1.375-1.123-2.5-2.5-2.5H3.75a2.499 2.499 0 00-2.5 2.5z" fill="#FFF"/><g fill-rule="nonzero" fill="#FFDC00"><path d="M8.352 16.998h-.01l-.296-1.9H6.733l-.297 1.9h-.01l-.27-1.9H5.022l.69 3.018H7.09l.297-1.955h.008l.297 1.955h1.377l.69-3.018H8.624zM11.714 16.993h1.128v-.786h-1.128v-.322h1.22v-.787H10.5v3.018h2.476v-.785h-1.26zM16.185 16.353c-.323-.13-.771-.212-1.015-.28-.134-.039-.209-.084-.209-.192 0-.092.09-.176.294-.176.164 0 .276.063.28.25h1.135c0-.702-.6-.936-1.398-.936-.935 0-1.472.357-1.472.983 0 .388.173.67.664.807l.9.251c.122.033.214.093.214.205 0 .132-.119.246-.306.246-.12 0-.2-.038-.247-.095a.37.37 0 01-.068-.231H13.74c0 .786.71 1.012 1.482 1.012.906 0 1.544-.31 1.544-1.05 0-.363-.177-.635-.582-.794zM18.244 18.116h1.268V15.91h.79v-.812h-2.848v.812h.79zM22.344 16.993h1.126v-.786h-1.126v-.322h1.219v-.787h-2.436v3.018h2.477v-.785h-1.26zM26.86 16.591v-.008c.478-.11.634-.372.634-.718 0-.57-.404-.767-1.092-.767h-1.894v3.018h1.241v-1.072h.147c.204 0 .285.057.31.208.046.26.086.639.162.864h1.24c-.145-.455-.136-.881-.208-1.14-.062-.23-.231-.36-.54-.385zm-1.003-.233h-.108v-.573h.116c.248 0 .414.046.414.267 0 .225-.179.306-.422.306zM30.665 16.927h-.01l-.676-1.829h-1.522v3.018h1.028v-1.84h.01l.68 1.84h1.52v-3.018h-1.03zM15.472 20.67c0 .238-.12.33-.253.33s-.252-.092-.252-.33v-1.956h-1.27v2.005c0 .73.555 1.092 1.522 1.092.966 0 1.521-.363 1.521-1.092v-2.005h-1.268v1.955zM19.965 20.54h-.01l-.677-1.826h-1.522v3.018h1.03v-1.84h.01l.677 1.84h1.521v-3.018h-1.029zM22.033 18.714h1.268v3.019h-1.268zM25.877 18.635c-1.103 0-1.653.647-1.653 1.587 0 .942.55 1.59 1.653 1.59 1.106 0 1.656-.648 1.656-1.59 0-.94-.55-1.587-1.656-1.587zm0 2.39c-.193 0-.34-.105-.34-.803 0-.68.138-.803.34-.803.206 0 .343.122.343.803 0 .698-.146.803-.343.803zM30.665 20.54h-.01l-.676-1.826h-1.522v3.018h1.028v-1.84h.01l.68 1.84h1.52v-3.018h-1.03zM43.637 15.056h-.542l-.603 4.236h-.02l-.664-4.236H38.88l-.665 4.236h-.018l-.605-4.236H35.06l1.545 6.732h3.068l.662-4.362h.02l.662 4.362h3.07l.153-.674 1.388-6.058zM47.594 19.42c0 .532-.267.738-.564.738-.297 0-.564-.207-.564-.738v-4.364h-.604l-1.425 6.226c.578.454 1.454.685 2.593.685 2.156 0 3.395-.813 3.395-2.436v-4.475h-2.83v4.364zM32.783 15.056l1.517 6.732h.42l-1.517-6.732zM33.935 15.056l1.517 6.732h.42l-1.517-6.732z"/></g></g></svg>