<?xml version="1.0" encoding="UTF-8"?>
<svg width="56px" height="36px" viewBox="0 0 56 36" version="1.1" xmlns="http://www.w3.org/2000/svg" xmlns:xlink="http://www.w3.org/1999/xlink">
    <!-- Generator: Sketch 46.2 (44496) - http://www.bohemiancoding.com/sketch -->
    <title>PM/ANDEXMONEY</title>
    <desc>Created with Sketch.</desc>
    <defs></defs>
    <g id="Page-1" stroke="none" stroke-width="1" fill="none" fill-rule="evenodd">
        <g id="PM/ANDEXMONEY">
            <path d="M0,3.75075247 C0,1.67926908 1.67596877,0 3.75035585,0 L52.2496442,0 C54.3209085,0 56,1.68806916 56,3.75075247 L56,32.2492475 C56,34.3207309 54.3240312,36 52.2496442,36 L3.75035585,36 C1.67909151,36 0,34.3119308 0,32.2492475 L0,3.75075247 Z" id="Rectangle-2" fill="#000000" fill-rule="nonzero"></path>
            <path d="M1.25,3.75075247 L1.25,32.2492475 C1.25,33.6250965 2.37296468,34.75 3.75035585,34.75 L52.2496442,34.75 C53.6324061,34.75 54.75,33.6316447 54.75,32.2492475 L54.75,3.75075247 C54.75,2.37490355 53.6270353,1.25 52.2496442,1.25 L3.75035585,1.25 C2.36759386,1.25 1.25,2.36835527 1.25,3.75075247 Z" id="Path" fill="#FFFFFF"></path>
            <g id="yandexmoney" transform="translate(4.000000, 7.000000)" fill-rule="nonzero">
                <g id="Layer_1">
                    <g id="Group">
                        <path d="M4.39911111,4.22282051 L4.00166667,4.22282051 C3.37555556,4.22282051 2.77122222,3.75974359 2.77122222,2.6075641 C2.77122222,1.45538462 3.31566667,0.915128205 3.91455556,0.915128205 L4.39911111,0.915128205 L4.39911111,4.22282051 L4.39911111,4.22282051 Z M5.02522222,0.303205128 L3.93633333,0.303205128 C2.88011111,0.303205128 1.98177778,1.11910256 1.98177778,2.70679487 C1.93004492,3.5632022 2.41313285,4.36083327 3.19044444,4.7024359 L1.74222222,7.35410256 C1.7181035,7.38272841 1.71323182,7.42318495 1.72985079,7.45684032 C1.74646976,7.4904957 1.78135657,7.51082333 1.81844444,7.50846154 L2.48811111,7.50846154 C2.5365648,7.51488601 2.58331115,7.48783833 2.60244444,7.44230769 L3.91455556,4.84025641 L4.39911111,4.84025641 L4.39911111,7.44230769 C4.40171042,7.47769601 4.42949506,7.50582958 4.46444444,7.50846154 L5.05244444,7.50846154 C5.07362922,7.51246984 5.09540338,7.50564164 5.11064256,7.49021107 C5.12588174,7.4747805 5.13262525,7.45273289 5.12866667,7.43128205 L5.12866667,0.407948718 C5.13087043,0.380444809 5.12023542,0.353481522 5.09992609,0.335081797 C5.07961675,0.316682072 5.05197373,0.308966469 5.02522222,0.314230769 L5.02522222,0.303205128 Z" id="Shape" fill="#ED1C24"></path>
                        <path d="M8.59133333,2.69025641 L8.00333333,2.69025641 C7.98454919,2.68873671 7.96594203,2.69486448 7.9516346,2.70728202 C7.93732716,2.71969955 7.92850079,2.73738155 7.92711111,2.75641026 L7.92711111,4.59217949 L6.83822222,4.59217949 L6.83822222,2.75641026 C6.84246594,2.73787454 6.83696978,2.7184332 6.82368235,2.70497889 C6.81039491,2.69152458 6.7911947,2.6859594 6.77288889,2.69025641 L6.18488889,2.69025641 C6.16576818,2.68698185 6.14619893,2.69247733 6.13147522,2.70525614 C6.11675152,2.71803495 6.10839511,2.73677637 6.10866667,2.75641026 L6.10866667,7.42576923 C6.10543272,7.44513007 6.11086004,7.46494509 6.12348035,7.47985371 C6.13610067,7.49476233 6.15460964,7.50322368 6.174,7.50294872 L6.76744444,7.50294872 C6.7868348,7.50322368 6.80534377,7.49476233 6.81796409,7.47985371 C6.83058441,7.46494509 6.83601172,7.44513007 6.83277778,7.42576923 L6.83277778,5.22064103 L7.92166667,5.22064103 L7.92166667,7.42576923 C7.920004,7.44670942 7.92749887,7.46733381 7.94216935,7.48218854 C7.95683983,7.49704327 7.97720842,7.50463227 7.99788889,7.50294872 L8.58588889,7.50294872 C8.60527925,7.50322368 8.62378822,7.49476233 8.63640853,7.47985371 C8.64902885,7.46494509 8.65445617,7.44513007 8.65122222,7.42576923 L8.65122222,2.75641026 C8.65122222,2.7198745 8.62197149,2.69025641 8.58588889,2.69025641 L8.59133333,2.69025641 Z M21.9792222,7.19423077 L21.903,6.86897436 C21.9016431,6.85723834 21.8956919,6.84654451 21.8864804,6.83929008 C21.877269,6.83203566 21.8655678,6.82882744 21.854,6.83038462 C21.6358732,6.89301442 21.4109568,6.92819395 21.1843333,6.93512821 C20.4656667,6.93512821 20.0954444,6.235 20.0954444,5.12141026 C20.0954444,4.14012821 20.3894444,3.16987179 20.8794444,3.16987179 C21.0913595,3.1838957 21.2882465,3.28556913 21.4238889,3.45102564 C21.442154,3.47498674 21.4702209,3.48919644 21.5001111,3.48961538 C21.5387341,3.48490364 21.5719406,3.45968594 21.5872222,3.42346154 L21.8431111,2.99897436 C21.8605626,2.97292712 21.8700323,2.94224329 21.8703333,2.91076923 C21.858272,2.86500715 21.8229723,2.82926407 21.7777778,2.81705128 C21.5090592,2.66125708 21.205411,2.57774896 20.8957778,2.57448718 C20.0083333,2.57448718 19.3168889,3.67705128 19.3168889,5.33089744 C19.3168889,6.78076923 19.9811111,7.61871795 20.9502222,7.61871795 C21.30307,7.60525114 21.6456295,7.49471281 21.9411111,7.29897436 C21.9752041,7.27636383 21.9906789,7.23383351 21.9792222,7.19423077 L21.9792222,7.19423077 Z M17.8686667,4.86230769 L19.0011111,2.75641026 C19.0122466,2.74536608 19.0156176,2.72856889 19.0096225,2.71399987 C19.0036274,2.69943084 18.9894746,2.69002693 18.9738889,2.69025641 L18.4294444,2.69025641 C18.3073466,2.67689648 18.1930927,2.75325107 18.1572222,2.87217949 L17.3078889,4.66935897 C17.2807848,4.74957909 17.2316859,4.8203281 17.1663333,4.87333333 L17.1663333,2.76192308 C17.1678448,2.74582582 17.1629445,2.72978397 17.1527212,2.71736195 C17.1424979,2.70493993 17.1277984,2.69716662 17.1118889,2.69576923 L16.4966667,2.69576923 C16.4648883,2.70120494 16.441772,2.72929292 16.4422222,2.76192308 L16.4422222,7.44230769 C16.441772,7.47493785 16.4648883,7.50302583 16.4966667,7.50846154 L17.1118889,7.50846154 C17.1277984,7.50706415 17.1424979,7.49929084 17.1527212,7.48686882 C17.1629445,7.4744468 17.1678448,7.45840495 17.1663333,7.44230769 L17.1663333,5.03320513 C17.1954988,5.0561723 17.218058,5.08662893 17.2316667,5.12141026 L18.3205556,7.37064103 C18.3691878,7.47212547 18.4770747,7.53009051 18.5873333,7.51397436 L19.1916667,7.51397436 C19.2072524,7.51420384 19.2214051,7.50479993 19.2274003,7.4902309 C19.2333954,7.47566187 19.2300244,7.45886469 19.2188889,7.44782051 L17.8958889,4.87333333 L17.8686667,4.86230769 Z M11.4278889,6.89653846 L10.0558889,6.89653846 C10.5304246,5.99505695 10.7825934,4.99073661 10.7908889,3.96923077 C10.7908889,3.72115385 10.8181111,3.46205128 10.8181111,3.29666667 L11.4224444,3.29666667 L11.4224444,6.89653846 L11.4278889,6.89653846 Z M12.4514444,6.89653846 L12.3371111,6.89653846 C12.2887831,6.908529 12.2377451,6.89495094 12.2014793,6.86045524 C12.1652135,6.82595955 12.1486433,6.77522916 12.1574444,6.72564103 L12.1574444,2.75641026 C12.1607567,2.73999753 12.1565189,2.72295025 12.1459277,2.7100811 C12.1353364,2.69721194 12.1195407,2.68991725 12.103,2.69025641 L10.2137778,2.69025641 C10.1946571,2.68698185 10.1750878,2.69247733 10.1603641,2.70525614 C10.1456404,2.71803495 10.137284,2.73677637 10.1375556,2.75641026 L10.1375556,3.10371795 C10.1375556,4.26692308 10.0722222,5.76641026 9.46788889,6.89653846 L9.261,6.89653846 C9.23981522,6.89253016 9.21804107,6.89935836 9.20280188,6.91478893 C9.1875627,6.9302195 9.18081919,6.95226711 9.18477778,6.97371795 L9.18477778,8.37397436 C9.18477778,8.41051012 9.21402851,8.44012821 9.25011111,8.44012821 L9.702,8.44012821 C9.74047637,8.44353599 9.77847041,8.42953321 9.80578119,8.40187943 C9.83309197,8.37422566 9.84692107,8.33575446 9.84355556,8.29679487 L9.84355556,7.4974359 L11.8688889,7.4974359 L11.8688889,8.37397436 C11.8688889,8.41051012 11.8981396,8.44012821 11.9342222,8.44012821 L12.4187778,8.44012821 C12.4530961,8.4374092 12.4847956,8.42050519 12.506425,8.39338963 C12.5280544,8.36627407 12.537706,8.3313385 12.5331111,8.29679487 L12.5331111,6.97371795 C12.5347738,6.95277776 12.5272789,6.93215337 12.5126084,6.91729864 C12.4979379,6.90244391 12.4775694,6.89485491 12.4568889,6.89653846 L12.4514444,6.89653846 Z M14.2753333,4.65833333 C14.0575556,4.65833333 13.7308889,4.69692308 13.7308889,4.69692308 C13.7254063,4.59776995 13.7254063,4.4983839 13.7308889,4.39923077 C13.818,3.58333333 14.014,3.16987179 14.3461111,3.16987179 C14.6782222,3.16987179 14.8361111,3.59435897 14.8905556,4.33307692 L14.8905556,4.65833333 L14.2644444,4.65833333 L14.2753333,4.65833333 Z M14.3787778,2.57448718 C13.3606667,2.57448718 12.9033333,3.88102564 12.9033333,5.30333333 C12.9033333,6.72564103 13.5457778,7.61871795 14.4931111,7.61871795 C14.8781081,7.6148753 15.2547056,7.50429041 15.582,7.29897436 C15.5989459,7.29283785 15.6126415,7.27989504 15.619855,7.26319985 C15.6270686,7.24650466 15.6271612,7.22753585 15.6201111,7.21076923 L15.5438889,6.88551282 C15.5412305,6.86785304 15.5316318,6.8520325 15.5172757,6.84164941 C15.5029197,6.83126632 15.4850268,6.82720336 15.4676667,6.83038462 C15.2405836,6.89454368 15.0064751,6.92973059 14.7707778,6.93512821 C14.0412222,6.93512821 13.6818889,6.29012821 13.6818889,5.44666667 L13.6818889,5.22064103 C13.6818889,5.22064103 14.0521111,5.26474359 14.2698889,5.26474359 L15.6527778,5.26474359 L15.6527778,4.86230769 C15.6527778,3.37384615 15.1083333,2.57448718 14.3733333,2.57448718 L14.3787778,2.57448718 Z M20.2968889,15.1216667 L20.6616667,15.1216667 C21.0782531,15.1009038 21.4833297,15.2637026 21.7724607,15.5680907 C22.0615917,15.8724788 22.2064825,16.2886685 22.1697778,16.709359 C22.1697778,17.8560256 21.6253333,18.5010256 20.7161111,18.5010256 L20.2968889,18.5010256 L20.2968889,15.1216667 L20.2968889,15.1216667 Z M19.208,19.5319231 L20.7705556,19.5319231 C22.197,19.5319231 23.3893333,18.6994872 23.3893333,16.7148718 C23.3893333,14.7302564 22.2187778,14.1128205 20.6671111,14.1128205 L20.2751111,14.1128205 L20.2751111,11.1634615 C20.2723766,11.1067998 20.2276257,11.0614868 20.1716667,11.0587179 L19.0827778,11.0587179 C19.0515103,11.0551657 19.0203458,11.0662159 18.9980976,11.0887435 C18.9758494,11.1112711 18.9649363,11.142827 18.9684444,11.1744872 L18.9684444,19.3830769 C18.9684444,19.4878205 19.0283333,19.5319231 19.1698889,19.5319231 L19.208,19.5319231 Z M17.3732222,11.0311538 L16.3387778,11.0311538 C16.2725379,11.030628 16.2163893,11.0803751 16.2081111,11.1469231 L16.2081111,14.3774359 L14.2916667,14.3774359 L14.2916667,11.1469231 C14.2976045,11.1147468 14.2874893,11.0816754 14.2646305,11.0585295 C14.2417717,11.0353837 14.2091105,11.0251414 14.1773333,11.0311538 L13.1428889,11.0311538 C13.110208,11.0281045 13.077723,11.0387671 13.0530239,11.0606502 C13.0283248,11.0825333 13.0135756,11.1137198 13.0122222,11.1469231 L13.0122222,19.3720513 C13.0032683,19.4066593 13.0114545,19.4435149 13.0341798,19.4709086 C13.0569052,19.4983024 13.0913443,19.5128285 13.1265556,19.5098718 L14.1991111,19.5098718 C14.2329662,19.5086361 14.2647212,19.4929417 14.2865107,19.4666761 C14.3083002,19.4404105 14.318086,19.4060303 14.3134444,19.3720513 L14.3134444,15.4469231 L16.2298889,15.4469231 L16.2298889,19.3720513 C16.2246764,19.4089829 16.2365401,19.4462885 16.2620558,19.4732012 C16.2875715,19.5001139 16.3238998,19.5136386 16.3605556,19.5098718 L17.395,19.5098718 C17.4288551,19.5086361 17.4606101,19.4929417 17.4823996,19.4666761 C17.504189,19.4404105 17.5139749,19.4060303 17.5093333,19.3720513 L17.5093333,11.1469231 C17.5093333,11.0829855 17.4581446,11.0311538 17.395,11.0311538 L17.3732222,11.0311538 Z M4.361,18.4458974 L1.94366667,18.4458974 C2.78257143,16.8575354 3.22904085,15.0870597 3.24488889,13.2858974 C3.27755556,12.8448718 3.29388889,12.3873077 3.29388889,12.100641 L4.38277778,12.100641 L4.38277778,18.4458974 L4.361,18.4458974 Z M6.16311111,18.4458974 L5.96166667,18.4458974 C5.87639842,18.4656547 5.78702238,18.4409057 5.72355041,18.3799608 C5.66007843,18.319016 5.63092847,18.2299581 5.64588889,18.1426923 L5.64588889,11.1524359 C5.65303431,11.1230614 5.64573651,11.0920008 5.62629269,11.0690315 C5.60684887,11.0460621 5.57765059,11.0340092 5.54788889,11.0366667 L2.22133333,11.0366667 C2.18865246,11.0336174 2.15616741,11.0442799 2.13146835,11.066163 C2.10676928,11.0880461 2.09202,11.1192327 2.09066667,11.1524359 L2.09066667,11.764359 C2.09066667,13.8096154 1.97633333,16.4502564 0.909222222,18.4514103 L0.544444444,18.4514103 C0.506393143,18.4429884 0.466725169,18.4547604 0.439183556,18.4826479 C0.411641942,18.5105354 0.400015916,18.5507016 0.408333333,18.5892308 L0.408333333,21.0589744 C0.408333333,21.1229119 0.45952211,21.1747436 0.522666667,21.1747436 L1.323,21.1747436 C1.39081149,21.1797273 1.45741302,21.1546147 1.50548912,21.1059348 C1.55356522,21.0572549 1.57836631,20.989817 1.57344444,20.9211538 L1.57344444,19.5153846 L5.13955556,19.5153846 L5.13955556,21.0589744 C5.13955556,21.1229119 5.19074433,21.1747436 5.25388889,21.1747436 L6.10322222,21.1747436 C6.1642302,21.1708205 6.22080078,21.1411146 6.25911508,21.0928824 C6.29742939,21.0446502 6.3139592,20.9823331 6.30466667,20.9211538 L6.30466667,18.6002564 C6.30785184,18.5637819 6.29530866,18.5276939 6.27026484,18.501279 C6.24522102,18.474864 6.21012211,18.4607015 6.174,18.4624359 L6.16311111,18.4458974 Z M9.36988889,14.5042308 C8.98877778,14.5042308 8.38444444,14.5703846 8.38444444,14.5703846 C8.38491492,14.3861427 8.39582172,14.2020797 8.41711111,14.0191026 C8.56411111,12.5802564 8.918,11.8525641 9.506,11.8525641 C10.094,11.8525641 10.3716667,12.5967949 10.4533333,13.8978205 L10.4533333,14.4491026 L9.36444444,14.4491026 L9.36988889,14.5042308 Z M9.555,10.8326923 C7.75833333,10.8326923 6.958,13.1370513 6.958,15.6398718 C6.958,18.1426923 8.09044444,19.719359 9.75644444,19.719359 C10.4272935,19.7122568 11.0837892,19.5217867 11.6565556,19.1680769 C11.7156824,19.1426817 11.7445045,19.0745856 11.7218889,19.0137179 L11.5912222,18.4624359 C11.5871873,18.4315918 11.571061,18.4036905 11.5464789,18.3850224 C11.5218968,18.3663543 11.4909284,18.3584909 11.4605556,18.3632051 C11.0598285,18.4778507 10.6464136,18.5408269 10.2301111,18.550641 C8.94522222,18.550641 8.34633333,17.415 8.34633333,15.9265385 L8.34633333,15.5241026 C8.34633333,15.5241026 8.99422222,15.6012821 9.38077778,15.6012821 L11.8144444,15.6012821 L11.8144444,14.8901282 C11.8144444,12.2660256 10.8997778,10.8602564 9.56588889,10.8602564 L9.555,10.8326923 Z M28.0987778,11.0311538 L24.6034444,11.0311538 C24.5707636,11.0281045 24.5382785,11.0387671 24.5135795,11.0606502 C24.4888804,11.0825333 24.4741311,11.1137198 24.4727778,11.1469231 L24.4727778,19.3720513 C24.4638239,19.4066593 24.47201,19.4435149 24.4947354,19.4709086 C24.5174607,19.4983024 24.5518998,19.5128285 24.5871111,19.5098718 L25.6324444,19.5098718 C25.6662995,19.5086361 25.6980545,19.4929417 25.719844,19.4666761 C25.7416335,19.4404105 25.7514194,19.4060303 25.7467778,19.3720513 L25.7467778,12.100641 L28.0933333,12.100641 C28.1241141,12.1022426 28.1541233,12.0905607 28.1759173,12.0684929 C28.1977113,12.0464252 28.2092483,12.0160391 28.2076667,11.9848718 L28.2076667,11.1469231 C28.2076667,11.0829855 28.1564779,11.0311538 28.0933333,11.0311538 L28.0987778,11.0311538 Z M33.2818889,11.0311538 L32.3291111,11.0311538 C32.2792327,11.031016 32.2332749,11.0585139 32.2093333,11.1028205 L30.2547778,16.5053846 L30.1241111,16.9353846 L30.1241111,11.1524359 C30.130049,11.1202596 30.1199337,11.0871882 30.097075,11.0640424 C30.0742162,11.0408965 30.0415549,11.0306542 30.0097778,11.0366667 L29.0297778,11.0366667 C28.998997,11.0350651 28.9689878,11.046747 28.9471938,11.0688147 C28.9253998,11.0908825 28.9138628,11.1212686 28.9154444,11.1524359 L28.9154444,19.289359 C28.9154444,19.4602564 28.9481111,19.5098718 29.0297778,19.5098718 L29.988,19.5098718 C30.0339646,19.510487 30.0753595,19.4818085 30.0914444,19.4382051 L32.095,13.9970513 L32.1766667,13.7158974 L32.1766667,19.3720513 C32.1732781,19.4095507 32.1865259,19.446635 32.2128225,19.4732619 C32.2391191,19.4998887 32.2757435,19.5133029 32.3127778,19.5098718 L33.2655556,19.5098718 C33.3472222,19.5098718 33.3798889,19.4437179 33.3798889,19.289359 L33.3798889,11.1028205 C33.3665271,11.0520489 33.3163947,11.0206248 33.2655556,11.0311538 L33.2818889,11.0311538 Z" id="Shape" fill="#231F20"></path>
                        <path d="M43.5991111,10.4964103 C44.0292222,10.2097436 44.4321111,10.3034615 44.5083333,10.7058974 C44.5470321,11.1913646 44.3135571,11.6577895 43.904,11.9132051 C43.4738889,12.1998718 43.071,12.1061538 42.9947778,11.7037179 C42.9560791,11.2182508 43.189554,10.7518259 43.5991111,10.4964103 L43.5991111,10.4964103 Z M47.9873333,11.0035897 L47.3176667,11.0035897 L47.3176667,15.2429487 C47.3176667,16.0037179 46.9964444,16.4447436 46.0436667,16.6652564 L39.9567778,18.4073077 C39.9567778,18.4073077 39.4123333,18.550641 39.4123333,18.0710256 C39.4123333,17.5914103 39.8751111,17.6244872 39.9567778,17.5528205 L39.9295556,17.5528205 L45.4883333,15.3146154 C45.9565147,15.0348205 46.264153,14.5450248 46.3158889,13.9970513 L46.3158889,7.31 C46.3158889,6.25153846 45.2977778,6.61538462 45.08,6.75871795 C44.8622222,6.90205128 38.6446667,10.4192308 38.6446667,10.4192308 C38.1750208,10.7001382 37.8671693,11.192324 37.8171111,11.7423077 L37.8171111,18.4073077 C37.9215504,18.9666288 38.3536163,19.4041208 38.906,19.5098718 L47.9546667,19.5098718 C48.4584296,19.5481165 48.8994235,19.1702815 48.9455556,18.6608974 L48.9455556,11.8580769 C48.8994235,11.3486929 48.4584296,10.9708579 47.9546667,11.0091026 L47.9873333,11.0035897 Z" id="Shape" fill="#F36917"></path>
                    </g>
                </g>
            </g>
        </g>
    </g>
</svg>