<?xml version="1.0" encoding="UTF-8"?><svg width="56" height="36" viewBox="0 0 56 36" xmlns="http://www.w3.org/2000/svg"><g fill="none" fill-rule="evenodd"><path d="M0 3.75A3.75 3.75 0 013.75 0h48.5A3.76 3.76 0 0156 3.75v28.5A3.75 3.75 0 0152.25 36H3.75A3.76 3.76 0 010 32.25V3.75z" fill="#000" fill-rule="nonzero"/><path d="M1.25 3.75v28.5a2.5 2.5 0 002.5 2.5h48.5a2.5 2.5 0 002.5-2.5V3.75a2.5 2.5 0 00-2.5-2.5H3.75a2.5 2.5 0 00-2.5 2.5z" fill="#FFF"/><g fill-rule="nonzero"><path fill="#0864AA" d="M3 11.4h49.5v13.5H3z"/><path d="M3 11.4h49.5v13.5H3V11.4zm.45.44v12.6h48.6v-12.6H3.45z" fill="#FFF"/><path fill="#D51A21" d="M19.36 24.67l3.91 4.18L36.4 4.88 22.1 24.67z"/><path d="M21.84 24.53l.25-.13h-.16l-.1.13zm1.39 4.64L36.99 4l-15.1 20.37h-3.14l4.48 4.8zm-1.1-4.35L34.51 7.91 23.13 28.4l-3.34-3.59h2.33zM43.05 15.08h1.8l1.45 1.83 1.3-1.83h1.67L47 18.14v3.02h-1.48v-2.84l-2.48-3.24zm-36.9 0h1.8l1.45 1.83 1.3-1.83h1.67l-2.26 3.06v3.02H8.63v-2.84l-2.48-3.24zM16.5 15v1.12h-2.14v1.35h1.69v1.13h-1.69v1.35h2.14v1.13h-3.6V15h3.6zm17.66 0h1.47a1.8 1.8 0 01.22 3.59l-.22.01h-1.47v2.48H32.7V15h1.46zm1.12 1.12h-1.12v1.58h1.16c.46 0 .84-.27.93-.63l.02-.16-.02-.16c-.08-.3-.37-.55-.74-.6l-.19-.03h-.04zm-13.75.57v-1.6c-2.3-.58-3.5-.08-3.6 1.52-.14 2.38 2.53 1.46 2.53 2.84 0 .93-.84.93-2.52 0v1.7c2.64.52 4-.04 4.07-1.7.11-2.48-2.69-1.75-2.69-2.84 0-.7.74-.67 2.2.08zm19.96-1.6l2.3 5.99H42.1l-.34-.9h-2.81l-.34.9h-1.68l2.3-6h2.25zm-1.12 1.26l-1 2.7h2l-1-2.7z" fill="#FFF"/></g></g></svg>