<?xml version="1.0" encoding="UTF-8"?><svg width="56" height="36" viewBox="0 0 56 36" xmlns="http://www.w3.org/2000/svg"><g fill="none" fill-rule="evenodd"><path d="M0 3.75A3.75 3.75 0 013.75 0h48.5A3.76 3.76 0 0156 3.75v28.5A3.75 3.75 0 0152.25 36H3.75A3.76 3.76 0 010 32.25V3.75z" fill="#000" fill-rule="nonzero"/><path d="M1.25 3.75v28.5a2.5 2.5 0 002.5 2.5h48.5a2.5 2.5 0 002.5-2.5V3.75a2.5 2.5 0 00-2.5-2.5H3.75a2.5 2.5 0 00-2.5 2.5z" fill="#FFF"/><path d="M37.75 13.2c.46 0 .84.37.84.84v5.66h-7.35a.84.84 0 00-.83.73l-.01.1v2.85c0 .43.32.78.73.83h7.46v5.95c0 .46-.38.84-.84.84H16.84a.84.84 0 01-.84-.84V14.04c0-.47.38-.84.84-.84h20.9zm-13.87 5.08c-2.13 0-3.64 1.75-3.64 3.89v.03c0 2.3 1.66 3.87 3.82 3.87 1.37 0 2.34-.55 3.05-1.4l-1-.9a2.7 2.7 0 01-2.02.9c-1.1 0-1.96-.68-2.15-1.9h5.48l.03-.47c0-2.15-1.2-4.02-3.57-4.02zm15.28 1.42c.46 0 .84.37.84.84v2.84c0 .46-.38.84-.84.84h-.57V19.7h.57zm-6.36 1.4a.99.99 0 110 1.99.99.99 0 010-1.98zm-8.94-1.42c1.13 0 1.78.86 1.9 1.97h-3.83c.15-1.16.89-1.97 1.93-1.97zm7.45-13.33l.54.76-6.62 4.47h-2.94l7.86-5.43a.84.84 0 011.16.2zm1.54 2.13l2.25 3.1h-6.84l4.59-3.1z" fill="#ABC339"/></g></svg>