<?xml version="1.0" encoding="UTF-8"?><svg width="56" height="36" viewBox="0 0 56 36" xmlns="http://www.w3.org/2000/svg"><g fill="none" fill-rule="evenodd"><rect stroke="#000" stroke-width="1.25" fill="#FFF" x=".625" y=".625" width="54.75" height="34.75" rx="3.75"/><path d="M50.149 14.804h-.98l-.704 3.502-2.762 2.037a2.96 2.96 0 01-1.574.64c-.773.04-1.228-.271-1.377-.96l3.426-2.3c.723-.465 1.06-.882 1-1.25-.148-.709-.485-1.194-.99-1.446a4.48 4.48 0 00-.93-.223H44.04c-.931.213-1.644.63-2.159 1.26-.89 1.282-1.247 2.6-1.07 3.95l-1.405.94c-.604.233-.852-.077-.753-.93l1.555-7.762h-1.911l-.832 4.152-2.188 2.27c.337-2.493-.317-3.793-1.97-3.88h-.119c-1 .029-1.683.368-2.05 1.028l-.752-1.028h-.96l-.733 3.657-.03.03c-1.217 1.649-1.95 2.434-2.208 2.366-.148-.029-.217-.194-.198-.485l.495-2.464.03-.194c.307-1.795-.168-2.774-1.426-2.92h-.782c-.851.02-1.584.369-2.208 1.028-.257-.62-.663-.96-1.227-1.028h-.713c-.842.078-1.545.446-2.11 1.106l-.524-1.106h-1.158l-.703 3.483c-1.367 1.766-2.169 2.629-2.406 2.6-.188.039-.268-.272-.238-.931l1.03-5.162h-1.862l-.386 1.93a34.178 34.178 0 01-2.93 3.358c-.486.504-1.02.776-1.624.815H5.653l4.258-4.618.297-1.465H4.574l-.297 1.465h3.159l-4.09 4.637-.296 1.475h4.237c.555-.01 1.06-.224 1.525-.631a15.765 15.765 0 002.841-2.95l-.356 1.796c-.139 1.115.218 1.717 1.06 1.794h.524c.832-.02 1.713-.708 2.634-2.047l-.416 2.047h1.91l.892-4.424c.178-.64.604-1.096 1.277-1.358.386-.145.713-.136.99.02.327.242.426.737.297 1.465l-.861 4.288h1.812l.9-4.502c.16-.63.555-1.077 1.17-1.339.257-.106.564-.126.92-.048.307.068.436.398.396.99l-.584 2.93c-.198 1.29.317 1.94 1.554 1.959h.09c.663-.02 1.247-.369 1.752-1.048.01-.02.03-.039.04-.048l.633-.854-.9 4.501h1.89l.703-3.56c.188.64.733.98 1.634 1.019h.346c.941-.078 1.98-.747 3.13-2.009l2.009-2.163-.446 2.241c-.217 1.242.208 1.882 1.278 1.93h.534c.535-.019.97-.145 1.317-.378l1.357-.912c.495.835 1.247 1.261 2.267 1.29h.327c.812-.029 1.574-.339 2.307-.93l2.148-1.766-.535 2.687h1.96l.783-4.55c.248-1.087 1-1.475 2.257-1.155l.337-1.988c-.851.135-1.634.514-2.346 1.154l-.495-1.028zm-5.377 1.542c.505.185.654.427.436.728L42.624 18.8c-.02-.66.178-1.261.594-1.814.534-.602 1.05-.825 1.554-.64zm-11.396.815c.287.602.228 1.407-.178 2.435-.307.68-.861 1.058-1.663 1.126-.654.019-1.08-.194-1.268-.631l.406-1.97c.169-.746.584-1.27 1.228-1.552.644-.194 1.139 0 1.475.592zm-18.604-4.104a.909.909 0 00-.237-.737.924.924 0 00-.713-.3c-.287 0-.555.096-.782.3a1.11 1.11 0 00-.387.737c-.03.282.05.524.238.728.188.204.426.31.713.31s.554-.106.782-.31a1.11 1.11 0 00.386-.728z" fill="#13BFB8" fill-rule="nonzero"/></g></svg>