<?xml version="1.0" encoding="UTF-8"?><svg width="56" height="36" viewBox="0 0 56 36" xmlns="http://www.w3.org/2000/svg"><defs><linearGradient x1="49.699%" y1="123.706%" x2="49.699%" y2="23.868%" id="a"><stop stop-color="#B4000F" offset="0%"/><stop stop-color="#BB0010" offset="5%"/><stop stop-color="#D10012" offset="22.5%"/><stop stop-color="#DF0013" offset="42%"/><stop stop-color="#E80014" offset="65%"/><stop stop-color="#EB0014" offset="100%"/></linearGradient><linearGradient x1="49.657%" y1="123.304%" x2="49.657%" y2="23.45%" id="b"><stop stop-color="#B4000F" offset="0%"/><stop stop-color="#BB0010" offset="5%"/><stop stop-color="#D10012" offset="22.5%"/><stop stop-color="#DF0013" offset="42%"/><stop stop-color="#E80014" offset="65%"/><stop stop-color="#EB0014" offset="100%"/></linearGradient><linearGradient x1="49.411%" y1="123.766%" x2="49.411%" y2="23.92%" id="c"><stop stop-color="#B4000F" offset="0%"/><stop stop-color="#BB0010" offset="5%"/><stop stop-color="#D10012" offset="22.5%"/><stop stop-color="#DF0013" offset="42%"/><stop stop-color="#E80014" offset="65%"/><stop stop-color="#EB0014" offset="100%"/></linearGradient><linearGradient x1="49.369%" y1="122.785%" x2="49.369%" y2="22.925%" id="d"><stop stop-color="#B4000F" offset="0%"/><stop stop-color="#BB0010" offset="5%"/><stop stop-color="#D10012" offset="22.5%"/><stop stop-color="#DF0013" offset="42%"/><stop stop-color="#E80014" offset="65%"/><stop stop-color="#EB0014" offset="100%"/></linearGradient></defs><g fill="none" fill-rule="evenodd"><path d="M0 3.75A3.749 3.749 0 013.75 0h48.5A3.756 3.756 0 0156 3.75v28.5A3.749 3.749 0 0152.25 36H3.75A3.756 3.756 0 010 32.25V3.75z" fill="#000" fill-rule="nonzero"/><path d="M1.25 3.75v28.5c0 1.375 1.123 2.5 2.5 2.5h48.5c1.382 0 2.5-1.118 2.5-2.5V3.75c0-1.375-1.123-2.5-2.5-2.5H3.75a2.499 2.499 0 00-2.5 2.5z" fill="#FFF"/><path d="M27.406 23.074c-.119 0-.265.09-.34.196 0 0-.768 1.253-.848 1.379-.039.068-.08.026-.086 0l-.24-1.365c-.027-.108-.146-.202-.292-.202h-.477c-.113 0-.184.09-.16.196 0 0 .364 1.975.439 2.435.033.26-.006.301-.006.301l-.477.787c-.071.107-.033.196.08.196h.557a.476.476 0 00.34-.196l2.141-3.434s.207-.29.014-.29c-.13-.003-.645-.003-.645-.003zm-6.757.699c-.16.112-.383.17-.675.17h-.132c-.113 0-.193-.09-.166-.197l.166-.661a.277.277 0 01.259-.196h.174c.206 0 .358.031.463.099.104.063.16.165.151.3a.532.532 0 01-.24.485zm1.161-1.02a.748.748 0 00-.292-.301 1.406 1.406 0 00-.463-.165 3.73 3.73 0 00-.629-.044h-1.12a.277.277 0 00-.258.196l-.756 3.12c-.027.107.047.196.166.196h.537a.277.277 0 00.26-.196l.181-.756a.277.277 0 01.26-.196h.151c.656 0 1.166-.126 1.533-.385.364-.258.551-.59.551-1.006a1.12 1.12 0 00-.121-.463zm2.591.447c-.207-.107-.524-.165-.962-.165-.212 0-.43.018-.65.05-.16.026-.174.026-.279.044a.31.31 0 00-.24.238l-.066.251c-.033.165.06.157.105.144.085-.026.14-.05.317-.094.174-.037.358-.063.504-.063.213 0 .378.026.486.068a.23.23 0 01.16.233c0 .026 0 .05-.006.068-.006.018-.028.037-.08.044a9.322 9.322 0 00-.788.082c-.26.03-.491.094-.684.175a1.075 1.075 0 00-.463.345.918.918 0 00-.152.534c0 .196.072.358.218.483.146.126.34.183.562.183.146 0 .26-.013.34-.03a1.458 1.458 0 00.477-.194c.08-.05.132-.09.206-.126v.005l-.02.081c-.019.1.04.183.147.189h.496c.006 0 .006 0 .006-.006.104-.013.206-.094.226-.188l.391-1.603c.006-.037.014-.081.02-.134.005-.05.013-.088.013-.125.022-.215-.085-.382-.284-.49zm-.954 1.912c-.066.036-.14.068-.212.1a.819.819 0 01-.278.057.634.634 0 01-.306-.058c-.072-.037-.105-.1-.105-.188 0-.107.028-.183.08-.251a.605.605 0 01.226-.144c.1-.032.218-.058.35-.076.119-.013.364-.044.397-.044.033 0 .052-.019.039.062-.006.032-.08.309-.105.43-.006.041-.058.099-.086.112z" fill="#036" fill-rule="nonzero"/><path d="M34.51 23.321c-.215-.122-.545-.188-1-.188-.226 0-.447.021-.676.057-.166.03-.186.03-.284.057-.215.05-.249.27-.249.27l-.069.295c-.034.188.063.18.11.164.088-.03.145-.056.329-.101.18-.042.372-.071.524-.071.22 0 .392.03.504.077a.27.27 0 01.166.265c0 .03 0 .057-.006.077-.005.021-.028.042-.083.051-.318.02-.55.05-.828.092-.277.042-.51.108-.71.2-.215.101-.372.23-.475.393a1.065 1.065 0 00-.158.602c0 .223.075.408.226.55.152.143.353.209.593.209.152 0 .26-.015.353-.036.083-.02.171-.05.269-.101.069-.03.152-.077.235-.128.083-.057.137-.092.206-.143v.006l-.02.092v.006c-.02.107.04.209.152.215h.521a.302.302 0 00.24-.215l.407-1.825c.006-.042.015-.093.02-.152.006-.057.015-.107.006-.137a.57.57 0 00-.304-.58zm-.986 2.177a1.294 1.294 0 01-.22.113.786.786 0 01-.29.066c-.137 0-.249-.021-.318-.066-.068-.041-.109-.113-.109-.214 0-.122.03-.215.084-.286a.55.55 0 01.24-.164c.098-.036.226-.065.364-.086.123-.015.378-.042.412-.042.035 0 .055-.02.04.072-.005.035-.074.35-.108.488a.323.323 0 01-.095.119zm-2.907-1.519c-.166.128-.398.188-.702.188h-.137a.17.17 0 01-.167-.224l.167-.753c.028-.113.146-.223.26-.223h.186c.215 0 .373.035.482.113.108.077.157.193.166.342-.009.25-.089.43-.255.557zm1.206-1.158a.8.8 0 00-.31-.337 1.381 1.381 0 00-.48-.187 3.504 3.504 0 00-.654-.057h-1.171c-.118 0-.235.101-.261.223l-.793 3.553c-.03.122.048.224.166.224h.558c.118 0 .24-.102.27-.224l.186-.86a.293.293 0 01.269-.224h.157c.682 0 1.212-.143 1.593-.438.378-.294.573-.673.573-1.152 0-.206-.035-.378-.103-.521zm4.614-.551h-.504c-.103 0-.2.071-.25.164 0 .006-.005.006-.005.014-.006.015-.014.03-.014.042 0 0-.04.194-.103.48l-.613 2.88c-.02.086-.035.142-.035.157-.02.113.04.209.152.215h.516c.097 0 .2-.072.249-.164 0-.006.006-.006.006-.015.005-.015.005-.03.014-.042l.75-3.523a.162.162 0 00-.163-.208zM37.693 22.883c-.016.006-.039.006-.061.013h-.061c-.06 0-.109-.013-.138-.036-.032-.026-.045-.068-.045-.134v-.264h-.07v-.068h.07v-.144h.1v.144h.208v.068h-.215v.29c0 .014.007.027.016.037.007.013.016.019.032.026.016.008.039.006.061.006.016 0 .032-.006.055-.006.016-.005.032-.005.038-.013h.007v.081h.003zm1.012.006h-.099v-.346s-.006-.036-.016-.05c-.006-.012-.022-.018-.039-.025-.016-.006-.038-.014-.07-.014a.183.183 0 00-.083.019.487.487 0 00-.084.044v.374h-.099v-.348s-.006-.031-.016-.044c-.006-.013-.022-.018-.038-.031-.016-.006-.039-.006-.07-.006a.183.183 0 00-.084.019c-.023.013-.055.026-.084.044v.371h-.099V22.4h.1v.057c.032-.018.06-.037.092-.05a.294.294 0 01.208 0 .15.15 0 01.071.063.36.36 0 01.224-.08c.07 0 .116.017.148.049.032.031.045.08.045.138v.312h-.007z" fill="#369" fill-rule="nonzero"/><path d="M16.866 25.586l-.068-.436h-.735l-.216.436h-.371l.98-1.935h.472l.303 1.935h-.365zm-.242-1.533l-.446.873h.581l-.135-.873zm22.818.097c.034-.179-.087-.292-.284-.292-.23 0-.37.096-.404.292-.067.388.966.204.845.912-.053.306-.385.552-.778.552-.39 0-.64-.232-.587-.558h.298c-.04.218.101.32.317.32.23 0 .357-.096.39-.291.068-.383-.97-.204-.844-.913.053-.306.384-.552.769-.552.379 0 .629.238.581.524h-.303v.006zm1.898-.267h-.811l-.096.544h.548l-.04.233h-.547l-.12.694h.81l-.039.232h-1.168l.337-1.935h1.168l-.042.232zm1.297.947l.298.756h-.413l-.27-.703h-.33l-.121.703h-.357l.337-1.935h.817c.337 0 .562.272.5.612a.78.78 0 01-.46.567zm-.168-.947h-.37l-.136.771h.371c.188 0 .37-.184.404-.383.04-.204-.075-.388-.27-.388zm1.713 1.703h-.447l-.311-1.935h.356l.245 1.541.777-1.541h.351l-.971 1.935zm1.364 0h-.35l.336-1.935h.351l-.337 1.935zm1.73-1.334c.04-.224-.073-.408-.303-.408a.461.461 0 00-.433.374l-.134.796c-.034.204.1.374.303.374.222 0 .399-.184.438-.408h.345c-.12.36-.466.626-.83.626-.405 0-.67-.334-.596-.737l.087-.518c.073-.408.452-.737.856-.737.365 0 .621.266.607.626h-.345v.012h.005zm1.952-.369h-.812l-.095.544h.547l-.039.233h-.548l-.12.694h.811l-.04.232h-1.167l.337-1.935h1.168l-.042.232z" fill="#666766" fill-rule="nonzero"/><path d="M7.569 2.932c.255-.295.345-.697.345-1.17C7.92.889 7.178.332 5.792.332H.402v1.885h5.253L1.127 7.614C.405 8.488.011 9.008.011 9.704c0 .921.65 1.413 1.664 1.413h6.332V9.232h-5.73l5.292-6.3z" fill="url(#a)" fill-rule="nonzero" transform="translate(7 10)"/><path d="M13.9.358c-3.001 0-5.623 2.241-5.623 5.488 0 3.246 2.616 5.487 5.624 5.487 3.001 0 5.623-2.24 5.623-5.487S16.902.358 13.901.358zm0 9.133c-2.054 0-3.54-1.492-3.54-3.64s1.486-3.648 3.54-3.648c2.055 0 3.542 1.492 3.542 3.648 0 2.148-1.487 3.64-3.541 3.64z" fill="url(#b)" fill-rule="nonzero" transform="translate(7 10)"/><path d="M25.005.358c-2.642 0-4.63 1.84-4.63 4.613v6.146h1.988V4.971c0-1.623 1.217-2.766 2.642-2.766 1.419 0 2.641 1.143 2.641 2.766v6.146h1.987V4.971C29.636 2.203 27.65.358 25.005.358z" fill="url(#c)" fill-rule="nonzero" transform="translate(7 10)"/><path d="M41.817 5.102h-5.281a.186.186 0 00-.188.183v1.32c0 .104.087.183.188.183h3.56c-.21 2.025-2.02 3.083-3.765 3.083-2.21 0-3.949-1.73-3.949-3.93s1.731-3.93 3.949-3.93c1.447 0 2.209.618 3.367 1.553.081.065.188.052.264-.02l.972-1.019a.183.183 0 00-.005-.257C39.47.85 38.225.322 36.334.322c-3.218 0-5.84 2.517-5.84 5.62 0 3.096 2.616 5.618 5.84 5.618 2.743 0 5.671-1.886 5.671-5.376v-.893a.187.187 0 00-.188-.189z" fill="url(#d)" fill-rule="nonzero" transform="translate(7 10)"/><path d="M49.247 10.003c.12 0 .244.033.365.093a.704.704 0 01.014 1.24.72.72 0 01-.365.093.779.779 0 01-.366-.093.665.665 0 01-.27-.262.709.709 0 01.006-.716.637.637 0 01.279-.262.643.643 0 01.337-.093zm0 .123a.662.662 0 00-.304.079.561.561 0 00-.23.224.622.622 0 00-.082.303.57.57 0 00.082.296c.053.092.13.172.23.224.096.052.203.079.304.079.101 0 .21-.027.303-.08a.561.561 0 00.23-.223.585.585 0 000-.599.53.53 0 00-.23-.224.56.56 0 00-.303-.08zm-.318.992v-.776h.27c.096 0 .163.005.202.019.04.013.073.038.102.07.028.034.033.072.033.113 0 .06-.02.104-.062.145a.262.262 0 01-.163.07c.029.014.048.028.068.039.034.033.067.08.115.15l.096.15h-.155l-.067-.117a.488.488 0 00-.135-.178c-.02-.019-.062-.027-.101-.027h-.074v.328h-.129v.014zm.13-.432h.154c.073 0 .12-.014.149-.033.028-.019.04-.052.04-.085 0-.019-.006-.046-.02-.06a.147.147 0 00-.054-.038.54.54 0 00-.129-.014h-.149v.23h.008z" fill="#999" fill-rule="nonzero"/><g opacity=".21"><path d="M20.9 12.203c-2.054 0-3.55 1.492-3.55 3.648v.098h7.083v-.098c.009-2.156-1.478-3.648-3.532-3.648zm11.105 0c-1.425 0-2.642 1.142-2.642 2.765v.979h5.286v-.979c0-1.62-1.225-2.765-2.644-2.765z"/><path d="M14.569 12.932c.255-.295.345-.697.345-1.17.006-.874-.736-1.431-2.122-1.431h-5.39v1.885h5.253L9.518 15.95h2.521l2.53-3.017zm2.782 2.92c0-2.149 1.487-3.65 3.541-3.65 2.055 0 3.541 1.493 3.541 3.65v.097h2.074v-.098c0-3.247-2.622-5.488-5.623-5.488-3.002 0-5.621 2.241-5.621 5.488v.098h2.074c.022-.032.014-.065.014-.098zm12.012-.88c0-1.624 1.217-2.767 2.642-2.767 1.419 0 2.641 1.143 2.641 2.766v.978h1.987v-.978c0-2.766-1.987-4.613-4.628-4.613-2.642 0-4.63 1.84-4.63 4.613v.978h1.988v-.978zm19.642.322a.19.19 0 00-.188-.184h-5.281a.186.186 0 00-.188.184v.664h5.657v-.664zm-5.663-3.269c1.447 0 2.209.618 3.367 1.552.081.066.188.052.264-.019l.973-1.02a.183.183 0 00-.006-.256c-1.459-1.418-2.704-1.946-4.595-1.946-3.218 0-5.84 2.517-5.84 5.619h1.891c-.003-2.208 1.729-3.93 3.946-3.93z" fill="#FFF" fill-rule="nonzero"/></g></g></svg>