<?xml version="1.0" encoding="UTF-8"?>
<svg width="56px" height="36px" viewBox="0 0 56 36" version="1.1" xmlns="http://www.w3.org/2000/svg" xmlns:xlink="http://www.w3.org/1999/xlink">
    <title>Group</title>
    <g id="Desktop" stroke="none" stroke-width="1" fill="none" fill-rule="evenodd">
        <g id="checkout-page-Customization3" transform="translate(-1067.000000, -176.000000)">
            <g id="Group" transform="translate(1067.000000, 176.000000)">
                <path d="M0,3.75075247 C0,1.67926908 1.67596877,0 3.75035585,0 L52.2496442,0 C54.3209085,0 56,1.68806916 56,3.75075247 L56,32.2492475 C56,34.3207309 54.3240312,36 52.2496442,36 L3.75035585,36 C1.67909151,36 0,34.3119308 0,32.2492475 L0,3.75075247 Z" id="Rectangle-2" fill="#000000" fill-rule="nonzero"></path>
                <path d="M1.25,3.75075247 L1.25,32.2492475 C1.25,33.6250965 2.37296468,34.75 3.75035585,34.75 L52.2496442,34.75 C53.6324061,34.75 54.75,33.6316447 54.75,32.2492475 L54.75,3.75075247 C54.75,2.37490355 53.6270353,1.25 52.2496442,1.25 L3.75035585,1.25 C2.36759386,1.25 1.25,2.36835527 1.25,3.75075247 Z" id="Path" fill="#FFFFFF"></path>
                <g id="Card-2" transform="translate(12.000000, 6.000000)" fill="#000000">
                    <path d="M29.8,1.71428571 C31.0150264,1.71428571 32,2.69925926 32,3.91428571 L32,20.0857143 C32,21.3007407 31.0150264,22.2857143 29.8,22.2857143 L2.2,22.2857143 C0.98497355,22.2857143 -2.916109e-14,21.3007407 -2.84217094e-14,20.0857143 L-2.84217094e-14,3.91428571 C-2.8126418e-14,2.69925926 0.98497355,1.71428571 2.2,1.71428571 L29.8,1.71428571 Z M29.1222222,3.42857143 L2.87777778,3.42857143 C2.27026455,3.42857143 1.77777778,3.9210582 1.77777778,4.52857143 L1.77777778,4.52857143 L1.77777778,19.4714286 C1.77777778,20.0789418 2.27026455,20.5714286 2.87777778,20.5714286 L2.87777778,20.5714286 L29.1222222,20.5714286 C29.7297354,20.5714286 30.2222222,20.0789418 30.2222222,19.4714286 L30.2222222,19.4714286 L30.2222222,4.52857143 C30.2222222,3.9210582 29.7297354,3.42857143 29.1222222,3.42857143 L29.1222222,3.42857143 Z" id="Shape-1"></path>
                    <rect id="Shape-2" x="1.77777778" y="6.85714286" width="28.4444444" height="3"></rect>
                    <rect id="Shape-5" x="20" y="12.8571429" width="6" height="3" rx="0.44"></rect>
                </g>
            </g>
        </g>
    </g>
</svg>