<svg width="111" height="110" xmlns="http://www.w3.org/2000/svg"><g fill="none" fill-rule="evenodd"><path d="M57.07 109.46h-3.12A52.97 52.97 0 01.91 56.56v-3.11A52.97 52.97 0 0153.8.4h3.11a52.97 52.97 0 0153.05 52.9v3.11a52.97 52.97 0 01-52.9 53.05" fill="#FF3F5A"/><path d="M55.53 100.24h-2.82A47.99 47.99 0 014.66 52.34V49.5A47.99 47.99 0 0152.56 1.46h2.82a47.99 47.99 0 0148.05 47.91v2.82a47.99 47.99 0 01-47.91 48.05" fill="#FFD9DE"/><path d="M56.84 100.24h-2.57a43.78 43.78 0 01-43.84-43.72v-2.57a43.78 43.78 0 0143.71-43.84h2.58a43.78 43.78 0 0143.84 43.72v2.57a43.78 43.78 0 01-43.72 43.84" fill="#FF8C9C"/><path d="M66.19 108.3c-2.92.5-5.86.74-8.82.76-4.88 0-9.67-.17-14.45-1.22a52.32 52.32 0 01-15.93-6.41A53.1 53.1 0 015.46 76.02C1.55 66.29.66 55.09 2.33 44.75a52.78 52.78 0 0115.65-29.67A51.89 51.89 0 0148.91 1.01c10.75-.98 21.7.53 31.39 5.43a53.13 53.13 0 0123.34 23.46c4.8 9.58 6.26 20.35 5.4 30.96-1.86 23.32-19.67 43.44-42.85 47.43m42.3-70.34a53.5 53.5 0 00-19.9-27.9C79.17 3.28 67.96-.02 56.4 0c-5.37 0-10.62.38-15.84 1.72A53.98 53.98 0 003.52 34.85C-.28 44.98-.94 56.84 1.24 67.44c4.87 23.6 25.79 41.24 49.8 42.36 1.9.1 3.82.06 5.73.06 23.83-.13 45.55-16.1 52-39.2 1.48-5.3 1.95-10.68 1.95-16.16-.01-5.63-.6-11.15-2.23-16.55" fill="#637AAB"/><path d="M75.22 37.09c-1.05-1.32-3.76-1.06-5.06-.34A74.84 74.84 0 0054.9 48.3c-1.37-1.4-2.76-2.8-4.16-4.17a78.68 78.68 0 00-8.68-7.5c-2.37-1.7-9.16 1.68-5.89 4.04 4.98 3.58 9.43 8.21 13.7 12.79a184.63 184.63 0 00-10.85 13.18c-.89 1.17-1.77 2.34-2.62 3.53-1.07 1.52.93 2.64 2.18 2.75a5.53 5.53 0 004.93-2.2c.55-.78 1.13-1.54 1.7-2.3v-.02l.06-.07.43-.57a176.22 176.22 0 018.19-9.94 401.49 401.49 0 0112.88 14.95c1.92 2.35 9.13-.46 6.93-3.16a339.84 339.84 0 00-14.83-17.15c1.72-1.76 3.5-3.47 5.34-5.1a65.35 65.35 0 016.95-5.42c.44-.3.9-.58 1.34-.86l.5-.3.34-.2c1.12-.63 3.05-2.03 1.88-3.5" fill="#FFF"/></g></svg>