<?xml version="1.0" encoding="UTF-8"?><svg version="1.1" width="38px" height="46px" viewBox="0 0 38.0 46.0" xmlns="http://www.w3.org/2000/svg" xmlns:xlink="http://www.w3.org/1999/xlink"><defs><clipPath id="i0"><path d="M1680,0 L1680,821 L0,821 L0,0 L1680,0 Z"></path></clipPath><clipPath id="i1"><path d="M488,90 C489.656854,90 491,91.3431458 491,93 L491,131 C491,132.656854 489.656854,134 488,134 L337,134 C335.343146,134 334,132.656854 334,131 L334,93 C334,91.3431458 335.343146,90 337,90 L488,90 Z"></path></clipPath><clipPath id="i2"><path d="M36,0 L36,44 L3,44 C1.34314575,44 1.53517375e-15,42.6568542 0,41 L0,3 C-2.02906125e-16,1.34314575 1.34314575,3.04359188e-16 3,0 L36,0 Z"></path></clipPath><clipPath id="i3"><path d="M9,0 C13.971,0 18,4.029 18,9 C18,13.971 13.971,18 9,18 C4.029,18 0,13.971 0,9 C0,4.029 4.029,0 9,0 Z M9.5,6.0039 L7.5,6.0039 C7.22,6.0039 7,6.2249 7,6.5039 C7,6.7749 7.22,7.0039 7.5,7.0039 L8,7.0039 L8,13.0039 L7.5,13.0039 C7.22,13.0039 7,13.2249 7,13.5039 C7,13.7749 7.22,14.0039 7.5,14.0039 L10.5,14.0039 C10.78,14.0039 11,13.7749 11,13.5039 C11,13.2249 10.78,13.0039 10.5,13.0039 L10,13.0039 L10,6.5039 C10,6.2249 9.78,6.0039 9.5,6.0039 Z M9,3 C8.447,3 8,3.447 8,4 C8,4.552 8.447,5 9,5 C9.553,5 10,4.552 10,4 C10,3.447 9.553,3 9,3 Z"></path></clipPath><clipPath id="i4"><path d="M18,0 L18,18 L0,18 L0,0 L18,0 Z"></path></clipPath></defs><g transform="translate(-1364.0 -574.0)"><g clip-path="url(#i0)"><g transform="translate(1031.0 485.0)"><g clip-path="url(#i1)"><g transform="translate(334.0 90.0)"><g clip-path="url(#i2)"><polygon points="0,0 36,0 36,44 0,44 0,0" stroke="none" fill="#00BECF"></polygon></g><path d="M3,0 L36,0 L36,0 L36,44 L3,44 C1.34314575,44 1.53517375e-15,42.6568542 0,41 L0,3 C-2.02906125e-16,1.34314575 1.34314575,3.04359188e-16 3,0 Z" stroke="#00BECF" stroke-width="1" fill="none" stroke-miterlimit="10"></path><g transform="translate(9.0 13.0)"><g clip-path="url(#i3)"><polygon points="0,0 18,0 18,18 0,18 0,0" stroke="none" fill="#4A5568"></polygon><g clip-path="url(#i4)"><polygon points="0,0 18,0 18,18 0,18 0,0" stroke="none" fill="#FFFFFF"></polygon></g></g></g></g></g></g></g></g></svg>