<svg width="14" height="18" xmlns="http://www.w3.org/2000/svg" xmlns:xlink="http://www.w3.org/1999/xlink"><g transform="translate(-310 -419)"><use xlink:href="#a"/><path fill="#6B778C" d="M317 419a4 4 0 014 4v1h.83c1.19 0 2.17 1.06 2.17 2.36v8.28c0 1.31-.98 2.36-2.17 2.36h-9.66c-1.19 0-2.17-1.05-2.17-2.36v-8.28c0-1.3.98-2.36 2.17-2.36h.83v-1a4 4 0 014-4zm4.83 6h-9.66c-.64 0-1.17.62-1.17 1.36v8.28c0 .75.52 1.36 1.17 1.36h9.66c.65 0 1.17-.61 1.17-1.36v-8.28c0-.74-.53-1.36-1.17-1.36zm-4.72 4c.49 0 .89.4.89.9v2.2c0 .5-.4.9-.9.9h-.2a.9.9 0 01-.9-.9v-2.2c0-.5.4-.9.9-.9h.2zm-.11-9a3 3 0 00-3 3v1h6v-1a3 3 0 00-3-3z" id="a"/></g></svg>