<?xml version="1.0" encoding="UTF-8"?>
<svg width="111px" height="110px" viewBox="0 0 111 110" version="1.1" xmlns="http://www.w3.org/2000/svg" xmlns:xlink="http://www.w3.org/1999/xlink">
    <title>Group 7</title>
    <g id="Transmission-Manager" stroke="none" stroke-width="1" fill="none" fill-rule="evenodd">
        <g id="Group-7">
            <path d="M57.0685796,109.957634 L53.9539904,109.962105 C24.6964833,110.003441 0.945520141,86.3191638 0.905633456,57.0616567 L0.901168784,53.949872 C0.861072549,24.6945462 24.5437921,0.94576434 53.7988063,0.904319581 L56.9137071,0.899536884 C86.1709026,0.858200601 109.921866,24.5427898 109.962064,53.7999853 L109.966529,56.91177 C110.006625,86.1667842 86.3239054,109.915878 57.0685796,109.957634" id="Fill-12" fill="#F8C51C" fill-rule="nonzero"></path>
            <path d="M55.5299819,100.741566 L52.7108034,100.746026 C26.2082822,100.783322 4.69346632,79.3286482 4.65700739,52.8261269 L4.65286372,50.0069485 C4.61649748,23.5062969 26.0696136,1.99303913 52.5705768,1.95533375 L55.3894437,1.95118364 C81.8922765,1.91357737 103.407092,23.3685632 103.443551,49.8710845 L103.447383,52.6899513 C103.48375,79.1909145 82.0309451,100.703861 55.5299819,100.741566" id="Fill-14" fill="#FEF3D2" fill-rule="nonzero"></path>
            <path d="M56.844591,100.74007 L54.272523,100.7439 C30.0927779,100.778087 10.4638544,81.204008 10.4308233,57.0242629 L10.4269989,54.4521949 C10.3937411,30.2743196 29.9662624,10.6466425 54.1444493,10.6123649 L56.7165173,10.6085358 C80.8959507,10.5743479 100.525186,30.1484272 100.558217,54.3281723 L100.56204,56.8999286 C100.594988,81.077804 81.0227779,100.705481 56.844591,100.74007" id="Fill-16" fill="#FBDC77" fill-rule="nonzero"></path>
            <path d="M66.189387,108.294093 C63.2729847,108.797039 60.3272907,109.040722 57.3681972,109.057328 C52.4926731,109.064093 47.7019082,108.889277 42.9170641,107.839136 C37.3011434,106.606388 31.9002369,104.417294 26.9891887,101.429844 C17.3228997,95.5496741 9.67120003,86.5168979 5.45567595,76.019844 C1.54646915,66.2859347 0.661483313,55.092422 2.33298473,44.7542916 C4.15561929,33.4838101 9.70423119,22.9478044 17.9807184,15.0801557 C26.3980556,7.07851261 37.3428997,2.06556644 48.9147128,1.01075057 C59.6591887,0.0313454699 70.619302,1.53519817 80.2983672,6.44032564 C90.3208318,11.5190225 98.6072907,19.8487959 103.636441,29.8968129 C108.431568,39.4774078 109.897716,50.2468129 109.046384,60.8588525 C107.175761,84.1847732 89.3744578,104.296076 66.189387,108.294093 M108.494514,37.9470678 C105.148084,26.7756797 98.0498119,16.8576061 88.5851377,10.0510055 C79.1668941,3.27774774 67.9571774,-0.0163315839 56.4059309,6.08753309e-05 C51.0442878,0.00797436506 45.7857893,0.380042354 40.5718516,1.71842763 C34.979302,3.15372508 29.6104918,5.49239363 24.7567808,8.6203823 C15.1076306,14.8386542 7.56125669,24.094235 3.52023686,34.8486826 C-0.288630001,44.9842633 -0.940216404,56.8383993 1.24389125,67.438286 C6.10632751,91.0349999 27.029387,108.678314 51.0364975,109.803243 C52.9454493,109.892365 54.8587638,109.860892 56.7692737,109.858711 C80.5987638,109.728144 102.318934,93.7585126 108.76967,70.6628752 C110.250152,65.3626203 110.724118,59.9816571 110.716811,54.4991075 C110.708849,48.87415 110.113353,43.352337 108.494514,37.9470678" id="Fill-18" fill="#637AAB" fill-rule="nonzero"></path>
            <g id="Group-6" transform="translate(27.000000, 50.000000)" fill="#FFFFFF">
                <circle id="Oval" cx="5" cy="5" r="5"></circle>
                <circle id="Oval-Copy" cx="28" cy="5" r="5"></circle>
                <circle id="Oval-Copy-2" cx="51" cy="5" r="5"></circle>
            </g>
        </g>
    </g>
</svg>