<svg width="111" height="110" xmlns="http://www.w3.org/2000/svg"><g fill="none" fill-rule="evenodd"><path d="M57.07 109.46h-3.12A52.97 52.97 0 01.91 56.56v-3.11A52.97 52.97 0 0153.8.4h3.11a52.97 52.97 0 0153.05 52.9v3.11a52.97 52.97 0 01-52.9 53.05" fill="#19D474"/><path d="M55.53 100.24h-2.82A47.99 47.99 0 014.66 52.34V49.5A47.99 47.99 0 0152.56 1.46h2.82a47.99 47.99 0 0148.05 47.91v2.82a47.99 47.99 0 01-47.91 48.05" fill="#99F7B8"/><path d="M56.84 100.24h-2.57a43.78 43.78 0 01-43.84-43.72v-2.57a43.78 43.78 0 0143.71-43.84h2.58a43.78 43.78 0 0143.84 43.72v2.57a43.78 43.78 0 01-43.72 43.84" fill="#65E393"/><path d="M66.19 108.3c-2.92.5-5.86.74-8.82.76-4.88 0-9.67-.17-14.45-1.22a52.31 52.31 0 01-15.93-6.41A53.1 53.1 0 015.46 76.02C1.55 66.29.66 55.09 2.33 44.75a52.79 52.79 0 0115.65-29.67A51.89 51.89 0 0148.91 1.01c10.75-.98 21.7.53 31.39 5.43a53.12 53.12 0 0123.34 23.46c4.8 9.58 6.26 20.35 5.4 30.96-1.86 23.32-19.67 43.44-42.85 47.43m42.3-70.34a53.5 53.5 0 00-19.9-27.9C79.17 3.28 67.96-.02 56.4 0c-5.37 0-10.62.38-15.84 1.72A53.98 53.98 0 003.52 34.85C-.28 44.98-.94 56.84 1.24 67.44c4.87 23.6 25.79 41.24 49.8 42.36 1.9.1 3.82.06 5.73.06 23.83-.13 45.55-16.1 52-39.2 1.48-5.3 1.95-10.68 1.95-16.16-.01-5.63-.6-11.15-2.23-16.55" fill="#637AAB"/><path d="M83.27 37.45c-1.05-1.32-3.77-1.07-5.06-.35-7.65 4.28-14.02 10.53-19.77 17.08-1.87 2.13-3.7 4.32-5.45 6.55a241.2 241.2 0 00-3.58-3.9c-3.71-3.96-7.56-8.06-12.04-11.17-2.4-1.66-9.19 1.75-5.88 4.03 4.18 2.9 7.76 6.84 11.24 10.56 2.25 2.4 4.46 4.85 6.59 7.36 1.77 2.08 5.72.55 7.02-1.3a65.7 65.7 0 011.38-1.89l.03-.04.03-.03.6-.79c1.92-2.49 3.91-4.93 5.98-7.3a114 114 0 018.25-8.58 60.21 60.21 0 016.6-5.34c.44-.3.88-.6 1.34-.88.11-.07 1.28-.77.84-.52 1.12-.63 3.05-2.02 1.88-3.5" fill="#FFF"/></g></svg>