<svg width="103" height="110" xmlns="http://www.w3.org/2000/svg" xmlns:xlink="http://www.w3.org/1999/xlink"><defs><path id="a" d="M0 .12h8.44v2.71H0z"/></defs><g fill="none" fill-rule="evenodd"><path d="M15.5 106.54c-1.13-.54-1.55-1.17-1-1.9 3.77-5.08 20.77-4.75 29.02-4.66 10.37.11 21.16.1 30.5 1.43 3.91.56 12.77 1.13 14.28 2.88 3.98 4.58-24.28 5.55-28.85 5.56-7.62.03-37.47-.22-43.95-3.31" fill="#D3DCE6"/><path d="M60.17 56.2c8.74 6.35 19.69 18.86 19.69 33.25l-27.22 6.68-28.24-6.68c0-14.43 10.99-26.97 19.77-33.3l.5-.33a2 2 0 00.04-3.22l-.54-.39c-8.78-6.32-19.77-18.86-19.77-33.3h55.46c0 14.4-10.95 26.9-19.69 33.25l-.63.53a2 2 0 00.04 3.05l.59.47z" fill="#FFF"/><path d="M79.84 88.01c-.06 3.85-5.05 4.84-8.17 5.06-1.25.1-2.5.16-3.75.22-7.9.38-15.85.8-23.75.15-3.5-.3-7.22-.9-10.58-1.09-2.53-.14-6.08-.15-7.98-2.06-6.19-6.2 12.06-15 15.47-17.7 5.53-4.35 11-12.92 7.42-19.94C47.03 49.8 29.46 36.18 34.4 33.2c2.06-1.23 9.37 3.05 11.71 3.51 7.42 1.48 14.43-.49 21.08-3.63 3.36-1.6.68 4.31.25 5.1-2.02 3.78-5.23 6.51-8.25 9.5-2.83 2.79-5.45 6.31-5.31 10.4a19.47 19.47 0 006.66 14.3C66.1 77.11 75.88 78 79.2 85.03c.43.91.66 1.9.64 2.97z" fill="#F8C51C"/><path d="M79.84 88.13c-.06 3.77-4.75 4.74-7.68 4.96-1.18.09-2.36.15-3.53.21-7.43.37-14.9.78-22.33.14-3.3-.28-6.79-.87-9.94-1.06-2.38-.14-5.72-.15-7.51-2.02-5.82-6.07 11.34-14.7 14.55-17.33 5.2-4.26 10.34-12.66 6.97-19.53-1.38-2.8-17.9-16.13-13.24-19.06 1.93-1.2 8.8 2.99 11 3.44 6.98 1.45 13.57-.48 19.82-3.56 3.17-1.55.64 4.23.24 5-1.9 3.7-4.92 6.38-7.76 9.3-2.66 2.74-5.12 6.19-5 10.2.18 5.32 2.28 10.44 6.27 14 5.23 4.65 14.42 5.5 17.53 12.4.41.9.63 1.86.61 2.91z" fill="#FBDC77"/><path d="M79.45 89.33L55.58 95.2l-2.13.52c-.18.05-.52.07-.74.15-.15-.05-.34-.07-.5-.11l-1.94-.46-14.48-3.43-10.98-2.6c.1-11.94 7.43-22.75 16.23-30.31.93-.8 1.9-1.58 2.89-2.31.7-.52 1.55-.92 1.86-1.8.36-1.02-.09-1.95-.92-2.55A54.18 54.18 0 0131.1 38.03c-3.69-5.63-6.17-12.1-6.28-18.88h54.64c-.13 12.83-8.57 24.43-18.38 32.03-.8.61-2 1.25-2.43 2.22-.57 1.28.2 2.21 1.16 2.97 8.1 5.9 15.16 14.3 18.2 23.97a31.31 31.31 0 011.45 9m-26.71 6.53h-.03c.17-.05.23.09.03 0m7.8-39.82c-.3-.24-.64-.46-.88-.76a1.92 1.92 0 01-.03-2.29c.61-.81 1.7-1.39 2.5-2.01a55.9 55.9 0 006.16-5.68c4.24-4.54 7.82-9.8 9.97-15.64a31.77 31.77 0 002-10.8c0-.14-.12-.18-.24-.18H24.56c-.2 0-.56.09-.56.34.06 11.76 7.13 22.45 15.67 30.03.97.86 1.96 1.68 2.99 2.46.65.5 1.63.98 2.1 1.66.4.55.44 1.3.15 1.91-.23.48-.66.71-1.07 1a54.22 54.22 0 00-13.77 14.5C26.43 76.26 24.02 82.74 24 89.5c0 .1.06.15.16.17l9.33 2.2 15.17 3.6c1.19.27 2.4.67 3.62.85.66.1 1.45-.25 2.08-.4l13.96-3.42c3.8-.94 7.63-1.76 11.4-2.8l.2-.05c.14-.03.34-.13.34-.3-.05-10.9-6.15-20.84-13.74-28.24a54.62 54.62 0 00-5.98-5.06z" fill="#637AAB"/><path d="M82.84 4.25c0-2.21-14-4-31.26-4s-31.26 1.79-31.26 4c0 2.22 14 4 31.26 4 17.27 0 31.26-1.78 31.26-4" fill="#D6F3F9"/><path d="M80.87 5.42c-1.42.5-2.93.78-4.41 1.03-4.78.8-9.64 1.13-14.47 1.35-6.27.28-12.55.3-18.82.07-5.08-.19-10.18-.5-15.2-1.26a36.2 36.2 0 01-4.8-.98c-.68-.2-1.93-.48-2.34-1.16-.77-1.29 3.98-2.06 4.57-2.18A99.86 99.86 0 0139.15.81C45.37.47 51.6.41 57.85.57 63.16.71 68.51 1 73.8 1.7c1.78.23 3.57.51 5.31.94.96.24 2.16.49 2.95 1.13.18.15.34.32.36.55-.05.63-1.09.93-1.56 1.1m2.37-1.25v-.03c-.02-.7-1-1.09-1.54-1.3a21.52 21.52 0 00-4.24-1.1A112.64 112.64 0 0062.38.23 232.4 232.4 0 0042.52.18c-5.25.2-10.53.53-15.71 1.4-1.58.26-3.17.56-4.68 1.1-.7.23-1.78.58-2.13 1.3-.75 1.6 3.5 2.34 4.3 2.51 4.63 1.03 9.45 1.38 14.18 1.65 6.55.38 13.12.45 19.67.27A147.1 147.1 0 0074.8 7.17c1.76-.25 3.53-.55 5.25-1.02.93-.26 2.07-.56 2.8-1.24.2-.18.4-.42.4-.7v-.04" fill="#637AAB"/><path d="M81.03 19.14c-6 1.79-26.73 6.6-58.7-.16a2.53 2.53 0 01-2-2.47V3.95c41.82 5.91 62.51 0 62.51 0v12.76c0 1.12-.73 2.11-1.8 2.43" fill="#89CEEF"/><path d="M81.1 17.4c-5.8 1.6-25.81 5.86-56.68-.13a2.3 2.3 0 01-1.93-2.2V4.3a268.4 268.4 0 0030.35 2.3c20.05.3 30-2.64 30-2.64v11.3c0 1-.7 1.87-1.75 2.16" fill="#ABE0F6"/><path d="M80.95 18.85c-7.41 2.2-15.27 3.03-22.97 3.26-6.89.2-13.79-.16-20.63-.97a165.6 165.6 0 01-12.3-1.94c-1.75-.34-4.22-.43-4.32-2.72-.02-.41 0-.83 0-1.24V4.34c12.86 1.78 25.86 2.8 38.84 2.5 6.8-.16 13.63-.65 20.31-1.92.85-.16 1.71-.33 2.55-.55v11.14c0 1.33.08 2.8-1.48 3.34m2.3-4.71V3.93c0-.26-.28-.33-.49-.27a60 60 0 01-9.4 1.63 172.4 172.4 0 01-28.51.72c-8.17-.4-16.3-1.23-24.4-2.37-.18-.02-.54.1-.54.34v10.5c0 1.44-.25 3.11.96 4.17.56.5 1.25.63 1.97.78a173.08 173.08 0 009.98 1.76c12.6 1.84 25.55 2.3 38.17.4a74.15 74.15 0 0010.2-2.19 3 3 0 002.06-2.85c.01-.8 0-1.6 0-2.41" fill="#637AAB"/><path d="M81.03 103.82c-6 1.79-26.73 6.6-58.7-.16a2.53 2.53 0 01-2-2.47v-9.66c0-1.53 1.34-2.7 2.85-2.5 30.93 4.06 49.75 1.59 56.66.27 1.56-.3 3 .9 3 2.49v9.6c0 1.12-.73 2.11-1.8 2.43" fill="#89CEEF"/><path d="M81.1 101.78c-5.8 1.54-25.78 5.69-56.6-.14-1.12-.21-1.93-1.1-1.93-2.13v-8.33c0-1.32 1.3-2.33 2.76-2.16 29.82 3.5 47.96 1.38 54.61.24 1.5-.26 2.9.77 2.9 2.14v8.28c0 .97-.7 1.82-1.74 2.1" fill="#ABE0F6"/><path d="M82.43 95.71v5.36c0 1.07-.36 2.07-1.48 2.46-6.94 2.06-14.26 2.9-21.47 3.2-6.4.27-12.8.04-19.16-.59-3.85-.38-7.68-.9-11.5-1.56-2.08-.36-4.2-.68-6.26-1.2-1.2-.31-1.81-1.25-1.83-2.45-.05-3.12-.12-6.3 0-9.42.03-.7.3-1.39.89-1.81.9-.65 2.06-.29 3.07-.16a282.75 282.75 0 0017.34 1.63c10.4.62 20.9.64 31.27-.58a101.94 101.94 0 006.16-.91c1.33-.25 2.69.28 2.94 1.77.23 1.36.03 2.9.03 4.26m.82 4.06v-6.35c0-1.64.12-3.47-1.71-4.24-1.33-.56-3.12.08-4.5.3-9.67 1.48-19.56 1.68-29.33 1.33-8.06-.29-16.06-1.09-24.06-2.05-1.35-.16-2.68.2-3.39 1.46a3.73 3.73 0 00-.35 1.92v5.96c0 1.36-.34 3.39.42 4.6.91 1.46 2.93 1.5 4.44 1.8 2.18.42 4.36.8 6.55 1.15 7.26 1.13 14.6 1.77 21.95 1.82 8.84.05 17.85-.67 26.41-2.95a53.7 53.7 0 001.52-.44c1.19-.45 2-1.42 2.05-2.73.02-.52 0-1.05 0-1.58M89.02 34.61a27.27 27.27 0 01-5.21 5.17c-.16.12.57.05.72-.07 2-1.5 3.76-3.26 5.28-5.25.04-.05-.65-.04-.8.15M97.7 45.83a26 26 0 01-6.72 1.86c-.2.03-.87.38-.35.31a29.1 29.1 0 007.53-2.07c.48-.2-.27-.18-.46-.1M102.37 62.05a27.83 27.83 0 00-7.2-1.98c-.2-.03-.93.32-.5.38 2.43.33 4.79.99 7.05 1.95.2.09.94-.23.65-.35M94.15 75.52A27.81 27.81 0 0088 71.27c-.33-.17-.92.32-.46.56a27.21 27.21 0 016 4.16c.27.25.97-.15.62-.47M13.6 31.76a29.75 29.75 0 005.69 5.65c.27.2.98-.18.62-.45a29.16 29.16 0 01-5.57-5.55c-.21-.27-.98.03-.74.35M4.45 43.9a29.92 29.92 0 007.77 2.15c.18.02.92-.29.52-.34a29.07 29.07 0 01-7.53-2.08c-.22-.1-.86.23-.76.28" fill="#637AAB"/><g transform="translate(0 58.78)"><mask id="b" fill="#fff"><use xlink:href="#a"/></mask><path d="M.59 2.8A28.68 28.68 0 018.02.73c.46-.06.62-.68.07-.6A30.3 30.3 0 00.23 2.3c-.51.21-.06.67.36.5" fill="#637AAB" mask="url(#b)"/></g><path d="M9.49 76.05a29.06 29.06 0 016.44-4.46c.48-.25.05-.73-.37-.51a29.86 29.86 0 00-6.62 4.57c-.4.37.23.69.55.4" fill="#637AAB"/></g></svg>