<svg width="81" height="110" xmlns="http://www.w3.org/2000/svg" xmlns:xlink="http://www.w3.org/1999/xlink"><defs><path id="a" d="M.1.03h69.55v18.86H.1z"/><path id="c" d="M0 .04h80.37v40.54H0z"/></defs><g fill="none" fill-rule="evenodd"><g transform="translate(4.86 90.1)"><mask id="b" fill="#fff"><use xlink:href="#a"/></mask><path d="M68.48 5.73c1.06 1.03 1.46 2.24.95 3.66-3.48 9.87-19.37 9.52-27.08 9.5-9.7-.05-19.78.18-28.51-2.25C10.18 15.62 1.9 14.67.46 11.33-3.3 2.53 23.1.19 27.38.08 34.5-.1 62.4-.13 68.48 5.73" fill="#D3DCE6" mask="url(#b)"/></g><path d="M2.94 14.57l74.5 1.34-8.8 75.38c-.13 6.85-13.58 12.17-30.04 11.87-16.46-.3-29.7-6.1-29.58-12.95.01-.34-6.08-75.64-6.08-75.64" fill="#6CBEE2"/><path d="M72.58 36.22l-6.72 52.65c-1.3 7.15-12.52 11.96-28.42 11.68-15.9-.29-28.7-5.89-28.58-12.5 0-.2-4.73-54.73-4.4-54.55 36.27 20 68.12 2.72 68.12 2.72" fill="#89CEEF"/><path d="M75.74 26.84l-2.85 24.4-2.98 25.41-1.67 14.26c-.07.6-.08 1.2-.25 1.78-.58 2.06-2.3 3.62-4.03 4.76-5.52 3.66-12.71 4.83-19.18 5.27-7.7.54-15.7-.09-23.08-2.41-2.8-.89-5.6-2.04-8.01-3.73-1.71-1.2-3.4-2.8-4-4.85-.36-1.2-.3-2.67-.4-3.9l-.59-7.3a48603.92 48603.92 0 00-5.3-65.66l6.8.12 17.81.32 21.46.4 18.63.33 6.13.1 1.92.04c.2 0 .57.08.83.06l-1.24 10.6m1.87-11.21l-7.42-.14-17.81-.32-21.46-.39-18.63-.34c-3-.05-6.07-.29-9.07-.16H3.2c-.26-.06-.72.12-.7.4l.92 11.3A232984.3 232984.3 0 017.5 76.7c.36 4.48.81 8.97 1.07 13.46.05.89.25 2.12.8 3.12 1.07 1.96 2.94 3.4 4.82 4.54 5.7 3.42 12.68 4.78 19.23 5.37 7.56.67 15.41.27 22.74-1.8a30.5 30.5 0 007.94-3.33c1.75-1.1 3.49-2.54 4.39-4.46.6-1.28.62-2.8.79-4.2l.81-6.98 2.8-23.96 3.06-26.14 1.84-15.7.09-.75c.02-.15-.15-.24-.28-.24" fill="#637AAB"/><path d="M.44 12.91C.44 6.05 18.24.5 40.19.51c21.95 0 39.74 5.56 39.74 12.42a4 4 0 01-.04.57h.04l-1.48 15.46C66.19 43.71 15.17 45.21 1.77 27.34L.44 13.49h.05a4 4 0 01-.05-.58" fill="#89CEEF"/><path d="M79.48 14.5l-3.46 12.22C65.8 39.36 14.77 42.25 1.99 23.81l-.55-10.94 78.04 1.63z" fill="#ABE0F6"/><path d="M.44 12.91c0 6.86 17.8 12.43 39.74 12.43 21.95 0 39.75-5.55 39.75-12.41S62.13.5 40.2.5C18.24.5.44 6.05.44 12.91" fill="#D6F3F9"/><g transform="translate(0 .14)"><mask id="d" fill="#fff"><use xlink:href="#c"/></mask><path d="M78.72 21.49l-.52 5.4-.15 1.57c-.05.47-.08.4-.43.78-2.25 2.47-5.24 4.2-8.26 5.54a55.7 55.7 0 01-11.8 3.58 87.9 87.9 0 01-28.13.87C21.3 38.18 12.58 36.03 6 30.87c-.71-.56-1.4-1.16-2.04-1.81-.54-.54-1.37-1.23-1.7-1.93-.33-.73-.23-1.93-.3-2.73l-.82-8.47c1.57 2.04 4.45 3.42 6.51 4.3 6.04 2.6 12.7 3.75 19.2 4.46 8.28.9 16.69.93 24.97.13 6.62-.64 13.38-1.76 19.6-4.19a24.06 24.06 0 006.04-3.23 9.95 9.95 0 001.83-1.8l-.56 5.89M.92 13.22l-.04-.48c.05-3.7 4.58-5.86 7.46-7.07 5.9-2.51 12.41-3.64 18.75-4.32 8-.87 16.12-.92 24.14-.18 6.54.6 13.2 1.66 19.37 4 1.13.42 2.58 1 3.98 1.76.72.4 1.41.85 2.07 1.36 1.19.92 2.33 2.1 2.72 3.61.1.47.14.97.08 1.5v.1c-.39 2.74-3.6 4.72-5.86 5.84-5.42 2.7-11.6 3.89-17.56 4.69a119.75 119.75 0 01-24.22.7c-6.79-.47-13.67-1.44-20.15-3.59a30.17 30.17 0 01-6.75-3.04c-1.4-.9-2.83-2.02-3.58-3.55a4.5 4.5 0 01-.41-1.33m79.42-.04v-.06a4.42 4.42 0 00-.74-2.92c-1.32-2.17-4.1-3.67-6.2-4.64-5.9-2.72-12.53-3.93-18.94-4.7A121.98 121.98 0 0029.35.54c-6.8.6-13.72 1.7-20.12 4.14-2.4.92-4.82 2.05-6.77 3.75-1.3 1.12-2.44 2.6-2.46 4.4a11.31 11.31 0 00.03.5.3.3 0 00-.03.14l.85 8.86.44 4.52c.1 1.14 1.35 2.1 2.13 2.86 5.93 5.74 14.51 8.28 22.44 9.65a88.96 88.96 0 0028.67.13A65.5 65.5 0 0067.2 36.3c3.36-1.24 6.68-2.86 9.43-5.18.73-.6 2.11-1.57 2.29-2.54.23-1.27.25-2.61.37-3.9l1.02-10.62.07-.73c0-.05 0-.1-.03-.14" fill="#637AAB" mask="url(#d)"/></g><path d="M48.1 14.99c2.28-7.1-8.03-10.47-13.16-7.87a5.04 5.04 0 00-2.8 3.77c-.04.21.81.06.85-.15 1.04-6.56 11.1-4.48 13.75-.27a5.46 5.46 0 01.51 4.67c-.06.17.79.07.86-.15" fill="#637AAB"/><path d="M17.53 92.61a3.23 3.23 0 01-2.21-2.82l-3.54-44.9a3.23 3.23 0 013.8-3.44l2.22.41c1.5.28 2.6 1.56 2.64 3.08l1.33 44.5a3.23 3.23 0 01-4.24 3.17" fill="#C0E8F5"/><path d="M17.79 92.32c-2.5-.82-2.18-4.4-2.34-6.52l-.93-11.7a7878506.33 7878506.33 0 01-2.26-28.76l-.05-.55c-.06-1.68 1.2-3.23 2.98-3.06 2.1.2 4.64.73 4.8 3.3.05.64.05 1.3.07 1.94l.73 24.36c.18 6.04.54 12.1.54 18.15 0 1.91-1.62 3.4-3.54 2.84m4.35-5.2l-.34-11.29-.82-27.42c-.07-2.47.38-5.93-2.69-6.78-2.18-.61-4.95-1.05-6.4 1.16-.64 1-.56 2.03-.48 3.13l1.91 24.22 1.07 13.54c.17 2.07.26 4.16.5 6.23a3.53 3.53 0 002.4 2.99c2.42.7 4.93-.95 4.92-3.55 0-.74-.05-1.48-.07-2.22" fill="#637AAB"/><path d="M59.69 93.8A3.2 3.2 0 0062 91.1l5.15-44a3.2 3.2 0 00-3.68-3.5l-2.22.32a3.2 3.2 0 00-2.75 2.94l-2.93 43.66a3.22 3.22 0 004.12 3.27" fill="#C0E8F5"/><path d="M66.71 47.17c-.04.54-.13 1.09-.19 1.63L63.8 72.17l-1.49 12.7c-.24 2.06-.41 4.15-.73 6.2-.17 1.12-.82 2.11-1.96 2.44-2.25.54-3.71-1.38-3.57-3.43l.19-2.83.74-11.1 1.71-25.55.21-3.14c.1-1.51.67-2.9 2.39-3.22.91-.17 2.09-.46 3.02-.31 1.57.25 2.53 1.71 2.41 3.24m-2.95-3.9c-2.22.15-5.06.57-5.63 3.14-.14.64-.13 1.34-.17 1.98l-1.68 25.07-.85 12.68-.25 3.6c-.07 1.14-.1 2.23.7 3.19a3.78 3.78 0 003.89 1.16c2.94-.83 2.8-4.01 3.08-6.46l1.4-12.04 3.05-25.97c.09-.8.2-1.6.28-2.4a3.55 3.55 0 00-3.82-3.95" fill="#637AAB"/><path d="M46.22 96.26h.12a3.18 3.18 0 002.96-2.97l2.19-43.31a3.18 3.18 0 00-3.44-3.28l-2.3.15a3.18 3.18 0 00-3.02 3.12l-.02 43.18a3.19 3.19 0 003.5 3.11" fill="#C0E8F5"/><path d="M50.96 51.77l-1.19 23.47-.62 12.3c-.1 1.91-.13 3.85-.3 5.77a2.79 2.79 0 01-2.6 2.64c-2.04.1-3.1-1.54-3.1-3.37v-2.97-11.18l.02-25.1v-2.89c0-1.67.79-3.12 2.64-3.28.9-.08 1.93-.25 2.83-.11a2.93 2.93 0 012.4 2.98c0 .58-.05 1.17-.08 1.74m-2.5-5.38c-2.11-.06-4.85.07-5.86 2.26-.37.8-.31 1.65-.31 2.5a1085440.53 1085440.53 0 00-.02 37.13v3.82c0 .89-.07 1.76.35 2.59.69 1.34 2.1 1.95 3.56 1.89a3.73 3.73 0 003.57-3.54l.13-2.62.58-11.5 1.33-26.19c.04-.86.1-1.71.13-2.57a3.51 3.51 0 00-3.47-3.77" fill="#637AAB"/><path d="M31.67 96.86h.15a3.23 3.23 0 003.43-3.18l.56-44.65a3.23 3.23 0 00-3.1-3.27l-2.33-.1a3.23 3.23 0 00-3.36 3.35l1.61 44.74a3.23 3.23 0 003.04 3.1" fill="#C0E8F5"/><path d="M35.35 50.93l-.31 24.3-.16 12.71c-.02 1.92.01 3.85-.07 5.76-.08 1.65-1.3 2.95-2.99 2.84-3.3-.32-2.8-4.15-2.88-6.52l-.42-11.7-.93-25.86c-.08-2.28-.84-6.47 2.66-6.48.83 0 1.72 0 2.55.1a3 3 0 012.57 3c.01.62-.02 1.24-.02 1.85m-2.25-5.47c-2.2-.26-4.97-.37-6.14 1.92-.46.89-.37 1.81-.34 2.77l.9 24.66.48 13.46.14 4.15c.03.7-.02 1.49.17 2.17a3.6 3.6 0 003.2 2.58c2.22.13 4.12-1.38 4.18-3.66.02-.83.02-1.66.03-2.5l.15-11.68.34-27.15.04-2.89c.01-1.92-1.14-3.59-3.15-3.83" fill="#637AAB"/></g></svg>