<svg width="16px" height="18px" viewBox="0 0 16 18" version="1.1" xmlns="http://www.w3.org/2000/svg"><path fill="#4A5568" d="M10.286,0 C10.914,0 11.429,0.506 11.429,1.125 L11.429,1.125 L11.429,3.001 L15.429,3.001 C15.748,3.001 16,3.249 16,3.564 C16,3.879 15.748,4.126 15.429,4.126 L15.429,4.126 L14.286,4.126 L14.286,15.671 C14.286,16.953 13.223,18 11.909,18 L11.909,18 L4.091,18 C2.777,18 1.714,16.953 1.714,15.671 L1.714,15.671 L1.714,4.126 L0.571,4.126 C0.251,4.126 0,3.879 0,3.564 C0,3.249 0.251,3.001 0.571,3.001 L0.571,3.001 L4.571,3.001 L4.571,1.125 C4.571,0.506 5.086,0 5.714,0 L5.714,0 Z M13.143,4.126 L2.857,4.126 L2.857,15.671 C2.857,16.335 3.406,16.875 4.091,16.875 L4.091,16.875 L11.909,16.875 C12.594,16.875 13.143,16.335 13.143,15.671 L13.143,15.671 L13.143,4.126 Z M9.9999,6.0006 C10.2759,6.0006 10.4999,6.2246 10.4999,6.5006 L10.4999,14.5006 C10.4999,14.7766 10.2759,15.0006 9.9999,15.0006 C9.7239,15.0006 9.4999,14.7766 9.4999,14.5006 L9.4999,6.5006 C9.4999,6.2246 9.7239,6.0006 9.9999,6.0006 Z M6.1874,6.0006 C6.4634,6.0006 6.6874,6.2246 6.6874,6.5006 L6.6874,14.5006 C6.6874,14.7766 6.4634,15.0006 6.1874,15.0006 C5.9114,15.0006 5.6874,14.7766 5.6874,14.5006 L5.6874,6.5006 C5.6874,6.2246 5.9114,6.0006 6.1874,6.0006 Z M10.285,1.125 L5.714,1.125 L5.714,3.001 L10.285,3.001 L10.285,1.125"/></svg>