<?xml version="1.0" encoding="utf-8"?>
<svg version="1.1" xmlns="http://www.w3.org/2000/svg" x="0" y="0"
	 viewBox="-250 123.5 458.3 314.7">
		<path d="M23.3,306.6c1.4,0,2.7-0.1,4-0.2c1-0.1,2.2-0.2,3.1-0.7c1.9-1.1,1.9-3,1.6-4.9c-0.4-2.2-2.3-3.4-4.4-3.1
			c-2.3,0.3-4.7,0.2-6.7-0.9c-4-2.2-5-7.7-3.2-11.7c1.1-2.4,3.2-3.9,5.8-4.4c1.3-0.2,2.7-0.2,4,0c1.3,0.2,2.5-0.1,3.5-1
			c1.1-1.2,1.6-3.7,1-5.2c-1.1-2.6-4.8-2.5-7.3-2.5c-4.3,0-8.7,1.1-12.3,3.7c-6.7,4.9-8.5,14.9-4.9,22.2
			C10.5,303.8,16.8,306.6,23.3,306.6z"/>
		<path d="M44.6,303.5c1.2,3.2,5.7,2.4,8.4,2.4c1.7,0,3.4-0.6,4-2.3c0.1-0.3,0.3-0.7,0.4-1c2-5.3,3.9-10.6,5.9-15.8
			c0.9-2.5,1.8-4.9,2.7-7.4c0.8-2.2,1.6-4.8-1.1-6.2c-1.3-0.7-3-0.4-4.4-0.4c-1.8,0-3.6,0.5-4.3,2.4c-0.8,2.1-1.2,4.3-1.8,6.4
			c-1.2,4.2-2.4,8.4-3.2,12.7c-1.2-6-3.2-12-4.9-17.9c-0.3-1-0.6-2-1.5-2.8c-1.3-1-2.9-0.8-4.4-0.8c-1.6,0-3.3-0.2-4.5,1.1
			c-1.1,1.1-1.2,2.6-0.7,4C38.3,286.4,41.5,295,44.6,303.5z"/>
		<path d="M79.5,303.5c1.2,3.2,5.7,2.4,8.4,2.4c1.7,0,3.4-0.6,4-2.3c0.1-0.3,0.3-0.7,0.4-1c2-5.3,3.9-10.6,5.9-15.8
			c0.9-2.5,1.8-4.9,2.7-7.4c0.8-2.2,1.6-4.8-1.1-6.2c-1.3-0.7-3-0.4-4.4-0.4c-1.8,0-3.6,0.5-4.3,2.4c-0.8,2.1-1.2,4.3-1.8,6.4
			c-1.2,4.2-2.4,8.4-3.2,12.7c-1.2-6-3.2-12-4.9-17.9c-0.3-1-0.6-2-1.5-2.8c-1.3-1-2.9-0.8-4.4-0.8c-1.6,0-3.3-0.2-4.5,1.1
			c-1.1,1.1-1.2,2.6-0.7,4C73.3,286.4,76.4,295,79.5,303.5z"/>
		<path d="M54.1,390.7c-21.6,0-41.7-6.6-58.4-17.9h-196.2c-12.2,0-22.1-9.9-22.1-22.1V231.6h187.8c10.3-16.7,25.2-30.3,42.9-39
			l-230.7,0v-19.6c0-12.2,9.9-22.1,22.1-22.1h314.8c12.2,0,22.1,9.9,22.1,22.1v19.6l-36.3,0c34.6,17,58.4,52.7,58.4,93.7
			c0,14.8-3.1,29.1-9,42.4l14.2,13.2V172.9c0-27.3-22.2-49.5-49.5-49.5h-314.8c-27.3,0-49.5,22.2-49.5,49.5v177.8
			c0,27.3,22.2,49.5,49.5,49.5h314l-19-17.6C81.8,388,68,390.7,54.1,390.7z"/>
		<path d="M-181.8,271.7c-4,0-7.2,3.2-7.2,7.2v21.4c0,4,3.2,7.2,7.2,7.2h133.6c-1.4-6.9-2.2-14-2.2-21.2c0-5,0.4-9.8,1-14.6
			L-181.8,271.7L-181.8,271.7z"/>
		<path d="M202.6,407.2l-73.5-68.3c10.4-14.9,16.5-33,16.5-52.5c0-50.7-41.1-91.9-91.9-91.9s-91.9,41.1-91.9,91.9
			c0,50.8,41.1,91.9,91.9,91.9c18.2,0,35.2-5.3,49.5-14.5l74.9,69.7c3.5,3.2,7.8,4.8,12.2,4.8c4.8,0,9.6-1.9,13.1-5.7
			C210.2,425.3,209.8,413.9,202.6,407.2z M53.7,225.7c33.5,0,60.7,27.2,60.7,60.7c0,33.5-27.2,60.7-60.7,60.7S-7,319.8-7,286.4
			C-7,252.9,20.3,225.7,53.7,225.7z"/>
</svg>