<?xml version="1.0" encoding="UTF-8"?>
<svg width="25px" height="20px" viewBox="0 0 25 20" version="1.1" xmlns="http://www.w3.org/2000/svg" xmlns:xlink="http://www.w3.org/1999/xlink">
    <title>Group 7</title>
    <g id="desktop" stroke="none" stroke-width="1" fill="none" fill-rule="evenodd">
        <g id="pay+-collapsed" transform="translate(-442.000000, -317.000000)" fill="#00BECF" fill-rule="nonzero">
            <g id="Group-7" transform="translate(442.000000, 317.032399)">
                <g id="Group-5">
                    <path d="M5.57757009,0 L0.498442368,0 C0.22317757,0 0,0.22317757 0,0.498442368 L0,5.57258567 C0,5.84785047 0.22317757,6.07102804 0.498442368,6.07102804 C0.773707165,6.07102804 0.996884735,5.84785047 0.996884735,5.57258567 L0.996884735,0.996884735 L5.57757009,0.996884735 C5.85283489,0.996884735 6.07601246,0.773707165 6.07601246,0.498442368 C6.07601246,0.22317757 5.85283489,0 5.57757009,0 Z" id="Path"></path>
                    <path d="M24.1146417,0 L19.035514,0 C18.7602492,0 18.5370717,0.22317757 18.5370717,0.498442368 C18.5370717,0.773707165 18.7602492,0.996884735 19.035514,0.996884735 L23.6161994,0.996884735 L23.6161994,5.57757009 C23.6161994,5.85283489 23.8393769,6.07601246 24.1146417,6.07601246 C24.3899065,6.07601246 24.6130841,5.85283489 24.6130841,5.57757009 L24.6130841,0.498442368 C24.6130841,0.22317757 24.3899065,0 24.1146417,0 Z" id="Path"></path>
                    <path d="M5.57757009,18.94081 L0.996884735,18.94081 L0.996884735,14.365109 C0.996884735,14.0898442 0.773707165,13.8666667 0.498442368,13.8666667 C0.22317757,13.8666667 0,14.0898442 0,14.365109 L0,19.4392523 C0,19.7145171 0.22317757,19.9376947 0.498442368,19.9376947 L5.57757009,19.9376947 C5.85283489,19.9376947 6.07601246,19.7145171 6.07601246,19.4392523 C6.07601246,19.1639875 5.85283489,18.94081 5.57757009,18.94081 Z" id="Path"></path>
                    <path d="M24.1146417,13.8666667 C23.8393769,13.8666667 23.6161994,14.0898442 23.6161994,14.365109 L23.6161994,18.94081 L19.035514,18.94081 C18.7602492,18.94081 18.5370717,19.1639875 18.5370717,19.4392523 C18.5370717,19.7145171 18.7602492,19.9376947 19.035514,19.9376947 L24.1146417,19.9376947 C24.3899065,19.9376947 24.6130841,19.7145171 24.6130841,19.4392523 L24.6130841,14.365109 C24.6130841,14.0898442 24.3899065,13.8666667 24.1146417,13.8666667 Z" id="Path"></path>
                    <path d="M23.4367601,9.63489097 C23.2373832,9.4105919 18.4523364,4.15202492 12.3962617,4.15202492 C6.34018692,4.15202492 1.55514019,9.4105919 1.34080997,9.63489097 C1.16959502,9.82461059 1.16959502,10.1130841 1.34080997,10.3028037 C1.54018692,10.5271028 6.32523364,15.7856698 12.3813084,15.7856698 C18.4373832,15.7856698 23.2373832,10.5271028 23.4367601,10.3028037 C23.6079751,10.1130841 23.6079751,9.82461059 23.4367601,9.63489097 Z M2.41744548,9.96884735 C3.29968847,9.09657321 5.90654206,6.74392523 9.19626168,5.68224299 C6.85003115,8.05838006 6.85003115,11.8793146 9.19626168,14.2554517 C5.89657321,13.1937695 3.29968847,10.8411215 2.41744548,9.96884735 Z M12.3962617,14.5894081 L12.3862928,14.5894081 C10.2031153,14.5894081 8.42367601,12.5158879 8.42367601,9.96884735 C8.42367601,7.42180685 10.2031153,5.3482866 12.3862928,5.3482866 C14.5694704,5.3482866 16.3489097,7.42180685 16.3489097,9.96884735 C16.3489097,12.5158879 14.5794393,14.5894081 12.3962617,14.5894081 Z M15.5962617,14.2554517 L15.5862928,14.2504673 C17.9325234,11.8743302 17.9325234,8.05339564 15.5862928,5.67725857 C18.8859813,6.73395639 21.482866,9.09158879 22.365109,9.96386293 C21.4928349,10.8411215 18.8959502,13.1937695 15.5962617,14.2554517 Z" id="Shape"></path>
                </g>
                <path d="M12.3962617,8.00498442 C11.3116511,8.00498442 10.4323988,8.88423676 10.4323988,9.96884735 C10.4323988,11.0534579 11.3116511,11.9327103 12.3962617,11.9327103 C13.4808723,11.9327103 14.3601246,11.0534579 14.3601246,9.96884735 C14.3601246,8.88423676 13.4808723,8.00498442 12.3962617,8.00498442 Z M12.3962617,10.9358255 C11.862243,10.9358255 11.4292835,10.5029283 11.4292835,9.96884735 C11.4292835,9.43476636 11.862243,9.00186916 12.3962617,9.00186916 C12.9302804,9.00186916 13.3632399,9.43482866 13.3632399,9.96884735 C13.3632399,10.502866 12.9302804,10.9358255 12.3962617,10.9358255 Z" id="Shape"></path>
            </g>
        </g>
    </g>
</svg>