<svg width="56px" height="36px" viewBox="0 0 56 36" version="1.1" xmlns="http://www.w3.org/2000/svg" xmlns:xlink="http://www.w3.org/1999/xlink">
    <g id="Page-1" stroke="none" stroke-width="1" fill="none" fill-rule="evenodd">
                <path d="M0,3.75075247 C0,1.67926908 1.67596877,0 3.75035585,0 L52.2496442,0 C54.3209085,0 56,1.68806916 56,3.75075247 L56,32.2492475 C56,34.3207309 54.3240312,36 52.2496442,36 L3.75035585,36 C1.67909151,36 0,34.3119308 0,32.2492475 L0,3.75075247 Z" id="Rectangle-2" fill="#000000" fill-rule="nonzero"></path>
                <path d="M1.25,3.75075247 L1.25,32.2492475 C1.25,33.6250965 2.37296468,34.75 3.75035585,34.75 L52.2496442,34.75 C53.6324061,34.75 54.75,33.6316447 54.75,32.2492475 L54.75,3.75075247 C54.75,2.37490355 53.6270353,1.25 52.2496442,1.25 L3.75035585,1.25 C2.36759386,1.25 1.25,2.36835527 1.25,3.75075247 Z" id="Path" fill="#FFFFFF"></path>
            <g id="Dankort-logo" transform="translate(8.000000, 7.000000)">
                <path d="M11.7404564,0.252920962 C5.39688797,0.252920962 0.242738589,5.28762887 0.242738589,11.4762887 C0.242738589,17.6649485 5.39688797,22.7075601 11.7404564,22.7075601 L27.2190871,22.7075601 C33.5545643,22.7075601 38.716805,17.6728522 38.716805,11.4762887 C38.716805,5.28762887 33.5626556,0.245017182 27.2190871,0.245017182 L11.7404564,0.245017182 L11.7404564,0.252920962 Z" id="Shape" fill="#FFFFFF"></path>
                <path d="M27.2190871,22.9367698 L11.7404564,22.9367698 C5.27551867,22.9367698 0.00809128631,17.7993127 0.00809128631,11.4762887 C0.00809128631,5.16116838 5.26742739,0.0237113402 11.7404564,0.0237113402 L27.2190871,0.0237113402 C33.6840249,0.0237113402 38.943361,5.16116838 38.943361,11.4762887 C38.943361,17.7993127 33.6840249,22.9367698 27.2190871,22.9367698 L27.2190871,22.9367698 Z M11.7404564,0.252920962 C5.39688797,0.252920962 0.242738589,5.28762887 0.242738589,11.4762887 C0.242738589,17.6649485 5.39688797,22.7075601 11.7404564,22.7075601 L27.2190871,22.7075601 C33.5545643,22.7075601 38.716805,17.6728522 38.716805,11.4762887 C38.716805,5.28762887 33.5626556,0.245017182 27.2190871,0.245017182 L11.7404564,0.245017182 L11.7404564,0.252920962 Z" id="Shape" fill="#FFFFFF"></path>
                <path d="M29.9215768,10.7965636 L35.0676349,16.7797251 C36.1356846,15.2780069 36.7587137,13.4522337 36.7587137,11.4841924 C36.7587137,9.41340206 36.0628631,7.49278351 34.8815353,5.94364261 L29.9215768,10.7965636 Z" id="Shape" fill="#E31F28"></path>
                <path d="M15.3329876,5.42989691 C19.1763485,5.42989691 22.073029,6.3862543 22.3724066,9.54776632 L26.4180498,5.42989691 L34.476971,5.42989691 C32.7211618,3.42233677 30.1238589,2.14982818 27.2190871,2.14982818 L11.7404564,2.14982818 C8.83568465,2.14982818 6.23029046,3.42233677 4.48257261,5.42989691 L15.3329876,5.42989691 Z" id="Shape" fill="#E31F28"></path>
                <path d="M9.00560166,9.42130584 L7.63008299,13.1044674 L13.1726141,13.1044674 C14.8070539,13.1044674 15.3087137,12.4405498 15.6728216,11.1680412 C16.0369295,9.90343643 15.1226141,9.42130584 14.0060166,9.42130584 L9.00560166,9.42130584 Z" id="Shape" fill="#E31F28"></path>
                <path d="M26.4585062,17.2776632 L22.1782158,11.9979381 C21.3852697,15.6020619 18.7960581,17.2776632 13.9412863,17.2776632 L4.26410788,17.2776632 C6.01182573,19.4274914 8.71431535,20.8027491 11.7404564,20.8027491 L27.2190871,20.8027491 C30.2452282,20.8027491 32.9396266,19.4195876 34.6873444,17.2776632 L26.4585062,17.2776632 Z" id="Shape" fill="#E31F28"></path>
            </g>
    </g>
</svg>