<?xml version="1.0" encoding="UTF-8"?>
<svg width="780px" height="500px" viewBox="0 0 56 36" version="1.1" xmlns="http://www.w3.org/2000/svg" xmlns:xlink="http://www.w3.org/1999/xlink">
    <!-- Generator: Sketch 46.2 (44496) - http://www.bohemiancoding.com/sketch -->
    <title>PM/MasterCard</title>
    <desc>Created with Sketch.</desc>
    <defs></defs>
    <g id="Page-1" stroke="none" stroke-width="1" fill="none" fill-rule="evenodd">
        <g id="PM/MasterCard">
            <g id="Group">
                <path d="M0,3.75075247 C0,1.67926908 1.67596877,0 3.75035585,0 L52.2496442,0 C54.3209085,0 56,1.68806916 56,3.75075247 L56,32.2492475 C56,34.3207309 54.3240312,36 52.2496442,36 L3.75035585,36 C1.67909151,36 0,34.3119308 0,32.2492475 L0,3.75075247 Z" id="Rectangle-2" fill="#000000" fill-rule="nonzero"></path>
                <path d="M1.25,3.75075247 L1.25,32.2492475 C1.25,33.6250965 2.37296468,34.75 3.75035585,34.75 L52.2496442,34.75 C53.6324061,34.75 54.75,33.6316447 54.75,32.2492475 L54.75,3.75075247 C54.75,2.37490355 53.6270353,1.25 52.2496442,1.25 L3.75035585,1.25 C2.36759386,1.25 1.25,2.36835527 1.25,3.75075247 Z" id="Path" fill="#FFFFFF"></path>
                <g id="mc_vrt_pos" transform="translate(8.000000, 2.000000)">
                    <rect id="Rectangle-path" x="0" y="0" width="39.9455782" height="31.8439669"></rect>
                    <path d="M9.89115646,27.8373554 L9.89115646,26.2505785 C9.91040547,25.9806136 9.80920051,25.715652 9.61336085,25.5232905 C9.41752119,25.3309289 9.14598537,25.2297694 8.86802721,25.2456198 C8.50172357,25.2222804 8.15138218,25.3945557 7.9537415,25.6952066 C7.77354991,25.4035198 7.44361315,25.2310097 7.09387755,25.2456198 C6.78936527,25.2306584 6.49947253,25.3735443 6.33197279,25.621157 L6.33197279,25.3090909 L5.76598639,25.3090909 L5.76598639,27.8373554 L6.33741497,27.8373554 L6.33741497,26.446281 C6.312805,26.2712305 6.36987147,26.0946399 6.49304143,25.9646994 C6.61621138,25.8347589 6.79262836,25.7650316 6.97414966,25.7745455 C7.34965986,25.7745455 7.54013605,26.012562 7.54013605,26.4409917 L7.54013605,27.8479339 L8.11156463,27.8479339 L8.11156463,26.446281 C8.08796451,26.2714295 8.14537992,26.0954112 8.26832152,25.9657116 C8.39126311,25.8360119 8.56706479,25.7659935 8.74829932,25.7745455 C9.13469388,25.7745455 9.31972789,26.012562 9.31972789,26.4409917 L9.31972789,27.8479339 L9.89115646,27.8373554 Z M18.3455782,25.3090909 L17.414966,25.3090909 L17.414966,24.5421488 L16.8435374,24.5421488 L16.8435374,25.3090909 L16.3265306,25.3090909 L16.3265306,25.8115702 L16.8544218,25.8115702 L16.8544218,26.9752066 C16.8544218,27.562314 17.0884354,27.911405 17.7578231,27.911405 C18.0079071,27.9122214 18.2531449,27.8443842 18.4653061,27.7157025 L18.3020408,27.2449587 C18.1502594,27.332948 17.9779948,27.3820834 17.8013605,27.3877686 C17.5292517,27.3877686 17.4258503,27.2185124 17.4258503,26.9646281 L17.4258503,25.8115702 L18.3510204,25.8115702 L18.3455782,25.3090909 Z M23.1727891,25.2456198 C22.8916782,25.2375848 22.6285668,25.3796504 22.4870748,25.6158678 L22.4870748,25.3090909 L21.9265306,25.3090909 L21.9265306,27.8373554 L22.492517,27.8373554 L22.492517,26.4198347 C22.492517,26.0019835 22.677551,25.7692562 23.0367347,25.7692562 C23.1577916,25.7676468 23.2779905,25.7892139 23.3904762,25.8327273 L23.5646259,25.3038017 C23.4353665,25.2588599 23.299185,25.2356084 23.1619048,25.2350413 L23.1727891,25.2456198 Z M15.8748299,25.5100826 C15.5544558,25.3249526 15.1861088,25.2331586 14.8136054,25.2456198 C14.155102,25.2456198 13.7251701,25.5523967 13.7251701,26.054876 C13.7251701,26.467438 14.0408163,26.7213223 14.6231293,26.8006612 L14.8952381,26.837686 C15.2054422,26.88 15.352381,26.9593388 15.352381,27.1021488 C15.352381,27.2978512 15.1455782,27.4089256 14.7591837,27.4089256 C14.4483816,27.4176693 14.1435927,27.3245169 13.8938776,27.1444628 L13.6217687,27.5728926 C13.9514596,27.7966256 14.346346,27.9115774 14.7482993,27.9008264 C15.4993197,27.9008264 15.9346939,27.5570248 15.9346939,27.0757025 C15.9346939,26.5943802 15.5918367,26.3986777 15.0258503,26.3193388 L14.7537415,26.282314 C14.5088435,26.2505785 14.3129252,26.2029752 14.3129252,26.033719 C14.3129252,25.8644628 14.4979592,25.7375207 14.8081633,25.7375207 C15.0948777,25.7407577 15.3759445,25.8154239 15.6244898,25.9543802 L15.8748299,25.5100826 Z M31.0340136,25.2456198 C30.7529027,25.2375848 30.4897913,25.3796504 30.3482993,25.6158678 L30.3482993,25.3090909 L29.7877551,25.3090909 L29.7877551,27.8373554 L30.3537415,27.8373554 L30.3537415,26.4198347 C30.3537415,26.0019835 30.5387755,25.7692562 30.8979592,25.7692562 C31.0190161,25.7676468 31.139215,25.7892139 31.2517007,25.8327273 L31.4258503,25.3038017 C31.296591,25.2588599 31.1604095,25.2356084 31.0231293,25.2350413 L31.0340136,25.2456198 Z M23.7414966,26.5679339 C23.7278851,26.9271894 23.870668,27.2753885 24.1347983,27.5270634 C24.3989286,27.7787384 24.7599515,27.9105876 25.1292517,27.8902479 C25.4690826,27.9070519 25.8030569,27.7994843 26.0653061,27.5887603 L25.7931973,27.1444628 C25.5975431,27.2894707 25.3589613,27.3692367 25.1129252,27.3719008 C24.6791022,27.337786 24.344922,26.9856554 24.344922,26.5626446 C24.344922,26.1396339 24.6791022,25.7875033 25.1129252,25.7533884 C25.3589613,25.7560526 25.5975431,25.8358185 25.7931973,25.9808264 L26.0653061,25.5365289 C25.8030569,25.325805 25.4690826,25.2182374 25.1292517,25.2350413 C24.7599515,25.2147016 24.3989286,25.3465509 24.1347983,25.5982258 C23.870668,25.8499008 23.7278851,26.1980999 23.7414966,26.5573554 L23.7414966,26.5679339 Z M29.0421769,26.5679339 L29.0421769,25.3090909 L28.4761905,25.3090909 L28.4761905,25.6158678 C28.2811982,25.3720198 27.9774085,25.2342349 27.6598639,25.2456198 C26.9084561,25.2456198 26.2993197,25.83764 26.2993197,26.5679339 C26.2993197,27.2982278 26.9084561,27.8902479 27.6598639,27.8902479 C27.9774085,27.9016329 28.2811982,27.7638479 28.4761905,27.52 L28.4761905,27.8267769 L29.0421769,27.8267769 L29.0421769,26.5679339 Z M26.9360544,26.5679339 C26.9612231,26.1529041 27.3231134,25.8335493 27.7505825,25.8491432 C28.1780515,25.864737 28.5142918,26.2095591 28.5073785,26.6252548 C28.5004652,27.0409506 28.1529343,27.3750313 27.7251701,27.3771901 C27.5073576,27.3798686 27.2982923,27.2940107 27.1484523,27.1403463 C26.9986123,26.9866819 26.9216162,26.7791774 26.9360544,26.5679339 L26.9360544,26.5679339 Z M20.1061224,25.2456198 C19.3547146,25.2558439 18.7541061,25.8561524 18.7646259,26.5864463 C18.7751456,27.3167402 19.3928099,27.900472 20.1442177,27.8902479 C20.5357114,27.9097782 20.920709,27.7872509 21.2244898,27.5464463 L20.952381,27.1391736 C20.7375135,27.3066522 20.4713202,27.3997146 20.1959184,27.4036364 C19.8069024,27.4361521 19.4619266,27.1618302 19.4176871,26.7847934 L21.3496599,26.7847934 C21.3496599,26.7160331 21.3496599,26.6472727 21.3496599,26.5732231 C21.3496599,25.7798347 20.8435374,25.2509091 20.1142857,25.2509091 L20.1061224,25.2456198 Z M20.1061224,25.7375207 C20.2771709,25.7339764 20.4426585,25.796636 20.5661603,25.9117075 C20.689662,26.026779 20.7610553,26.1848307 20.7646259,26.3510744 L19.4040816,26.3510744 C19.4245792,25.9979698 19.7315587,25.7254578 20.0952381,25.7375207 L20.1061224,25.7375207 Z M34.2857143,26.5732231 L34.2857143,24.2935537 L33.7414966,24.2935537 L33.7414966,25.6158678 C33.5465043,25.3720198 33.2427146,25.2342349 32.9251701,25.2456198 C32.1737622,25.2456198 31.5646259,25.83764 31.5646259,26.5679339 C31.5646259,27.2982278 32.1737622,27.8902479 32.9251701,27.8902479 C33.2427146,27.9016329 33.5465043,27.7638479 33.7414966,27.52 L33.7414966,27.8267769 L34.2857143,27.8267769 L34.2857143,26.5732231 Z M35.229932,27.4697521 C35.2653096,27.4693308 35.3004323,27.475619 35.3333333,27.4882645 C35.3645831,27.5006583 35.3931876,27.5185943 35.4176871,27.541157 C35.4415971,27.5639594 35.4609694,27.5908566 35.4748299,27.6204959 C35.5026833,27.6829216 35.5026833,27.7537726 35.4748299,27.8161983 C35.4609694,27.8458377 35.4415971,27.8727348 35.4176871,27.8955372 C35.3931876,27.9180999 35.3645831,27.936036 35.3333333,27.9484298 C35.3007571,27.9624001 35.2655386,27.9696062 35.229932,27.9695868 C35.1246394,27.9688154 35.0292552,27.9090729 34.985034,27.8161983 C34.9575031,27.753708 34.9575031,27.6829863 34.985034,27.6204959 C34.9988945,27.5908566 35.0182669,27.5639594 35.0421769,27.541157 C35.0666763,27.5185943 35.0952809,27.5006583 35.1265306,27.4882645 C35.1619728,27.4745622 35.199983,27.468255 35.2380952,27.4697521 L35.229932,27.4697521 Z M35.229932,27.9166942 C35.257091,27.9168546 35.2839797,27.9114477 35.3088435,27.9008264 C35.3322548,27.8906678 35.3534869,27.8763127 35.3714286,27.8585124 C35.4419856,27.783694 35.4419856,27.668868 35.3714286,27.5940496 C35.3535297,27.5762002 35.3322873,27.5618382 35.3088435,27.5517355 C35.2839551,27.5411891 35.257083,27.5357856 35.229932,27.5358678 C35.2028044,27.5360071 35.1759777,27.5414015 35.1510204,27.5517355 C35.1265727,27.5614784 35.1043706,27.5758638 35.0857143,27.5940496 C35.0151573,27.668868 35.0151573,27.783694 35.0857143,27.8585124 C35.1044165,27.8766438 35.1266067,27.8910216 35.1510204,27.9008264 C35.1784734,27.9123327 35.2082182,27.9177531 35.2380952,27.9166942 L35.229932,27.9166942 Z M35.2462585,27.6019835 C35.2716602,27.6007862 35.2966914,27.6082717 35.3170068,27.6231405 C35.3339054,27.6367328 35.3430235,27.6574106 35.3414966,27.6786777 C35.3422865,27.6964377 35.335377,27.7137058 35.322449,27.726281 C35.306677,27.7402039 35.2865569,27.7485845 35.2653061,27.7500826 L35.3442177,27.8373554 L35.2816327,27.8373554 L35.2081633,27.7500826 L35.1836735,27.7500826 L35.1836735,27.8373554 L35.1319728,27.8373554 L35.1319728,27.6046281 L35.2462585,27.6019835 Z M35.1863946,27.6469421 L35.1863946,27.7104132 L35.2462585,27.7104132 C35.2569112,27.7135 35.2682589,27.7135 35.2789116,27.7104132 C35.2827926,27.7029277 35.2827926,27.6940971 35.2789116,27.6866116 C35.2827926,27.679126 35.2827926,27.6702955 35.2789116,27.6628099 C35.2682589,27.6597231 35.2569112,27.6597231 35.2462585,27.6628099 L35.1863946,27.6469421 Z M32.1931973,26.5732231 C32.218366,26.1581934 32.5802563,25.8388386 33.0077253,25.8544324 C33.4351943,25.8700262 33.7714346,26.2148484 33.7645213,26.6305441 C33.7576081,27.0462398 33.4100772,27.3803205 32.9823129,27.3824793 C32.7645004,27.3851579 32.5554352,27.2992999 32.4055952,27.1456356 C32.2557551,26.9919712 32.178759,26.7844667 32.1931973,26.5732231 L32.1931973,26.5732231 Z M13.0829932,26.5732231 L13.0829932,25.3090909 L12.5170068,25.3090909 L12.5170068,25.6158678 C12.3220145,25.3720198 12.0182248,25.2342349 11.7006803,25.2456198 C10.9492724,25.2456198 10.3401361,25.83764 10.3401361,26.5679339 C10.3401361,27.2982278 10.9492724,27.8902479 11.7006803,27.8902479 C12.0182248,27.9016329 12.3220145,27.7638479 12.5170068,27.52 L12.5170068,27.8267769 L13.0829932,27.8267769 L13.0829932,26.5732231 Z M10.9768707,26.5732231 C11.0020395,26.1581934 11.3639298,25.8388386 11.7913988,25.8544324 C12.2188678,25.8700262 12.5551081,26.2148484 12.5481948,26.6305441 C12.5412815,27.0462398 12.1937506,27.3803205 11.7659864,27.3824793 C11.5472352,27.3866532 11.3367145,27.3014498 11.1856677,27.1476087 C11.0346208,26.9937677 10.9569018,26.7853993 10.9714286,26.5732231 L10.9768707,26.5732231 Z" id="Shape" fill="#231F20" fill-rule="nonzero"></path>
                    <g id="_Group_" transform="translate(4.081633, 3.966942)" fill-rule="nonzero">
                        <rect id="Rectangle-path" fill="#FF5F00" x="11.6054422" y="2.07603306" width="8.57142857" height="14.9712397"></rect>
                        <path d="M12.1496599,9.56297521 C12.1464551,6.6410558 13.526216,3.88007782 15.8911565,2.07603306 C11.8747729,-0.991721843 6.10708498,-0.544876813 2.64146881,3.10253747 C-0.824147355,6.74995175 -0.824147355,12.373354 2.64146881,16.0207683 C6.10708498,19.6681826 11.8747729,20.1150276 15.8911565,17.0472727 C13.5269684,15.2438007 12.1472918,12.4839666 12.1496599,9.56297521 L12.1496599,9.56297521 Z" id="_Path_" fill="#EB001B"></path>
                        <path d="M31.7414966,9.56297521 C31.7414092,13.2081667 29.5998424,16.533329 26.226328,18.1262529 C22.8528135,19.7191768 18.8396163,19.3002036 15.8911565,17.0472727 C18.254313,15.2422696 19.6340934,12.4828024 19.6340934,9.56165289 C19.6340934,6.6405034 18.254313,3.88103621 15.8911565,2.07603306 C18.8396163,-0.176897805 22.8528135,-0.595871054 26.226328,0.997052857 C29.5998424,2.58997677 31.7414092,5.91513907 31.7414966,9.56033058 L31.7414966,9.56297521 Z" id="Shape" fill="#F79E1B"></path>
                    </g>
                </g>
            </g>
        </g>
    </g>
</svg>
