<svg version="1.1" id="Layer_1" xmlns="http://www.w3.org/2000/svg" x="0px" y="0px" width="56px" height="36px" viewBox="0 0 56 36" style="enable-background:new 0 0 56 36;" xml:space="preserve">
<style type="text/css">
	.st0{fill:#FFFFFF;}
	.st1{fill:#2EA72E;}
	.st2{fill:url(#SVGID_1_);}
</style>
	<path id="Rectangle-2" d="M0,3.8C0,1.7,1.7,0,3.8,0h48.5C54.3,0,56,1.7,56,3.8v28.5c0,2.1-1.7,3.8-3.8,3.8H3.8 C1.7,36,0,34.3,0,32.2V3.8z"/>
	<path id="Path" class="st0" d="M1.2,3.8v28.5c0,1.4,1.1,2.5,2.5,2.5h48.5c1.4,0,2.5-1.1,2.5-2.5V3.8c0-1.4-1.1-2.5-2.5-2.5H3.8 C2.4,1.2,1.2,2.4,1.2,3.8z"/>
		<path class="st1" d="M11.7,12.3c0.7,0.1,1.1,0.5,1.4,1.2c0.4,1.1,1.4,4.7,1.6,5.3c0,0.1,0,0.2,0.2,0.3c0.1-0.1,0.1-0.3,0.2-0.6 c0.5-1.6,0.9-3.2,1.4-4.8c0.1-0.3,0.3-0.7,0.5-0.9c0.3-0.3,0.6-0.5,1-0.5c1.2,0,2.3,0,3.5,0c0.6,0,0.6,0,0.6,0.6 c0,2.8,0,9.7,0,10.3c0,0.4,0,0.4-0.4,0.4c-0.9,0-1.7,0-2.6,0c-0.5,0-0.5,0-0.5-0.5c0-1.9,0-3.7,0-5.6c0-0.1,0-0.3,0-0.4 c0-0.1-0.1-0.2-0.2-0.2c-0.1,0-0.1,0.1-0.2,0.2c-0.3,0.9-0.5,1.7-0.8,2.6c-0.4,1.2-0.7,2.3-1.1,3.5c0,0.1-0.1,0.3-0.3,0.3 c-0.8,0-1.6,0-2.3,0c-0.2,0-0.2-0.2-0.3-0.3c-0.5-1.4-0.9-2.8-1.4-4.3c-0.2-0.6-0.4-1.3-0.6-1.9c-0.1-0.1-0.1-0.4-0.3-0.1 c-0.1,0.1,0,0.3,0,0.4c0,1.9,0,5.8,0,5.9c0,0.2-0.1,0.3-0.3,0.3c-1,0-2,0-3,0c-0.2,0-0.2-0.1-0.2-0.2c0-0.2,0-7.4,0-10.8 c0-0.4,0-0.4,0.4-0.4C9.1,12.3,11.7,12.3,11.7,12.3z"/>
		<path class="st1" d="M37,23.7c0-1.9,0-3.8,0-5.7c0-0.5,0-0.5,0.5-0.5c3.4,0,6.8,0,10.2,0c0.1,0,0.2,0,0.4,0 c-0.1,0.3-0.3,0.6-0.5,0.8c-0.8,1.1-1.9,1.7-3.3,1.7c-1.1,0-2.3,0-3.4,0c-0.2,0-0.3,0-0.3,0.3c0,1.1,0,2.2,0,3.3 C39.3,23.7,38.2,23.7,37,23.7z"/>
		<path class="st1" d="M31.5,12.3c1.1,0,2.2,0,3.2,0c0.3,0,0.3,0,0.3,0.3c0,3.6,0,7.1,0,10.7c0,0.3-0.1,0.3-0.3,0.3 c-0.9,0-1.9,0-2.8,0c-0.3,0-0.3-0.1-0.3-0.3c0-2,0-4.1,0-6.1c0-0.1,0.1-0.3-0.1-0.4c-0.3-0.2-0.4,0-0.4,0.2 c-0.5,1-0.9,2.1-1.4,3.1c-0.4,0.8-0.7,1.7-1.2,2.5c-0.2,0.4-0.4,0.9-1,1c-1.1,0-2.3,0-3.4,0c-0.3,0-0.3,0-0.3-0.3 c0-3.6,0-7.1,0-10.7c0-0.2,0.1-0.3,0.3-0.3c1,0,1.9,0,2.9,0c0.2,0,0.3,0.1,0.3,0.3c0,2.1,0,4.2,0,6.3c0,0.1,0,0.2,0.2,0.3 c0.2,0,0.2-0.1,0.3-0.3c0.8-1.8,1.7-3.5,2.5-5.3c0.1-0.2,0.2-0.5,0.4-0.7C30.9,12.6,31.2,12.4,31.5,12.3z"/>
		<linearGradient id="SVGID_1_" gradientUnits="userSpaceOnUse" x1="36.5188" y1="14.5948" x2="48.3638" y2="14.5948"><stop  offset="0" style="stop-color:#009FE4"/><stop  offset="1" style="stop-color:#0076C5"/></linearGradient>
		<path class="st2" d="M48.3,16.9c0.1-0.3,0.1-0.6,0.1-0.9c0-2.1-1.7-3.7-3.7-3.7c-2.1,0-6-0.1-8.1-0.1c0.2,2.7,2.8,4.4,5.1,4.6 c0,0,0,0,0,0H48.3z"/>
</svg>