<?xml version="1.0" encoding="UTF-8"?>
<svg width="56px" height="36px" viewBox="0 0 56 36" version="1.1" xmlns="http://www.w3.org/2000/svg" xmlns:xlink="http://www.w3.org/1999/xlink">
    <!-- Generator: Sketch 60.1 (88133) - https://sketch.com -->
    <title>PM/Amex</title>
    <desc>Created with Sketch.</desc>
    <defs>
        <path d="M0.25,2.75075247 L0.25,31.2492475 C0.25,32.6250965 1.37296468,33.75 2.75035585,33.75 L51.2496442,33.75 C52.6324061,33.75 53.75,32.6316447 53.75,31.2492475 L53.75,2.75075247 C53.75,1.37490355 52.6270353,0.25 51.2496442,0.25 L2.75035585,0.25 C1.36759386,0.25 0.25,1.36835527 0.25,2.75075247 Z" id="path-1"></path>
        <polygon id="path-3" points="28.324717 14.02884 28.324717 27.9944 0.0213207547 27.9944 0.0213207547 0.06328 28.324717 0.06328 28.324717 14.02884"></polygon>
        <polygon id="path-5" points="29.7604717 12.7810667 0 12.7810667 0 6.42054 0 0.0600133333 29.7604717 0.0600133333"></polygon>
        <path d="M0.25,2.75075247 L0.25,31.2492475 C0.25,32.6250965 1.37296468,33.75 2.75035585,33.75 L51.2496442,33.75 C52.6324061,33.75 53.75,32.6316447 53.75,31.2492475 L53.75,2.75075247 C53.75,1.37490355 52.6270353,0.25 51.2496442,0.25 L2.75035585,0.25 C1.36759386,0.25 0.25,1.36835527 0.25,2.75075247 Z" id="path-7"></path>
        <polygon id="path-9" points="28.324717 14.02884 28.324717 27.9944 0.0213207547 27.9944 0.0213207547 0.06328 28.324717 0.06328 28.324717 14.02884"></polygon>
        <polygon id="path-11" points="29.7604717 12.7810667 0 12.7810667 0 6.42054 0 0.0600133333 29.7604717 0.0600133333"></polygon>
        <polygon id="path-13" points="28.324717 14.02884 28.324717 27.9944 0.0213207547 27.9944 0.0213207547 0.06328 28.324717 0.06328 28.324717 14.02884"></polygon>
        <polygon id="path-15" points="29.7604717 12.7810667 0 12.7810667 0 6.42054 0 0.0600133333 29.7604717 0.0600133333"></polygon>
    </defs>
    <g id="PM/Amex" stroke="none" stroke-width="1" fill="none" fill-rule="evenodd">
        <g id="Group" transform="translate(13.000000, 4.000000)">
            <g id="Amex_one_color">
                <g id="Group-3" transform="translate(1.603774, 0.000000)">
                    <mask id="mask-14" fill="white">
                        <use xlink:href="#path-13"></use>
                    </mask>
                    <g id="Clip-2"></g>
                    <path d="M28.1566981,0.06328 L0.0213207547,0.06328 L0.0213207547,27.9992533 L28.1566981,27.9992533 L28.1566981,18.77736 C28.269434,18.6201867 28.324717,18.4143867 28.324717,18.1637867 C28.324717,17.87772 28.269434,17.7022533 28.1566981,17.5542267 L28.1566981,0.06328" id="Fill-1" fill="#246EA9" mask="url(#mask-14)"></path>
                </g>
                <path d="M1.62509434,14.2072933 L2.97726415,14.2072933 L3.28150943,13.4785467 L3.96377358,13.4785467 L4.26688679,14.2072933 L6.92650943,14.2072933 L6.92650943,13.6515867 L7.16320755,14.2104667 L8.54235849,14.2104667 L8.77754717,13.6447733 L8.77754717,14.2072933 L15.385566,14.2072933 L15.3839623,13.01384 L15.5114151,13.01384 C15.6012264,13.01608 15.6273585,13.0252267 15.6273585,13.1710133 L15.6273585,14.2072933 L19.0439623,14.2072933 L19.0439623,13.9287867 C19.3195283,14.0768133 19.7483962,14.2072933 20.3109434,14.2072933 L21.7507547,14.2072933 L22.0567925,13.4785467 L22.7407547,13.4785467 L23.0415094,14.2072933 L25.8112264,14.2072933 L25.8112264,13.51644 L26.2317925,14.2072933 L28.4490566,14.2072933 L28.4490566,9.64198667 L26.2524528,9.64198667 L26.2524528,10.1825733 L25.9463208,9.64198667 L23.6907547,9.64198667 L23.6907547,10.1825733 L23.4090566,9.64198667 L20.3646226,9.64198667 C19.8550943,9.64198667 19.4046226,9.71189333 19.0439623,9.90845333 L19.0439623,9.64198667 L16.9441509,9.64198667 L16.9441509,9.90845333 C16.7116981,9.70648 16.3985849,9.64198667 16.0501887,9.64198667 L8.37349057,9.64198667 L7.8554717,10.82116 L7.32981132,9.64198667 L4.91150943,9.64198667 L4.91150943,10.1825733 L4.64377358,9.64198667 L2.58320755,9.64198667 L1.62509434,11.8104 L1.62509434,14.2072933 Z M27.7450943,13.5635733 L26.6246226,13.5635733 L25.1259434,11.1089067 L25.1274528,13.5635733 L23.5166038,13.5635733 L23.2079245,12.8338933 L21.5626415,12.8338933 L21.2679245,13.5635733 L20.3409434,13.5635733 C19.9541509,13.5635733 19.4690566,13.4785467 19.1950943,13.2020933 C18.915,12.9227467 18.7731132,12.5477333 18.7731132,11.9524533 C18.7731132,11.46572 18.860566,11.0222933 19.1982075,10.67388 C19.4559434,10.4111467 19.8550943,10.2904667 20.4007547,10.2904667 L21.1628302,10.2904667 L21.1628302,10.9904667 L20.4169811,10.9904667 C20.1268868,10.9904667 19.9626415,11.03368 19.8045283,11.1855333 C19.6724528,11.3245067 19.5787736,11.58416 19.5787736,11.9273467 C19.5787736,12.27968 19.6478302,12.5301867 19.7991509,12.6965067 C19.9173585,12.8247467 20.1398113,12.86432 20.3478302,12.86432 L20.7030189,12.86432 L21.8182075,10.2904667 L23.0008491,10.2904667 L24.3393396,13.3858667 L24.3393396,10.2904667 L25.5472642,10.2904667 L26.9362264,12.5696667 L26.9362264,10.2904667 L27.7450943,10.2904667 L27.7450943,13.5635733 Z M17.5782075,13.5635733 L18.3853774,13.5635733 L18.3853774,10.2904667 L17.5782075,10.2904667 L17.5782075,13.5635733 Z M17.1200943,11.1741467 C17.1200943,11.6912133 16.7676415,11.9653333 16.564434,12.04504 C16.7362264,12.1126133 16.8829245,12.2249867 16.9511321,12.3214 C17.0640566,12.4816533 17.0861321,12.6311733 17.0861321,12.91892 L17.0861321,13.5635733 L16.2880189,13.5635733 L16.2842453,13.1505733 C16.2842453,12.9569067 16.3041509,12.6714 16.1569811,12.51572 C16.0425472,12.3980267 15.8690566,12.3746 15.5820755,12.3746 L14.7316981,12.3746 L14.7316981,13.5635733 L13.9427358,13.5635733 L13.9427358,10.2904667 L15.7600943,10.2904667 C16.1645283,10.2904667 16.4630189,10.3033467 16.7200943,10.4483867 C16.9711321,10.5925867 17.1200943,10.8066933 17.1200943,11.1741467 L17.1200943,11.1741467 Z M13.3936792,13.5635733 L10.7517925,13.5635733 L10.7517925,10.2904667 L13.3936792,10.2904667 L13.3936792,10.9730133 L11.5445283,10.9730133 L11.5445283,11.5621333 L13.3475472,11.5621333 L13.3475472,12.2332933 L11.5445283,12.2318 L11.5445283,12.8863467 L13.3936792,12.8863467 L13.3936792,13.5635733 Z M10.1628302,13.5635733 L9.35424528,13.5635733 L9.34886792,11.0033467 L8.20386792,13.5635733 L7.51009434,13.5635733 L6.35783019,10.9971867 L6.35783019,13.5635733 L4.74971698,13.5635733 L4.44650943,12.8338933 L2.79924528,12.8338933 L2.49443396,13.5635733 L1.63339623,13.5635733 L3.04811321,10.2904667 L4.22509434,10.2904667 L5.56886792,13.39044 L5.56886792,10.2904667 L6.86122642,10.2904667 L7.89566038,12.5127333 L8.84698113,10.2904667 L10.1628302,10.2904667 L10.1628302,13.5635733 Z M22.9386792,12.1513467 L22.3900943,10.8484133 L21.8474528,12.1513467 L22.9386792,12.1513467 Z M16.0839623,11.63428 C15.9771698,11.6957867 15.8475472,11.69952 15.6941509,11.69952 L14.7316981,11.69952 L14.7316981,10.9730133 L15.7033019,10.9730133 C15.844434,10.9730133 15.9887736,10.97824 16.0824528,11.03144 C16.185283,11.0800667 16.2482075,11.1810533 16.2482075,11.31928 C16.2482075,11.4649733 16.1866981,11.5780933 16.0839623,11.63428 L16.0839623,11.63428 Z M4.16132075,12.1513467 L3.62075472,10.8484133 L3.08198113,12.1513467 L4.16132075,12.1513467 L4.16132075,12.1513467 Z" id="Fill-4" fill="#FFFFFE"></path>
                <g id="Group-8" transform="translate(0.000000, 15.213333)">
                    <mask id="mask-16" fill="white">
                        <use xlink:href="#path-15"></use>
                    </mask>
                    <g id="Clip-6"></g>
                    <path d="M16.9511321,1.78882667 C16.9511321,2.69761333 16.2666038,2.88670667 15.5758491,2.88670667 L14.5882075,2.88670667 L14.5882075,3.98458667 L13.0536792,3.98458667 L12.0786792,2.90201333 L11.0672642,3.98458667 L7.93481132,3.98458667 L7.93481132,0.709986667 L11.1150943,0.709986667 L12.0886792,1.78266667 L13.0939623,0.709986667 L15.6204717,0.709986667 C16.2482075,0.709986667 16.9511321,0.88228 16.9511321,1.78882667 L16.9511321,1.78882667 Z M10.6662264,3.29970667 L8.72113208,3.29970667 L8.72113208,2.65057333 L10.4575472,2.65057333 L10.4575472,1.98249333 L8.72113208,1.98249333 L8.72113208,1.38954667 L10.7026415,1.38954667 L11.5666981,2.34313333 L10.6662264,3.29970667 Z M13.8,3.68769333 L12.5874528,2.35302667 L13.8,1.06446667 L13.8,3.68769333 Z M15.6112264,2.22012 L14.5882075,2.22012 L14.5882075,1.38954667 L15.6204717,1.38954667 C15.9059434,1.38954667 16.1038679,1.50033333 16.1038679,1.78882667 C16.1038679,2.07433333 15.9150943,2.22012 15.6112264,2.22012 L15.6112264,2.22012 Z M20.9456604,0.709986667 L23.5872642,0.709986667 L23.5872642,1.38954667 L21.7353774,1.38954667 L21.7353774,1.98249333 L23.5403774,1.98249333 L23.5403774,2.65057333 L21.7353774,2.65057333 L21.7353774,3.29970667 L23.5872642,3.30428 L23.5872642,3.98458667 L20.9456604,3.98458667 L20.9456604,0.709986667 Z M19.9470755,2.46157333 C20.1222642,2.52681333 20.2671698,2.64086667 20.3340566,2.73793333 C20.4461321,2.89884 20.4637736,3.04686667 20.465283,3.33461333 L20.465283,3.98458667 L19.6724528,3.98458667 L19.6724528,3.57298667 C19.6724528,3.37717333 19.6893396,3.08644 19.5443396,2.93458667 C19.4299057,2.81456 19.2534906,2.78721333 18.9641509,2.78721333 L18.1176415,2.78721333 L18.1176415,3.98458667 L17.3256604,3.98458667 L17.3256604,0.709986667 L19.1498113,0.709986667 C19.5519811,0.709986667 19.8436792,0.727533333 20.1022642,0.86716 C20.3509434,1.01369333 20.5066981,1.22098667 20.5066981,1.59292 C20.5066981,2.11297333 20.155283,2.38037333 19.9470755,2.46157333 L19.9470755,2.46157333 Z M19.4690566,2.05688 C19.3654717,2.11689333 19.2327358,2.12361333 19.08,2.12361333 L18.1176415,2.12361333 L18.1176415,1.38954667 L19.0945283,1.38954667 C19.2327358,1.38954667 19.3762264,1.39188 19.4690566,1.44648 C19.5712264,1.50033333 19.6333019,1.59908 19.6333019,1.74104 C19.6333019,1.88225333 19.5712264,1.99388 19.4690566,2.05688 L19.4690566,2.05688 Z M26.6032075,2.25801333 C26.7612264,2.41602667 26.8425472,2.61566667 26.8425472,2.95045333 C26.8425472,3.65736 26.3960377,3.98458667 25.6000943,3.98458667 L24.0583962,3.98458667 L24.0583962,3.28150667 L25.5932075,3.28150667 C25.7451887,3.28150667 25.8496226,3.26246667 25.9163208,3.20105333 C25.9700943,3.15168 26.0099057,3.07953333 26.0099057,2.98918667 C26.0099057,2.89286667 25.9693396,2.81456 25.9139623,2.77134667 C25.8517925,2.71964 25.770566,2.70069333 25.6324528,2.69761333 C24.8925472,2.67185333 23.9670755,2.71964 23.9670755,1.68410667 C23.9670755,1.21109333 24.2686792,0.709986667 25.0966981,0.709986667 L26.6814151,0.709986667 L26.6814151,1.407 L25.2339623,1.407 C25.0867925,1.407 24.9938679,1.41381333 24.9141509,1.46542667 C24.8281132,1.51853333 24.7966981,1.59908 24.7966981,1.70146667 C24.7966981,1.82597333 24.8711321,1.91034667 24.9700943,1.94674667 C25.0530189,1.97484 25.1404717,1.98249333 25.2748113,1.98473333 L25.7029245,1.99388 C26.1335849,2.00601333 26.4243396,2.07881333 26.6032075,2.25801333 L26.6032075,2.25801333 Z M29.7604717,3.56402667 C29.5662264,3.84486667 29.1925472,3.98458667 28.6867925,3.98458667 L27.1588679,3.98458667 L27.1588679,3.28150667 L28.6799057,3.28150667 C28.8309434,3.28150667 28.9363208,3.26246667 29.0007547,3.20105333 C29.054434,3.15168 29.095,3.07953333 29.095,2.98918667 C29.095,2.89286667 29.054434,2.81456 28.9983962,2.77134667 C28.9376415,2.71964 28.8564151,2.70069333 28.7198113,2.69761333 C27.9776415,2.67185333 27.0514151,2.71964 27.0514151,1.68410667 C27.0514151,1.21109333 27.3560377,0.709986667 28.1841509,0.709986667 L29.7604717,0.709986667 L29.7604717,0.0600133333 L28.2960377,0.0600133333 C27.8533962,0.0600133333 27.5325472,0.162586667 27.3061321,0.326666667 L27.3061321,0.0600133333 L25.1404717,0.0600133333 C24.7966981,0.0600133333 24.3906604,0.14504 24.1965094,0.326666667 L24.1987736,0.0600133333 L20.3300943,0.0600133333 L20.3300943,0.326666667 C20.0224528,0.10864 19.504434,0.0600133333 19.265,0.0600133333 L16.7170755,0.0600133333 L16.7170755,0.326666667 C16.4699057,0.0950133333 15.9319811,0.0600133333 15.6012264,0.0600133333 L12.7470755,0.0600133333 L12.0932075,0.75936 L11.4827358,0.0600133333 L7.21962264,0.0600133333 L7.21962264,4.62774667 L11.4010377,4.62774667 L12.075566,3.91785333 L12.7099057,4.62774667 L15.2873585,4.6284 L15.2873585,3.55404 L15.5420755,3.55404 C15.8814151,3.55786667 16.2880189,3.54732 16.6425472,3.39686667 L16.6425472,4.62774667 L18.77,4.62774667 L18.77,3.43709333 L18.8713208,3.43709333 C19.0033019,3.43709333 19.0163208,3.44390667 19.0163208,3.57084 L19.0163208,4.62774667 L25.4774528,4.62774667 C25.885,4.62774667 26.3116038,4.52377333 26.5509434,4.33542667 L26.5509434,4.62774667 L28.6008491,4.62774667 C29.0283962,4.62774667 29.4433962,4.57006667 29.7604717,4.41737333 L29.7604717,3.56402667 Z M29.7604717,1.407 L28.3168868,1.407 C28.1726415,1.407 28.0773585,1.41381333 27.9983019,1.46542667 C27.9170755,1.51853333 27.8824528,1.59908 27.8824528,1.70146667 C27.8824528,1.82597333 27.9531132,1.91034667 28.0575472,1.94674667 C28.1387736,1.97484 28.2278302,1.98249333 28.3606604,1.98473333 L28.7880189,1.99388 C29.2209434,2.00601333 29.5095283,2.07881333 29.6883019,2.25801333 C29.7166981,2.28162667 29.7389623,2.31270667 29.7604717,2.34089333 L29.7604717,1.407 L29.7604717,1.407 Z" id="Fill-5" fill="#FFFFFE" mask="url(#mask-16)"></path>
                    <path d="M0.921320755,12.44348 L0.803867925,12.44348 C0.788490566,12.3970933 0.785471698,12.3105733 0.785471698,12.2885467 C0.785471698,12.2436533 0.778490566,12.2011867 0.697641509,12.2011867 L0.523301887,12.2011867 L0.524150943,12.44348 L0.42009434,12.44348 L0.42009434,11.85128 L0.697641509,11.85128 C0.793113208,11.85128 0.899339623,11.88684 0.899339623,12.019 C0.899339623,12.0933867 0.866509434,12.1268 0.834150943,12.1518133 C0.861886792,12.16712 0.88490566,12.1913867 0.888679245,12.2574667 L0.891698113,12.3613467 C0.893301887,12.3903733 0.896320755,12.3955067 0.921320755,12.4100667 L0.921320755,12.44348 Z M0.792358491,12.02432 C0.792358491,11.95068 0.741320755,11.9438667 0.703018868,11.9438667 L0.523301887,11.9438667 L0.523301887,12.10776 L0.68990566,12.10776 C0.744433962,12.10776 0.792358491,12.0964667 0.792358491,12.02432 L0.792358491,12.02432 Z M1.28349057,12.1533067 C1.28349057,11.8048933 0.997264151,11.5216267 0.642641509,11.5216267 C0.288207547,11.5216267 0,11.8048933 0,12.1533067 C0,12.5041467 0.288207547,12.7866667 0.642641509,12.7866667 C0.997264151,12.7866667 1.28349057,12.5041467 1.28349057,12.1533067 L1.28349057,12.1533067 Z M1.18716981,12.1533067 C1.18716981,12.4525333 0.955,12.69408 0.642641509,12.69408 C0.329245283,12.69408 0.0985849057,12.4525333 0.0985849057,12.1533067 C0.0985849057,11.8572533 0.328396226,11.6150533 0.642641509,11.6150533 C0.957264151,11.6150533 1.18716981,11.8572533 1.18716981,12.1533067 L1.18716981,12.1533067 Z" id="Fill-7" fill="#2172AC" mask="url(#mask-16)"></path>
                </g>
            </g>
        </g>
    </g>
</svg>