<?xml version="1.0" encoding="UTF-8"?><svg width="56" height="36" viewBox="0 0 56 36" xmlns="http://www.w3.org/2000/svg"><g fill-rule="nonzero" fill="none"><path d="M9.63 25.45c0 .645.462.722.875.722 1.803 0 2.418-1.369 2.418-2.618 0-1.57-1.01-2.702-2.628-2.702-.344 0-.504.025-.655.034l-.01 4.563zm-.82-3.948c0-.754-.395-.705-.773-.714v-.21c.326.019.661.019.99.019.33 0 .82-.019 1.453-.019 2.172 0 3.366 1.456 3.366 2.942 0 .83-.486 2.92-3.458 2.92H8.03v-.218c.504-.05.747-.068.772-.637l.006-4.083zM15.028 21.314a.412.412 0 11.412-.428c0 .23-.183.417-.412.422m-.899 4.923h.16c.234 0 .403 0 .403-.277V23.67c0-.37-.126-.422-.437-.588v-.132c.394-.12.865-.277.899-.308a.283.283 0 01.15-.04c.044 0 .06.05.06.117v3.225c0 .277.184.277.42.277h.142v.218h-1.803l.006-.21zM16.723 23.72c0-.308-.092-.394-.486-.554v-.157c.36-.12.705-.227 1.108-.403.024 0 .049 0 .049.083v.545c.48-.345.89-.616 1.452-.616.714 0 .966.52.966 1.173v2.154c0 .277.185.277.419.277h.15v.218H18.589v-.218h.15c.234 0 .4 0 .4-.277v-2.173c0-.48-.307-.714-.769-.714a2.23 2.23 0 00-.975.404v2.483c0 .277.184.277.421.277h.151v.218H16.17v-.218h.139c.237 0 .403 0 .403-.277l.012-2.225zM22.508 23.855c.209 0 .234-.107.234-.209a.714.714 0 00-.733-.772c-.51 0-.861.375-.963.981h1.462zm-1.486.268c-.021.163-.021.327 0 .49.049.796.56 1.449 1.23 1.449a1.618 1.618 0 001.133-.56l.117.116c-.388.511-.865.948-1.539.948-1.332 0-1.603-1.292-1.603-1.83 0-1.644 1.108-2.13 1.695-2.13a1.332 1.332 0 011.419 1.317c.003.05.003.1 0 .15l-.077.05h-2.375zM23.655 26.222h.228c.234 0 .4 0 .4-.277v-2.357c0-.262-.308-.308-.434-.379v-.126c.616-.258.948-.477 1.025-.477.077 0 .074.025.074.108v.757h.018c.21-.33.563-.865 1.074-.865a.455.455 0 01.477.434.403.403 0 01-.394.428c-.261 0-.261-.2-.554-.2a.71.71 0 00-.615.695v1.972c0 .277.166.277.403.277h.468v.219h-2.173l.003-.21zM26.886 25.274c.11.554.446 1.024 1.059 1.024a.594.594 0 00.67-.596c0-.991-1.846-.671-1.846-2.022 0-.47.379-1.074 1.302-1.074.333.008.66.09.957.243l.058.856h-.163a.858.858 0 00-.923-.831.59.59 0 00-.655.554c0 .981 1.947.68 1.947 1.997 0 .553-.446 1.141-1.443 1.141a2.194 2.194 0 01-1.024-.286l-.093-.963.154-.043zM36.874 22.117h-.21c-.16-.982-.858-1.375-1.796-1.375-.939 0-2.366.646-2.366 2.658 0 1.695 1.209 2.914 2.501 2.914a1.71 1.71 0 001.686-1.452l.194.049-.194 1.23a4.717 4.717 0 01-1.846.447c-1.963 0-3.206-1.268-3.206-3.154 0-1.723 1.538-2.957 3.181-2.957.68.036 1.35.186 1.979.446l.077 1.194zM37.175 26.222h.16c.234 0 .403 0 .403-.277V21.27c0-.545-.126-.563-.446-.656v-.132c.297-.096.586-.217.862-.363a.942.942 0 01.184-.092c.053 0 .068.052.068.12v5.797c0 .277.185.277.419.277h.144v.218h-1.806l.012-.218zM42.563 25.978c0 .151.092.16.234.16h.338v.179a8.308 8.308 0 00-1.209.258l-.043-.024v-.69c-.501.41-.89.705-1.486.705a.905.905 0 01-.923-.997v-2.154c0-.218-.034-.427-.502-.467v-.16c.308 0 .973-.059 1.08-.059.108 0 .096.059.096.243v2.154c0 .252 0 .976.729.976a1.88 1.88 0 001.015-.511v-2.243c0-.17-.403-.262-.704-.345v-.15c.754-.053 1.23-.118 1.307-.118.077 0 .068.059.068.151v3.092zM44.234 25.502a.902.902 0 00.864.855c.899 0 1.274-.88 1.274-1.628 0-.907-.686-1.661-1.341-1.661a1.29 1.29 0 00-.797.394v2.04zm0-2.284a2.11 2.11 0 011.25-.615c.974 0 1.562.846 1.562 1.76 0 1.102-.806 2.2-2.006 2.2a2.462 2.462 0 01-1.166-.308l-.252.194-.176-.092c.076-.494.115-.993.117-1.492V21.27c0-.545-.126-.563-.446-.656v-.132c.298-.096.587-.217.865-.363a.942.942 0 01.184-.092c.05 0 .068.052.068.12v3.07zM8.028 31.32h.064c.163 0 .339-.022.339-.262v-2.39c0-.237-.176-.262-.339-.262h-.064v-.135c.178 0 .452.018.677.018.224 0 .501-.018.717-.018v.135h-.065c-.163 0-.339.025-.339.262v2.39c0 .24.176.262.339.262h.065v.138c-.219 0-.496-.018-.724-.018-.227 0-.492.018-.67.018v-.138z" fill="#231F20"/><path d="M9.4 31.437v-.09h-.043c-.163 0-.357-.03-.357-.282v-2.397c0-.253.194-.28.357-.28H9.4v-.099c-.21 0-.474.019-.695.019-.222 0-.48-.019-.656-.019v.099h.043c.163 0 .357.027.357.28v2.39c0 .253-.194.284-.357.284H8.05v.095c.176 0 .434-.019.65-.019.215 0 .486.019.701.019m.022.04c-.222 0-.496-.019-.724-.019-.227 0-.492.019-.67.019H8v-.175h.083c.166 0 .308-.019.308-.244v-2.39c0-.225-.151-.237-.308-.24H8v-.179h.018c.179 0 .453.019.677.019.225 0 .502-.019.717-.019h.019v.179h-.083c-.166 0-.308 0-.308.24v2.39c0 .225.15.237.308.244h.083v.175h-.01zM12.557 30.557v-1.72a.375.375 0 00-.397-.43h-.102v-.136c.216 0 .428.018.64.018.213 0 .385-.018.573-.018v.135h-.068c-.194 0-.41.037-.41.582v2.077c-.001.154.008.308.029.461h-.173l-2.35-2.621v1.88c0 .4.076.535.427.535h.077v.138c-.197 0-.39-.018-.588-.018-.197 0-.415.018-.615.018v-.138h.065c.307 0 .409-.215.409-.578v-1.924a.41.41 0 00-.416-.412H9.6v-.135c.172 0 .35.018.526.018.176 0 .268-.018.406-.018l2.025 2.286z" fill="#231F20"/><path d="M12.64 31.495h.15a2.898 2.898 0 01-.024-.44v-2.067c0-.548.23-.616.428-.616h.046v-.098c-.178 0-.36.018-.542.018-.181 0-.412-.018-.615-.018v.098h.08a.4.4 0 01.419.45v1.726h-.016l-2.03-2.296c-.136 0-.268.019-.41.019-.141 0-.338-.019-.501-.019v.099h.04a.43.43 0 01.437.43v1.951c0 .366-.102.597-.431.616h-.043v.098c.197 0 .4-.018.6-.018.2 0 .381.018.569.018v-.098h-.059c-.36 0-.449-.157-.449-.557v-1.939l2.351 2.643zm.172.04h-.187l-2.317-2.581v1.828c0 .4.064.51.409.516h.098v.176h-.021c-.197 0-.394-.019-.588-.019-.194 0-.415.019-.615.019h-.022v-.176h.086c.308 0 .388-.196.391-.56v-1.92a.39.39 0 00-.397-.39h-.08v-.179h.022c.175 0 .354.019.523.019.17 0 .27-.019.424 0l2.007 2.261v-1.692c0-.363-.247-.406-.379-.41h-.12v-.178h.019c.218 0 .427.019.64.019.212 0 .372-.019.563-.019h.018v.179H13.2c-.19 0-.382.021-.388.56v2.077a2.72 2.72 0 00.028.458v.022l-.028-.01zM13.954 28.498c-.342 0-.357.084-.425.416h-.135c0-.13.04-.256.052-.388.019-.128.028-.258.028-.388h.11c.038.136.151.133.274.133h2.357c.123 0 .237 0 .247-.142l.107.019c-.015.123-.034.246-.049.369s0 .246 0 .37l-.135.048c0-.166-.034-.437-.339-.437h-.757v2.428c0 .354.16.394.379.394h.086v.138c-.179 0-.499-.018-.745-.018s-.594.018-.772.018v-.138h.086c.252 0 .382-.022.382-.385v-2.437h-.751z" fill="#231F20"/><path d="M15.754 31.477c-.179 0-.499-.019-.745-.019s-.594.019-.772.019h-.019v-.175h.105c.252 0 .354 0 .36-.367v-2.418h-.73v-.04h.77v2.461c0 .37-.148.407-.4.407h-.068v.095c.182 0 .49-.018.754-.018.265 0 .545.018.723.018v-.092h-.064c-.222 0-.4-.056-.4-.416v-2.461h.769c.308 0 .348.261.357.43l.098-.015v-.36c0-.12.031-.234.046-.35h-.067c-.022.132-.151.14-.265.138h-2.36c-.104 0-.224 0-.264-.132h-.074c-.002.123-.01.246-.028.369 0 .126-.034.246-.052.369h.098c.062-.308.099-.422.44-.418v.04c-.338 0-.33.064-.406.4v.015h-.175v-.022c.018-.129.043-.255.055-.387.018-.128.028-.256.028-.385v-.046h.144c.031.114.117.117.231.117h2.372c.127 0 .219 0 .228-.123v-.022h.022l.129.022v.021c-.019.12-.037.243-.05.366-.012.124 0 .247 0 .37l-.16.058v-.024c0-.173-.03-.422-.307-.422h-.77v2.41c0 .344.142.368.36.375h.105v.175l-.018.037zM16.717 31.32h.065c.163 0 .338-.022.338-.262v-2.39c0-.237-.175-.262-.338-.262h-.065v-.135c.277 0 .754.018 1.135.018.382 0 .859-.018 1.17-.018v.698l-.136.037c-.021-.308-.077-.535-.557-.535h-.624v1.197h.541c.274 0 .336-.157.36-.403h.139c0 .178-.016.357-.016.535 0 .178 0 .348.016.52l-.139.028c-.024-.274-.04-.453-.354-.453h-.547v1.065c0 .308.264.308.557.308.547 0 .787-.037.923-.557l.126.034c-.059.24-.114.483-.154.726-.308 0-.819-.019-1.23-.019-.413 0-.955.019-1.232.019l.022-.151z" fill="#231F20"/><path d="M19.142 31.437c.04-.23.092-.462.147-.692l-.089-.013c-.135.511-.4.557-.923.554-.29 0-.579 0-.579-.308v-1.101h.57c.307 0 .35.188.372.446l.098-.018V29.8v-.514h-.098c-.025.237-.102.403-.378.4h-.579v-1.23h.655c.474 0 .554.242.573.529l.098-.025v-.446-.219c-.307 0-.775.019-1.15.019-.376 0-.837-.019-1.117-.019v.099h.046c.163 0 .357.028.357.28v2.39c0 .253-.194.28-.357.284h-.046v.095c.267 0 .793-.018 1.196-.018.404 0 .924.018 1.21.018m.018.04c-.308 0-.818-.018-1.23-.018-.413 0-.954.018-1.231.018h-.019v-.175h.083c.163 0 .308-.019.308-.243v-2.397c0-.225-.154-.237-.308-.24h-.083v-.179h.019c.28 0 .753.019 1.135.019s.858-.019 1.17-.019h.02V28.985h-.015l-.16.043v-.025c-.024-.308-.064-.51-.535-.517h-.615v1.157h.523c.264 0 .307-.135.341-.381v-.019h.2v1.074l-.16.034v-.022c-.03-.28-.034-.434-.335-.437h-.55v1.046c0 .277.24.274.538.277.547 0 .769-.03.907-.541v-.019h.019l.147.037v.019c-.058.243-.11.483-.153.726l-.016.046zM20.517 29.81h.221c.459 0 .705-.173.705-.712a.615.615 0 00-.668-.667 2.492 2.492 0 00-.258.018v1.36zm-.585-1.06c0-.332-.184-.347-.326-.347h-.083v-.132c.148 0 .43.018.71.018.28 0 .493-.018.733-.018.576 0 1.09.154 1.09.803a.862.862 0 01-.638.803l.782 1.163a.508.508 0 00.443.274v.138c-.15 0-.308-.018-.446-.018-.139 0-.29.018-.43.018a13.08 13.08 0 01-.952-1.48h-.307v.976c0 .354.163.366.372.366h.083v.138c-.261 0-.526-.018-.785-.018-.258 0-.433.018-.664.018v-.138h.083c.17 0 .326-.077.326-.246l.01-2.317z" fill="#231F20"/><path d="M20.738 29.81c.453 0 .68-.164.687-.693a.615.615 0 00-.65-.65c-.08.001-.16.007-.24.02v1.322h.203zm-.221.036h-.022v-1.412h.019c.086-.012.174-.019.261-.019a.643.643 0 01.687.687c0 .544-.262.729-.724.729l-.221.015zm0 .126h.308c.277.508.585.998.923 1.468.138 0 .286-.018.427-.018.142 0 .29 0 .431.018v-.092a.526.526 0 01-.44-.28l-.797-1.191h.025a.84.84 0 00.615-.785c0-.634-.492-.781-1.067-.784-.24 0-.459.018-.733.018-.274 0-.541-.018-.689-.018v.098h.062c.141 0 .344.022.344.366v2.32c0 .185-.172.268-.344.268h-.062v.095c.218 0 .428-.018.643-.018.215 0 .51.018.763.018v-.107h-.061c-.21 0-.394-.028-.394-.388v-1.003l.046.015zm2.126 1.52c-.154 0-.308-.018-.45-.018-.14 0-.282.018-.442 0-.35-.467-.666-.959-.945-1.47h-.27v.956c0 .345.14.342.353.348h.102v.175h-.019c-.261 0-.526-.018-.784-.018-.259 0-.434.018-.665.018h-.018v-.175h.101c.166 0 .308-.074.308-.228v-2.326c0-.308-.163-.308-.308-.326h-.101v-.179h.018c.148 0 .43.019.71.019.28 0 .49-.019.733-.019.579 0 1.108.16 1.108.825a.87.87 0 01-.616.812l.757 1.154c.084.161.25.264.431.268v.175l-.003.01zM25.745 30.557v-1.72a.375.375 0 00-.397-.43h-.099v-.136c.216 0 .425.018.64.018.216 0 .379-.018.573-.018v.135h-.068c-.19 0-.406.037-.406.582v2.077a2.77 2.77 0 00.027.461h-.169l-2.35-2.621v1.88c0 .4.076.535.43.535H24v.138c-.197 0-.394-.018-.59-.018-.198 0-.416.018-.616.018v-.138h.064c.308 0 .413-.215.413-.578v-1.924a.41.41 0 00-.416-.412h-.086v-.135c.176 0 .354.018.526.018.173 0 .271-.018.407-.018l2.043 2.286z" fill="#231F20"/><path d="M25.846 31.505h.15a3.357 3.357 0 01-.024-.44v-2.077c0-.548.231-.616.428-.616h.05v-.098c-.182 0-.364.018-.542.018-.179 0-.416-.018-.616-.018v.098h.08a.4.4 0 01.419.45v1.726l-2.034-2.299c-.135 0-.268.019-.406.019-.139 0-.339-.019-.505-.019v.099h.04a.428.428 0 01.434.43v1.954c0 .37-.105.616-.43.616h-.09v.095c.197 0 .4-.018.6-.018.2 0 .382.018.57.018v-.095h-.056c-.36 0-.45-.157-.452-.557v-1.939l2.384 2.653zm.176.04h-.188l-2.32-2.582v1.828c0 .4.068.51.412.517H24v.175c-.2 0-.394-.018-.59-.018-.198 0-.416.018-.616.018h-.025v-.175h.083c.308 0 .388-.197.391-.563v-1.927a.388.388 0 00-.394-.39h-.08v-.179c.176 0 .354.019.526.019.173 0 .268-.019.422 0l2.006 2.261v-1.692c0-.363-.243-.41-.378-.41h-.114v-.178h.021c.216 0 .425.019.64.019.216 0 .373-.019.56-.019h.022v.179h-.09c-.187 0-.38.021-.387.56v2.077c-.004.153.006.306.028.458v.022h-.003zM27.858 28.782l-.421 1.292h.84l-.419-1.292zm-.667 2.021a1.91 1.91 0 00-.114.357c0 .138.194.16.341.16h.053v.138a8.324 8.324 0 00-.554-.018c-.163 0-.33 0-.492.018v-.138h.037c.186 0 .35-.127.396-.308l.73-2.095c.072-.184.128-.373.169-.566.145-.05.285-.116.415-.197h.037a.034.034 0 01.034 0c0 .037.025.077.04.114l.84 2.387c.055.16.11.33.17.468.053.12.176.193.307.182h.028v.138c-.206 0-.413-.018-.616-.018s-.452 0-.686.018v-.138h.052c.105 0 .284-.019.284-.133a1.418 1.418 0 00-.093-.329l-.178-.53h-1.056l-.144.49z" fill="#231F20"/><path d="M27.45 30.052h.8l-.398-1.23-.403 1.23zm-.053.04l.437-1.332h.024v.022-.022l.45 1.332h-.911zm.923 1.345c.225 0 .446-.019.665-.019.218 0 .412 0 .615.019v-.09a.308.308 0 01-.308-.196c-.058-.139-.114-.308-.169-.468l-.84-2.388c-.015-.037-.028-.077-.04-.11h-.025c-.127.078-.265.14-.409.181a3.57 3.57 0 01-.169.572l-.76 2.102a.44.44 0 01-.418.308v.095c.156 0 .307-.018.473-.018.167 0 .357 0 .533.018v-.095h-.031c-.148 0-.357-.019-.36-.182.02-.123.054-.244.101-.36h.019-.019l.148-.486h1.065l.184.542c.046.107.077.22.093.335 0 .138-.2.15-.308.154h-.03l-.01.086zm1.295.04c-.206 0-.412-.019-.615-.019s-.45 0-.683.019h-.022v-.179h.071c.105 0 .262-.021.262-.11a1.378 1.378 0 00-.09-.308l-.175-.517h-1.012l-.142.462a2.022 2.022 0 00-.101.35c0 .111.172.139.323.139h.07v.178h-.021c-.182 0-.366-.018-.55-.018-.185 0-.327 0-.493.018h-.022v-.178h.047a.39.39 0 00.378-.283l.73-2.096c.07-.19.13-.382.18-.578.145-.052.284-.118.416-.197a.15.15 0 01.043 0c.021 0 .041.01.053.028l.046.083.84 2.387c.055.16.11.33.169.465.043.116.16.186.283.17h.046v.178l-.03.006zM29.825 28.498c-.342 0-.357.084-.425.416h-.138c.018-.13.043-.256.055-.388.018-.128.028-.258.028-.388h.11c.037.136.151.133.274.133h2.357c.123 0 .237 0 .246-.142l.108.019c-.015.123-.034.246-.05.369-.015.123 0 .246 0 .37l-.135.048c0-.166-.033-.437-.338-.437h-.76v2.428c0 .354.16.394.381.394h.087v.138c-.179 0-.499-.018-.745-.018s-.594.018-.772.018v-.138h.086c.252 0 .378-.022.378-.385v-2.437h-.747z" fill="#231F20"/><path d="M31.625 31.477c-.179 0-.499-.019-.745-.019s-.594.019-.772.019h-.019v-.175h.105c.252 0 .354 0 .36-.367v-2.418h-.73v-.04h.77v2.461c0 .37-.148.404-.4.407h-.068v.095c.182 0 .49-.018.754-.018.265 0 .545.018.723.018v-.092h-.065c-.221 0-.4-.056-.4-.416v-2.461h.77c.307 0 .347.261.354.43l.101-.033v-.36c0-.12.028-.234.046-.351h-.07c-.019.132-.148.141-.262.138h-2.372c-.108 0-.225 0-.265-.132h-.074a3.59 3.59 0 01-.028.37c0 .125-.036.249-.052.369h.099c.058-.308.098-.422.44-.419v.04c-.339 0-.33.065-.407.4v.015h-.187v-.021c.018-.13.04-.255.055-.388.019-.127.028-.256.028-.384v-.028h.144c.031.114.114.117.231.117h2.382c.126 0 .218 0 .224-.123v-.022h.022l.13.022v.021c-.02.12-.038.243-.05.366-.012.124 0 .247 0 .37l-.16.058v-.024c0-.173-.028-.422-.308-.422h-.75v2.41c0 .344.141.368.36.375h.104v.175l-.018.037zM32.615 31.32h.065c.163 0 .338-.022.338-.262v-2.39c0-.237-.175-.262-.338-.262h-.065v-.135c.179 0 .453.018.677.018.225 0 .496-.018.711-.018v.135h-.065c-.166 0-.338.025-.338.262v2.39c0 .24.172.262.338.262h.065v.138c-.218 0-.492-.018-.723-.018-.23 0-.492.018-.67.018l.005-.138z" fill="#231F20"/><path d="M33.982 31.437v-.09h-.044c-.163 0-.356-.03-.356-.282v-2.397c0-.253.193-.28.356-.28h.044v-.099c-.21 0-.474.019-.696.019-.221 0-.48-.019-.655-.019v.099h.043c.163 0 .357.027.357.28v2.39c0 .253-.194.284-.357.284h-.043v.095c.175 0 .434-.019.649-.019.215 0 .486.019.702.019m.021.04c-.221 0-.495-.019-.723-.019-.228 0-.492.019-.67.019h-.02v-.175h.084c.163 0 .308-.019.308-.244v-2.39c0-.225-.154-.237-.308-.24h-.083v-.179h.024c.179 0 .453.019.677.019.225 0 .502-.019.717-.019h.019v.179h-.09c-.166 0-.307 0-.307.24v2.39c0 .225.154.24.307.244h.084v.175h-.019zM35.892 31.326c.886 0 1.04-.781 1.04-1.45 0-.667-.36-1.473-1.117-1.473s-1.046.71-1.046 1.323c0 .819.376 1.6 1.114 1.6m-.068-3.126c.973 0 1.748.615 1.748 1.578a1.674 1.674 0 01-1.726 1.748 1.615 1.615 0 01-1.683-1.64A1.662 1.662 0 0135.84 28.2" fill="#231F20"/><path d="M34.77 29.726c0-.615.242-1.344 1.058-1.344.815 0 1.135.824 1.138 1.495.003.67-.172 1.47-1.074 1.47v-.04c.868 0 1.019-.76 1.022-1.427.003-.668-.357-1.452-1.099-1.455-.741-.003-1.015.695-1.018 1.304 0 .813.372 1.579 1.095 1.579v.04c-.757 0-1.123-.8-1.123-1.622m-.637.16a1.68 1.68 0 011.705-1.704v.04a1.646 1.646 0 00-1.683 1.664 1.594 1.594 0 001.69 1.619 1.655 1.655 0 001.707-1.73c0-.96-.766-1.538-1.73-1.538v-.04c.979 0 1.767.615 1.77 1.594a1.698 1.698 0 01-1.748 1.769 1.634 1.634 0 01-1.726-1.658M40.65 30.557v-1.72a.375.375 0 00-.398-.43h-.098v-.136c.212 0 .424.018.637.018.212 0 .375-.018.563-.018v.135h-.068c-.19 0-.406.037-.406.582v2.077a2.77 2.77 0 00.028.461h-.176l-2.35-2.621v1.88c0 .4.076.535.427.535h.077v.138c-.194 0-.39-.018-.588-.018-.196 0-.415.018-.615.018v-.138h.065c.307 0 .412-.215.412-.578v-1.924a.412.412 0 00-.418-.412h-.059v-.135c.175 0 .35.018.526.018.176 0 .268-.018.406-.018l2.034 2.286z" fill="#231F20"/><path d="M40.732 31.495h.151a2.898 2.898 0 01-.025-.44v-2.067c0-.551.231-.616.428-.616h.05v-.098c-.182 0-.364.018-.545.018-.182 0-.413-.018-.616-.018v.098h.08a.397.397 0 01.416.45v1.726l-2.031-2.299c-.135 0-.268.019-.406.019-.139 0-.342-.019-.508-.019v.099h.04a.43.43 0 01.437.43v1.954c0 .366-.101.597-.43.616h-.047v.095c.2 0 .403-.018.616-.018.212 0 .381.018.569.018v-.095h-.059c-.36 0-.449-.157-.449-.557v-1.939l2.33 2.643zm.176.04h-.191L38.4 28.954v1.828c0 .4.065.51.41.513h.098v.179h-.019c-.2 0-.394-.019-.59-.019-.197 0-.416.019-.616.019h-.018v-.179h.083c.307 0 .387-.193.39-.557v-1.92a.388.388 0 00-.396-.39h-.077v-.179h.018c.175 0 .354.019.526.019.173 0 .265-.019.422 0l2.006 2.261v-1.692c0-.363-.246-.406-.379-.41h-.12v-.178h.022c.215 0 .425.019.637.019.212 0 .372-.019.563-.019h.018v.179h-.086c-.19 0-.384.021-.387.56v2.077c-.004.153.005.306.024.458v.022l-.021-.01zM42.77 28.782l-.425 1.292h.855l-.43-1.292zm-.668 2.021a2.108 2.108 0 00-.099.357c0 .138.19.16.342.16h.052v.138c-.185 0-.372-.018-.554-.018-.181 0-.33 0-.492.018v-.138h.024a.406.406 0 00.397-.308l.733-2.095c.071-.184.128-.373.169-.566.145-.05.285-.116.415-.197a.215.215 0 01.037 0 .028.028 0 01.03 0c.016.037.029.077.044.114l.84 2.387c.055.16.108.33.17.468.053.12.176.193.307.182h.028v.138c-.207 0-.413-.018-.616-.018s-.452 0-.686.018v-.138h.052c.105 0 .283-.019.283-.133a1.597 1.597 0 00-.092-.329l-.178-.53H42.27l-.17.49z" fill="#231F20"/><path d="M42.357 30.052h.8l-.397-1.23-.403 1.23zm-.055.04l.44-1.332h.027v.022-.022l.431 1.332h-.898zm.923 1.345c.227 0 .449-.019.667-.019.219 0 .41 0 .616.019v-.09a.308.308 0 01-.308-.196c-.062-.139-.114-.308-.17-.465l-.84-2.39c0-.038-.027-.078-.04-.108-.012-.031 0 0 0 0h-.024a1.742 1.742 0 01-.41.181 4.028 4.028 0 01-.168.573l-.76 2.098a.44.44 0 01-.419.308v.095c.157 0 .308-.018.474-.018.166 0 .357 0 .532.018v-.095h-.03c-.148 0-.357-.019-.363-.182.023-.123.057-.243.101-.36h.019-.019l.15-.486h1.065l.185.542c.044.107.075.22.092.335 0 .138-.2.15-.307.154h-.031l-.012.086zm1.295.04c-.206 0-.41-.019-.615-.019-.207 0-.453 0-.687.019H43.2v-.175h.068c.107 0 .264-.025.264-.114a1.317 1.317 0 00-.092-.308l-.172-.517h-1.006l-.142.462a2.022 2.022 0 00-.102.35c0 .111.173.142.308.142h.07v.175h-.02c-.182 0-.37-.018-.551-.018-.182 0-.327 0-.493.018h-.021v-.175h.046a.4.4 0 00.381-.286l.73-2.096c.07-.19.13-.382.181-.578.145-.052.284-.118.416-.197a.15.15 0 01.043 0c.02-.001.04.01.049.028 0 .037.028.077.043.114l.84 2.387c.055.16.108.33.17.465.042.116.16.187.282.172h.046v.176l-.018-.025zM45.683 31.01c0 .184.126.236.274.255.205.02.41.02.615 0 .173-.02.33-.11.437-.247.067-.1.114-.212.142-.329h.132c-.05.262-.114.517-.17.779-.4 0-.802-.019-1.205-.019s-.803.019-1.203.019v-.139h.061c.166 0 .345-.021.345-.307v-2.354c0-.237-.179-.262-.345-.262h-.061v-.135c.24 0 .477.018.72.018s.461-.018.695-.018v.135h-.117c-.172 0-.308 0-.308.246l-.012 2.357z" fill="#231F20"/><path d="M47.077 31.437c.052-.246.11-.49.16-.735h-.092a1.12 1.12 0 01-.142.307.677.677 0 01-.452.256 3.437 3.437 0 01-.351.018h-.255c-.151-.018-.293-.08-.293-.277v-2.354c0-.252.16-.264.33-.264h.095v-.099c-.225 0-.446.019-.674.019-.228 0-.468-.019-.701-.019v.099h.043c.163 0 .363.027.363.28v2.347c0 .308-.2.327-.363.327h-.043v.095c.393 0 .787-.019 1.184-.019.397 0 .794.019 1.19.019m.016.04c-.403 0-.806-.019-1.206-.019-.4 0-.803.019-1.206.019h-.018v-.175h.083c.166 0 .323 0 .323-.287v-2.347c0-.225-.157-.237-.323-.24h-.083v-.179h.018c.243 0 .48.019.723.019s.459-.019.695-.019h.019v.179h-.135c-.176 0-.287 0-.29.224v2.357c0 .173.111.216.256.237h.252c.116 0 .232-.006.348-.018a.646.646 0 00.424-.237c.064-.1.111-.209.139-.323h.172v.024c-.05.262-.114.514-.17.776l-.02.009zM47.155 28.641h.058c.064 0 .096-.048.096-.128a.093.093 0 00-.1-.105h-.054v.233zm-.17.266v-.025c.061 0 .074 0 .074-.045v-.372c0-.051 0-.07-.07-.067v-.026h.256c.086 0 .17.042.17.135a.16.16 0 01-.119.15l.08.116c.032.044.07.084.113.118h-.1c-.045 0-.086-.099-.18-.23h-.054v.166c0 .032 0 .03.074.039v.051l-.244-.01zm.25.142a.407.407 0 10.02-.814.407.407 0 00-.02.814m0-.907a.5.5 0 11-.5.5.49.49 0 01.5-.5" fill="#231F20"/><path d="M18.692 12.148a7.735 7.735 0 1115.471 0 7.735 7.735 0 01-15.47 0z" fill="#FFF"/><path d="M26.437 20.022a8.031 8.031 0 01-8.08-7.942c0-4.778 3.65-8.08 8.08-8.08h2.077c4.381 0 8.378 3.302 8.378 8.08 0 4.37-4 7.942-8.378 7.942h-2.077zm.025-15.36a7.335 7.335 0 10-.019 14.67 7.335 7.335 0 00.019-14.67zm-1.671 11.67V7.655a4.643 4.643 0 000 8.674v.003zm6.314-4.335a4.652 4.652 0 00-2.985-4.342v8.677a4.658 4.658 0 002.985-4.335z" fill="#076AAA"/></g></svg>