<?xml version="1.0" encoding="UTF-8"?>
<svg width="56px" height="36px" viewBox="0 0 56 36" version="1.1" xmlns="http://www.w3.org/2000/svg" xmlns:xlink="http://www.w3.org/1999/xlink">
    <!-- Generator: Sketch 60.1 (88133) - https://sketch.com -->
    <title>PM/Discover</title>
    <desc>Created with Sketch.</desc>
    <g id="PM/Discover" stroke="none" stroke-width="1" fill="none" fill-rule="evenodd">
        <g id="Group-2" transform="translate(4.000000, 14.000000)" fill-rule="nonzero">
            <g id="discover">
                <g id="Group">
                    <path d="M3.96641221,5.88156425 C3.49465649,6.2972067 2.88091603,6.47821229 1.91221374,6.47821229 L1.50916031,6.47821229 L1.50916031,1.51284916 L1.91221374,1.51284916 C2.88091603,1.51284916 3.47175573,1.68268156 3.96641221,2.12067039 C4.48625954,2.57206704 4.79770992,3.27150838 4.79770992,3.98882682 C4.79770992,4.71061453 4.48625954,5.43240223 3.96641221,5.88156425 L3.96641221,5.88156425 Z M2.21221374,0.241340782 L0.00916030534,0.241340782 L0.00916030534,7.74972067 L2.20076336,7.74972067 C3.36641221,7.74972067 4.20687023,7.48156425 4.94656489,6.88268156 C5.82366412,6.17430168 6.34351145,5.10614525 6.34351145,4 C6.34351145,1.78547486 4.64656489,0.241340782 2.21221374,0.241340782 L2.21221374,0.241340782 Z M7.0351145,7.74972067 L8.5351145,7.74972067 L8.5351145,0.241340782 L7.0351145,0.241340782 L7.0351145,7.74972067 L7.0351145,7.74972067 Z M12.2061069,3.12402235 C11.3061069,2.79776536 11.040458,2.58547486 11.040458,2.17877095 C11.040458,1.70502793 11.5122137,1.34748603 12.1580153,1.34748603 C12.6068702,1.34748603 12.9778626,1.52849162 13.3694656,1.95530726 L14.1549618,0.951955307 C13.5091603,0.4 12.7374046,0.120670391 11.8946565,0.120670391 C10.5320611,0.120670391 9.49465649,1.04357542 9.49465649,2.2726257 C9.49465649,3.30726257 9.9778626,3.83687151 11.3885496,4.33072626 C11.9770992,4.53407821 12.2748092,4.66815642 12.4259542,4.7575419 C12.7259542,4.94748603 12.8770992,5.22011173 12.8770992,5.53519553 C12.8770992,6.14301676 12.3824427,6.59441341 11.7114504,6.59441341 C10.9946565,6.59441341 10.4198473,6.24357542 10.0740458,5.59329609 L9.10534351,6.50502793 C9.79694656,7.4972067 10.6282443,7.93519553 11.7687023,7.93519553 C13.3282443,7.93519553 14.4229008,6.92290503 14.4229008,5.47039106 C14.4183206,4.2726257 13.9122137,3.73184358 12.2061069,3.12402235 L12.2061069,3.12402235 Z M14.8923664,4.00223464 C14.8923664,6.21005587 16.6694656,7.92178771 18.9549618,7.92178771 C19.6007634,7.92178771 20.1549618,7.79888268 20.8374046,7.48379888 L20.8374046,5.75865922 C20.2374046,6.34413408 19.7061069,6.58100559 19.0259542,6.58100559 C17.5145038,6.58100559 16.440458,5.51061453 16.440458,3.99106145 C16.440458,2.54972067 17.5465649,1.4122905 18.9549618,1.4122905 C19.6717557,1.4122905 20.2122137,1.6603352 20.8374046,2.25698324 L20.8374046,0.534078212 C20.1778626,0.207821229 19.6374046,0.0737430168 18.9916031,0.0737430168 C16.7152672,0.0715083799 14.8923664,1.81899441 14.8923664,4.00223464 L14.8923664,4.00223464 Z M32.7389313,5.2849162 L30.6870229,0.241340782 L29.0473282,0.241340782 L32.3129771,7.94413408 L33.121374,7.94413408 L36.4465649,0.241340782 L34.8206107,0.241340782 L32.7389313,5.2849162 Z M37.1221374,7.74972067 L41.3793893,7.74972067 L41.3793893,6.48044693 L38.6221374,6.48044693 L38.6221374,4.45363128 L41.278626,4.45363128 L41.278626,3.18212291 L38.6221374,3.18212291 L38.6221374,1.5150838 L41.3793893,1.5150838 L41.3793893,0.243575419 L37.1221374,0.243575419 L37.1221374,7.74972067 Z M44.310687,3.69832402 L43.8732824,3.69832402 L43.8732824,1.42346369 L44.3358779,1.42346369 C45.270229,1.42346369 45.778626,1.80558659 45.778626,2.53631285 C45.778626,3.29162011 45.270229,3.69832402 44.310687,3.69832402 L44.310687,3.69832402 Z M47.3221374,2.45810056 C47.3221374,1.05251397 46.3305344,0.241340782 44.5992366,0.241340782 L42.3732824,0.241340782 L42.3732824,7.74972067 L43.8732824,7.74972067 L43.8732824,4.73296089 L44.070229,4.73296089 L46.1473282,7.74972067 L47.9931298,7.74972067 L45.570229,4.58547486 C46.7015267,4.36424581 47.3221374,3.60893855 47.3221374,2.45810056 L47.3221374,2.45810056 Z" id="Shape" fill="#231F20"></path>
                    <path d="M29.4961832,4 C29.4961832,6.20558659 27.6641221,7.99329609 25.4038168,7.99329609 C23.1435115,7.99329609 21.3114504,6.20558659 21.3114504,4 C21.3114504,1.79441341 23.1435115,0.00670391061 25.4038168,0.00670391061 C27.6664122,0.00893854749 29.4961832,1.79664804 29.4961832,4" id="Shape" fill="#F46F1B"></path>
                </g>
            </g>
        </g>
    </g>
</svg>