<?xml version="1.0" encoding="UTF-8"?>
<svg width="56px" height="36px" viewBox="0 0 56 36" version="1.1" xmlns="http://www.w3.org/2000/svg" xmlns:xlink="http://www.w3.org/1999/xlink">
    <!-- Generator: Sketch 60.1 (88133) - https://sketch.com -->
    <title>CC/maestro</title>
    <desc>Created with Sketch.</desc>
    <g id="CC/maestro" stroke="none" stroke-width="1" fill="none" fill-rule="evenodd">
        <g id="Group-50" transform="translate(12.000000, 8.000000)" fill-rule="nonzero">
            <g id="_Group_">
                <polygon id="Rectangle-path" fill="#7673C0" points="11.6054422 2.07603306 20.1768707 2.07603306 20.1768707 17.0472727 11.6054422 17.0472727"></polygon>
                <path d="M12.1496599,9.56297521 C12.1464551,6.6410558 13.526216,3.88007782 15.8911565,2.07603306 C11.8747729,-0.991721843 6.10708498,-0.544876813 2.64146881,3.10253747 C-0.824147355,6.74995175 -0.824147355,12.373354 2.64146881,16.0207683 C6.10708498,19.6681826 11.8747729,20.1150276 15.8911565,17.0472727 C13.5269684,15.2438007 12.1472918,12.4839666 12.1496599,9.56297521 L12.1496599,9.56297521 Z" id="_Path_" fill="#EB001B"></path>
                <path d="M31.7414966,9.56297521 C31.7414966,13.2081667 29.5998424,16.533329 26.226328,18.1262529 C22.8528135,19.7191768 18.8396163,19.3002036 15.8911565,17.0472727 C18.254313,15.2422696 19.6340934,12.4828024 19.6340934,9.56165289 C19.6340934,6.6405034 18.254313,3.88103621 15.8911565,2.07603306 C18.8396163,-0.176897805 22.8528135,-0.595871054 26.226328,0.997052857 C29.5998424,2.58997677 31.7414966,5.91513907 31.7414966,9.56033058 L31.7414966,9.56297521 Z" id="Shape" fill="#00A1DF"></path>
                <path d="M30.8054422,15.4682479 L30.8054422,15.1550479 L30.9333333,15.1550479 L30.9333333,15.0902479 L30.6095238,15.0902479 L30.6095238,15.1550479 L30.7482993,15.1550479 L30.7482993,15.4682479 L30.8054422,15.4682479 Z M31.4340136,15.4682479 L31.4340136,15.0902479 L31.3360544,15.0902479 L31.2217687,15.3602479 L31.107483,15.0902479 L31.0204082,15.0902479 L31.0204082,15.4682479 L31.0911565,15.4682479 L31.0911565,15.1847479 L31.1972789,15.4304479 L31.2707483,15.4304479 L31.3768707,15.1847479 L31.3768707,15.4709479 L31.4340136,15.4682479 Z" id="Shape" fill="#00A1DF"></path>
            </g>
        </g>
    </g>
</svg>