<?xml version="1.0" encoding="UTF-8"?><svg width="56" height="36" viewBox="0 0 56 36" xmlns="http://www.w3.org/2000/svg"><g fill="none" fill-rule="evenodd"><path d="M0 3.75A3.749 3.749 0 013.75 0h48.5A3.756 3.756 0 0156 3.75v28.5A3.749 3.749 0 0152.25 36H3.75A3.756 3.756 0 010 32.25V3.75z" fill="#FFF" fill-rule="nonzero"/><path d="M1.25 3.75v28.5c0 1.375 1.123 2.5 2.5 2.5h48.5c1.382 0 2.5-1.118 2.5-2.5V3.75c0-1.375-1.123-2.5-2.5-2.5H3.75a2.499 2.499 0 00-2.5 2.5z" fill="#FFF"/><g fill-rule="nonzero"><path d="M46.007 6.06l-9.833-.002h-.003l-.022.001c-1.35.039-3.033 1.052-3.34 2.3l-4.65 19.234c-.306 1.26.527 2.286 1.868 2.305h10.33c1.32-.061 2.604-1.063 2.905-2.297l4.65-19.234c.312-1.273-.541-2.307-1.905-2.307" fill="#01798A"/><path d="M28.16 27.593l4.65-19.234c.306-1.248 1.988-2.261 3.34-2.3l-3.91-.002-7.045-.001c-1.354.025-3.059 1.045-3.365 2.303L17.18 27.593c-.308 1.26.527 2.286 1.867 2.304h10.981c-1.34-.018-2.174-1.044-1.868-2.304" fill="#024381"/><path d="M17.179 27.593L21.83 8.359c.306-1.258 2.01-2.278 3.365-2.304l-9.023-.002c-1.362 0-3.109 1.032-3.42 2.306L8.1 27.593a2.265 2.265 0 00-.053.344v.357c.091.919.842 1.588 1.92 1.603h9.08c-1.341-.018-2.176-1.044-1.868-2.304" fill="#DD0228"/><path d="M25.386 20.07h.17c.157 0 .263-.05.313-.147l.443-.62h1.189l-.248.408h1.425l-.181.626H26.8c-.195.274-.435.403-.724.388h-.883l.192-.655zm-.195.897h3.121l-.199.68h-1.255l-.192.655h1.222l-.2.68h-1.22l-.284.969c-.07.162.022.235.275.218h.996l-.185.632H25.36c-.363 0-.487-.194-.373-.582l.363-1.237h-.781l.198-.68h.781l.192-.656h-.747l.199-.68zm4.982-1.67l-.05.399s.59-.413 1.124-.413h1.977l-.756 2.557c-.063.292-.332.437-.806.437h-2.24l-.525 1.796c-.03.096.013.146.126.146h.44l-.162.557h-1.12c-.43 0-.609-.12-.538-.364l1.483-5.114h1.047zm1.673.724h-1.763l-.212.69s.294-.198.785-.205c.49-.008 1.049 0 1.049 0l.141-.485zm-.639 1.6c.13.017.204-.031.212-.145l.108-.364h-1.766l-.148.51h1.594zm-1.191.827h1.018l-.019.412h.271c.137 0 .205-.041.205-.122l.08-.267h.847l-.113.389c-.096.323-.35.493-.761.51H31l-.002.703c-.01.113.099.17.324.17h.51l-.165.558h-1.223c-.343.015-.51-.138-.507-.461l.078-1.892zM17.677 15.89c-.138.633-.458 1.119-.955 1.464-.492.339-1.127.509-1.904.509-.731 0-1.267-.174-1.61-.522-.237-.248-.355-.562-.355-.943 0-.157.02-.326.06-.508l.829-3.731h1.25l-.816 3.689a1.113 1.113 0 00-.034.283.69.69 0 00.15.464c.148.18.389.27.724.27.384 0 .701-.089.947-.266.246-.176.407-.426.48-.751l.818-3.69h1.245l-.829 3.732zm5.252-1.468h.979l-.767 3.33h-.978l.766-3.33zm.308-1.213h.988l-.185.808h-.988l.185-.808zm1.538 4.29c-.256-.229-.386-.537-.387-.93a2.339 2.339 0 01.052-.47c.116-.54.364-.97.745-1.286.38-.318.84-.478 1.376-.478.44 0 .79.115 1.045.345.255.231.383.543.383.94 0 .068-.005.147-.015.231a4.007 4.007 0 01-.04.25c-.114.532-.36.957-.742 1.268-.38.313-.838.47-1.372.47-.442 0-.79-.113-1.045-.34zm1.866-.66c.173-.174.296-.44.372-.793a1.824 1.824 0 00.036-.327c0-.206-.056-.365-.168-.478-.112-.114-.27-.17-.476-.17a.885.885 0 00-.665.268c-.175.178-.299.448-.376.807-.011.055-.02.11-.028.164a1.118 1.118 0 00-.007.154c0 .204.056.362.168.473.112.112.27.167.478.167a.891.891 0 00.666-.264zM34.344 20.098l.236-.777h1.194l-.052.286s.61-.286 1.05-.286h1.476l-.235.777h-.232l-1.114 3.664h.233l-.221.728h-.233l-.096.315h-1.156l.096-.315h-2.281l.222-.728h.229l1.114-3.664h-.23zm1.288 0l-.304.992s.52-.187.968-.24c.099-.346.228-.752.228-.752h-.892zm-.445 1.457l-.305 1.038s.577-.265.972-.287c.114-.402.228-.751.228-.751h-.895zm.224 2.207l.228-.753h-.891l-.23.753h.893zm2.887-4.489h1.123l.048.387c-.008.099.055.146.188.146h.198l-.2.656h-.825c-.315.015-.477-.097-.492-.34l-.04-.849zm-.329 1.407h3.636l-.213.705h-1.158l-.198.654h1.156l-.215.703H39.69l-.29.412h.63l.145.825c.017.082.095.122.229.122h.195l-.205.68h-.694c-.359.016-.544-.096-.56-.34l-.167-.753-.573.802c-.136.226-.344.332-.625.315h-1.059l.206-.68h.33a.452.452 0 00.35-.17l.898-1.213h-1.157l.214-.703h1.256l.2-.654h-1.257l.214-.705zm-19.14-6.258h.883l-.1.481.126-.137a1.42 1.42 0 011.044-.429c.372 0 .64.101.808.304.166.203.211.484.133.844l-.487 2.27h-.907l.439-2.057c.045-.213.033-.371-.037-.474-.07-.102-.201-.152-.391-.152a.884.884 0 00-.59.203.99.99 0 00-.32.566l-.404 1.914h-.91l.713-3.333zm10.128 0h.884l-.1.481.125-.137a1.423 1.423 0 011.045-.429c.372 0 .64.101.807.304.165.203.213.484.132.844l-.484 2.27h-.91l.44-2.057c.045-.213.033-.371-.036-.474-.072-.102-.201-.152-.39-.152a.89.89 0 00-.592.203.977.977 0 00-.318.566l-.407 1.914h-.908l.712-3.333zm4.37-2.066h2.566c.493 0 .875.105 1.137.31.261.208.392.506.392.894v.012c0 .074-.005.157-.013.248-.013.091-.03.183-.05.273a2.088 2.088 0 01-.78 1.24c-.408.313-.89.47-1.444.47h-1.377l-.425 1.952H32.14l1.186-5.399zm.641 2.508h1.141c.298 0 .534-.064.706-.192.17-.13.284-.326.346-.594.01-.05.017-.094.024-.135.004-.039.01-.078.01-.115 0-.191-.074-.33-.22-.417-.145-.088-.374-.13-.69-.13h-.97l-.347 1.583zm8.787 3.535c-.376.749-.735 1.185-.946 1.388-.211.201-.63.668-1.636.633l.087-.572c.847-.244 1.305-1.343 1.566-1.83l-.311-3.587.655-.008h.55l.06 2.25 1.03-2.25h1.043l-2.098 3.976zm-2.917-3.705l-.415.266c-.433-.316-.828-.512-1.592-.181-1.04.45-1.908 3.906.955 2.768l.163.18 1.126.028.74-3.14-.977.08zm-.64 1.717c-.182.499-.586.828-.902.735-.317-.092-.43-.573-.246-1.073.18-.5.587-.829.901-.735.317.092.43.573.246 1.073z" fill="#FFF"/></g></g></svg>