<?xml version="1.0" encoding="utf-8"?>
<svg width="800px" height="800px" viewBox="0 0 24 24" fill="none"
     xmlns="http://www.w3.org/2000/svg">
 
  <!-- Cross mark (scaled 150% around its center) -->
<path
    d="M16.5 16L21.5 21M21.5 16L16.5 21"
    stroke="#FF0000"
    stroke-width="1.5"
    stroke-linecap="round"
    stroke-linejoin="round"
    transform="translate(18 18.5) scale(1.1) translate(-19 -18.5)"
  />
 
  <!-- Card + horizontal line -->
<path
    d="M22 10H2
       M22 12V8.2C22 7.0799 22 6.51984 21.782 6.09202
       C21.5903 5.7157 21.2843 5.40974 20.908 5.21799
       C20.4802 5 19.9201 5 18.8 5
       H5.2C4.0799 5 3.51984 5 3.09202 5.21799
       C2.7157 5.40973 2.40973 5.71569 2.21799 6.09202
       C2 6.51984 2 7.0799 2 8.2
       V15.8C2 16.9201 2 17.4802 2.21799 17.908
       C2.40973 18.2843 2.71569 18.5903 3.09202 18.782
       C3.51984 19 4.0799 19 5.2 19H12"
    stroke="#222"
    stroke-width="2"
    stroke-linecap="round"
    stroke-linejoin="round"
  />
 
</svg>